<?xml version="1.0" encoding="UTF-8"?>
<svg id="_图层_1" data-name="图层_1" xmlns="http://www.w3.org/2000/svg" version="1.1" viewBox="0 0 1672 941">
  <!-- Generator: Adobe Illustrator 29.6.0, SVG Export Plug-In . SVG Version: 2.1.1 Build 207)  -->
  <defs>
    <style>
      .st0 {
        fill: #06479c;
      }

      .st1 {
        fill: #4b80ba;
      }

      .st2 {
        fill: #fbfcfd;
      }

      .st3 {
        fill: #478230;
      }

      .st4 {
        fill: #2a6411;
      }

      .st5 {
        fill: #6a3992;
      }

      .st6 {
        fill: #96b589;
      }

      .st7 {
        fill: #652c8f;
      }

      .st8 {
        fill: #68358f;
      }

      .st9 {
        fill: #491977;
      }

      .st10 {
        fill: #3e7928;
      }

      .st11 {
        fill: #571d80;
      }

      .st12 {
        fill: #632a8f;
      }

      .st13 {
        fill: #fcfcfc;
      }

      .st14 {
        fill: #602c8d;
      }

      .st15 {
        fill: #3e7a27;
      }

      .st16 {
        fill: #468234;
      }

      .st17 {
        font-size: 19px;
      }

      .st17, .st18, .st19, .st20, .st21, .st22, .st23, .st24 {
        isolation: isolate;
      }

      .st17, .st19, .st20, .st21, .st23, .st24 {
        font-family: TimesNewRomanPS-BoldMT, 'Times New Roman';
        font-weight: 700;
      }

      .st25 {
        fill: #5f318f;
      }

      .st18, .st22 {
        font-family: TimesNewRomanPSMT, 'Times New Roman';
      }

      .st18, .st23 {
        font-size: 18px;
      }

      .st26 {
        fill: #7841a1;
      }

      .st27 {
        fill: #0948a2;
      }

      .st28 {
        fill: #447c2f;
      }

      .st29 {
        fill: #4f1d7b;
      }

      .st30 {
        fill: #0546a0;
      }

      .st31 {
        fill: #ab8bc4;
      }

      .st32 {
        fill: #2f6e1a;
      }

      .st33 {
        fill: #a2be97;
      }

      .st34 {
        fill: #68358e;
      }

      .st19 {
        font-size: 22px;
      }

      .st35 {
        fill: #357124;
      }

      .st36 {
        fill: #286111;
      }

      .st37 {
        fill: #6b3693;
      }

      .st38 {
        fill: #65318d;
      }

      .st39 {
        fill: #0342a5;
      }

      .st40 {
        fill: #a3bd95;
      }

      .st41, .st24 {
        fill: #fff;
      }

      .st42 {
        fill: #2e6d1a;
      }

      .st43 {
        fill: #003497;
      }

      .st44 {
        fill: #fafbf9;
      }

      .st45 {
        fill: #a5cb95;
      }

      .st46 {
        fill: #f9fbfc;
      }

      .st47 {
        fill: #054192;
      }

      .st48 {
        fill: #003296;
      }

      .st49 {
        fill: #003199;
      }

      .st50 {
        fill: #fcfbfd;
      }

      .st51 {
        fill: #04499d;
      }

      .st52 {
        fill: #fbf9fc;
      }

      .st53 {
        fill: #457d30;
      }

      .st54 {
        fill: #0747a0;
      }

      .st55 {
        fill: #683690;
      }

      .st56 {
        fill: #437a2f;
      }

      .st57 {
        fill: #94b0d5;
      }

      .st58 {
        fill: #92ae84;
      }

      .st59 {
        fill: #013391;
      }

      .st60 {
        fill: #91b185;
      }

      .st61 {
        fill: #95b48b;
      }

      .st62 {
        fill: #9ab990;
      }

      .st63 {
        fill: #064a9f;
      }

      .st64 {
        fill: #00399f;
      }

      .st65 {
        fill: #64308e;
      }

      .st66 {
        fill: #41772c;
      }

      .st67 {
        fill: #467f2f;
      }

      .st68 {
        fill: #003897;
      }

      .st69 {
        fill: #fbfcfa;
      }

      .st70 {
        fill: #521682;
      }

      .st71 {
        fill: #0a4ca8;
      }

      .st72 {
        fill: #044ca5;
      }

      .st73 {
        fill: #084ca0;
      }

      .st74 {
        fill: #fefefd;
      }

      .st75 {
        fill: #0340a4;
      }

      .st76 {
        fill: #3c7724;
      }

      .st77 {
        fill: #33721d;
      }

      .st78 {
        fill: #0148a1;
      }

      .st20 {
        font-size: 16.5px;
      }

      .st79 {
        fill: #552282;
      }

      .st80 {
        fill: #fffeff;
      }

      .st81 {
        fill: #66368d;
      }

      .st21 {
        font-size: 20px;
      }

      .st82 {
        fill: #fdfdfc;
      }

      .st83 {
        fill: #fcfcfd;
      }

      .st84 {
        fill: #37741a;
      }

      .st85 {
        fill: #407a2a;
      }

      .st86 {
        fill: #3f7929;
      }

      .st87 {
        fill: #43792e;
      }

      .st88 {
        fill: #693691;
      }

      .st89 {
        fill: #447d30;
      }

      .st90 {
        fill: #65308c;
      }

      .st91 {
        fill: #0343a7;
      }

      .st92 {
        fill: #5f2f80;
      }

      .st93 {
        fill: #551984;
      }

      .st94 {
        fill: #6a3991;
      }

      .st95 {
        fill: #0b4da6;
      }

      .st96 {
        fill: #0a4fa8;
      }

      .st97 {
        fill: #003798;
      }

      .st98 {
        fill: #693890;
      }

      .st99 {
        fill: #fbfbfd;
      }

      .st100 {
        fill: #0b499b;
      }

      .st22 {
        font-size: 21px;
      }

      .st101 {
        fill: #632d8c;
      }

      .st102 {
        fill: #faf9fb;
      }

      .st103 {
        fill: #0549a5;
      }

      .st104 {
        fill: #437631;
      }

      .st105 {
        fill: #3d7929;
      }

      .st106 {
        fill: #3c7427;
      }

      .st107 {
        fill: #fefefe;
      }

      .st108 {
        fill: #fbfafc;
      }

      .st109 {
        fill: #3c7825;
      }

      .st110 {
        fill: #6b3893;
      }

      .st111 {
        fill: #014baa;
      }

      .st112 {
        fill: #6b3a98;
      }

      .st113 {
        fill: #377422;
      }

      .st114 {
        fill: #0343a5;
      }

      .st115 {
        fill: #faf8fb;
      }

      .st116 {
        fill: #6d3b90;
      }

      .st117 {
        fill: #124ba4;
      }

      .st118 {
        fill: #fdfdfd;
      }

      .st119 {
        fill: #437b30;
      }

      .st24 {
        font-size: 26px;
      }

      .st120 {
        fill: #672d92;
      }
    </style>
  </defs>
  <g id="_x23_fefefeff">
    <path class="st107" d="M0,0h1672v941H0V0M21.23,11.46c-6.29,1-10.57,7.36-10.41,13.52-.08,82.34,0,164.69-.04,247.04.01,4.11-.34,8.58,1.94,12.23,2.3,3.91,6.83,6.17,11.32,6.08,47.33.01,94.66.03,141.98,0,7.41,0,13.03-7.24,12.52-14.36-.12-83.67.02-167.35-.05-251.02.07-6.81-5.34-13.83-12.53-13.65-45.32-.09-90.63-.02-135.95-.09-2.92.01-5.87-.14-8.78.25M203.73,19.58c-1.19,2.68-2.55,5.42-2.59,8.42-.16,56.33-.43,112.68-.11,169.01-.32,11.02.39,22.04-.09,33.06,0,11.99-.16,23.98.15,35.97.13,5.01-.7,10.38,1.85,14.96,2.55,5.26,8.36,8.36,14.11,8.32,58.31.03,116.63-.01,174.94-.04,7.95-.12,14.94-7.18,14.83-15.15.13-42.98.06-85.97.09-128.95,8.6.06,17.21-.04,25.81.2-.45,2.58-.92,5.16-1.41,7.73,4.93-2.83,9.91-5.58,15.01-8.09.36-.1,1.09-.28,1.46-.38-.11,41.13-.01,82.26-.1,123.39-.05,3.03.11,6.05.55,9.05,1.78,7.04,8.37,12.52,15.75,12.23,147.67.03,295.35-.03,443.02.02,4.53-.13,9.23.61,13.6-.95,2.56-.92,4.57-2.82,6.6-4.55,2.12-2.85,3.68-6.21,3.46-9.84.04-42.95.01-85.89.01-128.84,5.99.11,11.99.07,17.99.17-.33,2.57-.74,5.13-1.17,7.69,5.48-2.42,10.37-6.41,15.99-8.25-.18,43.07.02,86.15-.1,129.22-.21,4.88,1.49,10.16,5.66,13.03,3.43,2.53,7.88,2.34,11.94,2.3,44.35.01,88.69.02,133.04,0,5.9.02,10.92-4.4,12.45-9.97,1.19-5.73.68-11.59.77-17.39.05-38.94-.07-77.87.05-116.81,6.1.07,12.2.06,18.31,0,.14,2.62-.23,5.24-.42,7.85,4.82-3.12,10.06-5.5,15.01-8.38.25.34.73,1.03.97,1.38-.19,1.99-.36,3.98-.4,5.99.15,16.33-.31,32.68.32,49-.52,9.33-.49,18.71.1,28.04-.79,10.95-.26,21.94-.39,32.92.14,5.93-.66,12,1.05,17.79.95,5.42,6.56,9.6,12.12,9.55,50.68.1,101.36-.04,152.05.05,7.34.57,13.86-6.18,13.62-13.41.06-28.29-.04-56.58.04-84.87-.23-2.51.58-5.42-.51-7.68,43.06-.16,86.12.18,129.18-.14.23.09.7.26.93.34-.5,2.69-.85,5.39-1.08,8.11,5.48-3.5,11.28-6.44,17.08-9.37-.09,109.88-.07,219.77,0,329.65-5.84-2.69-11.35-6-17.05-8.95.27,2.71.62,5.43.75,8.17-16.66-.88-33.33.33-49.99-.33-14.66.61-29.32-.17-43.98.22-12.18-.05-24.36.13-36.52-.31-.01-56.93-.05-113.87-.03-170.81.3-6.53-4.51-13.7-11.53-13.63-51.98-.08-103.97-.12-155.95,0-4.45-.23-8.18,2.93-10.44,6.47-1.34,2.5-2.09,5.3-1.96,8.16.05,37.18-.07,74.36.08,111.54l-1.51-.19c-4.34-2.44-8.79-4.67-13.04-7.24.15,2.47.28,4.95.45,7.43-1.71.07-3.42.14-5.1.26-4.41-.35-8.85-.04-13.26-.11.09-36.9,0-73.79.04-110.69.32-6.75-3.16-14.13-10.23-15.74-47.33.05-94.65-.07-141.98.06-4.78-.16-8.91,3.42-10.49,7.74-1.59,3.81-1.04,8.02-1.1,12.04.03,35.74-.04,71.48.02,107.23-5.13-2.62-10.16-5.43-15.12-8.34.14,2.54.29,5.09.45,7.64-5.91-.06-11.81.12-17.7-.05.67-13.5.12-27.03.29-40.54,0-24.68-.01-49.37-.04-74.05-1.24-6.25-6.45-12.39-13.35-11.66-152.67-.06-305.34-.07-458.01-.01-.16.11-.48.35-.64.46-6.19-.51-11.14,6.35-11.06,12.22-.03,38.09-.1,76.17.02,114.26-5.5-2.48-10.73-5.5-16.09-8.25.27,2.55.64,5.11.81,7.68-8.62.04-17.24.07-25.86,0-.15-37.55.08-75.1-.04-112.66.14-6-3.61-11.44-9.16-13.63l-.33.2c-15.19-.56-30.41-.06-45.61-.23-41.32-.02-82.65-.03-123.97.02-5.64.09-11.3-.35-16.92.31-6.36,1.33-9.94,8.23-9.6,14.35-.06,78.99-.07,157.98-.01,236.97-.03,2.71-.02,5.44.38,8.13,1.06,6.12,6.82,10.87,13.09,10.42,58.36.09,116.71-.02,175.07.07,3.41-.08,7.06.28,10.18-1.4,3.5-1.75,5.63-5.26,6.72-8.9.44-36.42.08-72.86.19-109.28-.81-7.13.49-14.28-.34-21.39,8.77-.16,17.53-.1,26.3-.04-.09,2.67-.69,5.28-1.15,7.9,5.34-3.06,10.74-6.04,16.33-8.63-.03,43.64-.08,87.27.01,130.91,1.33,5.89,6.28,11.11,12.68,10.78,152.65.01,305.31.06,457.97,0,6.48.15,11.19-5.57,12.39-11.48.06-29.69.01-59.38.03-89.07-.23-13.42.42-26.87-.33-40.27,5.93-.14,11.87-.02,17.82-.1-.21,2.58-.45,5.17-.69,7.76,5.18-2.67,10.08-5.85,15.29-8.47-.04,42.38.02,84.76-.04,127.14-.14,3.48.91,6.95,3.02,9.74,1.81,3.24,5.94,4.72,9.54,4.69,46.03.12,92.07-.03,138.11.04,4.3.2,8.43-2.26,10.81-5.77.99-2.17,1.7-4.44,2.39-6.71-.17-42.84.02-85.68-.09-128.53,6.14,0,12.28.14,18.42.03-.14,1.86-.26,3.73-.36,5.6l-.37.75c-.09.42-.28,1.24-.37,1.66,4.54-2.67,9.15-5.2,13.72-7.83l1.43-.23c-.17,43.27.03,86.53-.09,129.8l.82-.07c.02,6.05,5.57,11.24,11.55,11.27,51.03.1,102.07,0,153.1.03,7.77,1.13,14.97-5.84,14.4-13.59-.06-22.96.06-45.92.02-68.87,43.5-.52,87.03-.02,130.54-.23-.06,2.86-.6,5.68-.96,8.51,5.68-3.32,11.61-6.21,17.21-9.66-.06,55.42-.02,110.85-.05,166.27.14,52.53-.17,105.08.18,157.61-3.88-2.26-7.92-4.22-11.79-6.47-.51,2.44-2.98,1.83-4.82,2.02.05.83.15,2.5.2,3.33-43.48,0-86.96-.03-130.44.03.02-59.5.02-118.99.04-178.49.01-4.36.29-8.8-.9-13.05-2.27-4.28-6.58-7.76-11.66-7.41-59.34.01-118.68-.02-178.01.01-5.79-.2-10,4.61-11.77,9.66l.3.31c-.41,8.5-.11,17.02-.18,25.54.03,28.77-.05,57.55.03,86.33l-.98-.25c-4.97-2.58-9.81-5.42-14.8-7.95.38,2.5.71,5.01.96,7.55-5.74-.04-11.48.16-17.21,0,.08-36.59,0-73.17.07-109.75-.74-3.51-1.91-7.21-4.9-9.45-4.08-3.32-9.64-2.69-14.54-2.71-36.65-.01-73.3-.01-109.96.02-3.64.02-7.63.22-10.54,2.69-3.81,2.91-5.3,7.89-5.06,12.53.09,35.68-.13,71.37.11,107.05-5.2-2.06-9.68-5.59-14.79-7.86.41,2.44.79,4.89,1.17,7.35-5.44.59-11.04-.63-16.33.92.06-37.32.29-74.65-.14-111.96l.32-.37c-1.8-5.48-6.71-10.27-12.79-9.95-164-.11-328-.02-492.01-.02-4.39-.31-8.71,2.09-10.96,5.84-1.85,2.95-2.22,6.52-2.18,9.94.1,35.46-.05,70.92.07,106.38-5.3-2.39-10.33-5.31-15.36-8.2.29,2.53.76,5.07.91,7.63-7.73-.25-15.47.09-23.2-.02.07-34.91-.02-69.83.03-104.74,0-2.43-.31-4.84-.53-7.25-1.34-5.78-6.66-10.36-12.73-9.99-49-.04-98.01-.05-147.02.01-5.02-.18-9.48,2.81-12.11,6.93-.61,2.37-1.37,4.75-1.37,7.23,0,81.01,0,162.02.02,243.02-.11,5.76,3.53,11.11,8.96,13.03,4.82.6,9.68.32,14.52.37,45.65.04,91.29-.08,136.94.01,1.57-.06,3.2-.03,4.69-.62,3.7-1.32,6.7-4.36,7.85-8.12,1.16-4.11.66-8.4.75-12.6.05-41.5-.14-83,.12-124.5,7.7.16,15.41.16,23.11.08-.1,2.72-.65,5.4-1.03,8.11,5.04-3.04,10.26-5.74,15.39-8.6.1,44.29-.07,88.58.05,132.86-.14,5.53,3.19,10.55,8.13,12.9l.29-.36c1.52.37,3.05.8,4.64.8h492.05c5.95.24,10.73-4.27,12.7-9.58l-.31-.27c.66-16.47.1-32.98.29-49.47-.03-28.8-.02-57.59,0-86.39,5.14-.06,10.3.15,15.45-.2.3,2.77.55,5.6-.56,8.25.65-.33,1.32-.64,2-.95,4.31-2.41,8.68-4.74,12.82-7.44.07,44.58-.07,89.16.08,133.73.04,4.95,3.14,9.27,7.41,11.58l.37-.21c1.86.45,3.75.95,5.7.94,39.7-.04,79.41.05,119.11,0,5.6.24,11.02-4.14,11.79-9.7.94-4.17.41-8.46.52-12.68.05-41.13-.09-82.26.11-123.38,5.62.04,11.26.3,16.88-.06.06,2.83-.49,5.62-.9,8.41,4.7-2.47,9.24-5.23,13.86-7.84.52-.23,1.57-.7,2.1-.93-.14,44.26-.03,88.52-.07,132.78-.47,5.65,3.39,11.61,9.09,12.69,2.63,1.34,5.68.76,8.52.88,55.03-.09,110.05-.02,165.08-.01,3.76-.11,7.71.53,11.29-.97h.82c2.17-1.61,4.54-3.18,5.79-5.67,1.94-3.29,1.62-7.23,1.62-10.89-.02-16.82.02-33.65.01-50.48,8.46.14,16.95-.52,25.42.16,35.08-.54,70.16-.01,105.25-.29-.39,2.65-.77,5.31-1.13,7.97,5.57-3.08,11.6-5.46,16.69-9.32.62,2.95.44,5.98.47,8.99-.07,15.66-.07,31.32,0,46.98-.16,6.92,5.66,13.49,12.71,13.46,51.39-.05,102.79.01,154.18-.06,2.9-1.27,5.95-2.73,7.63-5.58,3-4.3,2.27-9.8,2.35-14.74.01-286.01-.01-572.02.03-858.03.08-5.19-2.24-10.87-7.2-13.11-2.41-1.41-5.26-1.53-7.96-1.44-49.68-.03-99.36-.02-149.03.02-7.16-.17-12.81,6.57-12.71,13.46-.07,51.47-.02,102.94-.01,154.41-5.66-3.13-11.44-6.05-17.03-9.29.24,2.85.63,5.68,1.09,8.5-12.09-.49-24.21-.11-36.3-.22-31.13.02-62.26-.06-93.39.04.02-51.13.05-102.26-.02-153.38.21-6.89-5.6-13.28-12.6-13.19-48.98-.18-97.96.03-146.94-.07-4.41.02-9.31-.51-13.1,2.21-4.34,2.77-6.16,8.1-6.22,13.04.03,8-.13,16.01.47,24-.61,7.65-.1,15.3-.41,22.97-.07,11.01-.03,22.03-.02,33.05.25,11.26-.56,22.57.46,33.8-5.48-2.7-10.92-5.5-16.24-8.5.3,2.64.54,5.28.75,7.93-6.16-.05-12.31-.07-18.45-.03-.12-35.06-.01-70.12-.05-105.17-.06-5.9.69-12.35-2.61-17.6-2.3-4.02-7.12-5.95-11.6-5.8-45.67.14-91.35-.02-137.02.15-7.07-.07-12.63,6.29-12.55,13.16-.04,38.61-.03,77.22,0,115.83l-1.22-.52c-4.78-2.77-9.75-5.19-14.57-7.89.53,2.58.81,5.2.93,7.84-5.91-.47-12.14.82-17.85-.57-.06-37.23,0-74.46-.02-111.69,0-1.98-.21-3.95-.59-5.88-.76-6.19-7.09-10.61-13.12-10.57-151.04,0-302.07-.02-453.11.07-2-.03-3.99.19-5.92.68-6.53,1.56-10.46,8.22-10.29,14.67.14,37.9-.09,75.8.1,113.7-5.57-2.5-10.93-5.46-16.31-8.34.46,2.62.87,5.26,1.2,7.9-8.6,0-17.18.09-25.77.04-.05-37.77-.04-75.54-.02-113.3.08-2.55-.77-4.97-1.54-7.36-2.91-4.6-7.83-8.08-13.42-8.06-58.32-.15-116.63.07-174.94-.06-5.17-.33-9.88,2.41-13.27,6.12M21.07,325.1c-6.1.91-10.51,6.81-10.3,12.87.06,82-.01,164.01,0,246.01-.34,6.65,5.27,13.17,12.14,12.77,47.68.08,95.36.04,143.04.02,7.31.28,12.73-6.8,12.21-13.76.07-81.02.02-162.04.02-243.07.04-4.92-1.54-10.42-5.94-13.17-4.26-2.75-9.5-1.95-14.29-2.04-44.32,0-88.64-.04-132.96,0-1.32-.01-2.64.12-3.93.37M21.19,635.31c-6.42.89-10.76,7.42-10.42,13.67.02,80-.01,160,0,240-.01,4.59-.34,9.75,2.71,13.57,2.58,3.62,7.24,4.97,11.51,4.83,46.36-.05,92.72-.03,139.08.01,4.02.18,8.31-1.14,10.9-4.35,2.96-3.23,3.43-7.8,3.29-11.98-.11-81.03.04-162.07-.06-243.1-.02-6.16-4.81-12.32-11.18-12.71-14-.4-28.02.31-42.01-.35-34.59.48-69.22.04-103.82.41Z"/>
    <path class="st107" d="M1488.17,26.94c.01-5.7,5.06-10.79,10.83-10.46,50.32-.02,100.64-.04,150.95.04,6.17.34,9.71,6.73,9.2,12.42.02,287.69-.01,575.39.02,863.09.27,5.17-2.91,10-7.98,11.34-50.73.03-101.47-.03-152.2.01-3.49.13-7.07-1.43-8.93-4.45-2.55-3.83-1.85-8.61-1.92-12.95.04-286.34-.05-572.69.03-859.04Z"/>
    <path class="st107" d="M966.3,25.62c1.1-4.92,5.5-9.1,10.72-8.93,45.32.02,90.65-.03,135.97-.02,6.2-.45,11.37,5.2,11.35,11.21.05,31.37.02,62.75.01,94.12-.11,51.63.24,103.28-.17,154.92-1.17,5.15-5.61,9.59-11.14,9.32-42.34.02-84.68.01-127.01.03-3.94-.08-7.93.33-11.81-.41-4.19-.88-7.39-4.7-7.77-8.92-.42-3.97-.17-7.97-.2-11.96.03-79.78-.03-159.57.05-239.36M1014.29,92.93c.03,8-.25,16,.04,24,.23,3.92,3.63,6.76,7.3,7.53-.04,3.59-.07,7.18-.04,10.77.93.12,1.87.23,2.82.35,2.99-4,6.37-7.73,10.14-11.01,6.09-.98,12.37.12,18.51-.64,4.15-.62,7.13-4.8,6.78-8.92-.13-7.33-.04-14.66-.08-21.99.2-3.79-2.01-7.94-5.85-8.93-2.93-.61-5.93-.32-8.88-.35-7.7.21-15.39-.16-23.07.1-4.66.09-7.83,4.72-7.67,9.09M1063.11,103.21c-.01,1.36-.01,2.73,0,4.09,2.88.02,5.78.06,8.68.14.88,1.39,2.21,2.71,2.01,4.52.11,5.99-.02,11.99.01,17.99-.1,1.87.16,4.07-1.34,5.49-1.5,1.76-4.14,1.13-6.13,1.58.11.62.34,1.87.46,2.49-.15,1.57-.26,3.14-.33,4.71-3.14-2.83-5.56-8-10.5-7.35-4.56-.17-9.15.27-13.67-.33-3.71-1.41-2.94-5.78-2.94-8.91-1.44.02-2.87.04-4.29.06.11,2.32.06,4.65.46,6.95.79,3.38,3.92,6.12,7.41,6.36,5.05.38,10.12.07,15.18.1,2.72,2.85,5.3,5.83,8.11,8.59,1,1.24,2.46,1.74,4.03,1.86.07-3.6.06-7.2.04-10.79,3.83-.69,7.08-3.8,7.24-7.82.03-7.01,0-14.02.02-21.03.08-3.56-1.84-7.67-5.56-8.55-2.95-.44-5.93-.16-8.89-.15Z"/>
    <path class="st107" d="M565.49,143.15c-.06-6.82-.21-13.63-.09-20.45,73.13.1,146.27.02,219.4.02,0,2.65-.01,5.3-.04,7.96-2.27-.11-4.54-.23-6.79-.36,2.59,5.1,4.98,10.31,7.76,15.31-23.91.25-47.83-.02-71.74.16-6.74-.18-13.17,5.08-13.76,11.9-.12,8.44.23,16.89-.42,25.32.77,15.3.25,30.64.39,45.97.13,4.11-.59,8.64,1.76,12.31,2.09,3.52,5.9,6.27,10.08,6.46,5.99.23,11.98.59,17.97.06,18.23-.16,36.47,0,54.7,0-.01,6.91.1,13.82.02,20.73-73.09.08-146.18.06-219.27.03-.01-2.49-.03-4.98-.04-7.47,2.18.21,4.36.42,6.55.64-2.45-5.15-4.67-10.41-7.21-15.51l-.4-.84c16.77-.08,33.88-1.21,49.91-6.51,4.8-1.88,11.26-4.77,11.09-10.87.07-22.66.02-45.32.01-67.98.36-3.94-3.08-6.6-6.17-8.25-5.98-3.14-12.66-4.6-19.24-5.89-11.38-1.9-22.92-2.99-34.47-2.73Z"/>
    <path class="st107" d="M539.47,146.84c16.63-1.74,33.42-1.58,50.05-.05,9.93,1.47,20.26,2.59,29.22,7.46,1.94,1.19,4.53,3.01,4.07,5.61-1.78,3.36-5.57,4.77-8.88,6.1-12.15,4.39-25.14,5.39-37.9,6.38-17.44.38-35.06,0-52.16-3.77-5.75-1.47-11.93-2.87-16.43-6.98-1.4-.99-1.58-3.21-.46-4.44,1.89-2.32,4.71-3.56,7.42-4.66,8.04-3.07,16.58-4.51,25.07-5.65Z"/>
    <path class="st107" d="M965.3,341.03c-.44-5,2.59-10.49,7.78-11.46,47.95.22,95.97-.16,143.91.11,4.67,2.09,6.49,7.54,6.4,12.32-.04,76.65-.02,153.3,0,229.95-.07,5.27.37,10.67-1.14,15.81-1.72,3.48-5.25,6.13-9.27,5.78-43.98.13-87.97,0-131.95.04-3-.07-6.07.33-8.97-.49-2.67-.77-4.46-2.99-6.06-5.09-.41-2.65-.71-5.3-.7-7.97.02-79.66-.02-159.33,0-239M1016.34,393.3c-2.93,2.72-2.83,7-2.75,10.68.17,6.67-.16,13.34.04,20,.16,4.06,3.7,7,7.51,7.64-.03,3.59-.06,7.19.07,10.79.65-.13,1.96-.39,2.61-.52,3.55-3.32,6.42-7.33,10.09-10.55,5.69-.01,11.39.14,17.09.03,4.28.01,8.02-4.15,7.78-8.4-.17-8.03.23-16.06-.11-24.08-.22-3.61-2.83-7.57-6.76-7.59-8.98-.27-17.98.04-26.97-.11-2.94.04-6.46-.38-8.6,2.11M1061.81,410.35c-.01,1.38,0,2.77.03,4.16,2.73.04,5.5-.11,8.24.26,1.59.78,2.36,2.58,2.28,4.3.12,5.98-.03,11.96.09,17.94-.13,1.74.27,3.82-1.15,5.15-1.4,1.78-3.9,1.52-5.85,2.09-.01,2.2-.02,4.39-.01,6.6-2.22-2.25-4.47-4.45-6.66-6.72-5.78-.55-11.64.18-17.38-.58-3.45-1.31-2.75-5.48-2.87-8.41-1.65.2-4.6-.85-3.93,1.86-.83,4.58,1.61,9.78,6.41,10.85,5.28.81,10.67-.07,15.99.43,3.64,2.82,6.4,6.69,9.74,9.89.48.05,1.45.15,1.94.21.34-3.53.45-7.08.56-10.62,3.39-.62,6.5-3.09,6.87-6.68.42-6.69-.03-13.4.17-20.1.14-3.07-.16-6.54-2.61-8.71-3.13-3.1-7.95-1.65-11.86-1.92Z"/>
    <path class="st107" d="M466.24,530.2c5.73.09,11.46-.73,17.18-.03-.06,4.51-.41,9.03.03,13.54.45,4.04,4.63,6.78,8.53,6.62,24.5.11,49.01-.07,73.52.08-2.35,5.37-4.96,10.61-7.44,15.92,2.25-.32,4.51-.63,6.78-.91-.02,2.46-.03,4.93-.03,7.4-32.2-.1-64.4-.05-96.6,0-.5,0-1.5.01-2,.02.06-14.22-.1-28.43.03-42.64Z"/>
  </g>
  <g id="_x23_044ca5ff">
    <path class="st72" d="M21.23,11.46c2.91-.39,5.86-.24,8.78-.25,45.32.07,90.63,0,135.95.09,7.19-.18,12.6,6.84,12.53,13.65.07,83.67-.07,167.35.05,251.02.51,7.12-5.11,14.36-12.52,14.36-47.32.03-94.65.01-141.98,0-4.49.09-9.02-2.17-11.32-6.08-2.28-3.65-1.93-8.12-1.94-12.23.03-82.35-.04-164.7.04-247.04-.16-6.16,4.12-12.52,10.41-13.52Z"/>
  </g>
  <g id="_x23_0a4ca8ff">
    <path class="st71" d="M203.73,19.58c3.39-3.71,8.1-6.45,13.27-6.12,58.31.13,116.62-.09,174.94.06,5.59-.02,10.51,3.46,13.42,8.06-.79.1-2.37.31-3.17.41-2.43-3.01-5.88-5-9.7-5.63.41-.21,1.22-.64,1.63-.85-16.35-.9-32.71-.53-49.07-.78-30.67.09-61.33.2-92,.34-12.99.17-26.05-1.03-39,.4-.43.33-1.31.98-1.75,1.31-2.09,1.45-4.2,2.89-6.04,4.65-.63-.46-1.89-1.39-2.53-1.85Z"/>
  </g>
  <g id="_x23_124ba4ff">
    <path class="st117" d="M457.99,14.27c1.93-.49,3.92-.71,5.92-.68,151.04-.09,302.07-.06,453.11-.07,6.03-.04,12.36,4.38,13.12,10.57-.87,2.52-1.48,5.16-1.34,7.85.32,37.72-.19,75.45.19,113.17-.33,41.27-.08,82.55-.03,123.83-.05,2.19-.5,4.36-1.16,6.45-.18-82.76.05-165.53-.12-248.28-.05-4.67-3.4-8.65-7.57-10.4-4.83-1.9-10.11-1-15.15-1.12-147.66.01-295.32.01-442.98-.01-1.43-.05-2.75-.66-3.99-1.31Z"/>
  </g>
  <g id="_x23_000000ff">
    <path d="M1485.26,26.96c-.1-6.89,5.55-13.63,12.71-13.46,49.67-.04,99.35-.05,149.03-.02,2.7-.09,5.55.03,7.96,1.44,4.96,2.24,7.28,7.92,7.2,13.11-.04,286.01-.02,572.02-.03,858.03-.08,4.94.65,10.44-2.35,14.74-1.68,2.85-4.73,4.31-7.63,5.58-51.39.07-102.79.01-154.18.06-7.05.03-12.87-6.54-12.71-13.46-.07-15.66-.07-31.32,0-46.98-.03-3.01.15-6.04-.47-8.99.15-.12.44-.34.59-.45-.35-52.53-.04-105.08-.18-157.61.03-55.42-.01-110.85.05-166.27l.02-.71c-.07-109.88-.09-219.77,0-329.65-.01-.24-.01-.72-.02-.95-.01-51.47-.06-102.94.01-154.41M1488.17,26.94c-.08,286.35.01,572.7-.03,859.04.07,4.34-.63,9.12,1.92,12.95,1.86,3.02,5.44,4.58,8.93,4.45,50.73-.04,101.47.02,152.2-.01,5.07-1.34,8.25-6.17,7.98-11.34-.03-287.7,0-575.4-.02-863.09.51-5.69-3.03-12.08-9.2-12.42-50.31-.08-100.63-.06-150.95-.04-5.77-.33-10.82,4.76-10.83,10.46Z"/>
  </g>
  <g id="_x23_003897ff">
    <path class="st68" d="M447.7,28.94c-.17-6.45,3.76-13.11,10.29-14.67,1.24.65,2.56,1.26,3.99,1.31,147.66.02,295.32.02,442.98.01,5.04.12,10.32-.78,15.15,1.12-44.71-.37-89.44,0-134.16-.13-106.3-.06-212.6.06-318.9-.02-3.63.04-7.57-.4-10.79,1.64-3.82,2.1-5.85,6.58-5.69,10.84.07,65.66-.02,131.32.02,196.98.13,16.59-.34,33.21.21,49.8-.64.31-1.93.95-2.57,1.26-.44-3-.6-6.02-.55-9.05.09-41.13,0-82.26.1-123.39-.37.1-1.1.28-1.46.38,1.15-.55,2.31-1.06,3.48-1.58-.67-.26-1.34-.53-2-.8-.19-37.9.04-75.8-.1-113.7Z"/>
    <path class="st68" d="M1036.37,102.31c.51.19,1.54.58,2.05.78.04.53.12,1.59.17,2.12-4.87.46-9.81.74-14.65.03-.04-.68-.12-2.02-.16-2.7,4.17-.53,8.39-.4,12.59-.23Z"/>
  </g>
  <g id="_x23_003199ff">
    <path class="st49" d="M963.47,26.97c-.08-6.87,5.48-13.23,12.55-13.16,45.67-.17,91.35-.01,137.02-.15,4.48-.15,9.3,1.78,11.6,5.8,3.3,5.25,2.55,11.7,2.61,17.6.04,35.05-.07,70.11.05,105.17v1.04c6.04.22,12.1-.09,18.15.34.03.38.11,1.15.15,1.54-6.11.05-12.21.06-18.31,0-.12,38.94,0,77.87-.05,116.81-.09,5.8.42,11.66-.77,17.39-.77-.81-1.54-1.62-2.29-2.42.41-51.64.06-103.29.17-154.92.01-31.37.04-62.75-.01-94.12.02-6.01-5.15-11.66-11.35-11.21-45.32-.01-90.65.04-135.97.02-5.22-.17-9.62,4.01-10.72,8.93-1.43,5.69-.59,11.59-.73,17.38-.05,77.98.1,155.95-.07,233.92-.19-42.64-.01-85.3-.09-127.94-.06-1.36-.2-2.7-.43-4.03-.08-.29-.24-.89-.31-1.19-.81-.51-1.62-1.01-2.43-1.48l1.22.52c-.02-38.61-.03-77.22,0-115.83Z"/>
  </g>
  <g id="_x23_003798ff">
    <path class="st97" d="M1166.96,15.97c3.79-2.72,8.69-2.19,13.1-2.21,48.98.1,97.96-.11,146.94.07,7-.09,12.81,6.3,12.6,13.19.07,51.12.04,102.25.02,153.38,31.13-.1,62.26-.02,93.39-.04,12.09.11,24.21-.27,36.3.22-5.7,1.14-11.52.73-17.27.78-37.33.07-74.67-.17-112,.14,38.29.52,76.59.16,114.89.25,4.48.12,9.18-.37,13.41,1.49-43.06.32-86.12-.02-129.18.14l-.78-.07c-.32,25.89-.27,51.8-.25,77.7-.1,5.51.8,11.3-1.48,16.51.05-83.5.03-167,.02-250.5.24-5.74-5.02-10.52-10.65-10.25-50.34-.13-100.68-.05-151.02-.03-6.68-.54-11.6,5.96-11.26,12.22-.02,82.54.04,165.08,0,247.61-.64,1.06-1.28,2.12-1.9,3.17-1.71-5.79-.91-11.86-1.05-17.79.13-10.98-.4-21.97.39-32.92-.59-9.33-.62-18.71-.1-28.04-.63-16.32-.17-32.67-.32-49,.04-2.01.21-4,.4-5.99.06-1.06.11-2.12.08-3.17-1.02-11.23-.21-22.54-.46-33.8-.01-11.02-.05-22.04.02-33.05.31-7.67-.2-15.32.41-22.97-.6-7.99-.44-16-.47-24,.06-4.94,1.88-10.27,6.22-13.04Z"/>
  </g>
  <g id="_x23_013391ff">
    <path class="st59" d="M214.05,15.47c12.95-1.43,26.01-.23,39-.4,30.67-.14,61.33-.25,92-.34,16.36.25,32.72-.12,49.07.78-.41.21-1.22.64-1.63.85-46.49.22-92.99.12-139.49.1-13.56.21-27.15-.33-40.7.32.44-.33,1.32-.98,1.75-1.31Z"/>
  </g>
  <g id="_x23_ffffffff">
    <path class="st41" d="M212.3,16.78c13.55-.65,27.14-.11,40.7-.32,46.5.02,93,.12,139.49-.1,3.82.63,7.27,2.62,9.7,5.63,2.35,4.67,1.66,10,1.74,15.04-.05,78.68,0,157.37-.04,236.05.33,7.05-5.68,13.56-12.87,13.18-57.67.05-115.35-.04-173.03,0-3.08-.03-6.28-.61-8.79-2.5-3.72-2.66-5.31-7.39-5.34-11.81,0-81,.09-162,0-243-.03-2.71,1.1-5.22,2.39-7.53,1.84-1.76,3.95-3.2,6.04-4.65M281.17,58.39c-3.09,1.18-6.48,2.94-7.72,6.21-1.32,7.75.19,15.61-.36,23.4-.48,5.66.33,11.31.05,16.96.05,3.58-.85,8.02,2.53,10.47,7.67,5.64,17.78,5.61,26.89,5.29.1-1.43.22-2.86.34-4.29-7.32.39-15,.58-21.78-2.61-1.77-.98-4.11-2-4.28-4.32-.25-2.82-.13-5.66-.16-8.48,10.06,4.98,21.96,5.66,32.74,2.8-.08-1.2-.15-2.41-.21-3.61-4.07.16-8.08,1.04-12.15,1.04-7.05-.55-14.74-1.06-20.37-5.87.05-3.14,0-6.27-.04-9.41,12.03,5.59,26.75,6.42,38.86.59,1.9-.36,3.86-.04,5.79-.16-.11-6.46-.97-12.91-.18-19.37.11-5.36-5.55-7.97-9.92-9.32-9.8-2.56-20.41-2.7-30.03.68M317.21,91.28c-5.56,3.17-5.69,13.33.84,15.5,4.98,2.2,10.64-2.61,10.47-7.74.15-5.42-6.16-10.8-11.31-7.76M309.45,112.51c-3.33,2.73-3.39,7.12-3.13,11.05,1.16,0,2.33-.03,3.51-.04.31-1.95.41-3.93.9-5.84,1.31-2.17,3.57-4.26,6.28-4.11,3.28.03,6.68-.37,9.89.41,3.8,1.62,4.76,5.91,4.51,9.64,1.18-.01,2.37-.01,3.56-.01,1.57-6.45-3.04-13.93-9.91-14.17-5.27.14-11.64-1.46-15.61,3.07Z"/>
    <path class="st41" d="M456.26,18.2c3.22-2.04,7.16-1.6,10.79-1.64,106.3.08,212.6-.04,318.9.02,44.72.12,89.45-.24,134.16.13,4.17,1.75,7.52,5.73,7.57,10.4.17,82.75-.06,165.52.12,248.28-.61,1.93-1.46,3.78-2.35,5.59-2.91,3.83-7.74,5.55-12.45,5.27-149.32.05-298.64.04-447.96.01-6.52.4-12.79-4-14.24-10.44-.55-16.59-.08-33.21-.21-49.8-.04-65.66.05-131.32-.02-196.98-.16-4.26,1.87-8.74,5.69-10.84M562.69,120.26c-.05,7.61-.11,15.21-.05,22.81-10.56.08-21.13.7-31.54,2.57-7.25,1.35-14.73,2.61-21.28,6.18-2.93,1.75-6.16,4.39-6.11,8.13-.04,23.4.09,46.79-.1,70.19,2.76,5.58,8.82,8.12,14.45,9.83,14.77,4.05,30.13,5.51,45.41,5.43l-.38,1.95c-3.28,4.27-4.9,9.67-7.45,14.41,2.31-.22,4.64-.4,6.97-.57-.05,3.46-.03,6.92.01,10.38,74.94-.1,149.87.05,224.81-.07.03-7.95-.03-15.9.11-23.84,5.14-.16,10.26.89,15.4.2,20.01-.31,40.04.03,60.05-.15,6.72-.01,12.63-6.03,12.66-12.73.17-23.98.04-47.97.07-71.95.01-2.51-.13-5-.41-7.49-1.97-5.6-7.22-9.89-13.3-9.83-25.07,0-50.15-.02-75.22.03,2.41-5.38,5.21-10.57,7.77-15.87-2.36.41-4.75.66-7.11.92-.12-3.58-.12-7.15-.01-10.73l-.13.12c-4.77-.74-9.56.26-14.35.06-29.98-.68-59.98-.3-89.97-.43-6.02-.18-12.01.65-18.01.01-25.67-.01-51.34,0-77.01-.02-8.43.04-16.87-.27-25.28.46Z"/>
    <path class="st41" d="M1163.74,28.96c-.34-6.26,4.58-12.76,11.26-12.22,50.34-.02,100.68-.1,151.02.03,5.63-.27,10.89,4.51,10.65,10.25.01,83.5.03,167-.02,250.5-1.18,4.92-5.35,9.02-10.65,8.68-50,.17-100.01-.03-150.01.09-2.82.04-5.8-.41-8.05-2.22-2.42-1.78-3.29-4.79-4.2-7.5.04-82.53-.02-165.07,0-247.61M1227.3,66.16c.17,7.51-.32,15.03.15,22.53,1.67,13.26,11.07,25.21,23.48,30.07,8.55-4.19,16.68-10.42,20.6-19.35,5.11-10.32,2.88-22.14,3.33-33.2-8.88-1.01-17.25-4.97-23.91-10.88-6.79,5.55-14.8,9.96-23.65,10.83Z"/>
    <path class="st41" d="M709.36,149.47c3.67-1.54,7.75-.95,11.63-1.07,45.33-.08,90.67.03,136.01-.03,3.65.05,7.64-.24,10.86,1.82,2.84,1.73,4.27,4.9,5.3,7.93.27,23.94-.05,47.9.18,71.85.12,3.97-.37,8.25-2.97,11.43-2.44,3.07-6.6,4.03-10.34,3.98-46.67,0-93.33.02-139.99-.01-4.1,0-8.59.51-12.21-1.84-3.91-2.36-5.49-7.16-5.31-11.53.09-24.8-.15-49.6.15-74.38,1.13-3.41,3.26-6.71,6.69-8.15Z"/>
    <path class="st41" d="M506.43,163.91c4.84,3.71,10.74,5.61,16.6,7.04,15.69,3.61,31.87,4.17,47.92,3.78,14.97-.03,30.09-1.71,44.32-6.58,2.74-.93,5.19-2.52,7.58-4.12-.12,21.31-.12,42.62-.02,63.93.51,3.1-2.39,5.04-4.69,6.42-9,4.71-19.27,5.81-29.18,7.25-6.6,1.12-13.31.75-19.94,1.48-7.04.65-14.05-.56-21.08-.67-10.83-1.02-21.76-2.29-32.05-5.99-3.45-1.24-7.14-2.77-9.28-5.91-.57-3.16-.15-6.4-.24-9.58.03-19.02-.03-38.03.06-57.05Z"/>
    <path class="st41" d="M204.71,334.67c1.09-2.52,3.59-3.91,5.77-5.35,61.58-.08,123.16-.09,184.74.02,5.32,1.1,8.53,6.42,8.03,11.66-.01,81.01.09,162.01-.04,243.01-.48,5.17-4.72,9.84-10.15,9.49-59.7.09-119.4.02-179.1.05-5.4.39-9.86-4.14-10.46-9.31-.21-80.4,0-160.8-.12-241.2,0-2.83.07-5.78,1.33-8.37M280.49,366.66c-3.63,1.31-7.55,3.98-7.6,8.26-.31,14.37.04,28.74-.13,43.11-.16,3.17,1.86,6.1,4.59,7.56,7.67,4.12,16.66,4.47,25.18,3.92.08-1.02.25-3.08.33-4.11-7.96.33-16.55.51-23.65-3.65-4.46-2.38-1.93-8.37-2.59-12.39,9.87,5.37,22.01,6.2,32.69,2.9-.02-1.29-.04-2.58-.05-3.86-10.85,2.07-23.21,2.45-32.63-4.19-.01-3.3,0-6.59,0-9.89,4.16,2.23,8.76,3.6,13.44,4.14,8.8.8,18.15.53,26.01-3.98,1.56.16,3.11.28,4.68.38-.09-7.19.15-14.39-.2-21.56-1.02-3.89-5.11-5.87-8.6-7.1-10.16-3.17-21.44-3.24-31.47.46M317.48,399.63c-3.92,2.04-6.23,7.3-4.07,11.39,1.42,3.17,4.92,5.97,8.55,4.89,3.37-.58,5.56-3.71,6.35-6.83.94-5.78-5-11.77-10.83-9.45M307.75,423.79c-1.85,2.57-1.3,5.92-1.48,8.9,1.34-.04,2.68-.08,4.03-.11.14-2.84-.49-6.27,2.15-8.19,2.18-2.44,5.67-1.88,8.59-2,2.63.11,5.81-.42,7.75,1.82,2.54,2.01,1.9,5.44,2.07,8.28.99.05,2.96.15,3.95.2.2-4.2-.18-9.02-3.77-11.8-3.53-3.32-8.62-2.41-13.02-2.61-4.16-.46-8.17,2.02-10.27,5.51Z"/>
    <path class="st41" d="M1163.39,334.47c1.12-2.53,3.52-4.26,6.13-5.07,52.64.09,105.28.2,157.92-.07,4.79,1.05,8.42,5.72,8.08,10.65.05,79.66-.05,159.31.02,238.97-.03,2.9.13,5.92-1.04,8.67-1.39,3.82-5.5,6.17-9.5,5.89-51.02.06-102.04.02-153.06.05-3.79.18-7.62-2.11-8.96-5.7-1.86-4.75-1.2-9.91-1.3-14.87-.02-74.34.05-148.67.02-223,.09-5.19-.65-10.69,1.69-15.52M1225.51,368.79c.35,10.71-1.77,22.11,2.94,32.17,3.88,8.97,11.5,16.25,20.51,19.95,8.76-3.84,16.5-10.74,20.5-19.53,4.9-10.16,2.74-21.75,3.06-32.61-8.8-.69-16.84-4.86-23.44-10.53-6.7,5.62-14.69,9.94-23.57,10.55Z"/>
    <path class="st41" d="M489.17,404.14c1.49-.72,3.23-.43,4.84-.53,50.67.05,101.33,0,151.99,0,3.12-.3,6.97,1.81,6.73,5.33-.04,9.04.07,18.09,0,27.14.1,3.38-3.43,5.8-6.6,5.4-51.72.06-103.44.05-155.15.05-3.38.17-6.04-3.42-5.66-6.61-.03-8.31,0-16.63-.03-24.94-.28-2.57,1.66-4.83,3.88-5.84Z"/>
    <path class="st41" d="M731.33,444.54c47.21-.31,94.45-.02,141.67-.16,3.64-.39,7.5,1.27,9.27,4.56,1.62,2.38,1.39,5.34,1.43,8.08-.08,13.69.07,27.39-.05,41.08.31,4.77-3.71,9.49-8.58,9.47-47.37.11-94.74-.02-142.11.02-6.04.22-10.39-5.98-9.64-11.66.03-13.67.04-27.34.01-41-.32-4.76,3.16-9.71,8-10.39Z"/>
    <path class="st41" d="M489.13,457.21c1.51-.78,3.27-.58,4.93-.65,50.62-.07,101.24.06,151.86-.04,3.27-.42,6.83,2.15,6.71,5.6.12,8.99.16,17.99.11,26.99.15,2.98-2.76,5.69-5.7,5.53-51.69.14-103.37.06-155.05.06-3.24.39-6.94-2.19-6.72-5.65-.08-8.67.03-17.35.01-26.01-.27-2.58,1.57-4.86,3.85-5.83Z"/>
    <path class="st41" d="M485.37,515.03c.51-4.08,5.07-5.55,8.65-5.2,50.7.01,101.39-.02,152.1.04,3.33-.12,6.84,2.52,6.55,6.08.11,8.7.04,17.41,0,26.11.21,2.31-1.32,4.37-3.28,5.42-8.42.85-16.93,1.02-25.37.33-9.66.68-19.35.38-29.02.23-6.68.69-13.35-.58-20.02.12-6.35.45-12.69-.59-19.03-.02-4.34-.15-8.68-.63-13.03-.27-8.63.75-17.31.23-25.94-.09-8.68.14-17.36.77-26.04.37-3.08-.19-5.84-3.02-5.63-6.15-.07-8.99-.13-17.99.06-26.97Z"/>
    <path class="st41" d="M209.79,639.67c3.96-1.25,8.18-.73,12.27-.81,45.99,0,91.98.02,137.96,0,5.53-.32,10.34,3.78,11.24,9.18.17,81.33.02,162.67.07,244,.21,4.18-1.97,7.92-5.11,10.53-4.02,1.02-8.18.89-12.29.87-47.64-.11-95.3.1-142.94-.12-4.76-1.61-7.73-6.38-7.53-11.33-.09-79.34,0-158.68-.07-238.02-.03-3.02.19-6.04.93-8.97,1.29-2.23,2.88-4.56,5.47-5.33Z"/>
    <path class="st41" d="M418.43,641.39c2.32-2.11,5.6-2.13,8.55-2.13,163.35-.02,326.7-.03,490.05.01,5.68-.42,9.36,4.82,10.13,9.89.29,56.6,0,113.22.12,169.82-.07,25.2.14,50.4-.13,75.6-1.38,4.53-5,8.97-10.16,8.81-153.31.06-306.63,0-459.95.01-11.63-.13-23.27.25-34.89-.17-4.32-1.53-7.47-5.55-7.31-10.23-.07-80.32.01-160.66-.08-240.98.05-3.77.52-8.09,3.67-10.63M774.39,719.49c-8.62,6.68-13.43,17.75-12.95,28.6.44,9.46,4.36,18.8,11.29,25.34.1,9.61.04,19.22.03,28.83,11.65.15,23.29-.02,34.94-.05-.09-3.87-.04-7.73.05-11.58,4.53-1.07,9.75-1.23,13.4-4.44,2.69-2.37,2.23-6.19,2.12-9.4-.75-.46-1.48-.91-2.21-1.35,1.05-.44,2.08-.92,3.12-1.42.36-2.03.35-4.1.43-6.14,3.28.26,7.93-.79,7.87-4.92-2.05-7.4-9.37-12.93-8.81-21.07-.38-9.02-4.94-17.98-12.46-23.11-10.64-7.89-26.5-7.6-36.82.71M545.04,714.88c-7.39,1.98-12.59,8.49-14.63,15.64-5.73,2.06-11.13,5.77-13.85,11.37-2.5,4.64-2.56,10.09-2.08,15.21.34,4.05,2.71,7.51,4.87,10.83-3.15,9.51,1.03,20.95,9.83,25.89,4.65,3.09,10.42,3.39,15.79,2.52,6.2,7.8,18.34,9.86,26.66,4.34,4.64-2.75,7.72-7.36,9.74-12.25,5.42-1.55,10.54-4.71,13.3-9.77,4.12-6.37,4.34-14.36,2.38-21.5h-.15c-.99-2.16-2.1-4.26-3.41-6.25,1.43-6.39,1.28-13.4-2.32-19.07-4.24-7.21-12.69-11.99-21.12-10.78-2.59.89-4.35-1.34-6.14-2.75l-.06-.36c-5.48-3.64-12.45-5.28-18.81-3.07M719.17,730.45c.32,2.66.72,5.31,1.22,7.96-32.17-.23-64.35.04-96.53-.13.02,1.14.06,2.3.1,3.46,32.17-.28,64.34.02,96.51-.15-.67,2.71-1.13,5.49-1.14,8.3,5.26-3.39,10.91-6.12,16.22-9.39.08-.22.24-.66.31-.88-5.59-3-11.06-6.24-16.69-9.17M623.15,774.79c5.98,3,11.65,6.57,17.68,9.47-.55-2.66-1.15-5.3-1.72-7.95,32.11.19,64.23-.09,96.33.15.3-.75.89-2.23,1.19-2.98-4.48-1.03-9.09-.63-13.64-.67-21.67-.02-43.34.06-65.01-.03-6.3-.09-12.59.72-18.89.33.51-2.71,1.16-5.4,1.75-8.08-5.86,3.33-11.94,6.25-17.69,9.76Z"/>
    <path class="st41" d="M967.39,640.32c3.24-1.75,7.05-1.52,10.61-1.55,37.68.23,75.36.02,113.04.15,5-.34,8.91,3.29,10.33,7.85.4,52.74-.01,105.49.17,158.24-.11,29.32.09,58.64-.07,87.95.2,4.67-2.97,8.96-7.42,10.28-40.01.15-80.02-.08-120.03.06-3.48.12-7.37-.73-9.5-3.72-2.76-3.61-2.08-8.41-2.17-12.64.14-79.84.02-159.67.05-239.5,1.07-2.68,2.25-5.74,4.99-7.12M1000.45,699.35c-1.02,3.1-.49,6.42-.61,9.63.12,6.04-.36,12.12.32,18.14.46,3.76,3.87,6.24,7.36,7.03.05,3.88-.02,7.77.06,11.66,1.29-.19,2.63-.57,3.52-1.59,3.29-3.5,6.51-7.07,9.9-10.47,6.03-.28,12.06.05,18.1-.08,4.64-.35,7.16-5.5,7.15-9.7.1-7.35-.02-14.7-.05-22.05.12-4.45-3.58-8.86-8.22-8.54-9.68-.1-19.36.05-29.04.01-3.81-.32-7.27,2.47-8.49,5.96M1049.62,712.62c-.03,1.37-.06,2.75-.06,4.15,3.54.29,9.13-1.35,10.47,3.25.23,7.3.23,14.64.16,21.95-.03,3.92-4.39,4.32-7.33,4.69-.04,2.26-.06,4.53-.09,6.81-2.28-2.32-4.51-4.67-6.77-6.98-5.83-.15-11.68.23-17.48-.27-3.67-1.36-3.14-5.67-3.09-8.79-.96,0-2.88-.01-3.84-.01.03,2.54-.11,5.12.29,7.67.94,3.02,3.84,5.65,7.15,5.55,5.09.14,10.19-.03,15.29-.06,4.24,3.34,7.1,8.69,12.37,10.54.11-3.42-.05-6.84.23-10.24,1.8-1.53,4.4-2.12,5.66-4.26,1.86-2.85,1.57-6.4,1.61-9.64-.1-5.32.15-10.64-.06-15.96-.03-3.36-2.02-6.73-5.19-7.99-3-.95-6.23-.34-9.32-.41Z"/>
    <path class="st41" d="M1146.74,639.81c5.04-.59,10.14-.14,15.22-.26,54.7.01,109.41,0,164.12.02,3.42-.27,6.26,1.97,8.32,4.48,1.78,4.42,1.28,9.26,1.31,13.91-.11,78.35.04,156.7-.07,235.04.41,5.78-4.79,10.85-10.54,10.34-58.72,0-117.45-.01-176.17-.02-4.65.08-9.11-3.59-9.52-8.28-.46-5.32-.08-10.67-.17-16.01.08-5.03-.74-10.06-.2-15.09.7-7-.58-14,.09-20.99.66-10.96-1.06-21.91.04-32.85.08-14.05.29-28.11-.41-42.13-.02-5.66-.09-11.32.28-16.97-.64-12,.75-23.99.1-36-.68-6.67.49-13.34.02-20.01-.69-9.3-.54-18.65.07-27.95.19-5.92-.92-11.84.01-17.73.23-4.32,2.89-8.87,7.5-9.5M1210.74,663.61c.32,6.82-.33,13.67.47,20.47.91,9.71,7.01,18.44,15.11,23.65,2.81,2.47,6.86,2.95,10.35,1.87,7.01-4.05,13.2-10.07,16.22-17.7,3.85-8.95,1.88-18.88,2.39-28.31-8.29-.72-16.14-4.45-22.1-10.21-6.16,5.72-14.04,9.44-22.44,10.23Z"/>
  </g>
  <g id="_x23_0340a4ff">
    <path class="st75" d="M203.73,19.58c.64.46,1.9,1.39,2.53,1.85-1.29,2.31-2.42,4.82-2.39,7.53.08,81,0,162,0,243,.03,4.42,1.62,9.15,5.34,11.81,2.51,1.89,5.71,2.47,8.79,2.5,57.68-.05,115.36.04,173.03,0,7.19.38,13.2-6.13,12.87-13.18.03-78.68-.01-157.37.04-236.05-.08-5.04.61-10.37-1.74-15.04.8-.1,2.38-.31,3.17-.41.77,2.39,1.62,4.81,1.54,7.36-.02,37.76-.03,75.53.02,113.3,8.59.05,17.17-.05,25.77-.04-.33-2.64-.74-5.28-1.2-7.9,5.38,2.88,10.74,5.84,16.31,8.34.66.27,1.33.54,2,.8-1.17.52-2.33,1.03-3.48,1.58-5.1,2.51-10.08,5.26-15.01,8.09.49-2.57.96-5.15,1.41-7.73-8.6-.24-17.21-.14-25.81-.2-.03,42.98.04,85.97-.09,128.95.11,7.97-6.88,15.03-14.83,15.15-58.31.03-116.63.07-174.94.04-5.75.04-11.56-3.06-14.11-8.32-2.55-4.58-1.72-9.95-1.85-14.96-.31-11.99-.14-23.98-.15-35.97.48-11.02-.23-22.04.09-33.06-.32-56.33-.05-112.68.11-169.01.04-3,1.4-5.74,2.59-8.42Z"/>
  </g>
  <g id="_x23_04499dff">
    <path class="st51" d="M928.8,31.94c-.14-2.69.47-5.33,1.34-7.85.38,1.93.59,3.9.59,5.88.02,37.23-.04,74.46.02,111.69,5.71,1.39,11.94.1,17.85.57-.12-2.64-.4-5.26-.93-7.84,4.82,2.7,9.79,5.12,14.57,7.89.81.47,1.62.97,2.43,1.48.07.3.23.9.31,1.19l-1.5-.19c-5.62,1.84-10.51,5.83-15.99,8.25.43-2.56.84-5.12,1.17-7.69-6-.1-12-.06-17.99-.17-.42,0-1.26-.03-1.68-.04-.38-37.72.13-75.45-.19-113.17Z"/>
  </g>
  <g id="_x23_0342a5ff">
    <path class="st39" d="M965.57,43c.14-5.79-.7-11.69.73-17.38-.08,79.79-.02,159.58-.05,239.36.03,3.99-.22,7.99.2,11.96.38,4.22,3.58,8.04,7.77,8.92,3.88.74,7.87.33,11.81.41,42.33-.02,84.67,0,127.01-.03,5.53.27,9.97-4.17,11.14-9.32.75.8,1.52,1.61,2.29,2.42-1.53,5.57-6.55,9.99-12.45,9.97-44.35.02-88.69.01-133.04,0-4.06.04-8.51.23-11.94-2.3-4.17-2.87-5.87-8.15-5.66-13.03.12-43.07-.08-86.15.1-129.22l1.5.19c.23,1.33.37,2.67.43,4.03.08,42.64-.1,85.3.09,127.94.17-77.97.02-155.94.07-233.92Z"/>
  </g>
  <g id="_x23_084ca0ff">
    <path class="st73" d="M281.17,58.39c9.62-3.38,20.23-3.24,30.03-.68,4.37,1.35,10.03,3.96,9.92,9.32-.79,6.46.07,12.91.18,19.37-1.93.12-3.89-.2-5.79.16-12.11,5.83-26.83,5-38.86-.59.04,3.14.09,6.27.04,9.41,5.63,4.81,13.32,5.32,20.37,5.87,4.07,0,8.08-.88,12.15-1.04.06,1.2.13,2.41.21,3.61-10.78,2.86-22.68,2.18-32.74-2.8.03,2.82-.09,5.66.16,8.48.17,2.32,2.51,3.34,4.28,4.32,6.78,3.19,14.46,3,21.78,2.61-.12,1.43-.24,2.86-.34,4.29-9.11.32-19.22.35-26.89-5.29-3.38-2.45-2.48-6.89-2.53-10.47.28-5.65-.53-11.3-.05-16.96.55-7.79-.96-15.65.36-23.4,1.24-3.27,4.63-5.03,7.72-6.21M287.55,60.84c-3.66.74-7.43,1.92-10.21,4.53-.68,1.87,1.63,2.57,2.81,3.45,8.24,4.03,17.93,4.18,26.79,2.43,3.51-.84,7.33-1.77,9.84-4.57.15-2.09-2.21-2.88-3.68-3.77-7.99-3.51-17.08-3.12-25.55-2.07M276.69,71.94c.03,2.87.02,5.74-.04,8.61,6.13,5.16,14.67,5.8,22.34,5.77,6.24-.52,13.23-1,18.17-5.28.39-3.05.18-6.13.1-9.19-12.7,5.72-27.87,5.87-40.57.09Z"/>
  </g>
  <g id="_x23_0747a0ff">
    <path class="st54" d="M1227.3,66.16c8.85-.87,16.86-5.28,23.65-10.83,6.66,5.91,15.03,9.87,23.91,10.88-.45,11.06,1.78,22.88-3.33,33.2-3.92,8.93-12.05,15.16-20.6,19.35-12.41-4.86-21.81-16.81-23.48-30.07-.47-7.5.02-15.02-.15-22.53M1234.05,68.73c-1.18.52-3.82.15-3.3,2.23.16,8.62-1.27,17.72,2.57,25.79,3.28,8.03,10.08,13.98,17.65,17.9,7.41-4.17,14.38-9.87,17.87-17.83,3.97-8.55,2.04-18.15,2.55-27.23-7.51-1.31-14.6-4.61-20.42-9.53-5,3.94-10.62,7.37-16.92,8.67Z"/>
  </g>
  <g id="_x23_fcfcfdff">
    <path class="st83" d="M287.55,60.84c8.47-1.05,17.56-1.44,25.55,2.07,1.47.89,3.83,1.68,3.68,3.77-2.51,2.8-6.33,3.73-9.84,4.57-8.86,1.75-18.55,1.6-26.79-2.43-1.18-.88-3.49-1.58-2.81-3.45,2.78-2.61,6.55-3.79,10.21-4.53Z"/>
    <path class="st83" d="M276.69,71.94c12.7,5.78,27.87,5.63,40.57-.09.08,3.06.29,6.14-.1,9.19-4.94,4.28-11.93,4.76-18.17,5.28-7.67.03-16.21-.61-22.34-5.77.06-2.87.07-5.74.04-8.61Z"/>
    <path class="st83" d="M1214.27,666.54c6.94-1.09,13.7-3.74,18.83-8.67,5.32,4.53,11.81,7.49,18.71,8.65-.28,7.57.96,15.44-1.55,22.75-2.74,8.25-9.68,14.35-17.15,18.34-7.34-3.42-13.7-9.24-16.81-16.81-3.31-7.67-1.76-16.18-2.03-24.26M1230.82,685.78c-2-1.83-5.64-7.33-7.76-2.81,2.39,2.93,5.33,5.34,8.06,7.96,4.12-4.45,8.16-8.98,12.26-13.46,1.74-1.39-.33-2.6-1.36-3.49-4.02,3.64-7.5,7.84-11.2,11.8Z"/>
  </g>
  <g id="_x23_fbfcfdff">
    <path class="st2" d="M1234.05,68.73c6.3-1.3,11.92-4.73,16.92-8.67,5.82,4.92,12.91,8.22,20.42,9.53-.51,9.08,1.42,18.68-2.55,27.23-3.49,7.96-10.46,13.66-17.87,17.83-7.57-3.92-14.37-9.87-17.65-17.9-3.84-8.07-2.41-17.17-2.57-25.79-.52-2.08,2.12-1.71,3.3-2.23M1248.67,91.24c-2-2-3.93-4.08-5.83-6.17-.93.95-1.85,1.9-2.75,2.85,2.94,2.95,5.75,6.04,8.74,8.95,4.68-5.49,9.43-10.92,14.23-16.31-.7-.97-1.37-1.95-2.11-2.84-4.64,3.96-8.26,8.96-12.28,13.52Z"/>
  </g>
  <g id="_x23_0a4fa8ff">
    <path class="st96" d="M1248.67,91.24c4.02-4.56,7.64-9.56,12.28-13.52.74.89,1.41,1.87,2.11,2.84-4.8,5.39-9.55,10.82-14.23,16.31-2.99-2.91-5.8-6-8.74-8.95.9-.95,1.82-1.9,2.75-2.85,1.9,2.09,3.83,4.17,5.83,6.17Z"/>
  </g>
  <g id="_x23_06479cff">
    <path class="st0" d="M1014.29,92.93c-.16-4.37,3.01-9,7.67-9.09,7.68-.26,15.37.11,23.07-.1,2.95.03,5.95-.26,8.88.35,3.84.99,6.05,5.14,5.85,8.93.04,7.33-.05,14.66.08,21.99.35,4.12-2.63,8.3-6.78,8.92-6.14.76-12.42-.34-18.51.64-3.77,3.28-7.15,7.01-10.14,11.01-.95-.12-1.89-.23-2.82-.35-.03-3.59,0-7.18.04-10.77-3.67-.77-7.07-3.61-7.3-7.53-.29-8-.01-16-.04-24M1018.16,93c.05,7.94-.22,15.89.1,23.81.56,3.49,4.53,3.04,7.16,3.15.03,2.71-.01,5.43-.03,8.14,2.74-2.77,4.8-6.57,8.49-8.18,6.02-.49,12.07.57,18.08-.1,2.33-.07,4.07-2.5,3.85-4.74.12-7.71.14-15.42.04-23.13.13-2.06-1.71-4.1-3.83-3.78-10-.03-20-.04-29.99.03-2.45-.14-4.1,2.57-3.87,4.8Z"/>
  </g>
  <g id="_x23_fbfbfdff">
    <path class="st99" d="M1018.16,93c-.23-2.23,1.42-4.94,3.87-4.8,9.99-.07,19.99-.06,29.99-.03,2.12-.32,3.96,1.72,3.83,3.78.1,7.71.08,15.42-.04,23.13.22,2.24-1.52,4.67-3.85,4.74-6.01.67-12.06-.39-18.08.1-3.69,1.61-5.75,5.41-8.49,8.18.02-2.71.06-5.43.03-8.14-2.63-.11-6.6.34-7.16-3.15-.32-7.92-.05-15.87-.1-23.81M1023.4,97.56c9.13.26,18.27.28,27.4.12-.12-1.32-.22-2.64-.32-3.96-8.86.09-17.74-.28-26.59.13-.26,1.22-.37,2.47-.49,3.71M1024.35,101.68c-1.61.69-.85,2.8-1.21,4.16,5.25,1.01,10.68.9,15.94-.04,3.62-.65,7.2.54,10.77,1.03-1.57-.61-3.14-1.21-4.69-1.79-2.27-.61-4.52-1.25-6.74-1.95-.51-.2-1.54-.59-2.05-.78-3.8-1.55-8.07-1.32-12.02-.63M1044.4,109.47c-1.85.89-3.68,3.56-2.65,5.62,3.53,2.61,10.13,1.6,10.87-3.28-1.41-3.25-5.38-2.71-8.22-2.34M1023.54,109.72c.04.9.11,2.7.14,3.6,4.78.67,9.65.21,14.47.41.27-1.37.53-2.73.81-4.1-5.14-.03-10.28.06-15.42.09Z"/>
  </g>
  <g id="_x23_0948a2ff">
    <path class="st27" d="M317.21,91.28c5.15-3.04,11.46,2.34,11.31,7.76.17,5.13-5.49,9.94-10.47,7.74-6.53-2.17-6.4-12.33-.84-15.5M316.62,100.14c.75,1.94,2.81,2.68,4.46,3.64,1.57-1.61,4.1-3.25,3.31-5.88-.69-1.48-1.84-2.75-3.32-3.45-2.64.21-5.04,3-4.45,5.69Z"/>
  </g>
  <g id="_x23_014baaff">
    <path class="st111" d="M1023.4,97.56c.12-1.24.23-2.49.49-3.71,8.85-.41,17.73-.04,26.59-.13.1,1.32.2,2.64.32,3.96-9.13.16-18.27.14-27.4-.12Z"/>
  </g>
  <g id="_x23_f9fbfcff">
    <path class="st46" d="M316.62,100.14c-.59-2.69,1.81-5.48,4.45-5.69,1.48.7,2.63,1.97,3.32,3.45.79,2.63-1.74,4.27-3.31,5.88-1.65-.96-3.71-1.7-4.46-3.64Z"/>
  </g>
  <g id="_x23_94b0d5ff">
    <path class="st57" d="M1024.35,101.68c3.95-.69,8.22-.92,12.02.63-4.2-.17-8.42-.3-12.59.23.04.68.12,2.02.16,2.7,4.84.71,9.78.43,14.65-.03-.05-.53-.13-1.59-.17-2.12,2.22.7,4.47,1.34,6.74,1.95,1.55.58,3.12,1.18,4.69,1.79-3.57-.49-7.15-1.68-10.77-1.03-5.26.94-10.69,1.05-15.94.04.36-1.36-.4-3.47,1.21-4.16Z"/>
  </g>
  <g id="_x23_0549a5ff">
    <path class="st103" d="M1063.11,103.21c2.96-.01,5.94-.29,8.89.15,3.72.88,5.64,4.99,5.56,8.55-.02,7.01,0,14.02-.02,21.03-.16,4.02-3.41,7.13-7.24,7.82-.16.07-.48.21-.64.28-.55.58-1.08,1.17-1.59,1.76-.45-1.09-.87-2.19-1.27-3.29-.12-.62-.35-1.87-.46-2.49,1.99-.45,4.63.18,6.13-1.58,1.5-1.42,1.24-3.62,1.34-5.49-.03-6,.1-12-.01-17.99.2-1.81-1.13-3.13-2.01-4.52-2.9-.08-5.8-.12-8.68-.14-.01-1.36-.01-2.73,0-4.09Z"/>
  </g>
  <g id="_x23_0148a1ff">
    <path class="st78" d="M309.45,112.51c3.97-4.53,10.34-2.93,15.61-3.07,6.87.24,11.48,7.72,9.91,14.17-1.19,0-2.38,0-3.56.01.25-3.73-.71-8.02-4.51-9.64-3.21-.78-6.61-.38-9.89-.41-2.71-.15-4.97,1.94-6.28,4.11-.49,1.91-.59,3.89-.9,5.84-1.18.01-2.35.03-3.51.04-.26-3.93-.2-8.32,3.13-11.05Z"/>
  </g>
  <g id="_x23_054192ff">
    <path class="st47" d="M1044.4,109.47c2.84-.37,6.81-.91,8.22,2.34-.74,4.88-7.34,5.89-10.87,3.28-1.03-2.06.8-4.73,2.65-5.62M1045.12,113.21c-.53,1.63.03,2.19,1.67,1.67.5-1.63-.06-2.19-1.67-1.67Z"/>
  </g>
  <g id="_x23_0b4da6ff">
    <path class="st95" d="M1023.54,109.72c5.14-.03,10.28-.12,15.42-.09-.28,1.37-.54,2.73-.81,4.1-4.82-.2-9.69.26-14.47-.41-.03-.9-.1-2.7-.14-3.6Z"/>
  </g>
  <g id="_x23_4b80baff">
    <path class="st1" d="M1045.12,113.21c1.61-.52,2.17.04,1.67,1.67-1.64.52-2.2-.04-1.67-1.67Z"/>
  </g>
  <g id="_x23_00399fff">
    <path class="st64" d="M562.69,120.26c8.41-.73,16.85-.42,25.28-.46,25.67.02,51.34,0,77.01.02,6,.64,11.99-.19,18.01-.01,29.99.13,59.99-.25,89.97.43,4.79.2,9.58-.8,14.35-.06-.84.85-1.68,1.69-2.51,2.54-73.13,0-146.27.08-219.4-.02-.12,6.82.03,13.63.09,20.45,11.55-.26,23.09.83,34.47,2.73,6.58,1.29,13.26,2.75,19.24,5.89,3.09,1.65,6.53,4.31,6.17,8.25.01,22.66.06,45.32-.01,67.98.17,6.1-6.29,8.99-11.09,10.87-16.03,5.3-33.14,6.43-49.91,6.51l.4.84c-.42.28-1.25.85-1.67,1.13l.38-1.95c-15.28.08-30.64-1.38-45.41-5.43-5.63-1.71-11.69-4.25-14.45-9.83.19-23.4.06-46.79.1-70.19-.05-3.74,3.18-6.38,6.11-8.13,6.55-3.57,14.03-4.83,21.28-6.18,10.41-1.87,20.98-2.49,31.54-2.57-.06-7.6,0-15.2.05-22.81M539.47,146.84c-8.49,1.14-17.03,2.58-25.07,5.65-2.71,1.1-5.53,2.34-7.42,4.66-1.12,1.23-.94,3.45.46,4.44,4.5,4.11,10.68,5.51,16.43,6.98,17.1,3.76,34.72,4.15,52.16,3.77,12.76-.99,25.75-1.99,37.9-6.38,3.31-1.33,7.1-2.74,8.88-6.1.46-2.6-2.13-4.42-4.07-5.61-8.96-4.87-19.29-5.99-29.22-7.46-16.63-1.53-33.42-1.69-50.05.05M506.43,163.91c-.09,19.02-.03,38.03-.06,57.05.09,3.18-.33,6.42.24,9.58,2.14,3.14,5.83,4.67,9.28,5.91,10.29,3.7,21.22,4.97,32.05,5.99,7.03.11,14.04,1.32,21.08.67,6.63-.73,13.34-.36,19.94-1.48,9.91-1.44,20.18-2.54,29.18-7.25,2.3-1.38,5.2-3.32,4.69-6.42-.1-21.31-.1-42.62.02-63.93-2.39,1.6-4.84,3.19-7.58,4.12-14.23,4.87-29.35,6.55-44.32,6.58-16.05.39-32.23-.17-47.92-3.78-5.86-1.43-11.76-3.33-16.6-7.04Z"/>
  </g>
  <g id="_x23_0546a0ff">
    <path class="st30" d="M787.31,120.18l.13-.12c-.11,3.58-.11,7.15.01,10.73,2.36-.26,4.75-.51,7.11-.92-2.56,5.3-5.36,10.49-7.77,15.87,25.07-.05,50.15-.03,75.22-.03,6.08-.06,11.33,4.23,13.3,9.83-.73.86-1.45,1.72-2.15,2.58-1.03-3.03-2.46-6.2-5.3-7.93-3.22-2.06-7.21-1.77-10.86-1.82-45.34.06-90.68-.05-136.01.03-3.88.12-7.96-.47-11.63,1.07-3.43,1.44-5.56,4.74-6.69,8.15-.82.02-1.64.04-2.44.07.59-6.82,7.02-12.08,13.76-11.9,23.91-.18,47.83.09,71.74-.16-2.78-5-5.17-10.21-7.76-15.31,2.25.13,4.52.25,6.79.36.03-2.66.04-5.31.04-7.96.83-.85,1.67-1.69,2.51-2.54Z"/>
  </g>
  <g id="_x23_0b499bff">
    <path class="st100" d="M1035.07,127.69c1.42-.02,2.85-.04,4.29-.06,0,3.13-.77,7.5,2.94,8.91,4.52.6,9.11.16,13.67.33,4.94-.65,7.36,4.52,10.5,7.35.07-1.57.18-3.14.33-4.71.4,1.1.82,2.2,1.27,3.29.51-.59,1.04-1.18,1.59-1.76.16-.07.48-.21.64-.28.02,3.59.03,7.19-.04,10.79-1.57-.12-3.03-.62-4.03-1.86-2.81-2.76-5.39-5.74-8.11-8.59-5.06-.03-10.13.28-15.18-.1-3.49-.24-6.62-2.98-7.41-6.36-.4-2.3-.35-4.63-.46-6.95Z"/>
  </g>
  <g id="_x23_064a9fff">
    <path class="st63" d="M1145,134.33c5.32,3,10.76,5.8,16.24,8.5.03,1.05-.02,2.11-.08,3.17-.24-.35-.72-1.04-.97-1.38-4.95,2.88-10.19,5.26-15.01,8.38.19-2.61.56-5.23.42-7.85-.04-.39-.12-1.16-.15-1.54-6.05-.43-12.11-.12-18.15-.34v-1.04c6.14-.04,12.29-.02,18.45.03-.21-2.65-.45-5.29-.75-7.93Z"/>
    <path class="st63" d="M1469.31,180.58c-.46-2.82-.85-5.65-1.09-8.5,5.59,3.24,11.37,6.16,17.03,9.29.01.23.01.71.02.95-5.8,2.93-11.6,5.87-17.08,9.37.23-2.72.58-5.42,1.08-8.11-.23-.08-.7-.25-.93-.34-4.23-1.86-8.93-1.37-13.41-1.49-38.3-.09-76.6.27-114.89-.25,37.33-.31,74.67-.07,112-.14,5.75-.05,11.57.36,17.27-.78Z"/>
  </g>
  <g id="_x23_003296ff">
    <path class="st48" d="M928.99,145.11c.42,0,1.26.03,1.68.04,0,42.95.03,85.89-.01,128.84.22,3.63-1.34,6.99-3.46,9.84-.44-.71-1.31-2.13-1.75-2.85.89-1.81,1.74-3.66,2.35-5.59.66-2.09,1.11-4.26,1.16-6.45-.05-41.28-.3-82.56.03-123.83Z"/>
  </g>
  <g id="_x23_003497ff">
    <path class="st43" d="M873.16,158.12c.7-.86,1.42-1.72,2.15-2.58.28,2.49.42,4.98.41,7.49-.03,23.98.1,47.97-.07,71.95-.03,6.7-5.94,12.72-12.66,12.73-20.01.18-40.04-.16-60.05.15-5.14.69-10.26-.36-15.4-.2-.14,7.94-.08,15.89-.11,23.84-74.94.12-149.87-.03-224.81.07-.04-3.46-.06-6.92-.01-10.38-2.33.17-4.66.35-6.97.57,2.55-4.74,4.17-10.14,7.45-14.41.42-.28,1.25-.85,1.67-1.13,2.54,5.1,4.76,10.36,7.21,15.51-2.19-.22-4.37-.43-6.55-.64.01,2.49.03,4.98.04,7.47,73.09.03,146.18.05,219.27-.03.08-6.91-.03-13.82-.02-20.73-18.23,0-36.47-.15-54.7,0-5.99.53-11.98.17-17.97-.06-4.18-.19-7.99-2.94-10.08-6.46-2.35-3.67-1.63-8.2-1.76-12.31-.14-15.33.38-30.67-.39-45.97.65-8.43.3-16.88.42-25.32.8-.03,1.62-.05,2.44-.07-.3,24.78-.06,49.58-.15,74.38-.18,4.37,1.4,9.17,5.31,11.53,3.62,2.35,8.11,1.83,12.21,1.84,46.66.03,93.32.02,139.99.01,3.74.05,7.9-.91,10.34-3.98,2.6-3.18,3.09-7.46,2.97-11.43-.23-23.95.09-47.91-.18-71.85Z"/>
  </g>
  <g id="_x23_0343a5ff">
    <path class="st114" d="M1338.38,183.31l.78.07c1.09,2.26.28,5.17.51,7.68-.08,28.29.02,56.58-.04,84.87.24,7.23-6.28,13.98-13.62,13.41-50.69-.09-101.37.05-152.05-.05-5.56.05-11.17-4.13-12.12-9.55.62-1.05,1.26-2.11,1.9-3.17.91,2.71,1.78,5.72,4.2,7.5,2.25,1.81,5.23,2.26,8.05,2.22,50-.12,100.01.08,150.01-.09,5.3.34,9.47-3.76,10.65-8.68,2.28-5.21,1.38-11,1.48-16.51-.02-25.9-.07-51.81.25-77.7Z"/>
  </g>
  <g id="_x23_0343a7ff">
    <path class="st91" d="M448.23,277.08c.64-.31,1.93-.95,2.57-1.26,1.45,6.44,7.72,10.84,14.24,10.44,149.32.03,298.64.04,447.96-.01,4.71.28,9.54-1.44,12.45-5.27.44.72,1.31,2.14,1.75,2.85-2.03,1.73-4.04,3.63-6.6,4.55-4.37,1.56-9.07.82-13.6.95-147.67-.05-295.35.01-443.02-.02-7.38.29-13.97-5.19-15.75-12.23Z"/>
  </g>
  <g id="_x23_437a2fff">
    <path class="st56" d="M21.07,325.1c1.29-.25,2.61-.38,3.93-.37,44.32-.04,88.64,0,132.96,0,4.79.09,10.03-.71,14.29,2.04,4.4,2.75,5.98,8.25,5.94,13.17,0,81.03.05,162.05-.02,243.07.52,6.96-4.9,14.04-12.21,13.76-47.68.02-95.36.06-143.04-.02-6.87.4-12.48-6.12-12.14-12.77-.02-82,.05-164.01,0-246.01-.21-6.06,4.2-11.96,10.3-12.87Z"/>
  </g>
  <g id="_x23_286111ff">
    <path class="st36" d="M210.12,326.65c5.62-.66,11.28-.22,16.92-.31,41.32-.05,82.65-.04,123.97-.02,15.2.17,30.42-.33,45.61.23-.63.36-1.88,1.09-2.5,1.46-54.05-.08-108.09.11-162.14-.17-6.45-.13-12.92.45-19.36-.04-.63-.28-1.87-.86-2.5-1.15Z"/>
    <path class="st36" d="M966,588c1.6,2.1,3.39,4.32,6.06,5.09,2.9.82,5.97.42,8.97.49,43.98-.05,87.97.09,131.95-.04,4.02.35,7.55-2.3,9.27-5.78.55.98,1.1,1.98,1.64,2.99-2.38,3.51-6.51,5.97-10.81,5.77-46.04-.07-92.08.08-138.11-.04-3.6.03-7.73-1.45-9.54-4.69.19-1.27.38-2.54.57-3.79Z"/>
  </g>
  <g id="_x23_377422ff">
    <path class="st113" d="M458.33,326.74c.16-.11.48-.35.64-.46,152.67-.06,305.34-.05,458.01.01,6.9-.73,12.11,5.41,13.35,11.66.03,24.68.04,49.37.04,74.05-.17,13.51.38,27.04-.29,40.54-.09,1.04-.11,2.12-.05,3.18.75,13.4.1,26.85.33,40.27-.02,29.69.03,59.38-.03,89.07-1.2,5.91-5.91,11.63-12.39,11.48-152.66.06-305.32.01-457.97,0-6.4.33-11.35-4.89-12.68-10.78.94.69,1.9,1.39,2.85,2.09-.01-.48-.04-1.46-.05-1.94,1.29,4.33,5.11,7.89,9.84,7.68,152.36-.05,304.73.06,457.09-.05,6.26.5,10.76-5.66,10.41-11.5-.03-76.01-.01-152.02-.03-228.02-.1-4.89.16-9.79-.13-14.66-.32-4.23-2.76-8.38-6.83-9.93-1.43-.5-2.93-.82-4.43-.86-152.66.03-305.34.1-458-.02l.32-1.81Z"/>
  </g>
  <g id="_x23_3c7825ff">
    <path class="st109" d="M1160.53,332.8c2.26-3.54,5.99-6.7,10.44-6.47,51.98-.12,103.97-.08,155.95,0,7.02-.07,11.83,7.1,11.53,13.63-.02,56.94.02,113.88.03,170.81,12.16.44,24.34.26,36.52.31,14.66-.39,29.32.39,43.98-.22,16.66.66,33.33-.55,49.99.33,0,.66.02,1.98.03,2.64-43.51.21-87.04-.29-130.54.23.04,22.95-.08,45.91-.02,68.87.57,7.75-6.63,14.72-14.4,13.59-51.03-.03-102.07.07-153.1-.03-5.98-.03-11.53-5.22-11.55-11.27.05-43.57-.1-87.13.03-130.7-.01-.22-.02-.64-.02-.86-.12-32.89-.06-65.79-.04-98.68.13-7.4-.58-14.91,1.17-22.18M1169.52,329.4c-2.61.81-5.01,2.54-6.13,5.07-2.34,4.83-1.6,10.33-1.69,15.52.03,74.33-.04,148.66-.02,223,.1,4.96-.56,10.12,1.3,14.87,1.34,3.59,5.17,5.88,8.96,5.7,51.02-.03,102.04.01,153.06-.05,4,.28,8.11-2.07,9.5-5.89,1.17-2.75,1.01-5.77,1.04-8.67-.07-79.66.03-159.31-.02-238.97.34-4.93-3.29-9.6-8.08-10.65-3.33-1.38-7.03-.61-10.52-.75-47.98.17-95.97.06-143.96.07-1.21,0-2.34.35-3.44.75Z"/>
  </g>
  <g id="_x23_357124ff">
    <path class="st35" d="M200.52,341c-.34-6.12,3.24-13.02,9.6-14.35.63.29,1.87.87,2.5,1.15-.54.38-1.6,1.14-2.14,1.52-2.18,1.44-4.68,2.83-5.77,5.35-1.26,2.59-1.32,5.54-1.33,8.37.12,80.4-.09,160.8.12,241.2-.44-2.04-.79-4.1-1.15-6.15-.48,2.67-1.02,5.33-1.46,8.01-.4-2.69-.41-5.42-.38-8.13-.06-78.99-.05-157.98.01-236.97Z"/>
  </g>
  <g id="_x23_2e6d1aff">
    <path class="st42" d="M396.62,326.55l.33-.2c5.55,2.19,9.3,7.63,9.16,13.63.12,37.56-.11,75.11.04,112.66,8.62.08,17.24.05,25.86,0,.02.73.07,2.2.09,2.93-8.77-.06-17.53-.12-26.3.04.83,7.11-.47,14.26.34,21.39-.11,36.42.25,72.86-.19,109.28-.92-.77-1.83-1.53-2.74-2.28.13-81,.03-162,.04-243.01.5-5.24-2.71-10.56-8.03-11.66-.27-.33-.82-1-1.1-1.33.62-.37,1.87-1.1,2.5-1.46Z"/>
  </g>
  <g id="_x23_33721dff">
    <path class="st77" d="M447.27,338.96c-.08-5.87,4.87-12.73,11.06-12.22l-.32,1.81c-.05.21-.13.61-.18.81-5.72,1.22-8.23,7.32-8.01,12.65,0,72.99-.02,145.98,0,218.98.05,8.3-.24,16.62.27,24.92.01.48.04,1.46.05,1.94-.95-.7-1.91-1.4-2.85-2.09-.09-43.64-.04-87.27-.01-130.91.47-.21,1.42-.62,1.89-.83-.47-.2-1.41-.6-1.88-.8-.12-38.09-.05-76.17-.02-114.26Z"/>
  </g>
  <g id="_x23_437b30ff">
    <path class="st119" d="M963.53,334.02c1.58-4.32,5.71-7.9,10.49-7.74,47.33-.13,94.65-.01,141.98-.06-.25.7-.73,2.1-.97,2.8-46.37.11-92.74-.09-139.11.1-.98.02-1.93.17-2.84.45-5.19.97-8.22,6.46-7.78,11.46-.02,79.67.02,159.34,0,239-.01,2.67.29,5.32.7,7.97-.19,1.25-.38,2.52-.57,3.79-2.11-2.79-3.16-6.26-3.02-9.74.06-42.38,0-84.76.04-127.14-5.21,2.62-10.11,5.8-15.29,8.47.24-2.59.48-5.18.69-7.76-5.95.08-11.89-.04-17.82.1-.06-1.06-.04-2.14.05-3.18,5.89.17,11.79-.01,17.7.05-.16-2.55-.31-5.1-.45-7.64,4.96,2.91,9.99,5.72,15.12,8.34-.06-35.75.01-71.49-.02-107.23.06-4.02-.49-8.23,1.1-12.04Z"/>
  </g>
  <g id="_x23_2f6e1aff">
    <path class="st32" d="M1116,326.22c7.07,1.61,10.55,8.99,10.23,15.74-.05,36.9.05,73.79-.04,110.69,4.41.07,8.85-.24,13.26.11,1.93.42,3.84.92,5.78,1.4.04,2.35.42,4.9-.98,6.98.1-1.87.22-3.74.36-5.6-6.14.11-12.28-.03-18.42-.03.11,42.85-.08,85.69.09,128.53-.69,2.27-1.4,4.54-2.39,6.71-.54-1.01-1.09-2.01-1.64-2.99,1.51-5.14,1.07-10.54,1.14-15.81-.02-76.65-.04-153.3,0-229.95.09-4.78-1.73-10.23-6.4-12.32-47.94-.27-95.96.11-143.91-.11.91-.28,1.86-.43,2.84-.45,46.37-.19,92.74.01,139.11-.1.24-.7.72-2.1.97-2.8Z"/>
  </g>
  <g id="_x23_447d30ff">
    <path class="st89" d="M212.62,327.8c6.44.49,12.91-.09,19.36.04,54.05.28,108.09.09,162.14.17.28.33.83,1,1.1,1.33-61.58-.11-123.16-.1-184.74-.02.54-.38,1.6-1.14,2.14-1.52Z"/>
    <path class="st89" d="M1468.22,503.02c5.7,2.95,11.21,6.26,17.05,8.95l-.02.71c-5.6,3.45-11.53,6.34-17.21,9.66.36-2.83.9-5.65.96-8.51-.01-.66-.03-1.98-.03-2.64-.13-2.74-.48-5.46-.75-8.17Z"/>
  </g>
  <g id="_x23_96b589ff">
    <path class="st6" d="M458.01,328.55c152.66.12,305.34.05,458,.02,1.5.04,3,.36,4.43.86-101.82.06-203.65,0-305.47.02-52.38-.05-104.76.15-157.14-.09.05-.2.13-.6.18-.81Z"/>
  </g>
  <g id="_x23_91b185ff">
    <path class="st60" d="M1169.52,329.4c1.1-.4,2.23-.75,3.44-.75,47.99,0,95.98.1,143.96-.07,3.49.14,7.19-.63,10.52.75-52.64.27-105.28.16-157.92.07Z"/>
  </g>
  <g id="_x23_fffeffff">
    <path class="st80" d="M449.82,342.01c-.22-5.33,2.29-11.43,8.01-12.65,52.38.24,104.76.04,157.14.09,101.82-.02,203.65.04,305.47-.02,4.07,1.55,6.51,5.7,6.83,9.93.29,4.87.03,9.77.13,14.66.02,76,0,152.01.03,228.02.35,5.84-4.15,12-10.41,11.5-152.36.11-304.73,0-457.09.05-4.73.21-8.55-3.35-9.84-7.68-.51-8.3-.22-16.62-.27-24.92-.02-73,0-145.99,0-218.98M483.64,407.04c-.57,4.82-.27,9.7-.3,14.55-6.38.13-12.76.12-19.13.19.01,5.75.1,11.5-.39,17.23.7,14.96.29,29.96.4,44.94-.87,15.34.79,30.72-.4,46.07,1.21,15.32-.67,30.7.74,46l1-.87c90.49.36,180.98.07,271.48.17,19.76.14,39.55-.34,59.31.21.98-4.1.36-8.36.52-12.53.16-12.55-.33-25.12.25-37.66,2.22.46,4.43.94,6.66,1.4-2.9-5.06-4.14-11.16-7.97-15.6-.23.07-.71.2-.95.27-2.55,4.98-5,10.04-6.93,15.3,2.22-.4,4.47-.81,6.71-1.25l.1.21c-.29,15.7-.14,31.41-.08,47.11-75.72,0-151.44-.08-227.16.04-.05-2.51-.08-5.02-.11-7.52,2.19.34,4.4.72,6.6,1.11-2.51-5.32-4.81-10.76-7.46-16.01,26.84-.16,53.69.04,80.53-.08,3.9,0,7.73-3.21,7.75-7.24.16-4.3.02-8.6.07-12.89,9.3.06,18.61-.07,27.91.01-.16-5.07.55-10.11.33-15.17-.45-6.67-.4-13.37-.18-20.04.63-6.08-.56-12.17.02-18.25,8,.71,15.97-.11,23.98.09-.17,2.45-.44,4.9-.7,7.35,4.25-2.14,8.36-4.55,12.58-6.78l.06-.66c.62-.1,1.86-.3,2.48-.4-.1,7.24-.11,14.47-.05,21.71-.14,4.85,2.9,9.67,7.57,11.25,4.93,1.48,10.12.53,15.17.59,11.99.34,23.98-.04,35.97.24,12.66-.65,25.28.35,37.95-.27,16.68.11,33.36-.17,50.03.07,5.17.12,11.54.73,15.12-3.85,4.21-5.35,2.85-12.71,2.84-19.03.27-9.68.15-19.36.18-29.04.83-6.97-3.05-15.93-11.12-15.79-12.34-.18-24.69-.01-37.03-.17-5.3-.42-10.62-.12-15.92.09-9.01-.33-18.05-.5-27.06-.06-18.66.35-37.31-.33-55.96-.24-3.02-.02-6.04.13-9.01.62-4.85,1-8.59,5.59-8.66,10.53-.13,7.2-.13,14.4.02,21.6-.57-.04-1.72-.1-2.3-.13l.05-.54c-4.43-1.98-8.6-4.48-12.87-6.76.2,2.43.47,4.86.56,7.31-7.89.02-15.77-.07-23.65-.03.3-10.18-.89-20.35-.07-30.51.37-7.4-.39-14.77-.32-22.16-9.32-.06-18.64,0-27.96-.02-.06-4.57.21-9.16-.13-13.72-.5-4.09-4.77-6.87-8.72-6.52-51.33-.04-102.66.03-153.99-.03-3.64-.33-7.24,2.13-8.36,5.56Z"/>
  </g>
  <g id="_x23_95b48bff">
    <path class="st61" d="M1158.57,340.96c-.13-2.86.62-5.66,1.96-8.16-1.75,7.27-1.04,14.78-1.17,22.18-.02,32.89-.08,65.79.04,98.68-.76-.47-1.51-.92-2.26-1.35l1.51.19c-.15-37.18-.03-74.36-.08-111.54Z"/>
  </g>
  <g id="_x23_3e7928ff">
    <path class="st10" d="M1225.51,368.79c8.88-.61,16.87-4.93,23.57-10.55,6.6,5.67,14.64,9.84,23.44,10.53-.32,10.86,1.84,22.45-3.06,32.61-4,8.79-11.74,15.69-20.5,19.53-9.01-3.7-16.63-10.98-20.51-19.95-4.71-10.06-2.59-21.46-2.94-32.17M1228.79,371.97c.37,7.95-.96,16.11,1.37,23.86,2.83,9.29,10.07,16.93,18.83,20.94,8.08-3.75,14.93-10.48,18.16-18.86,3.48-8.19,1.86-17.26,2.04-25.88-7.5-1.01-14.24-4.51-20.18-9.04-5.93,4.55-12.71,8.07-20.22,8.98Z"/>
  </g>
  <g id="_x23_fcfcfcff">
    <path class="st13" d="M1228.79,371.97c7.51-.91,14.29-4.43,20.22-8.98,5.94,4.53,12.68,8.03,20.18,9.04-.18,8.62,1.44,17.69-2.04,25.88-3.23,8.38-10.08,15.11-18.16,18.86-8.76-4.01-16-11.65-18.83-20.94-2.33-7.75-1-15.91-1.37-23.86M1258.69,379.8c-4.09,4.68-8.45,9.12-12.47,13.86-1.93-2.02-3.94-3.96-6.05-5.77-.81.9-1.42,1.9-1.84,2.99,2.37,3.1,5.17,5.87,8.1,8.47,4.43-5.5,9.6-10.36,13.94-15.93,1.37-1.49-.97-2.5-1.68-3.62Z"/>
  </g>
  <g id="_x23_41772cff">
    <path class="st66" d="M280.49,366.66c10.03-3.7,21.31-3.63,31.47-.46,3.49,1.23,7.58,3.21,8.6,7.1.35,7.17.11,14.37.2,21.56-1.57-.1-3.12-.22-4.68-.38-7.86,4.51-17.21,4.78-26.01,3.98-4.68-.54-9.28-1.91-13.44-4.14,0,3.3-.01,6.59,0,9.89,9.42,6.64,21.78,6.26,32.63,4.19,0,1.28.03,2.57.05,3.86-10.68,3.3-22.82,2.47-32.69-2.9.66,4.02-1.87,10.01,2.59,12.39,7.1,4.16,15.69,3.98,23.65,3.65-.08,1.03-.25,3.09-.33,4.11-8.52.55-17.51.2-25.18-3.92-2.73-1.46-4.75-4.39-4.59-7.56.17-14.37-.18-28.74.13-43.11.05-4.28,3.97-6.95,7.6-8.26M288.46,368.66c-3.52.68-7.16,1.61-10.06,3.83-.91.55-1.33,1.36-1.25,2.44,5.8,4.57,13.66,5.4,20.8,5.45,6.07-.56,12.68-1.02,17.84-4.6,2.29-1.3-.16-3.35-1.56-4.06-7.83-4.21-17.17-4.04-25.77-3.06M276.59,379.85c.06,3.03-.2,6.09.29,9.1,3.09,3.14,7.58,4.3,11.8,4.98,7.82,1.13,16.03.97,23.52-1.75,1.76-.79,3.93-1.39,4.87-3.23.37-3.01.14-6.05.09-9.07-3.58,1.65-7.26,3.27-11.23,3.68-9.83,1.36-20.36.86-29.34-3.71Z"/>
  </g>
  <g id="_x23_fbfcfaff">
    <path class="st69" d="M288.46,368.66c8.6-.98,17.94-1.15,25.77,3.06,1.4.71,3.85,2.76,1.56,4.06-5.16,3.58-11.77,4.04-17.84,4.6-7.14-.05-15-.88-20.8-5.45-.08-1.08.34-1.89,1.25-2.44,2.9-2.22,6.54-3.15,10.06-3.83Z"/>
  </g>
  <g id="_x23_fdfdfdff">
    <path class="st118" d="M276.59,379.85c8.98,4.57,19.51,5.07,29.34,3.71,3.97-.41,7.65-2.03,11.23-3.68.05,3.02.28,6.06-.09,9.07-.94,1.84-3.11,2.44-4.87,3.23-7.49,2.72-15.7,2.88-23.52,1.75-4.22-.68-8.71-1.84-11.8-4.98-.49-3.01-.23-6.07-.29-9.1Z"/>
    <path class="st118" d="M466.19,474.59c.12-16.97-.18-33.94.16-50.91,5.7.3,11.46-.41,17.11.64-.08,3.9-.26,7.82-.12,11.73-.1,4.05,3.66,7.69,7.68,7.61,52,.12,103.99,0,155.99.04,4.12.29,8.19-3.43,7.82-7.64.07-4.12-.25-8.27.48-12.35,8.45.28,16.86.61,25.31-.03.07,16.94.01,33.88-.01,50.81-8.57-.1-17.14,0-25.71.12-.15-4.54.21-9.08-.11-13.61-.63-4.57-5.63-6.89-9.83-6.53-50.98-.02-101.97-.02-152.95,0-3.72-.22-7.42,2.34-8.43,5.93-.6,4.65-.28,9.37-.24,14.05-5.72,0-11.43.05-17.15.14Z"/>
  </g>
  <g id="_x23_478230ff">
    <path class="st3" d="M1258.69,379.8c.71,1.12,3.05,2.13,1.68,3.62-4.34,5.57-9.51,10.43-13.94,15.93-2.93-2.6-5.73-5.37-8.1-8.47.42-1.09,1.03-2.09,1.84-2.99,2.11,1.81,4.12,3.75,6.05,5.77,4.02-4.74,8.38-9.18,12.47-13.86Z"/>
  </g>
  <g id="_x23_3f7929ff">
    <path class="st86" d="M1016.34,393.3c2.14-2.49,5.66-2.07,8.6-2.11,8.99.15,17.99-.16,26.97.11,3.93.02,6.54,3.98,6.76,7.59.34,8.02-.06,16.05.11,24.08.24,4.25-3.5,8.41-7.78,8.4-5.7.11-11.4-.04-17.09-.03-3.67,3.22-6.54,7.23-10.09,10.55-.65.13-1.96.39-2.61.52-.13-3.6-.1-7.2-.07-10.79-3.81-.64-7.35-3.58-7.51-7.64-.2-6.66.13-13.33-.04-20-.08-3.68-.18-7.96,2.75-10.68M1017.59,400.04c-.11,7.98-.41,16.01.18,23.97.88,3.07,4.36,3.09,6.95,3.5.05,2.49.07,4.97.16,7.46,3.31-2.58,5.19-8.31,10.1-7.82,5.33-.13,10.69.33,16.02-.12,2.44-.17,4.06-2.72,3.84-5.03.07-7.34.1-14.68.04-22.01.15-2.1-1.4-4.73-3.71-4.58-9.74-.01-19.49-.15-29.22-.02-2.59-.38-4.52,2.26-4.36,4.65Z"/>
  </g>
  <g id="_x23_fafbf9ff">
    <path class="st44" d="M1017.59,400.04c-.16-2.39,1.77-5.03,4.36-4.65,9.73-.13,19.48,0,29.22.02,2.31-.15,3.86,2.48,3.71,4.58.06,7.33.03,14.67-.04,22.01.22,2.31-1.4,4.86-3.84,5.03-5.33.45-10.69-.01-16.02.12-4.91-.49-6.79,5.24-10.1,7.82-.09-2.49-.11-4.97-.16-7.46-2.59-.41-6.07-.43-6.95-3.5-.59-7.96-.29-15.99-.18-23.97M1022.91,401.24c.03,1.36-.78,3.29,1.04,3.85,8.66.33,17.36.32,26-.59-.16-.82-.49-2.45-.66-3.26-8.79-.11-17.59.03-26.38,0M1022.64,409.37c.09.83.27,2.49.36,3.32,4.78,1.28,9.94.91,14.76-.03-.19-.74-.57-2.2-.76-2.93-4.63-1.42-9.68-1.61-14.36-.36M1022.16,420.58l.83.21c4.8.03,9.6-.02,14.4-.18.19-.8.59-2.4.78-3.2-4.55-1.31-9.38-.75-14.04-.67-2.08-.08-1.59,2.5-1.97,3.84M1043.4,416.5c-1.49,1.34-2.76,3.17-3.09,5.17,2.53,2.64,7.13,2.64,9.73.07,1.24-.75,1.84-2.53.92-3.74-1.71-2.39-5.05-1.89-7.56-1.5Z"/>
  </g>
  <g id="_x23_3e7a27ff">
    <path class="st15" d="M317.48,399.63c5.83-2.32,11.77,3.67,10.83,9.45-.79,3.12-2.98,6.25-6.35,6.83-3.63,1.08-7.13-1.72-8.55-4.89-2.16-4.09.15-9.35,4.07-11.39M318.26,404.27c-2.54,1.6-2.28,5.57.08,7.22,1.91.8,4.65.53,5.51-1.66,2.37-3.17-2.39-8.55-5.59-5.56Z"/>
  </g>
  <g id="_x23_2a6411ff">
    <path class="st4" d="M483.64,407.04c1.12-3.43,4.72-5.89,8.36-5.56,51.33.06,102.66-.01,153.99.03,3.95-.35,8.22,2.43,8.72,6.52.34,4.56.07,9.15.13,13.72,9.32.02,18.64-.04,27.96.02-.07,7.39.69,14.76.32,22.16-.82,10.16.37,20.33.07,30.51,7.88-.04,15.76.05,23.65.03,0,.39,0,1.19,0,1.58-7.94.64-15.91-.26-23.85.31l-.04.38c-.58,6.08.61,12.17-.02,18.25-.22,6.67-.27,13.37.18,20.04.22,5.06-.49,10.1-.33,15.17-9.3-.08-18.61.05-27.91-.01-.05,4.29.09,8.59-.07,12.89-.02,4.03-3.85,7.24-7.75,7.24-26.84.12-53.69-.08-80.53.08-.26,0-.77,0-1.03,0-24.51-.15-49.02.03-73.52-.08-3.9.16-8.08-2.58-8.53-6.62-.44-4.51-.09-9.03-.03-13.54-5.72-.7-11.45.12-17.18.03-.13,14.21.03,28.42-.03,42.64.5-.01,1.5-.02,2-.02-.89.77-1.77,1.55-2.65,2.33l-1,.87c-1.41-15.3.47-30.68-.74-46,1.19-15.35-.47-30.73.4-46.07-.11-14.98.3-29.98-.4-44.94.49-5.73.4-11.48.39-17.23,6.37-.07,12.75-.06,19.13-.19.03-4.85-.27-9.73.3-14.55M489.17,404.14c-2.22,1.01-4.16,3.27-3.88,5.84.04,8.31,0,16.63.03,24.94-.38,3.19,2.28,6.78,5.66,6.61,51.71,0,103.43.01,155.15-.05,3.17.4,6.7-2.02,6.6-5.4.07-9.05-.04-18.1,0-27.14.24-3.52-3.61-5.63-6.73-5.33-50.66,0-101.32.05-151.99,0-1.61.1-3.35-.19-4.84.53M466.19,474.59c5.72-.09,11.43-.13,17.15-.14-.04-4.68-.36-9.4.24-14.05,1.01-3.59,4.71-6.15,8.43-5.93,50.98-.02,101.97-.02,152.95,0,4.2-.36,9.2,1.96,9.83,6.53.32,4.53-.04,9.07.11,13.61,8.57-.12,17.14-.22,25.71-.12.02-16.93.08-33.87.01-50.81-8.45.64-16.86.31-25.31.03-.73,4.08-.41,8.23-.48,12.35.37,4.21-3.7,7.93-7.82,7.64-52-.04-103.99.08-155.99-.04-4.02.08-7.78-3.56-7.68-7.61-.14-3.91.04-7.83.12-11.73-5.65-1.05-11.41-.34-17.11-.64-.34,16.97-.04,33.94-.16,50.91M489.13,457.21c-2.28.97-4.12,3.25-3.85,5.83.02,8.66-.09,17.34-.01,26.01-.22,3.46,3.48,6.04,6.72,5.65,51.68,0,103.36.08,155.05-.06,2.94.16,5.85-2.55,5.7-5.53.05-9,.01-18-.11-26.99.12-3.45-3.44-6.02-6.71-5.6-50.62.1-101.24-.03-151.86.04-1.66.07-3.42-.13-4.93.65M466.26,476.61c-.03,17.03-.11,34.07-.04,51.1,5.72.03,11.44.12,17.15-.04.02-4.54-.37-9.11.13-13.63.9-4.23,5.36-6.71,9.49-6.38,50.67.02,101.33-.09,152,.07,4.14-.28,8.97,1.97,9.77,6.39.35,4.51-.03,9.05.09,13.58,8.61-.06,17.23.05,25.86-.01-.22-17.02.08-34.04-.12-51.06-8.56.12-17.13.09-25.69.01-.1,4.47.09,8.95-.12,13.42-.23,3.83-3.96,7.06-7.79,6.68-52.02-.02-104.04.03-156.05,0-3.88.33-7.33-3.09-7.53-6.87-.29-4.38-.09-8.78-.08-13.17-5.69-.1-11.38.03-17.07-.08M485.37,515.03c-.19,8.98-.13,17.98-.06,26.97-.21,3.13,2.55,5.96,5.63,6.15,8.68.4,17.36-.23,26.04-.37,8.63.32,17.31.84,25.94.09,4.35-.36,8.69.12,13.03.27,6.34-.57,12.68.47,19.03.02,6.67-.7,13.34.57,20.02-.12,9.67.15,19.36.45,29.02-.23,8.44.69,16.95.52,25.37-.33,1.96-1.05,3.49-3.11,3.28-5.42.04-8.7.11-17.41,0-26.11.29-3.56-3.22-6.2-6.55-6.08-50.71-.06-101.4-.03-152.1-.04-3.58-.35-8.14,1.12-8.65,5.2Z"/>
    <path class="st4" d="M721.38,452.99c.07-4.94,3.81-9.53,8.66-10.53,2.97-.49,5.99-.64,9.01-.62,18.65-.09,37.3.59,55.96.24,9.01-.44,18.05-.27,27.06.06,5.3-.21,10.62-.51,15.92-.09,12.34.16,24.69,0,37.03.17,8.07-.14,11.95,8.82,11.12,15.79-.03,9.68.09,19.36-.18,29.04,0,6.32,1.37,13.68-2.84,19.03-3.58,4.58-9.95,3.97-15.12,3.85-16.67-.24-33.35.04-50.03-.07-12.67.62-25.29-.38-37.95.27-11.99-.28-23.98.1-35.97-.24-5.05-.06-10.24.89-15.17-.59-4.67-1.58-7.71-6.4-7.57-11.25-.06-7.24-.05-14.47.05-21.71-.62.1-1.86.3-2.48.4.06-.57.17-1.71.22-2.28.58.03,1.73.09,2.3.13-.15-7.2-.15-14.4-.02-21.6M731.33,444.54c-4.84.68-8.32,5.63-8,10.39.03,13.66.02,27.33-.01,41-.75,5.68,3.6,11.88,9.64,11.66,47.37-.04,94.74.09,142.11-.02,4.87.02,8.89-4.7,8.58-9.47.12-13.69-.03-27.39.05-41.08-.04-2.74.19-5.7-1.43-8.08-1.77-3.29-5.63-4.95-9.27-4.56-47.22.14-94.46-.15-141.67.16Z"/>
  </g>
  <g id="_x23_3c7724ff">
    <path class="st76" d="M1022.91,401.24c8.79.03,17.59-.11,26.38,0,.17.81.5,2.44.66,3.26-8.64.91-17.34.92-26,.59-1.82-.56-1.01-2.49-1.04-3.85Z"/>
  </g>
  <g id="_x23_fefefdff">
    <path class="st74" d="M318.26,404.27c3.2-2.99,7.96,2.39,5.59,5.56-.86,2.19-3.6,2.46-5.51,1.66-2.36-1.65-2.62-5.62-.08-7.22Z"/>
  </g>
  <g id="_x23_a3bd95ff">
    <path class="st40" d="M1022.64,409.37c4.68-1.25,9.73-1.06,14.36.36-4.78-.32-9.58-.3-14.36-.36Z"/>
  </g>
  <g id="_x23_37741aff">
    <path class="st84" d="M1022.64,409.37c4.78.06,9.58.04,14.36.36.19.73.57,2.19.76,2.93-4.92-.07-9.84.05-14.76.03-.09-.83-.27-2.49-.36-3.32Z"/>
  </g>
  <g id="_x23_3d7929ff">
    <path class="st105" d="M1061.81,410.35c3.91.27,8.73-1.18,11.86,1.92,2.45,2.17,2.75,5.64,2.61,8.71-.2,6.7.25,13.41-.17,20.1-.37,3.59-3.48,6.06-6.87,6.68-.11,3.54-.22,7.09-.56,10.62-.49-.06-1.46-.16-1.94-.21-3.34-3.2-6.1-7.07-9.74-9.89-5.32-.5-10.71.38-15.99-.43-4.8-1.07-7.24-6.27-6.41-10.85-.67-2.71,2.28-1.66,3.93-1.86.12,2.93-.58,7.1,2.87,8.41,5.74.76,11.6.03,17.38.58,2.19,2.27,4.44,4.47,6.66,6.72,0-2.21,0-4.4.01-6.6,1.95-.57,4.45-.31,5.85-2.09,1.42-1.33,1.02-3.41,1.15-5.15-.12-5.98.03-11.96-.09-17.94.08-1.72-.69-3.52-2.28-4.3-2.74-.37-5.51-.22-8.24-.26-.03-1.39-.04-2.78-.03-4.16Z"/>
    <path class="st105" d="M202.35,578.09c.36,2.05.71,4.11,1.15,6.15.6,5.17,5.06,9.7,10.46,9.31,59.7-.03,119.4.04,179.1-.05,5.43.35,9.67-4.32,10.15-9.49.91.75,1.82,1.51,2.74,2.28-1.09,3.64-3.22,7.15-6.72,8.9-3.12,1.68-6.77,1.32-10.18,1.4-58.36-.09-116.71.02-175.07-.07-6.27.45-12.03-4.3-13.09-10.42.44-2.68.98-5.34,1.46-8.01Z"/>
  </g>
  <g id="_x23_92ae84ff">
    <path class="st58" d="M1023,412.69c4.92.02,9.84-.1,14.76-.03-4.82.94-9.98,1.31-14.76.03Z"/>
  </g>
  <g id="_x23_a2be97ff">
    <path class="st33" d="M1022.16,420.58c.38-1.34-.11-3.92,1.97-3.84,4.66-.08,9.49-.64,14.04.67-5.09-.1-10.18-.26-15.27-.07.03.87.07,2.59.09,3.45l-.83-.21Z"/>
  </g>
  <g id="_x23_468234ff">
    <path class="st16" d="M1043.4,416.5c2.51-.39,5.85-.89,7.56,1.5.92,1.21.32,2.99-.92,3.74-2.6,2.57-7.2,2.57-9.73-.07.33-2,1.6-3.83,3.09-5.17M1044.25,420.05c-1.1,1.41,1.3,3.2,2.37,1.78,1.08-1.41-1.33-3.22-2.37-1.78Z"/>
  </g>
  <g id="_x23_407a2aff">
    <path class="st85" d="M307.75,423.79c2.1-3.49,6.11-5.97,10.27-5.51,4.4.2,9.49-.71,13.02,2.61,3.59,2.78,3.97,7.6,3.77,11.8-.99-.05-2.96-.15-3.95-.2-.17-2.84.47-6.27-2.07-8.28-1.94-2.24-5.12-1.71-7.75-1.82-2.92.12-6.41-.44-8.59,2-2.64,1.92-2.01,5.35-2.15,8.19-1.35.03-2.69.07-4.03.11.18-2.98-.37-6.33,1.48-8.9Z"/>
  </g>
  <g id="_x23_3c7427ff">
    <path class="st106" d="M1022.9,417.34c5.09-.19,10.18-.03,15.27.07-.19.8-.59,2.4-.78,3.2-4.8.16-9.6.21-14.4.18-.02-.86-.06-2.58-.09-3.45Z"/>
  </g>
  <g id="_x23_a5cb95ff">
    <path class="st45" d="M1044.25,420.05c1.04-1.44,3.45.37,2.37,1.78-1.07,1.42-3.47-.37-2.37-1.78Z"/>
  </g>
  <g id="_x23_437631ff">
    <path class="st104" d="M431.2,444.97c5.36,2.75,10.59,5.77,16.09,8.25.47.2,1.41.6,1.88.8-.47.21-1.42.62-1.89.83-5.59,2.59-10.99,5.57-16.33,8.63.46-2.62,1.06-5.23,1.15-7.9-.02-.73-.07-2.2-.09-2.93-.17-2.57-.54-5.13-.81-7.68Z"/>
  </g>
  <g id="_x23_457d30ff">
    <path class="st53" d="M1144.1,445.07c4.25,2.57,8.7,4.8,13.04,7.24.75.43,1.5.88,2.26,1.35,0,.22.01.64.02.86-.75.39-1.48.79-2.19,1.2-4.57,2.63-9.18,5.16-13.72,7.83.09-.42.28-1.24.37-1.66l.37-.75c1.4-2.08,1.02-4.63.98-6.98-1.94-.48-3.85-.98-5.78-1.4,1.68-.12,3.39-.19,5.1-.26-.17-2.48-.3-4.96-.45-7.43Z"/>
  </g>
  <g id="_x23_9ab990ff">
    <path class="st62" d="M1157.23,455.72c.71-.41,1.44-.81,2.19-1.2-.13,43.57.02,87.13-.03,130.7l-.82.07c.12-43.27-.08-86.53.09-129.8l-1.43.23Z"/>
  </g>
  <g id="_x23_467f2fff">
    <path class="st67" d="M706.28,467.16c4.27,2.28,8.44,4.78,12.87,6.76l-.05.54c-.05.57-.16,1.71-.22,2.28l-.06.66c-4.22,2.23-8.33,4.64-12.58,6.78.26-2.45.53-4.9.7-7.35-8.01-.2-15.98.62-23.98-.09l.04-.38c7.94-.57,15.91.33,23.85-.31,0-.39,0-1.19,0-1.58-.09-2.45-.36-4.88-.56-7.31Z"/>
  </g>
  <g id="_x23_fdfdfcff">
    <path class="st82" d="M466.26,476.61c5.69.11,11.38-.02,17.07.08,0,4.39-.21,8.79.08,13.17.2,3.78,3.65,7.2,7.53,6.87,52.01.04,104.03-.01,156.05,0,3.83.38,7.56-2.85,7.79-6.68.21-4.47.02-8.95.12-13.42,8.56.08,17.13.11,25.69-.01.2,17.02-.1,34.04.12,51.06-8.63.06-17.25-.05-25.86.01-.12-4.53.26-9.07-.09-13.58-.8-4.42-5.63-6.67-9.77-6.39-50.67-.16-101.33-.05-152-.07-4.13-.33-8.59,2.15-9.49,6.38-.5,4.52-.11,9.09-.13,13.63-5.71.16-11.43.07-17.15.04-.07-17.03.01-34.07.04-51.1Z"/>
  </g>
  <g id="_x23_43792eff">
    <path class="st87" d="M794.86,511.41c.24-.07.72-.2.95-.27,3.83,4.44,5.07,10.54,7.97,15.6-2.23-.46-4.44-.94-6.66-1.4-.58,12.54-.09,25.11-.25,37.66-.16,4.17.46,8.43-.52,12.53-1.6-16.01.27-32.18-.83-48.22-.19-.41-.59-1.23-.78-1.64l-.1-.21c-2.24.44-4.49.85-6.71,1.25,1.93-5.26,4.38-10.32,6.93-15.3Z"/>
  </g>
  <g id="_x23_447c2fff">
    <path class="st28" d="M794.74,525.67c.19.41.59,1.23.78,1.64,1.1,16.04-.77,32.21.83,48.22-19.76-.55-39.55-.07-59.31-.21-90.5-.1-180.99.19-271.48-.17.88-.78,1.76-1.56,2.65-2.33,32.2-.05,64.4-.1,96.6,0,0-2.47.01-4.94.03-7.4-2.27.28-4.53.59-6.78.91,2.48-5.31,5.09-10.55,7.44-15.92.26,0,.77,0,1.03,0,2.65,5.25,4.95,10.69,7.46,16.01-2.2-.39-4.41-.77-6.6-1.11.03,2.5.06,5.01.11,7.52,75.72-.12,151.44-.04,227.16-.04-.06-15.7-.21-31.41.08-47.11Z"/>
  </g>
  <g id="_x23_693691ff">
    <path class="st88" d="M21.19,635.31c34.6-.37,69.23.07,103.82-.41,13.99.66,28.01-.05,42.01.35,6.37.39,11.16,6.55,11.18,12.71.1,81.03-.05,162.07.06,243.1.14,4.18-.33,8.75-3.29,11.98-2.59,3.21-6.88,4.53-10.9,4.35-46.36-.04-92.72-.06-139.08-.01-4.27.14-8.93-1.21-11.51-4.83-3.05-3.82-2.72-8.98-2.71-13.57-.01-80,.02-160,0-240-.34-6.25,4-12.78,10.42-13.67Z"/>
  </g>
  <g id="_x23_672d92ff">
    <path class="st120" d="M201.88,642.74c2.63-4.12,7.09-7.11,12.11-6.93,49.01-.06,98.02-.05,147.02-.01,6.07-.37,11.39,4.21,12.73,9.99-.83.74-1.65,1.5-2.48,2.25-.9-5.4-5.71-9.5-11.24-9.18-45.98.02-91.97,0-137.96,0-4.09.08-8.31-.44-12.27.81-2.59.77-4.18,3.1-5.47,5.33-.81-.76-1.63-1.51-2.44-2.26Z"/>
  </g>
  <g id="_x23_632a8fff">
    <path class="st12" d="M414,642.05c2.25-3.75,6.57-6.15,10.96-5.84,164.01,0,328.01-.09,492.01.02,6.08-.32,10.99,4.47,12.79,9.95l-.32.37c-.77.86-1.53,1.73-2.28,2.61-.77-5.07-4.45-10.31-10.13-9.89-163.35-.04-326.7-.03-490.05-.01-2.95,0-6.23.02-8.55,2.13-3.15,2.54-3.62,6.86-3.67,10.63.09,80.32,0,160.66.08,240.98-.16,4.68,2.99,8.7,7.31,10.23-.46.58-1.39,1.74-1.85,2.32l-.29.36c-4.94-2.35-8.27-7.37-8.13-12.9-.12-44.28.05-88.57-.05-132.86-5.13,2.86-10.35,5.56-15.39,8.6.38-2.71.93-5.39,1.03-8.11.02-.94-.01-1.91-.03-2.84-.15-2.56-.62-5.1-.91-7.63,5.03,2.89,10.06,5.81,15.36,8.2-.12-35.46.03-70.92-.07-106.38-.04-3.42.33-6.99,2.18-9.94Z"/>
  </g>
  <g id="_x23_652c8fff">
    <path class="st7" d="M964.48,638.52c2.91-2.47,6.9-2.67,10.54-2.69,36.66-.03,73.31-.03,109.96-.02,4.9.02,10.46-.61,14.54,2.71,2.99,2.24,4.16,5.94,4.9,9.45l-1.27.19c-.45-.35-1.34-1.04-1.78-1.39-1.42-4.56-5.33-8.19-10.33-7.85-37.68-.13-75.36.08-113.04-.15-3.56.03-7.37-.2-10.61,1.55-2.74,1.38-3.92,4.44-4.99,7.12-1.95,4.62-1.02,9.73-1.1,14.58-.07,24.32.05,48.63.03,72.95-.08,7.8.38,15.62-.3,23.41l-1.5-.28c-.24-35.68-.02-71.37-.11-107.05-.24-4.64,1.25-9.62,5.06-12.53Z"/>
  </g>
  <g id="_x23_602c8dff">
    <path class="st14" d="M1136.23,646.19c1.77-5.05,5.98-9.86,11.77-9.66,59.33-.03,118.67,0,178.01-.01,5.08-.35,9.39,3.13,11.66,7.41-.82.03-2.46.09-3.27.12-2.06-2.51-4.9-4.75-8.32-4.48-54.71-.02-109.42-.01-164.12-.02-5.08.12-10.18-.33-15.22.26-4.61.63-7.27,5.18-7.5,9.5-.92-.94-1.82-1.88-2.71-2.81l-.3-.31Z"/>
  </g>
  <g id="_x23_65308cff">
    <path class="st90" d="M201.88,642.74c.81.75,1.63,1.5,2.44,2.26-.74,2.93-.96,5.95-.93,8.97.07,79.34-.02,158.68.07,238.02-.2,4.95,2.77,9.72,7.53,11.33-.37.68-1.12,2.02-1.5,2.7-5.43-1.92-9.07-7.27-8.96-13.03-.03-81-.02-162.01-.02-243.02,0-2.48.76-4.86,1.37-7.23Z"/>
  </g>
  <g id="_x23_4f1d7bff">
    <path class="st29" d="M1334.4,644.05c.81-.03,2.45-.09,3.27-.12,1.19,4.25.91,8.69.9,13.05-.02,59.5-.02,118.99-.04,178.49,43.48-.06,86.96-.03,130.44-.03.02.34.06,1,.08,1.33-24.02-.3-48.03.14-72.04-.07-13.99.19-27.98-.21-41.97.07-5.92.14-11.87-.47-17.74.46,6.11,1.33,12.4,1.14,18.62,1.05,12.7-.62,25.4.22,38.11.05,25.07-.21,50.13-.08,75.2.03-35.09.28-70.17-.25-105.25.29-8.47-.68-16.96-.02-25.42-.16,0,16.83-.03,33.66-.01,50.48,0,3.66.32,7.6-1.62,10.89-1.25,2.49-3.62,4.06-5.79,5.67h-.82c-61.63,0-123.26-.18-184.89.1-5.7-1.08-9.56-7.04-9.09-12.69.04-44.26-.07-88.52.07-132.78-.53.23-1.58.7-2.1.93l.47-.26c1.16-.66,2.35-1.28,3.55-1.89-1.01-.29-1.97-.52-2.93-.82l.98.25c-.08-28.78,0-57.56-.03-86.33.07-8.52-.23-17.04.18-25.54.89.93,1.79,1.87,2.71,2.81-.93,5.89.18,11.81-.01,17.73-.61,9.3-.76,18.65-.07,27.95.47,6.67-.7,13.34-.02,20.01.65,12.01-.74,24-.1,36-.37,5.65-.3,11.31-.28,16.97.7,14.02.49,28.08.41,42.13-1.1,10.94.62,21.89-.04,32.85-.67,6.99.61,13.99-.09,20.99-.54,5.03.28,10.06.2,15.09.09,5.34-.29,10.69.17,16.01.41,4.69,4.87,8.36,9.52,8.28,58.72.01,117.45.02,176.17.02,5.75.51,10.95-4.56,10.54-10.34.11-78.34-.04-156.69.07-235.04-.03-4.65.47-9.49-1.31-13.91Z"/>
  </g>
  <g id="_x23_552282ff">
    <path class="st79" d="M373.74,645.79c.22,2.41.53,4.82.53,7.25-.05,34.91.04,69.83-.03,104.74,7.73.11,15.47-.23,23.2.02.02.93.05,1.9.03,2.84-7.7.08-15.41.08-23.11-.08-.26,41.5-.07,83-.12,124.5-.09,4.2.41,8.49-.75,12.6-1.15,3.76-4.15,6.8-7.85,8.12.15-.8.44-2.41.58-3.21,3.14-2.61,5.32-6.35,5.11-10.53-.05-81.33.1-162.67-.07-244,.83-.75,1.65-1.51,2.48-2.25Z"/>
  </g>
  <g id="_x23_491977ff">
    <path class="st9" d="M927.16,649.16c.75-.88,1.51-1.75,2.28-2.61.43,37.31.2,74.64.14,111.96,5.32.9,10.73.77,16.12.67.3,2.85.53,5.71.86,8.56-.68.31-1.35.62-2,.95,1.11-2.65.86-5.48.56-8.25-5.15.35-10.31.14-15.45.2-.02,28.8-.03,57.59,0,86.39-.19,16.49.37,33-.29,49.47-.56-.48-1.67-1.44-2.23-1.92.27-25.2.06-50.4.13-75.6-.12-56.6.17-113.22-.12-169.82Z"/>
  </g>
  <g id="_x23_693890ff">
    <path class="st98" d="M1101.37,646.77c.44.35,1.33,1.04,1.78,1.39-.26,13.95-.5,27.9-.03,41.85-.52,13.32-.22,26.65-.05,39.98.16,9.21-.86,18.45.19,27.63l1.09.1c5.73.16,11.47-.04,17.21,0-.25-2.54-.58-5.05-.96-7.55,4.99,2.53,9.83,5.37,14.8,7.95.96.3,1.92.53,2.93.82-1.2.61-2.39,1.23-3.55,1.89l-.47.26c-4.62,2.61-9.16,5.37-13.86,7.84.41-2.79.96-5.58.9-8.41-5.9-1.94-12.19-.84-18.23-.43.24,13.63-.64,27.27-.2,40.91.75,11-.15,22.02.25,33.03,0,16.99-.01,33.97-.02,50.96-.04,3.89.3,7.77.69,11.65-.77,5.56-6.19,9.94-11.79,9.7-39.7.05-79.41-.04-119.11,0-1.95,0-3.84-.49-5.7-.94.5-.28,1.52-.85,2.02-1.13,39.91-.51,79.85-.04,119.76-.16,1.69-.11,3.39-.41,5.03-.87,4.45-1.32,7.62-5.61,7.42-10.28.16-29.31-.04-58.63.07-87.95-.18-52.75.23-105.5-.17-158.24Z"/>
  </g>
  <g id="_x23_6a3992ff">
    <path class="st5" d="M961.3,662.02c.08-4.85-.85-9.96,1.1-14.58-.03,79.83.09,159.66-.05,239.5.09,4.23-.59,9.03,2.17,12.64,2.13,2.99,6.02,3.84,9.5,3.72,40.01-.14,80.02.09,120.03-.06-1.64.46-3.34.76-5.03.87-39.91.12-79.85-.35-119.76.16-.5.28-1.52.85-2.02,1.13l-.37.21c-4.27-2.31-7.37-6.63-7.41-11.58-.15-44.57-.01-89.15-.08-133.73-4.14,2.7-8.51,5.03-12.82,7.44-.33-2.85-.56-5.71-.86-8.56-5.39.1-10.8.23-16.12-.67,5.29-1.55,10.89-.33,16.33-.92-.38-2.46-.76-4.91-1.17-7.35,5.11,2.27,9.59,5.8,14.79,7.86l1.5.28c.68-7.79.22-15.61.3-23.41.02-24.32-.1-48.63-.03-72.95Z"/>
  </g>
  <g id="_x23_571d80ff">
    <path class="st11" d="M1103.15,648.16l1.27-.19c-.07,36.58.01,73.16-.07,109.75l-1.09-.1c-1.05-9.18-.03-18.42-.19-27.63-.17-13.33-.47-26.66.05-39.98-.47-13.95-.23-27.9.03-41.85Z"/>
  </g>
  <g id="_x23_6b3693ff">
    <path class="st37" d="M1210.74,663.61c8.4-.79,16.28-4.51,22.44-10.23,5.96,5.76,13.81,9.49,22.1,10.21-.51,9.43,1.46,19.36-2.39,28.31-3.02,7.63-9.21,13.65-16.22,17.7-3.49,1.08-7.54.6-10.35-1.87-8.1-5.21-14.2-13.94-15.11-23.65-.8-6.8-.15-13.65-.47-20.47M1214.27,666.54c.27,8.08-1.28,16.59,2.03,24.26,3.11,7.57,9.47,13.39,16.81,16.81,7.47-3.99,14.41-10.09,17.15-18.34,2.51-7.31,1.27-15.18,1.55-22.75-6.9-1.16-13.39-4.12-18.71-8.65-5.13,4.93-11.89,7.58-18.83,8.67Z"/>
  </g>
  <g id="_x23_6b3a98ff">
    <path class="st112" d="M1230.82,685.78c3.7-3.96,7.18-8.16,11.2-11.8,1.03.89,3.1,2.1,1.36,3.49-4.1,4.48-8.14,9.01-12.26,13.46-2.73-2.62-5.67-5.03-8.06-7.96,2.12-4.52,5.76.98,7.76,2.81Z"/>
  </g>
  <g id="_x23_68358eff">
    <path class="st34" d="M1000.45,699.35c1.22-3.49,4.68-6.28,8.49-5.96,9.68.04,19.36-.11,29.04-.01,4.64-.32,8.34,4.09,8.22,8.54.03,7.35.15,14.7.05,22.05.01,4.2-2.51,9.35-7.15,9.7-6.04.13-12.07-.2-18.1.08-3.39,3.4-6.61,6.97-9.9,10.47-.89,1.02-2.23,1.4-3.52,1.59-.08-3.89-.01-7.78-.06-11.66-3.49-.79-6.9-3.27-7.36-7.03-.68-6.02-.2-12.1-.32-18.14.12-3.21-.41-6.53.61-9.63M1007.17,695.44c5.27.57,10.56.6,15.85.36,5.78-.29,11.59.83,17.33-.26-11.04-.49-22.13-.4-33.18-.1M1004.87,700.02c-1.2,2.45-.58,5.36-.75,8.01.23,6.27-.39,12.58.23,18.83.99,3.23,4.75,2.79,7.41,3.2-.02,2.45-.04,4.9,0,7.36,2.19-2.38,4.3-4.86,6.72-7.01.64-.69,1.45-.99,2.42-.89,5.67-.18,11.35.18,17.03-.14,2.75.06,4.86-2.73,4.49-5.36-.09-7.02.05-14.03-.05-21.04.27-2.94-2.41-5.71-5.39-5.25-8.33.05-16.67.02-25-.04-2.51.02-5.69-.22-7.11,2.33Z"/>
  </g>
  <g id="_x23_7841a1ff">
    <path class="st26" d="M1007.17,695.44c11.05-.3,22.14-.39,33.18.1-5.74,1.09-11.55-.03-17.33.26-5.29.24-10.58.21-15.85-.36Z"/>
  </g>
  <g id="_x23_faf8fbff">
    <path class="st115" d="M1004.87,700.02c1.42-2.55,4.6-2.31,7.11-2.33,8.33.06,16.67.09,25,.04,2.98-.46,5.66,2.31,5.39,5.25.1,7.01-.04,14.02.05,21.04.37,2.63-1.74,5.42-4.49,5.36-5.68.32-11.36-.04-17.03.14-.97-.1-1.78.2-2.42.89-2.42,2.15-4.53,4.63-6.72,7.01-.04-2.46-.02-4.91,0-7.36-2.66-.41-6.42.03-7.41-3.2-.62-6.25,0-12.56-.23-18.83.17-2.65-.45-5.56.75-8.01M1009.7,703.69c.09,1.3.18,2.62.29,3.95,8.33-.08,16.67.28,25,.08,2.37.42,1.66-2.63,2.28-4.01-9.18-.48-18.38-.06-27.57-.02M1009.74,711.85c.13,1.26.25,2.54.37,3.82,4.65-.02,9.31-.08,13.97-.12,1.49-.16,3.22.01,4.49-.98-.18-1.27-.98-2.83-2.47-2.7-5.45-.28-10.91-.02-16.36-.02M1009.86,719.84c-.12.87-.38,2.61-.51,3.49,4.7.22,9.41.2,14.12.21.25-1.34,1.91-3.03.15-3.93-4.57-.28-9.22-.39-13.76.23M1030.15,719.22c-1.24.83-3.07,2.53-1.91,4.11,3.01.73,8.65,3.45,9.63-1.32-.13-3.73-5.14-3.41-7.72-2.79Z"/>
  </g>
  <g id="_x23_6d3b90ff">
    <path class="st116" d="M1009.7,703.69c9.19-.04,18.39-.46,27.57.02-.62,1.38.09,4.43-2.28,4.01-8.33.2-16.67-.16-25-.08-.11-1.33-.2-2.65-.29-3.95Z"/>
  </g>
  <g id="_x23_64308eff">
    <path class="st65" d="M1009.74,711.85c5.45,0,10.91-.26,16.36.02,1.49-.13,2.29,1.43,2.47,2.7-1.27.99-3,.82-4.49.98-4.66.04-9.32.1-13.97.12-.12-1.28-.24-2.56-.37-3.82Z"/>
  </g>
  <g id="_x23_68358fff">
    <path class="st8" d="M1049.62,712.62c3.09.07,6.32-.54,9.32.41,3.17,1.26,5.16,4.63,5.19,7.99.21,5.32-.04,10.64.06,15.96-.04,3.24.25,6.79-1.61,9.64-1.26,2.14-3.86,2.73-5.66,4.26-.28,3.4-.12,6.82-.23,10.24-5.27-1.85-8.13-7.2-12.37-10.54-5.1.03-10.2.2-15.29.06-3.31.1-6.21-2.53-7.15-5.55-.4-2.55-.26-5.13-.29-7.67.96,0,2.88.01,3.84.01-.05,3.12-.58,7.43,3.09,8.79,5.8.5,11.65.12,17.48.27,2.26,2.31,4.49,4.66,6.77,6.98.03-2.28.05-4.55.09-6.81,2.94-.37,7.3-.77,7.33-4.69.07-7.31.07-14.65-.16-21.95-1.34-4.6-6.93-2.96-10.47-3.25,0-1.4.03-2.78.06-4.15Z"/>
  </g>
  <g id="_x23_683690ff">
    <path class="st55" d="M774.39,719.49c10.32-8.31,26.18-8.6,36.82-.71,7.52,5.13,12.08,14.09,12.46,23.11-.56,8.14,6.76,13.67,8.81,21.07.06,4.13-4.59,5.18-7.87,4.92-.08,2.04-.07,4.11-.43,6.14-1.04.5-2.07.98-3.12,1.42.73.44,1.46.89,2.21,1.35.11,3.21.57,7.03-2.12,9.4-3.65,3.21-8.87,3.37-13.4,4.44-.09,3.85-.14,7.71-.05,11.58-11.65.03-23.29.2-34.94.05.01-9.61.07-19.22-.03-28.83-6.93-6.54-10.85-15.88-11.29-25.34-.48-10.85,4.33-21.92,12.95-28.6Z"/>
  </g>
  <g id="_x23_6a3991ff">
    <path class="st94" d="M545.04,714.88c6.36-2.21,13.33-.57,18.81,3.07l.06.36c.25,2.16,1.51,5.27-1.69,5.61-2.98-2.28-6.34-4.51-10.23-4.58-5.92,0-12.04,3.27-14.56,8.77-2.05,3.97-1.95,8.54-1.9,12.9.1,5.36.17,10.72.08,16.09,2.58,1.65,5.18,3.26,7.82,4.82.18-8.84-.45-17.73.17-26.54,2.76-2.78,6.55-4.16,9.81-6.25,1.65.27,3.31.54,4.97.81-.19.92-.37,1.85-.55,2.8-3.47,2.13-6.92,4.32-10.37,6.49.02,2.97.02,5.95.05,8.94,7.01-3.76,13.61-8.3,20.75-11.81,1.57-1.02,3.15.08,4.56.81,2.91,1.66,5.75,3.45,8.64,5.17-1.59,1.22-3.17,2.45-4.75,3.69-2.58-1.64-5.18-3.24-7.77-4.85-2.76,1.57-5.51,3.16-8.21,4.84,6.94,4.63,14.19,8.8,21.35,13.08.19,7.6-.01,15.22.27,22.82,2.95-1.77,6.18-3.46,8.06-6.47,2.99-4.82,3-10.87,1.61-16.21.38-.46,1.16-1.38,1.55-1.85,1.11-.07,2.21-.16,3.33-.22h.15c1.96,7.13,1.74,15.12-2.38,21.49-2.76,5.06-7.88,8.22-13.3,9.77-2.02,4.89-5.1,9.5-9.74,12.25-8.32,5.52-20.46,3.46-26.66-4.34-5.37.87-11.14.57-15.79-2.52-8.8-4.94-12.98-16.38-9.83-25.89-2.16-3.32-4.53-6.78-4.87-10.83-.48-5.12-.42-10.57,2.08-15.21,2.72-5.6,8.12-9.31,13.85-11.37,2.04-7.15,7.24-13.66,14.63-15.64M520.56,758.97c1.71,5.42,7.07,8.11,11.6,10.84,3.83,2.13,7.45,4.6,11.22,6.82,2.82-.66,5.11-2.83,7.54-4.36-6.75-4.39-13.71-8.48-20.39-12.95-.59-7.47,0-14.98-.27-22.47-8.8,2.98-13.1,13.67-9.7,22.12M547.41,753.7c-.03,3.66-.39,7.34.03,11,2.53,2.14,5.61,3.5,8.46,5.18,2.9-1.74,5.84-3.41,8.79-5.07.11-3.54,1.06-7.23.09-10.68-2.39-2.54-5.66-4.05-8.57-5.89-2.89,1.89-5.86,3.66-8.8,5.46M569.45,756.88c-.15,8.64.02,17.3-.19,25.94-6.38,3.58-12.94,6.88-18.9,11.16,3.48,2.89,7.96,4.93,12.58,4.13,8.56-.95,14.66-9.8,13.91-18.12-.4-5.99.86-12.01.05-17.96-1.74-2.53-4.92-3.58-7.45-5.15M544.42,781.43c-1.68,1.15-3.51-.12-5.03-.9-5.1-2.98-10.19-5.98-15.09-9.27-1.38,7.48,2.56,15.77,9.84,18.51,4.87,1.92,10.51,1.22,14.88-1.6,5.45-3.21,10.96-6.33,16.31-9.68-.07-2.86-.1-5.71-.13-8.56-7.44,2.81-13.8,7.8-20.78,11.5Z"/>
  </g>
  <g id="_x23_fbf9fcff">
    <path class="st52" d="M537.43,728.11c2.52-5.5,8.64-8.77,14.56-8.77,3.89.07,7.25,2.3,10.23,4.58-3.05,1.54-5.91,3.42-8.81,5.21-3.26,2.09-7.05,3.47-9.81,6.25-.62,8.81.01,17.7-.17,26.54-2.64-1.56-5.24-3.17-7.82-4.82.09-5.37.02-10.73-.08-16.09-.05-4.36-.15-8.93,1.9-12.9Z"/>
    <path class="st52" d="M547.41,753.7c2.94-1.8,5.91-3.57,8.8-5.46,2.91,1.84,6.18,3.35,8.57,5.89.97,3.45.02,7.14-.09,10.68-2.95,1.66-5.89,3.33-8.79,5.07-2.85-1.68-5.93-3.04-8.46-5.18-.42-3.66-.06-7.34-.03-11Z"/>
    <path class="st52" d="M544.42,781.43c6.98-3.7,13.34-8.69,20.78-11.5.03,2.85.06,5.7.13,8.56-5.35,3.35-10.86,6.47-16.31,9.68-4.37,2.82-10.01,3.52-14.88,1.6-7.28-2.74-11.22-11.03-9.84-18.51,4.9,3.29,9.99,6.29,15.09,9.27,1.52.78,3.35,2.05,5.03.9Z"/>
  </g>
  <g id="_x23_66368dff">
    <path class="st81" d="M562.22,723.92c3.2-.34,1.94-3.45,1.69-5.61,1.79,1.41,3.55,3.64,6.14,2.75,8.43-1.21,16.88,3.57,21.12,10.78,3.6,5.67,3.75,12.68,2.32,19.07,1.31,1.99,2.42,4.09,3.41,6.26-1.12.06-2.22.15-3.33.22-.39.47-1.17,1.39-1.55,1.85-2.82-6.61-9.7-9.49-15.31-13.21,1.58-1.24,3.16-2.47,4.75-3.69,2.45,1.49,4.87,3.05,7.31,4.58.06-3.75.23-7.71-1.64-11.1-3-5.77-9.55-9.78-16.1-9.17-4.86.81-9,3.69-13.2,6.09.18-.95.36-1.88.55-2.8-1.66-.27-3.32-.54-4.97-.81,2.9-1.79,5.76-3.67,8.81-5.21Z"/>
  </g>
  <g id="_x23_5f2f80ff">
    <path class="st92" d="M1009.86,719.84c4.54-.62,9.19-.51,13.76-.23,1.76.9.1,2.59-.15,3.93-4.71,0-9.42.01-14.12-.21.13-.88.39-2.62.51-3.49Z"/>
  </g>
  <g id="_x23_5f318fff">
    <path class="st25" d="M1030.15,719.22c2.58-.62,7.59-.94,7.72,2.79-.98,4.77-6.62,2.05-9.63,1.32-1.16-1.58.67-3.28,1.91-4.11Z"/>
  </g>
  <g id="_x23_fbfafcff">
    <path class="st108" d="M557.83,732.74c4.2-2.4,8.34-5.28,13.2-6.09,6.55-.61,13.1,3.4,16.1,9.17,1.87,3.39,1.7,7.35,1.64,11.1-2.44-1.53-4.86-3.09-7.31-4.58-2.89-1.72-5.73-3.51-8.64-5.17-1.41-.73-2.99-1.83-4.56-.81-7.14,3.51-13.74,8.05-20.75,11.81-.03-2.99-.03-5.97-.05-8.94,3.45-2.17,6.9-4.36,10.37-6.49Z"/>
    <path class="st108" d="M520.56,758.97c-3.4-8.45.9-19.14,9.7-22.12.27,7.49-.32,15,.27,22.47,6.68,4.47,13.64,8.56,20.39,12.95-2.43,1.53-4.72,3.7-7.54,4.36-3.77-2.22-7.39-4.69-11.22-6.82-4.53-2.73-9.89-5.42-11.6-10.84Z"/>
  </g>
  <g id="_x23_65318dff">
    <path class="st38" d="M719.17,730.45c5.63,2.93,11.1,6.17,16.69,9.17-.07.22-.23.66-.31.88-5.31,3.27-10.96,6-16.22,9.39.01-2.81.47-5.59,1.14-8.3-32.17.17-64.34-.13-96.51.15-.04-1.16-.08-2.32-.1-3.46,32.18.17,64.36-.1,96.53.13-.5-2.65-.9-5.3-1.22-7.96Z"/>
  </g>
  <g id="_x23_fcfbfdff">
    <path class="st50" d="M560.73,746.02c2.7-1.68,5.45-3.27,8.21-4.84,2.59,1.61,5.19,3.21,7.77,4.85,5.61,3.72,12.49,6.6,15.31,13.21,1.39,5.34,1.38,11.39-1.61,16.21-1.88,3.01-5.11,4.7-8.06,6.47-.28-7.6-.08-15.22-.27-22.82-7.16-4.28-14.41-8.45-21.35-13.08Z"/>
  </g>
  <g id="_x23_faf9fbff">
    <path class="st102" d="M569.45,756.88c2.53,1.57,5.71,2.62,7.45,5.15.81,5.95-.45,11.97-.05,17.96.75,8.32-5.35,17.17-13.91,18.12-4.62.8-9.1-1.24-12.58-4.13,5.96-4.28,12.52-7.58,18.9-11.16.21-8.64.04-17.3.19-25.94Z"/>
  </g>
  <g id="_x23_521682ff">
    <path class="st70" d="M1103.12,760.09c6.04-.41,12.33-1.51,18.23.43-5.62.36-11.26.1-16.88.06-.2,41.12-.06,82.25-.11,123.38-.11,4.22.42,8.51-.52,12.68-.39-3.88-.73-7.76-.69-11.65.01-16.99.02-33.97.02-50.96-.4-11.01.5-22.03-.25-33.03-.44-13.64.44-27.28.2-40.91Z"/>
    <path class="st70" d="M916.99,903.39c5.16.16,8.78-4.28,10.16-8.81.56.48,1.67,1.44,2.23,1.92l.31.27c-1.97,5.31-6.75,9.82-12.7,9.58h-492.05c-1.59,0-3.12-.43-4.64-.8.46-.58,1.39-1.74,1.85-2.32,11.62.42,23.26.04,34.89.17,153.32-.01,306.64.05,459.95-.01Z"/>
  </g>
  <g id="_x23_632d8cff">
    <path class="st101" d="M623.15,774.79c5.75-3.51,11.83-6.43,17.69-9.76-.59,2.68-1.24,5.37-1.75,8.08,6.3.39,12.59-.42,18.89-.33,21.67.09,43.34,0,65.01.03,4.55.04,9.16-.36,13.64.67-.3.75-.89,2.23-1.19,2.98-32.1-.24-64.22.04-96.33-.15.57,2.65,1.17,5.29,1.72,7.95-6.03-2.9-11.7-6.47-17.68-9.47Z"/>
  </g>
  <g id="_x23_6b3893ff">
    <path class="st110" d="M1473.59,830.09c3.87,2.25,7.91,4.21,11.79,6.47-.15.11-.44.33-.59.45-5.09,3.86-11.12,6.24-16.69,9.32.36-2.66.74-5.32,1.13-7.97-25.07-.11-50.13-.24-75.2-.03-12.71.17-25.41-.67-38.11-.05-6.22.09-12.51.28-18.62-1.05,5.87-.93,11.82-.32,17.74-.46,13.99-.28,27.98.12,41.97-.07,24.01.21,48.02-.23,72.04.07-.02-.33-.06-.99-.08-1.33-.05-.83-.15-2.5-.2-3.33,1.84-.19,4.31.42,4.82-2.02Z"/>
  </g>
  <g id="_x23_551984ff">
    <path class="st93" d="M210.99,903.32c47.64.22,95.3.01,142.94.12,4.11.02,8.27.15,12.29-.87-.14.8-.43,2.41-.58,3.21-1.49.59-3.12.56-4.69.62-45.65-.09-91.29.03-136.94-.01-4.84-.05-9.7.23-14.52-.37.38-.68,1.13-2.02,1.5-2.7Z"/>
  </g>
  <g id="_x23_ab8bc4ff">
    <path class="st31" d="M1145.43,905.63c61.63-.28,123.26-.09,184.89-.1-3.58,1.5-7.53.86-11.29.97-55.03-.01-110.05-.08-165.08.01-2.84-.12-5.89.46-8.52-.88Z"/>
  </g>
  <g id="editable_times_new_roman_text_layer">
    <text id="left_self_01" class="st24" transform="translate(23.95 141)"><tspan x="0" y="0">Self-Instruct</tspan></text>
    <text id="left_self_02" class="st24" transform="translate(39.12 177)"><tspan x="0" y="0">Paradigm</tspan></text>
    <text id="left_evol_01" class="st24" transform="translate(19.61 450)"><tspan x="0" y="0">Evol-Instruct</tspan></text>
    <text id="left_evol_02" class="st24" transform="translate(39.12 486)"><tspan x="0" y="0">Paradigm</tspan></text>
    <text id="left_magpie_01" class="st24" transform="translate(52.12 742)"><tspan x="0" y="0">Magpie</tspan></text>
    <text id="left_magpie_02" class="st24" transform="translate(39.12 778)"><tspan x="0" y="0">Paradigm</tspan></text>
    <text id="top_input_01" class="st21" transform="translate(252.71 162)"><tspan x="0" y="0">Data Input:</tspan></text>
    <text id="top_input_02" class="st21" transform="translate(225.77 194)"><tspan x="0" y="0">Manual Seed Pool</tspan></text>
    <text id="top_input_03" class="st17" transform="translate(220.53 226)"><tspan x="0" y="0">(Human + Machine)</tspan></text>
    <text id="top_generation_title_01" class="st19" transform="translate(480.76 54)"><tspan x="0" y="0">Generation Method: Seed-inspired Expansion</tspan></text>
    <text id="top_generation_title_02" class="st19" transform="translate(592.63 87)"><tspan x="0" y="0">(Few-shot Prompting)</tspan></text>
    <text id="top_task_pool_01" class="st22" transform="translate(526.44 210)"><tspan x="0" y="0">Task Pool</tspan></text>
    <text id="top_filter_01" class="st22" transform="translate(742.04 172)"><tspan x="0" y="0">Filtering &amp;</tspan></text>
    <text id="top_filter_02" class="st22" transform="translate(729.52 203)"><tspan x="0" y="0">Deduplication</tspan></text>
    <text id="top_filter_03" class="st22" transform="translate(745.84 234)"><tspan x="0" y="0">(ROUGE)</tspan></text>
    <text id="top_generate_response_01" class="st19" transform="translate(999.63 180)"><tspan x="0" y="0">Generate</tspan></text>
    <text id="top_generate_response_02" class="st19" transform="translate(998.99 212)"><tspan x="0" y="0">Response</tspan></text>
    <text id="top_quality_01" class="st21" transform="translate(1183.72 151)"><tspan x="0" y="0">Quality Check:</tspan></text>
    <text id="top_quality_02" class="st21" transform="translate(1199.29 181)"><tspan x="0" y="0">Diversity &amp;</tspan></text>
    <text id="top_quality_03" class="st21" transform="translate(1189 211)"><tspan x="0" y="0">Answerability</tspan></text>
    <text id="top_quality_04" class="st21" transform="translate(1221.78 241)"><tspan x="0" y="0">Check</tspan></text>
    <text id="top_arrow_label_01" class="st21" transform="translate(1385.22 112)"><tspan x="0" y="0">Basic</tspan></text>
    <text id="top_arrow_label_02" class="st21" transform="translate(1368 140)"><tspan x="0" y="0">Synthetic</tspan></text>
    <text id="top_arrow_label_03" class="st21" transform="translate(1387.45 168)"><tspan x="0" y="0">Data</tspan></text>
    <text id="mid_input_01" class="st21" transform="translate(252.71 474)"><tspan x="0" y="0">Data Input:</tspan></text>
    <text id="mid_input_02" class="st23" transform="translate(207.49 506)"><tspan x="0" y="0">Simple Instruction Seeds</tspan></text>
    <text id="mid_input_03" class="st17" transform="translate(266.05 538)"><tspan x="0" y="0">(Human)</tspan></text>
    <text id="mid_generation_title_01" class="st23" transform="translate(483.5 358)"><tspan x="0" y="0">Generation Method: Rule-based Complexity Evolution</tspan></text>
    <text id="mid_generation_title_02" class="st23" transform="translate(573.89 389)"><tspan x="0" y="0">(In-depth/In-breadth Evolving)</tspan></text>
    <text id="mid_constraint_01" class="st18" transform="translate(509.25 427)"><tspan x="0" y="0">Add Constraints</tspan></text>
    <text id="mid_reasoning_01" class="st18" transform="translate(500.27 481)"><tspan x="0" y="0">Deepen Reasoning</tspan></text>
    <text id="mid_specify_01" class="st18" transform="translate(540.51 535)"><tspan x="0" y="0">Specify</tspan></text>
    <text id="mid_difficulty_01" class="st18" transform="translate(742.43 482)"><tspan x="0" y="0">Difficulty Check</tspan></text>
    <text id="mid_generate_response_01" class="st19" transform="translate(1000.63 481)"><tspan x="0" y="0">Generate</tspan></text>
    <text id="mid_generate_response_02" class="st19" transform="translate(999.99 513)"><tspan x="0" y="0">Response</tspan></text>
    <text id="mid_quality_01" class="st23" transform="translate(1190.25 445)"><tspan x="0" y="0">Quality Check:</tspan></text>
    <text id="mid_quality_02" class="st23" transform="translate(1160.75 474)"><tspan x="0" y="0">Logical Contradictions</tspan></text>
    <text id="mid_quality_03" class="st23" transform="translate(1167.76 503)"><tspan x="0" y="0">&amp; Intent Drift Check</tspan></text>
    <text id="mid_quality_04" class="st23" transform="translate(1181.24 532)"><tspan x="0" y="0">(Code Validation)</tspan></text>
    <text id="mid_arrow_label_01" class="st21" transform="translate(1371.74 449.43)"><tspan x="0" y="0">Complex</tspan></text>
    <text id="mid_arrow_label_02" class="st21" transform="translate(1360.94 478.62)"><tspan x="0" y="0">Instruction</tspan></text>
    <text id="mid_arrow_label_03" class="st21" transform="translate(1386.65 501.96)"><tspan x="0" y="0">Data</tspan></text>
    <text id="bottom_input_01" class="st21" transform="translate(236.71 725)"><tspan x="0" y="0">Data Input:</tspan></text>
    <text id="bottom_input_02" class="st21" transform="translate(248.39 756)"><tspan x="0" y="0">No Seeds</tspan></text>
    <text id="bottom_input_03" class="st21" transform="translate(231.16 787)"><tspan x="0" y="0">(System Tags</tspan></text>
    <text id="bottom_input_04" class="st21" transform="translate(230.05 818)"><tspan x="0" y="0">Only [INST])</tspan></text>
    <text id="bottom_generation_title_01" class="st20" transform="translate(438.11 664)"><tspan x="0" y="0">Generation Method: Seedless Self-Generation Using Model Priors</tspan></text>
    <text id="bottom_generation_title_02" class="st20" transform="translate(618 695)"><tspan x="0" y="0">(Model Priors)</tspan></text>
    <text id="bottom_prior_caption_01" class="st18" transform="translate(524.01 833)"><tspan x="0" y="0">Conversational Priors of Aligned Models</tspan></text>
    <text id="bottom_prior_caption_02" class="st18" transform="translate(582.53 859)"><tspan x="0" y="0">such as Llama-3-Instruct</tspan></text>
    <text id="bottom_generate_01" class="st21" transform="translate(969.76 779.79)"><tspan x="0" y="0">Generate User</tspan></text>
    <text id="bottom_generate_02" class="st21" transform="translate(990.59 807.02)"><tspan x="0" y="0">Query &amp;</tspan></text>
    <text id="bottom_generate_03" class="st21" transform="translate(987.72 831.66)"><tspan x="0" y="0">Response</tspan></text>
    <text id="bottom_quality_01" class="st23" transform="translate(1177.25 731)"><tspan x="0" y="0">Quality Check:</tspan></text>
    <text id="bottom_quality_02" class="st23" transform="translate(1151.75 757)"><tspan x="0" y="0">Distribution Diversity</tspan></text>
    <text id="bottom_quality_03" class="st23" transform="translate(1178.52 783)"><tspan x="0" y="0">&amp; Strict Safety</tspan></text>
    <text id="bottom_quality_04" class="st23" transform="translate(1202.51 809)"><tspan x="0" y="0">Filtering</tspan></text>
    <text id="bottom_quality_05" class="st23" transform="translate(1161.49 835)"><tspan x="0" y="0">(Bias/Hallucination</tspan></text>
    <text id="bottom_quality_06" class="st23" transform="translate(1196.52 861)"><tspan x="0" y="0">Detection)</tspan></text>
    <text id="bottom_arrow_label_01" class="st17" transform="translate(1363.05 733)"><tspan x="0" y="0">Large-scale</tspan></text>
    <text id="bottom_arrow_label_02" class="st17" transform="translate(1375.18 760)"><tspan x="0" y="0">Realistic</tspan></text>
    <text id="bottom_arrow_label_03" class="st17" transform="translate(1348.25 787)"><tspan x="0" y="0">Conversational</tspan></text>
    <text id="bottom_arrow_label_04" class="st17" transform="translate(1390.48 814)"><tspan x="0" y="0">Data</tspan></text>
    <text id="final_output_01" class="st21" transform="translate(1515.82 405)"><tspan x="0" y="0">Final Output:</tspan></text>
    <text id="final_output_02" class="st21" transform="translate(1497.49 436)"><tspan x="0" y="0">High-Quality SFT</tspan></text>
    <text id="final_output_03" class="st21" transform="translate(1514.9 467)"><tspan x="0" y="0">Training Data</tspan></text>
    <text id="final_output_04" class="st21" transform="translate(1517.98 498)"><tspan x="0" y="0">(Hierarchical</tspan></text>
    <text id="final_output_05" class="st21" transform="translate(1536.87 529)"><tspan x="0" y="0">Mixture)</tspan></text>
  </g>
</svg>