<?xml version="1.0" encoding="UTF-8"?>
<svg id="_图层_1" data-name="图层_1" xmlns="http://www.w3.org/2000/svg" version="1.1" xmlns:inkscape="http://www.inkscape.org/namespaces/inkscape" viewBox="0 0 1672 941">
  <!-- Generator: Adobe Illustrator 29.6.0, SVG Export Plug-In . SVG Version: 2.1.1 Build 207)  -->
  <defs>
    <style>
      .st0 {
        fill: #e5edf8;
      }

      .st1 {
        fill: #a785c0;
      }

      .st2 {
        fill: #050506;
      }

      .st3 {
        fill: #010101;
      }

      .st4 {
        fill: #93bb6e;
      }

      .st5 {
        fill: #777;
      }

      .st6 {
        font-family: TimesNewRomanPS-ItalicMT, 'Times New Roman';
        font-style: italic;
      }

      .st6, .st7, .st8, .st9, .st10, .st11, .st12, .st13, .st14, .st15, .st16, .st17, .st18, .st19 {
        isolation: isolate;
      }

      .st6, .st10 {
        font-size: 23px;
      }

      .st20 {
        fill: #050606;
      }

      .st7 {
        font-size: 20px;
      }

      .st7, .st9, .st10, .st13, .st14, .st16, .st17 {
        font-family: TimesNewRomanPSMT, 'Times New Roman';
      }

      .st8, .st12, .st15, .st18, .st19 {
        font-family: TimesNewRomanPS-BoldMT, 'Times New Roman';
        font-weight: 700;
      }

      .st8, .st16 {
        font-size: 25px;
      }

      .st21 {
        fill: #d6e2f3;
      }

      .st22 {
        fill: #fff;
      }

      .st9 {
        font-size: 22px;
      }

      .st23 {
        fill: #e2ecf7;
      }

      .st24 {
        fill: #060505;
      }

      .st25 {
        fill: #040106;
      }

      .st26 {
        fill: #020201;
      }

      .st27 {
        fill: #3d7718;
      }

      .st28 {
        fill: #f3f8ee;
      }

      .st29 {
        fill: #a376ba;
      }

      .st30 {
        fill: #5e2f89;
      }

      .st31 {
        fill: #e2eed5;
      }

      .st32 {
        fill: #3273b6;
      }

      .st33 {
        fill: #e9f2e0;
      }

      .st34 {
        fill: #dfecd2;
      }

      .st35 {
        fill: #2c2b2c;
      }

      .st12 {
        font-size: 28px;
      }

      .st36 {
        fill: #fdb956;
      }

      .st37 {
        fill: #d2291a;
      }

      .st38 {
        fill: #e5d7ed;
      }

      .st39 {
        fill: #7e51a1;
      }

      .st40 {
        fill: #fdfefb;
      }

      .st13 {
        font-size: 24px;
      }

      .st41 {
        fill: #ec8476;
      }

      .st42 {
        fill: #eb8478;
      }

      .st43 {
        fill: #122927;
      }

      .st44 {
        fill: #616161;
      }

      .st45 {
        fill: #f5eff8;
      }

      .st46 {
        fill: #f2f7ed;
      }

      .st47 {
        fill: #5f3087;
      }

      .st48 {
        fill: #1355a1;
      }

      .st49 {
        fill: #85abd7;
      }

      .st14 {
        font-size: 16px;
      }

      .st50 {
        fill: #93c068;
      }

      .st51 {
        fill: #6b4090;
      }

      .st15 {
        font-size: 40px;
      }

      .st52 {
        fill: #ac8cc6;
      }

      .st53 {
        fill: #5367b4;
      }

      .st54 {
        fill: #969ea3;
      }

      .st55 {
        fill: #f5f8f1;
      }

      .st17, .st18 {
        font-size: 21px;
      }

      .st56 {
        fill: #020101;
      }

      .st57 {
        fill: gray;
      }

      .st58 {
        fill: #f3f7ed;
      }

      .st59 {
        fill: #eef4fb;
      }

      .st60 {
        fill: #040504;
      }

      .st61 {
        fill: #592a83;
      }

      .st62 {
        fill: #fefefe;
      }

      .st63 {
        fill: #787877;
      }

      .st64 {
        fill: #848682;
      }

      .st65 {
        fill: #fdfdfa;
      }

      .st66 {
        fill: #6c4092;
      }

      .st67 {
        fill: #010103;
      }

      .st68 {
        fill: #010001;
      }

      .st69 {
        fill: #ece1f2;
      }

      .st70 {
        fill: #ede1f3;
      }

      .st71 {
        fill: #090809;
      }

      .st72 {
        fill: #447612;
      }

      .st73 {
        fill: #787878;
      }

      .st74 {
        fill: #323232;
      }

      .st75 {
        fill: #060605;
      }

      .st18 {
        fill: #d9251d;
      }

      .st76 {
        fill: #34a8dd;
      }

      .st19 {
        font-size: 32px;
      }
    </style>
  </defs>
  <g id="_x23_fefefeff">
    <path class="st62" d="M0,0h1672v941H0V0M73.25,79.39c-3.84,1.56-6.74,5.41-6.57,9.65-.05,11.97-.01,23.95-.05,35.93-.26,5.21,3.85,10.84,9.36,10.72,133.66.11,267.33,0,400.99.05,5.47.66,10.87-4.18,10.74-9.69.16-11.02-.06-22.05.12-33.07-.1-2.9.28-6.01-1.15-8.66-1.78-3.58-5.71-5.95-9.71-5.81-132.65.03-265.31,0-397.96-.01-1.95.03-3.98.02-5.77.89M596.34,79.54c-4.16,1.65-6.63,6.03-6.5,10.43-.16,12.37.1,24.75.41,37.11.42,4.74,4.93,9,9.79,8.66,158.66-.01,317.32,0,475.98-.03,3.59.34,6.9-1.99,8.45-5.12,1.82-3.22,1.2-7.04,1.3-10.57-.26-10.7.22-21.42-.16-32.12-.41-5.71-6.18-9.71-11.64-9.35-156.32-.02-312.64.04-468.95-.01-2.91.04-5.98-.32-8.68,1M1183.36,79.54c-4.18,1.66-6.86,6.03-6.62,10.49.01,12.01,0,24.02.06,36.03.13,5.19,4.73,10.06,10.09,9.65,150.05.02,300.11.05,450.17,0,5.84.66,10.78-5.05,10.55-10.65-.08-12.02.03-24.04-.05-36.06-.03-5.98-5.65-10.85-11.53-10.49-148.68-.02-297.36.08-446.04,0-2.25.01-4.57.07-6.63,1.02M1142.33,91.97c-.08,2.83-.03,5.66.02,8.49-14.72,0-29.43.15-44.14.03-.89,5.29-.28,10.69-.43,16.03,14.82.11,29.66-.04,44.48.12-.04,2.83-.05,5.66.06,8.49,7.43-5.64,15.31-10.85,22.28-17.02-7.59-5.13-14.45-11.36-22.27-16.14M556.79,92.33c0,2.7,0,5.4.08,8.11-16.76.09-33.52-.05-50.27.1.06,5.34.05,10.67-.02,16.01,16.76.09,33.52-.08,50.27.03-.08,2.72-.08,5.43-.07,8.15.99-.19,1.97-.47,2.73-1.19,6.56-5.11,13.25-10.04,20.05-14.81-5.46-5.33-12.08-9.31-18.1-13.98-1.46-.97-2.77-2.49-4.67-2.42M65.24,151.37c-8.01.99-13.67,8.77-13.42,16.62-.09,195.35,0,390.71-.06,586.06.23,5.17,2.21,10.53,6.47,13.73,3.01,2.49,6.99,3.43,10.82,3.54,137.32-.04,274.64.02,411.97-.02,7.63.05,14.7-5.68,16.16-13.18.57-4.02.21-8.1.3-12.14.02-192.68.03-385.35-.03-578.02.8-9.06-7.38-17.49-16.46-16.8-136.99,0-274.01.07-411.02,0-1.58,0-3.16.03-4.73.21M589.64,162.35c-1.42,5.79-.6,11.8-.81,17.7,0,188.96.02,377.91,0,566.87.01,5.81-.56,12.24,3.02,17.24,2.42,3.91,6.74,6.05,11.09,7.07,155.35.19,310.71,0,466.06.11,5.12.03,10.69-1.63,13.94-5.81,2.67-3.58,3.93-8.07,3.69-12.51.01-188.35,0-376.69-.03-565.03-.26-8.43.6-16.93-.49-25.31-1.3-4.12-4.11-7.79-8.01-9.73-4.6-2.62-10.06-1.58-15.1-1.79-152.34.02-304.68.02-457.02,0-7.17-.58-14.44,4.18-16.34,11.19M1175.38,160.47c-1.97,4.92-1.55,10.37-1.59,15.57.04,192.31.02,384.61.01,576.92.04,4.86,1.18,10.03,4.74,13.58,3.53,3.41,8.55,4.99,13.41,4.79,146.35-.05,292.69.02,439.03-.02,8.22.17,15.68-6.17,16.66-14.37.08-196.64-.01-393.29.06-589.94.19-5.66-3.11-11.31-8.18-13.82-2.02-1.17-4.23-2.01-6.57-1.99-18.64-.23-37.29.14-55.93-.26-15.31-.32-30.63.68-45.93-.02-19.37.33-38.72-.07-58.09.22-26.69.09-53.37-.37-80.05-.1-67.3.17-134.63.02-201.92.07-6.5-.51-13.14,3.29-15.65,9.37M544.38,402.84c-.15,4.93-.16,9.85-.07,14.78-10.88.2-21.77.06-32.65.19-.02,9.45.08,18.91-.01,28.37,10.88.12,21.77-.18,32.65.18-.08,4.9-.09,9.8-.01,14.7.41-.26,1.23-.8,1.64-1.07,9.91-9.38,19.72-18.88,29.72-28.17-10.37-9.71-20.43-19.81-31.27-28.98M1130.73,403.21c-.03,4.83-.08,9.67-.03,14.51-10.34.08-20.68-.08-31.01.06,0,9.46-.04,18.92.02,28.38,10.36.01,20.73.06,31.1.02-.07,4.86-.07,9.73-.06,14.59,1.01-.05,1.98-.39,2.62-1.24,9.48-9.3,19.26-18.28,28.78-27.54-8.79-8.62-17.68-17.12-26.61-25.57-1.54-1.17-2.69-3.17-4.81-3.21M14.69,797.98c-.03,12.34-.1,24.68,0,37.02.11,4.63,3.81,8.36,8.23,9.26,155.72-.05,311.44.06,467.16-.06,4.29-.63,8.21-4.04,8.4-8.55.19-12.56,0-25.14.07-37.7.16-5.06-4.38-9.66-9.47-9.42-155.04.03-310.09-.02-465.14.03-4.99-.04-9.34,4.45-9.24,9.42M588.65,798.03c0,12.32.04,24.65,0,36.97.15,5.3,5.15,9.34,10.3,9.22,158.37.03,316.73.09,475.1,0,4.48-.83,8.56-4.48,8.56-9.27.02-12,.03-23.99.07-35.98.45-5.33-4.24-10.52-9.63-10.44-158.06.02-316.12,0-474.18.02-5.24-.35-10.33,4.16-10.23,9.49M1176.59,790.55c-3,2.1-3.76,6.04-3.8,9.47.01,11.35,0,22.71-.03,34.06.03,5.41,4.64,10.38,10.21,10.14,152.05.05,304.1.07,456.15.01,6.03-.52,9.73-6.55,9.01-12.26-.09-10.97.04-21.95-.01-32.92.06-3.47-1.45-7-4.43-8.9-2.79-2.09-6.43-1.58-9.67-1.63-148.33-.01-296.67.02-445,0-4.16.16-8.93-.85-12.43,2.03M559.54,799.79c-.1,2.8-.06,5.61,0,8.43-15.71.08-31.43.01-47.14.05.1,5.33-.15,10.67.06,16.01,15.69-.14,31.38-.03,47.07-.07-.06,2.87-.06,5.74.11,8.62,7.19-5.6,14.41-11.16,21.56-16.81-7.02-5.66-14.06-11.38-21.66-16.23M1143.68,800.26c.09,2.67.37,5.34.64,8.02-16.04-.1-32.09.04-48.13-.03.07,5.33-.22,10.68.13,16.02,15.99.01,31.98-.2,47.97.09-.07,2.61-.08,5.23.03,7.86,7.41-5.05,14.35-10.81,21.43-16.33-5.67-4.11-11.11-8.54-16.7-12.75-1.69-1.16-3.11-3.16-5.37-2.88M15.23,871.98c-.19,14.02-.07,28.05-.13,42.08-.41,5.43,4.52,10.3,9.88,10.19,154.34-.07,308.69-.02,463.03-.05,2,0,4.03.13,6-.36,2.28.57,4.68.49,6.99.02,14.28.7,28.67.18,43,.34,37.35,0,74.71.02,112.06.02,9.31-.19,18.67.4,27.95-.32,3.29.59,6.66.19,9.99.3,310.67.02,621.35.02,932.02.03,4.6-.13,9.25.3,13.84-.33,4.76-.45,8.14-5.14,8.19-9.73.18-13.38,0-26.77.13-40.15.2-3.98-1.48-8.3-5.15-10.21-3.01-1.84-6.64-1.18-9.96-1.29-535.7.01-1071.4.01-1607.11.02-5.42-.64-10.89,3.86-10.73,9.44Z"/>
    <path class="st62" d="M695.26,451.38c1.08-.09,2.17-.16,3.27-.21-.21,1.11-.42,2.24-.68,3.35-.55-.06-1.66-.19-2.22-.25-.14-.97-.26-1.93-.37-2.89Z"/>
    <path class="st62" d="M695.38,489.35c1.03-.19,2.06-.15,3.1.12.25,1.94-.88,3.52-2.95,3.07-.19-1.07-.24-2.13-.15-3.19Z"/>
  </g>
  <g id="_x23_85abd7ff">
    <path class="st49" d="M73.25,79.39c1.79-.87,3.82-.86,5.77-.89,132.65.01,265.31.04,397.96.01,4-.14,7.93,2.23,9.71,5.81,1.43,2.65,1.05,5.76,1.15,8.66-.18,11.02.04,22.05-.12,33.07.13,5.51-5.27,10.35-10.74,9.69-133.66-.05-267.33.06-400.99-.05-5.51.12-9.62-5.51-9.36-10.72.04-11.98,0-23.96.05-35.93-.17-4.24,2.73-8.09,6.57-9.65M74.16,81.3c-3.12,1.18-5.28,4.34-5.23,7.68-.28,11.02.01,22.05-.13,33.07.04,2.85-.12,6.05,1.73,8.43,1.73,2.28,4.65,3.32,7.46,3.12,133.32.03,266.65.05,399.97-.03,3.91-.03,7.81-3.49,7.64-7.53.07-12.36.05-24.73.05-37.1.41-5.08-5.05-8.51-9.66-8.2-132.67-.16-265.34.05-398.01-.06-1.32-.04-2.59.17-3.82.62Z"/>
    <path class="st49" d="M80.89,599.01c4.49-1.64,9.36-1.25,14.05-1.28,120.37.03,240.74-.03,361.11.01,4.55-.07,9.37-.43,13.54,1.79,2.61,1.08,4.2,3.51,5.92,5.63-.54.49-1.06,1-1.58,1.52-1.85-2.59-3.89-5.49-7.18-6.25-4.85-1.11-9.86-.58-14.78-.68-118.67-.05-237.33.05-356-.04-5.18.19-10.8-.88-15.58,1.66-4.16,2.2-6.13,7.08-5.87,11.62.12,43-.07,86,.05,128.99-.12,3.52,2.47,6.15,4.18,8.97-.06.45-.17,1.36-.22,1.82-3.93-2.48-6.12-7.15-6.05-11.73-.02-43.02-.01-86.04-.04-129.06-.1-5.47,3.24-11.03,8.45-12.97Z"/>
  </g>
  <g id="_x23_93bb6eff">
    <path class="st4" d="M596.34,79.54c2.7-1.32,5.77-.96,8.68-1,156.31.05,312.63-.01,468.95.01,5.46-.36,11.23,3.64,11.64,9.35.38,10.7-.1,21.42.16,32.12-.1,3.53.52,7.35-1.3,10.57-1.55,3.13-4.86,5.46-8.45,5.12-158.66.03-317.32.02-475.98.03-4.86.34-9.37-3.92-9.79-8.66-.31-12.36-.57-24.74-.41-37.11-.13-4.4,2.34-8.78,6.5-10.43M598.11,81.05c-2.93.99-5.93,3.66-5.8,6.98-.15,4.99.23,9.99-.37,14.96-.6,4.68.44,9.34.3,14.02.09,3.78-.4,7.65.39,11.38,1.51,2.67,4.17,5.22,7.45,5.14,12.28.24,24.57,0,36.86.12,145.72-.03,291.43.07,437.14-.06,2.87.28,5.88-.52,7.74-2.86,2.3-2.32,1.62-5.78,1.74-8.72.18-11.02.02-22.04-.03-33.06.23-4.96-4.95-8.52-9.55-8.26-155.34-.05-310.68-.02-466.03-.05-3.28.08-6.61-.29-9.84.41Z"/>
    <path class="st4" d="M615.48,635.71c.62-.07,1.86-.19,2.49-.26,143,.02,286-.04,429-.02,4.12.15,8.56-.68,12.39,1.29,3.95,1.9,7.09,5.8,7.39,10.27,1.02,9.31.01,18.68.07,28.02.85,19.65,0,39.33,0,58.99,0,5.62,1.32,11.9-2.06,16.87-2.48,3.86-7.22,5.91-11.73,5.75-145.05.07-290.1,0-435.15.03-3.32.02-6.46-1.55-8.92-3.67-3.17-3.11-4.17-7.74-4.14-12.04.02-28.33-.02-56.66.01-84.99.04-3.86-.41-7.83.73-11.58,1.36-4.45,5.56-7.51,9.92-8.66M613.41,638.64c-3.81,1.87-6.49,6.03-6.18,10.33-.01,31,.03,62-.01,93-1,6.34,4.24,12.75,10.72,12.64,145.02.03,290.04.03,435.06.01,4.29.19,8.73-2.16,10.64-6.07,1.39-2.64.99-5.72,1.12-8.57-.05-30.67.09-61.33-.04-91.99-.03-6.04-5.78-10.85-11.7-10.36-144.02-.2-288.04-.06-432.06-.11-2.55.04-5.26-.2-7.55,1.12Z"/>
  </g>
  <g id="_x23_a785c0ff">
    <path class="st1" d="M1183.36,79.54c2.06-.95,4.38-1.01,6.63-1.02,148.68.07,297.36-.03,446.04,0,5.88-.36,11.5,4.51,11.53,10.49.08,12.02-.03,24.04.05,36.06.23,5.6-4.71,11.31-10.55,10.65-150.06.05-300.12.02-450.17,0-5.36.41-9.96-4.46-10.09-9.65-.06-12.01-.05-24.02-.06-36.03-.24-4.46,2.44-8.83,6.62-10.49M1184.3,81.41c-2.86,1.39-5.53,4.15-5.12,7.57.2,6.32-.52,12.64,0,18.96.38,6.82-1.2,13.71.39,20.46,1.2,3.36,4.83,5.61,8.39,5.22,149.36.03,298.72.07,448.08,0,4.94.83,9.67-3.69,9.33-8.62.05-11.99.02-23.99-.04-35.99-.1-5.21-5.39-8.75-10.29-8.29-148.66-.02-297.31-.01-445.97-.04-1.63.05-3.31.05-4.78.74Z"/>
  </g>
  <g id="_x23_e5edf8ff">
    <path class="st0" d="M74.16,81.3c1.23-.45,2.5-.66,3.82-.62,132.67.11,265.34-.1,398.01.06,4.61-.31,10.07,3.12,9.66,8.2,0,12.37.02,24.74-.05,37.1.17,4.04-3.73,7.5-7.64,7.53-133.32.08-266.65.06-399.97.03-2.81.2-5.73-.84-7.46-3.12-1.85-2.38-1.69-5.58-1.73-8.43.14-11.02-.15-22.05.13-33.07-.05-3.34,2.11-6.5,5.23-7.68M222.15,125.29c.63,1.37,3.35.96,4.58.35-.6-1.42-3.38-1.03-4.58-.35Z"/>
  </g>
  <g id="_x23_e2eed5ff">
    <path class="st31" d="M598.11,81.05c3.23-.7,6.56-.33,9.84-.41,155.35.03,310.69,0,466.03.05,4.6-.26,9.78,3.3,9.55,8.26.05,11.02.21,22.04.03,33.06-.12,2.94.56,6.4-1.74,8.72-1.86,2.34-4.87,3.14-7.74,2.86-145.71.13-291.42.03-437.14.06-12.29-.13-24.58.12-36.86-.12-3.28.08-5.94-2.47-7.45-5.14-.79-3.73-.3-7.6-.39-11.38.14-4.68-.9-9.34-.3-14.02.6-4.97.22-9.97.37-14.96-.13-3.32,2.87-5.99,5.8-6.98Z"/>
  </g>
  <g id="_x23_ece1f2ff">
    <path class="st69" d="M1184.3,81.41c1.47-.69,3.15-.69,4.78-.74,148.66.03,297.31.02,445.97.04,4.9-.46,10.19,3.08,10.29,8.29.06,12,.09,24,.04,35.99.34,4.93-4.39,9.45-9.33,8.62-149.36.08-298.72.04-448.08,0-3.56.39-7.19-1.86-8.39-5.22-1.59-6.75-.01-13.64-.39-20.46-.53-6.32.19-12.64,0-18.96-.41-3.42,2.26-6.18,5.12-7.57Z"/>
  </g>
  <g id="_x23_000000ff">
    <path d="M1142.33,91.97c7.82,4.78,14.68,11.01,22.27,16.14-6.97,6.17-14.85,11.38-22.28,17.02-.11-2.83-.1-5.66-.06-8.49-14.82-.16-29.66-.01-44.48-.12.15-5.34-.46-10.74.43-16.03,14.71.12,29.42-.03,44.14-.03-.05-2.83-.1-5.66-.02-8.49M1144.51,95.97c-.52,4.03-1.7,8.02-1.45,12.12.09,4.12,1.12,8.14,1.67,12.21,5.57-3.66,11.75-6.9,15.96-12.19-1.8-1.5-3.65-2.92-5.61-4.19-3.76-2.34-6.72-5.74-10.57-7.95M1100.48,114.41c14.01,0,28.02-.03,42.03-.15.07-3.85.12-7.7.07-11.55-7.54.03-15.08.02-22.59.4-6.49-.53-12.99-.22-19.48-.46-.41,3.91-.17,7.85-.03,11.76Z"/>
    <path d="M556.79,92.33c1.9-.07,3.21,1.45,4.67,2.42,6.02,4.67,12.64,8.65,18.1,13.98-6.8,4.77-13.49,9.7-20.05,14.81-.76.72-1.74,1-2.73,1.19-.01-2.72-.01-5.43.07-8.15-16.75-.11-33.51.06-50.27-.03.07-5.34.08-10.67.02-16.01,16.75-.15,33.51-.01,50.27-.1-.08-2.71-.09-5.41-.08-8.11M559.18,95.92c-.48,2.42.32,5.38-1.56,7.32-3.47-1.05-7.13-.42-10.69-.55-12.38.23-24.77-.1-37.14.14-1.4,3.37-.41,7.79-.33,11.54,16.01-.08,32.02.15,48.03-.15.39.19,1.16.56,1.55.75.08,1.81.17,3.63.28,5.45,3.12-1.4,5.66-3.76,8.49-5.64,2.64-2.03,5.65-3.77,7.48-6.65-5.52-3.88-10.27-8.84-16.11-12.21Z"/>
    <path d="M135.98,337.95c13.66-.86,27.4-.6,40.98,1.04,11.13,1.47,22.48,3.47,32.61,8.52,4.45,2.38,9.93,5.74,9.99,11.43-.05,41.98.08,83.97-.06,125.95-.81,5.24-5.55,8.71-10.03,10.85-9.83,4.96-20.77,6.97-31.58,8.5-23.18,3.11-47.04,2.48-69.83-2.97-7.41-1.98-15.13-4.14-21.11-9.16-2.32-2.03-4.48-4.75-4.45-7.98-.03-41.72-.02-83.44-.05-125.15-.05-4.64,3.93-7.93,7.53-10.16,9.19-5.37,19.86-7.32,30.21-9.15,5.23-.94,10.52-1.18,15.79-1.72M137.94,339.49c1.04.23,2.08.48,3.12.73-14.95.2-30.02,2.47-44.1,7.62-5.2,2.15-11.18,5.15-12.43,11.21,1.38,5.07,6.19,7.83,10.67,9.82,14.16,6,29.67,7.38,44.84,8.49,13.03.13,26.15.57,39.06-1.53,11.13-1.47,22.36-3.94,32.3-9.36,3.05-1.72,6.45-4.64,5.81-8.55-.87-3.4-3.9-5.65-6.76-7.36-12.11-6.59-26-8.46-39.5-9.99-2.68-.23-5.37-.27-8.06-.25,1.05-.27,2.1-.54,3.15-.8-9.34.38-18.76.43-28.1-.03M84.66,365c.21,5.8-.09,11.62.15,17.42,1.8,4.9,7.15,7.07,11.54,9.14,13.25,5.21,27.51,7.58,41.69,8.28,11.63,1.19,23.34.29,34.96-.6,11.55-1.58,23.25-3.49,33.99-8.24,3.91-1.82,8.11-4.02,10.06-8.11.45-5.95-.02-11.94.13-17.91-8.04,7.11-18.88,9.45-29.07,11.71-16.52,3.16-33.47,3.55-50.24,2.76-13.08-.62-26.15-2.58-38.62-6.65-5.32-1.62-10.28-4.28-14.59-7.8M84.68,386.05c.18,6-.16,12.02.29,18.01.03,2.94,2.49,4.88,4.6,6.53,4.74,3.26,10.17,5.4,15.69,6.96,20.03,5.6,41.05,7.01,61.74,5.44,14.28-1.65,28.87-3.7,41.95-10.01,3.17-1.68,6.27-3.84,8.09-7,.42-6.63.12-13.29.19-19.92-6.95,6.98-16.85,9.79-26.19,11.93-13.45,3.21-27.33,3.97-41.08,4.05-14.66-.35-29.46-1.22-43.65-5.21-7.82-2.07-15.62-5.2-21.63-10.78M84.69,408.91c.2,6.06.07,12.12.02,18.18-.09,2.67,2.04,4.75,4.03,6.23,6.52,4.61,14.3,6.99,21.96,8.97,9.36,2.48,19.05,3.23,28.66,4.04-5.94.7-11.86-1.08-17.73-.44-12.99-2.23-26.82-4.89-36.98-13.94.24,7.27.01,14.54.08,21.81.09,3.54-.82,7.76,1.88,10.6,1.05,1.48,3.54,2.42,2.75,4.62-1.09-1.16-2.17-2.29-3.26-3.42-.37-.1-1.1-.3-1.47-.39.33,6.66-.17,13.34.17,19.99,1.85,4.94,6.81,7.56,11.29,9.69,13.18,5.71,27.61,7.5,41.8,8.6,13.06.73,26.19.36,39.15-1.41,10.53-1.37,21.17-3.41,30.82-7.99,3.7-2.11,8.08-4.54,9.26-8.94.29-7.05.02-14.11.13-21.17-3.36,4.39-8.37,6.83-13.3,9-.76-.21-2.27-.64-3.02-.86,1.72-.32,3.46-.47,5.19-.71,4.98-1.6,8.6-5.81,11.07-10.26.37-2.33-.08-4.66-.41-6.95,1.03-7.26.1-14.78.4-22.15-6.41,6.42-15.34,9.13-23.85,11.48-5.26,1.55-10.72,2.14-16.11,3.06-.64-.32-1.91-.97-2.54-1.29,7.22-.75,14.34-2.34,21.36-4.17,6.3-1.78,12.72-4.05,17.78-8.33,1.52-1.59,3.72-3.24,3.4-5.71-.03-6,.02-12-.03-17.99-3.85,3.74-8.75,6.16-13.68,8.17-12.97,4.67-26.75,6.54-40.45,7.3-15.74.29-31.64.48-47.14-2.63-11.03-2.43-22.6-5.26-31.23-12.99Z"/>
    <path d="M302.11,343.46c4.36,2.18,8.45,4.87,12.82,7.04-4.01,2.73-8.56,4.54-12.59,7.24-.04-2.06.06-4.12.2-6.18-8.54.23-17.09-.08-25.62.2-4.18.15-7.27,4.11-7.14,8.15-.08,20.85-.03,41.7-.02,62.56,10.69.26,21.4.03,32.09.09-.13-2.1-.28-4.2-.38-6.3,3.96,2.62,8.29,4.59,12.32,7.08-.03.19-.09.58-.12.77-4.12,2.22-8.33,4.27-12.28,6.79-.01-1.77.1-3.57,1.13-5.06-.33-.26-.98-.78-1.31-1.04-10.5.26-21.07-.43-31.53.42.18,22.27-.09,44.55.13,66.82.06,4.31,3.86,7.94,8.13,8.01,8.18.35,16.36-.4,24.55-.11-.07-1.4-.14-2.79-.2-4.18-.24-.34-.73-1.01-.98-1.35,1.17-.02,2.34.21,3.3.94,3.4,2.15,6.98,4,10.54,5.88-4.33,2.39-8.78,4.6-13.01,7.19.13-2.04.28-4.04.41-6.06-8.19-.04-16.39.06-24.57-.07-5.53-.01-10.58-4.69-10.47-10.31-.01-22.39-.04-44.77-.02-67.16-8.17.07-16.35-.18-24.5.31-3.89-.08-7.85.41-11.67-.48.06-.52.18-1.55.24-2.07,11.96-.14,23.92.07,35.88,0,.14-20.87-.02-41.74.07-62.61-.13-5.2,4-10.34,9.37-10.48,8.54-.11,17.08.04,25.63,0-.13-2.01-.27-4.02-.4-6.02Z"/>
    <path d="M14.69,797.98c-.1-4.97,4.25-9.46,9.24-9.42,155.05-.05,310.1,0,465.14-.03,5.09-.24,9.63,4.36,9.47,9.42-.07,12.56.12,25.14-.07,37.7-.19,4.51-4.11,7.92-8.4,8.55-155.72.12-311.44.01-467.16.06-4.42-.9-8.12-4.63-8.23-9.26-.09-12.34-.02-24.68,0-37.02M16.96,797.94c-.16,12.03-.06,24.07-.04,36.11.03,4.11,3.73,8.12,8,7.66,154.69-.01,309.39.02,464.09-.01,3.47.2,5.99-2.64,7.33-5.53-.08-13.12.04-26.23-.06-39.34-1.3-3.47-4.4-6.31-8.31-5.97-72.97.08-145.94-.08-218.88.22-17.37-.67-34.74.34-52.11-.18-63.67-.09-127.32.11-190.98-.02-4.29-.49-8.83,2.55-9.04,7.06Z"/>
    <path d="M588.65,798.03c-.1-5.33,4.99-9.84,10.23-9.49,158.06-.02,316.12,0,474.18-.02,5.39-.08,10.08,5.11,9.63,10.44-.04,11.99-.05,23.98-.07,35.98,0,4.79-4.08,8.44-8.56,9.27-158.37.1-316.73.04-475.1,0-5.15.12-10.15-3.92-10.3-9.22.03-12.32,0-24.65,0-36.97M591.25,797.93c-.06,12.04-.14,24.09-.02,36.14-.34,4.18,3.55,8.01,7.73,7.64,158.02-.02,316.03.05,474.05-.02,3.44.19,5.96-2.69,7.26-5.56.01-13.08-.03-26.15-.02-39.23-1.21-3.53-4.41-6.19-8.25-6-157.67-.11-315.34,0-473-.06-3.96-.3-7.87,3.02-7.75,7.09Z"/>
    <path d="M1176.59,790.55c3.5-2.88,8.27-1.87,12.43-2.03,148.33.02,296.67-.01,445,0,3.24.05,6.88-.46,9.67,1.63,2.98,1.9,4.49,5.43,4.43,8.9.05,10.97-.08,21.95.01,32.92.72,5.71-2.98,11.74-9.01,12.26-152.05.06-304.1.04-456.15-.01-5.57.24-10.18-4.73-10.21-10.14.03-11.35.04-22.71.03-34.06.04-3.43.8-7.37,3.8-9.47M1181.13,791.15c-3.38.9-6.29,4.22-5.8,7.86.05,11.67-.03,23.34.04,35.01-.41,4.18,3.44,8.11,7.64,7.7,151.67-.02,303.33.02,455-.04,4.19.29,7.83-3.53,7.6-7.67-.04-12.03.09-24.06-.02-36.09-.1-4.34-4.45-7.5-8.62-7.07-144.64.01-289.29,0-433.94.01-7.29.2-14.65-.45-21.9.29Z"/>
    <path d="M559.54,799.79c7.6,4.85,14.64,10.57,21.66,16.23-7.15,5.65-14.37,11.21-21.56,16.81-.17-2.88-.17-5.75-.11-8.62-15.69.04-31.38-.07-47.07.07-.21-5.34.04-10.68-.06-16.01,15.71-.04,31.43.03,47.14-.05-.06-2.82-.1-5.63,0-8.43M561.76,804.11c-.09,2.1-.15,4.22-.2,6.34h-2.53c-9.9.05-19.8.2-29.7.17-4.95-.05-9.9-.05-14.84-.1.02,3.69.05,7.38.04,11.07,15.71.21,31.42.11,47.13-.01.02,2.07.05,4.15.12,6.24,5.64-3.51,10.75-7.81,16.04-11.82-5.42-3.88-10.63-8.05-16.06-11.89Z"/>
    <path d="M15.23,871.98c-.16-5.58,5.31-10.08,10.73-9.44,535.71,0,1071.41,0,1607.11-.02,3.32.11,6.95-.55,9.96,1.29,3.67,1.91,5.35,6.23,5.15,10.21-.13,13.38.05,26.77-.13,40.15-.05,4.59-3.43,9.28-8.19,9.73-4.59.63-9.24.2-13.84.33-310.67-.01-621.35-.01-932.02-.03-3.33-.11-6.7.29-9.99-.3-9.28.72-18.64.13-27.95.32-37.35,0-74.71-.02-112.06-.02-14.33-.16-28.72.36-43-.34-2.31.47-4.71.55-6.99-.02-1.97.49-4,.36-6,.36-154.34.03-308.69-.02-463.03.05-5.36.11-10.29-4.76-9.88-10.19.06-14.03-.06-28.06.13-42.08M23.09,865.14c-3.41.87-6.16,4.23-5.81,7.83.02,13.71.02,27.42.05,41.13-.1,4.04,3.47,7.83,7.61,7.52,537.68-.02,1075.37.03,1613.05-.03,4.18.39,7.86-3.49,7.69-7.59-.03-13.66-.01-27.33,0-40.99.25-4.18-3.44-8.16-7.64-8.16-526,0-1052.01-.02-1578.02,0-12.3.18-24.66-.4-36.93.29Z"/>
  </g>
  <g id="_x23_323232ff">
    <path class="st74" d="M559.18,95.92c5.84,3.37,10.59,8.33,16.11,12.21-1.83,2.88-4.84,4.62-7.48,6.65-2.83,1.88-5.37,4.24-8.49,5.64-.11-1.82-.2-3.64-.28-5.45-.39-.19-1.16-.56-1.55-.75-.03-3.66-.4-7.34.13-10.98,1.88-1.94,1.08-4.9,1.56-7.32Z"/>
  </g>
  <g id="_x23_2c2b2cff">
    <path class="st35" d="M1144.51,95.97c3.85,2.21,6.81,5.61,10.57,7.95,1.96,1.27,3.81,2.69,5.61,4.19-4.21,5.29-10.39,8.53-15.96,12.19-.55-4.07-1.58-8.09-1.67-12.21-.25-4.1.93-8.09,1.45-12.12Z"/>
  </g>
  <g id="_x23_787878ff">
    <path class="st73" d="M509.46,114.37c-.08-3.75-1.07-8.17.33-11.54,12.37-.24,24.76.09,37.14-.14,3.56.13,7.22-.5,10.69.55-.53,3.64-.16,7.32-.13,10.98-16.01.3-32.02.07-48.03.15Z"/>
  </g>
  <g id="_x23_777777ff">
    <path class="st5" d="M1100.48,114.41c-.14-3.91-.38-7.85.03-11.76,6.49.24,12.99-.07,19.48.46,7.51-.38,15.05-.37,22.59-.4.05,3.85,0,7.7-.07,11.55-14.01.12-28.02.15-42.03.15Z"/>
    <path class="st5" d="M529.33,810.62c9.9.03,19.8-.12,29.7-.17-.53,3.48-2.82,8.24.97,10.66-8.89-1.81-18.02-1-27.02-1.51,1.74-.36,3.46-.74,5.2-1.11-3.04-2.73-7.21-3.36-10.87-4.88.52-.27,1.56-.79,2.08-1.05-.01-.48-.04-1.45-.06-1.94Z"/>
  </g>
  <g id="_x23_969ea3ff">
    <path class="st54" d="M222.15,125.29c1.2-.68,3.98-1.07,4.58.35-1.23.61-3.95,1.02-4.58-.35Z"/>
  </g>
  <g id="_x23_1355a1ff">
    <path class="st48" d="M65.24,151.37c1.57-.18,3.15-.2,4.73-.21,137.01.07,274.03,0,411.02,0,9.08-.69,17.26,7.74,16.46,16.8.06,192.67.05,385.34.03,578.02-.09,4.04.27,8.12-.3,12.14-1.46,7.5-8.53,13.23-16.16,13.18-137.33.04-274.65-.02-411.97.02-3.83-.11-7.81-1.05-10.82-3.54-4.26-3.2-6.24-8.56-6.47-13.73.05-195.35-.03-390.71.06-586.06-.25-7.85,5.41-15.63,13.42-16.62M54.2,166.97c-.05,29.99.05,59.97-.02,89.96.04,166.03-.02,332.07,0,498.11-.36,8.31,7.87,14.8,15.82,14.2,136.66,0,273.31-.01,409.96-.01,5.7.1,11.65-2.93,13.96-8.32,2.31-5.35,1.17-11.28,1.44-16.91.01-162.69-.07-325.38.01-488.06-.01-29.64-.04-59.27.01-88.91-.16-7.03-6.04-13.9-13.34-13.79-137.69-.03-275.39-.06-413.08,0-7.77-.89-14.85,6.04-14.76,13.72Z"/>
    <path class="st48" d="M59.9,255.3c.17-.43.52-1.31.69-1.75,142.13.19,284.28.04,426.41.08,1.39-.18,2.14.48,2.26,1.98-140.1.17-280.21,0-420.31.08-3.02.05-6.06.21-9.05-.39Z"/>
  </g>
  <g id="_x23_447612ff">
    <path class="st72" d="M589.64,162.35c1.9-7.01,9.17-11.77,16.34-11.19,152.34.02,304.68.02,457.02,0,5.04.21,10.5-.83,15.1,1.79,3.9,1.94,6.71,5.61,8.01,9.73-.59.62-1.16,1.23-1.72,1.85-1.25-4.45-4.13-8.64-8.48-10.5-2.85-1.03-5.95-.73-8.91-.8h-455c-3.42.06-6.85-.18-10.23.31-6.16,1.15-10.61,7.31-10.53,13.45-.02,28.98.06,57.97-.01,86.96.02,166.7.02,333.41.02,500.12-.47,5.89,3.05,12,8.71,13.99,4.5,1.6,9.37,1.05,14.05,1.18,151.35,0,302.69,0,454.04-.03,5.14.23,10.38-1.55,13.66-5.66.31.49.92,1.49,1.23,1.98-3.25,4.18-8.82,5.84-13.94,5.81-155.35-.11-310.71.08-466.06-.11-4.35-1.02-8.67-3.16-11.09-7.07-3.58-5-3.01-11.43-3.02-17.24.02-188.96,0-377.91,0-566.87.21-5.9-.61-11.91.81-17.7Z"/>
    <path class="st72" d="M597.39,253.65c147.21-.03,294.42-.02,441.62,0,13.27.11,26.57-.31,39.83.24-.22.4-.66,1.21-.87,1.62-13.32.43-26.67.07-40,.21-44.65,0-89.31-.03-133.96.02-102.14-.16-204.28.23-306.41-.19-.05-.47-.15-1.41-.21-1.89Z"/>
    <path class="st72" d="M874.29,297.94c-.12-6.71,5.91-12.7,12.62-12.6,57.04-.13,114.09.02,171.14-.03,6.66-.07,12.42,6.11,12.44,12.68.03,15.65-.1,31.3.06,46.95-.05,3.67.24,7.57-1.59,10.91-1.85,4.17-6.37,6.92-10.91,6.85-28.19.03-56.39-.06-84.58.02-.53,0-1.59-.01-2.11-.01-27.45,0-54.9-.09-82.35,0-4,.38-8.21-.68-11.05-3.63-2.67-2.58-3.94-6.35-3.72-10.03.03-17.03-.04-34.07.05-51.1M886.3,287.48c-5.53.58-10.43,5.76-10.05,11.44-.08,17.03.07,34.07-.04,51.1-.3,6.14,5.85,11.12,11.76,10.64,55.37.03,110.74.01,166.11,0,2.77-.06,5.77.34,8.29-1.13,3.7-1.61,6.16-5.56,6.08-9.58-.01-17.32-.09-34.64-.03-51.96.15-5.95-5.45-11.01-11.34-10.55-56.93-.04-113.86-.07-170.78.04Z"/>
    <path class="st72" d="M886.29,412.44c56.89-.17,113.8-.04,170.7-.08,6.91-.4,13.39,5.69,13.43,12.61.09,19.03.03,38.06.04,57.08-.02,4.62-2.51,9.42-6.78,11.44-2.97,1.65-6.45,1.25-9.7,1.33-55.65-.08-111.3-.03-166.95-.02-6.87.36-12.95-6.01-12.75-12.78.02-19.04-.16-38.08.04-57.11-.04-6.46,5.65-11.99,11.97-12.47M885.41,414.61c-5.13,1.06-9.66,5.9-9.16,11.33-.01,18.69,0,37.38-.03,56.08-.14,4.03,2.59,7.74,6.08,9.53,2.97,1.66,6.46,1.13,9.72,1.26,53.98.01,107.96.01,161.94-.01,2.39-.06,4.87.19,7.21-.53,4.63-1.57,7.47-6.59,7.29-11.33-.08-18.66,0-37.32-.04-55.98-.18-5.79-5.53-11.01-11.43-10.54-23.33,0-46.66-.08-69.99-.05-33.86.19-67.74-.32-101.59.24Z"/>
  </g>
  <g id="_x23_5f3087ff">
    <path class="st47" d="M1175.38,160.47c2.51-6.08,9.15-9.88,15.65-9.37,67.29-.05,134.62.1,201.92-.07,26.68-.27,53.36.19,80.05.1,19.37-.29,38.72.11,58.09-.22,15.3.7,30.62-.3,45.93.02,18.64.4,37.29.03,55.93.26,2.34-.02,4.55.82,6.57,1.99-.47.27-1.39.82-1.85,1.09-5.42-1.59-11.1-.85-16.64-1.02-143.69,0-287.38-.06-431.08.04-6.13-.42-11.31,4.31-13.17,9.85-.8,4.25-.43,8.58-.48,12.87-.08,193.03-.06,386.05-.1,579.08-.19,5.66,3.75,10.95,8.89,13.06,3.45,1.42,7.26,1.04,10.91,1.07,145.02.04,290.05.02,435.07,0,6.93.06,13.1-5.2,14.32-11.98.56-.07,1.69-.22,2.25-.3-.98,8.2-8.44,14.54-16.66,14.37-146.34.04-292.68-.03-439.03.02-4.86.2-9.88-1.38-13.41-4.79-3.56-3.55-4.7-8.72-4.74-13.58.01-192.31.03-384.61-.01-576.92.04-5.2-.38-10.65,1.59-15.57Z"/>
  </g>
  <g id="_x23_e2ecf7ff">
    <path class="st23" d="M54.2,166.97c-.09-7.68,6.99-14.61,14.76-13.72,137.69-.07,275.39-.04,413.08,0,7.3-.11,13.18,6.76,13.34,13.79-.05,29.64-.02,59.27-.01,88.91-.68-.47-1.35-.93-2.01-1.4-.38.31-1.12.91-1.49,1.21-.43-.8-.84-1.6-1.25-2.4-.46.75-.92,1.5-1.36,2.26-.12-1.5-.87-2.16-2.26-1.98-142.13-.04-284.28.11-426.41-.08-.17.44-.52,1.32-.69,1.75-2.09-.7-3.93.76-5.72,1.63.07-29.99-.03-59.97.02-89.96Z"/>
  </g>
  <g id="_x23_e9f2e0ff">
    <path class="st33" d="M601.77,153.54c3.38-.49,6.81-.25,10.23-.31h455c2.96.07,6.06-.23,8.91.8,4.35,1.86,7.23,6.05,8.48,10.5-2.11,3.1-1.26,6.97-1.4,10.47.01,26.52.23,53.05-.19,79.55-1.33-.24-2.65-.49-3.96-.67-13.26-.55-26.56-.13-39.83-.24-147.2,0-294.41-.02-441.62,0,.06.48.16,1.42.21,1.89-.5-.17-1-.35-1.49-.53-1.78.76-3.41-.08-4.88-1.06.07-28.99-.01-57.98.01-86.96-.08-6.14,4.37-12.3,10.53-13.45Z"/>
  </g>
  <g id="_x23_ede1f3ff">
    <path class="st70" d="M1176.78,163.14c1.86-5.54,7.04-10.27,13.17-9.85,143.7-.1,287.39-.03,431.08-.04,5.54.17,11.22-.57,16.64,1.02,4.47,2.66,7.95,7.36,7.87,12.74-.01,29.38-.02,58.76-.04,88.14-1.12.23-2.21.47-3.28.7-.7-.72-1.33-1.45-2-2.15-.12,0-.36-.02-.48-.03-152.37-.1-304.73.07-457.09-.07-.18.43-.53,1.3-.7,1.73-1.22-.18-2.46.13-3.62.39-.79-25.9-.16-51.84-.38-77.75-.23-4.94.89-10.14-1.17-14.83Z"/>
  </g>
  <g id="_x23_5e2f89ff">
    <path class="st30" d="M1639.52,153.18c5.07,2.51,8.37,8.16,8.18,13.82-.07,196.65.02,393.3-.06,589.94-.56.08-1.69.23-2.25.3.27-167.36.04-334.73.11-502.09.02-29.38.03-58.76.04-88.14.08-5.38-3.4-10.08-7.87-12.74.46-.27,1.38-.82,1.85-1.09Z"/>
  </g>
  <g id="_x23_3d7718ff">
    <path class="st27" d="M1084.39,164.53c.56-.62,1.13-1.23,1.72-1.85,1.09,8.38.23,16.88.49,25.31.03,188.34.04,376.68.03,565.03.24,4.44-1.02,8.93-3.69,12.51-.31-.49-.92-1.49-1.23-1.98,3.64-5.52,2.67-12.33,2.74-18.58-.04-193.48.09-386.96-.06-580.44Z"/>
  </g>
  <g id="_x23_f5eff8ff">
    <path class="st45" d="M1176.3,176.01c.05-4.29-.32-8.62.48-12.87,2.06,4.69.94,9.89,1.17,14.83.22,25.91-.41,51.85.38,77.75,1.16-.26,2.4-.57,3.62-.39,9.65.84,19.37.12,29.06.37,139.66-.07,279.32.01,418.97-.03,3.1-.03,6.25.25,9.35-.22l.41-1.78c.12,0,.36.03.48.03.67.7,1.3,1.43,2,2.15,1.07-.23,2.16-.47,3.28-.7-.07,167.36.16,334.73-.11,502.09-1.22,6.78-7.39,12.04-14.32,11.98-145.02.02-290.05.04-435.07,0-3.65-.03-7.46.35-10.91-1.07-5.14-2.11-9.08-7.4-8.89-13.06.04-193.03.02-386.05.1-579.08M1344.51,347.27c-1.54,1.11-3.06,2.22-4.58,3.32-11.27,9.01-20.17,21.33-24.13,35.28,4.4,0,8.8-.06,13.21-.11,4.56-11.26,12.48-21.16,22.64-27.86,1.4-.82,2.8-1.65,4.21-2.49,13.66-7.57,30.1-8.69,45.09-4.95,10.69,3.5,20.48,9.53,28.31,17.63-2.92,1.92-6.23,3.12-9.24,4.88,10.41,4.86,21.18,8.91,31.91,13.01-1.71-11.68-4.59-23.16-6.41-34.82-2.24,2.87-4.27,5.88-6.39,8.83-7.61-8.02-16.6-14.72-26.77-19.13-21.86-9.2-48.16-6.92-67.85,6.41M1312.42,391.63c-6.25.6-12.26,5.86-12.17,12.4.07,4.98-.99,9.95-.16,14.91.62,4.03-.72,8.06-.05,12.08.65,4.35-.54,8.68-.29,13.04.25,6.6-.43,13.25.38,19.82.72,5.93,5.74,11.24,11.89,11.39,46.98.16,93.97-.08,140.95.15,5.96.32,11.77-3.82,13.56-9.47,1.18-9.27-.17-18.64.56-27.95.48-8.33-.7-16.65-.01-24.97-.12-4.07.06-8.22-.79-12.21-1.9-5.91-8.17-9.74-14.27-9.33-46.53.04-93.08-.16-139.6.14M1470.81,431.75c4.45,2.04,8.74,4.43,13.05,6.77-.06-1.99-.11-3.97-.12-5.94,3.28.07,6.58.09,9.88.12.02-.62.04-1.86.05-2.49-3.3-.02-6.6-.03-9.89-.1,0-1.93.04-3.85.08-5.76-4.13,2.87-8.98,4.53-13.05,7.4M1282.59,430.2c-8.93,0-17.85.02-26.77-.02.05.6.16,1.79.22,2.39,8.87-.08,17.75.07,26.63-.08-.2,2.02-.39,4.04-.56,6.07,4.45-2.15,8.73-4.67,12.89-7.34-4.27-2.31-8.56-4.59-12.7-7.14-.09,2.04.06,4.08.29,6.12M1441.17,477.23c-2.37,7.29-6.11,14.14-10.99,20.05-11.25,13.46-28.67,21.35-46.19,21.13-17.02.05-33.46-7.93-44.82-20.44,2.94-1.94,6.36-3.16,9.03-5.51-11.35-3.71-22.45-8.07-33.65-12.16,3.39,11.96,6.15,24.08,9.13,36.14,2.82-2.63,4.48-6.21,6.64-9.36,5.52,5.1,10.85,10.58,17.51,14.21,24.49,15.19,58.14,12.93,80.62-4.96,12.63-9.59,21.76-23.56,25.7-38.9-4.33.09-8.66.01-12.98-.2M1201.33,626.44c-4.53,1.01-8.38,4.55-9.79,8.96-1.16,3.39-.85,7.02-.88,10.55-.01,32.34-.09,64.68.03,97.02-.28,7.61,6.62,14.48,14.27,13.78,137.35-.04,274.7.04,412.05-.03,6.22.62,12.49-3.62,14.1-9.67.84-3.29.47-6.73.56-10.07-.09-31.02-.08-62.04-.03-93.06-.07-3.18.22-6.5-1.17-9.46-2.15-5.3-7.77-8.71-13.43-8.6-108.03-.07-216.04.11-324.05-.01-25,.46-50.01-.54-75,.33-5.56.05-11.17-.93-16.66.26Z"/>
    <path class="st45" d="M1310.21,394.27c2.49-.86,5.19-.58,7.8-.62,44.97-.03,89.94.04,134.91.01,6.08-.29,11.97,5.12,11.79,11.28-.02,18.7-.09,37.4,0,56.1.37,4.91-2.65,10.17-7.57,11.43-11.31,2.03-22.84-.35-34.21.69-36.31.14-72.63-.03-108.94.06-5.69.02-11.62-4.23-11.75-10.25-.12-17.99,0-35.97-.05-53.96-1-6.06,1.85-12.81,8.02-14.74Z"/>
  </g>
  <g id="_x23_f3f8eeff">
    <path class="st28" d="M1082.99,175c.14-3.5-.71-7.37,1.4-10.47.15,193.48.02,386.96.06,580.44-.07,6.25.9,13.06-2.74,18.58-3.28,4.11-8.52,5.89-13.66,5.66-151.35.03-302.69.03-454.04.03-4.68-.13-9.55.42-14.05-1.18-5.66-1.99-9.18-8.1-8.71-13.99,0-166.71,0-333.42-.02-500.12,1.47.98,3.1,1.82,4.88,1.06.49.18.99.36,1.49.53,102.13.42,204.27.03,306.41.19,44.65-.05,89.31,0,133.96-.02,13.33-.14,26.68.22,40-.21.21-.41.65-1.22.87-1.62,1.31.18,2.63.43,3.96.67.42-26.5.2-53.03.19-79.55M874.29,297.94c-.09,17.03-.02,34.07-.05,51.1-.22,3.68,1.05,7.45,3.72,10.03,2.84,2.95,7.05,4.01,11.05,3.63,27.45-.08,54.9,0,82.35,0-.14,11.37-.17,22.74-.03,34.1-1.8-.1-3.58-.2-5.35-.3,1.78,4.57,4.35,8.78,6.16,13.35,2.55-4.33,4.88-8.8,6.79-13.45-1.82.15-3.64.31-5.44.48-.02-11.39-.02-22.78-.02-34.17,28.19-.08,56.39.01,84.58-.02,4.54.07,9.06-2.68,10.91-6.85,1.83-3.34,1.54-7.24,1.59-10.91-.16-15.65-.03-31.3-.06-46.95-.02-6.57-5.78-12.75-12.44-12.68-57.05.05-114.1-.1-171.14.03-6.71-.1-12.74,5.89-12.62,12.6M857.56,316.92c.18,1.89.35,3.78.47,5.68-5.71.23-11.48-.33-17.16.38-4.35.62-7.41,4.84-7.33,9.12-.1,13.79-.08,27.57.02,41.36l1.89-.09c.74-13.77.06-27.62.39-41.42.05-3.31,2.6-6.92,6.2-6.73,5.38-.19,10.78-.04,16.18-.04-.25,1.93-.48,3.87-.69,5.81,4.37-2.53,8.85-4.91,13.43-7.07-4.47-2.33-8.76-5.03-13.4-7M739.96,361.26c.18,2.19,2.53,1.39,4.03,1.55,3.64.09,7.42-.46,10.97.7,3.25,1.05,5.74,4.25,5.8,7.69.17,8.3-.04,16.6.1,24.9.3,2.58.93,5.36,2.81,7.28.66.87,2.31,1.17,2.19,2.49-3.09,2.41-5.14,6.13-5.08,10.1-.03,15.7.06,31.39,0,47.09.04,3.85-2.53,8.41-6.74,8.62-4.61.16-9.22.31-13.83.56.06.54.18,1.63.23,2.17,6-.57,12.72,1.39,18.1-2.11,3.73-2.41,4.63-7.16,4.7-11.29.05-15.58-.08-31.16.13-46.74-.15-3.83,3.2-6.37,6.44-7.57,3.93-.03,7.87-.01,11.81-.08-.2,2.01-.42,4.02-.65,6.03,4.28-2.23,8.31-4.95,12.79-6.78-4.32-2.63-8.69-5.16-13.08-7.63.32,2.09.66,4.18.88,6.3-3.55-.06-7.1.09-10.64-.09-3.98-.13-7.56-3.68-7.61-7.68-.3-8.63.12-17.28-.12-25.91-.36-4.83-4.13-9.41-9.11-9.77-4.71-.11-9.44-.23-14.13.17M848.19,376.03c-.18,2.06-.3,4.12-.31,6.2-8.74.32-16.38,6.48-19.85,14.28-3.3-5.3-7.56-10.47-13.48-12.88-4.44-1.89-9.35-1.36-14.04-1.43-.01,2.35.01,4.7.1,7.05,4.39.14,9.29-.82,13.16,1.82,5.61,3.64,8.05,10.09,11.71,15.38,2.86,4.14,5.18,8.71,8.65,12.41,3.52,3.73,8.66,5.48,13.69,5.72.04,1.94.05,3.89.09,5.85,4.32-3.22,8.71-6.35,12.99-9.64-4.15-3.46-8.48-6.74-13.02-9.65-.04,2.14-.02,4.3-.06,6.45-2.59-.6-5.38-1.06-7.39-2.93-3.82-3.41-6.06-8.1-8.49-12.5,2.67-2.8,4.1-6.57,7.06-9.12,2.38-2.31,5.57-3.7,8.92-3.64-.02,2.18-.01,4.37-.01,6.56,4.23-3.5,8.89-6.43,13.14-9.91-4.38-3.22-8.59-6.66-12.86-10.02M812.15,416.41c-3.59,1.88-7.76,1.11-11.64,1.28-.01,2.47.02,4.95.1,7.44,3.85.01,7.85.4,11.55-.97,6.01-1.94,10.7-6.77,13.6-12.25.36-2.66-2.19-4.76-3.58-6.81-2.76,4.2-5.19,9.15-10.03,11.31M886.29,412.44c-6.32.48-12.01,6.01-11.97,12.47-.2,19.03-.02,38.07-.04,57.11-.2,6.77,5.88,13.14,12.75,12.78,55.65,0,111.3-.06,166.95.02,3.25-.08,6.73.32,9.7-1.33,4.27-2.02,6.76-6.82,6.78-11.44-.01-19.02.05-38.05-.04-57.08-.04-6.92-6.52-13.01-13.43-12.61-56.9.04-113.81-.09-170.7.08M649.57,427.52c-2.82,1.33-6.13,3.02-6.89,6.35-.33,1.95,1.02,3.64,2.48,4.74-.41.47-1.23,1.41-1.64,1.88l-1-.87c.34,5.1-.14,10.21.16,15.32.9.8,1.78,1.66,2.73,2.44-.55.48-1.65,1.44-2.2,1.92-.15-.08-.43-.26-.57-.35.24,4.93-.47,9.92.19,14.82-.7,1.32-1.63,2.61-1.65,4.17-.28,5.04-.37,10.14.41,15.16l.9-.96c1.37,3.71,5.33,5.43,8.75,6.76,11.5,3.85,23.95,3.99,35.84,2,5.1-.85,10.28-2.22,14.58-5.2,1.53-1.11,3.34-2.56,3.08-4.69-.08-4.48.27-8.99-.25-13.46.31-1.09.27-2.3-.48-3.21,1.41-4.99.63-10.53.46-15.69.12-1.08.15-2.15.07-3.23.38-5.14.09-10.31.24-15.46-.23.17-.68.5-.91.67l-2.15-1.34c1.41-1.06,3.02-2.37,3.08-4.29.31-3.28-2.76-5.34-5.24-6.76-7.53-3.91-16.17-4.83-24.53-4.96-8.64-.23-17.48.77-25.46,4.24M833.51,432.2c.03,5.96-.14,11.92.01,17.88.05,4.42,3.81,8.87,8.42,8.7,5.34.07,10.68-.06,16.03-.04-.16,2.08-.37,4.15-.55,6.24,4.39-2.51,8.93-4.72,13.38-7.12-4.44-2.5-9.01-4.75-13.38-7.36.28,1.96.57,3.93.89,5.9-5.46.34-10.94.26-16.39.13-3.34-.11-6.15-3.19-6.13-6.49-.09-5.96.09-11.91.03-17.87-.58,0-1.73.02-2.31.03M858.16,564.16c-1.28,1.11-1.92,2.74-2.78,4.17-8.29,15.03-16.66,30.02-24.92,45.07-.67,1.35-1.8,3.1-.54,4.52,1.19,2.31,3.95,1.72,6.09,1.82,17-.03,34.01.05,51.01-.03,2.81.63,4.66-3.01,3.29-5.24-9-16.22-17.95-32.47-27.04-48.65-.78-1.99-3.34-3.25-5.11-1.66M615.48,635.71c-4.36,1.15-8.56,4.21-9.92,8.66-1.14,3.75-.69,7.72-.73,11.58-.03,28.33.01,56.66-.01,84.99-.03,4.3.97,8.93,4.14,12.04,2.46,2.12,5.6,3.69,8.92,3.67,145.05-.03,290.1.04,435.15-.03,4.51.16,9.25-1.89,11.73-5.75,3.38-4.97,2.06-11.25,2.06-16.87,0-19.66.85-39.34,0-58.99-.06-9.34.95-18.71-.07-28.02-.3-4.47-3.44-8.37-7.39-10.27-3.83-1.97-8.27-1.14-12.39-1.29-143-.02-286,.04-429,.02-.63.07-1.87.19-2.49.26Z"/>
  </g>
  <g id="_x23_eef4fbff">
    <path class="st59" d="M489.26,255.61c.44-.76.9-1.51,1.36-2.26.41.8.82,1.6,1.25,2.4.37-.3,1.11-.9,1.49-1.21.66.47,1.33.93,2.01,1.4-.08,162.68,0,325.37-.01,488.06-.27,5.63.87,11.56-1.44,16.91-2.31,5.39-8.26,8.42-13.96,8.32-136.65,0-273.3.01-409.96.01-7.95.6-16.18-5.89-15.82-14.2-.02-166.04.04-332.08,0-498.11,1.79-.87,3.63-2.33,5.72-1.63,2.99.6,6.03.44,9.05.39,140.1-.08,280.21.09,420.31-.08M135.98,337.95c-5.27.54-10.56.78-15.79,1.72-10.35,1.83-21.02,3.78-30.21,9.15-3.6,2.23-7.58,5.52-7.53,10.16.03,41.71.02,83.43.05,125.15-.03,3.23,2.13,5.95,4.45,7.98,5.98,5.02,13.7,7.18,21.11,9.16,22.79,5.45,46.65,6.08,69.83,2.97,10.81-1.53,21.75-3.54,31.58-8.5,4.48-2.14,9.22-5.61,10.03-10.85.14-41.98,0-83.97.06-125.95-.06-5.69-5.54-9.05-9.99-11.43-10.13-5.05-21.48-7.05-32.61-8.52-13.58-1.64-27.32-1.9-40.98-1.04M302.11,343.46c.13,2,.27,4.01.4,6.02-8.55.05-17.09-.1-25.63,0-5.37.14-9.5,5.28-9.37,10.48-.09,20.87.07,41.74-.07,62.61-11.96.07-23.92-.14-35.88,0-.06.52-.18,1.55-.24,2.07,3.82.89,7.78.4,11.67.48,8.15-.49,16.33-.24,24.5-.31-.02,22.39.01,44.77.02,67.16-.11,5.62,4.94,10.3,10.47,10.31,8.18.13,16.38.03,24.57.07-.13,2.02-.28,4.02-.41,6.06,4.23-2.59,8.68-4.8,13.01-7.19-3.56-1.88-7.14-3.73-10.54-5.88-.96-.73-2.13-.96-3.3-.94.25.34.74,1.01.98,1.35.06,1.39.13,2.78.2,4.18-8.19-.29-16.37.46-24.55.11-4.27-.07-8.07-3.7-8.13-8.01-.22-22.27.05-44.55-.13-66.82,10.46-.85,21.03-.16,31.53-.42.33.26.98.78,1.31,1.04-1.03,1.49-1.14,3.29-1.13,5.06,3.95-2.52,8.16-4.57,12.28-6.79.03-.19.09-.58.12-.77-4.03-2.49-8.36-4.46-12.32-7.08.1,2.1.25,4.2.38,6.3-10.69-.06-21.4.17-32.09-.09-.01-20.86-.06-41.71.02-62.56-.13-4.04,2.96-8,7.14-8.15,8.53-.28,17.08.03,25.62-.2-.14,2.06-.24,4.12-.2,6.18,4.03-2.7,8.58-4.51,12.59-7.24-4.37-2.17-8.46-4.86-12.82-7.04M80.89,599.01c-5.21,1.94-8.55,7.5-8.45,12.97.03,43.02.02,86.04.04,129.06-.07,4.58,2.12,9.25,6.05,11.73-.03.2-.08.61-.11.81,2.72,1.24,5.67,1.89,8.66,1.86,123.61.04,247.23.01,370.85.02,4.25-.08,8.99.7,12.66-1.98,4.77-2.59,6.53-8.34,6.37-13.45.02-41.68.03-83.37.04-125.05,0-3.33.06-6.79-1.49-9.82-1.72-2.12-3.31-4.55-5.92-5.63-4.17-2.22-8.99-1.86-13.54-1.79-120.37-.04-240.74.02-361.11-.01-4.69.03-9.56-.36-14.05,1.28Z"/>
  </g>
  <g id="_x23_592a83ff">
    <path class="st61" d="M1181.95,255.33c.17-.43.52-1.3.7-1.73,152.36.14,304.72-.03,457.09.07l-.41,1.78c-3.1.47-6.25.19-9.35.22-139.65.04-279.31-.04-418.97.03-9.69-.25-19.41.47-29.06-.37Z"/>
    <path class="st61" d="M1312.42,391.63c46.52-.3,93.07-.1,139.6-.14,6.1-.41,12.37,3.42,14.27,9.33.85,3.99.67,8.14.79,12.21-.69,8.32.49,16.64.01,24.97-.73,9.31.62,18.68-.56,27.95-1.79,5.65-7.6,9.79-13.56,9.47-46.98-.23-93.97,0-140.95-.15-6.15-.15-11.17-5.46-11.89-11.39-.81-6.57-.13-13.22-.38-19.82-.25-4.36.94-8.69.29-13.04-.67-4.02.67-8.05.05-12.08-.83-4.96.23-9.93.16-14.91-.09-6.54,5.92-11.8,12.17-12.4M1310.21,394.27c-6.17,1.93-9.02,8.68-8.02,14.74.05,17.99-.07,35.97.05,53.96.13,6.02,6.06,10.27,11.75,10.25,36.31-.09,72.63.08,108.94-.06,11.37-1.04,22.9,1.34,34.21-.69,4.92-1.26,7.94-6.52,7.57-11.43-.09-18.7-.02-37.4,0-56.1.18-6.16-5.71-11.57-11.79-11.28-44.97.03-89.94-.04-134.91-.01-2.61.04-5.31-.24-7.8.62Z"/>
  </g>
  <g id="_x23_f2f7edff">
    <path class="st46" d="M886.3,287.48c56.92-.11,113.85-.08,170.78-.04,5.89-.46,11.49,4.6,11.34,10.55-.06,17.32.02,34.64.03,51.96.08,4.02-2.38,7.97-6.08,9.58-2.52,1.47-5.52,1.07-8.29,1.13-55.37.01-110.74.03-166.11,0-5.91.48-12.06-4.5-11.76-10.64.11-17.03-.04-34.07.04-51.1-.38-5.68,4.52-10.86,10.05-11.44Z"/>
  </g>
  <g id="_x23_050506ff">
    <path class="st2" d="M857.56,316.92c4.64,1.97,8.93,4.67,13.4,7-4.58,2.16-9.06,4.54-13.43,7.07.21-1.94.44-3.88.69-5.81-5.4,0-10.8-.15-16.18.04-3.6-.19-6.15,3.42-6.2,6.73-.33,13.8.35,27.65-.39,41.42l-1.89.09c-.1-13.79-.12-27.57-.02-41.36-.08-4.28,2.98-8.5,7.33-9.12,5.68-.71,11.45-.15,17.16-.38-.12-1.9-.29-3.79-.47-5.68Z"/>
    <path class="st2" d="M848.19,376.03c4.27,3.36,8.48,6.8,12.86,10.02-4.25,3.48-8.91,6.41-13.14,9.91,0-2.19,0-4.38.01-6.56-3.35-.06-6.54,1.33-8.92,3.64-2.96,2.55-4.39,6.32-7.06,9.12,2.43,4.4,4.67,9.09,8.49,12.5,2.01,1.87,4.8,2.33,7.39,2.93.04-2.15.02-4.31.06-6.45,4.54,2.91,8.87,6.19,13.02,9.65-4.28,3.29-8.67,6.42-12.99,9.64-.04-1.96-.05-3.91-.09-5.85-5.03-.24-10.17-1.99-13.69-5.72-3.47-3.7-5.79-8.27-8.65-12.41-3.66-5.29-6.1-11.74-11.71-15.38-3.87-2.64-8.77-1.68-13.16-1.82-.09-2.35-.11-4.7-.1-7.05,4.69.07,9.6-.46,14.04,1.43,5.92,2.41,10.18,7.58,13.48,12.88,3.47-7.8,11.11-13.96,19.85-14.28.01-2.08.13-4.14.31-6.2Z"/>
  </g>
  <g id="_x23_693d8eff">
    <path class="st51" d="M1344.51,347.27c19.69-13.33,45.99-15.61,67.85-6.41-3.73,2.28-7.37,4.68-11.08,6.97.41.73.84,1.47,1.28,2.21-.4.11-1.21.31-1.61.42-14.99-3.74-31.43-2.62-45.09,4.95-.05-.87-.08-1.74-.09-2.6-3.49-2.35-7.37-4.01-11.26-5.54Z"/>
  </g>
  <g id="_x23_eb8478ff">
    <path class="st42" d="M137.94,339.49c9.34.46,18.76.41,28.1.03-1.05.26-2.1.53-3.15.8,2.69-.02,5.38.02,8.06.25,13.5,1.53,27.39,3.4,39.5,9.99,2.86,1.71,5.89,3.96,6.76,7.36.64,3.91-2.76,6.83-5.81,8.55-9.94,5.42-21.17,7.89-32.3,9.36-12.91,2.1-26.03,1.66-39.06,1.53-15.17-1.11-30.68-2.49-44.84-8.49-4.48-1.99-9.29-4.75-10.67-9.82,1.25-6.06,7.23-9.06,12.43-11.21,14.08-5.15,29.15-7.42,44.1-7.62-1.04-.25-2.08-.5-3.12-.73Z"/>
  </g>
  <g id="_x23_6d4292ff">
    <path class="st51" d="M1412.36,340.86c10.17,4.41,19.16,11.11,26.77,19.13,2.12-2.95,4.15-5.96,6.39-8.83,1.82,11.66,4.7,23.14,6.41,34.82-10.73-4.1-21.5-8.15-31.91-13.01,3.01-1.76,6.32-2.96,9.24-4.88-7.83-8.1-17.62-14.13-28.31-17.63.4-.11,1.21-.31,1.61-.42-.44-.74-.87-1.48-1.28-2.21,3.71-2.29,7.35-4.69,11.08-6.97Z"/>
  </g>
  <g id="_x23_73469aff">
    <path class="st51" d="M1339.93,350.59c1.52-1.1,3.04-2.21,4.58-3.32,3.89,1.53,7.77,3.19,11.26,5.54.01.86.04,1.73.09,2.6-1.41.84-2.81,1.67-4.21,2.49-4.09-1.92-10.75-1.86-11.72-7.31Z"/>
  </g>
  <g id="_x23_6b4090ff">
    <path class="st51" d="M1315.8,385.87c3.96-13.95,12.86-26.27,24.13-35.28.97,5.45,7.63,5.39,11.72,7.31-10.16,6.7-18.08,16.6-22.64,27.86-4.41.05-8.81.11-13.21.11Z"/>
  </g>
  <g id="_x23_010103ff">
    <path class="st67" d="M739.96,361.26c4.69-.4,9.42-.28,14.13-.17,4.98.36,8.75,4.94,9.11,9.77.24,8.63-.18,17.28.12,25.91.05,4,3.63,7.55,7.61,7.68,3.54.18,7.09.03,10.64.09-.22-2.12-.56-4.21-.88-6.3,4.39,2.47,8.76,5,13.08,7.63-4.48,1.83-8.51,4.55-12.79,6.78.23-2.01.45-4.02.65-6.03-3.94.07-7.88.05-11.81.08-3.24,1.2-6.59,3.74-6.44,7.57-.21,15.58-.08,31.16-.13,46.74-.07,4.13-.97,8.88-4.7,11.29-5.38,3.5-12.1,1.54-18.1,2.11-.05-.54-.17-1.63-.23-2.17,4.61-.25,9.22-.4,13.83-.56,4.21-.21,6.78-4.77,6.74-8.62.05-15.7-.04-31.39,0-47.09-.06-3.97,1.99-7.69,5.08-10.1.12-1.32-1.53-1.62-2.19-2.49-1.88-1.92-2.51-4.7-2.81-7.28-.14-8.3.07-16.6-.1-24.9-.06-3.44-2.55-6.64-5.8-7.69-3.55-1.16-7.33-.61-10.97-.7-1.5-.16-3.85.64-4.03-1.55Z"/>
  </g>
  <g id="_x23_010001ff">
    <path class="st68" d="M971.36,362.71c.52,0,1.58.01,2.11.01,0,11.39,0,22.78.02,34.17,1.8-.17,3.62-.33,5.44-.48-1.91,4.65-4.24,9.12-6.79,13.45-1.81-4.57-4.38-8.78-6.16-13.35,1.77.1,3.55.2,5.35.3-.14-11.36-.11-22.73.03-34.1Z"/>
  </g>
  <g id="_x23_ec8476ff">
    <path class="st41" d="M84.66,365c4.31,3.52,9.27,6.18,14.59,7.8,12.47,4.07,25.54,6.03,38.62,6.65,16.77.79,33.72.4,50.24-2.76,10.19-2.26,21.03-4.6,29.07-11.71-.15,5.97.32,11.96-.13,17.91-1.95,4.09-6.15,6.29-10.06,8.11-10.74,4.75-22.44,6.66-33.99,8.24-11.62.89-23.33,1.79-34.96.6-14.18-.7-28.44-3.07-41.69-8.28-4.39-2.07-9.74-4.24-11.54-9.14-.24-5.8.06-11.62-.15-17.42Z"/>
  </g>
  <g id="_x23_fdb956ff">
    <path class="st36" d="M84.68,386.05c6.01,5.58,13.81,8.71,21.63,10.78,14.19,3.99,28.99,4.86,43.65,5.21,13.75-.08,27.63-.84,41.08-4.05,9.34-2.14,19.24-4.95,26.19-11.93-.07,6.63.23,13.29-.19,19.92-1.82,3.16-4.92,5.32-8.09,7-13.08,6.31-27.67,8.36-41.95,10.01-20.69,1.57-41.71.16-61.74-5.44-5.52-1.56-10.95-3.7-15.69-6.96-2.11-1.65-4.57-3.59-4.6-6.53-.45-5.99-.11-12.01-.29-18.01Z"/>
  </g>
  <g id="_x23_020101ff">
    <path class="st56" d="M544.38,402.84c10.84,9.17,20.9,19.27,31.27,28.98-10,9.29-19.81,18.79-29.72,28.17-.41.27-1.23.81-1.64,1.07-.08-4.9-.07-9.8.01-14.7-10.88-.36-21.77-.06-32.65-.18.09-9.46,0-18.92.01-28.37,10.88-.13,21.77.01,32.65-.19-.09-4.93-.08-9.85.07-14.78M546.49,407.75c-.08,4.05.09,8.1-.23,12.14-2.09-.13-4.18-.25-6.25-.07-8.38.94-16.82.22-25.19-.04-.24.28-.71.82-.94,1.1.75,7.64-.46,15.28.41,22.93,10.73-.34,21.45.36,32.17.3.03,4.03-.04,8.07.05,12.1,8.43-7.46,16.39-15.45,24.53-23.23,1.31-.73.62-1.98-.32-2.65-8.18-7.41-15.79-15.49-24.23-22.58Z"/>
    <path class="st56" d="M649.57,427.52c7.98-3.47,16.82-4.47,25.46-4.24,8.36.13,17,1.05,24.53,4.96,2.48,1.42,5.55,3.48,5.24,6.76-.06,1.92-1.67,3.23-3.08,4.29-5.75,3.3-12.33,4.71-18.86,5.38-8.64,1.16-17.45.67-25.96-1.15-4.15-.97-8.29-2.35-11.74-4.91-1.46-1.1-2.81-2.79-2.48-4.74.76-3.33,4.07-5.02,6.89-6.35Z"/>
    <path class="st56" d="M703.87,440.63c.23-.17.68-.5.91-.67-.15,5.15.14,10.32-.24,15.46-4.95,4.75-11.92,6.32-18.41,7.7-13.63,1.86-28.72,1.88-40.72-5.74-.95-.78-1.83-1.64-2.73-2.44-.3-5.11.18-10.22-.16-15.32l1,.87c8.5,6.67,20.05,7.29,30.44,7.68,10.21-.5,21.56-.87,29.91-7.54M695.26,451.38c.11.96.23,1.92.37,2.89.56.06,1.67.19,2.22.25.26-1.11.47-2.24.68-3.35-1.1.05-2.19.12-3.27.21Z"/>
    <path class="st56" d="M642.54,477.17c8.16,7.49,19.94,8.64,30.51,8.97,6.42-.51,12.96-.34,19.19-2.21,4.39-1.36,9.18-2.7,12.25-6.38.52,4.47.17,8.98.25,13.46.26,2.13-1.55,3.58-3.08,4.69-4.3,2.98-9.48,4.35-14.58,5.2-11.89,1.99-24.34,1.85-35.84-2-3.42-1.33-7.38-3.05-8.75-6.76.09-4.99.02-9.98.05-14.97M695.38,489.35c-.09,1.06-.04,2.12.15,3.19,2.07.45,3.2-1.13,2.95-3.07-1.04-.27-2.07-.31-3.1-.12Z"/>
  </g>
  <g id="_x23_040106ff">
    <path class="st25" d="M1130.73,403.21c2.12.04,3.27,2.04,4.81,3.21,8.93,8.45,17.82,16.95,26.61,25.57-9.52,9.26-19.3,18.24-28.78,27.54-.64.85-1.61,1.19-2.62,1.24-.01-4.86-.01-9.73.06-14.59-10.37.04-20.74,0-31.1-.02-.06-9.46-.02-18.92-.02-28.38,10.33-.14,20.67.02,31.01-.06-.05-4.84,0-9.68.03-14.51M1133.35,407.52c-.09,3.96-.17,7.93,0,11.9-.36.15-1.09.45-1.46.6-9.88-.48-19.77.6-29.67.22-.09,7.83.03,15.67.03,23.5,6.25-.09,12.51.03,18.77.01,3.78-.09,7.59.75,11.35-.12,1.8,3.93.37,8.61,1.02,12.83,8.55-8.16,17.08-16.34,25.6-24.53-8.42-8.27-16.89-16.49-25.64-24.41Z"/>
  </g>
  <g id="_x23_050606ff">
    <path class="st20" d="M812.15,416.41c4.84-2.16,7.27-7.11,10.03-11.31,1.39,2.05,3.94,4.15,3.58,6.81-2.9,5.48-7.59,10.31-13.6,12.25-3.7,1.37-7.7.98-11.55.97-.08-2.49-.11-4.97-.1-7.44,3.88-.17,8.05.6,11.64-1.28Z"/>
  </g>
  <g id="_x23_3273b6ff">
    <path class="st32" d="M546.49,407.75c8.44,7.09,16.05,15.17,24.23,22.58.94.67,1.63,1.92.32,2.65-8.14,7.78-16.1,15.77-24.53,23.23-.09-4.03-.02-8.07-.05-12.1-10.72.06-21.44-.64-32.17-.3-.87-7.65.34-15.29-.41-22.93.23-.28.7-.82.94-1.1,8.37.26,16.81.98,25.19.04,2.07-.18,4.16-.06,6.25.07.32-4.04.15-8.09.23-12.14Z"/>
  </g>
  <g id="_x23_7e51a1ff">
    <path class="st39" d="M1133.35,407.52c8.75,7.92,17.22,16.14,25.64,24.41-8.52,8.19-17.05,16.37-25.6,24.53-.65-4.22.78-8.9-1.02-12.83-3.76.87-7.57.03-11.35.12-6.26.02-12.52-.1-18.77-.01,0-7.83-.12-15.67-.03-23.5,9.9.38,19.79-.7,29.67-.22.37-.15,1.1-.45,1.46-.6-.17-3.97-.09-7.94,0-11.9Z"/>
  </g>
  <g id="_x23_93c068ff">
    <path class="st50" d="M84.69,408.91c8.63,7.73,20.2,10.56,31.23,12.99,15.5,3.11,31.4,2.92,47.14,2.63,13.7-.76,27.48-2.63,40.45-7.3,4.93-2.01,9.83-4.43,13.68-8.17.05,5.99,0,11.99.03,17.99.32,2.47-1.88,4.12-3.4,5.71-5.06,4.28-11.48,6.55-17.78,8.33-7.02,1.83-14.14,3.42-21.36,4.17-11.73,1.39-23.54,1.27-35.32,1.07-9.61-.81-19.3-1.56-28.66-4.04-7.66-1.98-15.44-4.36-21.96-8.97-1.99-1.48-4.12-3.56-4.03-6.23.05-6.06.18-12.12-.02-18.18Z"/>
  </g>
  <g id="_x23_f3f7edff">
    <path class="st58" d="M885.41,414.61c33.85-.56,67.73-.05,101.59-.24,23.33-.03,46.66.05,69.99.05,5.9-.47,11.25,4.75,11.43,10.54.04,18.66-.04,37.32.04,55.98.18,4.74-2.66,9.76-7.29,11.33-2.34.72-4.82.47-7.21.53-53.98.02-107.96.02-161.94.01-3.26-.13-6.75.4-9.72-1.26-3.49-1.79-6.22-5.5-6.08-9.53.03-18.7.02-37.39.03-56.08-.5-5.43,4.03-10.27,9.16-11.33Z"/>
  </g>
  <g id="_x23_060605ff">
    <path class="st75" d="M1470.81,431.75c4.07-2.87,8.92-4.53,13.05-7.4-.04,1.91-.08,3.83-.08,5.76,3.29.07,6.59.08,9.89.1-.01.63-.03,1.87-.05,2.49-3.3-.03-6.6-.05-9.88-.12.01,1.97.06,3.95.12,5.94-4.31-2.34-8.6-4.73-13.05-6.77Z"/>
  </g>
  <g id="_x23_090809ff">
    <path class="st71" d="M1282.59,430.2c-.23-2.04-.38-4.08-.29-6.12,4.14,2.55,8.43,4.83,12.7,7.14-4.16,2.67-8.44,5.19-12.89,7.34.17-2.03.36-4.05.56-6.07-8.88.15-17.76,0-26.63.08-.06-.6-.17-1.79-.22-2.39,8.92.04,17.84.02,26.77.02Z"/>
  </g>
  <g id="_x23_060505ff">
    <path class="st24" d="M833.51,432.2c.58-.01,1.73-.02,2.31-.03.06,5.96-.12,11.91-.03,17.87-.02,3.3,2.79,6.38,6.13,6.49,5.45.13,10.93.21,16.39-.13-.32-1.97-.61-3.94-.89-5.9,4.37,2.61,8.94,4.86,13.38,7.36-4.45,2.4-8.99,4.61-13.38,7.12.18-2.09.39-4.16.55-6.24-5.35-.02-10.69.11-16.03.04-4.61.17-8.37-4.28-8.42-8.7-.15-5.96.02-11.92-.01-17.88Z"/>
  </g>
  <g id="_x23_34a8ddff">
    <path class="st76" d="M84.65,431.95c10.16,9.05,23.99,11.71,36.98,13.94,18.32,3.11,37.19,3.05,55.59.66,5.39-.92,10.85-1.51,16.11-3.06,8.51-2.35,17.44-5.06,23.85-11.48-.3,7.37.63,14.89-.4,22.15-6.76,6.46-15.98,9.39-24.81,11.8-15.6,4.27-31.89,4.69-47.96,4.42-16.8-.78-33.98-2.78-49.37-9.99-3.66-1.63-6.9-4.02-9.91-6.63-.07-7.27.16-14.54-.08-21.81Z"/>
  </g>
  <g id="_x23_fdfdfaff">
    <path class="st65" d="M643.52,440.49c.41-.47,1.23-1.41,1.64-1.88,3.45,2.56,7.59,3.94,11.74,4.91,8.51,1.82,17.32,2.31,25.96,1.15,6.53-.67,13.11-2.08,18.86-5.38l2.15,1.34c-8.35,6.67-19.7,7.04-29.91,7.54-10.39-.39-21.94-1.01-30.44-7.68Z"/>
  </g>
  <g id="_x23_122927ff">
    <path class="st43" d="M139.36,446.33c11.78.2,23.59.32,35.32-1.07.63.32,1.9.97,2.54,1.29-18.4,2.39-37.27,2.45-55.59-.66,5.87-.64,11.79,1.14,17.73.44Z"/>
  </g>
  <g id="_x23_5367b4ff">
    <path class="st53" d="M84.73,453.76c3.01,2.61,6.25,5,9.91,6.63,15.39,7.21,32.57,9.21,49.37,9.99,16.07.27,32.36-.15,47.96-4.42,8.83-2.41,18.05-5.34,24.81-11.8.33,2.29.78,4.62.41,6.95-2.47,4.45-6.09,8.66-11.07,10.26-1.73.24-3.47.39-5.19.71.75.22,2.26.65,3.02.86-12.64,6.24-27.02,7.46-40.87,8.59-16.74.54-33.7.42-50.1-3.34-4.76-1.08-9.33-2.84-14.01-4.2-3.46-1.05-7.1-2.27-9.61-5.01.79-2.2-1.7-3.14-2.75-4.62-2.7-2.84-1.79-7.06-1.88-10.6Z"/>
  </g>
  <g id="_x23_fdfefbff">
    <path class="st40" d="M686.13,463.12c6.49-1.38,13.46-2.95,18.41-7.7.08,1.08.05,2.15-.07,3.23-2.48,2.57-5.85,3.86-9.11,5.11-9.57,2.21-19.45,3.48-29.27,2.47-4.64-.33-9.13-1.61-13.7-2.39-3.24-1.14-6.32-2.65-9.18-4.54.55-.48,1.65-1.44,2.2-1.92,12,7.62,27.09,7.6,40.72,5.74Z"/>
    <path class="st40" d="M695.06,471.05c.66-.56,1.33-1.11,2.01-1.66.28.4.85,1.19,1.14,1.59.02.4.07,1.21.1,1.61-1.42.02-3.19.42-3.25-1.54Z"/>
  </g>
  <g id="_x23_020201ff">
    <path class="st26" d="M642.64,458.95c.14.09.42.27.57.35,2.86,1.89,5.94,3.4,9.18,4.54,9.61,4.07,20.46,4,30.68,2.94,4.19-.48,8.49-1.02,12.29-3.02,3.26-1.25,6.63-2.54,9.11-5.11.17,5.16.95,10.7-.46,15.69-2.87,3.26-6.93,5.19-11.07,6.27-13.16,3.46-27.34,3.61-40.39-.45-3.79-1.12-7.3-3.22-9.72-6.39-.66-4.9.05-9.89-.19-14.82M695.06,471.05c.06,1.96,1.83,1.56,3.25,1.54-.03-.4-.08-1.21-.1-1.61-.29-.4-.86-1.19-1.14-1.59-.68.55-1.35,1.1-2.01,1.66Z"/>
  </g>
  <g id="_x23_848682ff">
    <path class="st64" d="M652.39,463.84c4.57.78,9.06,2.06,13.7,2.39,9.82,1.01,19.7-.26,29.27-2.47-3.8,2-8.1,2.54-12.29,3.02-10.22,1.06-21.07,1.13-30.68-2.94Z"/>
  </g>
  <g id="_x23_a376baff">
    <path class="st29" d="M84.63,465.17c.37.09,1.1.29,1.47.39,1.09,1.13,2.17,2.26,3.26,3.42,2.51,2.74,6.15,3.96,9.61,5.01,4.68,1.36,9.25,3.12,14.01,4.2,16.4,3.76,33.36,3.88,50.1,3.34,13.85-1.13,28.23-2.35,40.87-8.59,4.93-2.17,9.94-4.61,13.3-9-.11,7.06.16,14.12-.13,21.17-1.18,4.4-5.56,6.83-9.26,8.94-9.65,4.58-20.29,6.62-30.82,7.99-12.96,1.77-26.09,2.14-39.15,1.41-14.19-1.1-28.62-2.89-41.8-8.6-4.48-2.13-9.44-4.75-11.29-9.69-.34-6.65.16-13.33-.17-19.99Z"/>
  </g>
  <g id="_x23_ffffffff">
    <path class="st22" d="M641.18,477.94c.02-1.56.95-2.85,1.65-4.17,2.42,3.17,5.93,5.27,9.72,6.39,13.05,4.06,27.23,3.91,40.39.45,4.14-1.08,8.2-3.01,11.07-6.27.75.91.79,2.12.48,3.21-3.07,3.68-7.86,5.02-12.25,6.38-6.23,1.87-12.77,1.7-19.19,2.21-10.57-.33-22.35-1.48-30.51-8.97-.03,4.99.04,9.98-.05,14.97l-.9.96c-.78-5.02-.69-10.12-.41-15.16Z"/>
    <path class="st22" d="M16.96,797.94c.21-4.51,4.75-7.55,9.04-7.06,63.66.13,127.31-.07,190.98.02,17.37.52,34.74-.49,52.11.18,72.94-.3,145.91-.14,218.88-.22,3.91-.34,7.01,2.5,8.31,5.97.1,13.11-.02,26.22.06,39.34-1.34,2.89-3.86,5.73-7.33,5.53-154.7.03-309.4,0-464.09.01-4.27.46-7.97-3.55-8-7.66-.02-12.04-.12-24.08.04-36.11Z"/>
    <path class="st22" d="M591.25,797.93c-.12-4.07,3.79-7.39,7.75-7.09,157.66.06,315.33-.05,473,.06,3.84-.19,7.04,2.47,8.25,6-.01,13.08.03,26.15.02,39.23-1.3,2.87-3.82,5.75-7.26,5.56-158.02.07-316.03,0-474.05.02-4.18.37-8.07-3.46-7.73-7.64-.12-12.05-.04-24.1.02-36.14Z"/>
    <path class="st22" d="M1181.13,791.15c7.25-.74,14.61-.09,21.9-.29,144.65-.01,289.3,0,433.94-.01,4.17-.43,8.52,2.73,8.62,7.07.11,12.03-.02,24.06.02,36.09.23,4.14-3.41,7.96-7.6,7.67-151.67.06-303.33.02-455,.04-4.2.41-8.05-3.52-7.64-7.7-.07-11.67.01-23.34-.04-35.01-.49-3.64,2.42-6.96,5.8-7.86Z"/>
    <path class="st22" d="M1098.32,820.64c5.24-.7,10.47.5,15.73.28,6.97-.19,13.96.07,20.94-.06,2.55.01,5.31-1.32,7.77-.16-3.85.93-7.81.56-11.71.63-7.45-.02-14.91.12-22.35-.08-3.44-.62-6.92-.51-10.38-.61Z"/>
    <path class="st22" d="M23.09,865.14c12.27-.69,24.63-.11,36.93-.29,526.01-.02,1052.02,0,1578.02,0,4.2,0,7.89,3.98,7.64,8.16-.01,13.66-.03,27.33,0,40.99.17,4.1-3.51,7.98-7.69,7.59-537.68.06-1075.37,0-1613.05.03-4.14.31-7.71-3.48-7.61-7.52-.03-13.71-.03-27.42-.05-41.13-.35-3.6,2.4-6.96,5.81-7.83Z"/>
  </g>
  <g id="_x23_6c4092ff">
    <path class="st66" d="M1441.17,477.23c4.32.21,8.65.29,12.98.2-3.94,15.34-13.07,29.31-25.7,38.9-22.48,17.89-56.13,20.15-80.62,4.96-6.66-3.63-11.99-9.11-17.51-14.21-2.16,3.15-3.82,6.73-6.64,9.36-2.98-12.06-5.74-24.18-9.13-36.14,11.2,4.09,22.3,8.45,33.65,12.16-2.67,2.35-6.09,3.57-9.03,5.51,11.36,12.51,27.8,20.49,44.82,20.44,17.52.22,34.94-7.67,46.19-21.13,4.88-5.91,8.62-12.76,10.99-20.05Z"/>
  </g>
  <g id="_x23_d2291aff">
    <path class="st37" d="M858.16,564.16c1.77-1.59,4.33-.33,5.11,1.66,9.09,16.18,18.04,32.43,27.04,48.65,1.37,2.23-.48,5.87-3.29,5.24-17,.08-34.01,0-51.01.03-2.14-.1-4.9.49-6.09-1.82-1.26-1.42-.13-3.17.54-4.52,8.26-15.05,16.63-30.04,24.92-45.07.86-1.43,1.5-3.06,2.78-4.17M836.79,613.74c15.54.13,31.09.02,46.64.05-7.67-14.1-15.73-27.98-23.37-42.1-7.68,14.06-15.47,28.06-23.27,42.05Z"/>
  </g>
  <g id="_x23_f5f8f1ff">
    <path class="st55" d="M836.79,613.74c7.8-13.99,15.59-27.99,23.27-42.05,7.64,14.12,15.7,28,23.37,42.1-15.55-.03-31.1.08-46.64-.05M857.34,583.2c-.43,6.45.72,12.9,1.06,19.34,1.16-.31,3.64.87,3.66-1.01.22-5.55.99-11.07,1.16-16.61.58-3.16-4.47-3.63-5.88-1.72M858.85,611.44c2.53.59,5.28-1.79,4.31-4.43-.8-1.75-2.66-1.81-4.31-1.81-2.03,1.74-2.02,4.47,0,6.24Z"/>
  </g>
  <g id="_x23_040504ff">
    <path class="st60" d="M857.34,583.2c1.41-1.91,6.46-1.44,5.88,1.72-.17,5.54-.94,11.06-1.16,16.61-.02,1.88-2.5.7-3.66,1.01-.34-6.44-1.49-12.89-1.06-19.34Z"/>
  </g>
  <g id="_x23_d6e2f3ff">
    <path class="st21" d="M80.39,601.37c4.78-2.54,10.4-1.47,15.58-1.66,118.67.09,237.33-.01,356,.04,4.92.1,9.93-.43,14.78.68,3.29.76,5.33,3.66,7.18,6.25.52-.52,1.04-1.03,1.58-1.52,1.55,3.03,1.49,6.49,1.49,9.82-.01,41.68-.02,83.37-.04,125.05.16,5.11-1.6,10.86-6.37,13.45-3.67,2.68-8.41,1.9-12.66,1.98-123.62-.01-247.24.02-370.85-.02-2.99.03-5.94-.62-8.66-1.86.03-.2.08-.61.11-.81.05-.46.16-1.37.22-1.82-1.71-2.82-4.3-5.45-4.18-8.97-.12-42.99.07-85.99-.05-128.99-.26-4.54,1.71-9.42,5.87-11.62Z"/>
  </g>
  <g id="_x23_010101ff">
    <path class="st3" d="M858.85,611.44c-2.02-1.77-2.03-4.5,0-6.24,1.65,0,3.51.06,4.31,1.81.97,2.64-1.78,5.02-4.31,4.43Z"/>
    <path class="st3" d="M1143.68,800.26c2.26-.28,3.68,1.72,5.37,2.88,5.59,4.21,11.03,8.64,16.7,12.75-7.08,5.52-14.02,11.28-21.43,16.33-.11-2.63-.1-5.25-.03-7.86-15.99-.29-31.98-.08-47.97-.09-.35-5.34-.06-10.69-.13-16.02,16.04.07,32.09-.07,48.13.03-.27-2.68-.55-5.35-.64-8.02M1146.39,810.44c-16.03.22-32.07.13-48.11.02.09,3.39.16,6.78.04,10.18,3.46.1,6.94-.01,10.38.61,7.44.2,14.9.06,22.35.08,3.9-.07,7.86.3,11.71-.63l.39.22c.81.19,2.45.58,3.27.78-.03,2.06-.04,4.13.02,6.21,5.3-3.85,10.62-7.7,15.59-11.97-5.24-3.85-10.44-7.74-15.54-11.76-.11,2.08-.14,4.16-.1,6.26Z"/>
  </g>
  <g id="_x23_ac8cc6ff">
    <path class="st52" d="M1201.33,626.44c5.49-1.19,11.1-.21,16.66-.26,24.99-.87,50,.13,75-.33,108.01.12,216.02-.06,324.05.01,5.66-.11,11.28,3.3,13.43,8.6,1.39,2.96,1.1,6.28,1.17,9.46-.05,31.02-.06,62.04.03,93.06-.09,3.34.28,6.78-.56,10.07-1.61,6.05-7.88,10.29-14.1,9.67-137.35.07-274.7,0-412.05.03-7.65.7-14.55-6.17-14.27-13.78-.12-32.34-.04-64.68-.03-97.02.03-3.53-.28-7.16.88-10.55,1.41-4.41,5.26-7.95,9.79-8.96M1201.3,628.51c-4.8,1.1-7.77,5.91-8.51,10.51-.37,4-.03,8.02-.12,12.03.16,27.99-.05,55.98.09,83.97.03,4.5-.68,9.31,1.52,13.46,1.83,4.06,6.29,6.5,10.7,6.2,137.68.04,275.37,0,413.05,0,6.34.5,11.61-5.58,11.44-11.67-.01-34.34.02-68.67.02-103.01-.12-4.94-3.46-9.77-8.15-11.4-2.43-.5-4.93-.3-7.37-.33-115,0-230-.04-345-.04-22.55.21-45.14-.38-67.67.28Z"/>
  </g>
  <g id="_x23_e5d7edff">
    <path class="st38" d="M1201.3,628.51c22.53-.66,45.12-.07,67.67-.28,115,0,230,.04,345,.04,2.44.03,4.94-.17,7.37.33,4.69,1.63,8.03,6.46,8.15,11.4,0,34.34-.03,68.67-.02,103.01.17,6.09-5.1,12.17-11.44,11.67-137.68,0-275.37.04-413.05,0-4.41.3-8.87-2.14-10.7-6.2-2.2-4.15-1.49-8.96-1.52-13.46-.14-27.99.07-55.98-.09-83.97.09-4.01-.25-8.03.12-12.03.74-4.6,3.71-9.41,8.51-10.51Z"/>
  </g>
  <g id="_x23_dfecd2ff">
    <path class="st34" d="M613.41,638.64c2.29-1.32,5-1.08,7.55-1.12,144.02.05,288.04-.09,432.06.11,5.92-.49,11.67,4.32,11.7,10.36.13,30.66-.01,61.32.04,91.99-.13,2.85.27,5.93-1.12,8.57-1.91,3.91-6.35,6.26-10.64,6.07-145.02.02-290.04.02-435.06-.01-6.48.11-11.72-6.3-10.72-12.64.04-31,0-62,.01-93-.31-4.3,2.37-8.46,6.18-10.33Z"/>
  </g>
  <g id="_x23_616161ff">
    <path class="st44" d="M561.76,804.11c5.43,3.84,10.64,8.01,16.06,11.89-5.29,4.01-10.4,8.31-16.04,11.82-.07-2.09-.1-4.17-.12-6.24-.41-.11-1.25-.35-1.66-.47-3.79-2.42-1.5-7.18-.97-10.66h2.53c.05-2.12.11-4.24.2-6.34Z"/>
  </g>
  <g id="_x23_787877ff">
    <path class="st63" d="M1146.39,810.44c-.04-2.1-.01-4.18.1-6.26,5.1,4.02,10.3,7.91,15.54,11.76-4.97,4.27-10.29,8.12-15.59,11.97-.06-2.08-.05-4.15-.02-6.21-.82-.2-2.46-.59-3.27-.78l-.39-.22c-2.46-1.16-5.22.17-7.77.16-6.98.13-13.97-.13-20.94.06-5.26.22-10.49-.98-15.73-.28.12-3.4.05-6.79-.04-10.18,16.04.11,32.08.2,48.11-.02Z"/>
  </g>
  <g id="_x23_808080ff">
    <path class="st57" d="M514.49,810.52c4.94.05,9.89.05,14.84.1.02.49.05,1.46.06,1.94-.52.26-1.56.78-2.08,1.05,3.66,1.52,7.83,2.15,10.87,4.88-1.74.37-3.46.75-5.2,1.11,9,.51,18.13-.3,27.02,1.51.41.12,1.25.36,1.66.47-15.71.12-31.42.22-47.13.01,0-3.69-.02-7.38-.04-11.07Z"/>
  </g>
  <g id="editable_text_layer">
    <text class="st15" transform="translate(282.82 47)"><tspan x="0" y="0">Comprehensive LLM Post-Training Pipeline Based on USI Logic</tspan></text>
    <text class="st12" transform="translate(128.23 117)"><tspan x="0" y="0">Learning Patterns (SFT)</tspan></text>
    <text class="st12" transform="translate(638.06 117)"><tspan x="0" y="0">Distinguishing Good / Bad (DPO)</tspan></text>
    <text class="st12" transform="translate(1223.61 117)"><tspan x="0" y="0">Seeking True Solutions (RLVR)</tspan></text>
    <text class="st19" transform="translate(154.59 196)"><tspan x="0" y="0">Stage 1: SFT-Mix</tspan></text>
    <text class="st8" transform="translate(129.8 230)"><tspan x="0" y="0">(Behavior Template Layer)</tspan></text>
    <text class="st13" transform="translate(162.01 298)"><tspan x="0" y="0">Approx. 939K Samples</tspan></text>
    <text class="st9" transform="translate(323.66 357)"><tspan x="0" y="0">General Chat</tspan></text>
    <text class="st9" transform="translate(318.29 425)"><tspan x="0" y="0">Reasoning &amp; Code</tspan></text>
    <text class="st9" transform="translate(352.59 492)"><tspan x="0" y="0">Safety &amp;</tspan></text>
    <text class="st9" transform="translate(344.95 521)"><tspan x="0" y="0">Alignment</tspan></text>
    <text class="st10" transform="translate(99.27 533)"><tspan x="0" y="0">Diversified</tspan></text>
    <text class="st10" transform="translate(90.01 563)"><tspan x="0" y="0">Data Sources</tspan></text>
    <text class="st13" transform="translate(165.02 634)"><tspan x="0" y="0">Endow the model with</tspan></text>
    <text class="st13" transform="translate(135.02 663)"><tspan x="0" y="0">instruction-following ability;</tspan></text>
    <text class="st13" transform="translate(126.71 694)"><tspan x="0" y="0">Establish the basic behavior of</tspan></text>
    <text class="st13" transform="translate(156.92 723)"><tspan x="0" y="0">a &quot;conversational agent&quot;</tspan></text>
    <text class="st7" transform="translate(513.89 321)"><tspan x="0" y="0">Model</tspan></text>
    <text class="st7" transform="translate(511.37 350)"><tspan x="0" y="0">Weight</tspan></text>
    <text class="st7" transform="translate(506.48 378)"><tspan x="0" y="0">Transfer</tspan></text>
    <text class="st19" transform="translate(714.02 196)"><tspan x="0" y="0">Stage 2: DPO Mix</tspan></text>
    <text class="st8" transform="translate(672.57 230)"><tspan x="0" y="0">(Preference Refinement Layer)</tspan></text>
    <text class="st9" transform="translate(610.54 318)"><tspan x="0" y="0">Actual outputs</tspan></text>
    <text class="st9" transform="translate(596.8 347)"><tspan x="0" y="0">generated by SFT</tspan></text>
    <text class="st17" transform="translate(604.93 535)"><tspan x="0" y="0">External Preference</tspan></text>
    <text class="st17" transform="translate(652.43 565)"><tspan x="0" y="0">Datasets</tspan></text>
    <g class="st11">
      <text class="st6" transform="translate(942.68 318)"><tspan x="0" y="0">y</tspan></text>
      <text class="st14" transform="translate(952.89 322.6)"><tspan x="0" y="0">chosen</tspan></text>
    </g>
    <text class="st17" transform="translate(896.83 349)"><tspan x="0" y="0">(selected answer)</tspan></text>
    <g class="st11">
      <text class="st6" transform="translate(939.58 446)"><tspan x="0" y="0">y</tspan></text>
      <text class="st14" transform="translate(949.79 450.6)"><tspan x="0" y="0">rejected</tspan></text>
    </g>
    <text class="st17" transform="translate(897.42 477)"><tspan x="0" y="0">(rejected answer)</tspan></text>
    <text class="st9" transform="translate(791.32 542)"><tspan x="0" y="0">Emphasize factual priority</tspan></text>
    <text class="st18" transform="translate(920.56 587)"><tspan x="0" y="0">AVOID</tspan></text>
    <text class="st18" transform="translate(905.28 616)"><tspan x="0" y="0">length bias</tspan></text>
    <text class="st13" transform="translate(681.06 674)"><tspan x="0" y="0">Refine model output preferences</tspan></text>
    <text class="st13" transform="translate(699.37 704)"><tspan x="0" y="0">through contrastive learning;</tspan></text>
    <text class="st13" transform="translate(731.7 734)"><tspan x="0" y="0">Correct hallucinations</tspan></text>
    <text class="st7" transform="translate(1101.89 321)"><tspan x="0" y="0">Model</tspan></text>
    <text class="st7" transform="translate(1099.37 350)"><tspan x="0" y="0">Weight</tspan></text>
    <text class="st7" transform="translate(1094.48 378)"><tspan x="0" y="0">Transfer</tspan></text>
    <text class="st19" transform="translate(1309.48 196)"><tspan x="0" y="0">Stage 3: RLVR</tspan></text>
    <text class="st8" transform="translate(1288.15 230)"><tspan x="0" y="0">(Verifiable Task Layer)</tspan></text>
    <text class="st16" transform="translate(1255.77 297)"><tspan x="0" y="0">Closed-Loop Feedback System</tspan></text>
    <text class="st17" transform="translate(1212.84 357)"><tspan x="0" y="0">Input</tspan></text>
    <text class="st17" transform="translate(1201.18 386)"><tspan x="0" y="0">content:</tspan></text>
    <text class="st17" transform="translate(1212.84 415)"><tspan x="0" y="0">Math</tspan></text>
    <text class="st17" transform="translate(1219.84 444)"><tspan x="0" y="0">and</tspan></text>
    <text class="st17" transform="translate(1212.84 473)"><tspan x="0" y="0">Code</tspan></text>
    <text class="st17" transform="translate(1214 502)"><tspan x="0" y="0">tasks</tspan></text>
    <text class="st10" transform="translate(1331.35 426)"><tspan x="0" y="0">Rule-Based</tspan></text>
    <text class="st10" transform="translate(1349.88 456)"><tspan x="0" y="0">Verifier</tspan></text>
    <text class="st17" transform="translate(1517.8 374)"><tspan x="0" y="0">Compiler /</tspan></text>
    <text class="st17" transform="translate(1518.7 404)"><tspan x="0" y="0">Interpreter</tspan></text>
    <text class="st7" transform="translate(1499.42 437)"><tspan x="0" y="0">(code execution</tspan></text>
    <text class="st7" transform="translate(1533.56 466)"><tspan x="0" y="0">results)</tspan></text>
    <text class="st9" transform="translate(1399.67 556)"><tspan x="0" y="0">Numerical Matching</tspan></text>
    <text class="st10" transform="translate(1248.16 663)"><tspan x="0" y="0">Use verifiable ground-truth signals;</tspan></text>
    <text class="st10" transform="translate(1282.66 696)"><tspan x="0" y="0">Overcome the limitations of</tspan></text>
    <text class="st10" transform="translate(1294.47 727)"><tspan x="0" y="0">human annotation quality</tspan></text>
    <text class="st8" transform="translate(63.74 824)"><tspan x="0" y="0">Data Flow Learning Patterns (SFT)</tspan></text>
    <text class="st8" transform="translate(671.32 824)"><tspan x="0" y="0">DPO Values/Quality Screening</tspan></text>
    <text class="st8" transform="translate(1241.79 824)"><tspan x="0" y="0">Seeking True Solutions (RLVR)</tspan></text>
    <text class="st10" transform="translate(210.19 902)"><tspan x="0" y="0">Data source: Adapted from the public official Tülu-3 dataset card released by AI2 (Allen Institute for AI); the full pipeline is transparent</tspan></text>
  </g>
</svg>