<?xml version="1.0" encoding="UTF-8" ?>
<!DOCTYPE svg PUBLIC "-//W3C//DTD SVG 1.1//EN" "http://www.w3.org/Graphics/SVG/1.1/DTD/svg11.dtd">
<svg width="1672pt" height="941pt" viewBox="0 0 1672 941" version="1.1" xmlns="http://www.w3.org/2000/svg">
<g id="#fefefeff">
<path fill="#fefefe" opacity="1.00" d=" M 0.00 0.00 L 1672.00 0.00 L 1672.00 941.00 L 0.00 941.00 L 0.00 0.00 M 541.63 28.68 C 541.53 114.42 541.67 200.16 541.58 285.89 C 585.37 285.62 629.16 285.92 672.96 285.78 C 998.60 285.85 1324.23 285.72 1649.87 285.85 C 1649.81 200.12 1649.86 114.39 1649.85 28.65 C 1581.23 28.82 1512.61 28.66 1443.99 28.71 C 1143.20 28.69 842.42 28.78 541.63 28.68 M 42.65 58.38 C 42.91 211.91 42.66 365.44 42.75 518.97 C 42.74 631.91 42.78 744.84 42.71 857.78 C 60.94 857.92 79.17 857.71 97.40 857.88 C 97.39 591.36 97.34 324.84 97.42 58.33 C 79.16 58.34 60.91 58.34 42.65 58.38 M 129.38 58.30 C 129.46 324.83 129.41 591.35 129.41 857.88 C 174.15 857.91 218.93 857.84 263.68 857.89 C 263.74 591.38 263.62 324.86 263.70 58.35 C 218.93 58.32 174.16 58.34 129.38 58.30 M 377.11 58.67 C 377.09 86.21 377.39 113.76 376.95 141.30 C 376.48 158.12 376.73 174.97 376.75 191.80 C 355.37 191.82 333.99 191.65 312.61 191.83 C 312.08 188.26 312.17 184.64 312.22 181.04 C 312.26 140.52 312.17 100.01 312.25 59.49 C 299.95 59.45 287.66 59.49 275.36 59.54 C 275.39 60.99 275.41 62.43 275.44 63.87 C 286.09 64.41 296.75 64.01 307.41 63.81 C 307.58 147.44 307.43 231.08 307.47 314.71 C 296.81 314.68 286.15 314.88 275.49 314.73 C 275.46 316.29 275.45 317.85 275.43 319.42 C 287.69 319.12 299.96 319.43 312.22 319.33 C 312.23 279.88 312.23 240.42 312.23 200.97 C 312.26 199.44 312.44 197.92 312.60 196.40 C 334.10 196.59 355.61 196.47 377.11 196.39 C 377.14 217.92 376.97 239.45 377.13 260.97 C 376.68 279.32 377.57 297.68 376.90 316.03 C 376.89 340.35 376.79 364.67 377.13 388.99 C 377.43 395.55 376.53 402.18 377.29 408.70 L 377.28 408.70 C 355.52 408.28 333.75 408.70 311.98 408.47 L 311.79 408.32 C 312.03 406.57 312.27 404.81 312.26 403.04 C 312.20 378.16 312.26 353.28 312.22 328.40 C 299.98 328.20 287.73 328.11 275.49 328.29 C 275.46 329.73 275.44 331.17 275.43 332.62 C 286.09 332.67 296.76 332.60 307.42 332.61 C 307.65 385.00 307.46 437.39 307.46 489.78 C 296.78 489.72 286.11 489.82 275.44 489.78 C 275.45 491.30 275.47 492.83 275.50 494.36 C 287.74 494.18 299.98 494.37 312.22 494.31 C 312.28 467.27 312.20 440.23 312.24 413.19 C 319.49 413.44 326.73 412.53 333.98 413.16 C 348.39 413.20 362.80 413.23 377.22 413.14 C 377.07 468.63 377.35 524.12 377.13 579.60 C 355.50 580.02 333.85 579.66 312.22 579.77 C 312.32 554.12 312.18 528.47 312.27 502.83 C 299.98 502.69 287.69 502.83 275.41 502.67 C 275.41 504.25 275.41 505.83 275.41 507.42 C 286.19 507.64 296.99 506.92 307.74 507.52 C 307.29 526.34 307.63 545.17 307.53 563.99 C 307.52 595.03 307.51 626.06 307.51 657.10 C 296.85 657.47 286.17 657.19 275.50 657.20 C 275.45 658.69 275.39 660.18 275.35 661.68 C 287.66 661.82 299.99 661.77 312.31 661.60 C 312.22 635.84 312.19 610.07 312.28 584.30 C 333.77 584.22 355.27 584.38 376.76 584.19 C 376.71 656.69 376.72 729.19 376.77 801.69 C 423.65 801.51 470.53 801.77 517.41 801.55 C 517.38 804.40 517.37 807.26 517.41 810.13 C 524.88 806.46 532.43 802.97 539.90 799.31 C 532.40 795.82 525.02 792.08 517.55 788.54 C 517.43 791.37 517.39 794.22 517.39 797.07 C 488.03 797.25 458.67 797.11 429.31 797.12 C 429.59 770.94 429.33 744.74 429.42 718.55 C 458.72 718.51 488.01 718.52 517.31 718.53 C 517.28 721.41 517.29 724.30 517.35 727.19 C 524.81 723.35 532.48 719.94 540.02 716.27 C 532.57 712.63 524.99 709.18 517.56 705.47 C 517.32 708.28 517.67 711.18 517.04 713.93 C 487.81 714.08 458.54 713.59 429.32 714.10 C 429.56 613.71 429.36 513.32 429.40 412.93 L 429.98 412.81 C 439.61 413.72 449.32 412.94 458.99 413.19 C 478.45 412.97 497.94 413.69 517.37 412.77 C 517.36 415.72 517.34 418.68 517.43 421.63 C 524.57 417.98 531.79 414.48 539.10 411.17 C 538.90 410.74 538.49 409.89 538.29 409.47 L 537.43 409.69 C 530.82 406.32 524.16 403.03 517.42 399.96 C 517.37 402.79 517.40 405.62 517.50 408.45 C 517.28 408.51 516.84 408.62 516.61 408.67 C 488.16 408.49 459.69 408.40 431.23 408.70 C 430.59 408.56 429.94 408.49 429.29 408.48 C 429.68 400.66 429.38 392.82 429.48 384.99 C 429.47 329.11 429.42 273.22 429.42 217.34 C 458.71 217.75 488.00 217.26 517.29 217.62 C 517.31 220.41 517.35 223.21 517.41 226.00 C 524.93 222.26 532.49 218.59 540.09 215.00 C 532.42 211.77 524.98 208.03 517.52 204.36 C 517.48 207.20 517.44 210.04 517.39 212.89 C 488.05 212.61 458.71 212.85 429.37 212.73 C 429.46 190.43 429.38 168.12 429.44 145.81 C 458.78 145.90 488.12 145.90 517.46 145.81 C 517.42 148.65 517.39 151.49 517.38 154.33 C 524.83 151.01 532.07 147.24 539.43 143.72 C 532.50 139.38 524.64 136.81 517.43 132.98 C 517.37 135.82 517.38 138.66 517.42 141.50 C 488.06 141.36 458.70 141.37 429.34 141.47 C 429.46 113.85 429.39 86.24 429.45 58.62 C 412.01 58.60 394.56 58.56 377.11 58.67 M 541.58 310.31 C 541.65 406.79 541.56 503.27 541.62 599.75 C 911.05 599.68 1280.47 599.75 1649.90 599.74 C 1649.82 503.26 1649.82 406.77 1649.91 310.29 C 1280.47 310.37 911.02 310.32 541.58 310.31 M 541.57 623.34 C 541.64 723.44 541.60 823.54 541.59 923.64 C 911.02 923.52 1280.46 923.63 1649.90 923.61 C 1649.82 823.51 1649.85 723.41 1649.88 623.31 C 1280.44 623.28 911.01 623.23 541.57 623.34 Z" />
<path fill="#fefefe" opacity="1.00" d=" M 543.11 31.44 C 546.73 31.05 550.37 31.31 554.00 30.99 C 569.33 31.53 584.69 30.96 600.00 30.99 C 605.33 31.04 610.66 30.83 616.00 31.03 C 620.33 31.26 624.69 31.38 629.01 30.94 C 633.38 31.57 637.75 30.46 642.13 30.87 C 650.41 31.61 658.71 30.53 666.99 31.17 C 676.40 31.53 685.79 30.36 695.18 31.20 C 701.46 30.42 707.73 31.44 714.03 31.19 C 725.69 31.08 737.36 31.42 749.00 30.98 C 753.32 31.30 757.67 31.33 762.00 30.92 C 765.98 31.34 770.00 31.29 773.99 30.97 C 781.65 30.79 789.33 31.51 797.00 30.96 C 817.65 31.49 838.33 31.03 859.00 31.20 C 868.34 31.46 877.68 30.70 887.01 31.20 C 893.00 31.07 899.00 31.39 904.99 30.98 C 909.65 31.08 914.30 30.79 918.97 31.18 C 925.97 30.28 932.98 31.70 940.00 31.01 C 949.65 31.31 959.34 31.32 969.00 31.01 C 976.65 31.33 984.34 31.31 991.99 30.84 C 1000.31 31.33 1008.67 31.34 1017.00 30.98 C 1022.34 31.60 1027.68 30.73 1033.03 30.93 C 1042.33 31.36 1051.69 31.30 1061.00 30.94 C 1067.32 31.32 1073.65 30.54 1079.99 31.07 C 1081.32 31.06 1082.65 31.05 1084.00 31.04 C 1091.00 31.25 1098.03 31.31 1105.03 30.91 C 1109.01 31.18 1112.99 31.31 1116.99 31.06 C 1118.98 31.16 1120.98 31.17 1123.00 31.09 C 1124.32 31.06 1125.66 31.06 1127.01 31.09 C 1145.67 31.32 1164.33 31.17 1182.98 31.12 C 1189.98 31.17 1196.99 31.38 1203.99 30.89 C 1209.65 31.29 1215.33 31.29 1221.00 31.07 C 1229.98 30.47 1238.96 31.71 1247.95 30.97 C 1257.29 31.28 1266.66 31.28 1276.00 30.97 C 1283.67 31.39 1291.34 30.99 1299.00 30.97 C 1316.65 31.35 1334.35 31.32 1352.00 30.97 C 1364.32 31.42 1376.67 31.21 1389.00 31.04 C 1401.33 31.30 1413.67 31.28 1426.00 31.04 C 1445.66 31.25 1465.35 31.39 1485.00 30.98 C 1488.32 31.30 1491.67 31.24 1495.01 31.05 C 1500.00 31.25 1505.00 31.31 1510.00 31.02 C 1539.33 31.44 1568.68 31.07 1598.02 31.20 C 1605.01 31.05 1612.02 31.45 1619.00 30.96 C 1625.99 31.23 1633.02 31.41 1640.01 30.95 C 1642.60 31.17 1645.20 31.21 1647.82 31.39 C 1646.57 31.92 1645.37 32.64 1644.01 32.72 C 1285.36 32.71 926.68 32.71 568.02 32.73 C 559.97 32.42 551.91 33.22 543.87 32.56 L 543.11 31.44 Z" />
<path fill="#fefefe" opacity="1.00" d=" M 543.88 596.56 C 562.23 595.55 580.62 596.46 598.99 596.19 C 939.66 596.12 1280.32 596.21 1620.98 596.15 C 1629.84 596.34 1638.75 595.63 1647.58 596.63 L 1648.40 597.36 C 1623.28 597.89 1598.13 597.47 1573.00 597.60 C 1268.33 597.56 963.66 597.60 658.99 597.59 C 620.35 597.49 581.70 597.85 543.07 597.39 L 543.88 596.56 Z" />
</g>
<g id="#000000ff">
<path fill="#000000" opacity="1.00" d=" M 541.63 28.68 C 842.42 28.78 1143.20 28.69 1443.99 28.71 C 1512.61 28.66 1581.23 28.82 1649.85 28.65 C 1649.86 114.39 1649.81 200.12 1649.87 285.85 C 1324.23 285.72 998.60 285.85 672.96 285.78 C 629.16 285.92 585.37 285.62 541.58 285.89 C 541.67 200.16 541.53 114.42 541.63 28.68 M 543.11 31.44 L 543.87 32.56 C 543.49 60.38 543.83 88.22 543.71 116.04 C 543.71 171.90 543.69 227.77 543.72 283.63 C 689.47 283.87 835.23 283.64 980.99 283.72 C 1203.25 283.71 1425.52 283.75 1647.78 283.70 C 1647.84 199.59 1647.56 115.46 1647.91 31.35 L 1647.82 31.39 C 1645.20 31.21 1642.60 31.17 1640.01 30.95 C 1633.02 31.41 1625.99 31.23 1619.00 30.96 C 1612.02 31.45 1605.01 31.05 1598.02 31.20 C 1568.68 31.07 1539.33 31.44 1510.00 31.02 C 1505.00 31.31 1500.00 31.25 1495.01 31.05 C 1491.67 31.24 1488.32 31.30 1485.00 30.98 C 1465.35 31.39 1445.66 31.25 1426.00 31.04 C 1413.67 31.28 1401.33 31.30 1389.00 31.04 C 1376.67 31.21 1364.32 31.42 1352.00 30.97 C 1334.35 31.32 1316.65 31.35 1299.00 30.97 C 1291.34 30.99 1283.67 31.39 1276.00 30.97 C 1266.66 31.28 1257.29 31.28 1247.95 30.97 C 1238.96 31.71 1229.98 30.47 1221.00 31.07 C 1215.33 31.29 1209.65 31.29 1203.99 30.89 C 1196.99 31.38 1189.98 31.17 1182.98 31.12 C 1164.33 31.17 1145.67 31.32 1127.01 31.09 C 1125.66 31.06 1124.32 31.06 1123.00 31.09 C 1120.98 31.17 1118.98 31.16 1116.99 31.06 C 1112.99 31.31 1109.01 31.18 1105.03 30.91 C 1098.03 31.31 1091.00 31.25 1084.00 31.04 C 1082.65 31.05 1081.32 31.06 1079.99 31.07 C 1073.65 30.54 1067.32 31.32 1061.00 30.94 C 1051.69 31.30 1042.33 31.36 1033.03 30.93 C 1027.68 30.73 1022.34 31.60 1017.00 30.98 C 1008.67 31.34 1000.31 31.33 991.99 30.84 C 984.34 31.31 976.65 31.33 969.00 31.01 C 959.34 31.32 949.65 31.31 940.00 31.01 C 932.98 31.70 925.97 30.28 918.97 31.18 C 914.30 30.79 909.65 31.08 904.99 30.98 C 899.00 31.39 893.00 31.07 887.01 31.20 C 877.68 30.70 868.34 31.46 859.00 31.20 C 838.33 31.03 817.65 31.49 797.00 30.96 C 789.33 31.51 781.65 30.79 773.99 30.97 C 770.00 31.29 765.98 31.34 762.00 30.92 C 757.67 31.33 753.32 31.30 749.00 30.98 C 737.36 31.42 725.69 31.08 714.03 31.19 C 707.73 31.44 701.46 30.42 695.18 31.20 C 685.79 30.36 676.40 31.53 666.99 31.17 C 658.71 30.53 650.41 31.61 642.13 30.87 C 637.75 30.46 633.38 31.57 629.01 30.94 C 624.69 31.38 620.33 31.26 616.00 31.03 C 610.66 30.83 605.33 31.04 600.00 30.99 C 584.69 30.96 569.33 31.53 554.00 30.99 C 550.37 31.31 546.73 31.05 543.11 31.44 Z" />
<path fill="#000000" opacity="1.00" d=" M 42.65 58.38 C 60.91 58.34 79.16 58.34 97.42 58.33 C 97.34 324.84 97.39 591.36 97.40 857.88 C 79.17 857.71 60.94 857.92 42.71 857.78 C 42.78 744.84 42.74 631.91 42.75 518.97 C 42.66 365.44 42.91 211.91 42.65 58.38 M 45.17 60.51 L 45.13 61.46 C 44.57 94.29 44.99 127.14 44.89 159.99 C 45.45 169.67 44.76 179.35 44.88 189.04 C 44.90 228.04 44.83 267.04 44.90 306.04 C 45.55 312.47 44.29 318.92 45.24 325.32 C 61.95 325.21 78.66 325.27 95.36 325.29 C 95.40 237.42 95.43 149.54 95.35 61.67 L 95.46 60.48 C 78.70 60.52 61.93 60.44 45.17 60.51 M 45.01 327.22 C 44.69 360.79 44.97 394.37 44.85 427.95 C 45.03 451.80 44.52 475.66 45.13 499.50 C 61.89 499.59 78.64 499.38 95.39 499.56 C 95.42 442.11 95.39 384.65 95.40 327.20 C 78.60 327.31 61.80 327.20 45.01 327.22 M 44.86 501.68 C 44.85 531.12 44.87 560.56 44.87 590.00 C 45.05 613.95 44.53 637.91 45.16 661.85 C 61.89 661.97 78.63 661.78 95.36 661.90 C 95.45 608.46 95.32 555.02 95.43 501.58 C 78.57 501.69 61.72 501.47 44.86 501.68 M 44.92 664.15 C 45.00 716.76 44.62 769.39 45.12 822.01 C 45.07 833.25 44.65 844.50 45.14 855.74 C 61.87 855.72 78.61 855.74 95.34 855.73 C 95.47 791.85 95.34 727.97 95.42 664.10 C 78.58 664.21 61.75 664.06 44.92 664.15 Z" />
<path fill="#000000" opacity="1.00" d=" M 129.38 58.30 C 174.16 58.34 218.93 58.32 263.70 58.35 C 263.62 324.86 263.74 591.38 263.68 857.89 C 218.93 857.84 174.15 857.91 129.41 857.88 C 129.41 591.35 129.46 324.83 129.38 58.30 M 131.47 60.45 C 131.55 148.72 131.34 237.00 131.55 325.27 C 174.90 325.26 218.24 325.22 261.59 325.33 C 261.63 237.03 261.51 148.73 261.64 60.43 C 218.25 60.35 174.86 60.43 131.47 60.45 M 131.54 327.16 C 131.43 384.62 131.47 442.07 131.53 499.53 C 174.87 499.43 218.21 499.61 261.54 499.42 C 261.70 442.03 261.50 384.63 261.66 327.23 C 218.28 327.17 174.91 327.38 131.54 327.16 M 131.58 501.56 C 131.39 532.70 131.63 563.84 131.46 594.99 C 131.72 617.30 131.16 639.64 131.78 661.95 C 175.03 661.77 218.28 661.90 261.54 661.88 C 261.61 608.45 261.55 555.01 261.57 501.58 C 218.63 501.61 175.69 501.51 132.75 501.61 L 131.58 501.56 M 131.69 663.97 L 131.73 664.16 C 131.29 677.12 131.66 690.09 131.58 703.05 C 131.54 735.36 131.58 767.67 131.54 799.98 C 131.76 818.64 131.16 837.32 131.84 855.96 C 175.08 855.53 218.34 855.84 261.58 855.78 C 261.59 791.89 261.50 728.00 261.63 664.10 C 218.32 664.06 175.00 664.26 131.69 663.97 Z" />
<path fill="#000000" opacity="1.00" d=" M 377.11 58.67 C 394.56 58.56 412.01 58.60 429.45 58.62 C 429.39 86.24 429.46 113.85 429.34 141.47 L 427.60 141.48 C 427.57 114.47 427.48 87.46 427.57 60.46 C 411.42 60.51 395.26 60.48 379.11 60.47 C 378.80 87.44 378.94 114.42 378.88 141.41 C 378.39 141.38 377.43 141.33 376.95 141.30 C 377.39 113.76 377.09 86.21 377.11 58.67 Z" />
<path fill="#000000" opacity="1.00" d=" M 541.58 310.31 C 911.02 310.32 1280.47 310.37 1649.91 310.29 C 1649.82 406.77 1649.82 503.26 1649.90 599.74 C 1280.47 599.75 911.05 599.68 541.62 599.75 C 541.56 503.27 541.65 406.79 541.58 310.31 M 543.69 312.44 C 543.70 356.62 543.72 400.79 543.71 444.96 C 543.84 495.49 543.46 546.03 543.88 596.56 L 543.07 597.39 C 581.70 597.85 620.35 597.49 658.99 597.59 C 963.66 597.60 1268.33 597.56 1573.00 597.60 C 1598.13 597.47 1623.28 597.89 1648.40 597.36 L 1647.58 596.63 C 1647.98 557.76 1647.64 518.87 1647.76 480.00 C 1647.70 424.14 1647.81 368.29 1647.74 312.43 C 1279.72 312.49 911.71 312.48 543.69 312.44 Z" />
<path fill="#000000" opacity="1.00" d=" M 377.22 413.14 L 378.31 413.14 L 378.83 413.16 C 379.51 418.69 378.90 424.26 378.98 429.81 C 379.47 438.87 378.78 447.94 379.12 457.00 C 379.37 468.23 378.48 479.47 379.19 490.70 C 395.31 490.79 411.42 490.76 427.53 490.76 C 427.64 470.60 427.59 450.44 427.57 430.29 C 427.53 424.53 427.52 418.77 427.62 413.01 L 429.40 412.93 C 429.36 513.32 429.56 613.71 429.32 714.10 L 427.51 714.35 C 427.68 657.41 427.51 600.47 427.59 543.53 C 411.45 543.57 395.27 543.93 379.15 543.27 C 379.16 555.40 378.79 567.51 378.89 579.64 C 378.45 579.63 377.57 579.61 377.13 579.60 C 377.35 524.12 377.07 468.63 377.22 413.14 M 378.91 514.02 C 378.54 523.56 379.48 533.12 378.79 542.65 C 383.79 543.74 388.92 543.31 393.99 543.35 C 405.19 543.27 416.40 543.52 427.60 543.29 C 427.57 526.52 427.63 509.76 427.58 493.00 L 427.65 491.40 C 411.38 491.43 395.10 491.10 378.85 491.58 C 378.74 499.06 379.42 506.54 378.91 514.02 Z" />
<path fill="#000000" opacity="1.00" d=" M 202.35 510.34 C 211.96 510.40 221.57 510.30 231.18 510.34 C 231.39 544.46 231.22 578.58 231.28 612.69 C 207.81 612.56 184.33 612.69 160.85 612.67 C 160.85 617.21 160.86 621.76 160.66 626.30 C 151.98 617.00 143.07 607.92 134.09 598.92 C 134.12 598.82 134.16 598.64 134.19 598.55 C 142.79 589.07 151.89 580.07 160.75 570.84 C 160.83 575.72 160.79 580.60 160.80 585.48 C 174.64 585.66 188.48 585.44 202.32 585.48 C 202.39 560.44 202.25 535.39 202.35 510.34 M 204.41 512.35 C 204.39 537.43 204.29 562.51 204.49 587.60 C 189.28 587.64 174.08 587.45 158.87 587.55 C 158.83 583.62 158.89 579.69 158.80 575.77 C 151.35 583.19 144.40 591.10 136.81 598.39 C 144.04 606.03 151.51 613.43 158.71 621.10 C 158.75 617.61 158.85 614.13 159.15 610.66 C 182.51 610.46 205.86 610.81 229.22 610.54 C 229.15 577.85 229.15 545.16 229.20 512.47 C 220.93 512.22 212.67 512.42 204.41 512.35 Z" />
<path fill="#000000" opacity="1.00" d=" M 541.57 623.34 C 911.01 623.23 1280.44 623.28 1649.88 623.31 C 1649.85 723.41 1649.82 823.51 1649.90 923.61 C 1280.46 923.63 911.02 923.52 541.59 923.64 C 541.60 823.54 541.64 723.44 541.57 623.34 M 543.66 625.34 C 543.75 724.05 543.70 822.77 543.67 921.48 C 911.69 921.51 1279.72 921.47 1647.75 921.47 C 1647.79 822.76 1647.65 724.05 1647.81 625.34 C 1279.76 625.37 911.71 625.37 543.66 625.34 Z" />
</g>
<g id="#e5edf7ff">
<path fill="#e5edf7" opacity="1.00" d=" M 1647.82 31.39 L 1647.91 31.35 C 1647.56 115.46 1647.84 199.59 1647.78 283.70 C 1425.52 283.75 1203.25 283.71 980.99 283.72 C 835.23 283.64 689.47 283.87 543.72 283.63 C 543.69 227.77 543.71 171.90 543.71 116.04 C 543.83 88.22 543.49 60.38 543.87 32.56 C 551.91 33.22 559.97 32.42 568.02 32.73 C 926.68 32.71 1285.36 32.71 1644.01 32.72 C 1645.37 32.64 1646.57 31.92 1647.82 31.39 Z" />
<path fill="#e5edf7" opacity="1.00" d=" M 45.17 60.51 C 61.93 60.44 78.70 60.52 95.46 60.48 L 95.35 61.67 C 78.61 61.49 61.86 62.24 45.13 61.46 L 45.17 60.51 Z" />
</g>
<g id="#5089caff">
<path fill="#5089ca" opacity="1.00" d=" M 275.36 59.54 C 287.66 59.49 299.95 59.45 312.25 59.49 C 312.17 100.01 312.26 140.52 312.22 181.04 C 312.17 184.64 312.08 188.26 312.61 191.83 C 312.80 193.35 312.78 194.88 312.60 196.40 C 312.44 197.92 312.26 199.44 312.23 200.97 C 312.23 240.42 312.23 279.88 312.22 319.33 C 299.96 319.43 287.69 319.12 275.43 319.42 C 275.45 317.85 275.46 316.29 275.49 314.73 C 286.15 314.88 296.81 314.68 307.47 314.71 C 307.43 231.08 307.58 147.44 307.41 63.81 C 296.75 64.01 286.09 64.41 275.44 63.87 C 275.41 62.43 275.39 60.99 275.36 59.54 Z" />
</g>
<g id="#f0f0f0ff">
<path fill="#f0f0f0" opacity="1.00" d=" M 379.11 60.47 C 395.26 60.48 411.42 60.51 427.57 60.46 C 427.48 87.46 427.57 114.47 427.60 141.48 C 411.36 141.37 395.12 141.51 378.88 141.41 C 378.94 114.42 378.80 87.44 379.11 60.47 Z" />
<path fill="#f0f0f0" opacity="1.00" d=" M 131.73 664.16 C 133.28 669.98 132.56 676.03 132.63 681.98 C 132.61 738.33 132.62 794.69 132.64 851.04 C 132.56 852.70 132.20 854.33 131.84 855.96 C 131.16 837.32 131.76 818.64 131.54 799.98 C 131.58 767.67 131.54 735.36 131.58 703.05 C 131.66 690.09 131.29 677.12 131.73 664.16 Z" />
</g>
<g id="#c6d6ecff">
<path fill="#c6d6ec" opacity="1.00" d=" M 45.13 61.46 C 61.86 62.24 78.61 61.49 95.35 61.67 C 95.43 149.54 95.40 237.42 95.36 325.29 C 78.66 325.27 61.95 325.21 45.24 325.32 C 44.29 318.92 45.55 312.47 44.90 306.04 C 44.83 267.04 44.90 228.04 44.88 189.04 C 44.76 179.35 45.45 169.67 44.89 159.99 C 44.99 127.14 44.57 94.29 45.13 61.46 Z" />
</g>
<g id="#c7d6edff">
<path fill="#c7d6ed" opacity="1.00" d=" M 131.47 60.45 C 174.86 60.43 218.25 60.35 261.64 60.43 C 261.51 148.73 261.63 237.03 261.59 325.33 C 218.24 325.22 174.90 325.26 131.55 325.27 C 131.34 237.00 131.55 148.72 131.47 60.45 Z" />
</g>
<g id="#588fccff">
<path fill="#588fcc" opacity="1.00" d=" M 517.43 132.98 C 524.64 136.81 532.50 139.38 539.43 143.72 C 532.07 147.24 524.83 151.01 517.38 154.33 C 517.39 151.49 517.42 148.65 517.46 145.81 C 488.12 145.90 458.78 145.90 429.44 145.81 L 427.59 145.82 C 412.14 145.79 396.69 145.99 381.25 145.83 C 381.25 162.66 381.43 179.49 381.32 196.32 C 380.77 196.33 379.66 196.35 379.10 196.36 C 378.61 196.37 377.61 196.39 377.11 196.39 C 355.61 196.47 334.10 196.59 312.60 196.40 C 312.78 194.88 312.80 193.35 312.61 191.83 C 333.99 191.65 355.37 191.82 376.75 191.80 C 376.73 174.97 376.48 158.12 376.95 141.30 C 377.43 141.33 378.39 141.38 378.88 141.41 C 395.12 141.51 411.36 141.37 427.60 141.48 L 429.34 141.47 C 458.70 141.37 488.06 141.36 517.42 141.50 C 517.38 138.66 517.37 135.82 517.43 132.98 Z" />
</g>
<g id="#dfe8f4ff">
<path fill="#dfe8f4" opacity="1.00" d=" M 381.25 145.83 C 396.69 145.99 412.14 145.79 427.59 145.82 C 427.56 168.13 427.62 190.44 427.57 212.75 C 422.51 212.74 417.45 212.67 412.39 212.90 C 412.41 241.59 412.44 270.27 412.36 298.96 C 412.34 307.53 412.52 316.11 412.12 324.68 C 402.35 324.60 392.60 325.46 382.83 325.33 C 381.61 325.34 380.40 325.34 379.19 325.34 C 379.02 282.35 379.16 239.35 379.10 196.36 C 379.66 196.35 380.77 196.33 381.32 196.32 C 381.43 179.49 381.25 162.66 381.25 145.83 Z" />
</g>
<g id="#050404ff">
<path fill="#050404" opacity="1.00" d=" M 427.59 145.82 L 429.44 145.81 C 429.38 168.12 429.46 190.43 429.37 212.73 C 428.92 212.74 428.02 212.74 427.57 212.75 C 427.62 190.44 427.56 168.13 427.59 145.82 Z" />
</g>
<g id="#0f1223ff">
<path fill="#0f1223" opacity="1.00" d=" M 377.11 196.39 C 377.61 196.39 378.61 196.37 379.10 196.36 C 379.16 239.35 379.02 282.35 379.19 325.34 C 380.40 325.34 381.61 325.34 382.83 325.33 L 381.59 326.42 C 386.97 327.62 392.51 327.53 398.00 327.40 C 404.12 327.24 410.26 327.63 416.37 326.98 C 416.60 326.62 417.07 325.90 417.31 325.54 C 420.72 325.24 424.16 325.34 427.59 325.33 C 427.50 289.34 427.54 253.35 427.55 217.36 L 429.42 217.34 C 429.42 273.22 429.47 329.11 429.48 384.99 C 429.38 392.82 429.68 400.66 429.29 408.48 L 427.63 408.50 C 427.51 381.41 427.47 354.32 427.64 327.23 C 419.09 327.01 410.56 328.05 402.00 327.75 C 394.37 327.94 386.76 327.56 379.14 327.42 C 379.11 354.47 379.08 381.51 379.12 408.56 C 378.67 408.59 377.75 408.66 377.29 408.70 C 376.53 402.18 377.43 395.55 377.13 388.99 C 376.79 364.67 376.89 340.35 376.90 316.03 C 377.57 297.68 376.68 279.32 377.13 260.97 C 376.97 239.45 377.14 217.92 377.11 196.39 Z" />
</g>
<g id="#91b5e1ff">
<path fill="#91b5e1" opacity="1.00" d=" M 517.39 212.89 C 517.44 210.04 517.48 207.20 517.52 204.36 C 524.98 208.03 532.42 211.77 540.09 215.00 C 532.49 218.59 524.93 222.26 517.41 226.00 C 517.35 223.21 517.31 220.41 517.29 217.62 C 488.00 217.26 458.71 217.75 429.42 217.34 L 427.55 217.36 C 424.10 217.40 420.66 217.54 417.22 217.67 C 416.72 238.45 417.22 259.24 417.07 280.03 C 417.33 295.20 416.46 310.38 417.31 325.54 C 417.07 325.90 416.60 326.62 416.37 326.98 C 410.26 327.63 404.12 327.24 398.00 327.40 C 392.51 327.53 386.97 327.62 381.59 326.42 L 382.83 325.33 C 392.60 325.46 402.35 324.60 412.12 324.68 C 412.52 316.11 412.34 307.53 412.36 298.96 C 412.44 270.27 412.41 241.59 412.39 212.90 C 417.45 212.67 422.51 212.74 427.57 212.75 C 428.02 212.74 428.92 212.74 429.37 212.73 C 458.71 212.85 488.05 212.61 517.39 212.89 Z" />
</g>
<g id="#dee8f4ff">
<path fill="#dee8f4" opacity="1.00" d=" M 417.22 217.67 C 420.66 217.54 424.10 217.40 427.55 217.36 C 427.54 253.35 427.50 289.34 427.59 325.33 C 424.16 325.34 420.72 325.24 417.31 325.54 C 416.46 310.38 417.33 295.20 417.07 280.03 C 417.22 259.24 416.72 238.45 417.22 217.67 Z" />
</g>
<g id="#e9f1ddff">
<path fill="#e9f1dd" opacity="1.00" d=" M 543.69 312.44 C 911.71 312.48 1279.72 312.49 1647.74 312.43 C 1647.81 368.29 1647.70 424.14 1647.76 480.00 C 1647.64 518.87 1647.98 557.76 1647.58 596.63 C 1638.75 595.63 1629.84 596.34 1620.98 596.15 C 1280.32 596.21 939.66 596.12 598.99 596.19 C 580.62 596.46 562.23 595.55 543.88 596.56 C 543.46 546.03 543.84 495.49 543.71 444.96 C 543.72 400.79 543.70 356.62 543.69 312.44 Z" />
</g>
<g id="#bcd396ff">
<path fill="#bcd396" opacity="1.00" d=" M 45.01 327.22 C 61.80 327.20 78.60 327.31 95.40 327.20 C 95.39 384.65 95.42 442.11 95.39 499.56 C 78.64 499.38 61.89 499.59 45.13 499.50 C 44.52 475.66 45.03 451.80 44.85 427.95 C 44.97 394.37 44.69 360.79 45.01 327.22 Z" />
</g>
<g id="#bdd498ff">
<path fill="#bdd498" opacity="1.00" d=" M 131.54 327.16 C 174.91 327.38 218.28 327.17 261.66 327.23 C 261.50 384.63 261.70 442.03 261.54 499.42 C 218.21 499.61 174.87 499.43 131.53 499.53 C 131.47 442.07 131.43 384.62 131.54 327.16 Z" />
</g>
<g id="#c0d69dff">
<path fill="#c0d69d" opacity="1.00" d=" M 402.00 327.75 C 410.56 328.05 419.09 327.01 427.64 327.23 C 427.47 354.32 427.51 381.41 427.63 408.50 C 423.96 408.57 420.28 408.55 416.61 408.66 C 406.57 408.36 396.52 408.46 386.48 408.62 C 384.03 408.51 381.57 408.44 379.12 408.56 C 379.08 381.51 379.11 354.47 379.14 327.42 C 386.76 327.56 394.37 327.94 402.00 327.75 Z" />
</g>
<g id="#658e26ff">
<path fill="#658e26" opacity="1.00" d=" M 275.49 328.29 C 287.73 328.11 299.98 328.20 312.22 328.40 C 312.26 353.28 312.20 378.16 312.26 403.04 C 312.27 404.81 312.03 406.57 311.79 408.32 C 311.37 407.96 310.52 407.23 310.10 406.86 C 309.52 393.26 309.82 379.64 309.84 366.04 C 309.97 353.92 309.62 341.81 309.74 329.70 C 298.39 330.28 287.03 330.12 275.68 330.45 C 286.61 331.22 297.65 330.17 308.53 331.48 C 310.29 337.47 308.96 343.84 309.24 349.99 C 309.37 397.36 309.10 444.74 309.44 492.11 C 310.24 480.08 309.35 468.03 309.79 455.98 C 309.49 441.21 309.89 426.44 309.75 411.67 C 316.39 409.93 323.25 411.24 330.01 411.06 C 338.34 410.95 346.67 410.90 355.00 411.00 C 362.80 411.14 370.97 409.74 378.31 413.14 L 377.22 413.14 C 362.80 413.23 348.39 413.20 333.98 413.16 C 326.73 412.53 319.49 413.44 312.24 413.19 C 312.20 440.23 312.28 467.27 312.22 494.31 C 299.98 494.37 287.74 494.18 275.50 494.36 C 275.47 492.83 275.45 491.30 275.44 489.78 C 286.11 489.82 296.78 489.72 307.46 489.78 C 307.46 437.39 307.65 385.00 307.42 332.61 C 296.76 332.60 286.09 332.67 275.43 332.62 C 275.44 331.17 275.46 329.73 275.49 328.29 Z" />
</g>
<g id="#6f9730ff">
<path fill="#6f9730" opacity="1.00" d=" M 275.68 330.45 C 287.03 330.12 298.39 330.28 309.74 329.70 C 309.62 341.81 309.97 353.92 309.84 366.04 C 309.82 379.64 309.52 393.26 310.10 406.86 C 310.52 407.23 311.37 407.96 311.79 408.32 L 311.98 408.47 C 314.47 410.68 317.97 410.03 321.02 410.04 C 332.34 409.37 343.67 410.24 354.99 409.81 C 362.41 409.47 370.09 411.22 377.28 408.70 L 377.29 408.70 C 377.75 408.66 378.67 408.59 379.12 408.56 C 381.57 408.44 384.03 408.51 386.48 408.62 C 396.27 411.10 406.83 411.24 416.61 408.66 C 420.28 408.55 423.96 408.57 427.63 408.50 L 429.29 408.48 C 429.94 408.49 430.59 408.56 431.23 408.70 C 439.33 410.79 447.72 409.68 455.97 409.84 C 469.66 409.99 483.35 409.64 497.04 409.99 C 503.57 409.91 510.25 410.47 516.61 408.67 C 516.84 408.62 517.28 408.51 517.50 408.45 C 517.40 405.62 517.37 402.79 517.42 399.96 C 524.16 403.03 530.82 406.32 537.43 409.69 C 533.72 410.96 529.77 410.41 525.96 410.91 C 523.21 411.28 521.32 413.52 519.37 415.27 C 518.81 414.25 518.25 413.24 517.69 412.24 C 511.48 411.56 505.26 410.85 499.01 410.83 C 479.33 411.14 459.64 411.01 439.96 410.90 C 436.52 410.81 433.21 411.77 429.98 412.81 L 429.40 412.93 L 427.62 413.01 C 411.36 413.39 395.09 413.06 378.83 413.16 L 378.31 413.14 C 370.97 409.74 362.80 411.14 355.00 411.00 C 346.67 410.90 338.34 410.95 330.01 411.06 C 323.25 411.24 316.39 409.93 309.75 411.67 C 309.89 426.44 309.49 441.21 309.79 455.98 C 309.35 468.03 310.24 480.08 309.44 492.11 C 309.10 444.74 309.37 397.36 309.24 349.99 C 308.96 343.84 310.29 337.47 308.53 331.48 C 297.65 330.17 286.61 331.22 275.68 330.45 Z" />
</g>
<g id="#5a821bff">
<path fill="#5a821b" opacity="1.00" d=" M 311.98 408.47 C 333.75 408.70 355.52 408.28 377.28 408.70 C 370.09 411.22 362.41 409.47 354.99 409.81 C 343.67 410.24 332.34 409.37 321.02 410.04 C 317.97 410.03 314.47 410.68 311.98 408.47 Z" />
</g>
<g id="#5e8324ff">
<path fill="#5e8324" opacity="1.00" d=" M 386.48 408.62 C 396.52 408.46 406.57 408.36 416.61 408.66 C 406.83 411.24 396.27 411.10 386.48 408.62 Z" />
</g>
<g id="#5b841cff">
<path fill="#5b841c" opacity="1.00" d=" M 431.23 408.70 C 459.69 408.40 488.16 408.49 516.61 408.67 C 510.25 410.47 503.57 409.91 497.04 409.99 C 483.35 409.64 469.66 409.99 455.97 409.84 C 447.72 409.68 439.33 410.79 431.23 408.70 Z" />
</g>
<g id="#668a2fff">
<path fill="#668a2f" opacity="1.00" d=" M 525.96 410.91 C 529.77 410.41 533.72 410.96 537.43 409.69 L 538.29 409.47 C 538.49 409.89 538.90 410.74 539.10 411.17 C 531.79 414.48 524.57 417.98 517.43 421.63 C 517.34 418.68 517.36 415.72 517.37 412.77 C 497.94 413.69 478.45 412.97 458.99 413.19 C 449.32 412.94 439.61 413.72 429.98 412.81 C 433.21 411.77 436.52 410.81 439.96 410.90 C 459.64 411.01 479.33 411.14 499.01 410.83 C 505.26 410.85 511.48 411.56 517.69 412.24 C 518.25 413.24 518.81 414.25 519.37 415.27 C 521.32 413.52 523.21 411.28 525.96 410.91 Z" />
</g>
<g id="#c3d7a3ff">
<path fill="#c3d7a3" opacity="1.00" d=" M 378.83 413.16 C 395.09 413.06 411.36 413.39 427.62 413.01 C 427.52 418.77 427.53 424.53 427.57 430.29 C 411.41 429.15 395.17 430.08 378.98 429.81 C 378.90 424.26 379.51 418.69 378.83 413.16 Z" />
</g>
<g id="#f5b98fff">
<path fill="#f5b98f" opacity="1.00" d=" M 378.98 429.81 C 395.17 430.08 411.41 429.15 427.57 430.29 C 427.59 450.44 427.64 470.60 427.53 490.76 C 411.42 490.76 395.31 490.79 379.19 490.70 C 378.48 479.47 379.37 468.23 379.12 457.00 C 378.78 447.94 379.47 438.87 378.98 429.81 Z" />
</g>
<g id="#faddcaff">
<path fill="#faddca" opacity="1.00" d=" M 378.91 514.02 C 379.42 506.54 378.74 499.06 378.85 491.58 C 383.97 493.69 389.58 492.99 394.97 492.85 C 405.84 492.31 416.71 493.38 427.58 493.00 C 427.63 509.76 427.57 526.52 427.60 543.29 C 416.40 543.52 405.19 543.27 393.99 543.35 C 388.92 543.31 383.79 543.74 378.79 542.65 C 379.48 533.12 378.54 523.56 378.91 514.02 Z" />
</g>
<g id="#fff0dbff">
<path fill="#fff0db" opacity="1.00" d=" M 378.85 491.58 C 395.10 491.10 411.38 491.43 427.65 491.40 L 427.58 493.00 C 416.71 493.38 405.84 492.31 394.97 492.85 C 389.58 492.99 383.97 493.69 378.85 491.58 Z" />
</g>
<g id="#f7c8a7ff">
<path fill="#f7c8a7" opacity="1.00" d=" M 44.86 501.68 C 61.72 501.47 78.57 501.69 95.43 501.58 C 95.32 555.02 95.45 608.46 95.36 661.90 C 78.63 661.78 61.89 661.97 45.16 661.85 C 44.53 637.91 45.05 613.95 44.87 590.00 C 44.87 560.56 44.85 531.12 44.86 501.68 Z" />
</g>
<g id="#ffe1c0ff">
<path fill="#ffe1c0" opacity="1.00" d=" M 131.58 501.56 L 132.75 501.61 C 133.07 522.75 132.78 543.89 132.93 565.04 C 133.12 576.21 131.74 587.53 134.19 598.55 C 134.16 598.64 134.12 598.82 134.09 598.92 C 132.39 604.12 132.70 609.62 132.95 615.00 C 133.10 628.01 132.76 641.02 132.90 654.02 C 132.95 656.71 132.50 659.37 131.78 661.95 C 131.16 639.64 131.72 617.30 131.46 594.99 C 131.63 563.84 131.39 532.70 131.58 501.56 Z" />
</g>
<g id="#f7caabff">
<path fill="#f7caab" opacity="1.00" d=" M 132.75 501.61 C 175.69 501.51 218.63 501.61 261.57 501.58 C 261.55 555.01 261.61 608.45 261.54 661.88 C 218.28 661.90 175.03 661.77 131.78 661.95 C 132.50 659.37 132.95 656.71 132.90 654.02 C 132.76 641.02 133.10 628.01 132.95 615.00 C 132.70 609.62 132.39 604.12 134.09 598.92 C 143.07 607.92 151.98 617.00 160.66 626.30 C 160.86 621.76 160.85 617.21 160.85 612.67 C 184.33 612.69 207.81 612.56 231.28 612.69 C 231.22 578.58 231.39 544.46 231.18 510.34 C 221.57 510.30 211.96 510.40 202.35 510.34 C 202.25 535.39 202.39 560.44 202.32 585.48 C 188.48 585.44 174.64 585.66 160.80 585.48 C 160.79 580.60 160.83 575.72 160.75 570.84 C 151.89 580.07 142.79 589.07 134.19 598.55 C 131.74 587.53 133.12 576.21 132.93 565.04 C 132.78 543.89 133.07 522.75 132.75 501.61 Z" />
</g>
<g id="#e0792bff">
<path fill="#e0792b" opacity="1.00" d=" M 275.41 507.42 C 275.41 505.83 275.41 504.25 275.41 502.67 C 287.69 502.83 299.98 502.69 312.27 502.83 C 312.18 528.47 312.32 554.12 312.22 579.77 C 333.85 579.66 355.50 580.02 377.13 579.60 C 377.57 579.61 378.45 579.63 378.89 579.64 C 379.48 579.68 380.65 579.77 381.24 579.82 C 381.47 652.23 381.35 724.65 381.32 797.06 C 396.74 797.23 412.16 796.96 427.58 797.15 L 429.31 797.12 C 458.67 797.11 488.03 797.25 517.39 797.07 C 517.39 794.22 517.43 791.37 517.55 788.54 C 525.02 792.08 532.40 795.82 539.90 799.31 C 532.43 802.97 524.88 806.46 517.41 810.13 C 517.37 807.26 517.38 804.40 517.41 801.55 C 470.53 801.77 423.65 801.51 376.77 801.69 C 376.72 729.19 376.71 656.69 376.76 584.19 C 355.27 584.38 333.77 584.22 312.28 584.30 C 312.19 610.07 312.22 635.84 312.31 661.60 C 299.99 661.77 287.66 661.82 275.35 661.68 C 275.39 660.18 275.45 658.69 275.50 657.20 C 286.17 657.19 296.85 657.47 307.51 657.10 L 308.66 656.93 C 309.08 652.93 309.05 648.92 308.95 644.92 C 308.80 603.27 309.12 561.62 308.90 519.97 C 308.96 515.80 309.19 511.51 307.74 507.52 C 296.99 506.92 286.19 507.64 275.41 507.42 Z" />
</g>
<g id="#da6914ff">
<path fill="#da6914" opacity="1.00" d=" M 307.74 507.52 C 309.19 511.51 308.96 515.80 308.90 519.97 C 309.12 561.62 308.80 603.27 308.95 644.92 C 309.05 648.92 309.08 652.93 308.66 656.93 L 307.51 657.10 C 307.51 626.06 307.52 595.03 307.53 563.99 C 307.63 545.17 307.29 526.34 307.74 507.52 Z" />
</g>
<g id="#e78638ff">
<path fill="#e78638" opacity="1.00" d=" M 204.41 512.35 C 212.67 512.42 220.93 512.22 229.20 512.47 C 229.15 545.16 229.15 577.85 229.22 610.54 C 205.86 610.81 182.51 610.46 159.15 610.66 C 158.85 614.13 158.75 617.61 158.71 621.10 C 151.51 613.43 144.04 606.03 136.81 598.39 C 144.40 591.10 151.35 583.19 158.80 575.77 C 158.89 579.69 158.83 583.62 158.87 587.55 C 174.08 587.45 189.28 587.64 204.49 587.60 C 204.29 562.51 204.39 537.43 204.41 512.35 Z" />
</g>
<g id="#ececeeff">
<path fill="#ececee" opacity="1.00" d=" M 379.15 543.27 C 395.27 543.93 411.45 543.57 427.59 543.53 C 427.51 600.47 427.68 657.41 427.51 714.35 C 427.48 715.73 427.47 717.11 427.49 718.50 C 427.67 744.72 427.45 770.94 427.58 797.15 C 412.16 796.96 396.74 797.23 381.32 797.06 C 381.35 724.65 381.47 652.23 381.24 579.82 C 380.65 579.77 379.48 579.68 378.89 579.64 C 378.79 567.51 379.16 555.40 379.15 543.27 Z" />
</g>
<g id="#fbe5d7ff">
<path fill="#fbe5d7" opacity="1.00" d=" M 543.66 625.34 C 911.71 625.37 1279.76 625.37 1647.81 625.34 C 1647.65 724.05 1647.79 822.76 1647.75 921.47 C 1279.72 921.47 911.69 921.51 543.67 921.48 C 543.70 822.77 543.75 724.05 543.66 625.34 Z" />
</g>
<g id="#cececeff">
<path fill="#cecece" opacity="1.00" d=" M 44.92 664.15 C 61.75 664.06 78.58 664.21 95.42 664.10 C 95.34 727.97 95.47 791.85 95.34 855.73 C 78.61 855.74 61.87 855.72 45.14 855.74 C 44.65 844.50 45.07 833.25 45.12 822.01 C 44.62 769.39 45.00 716.76 44.92 664.15 Z" />
<path fill="#cecece" opacity="1.00" d=" M 131.69 663.97 C 175.00 664.26 218.32 664.06 261.63 664.10 C 261.50 728.00 261.59 791.89 261.58 855.78 C 218.34 855.84 175.08 855.53 131.84 855.96 C 132.20 854.33 132.56 852.70 132.64 851.04 C 132.62 794.69 132.61 738.33 132.63 681.98 C 132.56 676.03 133.28 669.98 131.73 664.16 L 131.69 663.97 Z" />
</g>
<g id="#e38237ff">
<path fill="#e38237" opacity="1.00" d=" M 517.04 713.93 C 517.67 711.18 517.32 708.28 517.56 705.47 C 524.99 709.18 532.57 712.63 540.02 716.27 C 532.48 719.94 524.81 723.35 517.35 727.19 C 517.29 724.30 517.28 721.41 517.31 718.53 C 516.39 718.18 515.47 717.85 514.56 717.52 C 515.41 716.33 516.25 715.15 517.04 713.93 Z" />
</g>
<g id="#e4853eff">
<path fill="#e4853e" opacity="1.00" d=" M 427.51 714.35 L 429.32 714.10 C 458.54 713.59 487.81 714.08 517.04 713.93 C 516.25 715.15 515.41 716.33 514.56 717.52 C 515.47 717.85 516.39 718.18 517.31 718.53 C 488.01 718.52 458.72 718.51 429.42 718.55 C 428.94 718.54 427.97 718.52 427.49 718.50 C 427.47 717.11 427.48 715.73 427.51 714.35 Z" />
</g>
<g id="#040404ff">
<path fill="#040404" opacity="1.00" d=" M 427.49 718.50 C 427.97 718.52 428.94 718.54 429.42 718.55 C 429.33 744.74 429.59 770.94 429.31 797.12 L 427.58 797.15 C 427.45 770.94 427.67 744.72 427.49 718.50 Z" />
</g>


<g id="editable_times_new_roman_text" font-family="Times New Roman, Times, serif" fill="#000000" xml:space="preserve">
  <!-- Left think labels -->
  <text x="198" y="39" font-size="34" font-weight="700" text-anchor="middle">&lt;think&gt;</text>
  <text x="126" y="910" font-size="34" font-weight="700">&lt;/think&gt;</text>

  <!-- Mode 1 -->
  <text x="573" y="80" font-size="36" font-weight="700">Mode 1:  Self-Monitoring / Reflection (Reflection)</text>
  <text x="573" y="130" font-size="30">“Wait, my previous assumption (that the denominator is nonzero) may</text>
  <text x="573" y="170" font-size="30">not hold under the boundary conditions. I need to re-check the interval range.”</text>
  <text x="573" y="221" font-size="32" font-weight="700">Function:</text>
  <text x="719" y="221" font-size="30">Demonstrates the model's ability to re-evaluate its</text>
  <text x="573" y="260" font-size="30">own reasoning process.</text>

  <!-- Mode 2 -->
  <text x="573" y="362" font-size="36" font-weight="700">Mode 2:  Self-Check / Verification (Verification)</text>
  <text x="573" y="413" font-size="30">“Substitute <tspan font-style="italic">x</tspan> = 2 into the left-hand side of the original equation:</text>
  <text x="573" y="453" font-size="30">4 + 2 = 6; substitute into the right-hand side:  3 × 2 = 6.</text>
  <text x="573" y="493" font-size="30">Both sides are equal, so the stepwise conclusion is correct.”</text>
  <text x="573" y="542" font-size="32" font-weight="700">Function:</text>
  <text x="719" y="542" font-size="30">Demonstrates the model actively seeking Ground Truth</text>
  <text x="573" y="580" font-size="30">signals to support its reasoning chain and prevent the accumulation of errors.</text>

  <!-- Mode 3 -->
  <text x="573" y="675" font-size="36" font-weight="700">Mode 3:  Backtracking / Correction (Backtrack)</text>
  <text x="573" y="724" font-size="29">“Based on the previous verification, the algebraic method is too</text>
  <text x="573" y="763" font-size="29">complicated for solving this geometry problem. I should go back</text>
  <text x="573" y="802" font-size="29">to step 3 and try the auxiliary-line approach.”</text>
  <text x="573" y="839" font-size="32" font-weight="700">Function:</text>
  <text x="719" y="839" font-size="27">A hallmark behavior that distinguishes Long-CoT from</text>
  <text x="573" y="875" font-size="27">ordinary CoT, showing the model's resilience in exploring alternative</text>
  <text x="573" y="909" font-size="27">paths when it reaches a 'dead end'.</text>
</g>

</svg>
