<?xml version="1.0" encoding="UTF-8"?>
<svg id="_图层_1" data-name="图层_1" xmlns="http://www.w3.org/2000/svg" version="1.1" viewBox="0 0 1672 941">
  <!-- Generator: Adobe Illustrator 29.6.0, SVG Export Plug-In . SVG Version: 2.1.1 Build 207)  -->
  <defs>
    <style>
      .st0, .st1, .st2, .st3, .st4, .st5, .st6, .st7, .st8, .st9, .st10, .st11, .st12, .st13, .st14, .st15 {
        isolation: isolate;
      }

      .st0, .st2, .st3, .st7, .st8, .st15 {
        font-family: TimesNewRomanPS-BoldMT, 'Times New Roman';
        font-weight: 700;
      }

      .st0, .st3, .st12 {
        font-size: 27px;
      }

      .st16 {
        fill: #010101;
      }

      .st17 {
        fill: #fcfcfc;
      }

      .st18 {
        fill: #f2f1f2;
      }

      .st19 {
        fill: #f6f6f6;
      }

      .st1 {
        font-size: 20px;
      }

      .st1, .st4, .st5, .st6, .st9, .st10, .st11, .st12, .st13, .st14 {
        font-family: TimesNewRomanPSMT, 'Times New Roman';
      }

      .st2, .st4 {
        font-size: 22px;
      }

      .st20 {
        fill: #020202;
      }

      .st3 {
        fill: #2ca02c;
      }

      .st21 {
        fill: #fff;
      }

      .st22 {
        fill: #050505;
      }

      .st23 {
        fill: #060606;
      }

      .st5 {
        font-size: 23px;
      }

      .st24 {
        fill: #fbfbfb;
      }

      .st25 {
        fill: #f9f9f9;
      }

      .st26 {
        fill: #f5f5f6;
      }

      .st27 {
        fill: #f5f6f6;
      }

      .st6, .st7 {
        font-size: 26px;
      }

      .st8 {
        font-size: 34px;
      }

      .st28 {
        fill: #f4f5f5;
      }

      .st29 {
        fill: #fefefd;
      }

      .st9 {
        font-size: 24px;
      }

      .st30 {
        fill: #030303;
      }

      .st10 {
        font-size: 29px;
      }

      .st31 {
        fill: #050605;
      }

      .st32 {
        fill: #fcfcfd;
      }

      .st33 {
        fill: #050404;
      }

      .st34 {
        fill: #838484;
      }

      .st35 {
        fill: #0b0b0b;
      }

      .st36 {
        fill: #f4f4f6;
      }

      .st11 {
        font-size: 25px;
      }

      .st37 {
        fill: #6a6b6c;
      }

      .st13 {
        font-size: 28px;
      }

      .st38 {
        fill: #fefefe;
      }

      .st39 {
        fill: #040404;
      }

      .st14 {
        font-size: 43px;
      }

      .st40 {
        fill: #f2f4f3;
      }

      .st41 {
        fill: #fafafa;
      }

      .st42 {
        fill: #070707;
      }

      .st43 {
        fill: #f8f8f8;
      }

      .st44 {
        fill: #f6f7f6;
      }

      .st15 {
        font-size: 33px;
      }

      .st45 {
        fill: #f9fafa;
      }

      .st46 {
        fill: #feffff;
      }

      .st47 {
        fill: #f7f7f7;
      }

      .st48 {
        fill: #fdfdfd;
      }
    </style>
  </defs>
  <g id="_x23_fefefeff">
    <path class="st38" d="M0,0h1672v941H0V0M399.38,13.42c-2.48,2.5-3.37,6.11-3.28,9.55.09,41.34,0,82.68.02,124.03-.02,1.7-.17,3.39-.31,5.09-5.36-2.96-10.81-5.79-16.27-8.59.18,2.38.58,4.73,1.07,7.07-20.86-.01-41.71,0-62.57,0-3.04-.39-6.1,2.27-5.73,5.4-.03,92.15-.04,184.3.01,276.45-27.94.36-55.89-.1-83.83.19.02-38.53.05-77.05-.01-115.57.18-6.57-5.99-12.24-12.47-11.85-62.33,0-124.66-.03-186.99.01-6.54.15-11.98,6.26-11.52,12.77,0,75.7,0,151.4-.03,227.11-.37,6.44,4.87,13,11.6,12.76,21.31.02,42.63-.06,63.95.09,41.32-.22,82.64.02,123.96-.11,6.3.22,11.83-5.52,11.51-11.79.08-36.73,0-73.46.03-110.2,22.85.45,45.7-.29,68.55.25,5.08,0,10.15-.43,15.22.08-.02,78.96.03,157.93-.01,236.89-.38,2.89,2.38,4.35,4.64,5.27,5.04-.17,10.08-.92,15.12-.38,5.63.75,11.28-.58,16.91.24,10.51-.28,21.02-.48,31.57-.43-.22,2.38-.63,4.75-1.05,7.11,5.63-2.19,10.67-5.65,16.21-8.07-1.04-2.22-3.57-2.78-5.53-3.85-3.61-1.55-6.7-4.26-10.62-5,.17,2.2.46,4.41,1.02,6.56-21.23.01-42.46.12-63.69-.05-.31-.33-.92-1.01-1.23-1.34-.15-79.07-.02-158.15-.06-237.23,21.63.42,43.26-.05,64.89.06-.35,2.32-.74,4.63-1.01,6.97,5.57-2.52,10.87-5.61,16.38-8.27-.96-1.31-2.37-2.13-3.81-2.79-4.17-1.98-8.18-4.28-12.31-6.35,0,2.36.11,4.72.17,7.08-21.44-.09-42.89.02-64.34-.06.07-92.63,0-185.26.03-277.9,3.4-.78,6.91-.42,10.38-.48,18.19-.08,36.38.07,54.58-.07-.39,2.26-.79,4.52-1.03,6.8,5.69-2.18,10.76-5.64,16.33-8.09.63,10.72.17,21.48.32,32.22.06,36.02-.06,72.03.03,108.04-.18,6.06,4.94,11.36,10.95,11.65,9.28.3,18.58.06,27.86.14,256.68-.08,513.35.02,770.02-.04,6.77.76,13.77-4.63,13.54-11.7.05-45.89-.01-91.78,0-137.66,67.5-.12,135.01.01,202.52-.05,1.67-.27,3.9.54,3.46,2.67-.13,91.48-.01,182.95-.03,274.43-68.65-.04-137.3-.01-205.95-.01-.01-29.84.01-59.67.02-89.51-.07-3.84.46-7.86-1.22-11.46-1.83-4.39-6.64-7.06-11.29-7-265.69-.04-531.38-.01-797.07-.02-6.46-.38-12.81,4.85-12.83,11.49-.04,73.36-.01,146.68-.02,220.05-.35,6.42,5.43,12.07,11.8,11.85,265.68.01,531.37,0,797.05,0,6.51.79,13.22-4.17,13.53-10.89.17-40.37-.09-80.76.07-121.14,68.64-.09,137.28.08,205.92-.08-.11,78.74.07,157.48-.09,236.22.29,1.93-2.03,2.52-3.48,2.26-67.45.01-134.9.02-202.36.02-.08-24.78,0-49.55-.02-74.33.04-4.84-2.82-9.75-7.51-11.38-4.14-1.6-8.66-.67-12.97-.88-263.64-.05-527.28.01-790.91-.02-5.75.6-10.93,5.31-11.02,11.28-.14,24.35.05,48.71-.12,73.06-.53,3.34-.12,6.69.08,10.04.05,29-.09,58,.06,86.99,0,4.31,2.4,8.65,6.4,10.46,3.51,1.91,7.6,1.26,11.43,1.38,262.65-.04,525.31-.02,787.96-.03,4.36.13,9.37.2,12.68-3.16,3.29-2.4,4.02-6.84,3.95-10.64-.03-29.84-.06-59.68-.02-89.52,67.82.06,135.64.01,203.45.04,2.74.25,5.59-1.73,5.93-4.54.4-3.34.16-6.71.04-10.05-.07-22.31-.15-44.66,0-66.98.29-12.65-.43-25.32.06-37.98-.17-13.65-.27-27.33.01-40.98-.13-16.35-.19-32.69-.17-49.04-.29-10.75.57-21.5-.02-32.24,7.81.04,15.63.18,23.45.04-.29,2.34-.59,4.69-.77,7.04,5.47-2.76,10.92-5.59,16.36-8.43-.38-1.08-1.71-1.28-2.51-1.85-4.61-2.37-9.29-4.61-13.82-7.12.02,2.33.26,4.66.71,6.95-7.81.02-15.62,0-23.42.13-.04-27.84.26-55.72.14-83.56-.25-22.99.5-45.99-.12-68.98.48-39.61-.07-79.24.04-118.86-.22-2.51.56-5.58-1.54-7.5-1.65-1.76-4.19-1.4-6.34-1.46-67.18.04-134.36-.04-201.55.04.05-43.07.1-86.14.02-129.21.03-4.04-1.32-8.44-4.81-10.8-3.09-2.29-7.06-2.64-10.77-2.53-264.31.03-528.62.04-792.93,0-3.82-.11-8.02.76-10.63,3.78M1477.55,300.64c-5.42,1.32-8.84,6.94-8.4,12.34-.07,75.67-.01,151.33-.05,227,.07,3.64-.45,7.45.95,10.93,1.83,4.75,6.93,7.72,11.97,7.39,51.98-.06,103.96,0,155.94-.01,4.31-.05,8.96.58,12.89-1.69,3.86-1.97,5.76-6.42,5.7-10.6.04-77.67-.03-155.34.02-233.01.08-4.26-1.49-9.06-5.48-11.13-3.93-2.45-8.71-1.65-13.08-1.75-50.68,0-101.37,0-152.05,0-2.82.04-5.69-.24-8.41.53M304.47,806.61c.53,13.43.06,26.9.23,40.34-.13,26.21.24,52.42-.15,78.62,3.14.47,6.33.3,9.49.31,440-.03,879.99,0,1319.99-.01,2.01-.11,4.19.36,6.13-.49-.6-10.78-.09-21.58-.24-32.37-.06-29.06.13-58.12-.07-87.19-444.3.11-888.59-.02-1332.88.06-.63.18-1.88.55-2.5.73Z"/>
    <path class="st38" d="M717.33,93.46c148.87-.28,297.76-.03,446.63-.11,4.37-.52,9.32,2.24,9.79,6.91,1.24,11.86-.36,23.82.42,35.7-.73,9.36.58,18.74-.29,28.1.17,13.67-.08,27.32.28,40.98-.82,15.65.69,31.33-.26,46.97-.27,4.42-4.55,7.83-8.88,7.54-149.01-.05-298.01.02-447.01-.03-4.83-.21-8.51-4.83-8.23-9.55-.04-49.01.02-98.03-.02-147.04-.21-4.48,2.85-9.12,7.57-9.47M757.74,136.82c-2.22,8.56.24,17.43-.93,26.1-.04,10.11.97,20.22-.17,30.31.71,1.25,1.52,2.44,2.4,3.59,13.65,0,27.31-.04,40.96-.02,1.99.19,3.91-1.82,3.73-3.8-.01-18,.01-36.01-.1-54.02.13-2.35-2.41-4.08-4.6-3.78-12.67.09-25.34-.11-38,.02-1.33-.11-2.47.65-3.29,1.6M1066.37,135.33c.1,21.08-.07,42.17.02,63.25,17.41.07,34.82.11,52.22.02,0-15.39.4-30.81-.11-46.18-5.76-5.83-11.59-11.62-17.52-17.3-11.53.46-23.12-1.02-34.61.21M899.37,138.55c-1.84-.15-2.74,1.98-2.59,3.5.05,15.66.04,31.31.03,46.96-.07,2.16.3,4.3.86,6.38,22.24-.08,44.49.11,66.73-.02.19-1.13.32-2.26.4-3.4.18-17.03-.44-34.09.36-51.09-.39-1.1-.74-2.65-2.22-2.39-21.19-.03-42.39-.14-63.57.06Z"/>
    <path class="st38" d="M594.06,187.85c-.84-5.71-3.52-11.65-1.11-17.35.92,1.27,1.37,2.91.79,4.44-1.07.99-1.91,3.28.03,3.87.51-1.29.5-2.57-.03-3.87,1.69,1.14,1.13,3.35,1.31,5.08-.13,5.22.21,10.47-.5,15.66.39.77.79,1.55,1.19,2.33-1.39-.42-2.58-1.21-3.63-2.17.17-2.75-.61-6.07,1.95-7.99M593.2,191.28q.43.54,0,0Z"/>
    <path class="st38" d="M579.39,192.14c.61-.49,2.78-.19,1.74.91-.98.77-2.23,2.24-3.6,1.67-.53-1.18.91-2.2,1.86-2.58Z"/>
    <path class="st38" d="M1479.05,302.22c8.58-.97,17.25.13,25.86-.32,46.69.13,93.38-.31,140.06.22,5.81-.34,10.27,5.26,9.82,10.83-.04,77.67.03,155.35-.04,233.02.48,5.89-5.06,10.89-10.82,10.41-54.3-.08-108.6.04-162.9-.06-5.46.13-10.36-4.75-9.92-10.25-.02-78.01,0-156.03,0-234.04-.15-4.62,3.32-9.07,7.94-9.81M1534.21,396.9c.81.87,1.74,1.77,2.61,2.65,9.87-6.83,22.44-9.12,34.26-7.78,7.49,1.09,14.81,3.48,21.13,7.73.83.81,2.56,1.14,2.62,2.53-1.33,2.09-3.57,3.42-4.93,5.5,1.3.56,2.67,1.13,4.01,1.71,4.44,1,9.24,4.41,13.78,2.15,1.88-1.56.68-4.4,0-6.3-1.76-4.02-2.71-8.5-5.42-12.03-1.48,1.97-2.97,3.92-4.37,5.93-4.43-2.52-8.53-5.66-13.37-7.39-9.35-3.95-19.77-4.02-29.69-2.92-7.22,1.54-14.71,3.62-20.62,8.22M1513.02,412.99c2.14,1.11,4.3,2.22,6.58,3.08-1.5,4.52-3.96,8.68-4.96,13.38-2.06,7-1.33,14.36-1.49,21.56.09,4.82-.36,9.71.54,14.48,1.54.39,2.83-.68,4.1-1.4,0-4.23-.26-8.47-.95-12.64-1.31-11.27.72-23,5.98-33.08,2.78.1,4.56,3.22,7.47,3.29-.04-6.48.47-13.02-.71-19.43-5.84,2.99-11.75,6.28-16.56,10.76M1614.99,425.84c3.44,9.29,4.85,19.55,2.58,29.29-3.23,15.82-14.42,29.81-29.34,36.12-12.62,5.61-27.46,5.26-40.13,0,1.33-2.29,3.03-4.33,4.69-6.39-6.61-1.1-13.19-2.51-19.9-2.73,2.12,6.59,5.12,13.07,9.02,18.8,1.35-2.33,2.68-4.67,4.01-7,20.76,9.98,47.65,4.55,62.68-12.97,13.65-14.9,17.64-37.91,9.64-56.49-.82.34-2.44,1.02-3.25,1.37Z"/>
    <path class="st38" d="M27.14,307.37c2.6-.38,5.24-.19,7.86-.22,60.7.05,121.4-.02,182.1.03,5.7-.18,9.98,5.35,9.53,10.82.07,76.34.06,152.68-.02,229.02-.14,5.9-6.13,9.51-11.58,9.17-61.67-.07-123.35.05-185.02-.03-5.52.1-10.67-4.48-10.63-10.1-.15-74.35,0-148.71-.08-223.06.1-3.28-.44-6.74.97-9.83,1.14-2.93,3.78-5.19,6.87-5.8M52.3,364.16c-.3,24.92,0,49.87-.11,74.8,0,32.45-.1,64.89.05,97.33,46.27.16,92.54.15,138.81.01l.03-1.47c1.22.61,2.43,1.29,3.74,1.74,1.23-.79,2.27-2.02,2.08-3.57.05-42.32-.04-84.65.01-126.97-.03-4.02.88-9.13-3.33-11.47-.05-.68-.1-1.35-.14-2.02-1.05-.05-2.09-.09-3.13-.13-.5-1.17-.99-2.33-1.48-3.48-1.19.81-2.37,1.63-3.54,2.47-6.31-6.05-12.25-12.47-18.59-18.48-3.24-3.02-6.13-6.42-9.49-9.32-34.41.12-68.83-.07-103.25.1-.41.11-1.24.34-1.66.46Z"/>
    <path class="st38" d="M407.34,326.47c266.21-.17,532.44-.03,798.65-.07,5.83-.47,10.9,4.86,10.58,10.62.02,73.02.01,146.04,0,219.06.22,5.66-5,10.26-10.52,10.06-111.69.14-223.39,0-335.08.06-153.67-.06-307.34.07-461.01-.05-5.48.48-11.74-3.16-11.77-9.14-.1-73.33-.03-146.67-.03-220-.51-5.32,3.78-10.44,9.19-10.54M526.08,378.08c-1.21,2.26,1.04,4.26,2.57,5.62.07,2.68.04,5.37.05,8.06-6.59-.02-13.18-.15-19.76.08-4.1.24-7.83,3.98-7.43,8.19.03,11.37,0,22.74-.02,34.12,1.35,1.81,2.9,4.12,5.46,4.08,15.65.18,31.3.03,46.96.04,3.38.17,6.68-2.82,6.54-6.27-.05-10.67.07-21.34-.04-32.01.2-4.15-3.31-7.88-7.42-8.13-6.81-.31-13.64.09-20.46-.14.02-2.72,0-5.43.03-8.15,2.03-1.48,4.14-4.09,2.36-6.59-2.03-3.48-7.65-2.69-8.84,1.1M660.44,405.6c-4.78.94-8.31,5.58-8.03,10.44.05,30.64-.02,61.27,0,91.91-.28,6.21,5.41,11.33,11.52,10.82,166.37.02,332.74.07,499.11.02,2.67-.07,5.5.14,8-1.06,3.76-1.64,6.09-5.7,6.16-9.72-.04-29.35-.02-58.7,0-88.04-.06-4.29-.04-9.45-3.75-12.37-3.1-2.91-7.59-2.38-11.48-2.36-153.34-.02-306.67,0-460.01.01-13.83.13-27.71-.33-41.52.35M492.91,409.94c-.45,3.76-.01,7.57-.31,11.36.99,2.5,3.51,2.77,5.89,2.58-.08-5.49-.02-10.97-.02-16.45-2.2-.14-5.04-.26-5.56,2.51M563.37,407.36c-.09,5.48-.04,10.96.03,16.44,2.02.08,4.4-.32,5-2.6.13-3.79.11-7.58-.02-11.36-.52-2.41-3.01-2.59-5.01-2.48Z"/>
    <path class="st38" d="M545.76,424.71c1.32-.1,2.65-.18,4-.23-.26,1.69.71,4.86-1.87,4.95-8.62.17-17.25.05-25.87.04-3.29-.27-6.71.64-9.86-.66l.38.03c12.19.37,24.39.09,36.59.13-.78-1.65-1.51-3.57-3.37-4.26Z"/>
    <path class="st38" d="M398.18,599.97c-.26-5.16,3.6-9.83,8.74-10.45,266.03-.06,532.05-.02,798.08-.01,5.7-.72,11.59,3.6,11.52,9.58.13,55.95,0,111.9.07,167.86.33,3.85-1.07,7.68-3.87,10.35-4.94,2.31-10.47,1.38-15.72,1.54-263.01-.03-526.02,0-789.03,0-5.77.38-10.39-5.2-9.8-10.78-.06-56.03-.04-112.06,0-168.09M488.52,662.64c-4.33,1.42-7.12,5.85-6.97,10.34-.05,16.65-.02,33.31-.02,49.97-.06,5.57,4.92,10.34,10.43,10.34,209.66-.03,419.33.02,628.99,0,3.81.18,8.06-.7,10.62-3.78,2.06-2.3,2.3-5.55,2.53-8.48-.89-10.66.55-21.32.01-32-.58-6.73.94-13.61-.8-20.23-1.27-4.37-5.95-6.91-10.32-6.67-66.31-.04-132.62-.02-198.93-.02-18.34-.66-36.68.46-55.02-.23-15.37.63-30.75-.23-46.11.21-18.64.08-37.26-.15-55.89-.09-15.32.49-30.64-.32-45.96-.02-75.68.21-151.4.1-227.09.11-1.84.02-3.73-.06-5.47.56Z"/>
    <path class="st38" d="M306.61,807.6c47.17.24,94.37.08,141.55.07.09,17.69.01,35.38.02,53.07-47.22-.12-94.45.1-141.67-.12.19-17.67,0-35.35.1-53.02Z"/>
    <path class="st38" d="M829.47,807.72c161.47,0,322.93.05,484.4-.02-.19,17.66.36,35.31.28,52.97-161.58.08-323.16-.01-484.74.02.16-17.65-.08-35.31.06-52.97Z"/>
    <path class="st38" d="M306.61,862.57c47.2-.06,94.4.05,141.6-.05-.14,20.57.19,41.15-.13,61.73-8.68-.8-17.41-.21-26.12-.39-26.33-.02-52.67.02-79.01-.01-12.1.22-24.24-.45-36.31.39-.14-20.56,0-41.12-.03-61.67Z"/>
  </g>
  <g id="_x23_000000ff">
    <path d="M399.38,13.42c2.61-3.02,6.81-3.89,10.63-3.78,264.31.04,528.62.03,792.93,0,3.71-.11,7.68.24,10.77,2.53,3.49,2.36,4.84,6.76,4.81,10.8.08,43.07.03,86.14-.02,129.21,67.19-.08,134.37,0,201.55-.04,2.15.06,4.69-.3,6.34,1.46,2.1,1.92,1.32,4.99,1.54,7.5-.11,39.62.44,79.25-.04,118.86.62,22.99-.13,45.99.12,68.98.12,27.84-.18,55.72-.14,83.56,7.8-.13,15.61-.11,23.42-.13-.45-2.29-.69-4.62-.71-6.95,4.53,2.51,9.21,4.75,13.82,7.12.8.57,2.13.77,2.51,1.85-5.44,2.84-10.89,5.67-16.36,8.43.18-2.35.48-4.7.77-7.04-7.82.14-15.64,0-23.45-.04.59,10.74-.27,21.49.02,32.24-.02,16.35.04,32.69.17,49.04-.28,13.65-.18,27.33-.01,40.98-.49,12.66.23,25.33-.06,37.98-.15,22.32-.07,44.67,0,66.98.12,3.34.36,6.71-.04,10.05-.34,2.81-3.19,4.79-5.93,4.54-67.81-.03-135.63.02-203.45-.04-.04,29.84,0,59.68.02,89.52.07,3.8-.66,8.24-3.95,10.64-.48-.09-1.44-.28-1.92-.37,2.8-2.67,4.2-6.5,3.87-10.35-.07-55.96.06-111.91-.07-167.86.07-5.98-5.82-10.3-11.52-9.58-266.03-.01-532.05-.05-798.08.01l.25-1.87c263.63.03,527.27-.03,790.91.02,4.31.21,8.83-.72,12.97.88,4.69,1.63,7.55,6.54,7.51,11.38.02,24.78-.06,49.55.02,74.33,67.46,0,134.91-.01,202.36-.02,1.45.26,3.77-.33,3.48-2.26.16-78.74-.02-157.48.09-236.22-68.64.16-137.28-.01-205.92.08-.16,40.38.1,80.77-.07,121.14-.31,6.72-7.02,11.68-13.53,10.89-265.68,0-531.37.01-797.05,0-6.37.22-12.15-5.43-11.8-11.85,0-73.37-.02-146.69.02-220.05.02-6.64,6.37-11.87,12.83-11.49,265.69,0,531.38-.02,797.07.02,4.65-.06,9.46,2.61,11.29,7,1.68,3.6,1.15,7.62,1.22,11.46,0,29.84-.03,59.67-.02,89.51,68.65,0,137.3-.03,205.95.01.02-91.48-.1-182.95.03-274.43.44-2.13-1.79-2.94-3.46-2.67-67.51.06-135.02-.07-202.52.05-.01,45.88.05,91.77,0,137.66.23,7.07-6.77,12.46-13.54,11.7-256.67.06-513.34-.04-770.02.04-9.28-.08-18.58.16-27.86-.14-6.01-.29-11.13-5.59-10.95-11.65-.09-36.01.03-72.02-.03-108.04-.15-10.74.31-21.5-.32-32.22-5.57,2.45-10.64,5.91-16.33,8.09.24-2.28.64-4.54,1.03-6.8-18.2.14-36.39-.01-54.58.07-3.47.06-6.98-.3-10.38.48-.02,92.64.04,185.27-.03,277.9,21.45.08,42.9-.03,64.34.06-.06-2.36-.18-4.72-.17-7.08,4.13,2.07,8.14,4.37,12.31,6.35,1.44.66,2.85,1.48,3.81,2.79-5.51,2.66-10.81,5.75-16.38,8.27.27-2.34.66-4.65,1.01-6.97-21.63-.11-43.26.36-64.89-.06.04,79.08-.09,158.16.06,237.23.31.33.92,1.01,1.23,1.34,21.23.17,42.46.06,63.69.05-.56-2.15-.85-4.36-1.02-6.56,3.92.74,7.01,3.45,10.62,5,1.96,1.07,4.49,1.63,5.53,3.85-5.54,2.42-10.58,5.88-16.21,8.07.42-2.36.83-4.73,1.05-7.11-10.55-.05-21.06.15-31.57.43-5.63-.82-11.28.51-16.91-.24-5.04-.54-10.08.21-15.12.38-2.26-.92-5.02-2.38-4.64-5.27.04-78.96-.01-157.93.01-236.89-5.07-.51-10.14-.09-15.22-.08-22.85-.54-45.7.2-68.55-.25-.03,36.74.05,73.47-.03,110.2.32,6.27-5.21,12.01-11.51,11.79-41.32.13-82.64-.11-123.96.11-21.32-.15-42.64-.07-63.95-.09-6.73.24-11.97-6.32-11.6-12.76.03-75.71.03-151.41.03-227.11-.46-6.51,4.98-12.62,11.52-12.77,62.33-.04,124.66-.01,186.99-.01,6.48-.39,12.65,5.28,12.47,11.85.06,38.52.03,77.04.01,115.57,27.94-.29,55.89.17,83.83-.19-.05-92.15-.04-184.3-.01-276.45-.37-3.13,2.69-5.79,5.73-5.4,20.86,0,41.71-.01,62.57,0-.49-2.34-.89-4.69-1.07-7.07,5.46,2.8,10.91,5.63,16.27,8.59.14-1.7.29-3.39.31-5.09-.02-41.35.07-82.69-.02-124.03-.09-3.44.8-7.05,3.28-9.55M403.5,12.65c-3.59,1.58-5.58,5.54-5.36,9.36.04,90-.04,180.01,0,270.01-.52,5.24,3.45,10.54,8.86,10.76,34.01.36,68-.04,102.01.32,28.64-.36,57.3-.14,85.94.02,14-.67,28.01.52,42.01-.25,21.37.13,42.74.53,64.11.02,15.3-.22,30.6.58,45.9,0,32.36.06,64.73.54,97.09-.02,11.67.11,23.32.3,34.99-.01,15.62.86,31.27-.57,46.9.25,20.68.29,41.36-.62,62.05.01,14.01.04,28-.2,42.01-.24,10,.54,20.01-.07,30.02,0,38.01.38,75.99-.1,114.01.07,7.63.56,15.27-.53,22.9.11,4.62-.04,9.5.53,13.9-1.22,3.85-1.54,5.92-5.83,5.71-9.83.09-89.03-.03-178.06.04-267.08-.01-2.54.14-5.19-1.03-7.53-1.56-3.76-5.64-5.96-9.61-5.89-264.65-.02-529.31-.03-793.96,0-2.86-.01-5.84-.1-8.49,1.14M27.14,307.37c-3.09.61-5.73,2.87-6.87,5.8-1.41,3.09-.87,6.55-.97,9.83.08,74.35-.07,148.71.08,223.06-.04,5.62,5.11,10.2,10.63,10.1,61.67.08,123.35-.04,185.02.03,5.45.34,11.44-3.27,11.58-9.17.08-76.34.09-152.68.02-229.02.45-5.47-3.83-11-9.53-10.82-60.7-.05-121.4.02-182.1-.03-2.62.03-5.26-.16-7.86.22M407.34,326.47c-5.41.1-9.7,5.22-9.19,10.54,0,73.33-.07,146.67.03,220,.03,5.98,6.29,9.62,11.77,9.14,153.67.12,307.34-.01,461.01.05,111.69-.06,223.39.08,335.08-.06,5.52.2,10.74-4.4,10.52-10.06.02-73.02.03-146.04,0-219.06.32-5.76-4.75-11.09-10.58-10.62-266.21.04-532.44-.1-798.65.07Z"/>
    <path d="M933.67,158.29c1.32.08,2.66.19,4.01.29-.23.32-.68.95-.91,1.26-2.49,7.75-4.93,15.53-7.66,23.21-.03,1.91-4.34,2.19-3.56.03,2.51-8.32,5.56-16.48,8.12-24.79Z"/>
    <path d="M1097.59,162.4c2.13-.22,4.81-.35,5.85,2.01.74,2.98-.89,6.94,2.46,8.67,2.26,1.82-1.08,3.44-2.06,4.89-.32,2.2.05,4.47-.49,6.64-1.13,2.21-3.64,2.09-5.75,2-.02-.51-.06-1.54-.08-2.06.92-.44,1.84-.93,2.75-1.44.36-3.09-.69-6.78,2.23-8.93-3.27-1.6-1.85-5.53-2.18-8.41-.98-.45-1.94-.89-2.89-1.33.04-.51.12-1.53.16-2.04Z"/>
    <path d="M1082.39,171.46c.95-2.59-.79-6.17,1.74-8.17,1.33-1.5,3.55-.71,5.29-.83.36,2.16-1.78,2.54-3.15,3.23-.11,2.94.23,6.14-1.79,8.57,1.96,2.62,1.64,5.86,2,8.92,1.38.79,4.11,1.51,2.18,3.42-2.17.23-4.83-.22-5.74-2.49-.49-2.36-.34-4.8-.56-7.19-.52-.21-1.57-.62-2.09-.83-1.9-2.02.73-3.53,2.12-4.63Z"/>
    <path d="M563.37,407.36c2-.11,4.49.07,5.01,2.48.13,3.78.15,7.57.02,11.36-.6,2.28-2.98,2.68-5,2.6-.07-5.48-.12-10.96-.03-16.44Z"/>
    <path d="M488.52,662.64c1.74-.62,3.63-.54,5.47-.56,75.69-.01,151.41.1,227.09-.11,15.32-.3,30.64.51,45.96.02,18.63-.06,37.25.17,55.89.09,15.36-.44,30.74.42,46.11-.21,18.34.69,36.68-.43,55.02.23,66.31,0,132.62-.02,198.93.02,4.37-.24,9.05,2.3,10.32,6.67,1.74,6.62.22,13.5.8,20.23.54,10.68-.9,21.34-.01,32-.23,2.93-.47,6.18-2.53,8.48-2.56,3.08-6.81,3.96-10.62,3.78-209.66.03-419.33-.02-628.99,0-5.51,0-10.49-4.77-10.43-10.34,0-16.66-.03-33.32.02-49.97-.15-4.49,2.64-8.92,6.97-10.34M488.53,664.64c-3.34,1.29-5.3,4.85-5.19,8.34,0,16.65-.1,33.31.05,49.95,0,4.6,4.07,8.51,8.65,8.5,210.31.08,420.62.02,630.93.02,3.21.01,6.61-1.58,8.08-4.55,1.55-3.43,1.14-7.28,1.2-10.93-.08-14.31.04-28.63-.05-42.94.01-3.61-1.96-7.34-5.5-8.56-3.49-1.04-7.16-.55-10.72-.63-55.35.09-110.69.03-166.04.04-152.01-.17-304.03.07-456.03-.04-1.81.03-3.68.12-5.38.8Z"/>
    <path d="M304.47,806.61c.62-.18,1.87-.55,2.5-.73,444.29-.08,888.58.05,1332.88-.06.2,29.07.01,58.13.07,87.19.15,10.79-.36,21.59.24,32.37-2.87-.36-5.71-.72-8.51-1.29,2.18-.13,4.37-.25,6.59-.31.07-20.38-.04-40.76.01-61.14-.02-.66-.01-1.31.01-1.95-.07-17.66.06-35.32-.04-52.98-107.5-.01-215,0-322.49.04.03,17.63-.04,35.27.03,52.91-.4,0-1.21,0-1.61.01.08-17.66-.47-35.31-.28-52.97-161.47.07-322.93.01-484.4.02-.46,0-1.37,0-1.83,0-53.29,0-106.58.06-159.86-.02.06,17.66-.05,35.32-.01,52.99h-1.62c-.32-17.66-.11-35.33-.04-52.99-71.99.07-143.97.05-215.96.01-.1,17.09-.02,34.19-.04,51.28-.64.58-1.29,1.17-1.93,1.76,0-17.69.07-35.38-.02-53.07-47.18.01-94.38.17-141.55-.07-.54-.25-1.61-.74-2.14-.99Z"/>
  </g>
  <g id="_x23_fefefdff">
    <path class="st29" d="M403.5,12.65c2.65-1.24,5.63-1.15,8.49-1.14,264.65-.03,529.31-.02,793.96,0,3.97-.07,8.05,2.13,9.61,5.89,1.17,2.34,1.02,4.99,1.03,7.53-.07,89.02.05,178.05-.04,267.08.21,4-1.86,8.29-5.71,9.83-4.4,1.75-9.28,1.18-13.9,1.22-7.63-.64-15.27.45-22.9-.11-38.02-.17-76,.31-114.01-.07-10.01-.07-20.02.54-30.02,0-14.01.04-28,.28-42.01.24-20.69-.63-41.37.28-62.05-.01-15.63-.82-31.28.61-46.9-.25-11.67.31-23.32.12-34.99.01-32.36.56-64.73.08-97.09.02-15.3.58-30.6-.22-45.9,0-21.37.51-42.74.11-64.11-.02-14,.77-28.01-.42-42.01.25-28.64-.16-57.3-.38-85.94-.02-34.01-.36-68,.04-102.01-.32-5.41-.22-9.38-5.52-8.86-10.76-.04-90,.04-180.01,0-270.01-.22-3.82,1.77-7.78,5.36-9.36M435.66,92.64c-3.52,2.1-5.27,6.33-5.08,10.33.1,49.34-.07,98.68.07,148.01.02,5.89,5.53,10.83,11.36,10.44,66.98-.09,133.96.02,200.95-.08,5.62.22,10.94-4.56,10.75-10.3.17-25.5-.05-51.01.12-76.51,12.83-.09,25.66-.06,38.5.04-.37,2.44-.71,4.88-.93,7.33,5.75-2.1,10.62-6.53,16.65-7.71-.47,5.61.54,11.22-.14,16.83.63,8.33-.1,16.68.19,25.01-.05,7.98-.54,15.95.01,23.93.04,5.44-1.19,11.42,1.52,16.44,2.17,3.49,6.39,5.25,10.42,5.01,147.97-.04,295.93,0,443.9,0,4.13.31,8.52-1.6,10.48-5.38,1.63-2.72,1.29-5.99,1.35-9.02-.03-48.35-.01-96.7,0-145.05.14-3.81-2.13-7.45-5.38-9.32-3.5-1.95-7.63-1.07-11.43-1.23-144.64,0-289.28.04-433.92.02-3.87.1-7.98-.56-11.57,1.29-2.95,1.63-5.34,4.73-5.24,8.23-.3,11.01.26,22.03-.33,33.03.27,12.86.26,25.74.27,38.62-6.02-1.5-10.87-5.86-16.79-7.68.21,2.28.43,4.57.56,6.87-12.49-.2-24.96.32-37.45.56-1.28-2.62-.62-5.61-.74-8.41,0-20.66.08-41.33-.02-62,.23-5.73-4.91-11.12-10.72-10.77-65.67,0-131.34.01-197,0-3.48.11-7.29-.53-10.36,1.48Z"/>
  </g>
  <g id="_x23_010101ff">
    <path class="st16" d="M435.66,92.64c3.07-2.01,6.88-1.37,10.36-1.48,65.66.02,131.33,0,197,0,5.81-.35,10.95,5.04,10.72,10.77.1,20.67.02,41.34.02,62,.12,2.8-.54,5.79.74,8.41,12.49-.24,24.96-.76,37.45-.56-.13-2.3-.35-4.59-.56-6.87,5.92,1.82,10.77,6.18,16.79,7.68-.01-12.88,0-25.76-.27-38.62.59-11,.03-22.02.33-33.03-.1-3.5,2.29-6.6,5.24-8.23,3.59-1.85,7.7-1.19,11.57-1.29,144.64.02,289.28-.02,433.92-.02,3.8.16,7.93-.72,11.43,1.23,3.25,1.87,5.52,5.51,5.38,9.32-.01,48.35-.03,96.7,0,145.05-.06,3.03.28,6.3-1.35,9.02-1.96,3.78-6.35,5.69-10.48,5.38-147.97,0-295.93-.04-443.9,0-4.03.24-8.25-1.52-10.42-5.01-2.71-5.02-1.48-11-1.52-16.44-.55-7.98-.06-15.95-.01-23.93-.29-8.33.44-16.68-.19-25.01.68-5.61-.33-11.22.14-16.83-6.03,1.18-10.9,5.61-16.65,7.71.22-2.45.56-4.89.93-7.33-12.84-.1-25.67-.13-38.5-.04-.17,25.5.05,51.01-.12,76.51.19,5.74-5.13,10.52-10.75,10.3-66.99.1-133.97-.01-200.95.08-5.83.39-11.34-4.55-11.36-10.44-.14-49.33.03-98.67-.07-148.01-.19-4,1.56-8.23,5.08-10.33M439.21,93.32c-4.44.68-7.11,5.37-6.75,9.62-.05,49.02.02,98.04.02,147.06-.37,5.31,4.27,9.92,9.57,9.52,65.63.06,131.25-.04,196.88.04,2.89-.09,6.04.43,8.65-1.18,2.91-1.65,4.48-5.02,4.28-8.32-.03-49.37.04-98.75-.04-148.12.26-4.39-3.15-9.04-7.82-8.78-23.67-.07-47.35.09-71.03-.08-20.35.24-40.7-.1-61.04-.02-19.96-.14-39.95.43-59.91-.11-4.27.38-8.56.01-12.81.37M717.33,93.46c-4.72.35-7.78,4.99-7.57,9.47.04,49.01-.02,98.03.02,147.04-.28,4.72,3.4,9.34,8.23,9.55,149,.05,298-.02,447.01.03,4.33.29,8.61-3.12,8.88-7.54.95-15.64-.56-31.32.26-46.97-.36-13.66-.11-27.31-.28-40.98.87-9.36-.44-18.74.29-28.1-.78-11.88.82-23.84-.42-35.7-.47-4.67-5.42-7.43-9.79-6.91-148.87.08-297.76-.17-446.63.11Z"/>
    <path class="st16" d="M1066.37,135.33c11.49-1.23,23.08.25,34.61-.21,5.93,5.68,11.76,11.47,17.52,17.3.51,15.37.11,30.79.11,46.18-17.4.09-34.81.05-52.22-.02-.09-21.08.08-42.17-.02-63.25M1070.19,138.54c-.13,18.84-.24,37.69.06,56.53,14.95.56,29.97.17,44.95.19.14-13.23,0-26.46.07-39.69-5.86-.26-11.72.04-17.57-.22-.02-5.61-.02-11.21-.03-16.81-9.16-.2-18.33.02-27.48,0M1101.39,140.86c-.08,3.73,0,7.46-.11,11.19,3.85.05,7.78.45,11.6-.36-3.97-3.47-7.39-7.52-11.49-10.83Z"/>
    <path class="st16" d="M1477.55,300.64c2.72-.77,5.59-.49,8.41-.53,50.68,0,101.37,0,152.05,0,4.37.1,9.15-.7,13.08,1.75,3.99,2.07,5.56,6.87,5.48,11.13-.05,77.67.02,155.34-.02,233.01.06,4.18-1.84,8.63-5.7,10.6-3.93,2.27-8.58,1.64-12.89,1.69-51.98.01-103.96-.05-155.94.01-5.04.33-10.14-2.64-11.97-7.39-1.4-3.48-.88-7.29-.95-10.93.04-75.67-.02-151.33.05-227-.44-5.4,2.98-11.02,8.4-12.34M1479.05,302.22c-4.62.74-8.09,5.19-7.94,9.81,0,78.01-.02,156.03,0,234.04-.44,5.5,4.46,10.38,9.92,10.25,54.3.1,108.6-.02,162.9.06,5.76.48,11.3-4.52,10.82-10.41.07-77.67,0-155.35.04-233.02.45-5.57-4.01-11.17-9.82-10.83-46.68-.53-93.37-.09-140.06-.22-8.61.45-17.28-.65-25.86.32Z"/>
    <path class="st16" d="M304.47,806.61c.53.25,1.6.74,2.14.99-.1,17.67.09,35.35-.1,53.02,47.22.22,94.45,0,141.67.12.64-.59,1.29-1.18,1.93-1.76.01.45.01,1.34.01,1.79,72.01-.18,144.02,0,216.03-.09h1.62c53.31.07,106.62-.02,159.93.07-.2-17.68.05-35.36-.06-53.04.46,0,1.37,0,1.83,0-.14,17.66.1,35.32-.06,52.97,161.58-.03,323.16.06,484.74-.02.4-.01,1.21-.01,1.61-.01,107.5.09,215,.03,322.5.03-.02.64-.03,1.29-.01,1.95-103.11-.2-206.21-.01-309.32-.12-4.38,0-8.77.07-13.14.11-.47,0-1.42-.01-1.89-.01-161.48-.2-322.96.05-484.44-.13.08,20.63-.22,41.26.14,61.89-.76.02-1.51,0-2.24-.05.63-20.59.15-41.25.25-61.86-53.25.22-106.5.01-159.74.09-.66-.01-1.31-.02-1.96-.01-71.94.02-143.88-.01-215.81-.01.09,20.55-.11,41.11.1,61.66-.3.02-.9.07-1.19.09-.23,0-.7-.03-.93-.04.32-20.58,0-41.16.13-61.73-47.2.1-94.4-.01-141.6.05.04,20.55-.11,41.11.03,61.67-.52.33-1.57,1-2.09,1.33.39-26.2.02-52.41.15-78.62-.17-13.44.3-26.91-.23-40.34Z"/>
  </g>
  <g id="_x23_fdfdfdff">
    <path class="st48" d="M439.21,93.32c4.25-.36,8.54.01,12.81-.37,19.96.54,39.95-.03,59.91.11,20.34-.08,40.69.26,61.04.02,23.68.17,47.36,0,71.03.08,4.67-.26,8.08,4.39,7.82,8.78.08,49.37.01,98.75.04,148.12.2,3.3-1.37,6.67-4.28,8.32-2.61,1.61-5.76,1.09-8.65,1.18-65.63-.08-131.25.02-196.88-.04-5.3.4-9.94-4.21-9.57-9.52,0-49.02-.07-98.04-.02-147.06-.36-4.25,2.31-8.94,6.75-9.62M485.63,163.4c-1.68,4.05-.44,8.51-1.06,12.73-.52,2.34-2.94,3.32-5.04,3.74-.09,1.15-.16,2.3-.22,3.45,1.9.67,4.1,1.26,5.02,3.28,1.03,4.41-.49,9.12,1.08,13.45,1.33,3.41,5.58,4.9,8.9,3.59-.02-.98-.03-1.96-.02-2.94-1.72-.66-4.27-.64-4.92-2.72-.61-4.15.65-8.54-1.1-12.5-.75-1.43-2.13-2.38-3.16-3.58,1.6-1.68,3.56-3.25,3.97-5.68.51-3.69-.35-7.48.43-11.15.98-1.52,2.72-1.64,4.36-1.79.19-1.26.36-2.53.53-3.78-3.3-.22-7.19.67-8.77,3.9M595.57,159.48c.09.93.26,2.78.34,3.7,1.07.21,2.16.38,3.26.51,2.72,3.16.89,7.59,1.51,11.35-.15,2.95,1.96,5.12,3.93,7-5.62,2.98-3.6,9.88-4.09,14.98.08,2.87-3.13,2.84-5.09,3.44.06,1.28.14,2.58.22,3.87,2.52-.17,5.45-.22,7.28-2.26,3.16-4.04,1.32-9.47,1.89-14.15-.03-2.23,2.32-3.26,4.08-3.94,1.75-.47.68-2.77.93-4.02-1.91-.32-3.8-1.18-4.64-3.03-1.44-4.68,1.05-10.18-1.74-14.53-1.65-2.67-5.05-2.96-7.88-2.92M594.06,187.85c-2.56,1.92-1.78,5.24-1.95,7.99,1.05.96,2.24,1.75,3.63,2.17-.4-.78-.8-1.56-1.19-2.33.71-5.19.37-10.44.5-15.66-.18-1.73.38-3.94-1.31-5.08.58-1.53.13-3.17-.79-4.44-2.41,5.7.27,11.64,1.11,17.35M579.39,192.14c-.95.38-2.39,1.4-1.86,2.58,1.37.57,2.62-.9,3.6-1.67,1.04-1.1-1.13-1.4-1.74-.91Z"/>
    <path class="st48" d="M772.81,159.48c1.84-.05,3.69-.08,5.56-.09,0,1.59.01,3.18.02,4.77-1.87,0-3.73.02-5.59.03,0-1.57,0-3.14.01-4.71Z"/>
    <path class="st48" d="M593.77,178.81c-1.94-.59-1.1-2.88-.03-3.87.53,1.3.54,2.58.03,3.87Z"/>
    <path class="st48" d="M593.2,191.28q.43.54,0,0Z"/>
    <path class="st48" d="M520.14,674.67c5.57-2.38,12.27-1.01,16.88,2.77,4.63,3.7,6.88,9.84,6.37,15.68-1.34,5.03-4.26,9.93-9,12.4-6.17,3.53-14.54,2.8-19.84-2-4.01-3.67-6.13-9.15-5.87-14.56,1.07-6.33,5.36-12.06,11.46-14.29Z"/>
  </g>
  <g id="_x23_040404ff">
    <path class="st39" d="M757.74,136.82c.82-.95,1.96-1.71,3.29-1.6,12.66-.13,25.33.07,38-.02,2.19-.3,4.73,1.43,4.6,3.78.11,18.01.09,36.02.1,54.02.18,1.98-1.74,3.99-3.73,3.8-13.65-.02-27.31.03-40.96.02-.88-1.15-1.69-2.34-2.4-3.59,1.14-10.09.13-20.2.17-30.31,1.17-8.67-1.29-17.54.93-26.1M763.39,142.51c-.04,3.98-.01,7.95-.07,11.93,11.44-.09,22.87.05,34.31-.18-.01-3.87.04-7.75.07-11.63-11.44,0-22.88.03-34.31-.12M763.44,159.3c-.02,1.67-.03,3.33-.01,5,1.96-.03,3.95-.07,5.88-.47-.02-1.46-.02-2.92-.01-4.38-1.96-.06-3.91-.11-5.86-.15M782.46,159.43c0,1.61.03,3.21.09,4.82,1.69,0,3.39,0,5.1.02,0-1.61,0-3.23.02-4.84-1.75.01-3.48.01-5.21,0M792.13,159.52c-.28,1.59-.28,3.2.07,4.77,1.78-.03,3.57-.04,5.37-.03.04-1.6.07-3.19.11-4.79-1.86.02-3.71.04-5.55.05M772.81,159.48c-.01,1.57-.01,3.14-.01,4.71,1.86-.01,3.72-.02,5.59-.03-.01-1.59-.02-3.18-.02-4.77-1.87,0-3.72.04-5.56.09M772.88,167.92c-.54,1.54-.27,3.22-.38,4.82,2.06.11,4.12.13,6.19.1.02-1.64.05-3.27.1-4.91-1.91-.28-4.17-1.07-5.91,0M763.56,167.8c-.1,1.58-.17,3.17-.23,4.76,2,0,4.02,0,6.03-.05-.11-1.64-.36-3.26-.92-4.81-1.64.05-3.26.08-4.88.1M782.33,172.63c1.82,0,3.65,0,5.49,0-.09-1.64-.18-3.28-.31-4.91-1.65.02-3.3.02-4.93,0-.12,1.63-.2,3.26-.25,4.9M792.05,168.29c-.24,1.4-.33,2.83-.26,4.27,1.92,0,3.86,0,5.8,0,0-1.48.02-2.96.07-4.44-1.88-.28-3.78-.35-5.61.18M763.47,176.4c-.06,1.66-.09,3.32-.09,4.99,1.94-.04,3.9-.06,5.85-.08.01-1.58.02-3.17.07-4.75-1.95-.08-3.89-.13-5.83-.16M772.66,176.61c.07,1.62.18,3.24.45,4.84,1.74-.06,3.5-.1,5.27-.14.02-1.6.05-3.21.09-4.81-1.95-.06-3.89-.03-5.81.11M782.38,176.49c.01,1.62.04,3.24.11,4.86,1.71,0,3.41,0,5.14.02,0-1.65.01-3.29.02-4.93-1.76.02-3.52.03-5.27.05M792.27,176.46c-.53,4.32-.4,8.67-.39,13.02,1.87.04,3.73.07,5.62.11.12-4.37.06-8.74.05-13.11-1.77,0-3.53,0-5.28-.02M763.29,184.49c-.41,1.76-.45,3.56-.23,5.36,2.19,0,4.39-.04,6.6-.16-.1-1.7-.2-3.4-.31-5.1-2.02-.04-4.05-.08-6.06-.1M773.2,184.61c-.42,1.63-.5,3.31-.55,4.99,1.95.05,3.91.05,5.89.02-.09-1.59.01-3.2-.38-4.75-1.65-.2-3.32-.19-4.96-.26M782.41,185.13c0,1.51.02,3.03.04,4.54,1.71,0,3.43,0,5.16-.02.01-1.45.04-2.9.08-4.34-1.76-.29-3.53-.54-5.28-.18Z"/>
    <path class="st39" d="M1614.99,425.84c.81-.35,2.43-1.03,3.25-1.37,8,18.58,4.01,41.59-9.64,56.49-15.03,17.52-41.92,22.95-62.68,12.97-1.33,2.33-2.66,4.67-4.01,7-3.9-5.73-6.9-12.21-9.02-18.8,6.71.22,13.29,1.63,19.9,2.73-1.66,2.06-3.36,4.1-4.69,6.39,12.67,5.26,27.51,5.61,40.13,0,14.92-6.31,26.11-20.3,29.34-36.12,2.27-9.74.86-20-2.58-29.29Z"/>
  </g>
  <g id="_x23_020202ff">
    <path class="st20" d="M899.37,138.55c21.18-.2,42.38-.09,63.57-.06,1.48-.26,1.83,1.29,2.22,2.39-.8,17-.18,34.06-.36,51.09-.08,1.14-.21,2.27-.4,3.4-22.24.13-44.49-.06-66.73.02-.56-2.08-.93-4.22-.86-6.38.01-15.65.02-31.3-.03-46.96-.15-1.52.75-3.65,2.59-3.5M942.51,144.95c.48.6.98,1.2,1.49,1.81.64-.08,1.9-.25,2.54-.33,0-1.02.02-2.04.04-3.05-1.62-.14-3.25,0-4.07,1.57M949.47,143.4c0,1.07.02,2.15.06,3.22,1.51.04,3.08-.12,3.97-1.52-.24-.42-.71-1.25-.94-1.67-1.05,0-2.08-.02-3.09-.03M955.62,145.04c.24,1.8,2.42,1.4,3.75,1.47.07-1.05.15-2.1.23-3.14-1.41.14-4.03-.44-3.98,1.67M901.05,155.98c-.62,11.49.01,23.01-.3,34.51,19.96.21,39.93.1,59.9.02.2-13.2.05-26.41.15-39.62-19.65-.08-39.31-.06-58.96.02-2.17.52-.6,3.5-.79,5.07Z"/>
    <path class="st20" d="M595.57,159.48c2.83-.04,6.23.25,7.88,2.92,2.79,4.35.3,9.85,1.74,14.53.84,1.85,2.73,2.71,4.64,3.03-.25,1.25.82,3.55-.93,4.02-1.76.68-4.11,1.71-4.08,3.94-.57,4.68,1.27,10.11-1.89,14.15-1.83,2.04-4.76,2.09-7.28,2.26-.08-1.29-.16-2.59-.22-3.87,1.96-.6,5.17-.57,5.09-3.44.49-5.1-1.53-12,4.09-14.98-1.97-1.88-4.08-4.05-3.93-7-.62-3.76,1.21-8.19-1.51-11.35-1.1-.13-2.19-.3-3.26-.51-.08-.92-.25-2.77-.34-3.7Z"/>
    <path class="st20" d="M1513.02,412.99c4.81-4.48,10.72-7.77,16.56-10.76,1.18,6.41.67,12.95.71,19.43-2.91-.07-4.69-3.19-7.47-3.29-5.26,10.08-7.29,21.81-5.98,33.08.69,4.17.95,8.41.95,12.64-1.27.72-2.56,1.79-4.1,1.4-.9-4.77-.45-9.66-.54-14.48.16-7.2-.57-14.56,1.49-21.56,1-4.7,3.46-8.86,4.96-13.38-2.28-.86-4.44-1.97-6.58-3.08Z"/>
  </g>
  <g id="_x23_fafafaff">
    <path class="st41" d="M1070.19,138.54c9.15.02,18.32-.2,27.48,0,.01,5.6.01,11.2.03,16.81,5.85.26,11.71-.04,17.57.22-.07,13.23.07,26.46-.07,39.69-14.98-.02-30,.37-44.95-.19-.3-18.84-.19-37.69-.06-56.53M1097.59,162.4c-.04.51-.12,1.53-.16,2.04.95.44,1.91.88,2.89,1.33.33,2.88-1.09,6.81,2.18,8.41-2.92,2.15-1.87,5.84-2.23,8.93-.91.51-1.83,1-2.75,1.44.02.52.06,1.55.08,2.06,2.11.09,4.62.21,5.75-2,.54-2.17.17-4.44.49-6.64.98-1.45,4.32-3.07,2.06-4.89-3.35-1.73-1.72-5.69-2.46-8.67-1.04-2.36-3.72-2.23-5.85-2.01M1082.39,171.46c-1.39,1.1-4.02,2.61-2.12,4.63.52.21,1.57.62,2.09.83.22,2.39.07,4.83.56,7.19.91,2.27,3.57,2.72,5.74,2.49,1.93-1.91-.8-2.63-2.18-3.42-.36-3.06-.04-6.3-2-8.92,2.02-2.43,1.68-5.63,1.79-8.57,1.37-.69,3.51-1.07,3.15-3.23-1.74.12-3.96-.67-5.29.83-2.53,2-.79,5.58-1.74,8.17Z"/>
    <path class="st41" d="M901.05,155.98c.19-1.57-1.38-4.55.79-5.07,19.65-.08,39.31-.1,58.96-.02-.1,13.21.05,26.42-.15,39.62-19.97.08-39.94.19-59.9-.02.31-11.5-.32-23.02.3-34.51M933.67,158.29c-2.56,8.31-5.61,16.47-8.12,24.79-.78,2.16,3.53,1.88,3.56-.03,2.73-7.68,5.17-15.46,7.66-23.21.23-.31.68-.94.91-1.26-1.35-.1-2.69-.21-4.01-.29M918.46,162.31c-3.23,2.69-5.98,5.9-9.03,8.8,3.12,3.27,6.38,6.44,9.66,9.54,1.62.75,2.34-1.22,2.79-2.36-2.79-2.22-5.18-4.86-7.73-7.33,2.67-2.24,5.21-4.63,7.72-7.05-.68-1.01-2.09-2.65-3.41-1.6M940.36,163.14c2.09,3.02,5.05,5.25,7.53,7.92-2.47,2.82-5.39,5.2-7.84,8.03.93.4,2.34,2.66,3.48,1.33,3.19-2.99,6.21-6.18,9.25-9.34-3.12-3.36-6.48-6.47-9.8-9.62-.65.42-1.97,1.26-2.62,1.68Z"/>
    <path class="st41" d="M772.66,176.61c1.92-.14,3.86-.17,5.81-.11-.04,1.6-.07,3.21-.09,4.81-1.77.04-3.53.08-5.27.14-.27-1.6-.38-3.22-.45-4.84Z"/>
  </g>
  <g id="_x23_fbfbfbff">
    <path class="st24" d="M1101.39,140.86c4.1,3.31,7.52,7.36,11.49,10.83-3.82.81-7.75.41-11.6.36.11-3.73.03-7.46.11-11.19Z"/>
  </g>
  <g id="_x23_f9f9f9ff">
    <path class="st25" d="M763.39,142.51c11.43.15,22.87.12,34.31.12-.03,3.88-.08,7.76-.07,11.63-11.44.23-22.87.09-34.31.18.06-3.98.03-7.95.07-11.93M787.14,148.32c0,.33-.01.98-.01,1.31,2.53-.37,5.68.84,7.78-1.02-2.58-.35-5.18-.29-7.77-.29Z"/>
    <path class="st25" d="M792.13,159.52c1.84-.01,3.69-.03,5.55-.05-.04,1.6-.07,3.19-.11,4.79-1.8,0-3.59,0-5.37.03-.35-1.57-.35-3.18-.07-4.77Z"/>
  </g>
  <g id="_x23_ffffffff">
    <path class="st21" d="M942.51,144.95c.82-1.57,2.45-1.71,4.07-1.57-.02,1.01-.04,2.03-.04,3.05-.64.08-1.9.25-2.54.33-.51-.61-1.01-1.21-1.49-1.81Z"/>
    <path class="st21" d="M949.47,143.4c1.01.01,2.04.02,3.09.03.23.42.7,1.25.94,1.67-.89,1.4-2.46,1.56-3.97,1.52-.04-1.07-.06-2.15-.06-3.22Z"/>
    <path class="st21" d="M782.33,172.63c.05-1.64.13-3.27.25-4.9,1.63.01,3.28.01,4.93,0,.13,1.63.22,3.27.31,4.91-1.84,0-3.67,0-5.49,0Z"/>
    <path class="st21" d="M792.05,168.29c1.83-.53,3.73-.46,5.61-.18-.05,1.48-.07,2.96-.07,4.44-1.94,0-3.88,0-5.8,0-.07-1.44.02-2.87.26-4.27Z"/>
    <path class="st21" d="M782.41,185.13c1.75-.36,3.52-.11,5.28.18-.04,1.44-.07,2.89-.08,4.34-1.73.01-3.45.01-5.16.02-.02-1.51-.04-3.03-.04-4.54Z"/>
    <path class="st21" d="M57.42,369.1c4.17-.44,8.37-.17,12.56-.23,27.5-.08,55,.12,82.51-.09.24,10.87.04,21.76.12,32.64,11.07.34,22.14-.07,33.21.2-.04,43.19.06,86.39-.06,129.58-42.76.17-85.52,0-128.28.13-.08-54.08.01-108.15-.06-162.23Z"/>
    <path class="st21" d="M660.46,407.54c10.78-1.73,21.68.23,32.5-.68,39.33-.12,78.67,0,118.01-.04,2.35-.03,4.7.08,7.05.27,24.31-.55,48.65-.16,72.98-.23,7,.78,14.01-.52,21.02.17,1.65.13,3.31.07,4.98,0,5.69.46,11.37-.41,17.07-.22,28.31.11,56.59-.05,84.9.05,48.68-.06,97.36-.03,146.04-.02,4.86-.34,9.97,2.95,10.17,8.14.19,30.01,0,60.04.09,90.06.12,3.52-.19,7.68-3.25,9.99-2.54,2.06-5.94,1.92-9.01,1.87-165.99-.04-331.99-.02-497.98,0-5.83,1.04-11.54-3.96-10.74-9.94.04-30.02.01-60.04.02-90.06-.34-4.04,2.06-8.36,6.15-9.37Z"/>
    <path class="st21" d="M488.53,664.64c1.7-.68,3.57-.77,5.38-.8,152,.11,304.02-.13,456.03.04,55.35-.01,110.69.05,166.04-.04,3.56.08,7.23-.41,10.72.63,3.54,1.22,5.51,4.95,5.5,8.56.09,14.31-.03,28.63.05,42.94-.06,3.65.35,7.5-1.2,10.93-1.47,2.97-4.87,4.56-8.08,4.55-210.31,0-420.62.06-630.93-.02-4.58.01-8.65-3.9-8.65-8.5-.15-16.64-.05-33.3-.05-49.95-.11-3.49,1.85-7.05,5.19-8.34M506.71,682.51c-1.55,4.22-2.76,8.97-1.23,13.39,1.81,7.69,8.56,13.65,16.15,15.38,5.8,1.17,12.14-.03,16.83-3.73,1.44-1.33,2.77.97,4,1.51-.03.65-.1,1.96-.14,2.61,4.41,3.77,8.2,8.19,12.64,11.93,1.94-.88,4.93-2.54,3.57-5.13-3.68-4.06-7.95-7.54-11.64-11.59-2.28.25-4.97-2.36-3.31-4.5,3-5.18,4.69-11.47,2.9-17.36-2.35-7.79-9.43-14.03-17.55-15.07-9.13-1.49-18.65,4.1-22.22,12.56Z"/>
    <path class="st21" d="M450.15,807.7c71.99.04,143.97.06,215.96-.01-.07,17.66-.28,35.33.04,52.99-72.01.09-144.02-.09-216.03.09,0-.45,0-1.34-.01-1.79.02-17.09-.06-34.19.04-51.28Z"/>
    <path class="st21" d="M667.78,807.69c53.28.08,106.57.03,159.86.02.11,17.68-.14,35.36.06,53.04-53.31-.09-106.62,0-159.93-.07-.04-17.67.07-35.33.01-52.99Z"/>
    <path class="st21" d="M1315.73,807.75c107.49-.03,214.99-.05,322.49-.04.1,17.66-.03,35.32.04,52.98-107.5,0-215,.06-322.5-.03-.07-17.64,0-35.28-.03-52.91Z"/>
    <path class="st21" d="M450.1,862.54c71.93,0,143.87.03,215.81.01-.12,20.43.13,40.86.03,61.28-58.62.04-117.25.02-175.87.02-13.29.21-26.61-.45-39.87.35-.21-20.55-.01-41.11-.1-61.66Z"/>
    <path class="st21" d="M667.87,862.56c53.24-.08,106.49.13,159.74-.09-.1,20.61.38,41.27-.25,61.86-1.78-.21-3.55-.47-5.33-.5-51.41.03-102.83.04-154.24-.01.06-20.42-.03-40.84.08-61.26Z"/>
    <path class="st21" d="M829.6,924.38c-.36-20.63-.06-41.26-.14-61.89,161.48.18,322.96-.07,484.44.13.05,20.4-.3,40.82.16,61.21-157.01.05-314.02.01-471.03.03-4.48.05-9-.34-13.43.52Z"/>
    <path class="st21" d="M1315.79,862.63c4.37-.04,8.76-.11,13.14-.11,103.11.11,206.21-.08,309.32.12-.05,20.38.06,40.76-.01,61.14-2.22.06-4.41.18-6.59.31-22.21-.55-44.44-.08-66.65-.23-83.08-.03-166.16.04-249.24-.04.02-20.4-.05-40.8.03-61.19Z"/>
  </g>
  <g id="_x23_fcfcfdff">
    <path class="st32" d="M955.62,145.04c-.05-2.11,2.57-1.53,3.98-1.67-.08,1.04-.16,2.09-.23,3.14-1.33-.07-3.51.33-3.75-1.47Z"/>
  </g>
  <g id="_x23_0b0b0bff">
    <path class="st35" d="M787.14,148.32c2.59,0,5.19-.06,7.77.29-2.1,1.86-5.25.65-7.78,1.02,0-.33.01-.98.01-1.31Z"/>
    <path class="st35" d="M166.7,372.92c6.34,6.01,12.28,12.43,18.59,18.48.75.73,1.5,1.46,2.26,2.19-1.5.94-3.01,1.89-4.57,2.72-7.37-6.71-14.27-13.92-21.38-20.89,1.7-.84,3.4-1.67,5.1-2.5Z"/>
    <path class="st35" d="M396.15,598.93c.09-5.97,5.27-10.68,11.02-11.28l-.25,1.87c-5.14.62-9,5.29-8.74,10.45-.05,56.03-.07,112.06,0,168.09-.59,5.58,4.03,11.16,9.8,10.78,263.01,0,526.02-.03,789.03,0,5.25-.16,10.78.77,15.72-1.54.48.09,1.44.28,1.92.37-3.31,3.36-8.32,3.29-12.68,3.16-262.65.01-525.31-.01-787.96.03-3.83-.12-7.92.53-11.43-1.38-4-1.81-6.4-6.15-6.4-10.46-.15-28.99-.01-57.99-.06-86.99-.2-3.35-.61-6.7-.08-10.04.17-24.35-.02-48.71.12-73.06Z"/>
    <path class="st35" d="M665.91,862.55c.65-.01,1.3,0,1.96.01-.11,20.42-.02,40.84-.08,61.26,51.41.05,102.83.04,154.24.01,1.78.03,3.55.29,5.33.5.73.05,1.48.07,2.24.05,4.43-.86,8.95-.47,13.43-.52,157.01-.02,314.02.02,471.03-.03-.46-20.39-.11-40.81-.16-61.21.47,0,1.42.01,1.89.01-.08,20.39-.01,40.79-.03,61.19,83.08.08,166.16.01,249.24.04,22.21.15,44.44-.32,66.65.23,2.8.57,5.64.93,8.51,1.29-1.94.85-4.12.38-6.13.49-440,.01-879.99-.02-1319.99.01-3.16-.01-6.35.16-9.49-.31.52-.33,1.57-1,2.09-1.33,12.07-.84,24.21-.17,36.31-.39,26.34.03,52.68,0,79.01.01,8.71.18,17.44-.41,26.12.39.23.01.7.03.93.04.29-.02.89-.07,1.19-.09,13.26-.8,26.58-.14,39.87-.35,58.62,0,117.25.02,175.87-.02.1-20.42-.15-40.85-.03-61.28Z"/>
  </g>
  <g id="_x23_050505ff">
    <path class="st22" d="M485.63,163.4c1.58-3.23,5.47-4.12,8.77-3.9-.17,1.25-.34,2.52-.53,3.78-1.64.15-3.38.27-4.36,1.79-.78,3.67.08,7.46-.43,11.15-.41,2.43-2.37,4-3.97,5.68,1.03,1.2,2.41,2.15,3.16,3.58,1.75,3.96.49,8.35,1.1,12.5.65,2.08,3.2,2.06,4.92,2.72-.01.98,0,1.96.02,2.94-3.32,1.31-7.57-.18-8.9-3.59-1.57-4.33-.05-9.04-1.08-13.45-.92-2.02-3.12-2.61-5.02-3.28.06-1.15.13-2.3.22-3.45,2.1-.42,4.52-1.4,5.04-3.74.62-4.22-.62-8.68,1.06-12.73Z"/>
    <path class="st22" d="M940.36,163.14c.65-.42,1.97-1.26,2.62-1.68,3.32,3.15,6.68,6.26,9.8,9.62-3.04,3.16-6.06,6.35-9.25,9.34-1.14,1.33-2.55-.93-3.48-1.33,2.45-2.83,5.37-5.21,7.84-8.03-2.48-2.67-5.44-4.9-7.53-7.92Z"/>
  </g>
  <g id="_x23_f4f5f5ff">
    <path class="st28" d="M763.44,159.3c1.95.04,3.9.09,5.86.15-.01,1.46-.01,2.92.01,4.38-1.93.4-3.92.44-5.88.47-.02-1.67-.01-3.33.01-5Z"/>
  </g>
  <g id="_x23_f6f7f6ff">
    <path class="st44" d="M782.46,159.43c1.73.01,3.46.01,5.21,0-.02,1.61-.02,3.23-.02,4.84-1.71-.02-3.41-.03-5.1-.02-.06-1.61-.09-3.21-.09-4.82Z"/>
  </g>
  <g id="_x23_070707ff">
    <path class="st42" d="M918.46,162.31c1.32-1.05,2.73.59,3.41,1.6-2.51,2.42-5.05,4.81-7.72,7.05,2.55,2.47,4.94,5.11,7.73,7.33-.45,1.14-1.17,3.11-2.79,2.36-3.28-3.1-6.54-6.27-9.66-9.54,3.05-2.9,5.8-6.11,9.03-8.8Z"/>
  </g>
  <g id="_x23_6a6b6cff">
    <path class="st37" d="M772.88,167.92c1.74-1.06,4-.27,5.91,0-.05,1.64-.08,3.27-.1,4.91-2.07.03-4.13.01-6.19-.1.11-1.6-.16-3.28.38-4.82M773.06,168.32c.01,1,.02,3,.03,3.99,1.69.03,3.38.04,5.1.05v-4.02c-1.72-.07-3.43-.07-5.13-.02Z"/>
  </g>
  <g id="_x23_f4f4f6ff">
    <path class="st36" d="M763.56,167.8c1.62-.02,3.24-.05,4.88-.1.56,1.55.81,3.17.92,4.81-2.01.04-4.03.05-6.03.05.06-1.59.13-3.18.23-4.76Z"/>
  </g>
  <g id="_x23_f2f4f3ff">
    <path class="st40" d="M773.06,168.32c1.7-.05,3.41-.05,5.13.02v4.02c-1.72,0-3.41-.02-5.1-.05-.01-.99-.02-2.99-.03-3.99Z"/>
  </g>
  <g id="_x23_f2f1f2ff">
    <path class="st18" d="M763.47,176.4c1.94.03,3.88.08,5.83.16-.05,1.58-.06,3.17-.07,4.75-1.95.02-3.91.04-5.85.08,0-1.67.03-3.33.09-4.99Z"/>
  </g>
  <g id="_x23_f7f7f7ff">
    <path class="st47" d="M782.38,176.49c1.75-.02,3.51-.03,5.27-.05-.01,1.64-.02,3.28-.02,4.93-1.73-.02-3.43-.02-5.14-.02-.07-1.62-.1-3.24-.11-4.86Z"/>
  </g>
  <g id="_x23_f5f6f6ff">
    <path class="st27" d="M792.27,176.46c1.75,0,3.51,0,5.28.02.01,4.37.07,8.74-.05,13.11-1.89-.04-3.75-.07-5.62-.11-.01-4.35-.14-8.7.39-13.02Z"/>
  </g>
  <g id="_x23_838484ff">
    <path class="st34" d="M763.29,184.49c2.01.02,4.04.06,6.06.1.11,1.7.21,3.4.31,5.1-2.21.12-4.41.17-6.6.16-.22-1.8-.18-3.6.23-5.36M763.74,185.38c-.01,1-.04,3-.05,4,1.76-.02,3.54-.05,5.32-.11-.14-1.33-.27-2.66-.4-3.99-1.63.03-3.26.06-4.87.1Z"/>
  </g>
  <g id="_x23_feffffff">
    <path class="st46" d="M773.2,184.61c1.64.07,3.31.06,4.96.26.39,1.55.29,3.16.38,4.75-1.98.03-3.94.03-5.89-.02.05-1.68.13-3.36.55-4.99Z"/>
  </g>
  <g id="_x23_f8f8f8ff">
    <path class="st43" d="M763.74,185.38c1.61-.04,3.24-.07,4.87-.1.13,1.33.26,2.66.4,3.99-1.78.06-3.56.09-5.32.11.01-1,.04-3,.05-4Z"/>
    <path class="st43" d="M157.81,396.38c.32-8.17-.51-16.39.45-24.52,1.1,1.19,2.2,2.39,3.34,3.56,7.11,6.97,14.01,14.18,21.38,20.89-8.39.24-16.78.2-25.17.07Z"/>
  </g>
  <g id="_x23_060606ff">
    <path class="st23" d="M52.3,364.16c.42-.12,1.25-.35,1.66-.46,34.42-.17,68.84.02,103.25-.1,3.36,2.9,6.25,6.3,9.49,9.32-1.7.83-3.4,1.66-5.1,2.5-1.14-1.17-2.24-2.37-3.34-3.56-.96,8.13-.13,16.35-.45,24.52,8.39.13,16.78.17,25.17-.07,1.56-.83,3.07-1.78,4.57-2.72,1.16,1.13,2.33,2.25,3.5,3.38.11,45.95.04,91.91.03,137.86l-.03,1.47c-46.27.14-92.54.15-138.81-.01-.15-32.44-.05-64.88-.05-97.33.1-24.93-.19-49.88.11-74.8M57.42,369.1c.07,54.08-.02,108.15.06,162.23,42.76-.13,85.52.04,128.28-.13.12-43.19.02-86.39.06-129.58-11.07-.27-22.14.14-33.21-.2-.08-10.88.12-21.77-.12-32.64-27.51.21-55.01.01-82.51.09-4.19.06-8.39-.21-12.56.23Z"/>
    <path class="st23" d="M660.44,405.6c13.81-.68,27.69-.22,41.52-.35,153.34-.02,306.67-.03,460.01-.01,3.89-.02,8.38-.55,11.48,2.36,3.71,2.92,3.69,8.08,3.75,12.37-.02,29.34-.04,58.69,0,88.04-.07,4.02-2.4,8.08-6.16,9.72-2.5,1.2-5.33.99-8,1.06-166.37.05-332.74,0-499.11-.02-6.11.51-11.8-4.61-11.52-10.82-.02-30.64.05-61.27,0-91.91-.28-4.86,3.25-9.5,8.03-10.44M660.46,407.54c-4.09,1.01-6.49,5.33-6.15,9.37-.01,30.02.02,60.04-.02,90.06-.8,5.98,4.91,10.98,10.74,9.94,165.99-.03,331.99-.05,497.98,0,3.07.05,6.47.19,9.01-1.87,3.06-2.31,3.37-6.47,3.25-9.99-.09-30.02.1-60.05-.09-90.06-.2-5.19-5.31-8.48-10.17-8.14-48.68-.01-97.36-.04-146.04.02-28.31-.1-56.59.06-84.9-.05-5.7-.19-11.38.68-17.07.22-1.67.07-3.33.13-4.98,0-7.01-.69-14.02.61-21.02-.17-24.33.07-48.67-.32-72.98.23-2.35-.19-4.7-.3-7.05-.27-39.34.04-78.68-.08-118.01.04-10.82.91-21.72-1.05-32.5.68Z"/>
  </g>
  <g id="_x23_030303ff">
    <path class="st30" d="M526.08,378.08c1.19-3.79,6.81-4.58,8.84-1.1,1.78,2.5-.33,5.11-2.36,6.59-.03,2.72-.01,5.43-.03,8.15,6.82.23,13.65-.17,20.46.14,4.11.25,7.62,3.98,7.42,8.13.11,10.67,0,21.34.04,32.01.14,3.45-3.16,6.44-6.54,6.27-15.66,0-31.31.14-46.96-.04-2.56.04-4.11-2.27-5.46-4.08.03-11.38.05-22.75.02-34.12-.4-4.21,3.33-7.95,7.43-8.19,6.58-.23,13.17-.1,19.76-.08-.01-2.69.02-5.38-.05-8.06-1.53-1.36-3.78-3.36-2.57-5.62M511.8,408.19c-.44,3.97,4.48,7.64,8.05,5.34,2.62-1.09,2.88-4.16,2.8-6.62-1.59-2.31-4-3.77-6.87-3.55-1.64,1.29-3.61,2.6-3.98,4.83M542.14,404.21c-3.26,1.37-4.65,6-1.7,8.43,3.01,3.57,9.01.56,9.05-3.7.11-3.44-4.19-6.61-7.35-4.73M511.57,424.52c-.03,1.02-.09,3.04-.12,4.06l1.09.26-.38-.03c3.15,1.3,6.57.39,9.86.66,8.62.01,17.25.13,25.87-.04,2.58-.09,1.61-3.26,1.87-4.95-1.35.05-2.68.13-4,.23-11.38-.37-22.8-.43-34.19-.19Z"/>
    <path class="st30" d="M1534.21,396.9c5.91-4.6,13.4-6.68,20.62-8.22,9.92-1.1,20.34-1.03,29.69,2.92,4.84,1.73,8.94,4.87,13.37,7.39,1.4-2.01,2.89-3.96,4.37-5.93,2.71,3.53,3.66,8.01,5.42,12.03.69,1.9,1.89,4.74,0,6.3-4.54,2.26-9.34-1.15-13.78-2.15-1.34-.58-2.71-1.15-4.01-1.71,1.36-2.08,3.6-3.41,4.93-5.5-.06-1.39-1.79-1.72-2.62-2.53-6.32-4.25-13.64-6.64-21.13-7.73-11.82-1.34-24.39.95-34.26,7.78-.87-.88-1.8-1.78-2.61-2.65Z"/>
  </g>
  <g id="_x23_f5f5f6ff">
    <path class="st26" d="M185.29,391.4c1.17-.84,2.35-1.66,3.54-2.47.49,1.15.98,2.31,1.48,3.48,1.04.04,2.08.08,3.13.13.04.67.09,1.34.14,2.02,4.21,2.34,3.3,7.45,3.33,11.47-.05,42.32.04,84.65-.01,126.97.19,1.55-.85,2.78-2.08,3.57-1.31-.45-2.52-1.13-3.74-1.74,0-45.95.08-91.91-.03-137.86-1.17-1.13-2.34-2.25-3.5-3.38-.76-.73-1.51-1.46-2.26-2.19Z"/>
  </g>
  <g id="_x23_f6f6f6ff">
    <path class="st19" d="M511.8,408.19c.37-2.23,2.34-3.54,3.98-4.83,2.87-.22,5.28,1.24,6.87,3.55.08,2.46-.18,5.53-2.8,6.62-3.57,2.3-8.49-1.37-8.05-5.34Z"/>
  </g>
  <g id="_x23_f9fafaff">
    <path class="st45" d="M542.14,404.21c3.16-1.88,7.46,1.29,7.35,4.73-.04,4.26-6.04,7.27-9.05,3.7-2.95-2.43-1.56-7.06,1.7-8.43Z"/>
  </g>
  <g id="_x23_050404ff">
    <path class="st33" d="M492.91,409.94c.52-2.77,3.36-2.65,5.56-2.51,0,5.48-.06,10.96.02,16.45-2.38.19-4.9-.08-5.89-2.58.3-3.79-.14-7.6.31-11.36Z"/>
  </g>
  <g id="_x23_fcfcfcff">
    <path class="st17" d="M511.57,424.52c11.39-.24,22.81-.18,34.19.19,1.86.69,2.59,2.61,3.37,4.26-12.2-.04-24.4.24-36.59-.13l-1.09-.26c.03-1.02.09-3.04.12-4.06Z"/>
  </g>
  <g id="_x23_050605ff">
    <path class="st31" d="M506.71,682.51c3.57-8.46,13.09-14.05,22.22-12.56,8.12,1.04,15.2,7.28,17.55,15.07,1.79,5.89.1,12.18-2.9,17.36-1.66,2.14,1.03,4.75,3.31,4.5,3.69,4.05,7.96,7.53,11.64,11.59,1.36,2.59-1.63,4.25-3.57,5.13-4.44-3.74-8.23-8.16-12.64-11.93.04-.65.11-1.96.14-2.61-1.23-.54-2.56-2.84-4-1.51-4.69,3.7-11.03,4.9-16.83,3.73-7.59-1.73-14.34-7.69-16.15-15.38-1.53-4.42-.32-9.17,1.23-13.39M520.14,674.67c-6.1,2.23-10.39,7.96-11.46,14.29-.26,5.41,1.86,10.89,5.87,14.56,5.3,4.8,13.67,5.53,19.84,2,4.74-2.47,7.66-7.37,9-12.4.51-5.84-1.74-11.98-6.37-15.68-4.61-3.78-11.31-5.15-16.88-2.77Z"/>
  </g>
  <g id="editable-times-new-roman-text">
    <text class="st0" transform="translate(39.87 347)"><tspan x="0" y="0">Model Output</tspan></text>
    <text class="st11" transform="translate(70 425)"><tspan x="0" y="0">&lt;think&gt;...</tspan></text>
    <text class="st11" transform="translate(70 459)"><tspan x="0" y="0">...</tspan></text>
    <text class="st11" transform="translate(70 491)"><tspan x="0" y="0">&lt;answer&gt;...</tspan></text>
    <text class="st11" transform="translate(70 524)"><tspan x="0" y="0">...</tspan></text>
    <text class="st15" transform="translate(668.13 45)"><tspan x="0" y="0">Rule-based Reward</tspan></text>
    <text class="st10" transform="translate(667.96 76)"><tspan x="0" y="0">(Hard Validation Layer)</tspan></text>
    <text class="st12" transform="translate(497.78 123)"><tspan x="0" y="0">Extractor</tspan></text>
    <text class="st14" transform="translate(500.25 198)"><tspan x="0" y="0">regex</tspan></text>
    <text class="st12" transform="translate(892.52 123)"><tspan x="0" y="0">Validator</tspan></text>
    <text class="st9" transform="translate(754.67 221)"><tspan x="0" y="0">Math</tspan></text>
    <text class="st9" transform="translate(738 246)"><tspan x="0" y="0">(Sympy)</tspan></text>
    <text class="st9" transform="translate(905.67 221)"><tspan x="0" y="0">Code</tspan></text>
    <text class="st9" transform="translate(879.07 246)"><tspan x="0" y="0">(Unit Test)</tspan></text>
    <text class="st9" transform="translate(1055.34 221)"><tspan x="0" y="0">Format</tspan></text>
    <text class="st9" transform="translate(1023.33 246)"><tspan x="0" y="0">(JSON/XML)</tspan></text>
    <text class="st5" transform="translate(552.87 291)"><tspan x="0" y="0">Features: High reliability, low cost, strong determinism</tspan></text>
    <text class="st2" transform="translate(1237 140)"><tspan x="0" y="0">Deterministic Score</tspan></text>
    <text class="st8" transform="translate(651.65 359)"><tspan x="0" y="0">Model-based Reward</tspan></text>
    <text class="st10" transform="translate(678.16 391)"><tspan x="0" y="0">(Soft Semantic Layer)</tspan></text>
    <text class="st7" transform="translate(456.14 467)"><tspan x="0" y="0">Judge Model</tspan></text>
    <text class="st6" transform="translate(431.99 500)"><tspan x="0" y="0">(LLM-as-a-Judge)</tspan></text>
    <text class="st13" transform="translate(690 438)"><tspan x="0" y="0">Prompt, model response, reference answer</tspan></text>
    <text class="st13" transform="translate(690 477)"><tspan x="0" y="0">Evaluation items: autonomy, hallucination,</tspan></text>
    <text class="st13" transform="translate(830.9 510)"><tspan x="0" y="0">tone, logic</tspan></text>
    <text class="st5" transform="translate(426.69 551)"><tspan x="0" y="0">Features: broad coverage, high flexibility (beware length bias and reward hacking)</tspan></text>
    <text class="st2" transform="translate(1237 431)"><tspan x="0" y="0">Probabilistic Score</tspan></text>
    <text class="st4" transform="translate(1250 462)"><tspan x="0" y="0">(Reward Model)</tspan></text>
    <text class="st8" transform="translate(707.32 622)"><tspan x="0" y="0">Human Audit</tspan></text>
    <text class="st10" transform="translate(667.7 653)"><tspan x="0" y="0">(Manual Review Layer)</tspan></text>
    <text class="st9" transform="translate(573 708)"><tspan x="0" y="0">Controversial Sample Sampling (Disputed Samples)</tspan></text>
    <text class="st1" transform="translate(436.83 762)"><tspan x="0" y="0">Function: final ground-truth defense line, calibrate the reward model, fix validator loopholes</tspan></text>
    <text class="st2" transform="translate(1237 661)"><tspan x="0" y="0">Calibration Signal</tspan></text>
    <text class="st7" transform="translate(1480.81 337)"><tspan x="0" y="0">Final Reward</tspan></text>
    <text class="st7" transform="translate(1522.32 368)"><tspan x="0" y="0">Signal</tspan></text>
    <text class="st11" transform="translate(1553.64 438.53)"><tspan x="0" y="0">RL</tspan></text>
    <text class="st9" transform="translate(1517.55 467.15)"><tspan x="0" y="0">Algorithm</tspan></text>
    <text class="st9" transform="translate(1518.67 537)"><tspan x="0" y="0">e.g., 0.9</tspan></text>
    <text class="st7" transform="translate(30 863)"><tspan x="0" y="0">Data Record Structure</tspan></text>
    <text class="st0" transform="translate(340.51 846)"><tspan x="0" y="0">Score:</tspan></text>
    <text class="st0" transform="translate(517.5 846)"><tspan x="0" y="0">Source</tspan></text>
    <text class="st0" transform="translate(696.25 846)"><tspan x="0" y="0">Pass/Fail</tspan></text>
    <text class="st0" transform="translate(1027.5 846)"><tspan x="0" y="0">Reason:</tspan></text>
    <text class="st0" transform="translate(1412.52 846)"><tspan x="0" y="0">Metadata</tspan></text>
    <text class="st6" transform="translate(354.25 903)"><tspan x="0" y="0">$0.9</tspan></text>
    <text class="st6" transform="translate(488.74 903)"><tspan x="0" y="0">Rule: Sympy</tspan></text>
    <text class="st3" transform="translate(715.99 903)"><tspan x="0" y="0">PASS</tspan></text>
    <text class="st6" transform="translate(868.09 903)"><tspan x="0" y="0">Expression simplified and matched GT.</tspan></text>
    <text class="st6" transform="translate(1331.89 903)"><tspan x="0" y="0">Validator version, runtime</tspan></text>
  </g>
</svg>