<svg width="901" height="913" xmlns="http://www.w3.org/2000/svg" xmlns:xlink="http://www.w3.org/1999/xlink" overflow="hidden"><defs><filter id="fx0" x="-10%" y="-10%" width="120%" height="120%" filterUnits="userSpaceOnUse" primitiveUnits="userSpaceOnUse"><feComponentTransfer color-interpolation-filters="sRGB"><feFuncR type="discrete" tableValues="0 0"/><feFuncG type="discrete" tableValues="0 0"/><feFuncB type="discrete" tableValues="0 0"/><feFuncA type="linear" slope="0.34902" intercept="0"/></feComponentTransfer><feGaussianBlur stdDeviation="1.39983 1.39983"/></filter><filter id="fx1" x="-10%" y="-10%" width="120%" height="120%" filterUnits="userSpaceOnUse" primitiveUnits="userSpaceOnUse"><feComponentTransfer color-interpolation-filters="sRGB"><feFuncR type="discrete" tableValues="0 0"/><feFuncG type="discrete" tableValues="0 0"/><feFuncB type="discrete" tableValues="0 0"/><feFuncA type="linear" slope="0.34902" intercept="0"/></feComponentTransfer><feGaussianBlur stdDeviation="1.39983 1.39983"/></filter><filter id="fx2" x="-10%" y="-10%" width="120%" height="120%" filterUnits="userSpaceOnUse" primitiveUnits="userSpaceOnUse"><feComponentTransfer color-interpolation-filters="sRGB"><feFuncR type="discrete" tableValues="0 0"/><feFuncG type="discrete" tableValues="0 0"/><feFuncB type="discrete" tableValues="0 0"/><feFuncA type="linear" slope="0.34902" intercept="0"/></feComponentTransfer><feGaussianBlur stdDeviation="1.39983 1.39983"/></filter><filter id="fx3" x="-10%" y="-10%" width="120%" height="120%" filterUnits="userSpaceOnUse" primitiveUnits="userSpaceOnUse"><feComponentTransfer color-interpolation-filters="sRGB"><feFuncR type="discrete" tableValues="0 0"/><feFuncG type="discrete" tableValues="0 0"/><feFuncB type="discrete" tableValues="0 0"/><feFuncA type="linear" slope="0.34902" intercept="0"/></feComponentTransfer><feGaussianBlur stdDeviation="1.39983 1.39983"/></filter><filter id="fx4" x="-10%" y="-10%" width="120%" height="120%" filterUnits="userSpaceOnUse" primitiveUnits="userSpaceOnUse"><feComponentTransfer color-interpolation-filters="sRGB"><feFuncR type="discrete" tableValues="0 0"/><feFuncG type="discrete" tableValues="0 0"/><feFuncB type="discrete" tableValues="0 0"/><feFuncA type="linear" slope="0.34902" intercept="0"/></feComponentTransfer><feGaussianBlur stdDeviation="1.39983 1.39983"/></filter><filter id="fx5" x="-10%" y="-10%" width="120%" height="120%" filterUnits="userSpaceOnUse" primitiveUnits="userSpaceOnUse"><feComponentTransfer color-interpolation-filters="sRGB"><feFuncR type="discrete" tableValues="0 0"/><feFuncG type="discrete" tableValues="0 0"/><feFuncB type="discrete" tableValues="0 0"/><feFuncA type="linear" slope="0.34902" intercept="0"/></feComponentTransfer><feGaussianBlur stdDeviation="1.39983 1.39983"/></filter><filter id="fx6" x="-10%" y="-10%" width="120%" height="120%" filterUnits="userSpaceOnUse" primitiveUnits="userSpaceOnUse"><feComponentTransfer color-interpolation-filters="sRGB"><feFuncR type="discrete" tableValues="0 0"/><feFuncG type="discrete" tableValues="0 0"/><feFuncB type="discrete" tableValues="0 0"/><feFuncA type="linear" slope="0.34902" intercept="0"/></feComponentTransfer><feGaussianBlur stdDeviation="1.39983 1.39983"/></filter><filter id="fx7" x="-10%" y="-10%" width="120%" height="120%" filterUnits="userSpaceOnUse" primitiveUnits="userSpaceOnUse"><feComponentTransfer color-interpolation-filters="sRGB"><feFuncR type="discrete" tableValues="0 0"/><feFuncG type="discrete" tableValues="0 0"/><feFuncB type="discrete" tableValues="0 0"/><feFuncA type="linear" slope="0.34902" intercept="0"/></feComponentTransfer><feGaussianBlur stdDeviation="1.39983 1.39983"/></filter><filter id="fx8" x="-10%" y="-10%" width="120%" height="120%" filterUnits="userSpaceOnUse" primitiveUnits="userSpaceOnUse"><feComponentTransfer color-interpolation-filters="sRGB"><feFuncR type="discrete" tableValues="0 0"/><feFuncG type="discrete" tableValues="0 0"/><feFuncB type="discrete" tableValues="0 0"/><feFuncA type="linear" slope="0.34902" intercept="0"/></feComponentTransfer><feGaussianBlur stdDeviation="1.39983 1.39983"/></filter><filter id="fx9" x="-10%" y="-10%" width="120%" height="120%" filterUnits="userSpaceOnUse" primitiveUnits="userSpaceOnUse"><feComponentTransfer color-interpolation-filters="sRGB"><feFuncR type="discrete" tableValues="0 0"/><feFuncG type="discrete" tableValues="0 0"/><feFuncB type="discrete" tableValues="0 0"/><feFuncA type="linear" slope="0.34902" intercept="0"/></feComponentTransfer><feGaussianBlur stdDeviation="1.39983 1.39983"/></filter><filter id="fx10" x="-10%" y="-10%" width="120%" height="120%" filterUnits="userSpaceOnUse" primitiveUnits="userSpaceOnUse"><feComponentTransfer color-interpolation-filters="sRGB"><feFuncR type="discrete" tableValues="0 0"/><feFuncG type="discrete" tableValues="0 0"/><feFuncB type="discrete" tableValues="0 0"/><feFuncA type="linear" slope="0.34902" intercept="0"/></feComponentTransfer><feGaussianBlur stdDeviation="1.39983 1.39983"/></filter><filter id="fx11" x="-10%" y="-10%" width="120%" height="120%" filterUnits="userSpaceOnUse" primitiveUnits="userSpaceOnUse"><feComponentTransfer color-interpolation-filters="sRGB"><feFuncR type="discrete" tableValues="0 0"/><feFuncG type="discrete" tableValues="0 0"/><feFuncB type="discrete" tableValues="0 0"/><feFuncA type="linear" slope="0.34902" intercept="0"/></feComponentTransfer><feGaussianBlur stdDeviation="1.39983 1.39983"/></filter><clipPath id="clip12"><rect x="29" y="25" width="901" height="913"/></clipPath><clipPath id="clip13"><path d="M480.5 29.5001 458.012 30.0611 435.579 31.7431 413.258 34.5418 391.104 38.45 369.173 43.4584 347.518 49.5542 326.194 56.7224 305.254 64.9452 284.749 74.202 264.731 84.4701 245.249 95.7236 226.353 107.935 208.088 121.073 190.5 135.106 378.692 359.5 384.866 354.574 391.278 349.961 397.912 345.674 404.751 341.724 411.779 338.119 418.977 334.869 426.329 331.982 433.815 329.466 441.417 327.326 449.116 325.568 456.894 324.196 464.73 323.213 472.605 322.623 480.5 322.426 488.395 322.623 496.27 323.213 504.106 324.196 511.884 325.568 519.583 327.326 527.185 329.466 534.671 331.982 542.023 334.869 549.221 338.119 556.249 341.724 563.088 345.674 569.722 349.961 576.134 354.574 582.309 359.5 770.5 135.106 752.912 121.073 734.648 107.935 715.751 95.7236 696.269 84.4701 676.251 74.202 655.746 64.9452 634.806 56.7224 613.482 49.5542 591.827 43.4584 569.896 38.45 547.742 34.5418 525.421 31.7431 502.989 30.0611ZM29 25 930 25 930 938 29 938Z" fill-rule="evenodd" clip-rule="evenodd"/></clipPath><clipPath id="clip14"><rect x="1" y="1" width="593" height="345"/></clipPath><clipPath id="clip15"><path d="M825.481 201.5 603.5 380.857 608.208 386.955 612.613 393.274 616.705 399.799 620.475 406.516 623.913 413.406 627.011 420.456 629.762 427.647 632.16 434.963 634.198 442.387 635.872 449.901 637.179 457.487 638.114 465.128 638.676 472.805 638.864 480.5 638.676 488.195 638.114 495.872 637.179 503.513 635.872 511.099 634.198 518.613 632.16 526.037 629.762 533.353 627.011 540.544 623.913 547.594 620.475 554.485 616.705 561.201 612.613 567.726 608.208 574.045 603.5 580.143 825.481 759.5 838.663 742.426 850.997 724.732 862.455 706.461 873.01 687.657 882.636 668.362 891.311 648.624 899.014 628.488 905.728 608.003 911.435 587.216 916.124 566.177 919.782 544.936 922.401 523.542 923.975 502.046 924.5 480.5 923.975 458.954 922.401 437.458 919.782 416.064 916.124 394.823 911.435 373.784 905.728 352.997 899.014 332.512 891.311 312.376 882.636 292.638 873.01 273.343 862.455 254.539 850.997 236.268 838.663 218.575ZM29 25 930 25 930 938 29 938Z" fill-rule="evenodd" clip-rule="evenodd"/></clipPath><clipPath id="clip16"><rect x="-1" y="1" width="337" height="573"/></clipPath><clipPath id="clip17"><path d="M378.609 601.5 191.5 824.369 209.027 838.339 227.229 851.418 246.061 863.574 265.475 874.777 285.424 884.999 305.858 894.214 326.726 902.4 347.977 909.536 369.557 915.605 391.413 920.59 413.49 924.481 435.734 927.267 458.089 928.941 480.5 929.5 502.911 928.941 525.266 927.267 547.51 924.481 569.587 920.59 591.443 915.605 613.023 909.536 634.274 902.4 655.142 894.214 675.576 884.999 695.525 874.777 714.94 863.574 733.771 851.418 751.973 838.339 769.5 824.369 582.391 601.5 576.212 606.425 569.794 611.037 563.155 615.323 556.31 619.272 549.277 622.876 542.073 626.125 534.715 629.011 527.223 631.527 519.615 633.667 511.909 635.424 504.125 636.796 496.283 637.778 488.401 638.369 480.5 638.566 472.599 638.369 464.717 637.778 456.875 636.796 449.091 635.424 441.385 633.667 433.777 631.527 426.285 629.011 418.928 626.125 411.723 622.876 404.69 619.272 397.845 615.323 391.206 611.037 384.788 606.425ZM29 25 930 25 930 938 29 938Z" fill-rule="evenodd" clip-rule="evenodd"/></clipPath><clipPath id="clip18"><rect x="1" y="1" width="591" height="343"/></clipPath><clipPath id="clip19"><path d="M135.437 200.5 122.266 217.636 109.942 235.393 98.4934 253.729 87.9475 272.601 78.3294 291.964 69.6615 311.773 61.9646 331.981 55.2568 352.54 49.5538 373.401 44.8694 394.516 41.2143 415.833 38.5973 437.304 37.0247 458.876 36.5001 480.5 37.0247 502.124 38.5973 523.696 41.2143 545.167 44.8694 566.484 49.5538 587.599 55.2568 608.46 61.9646 629.019 69.6615 649.227 78.3294 669.036 87.9475 688.399 98.4934 707.271 109.942 725.608 122.266 743.364 135.437 760.5 357.5 580.284 352.806 574.177 348.414 567.849 344.334 561.315 340.576 554.589 337.148 547.689 334.06 540.629 331.317 533.428 328.926 526.101 326.894 518.667 325.224 511.142 323.922 503.545 322.989 495.894 322.429 488.206 322.242 480.5 322.429 472.794 322.989 465.106 323.922 457.455 325.224 449.858 326.894 442.333 328.926 434.899 331.317 427.572 334.06 420.371 337.148 413.311 340.576 406.411 344.334 399.685 348.414 393.151 352.806 386.823 357.5 380.716ZM29 25 930 25 930 938 29 938Z" fill-rule="evenodd" clip-rule="evenodd"/></clipPath><clipPath id="clip20"><rect x="1" y="1" width="335" height="575"/></clipPath><clipPath id="clip21"><path d="M791.544 173.141 791.938 173.755 791.728 173.662ZM752.971 150.065C735.094 149.373 713.743 155.94 693.154 169.931 688.233 173.274 683.483 176.966 678.972 180.951L694.069 198.037C722.565 172.859 757.485 161.932 782.079 169.41L791.728 173.662 794.54 181.602C799.091 201.554 790.998 227.698 771.65 251.41L764.102 242.867 763.332 276.43 794.294 277.04 786.746 268.497C812.544 236.88 818.332 200.941 800.819 181.12L785.723 164.034C787.912 166.511 789.737 169.241 791.204 172.182L791.544 173.141 785.541 163.803C777.831 155.186 766.378 150.584 752.971 150.065ZM29 25 930 25 930 938 29 938Z" fill-rule="evenodd" clip-rule="evenodd"/></clipPath><clipPath id="clip22"><rect x="1" y="-1" width="145" height="141"/></clipPath><clipPath id="clip23"><rect x="0" y="0" width="145" height="140"/></clipPath><clipPath id="clip24"><path d="M776.17 798.346 775.826 798.555 775.894 798.434ZM777.683 687.342 760.54 700.928C783.435 729.819 791.216 764.844 781.211 788.945L775.894 798.434 767.025 801.275C746.72 805.369 721.331 796.876 699.344 777.333L707.915 770.54 675.703 768.157 673.629 797.711 682.2 790.918C711.517 816.975 746.881 823.389 768.178 806.512L785.321 792.927C782.659 795.037 779.777 796.782 776.714 798.171L776.17 798.346 786.178 792.251C807.461 774.489 808.536 736.414 786.863 700.557 784.102 695.988 781.029 691.564 777.683 687.342ZM29 25 930 25 930 938 29 938Z" fill-rule="evenodd" clip-rule="evenodd"/></clipPath><clipPath id="clip25"><rect x="1" y="1" width="141" height="141"/></clipPath><clipPath id="clip26"><rect x="0" y="0" width="142" height="142"/></clipPath><clipPath id="clip27"><path d="M158.814 788.209 159.332 789.04 159.212 788.896ZM153.942 779.804 158.814 788.209 154.298 780.962ZM153.509 779.057 153.745 779.164 153.942 779.804ZM155.354 677.181 162.637 685.951C135.75 716.603 128.4 751.789 144.766 771.499L159.212 788.896 159.266 788.989C175.879 809.16 213.683 808.255 250.404 784.924 255.584 781.632 260.604 777.972 265.387 774.001L250.822 756.46C221.717 780.628 186.964 790.874 163.047 783.371L153.745 779.164 151.438 771.668C147.861 752.02 157.037 726.481 177.202 703.492L184.485 712.263 186.321 678.784ZM29 25 930 25 930 938 29 938Z" fill-rule="evenodd" clip-rule="evenodd"/></clipPath><clipPath id="clip28"><rect x="-1" y="1" width="143" height="139"/></clipPath><clipPath id="clip29"><rect x="0" y="0" width="142" height="139"/></clipPath><clipPath id="clip30"><path d="M176.149 170.757 173.309 172.201 174.037 171.538ZM181.754 168.687 176.149 170.757 179.448 169.08ZM183.179 168.16 183.07 168.462 181.754 168.687ZM206.065 154.189C200.241 154.41 195.04 156.045 190.743 159.197L172.359 172.684 173.309 172.201 167.218 177.754C155.923 192.794 158.73 222.774 176.594 255.107 180.139 261.524 184.175 267.827 188.61 273.872L206.994 260.385C185.358 230.893 175.139 198.107 180.109 176.63L183.07 168.462 187.682 167.675C205.154 167.012 228.231 179.073 249.317 201.058L240.126 207.802 273.193 211.82 276.892 180.828 267.701 187.572C246.614 165.586 223.537 153.525 206.065 154.189ZM29 25 930 25 930 938 29 938Z" fill-rule="evenodd" clip-rule="evenodd"/></clipPath><clipPath id="clip31"><rect x="-1" y="1" width="131" height="131"/></clipPath><clipPath id="clip32"><rect x="0" y="0" width="129" height="133"/></clipPath><clipPath id="clip33"><path d="M480.5 31.5001C453.438 31.5001 431.5 53.4381 431.5 80.5001 431.5 107.562 453.438 129.5 480.5 129.5 507.562 129.5 529.5 107.562 529.5 80.5001 529.5 53.4381 507.562 31.5001 480.5 31.5001ZM29 25 930 25 930 938 29 938Z" fill-rule="evenodd" clip-rule="evenodd"/></clipPath><clipPath id="clip34"><rect x="1" y="-1" width="113" height="113"/></clipPath><clipPath id="clip35"><path d="M826 317.5C800.871 317.5 780.5 337.871 780.5 363 780.5 388.129 800.871 408.5 826 408.5 851.129 408.5 871.5 388.129 871.5 363 871.5 337.871 851.129 317.5 826 317.5ZM29 25 930 25 930 938 29 938Z" fill-rule="evenodd" clip-rule="evenodd"/></clipPath><clipPath id="clip36"><rect x="1" y="-1" width="105" height="107"/></clipPath><clipPath id="clip37"><path d="M302.5 786.5C277.095 786.5 256.5 806.871 256.5 832 256.5 857.129 277.095 877.5 302.5 877.5 327.905 877.5 348.5 857.129 348.5 832 348.5 806.871 327.905 786.5 302.5 786.5ZM29 25 930 25 930 938 29 938Z" fill-rule="evenodd" clip-rule="evenodd"/></clipPath><clipPath id="clip38"><rect x="1" y="-1" width="107" height="107"/></clipPath><clipPath id="clip39"><path d="M150.5 328.5C125.647 328.5 105.5 348.871 105.5 374 105.5 399.129 125.647 419.5 150.5 419.5 175.353 419.5 195.5 399.129 195.5 374 195.5 348.871 175.353 328.5 150.5 328.5ZM29 25 930 25 930 938 29 938Z" fill-rule="evenodd" clip-rule="evenodd"/></clipPath><clipPath id="clip40"><rect x="1" y="-1" width="105" height="107"/></clipPath></defs><g clip-path="url(#clip12)" transform="translate(-29 -25)"><g clip-path="url(#clip13)"><g clip-path="url(#clip14)" filter="url(#fx0)" transform="translate(183 24)"><g><path d="M7.50005 113.521 25.0877 99.4878 43.3526 86.3494 62.2493 74.1383 81.7309 62.8848 101.749 52.6167 122.254 43.3599 143.194 35.1371 164.518 27.9689 186.173 21.8731 208.104 16.8647 230.258 12.9565 252.579 10.1578 275.012 8.47583 297.5 7.91475 319.989 8.47583 342.421 10.1578 364.742 12.9565 386.896 16.8647 408.827 21.8731 430.482 27.9689 451.806 35.1371 472.746 43.3599 493.251 52.6167 513.269 62.8848 532.751 74.1383 551.648 86.3494 569.912 99.4878 587.5 113.521 399.309 337.915 393.134 332.988 386.722 328.376 380.088 324.089 373.249 320.138 366.221 316.534 359.023 313.284 351.671 310.397 344.185 307.881 336.583 305.741 328.884 303.982 321.106 302.61 313.27 301.628 305.395 301.037 297.5 300.84 289.605 301.037 281.73 301.628 273.894 302.61 266.116 303.982 258.417 305.741 250.815 307.881 243.329 310.397 235.977 313.284 228.779 316.534 221.751 320.138 214.912 324.089 208.278 328.376 201.866 332.988 195.692 337.915Z" stroke="#1666D3" stroke-width="3" stroke-linejoin="round" stroke-miterlimit="10" fill="#EAF3FF" fill-rule="evenodd"/></g></g></g><path d="M190.5 135.106 208.088 121.073 226.353 107.935 245.249 95.7236 264.731 84.4701 284.749 74.202 305.254 64.9452 326.194 56.7224 347.518 49.5542 369.173 43.4584 391.104 38.45 413.258 34.5418 435.579 31.7431 458.012 30.0611 480.5 29.5001 502.989 30.0611 525.421 31.7431 547.742 34.5418 569.896 38.45 591.827 43.4584 613.482 49.5542 634.806 56.7224 655.746 64.9452 676.251 74.202 696.269 84.4701 715.751 95.7236 734.648 107.935 752.912 121.073 770.5 135.106 582.309 359.5 576.134 354.574 569.722 349.961 563.088 345.674 556.249 341.724 549.221 338.119 542.023 334.869 534.671 331.982 527.185 329.466 519.583 327.326 511.884 325.568 504.106 324.196 496.27 323.213 488.395 322.623 480.5 322.426 472.605 322.623 464.73 323.213 456.894 324.196 449.116 325.568 441.417 327.326 433.815 329.466 426.329 331.982 418.977 334.869 411.779 338.119 404.751 341.724 397.912 345.674 391.278 349.961 384.866 354.574 378.692 359.5Z" stroke="#1666D3" stroke-width="3.06656" stroke-linejoin="round" stroke-miterlimit="10" fill="#EAF3FF" fill-rule="evenodd"/><g clip-path="url(#clip15)"><g clip-path="url(#clip16)" filter="url(#fx1)" transform="translate(596 196)"><g><path d="M229.481 7.91475 242.663 24.9892 254.997 42.6826 266.455 60.9533 277.01 79.7581 286.636 99.0524 295.311 118.791 303.014 138.926 309.728 159.412 315.435 180.199 320.124 201.238 323.782 222.479 326.401 243.873 327.975 265.368 328.5 286.915 327.975 308.461 326.401 329.957 323.782 351.35 320.124 372.592 315.435 393.631 309.728 414.418 303.014 434.903 295.311 455.039 286.636 474.777 277.01 494.071 266.455 512.876 254.997 531.147 242.663 548.84 229.481 565.915 7.50006 386.558 12.2078 380.46 16.613 374.14 20.7051 367.615 24.4747 360.899 27.9126 354.008 31.0108 346.959 33.762 339.768 36.1596 332.451 38.198 325.028 39.8725 317.514 41.179 309.928 42.1144 302.287 42.6765 294.61 42.864 286.915 42.6765 279.22 42.1144 271.543 41.179 263.902 39.8725 256.316 38.198 248.802 36.1596 241.378 33.762 234.062 31.0108 226.87 27.9126 219.821 24.4747 212.93 20.7051 206.214 16.613 199.689 12.2078 193.37 7.50006 187.272Z" stroke="#139A48" stroke-width="3" stroke-linejoin="round" stroke-miterlimit="10" fill="#EBF9F0" fill-rule="evenodd"/></g></g></g><path d="M825.481 201.5 838.663 218.575 850.997 236.268 862.455 254.539 873.01 273.343 882.636 292.638 891.311 312.376 899.014 332.512 905.728 352.997 911.435 373.784 916.124 394.823 919.782 416.064 922.401 437.458 923.975 458.954 924.5 480.5 923.975 502.046 922.401 523.542 919.782 544.936 916.124 566.177 911.435 587.216 905.728 608.003 899.014 628.488 891.311 648.624 882.636 668.362 873.01 687.657 862.455 706.461 850.997 724.732 838.663 742.426 825.481 759.5 603.5 580.143 608.208 574.045 612.613 567.726 616.705 561.201 620.475 554.485 623.913 547.594 627.011 540.544 629.762 533.353 632.16 526.037 634.198 518.613 635.872 511.099 637.179 503.513 638.114 495.872 638.676 488.195 638.864 480.5 638.676 472.805 638.114 465.128 637.179 457.487 635.872 449.901 634.198 442.387 632.16 434.963 629.762 427.647 627.011 420.456 623.913 413.406 620.475 406.516 616.705 399.799 612.613 393.274 608.208 386.955 603.5 380.857Z" stroke="#139A48" stroke-width="3.06656" stroke-linejoin="round" stroke-miterlimit="10" fill="#EBF9F0" fill-rule="evenodd"/><g clip-path="url(#clip17)"><g clip-path="url(#clip18)" filter="url(#fx2)" transform="translate(184 596)"><g><path d="M585.5 230.783 567.973 244.753 549.771 257.833 530.94 269.989 511.525 281.192 491.576 291.414 471.142 300.629 450.274 308.815 429.023 315.951 407.443 322.019 385.587 327.005 363.51 330.896 341.266 333.682 318.911 335.356 296.5 335.915 274.089 335.356 251.734 333.682 229.49 330.896 207.413 327.005 185.557 322.019 163.977 315.951 142.726 308.815 121.858 300.629 101.424 291.414 81.4751 281.192 62.0605 269.989 43.229 257.833 25.027 244.753 7.50005 230.783 194.609 7.91473 200.788 12.8401 207.206 17.4513 213.845 21.7372 220.69 25.687 227.723 29.2908 234.928 32.5397 242.285 35.4258 249.777 37.9417 257.385 40.0812 265.091 41.839 272.875 43.2107 280.717 44.193 288.599 44.7833 296.5 44.9803 304.401 44.7833 312.283 44.193 320.125 43.2107 327.909 41.839 335.615 40.0812 343.223 37.9417 350.715 35.4258 358.073 32.5397 365.277 29.2908 372.31 25.687 379.155 21.7372 385.794 17.4513 392.212 12.8401 398.391 7.91473Z" stroke="#F57600" stroke-width="3" stroke-linejoin="round" stroke-miterlimit="10" fill="#FFF4E8" fill-rule="evenodd"/></g></g></g><path d="M769.5 824.369 751.973 838.339 733.771 851.418 714.94 863.574 695.525 874.777 675.576 884.999 655.142 894.214 634.274 902.4 613.023 909.536 591.443 915.605 569.587 920.59 547.51 924.481 525.266 927.267 502.911 928.941 480.5 929.5 458.089 928.941 435.734 927.267 413.49 924.481 391.413 920.59 369.557 915.605 347.977 909.536 326.726 902.4 305.858 894.214 285.424 884.999 265.475 874.777 246.061 863.574 227.229 851.418 209.027 838.339 191.5 824.369 378.609 601.5 384.788 606.425 391.206 611.037 397.845 615.323 404.69 619.272 411.723 622.876 418.928 626.125 426.285 629.011 433.777 631.527 441.385 633.667 449.091 635.424 456.875 636.796 464.717 637.778 472.599 638.369 480.5 638.566 488.401 638.369 496.283 637.778 504.125 636.796 511.909 635.424 519.615 633.667 527.223 631.527 534.715 629.011 542.073 626.125 549.277 622.876 556.31 619.272 563.155 615.323 569.794 611.037 576.212 606.425 582.391 601.5Z" stroke="#F57600" stroke-width="3.06656" stroke-linejoin="round" stroke-miterlimit="10" fill="#FFF4E8" fill-rule="evenodd"/><g clip-path="url(#clip19)"><g clip-path="url(#clip20)" filter="url(#fx3)" transform="translate(29 195)"><g><path d="M106.437 567.915 93.2662 550.779 80.942 533.022 69.4934 514.686 58.9475 495.814 49.3294 476.451 40.6615 456.641 32.9646 436.434 26.2567 415.875 20.5538 395.013 15.8694 373.899 12.2143 352.581 9.59731 331.111 8.02468 309.538 7.50005 287.915 8.02468 266.291 9.59731 244.719 12.2143 223.248 15.8694 201.93 20.5538 180.816 26.2567 159.955 32.9646 139.396 40.6615 119.188 49.3294 99.379 58.9475 80.0155 69.4934 61.1433 80.942 42.8072 93.2662 25.0504 106.437 7.91475 328.5 188.131 323.806 194.237 319.414 200.565 315.334 207.1 311.576 213.825 308.148 220.726 305.06 227.785 302.317 234.987 299.926 242.314 297.894 249.748 296.224 257.272 294.922 264.869 293.989 272.521 293.429 280.209 293.242 287.915 293.429 295.621 293.989 303.309 294.922 310.96 296.224 318.557 297.894 326.082 299.926 333.516 302.317 340.843 305.06 348.044 308.148 355.104 311.576 362.004 315.334 368.73 319.414 375.264 323.806 381.592 328.5 387.699Z" stroke="#EE2020" stroke-width="3" stroke-linejoin="round" stroke-miterlimit="10" fill="#FFF0F0" fill-rule="evenodd"/></g></g></g><path d="M135.437 760.5 122.266 743.364 109.942 725.608 98.4934 707.271 87.9475 688.399 78.3294 669.036 69.6615 649.227 61.9646 629.019 55.2567 608.46 49.5538 587.599 44.8694 566.484 41.2143 545.167 38.5973 523.696 37.0247 502.124 36.5001 480.5 37.0247 458.876 38.5973 437.304 41.2143 415.833 44.8694 394.516 49.5538 373.401 55.2567 352.54 61.9646 331.981 69.6615 311.773 78.3294 291.964 87.9475 272.601 98.4934 253.729 109.942 235.393 122.266 217.636 135.437 200.5 357.5 380.716 352.806 386.823 348.414 393.151 344.334 399.685 340.576 406.411 337.148 413.311 334.06 420.371 331.317 427.572 328.926 434.899 326.894 442.333 325.224 449.858 323.922 457.455 322.989 465.106 322.429 472.794 322.242 480.5 322.429 488.206 322.989 495.894 323.922 503.545 325.224 511.142 326.894 518.667 328.926 526.101 331.317 533.428 334.06 540.629 337.148 547.689 340.576 554.589 344.334 561.315 348.414 567.849 352.806 574.177 357.5 580.284Z" stroke="#EE2020" stroke-width="3.06656" stroke-linejoin="round" stroke-miterlimit="10" fill="#FFF0F0" fill-rule="evenodd"/><g clip-path="url(#clip21)"><g clip-path="url(#clip22)" filter="url(#fx4)" transform="translate(672 146)"><g clip-path="url(#clip23)"><path d="M0 58.0039C1.91235e-14 84.4536 28.1335 107.554 68.4 114.166L68.4001 102.766 91.2 127.408 68.4001 148.366 68.4001 136.966C28.1336 130.353 0.000103777 107.253 0.000103777 80.8037Z" fill="#1666D3" fill-rule="evenodd" transform="matrix(-0.749398 0.66212 0.66212 0.749398 75.3173 -23.0197)"/><path d="M91.2 22.8001C47.7415 22.8001 10.32 42.3031 1.77875 69.404-8.12056 37.9941 23.8897 7.42741 73.2757 1.13137 79.1771 0.379019 85.1812 7.08535e-05 91.2 7.08535e-05Z" fill="#1252AA" fill-rule="evenodd" transform="matrix(-0.749398 0.66212 0.66212 0.749398 75.3173 -23.0197)"/><path d="M0 58.0039C1.91235e-14 84.4536 28.1335 107.554 68.4 114.166L68.4001 102.766 91.2 127.408 68.4001 148.366 68.4001 136.966C28.1336 130.353 0.000103777 107.253 0.000103777 80.8037L0 58.0039C-1.91235e-14 25.9692 40.8316 0 91.2 0L91.2 22.8001C47.7415 22.8001 10.32 42.3031 1.77875 69.404" stroke="#1666D3" stroke-linejoin="round" stroke-miterlimit="10" fill="none" fill-rule="evenodd" transform="matrix(-0.749398 0.66212 0.66212 0.749398 75.3173 -23.0197)"/></g></g></g><path d="M0 58.0039C1.91235e-14 84.4536 28.1335 107.554 68.4 114.166L68.4001 102.766 91.2 127.408 68.4001 148.366 68.4001 136.966C28.1336 130.353 0.000103777 107.253 0.000103777 80.8037Z" fill="#1666D3" fill-rule="evenodd" transform="matrix(-0.749398 0.66212 0.66212 0.749398 747.317 120.566)"/><path d="M91.2 22.8001C47.7415 22.8001 10.32 42.3031 1.77875 69.404-8.12056 37.9941 23.8897 7.42741 73.2757 1.13137 79.1771 0.379019 85.1812 7.08535e-05 91.2 7.08535e-05Z" fill="#1252AA" fill-rule="evenodd" transform="matrix(-0.749398 0.66212 0.66212 0.749398 747.317 120.566)"/><path d="M0 58.0039C1.91235e-14 84.4536 28.1335 107.554 68.4 114.166L68.4001 102.766 91.2 127.408 68.4001 148.366 68.4001 136.966C28.1336 130.353 0.000103777 107.253 0.000103777 80.8037L0 58.0039C-1.91235e-14 25.9692 40.8316 0 91.2 0L91.2 22.8001C47.7415 22.8001 10.32 42.3031 1.77875 69.404" stroke="#1666D3" stroke-linejoin="round" stroke-miterlimit="10" fill="none" fill-rule="evenodd" transform="matrix(-0.749398 0.66212 0.66212 0.749398 747.317 120.566)"/><g clip-path="url(#clip24)"><g clip-path="url(#clip25)" filter="url(#fx5)" transform="translate(667 683)"><g clip-path="url(#clip26)"><path d="M0 59.5911C0 86.7646 26.9905 110.497 65.6211 117.29L65.6211 106.353 87.4948 130.119 65.6211 150.1 65.6211 139.164C26.9905 132.37-1.83949e-05 108.638-1.83949e-05 81.4647Z" fill="#139A48" fill-rule="evenodd" transform="matrix(-0.621084 -0.783744 -0.783744 0.621084 165.025 75.3306)"/><path d="M87.4948 21.8737C45.3656 21.8737 9.21822 42.3219 1.4862 70.528-7.38241 38.1758 23.9355 7.05252 71.4368 1.01227 76.7323 0.338897 82.1078 5.08732e-05 87.4948 5.08732e-05Z" fill="#0F7C3A" fill-rule="evenodd" transform="matrix(-0.621084 -0.783744 -0.783744 0.621084 165.025 75.3306)"/><path d="M0 59.5911C0 86.7646 26.9905 110.497 65.6211 117.29L65.6211 106.353 87.4948 130.119 65.6211 150.1 65.6211 139.164C26.9905 132.37-1.83949e-05 108.638-1.83949e-05 81.4647L0 59.5911C-1.93507e-14 26.6799 39.1728 0 87.4948 0L87.4948 21.8737C45.3656 21.8737 9.21822 42.3219 1.4862 70.528" stroke="#139A48" stroke-linejoin="round" stroke-miterlimit="10" fill="none" fill-rule="evenodd" transform="matrix(-0.621084 -0.783744 -0.783744 0.621084 165.025 75.3306)"/></g></g></g><path d="M0 59.5911C0 86.7646 26.9905 110.497 65.6211 117.29L65.6211 106.353 87.4948 130.119 65.6211 150.1 65.6211 139.164C26.9905 132.37-1.83949e-05 108.638-1.83949e-05 81.4647Z" fill="#139A48" fill-rule="evenodd" transform="matrix(-0.621084 -0.783744 -0.783744 0.621084 832.025 755.916)"/><path d="M87.4948 21.8737C45.3656 21.8737 9.21822 42.3219 1.4862 70.528-7.38241 38.1758 23.9355 7.05252 71.4368 1.01227 76.7323 0.338897 82.1078 5.08732e-05 87.4948 5.08732e-05Z" fill="#0F7C3A" fill-rule="evenodd" transform="matrix(-0.621084 -0.783744 -0.783744 0.621084 832.025 755.916)"/><path d="M0 59.5911C0 86.7646 26.9905 110.497 65.6211 117.29L65.6211 106.353 87.4948 130.119 65.6211 150.1 65.6211 139.164C26.9905 132.37-1.83949e-05 108.638-1.83949e-05 81.4647L0 59.5911C-1.93507e-14 26.6799 39.1728 0 87.4948 0L87.4948 21.8737C45.3656 21.8737 9.21822 42.3219 1.4862 70.528" stroke="#139A48" stroke-linejoin="round" stroke-miterlimit="10" fill="none" fill-rule="evenodd" transform="matrix(-0.621084 -0.783744 -0.783744 0.621084 832.025 755.916)"/><g clip-path="url(#clip27)"><g clip-path="url(#clip28)" filter="url(#fx6)" transform="translate(130 673)"><g clip-path="url(#clip29)"><path d="M0 56.1826C1.86597e-14 81.8018 28.1335 104.176 68.4 110.581L68.4 99.1811 91.2 123.765 68.4 144.781 68.4 133.381C28.1335 126.976 3.37493e-05 104.602 3.37493e-05 78.9825Z" fill="#F57600" fill-rule="evenodd" transform="matrix(0.769338 -0.638842 -0.638842 -0.769338 65.2236 161.678)"/><path d="M91.2 22.8C47.9642 22.8 10.6701 41.5018 1.89719 67.5826-8.32303 37.1993 23.3741 7.46476 72.6947 1.16872 78.7823 0.391599 84.983-1.77699e-05 91.2-1.77699e-05Z" fill="#C55F00" fill-rule="evenodd" transform="matrix(0.769338 -0.638842 -0.638842 -0.769338 65.2236 161.678)"/><path d="M0 56.1826C1.86597e-14 81.8018 28.1335 104.176 68.4 110.581L68.4 99.1811 91.2 123.765 68.4 144.781 68.4 133.381C28.1335 126.976 3.37493e-05 104.602 3.37493e-05 78.9825L0 56.1826C-1.86597e-14 25.1538 40.8316 0 91.2 0L91.2 22.8C47.9642 22.8 10.6701 41.5018 1.89719 67.5826" stroke="#F57600" stroke-linejoin="round" stroke-miterlimit="10" fill="none" fill-rule="evenodd" transform="matrix(0.769338 -0.638842 -0.638842 -0.769338 65.2236 161.678)"/></g></g></g><path d="M0 56.1826C1.86597e-14 81.8018 28.1335 104.176 68.4 110.581L68.4 99.1811 91.2 123.765 68.4 144.781 68.4 133.381C28.1335 126.976 3.37493e-05 104.602 3.37493e-05 78.9825Z" fill="#F57600" fill-rule="evenodd" transform="matrix(0.769338 -0.638842 -0.638842 -0.769338 195.224 832.263)"/><path d="M91.2 22.8C47.9642 22.8 10.6701 41.5018 1.89719 67.5826-8.32303 37.1993 23.3741 7.46476 72.6947 1.16872 78.7823 0.391599 84.983-1.77699e-05 91.2-1.77699e-05Z" fill="#C55F00" fill-rule="evenodd" transform="matrix(0.769338 -0.638842 -0.638842 -0.769338 195.224 832.263)"/><path d="M0 56.1826C1.86597e-14 81.8018 28.1335 104.176 68.4 110.581L68.4 99.1811 91.2 123.765 68.4 144.781 68.4 133.381C28.1335 126.976 3.37493e-05 104.602 3.37493e-05 78.9825L0 56.1826C-1.86597e-14 25.1538 40.8316 0 91.2 0L91.2 22.8C47.9642 22.8 10.6701 41.5018 1.89719 67.5826" stroke="#F57600" stroke-linejoin="round" stroke-miterlimit="10" fill="none" fill-rule="evenodd" transform="matrix(0.769338 -0.638842 -0.638842 -0.769338 195.224 832.263)"/><g clip-path="url(#clip30)"><g clip-path="url(#clip31)" filter="url(#fx7)" transform="translate(154 150)"><g clip-path="url(#clip32)"><path d="M0 46.7514C3.25166e-14 68.07 28.1335 86.6886 68.4 92.0183L68.4001 80.6182 91.2 104.903 68.4001 126.218 68.4001 114.818C28.1336 109.489 9.67479e-05 90.8699 9.67479e-05 69.5513Z" fill="#EE2020" fill-rule="evenodd" transform="matrix(0.591518 0.806292 0.806292 -0.591518 -19.3361 52.7529)"/><path d="M91.2 22.8C49.3971 22.8 12.9462 37.3691 2.75289 58.1515-9.52907 33.1107 20.1136 7.7073 68.9615 1.41125 76.233 0.474031 83.7022 5.34682e-05 91.2 5.34682e-05Z" fill="#BF1A1A" fill-rule="evenodd" transform="matrix(0.591518 0.806292 0.806292 -0.591518 -19.3361 52.7529)"/><path d="M0 46.7514C3.25166e-14 68.07 28.1335 86.6886 68.4 92.0183L68.4001 80.6182 91.2 104.903 68.4001 126.218 68.4001 114.818C28.1336 109.489 9.67479e-05 90.8699 9.67479e-05 69.5513L0 46.7514C-1.62583e-14 20.9313 40.8316 0 91.2 0L91.2 22.8C49.3971 22.8 12.9462 37.3691 2.75289 58.1515" stroke="#EE2020" stroke-linejoin="round" stroke-miterlimit="10" fill="none" fill-rule="evenodd" transform="matrix(0.591518 0.806292 0.806292 -0.591518 -19.3361 52.7529)"/></g></g></g><path d="M0 46.7514C3.25166e-14 68.07 28.1335 86.6886 68.4 92.0183L68.4001 80.6182 91.2 104.903 68.4001 126.218 68.4001 114.818C28.1336 109.489 9.67479e-05 90.8699 9.67479e-05 69.5513Z" fill="#EE2020" fill-rule="evenodd" transform="matrix(0.591518 0.806292 0.806292 -0.591518 134.664 200.338)"/><path d="M91.2 22.8C49.3971 22.8 12.9462 37.3691 2.75289 58.1515-9.52907 33.1107 20.1136 7.7073 68.9615 1.41125 76.233 0.474031 83.7022 5.34682e-05 91.2 5.34682e-05Z" fill="#BF1A1A" fill-rule="evenodd" transform="matrix(0.591518 0.806292 0.806292 -0.591518 134.664 200.338)"/><path d="M0 46.7514C3.25166e-14 68.07 28.1335 86.6886 68.4 92.0183L68.4001 80.6182 91.2 104.903 68.4001 126.218 68.4001 114.818C28.1336 109.489 9.67479e-05 90.8699 9.67479e-05 69.5513L0 46.7514C-1.62583e-14 20.9313 40.8316 0 91.2 0L91.2 22.8C49.3971 22.8 12.9462 37.3691 2.75289 58.1515" stroke="#EE2020" stroke-linejoin="round" stroke-miterlimit="10" fill="none" fill-rule="evenodd" transform="matrix(0.591518 0.806292 0.806292 -0.591518 134.664 200.338)"/><path d="M350.5 480.5C350.5 408.703 408.703 350.5 480.5 350.5 552.297 350.5 610.5 408.703 610.5 480.5 610.5 552.297 552.297 610.5 480.5 610.5 408.703 610.5 350.5 552.297 350.5 480.5Z" stroke="#E6E6E6" stroke-width="1.33333" stroke-linejoin="round" stroke-miterlimit="10" fill="#FFFFFF" fill-rule="evenodd"/><text fill="#072552" font-family="Aptos Display,Aptos Display_MSFontService,sans-serif" font-weight="700" font-size="41" transform="translate(402.563 450)">DataOps</text><text fill="#072552" font-family="Aptos Display,Aptos Display_MSFontService,sans-serif" font-weight="700" font-size="41" transform="translate(400.25 500)">Flywheel</text><g clip-path="url(#clip33)"><g clip-path="url(#clip34)" filter="url(#fx8)" transform="translate(424 27)"><g><path d="M7.50006 55.9147C7.50006 28.8528 29.4381 6.91475 56.5001 6.91475 83.562 6.91475 105.5 28.8528 105.5 55.9147 105.5 82.9767 83.562 104.915 56.5001 104.915 29.4381 104.915 7.50006 82.9767 7.50006 55.9147Z" stroke="#1666D3" stroke-width="3" stroke-linejoin="round" stroke-miterlimit="10" fill="#FFFFFF" fill-rule="evenodd"/></g></g></g><path d="M431.5 80.5001C431.5 53.4381 453.438 31.5001 480.5 31.5001 507.562 31.5001 529.5 53.4381 529.5 80.5001 529.5 107.562 507.562 129.5 480.5 129.5 453.438 129.5 431.5 107.562 431.5 80.5001Z" stroke="#1666D3" stroke-width="2.66667" stroke-linejoin="round" stroke-miterlimit="10" fill="#FFFFFF" fill-rule="evenodd"/><text fill="#1666D3" font-family="Segoe UI Symbol,Segoe UI Symbol_MSFontService,sans-serif" font-weight="700" font-size="52" transform="translate(457.583 96)">☑</text><text fill="#1666D3" font-family="Aptos Display,Aptos Display_MSFontService,sans-serif" font-weight="700" font-size="40" transform="translate(365.903 164)">Demand Pool</text><text font-family="Aptos,Aptos_MSFontService,sans-serif" font-weight="700" font-size="21" transform="translate(323.901 198)">• Consolidate business and</text><text font-family="Aptos,Aptos_MSFontService,sans-serif" font-weight="700" font-size="21" transform="translate(336.401 223)">algorithm requirements</text><text font-family="Aptos,Aptos_MSFontService,sans-serif" font-weight="700" font-size="21" transform="translate(323.901 247)">• Review and prioritize requirements</text><text font-family="Aptos,Aptos_MSFontService,sans-serif" font-weight="700" font-size="21" transform="translate(323.901 272)">• Define objectives and</text><text font-family="Aptos,Aptos_MSFontService,sans-serif" font-weight="700" font-size="21" transform="translate(336.401 297)">acceptance criteria</text><g clip-path="url(#clip35)"><g clip-path="url(#clip36)" filter="url(#fx9)" transform="translate(773 313)"><g><path d="M7.50006 52.4148C7.50006 27.2858 27.8711 6.91476 53.0001 6.91476 78.129 6.91476 98.5001 27.2858 98.5001 52.4148 98.5001 77.5437 78.129 97.9148 53.0001 97.9148 27.8711 97.9148 7.50006 77.5437 7.50006 52.4148Z" stroke="#139A48" stroke-width="3" stroke-linejoin="round" stroke-miterlimit="10" fill="#FFFFFF" fill-rule="evenodd"/></g></g></g><path d="M780.5 363C780.5 337.871 800.871 317.5 826 317.5 851.129 317.5 871.5 337.871 871.5 363 871.5 388.129 851.129 408.5 826 408.5 800.871 408.5 780.5 388.129 780.5 363Z" stroke="#139A48" stroke-width="2.66667" stroke-linejoin="round" stroke-miterlimit="10" fill="#FFFFFF" fill-rule="evenodd"/><text fill="#139A48" font-family="Segoe UI Symbol,Segoe UI Symbol_MSFontService,sans-serif" font-weight="700" font-size="48" transform="translate(804.453 381)">◉</text><text fill="#139A48" font-family="Aptos Display,Aptos Display_MSFontService,sans-serif" font-weight="700" font-size="39" transform="translate(717.003 465)">Data Pool</text><text font-family="Aptos,Aptos_MSFontService,sans-serif" font-weight="700" font-size="21" transform="translate(649.81 485)">• Data collection and</text><text font-family="Aptos,Aptos_MSFontService,sans-serif" font-weight="700" font-size="21" transform="translate(662.31 510)">governance</text><text font-family="Aptos,Aptos_MSFontService,sans-serif" font-weight="700" font-size="21" transform="translate(649.81 535)">• Data quality and</text><text font-family="Aptos,Aptos_MSFontService,sans-serif" font-weight="700" font-size="21" transform="translate(662.31 559)">standardization</text><text font-family="Aptos,Aptos_MSFontService,sans-serif" font-weight="700" font-size="21" transform="translate(649.81 584)">• Data asset accumulation</text><text font-family="Aptos,Aptos_MSFontService,sans-serif" font-weight="700" font-size="21" transform="translate(662.31 609)">and reuse</text><g clip-path="url(#clip37)"><g clip-path="url(#clip38)" filter="url(#fx10)" transform="translate(249 782)"><g><path d="M7.50006 52.4147C7.50006 27.2858 28.095 6.91473 53.5001 6.91473 78.9052 6.91473 99.5001 27.2858 99.5001 52.4147 99.5001 77.5437 78.9052 97.9147 53.5001 97.9147 28.095 97.9147 7.50006 77.5437 7.50006 52.4147Z" stroke="#F57600" stroke-width="3" stroke-linejoin="round" stroke-miterlimit="10" fill="#FFFFFF" fill-rule="evenodd"/></g></g></g><path d="M256.5 832C256.5 806.871 277.095 786.5 302.5 786.5 327.905 786.5 348.5 806.871 348.5 832 348.5 857.129 327.905 877.5 302.5 877.5 277.095 877.5 256.5 857.129 256.5 832Z" stroke="#F57600" stroke-width="2.66667" stroke-linejoin="round" stroke-miterlimit="10" fill="#FFFFFF" fill-rule="evenodd"/><text fill="#F57600" font-family="Segoe UI Symbol,Segoe UI Symbol_MSFontService,sans-serif" font-weight="700" font-size="51" transform="translate(283.17 850)">⚗</text><text fill="#F57600" font-family="Aptos Display,Aptos Display_MSFontService,sans-serif" font-weight="700" font-size="33" transform="translate(378.823 716)">Experiment Pool</text><text font-family="Aptos,Aptos_MSFontService,sans-serif" font-weight="700" font-size="19" transform="translate(364.8 761)">• Support experiments and</text><text font-family="Aptos,Aptos_MSFontService,sans-serif" font-weight="700" font-size="19" transform="translate(376.8 784)">training with data</text><text font-family="Aptos,Aptos_MSFontService,sans-serif" font-weight="700" font-size="19" transform="translate(364.8 808)">• Iterative validation and</text><text font-family="Aptos,Aptos_MSFontService,sans-serif" font-weight="700" font-size="19" transform="translate(376.8 831)">performance evaluation</text><text font-family="Aptos,Aptos_MSFontService,sans-serif" font-weight="700" font-size="19" transform="translate(364.8 854)">• Produce models and</text><text font-family="Aptos,Aptos_MSFontService,sans-serif" font-weight="700" font-size="19" transform="translate(376.8 878)">analytical insights</text><g clip-path="url(#clip39)"><g clip-path="url(#clip40)" filter="url(#fx11)" transform="translate(98 324)"><g><path d="M7.50005 52.4148C7.50005 27.2858 27.6472 6.91476 52.5001 6.91476 77.3529 6.91476 97.5001 27.2858 97.5001 52.4148 97.5001 77.5437 77.3529 97.9148 52.5001 97.9148 27.6472 97.9148 7.50005 77.5437 7.50005 52.4148Z" stroke="#EE2020" stroke-width="3" stroke-linejoin="round" stroke-miterlimit="10" fill="#FFFFFF" fill-rule="evenodd"/></g></g></g><path d="M105.5 374C105.5 348.871 125.647 328.5 150.5 328.5 175.353 328.5 195.5 348.871 195.5 374 195.5 399.129 175.353 419.5 150.5 419.5 125.647 419.5 105.5 399.129 105.5 374Z" stroke="#EE2020" stroke-width="2.66667" stroke-linejoin="round" stroke-miterlimit="10" fill="#FFFFFF" fill-rule="evenodd"/><text fill="#EE2020" font-family="Segoe UI Symbol,Segoe UI Symbol_MSFontService,sans-serif" font-weight="700" font-size="51" transform="translate(127.927 392)">⚠</text><text fill="#EE2020" font-family="Aptos Display,Aptos Display_MSFontService,sans-serif" font-weight="700" font-size="34" transform="translate(138.927 460)">Issue Pool</text><text font-family="Aptos,Aptos_MSFontService,sans-serif" font-weight="700" font-size="20" transform="translate(60.48 498)">• Collect issues and</text><text font-family="Aptos,Aptos_MSFontService,sans-serif" font-weight="700" font-size="20" transform="translate(72.48 522)">failure cases</text><text font-family="Aptos,Aptos_MSFontService,sans-serif" font-weight="700" font-size="20" transform="translate(60.48 546)">• Root cause analysis and</text><text font-family="Aptos,Aptos_MSFontService,sans-serif" font-weight="700" font-size="20" transform="translate(72.48 569)">improvement suggestions</text><text font-family="Aptos,Aptos_MSFontService,sans-serif" font-weight="700" font-size="20" transform="translate(60.48 593)">• Closed</text><text font-family="Aptos,Aptos_MSFontService,sans-serif" font-weight="700" font-size="20" transform="translate(141.98 593)">-</text><text font-family="Aptos,Aptos_MSFontService,sans-serif" font-weight="700" font-size="20" transform="translate(148.647 593)">loop tracking and</text><text font-family="Aptos,Aptos_MSFontService,sans-serif" font-weight="700" font-size="20" transform="translate(72.48 617)">knowledge accumulation</text></g></svg>