<?xml version="1.0" encoding="UTF-8"?>
<svg id="_图层_1" data-name="图层_1" xmlns="http://www.w3.org/2000/svg" version="1.1" viewBox="0 0 900 503">
  <!-- Generator: Adobe Illustrator 29.6.0, SVG Export Plug-In . SVG Version: 2.1.1 Build 207)  -->
  <defs>
    <style>
      .st0 {
        fill: #c0c3c5;
      }

      .st1 {
        fill: #575d65;
      }

      .st2 {
        fill: #151314;
      }

      .st3 {
        fill: #dbddde;
      }

      .st4 {
        fill: #0e0d0e;
      }

      .st5 {
        fill: #d0d2d4;
      }

      .st6 {
        fill: #c4c7c9;
      }

      .st7 {
        fill: #4c5259;
      }

      .st8 {
        fill: #616870;
      }

      .st9 {
        font-size: 19px;
      }

      .st9, .st10, .st11, .st12, .st13 {
        isolation: isolate;
      }

      .st9, .st13 {
        font-family: TimesNewRomanPS-BoldMT, 'Times New Roman';
        font-weight: 700;
      }

      .st10 {
        fill: #fff;
        font-size: 21px;
      }

      .st10, .st11 {
        font-family: TimesNewRomanPSMT, 'Times New Roman';
      }

      .st14 {
        fill: #cbcdd0;
      }

      .st15 {
        fill: #df5639;
      }

      .st16 {
        fill: #438cd5;
      }

      .st17 {
        fill: #51585f;
      }

      .st11 {
        font-size: 15px;
      }

      .st18 {
        fill: #d5d7d9;
      }

      .st19 {
        fill: #5c636a;
      }

      .st20 {
        fill: #eaedf2;
      }

      .st21 {
        fill: #50555b;
      }

      .st22 {
        fill: #6c6f74;
      }

      .st23 {
        fill: #646a71;
      }

      .st24 {
        fill: #686c72;
      }

      .st13 {
        font-size: 31px;
      }

      .st25 {
        fill: #f4f5f6;
      }

      .st26 {
        fill: #f6f8f8;
      }

      .st27 {
        fill: #d1d3d6;
      }

      .st28 {
        fill: #fefefe;
      }

      .st29 {
        fill: #8b8b8e;
      }

      .st30 {
        fill: #111011;
      }

      .st31 {
        fill: #c7cacc;
      }
    </style>
  </defs>
  <g id="_x23_eaedf2ff">
    <path class="st20" d="M0,0h900v503H0V0M684.71,136.65c-3.28.19-5.27,2.87-6.78,5.44-.25.23-.75.69-1,.92-1.34,5.81.2,11.97-.91,17.85-.43,2.21-.84,4.42-1.18,6.65-5.74-2.98-11.41-6.39-17.5-8.51.08,2.61.09,5.23-.02,7.85-15.79-.11-31.58-.03-47.37-.07-.64-7.87.09-15.79-.36-23.67-.57-3.57-4.08-6.03-7.6-5.72-22.34.03-44.67,0-67.01,0-3.37-.1-6.8,2.83-6.75,6.31-.44.19-1.33.57-1.77.77-.66,7.61.96,15.51-1.65,22.89-5.79-2.83-11.37-6.26-17.45-8.41.02,2.45.05,4.9.07,7.35-7.72.33-15.84.34-22.79,4.2-7.93,3.83-12.16,12.35-13.95,20.6-4.47,19.97.61,41-5.89,60.65-2.23,7.54-8.29,13.96-15.98,15.97-9.47,3.13-19.51,2.16-29.3,2.54-.7-23.06.08-46.16-.44-69.22.05-4.11-4.11-7.19-8.01-6.9-38.7-.08-77.39.06-116.09-.06-2.88.01-5.8-.22-8.64.33-3.66,1.06-5.86,4.68-6.45,8.27-.9.93-1.3,2.05-1.18,3.36.03,19.99.05,39.98-.07,59.97-.02,2.28-.36,4.54-.74,6.78-5.98-3.59-12.37-6.46-18.53-9.72,0,2.73.03,5.47.07,8.21-26.48.02-52.96-.03-79.44.04-2.22-.07-4.65.39-6.64-.84-4.91-2.63-9.88-5.18-14.92-7.55.1,2.09.07,4.18-.01,6.28-5.08-1.99-10.11-5.2-12.17-10.51-8-17.48-5.29-37.23-6.55-55.84-1.14-11.44-3.86-24.57-14.23-31.26-11.11-6.82-24.66-5.39-37.11-5.66-.98-7.27-.01-14.62-.51-21.92.1-2.95-3.19-4.77-5.82-4.7-9.7-.04-19.4-.09-29.09,0-3.13-.13-5.96,2.38-6.18,5.52-2.33.65-1.62,3.65-2.09,5.49-.24,8.65-.43,17.3-.15,25.95.08,4.44-.79,9.1,1.05,13.32,1.32,2.01,3.17,3.58,4.88,5.24-1.09,1.17-2.24,2.28-3.5,3.28-1.38,2.01-2.27,4.41-2.48,6.85.04,6.6-.25,13.21.18,19.8.29,6.61-.93,13.36.98,19.83.69,3.24,4.12,5.4,7.34,5.07,10.32-.15,20.65.13,30.96-.09,4.24-.87,6.94-5.3,6.67-9.5.93-4.9.2-9.81-.51-14.69,10.88.25,22.67-.77,32.45,4.97,7.71,4.21,12.43,12.38,14.22,20.79,1.79,8.31,7.04,15.51,14.07,20.19-19.82-.07-39.64.1-59.46-.08l-.79-.63c.23-.23.67-.69.9-.92-.75-3.28-1.6-6.63-1.79-10.04,2.2-1.11.59-3.24-.37-4.43-.66,3.65,1.31,7.26.16,10.9-.98,1.8,1.81,5.07-1.06,5.49-.32-5.2-.16-10.42-.22-15.63.12-2.37-1.59-5.18-4.2-5.09-8.32-.37-16.66.03-24.98-.13-4.08,0-8.65-.75-11.97,2.2-1.43,1.69-2.95,3.64-2.86,5.98-.14,6.34.35,12.67.11,19,.54,7.54-.83,15.23,1.21,22.63,1.7,3.55,5.72,5.3,9.53,5.12,9.36-.07,18.72.25,28.08.02,5.15-.3,8.52-5.45,8.32-10.32-.4-6.01.34-12.1-.94-18.05l-1.09-1.03.08-.31c19.95-.24,39.9-.23,59.85-.13-4.25,3.21-7.83,7.35-10.12,12.18-1.73,3.62-2.38,7.6-3.81,11.33-2.41,6.28-6.62,12.02-12.5,15.45-10.24,6.35-22.83,6.05-34.44,5.69.03,1.5.05,3,.08,4.5,8.86-.05,17.91.61,26.51-2.02,9-2.22,17.08-7.91,21.7-16.01-2.13,16.63.57,33.87-4.59,50.1-2.14,6.78-7.27,12.64-14.02,15.11-9.51,3.6-19.88,2.47-29.82,2.8-.93-6.97-.16-14-.41-20.99-.08-2.93-3.02-5.36-5.92-4.98-9.68-.04-19.37.01-29.05-.02-2.51-.35-4.16,1.77-6.04,3.01-3.65,4.1-2.32,9.98-2.49,14.98.3,8.67-.25,17.33,0,26,.15,3.92,1.42,8.24,4.91,10.46,8.83.75,17.74.01,26.61.28,4.16-.2,9.21,1.05,12.35-2.5,3.09-3.64,2.36-8.83,2.48-13.27-.3-2.86.83-6.46-1.74-8.55,12.24-.15,25.63.97,36.38-6.04,8.7-5.3,12.17-15.73,13.46-25.31,2-11.58.56-23.38,1.82-35.02.56-9.3,1.6-18.95,6.06-27.29,2.31-4.56,6.77-7.82,11.78-8.76-.02,2.31-.04,4.62-.04,6.94,4.76-2.34,9.38-4.96,14.17-7.25,2.55-1.37,5.52-.88,8.3-.97,26.14.04,52.29,0,78.44.02-.07,2.63-.09,5.26-.09,7.9,6.06-2.92,11.89-6.27,17.93-9.24,1.5,1.87,1.2,4.32,1.23,6.56-.12,18.4.07,36.8,0,55.19.41,3.28,2.03,6.61,4.69,8.63,3.39,1.66,7.23,1.6,10.86.92,34.64-.03,69.29.02,103.93-.01,5.84-.14,11.77.51,17.56-.42,4.17-1.27,5.14-5.76,5.78-9.52-.1-17,.37-34,.12-51.01-.19-2.98-.19-5.98.38-8.92,5.21-.87,10.51.23,15.73-.51,4.15.85,8.43,1.29,12.4,2.9,7.74,2.49,13.3,9.53,15.42,17.2,5.41,17.69,1.59,36.43,4.53,54.47,1.05,9.06,4.69,18.51,12.5,23.82,7.38,4.87,16.53,4.8,25.03,4.95-.01,2.75-.06,5.51-.19,8.27,6.57-3.51,13.09-7.13,19.83-10.32-.64-1.29-2.06-1.78-3.24-2.4-5.53-2.68-11.02-5.46-16.51-8.22.08,2.66.11,5.33.09,8-8.45.43-17.89.17-24.61-5.71-6.75-6.12-8.35-15.74-9.18-24.38-1.49-13.29.27-26.75-1.83-39.99-.88-6.77-2.88-13.47-6.46-19.31-2.65-4.2-6.83-7.04-10.96-9.62,17.66-.08,35.32.06,52.99.01.08,2.7.08,5.39.05,8.09,5.63-2.76,11.07-5.89,16.65-8.77,2.46,3.03,1.44,7.22,1.47,10.82-.65,4.22.43,8.35,1.1,12.49,2.05,2.09,4.06,5.11,7.38,4.91,19,.22,38.01.11,57.01.02,2.91-.14,5.72,1.33,8.64.72,3.23-.64,7.15-.26,9.45-3.11,3.78-7.86,2.23-16.79,2.57-25.19,15.24,0,30.49.07,45.73-.1.02,2.69.02,5.39,0,8.08,5.57-2.78,11-5.85,16.58-8.63,2.59,1,1.97,4.38,2.44,6.61.06,10.01.03,20.04.02,30.06-.15,2.98,1.12,5.72,2.13,8.45,2.32,1.24,4.76,2.52,7.49,2.33,8.63,0,17.27-.05,25.91,0,17.01.89,34.02-.21,51.03.31,11.67.33,23.33-.53,34.99.13,8.65-.16,17.32.22,25.97-.37,6.33-.37,12.65.62,18.96-.02,5.09-.38,10.32,1.19,15.26-.66,3.76-.64,6.84-4.32,6.36-8.19-.04-15.01.09-30.03-.06-45.04-.27-2.37,1.17-4.66.47-7-1.32-5.26.91-11.06-1.7-16.03v1.27c-1.41-1.75-2.5-3.94-4.61-4.92-2.66-1.45-5.79-.85-8.67-.94-54.66.02-109.32,0-163.98,0-3.71-.08-6.34,2.79-8.06,5.74-2.1,1.22-1.32,3.95-1.5,5.94.18,6.5.24,13.02-1.47,19.35-5.88-3.06-11.87-5.89-17.66-9.13-.07,2.72-.05,5.44.05,8.16-15.88.04-31.75.03-47.62.01-.04-7.48.07-14.96-.03-22.44-.03-3.55-3.11-6.71-6.67-6.7-22.71-.02-45.42-.01-68.13-.01-3.44-.23-6.85,2.98-6.63,6.45-.96.92-1.97,1.97-1.92,3.41-.48,6.71.98,13.66-1.71,20.09-5.8-2.89-11.5-5.96-17.28-8.89.05,2.7.06,5.4.06,8.1-17.44-.03-34.89.09-52.32-.07,5.62-3.73,11.13-8.4,13.14-15.11,8.72-21.77,1.17-45.89,8.15-67.99,1.71-4.46,4.3-8.8,8.16-11.71,6.59-4.67,15.05-4.53,22.77-4.53.08,2.67.09,5.34.07,8.02,5.59-2.75,11.1-5.68,16.58-8.65,3.98,6.76,1.46,14.91,2.51,22.27,1.05,3.3,4.2,5.66,7.62,5.92,22.65.41,45.3-.08,67.94.16,2.63.14,4.9-1.32,7.14-2.5.92-2.7,2.19-5.36,2.37-8.24-.05-5.32,1.17-10.57-.21-15.83.4-.28,1.2-.85,1.59-1.13,14.8.14,29.6,0,44.39.05.07,2.63.09,5.27.09,7.91,5.53-2.9,11.19-5.56,16.62-8.66.3.44.9,1.31,1.21,1.75.09,3.34.69,6.62,1.15,9.92.04,8.99,0,17.99,0,26.99-.28,3.45,1.83,7.02,5.08,8.28,3.68.92,7.47,1.37,11.26,1.21,53.42-.05,106.83.1,160.25-.03,2.53.09,4.99-.61,7.45-1.14,1.57-2.25,4.11-4.3,4.13-7.25.13-20.71,0-41.43.03-62.14.03-2.07-.21-4.24-1.56-5.9-1.25-2.55-3.25-5.09-6.28-5.38-6.93,0-13.86-.29-20.79.12-27.32-.1-54.62-.09-81.95.04-10.58-.62-21.18.43-31.76-.23-12.52.26-25.04.16-37.55.08M451.68,149.39c-.53,7.22,1.62,14.86,6.89,20.01,2.71,2.67,6.34,4,9.68,5.67-.27.42-.8,1.27-1.07,1.69,1.74-.43,3.5-.72,5.28-.95-1.06-1.24-2.21-2.4-3.41-3.5-.32.43-.96,1.3-1.28,1.73-3.69-1.65-7.52-3.41-10.08-6.67-4.37-5.07-5.57-12.01-5.25-18.51-.19.13-.57.4-.76.53M510.87,188.7c.56.06,1.67.17,2.23.23-1.39,5.11-1.58,10.96,1.46,15.55,2.52,3.75,7.21,5.14,11.53,5.31-2.96-1.6-6.75-1.27-9.24-3.8-4.38-4.41-4.82-11.47-2.92-17.13.52.3,1.56.91,2.08,1.22-.57-1.8-1.03-3.63-1.43-5.46-1.25,1.35-2.48,2.72-3.71,4.08M510.97,292.75c.52.05,1.57.16,2.1.22-1.01,4.7-1.56,9.82.69,14.26,2,4.22,7.08,6.97,11.63,6.18-3.37-.7-7.19-1.28-9.45-4.17-3.68-4.48-3.46-10.77-2.08-16.09.56.3,1.68.89,2.24,1.19-.59-1.82-1.07-3.67-1.49-5.52-1.24,1.28-2.46,2.6-3.64,3.93M67.48,315.54c-2.75,1.05-1.37,5.59,1.51,4.66,3.46-.34,1.49-6.21-1.51-4.66M67.14,325.14c-2.94,1.61.36,6.07,2.75,3.93,2.6-1.59-.36-5.67-2.75-3.93M67.18,334.2c-3.08,1.57.57,6.76,2.91,3.99,2.41-1.72-.49-5.79-2.91-3.99M677.82,349.02c-.6,1.06-1.27,2.13-1.3,3.39-.66,7.42,1.39,15.41-2.37,22.28-5.51-3.11-11.23-5.83-16.86-8.72.08,2.67.07,5.35-.03,8.02-15.67-.23-31.34.16-47.01-.18-.91-7.27-.22-14.61-.51-21.91-.1-3.87-3.75-7.3-7.67-6.82-22.38-.1-44.75-.07-67.13-.05-4.16-.08-7.21,4.06-7.13,7.99-.07,14.56-.05,29.13-.02,43.69-.28,4.26,4.37,7.82,8.23,8.64,21.99.3,43.99-.03,65.98.08,3.71,0,7.79-2.26,7.24-6.52,1.42-6.76-.28-13.75,1.04-20.52,15.59-.03,31.19.11,46.78-.09.53,2.75.27,5.56.18,8.34,5.95-3.05,11.81-6.28,17.77-9.3.72,1.79,1.55,3.63,1.42,5.62-.07,11.34.01,22.67-.06,34.01-.12,2.78,1.1,5.57,3.06,7.51,3.72,2.28,8.33,1.84,12.52,1.9,53.69.04,107.37-.04,161.05-.01,5.81.24,11.51-4.29,11.32-10.39.09-19.65.06-39.3.05-58.95-.16-1.81.34-4-1.22-5.32-.41-4.63-4.49-7.93-9.08-7.54-55.72-.11-111.45-.08-167.18-.03-3.77-.28-6.61,2.44-9.07,4.88M511.15,395.24c.49.1,1.47.3,1.96.41-2.01,6.5-1.16,15.16,5.34,18.82,2.27,1.02,5.23,2.54,7.66,1.29-3.29-.6-6.97-.91-9.4-3.48-4.4-4.25-4.27-11.08-2.9-16.6.55.2,1.63.6,2.18.8-.49-1.82-.96-3.65-1.39-5.48-1.14,1.43-2.29,2.83-3.45,4.24Z"/>
    <path class="st20" d="M90.74,170.46c10.09.28,20.81-.83,30.19,3.64,7.01,3.24,10.67,10.72,12.32,17.89,3.85,15.06,1.42,30.76,3.38,46.02-3.33-5.12-7.71-9.75-13.3-12.38-10.5-5.31-22.64-4.71-34.07-4.56,1.27-6.95,1.16-14.14.23-21.13.2,7.19,1.35,14.71-.84,21.69-.88-7.17-.09-14.4-.54-21.58-.02-2.27-1.95-3.74-3.25-5.36,1.94-2.24,4.6-4.15,5.56-7.06.67-5.69.1-11.45.32-17.17Z"/>
    <text/>
    <text/>
  </g>
  <g id="_x23_fefefeff">
    <path class="st28" d="M684.71,136.65c12.51.08,25.03.18,37.55-.08,10.58.66,21.18-.39,31.76.23,27.33-.13,54.63-.14,81.95-.04,6.93-.41,13.86-.13,20.79-.12,3.03.29,5.03,2.83,6.28,5.38.46,19.64-.04,39.32.21,58.97-.07,2.91.29,5.93-.62,8.75-1.22,2.47-3.84,4.35-6.64,4.39-54.34.14-108.67-.03-163.01.03-4.28-.22-9.55,1.27-12.89-2.21-2.94-2.89-2.37-7.27-2.4-11.01.21-19.62-.18-39.24.24-58.85,1.51-2.57,3.5-5.25,6.78-5.44M689.91,155.03c-.15.46-.47,1.37-.62,1.83,3.48,4.14,7.8,7.64,10.88,12.1.21,4.61-.01,9.22.12,13.84,3.27.36,6.03-2.13,8.81-3.55.02-3.48.1-6.95.01-10.43,3.65-4.04,7.36-8.02,11.09-11.98-.27-.46-.83-1.37-1.1-1.82-9.72-.18-19.48-.26-29.19,0Z"/>
    <path class="st28" d="M46.77,144.85c.22-3.14,3.05-5.65,6.18-5.52,9.69-.09,19.39-.04,29.09,0,2.63-.07,5.92,1.75,5.82,4.7.5,7.3-.47,14.65.51,21.92.09,1.47.13,2.95.11,4.43-.23,4.86.22,9.73-.16,14.59-.07,3.16-3.33,5-6.19,4.89-8.39.18-16.79-.06-25.18.1-2.77-.14-6.04.45-8.26-1.64-1.96-1.48-1.88-4.13-1.94-6.33.1-12.38,0-24.76.02-37.14M54.35,150.05c-.04,9.64-.14,19.28-.04,28.92-.07,1.42,1.09,3.13,2.67,2.92,7.03.19,14.07.24,21.09.12,1.59.06,3.26-1.23,2.95-2.95.02-7.7.12-15.41-.03-23.1-2.47-3.39-5.82-6.08-8.86-8.97-5.38.22-10.78-.06-16.16.07-1.06.64-1.8,1.71-1.62,2.99Z"/>
    <path class="st28" d="M56.12,148.81c4.94-.17,9.88-.08,14.82-.08-.08,2.76-.11,5.52.17,8.28,2.67.18,5.34.22,8.01.16.13,7.66.17,15.34-.08,23-7.63.14-15.26.23-22.89.03-.19-10.45-.08-20.93-.03-31.39M60.06,161.55c2.68-.48,7.27,1.65,8.42-1.65-2.8-.3-5.63-.32-8.44-.15-1.54-.58-1.54,2.46.02,1.8M59.43,164.32c-.17.44-.51,1.31-.69,1.75,5.86.16,11.72.18,17.58-.02-.16-.44-.48-1.31-.65-1.75-5.4-.13-10.83-.13-16.24.02M59.22,169.05c-.06.45-.18,1.35-.24,1.79,5.58,0,11.16.03,16.74-.12.15-.41.45-1.23.61-1.65-5.71-.09-11.42-.27-17.11-.02M59.52,173.6c-.21.37-.64,1.12-.86,1.49,3.73.22,7.52.52,11.22-.13-.31-.99-.95-1.48-1.92-1.45-2.81-.03-5.64-.12-8.44.09Z"/>
    <path class="st28" d="M693.81,157.64c7.34,0,14.69,0,22.04-.05-3.08,3.31-6.28,6.5-9.35,9.82-.16,3.48-.08,6.97-.15,10.45-1.11.54-2.21,1.09-3.3,1.64-.09-3.53-.07-7.06.01-10.58.29-1.44-1.03-2.33-1.81-3.28-2.5-2.65-5.05-5.25-7.44-8Z"/>
    <path class="st28" d="M286.34,194.42c2.84-.55,5.76-.32,8.64-.33,38.7.12,77.39-.02,116.09.06,3.9-.29,8.06,2.79,8.01,6.9.52,23.06-.26,46.16.44,69.22.08,1.58.16,3.16.23,4.75.46,19.34-.08,38.69.11,58.04.38,4.41-3.16,9.1-7.81,8.89-41.01.11-82.03-.02-123.04.09-3.4.29-7.03-1.4-8.37-4.64-1.38-3.62-.74-7.59-.87-11.36-.25-41.12.89-82.24.12-123.35.59-3.59,2.79-7.21,6.45-8.27M341.02,254.03c-3.28-.25-5.83,2.4-5.78,5.63-1.79,0-3.58.07-5.36.22-.38,3.37,3.44,2.23,5.53,2.39.01,1.52.04,3.04.07,4.57-1.77.03-3.55,0-5.3.28-1.28,3.33,3.36,2.07,5.2,2.31,0,1.59.01,3.18.02,4.78-1.79.28-4.19-.77-5.5.92.1,2.62,3.67,1.46,5.38,1.74-.05,3.31,2.54,5.82,5.83,5.74.23,1.86-.76,4.27,1.04,5.59,2.58-.75,1.28-3.84,1.57-5.74,1.55,0,3.11.01,4.68.01.2,1.79-.54,3.92.7,5.46,3,.44,1.52-3.7,2.1-5.51,1.53,0,3.06.02,4.6.02.27,2.04-1.01,5.82,2.26,5.64.4-1.82.41-3.67.38-5.52,3.26.07,5.72-2.52,5.73-5.73,1.57,0,3.15.04,4.73-.1,2.25-3.26-3.11-2.54-4.97-2.55,0-1.59.07-3.18.15-4.77,1.72-.35,4.96,1.09,5.43-1.31-.76-2.23-3.83-.84-5.6-1.25.03-1.53.06-3.07.1-4.6,1.9-.24,6.57,1.07,5.14-2.41-1.61-.32-3.25-.14-4.86-.09-.27-3.12-2.54-6.02-5.93-5.69-.32-1.97,1.11-6.67-2.46-5.18-.14,1.72-.11,3.45-.11,5.18-1.56,0-3.12,0-4.67,0-.45-1.76.95-4.95-1.35-5.56-2.48.61-.93,3.79-1.34,5.59-1.58,0-3.16,0-4.73,0-.32-1.73.55-3.96-.68-5.34-3.12-.76-1.59,3.57-2,5.3Z"/>
    <path class="st28" d="M50.46,194.85c11.46-.39,22.93-.16,34.4-.16,1.3,1.62,3.23,3.09,3.25,5.36.45,7.18-.34,14.41.54,21.58-.06,1.2-.11,2.4-.14,3.6-.13,5.24.27,10.51-.22,15.73-.16,3.09-3.55,4.52-6.26,4.4-9,.03-18.01-.07-27.01.02-2.25-.15-5.06.21-6.66-1.75-2.1-2.35-1.63-5.71-1.71-8.61.23-12.3-.33-24.61.31-36.89,1.26-1,2.41-2.11,3.5-3.28M54.3,205.92c0,9.67-.06,19.33.03,28.99-.1,1.89,1.9,3.09,3.62,2.8,6.93-.05,13.87.12,20.8-.07,2.95-.73,2.14-4.35,2.29-6.61-.36-6.54.26-13.14-.35-19.64-2.57-3.17-5.55-5.99-8.5-8.82-5.04,0-10.09-.09-15.13.08-1.71-.14-3.02,1.65-2.76,3.27Z"/>
    <path class="st28" d="M55.85,204.75c4.96-.86,10.05-.29,15.07-.43.21,2.69-.72,5.68.61,8.16,2.47.65,5.12.22,7.66.34-.11,7.41.19,14.82-.09,22.23-.71,1.46-2.81.59-4.09.89-6.27.05-12.56.49-18.82-.18-.64-10.31-.08-20.67-.34-31.01M59.44,215.35c-.16.41-.48,1.23-.63,1.64,3.06.15,6.15.35,9.22,0-.05-.41-.15-1.22-.2-1.63-2.79-.16-5.6-.22-8.39,0M58.9,219.97c.09.43.28,1.3.37,1.74,5.52.19,11.07.19,16.59,0,.03-.42.09-1.27.12-1.69-5.68-.31-11.39-.13-17.08-.06M58.68,226.08c5.86.38,11.76.29,17.63.05-.21-.4-.63-1.18-.84-1.58-4.15-.17-8.31.04-12.46-.05-1.57.19-3.96-.69-4.33,1.58M59.24,229.15c-.1.44-.31,1.31-.41,1.75,3.92.2,7.86.23,11.78-.05-.39-.44-1.18-1.33-1.58-1.77-3.25-.21-6.54-.19-9.79.07Z"/>
    <path class="st28" d="M72.71,205.56c1.85,1.72,3.6,3.54,5.28,5.43-1.78.11-3.55.2-5.33.24-.01-1.89,0-3.78.05-5.67Z"/>
    <path class="st28" d="M677.94,246.08c1.72-2.95,4.35-5.82,8.06-5.74,54.66-.02,109.32.01,163.98,0,2.88.09,6.01-.51,8.67.94,2.11.98,3.2,3.17,4.6,4.92.04,21.28,0,42.56.07,63.83.32,4.12-3.14,8.16-7.3,8.23-57.02-.05-114.05.02-171.07-.05-4.2.03-7.38-4.25-7.27-8.22-.11-15.32.12-30.64.01-45.96.09-5.98-.31-11.98.25-17.94M689.91,258.89c-.1.49-.3,1.49-.41,1.99,3.43,4.06,7.44,7.6,10.82,11.7-.12,4.71-.13,9.42.06,14.13,3.27.09,6.05-2.15,8.76-3.73.05-3.55.05-7.09.07-10.64,3.35-3.64,6.91-7.1,10.18-10.82,1.32-.85.19-3.23-1.31-2.74-9.39.03-18.79-.16-28.17.11Z"/>
    <path class="st28" d="M47.06,252.99c3.32-2.95,7.89-2.2,11.97-2.2,8.32.16,16.66-.24,24.98.13,2.61-.09,4.32,2.72,4.2,5.09.06,5.21-.1,10.43.22,15.63.03,1.34.03,2.68.09,4.02.24.1.74.28.98.37l-.08.31c-1.86,6.05-.29,12.47-.89,18.68.03,2.39-2.14,3.88-3.38,5.69-11.49.12-22.98.06-34.46.04-1.08-1.06-2.3-1.99-3.24-3.18-.75-2.1-.53-4.39-.61-6.57.17-12.67-.24-25.35.22-38.01M54.27,260.91c-.03,9.36,0,18.73-.01,28.09-.29,1.73.92,3.78,2.79,3.78,7.02.1,14.04.16,21.05-.01,1.99.18,3.18-1.96,2.92-3.71-.11-7.57.4-15.23-.25-22.75-2.84-2.98-5.59-6.09-8.75-8.75-5.01.15-10.03-.1-15.03.13-1.7-.15-2.95,1.65-2.72,3.22Z"/>
    <path class="st28" d="M339.09,256.94c6.93-.37,13.94-.28,20.88-.07.29.29.87.87,1.17,1.15.28,6.69.2,13.4.08,20.09,0,1.6-2,1.74-3.16,1.71-5.72-.02-11.44-.06-17.16-.04-1.6.3-3.15-1.08-2.81-2.73.04-6.31-.12-12.64.08-18.95.23-.29.69-.87.92-1.16M346.3,262.39c-1.84,3.61-3.56,7.64-4.22,11.63,1.98,1.2,2.55-1.24,3.06-2.53,1.35-.05,2.71-.06,4.08-.03.82,1.22,1.31,2.85,3.07,2.97.53-3.02-1.58-5.71-2.37-8.53-.67-1.55-1.24-4.51-3.62-3.51M354.62,262.54c-.91,3.25-.22,6.99-.32,10.43-.61,1.92,2.84,1.66,2.34-.01.06-3.01.04-6.02.02-9.03.36-1.17-1.08-2.54-2.04-1.39Z"/>
    <path class="st28" d="M57.26,259.39c4.51-.12,9.02.04,13.53.02.48,2.66-1.03,6.31,1.22,8.29,2.39.24,4.8.14,7.19.16-.17,7.67.36,15.36-.18,23.02-7.6-.09-15.23.37-22.8-.11-.44-9.25-.21-18.55-.34-27.82.15-1.14-.43-3.62,1.38-3.56M59.24,270.44c-.08.39-.25,1.17-.33,1.56,3.06.31,6.2.36,9.24-.07-.08-.37-.24-1.11-.33-1.48-2.85-.16-5.72-.18-8.58-.01M58.86,274.93c.09.48.27,1.44.35,1.92,5.57.21,11.15-.01,16.73.11.02-.51.07-1.53.09-2.03-5.72-.05-11.45.01-17.17,0M59.15,279.54c-.01.46-.03,1.38-.04,1.84,5.52-.05,11.04.15,16.55-.05.18-.37.53-1.12.7-1.5-5.7-.64-11.48-.07-17.21-.29M59.29,284.27c-.15.4-.45,1.19-.59,1.59,3.46.18,6.95.4,10.41.05l.86-1.02c-3.35-1.32-7.15-.62-10.68-.62Z"/>
    <path class="st28" d="M693.33,261.32c7.51.04,15.02.07,22.54.04-2.86,3.42-6.3,6.32-9.09,9.81-.79,3.36-.17,6.95-.34,10.4-1.13.59-2.26,1.19-3.37,1.79.01-4.03.06-8.06-.17-12.08-3.1-3.4-6.32-6.7-9.57-9.96Z"/>
    <path class="st28" d="M677.82,349.02c2.46-2.44,5.3-5.16,9.07-4.88,55.73-.05,111.46-.08,167.18.03,4.59-.39,8.67,2.91,9.08,7.54-.13,21.11.15,42.23-.1,63.34.25,4.35-3.92,7.68-8.07,7.45-54.34.05-108.69-.05-163.03.09-4.02-.13-8.94.81-11.97-2.54-1.95-1.79-2.43-4.47-2.3-7,.13-21.34-.04-42.69.14-64.03M689.5,364.87c3.29,3.96,7.17,7.4,10.63,11.23.08,3.63.17,7.27.09,10.91.18,1.29-.63,3.31.95,4.01,2.69-1.03,5.71-2.03,7.72-4.13.59-3.49.12-7.07.28-10.59,3.65-3.83,7.29-7.66,10.92-11.52-.21-.51-.63-1.54-.84-2.06-8.74.11-17.48.05-26.21.05-1.52-.09-4.11-.25-3.54,2.1Z"/>
    <path class="st28" d="M46.92,352.05c1.88-1.24,3.53-3.36,6.04-3.01,9.68.03,19.37-.02,29.05.02,2.9-.38,5.84,2.05,5.92,4.98.25,6.99-.52,14.02.41,20.99.09,1.28.17,2.57.22,3.87-.35,5.35.14,10.72-.32,16.06-.27,2.96-3.49,4.55-6.18,4.54-8.66.18-17.32-.05-25.98.1-2.46-.06-5.32.26-7.28-1.56-2.4-1.95-2.01-5.33-2.09-8.07.19-12.64-.22-25.29.21-37.92M54.27,359.99c-.01,9.36-.02,18.73,0,28.09-.21,1.63.96,3.59,2.76,3.5,6.96.13,13.93.04,20.89.01,1.9.12,3.59-1.62,3.12-3.55-.16-7.63.05-15.27-.1-22.9-2.96-2.92-5.81-5.93-8.95-8.65-4.97.08-9.95,0-14.93.09-1.82-.22-3.06,1.77-2.79,3.41Z"/>
    <path class="st28" d="M56.26,358.36c4.87-.04,9.74,0,14.62-.06.08,2.79-.25,5.64.45,8.38,2.62.11,5.24.15,7.86.1-.12,7.68.33,15.39-.26,23.05-7.58.07-15.17.08-22.75-.03-.37-10.46-.59-21,.08-31.44M58.99,369.27c0,.41.04,1.25.06,1.66,2.98.03,6.93,1.17,9.41-.63l-.48-1.06c-2.99-.2-6-.16-8.99.03M59.51,373.9c-1.79.61.19,2.55,1.5,1.82,4.66.02,9.33.08,14-.03,1.58.68,1.32-2.47-.09-1.91-5.13.13-10.29-.13-15.41.12M59.46,378.63c-.22.37-.68,1.12-.91,1.49,5.9.3,11.82.32,17.72-.06-.2-.36-.59-1.1-.78-1.47-5.33-.17-10.7-.21-16.03.04M59.03,383.18c-.06.44-.18,1.33-.24,1.77,3.5.1,7,.22,10.49.03.01-.46.02-1.39.02-1.86-3.42-.13-6.86-.19-10.27.06Z"/>
    <path class="st28" d="M693.49,365.33c7.46.11,14.92.07,22.38.02-3.04,3.43-6.4,6.56-9.44,10,.06,3.46.17,6.93-.07,10.39-1.14.53-2.28,1.07-3.41,1.61-.17-4.08.24-8.19-.19-12.25-2.91-3.42-6.26-6.43-9.27-9.77Z"/>
  </g>
  <g id="_x23_438cd5ff">
    <path class="st16" d="M528.23,143.71c-.05-3.48,3.38-6.41,6.75-6.31,22.34,0,44.67.02,67.01,0,3.52-.31,7.03,2.15,7.6,5.72.45,7.88-.28,15.8.36,23.67,15.79.04,31.58-.04,47.37.07.11-2.62.1-5.24.02-7.85,6.09,2.12,11.76,5.53,17.5,8.51.39.33,1.18,1.01,1.58,1.35-.8.49-1.59.98-2.38,1.47-5.43,3.1-11.09,5.76-16.62,8.66,0-2.64-.02-5.28-.09-7.91-14.79-.06-29.59.09-44.39-.05-.82-.02-2.47-.04-3.29-.05-.12,5.7.07,11.4-.05,17.1,0,3.93-3.71,7.17-7.58,7.01-22,.17-44-.02-66.01.03-4.09.51-7.79-3.09-7.63-7.15.26-11.33-.88-22.67-.08-34,.19-3.42-.07-6.84-.07-10.26Z"/>
    <path class="st16" d="M507.36,158.96c6.08,2.15,11.66,5.58,17.45,8.41.4.37,1.22,1.13,1.62,1.51-.82.5-1.63,1-2.45,1.5-5.48,2.97-10.99,5.9-16.58,8.65.02-2.68.01-5.35-.07-8.02-7.72,0-16.18-.14-22.77,4.53-3.86,2.91-6.45,7.25-8.16,11.71-6.98,22.1.57,46.22-8.15,67.99-2.01,6.71-7.52,11.38-13.14,15.11-4.66.31-9.37-.27-13.99.27l-.75.64c.04-.27.12-.81.15-1.08-1.61.22-3.22.27-4.83.11-.08.33-.25.99-.33,1.32l.08-1.33c-5.2.07-10.4.01-15.6.09-.03,1.54-.06,3.1-.09,4.65-.07-1.59-.15-3.17-.23-4.75,9.79-.38,19.83.59,29.3-2.54,7.69-2.01,13.75-8.43,15.98-15.97,6.5-19.65,1.42-40.68,5.89-60.65,1.79-8.25,6.02-16.77,13.95-20.6,6.95-3.86,15.07-3.87,22.79-4.2-.02-2.45-.05-4.9-.07-7.35Z"/>
  </g>
  <g id="_x23_cbcdd0ff">
    <path class="st14" d="M676.93,143.01c.25-.23.75-.69,1-.92-.42,19.61-.03,39.23-.24,58.85.03,3.74-.54,8.12,2.4,11.01,3.34,3.48,8.61,1.99,12.89,2.21,54.34-.06,108.67.11,163.01-.03,2.8-.04,5.42-1.92,6.64-4.39.91-2.82.55-5.84.62-8.75-.25-19.65.25-39.33-.21-58.97,1.35,1.66,1.59,3.83,1.56,5.9-.03,20.71.1,41.43-.03,62.14-.02,2.95-2.56,5-4.13,7.25-2.46.53-4.92,1.23-7.45,1.14-53.42.13-106.83-.02-160.25.03-3.79.16-7.58-.29-11.26-1.21-3.25-1.26-5.36-4.83-5.08-8.28,0-9,.04-18,0-26.99-.46-3.3-1.06-6.58-1.15-9.92-.31-.44-.91-1.31-1.21-1.75.79-.49,1.58-.98,2.38-1.47-.4-.34-1.19-1.02-1.58-1.35.34-2.23.75-4.44,1.18-6.65,1.11-5.88-.43-12.04.91-17.85Z"/>
    <path class="st14" d="M676.52,352.41c.03-1.26.7-2.33,1.3-3.39-.18,21.34-.01,42.69-.14,64.03-.13,2.53.35,5.21,2.3,7,3.03,3.35,7.95,2.41,11.97,2.54,54.34-.14,108.69-.04,163.03-.09,4.15.23,8.32-3.1,8.07-7.45.25-21.11-.03-42.23.1-63.34,1.56,1.32,1.06,3.51,1.22,5.32.01,19.65.04,39.3-.05,58.95.19,6.1-5.51,10.63-11.32,10.39-53.68-.03-107.36.05-161.05.01-4.19-.06-8.8.38-12.52-1.9-1.96-1.94-3.18-4.73-3.06-7.51.07-11.34-.01-22.67.06-34.01.13-1.99-.7-3.83-1.42-5.62.33-.31.99-.94,1.32-1.25-.73-.48-1.46-.94-2.18-1.4,3.76-6.87,1.71-14.86,2.37-22.28Z"/>
  </g>
  <g id="_x23_d0d2d4ff">
    <path class="st5" d="M526.46,144.48c.44-.2,1.33-.58,1.77-.77,0,3.42.26,6.84.07,10.26-.8,11.33.34,22.67.08,34-.16,4.06,3.54,7.66,7.63,7.15,22.01-.05,44.01.14,66.01-.03,3.87.16,7.58-3.08,7.58-7.01.12-5.7-.07-11.4.05-17.1.82.01,2.47.03,3.29.05-.39.28-1.19.85-1.59,1.13,1.38,5.26.16,10.51.21,15.83-.18,2.88-1.45,5.54-2.37,8.24-2.24,1.18-4.51,2.64-7.14,2.5-22.64-.24-45.29.25-67.94-.16-3.42-.26-6.57-2.62-7.62-5.92-1.05-7.36,1.47-15.51-2.51-22.27.82-.5,1.63-1,2.45-1.5-.4-.38-1.22-1.14-1.62-1.51,2.61-7.38.99-15.28,1.65-22.89Z"/>
    <path class="st5" d="M526.36,251.12c-.05-1.44.96-2.49,1.92-3.41-.04,15.31-.43,30.63.2,45.92.76,2.88,3.5,5.27,6.58,5.05,22.33-.07,44.66.04,66.99-.02,3.76.17,7.42-2.85,7.57-6.69.26-5.65-.2-11.31.18-16.96.46,0,1.4-.02,1.87-.02-.34,8.4,1.21,17.33-2.57,25.19-2.3,2.85-6.22,2.47-9.45,3.11-2.92.61-5.73-.86-8.64-.72-19,.09-38.01.2-57.01-.02-3.32.2-5.33-2.82-7.38-4.91-.67-4.14-1.75-8.27-1.1-12.49-.03-3.6.99-7.79-1.47-10.82,1.04-.55,2.07-1.1,3.11-1.65-.83-.5-1.67-.99-2.51-1.47,2.69-6.43,1.23-13.38,1.71-20.09Z"/>
  </g>
  <g id="_x23_d5d7d9ff">
    <path class="st18" d="M44.68,150.34c.47-1.84-.24-4.84,2.09-5.49-.02,12.38.08,24.76-.02,37.14.06,2.2-.02,4.85,1.94,6.33,2.22,2.09,5.49,1.5,8.26,1.64,8.39-.16,16.79.08,25.18-.1,2.86.11,6.12-1.73,6.19-4.89.38-4.86-.07-9.73.16-14.59.75.03,1.51.06,2.26.08-.22,5.72.35,11.48-.32,17.17-.96,2.91-3.62,4.82-5.56,7.06-11.47,0-22.94-.23-34.4.16-1.71-1.66-3.56-3.23-4.88-5.24-1.84-4.22-.97-8.88-1.05-13.32-.28-8.65-.09-17.3.15-25.95Z"/>
    <path class="st18" d="M44.43,367.03c.17-5-1.16-10.88,2.49-14.98-.43,12.63-.02,25.28-.21,37.92.08,2.74-.31,6.12,2.09,8.07,1.96,1.82,4.82,1.5,7.28,1.56,8.66-.15,17.32.08,25.98-.1,2.69.01,5.91-1.58,6.18-4.54.46-5.34-.03-10.71.32-16.06l.49.55c2.57,2.09,1.44,5.69,1.74,8.55-.12,4.44.61,9.63-2.48,13.27-3.14,3.55-8.19,2.3-12.35,2.5-8.87-.27-17.78.47-26.61-.28-3.49-2.22-4.76-6.54-4.91-10.46-.26-8.67.29-17.33,0-26Z"/>
  </g>
  <g id="_x23_575d65ff">
    <path class="st1" d="M54.35,150.05c-.18-1.28.56-2.35,1.62-2.99,5.38-.13,10.78.15,16.16-.07,3.04,2.89,6.39,5.58,8.86,8.97.15,7.69.05,15.4.03,23.1.31,1.72-1.36,3.01-2.95,2.95-7.02.12-14.06.07-21.09-.12-1.58.21-2.74-1.5-2.67-2.92-.1-9.64,0-19.28.04-28.92M56.12,148.81c-.05,10.46-.16,20.94.03,31.39,7.63.2,15.26.11,22.89-.03.25-7.66.21-15.34.08-23-2.67.06-5.34.02-8.01-.16-.28-2.76-.25-5.52-.17-8.28-4.94,0-9.88-.09-14.82.08M72.68,150.06c.03,1.71.07,3.42.12,5.13,1.69.04,3.38.06,5.07.07-1.65-1.81-3.38-3.54-5.19-5.2Z"/>
    <path class="st1" d="M59.43,164.32c5.41-.15,10.84-.15,16.24-.02.17.44.49,1.31.65,1.75-5.86.2-11.72.18-17.58.02.18-.44.52-1.31.69-1.75Z"/>
    <path class="st1" d="M58.9,219.97c5.69-.07,11.4-.25,17.08.06-.03.42-.09,1.27-.12,1.69-5.52.18-11.07.18-16.59,0-.09-.44-.28-1.31-.37-1.74Z"/>
    <path class="st1" d="M59.24,270.44c2.86-.17,5.73-.15,8.58.01.09.37.25,1.11.33,1.48-3.04.43-6.18.38-9.24.07.08-.39.25-1.17.33-1.56Z"/>
    <path class="st1" d="M58.99,369.27c2.99-.19,6-.23,8.99-.03l.48,1.06c-2.48,1.8-6.43.66-9.41.63-.02-.41-.05-1.25-.06-1.66Z"/>
    <path class="st1" d="M59.51,373.9c5.12-.25,10.28.01,15.41-.12,1.41-.56,1.67,2.59.09,1.91-4.67.11-9.34.05-14,.03-1.31.73-3.29-1.21-1.5-1.82Z"/>
  </g>
  <g id="_x23_151314ff">
    <path class="st2" d="M451.68,149.39c.19-.13.57-.4.76-.53-.32,6.5.88,13.44,5.25,18.51,2.56,3.26,6.39,5.02,10.08,6.67.32-.43.96-1.3,1.28-1.73,1.2,1.1,2.35,2.26,3.41,3.5-1.78.23-3.54.52-5.28.95.27-.42.8-1.27,1.07-1.69-3.34-1.67-6.97-3-9.68-5.67-5.27-5.15-7.42-12.79-6.89-20.01Z"/>
    <path class="st2" d="M510.87,188.7c1.23-1.36,2.46-2.73,3.71-4.08.4,1.83.86,3.66,1.43,5.46-.52-.31-1.56-.92-2.08-1.22-1.9,5.66-1.46,12.72,2.92,17.13,2.49,2.53,6.28,2.2,9.24,3.8-4.32-.17-9.01-1.56-11.53-5.31-3.04-4.59-2.85-10.44-1.46-15.55-.56-.06-1.67-.17-2.23-.23Z"/>
    <path class="st2" d="M354.62,262.54c.96-1.15,2.4.22,2.04,1.39.02,3.01.04,6.02-.02,9.03.5,1.67-2.95,1.93-2.34.01.1-3.44-.59-7.18.32-10.43Z"/>
    <path class="st2" d="M511.15,395.24c1.16-1.41,2.31-2.81,3.45-4.24.43,1.83.9,3.66,1.39,5.48-.55-.2-1.63-.6-2.18-.8-1.37,5.52-1.5,12.35,2.9,16.6,2.43,2.57,6.11,2.88,9.4,3.48-2.43,1.25-5.39-.27-7.66-1.29-6.5-3.66-7.35-12.32-5.34-18.82-.49-.11-1.47-.31-1.96-.41Z"/>
  </g>
  <g id="_x23_f6f8f8ff">
    <path class="st26" d="M72.68,150.06c1.81,1.66,3.54,3.39,5.19,5.2-1.69,0-3.38-.03-5.07-.07-.05-1.71-.09-3.42-.12-5.13Z"/>
    <path class="st26" d="M72.61,260.98c2.12,1.24,3.6,3.26,5.31,4.97-1.71.08-3.42.14-5.13.19-.1-1.72-.17-3.44-.18-5.16Z"/>
    <path class="st26" d="M346,269.47c.28-1.53.79-3,1.39-4.43.44,1.43.92,2.87,1.4,4.31-.7.03-2.1.09-2.79.12Z"/>
  </g>
  <g id="_x23_111011ff">
    <path class="st30" d="M689.91,155.03c9.71-.27,19.47-.19,29.19,0,.27.45.83,1.36,1.1,1.82-3.73,3.96-7.44,7.94-11.09,11.98.09,3.48.01,6.95-.01,10.43-2.78,1.42-5.54,3.91-8.81,3.55-.13-4.62.09-9.23-.12-13.84-3.08-4.46-7.4-7.96-10.88-12.1.15-.46.47-1.37.62-1.83M693.81,157.64c2.39,2.75,4.94,5.35,7.44,8,.78.95,2.1,1.84,1.81,3.28-.08,3.52-.1,7.05-.01,10.58,1.09-.55,2.19-1.1,3.3-1.64.07-3.48,0-6.97.15-10.45,3.07-3.32,6.27-6.51,9.35-9.82-7.35.05-14.7.04-22.04.05Z"/>
    <path class="st30" d="M341.02,254.03c.41-1.73-1.12-6.06,2-5.3,1.23,1.38.36,3.61.68,5.34,1.57,0,3.15,0,4.73,0,.41-1.8-1.14-4.98,1.34-5.59,2.3.61.9,3.8,1.35,5.56,1.55,0,3.11,0,4.67,0,0-1.73-.03-3.46.11-5.18,3.57-1.49,2.14,3.21,2.46,5.18,3.39-.33,5.66,2.57,5.93,5.69,1.61-.05,3.25-.23,4.86.09,1.43,3.48-3.24,2.17-5.14,2.41-.04,1.53-.07,3.07-.1,4.6,1.77.41,4.84-.98,5.6,1.25-.47,2.4-3.71.96-5.43,1.31-.08,1.59-.15,3.18-.15,4.77,1.86.01,7.22-.71,4.97,2.55-1.58.14-3.16.1-4.73.1-.01,3.21-2.47,5.8-5.73,5.73.03,1.85.02,3.7-.38,5.52-3.27.18-1.99-3.6-2.26-5.64-1.54,0-3.07-.01-4.6-.02-.58,1.81.9,5.95-2.1,5.51-1.24-1.54-.5-3.67-.7-5.46-1.57,0-3.13-.01-4.68-.01-.29,1.9,1.01,4.99-1.57,5.74-1.8-1.32-.81-3.73-1.04-5.59-3.29.08-5.88-2.43-5.83-5.74-1.71-.28-5.28.88-5.38-1.74,1.31-1.69,3.71-.64,5.5-.92,0-1.6-.02-3.19-.02-4.78-1.84-.24-6.48,1.02-5.2-2.31,1.75-.28,3.53-.25,5.3-.28-.03-1.53-.06-3.05-.07-4.57-2.09-.16-5.91.98-5.53-2.39,1.78-.15,3.57-.22,5.36-.22-.05-3.23,2.5-5.88,5.78-5.63M339.09,256.94c-.23.29-.69.87-.92,1.16-.2,6.31-.04,12.64-.08,18.95-.34,1.65,1.21,3.03,2.81,2.73,5.72-.02,11.44.02,17.16.04,1.16.03,3.16-.11,3.16-1.71.12-6.69.2-13.4-.08-20.09-.3-.28-.88-.86-1.17-1.15-6.94-.21-13.95-.3-20.88.07Z"/>
    <path class="st30" d="M346.3,262.39c2.38-1,2.95,1.96,3.62,3.51.79,2.82,2.9,5.51,2.37,8.53-1.76-.12-2.25-1.75-3.07-2.97-1.37-.03-2.73-.02-4.08.03-.51,1.29-1.08,3.73-3.06,2.53.66-3.99,2.38-8.02,4.22-11.63M346,269.47c.69-.03,2.09-.09,2.79-.12-.48-1.44-.96-2.88-1.4-4.31-.6,1.43-1.11,2.9-1.39,4.43Z"/>
    <path class="st30" d="M510.97,292.75c1.18-1.33,2.4-2.65,3.64-3.93.42,1.85.9,3.7,1.49,5.52-.56-.3-1.68-.89-2.24-1.19-1.38,5.32-1.6,11.61,2.08,16.09,2.26,2.89,6.08,3.47,9.45,4.17-4.55.79-9.63-1.96-11.63-6.18-2.25-4.44-1.7-9.56-.69-14.26-.53-.06-1.58-.17-2.1-.22Z"/>
  </g>
  <g id="_x23_50555bff">
    <path class="st21" d="M60.06,161.55c-1.56.66-1.56-2.38-.02-1.8,2.81-.17,5.64-.15,8.44.15-1.15,3.3-5.74,1.17-8.42,1.65Z"/>
    <path class="st21" d="M59.29,284.27c3.53,0,7.33-.7,10.68.62l-.86,1.02c-3.46.35-6.95.13-10.41-.05.14-.4.44-1.19.59-1.59Z"/>
  </g>
  <g id="_x23_5c636aff">
    <path class="st19" d="M88.37,165.95c12.45.27,26-1.16,37.11,5.66,10.37,6.69,13.09,19.82,14.23,31.26,1.26,18.61-1.45,38.36,6.55,55.84,2.06,5.31,7.09,8.52,12.17,10.51.08-2.1.11-4.19.01-6.28,5.04,2.37,10.01,4.92,14.92,7.55,1.99,1.23,4.42.77,6.64.84,26.48-.07,52.96-.02,79.44-.04-.04-2.74-.07-5.48-.07-8.21,6.16,3.26,12.55,6.13,18.53,9.72.27.18.82.55,1.09.73-.44.22-1.3.68-1.73.9-6.04,2.97-11.87,6.32-17.93,9.24,0-2.64.02-5.27.09-7.9-26.15-.02-52.3.02-78.44-.02-2.78.09-5.75-.4-8.3.97-4.79,2.29-9.41,4.91-14.17,7.25,0-2.32.02-4.63.04-6.94-5.01.94-9.47,4.2-11.78,8.76-4.46,8.34-5.5,17.99-6.06,27.29-1.26,11.64.18,23.44-1.82,35.02-1.29,9.58-4.76,20.01-13.46,25.31-10.75,7.01-24.14,5.89-36.38,6.04l-.49-.55c-.05-1.3-.13-2.59-.22-3.87,9.94-.33,20.31.8,29.82-2.8,6.75-2.47,11.88-8.33,14.02-15.11,5.16-16.23,2.46-33.47,4.59-50.1-4.62,8.1-12.7,13.79-21.7,16.01-8.6,2.63-17.65,1.97-26.51,2.02-.03-1.5-.05-3-.08-4.5,11.61.36,24.2.66,34.44-5.69,5.88-3.43,10.09-9.17,12.5-15.45,1.43-3.73,2.08-7.71,3.81-11.33,2.29-4.83,5.87-8.97,10.12-12.18-19.95-.1-39.9-.11-59.85.13-.24-.09-.74-.27-.98-.37-.06-1.34-.06-2.68-.09-4.02,2.87-.42.08-3.69,1.06-5.49,1.15-3.64-.82-7.25-.16-10.9.96,1.19,2.57,3.32.37,4.43.19,3.41,1.04,6.76,1.79,10.04-.23.23-.67.69-.9.92l.79.63c19.82.18,39.64.01,59.46.08-7.03-4.68-12.28-11.88-14.07-20.19-1.79-8.41-6.51-16.58-14.22-20.79-9.78-5.74-21.57-4.72-32.45-4.97-.4-.04-1.19-.12-1.59-.17.03-1.2.08-2.4.14-3.6,2.19-6.98,1.04-14.5.84-21.69.93,6.99,1.04,14.18-.23,21.13,11.43-.15,23.57-.75,34.07,4.56,5.59,2.63,9.97,7.26,13.3,12.38-1.96-15.26.47-30.96-3.38-46.02-1.65-7.17-5.31-14.65-12.32-17.89-9.38-4.47-20.1-3.36-30.19-3.64-.75-.02-1.51-.05-2.26-.08.02-1.48-.02-2.96-.11-4.43Z"/>
    <path class="st19" d="M59.22,169.05c5.69-.25,11.4-.07,17.11.02-.16.42-.46,1.24-.61,1.65-5.58.15-11.16.11-16.74.12.06-.44.18-1.34.24-1.79Z"/>
    <path class="st19" d="M67.14,325.14c2.39-1.74,5.35,2.34,2.75,3.93-2.39,2.14-5.69-2.32-2.75-3.93Z"/>
  </g>
  <g id="_x23_51585fff">
    <path class="st17" d="M59.52,173.6c2.8-.21,5.63-.12,8.44-.09.97-.03,1.61.46,1.92,1.45-3.7.65-7.49.35-11.22.13.22-.37.65-1.12.86-1.49Z"/>
    <path class="st17" d="M54.27,260.91c-.23-1.57,1.02-3.37,2.72-3.22,5-.23,10.02.02,15.03-.13,3.16,2.66,5.91,5.77,8.75,8.75.65,7.52.14,15.18.25,22.75.26,1.75-.93,3.89-2.92,3.71-7.01.17-14.03.11-21.05.01-1.87,0-3.08-2.05-2.79-3.78.01-9.36-.02-18.73.01-28.09M57.26,259.39c-1.81-.06-1.23,2.42-1.38,3.56.13,9.27-.1,18.57.34,27.82,7.57.48,15.2.02,22.8.11.54-7.66.01-15.35.18-23.02-2.39-.02-4.8.08-7.19-.16-2.25-1.98-.74-5.63-1.22-8.29-4.51.02-9.02-.14-13.53-.02M72.61,260.98c.01,1.72.08,3.44.18,5.16,1.71-.05,3.42-.11,5.13-.19-1.71-1.71-3.19-3.73-5.31-4.97Z"/>
    <path class="st17" d="M59.15,279.54c5.73.22,11.51-.35,17.21.29-.17.38-.52,1.13-.7,1.5-5.51.2-11.03,0-16.55.05,0-.46.03-1.38.04-1.84Z"/>
    <path class="st17" d="M54.27,359.99c-.27-1.64.97-3.63,2.79-3.41,4.98-.09,9.96,0,14.93-.09,3.14,2.72,5.99,5.73,8.95,8.65.15,7.63-.06,15.27.1,22.9.47,1.93-1.22,3.67-3.12,3.55-6.96.03-13.93.12-20.89-.01-1.8.09-2.97-1.87-2.76-3.5-.02-9.36-.01-18.73,0-28.09M56.26,358.36c-.67,10.44-.45,20.98-.08,31.44,7.58.11,15.17.1,22.75.03.59-7.66.14-15.37.26-23.05-2.62.05-5.24.01-7.86-.1-.7-2.74-.37-5.59-.45-8.38-4.88.06-9.75.02-14.62.06M72.75,360.11c0,1.53.02,3.06.04,4.6,1.76.13,3.53.22,5.3.21-1.75-1.63-3.2-3.66-5.34-4.81Z"/>
    <path class="st17" d="M59.46,378.63c5.33-.25,10.7-.21,16.03-.04.19.37.58,1.11.78,1.47-5.9.38-11.82.36-17.72.06.23-.37.69-1.12.91-1.49Z"/>
  </g>
  <g id="_x23_d1d3d6ff">
    <path class="st27" d="M44.48,204.98c.21-2.44,1.1-4.84,2.48-6.85-.64,12.28-.08,24.59-.31,36.89.08,2.9-.39,6.26,1.71,8.61,1.6,1.96,4.41,1.6,6.66,1.75,9-.09,18.01,0,27.01-.02,2.71.12,6.1-1.31,6.26-4.4.49-5.22.09-10.49.22-15.73.4.05,1.19.13,1.59.17.71,4.88,1.44,9.79.51,14.69.27,4.2-2.43,8.63-6.67,9.5-10.31.22-20.64-.06-30.96.09-3.22.33-6.65-1.83-7.34-5.07-1.91-6.47-.69-13.22-.98-19.83-.43-6.59-.14-13.2-.18-19.8Z"/>
  </g>
  <g id="_x23_4c5259ff">
    <path class="st7" d="M54.3,205.92c-.26-1.62,1.05-3.41,2.76-3.27,5.04-.17,10.09-.07,15.13-.08,2.95,2.83,5.93,5.65,8.5,8.82.61,6.5-.01,13.1.35,19.64-.15,2.26.66,5.88-2.29,6.61-6.93.19-13.87.02-20.8.07-1.72.29-3.72-.91-3.62-2.8-.09-9.66-.03-19.32-.03-28.99M55.85,204.75c.26,10.34-.3,20.7.34,31.01,6.26.67,12.55.23,18.82.18,1.28-.3,3.38.57,4.09-.89.28-7.41-.02-14.82.09-22.23-2.54-.12-5.19.31-7.66-.34-1.33-2.48-.4-5.47-.61-8.16-5.02.14-10.11-.43-15.07.43M72.71,205.56c-.05,1.89-.06,3.78-.05,5.67,1.78-.04,3.55-.13,5.33-.24-1.68-1.89-3.43-3.71-5.28-5.43Z"/>
    <path class="st7" d="M59.44,215.35c2.79-.21,5.6-.15,8.39,0,.05.41.15,1.22.2,1.63-3.07.35-6.16.15-9.22,0,.15-.41.47-1.23.63-1.64Z"/>
    <path class="st7" d="M58.68,226.08c.37-2.27,2.76-1.39,4.33-1.58,4.15.09,8.31-.12,12.46.05.21.4.63,1.18.84,1.58-5.87.24-11.77.33-17.63-.05Z"/>
  </g>
  <g id="_x23_c7caccff">
    <path class="st31" d="M278.71,206.05c-.12-1.31.28-2.43,1.18-3.36.77,41.11-.37,82.23-.12,123.35.13,3.77-.51,7.74.87,11.36,1.34,3.24,4.97,4.93,8.37,4.64,41.01-.11,82.03.02,123.04-.09,4.65.21,8.19-4.48,7.81-8.89-.19-19.35.35-38.7-.11-58.04,5.64,0,11.28-.07,16.92-.02l.87.34c-5.22.74-10.52-.36-15.73.51-.57,2.94-.57,5.94-.38,8.92.25,17.01-.22,34.01-.12,51.01-.64,3.76-1.61,8.25-5.78,9.52-5.79.93-11.72.28-17.56.42-34.64.03-69.29-.02-103.93.01-3.63.68-7.47.74-10.86-.92-2.66-2.02-4.28-5.35-4.69-8.63.07-18.39-.12-36.79,0-55.19-.03-2.24.27-4.69-1.23-6.56.43-.22,1.29-.68,1.73-.9-.27-.18-.82-.55-1.09-.73.38-2.24.72-4.5.74-6.78.12-19.99.1-39.98.07-59.97Z"/>
    <path class="st31" d="M863.26,244.92c2.61,4.97.38,10.77,1.7,16.03.7,2.34-.74,4.63-.47,7,.15,15.01.02,30.03.06,45.04.48,3.87-2.6,7.55-6.36,8.19-4.94,1.85-10.17.28-15.26.66-6.31.64-12.63-.35-18.96.02-8.65.59-17.32.21-25.97.37-11.66-.66-23.32.2-34.99-.13-17.01-.52-34.02.58-51.03-.31-8.64-.05-17.28,0-25.91,0-2.73.19-5.17-1.09-7.49-2.33-1.01-2.73-2.28-5.47-2.13-8.45.01-10.02.04-20.05-.02-30.06-.47-2.23.15-5.61-2.44-6.61.87-.49,1.74-.98,2.63-1.48-.42-.37-1.24-1.12-1.65-1.49,1.71-6.33,1.65-12.85,1.47-19.35.18-1.99-.6-4.72,1.5-5.94-.56,5.96-.16,11.96-.25,17.94.11,15.32-.12,30.64-.01,45.96-.11,3.97,3.07,8.25,7.27,8.22,57.02.07,114.05,0,171.07.05,4.16-.07,7.62-4.11,7.3-8.23-.07-21.27-.03-42.55-.07-63.83v-1.27Z"/>
  </g>
  <g id="_x23_686c72ff">
    <path class="st24" d="M59.24,229.15c3.25-.26,6.54-.28,9.79-.07.4.44,1.19,1.33,1.58,1.77-3.92.28-7.86.25-11.78.05.1-.44.31-1.31.41-1.75Z"/>
  </g>
  <g id="_x23_df5639ff">
    <path class="st15" d="M528.28,247.71c-.22-3.47,3.19-6.68,6.63-6.45,22.71,0,45.42,0,68.13.01,3.56-.01,6.64,3.15,6.67,6.7.1,7.48-.01,14.96.03,22.44,15.87.02,31.74.03,47.62-.01-.1-2.72-.12-5.44-.05-8.16,5.79,3.24,11.78,6.07,17.66,9.13.41.37,1.23,1.12,1.65,1.49-.89.5-1.76.99-2.63,1.48-5.58,2.78-11.01,5.85-16.58,8.63.01-2.69.01-5.39,0-8.08-15.24.17-30.49.1-45.73.1-.47,0-1.41.02-1.87.02-.38,5.65.08,11.31-.18,16.96-.15,3.84-3.81,6.86-7.57,6.69-22.33.06-44.66-.05-66.99.02-3.08.22-5.82-2.17-6.58-5.05-.63-15.29-.24-30.61-.2-45.92Z"/>
    <path class="st15" d="M507.37,262.32c5.78,2.93,11.48,6,17.28,8.89.84.48,1.68.97,2.51,1.47-1.04.55-2.07,1.1-3.11,1.65-5.58,2.88-11.02,6.01-16.65,8.77.03-2.7.03-5.39-.05-8.09-17.67.05-35.33-.09-52.99-.01-5.9.1-11.8-.23-17.69,0-5.64-.05-11.28.01-16.92.02.03-1.55.06-3.11.09-4.65,5.2-.08,10.4-.02,15.6-.09l-.08,1.33c.08-.33.25-.99.33-1.32,1.61.16,3.22.11,4.83-.11-.03.27-.11.81-.15,1.08l.75-.64c4.62-.54,9.33.04,13.99-.27,17.43.16,34.88.04,52.32.07,0-2.7,0-5.4-.06-8.1Z"/>
  </g>
  <g id="_x23_dbdddeff">
    <path class="st3" d="M44.2,258.97c-.09-2.34,1.43-4.29,2.86-5.98-.46,12.66-.05,25.34-.22,38.01.08,2.18-.14,4.47.61,6.57.94,1.19,2.16,2.12,3.24,3.18-.1.32-.31.95-.41,1.27,7.73,2.13,15.82,1,23.72,1.31,4-.12,8.47.77,11.91-1.81l-.76-.81c1.24-1.81,3.41-3.3,3.38-5.69.6-6.21-.97-12.63.89-18.68l1.09,1.03c1.28,5.95.54,12.04.94,18.05.2,4.87-3.17,10.02-8.32,10.32-9.36.23-18.72-.09-28.08-.02-3.81.18-7.83-1.57-9.53-5.12-2.04-7.4-.67-15.09-1.21-22.63.24-6.33-.25-12.66-.11-19Z"/>
  </g>
  <g id="_x23_0e0d0eff">
    <path class="st4" d="M689.91,258.89c9.38-.27,18.78-.08,28.17-.11,1.5-.49,2.63,1.89,1.31,2.74-3.27,3.72-6.83,7.18-10.18,10.82-.02,3.55-.02,7.09-.07,10.64-2.71,1.58-5.49,3.82-8.76,3.73-.19-4.71-.18-9.42-.06-14.13-3.38-4.1-7.39-7.64-10.82-11.7.11-.5.31-1.5.41-1.99M693.33,261.32c3.25,3.26,6.47,6.56,9.57,9.96.23,4.02.18,8.05.17,12.08,1.11-.6,2.24-1.2,3.37-1.79.17-3.45-.45-7.04.34-10.4,2.79-3.49,6.23-6.39,9.09-9.81-7.52.03-15.03,0-22.54-.04Z"/>
    <path class="st4" d="M689.5,364.87c-.57-2.35,2.02-2.19,3.54-2.1,8.73,0,17.47.06,26.21-.05.21.52.63,1.55.84,2.06-3.63,3.86-7.27,7.69-10.92,11.52-.16,3.52.31,7.1-.28,10.59-2.01,2.1-5.03,3.1-7.72,4.13-1.58-.7-.77-2.72-.95-4.01.08-3.64,0-7.28-.09-10.91-3.46-3.83-7.34-7.27-10.63-11.23M693.49,365.33c3.01,3.34,6.36,6.35,9.27,9.77.43,4.06.02,8.17.19,12.25,1.13-.54,2.27-1.08,3.41-1.61.24-3.46.13-6.93.07-10.39,3.04-3.44,6.4-6.57,9.44-10-7.46.05-14.92.09-22.38-.02Z"/>
  </g>
  <g id="_x23_6c6f74ff">
    <path class="st22" d="M58.86,274.93c5.72.01,11.45-.05,17.17,0-.02.5-.07,1.52-.09,2.03-5.58-.12-11.16.1-16.73-.11-.08-.48-.26-1.44-.35-1.92Z"/>
  </g>
  <g id="_x23_8b8b8eff">
    <path class="st29" d="M436.67,275c5.89-.23,11.79.1,17.69,0,4.13,2.58,8.31,5.42,10.96,9.62,3.58,5.84,5.58,12.54,6.46,19.31,2.1,13.24.34,26.7,1.83,39.99.83,8.64,2.43,18.26,9.18,24.38,6.72,5.88,16.16,6.14,24.61,5.71.02-2.67,0-5.34-.09-8,5.49,2.76,10.98,5.54,16.51,8.22,1.18.62,2.6,1.11,3.24,2.4-6.74,3.19-13.26,6.81-19.83,10.32.13-2.76.18-5.52.19-8.27-8.5-.15-17.65-.08-25.03-4.95-7.81-5.31-11.45-14.76-12.5-23.82-2.94-18.04.88-36.78-4.53-54.47-2.12-7.67-7.68-14.71-15.42-17.2-3.97-1.61-8.25-2.05-12.4-2.9l-.87-.34Z"/>
    <path class="st29" d="M527.81,353.02c-.08-3.93,2.97-8.07,7.13-7.99,22.38-.02,44.75-.05,67.13.05,3.92-.48,7.57,2.95,7.67,6.82.29,7.3-.4,14.64.51,21.91,15.67.34,31.34-.05,47.01.18.1-2.67.11-5.35.03-8.02,5.63,2.89,11.35,5.61,16.86,8.72.72.46,1.45.92,2.18,1.4-.33.31-.99.94-1.32,1.25-5.96,3.02-11.82,6.25-17.77,9.3.09-2.78.35-5.59-.18-8.34-15.59.2-31.19.06-46.78.09-1.32,6.77.38,13.76-1.04,20.52-1.69,1.71-3.67,3.6-6.28,3.41-22.64-.13-45.28.23-67.91-.05-3.55.25-5.67-2.9-7.26-5.56-.03-14.56-.05-29.13.02-43.69Z"/>
  </g>
  <g id="_x23_c0c3c5ff">
    <path class="st0" d="M50.28,302.02c.1-.32.31-.95.41-1.27,11.48.02,22.97.08,34.46-.04l.76.81c-3.44,2.58-7.91,1.69-11.91,1.81-7.9-.31-15.99.82-23.72-1.31Z"/>
  </g>
  <g id="_x23_616870ff">
    <path class="st8" d="M67.48,315.54c3-1.55,4.97,4.32,1.51,4.66-2.88.93-4.26-3.61-1.51-4.66Z"/>
    <path class="st8" d="M67.18,334.2c2.42-1.8,5.32,2.27,2.91,3.99-2.34,2.77-5.99-2.42-2.91-3.99Z"/>
  </g>
  <g id="_x23_f4f5f6ff">
    <path class="st25" d="M72.75,360.11c2.14,1.15,3.59,3.18,5.34,4.81-1.77,0-3.54-.08-5.3-.21-.02-1.54-.04-3.07-.04-4.6Z"/>
  </g>
  <g id="_x23_646a71ff">
    <path class="st23" d="M59.03,383.18c3.41-.25,6.85-.19,10.27-.06,0,.47-.01,1.4-.02,1.86-3.49.19-6.99.07-10.49-.03.06-.44.18-1.33.24-1.77Z"/>
  </g>
  <g id="_x23_c4c7c9ff">
    <path class="st6" d="M527.79,396.71c1.59,2.66,3.71,5.81,7.26,5.56,22.63.28,45.27-.08,67.91.05,2.61.19,4.59-1.7,6.28-3.41.55,4.26-3.53,6.51-7.24,6.52-21.99-.11-43.99.22-65.98-.08-3.86-.82-8.51-4.38-8.23-8.64Z"/>
  </g>
  <g class="st12">
    <g class="st12">
      <text class="st9" transform="translate(10.79 477.11)"><tspan x="0" y="0">Unified Text Stream</tspan></text>
    </g>
  </g>
  <g class="st12">
    <g class="st12">
      <text class="st9" transform="translate(246.25 478.02)"><tspan x="0" y="0">Language-aware filtering</tspan></text>
    </g>
  </g>
  <g class="st12">
    <g class="st12">
      <text class="st9" transform="translate(1.46 111.91)"><tspan x="0" y="0">Unified Text Stream</tspan></text>
    </g>
  </g>
  <g class="st12">
    <g class="st12">
      <text class="st11" transform="translate(312.76 170.31)"><tspan x="0" y="0">Language </tspan><tspan x="-8.96" y="18">Identification</tspan></text>
    </g>
  </g>
  <g class="st12">
    <g class="st12">
      <text class="st11" transform="translate(316.45 308.4)"><tspan x="0" y="0">Classifier</tspan><tspan x="-1.67" y="18" xml:space="preserve"> AI model</tspan></text>
    </g>
  </g>
  <g class="st12">
    <g class="st12">
      <text class="st11" transform="translate(322.44 218.32)"><tspan x="0" y="0">FastText </tspan><tspan x="-7.7" y="18">(lid.176.ftz)</tspan></text>
    </g>
  </g>
  <g class="st12">
    <g class="st12">
      <text class="st9" transform="translate(280.6 110.58)"><tspan x="0" y="0">Core Module</tspan></text>
    </g>
  </g>
  <g class="st12">
    <g class="st12">
      <text class="st13" transform="translate(195.53 57.71)"><tspan x="0" y="0">Language Split and Branching Pipeline</tspan></text>
    </g>
  </g>
  <g class="st12">
    <g class="st12">
      <text class="st11" transform="translate(397.8 140.91)"><tspan x="0" y="0">Optional pipeline</tspan></text>
    </g>
  </g>
  <g class="st12">
    <g class="st12">
      <text class="st11" transform="translate(531.79 215.81)"><tspan x="0" y="0">English pipeline</tspan></text>
    </g>
  </g>
  <g class="st12">
    <g class="st12">
      <text class="st11" transform="translate(528.97 319.52)"><tspan x="0" y="0">Chinese pipeline</tspan></text>
    </g>
  </g>
  <g class="st12">
    <g class="st12">
      <text class="st11" transform="translate(531.12 421.95)"><tspan x="0" y="0">Other languages</tspan></text>
    </g>
  </g>
  <g class="st12">
    <g class="st12">
      <text class="st11" transform="translate(729.9 375.48)"><tspan x="0" y="0">Quality Filtering</tspan><tspan x="-9.55" y="18" xml:space="preserve"> (language-specific)</tspan><tspan x="-32.48" y="36">minimal filtering or discard</tspan></text>
    </g>
  </g>
  <g class="st12">
    <g class="st12">
      <text class="st11" transform="translate(735.29 269.37)"><tspan x="0" y="0">Quality Filtering </tspan><tspan x="-5.8" y="18">(language-specific)</tspan><tspan x="18.56" y="36">fewer rules</tspan></text>
    </g>
  </g>
  <g class="st12">
    <g class="st12">
      <text class="st11" transform="translate(734.32 163.89)"><tspan x="0" y="0">Quality Filtering </tspan><tspan x="-5.8" y="18">(language-specific)</tspan><tspan x="18.14" y="36">richer rules</tspan></text>
    </g>
  </g>
  <g class="st12">
    <g class="st12">
      <text class="st9" transform="translate(527.61 107.12)"><tspan x="0" y="0">3-way branch with per-language </tspan></text>
    </g>
  </g>
  <g class="st12">
    <g class="st12">
      <text class="st9" transform="translate(506.06 465.44)"><tspan x="0" y="0">Different rules</tspan><tspan x="4.46" y="22.8" xml:space="preserve"> per language</tspan></text>
    </g>
  </g>
  <g class="st12">
    <g class="st12">
      <text class="st9" transform="translate(686.53 477.02)"><tspan x="0" y="0">Plug-in pipeline design</tspan></text>
    </g>
  </g>
  <g class="st12">
    <g class="st12">
      <text class="st11" transform="translate(175.78 297.7)"><tspan x="0" y="0">Deduplicated </tspan><tspan x="8.75" y="18">text stream</tspan></text>
    </g>
  </g>
  <g class="st12">
    <g class="st12">
      <text class="st11" transform="translate(305.91 361.73)"><tspan x="0" y="0">lang = f(text)</tspan></text>
    </g>
  </g>
  <g class="st12">
    <g class="st12">
      <text class="st10" transform="translate(557.83 174.98)"><tspan x="0" y="0">en</tspan></text>
    </g>
  </g>
  <g class="st12">
    <g class="st12">
      <text class="st10" transform="translate(555.36 274.82)"><tspan x="0" y="0">zh</tspan></text>
    </g>
  </g>
  <g class="st12">
    <g class="st12">
      <text class="st10" transform="translate(543.4 379.3)"><tspan x="0" y="0">others</tspan></text>
    </g>
  </g>
</svg>