<?xml version="1.0" encoding="UTF-8"?>
<svg id="_图层_1" data-name="图层_1" xmlns="http://www.w3.org/2000/svg" version="1.1" viewBox="0 0 900 503">
  <!-- Generator: Adobe Illustrator 29.6.0, SVG Export Plug-In . SVG Version: 2.1.1 Build 207)  -->
  <defs>
    <style>
      .st0 {
        fill: #e6b684;
      }

      .st1 {
        fill: #7d7e7b;
      }

      .st2 {
        fill: #d5d4d4;
      }

      .st3 {
        fill: #464440;
      }

      .st4 {
        fill: #8a8c88;
      }

      .st5 {
        fill: #fee3c8;
      }

      .st6 {
        fill: #479d5c;
      }

      .st7 {
        fill: #f9c996;
      }

      .st8 {
        fill: #181716;
      }

      .st9 {
        fill: #cfe8d1;
      }

      .st10 {
        fill: #d28336;
      }

      .st11 {
        font-size: 29px;
      }

      .st11, .st12, .st13, .st14, .st15, .st16, .st17, .st18 {
        isolation: isolate;
      }

      .st11, .st12, .st16, .st17 {
        font-family: TimesNewRomanPS-BoldMT, 'Times New Roman';
        font-weight: 700;
      }

      .st19 {
        fill: #171716;
      }

      .st20 {
        fill: #cce7cf;
      }

      .st21 {
        fill: #cee8d1;
      }

      .st22 {
        fill: #72726e;
      }

      .st23 {
        fill: #77ad80;
      }

      .st12 {
        font-size: 19px;
      }

      .st24 {
        fill: #76a97d;
      }

      .st25 {
        fill: #fde3c6;
      }

      .st26 {
        fill: #6c6a63;
      }

      .st27 {
        fill: #1a1817;
      }

      .st28 {
        fill: #151312;
      }

      .st29 {
        fill: #100f0f;
      }

      .st30 {
        fill: #43423f;
      }

      .st31 {
        fill: #fac996;
      }

      .st32 {
        fill: #cf7b2b;
      }

      .st33 {
        fill: #888885;
      }

      .st34 {
        fill: #fff;
      }

      .st35 {
        fill: #2f2e2b;
      }

      .st36 {
        fill: #171514;
      }

      .st37 {
        fill: #21211e;
      }

      .st38 {
        fill: #cce6ce;
      }

      .st13, .st39 {
        font-size: 7px;
      }

      .st13, .st39, .st14, .st18 {
        font-family: TimesNewRomanPSMT, 'Times New Roman';
      }

      .st14 {
        font-size: 15px;
      }

      .st40 {
        fill: #f18110;
      }

      .st41 {
        fill: #929391;
      }

      .st42 {
        fill: #1e1d1b;
      }

      .st43 {
        fill: #22201d;
      }

      .st44 {
        fill: #1d1c1a;
      }

      .st45 {
        fill: #21201e;
      }

      .st46 {
        fill: #cfe9d1;
      }

      .st47 {
        fill: #7f807d;
      }

      .st48 {
        fill: #2c2b29;
      }

      .st49 {
        fill: #1a1816;
      }

      .st50 {
        fill: #7baa83;
      }

      .st51 {
        fill: #d28335;
      }

      .st52 {
        fill: #32302b;
      }

      .st53 {
        fill: #6a6861;
      }

      .st54 {
        fill: #181615;
      }

      .st55 {
        fill: #fee3c7;
      }

      .st56 {
        fill: #fee4c9;
      }

      .st57 {
        fill: #eee;
      }

      .st58 {
        fill: #f0efef;
      }

      .st59 {
        fill: #716f68;
      }

      .st60 {
        fill: #d4d3d3;
      }

      .st61 {
        fill: #727069;
      }

      .st62 {
        fill: #121110;
      }

      .st63 {
        fill: #fbe1c5;
      }

      .st64 {
        fill: #cf7a27;
      }

      .st65 {
        fill: #d2d2d1;
      }

      .st66 {
        fill: #73716c;
      }

      .st67 {
        fill: #81b489;
      }

      .st16, .st18 {
        font-size: 9px;
      }

      .st68 {
        fill: #71716c;
      }

      .st69 {
        fill: #20201e;
      }

      .st70 {
        fill: #cde7cf;
      }

      .st71 {
        fill: #312f2b;
      }

      .st72 {
        fill: #d4d2d2;
      }

      .st73 {
        fill: #7cad84;
      }

      .st74 {
        fill: #e2ae78;
      }

      .st75 {
        fill: #9f9f9d;
      }

      .st76 {
        fill: #e1ac77;
      }

      .st77 {
        fill: #fbe1c4;
      }

      .st78 {
        fill: #cee7d0;
      }

      .st79 {
        fill: #11100f;
      }

      .st17 {
        font-size: 21px;
      }

      .st80 {
        fill: #7b7c79;
      }

      .st81 {
        fill: #f9c895;
      }

      .st82 {
        fill: #e0ab74;
      }

      .st83 {
        fill: #cee8d0;
      }

      .st84 {
        fill: #cce7ce;
      }

      .st85 {
        fill: #70706b;
      }

      .st86 {
        fill: #cde8d0;
      }

      .st87 {
        fill: #6f6d68;
      }
    </style>
  </defs>
  <g id="_x23_ffffffff">
    <path class="st34" d="M0,0h900v503H0V0M312.39,58.58c-2.96.59-5.43,3.27-5.22,6.39-.04,123.68.04,247.39-.02,371.08.06,2.67.4,6.32,3.49,7.18,4.7,1.1,9.58.47,14.36.57,86.69.06,173.38-.05,260.06.05,2.51.05,5.55-.6,6.49-3.28,1.14-4.08.57-8.39.66-12.57-.06-102.33-.04-204.67-.07-307-.24-7.67-.29-15.34.04-23,.4-7.54-1.36-15.03-.57-22.56.31-3.74,1.01-7.54.3-11.28-.61-3.24-3.38-6.23-6.88-5.95-89.69-.05-179.39.04-269.08-.03-1.2.03-2.39.16-3.56.4M608.39,58.58c-3.43.62-5.69,3.95-5.36,7.36-.03,123.37.06,246.75-.07,370.12.12,1.73.06,3.58.87,5.18,1.57,2.28,4.6,2.48,7.12,2.6,90.36-.08,180.73.02,271.08-.06,4.23.34,6.91-3.94,6.74-7.76.06-123-.03-246.03,0-369.03-.18-3.13-1.18-7.11-4.58-8.12-4.97-1.22-10.14-.56-15.19-.67-85.68,0-171.37.02-257.05-.02-1.21.03-2.39.16-3.56.4M17.35,59.34c-3.01.71-5.26,3.63-5.28,6.71-.2,4.55.32,9.1.12,13.66-.48,14.77.61,29.54-.09,44.3.74,10.99.26,22.01.56,33.02-1.18,23.32-.83,46.67-.72,70,.84,10.32-.59,20.64-.09,30.97-.07,58.34.11,116.69-.06,175.03.13,2.86.05,6,1.67,8.5,2.19,1.47,4.96,1.5,7.5,1.66,89.36.04,178.73,0,268.09.06,2.15-.19,4.83-.03,6.26-1.98,1.61-2.03,1.62-4.77,1.75-7.22-.19-29.68-.02-59.37-.11-89.05.12-92.69-.09-185.37.02-278.06.28-3.18-1.47-6.33-4.57-7.36-4.67-1.33-9.61-.59-14.4-.7-85.68-.01-171.37-.02-257.05,0-1.22.04-2.42.2-3.6.46M15.37,452.51c-1.92.34-3.53,1.91-3.78,3.87-.83,5.5-.17,11.08-.3,16.62.14,5.59-.44,11.22.16,16.79.15,2.37,2.64,3.6,4.72,3.92,3.92.59,7.89.29,11.84.28,87.35.01,174.7.04,262.05.02,1.81-.19,4.07-.07,5.25-1.75,1.95-2.64,1.6-6.15,1.74-9.25-.2-7.35-.04-14.71-.05-22.06-.12-2.98-.2-7.08-3.43-8.42-4.45-.96-9.06-.39-13.57-.47-87.02.02-174.04.01-261.05-.01-1.21.04-2.4.2-3.58.46M310.44,452.55c-2.32.68-3.25,3.21-3.21,5.42-.21,7.67.18,15.35-.07,23.03.07,3.4-.42,6.96.68,10.24,1.54,2.32,4.56,2.63,7.1,2.77,89.7.04,179.41-.06,269.11.03,2.9-.2,7.92-.02,7.9-4.09.99-9.29.14-18.65.28-27.96-.1-2.7.09-5.57-1.15-8.04-.88-1.94-3.25-1.75-5.01-1.9-90.71.04-181.43.01-272.13.01-1.19.02-2.36.19-3.5.49M606.44,452.55c-2.32.68-3.33,3.18-3.33,5.42-.35,6.67.12,13.35-.06,20.03.05,4.51-.49,9.11.48,13.56.42,1.99,2.77,2.18,4.42,2.36,5.34.38,10.7.02,16.06.08,85.35.05,170.7-.03,256.05.03,2.95-.12,7.21-.16,8.19-3.66,1.04-4.72.41-9.59.5-14.37-.18-6.21.46-12.46-.31-18.64-.35-2.05-1.18-4.83-3.64-5.02-4.9-.72-9.87-.18-14.8-.26-86.35-.07-172.7.05-259.05-.06-1.52.05-3.05.11-4.51.53Z"/>
  </g>
  <g id="_x23_f0efefff">
    <path class="st58" d="M312.39,58.58c1.17-.24,2.36-.37,3.56-.4,89.69.07,179.39-.02,269.08.03,3.5-.28,6.27,2.71,6.88,5.95.71,3.74.01,7.54-.3,11.28-.79,7.53.97,15.02.57,22.56-.33,7.66-.28,15.33-.04,23,.03,102.33.01,204.67.07,307-.09,4.18.48,8.49-.66,12.57-.94,2.68-3.98,3.33-6.49,3.28-86.68-.1-173.37,0-260.06-.05-4.78-.1-9.66.53-14.36-.57-3.09-.86-3.43-4.51-3.49-7.18.06-123.69-.02-247.4.02-371.08-.21-3.12,2.26-5.8,5.22-6.39M317.32,97.34c-1.62,1.8-1.4,4.38-1.51,6.63.04,13.02.07,26.03,0,39.05.13,2.5-.2,5.49,1.77,7.4,1.88,2.03,4.88,1.78,7.41,1.92,18.34-.06,36.68-.08,55.02,0,2.18-.09,4.48.05,6.55-.77,2.49-1.14,2.99-4.18,3.13-6.62.21-6.59-.04-13.17-.07-19.76,5.1-.3,10.21-.16,15.32-.19-1.09,1.29-2.15,2.59-3.12,3.96,2.86-1.28,5.49-2.99,8.05-4.77-2.62-1.71-5.31-3.34-8.26-4.42.98,1.41,2.08,2.74,3.19,4.06-5.05-.38-10.12-.28-15.17-.48.06-6.79.24-13.58.09-20.37.01-2.75-.85-5.93-3.61-7.12-3.54-1.36-7.43-.74-11.12-.81-16.34.05-32.68.08-49.01-.12-2.98.05-6.54-.08-8.66,2.41M412.17,97.13c-1.8,1.78-1.45,4.56-1.64,6.87.06,14.01-.2,28.02.09,42.03-.36,4.01,3.69,6.61,7.35,6.25,19.01.11,38.03-.08,57.04.08,2.37-.15,5.01.18,7.09-1.19,2.03-1.36,2.4-3.99,2.57-6.23.37-6.61-.1-13.23-.15-19.85,5.17-.13,10.34-.08,15.51-.09-1.1,1.32-2.17,2.65-3.16,4.05,2.92-1.27,5.61-2.99,8.27-4.75-2.67-1.78-5.41-3.49-8.42-4.62.98,1.4,2.05,2.75,3.13,4.08-5.1-.33-10.21-.39-15.32-.17.22-6.53.38-13.07.2-19.61-.16-2.55-.28-5.55-2.41-7.33-2-1.72-4.81-1.6-7.28-1.71-18.36.11-36.73.08-55.09,0-2.68.07-5.81.05-7.78,2.18M510.38,95.43c-3,.65-4.87,3.54-4.63,6.53-.22,12.34.17,24.69-.07,37.03.18,3.41-.39,7.07,1.03,10.28,1.35,2.68,4.57,3.11,7.26,3.06,20.35-.03,40.7-.08,61.05.03,2.51-.13,5.56.09,7.33-2.08,1.77-1.96,1.68-4.77,1.77-7.24-.05-12.68-.1-25.37.02-38.06-.12-2.56.26-5.52-1.62-7.58-2.05-2.48-5.58-2.25-8.48-2.38-17.68.07-35.35.08-53.03-.03-3.54.04-7.16-.37-10.63.44M346.54,162.49c-1.59,1.34-1.16,3.61-1.33,5.45.1,14.04.13,28.08,0,42.11.13,1.85-.24,4.09,1.3,5.47,1.88,2.04,4.91,1.9,7.46,1.95,23.98-.16,47.96.08,71.94-.1,3.29.27,6.35-2.27,6.57-5.58.34-6.88,0-13.79.13-20.68,7.37.25,14.75.29,22.12-.04-1.16,1.24-2.28,2.53-3.29,3.9,2.84-1.14,5.51-2.63,8.24-4.01.41,5.69.27,11.39.22,17.09.04,2.49-.1,5.33,1.69,7.33,1.96,2.5,5.45,2.48,8.35,2.61,30.03-.25,60.06-.05,90.09-.14,2.52-.2,5.64-.3,7.24-2.6,1.26-2.17,1-4.82,1.14-7.24-.1-12.67-.09-25.34.01-38.01-.16-2.42.13-5.09-1.18-7.24-1.84-2.57-5.3-2.8-8.18-2.83-30.39.1-60.77.02-91.16.07-4.02-.39-8.11,2.72-7.91,6.95-.17,7.77.19,15.55-.35,23.32-2.56-1.7-5.27-3.21-8.11-4.37,1,1.4,2.12,2.73,3.26,4.04-7.39-.28-14.79-.27-22.18.06-.07-7.68.07-15.37-.03-23.04.31-3.65-3.11-6.72-6.65-6.5-23.66-.07-47.32.08-70.98-.03-2.87.06-6.28-.3-8.41,2.06M335.74,185.82c.99,1.41,2.09,2.76,3.18,4.11-5.2-.14-10.44-.46-15.6.34,4.95,1.89,10.38.77,15.54.83-1.08,1.31-2.14,2.63-3.1,4.02,2.97-1.22,5.74-2.88,8.51-4.5-2.71-1.83-5.45-3.67-8.53-4.8M316.68,230.6c-1.23,4.87-.59,9.96-.42,14.92.05,60.18,0,120.35.03,180.52-.19,2.5,1.26,5.3,3.88,5.8,3.9.65,7.89.26,11.83.34,81.69,0,163.38,0,245.06,0,2.56.1,5.67-.8,6.4-3.58.71-4.16.23-8.41.34-12.59.05-51.01-.13-102.01-.06-153.01-.1-6.12.34-12.27-.56-18.34.51-4.82,1.47-9.9-.19-14.6-.76-2.18-2.92-3.52-5.14-3.74-5.26-.66-10.57-.17-15.85-.27-79.36-.08-158.72.02-238.08-.01-3.12-.24-6.35,1.42-7.24,4.56Z"/>
    <path class="st58" d="M608.39,58.58c1.17-.24,2.35-.37,3.56-.4,85.68.04,171.37.03,257.05.02,5.05.11,10.22-.55,15.19.67,3.4,1.01,4.4,4.99,4.58,8.12-.03,123,.06,246.03,0,369.03.17,3.82-2.51,8.1-6.74,7.76-90.35.08-180.72-.02-271.08.06-2.52-.12-5.55-.32-7.12-2.6-.81-1.6-.75-3.45-.87-5.18.13-123.37.04-246.75.07-370.12-.33-3.41,1.93-6.74,5.36-7.36M611.84,100.98c-.43,12,.15,24.02-.08,36.03-.05,4.14-.42,8.39.94,12.38-.03.46-.09,1.37-.12,1.82.49-.02,1.47-.05,1.96-.06,2.04.8,4.23,1.2,6.45,1.16,19.01-.08,38.03.03,57.04-.05,3.3.36,7.02-1.7,7.17-5.3.59-7.27-.05-14.58.15-21.86,5.18-.08,10.36-.04,15.55-.1-1.13,1.25-2.23,2.51-3.25,3.85,2.88-1.24,5.61-2.78,8.35-4.29.56,6.15.36,12.33.33,18.5.03,2.57-.04,5.61,2.07,7.46,1.74,1.67,4.32,1.57,6.56,1.68,16.01-.06,32.03-.02,48.04-.04,4.27-.08,8.59.39,12.83-.35,2.75-.41,4.24-3.22,4.24-5.79.4-6.97-.1-13.96.04-20.93,5.24.12,10.48.03,15.72-.11-1.13,1.28-2.23,2.57-3.24,3.93,2.94-1.29,5.69-2.95,8.64-4.23.61,6.73.08,13.48.34,20.22.08,2.59.92,5.78,3.68,6.69,3.51.84,7.16.54,10.75.59,16.99-.05,33.99-.03,50.99.01,2.44,0,4.89-.16,7.29-.74,1.27-.05,2.27-.65,1.99-2.1,1.21-3.66.95-7.56.96-11.35-.11-11.68.06-23.37-.04-35.05.07-2.82-.83-6.23-3.89-7.09-4.34-1.07-8.88-.55-13.3-.56-16.01.15-32.03-.02-48.04-.06-2.71.13-5.83-.22-8.04,1.69-2.12,1.68-2.37,4.57-2.4,7.08-.07,6.68.19,13.37-.33,20.04-2.79-1.59-5.62-3.13-8.6-4.31.86,1.29,1.76,2.56,2.77,3.76-5.07-.15-10.14.06-15.21-.12-.79-7.76.62-15.57-.29-23.31-.52-3.67-4.58-5.02-7.81-4.79-17.68.07-35.37.12-53.06-.04-2.53.02-5.08-.08-7.58.34-3,.53-5.03,3.55-4.98,6.5-.32,7.27.34,14.58-.37,21.84-2.81-1.37-5.49-2.97-8.38-4.14.96,1.36,2.02,2.67,3.09,3.96-5.13-.36-10.27-.27-15.4-.16.07-6.54-.08-13.07-.02-19.61-.15-2.28.15-4.97-1.6-6.74-2.23-2.38-5.75-2.21-8.73-2.27-18.36.11-36.72-.03-55.08.05-3.59-.16-8.23,1.75-8.1,5.97M611.94,167.98c-.14,14.01.03,28.03-.11,42.05.07,2.5-.22,5.5,1.9,7.3,2.2,2.1,5.46,1.65,8.25,1.75,19.02-.21,38.05.06,57.07-.14,3.3.13,6.2-2.65,6.23-5.95.44-7.02-.06-14.05.11-21.07,4.89-.22,9.79-.17,14.69-.13-.77,1.25-1.54,2.5-2.25,3.78,2.89-1.29,5.55-3.01,8.13-4.85-2.7-1.63-5.38-3.28-8.2-4.68.76,1.38,1.59,2.74,2.42,4.09-4.93.03-9.86.04-14.78-.11.02-6.34-.07-12.68,0-19.03.12-2.63-.58-5.19-1.68-7.55l-.03-.7c-.34.02-1.03.05-1.38.07-2.33-.92-4.85-1.05-7.31-1-19.01.2-38.02-.08-57.02.12-3.31-.21-6.27,2.74-6.05,6.05M709.81,162.85c-2.19,1.62-2.9,4.5-2.84,7.1.07,25.37,0,50.74.03,76.11-.01,3,.97,6.8,4.23,7.75,2.86.66,5.84.5,8.77.53,18.01-.13,36.02.05,54.02-.08,3.59.33,7.24-2.46,7.02-6.24.18-18.71.02-37.43.06-56.14,4.71-.17,9.44-.21,14.17-.14-.74,1.21-1.47,2.42-2.16,3.65,2.86-1.29,5.57-2.9,8.23-4.59-2.67-1.8-5.43-3.5-8.39-4.76.91,1.37,1.88,2.7,2.88,4.02-4.92.07-9.83.1-14.73,0-.34-8.16.76-16.43-.67-24.5-.03-1.45-1.51-3.08-2.97-3.07-4.76-1-9.64-.58-14.46-.63-15.68,0-31.36.04-47.03-.03-2.07.13-4.35-.16-6.16,1.02M804.71,162.79c-.36-.02-1.08-.06-1.44-.08v.72c-2.14,4.57-1.46,9.69-1.5,14.57.17,17.66-.22,35.35.12,53.01-.23,3.8,3.61,6.23,7.07,6.01,19.69.06,39.39-.05,59.08.07,2.46-.06,5.29.07,7.21-1.78,2.13-1.78,1.79-4.81,1.97-7.29.03-19.01.06-38.02.04-57.03.05-2.61-.51-5.16-1.5-7.56v-.72c-.38.02-1.11.05-1.47.07-3.95-1.4-8.2-.87-12.29-.92-17.01,0-34.02.06-51.02-.04-2.14-.04-4.27.25-6.27.97M612.3,271.18c-.87,6.41-.29,12.92-.12,19.37-.56,44.15-.07,88.32-.27,132.48.1,2.49-.33,5.46,1.71,7.35,1.26,1.63,3.43,1.65,5.31,1.69,82.69,0,165.38-.04,248.06,0,3.21-.09,6.5.31,9.66-.44,3.48-1.31,3.54-5.47,3.44-8.59-.26-44.17.23-88.36-.25-132.53.04-5.19.25-10.38.13-15.57-.12-2.34-.25-5.05-2.16-6.7-1.87-1.57-4.51-1.37-6.79-1.56-83.68.02-167.37-.04-251.06.01-3.05-.03-7.13.91-7.66,4.49Z"/>
    <path class="st58" d="M17.35,59.34c1.18-.26,2.38-.42,3.6-.46,85.68-.02,171.37-.01,257.05,0,4.79.11,9.73-.63,14.4.7,3.1,1.03,4.85,4.18,4.57,7.36-.11,92.69.1,185.37-.02,278.06.09,29.68-.08,59.37.11,89.05-.13,2.45-.14,5.19-1.75,7.22-1.43,1.95-4.11,1.79-6.26,1.98-89.36-.06-178.73-.02-268.09-.06-2.54-.16-5.31-.19-7.5-1.66-1.62-2.5-1.54-5.64-1.67-8.5.17-58.34-.01-116.69.06-175.03-.5-10.33.93-20.65.09-30.97-.11-23.33-.46-46.68.72-70-.3-11.01.18-22.03-.56-33.02.7-14.76-.39-29.53.09-44.3.2-4.56-.32-9.11-.12-13.66.02-3.08,2.27-6,5.28-6.71M24.68,96.64c-1.56.12-2.21,1.59-2.14,2.98-1.16,7.06-.29,14.26-.54,21.38.28,9.11-.61,18.29.5,27.35l-.08.67c.24.38.72,1.12.96,1.5,2.08.92,4.26,1.7,6.57,1.63,18.35.15,36.7-.16,55.05.09,2.73-.14,5.7.27,8.19-1.1,2.33-1.5,2.62-4.57,2.77-7.09.21-6.35-.18-12.71-.02-19.07,5.05.06,10.1.06,15.14,0-.87,1.2-1.73,2.4-2.54,3.64,2.65-1.26,5.17-2.78,7.64-4.36-2.7-1.81-5.45-3.61-8.59-4.57.89.98,1.82,1.92,2.79,2.83-4.72,1.27-9.64.97-14.47.76-.05-6.12.17-12.23.12-18.35-.08-2.69-.1-5.78-2.17-7.8-1.95-2.19-5.16-1.89-7.8-2.02-16.02.1-32.04.03-48.05.02-4.46.09-9.21-.67-13.33,1.5M117.78,96.61c.01.5.05,1.49.06,1.99-.92,2.35-1.11,4.89-1.06,7.4.15,12.68.13,25.37.1,38.05-.81,4.32,2.4,8.82,7.07,8.07,17.68.06,35.36.03,53.05.09,3.25-.04,6.57.22,9.78-.47,2.91-.78,3.94-4.01,3.97-6.71.13-6.63.08-13.27-.3-19.89,5.19-.24,10.39-.06,15.59-.15-.85,1.24-1.69,2.48-2.48,3.75,2.7-1.26,5.23-2.82,7.7-4.49-2.72-1.77-5.49-3.52-8.6-4.51.87.95,1.78,1.88,2.73,2.77-4.76,1.37-9.74,1-14.62.82-.1-6.78.13-13.57,0-20.36.11-2.4-1.08-4.53-2.3-6.51-.85-.68-1.89-1.2-3-1-4.8-.69-9.65-.44-14.47-.46-13.33-.02-26.67.05-40-.07-3.11-.02-6.24.09-9.29.74-1.34.22-2.63.61-3.93.94M212.52,99.54c-.45,2.13-.59,4.31-.57,6.48.1,12.33.02,24.65.06,36.98.05,4.8-.44,9.67.5,14.42-.08,2.17,2.07,4.06,4.19,4.03,5.38.95,10.87.44,16.3.51,14.68.08,29.36-.01,44.04.06,2.92-.12,6.4-.04,8.53-2.42,1.44-1.47,1.41-3.64,1.48-5.55.02-16.7-.07-33.4.04-50.1-.09-2.22.15-4.8-1.55-6.54-2.38-2.64-6.29-2.27-9.51-2.44-15.35.04-30.69.19-46.03,0-4.43-.02-8.89-.12-13.28.58-2.11-.05-4.42,1.76-4.2,3.99M22.46,175.35c-.9,6.67-.11,13.44-.37,20.15-.08,75.51.07,151.03-.01,226.54.13,2.75-.17,5.87,1.65,8.17,1.43,1.93,4.07,1.75,6.21,1.87,83.7-.09,167.41.04,251.11-.07,3.83.35,6.2-3.5,5.88-6.95.04-76.53.02-153.06.02-229.58-.33-6.7.52-13.46-.44-20.11-.55-3.51-4.19-5.36-7.48-5.23-83.01-.03-166.05-.12-249.07.03-3.27-.12-6.94,1.67-7.5,5.18Z"/>
    <path class="st58" d="M355.12,106.56c1.24-.93,3.28,1.13,2.48,2.39-1.36.97-3.39-1.01-2.48-2.39Z"/>
    <path class="st58" d="M383.15,169.39c1.58-.52,2.33,2.08.67,2.44-1.59.52-2.37-2.12-.67-2.44Z"/>
  </g>
  <g id="_x23_929391ff">
    <path class="st41" d="M24.68,96.64c4.12-2.17,8.87-1.41,13.33-1.5,16.01.01,32.03.08,48.05-.02,2.64.13,5.85-.17,7.8,2.02,2.07,2.02,2.09,5.11,2.17,7.8.05,6.12-.17,12.23-.12,18.35,4.83.21,9.75.51,14.47-.76.55.51,1.11,1.03,1.67,1.54-5.67-.28-11.35-.45-17.03-.15,0-6.65.46-13.31,0-19.94-.3-2.28-.5-5.11-2.6-6.5-3.28-1.37-6.94-1.04-10.41-1.12-19.11.3-38.22-.25-57.32.28Z"/>
    <path class="st41" d="M216.72,95.55c4.39-.7,8.85-.6,13.28-.58,15.34.19,30.68.04,46.03,0,3.22.17,7.13-.2,9.51,2.44,1.7,1.74,1.46,4.32,1.55,6.54-.11,16.7-.02,33.4-.04,50.1-.07,1.91-.04,4.08-1.48,5.55-2.13,2.38-5.61,2.3-8.53,2.42-14.68-.07-29.36.02-44.04-.06-5.43-.07-10.92.44-16.3-.51,20.11-.72,40.24-.3,60.36-.25,2.66-.18,5.92-.1,7.75-2.4,1.41-2.31,1.09-5.17,1.22-7.76-.11-15.7.02-31.4-.03-47.11.05-2.82-.41-6.6-3.75-7.32-6.96-1.66-14.18,0-21.25-.44-14.76-.85-29.55.9-44.28-.62Z"/>
    <path class="st41" d="M188.47,96.46c1.22,1.98,2.41,4.11,2.3,6.51.13,6.79-.1,13.58,0,20.36,4.88.18,9.86.55,14.62-.82.55.51,1.11,1.03,1.67,1.55-5.57-.2-11.14-.41-16.71-.45.03.39.08,1.15.1,1.53.38,6.62.43,13.26.3,19.89-.03,2.7-1.06,5.93-3.97,6.71-3.21.69-6.53.43-9.78.47-17.69-.06-35.37-.03-53.05-.09-4.67.75-7.88-3.75-7.07-8.07.03-12.68.05-25.37-.1-38.05-.05-2.51.14-5.05,1.06-7.4.34,12.46.09,24.93.15,37.39.1,4.13-.48,8.38.64,12.41,1.13,2.86,4.79,2.48,7.29,2.69,18.72-.11,37.44-.17,56.15.04,2.18-.18,4.92.12,6.45-1.79,1.17-2.6.97-5.54,1.05-8.32-.15-10.01-.13-20.02-.01-30.02.07-4.87-.2-9.75-1.09-14.54Z"/>
    <path class="st41" d="M95.02,124.97h.92c-.16,6.37.23,12.73.02,19.08-.15,2.52-.44,5.59-2.77,7.09-2.49,1.37-5.46.96-8.19,1.1-18.35-.25-36.7.06-55.05-.09-2.31.07-4.49-.71-6.57-1.63,20.53,1.13,41.11.05,61.65.62,3.37-.03,8.39.49,9.43-3.74,1.66-7.35.33-14.97.56-22.43Z"/>
    <path class="st41" d="M22.09,195.5c5.39-2.11,11.25-1.67,16.91-1.6,76.33.05,152.66-.07,229,.05,6.32.07,12.92-.93,18.95,1.53,0,76.52.02,153.05-.02,229.58.32,3.45-2.05,7.3-5.88,6.95-83.7.11-167.41-.02-251.11.07-2.14-.12-4.78.06-6.21-1.87-1.82-2.3-1.52-5.42-1.65-8.17.08-75.51-.07-151.03.01-226.54M32.11,200.67c-.61.38-1.84,1.14-2.46,1.52-.27.8-.4,1.62-.37,2.47.11,25.79.1,51.57.04,77.36.03,2.44.19,4.87.45,7.3v1.11c-2.79,10.98-.72,22.43-.53,33.59-.06,14.93.17,29.86.08,44.8l.79.32c3.54.82,7.18.96,10.81.88.11-2.02.22-4.02.34-6.03,5.8-1.57,11.82-.93,17.75-.89,18.67-.29,37.33.39,56-.05.02-.51.05-1.55.07-2.06l.81-.06c.25,10.66-.04,21.31.15,31.97,23.66.15,47.32.11,70.99.07.11-8.69-.32-17.37-.09-26.05.19-1.57-.1-3.58,1.47-4.55,4.88-.83,9.88-.3,14.81-.45,0-.71-.02-2.13-.03-2.84-7.18-.33-14.41.23-21.55-.69,7.41-.97,14.9-.63,22.35-.61,10.59.1,21.19-.03,31.78.21,5.59,1.67,11.48.85,17.22,1.13,7.34-.11,14.85.75,22.05-1.11,1.11-.48,2.17-1.09,3.24-1.66.48-5.1.41-10.22.74-15.32.66-8.6-2.1-17.52,1.13-25.85,1.52-3.57.83-7.45.54-11.17-.52-6.02.9-12.02.31-18.03-.66-7.65-.27-15.32-.34-22.98.01-14-.04-28.01.01-42.01-.01-6.37.56-12.77-.41-19.1l-.03,1.06c-.71-.7-1.43-1.4-2.13-2.09-5.64-1.12-11.41-.44-17.11-.51-23.33-.11-46.66.11-69.99-.2-8.06.38-16.22-.54-24.21.83-2.98,0-5.96.08-8.94.14-.65,4.53-.61,9.12-.53,13.68,8.57.27,17.15.12,25.72.13,2.09.04,4.25.02,6.24.81,1.16,5.34.29,10.85.43,16.26.17,22.35-.22,44.7.16,67.04,2.44.6,5.56-.03,7.57,1.61l.1.63-.38-.15c-2.16-.75-4.49-.57-6.73-.43-.44,2.08-.35,4.44-1.69,6.23-2.91.36-5.86.11-8.78-.05l-.02-.62c2.85-.17,5.73-.19,8.53-.79.78-3.1.76-6.33.81-9.5.03-23.65-.09-47.3.04-70.94-.03-2.59.07-5.21-.4-7.76-.62-1.54-2.56-1.14-3.86-1.32-26.76.22-53.53-.09-80.29.13-.61,11.6.04,23.22-.25,34.83.06,7.7-.17,15.39-.03,23.09.09,5.68-1.08,11.33-.46,17.02l-.97.03c.67-18.34.16-36.7.28-55.04.12-6.94-.34-13.92.68-20.82,15.3-.55,30.6-.03,45.9-.23.07-4.24.1-8.49.03-12.73-.46-.39-1.37-1.18-1.82-1.58-6.02-.63-12.09-.26-18.13-.32-31.79-.06-63.58.11-95.38-.1-.87-.04-1.71.11-2.51.44M188.04,365.08c-.05,15.63-.11,31.28-.02,46.92,17,.32,33.99.05,50.98.09,12.7-.07,25.41.35,38.11-.08.45-8.33.13-16.68.24-25.02-.07-7.96.28-15.94-.23-23.89-28.4-.22-56.79.09-85.19-.12-1.48-.02-4.02-.03-3.89,2.1M44.35,364.4c-2.76.65-2.44,4.11-2.51,6.3-1.38,5.67-.67,11.53-.86,17.3-.2,8,.19,16-.02,24-.1,3.17.15,6.34.8,9.45,5.71.83,11.49.52,17.24.55,24.67-.02,49.33.01,74,0,5.75-.03,11.54.28,17.25-.55,1.45-5.72.53-11.64.74-17.45.09-3.54-.02-7.09-.58-10.59l-.09.88c-11.73-.73-23.49.33-35.22-.37-.26-10,.02-20-.15-29.99-17.65-.15-35.3.71-52.94.18-5.88.06-11.82-.53-17.66.29Z"/>
  </g>
  <g id="_x23_d4d3d3ff">
    <path class="st60" d="M117.78,96.61c1.3-.33,2.59-.72,3.93-.94,6.08.48,12.19.79,18.3.59,15.15-.36,30.35.81,45.46-.8,1.11-.2,2.15.32,3,1,.89,4.79,1.16,9.67,1.09,14.54-.12,10-.14,20.01.01,30.02-.08,2.78.12,5.72-1.05,8.32-1.53,1.91-4.27,1.61-6.45,1.79-18.71-.21-37.43-.15-56.15-.04-2.5-.21-6.16.17-7.29-2.69-1.12-4.03-.54-8.28-.64-12.41-.06-12.46.19-24.93-.15-37.39,0-.5-.05-1.49-.06-1.99M145.67,103.66c-.89,2.33-.52,4.88-.59,7.32.17,4.71-.47,9.49.63,14.13,5.04.02,10.09.32,15.12-.08.3-.31.89-.92,1.19-1.23.39-4.26.16-8.56.14-12.83.19-2.46-2.12-3.92-3.58-5.54-3.13-3.7-8.72-2.5-12.91-1.77Z"/>
    <path class="st60" d="M212.52,99.54c-.22-2.23,2.09-4.04,4.2-3.99,14.73,1.52,29.52-.23,44.28.62,7.07.44,14.29-1.22,21.25.44,3.34.72,3.8,4.5,3.75,7.32.05,15.71-.08,31.41.03,47.11-.13,2.59.19,5.45-1.22,7.76-1.83,2.3-5.09,2.22-7.75,2.4-20.12-.05-40.25-.47-60.36.25-2.12.03-4.27-1.86-4.19-4.03.86-9.78.37-19.61.51-29.42-.17-9.48.39-18.99-.5-28.46M239.5,103.31c.88,3.96,4.39,6.36,6.55,9.56.84,2.22.38,4.7.79,7.03,1.39,1.63,3.45,2.47,5.26,3.54.23-3.32-.1-6.67.41-9.97,2.13-3.53,6-5.97,6.99-10.17-6.66-.32-13.35-.47-20,0Z"/>
    <path class="st60" d="M22.54,99.62c-.07-1.39.58-2.86,2.14-2.98,19.1-.53,38.21.02,57.32-.28,3.47.08,7.13-.25,10.41,1.12,2.1,1.39,2.3,4.22,2.6,6.5.47,6.63,0,13.29,0,19.94v1.05c-.23,7.46,1.1,15.08-.56,22.43-1.04,4.23-6.06,3.71-9.43,3.74-20.54-.57-41.12.51-61.65-.62-.24-.38-.72-1.12-.96-1.5l.08-.67c.85-6.75.46-13.57.5-20.35-.11-9.46.38-18.94-.46-28.38M52.23,103.22c-1.26.33-2.11,1.5-1.94,2.82-.13,5.29-.1,10.6-.03,15.9-.05,1.21.38,3.08,1.9,3.08,4.55.35,9.15.33,13.7.02.3-.31.89-.93,1.19-1.25.52-3.92.27-7.9.34-11.85.4-3.86-3.3-6.23-5.86-8.45-2.99-.8-6.22-.46-9.3-.27Z"/>
    <path class="st60" d="M52,104.94c2.65-.03,5.29-.04,7.94-.03.02,1.85.03,3.7.06,5.55,1.9.07,3.8.16,5.7.28,0,4.18.05,8.35-.02,12.53-4.55.21-9.11.2-13.66,0-.07-6.11-.12-12.22-.02-18.32M53.25,113.28c3.38,1.84,7.83,1.67,11.29.07-3.72-.72-7.56-.66-11.29-.07M53.3,116.29c3.34,1.97,7.73,1.52,11.21.11-3.71-.6-7.49-.58-11.21-.11M53.21,119.21c1.94,2.32,5.69,1.72,7.88.07-2.61-.31-5.26-.31-7.88-.07Z"/>
    <path class="st60" d="M22.46,175.35c.56-3.51,4.23-5.3,7.5-5.18,83.02-.15,166.06-.06,249.07-.03,3.29-.13,6.93,1.72,7.48,5.23.96,6.65.11,13.41.44,20.11-6.03-2.46-12.63-1.46-18.95-1.53-76.34-.12-152.67,0-229-.05-5.66-.07-11.52-.51-16.91,1.6.26-6.71-.53-13.48.37-20.15Z"/>
    <path class="st60" d="M32.11,200.67c38.67,0,77.35.05,116.02-.02.45.4,1.36,1.19,1.82,1.58.07,4.24.04,8.49-.03,12.73-15.3.2-30.6-.32-45.9.23-1.02,6.9-.56,13.88-.68,20.82-.12,18.34.39,36.7-.28,55.04-19.02.43-38.04.01-57.06.19-5.42.09-10.86.01-16.22-.81v-1.11c-.24-29.04-.04-58.09-.13-87.13.62-.38,1.85-1.14,2.46-1.52Z"/>
    <path class="st60" d="M157.85,201.12c2.98-.06,5.96-.14,8.94-.14,37.1.08,74.21.27,111.31-.12.7.69,1.42,1.39,2.13,2.09-.75,36.53.09,73.08-.5,109.62-10.23-.77-20.49-.38-30.73-.46-16.99-.06-33.97.05-50.96-.02-.24-3.6.22-7.25-.5-10.81l-.1-.63c-2.01-1.64-5.13-1.01-7.57-1.61-.38-22.34.01-44.69-.16-67.04-.14-5.41.73-10.92-.43-16.26-1.99-.79-4.15-.77-6.24-.81-8.57,0-17.15.14-25.72-.13-.08-4.56-.12-9.15.53-13.68Z"/>
    <path class="st60" d="M104.77,216.08c26.76-.22,53.53.09,80.29-.13,1.3.18,3.24-.22,3.86,1.32.47,2.55.37,5.17.4,7.76-.13,23.64-.01,47.29-.04,70.94-.05,3.17-.03,6.4-.81,9.5-2.8.6-5.68.62-8.53.79-25.1.2-50.2.09-75.29-.22-.3-5-.27-10.02-.62-15.02-.62-5.69.55-11.34.46-17.02-.14-7.7.09-15.39.03-23.09.29-11.61-.36-23.23.25-34.83Z"/>
    <path class="st60" d="M30.33,293.18c4.87-.47,9.77-.53,14.67-.46,19.46.15,38.92-.22,58.37.16.18,4.53.27,9.07.31,13.6,7.79.58,15.6.29,23.4.42.04,9.34.2,18.68.06,28.03-3.89.12-7.77.3-11.65.59-.68,8.48-.15,16.98-.41,25.47-.02.51-.05,1.55-.07,2.06-18.67.44-37.33-.24-56,.05-5.93-.04-11.95-.68-17.75.89-.12,2.01-.23,4.01-.34,6.03-3.63.08-7.27-.06-10.81-.88.02-22.73.28-45.46-.08-68.19.01-2.59.15-5.18.3-7.77Z"/>
    <path class="st60" d="M181.15,313.22c19.94-.8,39.9-.08,59.85-.35,12.2.19,24.42-.47,36.6.39.71,14.36-.62,28.76.68,43.09-1.07.57-2.13,1.18-3.24,1.66-13.09-.15-26.18-.24-39.27-.02-10.59-.24-21.19-.11-31.78-.21-7.45-.02-14.94-.36-22.35.61,7.14.92,14.37.36,21.55.69,0,.71.02,2.13.03,2.84-4.93.15-9.93-.38-14.81.45-1.57.97-1.28,2.98-1.47,4.55-.23,8.68.2,17.36.09,26.05-23.67.04-47.33.08-70.99-.07-.19-10.66.1-21.31-.15-31.97.26-8.17-.86-16.43.47-24.53,2.83-.58,5.74-.6,8.62-.62,18.36.3,36.72-.06,55.08.16.18,7.15-.24,14.32.49,21.45.92-14.7-.35-29.46.6-44.17Z"/>
    <path class="st60" d="M188.04,365.08c-.13-2.13,2.41-2.12,3.89-2.1,28.4.21,56.79-.1,85.19.12.51,7.95.16,15.93.23,23.89-.11,8.34.21,16.69-.24,25.02-12.7.43-25.41,0-38.11.08-16.99-.04-33.98.23-50.98-.09-.09-15.64-.03-31.29.02-46.92Z"/>
  </g>
  <g id="_x23_9f9f9dff">
    <path class="st75" d="M121.71,95.67c3.05-.65,6.18-.76,9.29-.74,13.33.12,26.67.05,40,.07,4.82.02,9.67-.23,14.47.46-15.11,1.61-30.31.44-45.46.8-6.11.2-12.22-.11-18.3-.59Z"/>
  </g>
  <g id="_x23_e0ab74ff">
    <path class="st82" d="M317.32,97.34c2.12-2.49,5.68-2.36,8.66-2.41,16.33.2,32.67.17,49.01.12,3.69.07,7.58-.55,11.12.81,2.76,1.19,3.62,4.37,3.61,7.12.15,6.79-.03,13.58-.09,20.37,0,.46-.01,1.38-.01,1.84.03,6.59.28,13.17.07,19.76-.14,2.44-.64,5.48-3.13,6.62-2.07.82-4.37.68-6.55.77-18.34-.08-36.68-.06-55.02,0-2.53-.14-5.53.11-7.41-1.92-1.97-1.91-1.64-4.9-1.77-7.4.07-13.02.04-26.03,0-39.05.11-2.25-.11-4.83,1.51-6.63M321.42,96.66c-3.17.18-4.44,3.54-4.3,6.29-.21,13.02.13,26.05-.11,39.08.14,2.47-.28,5.4,1.59,7.35,1.6,1.79,4.19,1.48,6.35,1.62,18.37-.05,36.74-.05,55.1,0,2.61-.16,5.98.21,7.62-2.32.82-3.14.64-6.43.65-9.65-.18-10.34-.28-20.68.04-31.02-.03-2.88.11-5.83-.68-8.62-1.63-3.14-5.6-2.98-8.62-3.07-15.02.11-30.05.05-45.07.08-4.19.06-8.41-.32-12.57.27Z"/>
  </g>
  <g id="_x23_e2ae78ff">
    <path class="st74" d="M412.17,97.13c1.97-2.13,5.1-2.11,7.78-2.18,18.36.07,36.73.1,55.09,0,2.47.11,5.28-.01,7.28,1.71,2.13,1.78,2.25,4.78,2.41,7.33.18,6.54.02,13.08-.2,19.61,0,.38-.01,1.13-.01,1.5.05,6.62.52,13.24.15,19.85-.17,2.24-.54,4.87-2.57,6.23-2.08,1.37-4.72,1.04-7.09,1.19-19.01-.16-38.03.03-57.04-.08-3.66.36-7.71-2.24-7.35-6.25-.29-14.01-.03-28.02-.09-42.03.19-2.31-.16-5.09,1.64-6.87M416.45,96.65c-2.66.22-4.71,2.63-4.36,5.3.06,14.97-.26,29.97.17,44.93-.09,3.58,3.89,4.31,6.69,4.12,19.36-.22,38.74.16,58.1-.12,2.48.05,5.94-.84,5.9-3.91.78-7.64,0-15.32.22-22.97-.1-7.93.58-15.92-.42-23.81-.57-3.06-4.07-3.88-6.72-3.83-18.03-.01-36.05.12-54.07-.06-1.85.02-3.7.03-5.51.35Z"/>
  </g>
  <g id="_x23_e1ac77ff">
    <path class="st76" d="M510.38,95.43c3.47-.81,7.09-.4,10.63-.44,17.68.11,35.35.1,53.03.03,2.9.13,6.43-.1,8.48,2.38,1.88,2.06,1.5,5.02,1.62,7.58-.12,12.69-.07,25.38-.02,38.06-.09,2.47,0,5.28-1.77,7.24-1.77,2.17-4.82,1.95-7.33,2.08-20.35-.11-40.7-.06-61.05-.03-2.69.05-5.91-.38-7.26-3.06-1.42-3.21-.85-6.87-1.03-10.28.24-12.34-.15-24.69.07-37.03-.24-2.99,1.63-5.88,4.63-6.53M509.41,97.29c-2.5,1.21-2.32,4.3-2.4,6.64.09,14.02-.1,28.05.1,42.07-.12,3.1,2.89,5.28,5.82,4.94,20.71.06,41.42-.02,62.12.04,1.92-.18,4.23.21,5.78-1.24,2.17-1.91,2.01-5.06,2.11-7.69-.09-12.03-.21-24.06-.06-36.09-.12-2.54.13-5.35-1.29-7.59-2.01-1.89-5.03-1.64-7.58-1.82-18,0-36.01.09-54.01.02-3.53.04-7.16-.28-10.59.72Z"/>
  </g>
  <g id="_x23_81b489ff">
    <path class="st67" d="M611.84,100.98c-.13-4.22,4.51-6.13,8.1-5.97,18.36-.08,36.72.06,55.08-.05,2.98.06,6.5-.11,8.73,2.27,1.75,1.77,1.45,4.46,1.6,6.74-.06,6.54.09,13.07.02,19.61,0,.38-.01,1.14-.02,1.52-.2,7.28.44,14.59-.15,21.86-.15,3.6-3.87,5.66-7.17,5.3-19.01.08-38.03-.03-57.04.05-2.22.04-4.41-.36-6.45-1.16,21.16-.37,42.34-.02,63.5-.16,2.01-.1,4.78-.2,5.5-2.53.79-2.74.63-5.63.67-8.44-.17-12.03-.03-24.06-.05-36.08-.19-2.34.08-5.54-2.44-6.74-3.03-1.36-6.47-1.05-9.7-1.12-17.03.44-34.06.06-51.08.05-2.67.15-6.4.27-7.48,3.26-.99,5.13-.3,10.41-.45,15.61-.16,11.46.34,22.94-.31,34.39-1.36-3.99-.99-8.24-.94-12.38.23-12.01-.35-24.03.08-36.03Z"/>
  </g>
  <g id="_x23_479d5cff">
    <path class="st6" d="M711.41,95.58c2.5-.42,5.05-.32,7.58-.34,17.69.16,35.38.11,53.06.04,3.23-.23,7.29,1.12,7.81,4.79.91,7.74-.5,15.55.29,23.31,5.07.18,10.14-.03,15.21.12l.89.29c-5.37-.22-10.77-.44-16.1.26l-.04,1.04c-.14,6.97.36,13.96-.04,20.93,0,2.57-1.49,5.38-4.24,5.79-4.24.74-8.56.27-12.83.35-16.01.02-32.03-.02-48.04.04-2.24-.11-4.82,0-6.56-1.68-2.11-1.85-2.04-4.89-2.07-7.46.03-6.17.23-12.35-.33-18.5l.06-.64c.71-7.26.05-14.57.37-21.84-.05-2.95,1.98-5.97,4.98-6.5M712.3,96.25c-2.93.18-5.11,2.86-4.93,5.75-.26,13.66.04,27.34-.15,41.01.13,2.35-.27,5.27,1.76,6.96,1.59,1.52,3.96,1.23,5.99,1.37,17.34,0,34.68-.08,52.02,0,3.2-.05,6.47.25,9.61-.54,2.99-1.36,2.8-5,2.87-7.77-.02-13.02-.21-26.05-.05-39.07.15-2.96-.57-6.78-3.95-7.54-5.42-1.11-10.99-.42-16.47-.45-15.56.77-31.17-.85-46.7.28Z"/>
    <path class="st6" d="M803.92,96.93c2.21-1.91,5.33-1.56,8.04-1.69,16.01.04,32.03.21,48.04.06,4.42,0,8.96-.51,13.3.56,3.06.86,3.96,4.27,3.89,7.09.1,11.68-.07,23.37.04,35.05-.01,3.79.25,7.69-.96,11.35.11-14.8-.03-29.6.11-44.4-.21-2.69.33-6.44-2.55-7.91-3.7-1.64-7.9-1.17-11.84-1.19-14.99.75-29.99-.03-44.98,0-3.95.09-8.1-.33-11.83,1.19-2.92,1.45-2.47,5.23-2.73,7.95-.07,12.68-.03,25.36-.09,38.03.13,2.74-.03,6.51,3.02,7.75,4.78,1.1,9.75.42,14.62.54,18.09.04,36.18-.18,54.28.14-2.4.58-4.85.75-7.29.74-17-.04-34-.06-50.99-.01-3.59-.05-7.24.25-10.75-.59-2.76-.91-3.6-4.1-3.68-6.69-.26-6.74.27-13.49-.34-20.22l-.04-.63c.52-6.67.26-13.36.33-20.04.03-2.51.28-5.4,2.4-7.08Z"/>
    <path class="st6" d="M612.18,290.55c2.52-.71,5.1-1.24,7.74-1.26,80.02.06,160.05,0,240.08.03,6.61.13,13.4-.76,19.84,1.19.48,44.17-.01,88.36.25,132.53.1,3.12.04,7.28-3.44,8.59-3.16.75-6.45.35-9.66.44-82.68-.04-165.37,0-248.06,0-1.88-.04-4.05-.06-5.31-1.69-2.04-1.89-1.61-4.86-1.71-7.35.2-44.16-.29-88.33.27-132.48M621.28,297.08c-1.78.16-.92,2.69-1.31,3.89-.1,38.34.08,76.68-.11,115.02.04,2.55-.07,5.13.4,7.66,1.01,1.59,3.06,1.18,4.67,1.34,37.05.02,74.09-.07,111.14.04,1.5-.04,3.04-.09,4.53-.43.95-1.33.99-3.01,1.03-4.58-.18-38-.03-76.01.03-114.02-.14-2.98.5-6.21-.96-8.96-8.17-1.09-16.47-.17-24.7-.46-30.01,0-60.02,0-90.03,0-1.58.03-3.17.08-4.69.5M750.96,296.88c-.15,2.37-.27,4.74-.28,7.11-.03,28.34,0,56.67-.01,85.01.03,2.57-.17,5.2.4,7.74.83,1.86,3.26,1.3,4.9,1.54,36.69.05,73.37-.1,110.06.01,1.95-.26,4.67.53,5.84-1.56.69-4.21.26-8.49.32-12.73-.06-19.67.09-39.33.04-59-.12-9.35.32-18.73-.43-28.06-6.59-.63-13.2-.31-19.8-.35-16.33,0-32.67-.03-49-.01-17.34.18-34.71-.4-52.04.3Z"/>
  </g>
  <g id="_x23_fee3c8ff">
    <path class="st5" d="M321.42,96.66c4.16-.59,8.38-.21,12.57-.27,15.02-.03,30.05.03,45.07-.08,3.02.09,6.99-.07,8.62,3.07.79,2.79.65,5.74.68,8.62-.32,10.34-.22,20.68-.04,31.02-.01,3.22.17,6.51-.65,9.65-1.64,2.53-5.01,2.16-7.62,2.32-18.36-.04-36.73-.04-55.1,0-2.16-.14-4.75.17-6.35-1.62-1.87-1.95-1.45-4.88-1.59-7.35.24-13.03-.1-26.06.11-39.08-.14-2.75,1.13-6.11,4.3-6.29M345.41,103.4c-1.54.25-1.14,2.41-1.36,3.55.04,5.58-.26,11.18.16,16.75.27.31.79.93,1.05,1.25,4.82.41,9.71.42,14.54.11.28-.33.84-.98,1.12-1.31.38-4.81.45-9.72,0-14.52-1.72-2.28-3.75-4.41-6.14-5.99-3.11-.23-6.29-.38-9.37.16Z"/>
  </g>
  <g id="_x23_fee4c9ff">
    <path class="st56" d="M416.45,96.65c1.81-.32,3.66-.33,5.51-.35,18.02.18,36.04.05,54.07.06,2.65-.05,6.15.77,6.72,3.83,1,7.89.32,15.88.42,23.81-.21,7.65.56,15.33-.22,22.97.04,3.07-3.42,3.96-5.9,3.91-19.36.28-38.74-.1-58.1.12-2.8.19-6.78-.54-6.69-4.12-.43-14.96-.11-29.96-.17-44.93-.35-2.67,1.7-5.08,4.36-5.3M440.33,103.29c-2.92,2.98-.94,7.92-1.49,11.71.53,3.25-1.3,7.57,1.35,10.05,4.85.33,9.76.36,14.61-.01.25-.33.77-.98,1.03-1.3.35-4.79.4-9.65-.05-14.43-1.72-2.3-3.8-4.34-6.08-6.06-3.11-.3-6.27-.29-9.37.04Z"/>
    <path class="st56" d="M392.58,172.02c.92-1.38,3.19.24,2.08,1.54-.93,1.37-3.16-.25-2.08-1.54Z"/>
    <path class="st56" d="M382.43,185.31c1-1.56,3.42.26,2.26,1.68-1.02,1.53-3.46-.26-2.26-1.68Z"/>
  </g>
  <g id="_x23_cee8d0ff">
    <path class="st83" d="M613.46,99.39c1.08-2.99,4.81-3.11,7.48-3.26,17.02.01,34.05.39,51.08-.05,3.23.07,6.67-.24,9.7,1.12,2.52,1.2,2.25,4.4,2.44,6.74.02,12.02-.12,24.05.05,36.08-.04,2.81.12,5.7-.67,8.44-.72,2.33-3.49,2.43-5.5,2.53-21.16.14-42.34-.21-63.5.16-.49.01-1.47.04-1.96.06.03-.45.09-1.36.12-1.82.65-11.45.15-22.93.31-34.39.15-5.2-.54-10.48.45-15.61M640.1,105.14c-.33,4.96-.08,9.94-.14,14.91.15,1.68-.4,3.83,1.33,4.88,4.95.61,9.98.14,14.96.26,1.21-5.19.85-10.63.53-15.9-1.73-2.27-3.81-4.32-6.12-6-2.52-.37-5.09-.25-7.62-.16-1.25-.12-3.01.51-2.94,2.01Z"/>
    <path class="st83" d="M712.3,96.25c15.53-1.13,31.14.49,46.7-.28,5.48.03,11.05-.66,16.47.45,3.38.76,4.1,4.58,3.95,7.54-.16,13.02.03,26.05.05,39.07-.07,2.77.12,6.41-2.87,7.77-3.14.79-6.41.49-9.61.54-17.34-.08-34.68,0-52.02,0-2.03-.14-4.4.15-5.99-1.37-2.03-1.69-1.63-4.61-1.76-6.96.19-13.67-.11-27.35.15-41.01-.18-2.89,2-5.57,4.93-5.75M734.86,104.24c-.42,6.82-.31,13.71.05,20.54,5.36.78,10.81.47,16.21.32.93-5.15.76-10.45.41-15.64-1.61-2.36-3.72-4.37-5.96-6.11-3.47-.17-7.77-1.33-10.71.89Z"/>
  </g>
  <g id="_x23_cde8d0ff">
    <path class="st86" d="M805.18,97.04c3.73-1.52,7.88-1.1,11.83-1.19,14.99-.03,29.99.75,44.98,0,3.94.02,8.14-.45,11.84,1.19,2.88,1.47,2.34,5.22,2.55,7.91-.14,14.8,0,29.6-.11,44.4.28,1.45-.72,2.05-1.99,2.1-18.1-.32-36.19-.1-54.28-.14-4.87-.12-9.84.56-14.62-.54-3.05-1.24-2.89-5.01-3.02-7.75.06-12.67.02-25.35.09-38.03.26-2.72-.19-6.5,2.73-7.95M830.39,106.11c-2,.36-1.04,3.44.82,2.77,2.15-.33,1.08-3.44-.82-2.77M833.52,107.05c1.26,1,2.82,1.49,4.45,1.37,4.14-.03,8.32.21,12.43-.51-.64-.29-1.92-.86-2.56-1.15-4.77-.25-9.59-.37-14.32.29M829.97,111.09c-.52,1.62.05,2.16,1.7,1.62.51-1.62-.05-2.16-1.7-1.62M833.51,111.39c.45.37,1.37,1.1,1.83,1.47,4.66.34,9.35.03,14.03.16.01-.51.03-1.52.04-2.02-5.31.11-10.64-.33-15.9.39M830.43,115.1c-1.77.32-1.16,3.2.62,2.62,1.92-.28,1.21-3.25-.62-2.62M833.52,116.11c2.52,1.72,5.59,1.23,8.47,1.29,2.83-.06,5.85.36,8.37-1.27-5.56-.81-11.29-.79-16.84-.02M830.02,120.03c-.52,1.62.04,2.17,1.69,1.65.5-1.62-.06-2.17-1.69-1.65M833.44,120.39c1.94,2.18,5.03,1.3,7.6,1.5,1.99-.14,4.51.42,5.78-1.59-4.45-.39-8.95-.53-13.38.09Z"/>
  </g>
  <g id="_x23_fee3c7ff">
    <path class="st55" d="M509.41,97.29c3.43-1,7.06-.68,10.59-.72,18,.07,36.01-.01,54.01-.02,2.55.18,5.57-.07,7.58,1.82,1.42,2.24,1.17,5.05,1.29,7.59-.15,12.03-.03,24.06.06,36.09-.1,2.63.06,5.78-2.11,7.69-1.55,1.45-3.86,1.06-5.78,1.24-20.7-.06-41.41.02-62.12-.04-2.93.34-5.94-1.84-5.82-4.94-.2-14.02,0-28.05-.1-42.07.08-2.34-.1-5.43,2.4-6.64M536.09,106.3c-1.71.33-1,2.97.63,2.44,1.65-.34.96-2.95-.63-2.44M539.17,107c.47.34,1.41,1.01,1.89,1.35,4.75-.18,10.16,1.2,14.46-1.26-5.41-.75-10.93-.59-16.35-.09M535.33,111.16c-1.09,1.35,1.26,2.85,2.12,1.41,1.1-1.36-1.26-2.82-2.12-1.41M539.23,111.17c.26.4.78,1.2,1.04,1.6,4.78.57,9.64.16,14.45.17.01-.47.02-1.42.03-1.89-5.18-.06-10.36-.19-15.52.12M536.08,115.14c-1.68.36-.91,2.98.68,2.49,1.62-.37.87-2.97-.68-2.49M539.83,115.63l-.04,1.62c5.25.01,10.54.37,15.76-.36-4.71-2.64-10.54-.69-15.72-1.26M536.09,119.42c-1.74.38-1.08,3.37.68,2.77,1.64-.47,1.09-3.34-.68-2.77M539.14,120.31c.33.3.98.91,1.3,1.22,3.9.12,8.54,1.39,11.94-1.02-4.38-.7-8.84-.54-13.24-.2Z"/>
    <path class="st55" d="M316.68,230.6c.89-3.14,4.12-4.8,7.24-4.56,79.36.03,158.72-.07,238.08.01,5.28.1,10.59-.39,15.85.27,2.22.22,4.38,1.56,5.14,3.74,1.66,4.7.7,9.78.19,14.6-7.03-.86-14.12-.44-21.19-.47-80.02-.02-160.05-.05-240.07-.01-1.96.11-3.82.74-5.66,1.34-.17-4.96-.81-10.05.42-14.92Z"/>
  </g>
  <g id="_x23_8a8c88ff">
    <path class="st4" d="M22.54,99.62c.84,9.44.35,18.92.46,28.38-.04,6.78.35,13.6-.5,20.35-1.11-9.06-.22-18.24-.5-27.35.25-7.12-.62-14.32.54-21.38Z"/>
  </g>
  <g id="_x23_888885ff">
    <path class="st33" d="M212.52,99.54c.89,9.47.33,18.98.5,28.46-.14,9.81.35,19.64-.51,29.42-.94-4.75-.45-9.62-.5-14.42-.04-12.33.04-24.65-.06-36.98-.02-2.17.12-4.35.57-6.48Z"/>
  </g>
  <g id="_x23_1a1816ff">
    <path class="st49" d="M52.23,103.22c3.08-.19,6.31-.53,9.3.27,2.56,2.22,6.26,4.59,5.86,8.45-.07,3.95.18,7.93-.34,11.85-.3.32-.89.94-1.19,1.25-4.55.31-9.15.33-13.7-.02-1.52,0-1.95-1.87-1.9-3.08-.07-5.3-.1-10.61.03-15.9-.17-1.32.68-2.49,1.94-2.82M52,104.94c-.1,6.1-.05,12.21.02,18.32,4.55.21,9.11.22,13.66,0,.07-4.18.02-8.35.02-12.53-1.9-.12-3.8-.21-5.7-.28-.03-1.85-.04-3.7-.06-5.55-2.65-.01-5.29,0-7.94.03M61.98,107.28c-.41,1.35.1,1.85,1.55,1.5.4-1.37-.12-1.86-1.55-1.5Z"/>
    <path class="st49" d="M145.67,103.66c4.19-.73,9.78-1.93,12.91,1.77,1.46,1.62,3.77,3.08,3.58,5.54.02,4.27.25,8.57-.14,12.83-.3.31-.89.92-1.19,1.23-5.03.4-10.08.1-15.12.08-1.1-4.64-.46-9.42-.63-14.13.07-2.44-.3-4.99.59-7.32M146.93,104.95c-.09,6.1,0,12.2,0,18.3,4.51.15,9.03.2,13.54.01.03-4.21.08-8.42.05-12.63-1.88-.1-3.76-.17-5.63-.25-.05-1.83-.07-3.66-.09-5.49-2.62.02-5.24.04-7.86.06M156.87,107.34c-.41,1.36.12,1.86,1.58,1.51.37-1.36-.16-1.87-1.58-1.51Z"/>
    <path class="st49" d="M239.5,103.31c6.65-.48,13.34-.33,20,0-.99,4.2-4.86,6.64-6.99,10.17-.51,3.3-.18,6.65-.41,9.97-1.81-1.07-3.87-1.91-5.26-3.54-.41-2.33.05-4.81-.79-7.03-2.16-3.2-5.67-5.6-6.55-9.56M241.79,105.01c1.99,2.47,4.22,4.74,6.11,7.3.87,2.85-.39,6.35,2.3,8.48.33-2.7.07-5.44.52-8.12,2.02-2.67,4.37-5.07,6.46-7.68-5.13-.06-10.26-.03-15.39.02Z"/>
    <path class="st49" d="M345.41,103.4c3.08-.54,6.26-.39,9.37-.16,2.39,1.58,4.42,3.71,6.14,5.99.45,4.8.38,9.71,0,14.52-.28.33-.84.98-1.12,1.31-4.83.31-9.72.3-14.54-.11-.26-.32-.78-.94-1.05-1.25-.42-5.57-.12-11.17-.16-16.75.22-1.14-.18-3.3,1.36-3.55M345.87,104.89c-.05,6.15.03,12.3,0,18.45,4.49.17,8.99.14,13.48,0,.16-4.23.13-8.47.05-12.7-1.86-.06-3.72-.1-5.58-.14-.04-1.87-.06-3.74-.08-5.61-2.62,0-5.25,0-7.87.01M355.12,106.56c-.91,1.38,1.12,3.36,2.48,2.39.8-1.26-1.24-3.32-2.48-2.39Z"/>
    <path class="st49" d="M440.33,103.29c3.1-.33,6.26-.34,9.37-.04,2.28,1.72,4.36,3.76,6.08,6.06.45,4.78.4,9.64.05,14.43-.26.32-.78.97-1.03,1.3-4.85.37-9.76.34-14.61.01-2.65-2.48-.82-6.8-1.35-10.05.55-3.79-1.43-8.73,1.49-11.71M440.73,104.89c-.1,6.15-.2,12.29-.01,18.44,4.5.14,9.01.13,13.51,0,.08-4.23.11-8.46.13-12.69-1.95-.09-3.9-.16-5.83-.25.04-1.83.07-3.66.12-5.49-2.65-.02-5.29-.02-7.92-.01M450.05,106.52c-.97,1.42,1,3.44,2.44,2.46.79-1.2-1.24-3.29-2.44-2.46Z"/>
    <path class="st49" d="M640.1,105.14c-.07-1.5,1.69-2.13,2.94-2.01,2.53-.09,5.1-.21,7.62.16,2.31,1.68,4.39,3.73,6.12,6,.32,5.27.68,10.71-.53,15.9-4.98-.12-10.01.35-14.96-.26-1.73-1.05-1.18-3.2-1.33-4.88.06-4.97-.19-9.95.14-14.91M641.78,104.87c-.16,6.14-.1,12.28-.03,18.42,4.45.19,8.92.2,13.38.08.09-4.21.11-8.43.05-12.65-1.91-.11-3.81-.22-5.71-.36.05-1.82.09-3.64.15-5.46-2.62-.03-5.23-.03-7.84-.03M651.05,106.52c-.99,1.41,1.02,3.39,2.44,2.42.84-1.22-1.23-3.26-2.44-2.42Z"/>
    <path class="st49" d="M734.86,104.24c2.94-2.22,7.24-1.06,10.71-.89,2.24,1.74,4.35,3.75,5.96,6.11.35,5.19.52,10.49-.41,15.64-5.4.15-10.85.46-16.21-.32-.36-6.83-.47-13.72-.05-20.54M736.31,105.04c-.09,6.05-.04,12.11.06,18.17,4.51.23,9.03.23,13.55.08.07-4.2.04-8.4.02-12.59-1.9-.09-3.79-.16-5.67-.22-.05-1.87-.1-3.74-.13-5.6-2.62.01-5.23.05-7.83.16M745.98,106.58c-1.07,1.39.94,3.41,2.35,2.38.89-1.18-1.15-3.27-2.35-2.38Z"/>
    <path class="st49" d="M830.39,106.11c1.9-.67,2.97,2.44.82,2.77-1.86.67-2.82-2.41-.82-2.77Z"/>
    <path class="st49" d="M535.33,111.16c.86-1.41,3.22.05,2.12,1.41-.86,1.44-3.21-.06-2.12-1.41Z"/>
    <path class="st49" d="M830.43,115.1c1.83-.63,2.54,2.34.62,2.62-1.78.58-2.39-2.3-.62-2.62Z"/>
    <path class="st49" d="M53.21,119.21c2.62-.24,5.27-.24,7.88.07-2.19,1.65-5.94,2.25-7.88-.07Z"/>
    <path class="st49" d="M147.78,120.01c2.48-1.57,5.5-.96,8.25-.75-2.25,2.17-5.56,1.46-8.25.75Z"/>
    <path class="st49" d="M347.05,119.2c2.64-.22,5.31-.22,7.96.06-2.19,1.76-6,2.26-7.96-.06Z"/>
    <path class="st49" d="M441.71,119.94c2.52-1.36,5.42-.97,8.15-.69-2.26,2.02-5.51,1.51-8.15.69Z"/>
    <path class="st49" d="M536.09,119.42c1.77-.57,2.32,2.3.68,2.77-1.76.6-2.42-2.39-.68-2.77Z"/>
    <path class="st49" d="M642.56,119.47c2.73-.48,5.51-.5,8.27-.24-2.19,2.24-5.78,1.62-8.27.24Z"/>
    <path class="st49" d="M737.43,119.34c2.71-.4,5.46-.41,8.19-.13-2.16,2.04-6,2.2-8.19.13Z"/>
    <path class="st49" d="M539.14,120.31c4.4-.34,8.86-.5,13.24.2-3.4,2.41-8.04,1.14-11.94,1.02-.32-.31-.97-.92-1.3-1.22Z"/>
    <path class="st49" d="M833.44,120.39c4.43-.62,8.93-.48,13.38-.09-1.27,2.01-3.79,1.45-5.78,1.59-2.57-.2-5.66.68-7.6-1.5Z"/>
    <path class="st49" d="M380.98,172.02c-2.38-2.76,2.41-6.39,4.65-3.65,2.12,1.99-.17,4.25-1.06,6.18-.28,1.46-.29,2.96-.4,4.45,2.84-.31,5.8-.5,8.38-1.87-.64-1.96-2.66-3.77-1.66-5.95,1.23-2,4.69-1.9,5.56.33,1.07,2.16-1.4,3.86-2.26,5.65-1.84,3.9-6.78,2.64-10.14,4.05,1.29,2.35,3.2,4.72,2.08,7.55-1.8-.05-4.18,1.05-5.27-.98-1.17-2.22,1.23-4.04,1.63-6.12.27-3.26.67-6.91-1.51-9.64M383.15,169.39c-1.7.32-.92,2.96.67,2.44,1.66-.36.91-2.96-.67-2.44M392.58,172.02c-1.08,1.29,1.15,2.91,2.08,1.54,1.11-1.3-1.16-2.92-2.08-1.54M382.43,185.31c-1.2,1.42,1.24,3.21,2.26,1.68,1.16-1.42-1.26-3.24-2.26-1.68Z"/>
    <path class="st49" d="M509.81,169.19c3.02-1.75,6.49-1.61,9.61-.12-.04,2.02-.19,4.11-1.9,5.46-.13-1.61-.21-3.21-.25-4.82-.59,0-1.77.02-2.36.03.29,4.88-.17,9.75-1.04,14.55,1.32.02,2.65.04,3.99.07-.13-.7-.39-2.09-.53-2.79.94.45,1.88.89,2.82,1.35-.03,1.74-.05,3.5-.08,5.25-2.19-2.2-5.14-1.43-7.89-1.31.27-5.41.6-10.81.42-16.23-.7-.36-2.09-1.08-2.79-1.44Z"/>
    <path class="st49" d="M641.23,174.45c-2.33-2.19,1.03-5.92,3.58-4.47,1.71.47,2.3,2.71,1.27,4.07-1.45,2.11-1.7,4.6-1.59,7.09,2.92-.33,5.9-.72,8.55-2.12-.93-1.77-3.22-3.53-1.97-5.69,1.55-2.64,5.93-1.42,5.97,1.62-1.23,2.31-2.61,4.73-4.67,6.4-2.6.92-5.38,1.15-7.97,2.1,1.35,2.13,2.66,4.38,2.13,7.01-1.84.12-4.42,1.48-5.46-.79-1.66-2.45,1.69-4.35,1.69-6.79.17-2.88.56-6.1-1.53-8.43M643.2,171.35c-1.83.37-.96,3.24.76,2.71,1.8-.39.95-3.26-.76-2.71M653.03,174.05c-.52,1.63.04,2.18,1.68,1.67.5-1.64-.05-2.19-1.68-1.67M642.45,187.2c-1.17,1.45,1.33,3.12,2.34,1.64,1.18-1.45-1.35-3.14-2.34-1.64Z"/>
    <path class="st49" d="M733.78,170.72c6.81-1.16,13.81-.61,20.69-.34-1.87,3.7-4.95,6.52-7.24,9.92-.46,3.24-.2,6.53-.43,9.79-1.83-1.04-3.61-2.12-5.37-3.24-.08-2.21.03-4.45-.32-6.63-2.25-3.31-5.09-6.18-7.33-9.5M736.79,171.97c1.72,2,3.52,3.94,5.12,6.05,1.89,2.13,1.02,5.2,1.27,7.78.49.37,1.47,1.1,1.97,1.46.08-2.59-.28-5.24.29-7.79,1.81-2.63,4.04-4.93,5.95-7.49-4.87-.13-9.74-.12-14.6,0Z"/>
    <path class="st49" d="M835.38,170.37c5.86-2.76,13.59,1.36,14.42,7.82,1.35,6.29-4.37,12.83-10.8,12.15-6.3-.13-11.2-6.9-9.58-12.93.79-3.08,3.03-5.77,5.96-7.04M837.46,171.53c-5.89,1.2-8.64,9.09-4.63,13.63,3.56,5.1,12.41,4.11,14.57-1.77,3.11-6.11-3.44-13.72-9.94-11.86Z"/>
    <path class="st49" d="M506,174.32c.89-.72,1.78-1.44,2.67-2.17.41.85.83,1.7,1.27,2.54-.6.77-1.19,1.54-1.77,2.31-.71-.91-1.44-1.8-2.17-2.68Z"/>
    <path class="st49" d="M522.31,173.54c1.21,1.19,2.44,2.39,3.52,3.72-.94,1.48-2.12,2.77-3.23,4.11.23-3.44-3.5-2.68-5.43-4.3,1.54-.19,3.09-.34,4.65-.42.12-.78.37-2.33.49-3.11Z"/>
    <path class="st49" d="M838.11,181.63c2.02-2.07,3.99-4.19,6.18-6.08.02.57.06,1.71.08,2.28-1.97,2.41-4.32,4.46-6.53,6.64-1.67-1.61-3.36-3.29-4.19-5.5,1.54.78,3.01,1.7,4.46,2.66Z"/>
    <path class="st49" d="M503.06,178.16c2.74.74,7.6-.94,8.42,2.7-2.92-.35-6.75.39-8.42-2.7Z"/>
    <path class="st49" d="M32.11,200.67c.8-.33,1.64-.48,2.51-.44,31.8.21,63.59.04,95.38.1,6.04.06,12.11-.31,18.13.32-38.67.07-77.35.02-116.02.02Z"/>
    <path class="st49" d="M29.28,204.66c-.03-.85.1-1.67.37-2.47.09,29.04-.11,58.09.12,87.13-.26-2.43-.42-4.86-.45-7.3.06-25.79.07-51.57-.04-77.36Z"/>
  </g>
  <g id="_x23_d5d4d4ff">
    <path class="st2" d="M146.93,104.95c2.62-.02,5.24-.04,7.86-.06.02,1.83.04,3.66.09,5.49,1.87.08,3.75.15,5.63.25.03,4.21-.02,8.42-.05,12.63-4.51.19-9.03.14-13.54-.01,0-6.1-.08-12.2,0-18.3M148.03,113.24c3.4,1.96,7.91,1.67,11.45.15-3.77-.76-7.66-.71-11.45-.15M148.22,116.32c3.22,1.87,7.6,1.59,10.91.05-3.61-.56-7.3-.58-10.91-.05M147.78,120.01c2.69.71,6,1.42,8.25-.75-2.75-.21-5.77-.82-8.25.75Z"/>
    <path class="st2" d="M156.87,107.34c1.42-.36,1.95.15,1.58,1.51-1.46.35-1.99-.15-1.58-1.51Z"/>
  </g>
  <g id="_x23_d2d2d1ff">
    <path class="st65" d="M241.79,105.01c5.13-.05,10.26-.08,15.39-.02-2.09,2.61-4.44,5.01-6.46,7.68-.45,2.68-.19,5.42-.52,8.12-2.69-2.13-1.43-5.63-2.3-8.48-1.89-2.56-4.12-4.83-6.11-7.3Z"/>
    <path class="st65" d="M643.2,171.35c1.71-.55,2.56,2.32.76,2.71-1.72.53-2.59-2.34-.76-2.71Z"/>
  </g>
  <g id="_x23_fbe1c5ff">
    <path class="st63" d="M345.87,104.89c2.62-.02,5.25-.02,7.87-.01.02,1.87.04,3.74.08,5.61,1.86.04,3.72.08,5.58.14.08,4.23.11,8.47-.05,12.7-4.49.15-8.99.18-13.48,0,.03-6.15-.05-12.3,0-18.45M346.99,113.15c3.15,2,7.97,2.05,11.1-.02-3.68-.5-7.42-.51-11.1.02M347.09,116.32c3.17,2.01,7.66,1.6,10.97.05-3.63-.63-7.35-.67-10.97-.05M347.05,119.2c1.96,2.32,5.77,1.82,7.96.06-2.65-.28-5.32-.28-7.96-.06Z"/>
  </g>
  <g id="_x23_fbe1c4ff">
    <path class="st77" d="M440.73,104.89c2.63-.01,5.27-.01,7.92.01-.05,1.83-.08,3.66-.12,5.49,1.93.09,3.88.16,5.83.25-.02,4.23-.05,8.46-.13,12.69-4.5.13-9.01.14-13.51,0-.19-6.15-.09-12.29.01-18.44M441.92,113.11c3.04,2.16,7.91,2.09,11,.02-3.65-.51-7.36-.51-11-.02M441.92,116.37c3.27,1.82,7.8,1.72,11.07-.05-3.66-.62-7.41-.6-11.07.05M441.71,119.94c2.64.82,5.89,1.33,8.15-.69-2.73-.28-5.63-.67-8.15.69Z"/>
  </g>
  <g id="_x23_cce6ceff">
    <path class="st38" d="M641.78,104.87c2.61,0,5.22,0,7.84.03-.06,1.82-.1,3.64-.15,5.46,1.9.14,3.8.25,5.71.36.06,4.22.04,8.44-.05,12.65-4.46.12-8.93.11-13.38-.08-.07-6.14-.13-12.28.03-18.42M642.95,113.17c3.09,2.03,7.82,2,10.89-.07-3.62-.48-7.29-.44-10.89.07M642.55,116.42c3.49,1.59,7.96,1.79,11.36-.1-3.76-.61-7.62-.63-11.36.1M642.56,119.47c2.49,1.38,6.08,2,8.27-.24-2.76-.26-5.54-.24-8.27.24Z"/>
  </g>
  <g id="_x23_cde7cfff">
    <path class="st70" d="M736.31,105.04c2.6-.11,5.21-.15,7.83-.16.03,1.86.08,3.73.13,5.6,1.88.06,3.77.13,5.67.22.02,4.19.05,8.39-.02,12.59-4.52.15-9.04.15-13.55-.08-.1-6.06-.15-12.12-.06-18.17M737.43,113.32c3.4,1.62,8.08,2.02,11.27-.22-3.75-.49-7.56-.5-11.27.22M737.38,116.41c3.44,1.65,7.99,1.82,11.34-.1-3.76-.6-7.61-.6-11.34.1M737.43,119.34c2.19,2.07,6.03,1.91,8.19-.13-2.73-.28-5.48-.27-8.19.13Z"/>
    <path class="st70" d="M837.46,171.53c6.5-1.86,13.05,5.75,9.94,11.86-2.16,5.88-11.01,6.87-14.57,1.77-4.01-4.54-1.26-12.43,4.63-13.63M838.11,181.63c-1.45-.96-2.92-1.88-4.46-2.66.83,2.21,2.52,3.89,4.19,5.5,2.21-2.18,4.56-4.23,6.53-6.64-.02-.57-.06-1.71-.08-2.28-2.19,1.89-4.16,4.01-6.18,6.08Z"/>
  </g>
  <g id="_x23_d4d2d2ff">
    <path class="st72" d="M450.05,106.52c1.2-.83,3.23,1.26,2.44,2.46-1.44.98-3.41-1.04-2.44-2.46Z"/>
    <path class="st72" d="M190.43,300.7c2.24-.14,4.57-.32,6.73.43-.25,3.65.26,7.31-.09,10.96-5.59-.02-11.18-.06-16.77.13-.3,7.63-.08,15.26-.21,22.89-17.4-.02-34.8.18-52.2-.1-.14-9.41-.02-18.82.02-28.23,17.35-.09,34.71-.39,52.05.1,2.92.16,5.87.41,8.78.05,1.34-1.79,1.25-4.15,1.69-6.23Z"/>
    <path class="st72" d="M44.35,364.4c5.84-.82,11.78-.23,17.66-.29,17.64.53,35.29-.33,52.94-.18.17,9.99-.11,19.99.15,29.99,11.73.7,23.49-.36,35.22.37-.71,9.03-.51,18.12-.07,27.16-5.71.83-11.5.52-17.25.55-24.67.01-49.33-.02-74,0-5.75-.03-11.53.28-17.24-.55.6-16.91.39-33.84.08-50.75.07-2.19-.25-5.65,2.51-6.3Z"/>
  </g>
  <g id="_x23_464440ff">
    <path class="st3" d="M536.09,106.3c1.59-.51,2.28,2.1.63,2.44-1.63.53-2.34-2.11-.63-2.44Z"/>
  </g>
  <g id="_x23_cee7d0ff">
    <path class="st78" d="M651.05,106.52c1.21-.84,3.28,1.2,2.44,2.42-1.42.97-3.43-1.01-2.44-2.42Z"/>
    <path class="st78" d="M736.79,171.97c4.86-.11,9.73-.12,14.6,0-1.91,2.56-4.14,4.86-5.95,7.49-.57,2.55-.21,5.2-.29,7.79-.5-.36-1.48-1.09-1.97-1.46-.25-2.58.62-5.65-1.27-7.78-1.6-2.11-3.4-4.05-5.12-6.05Z"/>
    <path class="st78" d="M653.03,174.05c1.63-.52,2.18.03,1.68,1.67-1.64.51-2.2-.04-1.68-1.67Z"/>
    <path class="st78" d="M642.45,187.2c.99-1.5,3.52.19,2.34,1.64-1.01,1.48-3.51-.19-2.34-1.64Z"/>
  </g>
  <g id="_x23_cfe8d1ff">
    <path class="st9" d="M745.98,106.58c1.2-.89,3.24,1.2,2.35,2.38-1.41,1.03-3.42-.99-2.35-2.38Z"/>
    <path class="st9" d="M613.59,165.58c.92-2.56,4.08-2.5,6.32-2.63,20.8-.04,41.61.29,62.41-.14.35-.02,1.04-.05,1.38-.07l.03.7c.98,13.5.27,27.04.55,40.56-.1,3.78.35,7.72-.88,11.37-1.59,2.96-5.5,2.48-8.33,2.65-18.37-.19-36.75.07-55.11-.1-3.04.14-7.02-1.25-6.82-4.92-.39-12.66.03-25.34-.19-38,.06-3.14-.28-6.38.64-9.42M641.23,174.45c2.09,2.33,1.7,5.55,1.53,8.43,0,2.44-3.35,4.34-1.69,6.79,1.04,2.27,3.62.91,5.46.79.53-2.63-.78-4.88-2.13-7.01,2.59-.95,5.37-1.18,7.97-2.1,2.06-1.67,3.44-4.09,4.67-6.4-.04-3.04-4.42-4.26-5.97-1.62-1.25,2.16,1.04,3.92,1.97,5.69-2.65,1.4-5.63,1.79-8.55,2.12-.11-2.49.14-4.98,1.59-7.09,1.03-1.36.44-3.6-1.27-4.07-2.55-1.45-5.91,2.28-3.58,4.47Z"/>
  </g>
  <g id="_x23_eeeeeeff">
    <path class="st57" d="M61.98,107.28c1.43-.36,1.95.13,1.55,1.5-1.45.35-1.96-.15-1.55-1.5Z"/>
    <path class="st57" d="M15.37,452.51c1.18-.26,2.37-.42,3.58-.46,87.01.02,174.03.03,261.05.01,4.51.08,9.12-.49,13.57.47,3.23,1.34,3.31,5.44,3.43,8.42.01,7.35-.15,14.71.05,22.06-.14,3.1.21,6.61-1.74,9.25-1.18,1.68-3.44,1.56-5.25,1.75-87.35.02-174.7-.01-262.05-.02-3.95.01-7.92.31-11.84-.28-2.08-.32-4.57-1.55-4.72-3.92-.6-5.57-.02-11.2-.16-16.79.13-5.54-.53-11.12.3-16.62.25-1.96,1.86-3.53,3.78-3.87Z"/>
    <path class="st57" d="M310.44,452.55c1.14-.3,2.31-.47,3.5-.49,90.7,0,181.42.03,272.13-.01,1.76.15,4.13-.04,5.01,1.9,1.24,2.47,1.05,5.34,1.15,8.04-.14,9.31.71,18.67-.28,27.96.02,4.07-5,3.89-7.9,4.09-89.7-.09-179.41,0-269.11-.03-2.54-.14-5.56-.45-7.1-2.77-1.1-3.28-.61-6.84-.68-10.24.25-7.68-.14-15.36.07-23.03-.04-2.21.89-4.74,3.21-5.42Z"/>
    <path class="st57" d="M606.44,452.55c1.46-.42,2.99-.48,4.51-.53,86.35.11,172.7,0,259.05.06,4.93.08,9.9-.46,14.8.26,2.46.19,3.29,2.97,3.64,5.02.77,6.18.13,12.43.31,18.64-.09,4.78.54,9.65-.5,14.37-.98,3.5-5.24,3.54-8.19,3.66-85.35-.06-170.7.02-256.05-.03-5.36-.06-10.72.3-16.06-.08-1.65-.18-4-.37-4.42-2.36-.97-4.45-.43-9.05-.48-13.56.18-6.68-.29-13.36.06-20.03,0-2.24,1.01-4.74,3.33-5.42Z"/>
  </g>
  <g id="_x23_1a1817ff">
    <path class="st27" d="M539.17,107c5.42-.5,10.94-.66,16.35.09-4.3,2.46-9.71,1.08-14.46,1.26-.48-.34-1.42-1.01-1.89-1.35Z"/>
  </g>
  <g id="_x23_171716ff">
    <path class="st19" d="M833.52,107.05c4.73-.66,9.55-.54,14.32-.29.64.29,1.92.86,2.56,1.15-4.11.72-8.29.48-12.43.51-1.63.12-3.19-.37-4.45-1.37Z"/>
  </g>
  <g id="_x23_32302bff">
    <path class="st52" d="M539.23,111.17c5.16-.31,10.34-.18,15.52-.12-.01.47-.02,1.42-.03,1.89-4.81-.01-9.67.4-14.45-.17-.26-.4-.78-1.2-1.04-1.6Z"/>
  </g>
  <g id="_x23_2c2b29ff">
    <path class="st48" d="M829.97,111.09c1.65-.54,2.21,0,1.7,1.62-1.65.54-2.22,0-1.7-1.62Z"/>
  </g>
  <g id="_x23_312f2bff">
    <path class="st71" d="M833.51,111.39c5.26-.72,10.59-.28,15.9-.39,0,.5-.03,1.51-.04,2.02-4.68-.13-9.37.18-14.03-.16-.46-.37-1.38-1.1-1.83-1.47Z"/>
  </g>
  <g id="_x23_181716ff">
    <path class="st8" d="M53.25,113.28c3.73-.59,7.57-.65,11.29.07-3.46,1.6-7.91,1.77-11.29-.07Z"/>
  </g>
  <g id="_x23_1e1d1bff">
    <path class="st42" d="M148.03,113.24c3.79-.56,7.68-.61,11.45.15-3.54,1.52-8.05,1.81-11.45-.15Z"/>
  </g>
  <g id="_x23_100f0fff">
    <path class="st29" d="M346.99,113.15c3.68-.53,7.42-.52,11.1-.02-3.13,2.07-7.95,2.02-11.1.02Z"/>
  </g>
  <g id="_x23_121110ff">
    <path class="st62" d="M441.92,113.11c3.64-.49,7.35-.49,11,.02-3.09,2.07-7.96,2.14-11-.02Z"/>
  </g>
  <g id="_x23_11100fff">
    <path class="st79" d="M642.95,113.17c3.6-.51,7.27-.55,10.89-.07-3.07,2.07-7.8,2.1-10.89.07Z"/>
    <path class="st79" d="M539.83,115.63c5.18.57,11.01-1.38,15.72,1.26-5.22.73-10.51.37-15.76.36l.04-1.62Z"/>
  </g>
  <g id="_x23_1d1c1aff">
    <path class="st44" d="M737.43,113.32c3.71-.72,7.52-.71,11.27-.22-3.19,2.24-7.87,1.84-11.27.22Z"/>
  </g>
  <g id="_x23_43423fff">
    <path class="st30" d="M536.08,115.14c1.55-.48,2.3,2.12.68,2.49-1.59.49-2.36-2.13-.68-2.49Z"/>
  </g>
  <g id="_x23_21201eff">
    <path class="st45" d="M53.3,116.29c3.72-.47,7.5-.49,11.21.11-3.48,1.41-7.87,1.86-11.21-.11Z"/>
  </g>
  <g id="_x23_181615ff">
    <path class="st54" d="M148.22,116.32c3.61-.53,7.3-.51,10.91.05-3.31,1.54-7.69,1.82-10.91-.05Z"/>
  </g>
  <g id="_x23_151312ff">
    <path class="st28" d="M347.09,116.32c3.62-.62,7.34-.58,10.97.05-3.31,1.55-7.8,1.96-10.97-.05Z"/>
  </g>
  <g id="_x23_171514ff">
    <path class="st36" d="M441.92,116.37c3.66-.65,7.41-.67,11.07-.05-3.27,1.77-7.8,1.87-11.07.05Z"/>
  </g>
  <g id="_x23_21211eff">
    <path class="st37" d="M642.55,116.42c3.74-.73,7.6-.71,11.36-.1-3.4,1.89-7.87,1.69-11.36.1Z"/>
  </g>
  <g id="_x23_22201dff">
    <path class="st43" d="M737.38,116.41c3.73-.7,7.58-.7,11.34-.1-3.35,1.92-7.9,1.75-11.34.1Z"/>
  </g>
  <g id="_x23_20201eff">
    <path class="st69" d="M833.52,116.11c5.55-.77,11.28-.79,16.84.02-2.52,1.63-5.54,1.21-8.37,1.27-2.88-.06-5.95.43-8.47-1.29Z"/>
  </g>
  <g id="_x23_6c6a63ff">
    <path class="st26" d="M107.59,119.7c3.14.96,5.89,2.76,8.59,4.57-2.47,1.58-4.99,3.1-7.64,4.36.81-1.24,1.67-2.44,2.54-3.64-5.04.05-10.09.05-15.14,0h-.92v-1.06c5.68-.3,11.36-.13,17.03.15-.56-.51-1.12-1.03-1.67-1.54-.97-.91-1.9-1.85-2.79-2.83Z"/>
  </g>
  <g id="_x23_6a6861ff">
    <path class="st53" d="M202.66,119.74c3.11.99,5.88,2.74,8.6,4.51-2.47,1.67-5,3.23-7.7,4.49.79-1.27,1.63-2.51,2.48-3.75-5.2.09-10.4-.09-15.59.15-.02-.38-.07-1.14-.1-1.53,5.57.04,11.14.25,16.71.45-.56-.52-1.12-1.04-1.67-1.55-.95-.89-1.86-1.82-2.73-2.77Z"/>
  </g>
  <g id="_x23_716f68ff">
    <path class="st59" d="M401.61,119.77c2.95,1.08,5.64,2.71,8.26,4.42-2.56,1.78-5.19,3.49-8.05,4.77.97-1.37,2.03-2.67,3.12-3.96-5.11.03-10.22-.11-15.32.19,0-.46.01-1.38.01-1.84,5.05.2,10.12.1,15.17.48-1.11-1.32-2.21-2.65-3.19-4.06Z"/>
  </g>
  <g id="_x23_727069ff">
    <path class="st61" d="M496.72,119.68c3.01,1.13,5.75,2.84,8.42,4.62-2.66,1.76-5.35,3.48-8.27,4.75.99-1.4,2.06-2.73,3.16-4.05-5.17.01-10.34-.04-15.51.09,0-.37.01-1.12.01-1.5,5.11-.22,10.22-.16,15.32.17-1.08-1.33-2.15-2.68-3.13-4.08Z"/>
  </g>
  <g id="_x23_70706bff">
    <path class="st85" d="M697.68,119.78c2.89,1.17,5.57,2.77,8.38,4.14l-.06.64c-2.74,1.51-5.47,3.05-8.35,4.29,1.02-1.34,2.12-2.6,3.25-3.85-5.19.06-10.37.02-15.55.1.01-.38.02-1.14.02-1.52,5.13-.11,10.27-.2,15.4.16-1.07-1.29-2.13-2.6-3.09-3.96Z"/>
    <path class="st85" d="M792.95,186.04c2.96,1.26,5.72,2.96,8.39,4.76-2.66,1.69-5.37,3.3-8.23,4.59.69-1.23,1.42-2.44,2.16-3.65-4.73-.07-9.46-.03-14.17.14v-1.82c4.9.1,9.81.07,14.73,0-1-1.32-1.97-2.65-2.88-4.02Z"/>
    <path class="st85" d="M166.79,200.98c7.99-1.37,16.15-.45,24.21-.83,23.33.31,46.66.09,69.99.2,5.7.07,11.47-.61,17.11.51-37.1.39-74.21.2-111.31.12Z"/>
  </g>
  <g id="_x23_71716cff">
    <path class="st68" d="M792.59,119.74c2.98,1.18,5.81,2.72,8.6,4.31l.04.63c-2.95,1.28-5.7,2.94-8.64,4.23,1.01-1.36,2.11-2.65,3.24-3.93-5.24.14-10.48.23-15.72.11l.04-1.04c5.33-.7,10.73-.48,16.1-.26l-.89-.29c-1.01-1.2-1.91-2.47-2.77-3.76Z"/>
  </g>
  <g id="_x23_2f2e2bff">
    <path class="st35" d="M830.02,120.03c1.63-.52,2.19.03,1.69,1.65-1.65.52-2.21-.03-1.69-1.65Z"/>
  </g>
  <g id="_x23_f18110ff">
    <path class="st40" d="M346.54,162.49c2.13-2.36,5.54-2,8.41-2.06,23.66.11,47.32-.04,70.98.03,3.54-.22,6.96,2.85,6.65,6.5.1,7.67-.04,15.36.03,23.04v1.11c-.13,6.89.21,13.8-.13,20.68-.22,3.31-3.28,5.85-6.57,5.58-23.98.18-47.96-.06-71.94.1-2.55-.05-5.58.09-7.46-1.95-1.54-1.38-1.17-3.62-1.3-5.47.13-14.03.1-28.07,0-42.11.17-1.84-.26-4.11,1.33-5.45M348.29,162.09c-2.82,1.53-2.29,5.16-2.46,7.85.19,12.36.29,24.73.06,37.09.07,2.38-.15,4.89.71,7.17,1.21,2.34,4.12,2.38,6.41,2.44,23.67,0,47.34-.04,71,.02,2.07-.16,4.57.14,6.13-1.53,1.72-1.55,1.53-4.02,1.63-6.12,0-13.35-.03-26.69.02-40.04-.13-2.09.12-4.59-1.6-6.14-1.31-1.46-3.39-1.4-5.17-1.51-23.68-.12-47.35.03-71.03-.08-1.9.13-3.98-.13-5.7.85Z"/>
    <path class="st40" d="M316.26,245.52c1.84-.6,3.7-1.23,5.66-1.34,80.02-.04,160.05,0,240.07.01,7.07.03,14.16-.39,21.19.47.9,6.07.46,12.22.56,18.34-.07,51,.11,102,.06,153.01-.11,4.18.37,8.43-.34,12.59-.73,2.78-3.84,3.68-6.4,3.58-81.68,0-163.37,0-245.06,0-3.94-.08-7.93.31-11.83-.34-2.62-.5-4.07-3.3-3.88-5.8-.02-60.17.02-120.34-.03-180.52M325.52,251.45c-.44.33-1.31,1-1.74,1.33-1.35,5.65-.74,11.48-.77,17.22,0,14.33-.02,28.67,0,43,.08,5.75-.68,11.61.87,17.23l-.02,1.01c14.71.42,29.43.06,44.14.19,25.7-.23,51.41.33,77.11-.21v-.99c1.56-5.62.74-11.49.87-17.23.08-17.68-.05-35.35.08-53.03,0-2.44-.4-4.85-.9-7.22l.03-1.04c-3.39-.3-6.79-.44-10.19-.4-36.5.16-72.99-.14-109.48.14M455.62,251.74c-.86,1.24-1.05,2.75-1.1,4.22,0,26.68-.07,53.36.01,80.04-.01,6.69-.32,13.4.43,20.07,8.32.9,16.69.3,25.04.47,29.67-.04,59.35-.05,89.02.03,2.45-.01,4.87-.46,7.26-1.02.43-2.49.78-5,.81-7.52-.14-26.34.04-52.69-.03-79.03-.05-5.42.59-10.96-.93-16.25l.03-1.02c-9.7-.82-19.44-.2-29.16-.4-29.02,0-58.04.04-87.06-.04-1.45.04-2.91.12-4.32.45M325.84,352.77c-1.01.43-1.69,1.12-2.05,2.09-.43,2.01-.8,4.04-.84,6.1.11,15.02.13,30.04,0,45.05,0,2.53.31,5.05.7,7.54,6.7,1.43,13.57.62,20.35.78,31.34.02,62.68-.04,94.02.04,2.45-.03,4.87-.41,7.27-.86,1.21-6.44.59-13.01.68-19.51.05-10.67-.09-21.34.11-32,.06-2.72-.3-5.42-.89-8.07-.52-.28-1.56-.85-2.08-1.13-5.23-1.64-10.74-.71-16.11-.86-32.02-.12-64.04.17-96.06-.04-1.73.08-3.43.47-5.1.87Z"/>
  </g>
  <g id="_x23_e6b684ff">
    <path class="st0" d="M459.99,166.95c-.2-4.23,3.89-7.34,7.91-6.95,30.39-.05,60.77.03,91.16-.07,2.88.03,6.34.26,8.18,2.83,1.31,2.15,1.02,4.82,1.18,7.24-.1,12.67-.11,25.34-.01,38.01-.14,2.42.12,5.07-1.14,7.24-1.6,2.3-4.72,2.4-7.24,2.6-30.03.09-60.06-.11-90.09.14-2.9-.13-6.39-.11-8.35-2.61-1.79-2-1.65-4.84-1.69-7.33.05-5.7.19-11.4-.22-17.09l-.04-.69c.54-7.77.18-15.55.35-23.32M464.37,162.36c-3.02,1.15-2.95,4.92-3.06,7.61.04,12.36.15,24.73.02,37.1.13,2.8-.1,6.25,2.34,8.21,1.57.93,3.53.65,5.29.82,29.01.1,58.02-.11,87.03.09,2.86-.06,5.79.07,8.58-.68,2.5-1.06,2.3-4.18,2.42-6.43-.09-12.36-.08-24.72.01-37.07-.05-2.52.16-5.1-.48-7.56-1.15-3.03-4.9-2.62-7.52-2.83-28.66.01-57.33.14-85.99-.02-2.89.05-5.85-.05-8.64.76Z"/>
  </g>
  <g id="_x23_fde3c6ff">
    <path class="st25" d="M348.29,162.09c1.72-.98,3.8-.72,5.7-.85,23.68.11,47.35-.04,71.03.08,1.78.11,3.86.05,5.17,1.51,1.72,1.55,1.47,4.05,1.6,6.14-.05,13.35-.03,26.69-.02,40.04-.1,2.1.09,4.57-1.63,6.12-1.56,1.67-4.06,1.37-6.13,1.53-23.66-.06-47.33-.02-71-.02-2.29-.06-5.2-.1-6.41-2.44-.86-2.28-.64-4.79-.71-7.17.23-12.36.13-24.73-.06-37.09.17-2.69-.36-6.32,2.46-7.85M380.98,172.02c2.18,2.73,1.78,6.38,1.51,9.64-.4,2.08-2.8,3.9-1.63,6.12,1.09,2.03,3.47.93,5.27.98,1.12-2.83-.79-5.2-2.08-7.55,3.36-1.41,8.3-.15,10.14-4.05.86-1.79,3.33-3.49,2.26-5.65-.87-2.23-4.33-2.33-5.56-.33-1,2.18,1.02,3.99,1.66,5.95-2.58,1.37-5.54,1.56-8.38,1.87.11-1.49.12-2.99.4-4.45.89-1.93,3.18-4.19,1.06-6.18-2.24-2.74-7.03.89-4.65,3.65Z"/>
    <path class="st25" d="M464.37,162.36c2.79-.81,5.75-.71,8.64-.76,28.66.16,57.33.03,85.99.02,2.62.21,6.37-.2,7.52,2.83.64,2.46.43,5.04.48,7.56-.09,12.35-.1,24.71-.01,37.07-.12,2.25.08,5.37-2.42,6.43-2.79.75-5.72.62-8.58.68-29.01-.2-58.02,0-87.03-.09-1.76-.17-3.72.11-5.29-.82-2.44-1.96-2.21-5.41-2.34-8.21.13-12.37.02-24.74-.02-37.1.11-2.69.04-6.46,3.06-7.61M509.81,169.19c.7.36,2.09,1.08,2.79,1.44.18,5.42-.15,10.82-.42,16.23,2.75-.12,5.7-.89,7.89,1.31.03-1.75.05-3.51.08-5.25-.94-.46-1.88-.9-2.82-1.35.14.7.4,2.09.53,2.79-1.34-.03-2.67-.05-3.99-.07.87-4.8,1.33-9.67,1.04-14.55.59-.01,1.77-.02,2.36-.03.04,1.61.12,3.21.25,4.82,1.71-1.35,1.86-3.44,1.9-5.46-3.12-1.49-6.59-1.63-9.61.12M506,174.32c.73.88,1.46,1.77,2.17,2.68.58-.77,1.17-1.54,1.77-2.31-.44-.84-.86-1.69-1.27-2.54-.89.73-1.78,1.45-2.67,2.17M522.31,173.54c-.12.78-.37,2.33-.49,3.11-1.56.08-3.11.23-4.65.42,1.93,1.62,5.66.86,5.43,4.3,1.11-1.34,2.29-2.63,3.23-4.11-1.08-1.33-2.31-2.53-3.52-3.72M503.06,178.16c1.67,3.09,5.5,2.35,8.42,2.7-.82-3.64-5.68-1.96-8.42-2.7Z"/>
  </g>
  <g id="_x23_7baa83ff">
    <path class="st50" d="M611.94,167.98c-.22-3.31,2.74-6.26,6.05-6.05,19-.2,38.01.08,57.02-.12,2.46-.05,4.98.08,7.31,1-20.8.43-41.61.1-62.41.14-2.24.13-5.4.07-6.32,2.63-.92,3.04-.58,6.28-.64,9.42.22,12.66-.2,25.34.19,38-.2,3.67,3.78,5.06,6.82,4.92,18.36.17,36.74-.09,55.11.1,2.83-.17,6.74.31,8.33-2.65,1.23-3.65.78-7.59.88-11.37-.28-13.52.43-27.06-.55-40.56,1.1,2.36,1.8,4.92,1.68,7.55-.08,6.35.01,12.69,0,19.03,0,.48-.01,1.42-.01,1.9-.17,7.02.33,14.05-.11,21.07-.03,3.3-2.93,6.08-6.23,5.95-19.02.2-38.05-.07-57.07.14-2.79-.1-6.05.35-8.25-1.75-2.12-1.8-1.83-4.8-1.9-7.3.14-14.02-.03-28.04.11-42.05Z"/>
  </g>
  <g id="_x23_7cad84ff">
    <path class="st73" d="M709.81,162.85c1.81-1.18,4.09-.89,6.16-1.02,15.67.07,31.35.04,47.03.03,4.82.05,9.7-.37,14.46.63-3.82.34-7.64.59-11.47.56-16.69-.07-33.38-.01-50.06-.1-2.15.18-4.84-.18-6.35,1.71-1.7,2.39-1.47,5.5-1.6,8.29.16,23.71.16,47.42.06,71.13.17,2.81-.06,6.46,2.62,8.21,2.61,1.09,5.55.83,8.33.94,17.35-.15,34.71-.08,52.06-.04,2.52-.19,5.42.07,7.56-1.57,1.7-2.1,1.27-5.04,1.45-7.56-.15-18.02-.02-36.04-.06-54.06.05-8.15-.32-16.31.43-24.44,1.43,8.07.33,16.34.67,24.5v1.82c-.04,18.71.12,37.43-.06,56.14.22,3.78-3.43,6.57-7.02,6.24-18,.13-36.01-.05-54.02.08-2.93-.03-5.91.13-8.77-.53-3.26-.95-4.24-4.75-4.23-7.75-.04-25.37.04-50.74-.03-76.11-.06-2.6.65-5.48,2.84-7.1Z"/>
  </g>
  <g id="_x23_cfe9d1ff">
    <path class="st46" d="M777.46,162.49c1.46-.01,2.94,1.62,2.97,3.07-.75,8.13-.38,16.29-.43,24.44.04,18.02-.09,36.04.06,54.06-.18,2.52.25,5.46-1.45,7.56-2.14,1.64-5.04,1.38-7.56,1.57-17.35-.04-34.71-.11-52.06.04-2.78-.11-5.72.15-8.33-.94-2.68-1.75-2.45-5.4-2.62-8.21.1-23.71.1-47.42-.06-71.13.13-2.79-.1-5.9,1.6-8.29,1.51-1.89,4.2-1.53,6.35-1.71,16.68.09,33.37.03,50.06.1,3.83.03,7.65-.22,11.47-.56M733.78,170.72c2.24,3.32,5.08,6.19,7.33,9.5.35,2.18.24,4.42.32,6.63,1.76,1.12,3.54,2.2,5.37,3.24.23-3.26-.03-6.55.43-9.79,2.29-3.4,5.37-6.22,7.24-9.92-6.88-.27-13.88-.82-20.69.34Z"/>
  </g>
  <g id="_x23_77ad80ff">
    <path class="st23" d="M804.71,162.79c2-.72,4.13-1.01,6.27-.97,17,.1,34.01.04,51.02.04,4.09.05,8.34-.48,12.29.92-12.76.46-25.53.12-38.29.21-10.43-.13-20.87.25-31.29-.2Z"/>
  </g>
  <g id="_x23_cee8d1ff">
    <path class="st21" d="M803.27,162.71c.36.02,1.08.06,1.44.08,10.42.45,20.86.07,31.29.2,12.76-.09,25.53.25,38.29-.21.36-.02,1.09-.05,1.46-.07v.72c.65,21.2.01,42.42.39,63.62-.24,2.65.44,6.32-2.31,7.86-2.71,1.36-5.87,1-8.8,1.11-18.03-.13-36.07.02-54.1-.03-2.54-.15-5.83-.1-7.31-2.57-1-3.02-.67-6.29-.73-9.42.32-20.19-.33-40.39.37-60.57v-.72M835.38,170.37c-2.93,1.27-5.17,3.96-5.96,7.04-1.62,6.03,3.28,12.8,9.58,12.93,6.43.68,12.15-5.86,10.8-12.15-.83-6.46-8.56-10.58-14.42-7.82Z"/>
  </g>
  <g id="_x23_76a97dff">
    <path class="st24" d="M803.26,163.43c-.7,20.18-.05,40.38-.37,60.57.06,3.13-.27,6.4.73,9.42,1.48,2.47,4.77,2.42,7.31,2.57,18.03.05,36.07-.1,54.1.03,2.93-.11,6.09.25,8.8-1.11,2.75-1.54,2.07-5.21,2.31-7.86-.38-21.2.26-42.42-.38-63.62.99,2.4,1.55,4.95,1.5,7.56.02,19.01-.01,38.02-.04,57.03-.18,2.48.16,5.51-1.97,7.29-1.92,1.85-4.75,1.72-7.21,1.78-19.69-.12-39.39,0-59.08-.07-3.46.22-7.3-2.21-7.07-6.01-.34-17.66.05-35.35-.12-53.01.04-4.88-.64-10,1.49-14.57Z"/>
  </g>
  <g id="_x23_73716cff">
    <path class="st66" d="M335.74,185.82c3.08,1.13,5.82,2.97,8.53,4.8-2.77,1.62-5.54,3.28-8.51,4.5.96-1.39,2.02-2.71,3.1-4.02-5.16-.06-10.59,1.06-15.54-.83,5.16-.8,10.4-.48,15.6-.34-1.09-1.35-2.19-2.7-3.18-4.11Z"/>
  </g>
  <g id="_x23_6f6d68ff">
    <path class="st87" d="M451.53,185.9c2.84,1.16,5.55,2.67,8.11,4.37l.04.69c-2.73,1.38-5.4,2.87-8.24,4.01,1.01-1.37,2.13-2.66,3.29-3.9-7.37.33-14.75.29-22.12.04v-1.11c7.39-.33,14.79-.34,22.18-.06-1.14-1.31-2.26-2.64-3.26-4.04Z"/>
  </g>
  <g id="_x23_72726eff">
    <path class="st22" d="M697.76,186.04c2.82,1.4,5.5,3.05,8.2,4.68-2.58,1.84-5.24,3.56-8.13,4.85.71-1.28,1.48-2.53,2.25-3.78-4.9-.04-9.8-.09-14.69.13,0-.48.01-1.42.01-1.9,4.92.15,9.85.14,14.78.11-.83-1.35-1.66-2.71-2.42-4.09Z"/>
    <path class="st22" d="M280.26,201.89c.97,6.33.4,12.73.41,19.1-.05,14,0,28.01-.01,42.01.07,7.66-.32,15.33.34,22.98.59,6.01-.83,12.01-.31,18.03.29,3.72.98,7.6-.54,11.17-3.23,8.33-.47,17.25-1.13,25.85-.33,5.1-.26,10.22-.74,15.32-1.3-14.33.03-28.73-.68-43.09-12.18-.86-24.4-.2-36.6-.39-19.95.27-39.91-.45-59.85.35-.95,14.71.32,29.47-.6,44.17-.73-7.13-.31-14.3-.49-21.45-18.36-.22-36.72.14-55.08-.16-2.88.02-5.79.04-8.62.62-1.33,8.1-.21,16.36-.47,24.53l-.81.06c.26-8.49-.27-16.99.41-25.47,3.88-.29,7.76-.47,11.65-.59.14-9.35-.02-18.69-.06-28.03-7.8-.13-15.61.16-23.4-.42-.04-4.53-.13-9.07-.31-13.6-19.45-.38-38.91-.01-58.37-.16-4.9-.07-9.8-.01-14.67.46-.15,2.59-.29,5.18-.3,7.77.36,22.73.1,45.46.08,68.19l-.79-.32c.09-14.94-.14-29.87-.08-44.8-.19-11.16-2.26-22.61.54-33.59,5.36.82,10.8.9,16.22.81,19.02-.18,38.04.24,57.06-.19l.97-.03c.35,5,.32,10.02.62,15.02,25.09.31,50.19.42,75.29.22l.02.62c-17.34-.49-34.7-.19-52.05-.1-.04,9.41-.16,18.82-.02,28.23,17.4.28,34.8.08,52.2.1.13-7.63-.09-15.26.21-22.89,5.59-.19,11.18-.15,16.77-.13.35-3.65-.16-7.31.09-10.96l.38.15c.72,3.56.26,7.21.5,10.81,16.99.07,33.97-.04,50.96.02,10.24.08,20.5-.31,30.73.46.59-36.54-.25-73.09.5-109.62l.03-1.06Z"/>
  </g>
  <g id="_x23_fac996ff">
    <path class="st31" d="M325.52,251.45c36.49-.28,72.98.02,109.48-.14,3.4-.04,6.8.1,10.19.4l-.03,1.04c-.28,25.82-.16,51.65-.06,77.48v.99c-25.69.54-51.4-.02-77.1.21-14.71-.13-29.43.23-44.14-.19l.02-1.01c.13-25.81.27-51.64-.1-77.45.43-.33,1.3-1,1.74-1.33Z"/>
  </g>
  <g id="_x23_f9c996ff">
    <path class="st7" d="M455.62,251.74c1.41-.33,2.87-.41,4.32-.45,29.02.08,58.04.05,87.06.04,9.72.2,19.46-.42,29.16.4l-.03,1.02c-.31,25.08-.06,50.17-.13,75.25.09,9.18-.28,18.38.28,27.55-2.39.56-4.81,1.01-7.26,1.02-29.67-.08-59.35-.07-89.02-.03-8.35-.17-16.72.43-25.04-.47-.75-6.67-.44-13.38-.43-20.07-.08-26.68-.01-53.36-.01-80.04.05-1.47.24-2.98,1.1-4.22Z"/>
  </g>
  <g id="_x23_d28335ff">
    <path class="st51" d="M323.01,270c.03-5.74-.58-11.57.77-17.22.37,25.81.23,51.64.1,77.45-1.55-5.62-.79-11.48-.87-17.23-.02-14.33,0-28.67,0-43Z"/>
    <path class="st51" d="M445.19,353.93c.59,2.65.95,5.35.89,8.07-.2,10.66-.06,21.33-.11,32-.09,6.5.53,13.07-.68,19.51-.51-19.85-.29-39.72-.1-59.58Z"/>
  </g>
  <g id="_x23_d28336ff">
    <path class="st10" d="M445.16,252.75c.5,2.37.9,4.78.9,7.22-.13,17.68,0,35.35-.08,53.03-.13,5.74.69,11.61-.88,17.23-.1-25.83-.22-51.66.06-77.48Z"/>
    <path class="st10" d="M322.95,360.96c.04-2.06.41-4.09.84-6.1.3,9.05.16,18.09.17,27.14-.12,10.52.34,21.05-.31,31.55-.39-2.49-.7-5.01-.7-7.54.13-15.01.11-30.03,0-45.05Z"/>
  </g>
  <g id="_x23_cf7b2bff">
    <path class="st32" d="M576.13,252.75c1.52,5.29.88,10.83.93,16.25.07,26.34-.11,52.69.03,79.03-.03,2.52-.38,5.03-.81,7.52-.56-9.17-.19-18.37-.28-27.55.07-25.08-.18-50.17.13-75.25Z"/>
  </g>
  <g id="_x23_cce7cfff">
    <path class="st20" d="M612.3,271.18c.53-3.58,4.61-4.52,7.66-4.49,83.69-.05,167.38.01,251.06-.01,2.28.19,4.92,0,6.79,1.56,1.91,1.65,2.04,4.36,2.16,6.7.12,5.19-.09,10.38-.13,15.57-6.44-1.95-13.23-1.06-19.84-1.19-80.03-.02-160.06.03-240.08-.03-2.64.02-5.22.55-7.74,1.26-.17-6.45-.75-12.96.12-19.37Z"/>
    <path class="st20" d="M621.28,297.08c1.52-.42,3.11-.47,4.69-.5,30.01,0,60.02,0,90.03,0,8.23.29,16.53-.63,24.7.46,1.46,2.75.82,5.98.96,8.96-.06,38.01-.21,76.02-.03,114.02-.04,1.57-.08,3.25-1.03,4.58-1.49.34-3.03.39-4.53.43-37.05-.11-74.09-.02-111.14-.04-1.61-.16-3.66.25-4.67-1.34-.47-2.53-.36-5.11-.4-7.66.19-38.34.01-76.68.11-115.02.39-1.2-.47-3.73,1.31-3.89Z"/>
  </g>
  <g id="_x23_cce7ceff">
    <path class="st84" d="M750.96,296.88c17.33-.7,34.7-.12,52.04-.3,16.33-.02,32.67.01,49,.01,6.6.04,13.21-.28,19.8.35.75,9.33.31,18.71.43,28.06.05,19.67-.1,39.33-.04,59-.06,4.24.37,8.52-.32,12.73-1.17,2.09-3.89,1.3-5.84,1.56-36.69-.11-73.37.04-110.06-.01-1.64-.24-4.07.32-4.9-1.54-.57-2.54-.37-5.17-.4-7.74.01-28.34-.02-56.67.01-85.01.01-2.37.13-4.74.28-7.11Z"/>
  </g>
  <g id="_x23_cf7a27ff">
    <path class="st64" d="M325.84,352.77c1.67-.4,3.37-.79,5.1-.87,32.02.21,64.04-.08,96.06.04,5.37.15,10.88-.78,16.11.86-24.03.52-48.07.13-72.1.24-15.06-.04-30.12.21-45.17-.27Z"/>
  </g>
  <g id="_x23_f9c895ff">
    <path class="st81" d="M323.79,354.86c.36-.97,1.04-1.66,2.05-2.09,15.05.48,30.11.23,45.17.27,24.03-.11,48.07.28,72.1-.24.52.28,1.56.85,2.08,1.13-.19,19.86-.41,39.73.1,59.58-2.4.45-4.82.83-7.27.86-31.34-.08-62.68-.02-94.02-.04-6.78-.16-13.65.65-20.35-.78.65-10.5.19-21.03.31-31.55,0-9.05.13-18.09-.17-27.14Z"/>
  </g>
  <g id="_x23_7f807dff">
    <path class="st47" d="M235.77,357.99c13.09-.22,26.18-.13,39.27.02-7.2,1.86-14.71,1-22.05,1.11-5.74-.28-11.63.54-17.22-1.13Z"/>
  </g>
  <g id="_x23_7b7c79ff">
    <path class="st80" d="M40.98,388c.19-5.77-.52-11.63.86-17.3.31,16.91.52,33.84-.08,50.75-.65-3.11-.9-6.28-.8-9.45.21-8-.18-16,.02-24Z"/>
  </g>
  <g id="_x23_7d7e7bff">
    <path class="st1" d="M150.32,394.29l.09-.88c.56,3.5.67,7.05.58,10.59-.21,5.81.71,11.73-.74,17.45-.44-9.04-.64-18.13.07-27.16Z"/>
  </g>
  <g class="st15">
    <g class="st15">
      <text class="st17" transform="translate(77.53 477.19)"><tspan x="0" y="0">Pipeline works</tspan></text>
    </g>
  </g>
  <g class="st15">
    <g class="st15">
      <text class="st17" transform="translate(382.8 477.19)"><tspan x="0" y="0">Noise reduced</tspan></text>
    </g>
  </g>
  <g class="st15">
    <g class="st15">
      <text class="st17" transform="translate(668.38 474.53)"><tspan x="0" y="0">Training-ready data</tspan></text>
    </g>
  </g>
  <g class="st15">
    <g class="st15">
      <text class="st14" transform="translate(386.2 239.46)"><tspan x="0" y="0">Output visualization</tspan></text>
    </g>
  </g>
  <g class="st15">
    <g class="st15">
      <text class="st14" transform="translate(674.5 282.33)"><tspan x="0" y="0">Output visualization</tspan></text>
    </g>
  </g>
  <g class="st15">
    <g class="st15">
      <text class="st16" transform="translate(327.8 265.07)"><tspan x="0" y="0">Low-information pages</tspan></text>
    </g>
  </g>
  <g class="st15">
    <g class="st15">
      <text class="st16" transform="translate(457.75 263.14)"><tspan x="0" y="0">Low-cost information pages</tspan></text>
    </g>
  </g>
  <g class="st15">
    <g class="st15">
      <text class="st16" transform="translate(325.61 361.35)"><tspan x="0" y="0">Support low pages</tspan></text>
    </g>
  </g>
  <g class="st15">
    <g class="st15">
      <text class="st18" transform="translate(623.51 302.85)"><tspan x="0" y="0">&lt;html&gt;</tspan><tspan x="0" y="10.8">&lt;head&gt;</tspan><tspan x="0" y="21.6">&lt;title&gt;Principles of Large </tspan><tspan x="0" y="32.4">Language Model Pre-training</tspan><tspan x="0" y="43.2">&lt;/title&gt;</tspan><tspan x="0" y="54">&lt;/head&gt;</tspan><tspan x="0" y="64.8">&lt;body&gt;</tspan><tspan x="0" y="75.6">Large language models learn </tspan><tspan x="0" y="86.4">general language patterns from </tspan><tspan x="0" y="97.2">The pre-training objective </tspan><tspan x="0" y="108">&lt;/body&gt;</tspan><tspan x="0" y="118.8">&lt;/html&gt;</tspan></text>
    </g>
  </g>
  <g class="st15">
    <g class="st15">
      <text class="st18" transform="translate(752.11 300.93)"><tspan x="0" y="0">&lt;html&gt;</tspan><tspan x="0" y="10.8">&lt;head&gt;</tspan><tspan x="0" y="21.6">&lt;title&gt;What Is Retrieval-</tspan><tspan x="0" y="32.4">Augmented Generation&lt;/title&gt;</tspan><tspan x="0" y="43.2">&lt;/head&gt;</tspan><tspan x="0" y="54">&lt;body&gt;</tspan><tspan x="0" y="64.8">Retrieval-Augmented Generation</tspan><tspan x="0" y="75.6">oblem of large models, allowing </tspan><tspan x="0" y="86.4">&lt;/body&gt;</tspan><tspan x="0" y="97.2">&lt;/html&gt;</tspan></text>
    </g>
  </g>
  <g class="st15">
    <g class="st15">
      <text class="st16" transform="translate(33.1 210.87)"><tspan x="0" y="0">Directory pages</tspan></text>
    </g>
  </g>
  <g class="st15">
    <g class="st15">
      <text class="st16" transform="translate(105.98 226.13)"><tspan x="0" y="0">Complete page </tspan></text>
    </g>
  </g>
  <g class="st15">
    <g class="st15">
      <text class="st16" transform="translate(158.33 210.66)"><tspan x="0" y="0">Template content</tspan></text>
    </g>
  </g>
  <g class="st15">
    <g class="st15">
      <text class="st13" transform="translate(32.11 302.45)"><tspan x="0" y="0">&lt;div class=&quot;nav&quot;&gt;Home </tspan><tspan x="0" y="8.4">| About | Contact | Login&lt;/div&gt;</tspan><tspan x="0" y="16.8">&lt;div class=&quot;footer&quot;&gt;©2026</tspan><tspan x="0" y="25.2" xml:space="preserve"> All Rights Reserved&lt;/div&gt;</tspan><tspan x="0" y="33.6">| About | Contact | Login&lt;/div&gt;</tspan><tspan x="0" y="42">&lt;div class=&quot;footer&quot;&gt;©2026</tspan><tspan x="0" y="50.4" xml:space="preserve"> All Rights Reserved&lt;/div&gt;</tspan></text>
    </g>
  </g>
  <g class="st15">
    <g class="st15">
      <text/>
    </g>
  </g>
  <g class="st15">
    <g class="st15">
      <text class="st16" transform="translate(182.24 321.35)"><tspan x="0" y="0">Device content</tspan></text>
    </g>
  </g>
  <g class="st15">
    <g class="st15">
      <text class="st16" transform="translate(189.47 371.9)"><tspan x="0" y="0">Code fragments</tspan></text>
    </g>
  </g>
  <g class="st15">
    <g class="st15">
      <text class="st16" transform="translate(121.61 348.73)"><tspan x="0" y="0">Rinuit</tspan></text>
    </g>
  </g>
  <g class="st15">
    <g class="st15">
      <text class="st16" transform="translate(42.93 373.06)"><tspan x="0" y="0">Code fragments</tspan></text>
    </g>
  </g>
  <g class="st15">
    <g class="st15">
      <text class="st14" transform="translate(91.65 188.08)"><tspan x="0" y="0">Output visualization</tspan></text>
    </g>
  </g>
  <g class="st15">
    <g class="st15">
      <text class="st14" transform="translate(30.68 143.01)"><tspan x="0" y="0">WARC </tspan></text>
    </g>
  </g>
  <g class="st15">
    <g class="st15">
      <text class="st14" transform="translate(136.09 142.35)"><tspan x="0" y="0">HTML</tspan></text>
    </g>
  </g>
  <g class="st15">
    <g class="st15">
      <text class="st14" transform="translate(224.27 137.08)"><tspan x="0" y="0">Content</tspan><tspan x="-9.36" y="18" xml:space="preserve"> Extraction</tspan></text>
    </g>
  </g>
  <g class="st15">
    <g class="st15">
      <text class="st12" transform="translate(49.95 83.79)"><tspan x="0" y="0">Iteration 1: Basic Pipeline</tspan></text>
    </g>
  </g>
  <g class="st15">
    <g class="st15">
      <text class="st11" transform="translate(157.94 35)"><tspan x="0" y="0">Three Iterations of Data Pipeline Evolution</tspan></text>
    </g>
  </g>
  <g class="st15">
    <g class="st15">
      <text class="st14" transform="translate(333.43 138.47)"><tspan x="0" y="0">WARC</tspan></text>
    </g>
  </g>
  <g class="st15">
    <g class="st15">
      <text class="st12" transform="translate(333.71 86.41)"><tspan x="0" y="0">Iteration 2: Noise Reduction</tspan></text>
    </g>
  </g>
  <g class="st15">
    <g class="st15">
      <text class="st12" transform="translate(611.97 86.16)"><tspan x="0" y="0">Iteration 3: Quality Convergence</tspan></text>
    </g>
  </g>
  <g class="st15">
    <g class="st15">
      <text class="st14" transform="translate(426.42 137.8)"><tspan x="0" y="0">HTML</tspan></text>
    </g>
  </g>
  <g class="st15">
    <g class="st15">
      <text class="st14" transform="translate(520.3 143.39)"><tspan x="0" y="0">Content</tspan></text>
    </g>
  </g>
  <g class="st15">
    <g class="st15">
      <text class="st14" transform="translate(357.32 208.63)"><tspan x="0" y="0" xml:space="preserve"> Cleaning</tspan></text>
    </g>
  </g>
  <g class="st15">
    <g class="st15">
      <text class="st14" transform="translate(470.35 206.05)"><tspan x="0" y="0">Deduplication</tspan></text>
    </g>
  </g>
  <g class="st15">
    <g class="st15">
      <text class="st14" transform="translate(616.78 207.31)"><tspan x="0" y="0" xml:space="preserve"> Cleaning</tspan></text>
    </g>
  </g>
  <g class="st15">
    <g class="st15">
      <text class="st14" transform="translate(625.27 140.39)"><tspan x="0" y="0">WARC</tspan></text>
    </g>
  </g>
  <g class="st15">
    <g class="st15">
      <text class="st14" transform="translate(717.81 143.55)"><tspan x="0" y="0">HTML</tspan></text>
    </g>
  </g>
  <g class="st15">
    <g class="st15">
      <text class="st14" transform="translate(813.51 142.5)"><tspan x="0" y="0">Content</tspan></text>
    </g>
  </g>
  <g class="st15">
    <g class="st15">
      <text class="st14" transform="translate(725.9 209.71)"><tspan x="0" y="0">Dedup </tspan><tspan x="-9.57" y="18">Language </tspan><tspan x="7.7" y="36">Split</tspan></text>
    </g>
  </g>
  <g class="st15">
    <g class="st15">
      <text class="st14" transform="translate(819.19 207.21)"><tspan x="0" y="0">Quality </tspan><tspan x="-1.46" y="18">Filtering</tspan></text>
    </g>
  </g>
  <text class="st39" transform="translate(29.33 222.05)"><tspan x="0" y="0">&lt;a href=&quot;/dir/001.html&quot;&gt;</tspan><tspan x="0" y="8.4">&lt;a href=&quot;/dir/002.html&quot;&gt;</tspan><tspan x="0" y="16.8">&lt;a href=&quot;/dir/003.html&quot;&gt;</tspan><tspan x="0" y="25.2">&lt;a href=&quot;/archive/2025/&quot;&gt;</tspan><tspan x="0" y="33.6">&lt;a href=&quot;/archive/2025/&quot;&gt;</tspan><tspan x="0" y="42">&lt;a href=&quot;/archive/2025/&quot;&gt;</tspan><tspan x="0" y="50.4">&lt;a href=&quot;/archive/2025/&quot;&gt;</tspan><tspan x="0" y="58.8">&lt;a href=&quot;/archive/2025/&quot;&gt;</tspan></text>
  <text class="st39" transform="translate(103.38 235.94)"><tspan x="0" y="0">&lt;html&gt;&lt;head&gt;&lt;title&gt;</tspan><tspan x="0" y="8.4">Tech Article Demo</tspan><tspan x="0" y="16.8">&lt;/title&gt;</tspan><tspan x="0" y="25.2">&lt;script type=&quot;text/javascript&quot;</tspan><tspan x="0" y="33.6">&gt;function popAd()</tspan><tspan x="0" y="42">{alert(&apos;special offer&apos;);}</tspan><tspan x="0" y="50.4">&lt;/script&gt;</tspan><tspan x="0" y="58.8">&lt;/head&gt;</tspan><tspan x="0" y="67.2">&lt;body&gt;</tspan></text>
  <text class="st39" transform="translate(324.72 273.89)"><tspan x="0" y="0">&lt;html&gt;</tspan><tspan x="0" y="8.4">&lt;head&gt;&lt;title&gt;404 Not Found&lt;/title&gt;</tspan><tspan x="0" y="16.8">&lt;/head&gt;</tspan><tspan x="0" y="25.2">&lt;body&gt;</tspan><tspan x="0" y="33.6">Page Not Found, Back to Homepage.</tspan><tspan x="0" y="42">&lt;/body&gt;</tspan><tspan x="0" y="50.4">&lt;/html&gt;</tspan></text>
  <text class="st39" transform="translate(454.68 272.48)"><tspan x="0" y="0">&lt;title&gt;Notice&lt;/title&gt;</tspan><tspan x="0" y="8.4">&lt;p&gt;Server maintenance ends at 18:00.&lt;/p&gt;</tspan><tspan x="0" y="16.8">&lt;title&gt;Notice&lt;/title&gt;</tspan><tspan x="0" y="25.2">&lt;p&gt;Server maintenance ends at 18:00.&lt;/p&gt;</tspan><tspan x="0" y="33.6">&lt;title&gt;Notice&lt;/title&gt;</tspan><tspan x="0" y="42">&lt;p&gt;Server maintenance ends at 18:00.&lt;/p&gt;</tspan><tspan x="0" y="50.4">&lt;title&gt;Notice&lt;/title&gt;</tspan><tspan x="0" y="58.8">&lt;p&gt;Server maintenance ends at 18:00.&lt;/p&gt;</tspan><tspan x="0" y="67.2">&lt;title&gt;Notice&lt;/title&gt;</tspan><tspan x="0" y="75.6">&lt;p&gt;Server maintenance ends at 18:00.&lt;/p&gt;</tspan></text>
  <text class="st39" transform="translate(327.27 374.9)"><tspan x="0" y="0">&lt;div class=&quot;cookie-alert&quot;&gt;</tspan><tspan x="0" y="8.4">We use cookies to improve </tspan><tspan x="0" y="16.8">browsing experience.</tspan><tspan x="0" y="25.2">Accept / Decline</tspan><tspan x="0" y="33.6">&lt;/div&gt;</tspan></text>
  <text class="st39" transform="translate(190.74 220.46)"><tspan x="0" y="0">&lt;div class=&quot;nav&quot;&gt;</tspan><tspan x="0" y="8.4">Home | About | Contact |</tspan><tspan x="0" y="16.8" xml:space="preserve"> Login&lt;/div&gt;</tspan><tspan x="0" y="25.2">&lt;div class=&quot;footer&quot;&gt;</tspan><tspan x="0" y="33.6">©2025 All Rights </tspan><tspan x="0" y="42">Reserved&lt;/div&gt;&lt;div class=</tspan><tspan x="0" y="50.4">&quot;nav&quot;&gt;Home | About | Contact |</tspan><tspan x="0" y="58.8" xml:space="preserve"> Login&lt;/div&gt;</tspan><tspan x="0" y="67.2">&lt;div class=&quot;footer&quot;&gt;</tspan><tspan x="0" y="75.6">©2025 All Rights </tspan><tspan x="0" y="84" xml:space="preserve">      Reserved&lt;/div&gt;</tspan></text>
  <text class="st39" transform="translate(182.2 328.83)"><tspan x="0" y="0">User-Agent: Mozilla/5.0</tspan><tspan x="0" y="8.4" xml:space="preserve"> (Windows NT 10.0; Win64; x64)</tspan><tspan x="0" y="16.8">Screen: 1920*1080, </tspan><tspan x="0" y="25.2">OS Version: 10.0.19045</tspan></text>
  <text class="st39" transform="translate(131.67 313.46)"><tspan x="0" y="0">&lt;div class=&quot;sidebar-</tspan><tspan x="0" y="8.4">fixed&quot;&gt;&lt;button</tspan><tspan x="0" y="16.8">&quot;float-btn&quot;&gt;Top</tspan></text>
  <text class="st39" transform="translate(115.96 356.38)"><tspan x="0" y="0">&lt;div class=&quot;sidebar-</tspan><tspan x="0" y="8.4">fixed&quot;&gt;&lt;button class=</tspan><tspan x="0" y="16.8">&quot;float-btn&quot;&gt;Top&lt;/button&gt;</tspan><tspan x="0" y="25.2">&lt;div class=&quot;side-share&quot;&gt;</tspan><tspan x="0" y="33.6">Share Weibo&lt;/div&gt;&lt;/div&gt;</tspan></text>
  <text class="st39" transform="translate(43.29 381.91)"><tspan x="0" y="0">function load(){</tspan><tspan x="0" y="8.4" xml:space="preserve">  let x = doc.ById(&quot;box&quot;);</tspan><tspan x="0" y="16.8" xml:space="preserve">  if(!x) return false;</tspan><tspan x="0" y="25.2" xml:space="preserve">  x.style.display = &quot;block&quot;;</tspan><tspan x="0" y="33.6">}</tspan></text>
  <text class="st39" transform="translate(189.66 377.05)"><tspan x="0" y="0">function load(){</tspan><tspan x="0" y="8.4" xml:space="preserve">  let x = doc.ById(&quot;box&quot;);</tspan><tspan x="0" y="16.8" xml:space="preserve">  if(!x) return false;</tspan><tspan x="0" y="25.2" xml:space="preserve">  x.style.display = &quot;block&quot;;</tspan><tspan x="0" y="33.6">}</tspan></text>
</svg>