<?xml version="1.0" encoding="UTF-8"?>
<svg id="_图层_1" xmlns="http://www.w3.org/2000/svg" version="1.1" viewBox="0 0 900 503">
  <!-- Generator: Adobe Illustrator 29.6.0, SVG Export Plug-In . SVG Version: 2.1.1 Build 207)  -->
  <defs>
    <style>
      .st0 {
        fill: #16bfea;
      }

      .st1 {
        fill: #e8f9fe;
      }

      .st2 {
        fill: #c5c9c7;
      }

      .st3 {
        font-size: 19px;
      }

      .st3, .st4, .st5, .st6, .st7 {
        isolation: isolate;
      }

      .st3, .st4, .st6 {
        font-family: TimesNewRomanPS-BoldMT, 'Times New Roman';
        font-weight: 700;
      }

      .st8 {
        fill: #fff;
      }

      .st9 {
        fill: #e9f2fc;
      }

      .st4 {
        font-size: 23px;
      }

      .st10 {
        fill: #f4eefc;
      }

      .st6 {
        font-size: 35px;
      }

      .st11 {
        fill: #fef1e2;
      }

      .st12 {
        fill: #50aa5a;
      }

      .st13 {
        fill: #edf9ee;
      }

      .st7 {
        font-family: TimesNewRomanPSMT, 'Times New Roman';
        font-size: 17px;
      }

      .st14 {
        fill: #fff2e3;
      }

      .st15 {
        fill: #9058cf;
      }

      .st16 {
        fill: #d8d9d8;
      }

      .st17 {
        fill: #ececec;
      }

      .st18 {
        fill: #f4931a;
      }

      .st19 {
        fill: #4487dd;
      }

      .st20 {
        fill: #e6e5e6;
      }

      .st21 {
        fill: #dcdbda;
      }

      .st22 {
        fill: #e8e8e8;
      }

      .st23 {
        fill: #d1d3d2;
      }
    </style>
  </defs>
  <g id="_x23_ffffffff">
    <path class="st8" d="M0,0h900v503H0V0M45.72,134.79c-1.39,4.6-1.28,9.43-1.18,14.18,0,73.69,0,147.37-.02,221.05.11,3.92-.7,8.29,1.66,11.74,1.83,2.85,5.29,5.23,8.81,4.43,4-.77,8.04-.05,12.07.01,6.31-.68,12.61.97,18.93.27,5-.72,10.01.52,15.02-.11,5.31-.17,10.63-.51,15.92.21,4.69-.24,9.4-.72,14.1-.28.5-.15,1.49-.46,1.99-.61.5.15,1.49.44,1.98.59,2.07-.41,4.17-.36,6.26-.32,2.77,2.96,7.05.33,10.55,1.09,8.04,1.38,16.12-.93,24.18.1,2.72.34,5.44-.26,8.17-.18,2.26.05,4.6.07,6.69-.95,3.19-1.44,7.04-3.87,6.53-7.92.16-59.69-.04-119.37.04-179.06.65-16.67.18-33.36.43-50.04-.3-4.56,1.3-10.43-3.14-13.49-.44-2.68-3.05-4.58-5.69-4.63-45.67.13-91.36-.06-137.03.08-2.82-.32-4.69,1.88-6.27,3.84M211.03,134.39c-1.27,3.04-2.37,6.23-2.37,9.57.1,7,.49,14,.36,20.99-1.13,7.69,1.05,15.4-.1,23.08-1.13,8.32,1.24,16.62.25,24.94-.88,6.64-.09,13.33-.5,20-.04,43.33-.06,86.67-.02,130.01.02,5.34-.3,10.72.5,16.03.12,4.98,5.47,7.95,9.89,8.35,41.31.03,82.64-.02,123.95.01,4.57-.03,9.43.36,13.65-1.72,3.38-1.91,4.89-5.96,4.8-9.7.03-75.64.07-151.28-.05-226.92-.02-2.56.47-5.08.62-7.62-.19-2.47-1.45-4.69-2.6-6.82-1.26-2.34-3.66-3.92-6.38-3.67h-134.98c-2.8-.23-5.79.74-7.02,3.48M375.65,134.68c-3.05,8.81-1.89,18.27-1.75,27.39-.32,13.64-.58,27.31.31,40.93-.66,16.32-.8,32.66-.33,48.98-.43,17.65-.2,35.3-.15,52.95-.43,9.34.09,18.68.05,28.01-.73,7.36.98,14.71-.07,22.05-.02,7.68-.39,15.4.37,23.06.15,4.62,4.1,8.94,8.8,9.07,8.04.51,16.13.3,24.16-.24,4.31.47,8.61.19,12.93.02,9.31.79,18.67.53,27.99.05,8,.58,16.06.65,24.06-.09,10.33.36,20.68-.1,31.01.53,6.25-.48,13.23,1.31,18.88-2.09,3.87-1.18,4.47-5.86,4.59-9.31-.12-16.33.11-32.67-.06-49-.05-4.74.9-9.46.23-14.18-.52-9.6-.21-19.23.32-28.83.09-20.33.48-40.63-.22-60.96.27-27.32-.14-54.64.01-81.97.06-3.59-.48-9.31-5.08-9.68-5.2-.92-10.5-.32-15.74-.45-41.31,0-82.63-.03-123.94,0-2.7-.25-5.23,1.35-6.37,3.76M540.82,133.88c-.76,1.36-1.33,2.86-1.07,4.45-.81,1.08-1.2,2.3-1.19,3.64.06,78.01-.14,156.03,0,234.04.11,4.53,2.54,9.34,7.21,10.55.43-.1,1.29-.3,1.73-.4,3.88,2.04,8.35,1.24,12.55,1.33,40.98-.05,81.96.04,122.94-.04,4.14.46,7.61-2.75,8.6-6.57,1.27-6.25-.17-12.62.31-18.92.72-6.33-.34-12.67.15-19.01-.53-14.33.37-28.66-.06-42.98.61-16.31-.34-32.61.16-48.92-.05-9.02-.74-18.05-.08-27.06-.03-11.99-.28-24-.11-35.99.98-9-.64-18-.06-27.01.51-6.33.46-12.7.26-19.05-.55-3.45-.52-8.31-4.46-9.72-3.18-2.02-7.06-1.34-10.62-1.42-43.01,0-86.02,0-129.03,0-2.75-.15-5.74.56-7.23,3.09M704.43,137.87c-1.44,2.47-.92,5.43-.98,8.15.05,77.32-.11,154.65.04,231.97.13,2.68,1.68,5.11,3.51,6.98,6.07,3.57,13.32,1.67,19.97,2.3,9.01.65,18.01-.87,27,.06,23.02.17,46.02-.25,69.03.01,8.33-.19,16.73.57,25.02-.67,3.87-.43,7.68-3.62,7.54-7.76.3-10.98-.17-21.97.2-32.95.5-4.32.05-8.65-.16-12.97.01-47.34-.02-94.67.02-142.01-.22-14.02.76-28.02-.02-42.03-.35-4.41,1.17-9.32-1.41-13.27l.02-.93c-1.55-1.94-3.42-4.13-6.19-3.82-45.7.02-91.41-.11-137.11.05-3.98-.32-5.62,3.76-6.48,6.89h0Z"/>
  </g>
  <g id="_x23_4487ddff">
    <path class="st19" d="M45.72,134.79c1.58-1.96,3.45-4.16,6.27-3.84,45.67-.14,91.36.05,137.03-.08,2.64.05,5.25,1.95,5.69,4.63.02.63.05,1.9.06,2.53-49.56.12-99.13.08-148.69.03-.09-.82-.27-2.45-.36-3.27Z"/>
    <path class="st19" d="M89.51,156.23c1.86-1.37,4.34-.8,6.49-.95,4.89.21,9.79-.25,14.67.17,2.89,1.2,1.5,5.09,1.89,7.52-.42,2.89.97,6.82-1.59,8.91-7.05.25-14.13.26-21.19.16-.8-5.22-.7-10.56-.27-15.81h0Z"/>
    <path class="st19" d="M115.88,161.3c4.43.24,8.96-.41,13.32.55,4.26,1.24,5.44,6.04,5.52,9.94.99,0,2.97.05,3.97.07-1.97,2.7-4.52,5.35-4.31,8.95.02,3.47-2.17,7.01-5.69,7.77-6.21.61-12.48-.23-18.69.39-3.03.04-2.79,3.96-2.89,6.11.26,3.55-.73,7.54,1.06,10.79,2.52,1.3,5.45.67,8.15.52-.03-1.04-.09-3.1-.11-4.13,3.04,2.17,6.04,4.4,8.98,6.71-2.76,2.52-5.73,4.83-8.85,6.89-.09-1.54-.17-3.07-.26-4.6-2.38,0-4.78.12-7.16-.19-3.35-.55-6.1-3.64-6.09-7.07-.15-4.32-.15-8.65.09-12.96.16-3.28,2.81-6.39,6.13-6.74,6.31-.57,12.68.48,18.97-.35,2.27-1.04,2.18-3.98,1.93-6.06-.9-2.27-2.59-4.1-3.9-6.12,1.02.02,3.07.06,4.09.08-.34-1.94.06-4.84-2.34-5.56-4.02-.62-8.1-.17-12.15-.29.07-1.57.14-3.14.23-4.7Z"/>
    <path class="st19" d="M129.13,201.21c2.55-.78,5.29-.4,7.92-.47,4.6.16,9.24-.31,13.81.34,1.42,4.6.5,9.68.53,14.45.06,2.35-2.79,1.84-4.36,1.98-5.66-.19-11.33.2-16.98-.18-.33-.29-.98-.86-1.31-1.15-.63-4.53-.3-9.22-.33-13.8.18-.29.54-.88.72-1.17Z"/>
  </g>
  <g id="_x23_16bfeaff">
    <path class="st0" d="M211.03,134.39c1.23-2.74,4.22-3.71,7.02-3.48,45,.02,89.99,0,134.98,0,2.72-.25,5.12,1.33,6.38,3.67.05.9.16,2.7.21,3.6-49.64.14-99.28.04-148.92.04.08-1.28.18-2.57.33-3.84h0Z"/>
    <path class="st0" d="M257.47,155.52c7.8.14,15.62-.26,23.41.24.03,2.99.06,5.99.1,8.99,2.75,0,5.5,0,8.26.04.11-3.02-.19-6.1.45-9.07,6.76-.47,13.56-.07,20.33-.21.97.14,3.17-.21,2.83,1.48.25,7.28.03,14.57,0,21.86-3.19.03-6.38.1-9.56.3-.04,2.02-.07,4.05-.1,6.08,1.62.04,3.24.07,4.87.11-2.35,2.35-4.7,4.72-7.06,7.06-2.29-2.41-4.62-4.78-6.99-7.12,1.61,0,3.22,0,4.84-.02-.12-2.07-.23-4.14-.35-6.21-3.05-.1-6.11-.15-9.16-.23-.03-3.1-.03-6.2,0-9.3-2.77-.04-5.54-.07-8.31-.1-.09,3.12-.16,6.24-.29,9.36-7.79.37-15.6.14-23.4.05.02-7.77-.19-15.55.12-23.31h.01Z"/>
    <path class="st0" d="M262.64,187.68c1.95-2.39,3.81-4.92,6.3-6.77,2.81,1.78,4.79,4.57,7.21,6.81-1.54-.03-3.08-.05-4.62-.07-.07,1.99-.13,3.98-.2,5.98,3.04.14,6.09.15,9.14.09.53,3.22.54,6.49.49,9.75,1.42-1.17,2.84-2.33,4.27-3.48.02,3.48,0,6.97-.04,10.46-1.42-.93-2.83-1.86-4.24-2.77-.02,3.16-.03,6.32-.07,9.48-7.82.5-15.73.54-23.55-.03.12-7.83-.29-15.67.24-23.48,3.08.02,6.17.02,9.25,0-.05-2.11-.09-4.22-.16-6.32-1,.09-3.01.27-4.02.36h0Z"/>
    <path class="st0" d="M289.33,193.93c7.83-.37,15.68-.44,23.51-.1.17,7.79.07,15.57.04,23.36-7.25.52-14.55.3-21.81.11-1.87.3-1.65-2.08-1.75-3.27-.05-6.7.04-13.4,0-20.1h0Z"/>
  </g>
  <g id="_x23_9058cfff">
    <path class="st15" d="M375.65,134.68c1.14-2.41,3.67-4.01,6.37-3.76,41.31-.03,82.63,0,123.94,0,5.24.13,10.54-.47,15.74.45,1,1.25,1.91,2.56,2.78,3.92-.39,1.14-.84,2.27-1.31,3.38-5.03-.84-10.14-.55-15.21-.57-44.19-.02-88.39.1-132.59-.04.07-.84.21-2.53.28-3.38h0Z"/>
    <path class="st15" d="M446.72,152.83c3.5,2.38,6.83,5.03,9.81,8.05-3.34,2.48-6.66,5-9.9,7.61,0-1.8,0-3.59-.01-5.38-4.61.93-9.26,2.52-12.66,5.91-2.85,2.39-4.33,5.85-6.42,8.82-1.44.33-2.85-1.01-4.23-1.38,3.6-9.81,12.72-17.01,23.1-18.24.1-1.8.19-3.6.31-5.39h0Z"/>
    <path class="st15" d="M460.31,159.68c10.07,3.71,16.99,13.41,18.3,23.92,1.85,0,3.68.02,5.55.05-2.42,3.41-5.11,6.61-7.76,9.84-2.98-2.98-5.44-6.41-7.98-9.75,1.81-.04,3.63-.07,5.45-.12-1.13-4.27-2.39-8.69-5.33-12.11-2.72-3.47-6.57-5.73-10.39-7.77.72-1.35,1.43-2.71,2.16-4.06h0Z"/>
    <path class="st15" d="M416.01,190.18c2.43-3.6,5.21-6.93,7.97-10.29,2.72,3.33,5.39,6.72,7.92,10.21-1.83,0-3.66-.02-5.48-.03,1.15,5.26,3.25,10.48,7.26,14.22,2.28,2.5,5.51,3.69,8.24,5.59-.33,1.49-.81,2.94-1.24,4.41-10.39-3.5-17.87-13.42-19.04-24.22-1.88.03-3.76.07-5.63.11h0Z"/>
    <path class="st15" d="M453.8,210.57c8.51-1.16,15.8-7.32,18.64-15.38,1.53.63,3.09,1.26,4.64,1.9-3.7,9.71-12.7,17.16-23.13,18.28-.08,1.84-.14,3.68-.19,5.52-3.32-2.53-6.66-5.02-10.04-7.46,3.01-3.18,6.65-5.62,10.07-8.32v5.46h0Z"/>
  </g>
  <g id="_x23_e6e5e6ff">
    <path class="st20" d="M521.7,131.37c4.6.37,5.14,6.09,5.08,9.68-.15,27.33.26,54.65-.01,81.97.7,20.33.31,40.63.22,60.96-.53,9.6-.84,19.23-.32,28.83.67,4.72-.28,9.44-.23,14.18.17,16.33-.06,32.67.06,49-.12,3.45-.72,8.13-4.59,9.31,1.24-2.25,2.31-4.63,2.69-7.19-.78-9.02-.31-18.08-.43-27.11-.09-68.34.11-136.68-.02-205.01.06-2.05.35-4.07.62-6.1.07-1.53.35-3.15-.29-4.6-.87-1.36-1.78-2.67-2.78-3.92h0Z"/>
  </g>
  <g id="_x23_f4931aff">
    <path class="st18" d="M540.82,133.88c1.49-2.53,4.48-3.24,7.23-3.09,43.01.02,86.02,0,129.03,0,3.56.08,7.44-.6,10.62,1.42.95,1.88,1.61,3.91,1.68,6.03-49.74.18-99.49.11-149.24.05.21-1.48.43-2.95.68-4.42h0Z"/>
    <path class="st18" d="M600.64,154.52c9.42-.42,19.19-.54,28.16,2.78,1.88.88,4.6,2.19,4.05,4.74-.82,2.54-2.9,4.38-4.48,6.45-4.23,4.79-7.81,10.1-12,14.93-4.56,4.23-1.86,10.98-2.6,16.42-4.01,2.14-7.88,4.54-12.01,6.43-.79-6.65-.23-13.36-.42-20.04-6.12-7.4-12.08-14.96-17.94-22.57-1.7-1.67-.99-4.18.92-5.28,4.91-2.87,10.79-3.21,16.32-3.86M586.51,161.25c5.79,3.47,12.91,3.05,19.42,3.49,7.84-.09,16.21.17,23.42-3.38-7.07-2.93-14.81-3.15-22.34-3.2-6.91.15-13.98.56-20.5,3.09h0Z"/>
    <path class="st18" d="M641.65,184.55h5.77c.09,11.01-.05,22.03.07,33.04-1.97,0-3.93-.02-5.89-.04.11-11,.03-22.01.05-33.01h0Z"/>
    <path class="st18" d="M632.45,193.2c1.76-.71,3.84-.27,5.73-.43-.08,8.31.1,16.62-.1,24.93-1.97-.04-3.92-.06-5.87-.09,0-8.13-.02-16.28.24-24.41h0Z"/>
    <path class="st18" d="M622.78,200.53c2,0,4.01.03,6.02.05,0,5.69.01,11.37-.01,17.06h-5.58c.17-5.72-.43-11.41-.43-17.11Z"/>
    <path class="st18" d="M613.7,207.71c1.89-.03,3.78-.07,5.68-.1.05,3.31.1,6.63.17,9.94-2,.03-3.98.04-5.97.03.06-3.29.09-6.58.12-9.87Z"/>
  </g>
  <g id="_x23_50aa5aff">
    <path class="st12" d="M704.43,137.87c.86-3.13,2.5-7.21,6.48-6.89,45.7-.16,91.41-.03,137.11-.05,2.77-.31,4.64,1.88,6.19,3.82l-.02.93c-.01.62-.03,1.86-.04,2.48-43.06.03-86.12,0-129.18,0-6.85-.1-13.71.29-20.54-.3h0Z"/>
    <path class="st12" d="M748.96,155.61c5.87-.41,11.76-.07,17.64-.22,0,1.71,0,3.43.01,5.15-2.89,0-5.77,0-8.65,0,6.1,5.98,12.01,12.15,18.17,18.06-1.23,1.27-2.48,2.53-3.73,3.77-5.93-6.17-11.96-12.24-18.2-18.1-.04,2.94-.04,5.88-.03,8.83-1.73,0-3.45-.02-5.16-.03-.03-5.83.02-11.65-.05-17.47h0Z"/>
    <path class="st12" d="M793.1,155.34c5.81.2,11.63-.2,17.43.29-.06,5.84-.05,11.67-.05,17.51-1.7-.05-3.37-.1-5.04-.15.02-2.96-.02-5.91-.14-8.86-5.95,6.19-11.94,12.36-18.26,18.17-1.2-1.17-2.39-2.35-3.58-3.52,5.88-6.11,12.13-11.87,17.8-18.18-2.78-.05-5.56-.06-8.33-.07.04-1.74.1-3.46.17-5.19h0Z"/>
    <path class="st12" d="M801.14,186.1c3.14-.24,6.29-.53,9.43-.82-.06,3.33-.08,6.66-.11,9.99-1.19-.95-2.38-1.91-3.55-2.87-4.32,4.29-8.61,8.61-12.9,12.93-1.86-1.81-3.69-3.64-5.49-5.49-2.87,2.86-5.68,5.78-8.57,8.61-.87-.89-1.73-1.78-2.58-2.66,3.85-3.59,7.07-7.81,11.16-11.14,1.77,1.81,3.57,3.59,5.38,5.37,3.34-3.77,7.07-7.15,10.46-10.87-1.09-1.02-2.16-2.04-3.23-3.05Z"/>
    <path class="st12" d="M772.48,190.1c1.2,1.22,2.41,2.44,3.62,3.67-6.04,6-12.13,11.97-17.98,18.17,2.84.02,5.69.04,8.54.08-.1,1.72-.16,3.45-.24,5.19-5.65-.11-11.29-.09-16.93.02-.98-5.88-.35-11.87-.41-17.8,1.63.02,3.26.03,4.91.05.08,2.95.14,5.91.19,8.87,6.28-5.91,12-12.37,18.3-18.25Z"/>
    <path class="st12" d="M800.45,203.28c1.55-2.83,4.36-4.78,6.54-7.13.06,7.08-.03,14.15-.1,21.23-2.19.07-4.37.11-6.54.16.06-4.75-.29-9.52.1-14.26Z"/>
    <path class="st12" d="M781.72,210.75c1.71-2.3,3.92-4.17,5.96-6.18.01,4.34.04,8.67-.09,13.01-2.24-.08-4.46-.14-6.68-.23.26-2.19-.04-4.54.81-6.6Z"/>
    <path class="st12" d="M790.56,206.01c1.21.97,2.39,1.94,3.62,2.92,1.08-1.05,2.17-2.09,3.28-3.13.05,3.88.06,7.76-.01,11.63-2.28.04-4.55.05-6.81.07-.19-3.83-.19-7.66-.08-11.49Z"/>
  </g>
  <g id="_x23_e8e8e8ff">
    <path class="st22" d="M687.7,132.22c3.94,1.41,3.91,6.27,4.46,9.72.2,6.35.25,12.72-.26,19.05-.58,9.01,1.04,18.01.06,27.01-.17,11.99.08,24,.11,35.99-.66,9.01.03,18.04.08,27.06-.5,16.31.45,32.61-.16,48.92.43,14.32-.47,28.65.06,42.98-.49,6.34.57,12.68-.15,19.01-.48,6.3.96,12.67-.31,18.92-.99,3.82-4.46,7.03-8.6,6.57-40.98.08-81.96-.01-122.94.04-4.2-.09-8.67.71-12.55-1.33,2.14-.49,4.32-.77,6.53-.8,38.98.18,77.97-.02,116.95.11,4.66-.07,9.59.58,14-1.34-.12-.45-.36-1.36-.48-1.81,2.96-1.73,5.09-4.69,4.66-8.27-.06-57.01.02-114.02-.02-171.04.15-21.58-.25-43.18.24-64.76-.07-2.12-.73-4.15-1.68-6.03h0Z"/>
  </g>
  <g id="_x23_dcdbdaff">
    <path class="st21" d="M208.66,143.96c0-3.34,1.1-6.53,2.37-9.57-.15,1.27-.25,2.56-.33,3.84-.36,76.59.02,153.19-.16,229.78,0,3.29-.27,6.64.44,9.89.89,2.4,3.35,3.74,5.48,4.92,3.82,2.2,8.34,1.48,12.54,1.54,39.68,0,79.36.03,119.03,0,2-.05,3.93-.64,5.78-1.38,2.96-1.68,6.15-4.18,5.83-7.99-.05-78.93.08-157.87-.02-236.8-.05-.9-.16-2.7-.21-3.6,1.15,2.13,2.41,4.35,2.6,6.82-.15,2.54-.64,5.06-.62,7.62.12,75.64.08,151.28.05,226.92.09,3.74-1.42,7.79-4.8,9.7-4.22,2.08-9.08,1.69-13.65,1.72-41.31-.03-82.64.02-123.95-.01-4.42-.4-9.77-3.37-9.89-8.35-.8-5.31-.48-10.69-.5-16.03-.04-43.34-.02-86.68.02-130.01.41-6.67-.38-13.36.5-20,.99-8.32-1.38-16.62-.25-24.94,1.15-7.68-1.03-15.39.1-23.08.13-6.99-.26-13.99-.36-20.99h0Z"/>
    <path class="st21" d="M538.56,141.97c-.01-1.34.38-2.56,1.19-3.64.73,5.53.71,11.1.63,16.67-.01,70,.06,140-.02,210,.09,4.31-.56,8.75.58,12.96,1.06,3.36,4.68,4.86,7.98,4.59,45.19-.31,90.39.24,135.58-.23.12.45.36,1.36.48,1.81-4.41,1.92-9.34,1.27-14,1.34-38.98-.13-77.97.07-116.95-.11-2.21.03-4.39.31-6.53.8-.44.1-1.3.3-1.73.4-4.67-1.21-7.1-6.02-7.21-10.55-.14-78.01.06-156.03,0-234.04h0Z"/>
  </g>
  <g id="_x23_fff2e3ff">
    <path class="st14" d="M539.75,138.33c-.26-1.59.31-3.09,1.07-4.45-.25,1.47-.47,2.94-.68,4.42,49.75.06,99.5.13,149.24-.05-.49,21.58-.09,43.18-.24,64.76.04,57.02-.04,114.03.02,171.04.43,3.58-1.7,6.54-4.66,8.27-45.19.47-90.39-.08-135.58.23-3.3.27-6.92-1.23-7.98-4.59-1.14-4.21-.49-8.65-.58-12.96.08-70,.01-140,.02-210,.08-5.57.1-11.14-.63-16.67M600.64,154.52c-5.53.65-11.41.99-16.32,3.86-1.91,1.1-2.62,3.61-.92,5.28,5.86,7.61,11.82,15.17,17.94,22.57.19,6.68-.37,13.39.42,20.04,4.13-1.89,8-4.29,12.01-6.43.74-5.44-1.96-12.19,2.6-16.42,4.19-4.83,7.77-10.14,12-14.93,1.58-2.07,3.66-3.91,4.48-6.45.55-2.55-2.17-3.86-4.05-4.74-8.97-3.32-18.74-3.2-28.16-2.78M641.65,184.55c-.02,11,.06,22.01-.05,33.01,1.96.02,3.92.04,5.89.04-.12-11.01.02-22.03-.07-33.04h-5.77M632.45,193.2c-.26,8.13-.23,16.28-.24,24.41,1.95.03,3.9.05,5.87.09.2-8.31.02-16.62.1-24.93-1.89.16-3.97-.28-5.73.43M622.78,200.53c0,5.7.6,11.39.43,17.11h5.58c.02-5.69.01-11.37.01-17.06-2.01-.02-4.02-.04-6.02-.05M613.7,207.71c-.03,3.29-.06,6.58-.12,9.87,1.99,0,3.97,0,5.97-.03-.07-3.31-.12-6.63-.17-9.94-1.9.03-3.79.07-5.68.1Z"/>
  </g>
  <g id="_x23_d1d3d2ff">
    <path class="st23" d="M44.54,148.97c-.1-4.75-.21-9.58,1.18-14.18.09.82.27,2.45.36,3.27,49.56.05,99.13.09,148.69-.03v.8c-49.67,0-99.36-.11-149.03.07-.34,78.03.09,156.06-.16,234.08-.19,3.48.86,7.62,4.47,8.98,3.88,1.11,8.01.51,12,.61,36.29-.06,72.58,0,108.88-.04,6.34.04,12.7-.18,19.03.25l-1.45,1.45c-10.56,1.27-21.25-.29-31.84.75-5.12.59-10.28.46-15.41.97-2.09-.04-4.19-.09-6.26.32-.49-.15-1.48-.44-1.98-.59-.5.15-1.49.46-1.99.61-4.7-.44-9.41.04-14.1.28-5.29-.72-10.61-.38-15.92-.21-5.01.63-10.02-.61-15.02.11-6.32.7-12.62-.95-18.93-.27-4.03-.06-8.07-.78-12.07-.01-3.52.8-6.98-1.58-8.81-4.43-2.36-3.45-1.55-7.82-1.66-11.74.02-73.68.03-147.36.02-221.05h0Z"/>
  </g>
  <g id="_x23_d8d9d8ff">
    <path class="st16" d="M373.9,162.07c-.14-9.12-1.3-18.58,1.75-27.39-.07.85-.21,2.54-.28,3.38,44.2.14,88.4.02,132.59.04,5.07.02,10.18-.27,15.21.57.47-1.11.92-2.24,1.31-3.38.64,1.45.36,3.07.29,4.6-4.15-1.25-8.5-1.16-12.78-1.02-45.43.1-90.86-.07-136.28.11-.49,26.33-.05,52.67-.2,79,.02,51.68.04,103.37-.04,155.05.07,2.54.07,5.49,2.15,7.33,1.86,2.01,4.78,2.12,7.34,2.18,41.01-.08,82.02-.08,123.04-.04,3.51-.02,7.05.22,10.54-.25,2.58-.31,4.24-2.54,6.06-4.14-.38,2.56-1.45,4.94-2.69,7.19-5.65,3.4-12.63,1.61-18.88,2.09-10.33-.63-20.68-.17-31.01-.53-8,.74-16.06.67-24.06.09-9.32.48-18.68.74-27.99-.05-4.32.17-8.62.45-12.93-.02-8.03.54-16.12.75-24.16.24-4.7-.13-8.65-4.45-8.8-9.07-.76-7.66-.39-15.38-.37-23.06,1.05-7.34-.66-14.69.07-22.05.04-9.33-.48-18.67-.05-28.01-.05-17.65-.28-35.3.15-52.95-.47-16.32-.33-32.66.33-48.98-.89-13.62-.63-27.29-.31-40.93h0Z"/>
    <path class="st16" d="M854.19,135.68c2.58,3.95,1.06,8.86,1.41,13.27.78,14.01-.2,28.01.02,42.03-.04,47.34-.01,94.67-.02,142.01.21,4.32.66,8.65.16,12.97-.37,10.98.1,21.97-.2,32.95.14,4.14-3.67,7.33-7.54,7.76-8.29,1.24-16.69.48-25.02.67-23.01-.26-46.01.16-69.03-.01-8.99-.93-17.99.59-27-.06-6.65-.63-13.9,1.27-19.97-2.3-1.83-1.87-3.38-4.3-3.51-6.98-.15-77.32.01-154.65-.04-231.97.06-2.72-.46-5.68.98-8.15.7,17.71.06,35.44.29,53.16,0,58.32.15,116.63-.02,174.95.18,4.68-.79,10.04,2.21,14.05,1.86,2.46,5.27,2.41,8.06,2.53,40.01-.08,80.02-.04,120.03-.03,4.74-.1,9.55.46,14.25-.35,3.97-1.04,5.42-5.47,5.16-9.17-.24-78.28.18-156.57-.26-234.85,0-.62.03-1.86.04-2.48h0Z"/>
  </g>
  <g id="_x23_ecececff">
    <path class="st17" d="M194.71,135.5c4.44,3.06,2.84,8.93,3.14,13.49-.25,16.68.22,33.37-.43,50.04-.08,59.69.12,119.37-.04,179.06.51,4.05-3.34,6.48-6.53,7.92-2.09,1.02-4.43,1-6.69.95-2.73-.08-5.45.52-8.17.18-8.06-1.03-16.14,1.28-24.18-.1-3.5-.76-7.78,1.87-10.55-1.09,5.13-.51,10.29-.38,15.41-.97,10.59-1.04,21.28.52,31.84-.75l1.45-1.45c1.85-2.04,4.43-3.94,4.58-6.92.52-5.28.03-10.58.13-15.86.07-73.72-.13-147.45.1-221.17v-.8c0-.63-.04-1.9-.06-2.53h0Z"/>
  </g>
  <g id="_x23_e8f9feff">
    <path class="st1" d="M210.7,138.23c49.64,0,99.28.1,148.92-.04.1,78.93-.03,157.87.02,236.8.32,3.81-2.87,6.31-5.83,7.99-16.6-.84-33.24-.16-49.86-.38-29.16.13-58.33-.32-87.49.22-2.13-1.18-4.59-2.52-5.48-4.92-.71-3.25-.44-6.6-.44-9.89.18-76.59-.2-153.19.16-229.78M257.47,155.52c-.31,7.76-.1,15.54-.12,23.31,7.8.09,15.61.32,23.4-.05.13-3.12.2-6.24.29-9.36,2.77.03,5.54.06,8.31.1-.03,3.1-.03,6.2,0,9.3,3.05.08,6.11.13,9.16.23.12,2.07.23,4.14.35,6.21-1.62,0-3.23.02-4.84.02,2.37,2.34,4.7,4.71,6.99,7.12,2.36-2.34,4.71-4.71,7.06-7.06-1.63-.04-3.25-.07-4.87-.11.03-2.03.06-4.06.1-6.08,3.18-.2,6.37-.27,9.56-.3.02-7.29.24-14.58,0-21.86.34-1.69-1.86-1.34-2.83-1.48-6.77.14-13.57-.26-20.33.21-.64,2.97-.34,6.05-.45,9.07-2.76-.03-5.51-.05-8.26-.04-.04-3-.07-6-.1-8.99-7.79-.5-15.61-.1-23.41-.24M262.64,187.68c1.01-.09,3.02-.27,4.02-.36.07,2.1.11,4.21.16,6.32-3.08.03-6.17.03-9.25,0-.53,7.81-.12,15.65-.24,23.48,7.82.57,15.73.53,23.55.03.04-3.16.05-6.32.07-9.48,1.41.91,2.82,1.84,4.24,2.77.04-3.49.06-6.98.04-10.46-1.43,1.15-2.85,2.31-4.27,3.48.05-3.26.04-6.53-.49-9.75-3.05.06-6.1.05-9.14-.09.07-2,.13-3.99.2-5.98,1.54.02,3.08.04,4.62.07-2.42-2.24-4.4-5.03-7.21-6.81-2.49,1.85-4.35,4.38-6.3,6.77M289.33,193.93c.03,6.7-.06,13.4,0,20.1.1,1.19-.12,3.57,1.75,3.27,7.26.19,14.56.41,21.81-.11.03-7.79.13-15.57-.04-23.36-7.83-.34-15.68-.27-23.51.1h0Z"/>
  </g>
  <g id="_x23_edf9eeff">
    <path class="st13" d="M704.43,137.87c6.83.59,13.69.2,20.54.3,43.06,0,86.12.02,129.18,0,.44,78.28.02,156.57.26,234.85.26,3.7-1.19,8.13-5.16,9.17-4.7.81-9.51.25-14.25.35-40.01-.01-80.02-.05-120.03.03-2.79-.12-6.2-.07-8.06-2.53-3-4.01-2.03-9.37-2.21-14.05.17-58.32.01-116.63.02-174.95-.23-17.72.41-35.45-.29-53.16M748.96,155.61c.07,5.82.02,11.64.05,17.47,1.71,0,3.43.02,5.16.03-.01-2.95-.01-5.89.03-8.83,6.24,5.86,12.27,11.93,18.2,18.1,1.25-1.24,2.5-2.5,3.73-3.77-6.16-5.91-12.07-12.08-18.17-18.06,2.88,0,5.76,0,8.65,0-.02-1.72-.02-3.44-.01-5.15-5.88.15-11.77-.19-17.64.22M793.1,155.34c-.07,1.73-.13,3.45-.17,5.19,2.77,0,5.55.02,8.33.07-5.67,6.31-11.92,12.07-17.8,18.18,1.19,1.17,2.38,2.35,3.58,3.52,6.32-5.81,12.31-11.98,18.26-18.17.12,2.95.16,5.9.14,8.86,1.67.05,3.34.1,5.04.15,0-5.84-.01-11.67.05-17.51-5.8-.49-11.62-.09-17.43-.29M801.14,186.1c1.07,1.01,2.14,2.03,3.23,3.05-3.39,3.72-7.12,7.1-10.46,10.87-1.81-1.78-3.61-3.56-5.38-5.37-4.09,3.33-7.31,7.55-11.16,11.14.85.88,1.71,1.77,2.58,2.66,2.89-2.83,5.7-5.75,8.57-8.61,1.8,1.85,3.63,3.68,5.49,5.49,4.29-4.32,8.58-8.64,12.9-12.93,1.17.96,2.36,1.92,3.55,2.87.03-3.33.05-6.66.11-9.99-3.14.29-6.29.58-9.43.82M772.48,190.1c-6.3,5.88-12.02,12.34-18.3,18.25-.05-2.96-.11-5.92-.19-8.87-1.65-.02-3.28-.03-4.91-.05.06,5.93-.57,11.92.41,17.8,5.64-.11,11.28-.13,16.93-.02.08-1.74.14-3.47.24-5.19-2.85-.04-5.7-.06-8.54-.08,5.85-6.2,11.94-12.17,17.98-18.17-1.21-1.23-2.42-2.45-3.62-3.67M800.45,203.28c-.39,4.74-.04,9.51-.1,14.26,2.17-.05,4.35-.09,6.54-.16.07-7.08.16-14.15.1-21.23-2.18,2.35-4.99,4.3-6.54,7.13M781.72,210.75c-.85,2.06-.55,4.41-.81,6.6,2.22.09,4.44.15,6.68.23.13-4.34.1-8.67.09-13.01-2.04,2.01-4.25,3.88-5.96,6.18M790.56,206.01c-.11,3.83-.11,7.66.08,11.49,2.26-.02,4.53-.03,6.81-.07.07-3.87.06-7.75.01-11.63-1.11,1.04-2.2,2.08-3.28,3.13-1.23-.98-2.41-1.95-3.62-2.92Z"/>
  </g>
  <g id="_x23_e9f2fcff">
    <path class="st9" d="M45.74,138.9c49.67-.18,99.36-.07,149.03-.07-.23,73.72-.03,147.45-.1,221.17-.1,5.28.39,10.58-.13,15.86-.15,2.98-2.73,4.88-4.58,6.92-6.33-.43-12.69-.21-19.03-.25-36.3.05-72.59-.02-108.88.04-3.99-.1-8.12.5-12-.61-3.61-1.36-4.66-5.5-4.47-8.98.25-78.02-.18-156.05.16-234.08M89.51,156.23c-.43,5.25-.53,10.59.27,15.81,7.06.1,14.14.09,21.19-.16,2.56-2.09,1.17-6.02,1.59-8.91-.39-2.43,1-6.32-1.89-7.52-4.88-.42-9.78.04-14.67-.17-2.15.15-4.63-.42-6.49.95M115.88,161.3c-.09,1.56-.16,3.13-.23,4.7,4.05.12,8.13-.33,12.15.29,2.4.72,2,3.62,2.34,5.56-1.02-.02-3.07-.06-4.09-.08,1.31,2.02,3,3.85,3.9,6.12.25,2.08.34,5.02-1.93,6.06-6.29.83-12.66-.22-18.97.35-3.32.35-5.97,3.46-6.13,6.74-.24,4.31-.24,8.64-.09,12.96-.01,3.43,2.74,6.52,6.09,7.07,2.38.31,4.78.2,7.16.19.09,1.53.17,3.06.26,4.6,3.12-2.06,6.09-4.37,8.85-6.89-2.94-2.31-5.94-4.54-8.98-6.71.02,1.03.08,3.09.11,4.13-2.7.15-5.63.78-8.15-.52-1.79-3.25-.8-7.24-1.06-10.79.1-2.15-.14-6.07,2.89-6.11,6.21-.62,12.48.22,18.69-.39,3.52-.76,5.71-4.3,5.69-7.77-.21-3.6,2.34-6.25,4.31-8.95-1-.02-2.98-.06-3.97-.07-.08-3.9-1.26-8.7-5.52-9.94-4.36-.96-8.89-.31-13.32-.55M129.13,201.21c-.18.29-.54.88-.72,1.17.03,4.58-.3,9.27.33,13.8.33.29.98.86,1.31,1.15,5.65.38,11.32,0,16.98.18,1.57-.14,4.42.37,4.36-1.98-.03-4.77.89-9.85-.53-14.45-4.57-.65-9.21-.18-13.81-.34-2.63.07-5.37-.31-7.92.47Z"/>
  </g>
  <g id="_x23_f4eefcff">
    <path class="st10" d="M375.71,138.98c45.42-.18,90.85,0,136.28-.11,4.28-.14,8.63-.23,12.78,1.02-.27,2.03-.56,4.05-.62,6.1.13,68.33-.07,136.67.02,205.01.12,9.03-.35,18.09.43,27.11-1.82,1.6-3.48,3.83-6.06,4.14-3.49.47-7.03.23-10.54.25-41.02-.04-82.03-.04-123.04.04-2.56-.06-5.48-.17-7.34-2.18-2.08-1.84-2.08-4.79-2.15-7.33.08-51.68.06-103.37.04-155.05.15-26.33-.29-52.67.2-79M446.72,152.83c-.12,1.79-.21,3.59-.31,5.39-10.38,1.23-19.5,8.43-23.1,18.24,1.38.37,2.79,1.71,4.23,1.38,2.09-2.97,3.57-6.43,6.42-8.82,3.4-3.39,8.05-4.98,12.66-5.91.01,1.79.01,3.58.01,5.38,3.24-2.61,6.56-5.13,9.9-7.61-2.98-3.02-6.31-5.67-9.81-8.05M460.31,159.68c-.73,1.35-1.44,2.71-2.16,4.06,3.82,2.04,7.67,4.3,10.39,7.77,2.94,3.42,4.2,7.84,5.33,12.11-1.82.05-3.64.08-5.45.12,2.54,3.34,5,6.77,7.98,9.75,2.65-3.23,5.34-6.43,7.76-9.84-1.87-.03-3.7-.04-5.55-.05-1.31-10.51-8.23-20.21-18.3-23.92M416.01,190.18c1.87-.04,3.75-.08,5.63-.11,1.17,10.8,8.65,20.72,19.04,24.22.43-1.47.91-2.92,1.24-4.41-2.73-1.9-5.96-3.09-8.24-5.59-4.01-3.74-6.11-8.96-7.26-14.22,1.82,0,3.65.02,5.48.03-2.53-3.49-5.2-6.88-7.92-10.21-2.76,3.36-5.54,6.69-7.97,10.29M453.8,210.57v-5.46c-3.42,2.7-7.06,5.14-10.07,8.32,3.38,2.44,6.72,4.93,10.04,7.46.05-1.84.11-3.68.19-5.52,10.43-1.12,19.43-8.57,23.13-18.28-1.55-.64-3.11-1.27-4.64-1.9-2.84,8.06-10.13,14.22-18.64,15.38h-.01Z"/>
  </g>
  <g id="_x23_fef1e2ff">
    <path class="st11" d="M586.51,161.25c6.52-2.53,13.59-2.94,20.5-3.09,7.53.05,15.27.27,22.34,3.2-7.21,3.55-15.58,3.29-23.42,3.38-6.51-.44-13.63-.02-19.42-3.49h0Z"/>
  </g>
  <g id="_x23_c5c9c7ff">
    <path class="st2" d="M216.46,382.82c29.16-.54,58.33-.09,87.49-.22,16.62.22,33.26-.46,49.86.38-1.85.74-3.78,1.33-5.78,1.38-39.67.03-79.35,0-119.03,0-4.2-.06-8.72.66-12.54-1.54Z"/>
  </g>
  <g class="st5">
    <g class="st5">
      <g class="st5">
        <text class="st3" transform="translate(405.28 250.78)"><tspan x="0" y="0">Validation </tspan><tspan x="24.01" y="22.8">Loop</tspan></text>
      </g>
    </g>
  </g>
  <g class="st5">
    <g class="st5">
      <g class="st5">
        <text class="st3" transform="translate(255.58 253.91)"><tspan x="0" y="0">Stage </tspan></text>
        <text class="st3" transform="translate(216.8 276.71)"><tspan x="0" y="0">Interpretability</tspan></text>
      </g>
    </g>
  </g>
  <g class="st5">
    <g class="st5">
      <g class="st5">
        <text class="st3" transform="translate(76.26 255.93)"><tspan x="0" y="0">End-to-end </tspan></text>
        <text class="st3" transform="translate(91.84 278.73)"><tspan x="0" y="0">Pipeline</tspan></text>
      </g>
    </g>
  </g>
  <g class="st5">
    <g class="st5">
      <g class="st5">
        <text class="st6" transform="translate(112.78 71.82)"><tspan x="0" y="0">Mini-C4 Engineering Methodology Summary</tspan></text>
      </g>
    </g>
  </g>
  <g class="st5">
    <g class="st5">
      <g class="st5">
        <text class="st4" transform="translate(187.48 437.31)"><tspan x="0" y="0">Build → Understand → Validate → Measure → Scale</tspan></text>
      </g>
    </g>
  </g>
  <g class="st5">
    <g class="st5">
      <g class="st5">
        <text class="st3" transform="translate(579.66 249.66)"><tspan x="0" y="0">Metrics &amp; </tspan><tspan x="15.27" y="22.8">Funnel</tspan></text>
      </g>
    </g>
  </g>
  <g class="st5">
    <g class="st5">
      <g class="st5">
        <text class="st3" transform="translate(739.7 255.1)"><tspan x="0" y="0">Scale After</tspan><tspan x="0" y="22.8" xml:space="preserve"> Validity</tspan></text>
      </g>
    </g>
  </g>
  <g class="st5">
    <g class="st5">
      <g class="st5">
        <text class="st7" transform="translate(74.69 318.43)"><tspan x="0" y="0">Run the full</tspan></text>
        <text class="st7" transform="translate(59.82 338.83)"><tspan x="0" y="0" xml:space="preserve"> pipeline within </tspan></text>
        <text class="st7" transform="translate(59.36 359.23)"><tspan x="0" y="0">controlled scope</tspan></text>
      </g>
    </g>
  </g>
  <g class="st5">
    <g class="st5">
      <g class="st5">
        <text class="st7" transform="translate(232.32 313.76)"><tspan x="0" y="0">Each stage has</tspan><tspan x="4.24" y="20.4" xml:space="preserve"> clear inputs, </tspan><tspan x="-10.64" y="40.8">outputs, and logic</tspan></text>
      </g>
    </g>
  </g>
  <g class="st5">
    <g class="st5">
      <g class="st5">
        <text class="st7" transform="translate(383.66 309.14)"><tspan x="0" y="0">Ensure consistency </tspan><tspan x="5.44" y="20.4">across code, data, </tspan><tspan x="29.51" y="40.8">and reports</tspan></text>
      </g>
    </g>
  </g>
  <g class="st5">
    <g class="st5">
      <g class="st5">
        <text class="st7" transform="translate(556.36 308.69)"><tspan x="0" y="0">Observe system </tspan><tspan x="-12.03" y="20.4">behavior via funnel </tspan><tspan x="16.77" y="40.8">and metrics</tspan></text>
      </g>
    </g>
  </g>
  <g class="st5">
    <g class="st5">
      <g class="st5">
        <text class="st7" transform="translate(730.57 315.44)"><tspan x="0" y="0">Scale only after</tspan><tspan x="5.41" y="20.4" xml:space="preserve"> the method is</tspan><tspan x="27.61" y="40.8" xml:space="preserve"> proven</tspan></text>
      </g>
    </g>
  </g>
</svg>