<?xml version="1.0" encoding="UTF-8"?>
<svg id="_图层_1" data-name="图层_1" xmlns="http://www.w3.org/2000/svg" version="1.1" viewBox="0 0 900 672">
  <!-- Generator: Adobe Illustrator 29.6.0, SVG Export Plug-In . SVG Version: 2.1.1 Build 207)  -->
  <defs>
    <style>
      .st0 {
        fill: #d9d7d5;
      }

      .st1 {
        fill: #0e0d0e;
      }

      .st2 {
        fill: #eeedec;
      }

      .st3 {
        fill: #080708;
      }

      .st4 {
        fill: #f1efee;
      }

      .st5 {
        font-size: 25px;
      }

      .st5, .st6, .st7, .st8, .st9, .st10 {
        isolation: isolate;
      }

      .st5, .st8, .st11 {
        font-family: TimesNewRomanPS-BoldMT, 'Times New Roman';
        font-weight: 700;
      }

      .st12 {
        fill: #edecec;
      }

      .st6 {
        font-size: 23px;
      }

      .st6, .st9, .st13 {
        font-family: TimesNewRomanPSMT, 'Times New Roman';
      }

      .st14 {
        fill: #f2e5e4;
      }

      .st15 {
        fill: #efeddf;
      }

      .st16 {
        fill: #e3f0e9;
      }

      .st17 {
        fill: #121112;
      }

      .st18 {
        fill: #dbd9d7;
      }

      .st19 {
        fill: #0b0a0b;
      }

      .st20 {
        fill: #dedcda;
      }

      .st21 {
        fill: #ebebf2;
      }

      .st8 {
        font-size: 31px;
      }

      .st22 {
        fill: #e4f1ea;
      }

      .st23 {
        fill: #efe4e3;
      }

      .st24 {
        fill: #e0dedd;
      }

      .st25 {
        fill: #ebebf6;
      }

      .st26 {
        fill: #141314;
      }

      .st27 {
        fill: #c3c2c1;
      }

      .st28 {
        fill: #eee2e0;
      }

      .st9, .st10 {
        font-size: 21px;
      }

      .st29 {
        fill: #fefefe;
      }

      .st30 {
        fill: #050405;
      }

      .st31 {
        fill: #111011;
      }

      .st32 {
        fill: #c0bfbe;
      }
    </style>
  </defs>
  <g id="_x23_c0bfbeff">
    <path class="st32" d="M0,0h.22c-.06.05-.17.15-.22.2v-.2Z"/>
    <path class="st32" d="M870.39,135.97c.18-10.72-.48-21.46.22-32.16.17,9.08.15,18.15.42,27.23-.71,13.31-.01,26.63-.36,39.95.67,11.31.39,22.63.44,33.95.01,26.02-.03,52.04,0,78.06-.86,18.33-.08,36.69-.46,55.03-.03,3.84-2.04,7.22-3.92,10.42-6.62,3.07-13.97,1.84-21,2.16-.1-.36-.29-1.07-.39-1.42-17.04-.22-34.08.27-51.12.19-12.68-.64-25.39-.12-38.09-.04-23.4-.22-46.81-.3-70.21-.06-8.98-.26-17.96.65-26.92-.03-19.67-.36-39.33.47-59,.12-25.34-.32-50.68.4-76.02-.17-14.59.3-29.19-.35-43.78.34-5.13.51-9.63-2.46-14.49-3.52-2.13-2.5-2.15-5.93-2.61-9.01,1.13,4.13,3.92,8.75,8.85,8.37,129.67.02,259.34-.01,389.01.03,5.8.69,9.78-5.09,9.39-10.39-.2-15.31.25-30.64-.26-45.95-10.7-.14-21.4-.05-32.09-.06-7.01.22-14.01-1.03-21-.04-16.66-.16-33.38.61-50-.62-3.39.17-6.78.94-10.17.32-4.62-.71-9.22.62-13.84.36-10.31-.94-20.65.1-30.99-.11-7.98-.61-16.04-.91-24.01.05-3.66.33-7.3-.58-10.95-.33-14.01.89-28.04-.74-42.04.27-9.01-.15-18.03-1.16-26.99.05-6.97-1.26-13.98.49-20.97-.27-4.36-.51-8.68.57-13.04.33-15.66-.25-31.35.45-46.99-.43-6.01.35-12.04.44-18.04.02-7.98.45-15.98.27-23.97.39-7.04-.94-14.07.4-21.14.05-.1.32-.31.95-.42,1.27l-.38,1.11c-.4-9.14.09-18.3-.04-27.45-.07-6-.03-12-.02-18.01.01-9.32-.08-18.64.05-27.96-.11-4.66-.08-9.31-.04-13.96-.03-3.37-.04-6.74,0-10.1.5-29,.02-58.02.47-87.01.58,23.66-.07,47.35.3,71.02,50.09.09,100.18,0,150.27.04,61.65-.04,123.29.06,184.94-.05,6.66.23,13.34.78,20,.08,17.06-.08,34.13.05,51.19-.07.12-4.31-.48-8.62-.01-12.92.76-9.7-.7-19.39.21-29.07M463.7,178.79c.59,10.73.07,21.47.29,32.21-.27,25.77.43,51.57-.36,77.33,6.78-.73,13.58.21,20.37-.29,9.67-.13,19.33.24,29,.03,12.32.84,24.66-.42,37-.05,19.67-.36,39.34.79,59,.03,8.66.2,17.34.52,26,.02,9.32.35,18.66.36,27.99.06,7.33.41,14.68.26,22.01-.12,6.68.16,13.35.37,20.04.28,8.32-.49,16.64.52,24.96-.21,12.66.77,25.34-.24,38,.21,16.66-.48,33.33-.21,50-.24,7.66.64,15.33-.3,23-.02,9.45.27,18.95-.52,28.38.42,1.06-1.6,1.11-3.54,1.08-5.39-.18-34.78.18-69.57-.18-104.35-1.77.09-3.53.21-5.28.25-108.66,0-217.33.03-326,.02-25.1-.14-50.21.26-75.3-.19Z"/>
    <path class="st32" d="M418.99,345.34c5.44-.1,11.73,1.34,15.99-2.98l.78-.53c-.85,2.24-2.25,4.23-4.15,5.7-2.62,2.5-6.48,2.2-9.82,2.66-3.12.7-5.7-1.82-8.77-1.71-9.59-.12-19.18.14-28.76.23-6.22-.65-12.45.27-18.67-.07-5.3-.41-10.58.55-15.86-.14-6.92.46-13.84-.29-20.78-.1-8.32-.44-16.59.89-24.9.57-12.6,1.02-25.24-.95-37.83.31-14.07-.54-28.17-.4-42.25-.36-13.85.42-27.73-.69-41.55.39-3.94-.61-7.91-.53-11.85.08-9.86-.01-19.73.21-29.58-.48-19.64.07-39.29.92-58.94.23-12.3.69-24.64-.69-36.97-.16-3.6.11-8.97.36-10.23-3.96,8.38.66,16.78.21,25.17.33,119.66-.01,239.32,0,358.97-.01Z"/>
    <path class="st32" d="M862.04,375.69c1.33-1.33,4.23.05,3.9,1.95-1.47-.32-2.76-1.04-3.9-1.95Z"/>
    <path class="st32" d="M865.94,377.64c.16.11.47.33.63.43-.16-.1-.47-.32-.63-.43Z"/>
    <path class="st32" d="M866.57,378.07c.47.32,1.4.94,1.86,1.26l-.11.67c-.43-.48-1.31-1.44-1.75-1.93Z"/>
    <path class="st32" d="M868.32,380l.51.08-.1.35c-.1-.11-.3-.32-.41-.43Z"/>
    <path class="st32" d="M868.73,380.43l.26.38c.17.49.51,1.46.68,1.95-.13,58.74-.03,117.47-.05,176.21.16,6.66-.41,13.35.3,20,.6,4.34-.74,8.65-.37,13.01.41,8.02-.37,16.08.5,24.08-1.72-9.68.92-19.71-1.54-29.27l-.1-.36c.26-.36.76-1.07,1.01-1.43.11-40.7.12-81.44-.03-122.16v-.66c.17-22.73.04-45.46.08-68.19-.04-4.52.52-9.14-.74-13.56Z"/>
    <path class="st32" d="M29.25,576.98c.17-20.04-.28-40.1.26-60.14.68,23.09-.43,46.22.6,69.3v.63s.02.7.02.7c-.95,8.15-.29,16.37-.45,24.55.14,5.54-.55,11.15.68,16.62.03,3.47.07,6.95.25,10.43.04.57.12,1.71.16,2.28-1.59-4.31-.55-9.01-1.26-13.47-.53-12.94.13-25.91-.29-38.86-.59-4.01-.33-8.03.03-12.04Z"/>
    <path class="st32" d="M870.05,616.06c1.19,6.92-.25,13.99,1.12,20.91-.27.27-.82.81-1.09,1.08.03-.36.08-1.06.11-1.42,0-2.05-.22-4.06-.49-6.07l-.04-.5c-.03-.6-.09-1.8-.12-2.4v-.67s.07-.95.07-.95l.08-.59.2-.91c.07-.55.2-1.63.27-2.17-.09-.67-.27-2.02-.36-2.69l-.02-.35c.07-.82.2-2.45.27-3.27Z"/>
    <path class="st32" d="M869.46,638.15l.62-.1c-.18,1.94-.71,3.85-1.38,5.69-.35.41-1.04,1.25-1.38,1.66-.11.11-.33.33-.44.44-.21.14-.62.44-.83.59l-1.05.69c-.16.09-.48.28-.64.37-.5.23-1.5.68-2,.91.15-.64.45-1.93.6-2.57.44.08,1.3.24,1.73.32l.5-.64c1.24-1.55,2.32-3.22,3.39-4.89.16-.51.49-1.52.66-2.03l.22-.44Z"/>
  </g>
  <g id="_x23_fefefeff">
    <path class="st29" d="M.22,0h899.78v672H0V.2c.05-.05.16-.15.22-.2M30.03,96.66l.25.85c-1.1,1.37-2.3,2.76-2.65,4.55-2.58,8.46-.18,17.37-1.95,25.92.82,6.95.71,13.98.23,20.97,1.3,6.22-.22,12.55.48,18.82-.44,4.4.15,8.81-.44,13.2.47,8.01.65,16.07-.35,24.04,1.83,10.86-1.03,21.79.52,32.64.47,8.81-.83,17.57-.48,26.37,1.09,7.34.37,14.78.63,22.18.03,6.6-1.37,13.2-.39,19.8.74,4-.92,8-.19,12.01,1.42,6.29.3,12.77.38,19.16-1.41,6.29,1.41,12.97,6.22,17.07,3.11,1.16,4.6,4.68,7.8,5.67,2.54,1,5.32.43,7.96.95,4.7,1.15,9.5-1.2,14.19,0,2.11.52,4.3.68,6.47.5,10.16-1.05,20.39-.15,30.58-.73,14.77.46,29.54-.19,44.31-.04.99,0,1.89.43,2.81.73,4.52-.71,9.08-.78,13.63-.54,10.31-.61,20.63-.24,30.93-.15,2.79.09,5.72,1.27,8.41.01.45.22.91.45,1.37.69,5.21.09,10.35-1.36,15.57-.69,7.73.86,15.76-1.4,23.32.63,3.86-1.36,7.95-.84,11.86.01,1.16-.42,2.37-.95,3.62-.46,3.24.95,6.55-.4,9.83.06,1.86-.07,3.99,1.08,5.64-.23,4.36,1.35,8.97-.56,13.43.24,6.98,1.63,13.99-1.53,21.02-.16,10.05.1,20.13.27,30.18-.07,2.76.71,5.65,1.07,8.39.02.24.17.73.49.97.66,5.31-1.04,10.74-.44,16.09-1.05,3.75-.47,7.45.56,11.2.3,4.05-.14,8.11-.16,12.17.09,8.56.68,17.16-.74,25.71.45,7.42-.24,15-.62,22.03-3.24,3.4-2.05,5.64-5.48,8.66-7.99.13-7.99,2.55-15.91,2.27-23.92-1.13-4.98.18-10.05-.5-15.06.08-7.31-.44-14.58-.08-21.89-.82-7,.71-13.95.24-20.95.2-6.7.33-13.43-.17-20.12-.09-4.01.94-7.98.54-12-.79-7.95.19-15.98-.76-23.92-.5-4.34.89-8.63.36-12.96-.55-5.04.78-10.04.39-15.07-.73-10.93.37-21.87-.34-32.78.58-4.63-.19-9.25-.09-13.88.83-8.33.08-16.71.26-25.06-1.05-5.7-1.5-12.87-6.69-16.44-1.51-3.1-5.53-4.58-8.82-4.76-129.36.01-258.73.01-388.09.01-3.85-.24-6.79,2.72-8.93,5.56M470.3,91.46c-2.06.57-4.38,1.49-5.33,3.55-2.03,4.1-4.55,8.21-4.42,12.95-1.03,7.75-1.21,15.6-.39,23.37-.58,6.19-.34,12.4-.37,18.6-.02,12.67-.27,25.36.07,38.03.84,4.33.15,8.69,0,13.03,1.02,5.19-.08,10.45.56,15.66.31,5.99-.59,11.99-.11,17.99.42,3.46-1.11,6.88-.2,10.33.99,4.29-.36,8.62,0,12.94.02,4.37.72,8.75-.2,13.08,1.22,8.09-2.15,16.35-.23,24.32-.47,5.31-2.82,10.6-1.36,15.94-.16,6.78.65,13.75-.53,20.41,1.45,4.68-.02,9.73,1.59,14.36.11,1.49.77,2.79,1.75,3.9,1.95,2.36,3.09,5.49,5.78,7.16,7.2,1.7,14.62,4.39,22.09,2.91,3.77-.98,7.37,1.31,11.19.51.32-.23.95-.7,1.27-.93,4.1,2.34,8.04-.98,12.26-.78,4.07-.47,8.14.63,12.2.08,4.03-.69,8.04.67,12.1.32,8.72.33,17.39-1.08,26.12-.48,3.17.31,6.35-.54,9.52-.03,4.43.82,8.86-.67,13.32-.13,8.53.73,17.07-.49,25.6.15,4.13.27,8.27.11,12.4-.11,3.62-.03,7.23.44,10.86.2,1.57-.17,3.33-1.96,4.7-.37.38-.27.76-.53,1.16-.79,4.2,1.98,8.92,1,13.37.84,2.48.08,5.08.78,7.31-.73,1.54,1.41,3.48.76,5.08-.16.74.33,1.49.67,2.25,1.02.59-.39,1.2-.78,1.82-1.16.36.37,1.09,1.11,1.46,1.48,3.32-.58,6.7-.37,10.03.06,4.12.57,8.22-1.09,12.34-.3,4.04.91,8.12-.38,12.19-.02,9.99.74,20.02-1.09,29.99.36,0-.48.01-1.46.02-1.94.84.66,1.67,1.32,2.53,1.99,9.02.2,18.01-.71,27.03-.25.47-.44.95-.88,1.44-1.32.34.32,1,.95,1.33,1.27,2.24.09,4.56.12,6.54-1.12,3.6,1.31,7.42,1.49,11.21,1.11,6.03.77,12.1.39,18.12-.19,3.63.84,7.27.08,10.92.08,7.41,1.37,14.89-.36,22.32.54,6.01.53,12-1.08,17.99-.25.77-.41,1.55-.8,2.34-1.19,2.46-.03,6.34-.26,6.41-3.47.79.14,1.59.29,2.4.44,0-2.63.7-5.1,2.49-7.08,2.37-6.01,3.52-12.6,2.3-19.01.72-5.85.41-11.74.48-17.62-.04-27.65,0-55.31-.04-82.96.07-3.38,1.14-6.65.98-10.04-.29-6.89.45-13.8-.48-20.65.95-7.43.32-14.93.46-22.4-1.52-8.06-.67-16.29-.73-24.44-.76-7.19,1.02-14.34.73-21.54-.2-7.14.62-14.37-.62-21.45-.57-2.73-.76-5.73-2.7-7.9-.97-2.39-2.25-4.74-4.14-6.5-2.49-1.97-5.84-2.09-8.86-2.16-124.66.03-249.31,0-373.97.05-4.58,0-9.2-.29-13.74.44M30.72,379.71c-2.88,2.09-3.91,5.74-5.05,8.95-1.24,3.51-.51,7.41-2.07,10.83.32.59.64,1.19.96,1.79-.22.31-.68.93-.91,1.24,1.97,6.38.14,12.99,1.34,19.45.6,4.77-.36,9.53-.28,14.29,1.02,5.44-.64,10.85-.36,16.32-.22.27-.68.8-.9,1.07.36.31,1.08.92,1.44,1.23-.36,1.09-1.44,2.13-1.04,3.35,1.41,4.9.24,10.01.77,15.02-.33,7.46.17,14.96-.22,22.41-1.75,4.79,1.48,9.78-.17,14.59-.38,1.15-.94,2.41.27,3.32-.32,2.88-1.98,6.1-.04,8.76,0,5.17,0,10.35-.05,15.52.57,14.16-1.13,28.35.09,42.5.23,1.11-.44,2.06-.84,3.05.47.58.94,1.16,1.41,1.75-1.01,3.77-.35,7.65-.65,11.48-.4,7.49,1.14,14.96.17,22.41.19,7.44-.1,14.89.19,22.33.4,3.63,3.36,6.29,3.97,9.89.88.36,1.76.73,2.65,1.11.05.32.14.97.19,1.29,2.24,1.06,4.4,2.37,5.73,4.55.66-.24,1.28-.71,2.01-.6,7.78,1.19,15.76,1.37,23.57.31,4.38,0,8.75.83,13.12.01,10.01.28,19.99.41,30.03.62,5.9.43,11.79-.58,17.69-.2,5.09.7,10.12-1.32,15.2-.28,4.69.9,9.37-.49,14.08-.24,9.21.13,18.44-.24,27.64.36,12.54-.74,25.13.13,37.68-.58,1.14.06,2.22.51,3.32.82.41-.23,1.21-.7,1.62-.93,3.13.15,6.24.49,9.36.83.67-.28,1.36-.51,2.06-.69,18.43.65,36.89.07,55.33.31,3.35.21,6.72.64,10.06.18,8.94-1,17.91.41,26.84-.14,3.66.93,7.34.38,11.02-.02,5.01,1.14,10.03-.59,15.04.43,4.29.2,8.57-.57,12.87-.06,11.36-.93,22.78-.25,34.16-.51,5.72.67,11.47.35,17.21.74,6.69.49,13.55-1.41,18.94-5.44.57-1.18.83-2.47,1.22-3.7.53-.23,1.6-.7,2.13-.93.5-1.71,1.02-3.4,1.71-5.04,2.16-4.23-.11-9.01.59-13.5.72-5.72-1.47-12.1,1.54-17.29-.91-1.04-1.7-2.2-1.47-3.65-.11-12.9-.17-25.83.48-38.68,1.13-4.73-.25-9.56.5-14.32.12-1.94.7-3.87.45-5.81-1.67-4.55-.69-9.48-1.22-14.21.59-4.18.75-8.38.4-12.59.21-.21.64-.63.85-.84-1.48-1.75-.62-4.13-.8-6.19-.27-5.48.42-10.98-.28-16.43-.21-8.26.5-16.51.29-24.76-.16-4.42,1.1-8.79.46-13.21.08-3.16-1.03-6.56.28-9.56-.18-.22-.56-.66-.74-.88.16-2.16.4-4.31.62-6.45.57-4.38-1.63-8.59-1.01-12.98.19-6.06.53-12.12.13-18.17.68-6.87-.39-13.75,0-20.61-.37-.78-.74-1.56-1.1-2.34.17-4.09-1.72-8.64-5.2-10.92-2.07-3.42-6.09-5.17-10.01-4.98-126.31.11-252.64-.02-378.95.05-5.63-.1-12.83-.97-16.32,4.57M469.33,375.48c-2.65,1.7-5.07,4.07-6.01,7.15-3.8,10.7-2.51,22.23-2.7,33.36.06,1.61-.11,3.65,1.78,4.37.04,10.87.11,21.75.01,32.61-.89,5.14-1.33,10.4-.63,15.59,1.29,5.76.47,11.69.67,17.53-.27,4.73.73,9.62-.79,14.21-.47.42-1.4,1.25-1.87,1.66-.98,6.03,1.03,12.05-.2,18.07.35,7.78-.67,15.66.61,23.37-1.32,2.31-.63,5.05-.65,7.57.34,4.99-.29,10.01.42,14.97.33,2.37-.39,4.7-.39,7.08.09,16.97-.02,33.96.1,50.94,1.04,6.22-1.46,12.81,1.52,18.74,3.8,6.56,9.75,13.12,17.85,13.5,5.91-.05,11.95.95,17.74-.58,1.8-.24,3.44,1.09,5.26.81,5.99-.82,12.2-1.48,18.14.04,4.8-1.58,9.87-.54,14.76-.04,3.11.32,6.14-.75,9.25-.8,8.76.46,17.78,1.61,26.44.18,1.41.22,2.83.4,4.27.19,3.02-.44,6.03.83,9.06.14,3.92-.85,7.82.76,11.77.41,5.21-.47,10.48.51,15.62-.69,4.68-.39,9.33,1.11,14,.05,6.53.97,13.14.43,19.72.53,5.08.18,10.11-1,15.2-.71,3.23.23,6.55-.68,9.72.33,3.29,1.01,6.67-.31,10.02-.31,3.47-.31,6.97,1.71,10.29-.05,6.24,1.14,12.63.73,18.94.62,6.58-1.76,13.4.61,20.01-.69,2.48-.29,5.17,1.82,7.39.12,4.43,1.56,9.15.2,13.69.09,6.96.5,14.01-.75,20.91.66,3.15-.87,6.34-.41,9.55-.59,10.56.47,21.25,1.14,31.79-.1,6.87.79,13.94,1.29,20.71-.32,5.77,1.28,11.78,1.21,17.64.56,4.12-1.49,8.64-1.52,12.63-3.4.37.36.76.72,1.17,1.1,1.22-4.22,6.41-6.13,6.66-10.61.19-.29.58-.88.77-1.18,2.27-8.58.87-17.45,1.32-26.17.24-21.72-.46-43.45,0-65.16-.47-20.2.53-40.4-.22-60.59.29-7.37.41-14.74.03-22.11-.43-6.32.76-12.59.44-18.9-.3-5.33.3-10.67-.08-15.99-.77-7.55.29-15.13-.07-22.69-.26-9.25.83-19.22-3.92-27.59-.17-.49-.51-1.46-.68-1.95-.04-.18-.12-.55-.16-.73-.1-.19-.3-.57-.4-.75-.46-.32-1.39-.94-1.86-1.26-.16-.1-.47-.32-.63-.43.33-1.9-2.57-3.28-3.9-1.95-3.13-1.26-6.7-.29-9.99-.47-124.35-.01-248.7-.05-373.05.01-3.22.04-6.49-.34-9.67.25Z"/>
  </g>
  <g id="_x23_ebebf6ff">
    <path class="st25" d="M30.03,96.66c2.14-2.84,5.08-5.8,8.93-5.56,129.36,0,258.73,0,388.09-.01,3.29.18,7.31,1.66,8.82,4.76.13,2.76.16,5.53.39,8.29-.81,15.28.07,30.58-.32,45.87.01,9.3.25,18.61.05,27.92-130.67.04-261.33.09-392-.03-4.58.06-9.16.09-13.74-.1.54-10.55-.13-21.11.25-31.66-.05-14.73-.2-29.46-.41-44.2.93-1.39.8-2.94.19-4.43l-.25-.85M57.1,113.91c.2,14.68.06,29.37,0,44.06,3.25,1.97,7.28.71,10.88,1.05,1.69-.08,4.79.46,4.81-2.04.24-12.67-.01-25.34.14-38.01-.04-2.75.31-5.6-.73-8.22-4.43.05-8.86-.21-13.29.05-1.5.15-1.94,1.86-1.8,3.11M77.7,112.66c-.54,3.08-.2,6.22-.27,9.33,9.44.28,18.91.2,28.36.04-.08-3.13.72-6.55-.28-9.52-5.42-.75-11.06-.04-16.57-.28-3.73.22-7.6-.5-11.24.43M77.6,125.49c-.06.58-.2,1.74-.26,2.32,6.73.65,13.51.15,20.27.24-.01-.6-.01-1.8-.02-2.39-6.63-.54-13.33-.18-19.99-.17M77.46,131.47c-.84,1.07.26,2.57,1.52,2.38,8.85-.01,17.74.22,26.58-.17,1.63-1.97-.91-2.82-2.56-2.53-8.51.29-17.07-.34-25.54.32M77.47,137.48c-.83,1.12.42,2.32,1.6,2.19,8.9.08,17.81.03,26.71,0,.04-.65.13-1.95.17-2.6-7.99-.37-15.99-.09-23.99-.16-1.48.13-3.15-.22-4.49.57M78.89,145.31c9.07.07,18.16.23,27.23-.07-.1-.58-.3-1.73-.4-2.3-8.92-.54-17.89-.06-26.83-.1-2.08-.61-2.07,3.03,0,2.47M77.23,150.85c9.47.57,19,.34,28.48.15.12-.57.34-1.71.45-2.28-9.48-.45-18.99-.05-28.48-.2-.11.58-.34,1.74-.45,2.33M78.28,154.43c-1.75-.04-1.05,2.89.55,2.51,5.02.19,10.08.3,15.09-.18.06-.61.17-1.82.22-2.42-5.28.04-10.59-.27-15.86.09Z"/>
    <path class="st25" d="M30.35,179.16c135.21-.25,270.43-.05,405.64-.13.24,29.33.07,58.66.1,87.99-.16,6.93.32,13.86-.22,20.78-135.13-.3-270.27.05-405.39-.14-.78-18.83,0-37.7-.45-56.55.22-17.31.01-34.63.32-51.95Z"/>
    <path class="st25" d="M30.01,289.02c11.99-.41,23.99-.08,35.98-.14,107.99-.14,216,.03,323.99-.05,15.35.17,30.72-.29,46.06.21.36,13.97-.24,27.95.07,41.92.01,3.82.11,7.74-1.13,11.4-4.26,4.32-10.55,2.88-15.99,2.98-119.65.02-239.31,0-358.97.01-8.39-.12-16.79.33-25.17-.33-1.75-2.16-4.34-4.07-4.53-7.06-.22-16.31.15-32.64-.31-48.94Z"/>
  </g>
  <g id="_x23_efeddfff">
    <path class="st15" d="M470.3,91.46c4.54-.73,9.16-.45,13.74-.44,124.66-.05,249.31-.02,373.97-.05,3.02.07,6.37.19,8.86,2.16,1.89,1.76,3.17,4.11,4.14,6.5-.15,1.39-.28,2.79-.4,4.18-.7,10.7-.04,21.44-.22,32.16-.91,9.68.55,19.37-.21,29.07-.47,4.3.13,8.61.01,12.92-17.06.12-34.13-.01-51.19.07-6.66.7-13.34.15-20-.08-61.65.11-123.29.01-184.94.05-50.09-.04-100.18.05-150.27-.04-.37-23.67.28-47.36-.3-71.02-.45,28.99.03,58.01-.47,87.01-.05,3.36-.04,6.73,0,10.1-.04,4.65-.07,9.3.04,13.96-.13,9.32-.04,18.64-.05,27.96-.01,6.01-.05,12.01.02,18.01.13,9.15-.36,18.31.04,27.45-.98,10.83.02,21.73-.33,32.59.07,4.13-.58,8.41.84,12.4.79-6.78.24-13.62.37-20.42-.08-8.56.48-17.15-.5-25.68.11-.32.32-.95.42-1.27,7.07.35,14.1-.99,21.14-.05,7.99-.12,15.99.06,23.97-.39,6,.42,12.03.33,18.04-.02,15.64.88,31.33.18,46.99.43,4.36.24,8.68-.84,13.04-.33,6.99.76,14-.99,20.97.27,8.96-1.21,17.98-.2,26.99-.05,14-1.01,28.03.62,42.04-.27,3.65-.25,7.29.66,10.95.33,7.97-.96,16.03-.66,24.01-.05,10.34.21,20.68-.83,30.99.11,4.62.26,9.22-1.07,13.84-.36,3.39.62,6.78-.15,10.17-.32,16.62,1.23,33.34.46,50,.62,6.99-.99,13.99.26,21,.04,10.69,0,21.39-.08,32.09.06.51,15.31.06,30.64.26,45.95.39,5.3-3.59,11.08-9.39,10.39-129.67-.04-259.34-.01-389.01-.03-4.93.38-7.72-4.24-8.85-8.37.46,3.08.48,6.51,2.61,9.01,1.41,1.82,2.79,3.65,4.18,5.5-3.22-1.75-7.13-3.76-7.57-7.86-1.92-12.78.71-25.81-1.44-38.57-.65-3.24.08-6.68-1.2-9.78-1.92-7.97,1.45-16.23.23-24.32.92-4.33.22-8.71.2-13.08-.36-4.32.99-8.65,0-12.94-.91-3.45.62-6.87.2-10.33-.48-6,.42-12,.11-17.99-.64-5.21.46-10.47-.56-15.66.15-4.34.84-8.7,0-13.03-.34-12.67-.09-25.36-.07-38.03.03-6.2-.21-12.41.37-18.6-.82-7.77-.64-15.62.39-23.37-.13-4.74,2.39-8.85,4.42-12.95.95-2.06,3.27-2.98,5.33-3.55M491.31,111.31c-.59,3.48.94,7.85,4.65,8.84,2.88,1.41,6.03-1.83,8.71.1,2.03,1.47,1.67,4.32,2.67,6.41,1.4.34,2.59-1.24,2.06-2.56-.12-3-1.55-6.16-4.5-7.3-2.55-1.05-4.99.67-7.51.78-3.02-.62-3.1-4.2-3.73-6.57-.59.07-1.76.23-2.35.3M520.73,117.76c-.61.89-2.18,1.71-1.53,2.98,5.15,2.59,6.85-6.45,11.95-5.62,1.93.15,3.85,1.8,3.8,3.84.38,2.73-2.01,4.54-3.7,6.25-2.11,1.88-3.9,4.21-6.44,5.53-3.22,1.64-5.42-3.7-8.48-1.01,1.22,3.4,4.99,5.89,8.61,4.92,2.93-.47,4.84-2.93,6.84-4.87,2.18-2.37,4.88-4.37,6.47-7.24,2.28-4.92-1.9-11.27-7.31-11.1-4.51-.41-7.35,3.54-10.21,6.32M513.79,124.7c-2.91,2.45-5.53,5.24-7.9,8.2,1.2.37,2.4.73,3.62,1.08,2.52-2.29,4.75-4.93,7.5-6.95,2.37-.98,4.66.28,6.36,1.89.58-.19,1.75-.57,2.34-.76-.89-5.19-8.26-6.73-11.92-3.46M497.1,141.14c-2.64,2.83-6.51,5.63-5.95,10.02.34,5.7,7.45,9.28,12.26,6.21,3.21-2.18,5.82-5.16,8.3-8.12-5.88-3.16-7.67,6.4-13.28,5.27-2.97-.33-4.75-4.41-2.62-6.63,2.73-2.97,5.36-6.22,8.78-8.41,2.37-1.34,4.74.34,6.63,1.69.62-.29,1.85-.87,2.47-1.17-1.33-2.51-3.72-4.56-6.67-4.63-4.32-.7-7.23,3.07-9.92,5.77M512.02,143.07c-2.2.79-3.96-.83-5.39-2.23-.91.48-1.81.96-2.7,1.46,1.81,4.41,7.84,6.34,11.66,3.29,3.07-2.64,5.85-5.59,8.66-8.5-1.4-.35-2.81-.63-4.22-.83-2.82,2.09-4.6,5.55-8.01,6.81M520.89,142.91c-.42,3.44.09,8.05,3.93,9.33,2.65,1.49,5.39-.52,8.11-.42,2.61.84,2.98,3.76,3.17,6.1.42.27,1.25.8,1.67,1.07,3.35-4.1-1.7-11.59-6.84-9.91-1.75.16-3.68,1.47-5.28.23-3.03-1.28-.63-6.9-4.76-6.4Z"/>
    <path class="st15" d="M463.7,178.79c25.09.45,50.2.05,75.3.19,108.67.01,217.34-.02,326-.02,1.75-.04,3.51-.16,5.28-.25.36,34.78,0,69.57.18,104.35.03,1.85-.02,3.79-1.08,5.39-9.43-.94-18.93-.15-28.38-.42-7.67-.28-15.34.66-23,.02-16.67.03-33.34-.24-50,.24-12.66-.45-25.34.56-38-.21-8.32.73-16.64-.28-24.96.21-6.69.09-13.36-.12-20.04-.28-7.33.38-14.68.53-22.01.12-9.33.3-18.67.29-27.99-.06-8.66.5-17.34.18-26-.02-19.66.76-39.33-.39-59-.03-12.34-.37-24.68.89-37,.05-9.67.21-19.33-.16-29-.03-6.79.5-13.59-.44-20.37.29.79-25.76.09-51.56.36-77.33-.22-10.74.3-21.48-.29-32.21Z"/>
  </g>
  <g id="_x23_f1efeeff">
    <path class="st4" d="M435.87,95.85c5.19,3.57,5.64,10.74,6.69,16.44-.18,8.35.57,16.73-.26,25.06-.1,4.63.67,9.25.09,13.88.71,10.91-.39,21.85.34,32.78.39,5.03-.94,10.03-.39,15.07.53,4.33-.86,8.62-.36,12.96.95,7.94-.03,15.97.76,23.92.4,4.02-.63,7.99-.54,12,.5,6.69.37,13.42.17,20.12.47,7-1.06,13.95-.24,20.95-.36,7.31.16,14.58.08,21.89.68,5.01-.63,10.08.5,15.06.28,8.01-2.14,15.93-2.27,23.92-3.02,2.51-5.26,5.94-8.66,7.99-7.03,2.62-14.61,3-22.03,3.24-8.55-1.19-17.15.23-25.71-.45-4.06-.25-8.12-.23-12.17-.09-3.75.26-7.45-.77-11.2-.3-5.35.61-10.78,0-16.09,1.05-.24-.17-.73-.49-.97-.66-2.74,1.05-5.63.69-8.39-.02-10.05.34-20.13.17-30.18.07-7.03-1.37-14.04,1.79-21.02.16-4.46-.8-9.07,1.11-13.43-.24-1.65,1.31-3.78.16-5.64.23-3.28-.46-6.59.89-9.83-.06-1.25-.49-2.46.04-3.62.46-3.91-.85-8-1.37-11.86-.01-7.56-2.03-15.59.23-23.32-.63-5.22-.67-10.36.78-15.57.69-.46-.24-.92-.47-1.37-.69-2.69,1.26-5.62.08-8.41-.01-10.3-.09-20.62-.46-30.93.15-4.55-.24-9.11-.17-13.63.54-.92-.3-1.82-.73-2.81-.73-14.77-.15-29.54.5-44.31.04-10.19.58-20.42-.32-30.58.73-2.17.18-4.36.02-6.47-.5-4.69-1.2-9.49,1.15-14.19,0-2.64-.52-5.42.05-7.96-.95-3.2-.99-4.69-4.51-7.8-5.67-4.81-4.1-7.63-10.78-6.22-17.07-.08-6.39,1.04-12.87-.38-19.16-.73-4.01.93-8.01.19-12.01-.98-6.6.42-13.2.39-19.8-.26-7.4.46-14.84-.63-22.18-.35-8.8.95-17.56.48-26.37-1.55-10.85,1.31-21.78-.52-32.64,1-7.97.82-16.03.35-24.04.59-4.39,0-8.8.44-13.2-.7-6.27.82-12.6-.48-18.82.48-6.99.59-14.02-.23-20.97,1.77-8.55-.63-17.46,1.95-25.92.35-1.79,1.55-3.18,2.65-4.55.61,1.49.74,3.04-.19,4.43-2.11,3.88-1.29,8.47-1.61,12.72.07,16.85-.41,33.7-.09,50.55-.09,6.93.28,13.85-.21,20.76.2,15.34.72,30.7.06,46.04.34,29.26.08,58.53.2,87.79.5,7.33-.53,14.7.14,22.01.91,7.27,8.7,11.08,15.35,11.06,57.02-.04,114.03.02,171.05-.07,5.36,0,10.72-.48,16.08-.25,18.64.46,37.27.02,55.91.25,19.1,0,38.21.13,57.31-.16,11.22.59,22.45-.4,33.68.19,12.4-.04,24.8-.06,37.2-.15,6.84.24,15.33.47,19.87-5.64,3.43-3.86,2.56-9.28,2.82-14.01-.24-10.67.17-21.34.1-32,.74-9-.11-18.01.06-27.01-.27-34.02.13-68.03-.13-102.04.36-11.32-.71-22.63.04-33.95-.7-10.05.28-20.11-.23-30.18.14-1.43-.68-2.59-1.43-3.71-.23-2.76-.26-5.53-.39-8.29Z"/>
    <path class="st4" d="M25.67,388.66c1.14-3.21,2.17-6.86,5.05-8.95-1.88,5.73.62,11.5.36,17.31-.11,13.65.02,27.3-.02,40.96-.11,4.52.72,9.25-1.12,13.55-.69-19.85.21-39.74-.47-59.59-.4,34.02-.06,68.05-.29,102.08.12,7.39-.25,14.8.33,22.18v.64c-.54,20.04-.09,40.1-.26,60.14-.36,4.01-.62,8.03-.03,12.04.42,12.95-.24,25.92.29,38.86.71,4.46-.33,9.16,1.26,13.47.85,2.57,2.88,4.42,4.71,6.3.4.64,1.2,1.91,1.6,2.55,5.35,2.16,11.11.9,16.68,1.24,11.32.65,22.67-.22,33.97.64,5.11.15,10.11-1.44,15.22-1.12,8.34.61,16.72.36,25.06,0,27,.62,54.04-.85,81.01.61,12.75-.05,25.5.1,38.24-.41,10.05.13,20.12.27,30.13-.69,14.93.04,29.85.17,44.78-.07,8.31.66,16.63-.17,24.94.26,8.85-.48,17.71.34,26.56-.2,4.75-.39,9.48.63,14.23.31,5.4-.53,10.83.02,16.24-.46,7.93-.41,15.97.95,23.8-.7,5.76-1,9.69-6.91,9.53-12.57.04-53.35-.06-106.7.02-160.06.34-6.33,1.13-12.69,0-18.99-.03-20.26,0-40.53-.01-60.79.02-3.78-.67-7.5-.94-11.26-.06-1.96-.2-3.93-.53-5.87,3.48,2.28,5.37,6.83,5.2,10.92.36.78.73,1.56,1.1,2.34-.39,6.86.68,13.74,0,20.61.4,6.05.06,12.11-.13,18.17-.62,4.39,1.58,8.6,1.01,12.98-.22,2.14-.46,4.29-.62,6.45.18.22.56.66.74.88-1.31,3-.2,6.4-.28,9.56.64,4.42-.62,8.79-.46,13.21.21,8.25-.5,16.5-.29,24.76.7,5.45.01,10.95.28,16.43.18,2.06-.68,4.44.8,6.19-.21.21-.64.63-.85.84.35,4.21.19,8.41-.4,12.59.53,4.73-.45,9.66,1.22,14.21.25,1.94-.33,3.87-.45,5.81-.75,4.76.63,9.59-.5,14.32-.65,12.85-.59,25.78-.48,38.68-.23,1.45.56,2.61,1.47,3.65-3.01,5.19-.82,11.57-1.54,17.29-.7,4.49,1.57,9.27-.59,13.5-.69,1.64-1.21,3.33-1.71,5.04-.53.23-1.6.7-2.13.93-.39,1.23-.65,2.52-1.22,3.7-5.39,4.03-12.25,5.93-18.94,5.44-5.74-.39-11.49-.07-17.21-.74-11.38.26-22.8-.42-34.16.51-4.3-.51-8.58.26-12.87.06-5.01-1.02-10.03.71-15.04-.43-3.68.4-7.36.95-11.02.02-8.93.55-17.9-.86-26.84.14-3.34.46-6.71.03-10.06-.18-18.44-.24-36.9.34-55.33-.31-.7.18-1.39.41-2.06.69-3.12-.34-6.23-.68-9.36-.83-.41.23-1.21.7-1.62.93-1.1-.31-2.18-.76-3.32-.82-12.55.71-25.14-.16-37.68.58-9.2-.6-18.43-.23-27.64-.36-4.71-.25-9.39,1.14-14.08.24-5.08-1.04-10.11.98-15.2.28-5.9-.38-11.79.63-17.69.2-10.04-.21-20.02-.34-30.03-.62-4.37.82-8.74-.01-13.12-.01-7.81,1.06-15.79.88-23.57-.31-.73-.11-1.35.36-2.01.6-1.33-2.18-3.49-3.49-5.73-4.55-.05-.32-.14-.97-.19-1.29-.89-.38-1.77-.75-2.65-1.11-.61-3.6-3.57-6.26-3.97-9.89-.29-7.44,0-14.89-.19-22.33.97-7.45-.57-14.92-.17-22.41.3-3.83-.36-7.71.65-11.48-.47-.59-.94-1.17-1.41-1.75.4-.99,1.07-1.94.84-3.05-1.22-14.15.48-28.34-.09-42.5.04-5.17.05-10.35.05-15.52-1.94-2.66-.28-5.88.04-8.76-1.21-.91-.65-2.17-.27-3.32,1.65-4.81-1.58-9.8.17-14.59.39-7.45-.11-14.95.22-22.41-.53-5.01.64-10.12-.77-15.02-.4-1.22.68-2.26,1.04-3.35-.36-.31-1.08-.92-1.44-1.23.22-.27.68-.8.9-1.07-.28-5.47,1.38-10.88.36-16.32-.08-4.76.88-9.52.28-14.29-1.2-6.46.63-13.07-1.34-19.45.23-.31.69-.93.91-1.24-.32-.6-.64-1.2-.96-1.79,1.56-3.42.83-7.32,2.07-10.83Z"/>
    <path class="st4" d="M30.13,587.47c1.87,7.37.57,15.07.85,22.59-.14,6.19.66,12.45-.62,18.58-1.23-5.47-.54-11.08-.68-16.62.16-8.18-.5-16.4.45-24.55Z"/>
  </g>
  <g id="_x23_edececff">
    <path class="st12" d="M871.01,99.63c1.94,2.17,2.13,5.17,2.7,7.9,1.24,7.08.42,14.31.62,21.45.29,7.2-1.49,14.35-.73,21.54.06,8.15-.79,16.38.73,24.44-.14,7.47.49,14.97-.46,22.4.93,6.85.19,13.76.48,20.65.16,3.39-.91,6.66-.98,10.04.03,27.65,0,55.31.04,82.96-.07,5.88.24,11.77-.48,17.62,1.22,6.41.07,13-2.3,19.01-1.79,1.98-2.49,4.45-2.49,7.08-.81-.15-1.61-.3-2.4-.44-.07,3.21-3.95,3.44-6.41,3.47-.79.39-1.57.78-2.34,1.19-5.99-.83-11.98.78-17.99.25-7.43-.9-14.91.83-22.32-.54-3.65,0-7.29.76-10.92-.08-6.02.58-12.09.96-18.12.19-3.79.38-7.61.2-11.21-1.11-1.98,1.24-4.3,1.21-6.54,1.12-.33-.32-.99-.95-1.33-1.27-.49.44-.97.88-1.44,1.32-9.02-.46-18.01.45-27.03.25-.86-.67-1.69-1.33-2.53-1.99-.01.48-.02,1.46-.02,1.94-9.97-1.45-20,.38-29.99-.36-4.07-.36-8.15.93-12.19.02-4.12-.79-8.22.87-12.34.3-3.33-.43-6.71-.64-10.03-.06-.37-.37-1.1-1.11-1.46-1.48-.62.38-1.23.77-1.82,1.16-.76-.35-1.51-.69-2.25-1.02-1.6.92-3.54,1.57-5.08.16-2.23,1.51-4.83.81-7.31.73-4.45.16-9.17,1.14-13.37-.84-.4.26-.78.52-1.16.79-1.37-1.59-3.13.2-4.7.37-3.63.24-7.24-.23-10.86-.2-4.13.22-8.27.38-12.4.11-8.53-.64-17.07.58-25.6-.15-4.46-.54-8.89.95-13.32.13-3.17-.51-6.35.34-9.52.03-8.73-.6-17.4.81-26.12.48-4.06.35-8.07-1.01-12.1-.32-4.06.55-8.13-.55-12.2-.08-4.22-.2-8.16,3.12-12.26.78-.32.23-.95.7-1.27.93-3.82.8-7.42-1.49-11.19-.51-7.47,1.48-14.89-1.21-22.09-2.91-2.69-1.67-3.83-4.8-5.78-7.16-.98-1.11-1.64-2.41-1.75-3.9-1.61-4.63-.14-9.68-1.59-14.36,1.18-6.66.37-13.63.53-20.41-1.46-5.34.89-10.63,1.36-15.94,1.28,3.1.55,6.54,1.2,9.78,2.15,12.76-.48,25.79,1.44,38.57.44,4.1,4.35,6.11,7.57,7.86,2.09,1.31,4.63,1.37,7.02,1.37,12.64-.3,25.28.27,37.92-.29,17.71.48,35.44.34,53.15.22,95.35.11,190.72.02,286.06.03,4.37-.3,10.04-.28,12.69-4.4,1.88-3.2,3.89-6.58,3.92-10.42.38-18.34-.4-36.7.46-55.03-.03-26.02.01-52.04,0-78.06-.05-11.32.23-22.64-.44-33.95.35-13.32-.35-26.64.36-39.95-.27-9.08-.25-18.15-.42-27.23.12-1.39.25-2.79.4-4.18Z"/>
  </g>
  <g id="_x23_dbd9d7ff">
    <path class="st18" d="M28.48,114.66c.32-4.25-.5-8.84,1.61-12.72.21,14.74.36,29.47.41,44.2-.38,10.55.29,21.11-.25,31.66,4.58.19,9.16.16,13.74.1,130.67.12,261.33.07,392,.03.2-9.31-.04-18.62-.05-27.92.39-15.29-.49-30.59.32-45.87.75,1.12,1.57,2.28,1.43,3.71.51,10.07-.47,20.13.23,30.18-.75,11.32.32,22.63-.04,33.95.26,34.01-.14,68.02.13,102.04-.17,9,.68,18.01-.06,27.01.07,10.66-.34,21.33-.1,32-.26,4.73.61,10.15-2.82,14.01-4.54,6.11-13.03,5.88-19.87,5.64-12.4.09-24.8.11-37.2.15-11.23-.59-22.46.4-33.68-.19-19.1.29-38.21.15-57.31.16-18.64-.23-37.27.21-55.91-.25-5.36-.23-10.72.24-16.08.25-57.02.09-114.03.03-171.05.07-6.65.02-14.44-3.79-15.35-11.06-.67-7.31.36-14.68-.14-22.01-.12-29.26.14-58.53-.2-87.79.66-15.34.14-30.7-.06-46.04.49-6.91.12-13.83.21-20.76-.32-16.85.16-33.7.09-50.55M30.35,179.16c-.31,17.32-.1,34.64-.32,51.95.45,18.85-.33,37.72.45,56.55,135.12.19,270.26-.16,405.39.14.54-6.92.06-13.85.22-20.78-.03-29.33.14-58.66-.1-87.99-135.21.08-270.43-.12-405.64.13M30.01,289.02c.46,16.3.09,32.63.31,48.94.19,2.99,2.78,4.9,4.53,7.06,1.26,4.32,6.63,4.07,10.23,3.96,12.33-.53,24.67.85,36.97.16,19.65.69,39.3-.16,58.94-.23,9.85.69,19.72.47,29.58.48,3.94-.61,7.91-.69,11.85-.08,13.82-1.08,27.7.03,41.55-.39,14.08-.04,28.18-.18,42.25.36,12.59-1.26,25.23.71,37.83-.31,8.31.32,16.58-1.01,24.9-.57,6.94-.19,13.86.56,20.78.1,5.28.69,10.56-.27,15.86.14,6.22.34,12.45-.58,18.67.07,9.58-.09,19.17-.35,28.76-.23,3.07-.11,5.65,2.41,8.77,1.71,3.34-.46,7.2-.16,9.82-2.66,1.9-1.47,3.3-3.46,4.15-5.7l-.78.53c1.24-3.66,1.14-7.58,1.13-11.4-.31-13.97.29-27.95-.07-41.92-15.34-.5-30.71-.04-46.06-.21-107.99.08-216-.09-323.99.05-11.99.06-23.99-.27-35.98.14Z"/>
  </g>
  <g id="_x23_111011ff">
    <path class="st31" d="M57.1,113.91c-.14-1.25.3-2.96,1.8-3.11,4.43-.26,8.86,0,13.29-.05,1.04,2.62.69,5.47.73,8.22-.15,12.67.1,25.34-.14,38.01-.02,2.5-3.12,1.96-4.81,2.04-3.6-.34-7.63.92-10.88-1.05.07-14.69.21-29.38,0-44.06M59.65,113.06c.02,14.47.14,28.94-.07,43.41,3.56.03,7.13.28,10.68-.1.06-.62.17-1.86.23-2.48-1.67-.22-6.18.71-5.15-2.32,2.17-.43,5.85.83,5.05-2.73-.9-.02-2.68-.05-3.57-.06-.55-2.56,1.63-2.71,3.57-2.63.8-3.55-2.99-2.22-5.13-2.47-.05-.61-.14-1.82-.19-2.43,2.14-.33,5.91,1.09,5.48-2.38-1.5-.23-3.39.36-4.43-1.09.29-2.64,4.53-.09,4.39-2.83.12-2.17-2.9-.79-4.02-1.92-.08-2.43,2.46-1.65,4.04-1.9,1.44-4.95-6.31-.71-5.49-4.98,1.75-.05,3.5-.09,5.25-.12,0-.64-.01-1.92-.01-2.56-1.26-.29-3.09.37-3.66-1.23.99-1.01,2.28-1.5,3.87-1.44.93-4.24-5.08-.83-5.33-4.44,1.73-.27,3.47-.41,5.21-.49-.03-.69-.1-2.09-.13-2.79-3.53,0-7.06,0-10.59-.02Z"/>
    <path class="st31" d="M520.89,142.91c4.13-.5,1.73,5.12,4.76,6.4,1.6,1.24,3.53-.07,5.28-.23,5.14-1.68,10.19,5.81,6.84,9.91-.42-.27-1.25-.8-1.67-1.07-.19-2.34-.56-5.26-3.17-6.1-2.72-.1-5.46,1.91-8.11.42-3.84-1.28-4.35-5.89-3.93-9.33Z"/>
    <path class="st31" d="M78.28,154.43c5.27-.36,10.58-.05,15.86-.09-.05.6-.16,1.81-.22,2.42-5.01.48-10.07.37-15.09.18-1.6.38-2.3-2.55-.55-2.51Z"/>
  </g>
  <g id="_x23_0e0d0eff">
    <path class="st1" d="M491.31,111.31c.59-.07,1.76-.23,2.35-.3.63,2.37.71,5.95,3.73,6.57,2.52-.11,4.96-1.83,7.51-.78,2.95,1.14,4.38,4.3,4.5,7.3.53,1.32-.66,2.9-2.06,2.56-1-2.09-.64-4.94-2.67-6.41-2.68-1.93-5.83,1.31-8.71-.1-3.71-.99-5.24-5.36-4.65-8.84Z"/>
    <path class="st1" d="M77.46,131.47c8.47-.66,17.03-.03,25.54-.32,1.65-.29,4.19.56,2.56,2.53-8.84.39-17.73.16-26.58.17-1.26.19-2.36-1.31-1.52-2.38Z"/>
    <path class="st1" d="M77.47,137.48c1.34-.79,3.01-.44,4.49-.57,8,.07,16-.21,23.99.16-.04.65-.13,1.95-.17,2.6-8.9.03-17.81.08-26.71,0-1.18.13-2.43-1.07-1.6-2.19Z"/>
  </g>
  <g id="_x23_050405ff">
    <path class="st30" d="M77.7,112.66c3.64-.93,7.51-.21,11.24-.43,5.51.24,11.15-.47,16.57.28,1,2.97.2,6.39.28,9.52-9.45.16-18.92.24-28.36-.04.07-3.11-.27-6.25.27-9.33Z"/>
    <path class="st30" d="M507.28,400.31c.97-1.34,1.84-3.28,3.8-3.23,2.36.03,3.45,2.6,4.62,4.28,3.29,5.88,6.74,11.67,10.08,17.54-2.91-.22-6.86-.37-7.9,3.09-.3,4.5-.05,9.02-.1,13.53-8.25,0-16.51-.03-24.77-.09-4.5.09-3.8-5.55-1.6-7.96,5.31-9.04,10.44-18.19,15.87-27.16M508.93,409.04c.11,3.93-.47,7.97.37,11.83,1.08.31,2.21.44,3.33.61.82-3.75.55-7.63.6-11.44-.63-1.89-2.9-.93-4.3-1M509.41,424.5c-1.11,1.23-1.28,3.86.62,4.46,1.75,1.14,4.19-1.01,3.45-2.9-.1-2-2.62-2.52-4.07-1.56Z"/>
    <path class="st30" d="M84.07,401.1c1.45.31,3.72-.32,4.14,1.65-2.88,10.85-6.71,21.43-9.6,32.28-.34,2.58-3.15,1.36-4.79,1.02,2.72-11.83,6.87-23.3,10.25-34.95Z"/>
    <path class="st30" d="M521.32,422.28l.63-.58c5.65-.09,11.32.02,16.97.06,2,.41,1.74,2.7,1.77,4.22-.11,4.53.16,9.08-.14,13.6-.6,1.98-2.9,1.82-4.54,1.84-4.7-.15-9.4.1-14.09-.12-.25-.33-.77-1.01-1.02-1.35-.41-5.63-.21-11.31-.12-16.94l.54-.73Z"/>
  </g>
  <g id="_x23_0b0a0bff">
    <path class="st19" d="M520.73,117.76c2.86-2.78,5.7-6.73,10.21-6.32,5.41-.17,9.59,6.18,7.31,11.1-1.59,2.87-4.29,4.87-6.47,7.24-2,1.94-3.91,4.4-6.84,4.87-3.62.97-7.39-1.52-8.61-4.92,3.06-2.69,5.26,2.65,8.48,1.01,2.54-1.32,4.33-3.65,6.44-5.53,1.69-1.71,4.08-3.52,3.7-6.25.05-2.04-1.87-3.69-3.8-3.84-5.1-.83-6.8,8.21-11.95,5.62-.65-1.27.92-2.09,1.53-2.98Z"/>
    <path class="st19" d="M77.6,125.49c6.66,0,13.36-.37,19.99.17.01.59.01,1.79.02,2.39-6.76-.09-13.54.41-20.27-.24.06-.58.2-1.74.26-2.32Z"/>
    <path class="st19" d="M512.02,143.07c3.41-1.26,5.19-4.72,8.01-6.81,1.41.2,2.82.48,4.22.83-2.81,2.91-5.59,5.86-8.66,8.5-3.82,3.05-9.85,1.12-11.66-3.29.89-.5,1.79-.98,2.7-1.46,1.43,1.4,3.19,3.02,5.39,2.23Z"/>
    <path class="st19" d="M56.04,418.96c3.7-4.28,7.92-8.11,11.96-12.07.99,1.05,1.99,2.11,2.98,3.16-2.89,3-5.84,5.92-8.73,8.92,2.89,3,5.83,5.96,8.7,8.99-1.01,1.11-2.09,2.19-3.35,3.04-3.73-4.12-8.32-7.52-11.56-12.04Z"/>
    <path class="st19" d="M90.83,410.01c1.06-1.02,2.12-2.03,3.2-3.03,4.2,3.83,8.15,7.94,12.1,12.03-3.89,4.18-7.76,8.42-12.17,12.06-.85-1.16-3.75-2.5-2.07-4.07,2.51-2.77,5.27-5.3,7.76-8.09-2.94-2.97-6.06-5.76-8.82-8.9Z"/>
  </g>
  <g id="_x23_ebebf2ff">
    <path class="st21" d="M59.65,113.06c3.53.02,7.06.02,10.59.02.03.7.1,2.1.13,2.79-1.74.08-3.48.22-5.21.49.25,3.61,6.26.2,5.33,4.44-1.59-.06-2.88.43-3.87,1.44.57,1.6,2.4.94,3.66,1.23,0,.64.01,1.92.01,2.56-1.75.03-3.5.07-5.25.12-.82,4.27,6.93.03,5.49,4.98-1.58.25-4.12-.53-4.04,1.9,1.12,1.13,4.14-.25,4.02,1.92.14,2.74-4.1.19-4.39,2.83,1.04,1.45,2.93.86,4.43,1.09.43,3.47-3.34,2.05-5.48,2.38.05.61.14,1.82.19,2.43,2.14.25,5.93-1.08,5.13,2.47-1.94-.08-4.12.07-3.57,2.63.89,0,2.67.04,3.57.06.8,3.56-2.88,2.3-5.05,2.73-1.03,3.03,3.48,2.1,5.15,2.32-.06.62-.17,1.86-.23,2.48-3.55.38-7.12.13-10.68.1.21-14.47.09-28.94.07-43.41Z"/>
  </g>
  <g id="_x23_080708ff">
    <path class="st3" d="M513.79,124.7c3.66-3.27,11.03-1.73,11.92,3.46-.59.19-1.76.57-2.34.76-1.7-1.61-3.99-2.87-6.36-1.89-2.75,2.02-4.98,4.66-7.5,6.95-1.22-.35-2.42-.71-3.62-1.08,2.37-2.96,4.99-5.75,7.9-8.2Z"/>
    <path class="st3" d="M497.1,141.14c2.69-2.7,5.6-6.47,9.92-5.77,2.95.07,5.34,2.12,6.67,4.63-.62.3-1.85.88-2.47,1.17-1.89-1.35-4.26-3.03-6.63-1.69-3.42,2.19-6.05,5.44-8.78,8.41-2.13,2.22-.35,6.3,2.62,6.63,5.61,1.13,7.4-8.43,13.28-5.27-2.48,2.96-5.09,5.94-8.3,8.12-4.81,3.07-11.92-.51-12.26-6.21-.56-4.39,3.31-7.19,5.95-10.02Z"/>
  </g>
  <g id="_x23_141314ff">
    <path class="st26" d="M78.89,145.31c-2.07.56-2.08-3.08,0-2.47,8.94.04,17.91-.44,26.83.1.1.57.3,1.72.4,2.3-9.07.3-18.16.14-27.23.07Z"/>
  </g>
  <g id="_x23_121112ff">
    <path class="st17" d="M77.23,150.85c.11-.59.34-1.75.45-2.33,9.49.15,19-.25,28.48.2-.11.57-.33,1.71-.45,2.28-9.48.19-19.01.42-28.48-.15Z"/>
  </g>
  <g id="_x23_d9d7d5ff">
    <path class="st0" d="M463.06,291.43l.38-1.11c.98,8.53.42,17.12.5,25.68-.13,6.8.42,13.64-.37,20.42-1.42-3.99-.77-8.27-.84-12.4.35-10.86-.65-21.76.33-32.59Z"/>
  </g>
  <g id="_x23_dedcdaff">
    <path class="st20" d="M465.71,346.02c4.86,1.06,9.36,4.03,14.49,3.52,14.59-.69,29.19-.04,43.78-.34,25.34.57,50.68-.15,76.02.17,19.67.35,39.33-.48,59-.12,8.96.68,17.94-.23,26.92.03,23.4-.24,46.81-.16,70.21.06,12.7-.08,25.41-.6,38.09.04,17.04.08,34.08-.41,51.12-.19.1.35.29,1.06.39,1.42,7.03-.32,14.38.91,21-2.16-2.65,4.12-8.32,4.1-12.69,4.4-95.34-.01-190.71.08-286.06-.03-17.71.12-35.44.26-53.15-.22-12.64.56-25.28-.01-37.92.29-2.39,0-4.93-.06-7.02-1.37-1.39-1.85-2.77-3.68-4.18-5.5Z"/>
    <path class="st20" d="M127.23,646.8c18.59.81,37.21.12,55.81.39,20.98.25,41.97-.51,62.93.44,14.74.07,29.51-.3,44.24.32,7.89-.79,15.82-.23,23.73-.35,8.45.08,16.9-.32,25.33.37,6.99-.54,14-.51,20.99.04,5.18-.38,10.39-.74,15.55.23,9.7.49,19.44.13,29.14-.2-.2.57-.6,1.7-.81,2.27-5.41.48-10.84-.07-16.24.46-4.75.32-9.48-.7-14.23-.31-8.85.54-17.71-.28-26.56.2-8.31-.43-16.63.4-24.94-.26-14.93.24-29.85.11-44.78.07-10.01.96-20.08.82-30.13.69-12.74.51-25.49.36-38.24.41-26.97-1.46-54.01.01-81.01-.61-8.34.36-16.72.61-25.06,0-5.11-.32-10.11,1.27-15.22,1.12-11.3-.86-22.65.01-33.97-.64-5.57-.34-11.33.92-16.68-1.24-.4-.64-1.2-1.91-1.6-2.55,3.54-.32,7.01.73,10.56.59,5.35.13,10.6-1.32,15.96-1.13,11.65.22,23.31-.27,34.96.02,10.09-.04,20.2.32,30.27-.33Z"/>
  </g>
  <g id="_x23_e4f1eaff">
    <path class="st22" d="M30.72,379.71c3.49-5.54,10.69-4.67,16.32-4.57,126.31-.07,252.64.06,378.95-.05,3.92-.19,7.94,1.56,10.01,4.98.33,1.94.47,3.91.53,5.87-.13,25.42.14,50.84-.18,76.25-109.45.24-218.9.01-328.34.12-26.04-.16-52.08.21-78.11-.17-.23-3.54-.33-7.08.04-10.61,1.84-4.3,1.01-9.03,1.12-13.55.04-13.66-.09-27.31.02-40.96.26-5.81-2.24-11.58-.36-17.31M84.07,401.1c-3.38,11.65-7.53,23.12-10.25,34.95,1.64.34,4.45,1.56,4.79-1.02,2.89-10.85,6.72-21.43,9.6-32.28-.42-1.97-2.69-1.34-4.14-1.65M56.04,418.96c3.24,4.52,7.83,7.92,11.56,12.04,1.26-.85,2.34-1.93,3.35-3.04-2.87-3.03-5.81-5.99-8.7-8.99,2.89-3,5.84-5.92,8.73-8.92-.99-1.05-1.99-2.11-2.98-3.16-4.04,3.96-8.26,7.79-11.96,12.07M90.83,410.01c2.76,3.14,5.88,5.93,8.82,8.9-2.49,2.79-5.25,5.32-7.76,8.09-1.68,1.57,1.22,2.91,2.07,4.07,4.41-3.64,8.28-7.88,12.17-12.06-3.95-4.09-7.9-8.2-12.1-12.03-1.08,1-2.14,2.01-3.2,3.03Z"/>
    <path class="st22" d="M29.92,462.82c28.69-.29,57.39,0,86.09-.12,106.77.06,213.54-.07,320.31.06.37,18.07.05,36.16.17,54.23-.16,23.05.33,46.12-.18,69.16-135.4.11-270.8.08-406.2-.01-1.03-23.08.08-46.21-.6-69.3v-.64c.62-17.78-.15-35.59.41-53.38Z"/>
  </g>
  <g id="_x23_f2e5e4ff">
    <path class="st14" d="M469.33,375.48c3.18-.59,6.45-.21,9.67-.25,124.35-.06,248.7-.02,373.05-.01,3.29.18,6.86-.79,9.99.47,1.14.91,2.43,1.63,3.9,1.95.16.11.47.33.63.43.44.49,1.32,1.45,1.75,1.93.11.11.31.32.41.43,1.26,4.42.7,9.04.74,13.56-.04,22.73.09,45.46-.08,68.19-102.46.11-204.93-.06-307.4.06-32.76-.14-65.53.07-98.28-.19-.36-25.02-.11-50.04-.11-75.06-1.89,11.04-.65,22.25-1.2,33.37-1.89-.72-1.72-2.76-1.78-4.37.19-11.13-1.1-22.66,2.7-33.36.94-3.08,3.36-5.45,6.01-7.15M507.28,400.31c-5.43,8.97-10.56,18.12-15.87,27.16-2.2,2.41-2.9,8.05,1.6,7.96,8.26.06,16.52.08,24.77.09.05-4.51-.2-9.03.1-13.53,1.04-3.46,4.99-3.31,7.9-3.09-3.34-5.87-6.79-11.66-10.08-17.54-1.17-1.68-2.26-4.25-4.62-4.28-1.96-.05-2.83,1.89-3.8,3.23M521.32,422.28l-.54.73c-.09,5.63-.29,11.31.12,16.94.25.34.77,1.02,1.02,1.35,4.69.22,9.39-.03,14.09.12,1.64-.02,3.94.14,4.54-1.84.3-4.52.03-9.07.14-13.6-.03-1.52.23-3.81-1.77-4.22-5.65-.04-11.32-.15-16.97-.06l-.63.58Z"/>
    <path class="st14" d="M868.43,379.33c.1.18.3.56.4.75l-.51-.08.11-.67Z"/>
    <path class="st14" d="M868.83,380.08c.04.18.12.55.16.73l-.26-.38.1-.35Z"/>
    <path class="st14" d="M463.72,462.85c135.23-.12,270.45-.11,405.67-.01.15,40.72.14,81.46.03,122.16-17.13.31-34.26.04-51.38.12-1.85.04-3.63.46-5.42.82-15.85.78-31.74.09-47.6.34-100.43-.13-200.87.15-301.3-.12-.29-41.1-.22-82.21,0-123.31Z"/>
    <path class="st14" d="M463.71,586.74c134.93.01,269.87-.11,404.8.05,2.46,9.56-.18,19.59,1.54,29.27-.07.82-.2,2.45-.27,3.27v.09c0,.07,0,.2.02.26.09.67.27,2.02.36,2.69-1.34.32-1.43,1.04-.27,2.17l-.2.91c-.02.15-.06.44-.08.59l-.06.95c-.01.12-.02.36-.03.48l.02.19c.03.6.09,1.8.12,2.4.01.12.03.37.04.5.27,2.01.49,4.02.49,6.07l-.59-.14c-.04.41-.1,1.24-.14,1.66l-.22.44c-.17.51-.5,1.52-.66,2.03-1.53.37-2.91,1.1-3.89,2.35-9.2.92-18.46-.04-27.68.29-118.65-.06-237.29-.03-355.94.02-4.98-.26-10.97,1.33-15-2.46-2.32-1.91-2.66-5.05-2.54-7.85.17-15.41-.17-30.82.18-46.23Z"/>
  </g>
  <g id="_x23_e0deddff">
    <path class="st24" d="M869.67,382.76c4.75,8.37,3.66,18.34,3.92,27.59.36,7.56-.7,15.14.07,22.69.38,5.32-.22,10.66.08,15.99.32,6.31-.87,12.58-.44,18.9.38,7.37.26,14.74-.03,22.11.75,20.19-.25,40.39.22,60.59-.46,21.71.24,43.44,0,65.16-.45,8.72.95,17.59-1.32,26.17-.19.3-.58.89-.77,1.18-.68.15-2.03.45-2.7.6.67-1.84,1.2-3.75,1.38-5.69.27-.27.82-.81,1.09-1.08-1.37-6.92.07-13.99-1.12-20.91-.87-8-.09-16.06-.5-24.08-.37-4.36.97-8.67.37-13.01-.71-6.65-.14-13.34-.3-20,.02-58.74-.08-117.47.05-176.21Z"/>
    <path class="st24" d="M812.62,585.94c1.79-.36,3.57-.78,5.42-.82,17.12-.08,34.25.19,51.38-.12-.25.36-.75,1.07-1.01,1.43-18.59-.59-37.21.32-55.79-.49Z"/>
    <path class="st24" d="M869.77,619.42v-.09s.03.35.03.35c-.01-.06-.02-.19-.03-.26Z"/>
    <path class="st24" d="M869.89,624.54c-1.16-1.13-1.07-1.85.27-2.17-.07.54-.2,1.62-.27,2.17Z"/>
    <path class="st24" d="M869.61,626.04c.02-.15.06-.44.08-.59l-.08.59Z"/>
    <path class="st24" d="M869.52,627.47c.01-.12.02-.36.03-.48v.67s-.03-.19-.03-.19Z"/>
    <path class="st24" d="M869.7,630.56c-.01-.13-.03-.38-.04-.5l.04.5Z"/>
    <path class="st24" d="M869.6,636.49l.59.14c-.03.36-.08,1.06-.11,1.42l-.62.1c.04-.42.1-1.25.14-1.66Z"/>
    <path class="st24" d="M868.58,640.62c.16-.51.49-1.52.66-2.03-.17.51-.5,1.52-.66,2.03Z"/>
    <path class="st24" d="M864.69,642.97c.98-1.25,2.36-1.98,3.89-2.35-1.07,1.67-2.15,3.34-3.39,4.89-.12-.63-.37-1.91-.5-2.54Z"/>
    <path class="st24" d="M464.6,644.03c3.48,1.57,6.64,4.48,10.65,4.43,6.26.26,12.53-.14,18.79.28,4.94.49,9.87-.46,14.82-.29,12.97.22,25.94-.02,38.91.07,3.81.15,7.48-1.09,11.27-1.28,54.32.13,108.65-.03,162.98-.03,18.43-.09,36.87.43,55.28-.33,12.88,1.05,25.81.06,38.72.37,15.65-.15,31.39.62,46.94-1.42-.15.64-.45,1.93-.6,2.57-2.69,1-5.49,1.99-8.4,1.86-2.78-.11-5.61-.58-8.32.25-4.62,1.3-9.35-.01-14.02,0-40.54,1.23-81.11.06-121.65.52-8.97-.6-17.95.48-26.92-.18-4.83-.42-9.65,1.08-14.43-.09-6.02-.12-12.05.34-18.07-.17-9.52.72-19.06-.09-28.59.37-8.87-.37-17.75,0-26.62-.39-7.77.49-15.56.43-23.34.47-10.07-.26-20.16.49-30.19-.45-5.8.04-11.6.93-17.4.15-16.33-.13-32.7.89-49.03-.26-2-.19-4.05-.36-5.93-1.08-2.36-.96-3.56-3.36-4.85-5.37Z"/>
    <path class="st24" d="M862.96,645.83c.56-.08,1.68-.24,2.23-.32l-.5.64c-.43-.08-1.29-.24-1.73-.32Z"/>
    <path class="st24" d="M866.88,645.84c.11-.11.33-.33.44-.44-.11.11-.33.33-.44.44Z"/>
    <path class="st24" d="M866.05,646.43c.21-.15.62-.45.83-.59-.21.14-.62.44-.83.59Z"/>
    <path class="st24" d="M864.36,647.49c.16-.09.48-.28.64-.37-.16.09-.48.28-.64.37Z"/>
  </g>
  <g id="_x23_c3c2c1ff">
    <path class="st27" d="M436.53,385.94c.27,3.76.96,7.48.94,11.26.01,20.26-.02,40.53.01,60.79,1.14,6.3.35,12.66,0,18.99-.08,53.36.02,106.71-.02,160.06.16,5.66-3.77,11.57-9.53,12.57-7.83,1.65-15.87.29-23.8.7.21-.57.61-1.7.81-2.27-9.7.33-19.44.69-29.14.2-5.16-.97-10.37-.61-15.55-.23-6.99-.55-14-.58-20.99-.04-8.43-.69-16.88-.29-25.33-.37-7.91.12-15.84-.44-23.73.35-14.73-.62-29.5-.25-44.24-.32-20.96-.95-41.95-.19-62.93-.44-18.6-.27-37.22.42-55.81-.39-10.07.65-20.18.29-30.27.33-11.65-.29-23.31.2-34.96-.02-5.36-.19-10.61,1.26-15.96,1.13-3.55.14-7.02-.91-10.56-.59-1.83-1.88-3.86-3.73-4.71-6.3-.04-.57-.12-1.71-.16-2.28,2.34,2.16,4.94,4.56,8.4,4.25,129.32.06,258.64,0,387.95.02,3,.05,6.24-.89,7.99-3.5,1.79-2.2,1.56-5.16,1.61-7.81-.2-15.08.16-30.17-.17-45.26-104.46-.32-208.93-.02-313.4-.12-30.95.1-61.92-.17-92.87.12v-.63c135.39.09,270.79.12,406.19.01.51-23.04.02-46.11.18-69.16-.12-18.07.2-36.16-.17-54.23-106.77-.13-213.54,0-320.31-.06-28.7.12-57.4-.17-86.09.12-.56,17.79.21,35.6-.41,53.38-.58-7.38-.21-14.79-.33-22.18.23-34.03-.11-68.06.29-102.08.68,19.85-.22,39.74.47,59.59-.37,3.53-.27,7.07-.04,10.61,26.03.38,52.07,0,78.11.17,109.44-.11,218.89.12,328.34-.12.32-25.41.05-50.83.18-76.25Z"/>
    <path class="st27" d="M463.6,386.99c0,25.02-.25,50.04.11,75.06,32.75.26,65.52.05,98.28.19,102.47-.12,204.94.05,307.4-.06v.66c-135.22-.1-270.44-.11-405.67.01-.22,41.1-.29,82.21,0,123.31,100.43.27,200.87,0,301.3.12,15.86-.25,31.75.44,47.6-.34,18.58.81,37.2-.1,55.79.49l.1.36c-134.93-.16-269.87-.04-404.8-.05-.35,15.41,0,30.82-.18,46.23-.12,2.8.22,5.94,2.54,7.85,4.03,3.79,10.02,2.2,15,2.46,118.65-.05,237.29-.08,355.94-.02,9.22-.33,18.48.63,27.68-.29.13.63.38,1.91.5,2.54-.55.08-1.67.24-2.23.32-15.55,2.04-31.29,1.27-46.94,1.42-12.91-.31-25.84.68-38.72-.37-18.41.76-36.85.24-55.28.33-54.33,0-108.66.16-162.98.03-3.79.19-7.46,1.43-11.27,1.28-12.97-.09-25.94.15-38.91-.07-4.95-.17-9.88.78-14.82.29-6.26-.42-12.53-.02-18.79-.28-4.01.05-7.17-2.86-10.65-4.43-1.16-1.81-2.24-3.79-2.09-6,.06-41.32.02-82.65.02-123.98-.06-4.59.49-9.28-.87-13.75,1.52-4.59.52-9.48.79-14.21-.2-5.84.62-11.77-.67-17.53-.7-5.19-.26-10.45.63-15.59.1-10.86.03-21.74-.01-32.61.55-11.12-.69-22.33,1.2-33.37Z"/>
  </g>
  <g id="_x23_eee2e0ff">
    <path class="st28" d="M508.93,409.04c1.4.07,3.67-.89,4.3,1-.05,3.81.22,7.69-.6,11.44-1.12-.17-2.25-.3-3.33-.61-.84-3.86-.26-7.9-.37-11.83Z"/>
  </g>
  <g id="_x23_efe4e3ff">
    <path class="st23" d="M509.41,424.5c1.45-.96,3.97-.44,4.07,1.56.74,1.89-1.7,4.04-3.45,2.9-1.9-.6-1.73-3.23-.62-4.46Z"/>
  </g>
  <g id="_x23_eeedecff">
    <path class="st2" d="M459.79,501.96c.47-.41,1.4-1.24,1.87-1.66,1.36,4.47.81,9.16.87,13.75,0,41.33.04,82.66-.02,123.98-.15,2.21.93,4.19,2.09,6,1.29,2.01,2.49,4.41,4.85,5.37,1.88.72,3.93.89,5.93,1.08,16.33,1.15,32.7.13,49.03.26,5.8.78,11.6-.11,17.4-.15,10.03.94,20.12.19,30.19.45,7.78-.04,15.57.02,23.34-.47,8.87.39,17.75.02,26.62.39,9.53-.46,19.07.35,28.59-.37,6.02.51,12.05.05,18.07.17,4.78,1.17,9.6-.33,14.43.09,8.97.66,17.95-.42,26.92.18,40.54-.46,81.11.71,121.65-.52,4.67-.01,9.4,1.3,14.02,0,2.71-.83,5.54-.36,8.32-.25,2.91.13,5.71-.86,8.4-1.86.5-.23,1.5-.68,2-.91.16-.09.48-.28.64-.37l1.05-.69c.21-.15.62-.45.83-.59.11-.11.33-.33.44-.44.34-.41,1.03-1.25,1.38-1.66.67-.15,2.02-.45,2.7-.6-.25,4.48-5.44,6.39-6.66,10.61-.41-.38-.8-.74-1.17-1.1-3.99,1.88-8.51,1.91-12.63,3.4-5.86.65-11.87.72-17.64-.56-6.77,1.61-13.84,1.11-20.71.32-10.54,1.24-21.23.57-31.79.1-3.21.18-6.4-.28-9.55.59-6.9-1.41-13.95-.16-20.91-.66-4.54.11-9.26,1.47-13.69-.09-2.22,1.7-4.91-.41-7.39-.12-6.61,1.3-13.43-1.07-20.01.69-6.31.11-12.7.52-18.94-.62-3.32,1.76-6.82-.26-10.29.05-3.35,0-6.73,1.32-10.02.31-3.17-1.01-6.49-.1-9.72-.33-5.09-.29-10.12.89-15.2.71-6.58-.1-13.19.44-19.72-.53-4.67,1.06-9.32-.44-14-.05-5.14,1.2-10.41.22-15.62.69-3.95.35-7.85-1.26-11.77-.41-3.03.69-6.04-.58-9.06-.14-1.44.21-2.86.03-4.27-.19-8.66,1.43-17.68.28-26.44-.18-3.11.05-6.14,1.12-9.25.8-4.89-.5-9.96-1.54-14.76.04-5.94-1.52-12.15-.86-18.14-.04-1.82.28-3.46-1.05-5.26-.81-5.79,1.53-11.83.53-17.74.58-8.1-.38-14.05-6.94-17.85-13.5-2.98-5.93-.48-12.52-1.52-18.74-.12-16.98,0-33.97-.1-50.94,0-2.38.72-4.71.39-7.08-.71-4.96-.08-9.98-.42-14.97.02-2.52-.67-5.26.65-7.57-1.28-7.71-.26-15.59-.61-23.37,1.23-6.02-.78-12.04.2-18.07Z"/>
  </g>
  <g id="_x23_e3f0e9ff">
    <path class="st16" d="M30.12,586.77c30.95-.29,61.92-.02,92.87-.12,104.47.1,208.94-.2,313.4.12.33,15.09-.03,30.18.17,45.26-.05,2.65.18,5.61-1.61,7.81-1.75,2.61-4.99,3.55-7.99,3.5-129.31-.02-258.63.04-387.95-.02-3.46.31-6.06-2.09-8.4-4.25-.18-3.48-.22-6.96-.25-10.43,1.28-6.13.48-12.39.62-18.58-.28-7.52,1.02-15.22-.85-22.59v-.7Z"/>
  </g>
  <g class="st7">
    <g class="st7">
      <text class="st6" transform="translate(50.12 323.57)"><tspan x="0" y="0">Threshold: &lt; 100 chars or &gt; 2M chars</tspan></text>
    </g>
  </g>
  <g class="st7">
    <g class="st7">
      <text class="st10" transform="translate(55.42 212.05)"><tspan class="st11" x="0" y="0">Too short:</tspan><tspan class="st13" x="93.92" y="0" xml:space="preserve"> Hello world</tspan></text>
    </g>
  </g>
  <g class="st7">
    <g class="st7">
      <text class="st10" transform="translate(57.78 257.88)"><tspan class="st11" x="0" y="0">Too long: </tspan><tspan class="st13" x="91.01" y="0">[very long repeated text......]</tspan></text>
    </g>
  </g>
  <g class="st7">
    <g class="st7">
      <text class="st5" transform="translate(137.08 147.77)"><tspan x="0" y="0">Length Outlier</tspan></text>
    </g>
  </g>
  <g class="st7">
    <g class="st7">
      <text class="st8" transform="translate(269.45 56.71)"><tspan x="0" y="0">Heuristic Cleaning Rules</tspan></text>
    </g>
  </g>
  <g class="st7">
    <g class="st7">
      <text class="st5" transform="translate(547.6 148.59)"><tspan x="0" y="0">Abnormal Avg Token Length</tspan></text>
    </g>
  </g>
  <g class="st7">
    <g class="st7">
      <text class="st9" transform="translate(492.88 209.33)"><tspan x="0" y="0">asdkfjaskdfj123123asdfasdf</tspan></text>
    </g>
  </g>
  <g class="st7">
    <g class="st7">
      <text class="st9" transform="translate(487.67 257.29)"><tspan x="0" y="0">http://example.com/verylongurlstring...</tspan></text>
    </g>
  </g>
  <g class="st7">
    <g class="st7">
      <text class="st6" transform="translate(565.96 323.76)"><tspan x="0" y="0">avg token length &gt; 15</tspan></text>
    </g>
  </g>
  <g class="st7">
    <g class="st7">
      <text class="st5" transform="translate(119.88 426)"><tspan x="0" y="0">High Symbol Density</tspan></text>
    </g>
  </g>
  <g class="st7">
    <g class="st7">
      <text class="st5" transform="translate(562.17 432.1)"><tspan x="0" y="0">Blacklist Phrase</tspan></text>
    </g>
  </g>
  <g class="st7">
    <g class="st7">
      <text class="st9" transform="translate(102.58 504.83)"><tspan x="0" y="0">{ [ &lt;div&gt; ] } { { } } &lt; &gt;</tspan><tspan x="10.25" y="25.2">[ &lt;div &gt; ] } { [ ] &lt; &gt; \</tspan><tspan x="72.55" y="50.4">{ } } }</tspan></text>
    </g>
  </g>
  <g class="st7">
    <g class="st7">
      <text class="st6" transform="translate(119.75 622.94)"><tspan x="0" y="0">high ratio of { } [ ] &lt; &gt; \</tspan></text>
    </g>
  </g>
  <g class="st7">
    <g class="st7">
      <text class="st6" transform="translate(504.59 623.12)"><tspan x="0" y="0">common low-value boilerplate text</tspan></text>
    </g>
  </g>
  <g class="st7">
    <g class="st7">
      <text class="st9" transform="translate(552.77 492.19)"><tspan x="0" y="0">lorem ipsum dolor sit amet</tspan><tspan x="1.48" y="25.2">enable cookies to continue</tspan><tspan x="53.96" y="50.4">403 forbidden</tspan></text>
    </g>
  </g>
</svg>