<?xml version="1.0" encoding="UTF-8"?>
<svg id="_图层_1" data-name="图层_1" xmlns="http://www.w3.org/2000/svg" version="1.1" viewBox="0 0 900 503">
  <!-- Generator: Adobe Illustrator 29.6.0, SVG Export Plug-In . SVG Version: 2.1.1 Build 207)  -->
  <defs>
    <style>
      .st0 {
        fill: #605f5f;
      }

      .st1 {
        fill: #c0c1c1;
      }

      .st2 {
        fill: #cbcccc;
      }

      .st3 {
        font-size: 21px;
      }

      .st3, .st4 {
        font-family: TimesNewRomanPS-BoldMT, 'Times New Roman';
        font-weight: 700;
      }

      .st5 {
        fill: #d3d4d3;
      }

      .st6 {
        fill: #d4d5d4;
      }

      .st7 {
        fill: #dddedd;
      }

      .st8 {
        fill: #d2d3d2;
      }

      .st9 {
        fill: #f4f7f8;
      }

      .st10 {
        fill: #fff;
      }

      .st11 {
        fill: #dbdcdb;
      }

      .st12 {
        font-size: 25px;
      }

      .st12, .st13, .st14, .st15 {
        font-family: TimesNewRomanPSMT, 'Times New Roman';
      }

      .st16 {
        fill: #cecece;
      }

      .st17 {
        fill: #80817f;
      }

      .st18 {
        fill: #c3c4c4;
      }

      .st19 {
        fill: #f5f9fb;
      }

      .st20 {
        fill: #acacac;
      }

      .st21 {
        fill: #a6a6a7;
      }

      .st13 {
        font-size: 13px;
      }

      .st22 {
        fill: #bebfbe;
      }

      .st23 {
        fill: #828382;
      }

      .st24 {
        fill: #7c7d7b;
      }

      .st25 {
        fill: #181718;
      }

      .st26 {
        fill: #adaead;
      }

      .st27 {
        fill: #999a99;
      }

      .st14 {
        font-size: 15px;
      }

      .st28 {
        fill: #4a4a49;
      }

      .st29 {
        fill: #6a6a69;
      }

      .st30 {
        fill: #e2e3e4;
      }

      .st31 {
        fill: #a8a8a8;
      }

      .st32 {
        fill: #f4f6f7;
      }

      .st33 {
        fill: #d7d8d7;
      }

      .st34 {
        fill: #a9a9a8;
      }

      .st35 {
        fill: #0a090a;
      }

      .st36 {
        fill: #f7f9f9;
      }

      .st37 {
        fill: #838482;
      }

      .st38 {
        fill: #eaebeb;
      }

      .st15 {
        font-size: 19px;
      }

      .st4 {
        font-size: 35px;
      }

      .st39 {
        fill: #d1d1d1;
      }

      .st40 {
        fill: #b5b6b5;
      }

      .st41 {
        fill: #b8b9b8;
      }

      .st42 {
        fill: #afafaf;
      }
    </style>
  </defs>
  <g id="_x23_f5f9fbff">
    <path class="st19" d="M0,0h900v503H0V0M31.91,95.89c-4.1,1.5-4.98,5.73-6.05,9.46-1.19,23.2-.12,46.45-.54,69.67.08,59.89-.18,119.79.2,179.67-.3,8.82-.23,17.65.01,26.47.17,11.96-.74,23.94.22,35.89-.19,5.64-.56,11.29-.19,16.94-.18,10.62-.17,21.24-.11,31.86.14,4.3.19,8.79,1.99,12.78,3.37,5.55,10.26,7.95,16.51,7.51,11.35.37,22.71.19,34.05-.26.99.34,1.89.91,2.81,1.41.28-.36.85-1.09,1.13-1.46,3.32.72,6.69.38,10.03.04,9.01.33,18.07.88,27.06-.1,6.97.68,13.94.57,20.92.05,12.77,1.19,25.58-.09,38.35.42,2.53-.11,5.17-.23,7.44,1.05.31-.36.93-1.07,1.25-1.43,6.3.61,12.66.39,18.98.21.32.3.97.88,1.29,1.17,3.96-1.74,8.32-.66,12.49-1.01,3.75-.37,7.53,0,11.29-.26,1.43-.32,2.56.71,3.72,1.35.3-.37.91-1.12,1.21-1.5,8.54,1.82,17.17-.86,25.75.34,5.09-.58,10.18-.28,15.27.13,10.99-.39,21.99.25,32.98-.22.31.29.93.88,1.24,1.17,2.05-1.08,4.36-1.34,6.41-.09.37-.24.74-.48,1.11-.7.7.35,1.4.7,2.1,1.06,4.57-1.95,9.85-1.98,14.12-4.59,3.21-3.38,5.92-7.86,5.58-12.69-.28-6.21.96-12.36.78-18.56,0-8.76-.33-17.51-.34-26.27-.93-3.69-.41-7.44.14-11.15-1.22-15.3-.27-30.68-.68-46.01.52-7.24-1.31-14.45-.07-21.65.76-13.61-.72-27.31.88-40.88.33-3.92-.81-7.78-.49-11.7.2-3.41,1.09-6.79.79-10.22-.27-2.63-1.99-5.01-1.55-7.71,1.19-8.35.89-16.82,1.08-25.21-1.55-5.78-.38-11.84.35-17.64-.89-7.05-.88-14.15-.98-21.23.35-21.68.11-43.37.14-65.05-.37-4.69.8-9.32.52-14.01-.23-10.21.69-20.62-1.71-30.64-.43-2.6-2.83-4.05-4.76-5.51-.85-3.32-4.38-5.03-7.6-4.87-58.7-.03-117.4-.02-176.1,0-4.62.28-9.24.29-13.86,0-25.03.03-50.06-.06-75.08.17-8.36-.37-16.72-.13-25.07.24-2.23,0-3.75,1.97-5.01,3.57M620.3,94.94c.06.29.17.87.22,1.16l-.07,1.35c-1.16.8-2.59,1.43-3.08,2.86-1.96,4.27-2.83,9.01-2.94,13.69.06,17.89.29,35.77.04,53.66.56,24.77-.47,49.56.59,74.33-.23,3.07-.89,6.15-.43,9.24,1.03,7.7.88,15.56-.8,23.15,1.48,6.21.6,12.59.82,18.91-.28,9.69.22,19.38-.16,29.08-.35,10.77,1.32,21.52.24,32.26.17,10.12-.33,20.25,0,30.38.25,4.7-.4,9.41.19,14.09.82,6.54-.84,13.08-.2,19.63.8,5.06-.71,10.09-.26,15.15.74,6.35.08,12.76.54,19.12.93,6.35-1.18,12.7-.09,19.05.19,4.15,2.74,7.66,5.33,10.71,2.29,1.83,5.21,2.58,7.9,3.66.52-.3,1.06-.59,1.6-.87,3.56,1.02,7.3,1.05,10.96.66,5.11-.66,10.25.46,15.37-.12,5.31-.66,10.64.38,15.96-.08,5.43.31,10.85-.54,16.28.08,4.59-.46,9.2.65,13.78-.11,6.6-.81,13.22.42,19.84.1,6.03.35,12.05-.73,18.08-.12,4.93.53,9.89-.7,14.8.36,9.06.08,18.12-1.06,27.19-.36,5.3.74,10.61-.77,15.91.12,5.6.89,11.27-1.61,16.8.08,4.99-2.03,10.27,1.44,15.17-.82,5.56,1.82,11.71,1.19,17.41.3,4.1,1.32,8.36.09,12.54-.06,3.63.01,6.85-1.99,9.76-3.96,4.03-3.82,4.94-9.64,5.7-14.88.4-19.03-.06-38.09.15-57.13-.25-11.86.5-23.75-.19-35.6.53-9.38.15-18.79-.17-28.16.8-8.83.55-17.71.31-26.56.41-11.72-.02-23.45-.13-35.18.18-3.38.27-6.79-.25-10.15-.86-5.56.34-11.11.41-16.67-.16-13.03-1.29-26.06-.31-39.09-.66-12.7-.65-25.47-.12-38.18,1.27-6.5-1.16-12.99-.02-19.48.85-6.19-.94-12.38.01-18.56.64-3.34.14-6.7-.42-10,1.73-9.09,1.03-18.47-.44-27.55-.97-3.28-2.31-6.93-5.61-8.51l-.21-.88c-.6,5.27-.16,10.59-.28,15.88-.17,30.81.26,61.64-.2,92.44-1.26-6.07-.54-12.27-.7-18.41-.09-26.31.02-52.62-.04-78.94-.1-4.38.9-9.24-1.95-13.01l1.64-.05c-3.31-1.75-7.14-1.14-10.73-1.24-76.02.12-152.04.08-228.06.09-2.95-.28-5.82.8-7.68,3.14M437.13,259.54c-1,.85-2.12,1.62-2.77,2.78-3.05,4.27-.21,10.25-4.17,14.18-4.27-1.85-8.28-4.23-12.31-6.54.03,1.99.07,3.99.11,5.98-25.02-.09-50.05,0-75.08-.03v2.11c25.02.06,50.04.04,75.05.03-.03,1.84-.05,3.68-.06,5.53,4-2.38,8.31-4.28,12.15-6.94,4.43,3.37.39,8.97,2.06,13.39,2.05,5.01-.25,11.06,3.25,15.53,1.82,3.17,5.6,4.25,8.93,5,10.44,1.85,21.07.36,31.6.78,7.37.31,14.74-.32,22.11,0,6.03.24,12.62-.85,17.2-5.07,3.55-5.4,3.28-12.19,3.14-18.4.41-6.04-.24-12.08.17-18.11.21-2.48-1.57-4.41-2.43-6.58-1.04-2.12-.94-5-3.39-6.11-1.68-2.58-4.76-3.31-7.67-3.13-20.7.06-41.41-.13-62.1.11-3.15-.24-5.77,2.41-5.79,5.49M598.54,270.06c.09,1.95.2,3.91.3,5.86-26.27,0-52.55-.02-78.82,0,.15.5.44,1.51.58,2.02,26.06.21,52.13.12,78.2.03-.04,1.84-.06,3.68-.08,5.53,4.1-2.23,8.21-4.46,12.31-6.7-4.09-2.38-8.37-4.42-12.49-6.75Z"/>
  </g>
  <g id="_x23_0a090aff">
    <path class="st35" d="M31.91,95.89c1.26-1.6,2.78-3.57,5.01-3.57,8.35-.37,16.71-.61,25.07-.24,25.02-.23,50.05-.14,75.08-.17,4.62.29,9.24.28,13.86,0,58.7-.01,117.4-.02,176.1,0,3.22-.16,6.75,1.55,7.6,4.87.37,9.07.06,18.15.32,27.22.57,6.01-.62,12.01-.03,18.01.55,10.32.16,20.65-.23,30.96.41,14-.16,28,.1,42,.69,7.32-.58,14.66.07,21.99.5,4.37-.1,8.74-.13,13.11.13,31.95-.05,63.9.1,95.85.05,23.35-.3,46.73.2,70.08-.61,12.97-.1,25.97.08,38.95-.63,5.54.38,11.26-1.16,16.68-2,1.5-4.42,2.3-6.93,2.11-96.35-.08-192.71-.04-289.06-.01-2.68.39-4.38-1.93-6.09-3.56-.41-2.72-.5-5.47-.48-8.2.15-117.67-.01-235.33.04-353,.08-4.37-.16-8.76.48-13.09M36.29,93.31c-2.84.82-4.16,3.85-3.89,6.62.08,122.23-.01,244.46.07,366.68-.47,3.63,2.89,6.76,6.45,6.31,96.03,0,192.07.05,288.09.03,2.83.35,6.34-.83,6.7-4.07,1.13-17.26-.38-34.57.34-51.85.41-4.68-.28-9.36-.18-14.04.12-51.34-.09-102.66.03-154.01.87-8.99-.67-17.99.35-26.98-.46-12.33-.56-24.68-.08-37.01-.75-15.68.88-31.39-.26-47.07.51-13.3.28-26.64-.1-39.95.01-3.46-3.66-5.37-6.74-5.21-88.69.04-177.39-.03-266.08.05-8.23-.05-16.49-.27-24.7.5Z"/>
    <path class="st35" d="M304.47,102.57c5.98-.35,12.07-.33,18.04.14,2.96,2.27,1.1,6.99,1.63,10.27-.47,2.83,1.43,7.52-2.18,8.73-5.32.22-10.65.01-15.97.1-1.63.24-3.6-1.03-3.43-2.81-.12-4.36-.07-8.72-.04-13.08-.16-1.38.43-3.06,1.95-3.35M305.03,104.33c-1.5,3.05,3.31.11,0,0M307.18,104.18c-.53,1.62.03,2.17,1.67,1.64.52-1.62-.04-2.17-1.67-1.64M310.09,104.23c-1.5,3.06,3.31.12,0,0M304.07,107.66c.03,4.15-.04,8.31.1,12.47,6.07.35,12.15.11,18.22.08.36-4.16.23-8.33.12-12.49-6.15.02-12.3-.12-18.44-.06Z"/>
    <path class="st35" d="M306.14,109.86c2.35-.01,4.7-.01,7.06,0,0,2.74.02,5.49.04,8.24-2.4-.07-4.8-.16-7.2-.2.06-2.68.1-5.36.1-8.04Z"/>
    <path class="st35" d="M314.4,110.22c2.17-.06,5.28-1.2,6.69,1.13-2.21-.14-5.27,1.21-6.69-1.13Z"/>
    <path class="st35" d="M315.08,113.13c2.1.01,4.21.05,6.31.28-1.57,1.86-4.21.92-6.3,1.21,0-.37-.01-1.12-.01-1.49Z"/>
    <path class="st35" d="M314.52,117.86c.65-2.58,3.73-1,5.57-1.27-1.06,2.14-3.71,1.07-5.57,1.27Z"/>
    <path class="st35" d="M288.21,142.26c4.84-.97,9.89-.16,14.81-.47,1.88.09,5.1-.41,5.43,2.2.16,5.02.12,10.07-.06,15.09-.12,1.64-1.96,2.32-3.38,2.16-5.01,0-10.01.16-15.02.06-1.32.18-2.75-.84-2.92-2.17-.4-4.37-.23-8.77-.19-13.15.17-1.22-.19-3.25,1.33-3.72M289.12,143.66c-1.58,2.96,3.31.2,0,0M292.17,143.35c-1.27.71-1.25,1.39.07,2.04,1.26-.72,1.24-1.4-.07-2.04M294.1,143.66c-.46,1.42,0,1.91,1.39,1.46.45-1.42-.02-1.91-1.39-1.46M288.34,147.03c.01,4.21-.1,8.43.15,12.64,6.18.17,12.39.34,18.57-.04.02-4.19-.01-8.38.04-12.56-6.26-.03-12.51,0-18.76-.04Z"/>
    <path class="st35" d="M291.65,149.55c2.13.6,3.55,2.33,5.04,3.84-1.54,1.46-3.08,2.94-4.97,3.92.46-1.62,1.63-2.84,2.69-4.09-.97-1.19-1.92-2.39-2.76-3.67Z"/>
    <path class="st35" d="M297.5,157.07c-.26-2.21,2.17-1.48,3.58-1.61,1.25-.16,2.42.21,3.3,1.14-2.29.29-4.59.37-6.88.47Z"/>
    <path class="st35" d="M273.38,180.4c5.55-.41,11.15-.13,16.71-.13,2.03-.26,3.49,1.81,3.19,3.7-.1,4.34-.02,8.68-.07,13.02.14,1.27-.88,2.8-2.25,2.71-5.64.13-11.29.15-16.93-.04-2.78-.28-2.42-3.63-2.4-5.64.28-4.24-.57-8.64.54-12.76.3-.21.91-.64,1.21-.86M274.01,181.97c-1.55,2.98,3.31.15,0,0M275.96,181.97c-.39,1.61.24,2.09,1.87,1.44.39-1.62-.23-2.1-1.87-1.44M278.94,181.95c-.46,1.39.01,1.86,1.42,1.43.43-1.41-.04-1.88-1.42-1.43M273.14,185.34c.07,4.21.07,8.42.08,12.62,6.08.05,12.46.8,18.36-.31.38-4.1.08-8.23.23-12.34-6.23.01-12.45.02-18.67.03Z"/>
    <path class="st35" d="M283.5,186.55c.76.65,1.01,1.53.52,2.44-.83,2.78-1.89,5.5-3.12,8.13-1.55-3.5,1.68-7.16,2.6-10.57Z"/>
    <path class="st35" d="M274.87,191.96c1.35-1.42,2.75-2.8,4.33-3.96-.36,1.38-1.05,2.63-1.74,3.87.87,1.01,1.44,2.16,1.72,3.46-1.53-1-2.92-2.19-4.31-3.37Z"/>
    <path class="st35" d="M285.24,189.23c.32-.17.97-.52,1.29-.69,1.09,1.09,2.18,2.19,3.27,3.29-1.35,1.22-2.71,2.43-4.17,3.53.27-1.41.91-2.64,1.92-3.7-.77-.81-1.54-1.62-2.31-2.43Z"/>
    <path class="st35" d="M164.06,259.94c.74-1.9.89-4.34,2.95-5.34-1.26,4.98-2.25,10.4-5.26,14.65-.08-3.28,1.43-6.24,2.31-9.31Z"/>
    <path class="st35" d="M154.57,262.04c1.73-1.85,3.56-3.64,5.68-5.06-.29,2.19-2.09,3.56-3.52,5.04,1.24,1.13,2.48,2.29,3.72,3.44-.13.38-.39,1.14-.53,1.52-1.8-1.63-3.59-3.27-5.35-4.94Z"/>
    <path class="st35" d="M168.4,257.25c2.34.88,3.78,3.09,5.53,4.75-1.77,1.74-3.57,3.45-5.57,4.93-.21-2.25,1.94-3.48,3.22-4.97-1.1-1.5-3.36-2.61-3.18-4.71Z"/>
    <path class="st35" d="M264.24,330.31c2.27-2.56,6.37-.84,9.4-1.19,1.92,2.07,4.35,3.75,5.86,6.16.14,4.27.25,8.6-.21,12.85-1.49,2.54-4.91,1.19-7.29,1.56-2.57-.34-6.17,1.02-7.86-1.6-.12-5.91-.25-11.88.1-17.78M265.63,330.71c-.18,5.78-.16,11.56.08,17.34,4.07.05,8.14.04,12.21-.16.04-3.9-.03-7.79,0-11.68-1.83-.14-3.84.36-5.54-.45-.42-1.65-.28-3.38-.35-5.06-2.14-.01-4.27-.01-6.4,0M273.68,331.79c0,.71.02,2.13.03,2.85,1.1-.09,2.22-.17,3.33-.25-1.11-.88-2.23-1.76-3.36-2.6Z"/>
    <path class="st35" d="M266.73,339.46c1.46-1.26,3.46-.92,5.24-.98,1.6.07,3.57-.31,4.58,1.3-3.27.25-6.59.32-9.82-.32Z"/>
    <path class="st35" d="M266.79,344.33c3.23-.36,6.49-.35,9.73-.12-.98,1.63-2.99,1.15-4.56,1.29-1.8,0-3.79.22-5.17-1.17Z"/>
    <path class="st35" d="M263.73,368.54c5.08-.62,10.28-.2,15.41-.15,3-.05,2.4,3.66,2.47,5.68-.26,2.85.65,6.07-.73,8.67-4.42,1.36-9.29.03-13.86.75-.55-.53-1.09-1.06-1.61-1.6,4.8-.1,9.61,0,14.41-.11.32-3.97.35-7.96.12-11.94-5.26.07-10.52.04-15.78.06.03,4.09-.1,8.18-.01,12.28-.24,1.21.72,2.06,1.26,3-.66.53-1.99,1.59-2.65,2.12,0-5.75-.34-11.51-.08-17.26.26-.37.78-1.13,1.05-1.5Z"/>
    <path class="st35" d="M265.68,372.49c4.19-.67,8.48-.48,12.68-.03-1.64,1.75-4.22,1.09-6.35,1.27-2.13-.16-4.68.49-6.33-1.24Z"/>
    <path class="st35" d="M265.75,375.34c3.72-.48,7.53-.6,11.25-.11.26.27.78.83,1.04,1.11-4.01-.39-8.83,1.5-12.29-1Z"/>
    <path class="st35" d="M265.66,378.25c2.85-.43,6.04-1.06,8.65.58-2.87.39-6,.93-8.65-.58Z"/>
    <path class="st35" d="M266.64,406.74c2.48-2.28,6.35-.78,9.43-1.2,1.89,1.93,3.8,3.86,5.7,5.79,0,4.19.27,8.4-.04,12.6-.01,1.3-1.54,2.08-2.7,1.96-3.67.06-7.36.19-11.02-.12-2.28-.91-1.65-3.81-1.77-5.73.27-4.42-.49-8.98.4-13.3M268.12,407.22c-.4,5.66-.24,11.34-.27,17.01,4.12.16,8.23.14,12.35.03.08-3.85.06-7.7.07-11.55-1.87-.33-4.32.65-5.77-.84-.21-1.55-.2-3.12-.25-4.68-2.05.01-4.09.01-6.13.03M276.27,410.74c1.31,1.59,3.54-.39,1.62-1.61-1.2-2.03-3.2.29-1.62,1.61Z"/>
    <path class="st35" d="M269.16,415.16c3.3-.3,6.7-.59,9.92.42-2.75.91-5.66.72-8.51.79-.35-.3-1.05-.91-1.41-1.21Z"/>
    <path class="st35" d="M269.35,420.61c3.09.26,6.72-1.05,9.39.97-2.93.3-5.88.23-8.82.23-.14-.3-.42-.9-.57-1.2Z"/>
  </g>
  <g id="_x23_cbccccff">
    <path class="st2" d="M620.3,94.94c1.86-2.34,4.73-3.42,7.68-3.14,76.02-.01,152.04.03,228.06-.09,3.59.1,7.42-.51,10.73,1.24l-1.64.05c-79.41.04-158.83-.02-238.24.02-2.62-.27-4.36,1.87-6.21,3.31l-.38-1.39Z"/>
  </g>
  <g id="_x23_f4f6f7ff">
    <path class="st32" d="M36.29,93.31c8.21-.77,16.47-.55,24.7-.5,88.69-.08,177.39,0,266.08-.05,3.08-.16,6.75,1.75,6.74,5.21.38,13.31.61,26.65.1,39.95,1.14,15.68-.49,31.39.26,47.07-.48,12.33-.38,24.68.08,37.01-1.02,8.99.52,17.99-.35,26.98-.12,51.35.09,102.67-.03,154.01-.1,4.68.59,9.36.18,14.04-.72,17.28.79,34.59-.34,51.85-.36,3.24-3.87,4.42-6.7,4.07-96.02.02-192.06-.02-288.09-.03-3.56.45-6.92-2.68-6.45-6.31-.08-122.22,0-244.45-.07-366.68-.27-2.77,1.05-5.8,3.89-6.62M304.47,102.57c-1.52.29-2.11,1.97-1.95,3.35-.03,4.36-.08,8.72.04,13.08-.17,1.78,1.8,3.05,3.43,2.81,5.32-.09,10.65.12,15.97-.1,3.61-1.21,1.71-5.9,2.18-8.73-.53-3.28,1.33-8-1.63-10.27-5.97-.47-12.06-.49-18.04-.14M48.51,139.61c-1.16.87-2.65,1.59-2.92,3.19-1.67,5.69-1.1,11.71-1.04,17.56.12,67.54,0,135.07.18,202.61.13,4.56,1.31,9.12.56,13.69-.51,3.06-.66,6.17-.19,9.25,1.14,10.26-.85,20.54,0,30.79-.75,11.09-.25,22.21-.46,33.31-.04,4.88.82,10.28,4.44,13.87,3.31,3.43,8.27,4.63,12.9,4.52,6.92-.12,13.85.11,20.76-.46,14.41.82,28.87.18,43.3.37,59.98-.02,119.96.01,179.94.02,4.32-.02,8.97-1.2,11.87-4.61,5.1-5.13,4.72-13.06,4.24-19.73-.95-6.31.28-12.64.21-18.97.03-16-.14-32.01.02-48.01.07-4.69-.99-9.3-.89-13.98.08-12.04,0-24.09.06-36.13,1.31-10.57.66-21.25.8-31.89.03-46.33-.01-92.67.01-139.01.42-6.42-2.73-12.25-4.2-18.35-.32-2.67-2.15-5.27-4.85-5.91-2.7-.6-5.49-.36-8.22-.37-83.03-.05-166.07-.1-249.11.06-4.48-.34-7.99,3.84-7.4,8.18Z"/>
  </g>
  <g id="_x23_ffffffff">
    <path class="st10" d="M620.68,96.33c1.85-1.44,3.59-3.58,6.21-3.31,79.41-.04,158.83.02,238.24-.02,2.85,3.77,1.85,8.63,1.95,13.01.06,26.32-.05,52.63.04,78.94.16,6.14-.56,12.34.7,18.41.25,87.55.01,175.11.12,262.66.07,2.52-.43,5.74-3.22,6.61-3.85.84-7.84.34-11.74.41-71.97,0-143.95-.01-215.93,0-4.15-.11-8.41.47-12.48-.5-3.46-1.32-3.26-5.5-3.29-8.53.12-117.35-.05-234.71.08-352.06-.03-5.29.54-10.67-.84-15.85-.05-.29-.16-.87-.22-1.16l.38,1.39Z"/>
  </g>
  <g id="_x23_e2e3e4ff">
    <path class="st30" d="M25.86,105.35c1.07-3.73,1.95-7.96,6.05-9.46-.64,4.33-.4,8.72-.48,13.09-.05,117.67.11,235.33-.04,353-.02,2.73.07,5.48.48,8.2-1.03,3.62,1.75,6.65,4.54,8.49,2.27,1.34,5.02,1.33,7.57,1.54,55.99.04,112,.03,167.99.04,35.34.02,70.67-.26,106.01.04,4.55-.03,9.68.19,13.41-2.89,1.9-1.29,1.98-3.77,2.56-5.76,1.54-5.42.53-11.14,1.16-16.68-.18-12.98-.69-25.98-.08-38.95-.5-23.35-.15-46.73-.2-70.08-.15-31.95.03-63.9-.1-95.85.03-4.37.63-8.74.13-13.11-.65-7.33.62-14.67-.07-21.99-.26-14,.31-28-.1-42,.39-10.31.78-20.64.23-30.96-.59-6,.6-12,.03-18.01-.26-9.07.05-18.15-.32-27.22,1.93,1.46,4.33,2.91,4.76,5.51,2.4,10.02,1.48,20.43,1.71,30.64.28,4.69-.89,9.32-.52,14.01-.03,21.68.21,43.37-.14,65.05.1,7.08.09,14.18.98,21.23-.73,5.8-1.9,11.86-.35,17.64-.19,8.39.11,16.86-1.08,25.21-.44,2.7,1.28,5.08,1.55,7.71.3,3.43-.59,6.81-.79,10.22-.32,3.92.82,7.78.49,11.7-1.6,13.57-.12,27.27-.88,40.88-1.24,7.2.59,14.41.07,21.65.41,15.33-.54,30.71.68,46.01-.55,3.71-1.07,7.46-.14,11.15.01,8.76.34,17.51.34,26.27.18,6.2-1.06,12.35-.78,18.56.34,4.83-2.37,9.31-5.58,12.69-4.27,2.61-9.55,2.64-14.12,4.59-.7-.36-1.4-.71-2.1-1.06-.37.22-.74.46-1.11.7-2.05-1.25-4.36-.99-6.41.09-.31-.29-.93-.88-1.24-1.17-10.99.47-21.99-.17-32.98.22-5.09-.41-10.18-.71-15.27-.13-8.58-1.2-17.21,1.48-25.75-.34-.3.38-.91,1.13-1.21,1.5-1.16-.64-2.29-1.67-3.72-1.35-3.76.26-7.54-.11-11.29.26-4.17.35-8.53-.73-12.49,1.01-.32-.29-.97-.87-1.29-1.17-6.32.18-12.68.4-18.98-.21-.32.36-.94,1.07-1.25,1.43-2.27-1.28-4.91-1.16-7.44-1.05-12.77-.51-25.58.77-38.35-.42-6.98.52-13.95.63-20.92-.05-8.99.98-18.05.43-27.06.1-3.34.34-6.71.68-10.03-.04-.28.37-.85,1.1-1.13,1.46-.92-.5-1.82-1.07-2.81-1.41-11.34.45-22.7.63-34.05.26-6.25.44-13.14-1.96-16.51-7.51-1.8-3.99-1.85-8.48-1.99-12.78-.06-10.62-.07-21.24.11-31.86-.37-5.65,0-11.3.19-16.94-.96-11.95-.05-23.93-.22-35.89-.24-8.82-.31-17.65-.01-26.47-.38-59.88-.12-119.78-.2-179.67.42-23.22-.65-46.47.54-69.67Z"/>
    <path class="st30" d="M868.51,95.92c3.3,1.58,4.64,5.23,5.61,8.51,1.47,9.08,2.17,18.46.44,27.55.56,3.3,1.06,6.66.42,10-.95,6.18.84,12.37-.01,18.56-1.14,6.49,1.29,12.98.02,19.48-.53,12.71-.54,25.48.12,38.18-.98,13.03.15,26.06.31,39.09-.07,5.56-1.27,11.11-.41,16.67.52,3.36.43,6.77.25,10.15.11,11.73.54,23.46.13,35.18.24,8.85.49,17.73-.31,26.56.32,9.37.7,18.78.17,28.16.69,11.85-.06,23.74.19,35.6-.21,19.04.25,38.1-.15,57.13-.76,5.24-1.67,11.06-5.7,14.88-2.91,1.97-6.13,3.97-9.76,3.96-4.18.15-8.44,1.38-12.54.06-5.7.89-11.85,1.52-17.41-.3-4.9,2.26-10.18-1.21-15.17.82-5.53-1.69-11.2.81-16.8-.08-5.3-.89-10.61.62-15.91-.12-9.07-.7-18.13.44-27.19.36-4.91-1.06-9.87.17-14.8-.36-6.03-.61-12.05.47-18.08.12-6.62.32-13.24-.91-19.84-.1-4.58.76-9.19-.35-13.78.11-5.43-.62-10.85.23-16.28-.08-5.32.46-10.65-.58-15.96.08-5.12.58-10.26-.54-15.37.12-3.66.39-7.4.36-10.96-.66-.54.28-1.08.57-1.6.87-2.69-1.08-5.61-1.83-7.9-3.66-2.59-3.05-5.14-6.56-5.33-10.71-1.09-6.35,1.02-12.7.09-19.05-.46-6.36.2-12.77-.54-19.12-.45-5.06,1.06-10.09.26-15.15-.64-6.55,1.02-13.09.2-19.63-.59-4.68.06-9.39-.19-14.09-.33-10.13.17-20.26,0-30.38,1.08-10.74-.59-21.49-.24-32.26.38-9.7-.12-19.39.16-29.08-.22-6.32.66-12.7-.82-18.91,1.68-7.59,1.83-15.45.8-23.15-.46-3.09.2-6.17.43-9.24-1.06-24.77-.03-49.56-.59-74.33.25-17.89.02-35.77-.04-53.66.11-4.68.98-9.42,2.94-13.69.49-1.43,1.92-2.06,3.08-2.86-.82,57.16.4,114.36-.59,171.52.7,13.33.05,26.69.34,40.03.23,48.35-.29,96.69.09,145.03.17,6.64-1.59,13.81,1.82,19.93,2.01,4.51,7.56,5.07,11.89,5.35,36.32.25,72.66-.3,108.98.38,37.65-.44,75.32-.42,112.98-.32,3.6-.05,7.72-.26,10.32-3.13,2.54-2.35,2.97-5.97,3.06-9.23,0-112.35-.01-224.7,0-337.05-.07-11.35.54-22.75-.83-34.04Z"/>
    <path class="st30" d="M512.69,257.07c2.45,1.11,2.35,3.99,3.39,6.11.86,2.17,2.64,4.1,2.43,6.58-.41,6.03.24,12.07-.17,18.11.14,6.21.41,13-3.14,18.4-4.58,4.22-11.17,5.31-17.2,5.07-7.37-.32-14.74.31-22.11,0-10.53-.42-21.16,1.07-31.6-.78-3.33-.75-7.11-1.83-8.93-5-3.5-4.47-1.2-10.52-3.25-15.53-1.67-4.42,2.37-10.02-2.06-13.39l.14-.14c3.96-3.93,1.12-9.91,4.17-14.18.65-1.16,1.77-1.93,2.77-2.78,0,11.83-.98,23.68-.17,35.5.86,4.92,4.65,9.85,10.01,10.02,15.04,1.25,30.15-.15,45.23.33,5.24-.2,10.83.91,15.74-1.46,3.94-2.45,5.56-7.41,5.46-11.86-.05-11.67.23-23.35-.71-35Z"/>
  </g>
  <g id="_x23_c0c1c1ff">
    <path class="st1" d="M868.3,95.04l.21.88c1.37,11.29.76,22.69.83,34.04-.01,112.35,0,224.7,0,337.05-.09,3.26-.52,6.88-3.06,9.23-2.6,2.87-6.72,3.08-10.32,3.13-37.66-.1-75.33-.12-112.98.32-36.32-.68-72.66-.13-108.98-.38-4.33-.28-9.88-.84-11.89-5.35-3.41-6.12-1.65-13.29-1.82-19.93-.38-48.34.14-96.68-.09-145.03-.29-13.34.36-26.7-.34-40.03.99-57.16-.23-114.36.59-171.52l.07-1.35c1.38,5.18.81,10.56.84,15.85-.13,117.35.04,234.71-.08,352.06.03,3.03-.17,7.21,3.29,8.53,4.07.97,8.33.39,12.48.5,71.98-.01,143.96,0,215.93,0,3.9-.07,7.89.43,11.74-.41,2.79-.87,3.29-4.09,3.22-6.61-.11-87.55.13-175.11-.12-262.66.46-30.8.03-61.63.2-92.44.12-5.29-.32-10.61.28-15.88Z"/>
    <path class="st1" d="M437.13,259.54c.02-3.08,2.64-5.73,5.79-5.49,20.69-.24,41.4-.05,62.1-.11,2.91-.18,5.99.55,7.67,3.13.94,11.65.66,23.33.71,35,.1,4.45-1.52,9.41-5.46,11.86-4.91,2.37-10.5,1.26-15.74,1.46-15.08-.48-30.19.92-45.23-.33-5.36-.17-9.15-5.1-10.01-10.02-.81-11.82.17-23.67.17-35.5M441.21,255.27c-2.03.61-2.94,2.77-2.98,4.73-.35,7.99.32,15.99,0,23.98-.02,3.78-.4,7.61.28,11.36.62,2.91,3.92,3.61,6.46,3.48,20.7-.14,41.41.26,62.1-.08,2.56.17,5.05-2.03,4.89-4.66.09-11.05.03-22.11-.01-33.16.32-2.95-1.68-6.31-4.97-5.99-20.34-.19-40.68.05-61.02-.11-1.6.05-3.23-.03-4.76.45Z"/>
    <path class="st1" d="M75.03,282.28c1.39-8.87-2.5-18.62,2.66-26.71.92,19.5,0,39.03.56,58.54.62,4.76,4.92,7.5,9.14,8.82-2.21.08-4.42.28-6.58.74-2.05-2.49-4.64-4.87-5.22-8.19-1.75-11.01.35-22.14-.56-33.2Z"/>
    <path class="st1" d="M296.29,444.95c1.93-.89,3.83-1.9,5.53-3.18-.68,2.62-1.23,5.77-3.75,7.29-4.23,2.48-9.36,2.05-14.07,2.12-65.67-.21-131.33.22-197,0-5.28-.06-10.66.88-15.85-.44-3.41-1.12-5.28-4.49-5.76-7.87,1.75.67,3.49,1.35,5.25,2l.1.04c.5.87,1,1.75,1.5,2.64,14.88,1.83,29.84.08,44.76.28,12.1-.25,24.2.54,36.3.18,16.66.91,33.31-.82,49.99-.15,10.63-.67,21.27.42,31.91-.29,11.16.57,22.34-.31,33.51.16,7.84,1.08,15.76.47,23.62,0,1.59-.07,2.44-1.67,3.53-2.58.11-.05.32-.15.43-.2Z"/>
  </g>
  <g id="_x23_a6a6a7ff">
    <path class="st21" d="M305.03,104.33c3.31.11-1.5,3.05,0,0Z"/>
  </g>
  <g id="_x23_828382ff">
    <path class="st23" d="M307.18,104.18c1.63-.53,2.19.02,1.67,1.64-1.64.53-2.2-.02-1.67-1.64Z"/>
  </g>
  <g id="_x23_adaeadff">
    <path class="st26" d="M310.09,104.23c3.31.12-1.5,3.06,0,0Z"/>
  </g>
  <g id="_x23_f7f9f9ff">
    <path class="st36" d="M304.07,107.66c6.14-.06,12.29.08,18.44.06.11,4.16.24,8.33-.12,12.49-6.07.03-12.15.27-18.22-.08-.14-4.16-.07-8.32-.1-12.47M306.14,109.86c0,2.68-.04,5.36-.1,8.04,2.4.04,4.8.13,7.2.2-.02-2.75-.03-5.5-.04-8.24-2.36-.01-4.71-.01-7.06,0M314.4,110.22c1.42,2.34,4.48.99,6.69,1.13-1.41-2.33-4.52-1.19-6.69-1.13M315.08,113.13c0,.37.01,1.12.01,1.49,2.09-.29,4.73.65,6.3-1.21-2.1-.23-4.21-.27-6.31-.28M314.52,117.86c1.86-.2,4.51.87,5.57-1.27-1.84.27-4.92-1.31-5.57,1.27Z"/>
  </g>
  <g id="_x23_6a6a69ff">
    <path class="st29" d="M48.51,139.61c-.59-4.34,2.92-8.52,7.4-8.18,83.04-.16,166.08-.11,249.11-.06,2.73.01,5.52-.23,8.22.37,2.7.64,4.53,3.24,4.85,5.91.08,100.79.08,201.58.08,302.37-.12,5.55.82,11.32-1.22,16.65-2.39,1.46-5.06,2.54-7.91,2.45-83.69.01-167.38.03-251.07.02-3.51.24-7.36-.92-8.58-4.59,2.05,1.32,3.99,3.33,6.64,3.19,84.66-.04,169.34-.1,254,.04,3.88.44,7.47-2.72,6.94-6.72.18-61.35.13-122.7-.01-184.05.25-42.35-.04-84.7.11-127.05.13-2.86-.99-6.44-4.17-7.09-4.27-.74-8.62-.29-12.92-.38-78.33.07-156.65.03-234.98.02-4.19.16-8.62-.62-12.63.91-3.45,1.88-2.49,6.36-2.64,9.6.11,102.65.01,205.3.06,307.94-.07,1.2-.2,2.39-.4,3.59l-.2,1.33c-.27-1.61-.53-3.2-.62-4.81.04-103.81.08-207.64-.06-311.46Z"/>
    <path class="st29" d="M64.31,178.78c-.4-3.27,1.59-6.63,4.81-7.54,2.91-.71,5.93-.36,8.89-.41,72,.06,144-.13,215.99.05,3.79-.38,7.96,2.08,8.34,6.1.2,83.67.01,167.35.09,251.03-.05,4.58.37,9.24-.61,13.76-1.7,1.28-3.6,2.29-5.53,3.18l.95-.8.38-.33c2.31-1.57,4.13-3.91,3.78-6.86.05-83.66,0-167.33,0-250.99-.21-3.76.61-7.82-.92-11.36-2.43-3.92-7.61-2.75-11.48-2.92-69.34.16-138.68.03-208.02.06-3.9.08-7.86-.34-11.71.4-2.63.55-4.14,3.28-4.05,5.83.14,45-.12,90.01.14,135.02-.17,41.35-.16,82.71-.12,124.06-.32,3.1,1.74,5.49,4.23,7l1.17.81c-1.76-.65-3.5-1.33-5.25-2-.58-2.23-1.05-4.5-1.08-6.8.04-85.76.08-171.52,0-257.29Z"/>
    <path class="st29" d="M213.27,211.34c1.41-2.26,4.32-2.36,6.7-2.43,19.68-.01,39.37.06,59.06-.05,2.51.19,5.47-.26,7.52,1.52,1.78,1.46,1.81,3.93,1.98,6.03-.53,6.67.29,13.37-.4,20.02-.37,2.92-3.38,4.37-6.07,4.19-21.02.12-42.06-.07-63.09.13-2.77.32-5.81-1.18-6.34-4.11-.72-5.15,0-10.37-.55-15.53-.15-3.25-.59-6.85,1.19-9.77M216.18,210.18c-3.5,1.28-3.63,5.64-3.41,8.78.46,5.34.2,10.7.39,16.06-.1,2.58,2.12,4.93,4.76,4.67,21.4.17,42.8-.01,64.2.12,2.88.41,5.73-1.86,5.39-4.89.02-6.96.12-13.92-.06-20.87.03-2.81-2.8-4.66-5.42-4.27-20.35,0-40.7.04-61.05-.02-1.61.04-3.23.04-4.8.42Z"/>
    <path class="st29" d="M79.24,248.85c2.04-1.2,4.37-1.77,6.74-1.66,30.65.05,61.29-.11,91.94.13,3.88,3.13,2.88,8.33,2.99,12.71-.18,12.65.02,25.31-.08,37.96-.09,6.02.49,12.1-.65,18.06-3.03.5-6.08.91-9.16.9-26-.1-52.01-.04-78.02-.07-5-.15-10.84,1.23-14.75-2.77-.55-19.51.36-39.04-.56-58.54.14-2.31.64-4.59,1.55-6.72M82.31,248.37c-2.97.63-3.84,3.94-3.56,6.59.3,18.68-.1,37.38.18,56.06-.27,3.37,2.98,5.52,6.08,5.16,29.33.05,58.66.01,87.99.03,1.98-.21,4.4.21,5.93-1.36,1.44-1.16,1.1-3.18,1.3-4.8.03-16.35-.07-32.71.01-49.07-.03-3.31.24-6.67-.37-9.95-.68-2.04-2.84-3.08-4.9-2.86-27.31.08-54.63.02-81.95.03-3.57.05-7.16-.28-10.71.17Z"/>
    <path class="st29" d="M194.14,247.69c1.9-.32,3.8-.58,5.72-.71,5.2-.06,10.41-.12,15.61.06,15.5.54,31.02.1,46.53.24,7.88.17,15.79-.44,23.64.38,1.89,1.75,2.96,4.16,2.92,6.76-.51,5.85-.14,11.73-.17,17.6.08,2.28-.98,4.35-2.1,6.26-2.11.11-4.23.25-6.34.31-27,.12-54-.24-81,.12-2.34-.03-4.66-.37-6.91-.97-.27-.3-.8-.91-1.07-1.22-.62-7.48-.28-15-.32-22.5-.12-2.26.87-4.32,2.26-6.03.44.1,1.33.32,1.78.42-1.71,1.01-3.25,2.48-3.08,4.64-.17,6.96-.33,13.97.1,20.93.23,3.69,4.41,4.1,7.27,4.05,27.69-.17,55.39-.27,83.08-.03,2.48.21,5.3-1.29,5.28-4.06.33-7.3.3-14.65.02-21.95-.11-3.06-3.34-4.19-5.95-3.85-29.09-.21-58.18.07-87.27-.45Z"/>
    <path class="st29" d="M417.88,269.96c4.03,2.31,8.04,4.69,12.31,6.54l-.14.14c-3.84,2.66-8.15,4.56-12.15,6.94.01-1.85.03-3.69.06-5.53-25.01.01-50.03.03-75.05-.03v-2.11c25.03.03,50.06-.06,75.08.03-.04-1.99-.08-3.99-.11-5.98Z"/>
    <path class="st29" d="M191.14,289.09c.68-2.53,3.43-3.76,5.87-3.73,6.8-.28,13.61.02,20.41-.19,3.16.26,6.34.34,9.51.31,18.94-.1,37.89.16,56.83-.13,2.92.75,4.38,3.33,5,6.09-1.02,6.84-.37,13.76-.65,20.63.11,2.72-2.36,5-5.07,4.76-28.32.08-56.66.05-84.99.05-2.44.05-4.73-.83-6.89-1.85-.92-5.96-.45-12-.53-18,.05-2.65-.14-5.35.51-7.94M191.58,290.97c-.04,7.65-.17,15.31.1,22.95,1.8,1.44,3.91,2.46,6.27,2.27,25.32.03,50.64,0,75.96,0,3.61-.07,7.29.43,10.84-.35,2.84-1.03,2.77-4.4,2.84-6.9-.01-6.31.23-12.64-.29-18.93-.16-2.53-2.92-3.88-5.18-3.89-19.7.2-39.4.01-59.1.09-8.32-.37-16.66-.52-24.97-.17-2.91,0-6.71,1.39-6.47,4.93Z"/>
    <path class="st29" d="M79.41,363.18c4.2-2.2,9.06-1.39,13.61-1.48,57.99-.01,115.98-.02,173.97,0,6.04.08,12.11-.32,18.14.28,3.31,2,3.65,5.93,3.42,9.42-.39,5.47.17,10.95-.11,16.42-.09,2.29-1.73,4.06-3.16,5.69-30.43-.35-60.87.02-91.3-.13-37.41.2-74.83-.25-112.24.2-1.49-1.57-3.61-3.03-3.43-5.48-.32-6.53.03-13.08-.44-19.61.3-1.82.83-3.6,1.54-5.31M81.31,363.22c-2.85,1.48-2.53,5.06-2.52,7.77.34,6.01-.18,12.05.38,18.05.37,2.73,3.38,3.81,5.82,3.56,65.34-.12,130.69.03,196.03-.02,2.51.14,5.97-.48,6.33-3.53.59-7.3.28-14.67.04-21.99.09-2.38-2.02-4.58-4.44-4.34-66-.2-132,.11-198-.1-1.27-.07-2.48.13-3.64.6Z"/>
    <path class="st29" d="M77.62,406.5c.52-2.73,1.61-5.48,4.42-6.53,4.98.13,9.96.29,14.95.21,40.67-.1,81.34.07,122.01-.05,22.03.12,44.07.15,66.09-.14,1.57,1.51,2.97,3.25,3.56,5.39-.02,1.34-.05,2.69-.09,4.04-.39,5.77.25,11.56-.27,17.32-.06,2.25-2.05,3.55-3.54,4.91-59.57-.3-119.15.02-178.72-.13-8.17.19-16.33-.17-24.49.15-1.57-1.58-3.59-3.23-3.32-5.71-.13-6.49.23-13-.6-19.46M82.1,400.95c-3.45,1.01-3.37,5.18-3.32,8.08.3,5.99.1,11.99.42,17.97.24,2.79,3.32,3.98,5.78,3.79,65.98,0,131.99-.01,197.97.03,2.63,0,4.85-2.31,4.61-4.97.01-6.59.14-13.19.04-19.78.19-2.61-1.82-5.37-4.59-5.14-66.97-.02-133.96-.12-200.91.02Z"/>
  </g>
  <g id="_x23_eaebebff">
    <path class="st38" d="M52.37,133.42c4.01-1.53,8.44-.75,12.63-.91,78.33.01,156.65.05,234.98-.02,4.3.09,8.65-.36,12.92.38,3.18.65,4.3,4.23,4.17,7.09-.15,42.35.14,84.7-.11,127.05.14,61.35.19,122.7.01,184.05.53,4-3.06,7.16-6.94,6.72-84.66-.14-169.34-.08-254-.04-2.65.14-4.59-1.87-6.64-3.19.2-1.2.33-2.39.4-3.59-.05-102.64.05-205.29-.06-307.94.15-3.24-.81-7.72,2.64-9.6M288.21,142.26c-1.52.47-1.16,2.5-1.33,3.72-.04,4.38-.21,8.78.19,13.15.17,1.33,1.6,2.35,2.92,2.17,5.01.1,10.01-.05,15.02-.06,1.42.16,3.26-.52,3.38-2.16.18-5.02.22-10.07.06-15.09-.33-2.61-3.55-2.11-5.43-2.2-4.92.31-9.97-.5-14.81.47M64.31,178.78c-.65.21-1.96.62-2.61.83-.87,3.75-1.83,7.51-1.84,11.39-.19,57.32.06,114.65-.02,171.98-.02,3.93.83,7.83.64,11.76-.57,7.08.18,14.18-.69,21.23.87,7.08-.33,14.16.58,21.24-.81,8.69-.81,17.47.38,26.13.54,2.74,1.31,5.57,3.03,7.82,3.82,3.43,9.24,4.19,14.19,4.08,21.69-.19,43.38.13,65.07-.04,8.79-.17,17.61.39,26.38-.51,12.81.94,25.67.32,38.51.48,7.07.38,14.11-1.26,21.18-.34,8.64,1.12,17.3-.65,25.92.39,7.62-.96,15.3-.36,22.96-.1,4.1-.12,8.19-.66,12.3-.56,4.09.1,8.54-.61,11.56-3.62,5.05-4.43,4.15-11.89,4.51-17.94-.31-31.01-.02-62.03-.03-93.04.41-7.01-.31-14.03.54-21.01.01-18.3-.82-36.61.03-54.9-.95-8.31-.12-16.66.11-24.99-.32-6.69-.63-13.39-.37-20.08.19-6.97-.45-13.97.35-20.91.58-5.41-.61-10.8-1.84-16.04-.57-1.85-.83-4.13-2.81-5.05-.38-4.02-4.55-6.48-8.34-6.1-71.99-.18-143.99,0-215.99-.05-2.96.05-5.98-.3-8.89.41-3.22.91-5.21,4.27-4.81,7.54Z"/>
    <path class="st38" d="M289.12,143.66c3.31.2-1.58,2.96,0,0Z"/>
    <path class="st38" d="M288.34,147.03c6.25.04,12.5,0,18.76.04-.05,4.18-.02,8.37-.04,12.56-6.18.38-12.39.21-18.57.04-.25-4.21-.14-8.43-.15-12.64M291.65,149.55c.84,1.28,1.79,2.48,2.76,3.67-1.06,1.25-2.23,2.47-2.69,4.09,1.89-.98,3.43-2.46,4.97-3.92-1.49-1.51-2.91-3.24-5.04-3.84M297.5,157.07c2.29-.1,4.59-.18,6.88-.47-.88-.93-2.05-1.3-3.3-1.14-1.41.13-3.84-.6-3.58,1.61Z"/>
  </g>
  <g id="_x23_dddeddff">
    <path class="st7" d="M318.09,137.65c1.47,6.1,4.62,11.93,4.2,18.35-.02,46.34.02,92.68-.01,139.01-.14,10.64.51,21.32-.8,31.89-.05,12.04.02,24.09-.06,36.13-.1,4.68.96,9.29.89,13.98-.16,16,.01,32.01-.02,48.01.07,6.33-1.16,12.66-.21,18.97.48,6.67.86,14.6-4.24,19.73-2.9,3.41-7.55,4.59-11.87,4.61-59.98,0-119.96-.04-179.94-.02-14.43-.19-28.89.45-43.3-.37-6.91.57-13.84.34-20.76.46-4.63.11-9.59-1.09-12.9-4.52-3.62-3.59-4.48-8.99-4.44-13.87.21-11.1-.29-22.22.46-33.31-.84-10.25,1.15-20.53,0-30.79-.47-3.08-.32-6.19.19-9.25.75-4.57-.43-9.13-.56-13.69-.18-67.54-.06-135.07-.18-202.61-.06-5.85-.63-11.87,1.04-17.56.27-1.6,1.76-2.32,2.92-3.19.14,103.82.1,207.65.06,311.46.09,1.61.35,3.2.62,4.81.15,5.06,4.84,8.98,9.79,8.77,80.65-.08,161.32-.06,241.97-.05,4.13-.12,8.55.56,12.38-1.38,2.42-1.25,2.67-4.3,3.62-6.55,2.04-5.33,1.1-11.1,1.22-16.65,0-100.79,0-201.58-.08-302.37Z"/>
    <path class="st7" d="M276.27,410.74c-1.58-1.32.42-3.64,1.62-1.61,1.92,1.22-.31,3.2-1.62,1.61Z"/>
  </g>
  <g id="_x23_c3c4c4ff">
    <path class="st18" d="M292.17,143.35c1.31.64,1.33,1.32.07,2.04-1.32-.65-1.34-1.33-.07-2.04Z"/>
    <path class="st18" d="M294.1,143.66c1.37-.45,1.84.04,1.39,1.46-1.39.45-1.85-.04-1.39-1.46Z"/>
    <path class="st18" d="M74.45,219.31c.22-2.41,1.85-4.26,3.21-6.12.34,6.27.04,12.55.06,18.83-.05,2.91.7,5.75,1.92,8.37,2.27,4.89,8.19,4.12,12.64,4.13,14.66.4,29.33.15,43.99,0,15.23.72,30.48-.32,45.72-.11,3.98.11,7.97-.21,11.86-1.08.47-.54,1.41-1.63,1.87-2.17,1.52-1.83,3.6-3.61,3.47-6.21.33-7.27-.26-14.54.17-21.81,1,1.53,2.14,3.05,2.49,4.89,1.83,9.64.31,19.52-1.99,28.95-1.92.13-3.82.39-5.72.71,29.09.52,58.18.24,87.27.45-2.15.29-4.3.66-6.47.77-24.97.04-49.94-.13-74.91.11-1.8-.05-3.58-.29-5.34-.61-.45-.1-1.34-.32-1.78-.42-4.89-1.42-10-.55-14.99-.67-30.65-.24-61.29-.08-91.94-.13-2.37-.11-4.7.46-6.74,1.66-1.88-2.68-4.56-5.14-4.95-8.56-.8-6.96-.92-14.04.16-20.98Z"/>
    <path class="st18" d="M74.16,346.02c.05-6.6-.7-13.96,3.77-19.45.4,8.6-1.21,17.41.71,25.87.88,1.31,1.82,2.58,2.84,3.79,2.73,2.02,6.13,2.8,9.48,2.95,7.75.39,15.52.11,23.27-.19,12.57.56,25.17.53,37.74.15,7.34-1.08,14.68.43,22.03.28,19.42-.01,38.83-.25,58.25,0,9.19-.16,18.42.33,27.58-.63,6.4-.57,12.77.83,19.17.56,2.96.03,5.29-1.97,7.27-3.92,1.5-2.19,2.8-4.65,2.78-7.38.27-6.21-.04-12.44.24-18.65,1.39,2.88,2.58,5.96,2.42,9.23-.18,4.51.06,9.04-.35,13.53-.43,4.07-3.29,7.23-6.23,9.81-6.03-.6-12.1-.2-18.14-.28-57.99-.02-115.98-.01-173.97,0-4.55.09-9.41-.72-13.61,1.48-1.35-2.2-2.8-4.34-3.95-6.66-1.69-3.23-1.16-7-1.3-10.5Z"/>
    <path class="st18" d="M49.19,455.88l.2-1.33c1.22,3.67,5.07,4.83,8.58,4.59,83.69,0,167.38-.01,251.07-.02,2.85.09,5.52-.99,7.91-2.45-.95,2.25-1.2,5.3-3.62,6.55-3.83,1.94-8.25,1.26-12.38,1.38-80.65-.01-161.32-.03-241.97.05-4.95.21-9.64-3.71-9.79-8.77Z"/>
    <path class="st18" d="M31.87,470.18c1.71,1.63,3.41,3.95,6.09,3.56,96.35-.03,192.71-.07,289.06.01,2.51.19,4.93-.61,6.93-2.11-.58,1.99-.66,4.47-2.56,5.76-3.73,3.08-8.86,2.86-13.41,2.89-35.34-.3-70.67-.02-106.01-.04-55.99-.01-112,0-167.99-.04-2.55-.21-5.3-.2-7.57-1.54-2.79-1.84-5.57-4.87-4.54-8.49Z"/>
  </g>
  <g id="_x23_dbdcdbff">
    <path class="st11" d="M69.27,172.15c3.85-.74,7.81-.32,11.71-.4,69.34-.03,138.68.1,208.02-.06,3.87.17,9.05-1,11.48,2.92,1.53,3.54.71,7.6.92,11.36,0,83.66.05,167.33,0,250.99.35,2.95-1.47,5.29-3.78,6.86-3.89-.46-7.76-1.04-11.58-1.87,2.53-3.35,8.07-5.99,6.91-10.9-.27-6.04,1.71-12.12.2-18.1-.69-2.93-2.51-5.39-4.5-7.57-.59-2.14-1.99-3.88-3.56-5.39,2.99-3.34,6.44-6.92,6.32-11.75-.06-5.66.73-12.04-2.86-16.84.23-3.49-.11-7.42-3.42-9.42,2.94-2.58,5.8-5.74,6.23-9.81.41-4.49.17-9.02.35-13.53.16-3.27-1.03-6.35-2.42-9.23-.94-2.37-2.39-4.49-4.22-6.24,1.89-2.36,4.31-4.52,5.13-7.53,1.42-5.46.29-11.1.29-16.64.08-2.64-.8-5.14-1.73-7.56-.62-2.76-2.08-5.34-5-6.09,2.73-2.2,6.08-4.36,6.54-8.17,1.47-7.45,2.1-15.89-1.74-22.76.04-2.6-1.03-5.01-2.92-6.76,2.31-3.4,5.43-6.7,5.74-11,.2-3.63,0-7.26.13-10.89.33-3.41-.83-6.72-2.98-9.36-.17-2.1-.2-4.57-1.98-6.03-2.05-1.78-5.01-1.33-7.52-1.52-19.69.11-39.38.04-59.06.05-2.38.07-5.29.17-6.7,2.43-1.78,2.92-1.34,6.52-1.19,9.77-.61-.67-1.22-1.33-1.82-1.99.16,6.29-.04,12.58,0,18.86-.35,3.87,3.06,6.34,5.21,9.06-5.2-.18-10.41-.12-15.61-.06,2.3-9.43,3.82-19.31,1.99-28.95-.35-1.84-1.49-3.36-2.49-4.89-1.18-1.56-2.31-3.65-4.44-3.97-3.27-.47-6.58-.24-9.87-.26-33.67,0-67.35,0-101.02.03-3.01-.4-4.94,1.98-6.37,4.25-1.36,1.86-2.99,3.71-3.21,6.12-1.08,6.94-.96,14.02-.16,20.98.39,3.42,3.07,5.88,4.95,8.56-.91,2.13-1.41,4.41-1.55,6.72-5.16,8.09-1.27,17.84-2.66,26.71.91,11.06-1.19,22.19.56,33.2.58,3.32,3.17,5.7,5.22,8.19-1,.92-1.97,1.89-2.88,2.9-4.47,5.49-3.72,12.85-3.77,19.45.14,3.5-.39,7.27,1.3,10.5,1.15,2.32,2.6,4.46,3.95,6.66-.71,1.71-1.24,3.49-1.54,5.31l-.66.49c-.56.36-1.68,1.08-2.24,1.45-1.92,6.35-1.3,13.05-1.21,19.59,0,3.63,2.12,6.73,2.94,10.17.11,4.68-3.35,8.31-4.85,12.51-.58,2.6-.27,5.29-.52,7.92-.2,3.9-1.26,8.11.71,11.76,1.89,3.55,4.96,6.28,7.05,9.71-2.45.66-4.89,1.36-7.37,1.9-.56.01-1.69.05-2.25.07-2.49-1.51-4.55-3.9-4.23-7-.04-41.35-.05-82.71.12-124.06-.26-45.01,0-90.02-.14-135.02-.09-2.55,1.42-5.28,4.05-5.83M273.38,180.4c-.3.22-.91.65-1.21.86-1.11,4.12-.26,8.52-.54,12.76-.02,2.01-.38,5.36,2.4,5.64,5.64.19,11.29.17,16.93.04,1.37.09,2.39-1.44,2.25-2.71.05-4.34-.03-8.68.07-13.02.3-1.89-1.16-3.96-3.19-3.7-5.56,0-11.16-.28-16.71.13Z"/>
    <path class="st11" d="M278.94,181.95c1.38-.45,1.85.02,1.42,1.43-1.41.43-1.88-.04-1.42-1.43Z"/>
    <path class="st11" d="M273.14,185.34c6.22,0,12.44-.02,18.67-.03-.15,4.11.15,8.24-.23,12.34-5.9,1.11-12.28.36-18.36.31-.01-4.2-.01-8.41-.08-12.62M283.5,186.55c-.92,3.41-4.15,7.07-2.6,10.57,1.23-2.63,2.29-5.35,3.12-8.13.49-.91.24-1.79-.52-2.44M274.87,191.96c1.39,1.18,2.78,2.37,4.31,3.37-.28-1.3-.85-2.45-1.72-3.46.69-1.24,1.38-2.49,1.74-3.87-1.58,1.16-2.98,2.54-4.33,3.96M285.24,189.23c.77.81,1.54,1.62,2.31,2.43-1.01,1.06-1.65,2.29-1.92,3.7,1.46-1.1,2.82-2.31,4.17-3.53-1.09-1.1-2.18-2.2-3.27-3.29-.32.17-.97.52-1.29.69Z"/>
    <path class="st11" d="M273.68,331.79c1.13.84,2.25,1.72,3.36,2.6-1.11.08-2.23.16-3.33.25,0-.72-.03-2.14-.03-2.85Z"/>
  </g>
  <g id="_x23_d4d5d4ff">
    <path class="st6" d="M302.34,176.98c1.98.92,2.24,3.2,2.81,5.05,1.23,5.24,2.42,10.63,1.84,16.04-.8,6.94-.16,13.94-.35,20.91-.26,6.69.05,13.39.37,20.08-.23,8.33-1.06,16.68-.11,24.99-.85,18.29-.02,36.6-.03,54.9-.85,6.98-.13,14-.54,21.01.01,31.01-.28,62.03.03,93.04-.36,6.05.54,13.51-4.51,17.94-3.02,3.01-7.47,3.72-11.56,3.62-4.11-.1-8.2.44-12.3.56-7.66-.26-15.34-.86-22.96.1-8.62-1.04-17.28.73-25.92-.39-7.07-.92-14.11.72-21.18.34-12.84-.16-25.7.46-38.51-.48-8.77.9-17.59.34-26.38.51-21.69.17-43.38-.15-65.07.04-4.95.11-10.37-.65-14.19-4.08-1.72-2.25-2.49-5.08-3.03-7.82-1.19-8.66-1.19-17.44-.38-26.13-.91-7.08.29-14.16-.58-21.24.87-7.05.12-14.15.69-21.23.19-3.93-.66-7.83-.64-11.76.08-57.33-.17-114.66.02-171.98,0-3.88.97-7.64,1.84-11.39.65-.21,1.96-.62,2.61-.83.08,85.77.04,171.53,0,257.29.03,2.3.5,4.57,1.08,6.8.48,3.38,2.35,6.75,5.76,7.87,5.19,1.32,10.57.38,15.85.44,65.67.22,131.33-.21,197,0,4.71-.07,9.84.36,14.07-2.12,2.52-1.52,3.07-4.67,3.75-7.29.98-4.52.56-9.18.61-13.76-.08-83.68.11-167.36-.09-251.03Z"/>
  </g>
  <g id="_x23_d1d1d1ff">
    <path class="st39" d="M274.01,181.97c3.31.15-1.55,2.98,0,0Z"/>
    <path class="st39" d="M78.86,327.04c1.92-1.05,3.83-2.43,6.15-2.28,62.63,0,125.27-.02,187.91-.03,4.18.11,8.52-.64,12.57.65,2.08,1.52,1.42,4.41,1.6,6.63-.3,5.99.49,11.98.02,17.96-.02,2.62-2.62,4.3-5.06,4-63.68.08-127.37-.02-191.05.05-4.18.18-8.43-.04-12.36-1.58.75-8.44.42-16.95.22-25.4M264.24,330.31c-.35,5.9-.22,11.87-.1,17.78,1.69,2.62,5.29,1.26,7.86,1.6,2.38-.37,5.8.98,7.29-1.56.46-4.25.35-8.58.21-12.85-1.51-2.41-3.94-4.09-5.86-6.16-3.03.35-7.13-1.37-9.4,1.19Z"/>
    <path class="st39" d="M81.31,363.22c1.16-.47,2.37-.67,3.64-.6,66,.21,132-.1,198,.1,2.42-.24,4.53,1.96,4.44,4.34.24,7.32.55,14.69-.04,21.99-.36,3.05-3.82,3.67-6.33,3.53-65.34.05-130.69-.1-196.03.02-2.44.25-5.45-.83-5.82-3.56-.56-6-.04-12.04-.38-18.05-.01-2.71-.33-6.29,2.52-7.77M263.73,368.54c-.27.37-.79,1.13-1.05,1.5-.26,5.75.08,11.51.08,17.26.66-.53,1.99-1.59,2.65-2.12-.54-.94-1.5-1.79-1.26-3-.09-4.1.04-8.19.01-12.28,5.26-.02,10.52.01,15.78-.06.23,3.98.2,7.97-.12,11.94-4.8.11-9.61.01-14.41.11.52.54,1.06,1.07,1.61,1.6,4.57-.72,9.44.61,13.86-.75,1.38-2.6.47-5.82.73-8.67-.07-2.02.53-5.73-2.47-5.68-5.13-.05-10.33-.47-15.41.15M265.68,372.49c1.65,1.73,4.2,1.08,6.33,1.24,2.13-.18,4.71.48,6.35-1.27-4.2-.45-8.49-.64-12.68.03M265.75,375.34c3.46,2.5,8.28.61,12.29,1-.26-.28-.78-.84-1.04-1.11-3.72-.49-7.53-.37-11.25.11M265.66,378.25c2.65,1.51,5.78.97,8.65.58-2.61-1.64-5.8-1.01-8.65-.58Z"/>
    <path class="st39" d="M82.1,400.95c66.95-.14,133.94-.04,200.91-.02,2.77-.23,4.78,2.53,4.59,5.14.1,6.59-.03,13.19-.04,19.78.24,2.66-1.98,4.98-4.61,4.97-65.98-.04-131.99-.02-197.97-.03-2.46.19-5.54-1-5.78-3.79-.32-5.98-.12-11.98-.42-17.97-.05-2.9-.13-7.07,3.32-8.08M266.64,406.74c-.89,4.32-.13,8.88-.4,13.3.12,1.92-.51,4.82,1.77,5.73,3.66.31,7.35.18,11.02.12,1.16.12,2.69-.66,2.7-1.96.31-4.2.03-8.41.04-12.6-1.9-1.93-3.81-3.86-5.7-5.79-3.08.42-6.95-1.08-9.43,1.2Z"/>
  </g>
  <g id="_x23_a8a8a8ff">
    <path class="st31" d="M275.96,181.97c1.64-.66,2.26-.18,1.87,1.44-1.63.65-2.26.17-1.87-1.44Z"/>
    <path class="st31" d="M192.04,277.74c2.25.6,4.57.94,6.91.97,27-.36,54,0,81-.12,2.11-.06,4.23-.2,6.34-.31-3.37,4.89-9.91,4.67-15.16,4.35-8.63-.78-17.29-.73-25.93-.22-13.67.02-27.34.03-41.01.09-4.44-.06-9.47-.79-12.15-4.76Z"/>
    <path class="st31" d="M81.74,393.58c37.41-.45,74.83,0,112.24-.2,30.43.15,60.87-.22,91.3.13-4.04,4.18-10.23,2.94-15.45,3.33-8.47.74-16.93-.41-25.4-.25-6.18-.1-12.34.7-18.51.44-4.52-.24-9.05-.06-13.58.08-14.04-.29-28.11-.6-42.13.31-27.32-.88-54.66-.37-81.99-.21-2.8.26-5.02-1.39-6.48-3.63Z"/>
  </g>
  <g id="_x23_838482ff">
    <path class="st37" d="M77.66,213.19c1.43-2.27,3.36-4.65,6.37-4.25,33.67-.02,67.35-.02,101.02-.03,3.29.02,6.6-.21,9.87.26,2.13.32,3.26,2.41,4.44,3.97-.43,7.27.16,14.54-.17,21.81.13,2.6-1.95,4.38-3.47,6.21-35.87-.06-71.77-.17-107.65,0-2.82-.06-5.63-.42-8.43-.77-1.22-2.62-1.97-5.46-1.92-8.37-.02-6.28.28-12.56-.06-18.83M82.16,210.18c-1.93.68-3.39,2.66-3.16,4.75.03,6.69-.09,13.39,0,20.07-.05,2.61,2.35,4.74,4.91,4.63,36.38.21,72.77-.06,109.14.12,2.67.25,5.35-1.93,4.99-4.73.01-6.69-.07-13.38-.03-20.06.37-2.75-2.11-5.38-4.9-4.97-34.04,0-68.09.02-102.13,0-2.94.03-5.9-.21-8.82.18Z"/>
  </g>
  <g id="_x23_cececeff">
    <path class="st16" d="M82.16,210.18c2.92-.39,5.88-.15,8.82-.18,34.04,0,68.09,0,102.13,0,2.79-.41,5.27,2.22,4.9,4.97-.04,6.68.04,13.37.03,20.06.36,2.8-2.32,4.98-4.99,4.73-36.37-.18-72.76.09-109.14-.12-2.56.11-4.96-2.02-4.91-4.63-.09-6.68.03-13.38,0-20.07-.23-2.09,1.23-4.07,3.16-4.75Z"/>
    <path class="st16" d="M216.18,210.18c1.57-.38,3.19-.38,4.8-.42,20.35.06,40.7.01,61.05.02,2.62-.39,5.45,1.46,5.42,4.27.18,6.95.08,13.91.06,20.87.34,3.03-2.51,5.3-5.39,4.89-21.4-.13-42.8.05-64.2-.12-2.64.26-4.86-2.09-4.76-4.67-.19-5.36.07-10.72-.39-16.06-.22-3.14-.09-7.5,3.41-8.78Z"/>
    <path class="st16" d="M177.92,247.32c4.99.12,10.1-.75,14.99.67-1.39,1.71-2.38,3.77-2.26,6.03.04,7.5-.3,15.02.32,22.5,0,.71,0,2.14,0,2.85,6.48,8.19,17.8,3.21,26.44,5.8-6.8.21-13.61-.09-20.41.19-2.44-.03-5.19,1.2-5.87,3.73-.65,2.59-.46,5.29-.51,7.94.08,6-.39,12.04.53,18,.19,1.44.39,2.88.59,4.32,1.83,1.24,3.67,2.48,5.59,3.58-8.93.23-17.87-.15-26.8-.11,2.71-.57,5.51-1.01,8-2.27.89-1.35,1.21-2.97,1.64-4.5,1.14-5.96.56-12.04.65-18.06.1-12.65-.1-25.31.08-37.96-.11-4.38.89-9.58-2.99-12.71Z"/>
    <path class="st16" d="M82.31,248.37c3.55-.45,7.14-.12,10.71-.17,27.32,0,54.64.05,81.95-.03,2.06-.22,4.22.82,4.9,2.86.61,3.28.34,6.64.37,9.95-.08,16.36.02,32.72-.01,49.07-.2,1.62.14,3.64-1.3,4.8-1.53,1.57-3.95,1.15-5.93,1.36-29.33-.02-58.66.02-87.99-.03-3.1.36-6.35-1.79-6.08-5.16-.28-18.68.12-37.38-.18-56.06-.28-2.65.59-5.96,3.56-6.59M164.06,259.94c-.88,3.07-2.39,6.03-2.31,9.31,3.01-4.25,4-9.67,5.26-14.65-2.06,1-2.21,3.44-2.95,5.34M154.57,262.04c1.76,1.67,3.55,3.31,5.35,4.94.14-.38.4-1.14.53-1.52-1.24-1.15-2.48-2.31-3.72-3.44,1.43-1.48,3.23-2.85,3.52-5.04-2.12,1.42-3.95,3.21-5.68,5.06M168.4,257.25c-.18,2.1,2.08,3.21,3.18,4.71-1.28,1.49-3.43,2.72-3.22,4.97,2-1.48,3.8-3.19,5.57-4.93-1.75-1.66-3.19-3.87-5.53-4.75Z"/>
    <path class="st16" d="M281.41,248.14c2.61-.34,5.84.79,5.95,3.85.28,7.3.31,14.65-.02,21.95.02,2.77-2.8,4.27-5.28,4.06-27.69-.24-55.39-.14-83.08.03-2.86.05-7.04-.36-7.27-4.05-.43-6.96-.27-13.97-.1-20.93-.17-2.16,1.37-3.63,3.08-4.64,1.76.32,3.54.56,5.34.61,24.97-.24,49.94-.07,74.91-.11,2.17-.11,4.32-.48,6.47-.77Z"/>
    <path class="st16" d="M191.58,290.97c-.24-3.54,3.56-4.93,6.47-4.93,8.31-.35,16.65-.2,24.97.17,19.7-.08,39.4.11,59.1-.09,2.26.01,5.02,1.36,5.18,3.89.52,6.29.28,12.62.29,18.93-.07,2.5,0,5.87-2.84,6.9-3.55.78-7.23.28-10.84.35-25.32,0-50.64.03-75.96,0-2.36.19-4.47-.83-6.27-2.27-.27-7.64-.14-15.3-.1-22.95Z"/>
  </g>
  <g id="_x23_b5b6b5ff">
    <path class="st40" d="M288.53,216.41c2.15,2.64,3.31,5.95,2.98,9.36-.13,3.63.07,7.26-.13,10.89-.31,4.3-3.43,7.6-5.74,11-7.85-.82-15.76-.21-23.64-.38-15.51-.14-31.03.3-46.53-.24-2.15-2.72-5.56-5.19-5.21-9.06-.04-6.28.16-12.57,0-18.86.6.66,1.21,1.32,1.82,1.99.56,5.16-.17,10.38.55,15.53.53,2.93,3.57,4.43,6.34,4.11,21.03-.2,42.07,0,63.09-.13,2.69.18,5.7-1.27,6.07-4.19.69-6.65-.13-13.35.4-20.02Z"/>
  </g>
  <g id="_x23_acacacff">
    <path class="st20" d="M79.64,240.39c2.8.35,5.61.71,8.43.77,35.88-.17,71.78-.06,107.65,0-.46.54-1.4,1.63-1.87,2.17-3.89.87-7.88,1.19-11.86,1.08-15.24-.21-30.49.83-45.72.11-14.66.15-29.33.4-43.99,0-4.45-.01-10.37.76-12.64-4.13Z"/>
    <path class="st20" d="M288.76,291.44c.93,2.42,1.81,4.92,1.73,7.56,0,5.54,1.13,11.18-.29,16.64-.82,3.01-3.24,5.17-5.13,7.53-12.35,0-24.71-.35-37.06-.01-16.89-.46-33.78.39-50.67-.23-1.92-1.1-3.76-2.34-5.59-3.58-.2-1.44-.4-2.88-.59-4.32,2.16,1.02,4.45,1.9,6.89,1.85,28.33,0,56.67.03,84.99-.05,2.71.24,5.18-2.04,5.07-4.76.28-6.87-.37-13.79.65-20.63Z"/>
    <path class="st20" d="M78.25,314.11c3.91,4,9.75,2.62,14.75,2.77,26.01.03,52.02-.03,78.02.07,3.08,0,6.13-.4,9.16-.9-.43,1.53-.75,3.15-1.64,4.5-2.49,1.26-5.29,1.7-8,2.27-10.49.78-21.02.21-31.53.23-17.2-.04-34.42.29-51.62-.12-4.22-1.32-8.52-4.06-9.14-8.82Z"/>
    <path class="st20" d="M81.48,356.23c9.06-.1,18.12.09,27.16-.58,17.86,1.06,35.79.65,53.66-.09,10.57.9,21.19.64,31.79.68,14.63-.84,29.29-.18,43.94,0,8.59-.61,17.19-.49,25.79-.59,7.49-.15,15.01.91,22.45-.2-1.98,1.95-4.31,3.95-7.27,3.92-6.4.27-12.77-1.13-19.17-.56-9.16.96-18.39.47-27.58.63-19.42-.26-38.83-.02-58.25,0-7.35.15-14.69-1.36-22.03-.28-12.57.38-25.17.41-37.74-.15-7.75.3-15.52.58-23.27.19-3.35-.15-6.75-.93-9.48-2.95Z"/>
  </g>
  <g id="_x23_b8b9b8ff">
    <path class="st41" d="M288.56,254.42c3.84,6.87,3.21,15.31,1.74,22.76-.46,3.81-3.81,5.97-6.54,8.17-18.94.29-37.89.03-56.83.13-3.17.03-6.35-.05-9.51-.31-8.64-2.59-19.96,2.39-26.44-5.8,0-.71,0-2.14,0-2.85.27.31.8.92,1.07,1.22,2.68,3.97,7.71,4.7,12.15,4.76,13.67-.06,27.34-.07,41.01-.09,8.64-.51,17.3-.56,25.93.22,5.25.32,11.79.54,15.16-4.35,1.12-1.91,2.18-3.98,2.1-6.26.03-5.87-.34-11.75.17-17.6Z"/>
    <path class="st41" d="M77.21,368.98l.66-.49c.47,6.53.12,13.08.44,19.61-.18,2.45,1.94,3.91,3.43,5.48,1.46,2.24,3.68,3.89,6.48,3.63,27.33-.16,54.67-.67,81.99.21,14.02-.91,28.09-.6,42.13-.31,4.53-.14,9.06-.32,13.58-.08,6.17.26,12.33-.54,18.51-.44,8.47-.16,16.93.99,25.4.25,5.22-.39,11.41.85,15.45-3.33,1.43-1.63,3.07-3.4,3.16-5.69.28-5.47-.28-10.95.11-16.42,3.59,4.8,2.8,11.18,2.86,16.84.12,4.83-3.33,8.41-6.32,11.75-22.02.29-44.06.26-66.09.14-40.67.12-81.34-.05-122.01.05-4.99.08-9.97-.08-14.95-.21-2.4-3.36-5.63-6.62-5.78-10.99-.4-6.67-.24-13.42.95-20Z"/>
  </g>
  <g id="_x23_f4f7f8ff">
    <path class="st9" d="M441.21,255.27c1.53-.48,3.16-.4,4.76-.45,20.34.16,40.68-.08,61.02.11,3.29-.32,5.29,3.04,4.97,5.99.04,11.05.1,22.11.01,33.16.16,2.63-2.33,4.83-4.89,4.66-20.69.34-41.4-.06-62.1.08-2.54.13-5.84-.57-6.46-3.48-.68-3.75-.3-7.58-.28-11.36.31-7.99-.36-15.99,0-23.98.04-1.96.95-4.12,2.98-4.73Z"/>
  </g>
  <g id="_x23_605f5fff">
    <path class="st0" d="M598.54,270.06c4.12,2.33,8.4,4.37,12.49,6.75-4.1,2.24-8.21,4.47-12.31,6.7.02-1.85.04-3.69.08-5.53-26.07.09-52.14.18-78.2-.03-.14-.51-.43-1.52-.58-2.02,26.27-.03,52.55,0,78.82,0-.1-1.95-.21-3.91-.3-5.86Z"/>
  </g>
  <g id="_x23_999a99ff">
    <path class="st27" d="M80.81,323.67c2.16-.46,4.37-.66,6.58-.74,17.2.41,34.42.08,51.62.12,10.51-.02,21.04.55,31.53-.23,8.93-.04,17.87.34,26.8.11,16.89.62,33.78-.23,50.67.23,12.35-.34,24.71.01,37.06.01,1.83,1.75,3.28,3.87,4.22,6.24-.28,6.21.03,12.44-.24,18.65.02,2.73-1.28,5.19-2.78,7.38-7.44,1.11-14.96.05-22.45.2-8.6.1-17.2-.02-25.79.59-14.65-.17-29.31-.83-43.94,0-10.6-.04-21.22.22-31.79-.68-17.87.74-35.8,1.15-53.66.09-9.04.67-18.1.48-27.16.58-1.02-1.21-1.96-2.48-2.84-3.79,3.93,1.54,8.18,1.76,12.36,1.58,63.68-.07,127.37.03,191.05-.05,2.44.3,5.04-1.38,5.06-4,.47-5.98-.32-11.97-.02-17.96-.18-2.22.48-5.11-1.6-6.63-4.05-1.29-8.39-.54-12.57-.65-62.64,0-125.28.03-187.91.03-2.32-.15-4.23,1.23-6.15,2.28l-.93-.47c.91-1.01,1.88-1.98,2.88-2.9Z"/>
  </g>
  <g id="_x23_80817fff">
    <path class="st17" d="M77.93,326.57l.93.47c.2,8.45.53,16.96-.22,25.4-1.92-8.46-.31-17.27-.71-25.87Z"/>
  </g>
  <g id="_x23_d7d8d7ff">
    <path class="st33" d="M265.63,330.71c2.13-.02,4.26-.02,6.4,0,.07,1.68-.07,3.41.35,5.06,1.7.81,3.71.31,5.54.45-.03,3.89.04,7.78,0,11.68-4.07.2-8.14.21-12.21.16-.24-5.78-.26-11.56-.08-17.34M266.73,339.46c3.23.64,6.55.57,9.82.32-1.01-1.61-2.98-1.23-4.58-1.3-1.78.06-3.78-.28-5.24.98M267.13,341.16c.18.46.55,1.4.74,1.87,2.72-.03,5.45-.02,8.19-.05-.01-.5-.01-1.5-.01-1.99-2.98-.04-5.95-.03-8.92.17M266.79,344.33c1.38,1.39,3.37,1.17,5.17,1.17,1.57-.14,3.58.34,4.56-1.29-3.24-.23-6.5-.24-9.73.12Z"/>
  </g>
  <g id="_x23_4a4a49ff">
    <path class="st28" d="M267.13,341.16c2.97-.2,5.94-.21,8.92-.17,0,.49,0,1.49.01,1.99-2.74.03-5.47.02-8.19.05-.19-.47-.56-1.41-.74-1.87Z"/>
  </g>
  <g id="_x23_d3d4d3ff">
    <path class="st5" d="M74.97,370.43c.56-.37,1.68-1.09,2.24-1.45-1.19,6.58-1.35,13.33-.95,20,.15,4.37,3.38,7.63,5.78,10.99-2.81,1.05-3.9,3.8-4.42,6.53-2.66,6.56-2.79,13.72-2.29,20.68.25,6.78,6.95,12.3,13.64,11.63,23.4-.37,46.81.25,70.21-.25,11.85.21,23.71.35,35.56-.03,5.43.1,10.86.58,16.3.19,9-.62,18,.45,27.01.07,12.17-.66,24.35.25,36.53-.17,5.06-.16,11.94-.24,14.23-5.7,2.79-7.4,4.63-16.52-.25-23.5.04-1.35.07-2.7.09-4.04,1.99,2.18,3.81,4.64,4.5,7.57,1.51,5.98-.47,12.06-.2,18.1,1.16,4.91-4.38,7.55-6.91,10.9,3.82.83,7.69,1.41,11.58,1.87l-.38.33c-24.41-.41-48.83-.04-73.25-.17-50.75-.01-101.51-.02-152.27,0,2.48-.54,4.92-1.24,7.37-1.9-2.09-3.43-5.16-6.16-7.05-9.71-1.97-3.65-.91-7.86-.71-11.76.25-2.63-.06-5.32.52-7.92,1.5-4.2,4.96-7.83,4.85-12.51-.82-3.44-2.93-6.54-2.94-10.17-.09-6.54-.71-13.24,1.21-19.59Z"/>
  </g>
  <g id="_x23_bebfbeff">
    <path class="st22" d="M75.33,427.18c-.5-6.96-.37-14.12,2.29-20.68.83,6.46.47,12.97.6,19.46-.27,2.48,1.75,4.13,3.32,5.71,2.26,2.54,5.51,3.92,8.91,3.79,11.09.06,22.18,0,33.27,0,6.4-.91,12.79.4,19.2-.02,11.46-.36,22.93.56,34.36-.36,11.34.78,22.7-.13,34.05.3,8.33-.7,16.67.09,25.01,0,5.79-.97,11.62.28,17.43-.32,9.74-.09,19.83,1.5,29.33-1.26.41-.53,1.24-1.6,1.65-2.14,1.49-1.36,3.48-2.66,3.54-4.91.52-5.76-.12-11.55.27-17.32,4.88,6.98,3.04,16.1.25,23.5-2.29,5.46-9.17,5.54-14.23,5.7-12.18.42-24.36-.49-36.53.17-9.01.38-18.01-.69-27.01-.07-5.44.39-10.87-.09-16.3-.19-11.85.38-23.71.24-35.56.03-23.4.5-46.81-.12-70.21.25-6.69.67-13.39-4.85-13.64-11.63Z"/>
  </g>
  <g id="_x23_d2d3d2ff">
    <path class="st8" d="M268.12,407.22c2.04-.02,4.08-.02,6.13-.03.05,1.56.04,3.13.25,4.68,1.45,1.49,3.9.51,5.77.84,0,3.85.01,7.7-.07,11.55-4.12.11-8.23.13-12.35-.03.03-5.67-.13-11.35.27-17.01M269.16,415.16c.36.3,1.06.91,1.41,1.21,2.85-.07,5.76.12,8.51-.79-3.22-1.01-6.62-.72-9.92-.42M268.78,418.22c3.11,1.6,6.73.82,10.06.73-2.51-2.65-6.86-1.08-10.06-.73M269.35,420.61c.15.3.43.9.57,1.2,2.94,0,5.89.07,8.82-.23-2.67-2.02-6.3-.71-9.39-.97Z"/>
  </g>
  <g id="_x23_181718ff">
    <path class="st25" d="M268.78,418.22c3.2-.35,7.55-1.92,10.06.73-3.33.09-6.95.87-10.06-.73Z"/>
  </g>
  <g id="_x23_a9a9a8ff">
    <path class="st34" d="M81.54,431.67c8.16-.32,16.32.04,24.49-.15,59.57.15,119.15-.17,178.72.13-.41.54-1.24,1.61-1.65,2.14-9.5,2.76-19.59,1.17-29.33,1.26-5.81.6-11.64-.65-17.43.32-8.34.09-16.68-.7-25.01,0-11.35-.43-22.71.48-34.05-.3-11.43.92-22.9,0-34.36.36-6.41.42-12.8-.89-19.2.02-11.09,0-22.18.07-33.27,0-3.4.13-6.65-1.25-8.91-3.79Z"/>
  </g>
  <g id="_x23_7c7d7bff">
    <path class="st24" d="M69.47,444.06c.56-.02,1.69-.06,2.25-.07,50.76-.03,101.52-.02,152.27,0,24.42.13,48.84-.24,73.25.17l-.95.8c-.11.05-.32.15-.43.2-43.28-.21-86.57-.1-129.86-.14-31.75-.08-63.51.3-95.26-.1l-.1-.04-1.17-.81Z"/>
  </g>
  <g id="_x23_afafafff">
    <path class="st42" d="M70.74,444.91c31.75.4,63.51.02,95.26.1,43.29.04,86.58-.07,129.86.14-1.09.91-1.94,2.51-3.53,2.58-7.86.47-15.78,1.08-23.62,0-11.17-.47-22.35.41-33.51-.16-10.64.71-21.28-.38-31.91.29-16.68-.67-33.33,1.06-49.99.15-12.1.36-24.2-.43-36.3-.18-14.92-.2-29.88,1.55-44.76-.28-.5-.89-1-1.77-1.5-2.64Z"/>
  </g>
  <text class="st14" transform="translate(94.3 418.88)"><tspan x="0" y="0">Recommendation widgets</tspan></text>
  <text class="st14" transform="translate(121.28 384.15)"><tspan x="0" y="0">Comments section</tspan></text>
  <text class="st14" transform="translate(144 345.86)"><tspan x="0" y="0">Footer links</tspan></text>
  <text class="st15" transform="translate(446.37 280.14)"><tspan x="0" y="0">HTML</tspan></text>
  <text class="st12" transform="translate(625.54 118.79)"><tspan x="0" y="0">Clean Text</tspan></text>
  <text class="st4" transform="translate(197.29 54.38)"><tspan x="0" y="0">WARC to Text Extraction Pipeline</tspan></text>
  <text class="st14" transform="translate(91.36 284.58)"><tspan x="0" y="0">JavaScript </tspan><tspan x="18.96" y="18">code</tspan></text>
  <text class="st14" transform="translate(211.26 305.32)"><tspan x="0" y="0">CSS styles</tspan></text>
  <text class="st14" transform="translate(224.43 267.27)"><tspan x="0" y="0">Ads</tspan></text>
  <text class="st14" transform="translate(240.4 231.21)"><tspan x="0" y="0">Ads</tspan></text>
  <text class="st14" transform="translate(94.7 231.2)"><tspan x="0" y="0">Navigation bar</tspan></text>
  <text class="st15" transform="translate(69.29 194.35)"><tspan x="0" y="0" xml:space="preserve"> HTML Document</tspan></text>
  <text class="st15" transform="translate(56.57 157.67)"><tspan x="0" y="0" xml:space="preserve"> HTTP Response</tspan></text>
  <text class="st15" transform="translate(36.28 115.24)"><tspan x="0" y="0">WARC Record</tspan></text>
  <text class="st3" transform="translate(359.88 256.56)"><tspan x="0" y="0">warcio</tspan></text>
  <text class="st14" transform="translate(355.4 300.21)"><tspan x="0" y="0">streaming</tspan><tspan x="-15.41" y="18" xml:space="preserve"> WARC reader</tspan></text>
  <text class="st3" transform="translate(517.82 260.06)"><tspan x="0" y="0">trafilatura</tspan></text>
  <text class="st14" transform="translate(542.64 298.6)"><tspan x="0" y="0">content</tspan><tspan x="-9.79" y="18" xml:space="preserve"> extraction</tspan></text>
  <text class="st13" transform="translate(622.48 154.94)"><tspan x="0" y="0">Optionally includes a title.</tspan><tspan x="0" y="31.2">Two souls, alas, are housed within my breast,</tspan><tspan x="0" y="46.8">And each will wrestle for the mastery there.</tspan><tspan x="0" y="62.4">The one has passion&apos;s craving crude for love,</tspan><tspan x="0" y="78">And hugs to the world with eager, clinging </tspan><tspan x="0" y="93.6">arms;The other, from earthly dust aspires,</tspan><tspan x="0" y="109.2">Unto the high ancestral realms above.</tspan><tspan x="0" y="140.4">Oh, there are moments when I dare not speak,</tspan><tspan x="0" y="156">When the heart surges, yet the tongue is weak;</tspan><tspan x="0" y="171.6">The spirit strains to break its mortal chain,</tspan><tspan x="0" y="187.2">To taste the freedom heaven would ordain.</tspan><tspan x="0" y="218.4">Yet still I linger, bound to mortal strife,</tspan><tspan x="0" y="234">Half slave to flesh, half child of endless life;</tspan><tspan x="0" y="249.6">Thus torn apart, my being cannot rest,</tspan><tspan x="0" y="265.2">Till one strong voice subdues the other&apos;s quest.</tspan></text>
</svg>