<?xml version="1.0" encoding="UTF-8"?>
<svg id="_图层_1" data-name="图层_1" xmlns="http://www.w3.org/2000/svg" version="1.1" viewBox="0 0 1800 1005">
  <!-- Generator: Adobe Illustrator 29.6.0, SVG Export Plug-In . SVG Version: 2.1.1 Build 207)  -->
  <defs>
    <style>
      .st0 {
        fill: #3961a5;
      }

      .st1 {
        fill: #1d335f;
      }

      .st2 {
        fill: #22beda;
      }

      .st3 {
        font-size: 29px;
      }

      .st3, .st4, .st5 {
        font-family: TimesNewRomanPS-BoldMT, 'Times New Roman';
        font-weight: 700;
      }

      .st3, .st6, .st7, .st8, .st9, .st5 {
        isolation: isolate;
      }

      .st4, .st10, .st11, .st9 {
        fill: #fff;
      }

      .st4, .st11, .st9 {
        font-size: 35px;
      }

      .st12 {
        fill: #557963;
      }

      .st13 {
        fill: #4d805e;
      }

      .st14 {
        fill: #5a9da3;
      }

      .st15 {
        fill: #546b5c;
      }

      .st16 {
        fill: #51705c;
      }

      .st17 {
        fill: #d6a067;
      }

      .st18 {
        fill: #e47409;
      }

      .st19 {
        fill: #939ba4;
      }

      .st20 {
        fill: #223f70;
      }

      .st21 {
        fill: #e0741a;
      }

      .st22 {
        fill: #56b775;
      }

      .st23 {
        fill: #1383b3;
      }

      .st24 {
        fill: #f9f9f5;
      }

      .st25 {
        fill: #dededf;
      }

      .st26 {
        fill: #244172;
      }

      .st27 {
        fill: #1f345d;
      }

      .st28 {
        fill: #9a8a46;
      }

      .st29 {
        fill: #e37007;
      }

      .st30 {
        fill: #52755e;
      }

      .st31 {
        fill: #54735f;
      }

      .st32 {
        fill: #ca6e1a;
      }

      .st33 {
        fill: #038bc2;
      }

      .st34 {
        fill: #1280b1;
      }

      .st35 {
        fill: #e37009;
      }

      .st11, .st7, .st8, .st9 {
        font-family: TimesNewRomanPSMT, 'Times New Roman';
      }

      .st36 {
        fill: #bee9f1;
      }

      .st37 {
        fill: #d8a167;
      }

      .st38 {
        fill: #369cb7;
      }

      .st39 {
        fill: #137baa;
      }

      .st40 {
        fill: #1282b3;
      }

      .st41 {
        fill: #1c79a5;
      }

      .st42 {
        fill: #3b945a;
      }

      .st43 {
        fill: #f1f1f3;
      }

      .st44 {
        fill: #5f9b9a;
      }

      .st7 {
        font-size: 25px;
      }

      .st45 {
        fill: #f89429;
      }

      .st46 {
        fill: #1c325c;
      }

      .st8 {
        font-size: 21px;
      }

      .st47 {
        fill: #519c6c;
      }

      .st48 {
        fill: #edf1f3;
      }

      .st49 {
        fill: #cc711d;
      }

      .st50 {
        fill: #0d89bb;
      }

      .st51 {
        fill: #838279;
      }

      .st5 {
        font-size: 47px;
      }

      .st52 {
        fill: #577060;
      }

      .st53 {
        fill: #d09e69;
      }

      .st54 {
        fill: #1c315b;
      }

      .st55 {
        fill: #c9cacd;
      }
    </style>
  </defs>
  <g id="_x23_edf1f3ff">
    <path class="st48" d="M0,0h1800v1005H0V0M737.63,184.08l.31.39c-8.83-.3-17.72.06-26.53.64-2.97-.46-5.99-.02-8.97.05-47.91,1.75-95.78,4.57-143.52,8.92-22.26,2.41-44.66,4.64-66.39,10.27-4.27,1.37-9.07,2.5-12.16,6-1.18,1.46.12,3.26.5,4.79,3.29,9.81,7.23,19.44,11.43,28.89-109.79,0-219.58-.03-329.37,0-6.93.07-13.87-.25-20.79.2l.19,1.37c-5.53,1.02-10.64,4.32-13.16,9.44-3.44,5.76-2.53,12.64-2.58,19.03-.04,19.65.07,39.31.03,58.96-.01,1.91.22,3.81.61,5.69,1.2,6.22,6.8,11.86,13.04,13.04,3.49,1,7.14.69,10.71.72,128.11-.01,256.21.02,384.31-.02,1.27,3.14,2.53,6.29,3.96,9.36,2.19,1.17,4.36,2.44,6.75,3.21,11.76,3.47,23.87,5.56,36.01,7.18,31.61,4.88,63.56,6.98,95.44,9.24-29.56,1.37-59.1,3.5-88.45,7.35-10.01,1.73-20.2,2.92-29.84,6.28-2.61.88-5.17,2.19-6.66,4.61.85,1.88,1.6,3.82,2.38,5.75-.14,1.29.71,2.43,1.11,3.61,3.15,7.12,5.71,14.49,8.93,21.58-54.64-.16-109.28-.07-163.92-.07-16.22.16-32.47-.33-48.68.25-2.39-.53-4.88-.16-7.31-.24-30.32-.01-60.65,0-90.98.08-5.37.15-11.25-1-16.08,2.01-5.43,2.11-8.47,7.62-9.87,13-.61,1.01-.89,2.11-.84,3.31.18,22-.02,44,.06,66,.12,2.45-.6,5.18.8,7.4,1.7,8.24,9.13,15.49,17.87,15.07,120.42,0,240.84.05,361.26-.05,1.32,2.5,1.54,5.34,2.05,8.07,3.89,5.14,10.61,6.24,16.44,7.9,26.28,6.33,53.3,8.75,80.19,10.76,6.89.76,13.89,1.97,20.82.89-.73.53-1.38,1.14-1.95,1.82-7.94-.94-15.81.72-23.74.87-22.11,2.23-44.43,4.17-65.97,10-3.69.96-7.46,2.47-9.83,5.61.19,1.26.38,2.53.58,3.8l.49.12c3.52,9.46,7.7,18.65,11.25,28.11-98.48.06-196.97.06-295.45.06-8.98.45-16.44,8.67-16.46,17.58.07,24.01-.02,48.02.05,72.04.33,7.92,6.44,15.2,14.39,16.34,7.28.7,14.61.37,21.91.45,106.17-.05,212.34.08,318.5-.09,1.48,3.74,2.56,7.73,4.54,11.26,4.66,4.15,11.03,5.49,16.84,7.29,9.97,2.52,20.06,4.67,30.28,5.85,7.39.57,14.66,2.15,22.08,2.5,5.38,1.37,11.04.55,16.41,2.1-14.28,1.22-28.51,2.98-42.63,5.43-8.73,1.75-17.54,3.56-25.83,6.9-3.11,1.2-7.14,4.59-4.39,8.06,3.66,9.56,7.7,18.96,11.66,28.4-89.14.14-178.29-.01-267.44.07-9.24-.53-18.27,7.02-18.43,16.47-.04,23.99.01,47.98-.03,71.98-.16,8.87,7.21,17.9,16.44,17.82,6.31.02,12.63.4,18.94.07,70.34-.13,140.7.03,211.03.1,27.9-.39,55.82.11,83.72-.26,4.01,5.49,3.66,14,10.2,17.52,8.32,4.7,17.83,6.55,27.02,8.8,9.51,2.16,19.22,3.06,28.93,3.61,3.99.99,8.11.61,12.18.7,7.33.17,14.66.11,21.98-.15,4.92-1.04,9.98-.48,14.91-1.41,13.16-1.46,26.35-4.07,38.61-9.22,4.4-1.94,9.05-4.75,10.35-9.74,6.99-16.04,14.09-32.05,21.14-48.08,2.41-3.84,2.89-8.72,6.03-12.11,9.68-.36,19.4-.2,29.1-.07,3.79,1.14,6.79,4.27,8.26,7.9.65,4.79.14,9.67.29,14.5.19,5.97-.7,12.14,1.24,17.92,2.04,5.15,7.59,8.54,13.08,8.4,6.42-.1,12.84.1,19.27-.07-.2-1.16-.58-2.25-1.12-3.25-5.2.49-10.44.26-15.65.38-4.31.02-9.75-.64-11.73-5.09-2.4-3.66-1.19-8.19-1.58-12.28-.47-6.7.48-13.48-.62-20.13-.39-3.35-2.69-5.88-4.67-8.42,15.85.05,31.71-.19,47.56-.09.04-.73.13-2.2.18-2.93-4.82-.55-9.66.08-14.48-.19-7.42.27-14.87-.36-22.27.36,1.04-2.15,3.23-3.44,4.27-5.58,1.62-3.09,1.91-6.65,2.06-10.06.21-7.03-.04-14.05.1-21.07.27-4.49,4.09-8.32,8.58-8.57,7.76-.13,15.53-.04,23.3-.1-.01-.83-.05-2.51-.07-3.34-4.52.05-9.03.32-13.54.32-4.93.01-10.13-.42-14.79,1.44-3.58,2.33-6.71,5.94-6.98,10.4-.52,9.12.32,18.31-.4,27.43-1.5,3.66-4.67,6.92-8.48,8.1-13.22.75-26.49-.03-39.72.48,3.68-7.74,7.01-15.63,10.41-23.5,8.31-18.59,17.48-36.85,25.11-55.74,2-1.57,2.97-4.56,1.02-6.6-3.74-3.58-8.9-5.17-13.8-6.44-18.52-4.99-37.66-6.9-56.65-9.07,17.18-1.66,34.36-3.33,51.44-6.01,11.65-2.36,23.79-3.91,34.44-9.56,3.06-1.33,3.53-5.03,5.13-7.61,8.31-18.7,16.52-37.47,24.5-56.31,9.05.24,18.11.06,27.16.11,5.06-.11,9.56,4.2,10.57,8.99.26,8.88-.01,17.79.09,26.68.2,6.47,5.72,12.64,12.38,12.64,5.98.05,11.97-.04,17.95,0,1.61.24,3.02-.47,4.07-1.68-.45-.32-1.35-.95-1.8-1.26-6.73-.24-13.46.08-20.19-.1-4.34-.29-8.83-3.99-8.71-8.56-.06-8.03-.28-16.05,0-24.07-.02-4.62-1.96-8.88-4.49-12.64,13.37-.24,26.71-.69,40.06-.12,2.37-.17,7.28.31,5.39-3.58-11.49-.08-22.99.16-34.47-.11,1.99-2.32,4.19-4.65,5.07-7.66,1.26-4.53.39-9.28.69-13.91.27-4.98-.36-10.02.35-14.97.66-4.81,5.28-8.38,10.03-8.38,7.35-.36,14.75.47,22.07-.32-.17-.74-.5-2.23-.66-2.98-7.78.39-15.56.29-23.33.36-4.51-.03-7.94,3.49-10.32,6.94-2.38,5.48-1.05,11.6-1.39,17.38-.34,6.67,1.48,14.46-3.38,19.94-2.6,2.02-5.62,3.7-9,3.67-12.01.14-24.01-.05-36.01.09.62-1.59,1.12-3.23,1.43-4.9.86-1.23,1.69-2.49,2.21-3.9,7.52-18.83,16.55-37.03,24.21-55.78.74-1.32,1.36-2.72,1.86-4.15,2.34-5.02,4.56-10.09,6.87-15.11-1.85-3.48-5.92-4.7-9.34-6.02-12.74-3.79-25.91-5.78-39.09-7.3-4.21-.44-8.42-1.37-12.68-1.07-4.4-1.24-9.03-1.01-13.52-1.66-7.52-.39-15-1.24-22.52-1.44-1.63-.73-3.42-.73-5.15-.82v-.3c3.24.25,6.48.59,9.73.35,16.63-1.84,33.36-2.44,49.94-4.8,17.87-2.05,35.89-4.18,53.07-9.79,2.63-1.01,5.79-2.21,6.86-5.07,4.02-9.88,8.4-19.61,12.65-29.39,3.49-9.16,8.14-17.86,11.41-27.1.3-.72.91-2.15,1.22-2.87,10.61-.56,21.24-.09,31.87-.27,3.33.08,7.13-.53,9.94,1.74,3.19,2.35,4.43,6.3,4.87,10.07-.08,8.15-.26,16.33.13,24.48l-.23.55c1.07,5.13,4.64,10.14,10,11.31,5.07.69,10.23.43,15.35.52,2.98-.22,6.25.48,8.96-1.12-.21-.55-.63-1.64-.85-2.19-6.76-.06-13.52.11-20.27-.05-4.83-.06-9.15-3.84-9.8-8.63-1.2-9.4.65-19.05-.95-28.37l.24-.98c-1.3-2.66-2.81-5.21-4.59-7.56,12.38.26,24.77.02,37.16.17,1.51-.06,3.34.25,4.37-1.21.29-1.97-1.82-2.29-3.23-2.15-11.37-.03-22.74.07-34.11-.04,2.8-3.94,5.81-8.21,5.38-13.32-.06-6.71-.05-13.41-.18-20.11.02-4.79,2.67-10.26,7.81-11.11,7.96-.43,15.97.38,23.92-.41.05-.75.14-2.23.19-2.98-5.69-.43-11.4-.04-17.1-.15-2.91,0-5.89-.21-8.67.74-4.98,1.48-8.92,6.18-9.25,11.4-.56,8.66.19,17.37-.39,26.03-.44,3.7-3.34,6.41-6.2,8.46-3.62,2.34-8.08.99-12.08,1.45-10.17.18-20.38-.54-30.5.41,10.07-24.47,20.95-48.61,31.46-72.9,1.32-2.66,2.71-5.31,3.49-8.18l.85-.32c.32-1.84-.09-3.72-1.74-4.77-5.34-3.35-11.73-4.11-17.74-5.49-32.77-6.05-66.14-8.06-99.35-9.82,37.78-3.06,75.8-4.94,113.09-12.15,7.34-1.6,14.94-2.67,21.79-5.93,3.56-1.72,4.23-5.98,5.72-9.25,7.63-17.5,15.36-34.97,22.46-52.7,11.37-.06,22.75.05,34.13-.07,3.85-.11,7.76,2.92,8.28,6.82.66,3.6-.51,7.51,1.25,10.88,1.63,3.68,5.27,6.63,9.41,6.67,6.66.4,13.33-.08,20,.12,1.82-.13,3.92.49,5.53-.7.64-1.01-.11-2.83-1.46-2.46-7.35-.07-14.7.38-22.04.22-3.13-.06-6.86-1.01-8.19-4.18-1.54-3.88-.59-8.22-1.63-12.2-.83-2.91-3.22-4.92-5.4-6.82,2.28-2.11,4.89-4.27,5.67-7.43.65-3.13.39-6.36.95-9.5.64-3.02,3.51-5.15,6.52-5.34,8.27-.5,16.57.09,24.86-.11,1.48-.46.67-2.1.67-3.17-8.14.11-16.29-.13-24.42.1-4.76-.22-9.32,3.05-11,7.43-1.07,4.35.93,9.8-2.81,13.24-3.34,3.83-8.72,3.01-13.24,3.01-8.5-.33-17-.24-25.49-.21,5.45-11.57,10.08-23.51,15.38-35.15,3.01-7.5,6.67-14.76,9.49-22.3,2.33-5.22,4.91-10.36,6.62-15.82,1.37-1.91,2.55-4.05,2.99-6.38.98-2.31,2.45-4.49,2.8-7.02-1.11-1.92-2.85-3.43-4.84-4.35-6.18-2.89-12.96-4-19.54-5.57-23.93-4.42-48.15-6.87-72.37-9-33.61-2.91-67.29-5-100.99-6.43-10.8-.2-21.63-1.26-32.41-.95-8.23-.6-16.52-.85-24.76-.66l.21-.36c-19.7-.43-39.4-.78-59.1-1.19-13.09.01-26.23-.65-39.28.01-16.46-.34-32.97-.48-49.43.02-7.38-.72-14.88.05-22.3-.08-22.46.22-44.91.85-67.37,1.26M1409.04,624.24l-.12-1.09-.91.05c-.89,2.27-1.12,5.01-3.42,6.38,2.98,4.46-1.86,7.9-4.4,11.02.87.68,1.77,1.37,2.68,2.07-.4.23-1.21.7-1.61.93.35.14,1.06.42,1.41.57-2.21,1.72-.39,4.65-2.06,6.56.65,1.28,1.32,2.56,2.01,3.85-2.08,3.07-2.11,7.54.26,10.46-.61,1.27-1.63,2.44-1.68,3.91-.24,4.93.31,9.89-.4,14.81-.8,4.49,1.85,8.94-.47,13.28.45.95.92,1.91,1.41,2.89-.58,3.93-.27,7.9-.24,11.86-.07.96.32,1.84.82,2.66-1.5,2.44-1.37,5.55.16,7.94-1.39,3.08-1.73,6.8-.13,9.88.19,3.52,1.26,7.24-.49,10.56-1.01,1.53-.18,3.09.65,4.48-.36.54-.71,1.08-1.03,1.64-.25,3.04-.45,6.13.33,9.12-.5.49-.96,1-1.39,1.54.48.37,1.45,1.13,1.94,1.51-.65,1.38-1.28,2.78-1.89,4.18.51.57,1.05,1.16,1.62,1.76-.38,1.95-.68,3.92-.91,5.91.35.37,1.06,1.1,1.41,1.47-.34.94-.67,1.88-.96,2.85.71,1.07,1.04,2.32,1.18,3.61-.95-.14-1.88-.27-2.79-.39.53.61,1.06,1.24,1.62,1.88-.26.23-.76.7-1.01.93,1.71,1.71,1.69,4.21,1.95,6.48-.46.61-.89,1.23-1.31,1.87.62.11,1.84.35,2.46.47-1.01,1.45-2.04,2.89-3.06,4.33,1.01,1.35,2.98,3.55,1.03,5.01,1.75,2.24-.6,5.07.23,7.55,1.12,3.15.46,6.72-1.37,9.48.41.4,1.23,1.19,1.64,1.59-.84,3.25-.61,6.58.15,9.82,1.06,4.71-1.61,9.37-.35,14.05-.52.51-1.02,1.03-1.5,1.57.47.42,1.41,1.25,1.88,1.66-.74.15-1.46.31-2.16.48-.05.96-.08,1.93-.09,2.91.51-.04,1.52-.13,2.02-.18-.43,1.06-.85,2.13-1.23,3.21-.47-.03-1.4-.09-1.86-.12,2.08,2.36,2.46,5.51,3.05,8.49-.55.5-1.07,1.02-1.57,1.55,1.1,1.97,2.27,4.11,2.15,6.47-.22,2.09-2.16,4.6.31,6.09-.34.34-1.02,1.03-1.37,1.37,1.44,3.29-1.39,6.95.69,10.02-2.5,3.67,1.58,7.78-.23,11.55-1.1,1.93-.01,3.98,1.4,5.41-.47.8-1.52,1.43-1.26,2.5.19,5.44.97,11.34-1.89,16.25-.48,2.79,3.35,4.56,2.07,7.72.21.36.64,1.09.85,1.46.86,3.92,3.55,7.18,4.27,11.2,1.41.18,2.84.36,4.3.56-.54.6-1.07,1.21-1.58,1.83,3.1.88,6.13,2.3,7.24,5.59,4.12-.73,8.03,1.12,12.09.78.36.4,1.08,1.19,1.44,1.59,1.16-.33,2.35-.63,3.55-.93,0,.47-.02,1.4-.03,1.87,1.95-.2,3.81-.83,5.53-1.79.86.49,1.76,1.02,2.67,1.55.51-.79,1.04-1.56,1.59-2.33,2.2.47,4.43,1.03,6.49,2.04.72-.44,1.46-.87,2.22-1.28,1.32.56,2.66,1.12,4.01,1.7.97-.62,1.95-1.25,2.96-1.84.75.13,1.53.27,2.34.43.74-.79,1.69-1.08,2.73-.58,2.84.73,6.15,1.48,8.79-.3,1.01.84,2.03,1.7,3.06,2.58.73-.94,1.48-1.86,2.25-2.78.86.42,1.75.85,2.67,1.29,3.79-.55,7.65-.07,11.47-.42,4.18-.55,8.53-1.26,12.69-.13,2.69.77,5.52.55,8.27.13,3.4-.65,6.83.3,10.26.3.38-.36,1.15-1.07,1.53-1.43,2.12.69,4.28.35,6.33-.45,1.43,1.51,3.39.87,4.97-.03,1.44.53,2.93.99,4.47,1.26.56-.44,1.13-.87,1.74-1.28,2.6,1.54,6.22-.01,8.02,3.02.3-.35.9-1.05,1.21-1.39,1.97-.02,3.96.22,5.68,1.32,1.78-1.05,3.57-2.75,5.84-2.14,2.79.5,5.74.76,8.32,2.07.16-.67.35-1.33.58-1.97,2.91.65,5.85.48,8.53-.95,2.75.5,5.67,1.11,7.91,2.95,3.28-.57,6.57-1.77,9.95-1.06.7-.38,1.43-.74,2.18-1.1.78.77,1.58,1.56,2.41,2.36.45-.44.91-.87,1.41-1.29.28.33.83.98,1.11,1.3,1.15-1.16,2.31-2.32,3.48-3.48,1.41.75,2.84,1.52,4.28,2.3,2.03-2.07,4.12-.2,5.93,1.14,1.19-.95,2.37-1.93,3.72-2.69,1.21-.21,2.09.95,3.16,1.43,3.42-.65,7.09.85,10.33-.83.68.8,1.41,1.64,2.14,2.47,2.44-2.56,6.1-3.07,9.46-3.43,1.45.18,2.62,1.26,3.95,1.9,1.73-.31,3.51-.38,5.29-.09.37-.33,1.11-.97,1.48-1.29,4.14.73,8.38-1.82,12.41.24.37-.31.78-.59,1.22-.85,1.75,1.38,3.77.6,5.69.05,2.46,1.21,5.31,1.44,7.94.58,2.58-1.22,4.92,1.11,7.26,1.95-.02-.52-.04-1.56-.06-2.08,1.79.71,3.57,1.51,5.25,2.49,1.43-.48,2.89-.94,4.35-1.41.74.45,1.52.94,2.32,1.43,2.3-2.71,6.13-1.69,9.26-1.92,2.45-.43,3.21,2.45,4.59,3.93.99-.9,2.28-.93,3.56-.92.52-.72,1.06-1.43,1.62-2.13,2.89,2.16,6.31.7,9.26-.49-.04.52-.11,1.56-.15,2.07,2.28-1.4,4.64-2.68,6.85-4.23.32.89.66,1.8,1.02,2.72,2.73-2.78,6.8-3.13,10.17-4.78,2.64-.21,5.17-1.3,7.2-3.02,1.22-2.28,2.23-4.75,4.57-6.14.52-4.85,2.85-9.24,3.77-14.01.67-.12,1.37-.22,2.08-.32-1.05-.85-2.08-1.68-3.09-2.5,1.16-1.39,2.37-2.74,3.63-4.04-.96-.49-1.89-.97-2.78-1.44,2.57-3,.9-6.96,1.64-10.47-.39-.44-.75-.87-1.07-1.28.82-1.22,1.46-2.56,1.99-3.94-.32-.37-.95-1.12-1.26-1.49.05-.4.14-1.2.19-1.6-.27-.3-.81-.89-1.08-1.19.39-.65.81-1.28,1.25-1.9-.46-.67-.9-1.34-1.3-1.99.86-.41,1.74-.81,2.64-1.2-.57-1.3-1.09-2.59-1.63-3.87.33-.39.97-1.17,1.3-1.56-.21-.26-.63-.8-.83-1.06-.56-2.9-1.46-5.74-1.37-8.71.72-1.4,1.37-2.84,1.97-4.3-1.31-1.61-1.14-3.75-1.36-5.67.38-.37,1.14-1.09,1.52-1.45-.86-.73-1.69-1.44-2.51-2.14.71-.22,2.13-.68,2.83-.9-1.27-.26-2.54-.52-3.76-.76.85-.73,1.73-1.45,2.63-2.17-.32-3.86-.64-7.74-.32-11.6,1.27-1.7,1.49-4.08.09-5.78.38-.68.78-1.34,1.21-1.99-.87-.65-1.71-1.29-2.52-1.92.58-.18,1.74-.53,2.32-.7-1.45-3.58-.07-7.57-1.82-11-.41-2.27.99-4.54.46-6.82-.17-.99-.52-1.97-.12-2.94.69-2.14-1.32-4.48.22-6.43-.04-2.51.44-5.18-1-7.41.78-.45,1.58-.9,2.41-1.33-.48-.44-.94-.88-1.37-1.3.33-.42,1-1.25,1.33-1.67-.47-.5-.91-.98-1.32-1.46.34-.4,1.01-1.21,1.35-1.61-.79-.59-1.56-1.17-2.28-1.74,1.45-4.32,1.28-8.89,1.09-13.37-.73-.62-1.4-1.23-2.07-1.83,2.42-2.47.53-6.22,1.6-9.21.45-.02,1.36-.04,1.81-.05.3-.73.63-1.45.99-2.16-1.69.27-3.66.95-4.8-.74,2.05-1.07,3.51-3.18,1.62-5.17.61-1.52,1.52-2.88,2.86-3.87-.69-.67-1.34-1.35-1.92-2.05-.88-4.36-1.09-8.71-.94-13.15.22-.41.66-1.23.88-1.65-.44-.84-.86-1.68-1.23-2.5.73-.51,1.49-1,2.28-1.49-.48-.57-.93-1.13-1.37-1.66.16-.51.46-1.53.61-2.04-.34-.35-1.04-1.04-1.38-1.38.8-.73,1.63-1.45,2.49-2.14-1.24-.01-2.43-.03-3.63-.08,2.4-2.66.48-7.29,4.25-8.88-3.29-.37-3.23-3.51-2.92-6.05.86-.61,1.78-1.21,2.69-1.81-.58.02-1.75.07-2.34.09-.89-2.43-.09-5.15-1.49-7.46.74-.48,1.5-.95,2.28-1.41-.46-1.02-.9-2.02-1.3-3.02.6-1.23,1.3-2.52.66-3.9-.97-2.29.71-4.46.47-6.79-1-2.64-2.99-6.6-.07-8.6-1-.94-1.75-2.02-1.48-3.44.41.4,1.24,1.2,1.65,1.6.29-.74.6-1.46.94-2.17-.82-.56-1.62-1.11-2.39-1.65.61-2.27,1.95-4.63.89-6.97-1.36-2.84.77-5.55,1.8-8.1-1.51-1.54-3.93-3.07-3.33-5.55.69-3.32,2.18-7.01-.22-10.03.7-.61,1.43-1.21,2.19-1.8-.89-2.07-1.87-4.08-3.01-6.01.29-.57.6-1.14.96-1.68-3.05-3.2-.97-8.76-4.99-11.19-2.24-1.5-2.35-5.89-5.69-5.28-3.15-2.3-6.74-4.44-10.77-4.28-107.68,0-215.36.02-323.04-.02-6.13-.25-11.2,4.13-13.91,9.29Z"/>
  </g>
  <g id="_x23_244172ff">
    <path class="st26" d="M737.63,184.08c22.46-.41,44.91-1.04,67.37-1.26,7.42.13,14.92-.64,22.3.08,3.68,1.62,7.75.96,11.64,1.03,10.67,0,21.33.07,32,.05,1.98.05,3.9-.52,5.79-1.1,13.05-.66,26.19,0,39.28-.01,19.7.41,39.4.76,59.1,1.19l-.21.36c-.22.37-.67,1.1-.89,1.46,6.31.25,12.63-.01,18.95.19,2.27.12,4.52-.34,6.7-.99,10.78-.31,21.61.75,32.41.95,33.7,1.43,67.38,3.52,100.99,6.43,24.22,2.13,48.44,4.58,72.37,9,6.58,1.57,13.36,2.68,19.54,5.57,1.99.92,3.73,2.43,4.84,4.35-.35,2.53-1.82,4.71-2.8,7.02-.07-.77-.2-2.3-.27-3.07-3.17,1.47-6.35,2.96-9.77,3.7-22.9,5.94-46.56,7.97-70.03,10.36-28.32,3-56.73,5.03-85.18,6.16-86.81,4.75-173.77,5-260.7,4.64-74.98-1.26-150.01-3.32-224.79-9.51-13.34-1.44-26.71-2.61-40.05-4.01-12.11-1.45-24.11-3.67-36.15-5.57-6.13-1.11-12.26-2.91-17.41-6.54-.45.14-1.34.43-1.79.58-.38-1.53-1.68-3.33-.5-4.79,3.09-3.5,7.89-4.63,12.16-6,21.73-5.63,44.13-7.86,66.39-10.27,47.74-4.35,95.61-7.17,143.52-8.92,2.98-.07,6-.51,8.97-.05,2.48.66,5.02,1.15,7.61,1.04,6.67-.19,13.34-.15,20.02-.32-.27-.34-.82-1.02-1.1-1.36l-.31-.39Z"/>
    <path class="st26" d="M492.3,244.03c3.25,6.94,5.18,14.45,8.06,21.57,6.83,15.17,12.57,30.81,18.95,46.19,5.01,13.04,10.84,25.76,15.31,39.02-13.21.67-26.45.03-39.67.27-113.64.05-227.28-.05-340.92,0-4.59.03-9.25-.44-13.76.68-6.24-1.18-11.84-6.82-13.04-13.04.48-2.23.96-4.48.93-6.77-.01-22-.14-43.99-.15-65.99-.22-3.72,1.96-7.22,1.16-10.92,2.52-5.12,7.63-8.42,13.16-9.44,1.22-.12,2.44-.2,3.67-.22,115.58-.03,231.16.03,346.74-.03l-.44-1.32M427.44,272.16l.42,1.15-.44-.68c-.96,1.66-1.85,3.44-1.7,5.42-.25,12.63.19,25.26.01,37.9.1,2.84-.45,5.91,1.02,8.51,1.47,2.48,4.42,3.64,7.22,3.51,9.71.07,19.43.09,29.15-.07,2.73.15,5.26-1.31,6.84-3.49,1.45-3.61.84-7.55.97-11.34-.11-9.25.21-18.54-.23-27.78-2.8-4.07-6.76-7.16-10.01-10.86-1.68-1.55-3.08-4.02-5.63-4.05-4.67-.3-9.36-.15-14.03-.23-4.59.05-9.49-.48-13.59,2.01Z"/>
  </g>
  <g id="_x23_1c315bff">
    <path class="st54" d="M827.3,182.9c16.46-.5,32.97-.36,49.43-.02-1.89.58-3.81,1.15-5.79,1.1-10.67.02-21.33-.05-32-.05-3.89-.07-7.96.59-11.64-1.03Z"/>
    <path class="st54" d="M711.41,185.11c8.81-.58,17.7-.94,26.53-.64.28.34.83,1.02,1.1,1.36-6.68.17-13.35.13-20.02.32-2.59.11-5.13-.38-7.61-1.04Z"/>
    <path class="st54" d="M974.01,185.88c.22-.36.67-1.09.89-1.46,8.24-.19,16.53.06,24.76.66-2.18.65-4.43,1.11-6.7.99-6.32-.2-12.64.06-18.95-.19Z"/>
    <path class="st54" d="M140.27,351.76c4.51-1.12,9.17-.65,13.76-.68,113.64-.05,227.28.05,340.92,0,13.22-.24,26.46.4,39.67-.27.17.41.5,1.24.67,1.65-128.1.04-256.2.01-384.31.02-3.57-.03-7.22.28-10.71-.72Z"/>
  </g>
  <g id="_x23_3961a5ff">
    <path class="st0" d="M480.87,215.14c.45-.15,1.34-.44,1.79-.58,5.15,3.63,11.28,5.43,17.41,6.54,12.04,1.9,24.04,4.12,36.15,5.57,13.34,1.4,26.71,2.57,40.05,4.01,74.78,6.19,149.81,8.25,224.79,9.51,86.93.36,173.89.11,260.7-4.64,28.45-1.13,56.86-3.16,85.18-6.16,23.47-2.39,47.13-4.42,70.03-10.36,3.42-.74,6.6-2.23,9.77-3.7.07.77.2,2.3.27,3.07-.44,2.33-1.62,4.47-2.99,6.38-3.43,4.58-6.14,10.05-6.62,15.82-2.82,7.54-6.48,14.8-9.49,22.3-5.3,11.64-9.93,23.58-15.38,35.15-.57,1.22-1.1,2.45-1.59,3.7-7.1,17.73-14.83,35.2-22.46,52.7-1.49,3.27-2.16,7.53-5.72,9.25-6.85,3.26-14.45,4.33-21.79,5.93-37.29,7.21-75.31,9.09-113.09,12.15-9.98-.82-19.94.84-29.91.91-9.24.89-18.52.73-27.78,1.03-10.34,1.06-20.74.53-31.11.87-9.71.54-19.44-.32-29.14.72-38.66.25-77.32.23-115.97.03-3.06.02-6.08-.44-9.11-.59-10.64.16-21.26-.51-31.89-.38-10.97-1.02-22.01-.7-33-1.19-6.72-1.09-13.56-.33-20.28-1.34-3.96-.58-7.92.48-11.88.14-3.45-.33-6.9-.54-10.36-.53-31.88-2.26-63.83-4.36-95.44-9.24-12.14-1.62-24.25-3.71-36.01-7.18-2.39-.77-4.56-2.04-6.75-3.21-1.43-3.07-2.69-6.22-3.96-9.36-.17-.41-.5-1.24-.67-1.65-4.47-13.26-10.3-25.98-15.31-39.02-6.38-15.38-12.12-31.02-18.95-46.19-2.88-7.12-4.81-14.63-8.06-21.57-4.2-9.45-8.14-19.08-11.43-28.89Z"/>
  </g>
  <g id="_x23_223f70ff">
    <path class="st20" d="M1217.4,240.6c.48-5.77,3.19-11.24,6.62-15.82-1.71,5.46-4.29,10.6-6.62,15.82Z"/>
    <path class="st20" d="M429.95,276.43c.89-.88,1.7-2.18,3.15-2.01,6.35-.13,12.7.03,19.05-.07.24,4.42-.18,8.89.47,13.27.21.22.64.65.85.87,4.37,1.02,8.97.32,13.43.63-.18,9.5-.37,19.02.07,28.51.24,2.37-.07,5.95-3.01,6.38-8.34.39-16.7-.25-25.04.03-3.12,0-6.78.73-9-2.04,0-1.46,0-2.91,0-4.36,3-1.3,2.06-4.96,2.18-7.55-.43-5.31-.44-10.65-.07-15.96-.54.17-1.63.51-2.17.68.14-6.13-.16-12.26.09-18.38M435.26,295.94c-.18,1.66-.71,4.77,1.71,4.96,6.32.13,12.67-.02,19-.14.35-.24,1.05-.72,1.4-.96,1.17-.09,2.33-.25,3.49-.47-.23-.75-.69-2.25-.92-2.99-5.31-.36-10.63-.12-15.94-.18-2.76.06-5.63-.31-8.24.8-.13-.26-.38-.77-.5-1.02M435.8,305.1c.29.5.87,1.51,1.16,2.02,3.94.7,8.04.09,12.05.29,3.71-.17,7.51.47,11.17-.21.09-.85.25-2.55.33-3.4-6.52-.12-13.05-.05-19.57-.07-1.83-.09-3.59.43-5.14,1.37M436.79,311.93c-.15.49-.45,1.46-.6,1.95l.82.94c5.99.46,12.02.16,18.03.16.99-.03,3.63-.12,2.87-1.77-1.65-2.05-4.55-1.62-6.87-1.72-4.75.2-9.56-.4-14.25.44Z"/>
    <path class="st20" d="M456.17,275.05c2.84,3.64,6.08,6.93,9.25,10.28-3.05-.03-6.09-.07-9.12-.3-.1-3.33-.18-6.66-.13-9.98Z"/>
    <path class="st20" d="M1234.07,282.01c1.68-4.38,6.24-7.65,11-7.43,8.13-.23,16.28.01,24.42-.1,0,1.07.81,2.71-.67,3.17-8.29.2-16.59-.39-24.86.11-3.01.19-5.88,2.32-6.52,5.34-.56,3.14-.3,6.37-.95,9.5-.78,3.16-3.39,5.32-5.67,7.43,2.18,1.9,4.57,3.91,5.4,6.82,1.04,3.98.09,8.32,1.63,12.2,1.33,3.17,5.06,4.12,8.19,4.18,7.34.16,14.69-.29,22.04-.22,1.35-.37,2.1,1.45,1.46,2.46-1.61,1.19-3.71.57-5.53.7-6.67-.2-13.34.28-20-.12-4.14-.04-7.78-2.99-9.41-6.67-1.76-3.37-.59-7.28-1.25-10.88-.52-3.9-4.43-6.93-8.28-6.82-11.38.12-22.76.01-34.13.07.49-1.25,1.02-2.48,1.59-3.7,8.49-.03,16.99-.12,25.49.21,4.52,0,9.9.82,13.24-3.01,3.74-3.44,1.74-8.89,2.81-13.24Z"/>
  </g>
  <g id="_x23_ffffffff">
    <path class="st10" d="M142.14,244.23c6.92-.45,13.86-.13,20.79-.2,109.79-.03,219.58,0,329.37,0l.44,1.32c-115.58.06-231.16,0-346.74.03-1.23.02-2.45.1-3.67.22l-.19-1.37Z"/>
    <path class="st10" d="M435.76,296.96c2.61-1.11,5.48-.74,8.24-.8,5.31.06,10.63-.18,15.94.18.23.74.69,2.24.92,2.99-1.16.22-2.32.38-3.49.47-6.46-.13-12.94.21-19.4-.14-1.41.06-1.52-1.87-2.21-2.7Z"/>
    <path class="st10" d="M1409.04,624.24c2.71-5.16,7.78-9.54,13.91-9.29,107.68.04,215.36.02,323.04.02,4.03-.16,7.62,1.98,10.77,4.28,2.37,3.06,4.17,6.73,3.9,10.71-.14,97.03,0,194.05-.05,291.08.06,4.86-2.67,9.21-6.02,12.52-2.92,1.67-6.2,2.72-9.57,2.66-95.58-.15-191.15-.03-286.73.04-12.12-.81-24.27.16-36.38-.39-7.53-.3-13.76-7.51-13.58-14.92.1-52.3.06-104.61.1-156.92-.19-39.99.33-79.99.19-119.98.07-6.61-.41-13.24.42-19.81M1432.69,684.27c1.22.94,2.76,1.11,4.3,1.07,9.67-.1,19.34-.01,29.01-.04,51.23.36,102.47-.2,153.7.2,30.08-.22,60.15-.18,90.23-.22,8.72-.27,17.53.66,26.19-.64-12.64-.93-25.41-.21-38.09-.36-9.06.43-18.09-1-27.13-.14-24.61.25-49.25-.08-73.84-.18-30.34.61-60.71.02-91.05.21-24.44.12-48.88.02-73.32.1Z"/>
  </g>
  <g id="_x23_1f345dff">
    <path class="st27" d="M129.17,255.04c.8,3.7-1.38,7.2-1.16,10.92.01,22,.14,43.99.15,65.99.03,2.29-.45,4.54-.93,6.77-.39-1.88-.62-3.78-.61-5.69.04-19.65-.07-39.31-.03-58.96.05-6.39-.86-13.27,2.58-19.03Z"/>
  </g>
  <g id="_x23_f9f9f5ff">
    <path class="st24" d="M427.44,272.16c4.1-2.49,9-1.96,13.59-2.01,4.67.08,9.36-.07,14.03.23,2.55.03,3.95,2.5,5.63,4.05,3.25,3.7,7.21,6.79,10.01,10.86.44,9.24.12,18.53.23,27.78-.13,3.79.48,7.73-.97,11.34-.77-2.36-1.86-4.58-2.99-6.78-.44-9.49-.25-19.01-.07-28.51-4.46-.31-9.06.39-13.43-.63-.21-.22-.64-.65-.85-.87-.65-4.38-.23-8.85-.47-13.27-6.35.1-12.7-.06-19.05.07-1.45-.17-2.26,1.13-3.15,2.01-.71-1.04-1.42-2.07-2.09-3.12l-.42-1.15M456.17,275.05c-.05,3.32.03,6.65.13,9.98,3.03.23,6.07.27,9.12.3-3.17-3.35-6.41-6.64-9.25-10.28Z"/>
    <path class="st24" d="M568.45,647.02c1.25-2.44,3.57-4.88,6.51-4.88,4.99-.38,10-.2,15-.2,3.9-.27,5.86,3.52,8.34,5.81,2.09,2.43,5.7,4.53,5.08,8.24-.08,10.66.03,21.33-.04,31.99-.15,3.78-3.62,6.91-7.38,6.87-6.66.05-13.32.06-19.98,0-3.07.18-5.8-1.79-7.33-4.32-.93-3.91-.53-8-.29-11.97,8.39.27,16.78-.02,25.17-.24l.05.76c.07,1.21.17,2.43.31,3.66-7.08-.18-14.17-.05-21.25-.08,0,2.09.01,4.19.04,6.3.4.43,1.21,1.29,1.61,1.72,7.21.11,14.42.11,21.63.06,2.02.16,3.21-1.85,3.17-3.65.15-9.81-.12-19.62.13-29.43-3.45-1.69-7.53.18-10.92-1.75-.14-3.06-.22-6.12-.2-9.17-4.32-.36-8.67-.44-13-.29-1.82.22-2.52,2.11-2.45,3.73-.09,5.83.11,11.67-.09,17.51,6.52.18,13.04-.04,19.56.09,1.72.64,1.08,2.71,1.32,4.12-8.38-.03-16.77-.01-25.15-.02.22-8.28-.13-16.58.16-24.85M592.25,648.22c-.13,1.51-.1,3.01.09,4.53,1.63.98,3.74.07,5.56,0-1.71-1.48-3.17-3.35-5.24-4.31-.1-.06-.31-.17-.41-.22Z"/>
    <path class="st24" d="M608.26,656.9c2.43.21,4.79.97,6.5,2.81.46.44.9.93,1.31,1.46,5.91,7.05,1.55,19.73-8.01,20.38.03-.86.08-2.57.11-3.42,3.35-1.92,5.83-5.15,6.21-9.07-.21-3.79-2.88-6.84-5.91-8.84-.08-1.12-.15-2.23-.21-3.32Z"/>
  </g>
  <g id="_x23_f1f1f3ff">
    <path class="st43" d="M427.42,272.63l.44.68c.67,1.05,1.38,2.08,2.09,3.12-.25,6.12.05,12.25-.09,18.38,0,7.61-.03,15.22.06,22.83,0,1.45,0,2.9,0,4.36,2.22,2.77,5.88,2.04,9,2.04,8.34-.28,16.7.36,25.04-.03,2.94-.43,3.25-4.01,3.01-6.38,1.13,2.2,2.22,4.42,2.99,6.78-1.58,2.18-4.11,3.64-6.84,3.49-9.72.16-19.44.14-29.15.07-2.8.13-5.75-1.03-7.22-3.51-1.47-2.6-.92-5.67-1.02-8.51.18-12.64-.26-25.27-.01-37.9-.15-1.98.74-3.76,1.7-5.42Z"/>
    <path class="st43" d="M435.8,305.1c1.55-.94,3.31-1.46,5.14-1.37,6.52.02,13.05-.05,19.57.07-.08.85-.24,2.55-.33,3.4-3.66.68-7.46.04-11.17.21-4.01-.2-8.11.41-12.05-.29-.29-.51-.87-1.52-1.16-2.02Z"/>
    <path class="st43" d="M436.79,311.93c4.69-.84,9.5-.24,14.25-.44,2.32.1,5.22-.33,6.87,1.72.76,1.65-1.88,1.74-2.87,1.77-6.01,0-12.04.3-18.03-.16l-.82-.94c.15-.49.45-1.46.6-1.95Z"/>
    <path class="st43" d="M495.99,459.22c15.03-.35,30.06.1,45.09-.13,2.02.15,5.15-.54,5.78,2.12,1.24,2.19-.8,4.01-2.08,5.55-5.55,6.07-10.82,12.39-16.37,18.45.11,6.6.21,13.21.09,19.81.08,1.87-.7,3.57-1.59,5.17-4.12-1.8-7.79-4.4-11.66-6.65-.38-.22-1.14-.65-1.51-.87-.3-5.27-.01-10.55-.31-15.82.02-2.15-1.93-3.52-3.11-5.09-3.47-3.91-6.82-7.92-10.37-11.75-1.94-2.17-3.77-4.42-5.56-6.7.53-1.37,1.06-2.73,1.6-4.09M500.94,464.98c5.54,5.19,9.9,11.47,15.25,16.85.77.87,1.94,1.73,1.66,3.09,0,4.99-.14,9.98.05,14.97,1.93,1.69,4.01,3.18,6.25,4.44.25-7.01.12-14.03.07-21.04,6.11-6.45,12.05-13.08,17.71-19.92-13.35-.48-26.73-.05-40.09-.2-1.39-1.46-3.01,1.78-.9,1.81Z"/>
    <path class="st43" d="M638.17,852.54c-.81-15.9,15.44-29.62,30.96-26.47,13.5,1.82,24.15,15.48,22.3,29.04-1.23,12.38-11.75,22.99-24.22,23.92-.91-.02-2.71-.06-3.61-.08-1.51-.18-3.02-.33-4.51-.53-.33-.09-1-.27-1.33-.36-1.21-.42-2.42-.82-3.62-1.2-8-3.73-14.2-11.24-15.67-20.03-.13-1.45-.24-2.87-.3-4.29M656.79,831.99c-8.56,3.05-15.11,12.52-13.69,21.68-.03,11.34,10.63,21.15,21.87,20.72,8.19.43,15.89-4.81,19.57-11.95,5.76-10.02,1.18-24.35-9.12-29.33-4.96-3.48-11.45-3.13-17.1-1.96-.53.26-1.03.54-1.53.84Z"/>
    <path class="st43" d="M675.48,842.43c1.43-.45,2.55.84,3.3,1.9-.04,1.94-2.13,3.04-3.23,4.44-3.94,3.91-7.78,7.92-11.56,11.99-1.19.83-2.31,2.46-3.91,2.19-3.09-2.56-5.98-5.39-8.59-8.42-1.42-1.65.74-3.83,2.54-3.52,2.38,1.78,4.26,4.13,6.26,6.33,5.28-4.73,9.9-10.18,15.19-14.91Z"/>
  </g>
  <g id="_x23_1d335fff">
    <path class="st1" d="M429.86,294.81c.54-.17,1.63-.51,2.17-.68-.37,5.31-.36,10.65.07,15.96-.12,2.59.82,6.25-2.18,7.55-.09-7.61-.07-15.22-.06-22.83Z"/>
  </g>
  <g id="_x23_1c325cff">
    <path class="st46" d="M435.26,295.94c.12.25.37.76.5,1.02.69.83.8,2.76,2.21,2.7,6.46.35,12.94.01,19.4.14-.35.24-1.05.72-1.4.96-6.33.12-12.68.27-19,.14-2.42-.19-1.89-3.3-1.71-4.96Z"/>
  </g>
  <g id="_x23_038bc2ff">
    <path class="st33" d="M687.81,381.98c3.96.34,7.92-.72,11.88-.14,6.72,1.01,13.56.25,20.28,1.34,10.99.49,22.03.17,33,1.19,10.63-.13,21.25.54,31.89.38,3.03.15,6.05.61,9.11.59,38.65.2,77.31.22,115.97-.03,9.7-1.04,19.43-.18,29.14-.72,10.37-.34,20.77.19,31.11-.87,9.26-.3,18.54-.14,27.78-1.03,9.97-.07,19.93-1.73,29.91-.91,33.21,1.76,66.58,3.77,99.35,9.82,6.01,1.38,12.4,2.14,17.74,5.49,1.65,1.05,2.06,2.93,1.74,4.77l-.85.32c-9.57,3.99-19.8,6.01-29.98,7.74-25.83,4.05-51.93,6.03-78.01,7.74-32.34,2.02-64.71,3.43-97.11,3.96-17.3,1.07-34.64.39-51.95.91-25.52.42-51.04.08-76.56.06-18.48-.55-36.97-.04-55.43-1.09-23.3-.08-46.55-1.61-69.82-2.37-34.99-2.24-70.08-4.04-104.77-9.44-9.13-1.62-18.54-2.69-26.99-6.72-.09.61-.27,1.85-.36,2.47-.78-1.93-1.53-3.87-2.38-5.75,1.49-2.42,4.05-3.73,6.66-4.61,9.64-3.36,19.83-4.55,29.84-6.28,29.35-3.85,58.89-5.98,88.45-7.35,3.46-.01,6.91.2,10.36.53Z"/>
    <path class="st33" d="M237.95,432.66c4.83-3.01,10.71-1.86,16.08-2.01,30.33-.07,60.66-.09,90.98-.08,2.43.08,4.92-.29,7.31.24,5.56,2.63,11.72,1.24,17.6,1.51,8.4.43,16.79-.35,25.19.03,17.98-.78,35.97.26,53.96-.31,7.3.07,14.62.56,21.92-.09,18.93.22,37.86-.19,56.79.35,11.04-.34,22.12-.76,33.15.15,1.58.1,3.15-.06,4.72-.24,13.48,34.58,27.17,69.08,40.84,103.59-14.84.39-29.7-.21-44.54.05-12.98.2-25.97-.64-38.94.07-15.05-.84-30.12.08-45.18-.4-8.5.39-17.01-.11-25.51.11-1.63-.04-3.22-.33-4.81-.62-4.07.99-8.28.36-12.41.71-.39-.26-1.18-.78-1.57-1.04-.57.19-1.14.39-1.69.6-.44-.1-.86-.19-1.28-.27-5.58,1.06-11.29.4-16.92.58-3.78-.02-7.59.31-11.3-.57-7.43,1.97-15.08-.61-22.59.44-3.84-.77-7.68.69-11.51-.17-2.89-.69-5.82.74-8.68-.14-2.49-.86-5.03.08-7.53.34-3.1.38-6.13-.93-9.23-.43-3.53.69-7.08-.51-10.61.13-4.22.66-8.52.42-12.74-.1-2.02.42-4.09.65-6.16.56-9.35-.38-18.71.07-28.06-.19-4.84-.23-9.69.37-14.51-.28-8.08.63-16.19.76-24.28.36-.61-.69-1.21-1.36-1.81-2.04-.44.46-1.33,1.39-1.78,1.85-4.43-.78-8.91-3.14-10.85-7.39-.11-1.61.13-3.21.28-4.8-.14-.25-.42-.75-.57-1-.53,1.05-1.08,2.09-1.62,3.14-.83-18.41-.23-36.86-.33-55.29.02-8.63-1.26-17.36.37-25.92,1.15-5,5.4-8.16,9.28-11.04l-1.46-.39M520.98,456.84c-7.93.3-15.83.56-23.77.47-.3.48-.91,1.44-1.22,1.91-.54,1.36-1.07,2.72-1.6,4.09,1.79,2.28,3.62,4.53,5.56,6.7l-1.43-.42c.17.53.51,1.58.67,2.11,3.28,4.29,6.65,8.72,11.22,11.72l-.09-1.66c1.18,1.57,3.13,2.94,3.11,5.09.3,5.27.01,10.55.31,15.82.37.22,1.13.65,1.51.87l-1.63-.09c.43,1.18.88,2.37,1.34,3.57.42-.12,1.25-.35,1.67-.47.1.35.3,1.03.4,1.37.39-.07,1.17-.22,1.55-.29,2.81,2.38,6.36,5.07,10.23,3.29,2.88-2.97,1.71-7.22,2.09-10.91.32-4.95-.29-10.09,1.19-14.9.52-2.1,2.63-2.79,4.42-3.49.05-.64.09-1.27.13-1.9.66-.11,1.33-.22,2.01-.32.49-.63.99-1.25,1.51-1.87.41,0,1.23.01,1.64.01.12-.56.34-1.67.45-2.22.36.08,1.08.25,1.44.33.14-.6.43-1.8.57-2.4.35.41,1.05,1.23,1.4,1.64,1.19-1.12.87-2.78,1.06-4.25.76-.05,1.54-.07,2.32-.06,1.8-3.07-.04-6.8-.54-10.03-1.87-4.37-7.4-3.44-11.22-3.89-5.44.31-10.89-.59-16.3.18Z"/>
    <path class="st33" d="M506.82,468.44c1.68.15,3.37.23,5.06.2,1.75.95,3.34,2.17,4.57,3.76,1.88-1.41,4.48-.78,6.51-2,3.02-.03,5.9,1.57,8.99,1.62-2.43,3.55-5.38,6.68-8.41,9.72-1.58,1.36-1.48,3.58-1.94,5.44-1.99-1.09-2.1-3.69-3.42-5.35-3.74-4.5-7.81-8.74-11.36-13.39Z"/>
    <path class="st33" d="M1110.91,483.26c10.12-.95,20.33-.23,30.5-.41-1.68.52-3.28,1.24-4.85,2,4.29.57,8.67-.11,12.94.79-13.46.37-26.93-.24-40.4.1.59-.83,1.22-1.64,1.81-2.48Z"/>
  </g>
  <g id="_x23_22bedaff">
    <path class="st2" d="M1115.88,409.92c10.18-1.73,20.41-3.75,29.98-7.74-.78,2.87-2.17,5.52-3.49,8.18-10.51,24.29-21.39,48.43-31.46,72.9-.59.84-1.22,1.65-1.81,2.48-.49,1.21-.89,2.44-1.2,3.71-3.27,9.24-7.92,17.94-11.41,27.1-4.25,9.78-8.63,19.51-12.65,29.39-1.07,2.86-4.23,4.06-6.86,5.07-17.18,5.61-35.2,7.74-53.07,9.79-16.58,2.36-33.31,2.96-49.94,4.8-3.25.24-6.49-.1-9.72-.35v.3c1.72.09,3.51.09,5.14.82-.75.05-2.24.15-2.99.19-1.63-.03-3.25-.03-4.85.01-4.22-.15-8.44-.14-12.64-.34-.08.22-.24.66-.32.88l-.32-.09c-.07-.23-.2-.69-.26-.91-4.12.39-8.27.14-12.38.52-9.17,1.24-18.44.75-27.66.69-1.75-.13-3.35.62-4.92,1.22-5.82-.11-11.6.51-17.39.72-6.17-1.14-12.45-.42-18.67-.62-14.66.22-29.31.05-43.96.11-4.26-.03-8.55-.37-12.75.44-5.25.5-10.45-.91-15.7-.59-2.54-1.74-5.68-1.35-8.58-1.31-9.15.12-18.34.46-27.44-.75-10.88-.27-21.76-.43-32.57-1.77-6.71.02-13.38-.74-20.08-.65-26.89-2.01-53.91-4.43-80.19-10.76-5.83-1.66-12.55-2.76-16.44-7.9-.51-2.73-.73-5.57-2.05-8.07-.19-.4-.55-1.19-.74-1.59-13.67-34.51-27.36-69.01-40.84-103.59l-.73-1.58c-3.22-7.09-5.78-14.46-8.93-21.58-.4-1.18-1.25-2.32-1.11-3.61.09-.62.27-1.86.36-2.47,8.45,4.03,17.86,5.1,26.99,6.72,34.69,5.4,69.78,7.2,104.77,9.44,23.27.76,46.52,2.29,69.82,2.37,18.46,1.05,36.95.54,55.43,1.09,25.52.02,51.04.36,76.56-.06,17.31-.52,34.65.16,51.95-.91,32.4-.53,64.77-1.94,97.11-3.96,26.08-1.71,52.18-3.69,78.01-7.74Z"/>
  </g>
  <g id="_x23_1280b1ff">
    <path class="st34" d="M352.32,430.81c16.21-.58,32.46-.09,48.68-.25,54.64,0,109.28-.09,163.92.07l.73,1.58c-1.57.18-3.14.34-4.72.24-11.03-.91-22.11-.49-33.15-.15-18.93-.54-37.86-.13-56.79-.35-7.3.65-14.62.16-21.92.09-17.99.57-35.98-.47-53.96.31-8.4-.38-16.79.4-25.19-.03-5.88-.27-12.04,1.12-17.6-1.51Z"/>
  </g>
  <g id="_x23_137baaff">
    <path class="st39" d="M228.08,445.66c1.4-5.38,4.44-10.89,9.87-13l1.46.39c-3.88,2.88-8.13,6.04-9.28,11.04-1.63,8.56-.35,17.29-.37,25.92.1,18.43-.5,36.88.33,55.29.54-1.05,1.09-2.09,1.62-3.14.15.25.43.75.57,1-.15,1.59-.39,3.19-.28,4.8,1.94,4.25,6.42,6.61,10.85,7.39.45-.46,1.34-1.39,1.78-1.85.6.68,1.2,1.35,1.81,2.04,8.09.4,16.2.27,24.28-.36,4.82.65,9.67.05,14.51.28,9.35.26,18.71-.19,28.06.19,2.07.09,4.14-.14,6.16-.56,4.22.52,8.52.76,12.74.1,3.53-.64,7.08.56,10.61-.13,3.1-.5,6.13.81,9.23.43,2.5-.26,5.04-1.2,7.53-.34,2.86.88,5.79-.55,8.68.14,3.83.86,7.67-.6,11.51.17,7.51-1.05,15.16,1.53,22.59-.44,3.71.88,7.52.55,11.3.57,5.63-.18,11.34.48,16.92-.58.42.08.84.17,1.28.27.55-.21,1.12-.41,1.69-.6.39.26,1.18.78,1.57,1.04,4.13-.35,8.34.28,12.41-.71,1.59.29,3.18.58,4.81.62,8.5-.22,17.01.28,25.51-.11,15.06.48,30.13-.44,45.18.4,12.97-.71,25.96.13,38.94-.07,14.84-.26,29.7.34,44.54-.05.19.4.55,1.19.74,1.59-120.42.1-240.84.05-361.26.05-8.74.42-16.17-6.83-17.87-15.07-.27-25.56-.26-51.15-.02-76.71Z"/>
  </g>
  <g id="_x23_369cb7ff">
    <path class="st38" d="M1169.33,435.51c2.78-.95,5.76-.74,8.67-.74,5.7.11,11.41-.28,17.1.15-.05.75-.14,2.23-.19,2.98-7.95.79-15.96-.02-23.92.41-5.14.85-7.79,6.32-7.81,11.11-.52.25-1.55.76-2.07,1.02-.72,6-.52,12.16-.05,18.18.57.23,1.72.68,2.3.91.43,5.11-2.58,9.38-5.38,13.32,11.37.11,22.74,0,34.11.04,1.41-.14,3.52.18,3.23,2.15-1.03,1.46-2.86,1.15-4.37,1.21-12.39-.15-24.78.09-37.16-.17,1.78,2.35,3.29,4.9,4.59,7.56-.57.42-1.73,1.27-2.3,1.7-.07.7-.21,2.09-.28,2.78-.44-3.77-1.68-7.72-4.87-10.07-2.81-2.27-6.61-1.66-9.94-1.74-10.63.18-21.26-.29-31.87.27-.31.72-.92,2.15-1.22,2.87.31-1.27.71-2.5,1.2-3.71,13.47-.34,26.94.27,40.4-.1-4.27-.9-8.65-.22-12.94-.79,1.57-.76,3.17-1.48,4.85-2,4-.46,8.46.89,12.08-1.45,2.86-2.05,5.76-4.76,6.2-8.46.58-8.66-.17-17.37.39-26.03.33-5.22,4.27-9.92,9.25-11.4Z"/>
    <path class="st38" d="M1158.14,494.62c1.6,9.32-.25,18.97.95,28.37.65,4.79,4.97,8.57,9.8,8.63,6.75.16,13.51-.01,20.27.05.22.55.64,1.64.85,2.19-2.71,1.6-5.98.9-8.96,1.12-5.12-.09-10.28.17-15.35-.52-5.36-1.17-8.93-6.18-10-11.31l.23-.55c.24-.65.72-1.95.96-2.6.82-8.44-1.11-17.11,1.25-25.38Z"/>
  </g>
  <g id="_x23_bee9f1ff">
    <path class="st36" d="M227.24,448.97c-.05-1.2.23-2.3.84-3.31-.24,25.56-.25,51.15.02,76.71-1.4-2.22-.68-4.95-.8-7.4-.08-22,.12-44-.06-66Z"/>
  </g>
  <g id="_x23_0d89bbff">
    <path class="st50" d="M1161.11,450.44c.52-.26,1.55-.77,2.07-1.02.13,6.7.12,13.4.18,20.11-.58-.23-1.73-.68-2.3-.91-.47-6.02-.67-12.18.05-18.18Z"/>
  </g>
  <g id="_x23_1282b3ff">
    <path class="st40" d="M520.98,456.84c5.41-.77,10.86.13,16.3-.18,3.82.45,9.35-.48,11.22,3.89.5,3.23,2.34,6.96.54,10.03-.78,0-1.56.01-2.32.06-.19,1.47.13,3.13-1.06,4.25-.35-.41-1.05-1.23-1.4-1.64-.14.6-.43,1.8-.57,2.4-.36-.08-1.08-.25-1.44-.33-.11.55-.33,1.66-.45,2.22-.41,0-1.23-.01-1.64-.01-.52.62-1.02,1.24-1.51,1.87-.68.1-1.35.21-2.01.32-.04.63-.08,1.26-.13,1.9-1.79.7-3.9,1.39-4.42,3.49-1.48,4.81-.87,9.95-1.19,14.9-.38,3.69.79,7.94-2.09,10.91-3.87,1.78-7.42-.91-10.23-3.29-.38.07-1.16.22-1.55.29-.1-.34-.3-1.02-.4-1.37-.42.12-1.25.35-1.67.47-.46-1.2-.91-2.39-1.34-3.57l1.63.09c3.87,2.25,7.54,4.85,11.66,6.65.89-1.6,1.67-3.3,1.59-5.17.12-6.6.02-13.21-.09-19.81,5.55-6.06,10.82-12.38,16.37-18.45,1.28-1.54,3.32-3.36,2.08-5.55-.63-2.66-3.76-1.97-5.78-2.12-15.03.23-30.06-.22-45.09.13.31-.47.92-1.43,1.22-1.91,7.94.09,15.84-.17,23.77-.47Z"/>
    <path class="st40" d="M501.84,463.17c13.36.15,26.74-.28,40.09.2-5.66,6.84-11.6,13.47-17.71,19.92.05,7.01.18,14.03-.07,21.04-2.24-1.26-4.32-2.75-6.25-4.44-.19-4.99-.06-9.98-.05-14.97.28-1.36-.89-2.22-1.66-3.09-5.35-5.38-9.71-11.66-15.25-16.85.22-.45.68-1.36.9-1.81M506.82,468.44c3.55,4.65,7.62,8.89,11.36,13.39,1.32,1.66,1.43,4.26,3.42,5.35.46-1.86.36-4.08,1.94-5.44,3.03-3.04,5.98-6.17,8.41-9.72-3.09-.05-5.97-1.65-8.99-1.62-2.03,1.22-4.63.59-6.51,2-1.23-1.59-2.82-2.81-4.57-3.76-1.69.03-3.38-.05-5.06-.2Z"/>
  </g>
  <g id="_x23_939ba4ff">
    <path class="st19" d="M500.94,464.98c-2.11-.03-.49-3.27.9-1.81-.22.45-.68,1.36-.9,1.81Z"/>
  </g>
  <g id="_x23_1c79a5ff">
    <path class="st41" d="M498.52,469.59l1.43.42c3.55,3.83,6.9,7.84,10.37,11.75l.09,1.66c-4.57-3-7.94-7.43-11.22-11.72-.16-.53-.5-1.58-.67-2.11Z"/>
  </g>
  <g id="_x23_1383b3ff">
    <path class="st23" d="M1156.08,495.34c.57-.43,1.73-1.28,2.3-1.7l-.24.98c-2.36,8.27-.43,16.94-1.25,25.38-.24.65-.72,1.95-.96,2.6-.39-8.15-.21-16.33-.13-24.48.07-.69.21-2.08.28-2.78Z"/>
  </g>
  <g id="_x23_5a9da3ff">
    <path class="st14" d="M705.91,564.12c6.7-.09,13.37.67,20.08.65,10.81,1.34,21.69,1.5,32.57,1.77,9.1,1.21,18.29.87,27.44.75,2.9-.04,6.04-.43,8.58,1.31-14.21.65-28.39-.85-42.6-.93-8.96-1.03-18.02-1.24-27.03-.67l-.17-.17c.57-.68,1.22-1.29,1.95-1.82-6.93,1.08-13.93-.13-20.82-.89Z"/>
  </g>
  <g id="_x23_5f9b9aff">
    <path class="st44" d="M907.97,567.32c9.22.06,18.49.55,27.66-.69,4.11-.38,8.26-.13,12.38-.52.06.22.19.68.26.91-.06.21-.18.62-.24.82-9.79-.1-19.6-.09-29.37.72-5.2.33-10.42.27-15.61-.02,1.57-.6,3.17-1.35,4.92-1.22Z"/>
  </g>
  <g id="_x23_9a8a46ff">
    <path class="st28" d="M948.59,567.11c.08-.22.24-.66.32-.88,4.2.2,8.42.19,12.64.34-4.17.57-9.12,3.01-12.96.54Z"/>
  </g>
  <g id="_x23_e47409ff">
    <path class="st18" d="M701.04,567.7c7.93-.15,15.8-1.81,23.74-.87l.17.17c9.01-.57,18.07-.36,27.03.67,14.21.08,28.39,1.58,42.6.93,5.25-.32,10.45,1.09,15.7.59,3.09,1.22,6.45.77,9.7.82,20.67.35,41.35-.04,62.02.03,1.24-.13,2.46-.39,3.66-.78,5.79-.21,11.57-.83,17.39-.72,5.19.29,10.41.35,15.61.02,9.77-.81,19.58-.82,29.37-.72.06-.2.18-.61.24-.82l.32.09c3.84,2.47,8.79.03,12.96-.54,1.6-.04,3.22-.04,4.85-.01,1.45.58,2.9,1.35,4.52,1.46,8.34.65,16.74.66,25.04,1.89,3.15.47,6.33-.06,9.47-.44,4.26-.3,8.47.63,12.68,1.07,13.18,1.52,26.35,3.51,39.09,7.3,3.42,1.32,7.49,2.54,9.34,6.02-2.31,5.02-4.53,10.09-6.87,15.11-.5,1.43-1.12,2.83-1.86,4.15,1.46-4.94,3.32-9.74,5.25-14.51-25.02,7.5-51.14,10.1-77.08,12.26-12.93,1.17-25.88,1.79-38.84,2.48-8.08.95-16.24.45-24.34,1.03-16.26,1.01-32.56.42-48.81,1.5-22.31.01-44.65.51-66.93-.67-9.02-.14-18.03-.19-27.03-.25-7.02-.36-14.03-1.02-21.06-.93-31.71-1.41-63.42-3.57-94.89-7.88-8.76-1.43-17.63-2.45-26.18-4.91-3.96-1.09-7.51-3.34-11.59-4.01l-.49-.12c-.2-1.27-.39-2.54-.58-3.8,2.37-3.14,6.14-4.65,9.83-5.61,21.54-5.83,43.86-7.77,65.97-10Z"/>
    <path class="st18" d="M607.42,663.12c1.84,1.9,3.37,4.09,4.44,6.53-.44.24-1.34.72-1.78.96.37.19,1.13.59,1.5.79-1.13,2.16-2.43,4.27-4.49,5.69-1.36-2.45-.55-5.27-.27-7.87-.53.14-1.58.4-2.1.54.75-2.28,1.76-4.45,2.7-6.64Z"/>
    <path class="st18" d="M595.37,667.76c.35.17,1.05.5,1.4.66.58,5.16.21,10.38.12,15.57-.72-.04-2.16-.11-2.89-.15l-.11-1.11c-.14-1.23-.24-2.45-.31-3.66.03-.44.08-1.31.1-1.74-1.16-.19-2.31-.41-3.45-.64-.23-1.39,1.7-1.07,2.54-1.35,2.35-1.85,3.9-4.62,2.6-7.58Z"/>
  </g>
  <g id="_x23_cc711dff">
    <path class="st49" d="M966.4,566.56c.75-.04,2.24-.14,2.99-.19,7.52.2,15,1.05,22.52,1.44,4.49.65,9.12.42,13.52,1.66-3.14.38-6.32.91-9.47.44-8.3-1.23-16.7-1.24-25.04-1.89-1.62-.11-3.07-.88-4.52-1.46Z"/>
  </g>
  <g id="_x23_838279ff">
    <path class="st51" d="M810.28,569.19c4.2-.81,8.49-.47,12.75-.44,14.65-.06,29.3.11,43.96-.11,6.22.2,12.5-.52,18.67.62-1.2.39-2.42.65-3.66.78-20.67-.07-41.35.32-62.02-.03-3.25-.05-6.61.4-9.7-.82Z"/>
    <path class="st51" d="M592.25,648.22c.1.05.31.16.41.22-.1-.06-.31-.17-.41-.22Z"/>
  </g>
  <g id="_x23_f89429ff">
    <path class="st45" d="M626.31,587.23c4.08.67,7.63,2.92,11.59,4.01,8.55,2.46,17.42,3.48,26.18,4.91,31.47,4.31,63.18,6.47,94.89,7.88,7.03-.09,14.04.57,21.06.93,9,.06,18.01.11,27.03.25,22.28,1.18,44.62.68,66.93.67,16.25-1.08,32.55-.49,48.81-1.5,8.1-.58,16.26-.08,24.34-1.03,12.96-.69,25.91-1.31,38.84-2.48,25.94-2.16,52.06-4.76,77.08-12.26-1.93,4.77-3.79,9.57-5.25,14.51-7.66,18.75-16.69,36.95-24.21,55.78-.52,1.41-1.35,2.67-2.21,3.9-2.02,2.39-2.52,5.56-3.56,8.43-7.98,18.84-16.19,37.61-24.5,56.31-1.6,2.58-2.07,6.28-5.13,7.61-10.65,5.65-22.79,7.2-34.44,9.56-17.08,2.68-34.26,4.35-51.44,6.01-6.9-.02-13.8-.03-20.66.8-4.08-.76-8.38-.94-12.33.52-4.55.36-9.12.31-13.67.45-6.16-.97-12.4-.25-18.59-.46-7.22.19-14.48-.51-21.66.52-13.28-.24-26.57-.69-39.81-1.6-3.27-1.48-6.84-.99-10.24-.44-1.58.07-3.15.15-4.71.21-5.37-1.55-11.03-.73-16.41-2.1-7.42-.35-14.69-1.93-22.08-2.5-10.22-1.18-20.31-3.33-30.28-5.85-5.81-1.8-12.18-3.14-16.84-7.29-1.98-3.53-3.06-7.52-4.54-11.26-3.04-6.28-5.12-12.94-7.75-19.37-6.1-14.41-11.9-28.94-17.63-43.49-6.29-14.34-11.13-29.24-17.56-43.52-3.55-9.46-7.73-18.65-11.25-28.11Z"/>
  </g>
  <g id="_x23_e37007ff">
    <path class="st29" d="M325.65,632.98c.02-8.91,7.48-17.13,16.46-17.58,98.48,0,196.97,0,295.45-.06,6.43,14.28,11.27,29.18,17.56,43.52,5.73,14.55,11.53,29.08,17.63,43.49,2.63,6.43,4.71,13.09,7.75,19.37-106.16.17-212.33.04-318.5.09-7.3-.08-14.63.25-21.91-.45-7.95-1.14-14.06-8.42-14.39-16.34-.07-24.02.02-48.03-.05-72.04M569.2,643.22c-5.97,6.45-1.43,15.99-4.42,23.52-.35,1.1-1.51,2.57-.36,3.6,1.94,1.36.9,3.72,1.03,5.67-1.53.25-3.04.64-4.43,1.33.97,1.19,2.39,2.14,2.95,3.63-.52,1.44-1.27,2.78-1.98,4.14,2.31,4.24,6.65,7.5,7.3,12.56.44-.13,1.33-.4,1.77-.54.74.46,1.48.92,2.23,1.4.35-.01,1.03-.02,1.37-.03,5.03,3.24,11.32.72,16.93.97.22-.29.67-.86.89-1.15.78,1.43,1.44,1.56,2.01-.05.19.35.56,1.06.75,1.41,1.63-2.06,4.26-.8,6.4-.61-.1-.5-.31-1.49-.41-1.98.71-.46,1.44-.9,2.17-1.34.03-3.54,4.01-5.82,2.86-9.51,2.11-.4,4.15-1.09,5.98-2.24.35.51,1.04,1.51,1.39,2.02.2-1.34.4-2.67.61-3.99.3.45.9,1.35,1.2,1.8.6-.91,1.2-1.82,1.82-2.72.52.61,1.06,1.22,1.61,1.84-.14-4.69,1.21-9.2,1.89-13.78-.77-2.88-.77-7.86-4.69-8-.41-.53-.85-1.02-1.31-1.46.62-3.2-3.67-3.59-4.02-6.57-1.23,2.01-3.32,3.01-5.64,2.94-.07-1.76-.08-3.5-.13-5.24.65.71,1.3,1.43,1.96,2.16.44-2.05.55-4.14.73-6.21-2.53-1.64-2.18,1.9-1.8,3.41-1.8-1.35-3.26-3.07-4.35-5.02-.2.42-.6,1.26-.8,1.68-.26-.29-.78-.86-1.04-1.15-3.58-.36-4.77-5.12-8.57-4.96-7.29.54-15.63-2.58-21.9,2.47Z"/>
  </g>
  <g id="_x23_dededfff">
    <path class="st25" d="M1756.76,619.25c3.34-.61,3.45,3.78,5.69,5.28,4.02,2.43,1.94,7.99,4.99,11.19-.36.54-.67,1.11-.96,1.68,1.14,1.93,2.12,3.94,3.01,6.01-.76.59-1.49,1.19-2.19,1.8,2.4,3.02.91,6.71.22,10.03-.6,2.48,1.82,4.01,3.33,5.55-1.03,2.55-3.16,5.26-1.8,8.1,1.06,2.34-.28,4.7-.89,6.97.77.54,1.57,1.09,2.39,1.65-.34.71-.65,1.43-.94,2.17-.41-.4-1.24-1.2-1.65-1.6-.27,1.42.48,2.5,1.48,3.44-2.92,2-.93,5.96.07,8.6.24,2.33-1.44,4.5-.47,6.79.64,1.38-.06,2.67-.66,3.9.4,1,.84,2,1.3,3.02-.78.46-1.54.93-2.28,1.41,1.4,2.31.6,5.03,1.49,7.46.59-.02,1.76-.07,2.34-.09-.91.6-1.83,1.2-2.69,1.81-.31,2.54-.37,5.68,2.92,6.05-3.77,1.59-1.85,6.22-4.25,8.88,1.2.05,2.39.07,3.63.08-.86.69-1.69,1.41-2.49,2.14.34.34,1.04,1.03,1.38,1.38-.15.51-.45,1.53-.61,2.04.44.53.89,1.09,1.37,1.66-.79.49-1.55.98-2.28,1.49.37.82.79,1.66,1.23,2.5-.22.42-.66,1.24-.88,1.65-.15,4.44.06,8.79.94,13.15.58.7,1.23,1.38,1.92,2.05-1.34.99-2.25,2.35-2.86,3.87,1.89,1.99.43,4.1-1.62,5.17,1.14,1.69,3.11,1.01,4.8.74-.36.71-.69,1.43-.99,2.16-.45.01-1.36.03-1.81.05-1.07,2.99.82,6.74-1.6,9.21.67.6,1.34,1.21,2.07,1.83.19,4.48.36,9.05-1.09,13.37.72.57,1.49,1.15,2.28,1.74-.34.4-1.01,1.21-1.35,1.61.41.48.85.96,1.32,1.46-.33.42-1,1.25-1.33,1.67.43.42.89.86,1.37,1.3-.83.43-1.63.88-2.41,1.33,1.44,2.23.96,4.9,1,7.41-1.54,1.95.47,4.29-.22,6.43-.4.97-.05,1.95.12,2.94.53,2.28-.87,4.55-.46,6.82,1.75,3.43.37,7.42,1.82,11-.58.17-1.74.52-2.32.7.81.63,1.65,1.27,2.52,1.92-.43.65-.83,1.31-1.21,1.99,1.4,1.7,1.18,4.08-.09,5.78-.32,3.86,0,7.74.32,11.6-.9.72-1.78,1.44-2.63,2.17,1.22.24,2.49.5,3.76.76-.7.22-2.12.68-2.83.9.82.7,1.65,1.41,2.51,2.14-.38.36-1.14,1.08-1.52,1.45.22,1.92.05,4.06,1.36,5.67-.6,1.46-1.25,2.9-1.97,4.3-.09,2.97.81,5.81,1.37,8.71.2.26.62.8.83,1.06-.33.39-.97,1.17-1.3,1.56.54,1.28,1.06,2.57,1.63,3.87-.9.39-1.78.79-2.64,1.2.4.65.84,1.32,1.3,1.99-.44.62-.86,1.25-1.25,1.9.27.3.81.89,1.08,1.19-.05.4-.14,1.2-.19,1.6.31.37.94,1.12,1.26,1.49-.53,1.38-1.17,2.72-1.99,3.94.32.41.68.84,1.07,1.28-.74,3.51.93,7.47-1.64,10.47.89.47,1.82.95,2.78,1.44-1.26,1.3-2.47,2.65-3.63,4.04,1.01.82,2.04,1.65,3.09,2.5-.71.1-1.41.2-2.08.32-.92,4.77-3.25,9.16-3.77,14.01-2.34,1.39-3.35,3.86-4.57,6.14-2.03,1.72-4.56,2.81-7.2,3.02-3.37,1.65-7.44,2-10.17,4.78-.36-.92-.7-1.83-1.02-2.72-2.21,1.55-4.57,2.83-6.85,4.23.04-.51.11-1.55.15-2.07-2.95,1.19-6.37,2.65-9.26.49-.56.7-1.1,1.41-1.62,2.13-1.28-.01-2.57.02-3.56.92-1.38-1.48-2.14-4.36-4.59-3.93-3.13.23-6.96-.79-9.26,1.92-.8-.49-1.58-.98-2.32-1.43-1.46.47-2.92.93-4.35,1.41-1.68-.98-3.46-1.78-5.25-2.49.02.52.04,1.56.06,2.08-2.34-.84-4.68-3.17-7.26-1.95-2.63.86-5.48.63-7.94-.58-1.92.55-3.94,1.33-5.69-.05-.44.26-.85.54-1.22.85-4.03-2.06-8.27.49-12.41-.24-.37.32-1.11.96-1.48,1.29-1.78-.29-3.56-.22-5.29.09-1.33-.64-2.5-1.72-3.95-1.9-3.36.36-7.02.87-9.46,3.43-.73-.83-1.46-1.67-2.14-2.47-3.24,1.68-6.91.18-10.33.83-1.07-.48-1.95-1.64-3.16-1.43-1.35.76-2.53,1.74-3.72,2.69-1.81-1.34-3.9-3.21-5.93-1.14-1.44-.78-2.87-1.55-4.28-2.3-1.17,1.16-2.33,2.32-3.48,3.48-.28-.32-.83-.97-1.11-1.3-.5.42-.96.85-1.41,1.29-.83-.8-1.63-1.59-2.41-2.36-.75.36-1.48.72-2.18,1.1-3.38-.71-6.67.49-9.95,1.06-2.24-1.84-5.16-2.45-7.91-2.95-2.68,1.43-5.62,1.6-8.53.95-.23.64-.42,1.3-.58,1.97-2.58-1.31-5.53-1.57-8.32-2.07-2.27-.61-4.06,1.09-5.84,2.14-1.72-1.1-3.71-1.34-5.68-1.32-.31.34-.91,1.04-1.21,1.39-1.8-3.03-5.42-1.48-8.02-3.02-.61.41-1.18.84-1.74,1.28-1.54-.27-3.03-.73-4.47-1.26-1.58.9-3.54,1.54-4.97.03-2.05.8-4.21,1.14-6.33.45-.38.36-1.15,1.07-1.53,1.43-3.43,0-6.86-.95-10.26-.3-2.75.42-5.58.64-8.27-.13-4.16-1.13-8.51-.42-12.69.13-3.82.35-7.68-.13-11.47.42-.92-.44-1.81-.87-2.67-1.29-.77.92-1.52,1.84-2.25,2.78-1.03-.88-2.05-1.74-3.06-2.58-2.64,1.78-5.95,1.03-8.79.3-1.04-.5-1.99-.21-2.73.58-.81-.16-1.59-.3-2.34-.43-1.01.59-1.99,1.22-2.96,1.84-1.35-.58-2.69-1.14-4.01-1.7-.76.41-1.5.84-2.22,1.28-2.06-1.01-4.29-1.57-6.49-2.04-.55.77-1.08,1.54-1.59,2.33-.91-.53-1.81-1.06-2.67-1.55-1.72.96-3.58,1.59-5.53,1.79.01-.47.02-1.4.03-1.87-1.2.3-2.39.6-3.55.93-.36-.4-1.08-1.19-1.44-1.59-4.06.34-7.97-1.51-12.09-.78-1.11-3.29-4.14-4.71-7.24-5.59.51-.62,1.04-1.23,1.58-1.83-1.46-.2-2.89-.38-4.3-.56-.72-4.02-3.41-7.28-4.27-11.2-.21-.37-.64-1.1-.85-1.46,1.28-3.16-2.55-4.93-2.07-7.72,2.86-4.91,2.08-10.81,1.89-16.25-.26-1.07.79-1.7,1.26-2.5-1.41-1.43-2.5-3.48-1.4-5.41,1.81-3.77-2.27-7.88.23-11.55-2.08-3.07.75-6.73-.69-10.02.35-.34,1.03-1.03,1.37-1.37-2.47-1.49-.53-4-.31-6.09.12-2.36-1.05-4.5-2.15-6.47.5-.53,1.02-1.05,1.57-1.55-.59-2.98-.97-6.13-3.05-8.49.46.03,1.39.09,1.86.12.38-1.08.8-2.15,1.23-3.21-.5.05-1.51.14-2.02.18.01-.98.04-1.95.09-2.91.7-.17,1.42-.33,2.16-.48-.47-.41-1.41-1.24-1.88-1.66.48-.54.98-1.06,1.5-1.57-1.26-4.68,1.41-9.34.35-14.05-.76-3.24-.99-6.57-.15-9.82-.41-.4-1.23-1.19-1.64-1.59,1.83-2.76,2.49-6.33,1.37-9.48-.83-2.48,1.52-5.31-.23-7.55,1.95-1.46-.02-3.66-1.03-5.01,1.02-1.44,2.05-2.88,3.06-4.33-.62-.12-1.84-.36-2.46-.47.42-.64.85-1.26,1.31-1.87-.26-2.27-.24-4.77-1.95-6.48.25-.23.75-.7,1.01-.93-.56-.64-1.09-1.27-1.62-1.88.91.12,1.84.25,2.79.39-.14-1.29-.47-2.54-1.18-3.61.29-.97.62-1.91.96-2.85-.35-.37-1.06-1.1-1.41-1.47.23-1.99.53-3.96.91-5.91-.57-.6-1.11-1.19-1.62-1.76.61-1.4,1.24-2.8,1.89-4.18-.49-.38-1.46-1.14-1.94-1.51.43-.54.89-1.05,1.39-1.54-.78-2.99-.58-6.08-.33-9.12.32-.56.67-1.1,1.03-1.64-.83-1.39-1.66-2.95-.65-4.48,1.75-3.32.68-7.04.49-10.56-1.6-3.08-1.26-6.8.13-9.88-1.53-2.39-1.66-5.5-.16-7.94-.5-.82-.89-1.7-.82-2.66-.03-3.96-.34-7.93.24-11.86-.49-.98-.96-1.94-1.41-2.89,2.32-4.34-.33-8.79.47-13.28.71-4.92.16-9.88.4-14.81.05-1.47,1.07-2.64,1.68-3.91-2.37-2.92-2.34-7.39-.26-10.46-.69-1.29-1.36-2.57-2.01-3.85,1.67-1.91-.15-4.84,2.06-6.56-.35-.15-1.06-.43-1.41-.57.4-.23,1.21-.7,1.61-.93-.91-.7-1.81-1.39-2.68-2.07,2.54-3.12,7.38-6.56,4.4-11.02,2.3-1.37,2.53-4.11,3.42-6.38l.91-.05.12,1.09c-.83,6.57-.35,13.2-.42,19.81.14,39.99-.38,79.99-.19,119.98-.04,52.31,0,104.62-.1,156.92-.18,7.41,6.05,14.62,13.58,14.92,12.11.55,24.26-.42,36.38.39-12.56.96-25.18-.05-37.74.66,1.59,1.24,3.28,3.24,5.57,2.39,4.54-1.5,8.9,3.05,13.25.48.27.16.82.48,1.1.64.68-.25,1.41-.48,2.14-.7.74.36,1.49.73,2.27,1.11,2.37-1.59,5.07-.94,7.68-.63,2.96-.48,5.94-.1,8.92-.18,3.9.92,8.12.93,12.02-.08,1.94,1.11,4.09,1.08,6.09.1.95.09,1.94.19,2.92.02,5.35.99,10.94.75,16.31-.03,7.38,1.49,14.98-.02,22.47.55.35-.27.73-.52,1.14-.76,2.64,1.22,5.58.97,8.21-.15.17.29.49.86.65,1.15.29-.31.86-.93,1.14-1.24.42.4.87.82,1.34,1.25.14-.36.44-1.09.59-1.45.24.29.71.86.95,1.15,6.91.5,13.86-.47,20.75.44,4.97,1.05,9.93-1.13,14.92.1.42-.47.88-.92,1.37-1.35,2.67,1.46,5.77,1.01,8.7,1.11.33-.27,1-.81,1.33-1.08,2.73,1.64,5.84,2.35,8.87.93.26.16.78.48,1.04.63,3.21-1.11,6.64-.71,9.98-.7,3.72.06,7.5-.35,11.17.51,4.29-.67,8.75-.82,13.04-.03,4.91-.89,10.03-.79,14.94.14,2.21.38,4.28-.62,6.25-1.5.4.51.82,1.04,1.28,1.58.36-.45,1.07-1.34,1.42-1.79.53.57,1.07,1.15,1.64,1.75.36-.46,1.08-1.36,1.44-1.82.22.29.66.86.88,1.14,2.66.17,5.36.13,7.96-.59,2.63.56,5.31.77,7.98,1.11,1.58-.26,3.18-.43,4.8-.51.36-.24,1.08-.73,1.44-.97.21.26.63.77.84,1.02.24-.19.71-.59.95-.79,3.63,1.52,7.66,1.07,11.34-.05.39.19,1.18.57,1.57.76.34-.21,1.01-.64,1.35-.86,1.45.75,2.91,1.5,4.39,2.26.1-.83.22-1.64.37-2.43,2.9,2.04,6.63.93,9.93,1.23,3.61-.32,7.28,1.34,10.81.09,1.26-.31,2.48.3,3.73.55,2.01-.71,4.23-1.26,6.14.09.1-.62.24-1.21.4-1.79,3.13,1.83,6.86,1.05,10.16.17.36.24,1.08.71,1.44.95,3.2-1.56,6.92-1.24,10.1-2.85,1.45-.66,2.91-1.33,4.39-1.96.03-.84.08-1.66.17-2.47,3.35-3.31,6.08-7.66,6.02-12.52.05-97.03-.09-194.05.05-291.08.27-3.98-1.53-7.65-3.9-10.71Z"/>
  </g>
  <g id="_x23_e0741aff">
    <path class="st21" d="M1079.74,626.62c2.38-3.45,5.81-6.97,10.32-6.94,7.77-.07,15.55.03,23.33-.36.16.75.49,2.24.66,2.98-7.32.79-14.72-.04-22.07.32-4.75,0-9.37,3.57-10.03,8.38-.71,4.95-.08,9.99-.35,14.97-.3,4.63.57,9.38-.69,13.91-.88,3.01-3.08,5.34-5.07,7.66,11.48.27,22.98.03,34.47.11,1.89,3.89-3.02,3.41-5.39,3.58-13.35-.57-26.69-.12-40.06.12,2.53,3.76,4.47,8.02,4.49,12.64-.28,8.02-.06,16.04,0,24.07-.12,4.57,4.37,8.27,8.71,8.56,6.73.18,13.46-.14,20.19.1.45.31,1.35.94,1.8,1.26-1.05,1.21-2.46,1.92-4.07,1.68-5.98-.05-11.97.04-17.95,0-6.66,0-12.18-6.17-12.38-12.64-.1-8.89.17-17.8-.09-26.68-1.01-4.79-5.51-9.1-10.57-8.99-9.05-.05-18.11.13-27.16-.11,1.04-2.87,1.54-6.04,3.56-8.43-.31,1.67-.81,3.31-1.43,4.9,12-.14,24,.05,36.01-.09,3.38.03,6.4-1.65,9-3.67,4.86-5.48,3.04-13.27,3.38-19.94.34-5.78-.99-11.9,1.39-17.38Z"/>
  </g>
  <g id="_x23_ca6e1aff">
    <path class="st32" d="M569.2,643.22c6.27-5.05,14.61-1.93,21.9-2.47,3.8-.16,4.99,4.6,8.57,4.96.26.29.78.86,1.04,1.15.2-.42.6-1.26.8-1.68,1.09,1.95,2.55,3.67,4.35,5.02-.38-1.51-.73-5.05,1.8-3.41-.18,2.07-.29,4.16-.73,6.21-.66-.73-1.31-1.45-1.96-2.16.05,1.74.06,3.48.13,5.24,2.32.07,4.41-.93,5.64-2.94.35,2.98,4.64,3.37,4.02,6.57-1.71-1.84-4.07-2.6-6.5-2.81.06,1.09.13,2.2.21,3.32,3.03,2,5.7,5.05,5.91,8.84-.38,3.92-2.86,7.15-6.21,9.07-.03.85-.08,2.56-.11,3.42,9.56-.65,13.92-13.33,8.01-20.38,3.92.14,3.92,5.12,4.69,8-.68,4.58-2.03,9.09-1.89,13.78-.55-.62-1.09-1.23-1.61-1.84-.62.9-1.22,1.81-1.82,2.72-.3-.45-.9-1.35-1.2-1.8-.21,1.32-.41,2.65-.61,3.99-.35-.51-1.04-1.51-1.39-2.02-1.83,1.15-3.87,1.84-5.98,2.24,1.15,3.69-2.83,5.97-2.86,9.51-.73.44-1.46.88-2.17,1.34.1.49.31,1.48.41,1.98-2.14-.19-4.77-1.45-6.4.61-.19-.35-.56-1.06-.75-1.41-.57,1.61-1.23,1.48-2.01.05-.22.29-.67.86-.89,1.15-5.61-.25-11.9,2.27-16.93-.97-.34.01-1.02.02-1.37.03-.75-.48-1.49-.94-2.23-1.4-.44.14-1.33.41-1.77.54-.65-5.06-4.99-8.32-7.3-12.56.71-1.36,1.46-2.7,1.98-4.14-.56-1.49-1.98-2.44-2.95-3.63,1.39-.69,2.9-1.08,4.43-1.33-.13-1.95.91-4.31-1.03-5.67-1.15-1.03.01-2.5.36-3.6,2.99-7.53-1.55-17.07,4.42-23.52M568.45,647.02c-.29,8.27.06,16.57-.16,24.85,8.38.01,16.77-.01,25.15.02-.24-1.41.4-3.48-1.32-4.12-6.52-.13-13.04.09-19.56-.09.2-5.84,0-11.68.09-17.51-.07-1.62.63-3.51,2.45-3.73,4.33-.15,8.68-.07,13,.29-.02,3.05.06,6.11.2,9.17,3.39,1.93,7.47.06,10.92,1.75-.25,9.81.02,19.62-.13,29.43.04,1.8-1.15,3.81-3.17,3.65-7.21.05-14.42.05-21.63-.06-.4-.43-1.21-1.29-1.61-1.72-.03-2.11-.04-4.21-.04-6.3,7.08.03,14.17-.1,21.25.08l.11,1.11c.73.04,2.17.11,2.89.15.09-5.19.46-10.41-.12-15.57-.35-.16-1.05-.49-1.4-.66,1.3,2.96-.25,5.73-2.6,7.58-.84.28-2.77-.04-2.54,1.35,1.14.23,2.29.45,3.45.64-.02.43-.07,1.3-.1,1.74l-.05-.76c-8.39.22-16.78.51-25.17.24-.24,3.97-.64,8.06.29,11.97,1.53,2.53,4.26,4.5,7.33,4.32,6.66.07,13.32.06,19.98,0,3.76.04,7.23-3.09,7.38-6.87.07-10.66-.04-21.33.04-31.99.62-3.71-2.99-5.81-5.08-8.24-2.48-2.29-4.44-6.08-8.34-5.81-5,0-10.01-.18-15,.2-2.94,0-5.26,2.44-6.51,4.88M578.62,649.7c-1.14.02-2.61-.7-3.43.41.45.48.91.97,1.4,1.45-1.69.88-1.8,2.78-1.71,4.46-.26,3.47,3.96,5.7,2.61,9.33,1.02-.9,1.7-2.08,2.3-3.29.06,1.78.27,3.57.87,5.26.27-2.15.42-4.31.66-6.46,1.13,1.47,1.3,3.37,1.67,5.13,1.29-.8,2.58-1.59,3.89-2.38-.68-.49-1.35-.96-2.02-1.43.78-.08,2.33-.24,3.1-.32-.48-.68-.95-1.35-1.4-2.01.22-1.79-.79-3-2.65-2.22.38-1.16.81-2.31,1.05-3.5-.95-2.29-2.64-4.14-4.2-6.01-.72.52-1.44,1.04-2.14,1.58M607.42,663.12c-.94,2.19-1.95,4.36-2.7,6.64.52-.14,1.57-.4,2.1-.54-.28,2.6-1.09,5.42.27,7.87,2.06-1.42,3.36-3.53,4.49-5.69-.37-.2-1.13-.6-1.5-.79.44-.24,1.34-.72,1.78-.96-1.07-2.44-2.6-4.63-4.44-6.53Z"/>
    <path class="st32" d="M592.66,648.44c2.07.96,3.53,2.83,5.24,4.31-1.82.07-3.93.98-5.56,0-.19-1.52-.22-3.02-.09-4.53.1.05.31.16.41.22Z"/>
  </g>
  <g id="_x23_e37009ff">
    <path class="st35" d="M578.62,649.7c.7-.54,1.42-1.06,2.14-1.58,1.56,1.87,3.25,3.72,4.2,6.01-.24,1.19-.67,2.34-1.05,3.5,1.86-.78,2.87.43,2.65,2.22.45.66.92,1.33,1.4,2.01-.77.08-2.32.24-3.1.32.67.47,1.34.94,2.02,1.43-1.31.79-2.6,1.58-3.89,2.38-.37-1.76-.54-3.66-1.67-5.13-.24,2.15-.39,4.31-.66,6.46-.6-1.69-.81-3.48-.87-5.26-.6,1.21-1.28,2.39-2.3,3.29,1.35-3.63-2.87-5.86-2.61-9.33-.09-1.68.02-3.58,1.71-4.46-.49-.48-.95-.97-1.4-1.45.82-1.11,2.29-.39,3.43-.41Z"/>
  </g>
  <g id="_x23_c9cacdff">
    <path class="st55" d="M1432.69,684.27c24.44-.08,48.88.02,73.32-.1,30.34-.19,60.71.4,91.05-.21,24.59.1,49.23.43,73.84.18,9.04-.86,18.07.57,27.13.14,12.68.15,25.45-.57,38.09.36-8.66,1.3-17.47.37-26.19.64-30.08.04-60.15,0-90.23.22-51.23-.4-102.47.16-153.7-.2-9.67.03-19.34-.06-29.01.04-1.54.04-3.08-.13-4.3-1.07Z"/>
    <path class="st55" d="M1745.02,936.22c3.37.06,6.65-.99,9.57-2.66-.09.81-.14,1.63-.17,2.47-1.48.63-2.94,1.3-4.39,1.96-3.18,1.61-6.9,1.29-10.1,2.85-.36-.24-1.08-.71-1.44-.95-3.3.88-7.03,1.66-10.16-.17-.16.58-.3,1.17-.4,1.79-1.91-1.35-4.13-.8-6.14-.09-1.25-.25-2.47-.86-3.73-.55-3.53,1.25-7.2-.41-10.81-.09-3.3-.3-7.03.81-9.93-1.23-.15.79-.27,1.6-.37,2.43-1.48-.76-2.94-1.51-4.39-2.26-.34.22-1.01.65-1.35.86-.39-.19-1.18-.57-1.57-.76-3.68,1.12-7.71,1.57-11.34.05-.24.2-.71.6-.95.79-.21-.25-.63-.76-.84-1.02-.36.24-1.08.73-1.44.97-1.62.08-3.22.25-4.8.51-2.67-.34-5.35-.55-7.98-1.11-2.6.72-5.3.76-7.96.59-.22-.28-.66-.85-.88-1.14-.36.46-1.08,1.36-1.44,1.82-.57-.6-1.11-1.18-1.64-1.75-.35.45-1.06,1.34-1.42,1.79-.46-.54-.88-1.07-1.28-1.58-1.97.88-4.04,1.88-6.25,1.5-4.91-.93-10.03-1.03-14.94-.14-4.29-.79-8.75-.64-13.04.03-3.67-.86-7.45-.45-11.17-.51-3.34-.01-6.77-.41-9.98.7-.26-.15-.78-.47-1.04-.63-3.03,1.42-6.14.71-8.87-.93-.33.27-1,.81-1.33,1.08-2.93-.1-6.03.35-8.7-1.11-.49.43-.95.88-1.37,1.35-4.99-1.23-9.95.95-14.92-.1-6.89-.91-13.84.06-20.75-.44-.24-.29-.71-.86-.95-1.15-.15.36-.45,1.09-.59,1.45-.47-.43-.92-.85-1.34-1.25-.28.31-.85.93-1.14,1.24-.16-.29-.48-.86-.65-1.15-2.63,1.12-5.57,1.37-8.21.15-.41.24-.79.49-1.14.76-7.49-.57-15.09.94-22.47-.55-5.37.78-10.96,1.02-16.31.03-.98.17-1.97.07-2.92-.02-2,.98-4.15,1.01-6.09-.1-3.9,1.01-8.12,1-12.02.08-2.98.08-5.96-.3-8.92.18-2.61-.31-5.31-.96-7.68.63-.78-.38-1.53-.75-2.27-1.11-.73.22-1.46.45-2.14.7-.28-.16-.83-.48-1.1-.64-4.35,2.57-8.71-1.98-13.25-.48-2.29.85-3.98-1.15-5.57-2.39,12.56-.71,25.18.3,37.74-.66,95.58-.07,191.15-.19,286.73-.04Z"/>
  </g>
  <g id="_x23_3b945aff">
    <path class="st42" d="M770.65,750.72c1.56-.06,3.13-.14,4.71-.21,3.38.51,6.81.57,10.24.44,13.24.91,26.53,1.36,39.81,1.6,6.48.87,13.04.3,19.56.45,6.89-.15,13.82.43,20.69-.51,4.55-.14,9.12-.09,13.67-.45,4.12.1,8.24.04,12.33-.52,6.86-.83,13.76-.82,20.66-.8,18.99,2.17,38.13,4.08,56.65,9.07,4.9,1.27,10.06,2.86,13.8,6.44,1.95,2.04.98,5.03-1.02,6.6-11.48,4.31-23.28,7.73-35.39,9.74-22.45,3.48-45.17,4.98-67.84,6.05-8.16.88-16.38.35-24.56.6-14.32.41-28.64-.09-42.96-.13-16.99-.95-33.97-1.76-50.91-3.27-16.2-2.05-32.59-3.67-48.22-8.59-4.99-1.29-9.52-3.8-14.07-6.12-2.75-3.47,1.28-6.86,4.39-8.06,8.29-3.34,17.1-5.15,25.83-6.9,14.12-2.45,28.35-4.21,42.63-5.43Z"/>
    <path class="st42" d="M423.59,816.05c.16-9.45,9.19-17,18.43-16.47,89.15-.08,178.3.07,267.44-.07,6.79,15.41,12.83,31.14,19.55,46.58,7.72,20.1,16.71,39.68,24.68,59.67-27.9.37-55.82-.13-83.72.26-70.33-.07-140.69-.23-211.03-.1-6.31.33-12.63-.05-18.94-.07-9.23.08-16.6-8.95-16.44-17.82.04-24-.01-47.99.03-71.98M638.17,852.54c-1.94.76-1.32,4.27-.8,5.96.27-.42.82-1.25,1.1-1.67,1.47,8.79,7.67,16.3,15.67,20.03l-1.63-.25c.93,2.43,3.52,2.75,5.73,3.28-.12-.46-.36-1.37-.48-1.83.33.09,1,.27,1.33.36.14.51.42,1.52.55,2.03,2.21.12,4.42.19,6.62.53-.82-.8-1.7-1.48-2.66-2.03.9.02,2.7.06,3.61.08-.11.47-.31,1.42-.41,1.9,1.9-.36,3.76-.9,5.58-1.55.38.15,1.13.45,1.51.59.34-.37,1.01-1.13,1.35-1.51,12.26-3.89,19.57-17.97,17.79-30.43l-.99.03c.01,2.36-.12,4.73-.61,7.05,1.85-13.56-8.8-27.22-22.3-29.04-15.52-3.15-31.77,10.57-30.96,26.47Z"/>
    <path class="st42" d="M656.79,831.99c.5-.3,1-.58,1.53-.84.93,1.97,3.18,1.38,4.92,1.39,4.06-.27,8.13.15,12.18.57,10.3,4.98,14.88,19.31,9.12,29.33-3.68,7.14-11.38,12.38-19.57,11.95-11.24.43-21.9-9.38-21.87-20.72,1.51-3.29,2.17-6.87,3.41-10.25,2.09-4.9,7.24-7.26,10.28-11.43M675.48,842.43c-5.29,4.73-9.91,10.18-15.19,14.91-2-2.2-3.88-4.55-6.26-6.33-1.8-.31-3.96,1.87-2.54,3.52,2.61,3.03,5.5,5.86,8.59,8.42,1.6.27,2.72-1.36,3.91-2.19l-.13,1.55c2.94-1.83,4.98-4.68,7.49-7,2.02-2.14,4.54-3.9,5.91-6.58l-1.71.04c1.1-1.4,3.19-2.5,3.23-4.44-.75-1.06-1.87-2.35-3.3-1.9Z"/>
  </g>
  <g id="_x23_d8a167ff">
    <path class="st37" d="M775.36,750.51c3.4-.55,6.97-1.04,10.24.44-3.43.13-6.86.07-10.24-.44Z"/>
  </g>
  <g id="_x23_d09e69ff">
    <path class="st53" d="M879.33,752.04c3.95-1.46,8.25-1.28,12.33-.52-4.09.56-8.21.62-12.33.52Z"/>
  </g>
  <g id="_x23_d6a067ff">
    <path class="st17" d="M825.41,752.55c7.18-1.03,14.44-.33,21.66-.52,6.19.21,12.43-.51,18.59.46-6.87.94-13.8.36-20.69.51-6.52-.15-13.08.42-19.56-.45Z"/>
  </g>
  <g id="_x23_56b775ff">
    <path class="st22" d="M697.8,771.11c4.55,2.32,9.08,4.83,14.07,6.12,15.63,4.92,32.02,6.54,48.22,8.59,16.94,1.51,33.92,2.32,50.91,3.27,14.32.04,28.64.54,42.96.13,8.18-.25,16.4.28,24.56-.6,22.67-1.07,45.39-2.57,67.84-6.05,12.11-2.01,23.91-5.43,35.39-9.74-7.63,18.89-16.8,37.15-25.11,55.74-3.4,7.87-6.73,15.76-10.41,23.5-.47.91-.93,1.82-1.38,2.75,9.72,1.25,19.55-.18,29.29.79-9.7-.13-19.42-.29-29.1.07-3.14,3.39-3.62,8.27-6.03,12.11-7.05,16.03-14.15,32.04-21.14,48.08-1.3,4.99-5.95,7.8-10.35,9.74-12.26,5.15-25.45,7.76-38.61,9.22-4.93.93-9.99.37-14.91,1.41-7.32.26-14.65.32-21.98.15-4.07-.09-8.19.29-12.18-.7-9.71-.55-19.42-1.45-28.93-3.61-9.19-2.25-18.7-4.1-27.02-8.8-6.54-3.52-6.19-12.03-10.2-17.52-7.97-19.99-16.96-39.57-24.68-59.67-6.72-15.44-12.76-31.17-19.55-46.58-3.96-9.44-8-18.84-11.66-28.4Z"/>
  </g>
  <g id="_x23_519c6cff">
    <path class="st47" d="M1001.81,805.66c4.66-1.86,9.86-1.43,14.79-1.44,4.51,0,9.02-.27,13.54-.32.02.83.06,2.51.07,3.34-7.77.06-15.54-.03-23.3.1-4.49.25-8.31,4.08-8.58,8.57-.14,7.02.11,14.04-.1,21.07-.15,3.41-.44,6.97-2.06,10.06-1.04,2.14-3.23,3.43-4.27,5.58,7.4-.72,14.85-.09,22.27-.36,4.82.27,9.66-.36,14.48.19-.05.73-.14,2.2-.18,2.93-15.85-.1-31.71.14-47.56.09,1.98,2.54,4.28,5.07,4.67,8.42,1.1,6.65.15,13.43.62,20.13.39,4.09-.82,8.62,1.58,12.28,1.98,4.45,7.42,5.11,11.73,5.09,5.21-.12,10.45.11,15.65-.38.54,1,.92,2.09,1.12,3.25-6.43.17-12.85-.03-19.27.07-5.49.14-11.04-3.25-13.08-8.4-1.94-5.78-1.05-11.95-1.24-17.92-.15-4.83.36-9.71-.29-14.5-1.47-3.63-4.47-6.76-8.26-7.9-9.74-.97-19.57.46-29.29-.79.45-.93.91-1.84,1.38-2.75,13.23-.51,26.5.27,39.72-.48,3.81-1.18,6.98-4.44,8.48-8.1.72-9.12-.12-18.31.4-27.43.27-4.46,3.4-8.07,6.98-10.4Z"/>
  </g>
  <g id="_x23_577060ff">
    <path class="st52" d="M658.32,831.15c5.65-1.17,12.14-1.52,17.1,1.96-4.05-.42-8.12-.84-12.18-.57-1.74,0-3.99.58-4.92-1.39Z"/>
  </g>
  <g id="_x23_557963ff">
    <path class="st12" d="M643.1,853.67c-1.42-9.16,5.13-18.63,13.69-21.68-3.04,4.17-8.19,6.53-10.28,11.43-1.24,3.38-1.9,6.96-3.41,10.25Z"/>
  </g>
  <g id="_x23_52755eff">
    <path class="st30" d="M692.04,848.06l.99-.03c1.78,12.46-5.53,26.54-17.79,30.43-.34.38-1.01,1.14-1.35,1.51-.38-.14-1.13-.44-1.51-.59-1.82.65-3.68,1.19-5.58,1.55.1-.48.3-1.43.41-1.9,12.47-.93,22.99-11.54,24.22-23.92.49-2.32.62-4.69.61-7.05Z"/>
  </g>
  <g id="_x23_4d805eff">
    <path class="st13" d="M663.99,860.76c3.78-4.07,7.62-8.08,11.56-11.99l1.71-.04c-1.37,2.68-3.89,4.44-5.91,6.58-2.51,2.32-4.55,5.17-7.49,7l.13-1.55Z"/>
  </g>
  <g id="_x23_546b5cff">
    <path class="st15" d="M637.37,858.5c-.52-1.69-1.14-5.2.8-5.96.06,1.42.17,2.84.3,4.29-.28.42-.83,1.25-1.1,1.67Z"/>
  </g>
  <g id="_x23_54735fff">
    <path class="st31" d="M652.51,876.61l1.63.25c1.2.38,2.41.78,3.62,1.2.12.46.36,1.37.48,1.83-2.21-.53-4.8-.85-5.73-3.28Z"/>
  </g>
  <g id="_x23_51705cff">
    <path class="st16" d="M659.09,878.42c1.49.2,3,.35,4.51.53.96.55,1.84,1.23,2.66,2.03-2.2-.34-4.41-.41-6.62-.53-.13-.51-.41-1.52-.55-2.03Z"/>
  </g>
  <g class="st6">
    <g class="st6">
      <text class="st8" transform="translate(1207.15 441.6)"><tspan x="0" y="0">short text</tspan></text>
    </g>
  </g>
  <g class="st6">
    <g class="st6">
      <text class="st9" transform="translate(726.84 506.92)"><tspan x="0" y="0">2425 (80.08%)</tspan></text>
    </g>
  </g>
  <g class="st6">
    <g class="st6">
      <text class="st8" transform="translate(1202.41 494.27)"><tspan x="0" y="0">high symbol density</tspan></text>
    </g>
  </g>
  <g class="st6">
    <g class="st6">
      <text class="st8" transform="translate(1199.02 538.77)"><tspan x="0" y="0">blacklist hits</tspan></text>
    </g>
  </g>
  <g class="st6">
    <g class="st6">
      <text class="st8" transform="translate(1132.86 631.71)"><tspan x="0" y="0">mirror sites</tspan></text>
    </g>
  </g>
  <g class="st6">
    <g class="st6">
      <text class="st8" transform="translate(1123.48 674.25)"><tspan x="0" y="0">template pages</tspan></text>
    </g>
  </g>
  <g class="st6">
    <g class="st6">
      <text class="st8" transform="translate(1113.11 722.45)"><tspan x="0" y="0">reposted content</tspan></text>
    </g>
  </g>
  <g class="st6">
    <g class="st6">
      <text class="st8" transform="translate(1039.77 808.7)"><tspan x="0" y="0">directory-like pages</tspan></text>
    </g>
  </g>
  <g class="st6">
    <g class="st6">
      <text class="st8" transform="translate(1041.55 856.28)"><tspan x="0" y="0">high perplexity (KenLM)</tspan></text>
    </g>
  </g>
  <g class="st6">
    <g class="st6">
      <text class="st8" transform="translate(1035.49 905.69)"><tspan x="0" y="0">mixed language</tspan></text>
    </g>
  </g>
  <g class="st6">
    <g class="st6">
      <text class="st8" transform="translate(1277.11 277.99)"><tspan x="0" y="0">HTML parsing failures</tspan></text>
    </g>
  </g>
  <g class="st6">
    <g class="st6">
      <text class="st8" transform="translate(1283.59 328.31)"><tspan x="0" y="0">empty content</tspan></text>
    </g>
  </g>
  <g class="st6">
    <g class="st6">
      <text class="st3" transform="translate(1431.46 659.32)"><tspan x="0" y="0">Data Profile</tspan></text>
    </g>
  </g>
  <g class="st6">
    <g class="st6">
      <text class="st7" transform="translate(1431.73 743.5)"><tspan x="0" y="0">Train: 468</tspan><tspan x="0" y="30">Val: 58</tspan><tspan x="0" y="60">Overlap: 0</tspan><tspan x="0" y="90">Total tokens: 321,430</tspan><tspan x="0" y="120">Avg tokens/sample: 611</tspan></text>
    </g>
  </g>
  <g class="st6">
    <g class="st6">
      <text class="st5" transform="translate(417.12 89.88)"><tspan x="0" y="0">Data Retention Funnel with Filtering Insights</tspan></text>
    </g>
  </g>
  <text class="st11" transform="translate(744.61 318.79)"><tspan x="0" y="0">3028 (100%)</tspan></text>
  <text class="st11" transform="translate(737.82 694.04)"><tspan x="0" y="0">2305 (76.12%)</tspan></text>
  <text class="st11" transform="translate(814.24 855.91)"><tspan x="0" y="0">526</tspan><tspan x="-43.73" y="42" xml:space="preserve"> (17.37%)</tspan></text>
  <text class="st4" transform="translate(505.39 869.42)"><tspan x="0" y="0">Final</tspan></text>
  <text class="st4" transform="translate(410.76 682.36)"><tspan x="0" y="0">Dedup</tspan></text>
  <text class="st4" transform="translate(309.01 486.57)"><tspan x="0" y="0">Cleaned</tspan></text>
  <text class="st4" transform="translate(219.22 308.94)"><tspan x="0" y="0">Extracted</tspan></text>
</svg>