<?xml version="1.0" encoding="UTF-8"?>
<svg id="_图层_1" data-name="图层_1" xmlns="http://www.w3.org/2000/svg" version="1.1" viewBox="0 35 900 355">
  <!-- Generator: Adobe Illustrator 29.6.0, SVG Export Plug-In . SVG Version: 2.1.1 Build 207)  -->
  <defs>
    <style>
      .st0 {
        font-size: 13px;
      }

      .st0, .st1, .st2, .st3, .st4 {
        isolation: isolate;
      }

      .st0, .st3 {
        font-family: TimesNewRomanPSMT, 'Times New Roman';
      }

      .st5 {
        fill: #e6f0fb;
      }

      .st6 {
        fill: #90bc98;
      }

      .st7 {
        fill: #595d5c;
      }

      .st8 {
        fill: #f1c499;
      }

      .st9 {
        fill: #696a66;
      }

      .st10 {
        fill: #f5caa1;
      }

      .st11 {
        fill: #7a9cc9;
      }

      .st12 {
        fill: #eec298;
      }

      .st13 {
        fill: #70706c;
      }

      .st14 {
        fill: #a5a7a9;
      }

      .st15 {
        fill: #474b49;
      }

      .st1 {
        font-size: 29px;
      }

      .st1, .st2 {
        font-family: TimesNewRomanPS-BoldMT, 'Times New Roman';
        font-weight: 700;
      }

      .st16 {
        fill: #8d8d88;
      }

      .st17 {
        fill: #bdcee6;
      }

      .st2 {
        font-size: 19px;
      }

      .st18 {
        fill: #424b43;
      }

      .st19 {
        fill: #d3e2f8;
      }

      .st20 {
        fill: #574d43;
      }

      .st21 {
        fill: #80a8de;
      }

      .st22 {
        fill: #fbc390;
      }

      .st23 {
        fill: #b0c2d8;
      }

      .st24 {
        fill: #373938;
      }

      .st25 {
        fill: #adc9f3;
      }

      .st26 {
        fill: #f8c79c;
      }

      .st27 {
        fill: #dac1a8;
      }

      .st28 {
        fill: #818380;
      }

      .st29 {
        fill: #636968;
      }

      .st30 {
        fill: #adc9f2;
      }

      .st31 {
        fill: #6b6965;
      }

      .st32 {
        fill: #535653;
      }

      .st33 {
        fill: #e6f5e8;
      }

      .st34 {
        fill: #779bc9;
      }

      .st35 {
        fill: #98c6a0;
      }

      .st36 {
        fill: #747573;
      }

      .st37 {
        fill: #dec3a8;
      }

      .st3 {
        font-size: 15px;
      }

      .st38 {
        fill: #908a84;
      }

      .st39 {
        fill: #878989;
      }

      .st40 {
        fill: #7a7b79;
      }

      .st41 {
        fill: #87abde;
      }

      .st42 {
        fill: #e9c39e;
      }

      .st43 {
        fill: #444b45;
      }

      .st44 {
        fill: #444744;
      }

      .st45 {
        fill: #7b7d7c;
      }

      .st46 {
        fill: #959796;
      }

      .st47 {
        fill: #789fd2;
      }

      .st48 {
        fill: #272625;
      }

      .st49 {
        fill: #8f918f;
      }

      .st50 {
        fill: #8f9089;
      }

      .st51 {
        fill: #46515e;
      }

      .st52 {
        fill: #9bc9a3;
      }

      .st53 {
        fill: #6d6e6c;
      }

      .st54 {
        fill: #8eafdd;
      }

      .st55 {
        fill: #191a19;
      }

      .st56 {
        fill: #767675;
      }

      .st57 {
        fill: #8b9b9f;
      }

      .st58 {
        fill: #e8ba8f;
      }

      .st59 {
        fill: #fde2c7;
      }

      .st60 {
        fill: #a4cca9;
      }

      .st61 {
        fill: #474b4a;
      }

      .st62 {
        fill: #ededf0;
      }

      .st63 {
        fill: #d1ead6;
      }

      .st64 {
        fill: #edeef1;
      }

      .st65 {
        fill: #918c85;
      }

      .st66 {
        fill: #94c09c;
      }

      .st67 {
        fill: #8b8b84;
      }

      .st68 {
        fill: #434e46;
      }

      .st69 {
        fill: #262624;
      }

      .st70 {
        fill: #535453;
      }

      .st71 {
        fill: #2a2b29;
      }

      .st72 {
        fill: #66625e;
      }

      .st73 {
        fill: #dfc1a8;
      }

      .st74 {
        fill: #79a4df;
      }

      .st75 {
        fill: #878987;
      }

      .st76 {
        fill: #ffeede;
      }

      .st77 {
        fill: #f7cba2;
      }

      .st78 {
        fill: #f9c18d;
      }

      .st79 {
        fill: #abd8b6;
      }

      .st80 {
        fill: #6b6f6d;
      }

      .st81 {
        fill: #9d9f9d;
      }

      .st82 {
        fill: #fdc592;
      }

      .st83 {
        fill: #c3cedc;
      }

      .st84 {
        fill: #7f7d79;
      }

      .st85 {
        fill: #444e4f;
      }

      .st86 {
        fill: #95c39d;
      }

      .st87 {
        fill: #e4f0fe;
      }

      .st88 {
        fill: #a1cca9;
      }

      .st89 {
        fill: #bbd1f2;
      }

      .st90 {
        fill: #63635f;
      }

      .st91 {
        fill: #ebedf0;
      }

      .st92 {
        fill: #393d3d;
      }

      .st93 {
        fill: #474f48;
      }

      .st94 {
        fill: #9b9c99;
      }
    </style>
  </defs>
  <g id="_x23_edeef1ff">
    <path class="st64" d="M0,0h900v503H0V0M28.73,143.72c-.64,2.02-.92,4.13-.84,6.24.27,11.44-.3,22.9.59,34.32-.76,10.56.71,21.14-.23,31.69.24,44.69-.14,89.38.05,134.06,0,3.41,1.45,7.5,5,8.61,3.82.85,7.79.41,11.68.47,83.09-.05,166.18.09,249.27-.06,54.26.44,108.52-.02,162.78.22,51.75-.25,103.5.26,155.25-.15,83.59.08,167.18,0,250.78,0,4.72.71,8.71-3.44,8.57-8.04.06-57.27-.07-114.55.09-171.83h-.4c.1-11.07.16-22.15.03-33.22.24-3.57-2.83-6.7-6.31-6.86-6.68-.47-13.37.08-20.05-.2-77.5.18-155-.08-232.51.06-26.51-.5-53.02.19-79.53-.23-57.67.02-115.32.07-172.99-.01-21.87.34-43.76-.43-65.62.3-85.44-.34-170.88-.04-256.32-.16-3.74-.35-7.73,1.17-9.29,4.79Z"/>
    <path class="st64" d="M717.24,221.1c-.44-2.82,2.95-2.28,4.74-2.38,13.85.17,27.71-.13,41.56.15.88,13.86-.06,27.8.55,41.69-.02.37-.07,1.09-.09,1.45-1.24-1.17-2.52-2.29-3.81-3.4,1.75-4.23,1.94-9.71-1.72-13.02-4.18-4.58-12.21-3.97-15.79,1.04-3.65,4.77-2.15,12,2.71,15.37h-1.2c-7.72-.01-15.45.01-23.17.05-1.53,0-4.11.08-3.76-2.17-.19-12.92-.08-25.86-.02-38.78M733.93,222.58c-.02,5.33.12,10.66-.12,15.99-.31-.26-.92-.78-1.23-1.04-.33-3.33-.05-6.69-.07-10.02-1.58-.14-3.15-.26-4.71-.37-.24,3.61-.23,7.24-.11,10.86-.37.02-1.1.05-1.47.06-.02-2.05-.05-4.1-.07-6.14-1.64.04-3.26.08-4.87.14-.1,2.54-.05,5.16-1.28,7.47,6.64-.05,13.27.02,19.91.07-1.85-5.41-.53-11.25-.91-16.84-1.7-.08-3.39-.13-5.07-.18M752.9,221.7c-.06,2.77-.05,5.54.05,8.31,2.78,0,5.57,0,8.36,0-.12-4.59-3.86-8.19-8.41-8.31M744.76,227.55c-3.14,4.73.57,11.99,6.39,11.77,4.76.61,8.51-3.82,8.5-8.34-2.56.02-5.11.02-7.66.02.04-2.45.07-4.89.06-7.34-2.86.18-5.78,1.32-7.29,3.89M733.99,243.87c-.03,5.27-.06,10.54.03,15.82,1.53-.07,3.09-.08,4.64-.26.79-5.09.12-10.4.34-15.57-1.68,0-3.35,0-5.01,0M727.71,248.62c-.11,3.62-.13,7.25-.15,10.88,1.66.04,3.32.07,4.99.1.04-3.68.04-7.36-.13-11.03-1.58,0-3.15.02-4.71.05M721.04,253.85c-.1,1.91.03,3.83.14,5.74,1.76-.05,3.53-.1,5.31-.17-.13-2.14-.24-4.28-.38-6.41-1.65.3-3.75-.45-5.07.84Z"/>
    <path class="st64" d="M143.56,220.93c6.36-.1,12.72-.06,19.09-.05.09,2.3-.08,4.64.44,6.89,1.74,2.4,5.27,1.04,7.81,1.47,0,3.17-.17,6.38.58,9.48-.39.42-.76.85-1.12,1.3-.49.96-.96,1.94-1.4,2.93-.51.28-1.52.84-2.03,1.12-.97-.55-1.93-1.09-2.89-1.63-1.1,1.13-2.19,2.26-3.28,3.41.4,1.41,1.77,2.92.81,4.41-1.04.54-2.1,1.05-3.17,1.52,0,1.5.02,3,.04,4.5,2.33.82,4.33,2.39,3,5.01-.46-.35-1.37-1.05-1.82-1.41-.32-.23-.96-.71-1.28-.94-4.71-.46-9.45.22-14.14-.37l-.75-.74c-.69-4.91-.17-9.89-.3-14.83.15-7.35-.4-14.74.41-22.07M146.61,231.18c1.76,1.63,4.26,1.04,6.42,1.2,1.85-.18,4.19.54,5.49-1.23-3.96-.25-7.95-.3-11.91.03M146.48,235.18c1.01.73,2.2,1.2,3.46,1.11,4.68.03,9.36.02,14.04,0,1.26-.09,2.82.16,3.57-1.2-7.02-.17-14.06-.36-21.07.09M146.51,239.18c1.06.55,2.18,1.1,3.43.99,4.36,0,8.73-.02,13.09.07,1.53-.13,3.46.35,4.53-1.12-7.01-.3-14.05-.42-21.05.06M146.44,243.13c1.49,1.52,3.73.88,5.6,1.06,2.8-.17,5.85.54,8.41-.93-4.65-.54-9.35-.44-14.01-.13M146.46,247.82c4.04.37,8.12.32,12.16.05-1.2-1.32-3.06-1-4.63-1.11-2.52.11-5.31-.46-7.53,1.06Z"/>
  </g>
  <g id="_x23_adc9f3ff">
    <path class="st25" d="M28.73,143.72c1.56-3.62,5.55-5.14,9.29-4.79,85.44.12,170.88-.18,256.32.16-.01,13.4.11,26.8.01,40.21-82.11-.04-164.22.06-246.34-.05-6.38,0-12.77.16-19.14-.19-.33-11.78-.1-23.56-.14-35.34Z"/>
    <path class="st25" d="M238.19,255.26c.95-.6,3.13.23,2.27,1.55-1.13,1.73-4.86-.35-2.27-1.55Z"/>
    <path class="st25" d="M227.9,260.07c14.99.16,29.98-.56,44.97-.11-.03,1.35-.07,2.7-.09,4.05-14.99.17-29.98.16-44.96.13.02-1.36.05-2.72.08-4.07Z"/>
  </g>
  <g id="_x23_fdc592ff">
    <path class="st82" d="M294.34,139.09c21.86-.73,43.75.04,65.62-.3,57.67.08,115.32.03,172.99.01,26.51.42,53.02-.27,79.53.23,0,13.42-.1,26.85.07,40.26-56.54-.23-113.08,0-169.61-.09-49.53.08-99.06-.12-148.59.1.1-13.41-.02-26.81-.01-40.21Z"/>
  </g>
  <g id="_x23_abd8b6ff">
    <path class="st79" d="M612.48,139.03c77.51-.14,155.01.12,232.51-.06,6.68.28,13.37-.27,20.05.2,3.48.16,6.55,3.29,6.31,6.86.13,11.07.07,22.15-.03,33.22-86.26.14-172.51-.03-258.77.04-.17-13.41-.07-26.84-.07-40.26Z"/>
    <path class="st79" d="M807.99,223.96c2.62-.04,5.55-.97,7.89.69-2.35.17-4.69.18-7.03.15.28,12.36-.07,24.74.24,37.09.26.26.77.77,1.03,1.03,7.39.98,15.02-1.04,22.29.81-8.1.84-16.3.34-24.43.11-.57-6.59-.18-13.2-.29-19.81.11-6.69-.28-13.39.3-20.07Z"/>
  </g>
  <g id="_x23_d3e2f8ff">
    <path class="st19" d="M27.89,149.96c-.08-2.11.2-4.22.84-6.24.04,11.78-.19,23.56.14,35.34,6.37.35,12.76.19,19.14.19,82.12.11,164.23,0,246.34.05.02,28.17-.09,56.35,0,84.53-2.33-.05-4.67-.05-7,.03.16-20.95-.02-41.91.07-62.86.16-2.87-.52-5.69-2.46-7.86l.31,1.75c-1.17-.68-2.36-1.33-3.57-1.93l1.67-.29c-5.76-.84-11.59-.44-17.38-.48-12-.02-24,.05-36-.04-4.97,0-10.09-.48-14.87,1.2-.54,1-1.18,2-1.37,3.14-.57,4.48-.39,9-.39,13.5.04,15.68,0,31.36.11,47.04-.02,2.23-.36,4.45-.76,6.64-1.53-1.62-3.18-3.11-4.94-4.46.91,1.57,1.87,3.12,2.83,4.67-3.15-.06-6.3-.06-9.46-.05.38-20.28-.04-40.56.19-60.84-.19-3.09.39-6.85-2.14-9.18-2.11-2.27-5.49-1.77-8.28-1.92-19.35.26-38.72-.19-58.07.22-4.07,0-6.48,4.19-6.1,7.9-.06,21.36.08,42.73.03,64.09-1.58-1.84-3.48-3.35-5.44-4.76.94,1.52,1.91,3.02,2.9,4.52-3.23-.05-6.46-.1-9.69.04.29-17.96-.05-35.93.17-53.89-.09-5.27.69-10.78-1.56-15.74l-.03,1.74c-.73-.79-1.47-1.56-2.22-2.33l1.95.25c-1.97-1.5-4.34-2.19-6.8-2.04-17.01.14-34.01,0-51.02.05-4.37.05-8.77-.3-13.11.25-2.46.26-4.64,2.32-4.94,4.79-.61,4.29-.26,8.65-.31,12.98-.05,41.02.06,82.04-.03,123.06.14,4.51-.67,9.47,1.71,13.54,1.55,2.62,4.91,2.69,7.6,2.79,19.35,0,38.7-.05,58.05.03,2.72-.14,5.67.1,8.14-1.24,2.12-2.51,2.42-6,2.55-9.16.04-24.68.2-49.38-.2-74.06,3.16.19,6.32.11,9.49.04-.9,1.45-1.78,2.91-2.63,4.4,1.89-1.46,3.74-2.99,5.41-4.71-.08,24.1-.02,48.2-.08,72.29.13,3.49.1,7.29,2.11,10.31,1.41,1.94,4.1,1.83,6.23,2.04,18.98.21,37.96-.1,56.93.06,2.48-.2,5.59.11,7.36-2.04,2.12-2.96,1.9-6.83,2.04-10.3-.23-24,.17-48-.21-72,3.12,0,6.23,0,9.35-.02-.97,1.46-1.93,2.92-2.86,4.4,1.27-.95,2.54-1.91,3.78-2.91,1.22,7.12.46,14.34.65,21.51.2,8.42-.4,16.86.54,25.24.58,8.25.12,16.53.26,24.79.14,3.26.34,6.91,2.64,9.47,1.62,1.82,4.26,1.81,6.51,1.92,18.66-.05,37.32-.06,55.97-.03,2.45-.24,5.56.11,7.25-2.07,2.55-3.17,2.19-7.51,2.27-11.33-.21-23.63.09-47.25-.18-70.88,2.35-.03,4.71-.06,7.07-.1-.27,31.34.09,62.7-.15,94.05-83.09.15-166.18.01-249.27.06-3.89-.06-7.86.38-11.68-.47-3.55-1.11-5.01-5.2-5-8.61-.19-44.68.19-89.37-.05-134.06.94-10.55-.53-21.13.23-31.69-.89-11.42-.32-22.88-.59-34.32Z"/>
  </g>
  <g id="_x23_fde2c7ff">
    <path class="st59" d="M294.35,179.3c49.53-.22,99.06-.02,148.59-.1,56.53.08,113.07-.14,169.61.09.17,28.18-.11,56.37.14,84.55-1.88.04-3.73.36-5.55.77l-.35.06c-.26-21.54-.07-43.1-.06-64.64.19-2.63-1.16-4.93-2.63-6.98-3.88-1.41-8.07-.86-12.1-.91-14.68.06-29.35.02-44.02.08-2.54-.11-5.34.72-6.43,3.24-1.21,3.02-.79,6.39-.85,9.58.22,13-.1,26,.09,39.01-.11,6.66.27,13.37-.58,20-1.19-1.15-2.37-2.31-3.56-3.45-.5-.06-1.51-.16-2.01-.21-3.64-2.13-2.73-6.9-2.62-10.43.86-7.96.4-15.98,0-23.95.33-7.69-.32-15.38-.03-23.08,0-3.16.3-6.93-2.46-9.12-2.77-1.97-6.3-1.85-9.53-1.84-16.68.31-33.36.03-50.04.12-2.84-.19-5.95,1.11-6.76,4.05-.92,3.91-.46,7.97-.51,11.94.06,18.68-.12,37.36.06,56.04-1.53-1.88-3.29-3.68-5.61-4.54.93,1.52,1.98,2.96,3.04,4.4-2.78-.12-5.54-.19-8.31-.27l-.03,1.31c2.71,0,5.43,0,8.15-.09-.87,1.4-1.69,2.83-2.33,4.35,1.77-1.46,3.47-3.01,5.11-4.62.01,19.12-.18,38.24-.03,57.36.12,7.22-.42,14.47.38,21.67.74,3.8,4.2,5.87,7.94,5.66,16.63.27,33.28-.23,49.92.1,2.73-.14,6.18.06,7.98-2.42,3.03-4.77,2.3-10.7,2.3-16.07-.21-22.11.08-44.23-.27-66.34,2.35.1,4.71.08,7.07.09-1.04,1.5-2.06,3.01-3.02,4.56,1.84-1.48,3.56-3.13,5.09-4.93.39,3.22.65,6.46.63,9.71-.19,21.3.02,42.61-.09,63.92-.09,3.79.7,8.07,3.94,10.46,2.24,1.17,4.9.93,7.36,1.05,15.02-.18,30.04-.02,45.06-.02,3.13-.14,6.64-.13,9.2-2.23,2.24-2.46,2.03-6.09,2.24-9.2-.03-21.67-.13-43.34.02-65.01.05-2.86-.43-5.71-1.35-8.41,1.68.22,3.38.36,5.1.43.32,31.35.18,62.72.04,94.08-51.75.41-103.5-.1-155.25.15-54.26-.24-108.52.22-162.78-.22.24-31.35-.12-62.71.15-94.05.63-.02,1.88-.06,2.5-.08-.71,1.17-1.53,2.35-1.7,3.75,1.69-1.05,3.15-2.4,4.57-3.76-.05,20.02.24,40.04.05,60.07.18,6.3-.38,12.67.62,18.93.43,3.16,3.14,6.01,6.5,5.66,17.67.24,35.36-.13,53.04.1,2.57-.15,5.9.34,7.63-2.07,1.05-1.14.39-2.65.23-3.96-.26-48.2-.04-96.42-.13-144.63.37-2.89-1.68-5.79-4.77-5.6-17.64-.2-35.31.12-52.96-.15-3.2-.05-7.33.34-8.91,3.61-.87,3.58-.28,7.31-.52,10.96-.71,5.01-.9,10.08-.66,15.14.46,9.67-.34,19.35-.06,29.02.11,3.85.14,7.71-.03,11.56-1.74-1.41-3.48-2.83-5.25-4.2.9,1.52,1.82,3.04,2.75,4.55-.73-.02-2.2-.05-2.94-.07-.1-28.18.01-56.36,0-84.53M379.76,199.02c-.25,10.66.04,21.32-.09,31.98-.19,11.06.42,22.13-.4,33.17-1.44-1.81-3.21-3.35-5.24-4.45,1.25,1.61,2.63,3.11,4,4.62-3.18-.09-6.36-.35-9.52-.03,2.84.74,5.8.6,8.71.67-1.05,1.29-2.09,2.59-3.01,3.98,1.79-1.42,3.42-3.03,5.09-4.59.34,2.52.54,5.07.47,7.62-.4,13.98.6,27.97.13,41.96.13,2.52-.58,5.38,1.01,7.59v.04c-1.64,2.86-1.33,6.24-1.45,9.41,0,4.29-.32,8.59.05,12.87.31,3.15,3.22,5.9,6.46,5.68,19.35.11,38.71.05,58.06.12,2.69-.17,6.4.07,7.87-2.71,1.29-3.47,1.11-7.27,1.29-10.9-.1-4.47.56-9.1-.92-13.42-1.16,6.2.29,12.58-.98,18.75-.94-20.12.28-40.29-.42-60.42-.28-6.69.61-13.37-.05-20.05-.25-22.15.68-44.31-.27-66.45l1.24.43c-2.47-3.52-7.07-2.78-10.79-2.85-18.36.35-36.73-.28-55.09.07-3.66-.2-6.38,3.46-6.15,6.91Z"/>
  </g>
  <g id="_x23_d1ead6ff">
    <path class="st63" d="M612.55,179.29c86.26-.07,172.51.1,258.77-.04h.4c-.16,57.28-.03,114.56-.09,171.83.14,4.6-3.85,8.75-8.57,8.04-83.6,0-167.19.08-250.78,0,.14-31.36.28-62.73-.04-94.08,1.2,0,2.42-.01,3.64-.04-1.05,1.46-2.07,2.92-3.04,4.43,2.09-1.24,4.01-2.74,5.8-4.38.19,24.66.07,49.32.05,73.98.08,3.53.62,8.43,4.63,9.62,5.14,1.4,10.47-.29,15.7.06,7.32.46,14.65-.37,21.96.15,7.35.56,14.72.57,22.09.48,2.68-.19,5.87-.29,7.8-2.47,2.34-3.08,2.3-7.17,2.37-10.86-.01-14,.04-28-.02-42.01-.09-9.66.3-19.34-.43-28.98,3.08,0,6.16,0,9.25-.04-.9,1.44-1.78,2.88-2.63,4.34,1.79-1.49,3.55-3.03,5.3-4.58.02,25.1.04,50.21-.09,75.31-.14,3.46,1.09,7.3,4.27,9.09,4.73.91,9.6.18,14.39.3,13.91.13,27.82-.27,41.73.13l.07-.21c.3.06.88.17,1.18.23,3.11-.18,6.3-.2,9.28-1.22,2.51-.98,3.08-3.94,3.03-6.33-.01-19.04-.03-38.07-.01-57.11-.03-6.64.28-13.3-.44-19.91,3.05,0,6.09,0,9.15-.03-.75,1.46-1.48,2.94-2.17,4.43,1.89-1.51,3.71-3.11,5.4-4.84.5,10.14.08,20.3.16,30.45-.09,14.29.2,28.59,0,42.88.07,2.88-.22,6.22,1.88,8.51,1.56,1.85,4.14,2.12,6.41,2.24,18.99-.29,38,.01,56.99-.04,2.33-.11,4.98-.22,6.74-1.98,1.64-1.39,1.61-3.7,1.72-5.65.25-46.68-.09-93.36.12-140.03.16-2.68-.9-5.15-2.11-7.46l.18,1.26c-1.31-.58-2.59-1.16-3.89-1.7l1.74-.44c-4.79-.59-9.61-.48-14.42-.44-16,.01-32,0-47.99.05-2.78-.22-6,.96-6.71,3.94-1.16,5.86-.43,11.89-.6,17.83-.15,16.56.3,33.12-.21,49.68-1.78-1.56-3.67-2.97-5.61-4.28.95,1.49,1.96,2.97,2.97,4.44-1.98.05-3.96.12-5.93.13-1.73-.69-3.83-1.66-3.33-3.93-.14-17.33.03-34.67-.02-52.01-.18-4.94,1.01-10.46-2.27-14.69l.17,1.41c-1.3-.53-2.58-1.07-3.88-1.56.43-.22,1.3-.67,1.73-.89-19.78-.65-39.58.18-59.36-.22-2.74.22-6.06-.45-8.23,1.6-2.15,2.2-1.96,5.52-2.07,8.36.1,20.66,0,41.33.02,61.99-1.56-1.83-3.5-3.26-5.55-4.49.95,1.47,1.96,2.91,2.99,4.34-2.91-.05-5.8-.05-8.69.05-1.56-10.26-.45-20.67-.21-30.98-.87-12.16.67-24.4-1.19-36.5-.23-1.09-.62-2.13-.94-3.19-5.57-1.75-11.45-1.14-17.19-1.12-14.97-.08-29.95.1-44.92-.1-2.73.18-6.01-.35-8.14,1.76-2.24,2.07-2.04,5.38-2.17,8.17.14,20.5.18,41.01-.04,61.51-1.7-1.33-3.4-2.66-5.13-3.94.92,1.49,1.88,2.98,2.84,4.45-.92-.04-2.75-.11-3.66-.15-.25-28.18.03-56.37-.14-84.55Z"/>
  </g>
  <g id="_x23_b0c2d8ff">
    <path class="st23" d="M36.99,196.98c.3-2.47,2.48-4.53,4.94-4.79,4.34-.55,8.74-.2,13.11-.25,17.01-.04,34.01.09,51.02-.05,2.46-.15,4.83.54,6.8,2.04l-1.95-.25c-2.62-.42-5.27-.69-7.93-.7-19.35.11-38.69,0-58.03.03-2.55-.11-5.61.66-6.56,3.34-.76,3.82-.31,7.77-.39,11.65,0,41,.06,82.01,0,123.01.07,3.84-.36,7.77.49,11.55.89,2.72,3.94,3.55,6.5,3.42,20,.05,40-.07,60,.02,2.44-.17,5.56.28,7.2-1.97,1.25-2.09.96-4.68,1.09-7.01-.29-47,.26-94.01-.16-141.01l.03-1.74c2.25,4.96,1.47,10.47,1.56,15.74-.22,17.96.12,35.93-.17,53.89-.19.23-.59.71-.78.95l.73.07c.4,24.68.24,49.38.2,74.06-.13,3.16-.43,6.65-2.55,9.16-2.47,1.34-5.42,1.1-8.14,1.24-19.35-.08-38.7-.03-58.05-.03-2.69-.1-6.05-.17-7.6-2.79-2.38-4.07-1.57-9.03-1.71-13.54.09-41.02-.02-82.04.03-123.06.05-4.33-.3-8.69.31-12.98Z"/>
    <path class="st23" d="M126.75,200.01c-.38-3.71,2.03-7.9,6.1-7.9,19.35-.41,38.72.04,58.07-.22,2.79.15,6.17-.35,8.28,1.92,2.53,2.33,1.95,6.09,2.14,9.18-.23,20.28.19,40.56-.19,60.84v1.18c.38,24-.02,48,.21,72-.14,3.47.08,7.34-2.04,10.3-1.77,2.15-4.88,1.84-7.36,2.04-18.97-.16-37.95.15-56.93-.06-2.13-.21-4.82-.1-6.23-2.04-2.01-3.02-1.98-6.82-2.11-10.31.06-24.09,0-48.19.08-72.29v-.55c.06-21.36-.08-42.73-.02-64.09M131.41,193.41c-2.18.89-3.52,3.19-3.28,5.53.08,47.03-.12,94.05.02,141.08-.36,3.28,2.51,6.13,5.77,5.91,19.37.13,38.76,0,58.13.07,2.13-.12,4.71.17,6.27-1.62,1.41-1.41,1.47-3.5,1.52-5.34-.02-46.69.05-93.38,0-140.06.42-3.26-2.51-6.24-5.77-5.93-18.68-.13-37.37.07-56.05-.07-2.2.04-4.46-.14-6.61.43Z"/>
    <path class="st23" d="M284.97,193.14c1.94,2.17,2.62,4.99,2.46,7.86-.09,20.95.09,41.91-.07,62.86,0,.31-.02.93-.03,1.24.27,23.63-.03,47.25.18,70.88-.08,3.82.28,8.16-2.27,11.33-1.69,2.18-4.8,1.83-7.25,2.07-18.65-.03-37.31-.02-55.97.03-2.25-.11-4.89-.1-6.51-1.92-2.3-2.56-2.5-6.21-2.64-9.47-.14-8.26.32-16.54-.26-24.79.02-12.08.07-24.16,0-36.24.02-3.9-.45-8,1.34-11.62.28,2.18.48,4.37.5,6.57-.12,21.71.15,43.42-.08,65.13.11,2.39-.17,5.16,1.52,7.11,1.76,2.05,4.72,1.68,7.14,1.84,18.68-.11,37.38-.02,56.07-.03,1.86-.15,4.06,0,5.49-1.46,1.51-1.41,1.28-3.67,1.45-5.54-.13-46-.05-92.01-.03-138.01-.06-2.05-.34-4.08-.73-6.09l-.31-1.75Z"/>
  </g>
  <g id="_x23_8eafddff">
    <path class="st54" d="M215.13,193.35c4.78-1.68,9.9-1.21,14.87-1.2,12,.09,24,.02,36,.04,5.79.04,11.62-.36,17.38.48l-1.67.29c-18.23-.09-36.46.11-54.69-.07-3.97-.03-7.93.33-11.89.46Z"/>
    <path class="st54" d="M213.76,196.49c.26,2.84.64,5.68.63,8.54-.12,15.31-.04,30.63-.05,45.95-.07,4.53.55,9.18-.77,13.59-.21-.22-.64-.67-.85-.9.4-2.19.74-4.41.76-6.64-.11-15.68-.07-31.36-.11-47.04,0-4.5-.18-9.02.39-13.5Z"/>
    <path class="st54" d="M748.35,244.38c2.43-.53,5.22-.57,7.4.83,5.82,3.22,5.39,13.1-.54,15.98-5.26,2.72-12.76-.99-13.06-7.14-.87-4.27,2.48-8.13,6.2-9.67M750.27,245.24c-6.28.21-9.03,8.92-4.73,13.15,3.06,3.77,9.3,3.05,11.87-.91,3.69-5-.88-13.13-7.14-12.24Z"/>
    <path class="st54" d="M759.61,260.6c3.03,1.69,5.76,4.29,6.67,7.75-3.22-1.27-6.87-3.89-6.67-7.75Z"/>
    <path class="st54" d="M834.36,260.99c.54.67,1.08,1.35,1.64,2.03.75,0,2.25-.02,3-.02-.77,1.74-1.53,3.5-2.27,5.25-.67-.79-1.32-1.58-1.97-2.36-.9.33-1.79.66-2.68.99.77-1.96,1.54-3.92,2.28-5.89Z"/>
    <path class="st54" d="M841.35,263.28c1.58-.38,3.08-.98,4.55-1.69.7,1.54,1.41,3.08,2.15,4.61-2.01-.37-3.47.67-4.64,2.15-.66-1.7-1.34-3.39-2.06-5.07Z"/>
  </g>
  <g id="_x23_e9c39eff">
    <path class="st42" d="M379.76,199.02c-.23-3.45,2.49-7.11,6.15-6.91,18.36-.35,36.73.28,55.09-.07,3.72.07,8.32-.67,10.79,2.85l-1.24-.43c-4.61-1.94-9.68-1.26-14.53-1.3-15.67.04-31.33.12-46.99-.02-2.17.15-4.79-.23-6.46,1.49-1.46,1.37-1.32,3.52-1.43,5.35.06,38.02-.02,76.04.02,114.07-.02,2.5-.14,4.99-.25,7.49-1.59-2.21-.88-5.07-1.01-7.59.47-13.99-.53-27.98-.13-41.96.07-2.55-.13-5.1-.47-7.62l-.03-.2c.82-11.04.21-22.11.4-33.17.13-10.66-.16-21.32.09-31.98Z"/>
  </g>
  <g id="_x23_f1c499ff">
    <path class="st8" d="M463.2,196.14c.81-2.94,3.92-4.24,6.76-4.05,16.68-.09,33.36.19,50.04-.12,3.23,0,6.76-.13,9.53,1.84l.41,1.43c-2.52-1.03-5.08-2.19-7.86-2.11-16.7-.09-33.39.14-50.09,0-2.57.03-5.96-.09-7.18,2.72-1.09,3.6-.53,7.46-.62,11.17.25,45.48-.01,90.96.14,136.44l-1.21.22c-.8-7.2-.26-14.45-.38-21.67-.15-19.12.04-38.24.03-57.36l-.02-.54c-.18-18.68,0-37.36-.06-56.04.05-3.97-.41-8.03.51-11.94Z"/>
  </g>
  <g id="_x23_dac1a8ff">
    <path class="st27" d="M541.55,195.46c1.09-2.52,3.89-3.35,6.43-3.24,14.67-.06,29.34-.02,44.02-.08,4.03.05,8.22-.5,12.1.91-15.03.33-30.06.07-45.09.07-4.52.08-9.1-.47-13.57.38-3.28.89-3.37,4.73-3.31,7.5.2,42-.09,84.01.09,126.02.07,4.95-.47,9.94.23,14.87.54,2.95,3.73,4.3,6.48,4.05,16.67.02,33.35-.11,50.03.02,2.16-.16,4.79.18,6.41-1.61,1.92-1.94,1.35-4.95,1.56-7.42-.17-24.08.22-48.18-.14-72.26l.35-.06c.92,2.7,1.4,5.55,1.35,8.41-.15,21.67-.05,43.34-.02,65.01-.21,3.11,0,6.74-2.24,9.2-2.56,2.1-6.07,2.09-9.2,2.23-15.02,0-30.04-.16-45.06.02-2.46-.12-5.12.12-7.36-1.05-3.24-2.39-4.03-6.67-3.94-10.46.11-21.31-.1-42.62.09-63.92.02-3.25-.24-6.49-.63-9.71l.08-.29c.85-6.63.47-13.34.58-20-.19-13.01.13-26.01-.09-39.01.06-3.19-.36-6.56.85-9.58Z"/>
    <path class="st27" d="M529.62,264.53l1.37.09c.35,22.11.06,44.23.27,66.34,0,5.37.73,11.3-2.3,16.07-1.8,2.48-5.25,2.28-7.98,2.42-16.64-.33-33.29.17-49.92-.1-3.74.21-7.2-1.86-7.94-5.66l1.21-.22c2.09,1.08,4.12,2.65,6.62,2.5,16.02-.01,32.04-.14,48.06.01,2.51-.03,5.08.14,7.54-.5,2.77-1.3,3.1-4.73,3.09-7.43-.1-24.51-.05-49.01-.02-73.52Z"/>
  </g>
  <g id="_x23_a1cca9ff">
    <path class="st88" d="M620.85,193.8c2.13-2.11,5.41-1.58,8.14-1.76,14.97.2,29.95.02,44.92.1,5.74-.02,11.62-.63,17.19,1.12-20.02-.44-40.07-.1-60.11-.26-2.55.03-5.14-.12-7.63.45-2.33.67-3.37,3.18-3.28,5.43.02,46.73.06,93.47-.06,140.21.1,1.83.07,3.97,1.59,5.29,1.63,1.73,4.2,1.52,6.37,1.66,18.35-.08,36.7-.07,55.04-.01,2.18-.16,4.7.17,6.56-1.25,2.03-1.6,1.96-4.42,2.07-6.75-.05-24.34-.08-48.68.03-73.01h1.11c.73,9.64.34,19.32.43,28.98.06,14.01.01,28.01.02,42.01-.07,3.69-.03,7.78-2.37,10.86-1.93,2.18-5.12,2.28-7.8,2.47-7.37.09-14.74.08-22.09-.48-7.31-.52-14.64.31-21.96-.15-5.23-.35-10.56,1.34-15.7-.06-4.01-1.19-4.55-6.09-4.63-9.62.02-24.66.14-49.32-.05-73.98v-1.57c.22-20.5.18-41.01.04-61.51.13-2.79-.07-6.1,2.17-8.17Z"/>
    <path class="st88" d="M735.02,245h2.52c0,4.33,0,8.66-.03,12.99-.56,0-1.68-.03-2.24-.04-.14-4.32-.17-8.63-.25-12.95Z"/>
  </g>
  <g id="_x23_a4cca9ff">
    <path class="st60" d="M706.74,193.68c2.17-2.05,5.49-1.38,8.23-1.6,19.78.4,39.58-.43,59.36.22-.43.22-1.3.67-1.73.89-19.19-.39-38.39.08-57.58-.19-2.5.18-5.51-.36-7.48,1.56-1.51,1.37-1.43,3.55-1.52,5.41.09,46.7-.02,93.4.06,140.1-.32,3.29,2.57,6.18,5.87,5.89,18,.13,36.02-.07,54.03.07,2.81-.1,5.76.3,8.46-.67,3.16-1.49,2.56-5.45,2.75-8.32.01-39.02.12-78.03.03-117.04-.28-8.42.57-16.89-.74-25.25l-.17-1.41c3.28,4.23,2.09,9.75,2.27,14.69.05,17.34-.12,34.68.02,52.01-.5,2.27,1.6,3.24,3.33,3.93-1.31,0-2.61.02-3.9.03l.09,1.02c.72,6.61.41,13.27.44,19.91-.02,19.04,0,38.07.01,57.11.05,2.39-.52,5.35-3.03,6.33-2.98,1.02-6.17,1.04-9.28,1.22-.3-.06-.88-.17-1.18-.23l-.07.21c-13.91-.4-27.82,0-41.73-.13-4.79-.12-9.66.61-14.39-.3-3.18-1.79-4.41-5.63-4.27-9.09.13-25.1.11-50.21.09-75.31l-.02-.71c-.02-20.66.08-41.33-.02-61.99.11-2.84-.08-6.16,2.07-8.36Z"/>
  </g>
  <g id="_x23_9bc9a3ff">
    <path class="st52" d="M791.31,196.17c.71-2.98,3.93-4.16,6.71-3.94,15.99-.06,31.99-.04,47.99-.05,4.81-.04,9.63-.15,14.42.44l-1.74.44c-19.57-.1-39.14.04-58.71-.08-2.2.17-4.87-.27-6.52,1.53-1.54,1.37-1.44,3.57-1.53,5.45.16,42.33.03,84.67.07,127.01.09,5-.44,10.02.2,15,.37,2.74,3.22,4.24,5.8,4.03,19.33.04,38.68-.06,58.02.02,1.9-.15,4.15.09,5.67-1.32,1.56-1.45,1.44-3.77,1.6-5.72,0-42.31.04-84.63,0-126.95,0-5.76.35-11.57-.7-17.27l-.18-1.26c1.21,2.31,2.27,4.78,2.11,7.46-.21,46.67.13,93.35-.12,140.03-.11,1.95-.08,4.26-1.72,5.65-1.76,1.76-4.41,1.87-6.74,1.98-18.99.05-38-.25-56.99.04-2.27-.12-4.85-.39-6.41-2.24-2.1-2.29-1.81-5.63-1.88-8.51.21-14.29-.08-28.59,0-42.88-.08-10.15.34-20.31-.16-30.45v-.9c.51-16.56.06-33.12.21-49.68.17-5.94-.56-11.97.6-17.83Z"/>
    <path class="st52" d="M647.45,218.17c2.54,1.21,5.12,2.35,7.75,3.38-2.4,1.19-4.75,2.55-7.33,3.26-2.79-.25-5.18-2.03-7.64-3.24,2.42-1.1,4.83-2.23,7.22-3.4Z"/>
    <path class="st52" d="M729,249.92c.53,0,1.59,0,2.12,0-.09,2.73-.15,5.46-.18,8.2-.48-.02-1.43-.07-1.91-.09-.01-2.71-.03-5.42-.03-8.12Z"/>
  </g>
  <g id="_x23_e4f0feff">
    <path class="st87" d="M38.39,196.35c.95-2.68,4.01-3.45,6.56-3.34,19.34-.04,38.68.08,58.03-.03,2.66.01,5.31.28,7.93.7.75.77,1.49,1.54,2.22,2.33.42,47-.13,94.01.16,141.01-.13,2.33.16,4.92-1.09,7.01-1.64,2.25-4.76,1.8-7.2,1.97-20-.09-40,.03-60-.02-2.56.13-5.61-.7-6.5-3.42-.85-3.78-.42-7.71-.49-11.55.05-41,0-82.01,0-123.01.08-3.88-.37-7.83.39-11.65M55.5,223.63c-2.66.28-3.03,3.17-2.87,5.32.21,10.99-.04,22,.2,32.99-.12,2.13,2.33,3.1,4.1,3.03,12.7.04,25.41.06,38.11-.01,2.15.19,4.13-1.72,3.82-3.9.08-10.04-.03-20.07.08-30.11-.12-2.25.27-4.79-1.15-6.74-2.07-1.17-4.57-.7-6.84-.82-11.82.23-23.66-.29-35.45.24Z"/>
    <path class="st87" d="M131.41,193.41c2.15-.57,4.41-.39,6.61-.43,18.68.14,37.37-.06,56.05.07,3.26-.31,6.19,2.67,5.77,5.93.05,46.68-.02,93.37,0,140.06-.05,1.84-.11,3.93-1.52,5.34-1.56,1.79-4.14,1.5-6.27,1.62-19.37-.08-38.76.06-58.13-.07-3.26.22-6.13-2.63-5.77-5.91-.14-47.03.06-94.05-.02-141.08-.24-2.34,1.1-4.64,3.28-5.53M141.93,223.01c-.09,11.73.11,23.47,0,35.21.98.61,1.7,1.94,3.01,1.79,4.89.11,9.8.13,14.69-.13.45.36,1.36,1.06,1.82,1.41-.94,2.05,1.63,3.12,2.67,4.51,1.22-.39,2.4-1.81,3.75-.97,1.65.18,1.28,2.35,1.95,3.46,1.78-.04,3.56-.08,5.34-.12.02-.59.06-1.76.07-2.35.62-.39,1.85-1.17,2.46-1.56.96.54,1.93,1.08,2.9,1.62,1.21-1.09,2.42-2.18,3.64-3.27-.58-1.07-1.17-2.13-1.75-3.19.24-.53.72-1.59.96-2.12.73-.09,2.19-.27,2.91-.36.07-1.69.12-3.37.18-5.05-1.12-.43-2.24-.85-3.37-1.26-.07-.55-.23-1.66-.3-2.22,2.41-2.2-.14-4.15-1.94-5.55-1.27.26-2.48.73-3.75.96-1.84-.36-1.83-2.42-2.35-3.82-1.48,0-2.97,0-4.45.02.36-.45.73-.88,1.12-1.3,1.29-3.35.58-7.04.66-10.54-2.21-2.23-4.36-4.53-6.56-6.76-1.01-.92-1.96-2.25-3.51-2.08-5.39-.16-10.79-.13-16.18-.04-2.07-.11-4.43,1.37-3.96,3.71Z"/>
    <path class="st87" d="M213.76,196.49c.19-1.14.83-2.14,1.37-3.14,3.96-.13,7.92-.49,11.89-.46,18.23.18,36.46-.02,54.69.07,1.21.6,2.4,1.25,3.57,1.93.39,2.01.67,4.04.73,6.09-.02,46-.1,92.01.03,138.01-.17,1.87.06,4.13-1.45,5.54-1.43,1.45-3.63,1.31-5.49,1.46-18.69.01-37.39-.08-56.07.03-2.42-.16-5.38.21-7.14-1.84-1.69-1.95-1.41-4.72-1.52-7.11.23-21.71-.04-43.42.08-65.13-.02-2.2-.22-4.39-.5-6.57-1.79,3.62-1.32,7.72-1.34,11.62.07,12.08.02,24.16,0,36.24-.94-8.38-.34-16.82-.54-25.24-.19-7.17.57-14.39-.65-21.51.73-.62,1.44-1.26,2.15-1.91,1.32-4.41.7-9.06.77-13.59.01-15.32-.07-30.64.05-45.95,0-2.86-.37-5.7-.63-8.54M261.7,223.62c-6.12,5.57-12.22,11.17-18.32,16.75-1.19,1.13-2.49,2.29-2.97,3.92-.45,2.26.04,4.8-1.25,6.85-1.29,2.32-3.12,4.27-4.68,6.41,1.73.35,3.42,1.56,5.22,1.31,1.92-1.05,3.54-2.59,5.52-3.54,2.19-.56,4.49-.11,6.73-.37,1.61-.54,2.66-1.97,3.77-3.18,5.12-6.2,10.58-12.12,15.76-18.27.59-.98,2.21-2.13,1.31-3.37-2.11-2.78-4.65-5.26-7.36-7.46-1.21-1.29-2.74.18-3.73.95M227.9,260.07c-.03,1.35-.06,2.71-.08,4.07,14.98.03,29.97.04,44.96-.13.02-1.35.06-2.7.09-4.05-14.99-.45-29.98.27-44.97.11Z"/>
  </g>
  <g id="_x23_ffeedeff">
    <path class="st76" d="M301.07,196.87c1.58-3.27,5.71-3.66,8.91-3.61,17.65.27,35.32-.05,52.96.15,3.09-.19,5.14,2.71,4.77,5.6.09,48.21-.13,96.43.13,144.63-1.95,1.6-4.34,2.48-6.87,2.3-18.01-.13-36.02.07-54.03-.12-3.76.39-5.69-3.56-5.46-6.79-.05-38.67-.03-77.35.03-116.02-.07-5.07.62-10.26-.96-15.18.24-3.65-.35-7.38.52-10.96M314.14,218.33c-1.63.34-.91,3.01.67,2.52,1.61-.37.89-2.98-.67-2.52M337.79,218.78c-.11.51-.32,1.54-.42,2.05,1.27-.31,2.55-.64,3.84-.94.04,3.04.01,6.09-.24,9.12.54,0,1.63,0,2.17,0-.15-3.05-.16-6.1-.13-9.15,1.32.35,2.64.74,3.97,1.12-.14-.56-.41-1.69-.55-2.25-2.88.05-5.76.07-8.64.06M347.85,218.86c1.3,1.55,2.6,3.11,3.91,4.65-1.35,1.91-2.72,3.81-4.01,5.76,2.64.16,3.65-2.41,4.9-4.22,1.33,1.69,2.22,4.26,4.77,4.27-1.17-1.94-2.45-3.8-3.75-5.65,1.4-2.17,3.11-4.18,5.86-4.49-3-1.81-5.49.49-7,2.98-1.15-1.76-2.2-4.2-4.68-3.3M321.36,228.55c1.1.89,2.2,1.79,3.3,2.69.86-1.02,1.73-2.03,2.6-3.05-.88-.96-1.76-1.92-2.63-2.87-1.09,1.08-2.18,2.15-3.27,3.23M310.25,254.22c1.67,1.66,2.8,5.22,5.6,4.73,2.77-1.94,4.85-4.73,7.74-6.53,2-.16,3.99.63,5.99.77,4.69,4.68,9.15,9.6,13.94,14.17,2.26,2.38,6.13-1.53,4.14-3.93-4.49-5.21-9.88-9.57-14.53-14.64.14-.46.43-1.37.57-1.83-.2-1.65-1.08-3.59.16-5.04,1.82-2.51,4.11-4.63,6.08-7.02-1.57-1.93-3.3-3.73-5.07-5.47-8.19,8.29-16.56,16.39-24.62,24.79M341.45,233.8c6.01.22,12.06.35,18.07-.05-.28-.3-.86-.9-1.14-1.2-4.11-.43-8.26-.03-12.39-.18-1.63.07-3.7-.42-4.54,1.43M311.54,237.55c1.17,1.1,2.34,2.21,3.5,3.32,1.27-1.08,2.53-2.16,3.81-3.23-1.16-1.39-2.32-2.78-3.45-4.18-1.26,1.39-2.54,2.76-3.86,4.09M341.33,237.05c.31.27.93.81,1.24,1.08,4.15.42,8.34.02,12.51.15,1.51-.17,3.48.39,4.46-1.19-6.06-.26-12.14-.17-18.21-.04M336.53,242.84c7.64.26,15.31.24,22.95.02-.27-.3-.81-.89-1.08-1.18-5.42-.56-10.91-.06-16.36-.26-1.89.2-4.43-.68-5.51,1.42M336.29,246.26c.42.21,1.28.64,1.71.86,7.16.31,14.37.28,21.54,0-.4-.26-1.18-.78-1.57-1.03-7.22-.21-14.47-.29-21.68.17M340.47,251.66c6.33.67,12.73.3,19.09.24-.29-.28-.87-.85-1.16-1.13-3.76-.5-7.57-.04-11.35-.17-2.21.14-4.73-.5-6.58,1.06Z"/>
    <path class="st76" d="M382.57,194.63c1.67-1.72,4.29-1.34,6.46-1.49,15.66.14,31.32.06,46.99.02,4.85.04,9.92-.64,14.53,1.3.95,22.14.02,44.3.27,66.45.66,6.68-.23,13.36.05,20.05.7,20.13-.52,40.3.42,60.42-.22,3.17-3.38,4.81-6.27,4.52-19.36-.06-38.74.11-58.1-.05-2.86.27-5.63-1.9-5.7-4.83-.5-6.47-.03-12.96-.31-19.44v-.04c.11-2.5.23-4.99.25-7.49-.04-38.03.04-76.05-.02-114.07.11-1.83-.03-3.98,1.43-5.35M396.61,222.03c-1.62.22-3.46,1.03-3.34,2.99-.06,9.33.08,18.69-.06,28.03-.25,2.06,1.78,2.97,3.47,3.27.34,2.09,1.89,3.36,3.78,4.07.58,1.2.9,2.95,2.59,2.99,3.52.41,7.08.13,10.62.02.38,1.56.79,3.11,1.26,4.65,8.38.17,16.77.17,25.15.04,1.39-6.46.49-13.2.56-19.75-2.02-3.23-5.2-5.53-7.73-8.34h-4.87c.05-4.64.09-9.28-.03-13.92-1.06-.28-2.12-.57-3.18-.85-.42-2-1.34-3.89-3.63-4.06-.04-.59-.11-1.77-.15-2.35-6.94-.94-14-.45-20.97-.43-2.19-.15-2.79,2.03-3.47,3.64M429.9,221.01c1.86,1.47,4.47,2.48,5.23,4.96.9,2.85.53,5.9.82,8.84-1.09-.84-2.22-1.65-3.37-2.39.92,1.92,2.37,3.5,3.88,4.96,1.53-1.48,3.06-2.97,4.42-4.62-1.55.13-2.7,1.18-3.89,2.05.07-2.66.24-5.32-.04-7.96-.68-3.19-3.53-6.44-7.05-5.84Z"/>
    <path class="st76" d="M464.81,195.86c1.22-2.81,4.61-2.69,7.18-2.72,16.7.13,33.39-.1,50.09,0,2.78-.08,5.34,1.08,7.86,2.11l-.41-1.43c2.76,2.19,2.46,5.96,2.46,9.12-.29,7.7.36,15.39.03,23.08.4,7.97.86,15.99,0,23.95-.11,3.53-1.02,8.3,2.62,10.43,1.44,1.1,2.89,2.22,4.33,3.34-2.57.06-5.13.07-7.68.18.4-19.64-.04-39.3.18-58.94-.05-2.97.36-6.24-1.58-8.76-.49,4.58-.33,9.19-.33,13.79.05,18.01-.07,36.01.06,54.02v.51c-.03,24.51-.08,49.01.02,73.52.01,2.7-.32,6.13-3.09,7.43-2.46.64-5.03.47-7.54.5-16.02-.15-32.04-.02-48.06-.01-2.5.15-4.53-1.42-6.62-2.5-.15-45.48.11-90.96-.14-136.44.09-3.71-.47-7.57.62-11.17M473.02,235.08c.57,5.72,3.97,11.3,9.33,13.68,3.62,1.94,7.85,1.5,11.78,1.13.52,4.13-1.15,8.99,1.23,12.64,4,2.38,9.01.22,13.38,1.24,2.46,1.77,4.69,3.85,7.21,5.56.1-1.73.19-3.45.27-5.16,1.3-.7,2.76-1.2,3.77-2.33.59-5.25.21-10.56.27-15.83.29-1.8-1.06-2.95-2.16-4.1-4.86.08-9.71,0-14.57.1,1.96-3.99,2.36-8.64,1.21-12.92-2.24-6.86-9.44-11.86-16.7-11.1-8.52.46-15.46,8.69-15.02,17.09M506.43,228.16c1.95,1.07,4.18,1.32,6.26,2.07,2.21,1.5,2.31,4.32,2.49,6.72-1.04-.75-2.09-1.47-3.14-2.17,1.04,1.79,2.3,3.45,3.67,5.02,1.43-1.4,2.81-2.9,3.72-4.71-.79.46-2.38,1.38-3.17,1.85-.11-2.28.18-4.86-1.44-6.72-1.9-2.65-5.53-2.43-8.39-2.06M480.9,251.91c0,2.73.05,5.91,2.38,7.79,1.65,1.67,4.1,1.4,6.25,1.59-.65,1.05-1.31,2.11-1.88,3.21,1.97-.86,3.43-2.46,4.81-4.05-1.55-1.24-3.11-2.46-4.72-3.6.39,1.13.81,2.26,1.26,3.38-1.57-.37-3.32-.39-4.62-1.46-2.05-1.6-2.08-4.42-2.51-6.75l-.97-.11Z"/>
    <path class="st76" d="M545.44,193.5c4.47-.85,9.05-.3,13.57-.38,15.03,0,30.06.26,45.09-.07,1.47,2.05,2.82,4.35,2.63,6.98-.01,21.54-.2,43.1.06,64.64.36,24.08-.03,48.18.14,72.26-.21,2.47.36,5.48-1.56,7.42-1.62,1.79-4.25,1.45-6.41,1.61-16.68-.13-33.36,0-50.03-.02-2.75.25-5.94-1.1-6.48-4.05-.7-4.93-.16-9.92-.23-14.87-.18-42.01.11-84.02-.09-126.02-.06-2.77.03-6.61,3.31-7.5M560.79,219.75c-3.88.99-8.09,2.52-9.93,6.4,2.76,4.28,3.83,9.72,7.95,13.04,8.24,6.96,21.86,6.9,29.86-.44,3.5-3.14,4.62-7.9,6.81-11.89.12-3.48-3.6-4.97-6.27-6.1-9.08-3.19-19.11-3.25-28.42-1.01M584.3,246.86c-.32,3.2-2.4,5.67-4.72,7.7-2.6-.68-5.29-.64-7.94-.68-.82,4.52-.58,9.18-.33,13.75,1.23,2.52,4.66.93,6.89,1.42.29-.44.87-1.32,1.16-1.75,4.8,2.05,10.63,2.59,15.54.72.37-2.2.95-4.36,1.51-6.51.54-2.09.83-4.22,1.29-6.32-1.71-3.36-5.69-1.97-8.72-2.18.9-3.31,1.26-7.2-2.12-9.25-1.08.85-2.56,1.51-2.56,3.1M562.26,245.52c-1.48,1.34.97,3.69,2.22,2.07,1.36-1.37-.95-3.49-2.22-2.07M559.19,250.25c-.54,1.64.01,2.2,1.64,1.68.53-1.64-.02-2.2-1.64-1.68M567.13,251.27c-1.88.41-1.09,3.54.78,2.94,2-.41,1.09-3.51-.78-2.94Z"/>
  </g>
  <g id="_x23_e6f5e8ff">
    <path class="st33" d="M623.36,193.45c2.49-.57,5.08-.42,7.63-.45,20.04.16,40.09-.18,60.11.26.32,1.06.71,2.1.94,3.19-.79,22.49-.12,45.02-.36,67.53v1.04c-.11,24.33-.08,48.67-.03,73.01-.11,2.33-.04,5.15-2.07,6.75-1.86,1.42-4.38,1.09-6.56,1.25-18.34-.06-36.69-.07-55.04.01-2.17-.14-4.74.07-6.37-1.66-1.52-1.32-1.49-3.46-1.59-5.29.12-46.74.08-93.48.06-140.21-.09-2.25.95-4.76,3.28-5.43M637.91,221.2c-.05,4.16-.15,8.32.03,12.47,3.29,1.41,6.55,2.89,9.8,4.38,3.1-1.56,6.23-3.07,9.44-4.4.11-4.14.11-8.27-.03-12.41-3.38-1.32-6.46-3.76-10.07-4.25-3.14,1.22-6.1,2.86-9.17,4.21M660.65,237.02c.55,2.97,3.01,5.17,5.89,5.85-1.39,1.52-2.67,3.14-3.76,4.9-.97,1.37-1.61,2.94-2.1,4.54,1.53-1.34,2.83-2.97,4.61-4,2.34-1.03,4.94-1.02,7.45-1.18.09,1.6.19,3.2.3,4.8,3.05-2.4,5.92-4.99,8.82-7.56-2.91-2.57-5.89-5.06-8.9-7.52-.02,1.64-.02,3.28-.02,4.92-2.59-.15-5.24-.15-7.72-.96-1.78-.93-3.06-2.52-4.57-3.79M637.82,256c-2.51.15-5.12-.37-7.54.37-.59,4.51-.19,9.11-.19,13.65,12.41.12,24.83.05,37.25.07.41-4.69.53-9.43-.01-14.11-3.11.01-6.22.02-9.33.02-.06-4.04.11-8.09-.07-12.13-.22-.17-.65-.53-.87-.71-6.39-.36-12.79-.07-19.18-.16-.1,4.33-.07,8.67-.06,13Z"/>
    <path class="st33" d="M707.54,194.56c1.97-1.92,4.98-1.38,7.48-1.56,19.19.27,38.39-.2,57.58.19,1.3.49,2.58,1.03,3.88,1.56,1.31,8.36.46,16.83.74,25.25.09,39.01-.02,78.02-.03,117.04-.19,2.87.41,6.83-2.75,8.32-2.7.97-5.65.57-8.46.67-18.01-.14-36.03.06-54.03-.07-3.3.29-6.19-2.6-5.87-5.89-.08-46.7.03-93.4-.06-140.1.09-1.86.01-4.04,1.52-5.41M716.03,219.99c-.09,13.02-.01,26.04-.05,39.06-.28,1.93.7,4.55,3.06,4.32,5.97.25,11.96-.11,17.94.05,2.43-.16,5.33.64,7.21-1.41h1.2c3.49,1.93,7.8,2,11.31.06,2.39,2.76,4.8,5.55,7.69,7.82,1.88.57,2.75-1.89,3.98-2.85-1.41-1.72-2.81-3.45-4.37-5.03.02-.36.07-1.08.09-1.45.22-.61.65-1.83.86-2.44.12-12.4.03-24.81.03-37.22.34-1.54-.92-2.52-1.79-3.51-14.09-.33-28.19-.09-42.27-.14-1.9-.1-4.76.39-4.89,2.74Z"/>
    <path class="st33" d="M793.46,194.51c1.65-1.8,4.32-1.36,6.52-1.53,19.57.12,39.14-.02,58.71.08,1.3.54,2.58,1.12,3.89,1.7,1.05,5.7.71,11.51.7,17.27.05,42.32,0,84.64,0,126.95-.16,1.95-.04,4.27-1.6,5.72-1.52,1.41-3.77,1.17-5.67,1.32-19.34-.08-38.69.02-58.02-.02-2.58.21-5.43-1.29-5.8-4.03-.64-4.98-.11-10-.2-15-.04-42.34.09-84.68-.07-127.01.09-1.88-.01-4.08,1.53-5.45M819.44,220.27c-3.91,2.06-8.35,1.57-12.51,2.63-.49,2-.85,4.04-.79,6.12.07,10.31.02,20.63.01,30.95-.03,1.73.34,3.44.77,5.12,7.88,1.32,15.94.42,23.89.44-.16.67-.47,2-.63,2.66,1.48-.07,2.97-.15,4.47-.22.67,1.06,1.37,2.12,2.07,3.18,1.24-2.4,2.27-4.89,3.3-7.38,1.16,2.45,2.22,4.96,3.24,7.48.88-1.04,1.5-2.38,2.66-3.15,1.43-.09,2.88-.13,4.33-.12-1.04-2.47-2.13-4.92-3.25-7.34,2.72-1.65,3-5.03,3.97-7.76-.24-2.34-1.24-4.58-2.11-6.75-2.15-1.92-4.46-4.03-7.41-4.48-.27-6.19.39-12.42-.48-18.58-.67,1.16-1.62,2.34-1.31,3.79-.04,5.22.16,10.46-.08,15.68-.69-.7-1.02-1.53-.97-2.48-.06-5.18.05-10.36-.07-15.54-2.33.05-4.66.06-6.96-.21,2.66-1.22,6.04.11,8.18-2.32-2.52.02-5.01.04-7.51-.1-1.25-.58-2.55-1.03-3.85-1.4-1.24-2.56-3.55-4.07-6.44-3.7-.86,1.14-1.73,2.29-2.52,3.48Z"/>
  </g>
  <g id="_x23_eec298ff">
    <path class="st12" d="M529.89,196.21c1.94,2.52,1.53,5.79,1.58,8.76-.22,19.64.22,39.3-.18,58.94l-1.67.11c-.13-18.01-.01-36.01-.06-54.02,0-4.6-.16-9.21.33-13.79Z"/>
  </g>
  <g id="_x23_95c39dff">
    <path class="st86" d="M691.68,263.98c.24-22.51-.43-45.04.36-67.53,1.86,12.1.32,24.34,1.19,36.5-.24,10.31-1.35,20.72.21,30.98-.44.01-1.32.04-1.76.05Z"/>
    <path class="st86" d="M820.66,221.99c.27-1.8,1.1-3.65,3.14-3.86,1.9.34,2.49,2.47,3.47,3.87.77,0,2.32,0,3.09,0,.27,1.65.51,3.31.78,4.98-4.91.02-9.8-.03-14.7,0,.26-1.65.53-3.3.8-4.95,1.13-.02,2.27-.04,3.42-.06M823,220.12c-.48,1.63.09,2.18,1.71,1.64.47-1.63-.1-2.18-1.71-1.64Z"/>
    <path class="st86" d="M753.98,228.6c.1-1.91.22-3.81.38-5.71,2.53,1.25,4.57,3.2,5.61,5.86-2.01-.03-4-.08-5.99-.15Z"/>
    <path class="st86" d="M674.04,239.61c1.99,1.59,3.97,3.21,5.95,4.82-1.97,1.59-3.93,3.18-5.9,4.77-.04-.82-.13-2.46-.17-3.28-3.79-.1-7.73-.02-11.14,1.85,1.09-1.76,2.37-3.38,3.76-4.9,2.47.2,4.96.16,7.44.18.02-.86.04-2.58.06-3.44Z"/>
    <path class="st86" d="M837.36,247.17c3.78-2.45,9.61,1.35,8.64,5.86-.15,3.76-4.34,6.76-7.91,5.18-4.82-1.43-5.5-9-.73-11.04M839.46,253.46c-1.3-.64-2.59-1.25-3.9-1.83,1.06,1.43,2.22,2.8,3.43,4.12,1.93-2.06,4.98-3.73,5.15-6.86-1.66,1.42-3.19,2.99-4.68,4.57Z"/>
    <path class="st86" d="M631.4,257.38c4.07,0,8.15.01,12.22,0-.04,3.84-.02,7.69.08,11.53-4.12.09-8.23.09-12.34-.01.03-3.84.04-7.68.04-11.52Z"/>
  </g>
  <g id="_x23_dec3a8ff">
    <path class="st37" d="M300.55,207.83c1.58,4.92.89,10.11.96,15.18-.06,38.67-.08,77.35-.03,116.02-.23,3.23,1.7,7.18,5.46,6.79,18.01.19,36.02-.01,54.03.12,2.53.18,4.92-.7,6.87-2.3.16,1.31.82,2.82-.23,3.96-1.73,2.41-5.06,1.92-7.63,2.07-17.68-.23-35.37.14-53.04-.1-3.36.35-6.07-2.5-6.5-5.66-1-6.26-.44-12.63-.62-18.93.19-20.03-.1-40.05-.05-60.07.01-.34.02-1.02.03-1.36.17-3.85.14-7.71.03-11.56-.28-9.67.52-19.35.06-29.02-.24-5.06-.05-10.13.66-15.14Z"/>
  </g>
  <g id="_x23_444b45ff">
    <path class="st43" d="M637.91,221.2c3.07-1.35,6.03-2.99,9.17-4.21,3.61.49,6.69,2.93,10.07,4.25.14,4.14.14,8.27.03,12.41-3.21,1.33-6.34,2.84-9.44,4.4-3.25-1.49-6.51-2.97-9.8-4.38-.18-4.15-.08-8.31-.03-12.47M647.45,218.17c-2.39,1.17-4.8,2.3-7.22,3.4,2.46,1.21,4.85,2.99,7.64,3.24,2.58-.71,4.93-2.07,7.33-3.26-2.63-1.03-5.21-2.17-7.75-3.38M639.01,222.74c-.03,3.31-.01,6.62.04,9.93,2.63,1.21,5.27,2.4,7.95,3.51.01-3.28-.04-6.57-.12-9.85-2.58-1.3-5.2-2.51-7.87-3.59M648.35,226.16c-.16,3.32-.21,6.64-.17,9.96,2.63-1.07,5.24-2.21,7.82-3.42,0-3.3,0-6.59-.03-9.89-2.55,1.09-5.09,2.22-7.62,3.35Z"/>
  </g>
  <g id="_x23_444e4fff">
    <path class="st85" d="M716.03,219.99c.13-2.35,2.99-2.84,4.89-2.74,14.08.05,28.18-.19,42.27.14l.35,1.48c-13.85-.28-27.71.02-41.56-.15-1.79.1-5.18-.44-4.74,2.38-.06,12.92-.17,25.86.02,38.78-.35,2.25,2.23,2.17,3.76,2.17,7.72-.04,15.45-.06,23.17-.04-1.88,2.05-4.78,1.25-7.21,1.41-5.98-.16-11.97.2-17.94-.05-2.36.23-3.34-2.39-3.06-4.32.04-13.02-.04-26.04.05-39.06Z"/>
    <path class="st85" d="M819.44,220.27c.79-1.19,1.66-2.34,2.52-3.48,2.89-.37,5.2,1.14,6.44,3.7,1.3.37,2.6.82,3.85,1.4,2.5.14,4.99.12,7.51.1-2.14,2.43-5.52,1.1-8.18,2.32,2.3.27,4.63.26,6.96.21.12,5.18.01,10.36.07,15.54-.05.95.28,1.78.97,2.48.24-5.22.04-10.46.08-15.68-.31-1.45.64-2.63,1.31-3.79.87,6.16.21,12.39.48,18.58,2.95.45,5.26,2.56,7.41,4.48.87,2.17,1.87,4.41,2.11,6.75-.97,2.73-1.25,6.11-3.97,7.76,1.12,2.42,2.21,4.87,3.25,7.34-1.45-.01-2.9.03-4.33.12-1.16.77-1.78,2.11-2.66,3.15-1.02-2.52-2.08-5.03-3.24-7.48-1.03,2.49-2.06,4.98-3.3,7.38-.7-1.06-1.4-2.12-2.07-3.18-1.5.07-2.99.15-4.47.22.16-.66.47-1.99.63-2.66-7.95-.02-16.01.88-23.89-.44-.43-1.68-.8-3.39-.77-5.12,0-10.32.06-20.64-.01-30.95-.06-2.08.3-4.12.79-6.12,4.16-1.06,8.6-.57,12.51-2.63M820.66,221.99c-1.15.02-2.29.04-3.42.06-.27,1.65-.54,3.3-.8,4.95,4.9-.04,9.79,0,14.7,0-.27-1.67-.51-3.33-.78-4.98-.77,0-2.32,0-3.09,0-.98-1.4-1.57-3.53-3.47-3.87-2.04.21-2.87,2.06-3.14,3.86M807.99,223.96c-.58,6.68-.19,13.38-.3,20.07.11,6.61-.28,13.22.29,19.81,8.13.23,16.33.73,24.43-.11-7.27-1.85-14.9.17-22.29-.81-.26-.26-.77-.77-1.03-1.03-.31-12.35.04-24.73-.24-37.09,2.34.03,4.68.02,7.03-.15-2.34-1.66-5.27-.73-7.89-.69M810.38,226.21c.02,11.75-.15,23.5.08,35.25,7.6-.43,15.33.84,22.85-.49-2.66-1.42-3.03-4.32-3.54-6.96-2.53-.13-5.06-.2-7.58-.3.21-.37.61-1.12.81-1.5,1.93.05,3.87.09,5.82.15,1.11-2.39,2.01-4.87,2.89-7.36-3.34-.09-6.86.62-10.05-.65,5.03-1.58,11.28,1.68,15.36-2.52-.05-5.21-.01-10.42-.02-15.63-1.46-.02-2.91-.03-4.34-.04-.19.45-.57,1.35-.76,1.81-5.38.52-10.8.14-16.19.27-.16-.5-.49-1.5-.66-1.99-1.57-.02-3.12-.03-4.67-.04M837.49,243.37c-2.29,1.75-5.98,2.87-5.67,6.39-.31.56-.95,1.69-1.27,2.26.72,1.92,1.31,3.89,1.75,5.9,1.57,1.2,3.15,2.4,4.73,3.61,1.88.04,3.79.08,5.69.13,1.58-1.12,3.18-2.23,4.82-3.28.66-2.01,1.36-4,2.1-5.97-.7-1.8-1.34-3.62-2.11-5.37-2.24-3.37-6.33-3.88-10.04-3.67M834.36,260.99c-.74,1.97-1.51,3.93-2.28,5.89.89-.33,1.78-.66,2.68-.99.65.78,1.3,1.57,1.97,2.36.74-1.75,1.5-3.51,2.27-5.25-.75,0-2.25.01-3,.02-.56-.68-1.1-1.36-1.64-2.03M841.35,263.28c.72,1.68,1.4,3.37,2.06,5.07,1.17-1.48,2.63-2.52,4.64-2.15-.74-1.53-1.45-3.07-2.15-4.61-1.47.71-2.97,1.31-4.55,1.69Z"/>
    <path class="st85" d="M337.79,218.78c2.88,0,5.76,0,8.64-.06.14.56.41,1.69.55,2.25-1.33-.38-2.65-.77-3.97-1.12-.03,3.05-.02,6.1.13,9.15-.54,0-1.63,0-2.17,0,.25-3.03.28-6.08.24-9.12-1.29.3-2.57.63-3.84.94.1-.51.31-1.54.42-2.05Z"/>
    <path class="st85" d="M347.85,218.86c2.48-.9,3.53,1.54,4.68,3.3,1.51-2.49,4-4.79,7-2.98-2.75.31-4.46,2.32-5.86,4.49,1.3,1.85,2.58,3.71,3.75,5.65-2.55-.01-3.44-2.58-4.77-4.27-1.25,1.81-2.26,4.38-4.9,4.22,1.29-1.95,2.66-3.85,4.01-5.76-1.31-1.54-2.61-3.1-3.91-4.65Z"/>
    <path class="st85" d="M396.61,222.03c.68-1.61,1.28-3.79,3.47-3.64,6.97-.02,14.03-.51,20.97.43.04.58.11,1.76.15,2.35,2.29.17,3.21,2.06,3.63,4.06,1.06.28,2.12.57,3.18.85.12,4.64.08,9.28.03,13.92h4.87c2.53,2.81,5.71,5.11,7.73,8.34-.07,6.55.83,13.29-.56,19.75-8.38.13-16.77.13-25.15-.04-.47-1.54-.88-3.09-1.26-4.65-3.54.11-7.1.39-10.62-.02-1.69-.04-2.01-1.79-2.59-2.99-1.89-.71-3.44-1.98-3.78-4.07-1.69-.3-3.72-1.21-3.47-3.27.14-9.34,0-18.7.06-28.03-.12-1.96,1.72-2.77,3.34-2.99M399.23,220.14c-.21.48-.61,1.44-.82,1.92,4.73.26,9.48-.17,14.2.36,3.08,2.15,5.67,5.03,8.08,7.92.5,2.96.26,5.98.46,8.98-.7,5.07.24,10.24-.4,15.32-.26.29-.78.88-1.04,1.17-7.15.56-14.36-.05-21.53.26.25.53.75,1.59,1,2.11,7.93.29,15.87-.05,23.81.05-.05-7.9.17-15.81-.15-23.7.35-3.72.06-7.47.13-11.2-.69-.08-2.06-.25-2.75-.34-.09-.74-.26-2.24-.35-2.99-6.88.1-13.77-.18-20.64.14M394.9,223.9c0,10.29-.29,20.58.08,30.87,8.05-.02,16.1-.03,24.15,0,.41-7.92.11-15.85.11-23.78-2.23,0-4.46.03-6.68.07-.59-2.39-.64-4.87-.6-7.32-5.69-.09-11.38.11-17.06.15M413.23,224.82c.02,1.58.05,3.16.09,4.74,1.63.08,3.27.15,4.91.23-1.63-1.7-3.3-3.36-5-4.97M424.41,227.06c.02,9.31-.22,18.62-.04,27.94-.18,1.68.45,4.14-1.66,4.81-6.99.43-14.02-.09-21.02.18.2.45.6,1.34.81,1.79,8.07.45,16.19.19,24.28.12.02-11.63.07-23.26-.02-34.89-.59.01-1.76.03-2.35.05M428.07,241.32c-.33,7.09.63,14.38-.45,21.35-3.52,1.75-7.71.33-11.49.82-.49,1.08-.61,2.22-.37,3.42,7.75.11,15.51-.24,23.26.01.52-5.95-.16-11.91.14-17.86-2-.05-4.02.04-6-.29-1.9-1.96-.94-4.99-1.24-7.44-1.28,0-2.57,0-3.85,0M433.55,242.78c.06,1.1.19,3.29.26,4.39,1.47.27,2.96.35,4.45.48-1.48-1.7-3.07-3.32-4.71-4.87Z"/>
    <path class="st85" d="M473.02,235.08c-.44-8.4,6.5-16.63,15.02-17.09,7.26-.76,14.46,4.24,16.7,11.1,1.15,4.28.75,8.93-1.21,12.92,4.86-.09,9.71-.02,14.57-.1,1.1,1.15,2.45,2.3,2.16,4.1-.06,5.27.32,10.58-.27,15.83-1.01,1.13-2.47,1.63-3.77,2.33-.08,1.71-.17,3.43-.27,5.16-2.52-1.71-4.75-3.79-7.21-5.56-4.37-1.02-9.38,1.14-13.38-1.24-2.38-3.65-.71-8.51-1.23-12.64-3.93.37-8.16.81-11.78-1.13-5.36-2.38-8.76-7.96-9.33-13.68M478.69,223.7c1.06.65,2.13,1.3,3.21,1.95,1.09-1.95,2.17-3.9,3.22-5.87-2.31,1.02-4.47,2.34-6.43,3.92M483.26,226.36c1.83.28,3.66.53,5.51.77-.09-2.5-.19-5-.32-7.49-2.87,1.15-3.98,4.13-5.19,6.72M490.11,219.42c-.1,2.58-.11,5.16-.09,7.74,1.68-.36,3.58-.23,5.09-1.17-.69-2.8-2.58-5.08-5-6.57M493.38,219.74c1.12,1.99,2.28,3.96,3.45,5.94,1.08-.75,2.19-1.49,3.28-2.25-2.15-1.39-4.39-2.65-6.73-3.69M474.85,233.62c1.79-.02,3.59-.04,5.4-.06.39-2.18.79-4.37,1.21-6.55-1.21-.68-2.41-1.37-3.65-1.96-2.22,2.27-2.87,5.51-2.96,8.57M497.1,227.06c.46,2.17.85,4.36,1.19,6.56,1.93-.02,3.86-.03,5.8-.04-.27-3.14-1.45-6.08-3.09-8.74-1.31.74-2.61,1.48-3.9,2.22M482.67,227.66c-.33,1.97-.56,3.95-.73,5.94,2.25,0,4.52.02,6.78.04.03-1.57.06-3.13.1-4.69-2.05-.47-4.11-.88-6.15-1.29M490.09,228.53c-.01,1.7-.01,3.41.01,5.12,2.23-.04,4.46-.07,6.7-.09-.3-1.97-.61-3.93-.9-5.89-1.94.3-3.88.58-5.81.86M474.44,235c.72,2.79,1.04,6.16,3.49,8.07,1.2-.45,2.35-1.01,3.53-1.54-.38-2.14-.7-4.28-1.01-6.42-2.01-.05-4.02-.09-6.01-.11M481.84,235.01c.25,1.95.54,3.89.88,5.83,1.99-.49,3.99-.9,6-1.26.03-1.52.05-3.04.09-4.55-2.33-.02-4.65-.02-6.97-.02M490,235c0,1.58,0,3.17.01,4.75,1.9.26,3.8.56,5.69.9.36-1.86.75-3.71,1.14-5.56-2.29-.05-4.57-.08-6.84-.09M498.22,235c-.33,2.28-.75,4.55-1.21,6.81,1.62.07,3.24.15,4.88.21.98-2.25,1.8-4.59,2.29-7-1.99-.02-3.98-.02-5.96-.02M483.28,242.22c1.32,2.64,2.84,5.3,5.39,6.94.09-2.74.09-5.47.06-8.2-1.83.4-3.64.83-5.45,1.26M490.07,240.95c-.06,2.74-.07,5.47,0,8.21,2.27-1.87,4-4.25,5.19-6.92-1.74-.45-3.46-.88-5.19-1.29M478.73,244.44c1.86,1.67,3.94,3.08,6.32,3.92-1.02-1.84-2.1-3.64-3.17-5.44-1.05.5-2.11,1.01-3.15,1.52M495.88,244.92c-.36,5.63-.36,11.31.15,16.94,4.3.36,8.64-.12,12.92.42,2.19,1.23,3.96,3.05,5.84,4.69.03-1.49.07-2.97.12-4.44,1.28-.53,3.06-.4,3.95-1.64.22-5.15.26-10.34-.08-15.48.02-1.41-1.5-2.25-2.76-2.13-5.68-.12-11.37-.09-17.06-.04-1.1.06-3.25,0-3.08,1.68Z"/>
    <path class="st85" d="M560.79,219.75c9.31-2.24,19.34-2.18,28.42,1.01,2.67,1.13,6.39,2.62,6.27,6.1-2.19,3.99-3.31,8.75-6.81,11.89-8,7.34-21.62,7.4-29.86.44-4.12-3.32-5.19-8.76-7.95-13.04,1.84-3.88,6.05-5.41,9.93-6.4M556.73,222.75c1.18,0,2.35-.13,3.52-.36,9.6-2.24,19.94-2.31,29.32.98,1.68.62,4.23,2.5,2.57,4.45-3.05,2.4-7.2,3.53-11.05,3.23-.05.37-.16,1.1-.21,1.47,4.56-.55,9.32-1.49,12.87-4.64.01-.67.03-1.99.05-2.65-4.35-3.79-10.3-4.84-15.89-4.99-7.11-.18-14.52-.38-21.18,2.51M553.59,228.24c3.29,3.06,8,3.42,12.19,4.25.53-.47,1.06-.94,1.6-1.41-4.93.38-10.23-.79-13.93-4.22,1.07-1.39,2.23-2.71,3.28-4.11-2.42.74-4.63,2.83-3.14,5.49M555.91,226.97c5.02,2.75,10.89,2.84,16.44,3.5.2-.22.6-.67.8-.89,1.03.64,2.13.74,3.32.3,3.03.11,6.15.19,8.97-1.16.4.08,1.21.24,1.61.33,1.46-.88,2.91-1.76,4.35-2.67-1.46-.85-2.92-1.67-4.39-2.47-.35.12-1.07.38-1.42.5-2.22-1.88-5.32-1.38-7.97-1.81.36.69,1.1,2.07,1.46,2.77-2.58-5-8.68-2.4-13.06-2.4-3.42.68-8.32.47-10.11,4M557.3,236.01c.39-.2,1.16-.62,1.55-.82l-1.06,1.77c.91.21,1.83.41,2.76.61-.08.29-.22.88-.29,1.17,2.67,1.96,5.81,3.38,9.19,3.26-.66-1.99-2.03-2.5-4.11-1.51,1.23-.39,2.49-1.39,3.85-.87.07.78.22,2.35.29,3.14,3.69-.05,7.88.88,11.05-1.56-1.12-.68-2.21-1.38-3.29-2.1.59.26,1.76.78,2.35,1.04.57-.53,1.16-1.04,1.77-1.54-.59-.46-1.79-1.39-2.38-1.85,1.26.65,2.42,1.48,3.56,2.34-.88.83-1.7,1.71-2.47,2.63,1.87-.58,3.74-1.21,5.59-1.89-.18-.53-.54-1.6-.72-2.13.38.34,1.15,1.03,1.54,1.37,2.33-2.27,4.22-4.95,5.56-7.92-2.99.8-5.54,2.56-7.46,4.95.28-.76.85-2.28,1.14-3.05-1.31.22-3.92.65-5.22.86-.68.66-1.34,1.33-1.98,2.01-.78-1.01-1.78-1.72-2.99-2.13-1.98,2.54-.01,6.37-2.81,8.33-.1-.4-.29-1.2-.38-1.6.45-.05,1.36-.14,1.82-.19-.26-1.1-.51-2.2-.76-3.29.26-.71.78-2.14,1.04-2.86-.53.26-1.58.77-2.11,1.02l-.59.46-.56.25c-.07-.4-.21-1.2-.28-1.6-5-.07-9.83-1.29-14.72-2.07l-1.21-1.39c.68,1.76,1.5,3.47,2.33,5.16M568.1,233.04c3.83-.62,7.78.07,11.59-.34-.2-.26-.62-.78-.83-1.03-3.62.08-7.24.23-10.85-.06.02.36.07,1.07.09,1.43Z"/>
    <path class="st85" d="M141.93,223.01c-.47-2.34,1.89-3.82,3.96-3.71,5.39-.09,10.79-.12,16.18.04,1.55-.17,2.5,1.16,3.51,2.08,2.2,2.23,4.35,4.53,6.56,6.76-.08,3.5.63,7.19-.66,10.54-.75-3.1-.59-6.31-.58-9.48-2.54-.43-6.07.93-7.81-1.47-.52-2.25-.35-4.59-.44-6.89-6.37-.01-12.73-.05-19.09.05-.81,7.33-.26,14.72-.41,22.07.13,4.94-.39,9.92.3,14.83l.75.74c4.69.59,9.43-.09,14.14.37.32.23.96.71,1.28.94-4.89.26-9.8.24-14.69.13-1.31.15-2.03-1.18-3.01-1.79.12-11.74-.08-23.48,0-35.21M163.98,221.84c.06,1.95.15,3.9.27,5.85,1.92.09,3.85.18,5.78.27-2.01-2.05-4.02-4.1-6.05-6.12Z"/>
    <path class="st85" d="M429.9,221.01c3.52-.6,6.37,2.65,7.05,5.84.28,2.64.11,5.3.04,7.96,1.19-.87,2.34-1.92,3.89-2.05-1.36,1.65-2.89,3.14-4.42,4.62-1.51-1.46-2.96-3.04-3.88-4.96,1.15.74,2.28,1.55,3.37,2.39-.29-2.94.08-5.99-.82-8.84-.76-2.48-3.37-3.49-5.23-4.96Z"/>
    <path class="st85" d="M261.7,223.62c.99-.77,2.52-2.24,3.73-.95,2.71,2.2,5.25,4.68,7.36,7.46.9,1.24-.72,2.39-1.31,3.37-5.18,6.15-10.64,12.07-15.76,18.27-1.11,1.21-2.16,2.64-3.77,3.18-2.24.26-4.54-.19-6.73.37-1.98.95-3.6,2.49-5.52,3.54-1.8.25-3.49-.96-5.22-1.31,1.56-2.14,3.39-4.09,4.68-6.41,1.29-2.05.8-4.59,1.25-6.85.48-1.63,1.78-2.79,2.97-3.92,6.1-5.58,12.2-11.18,18.32-16.75M242.76,243.07c2.9,3.69,6.46,6.81,9.73,10.17,6.47-7.42,12.98-14.79,19.33-22.31-2.29-2.77-4.85-5.3-7.57-7.63-7.27,6.46-14.61,12.9-21.49,19.77M241.95,244.77c-.12,2.88-.77,5.7-1.93,8.34.62.63,1.25,1.25,1.88,1.88,2.91-1.18,6.02-1.54,9.13-1.19-3.08-2.96-6.04-6.03-9.08-9.03M238.19,255.26c-2.59,1.2,1.14,3.28,2.27,1.55.86-1.32-1.32-2.15-2.27-1.55Z"/>
    <path class="st85" d="M733.93,222.58c1.68.05,3.37.1,5.07.18.38,5.59-.94,11.43.91,16.84-6.64-.05-13.27-.12-19.91-.07,1.23-2.31,1.18-4.93,1.28-7.47,1.61-.06,3.23-.1,4.87-.14.02,2.04.05,4.09.07,6.14.37,0,1.1-.04,1.47-.06-.12-3.62-.13-7.25.11-10.86,1.56.11,3.13.23,4.71.37.02,3.33-.26,6.69.07,10.02.31.26.92.78,1.23,1.04.24-5.33.1-10.66.12-15.99M735.07,224.01c-.07,4.66.13,9.33.18,13.99h2.12c.04-4.67.08-9.33,0-14-.57,0-1.72,0-2.3,0M729.06,228.29c-.06,3.24-.03,6.47-.04,9.71h1.94c-.02-2.98.16-5.97-.1-8.94-.45-.19-1.35-.57-1.8-.77M722.55,237.99h2.46c-.09-1.75-.18-3.5-.28-5.24-2.63.56-2.02,3.21-2.18,5.24Z"/>
    <path class="st85" d="M55.5,223.63c11.79-.53,23.63-.01,35.45-.24,2.27.12,4.77-.35,6.84.82,1.42,1.95,1.03,4.49,1.15,6.74-.11,10.04,0,20.07-.08,30.11.31,2.18-1.67,4.09-3.82,3.9-12.7.07-25.41.05-38.11.01-1.77.07-4.22-.9-4.1-3.03-.24-10.99,0-22-.2-32.99-.16-2.15.21-5.04,2.87-5.32M53.98,231h43.58c-.1-2-.25-4-.45-5.99-13.69.02-27.38-.1-41.06.04-2.97.21-1.79,3.97-2.07,5.95M54.03,232.3c-.05,10.24-.06,20.48.02,30.72,2.27.59,4.62.7,6.95.66,10.68-.11,21.36,0,32.05,0,1.32-.11,2.83.12,3.96-.76.6-1.56.49-3.26.51-4.89-.17-8.54-.11-17.08-.1-25.62-14.46-.15-28.93.2-43.39-.1Z"/>
    <path class="st85" d="M744.76,227.55c1.51-2.57,4.43-3.71,7.29-3.89.01,2.45-.02,4.89-.06,7.34,2.55,0,5.1,0,7.66-.02,0,4.52-3.74,8.95-8.5,8.34-5.82.22-9.53-7.04-6.39-11.77M744.98,232c-.51,4.99,7.34,8.33,10.33,4.46-1.41-1.61-3.04-2.99-4.35-4.67-.58-2.24-.24-4.6-.33-6.89-2.9,1.26-6.1,3.48-5.65,7.1M753.27,232.23c1.14,1.23,2.3,2.45,3.47,3.67.51-1.22,1.01-2.45,1.52-3.67-1.67,0-3.34,0-4.99,0Z"/>
    <path class="st85" d="M56.19,227.14c1.03-1.44,3.5.25,2.37,1.69-1.02,1.46-3.53-.26-2.37-1.69Z"/>
    <path class="st85" d="M60.12,227.16c1.02-1.35,3.62.2,2.41,1.66-1.02,1.36-3.65-.2-2.41-1.66Z"/>
    <path class="st85" d="M506.43,228.16c2.86-.37,6.49-.59,8.39,2.06,1.62,1.86,1.33,4.44,1.44,6.72.79-.47,2.38-1.39,3.17-1.85-.91,1.81-2.29,3.31-3.72,4.71-1.37-1.57-2.63-3.23-3.67-5.02,1.05.7,2.1,1.42,3.14,2.17-.18-2.4-.28-5.22-2.49-6.72-2.08-.75-4.31-1-6.26-2.07Z"/>
    <path class="st85" d="M310.25,254.22c8.06-8.4,16.43-16.5,24.62-24.79,1.77,1.74,3.5,3.54,5.07,5.47-1.97,2.39-4.26,4.51-6.08,7.02-1.24,1.45-.36,3.39-.16,5.04-.14.46-.43,1.37-.57,1.83,4.65,5.07,10.04,9.43,14.53,14.64,1.99,2.4-1.88,6.31-4.14,3.93-4.79-4.57-9.25-9.49-13.94-14.17-2-.14-3.99-.93-5.99-.77-2.89,1.8-4.97,4.59-7.74,6.53-2.8.49-3.93-3.07-5.6-4.73M332.79,233.78c-7.04,7.13-14.5,13.87-21.05,21.45,3.51-.36,5.4-3.61,7.8-5.77,5.47-5.97,11.95-11.03,16.83-17.52-1.43.11-2.66.76-3.58,1.84M334.92,236c-6.86,7.15-14.3,13.73-20.78,21.23,3.87-.59,5.63-4.6,8.94-6.23,1.72-.31,3.39.44,5.03.86,1.32-1.23,2.62-2.49,3.91-3.76-.02-2.03-.16-4.07.12-6.08,1.32-3.29,5.28-4.78,6.1-8.36-1.19.66-2.37,1.36-3.32,2.34M332.11,249.97c-.48.42-1.43,1.25-1.91,1.66,4.83,5.25,9.84,10.32,14.78,15.47.73-.7,1.46-1.4,2.2-2.09-4.91-5.13-9.89-10.21-15.07-15.04Z"/>
    <path class="st85" d="M146.61,231.18c3.96-.33,7.95-.28,11.91-.03-1.3,1.77-3.64,1.05-5.49,1.23-2.16-.16-4.66.43-6.42-1.2Z"/>
    <path class="st85" d="M341.45,233.8c.84-1.85,2.91-1.36,4.54-1.43,4.13.15,8.28-.25,12.39.18.28.3.86.9,1.14,1.2-6.01.4-12.06.27-18.07.05Z"/>
    <path class="st85" d="M397.78,233.69c3.14-1.4,7.21-1.68,10.25.09-3.41.36-6.86.41-10.25-.09Z"/>
    <path class="st85" d="M816.47,235.83c1.41-1.08,2.56-2.65,4.42-3-1.35,1.96-2.93,3.75-4.46,5.56-1.25-.99-2.39-2.1-3.42-3.29,1.14.21,2.26.69,3.46.73Z"/>
    <path class="st85" d="M146.48,235.18c7.01-.45,14.05-.26,21.07-.09-.75,1.36-2.31,1.11-3.57,1.2-4.68.02-9.36.03-14.04,0-1.26.09-2.45-.38-3.46-1.11Z"/>
    <path class="st85" d="M821.98,236.4c.77-.85,1.72-1.5,2.96-1.28,3.22-.07,6.45.01,9.68.18-.59,1.01-1.45,1.48-2.57,1.4-3.36.06-6.72-.05-10.07-.3Z"/>
    <path class="st85" d="M57.86,236h19.29c.2,4.26.23,8.53-.03,12.78-6.36,0-12.72-.03-19.08-.09-.46-4.22-.37-8.46-.18-12.69M59.02,237.36c-.02,3.32-.02,6.64-.02,9.96,5.66.1,11.32.07,16.98-.04.03-3.3,0-6.6-.08-9.9-5.62.12-11.25.15-16.88-.02Z"/>
    <path class="st85" d="M79.32,236.14c5.03-.22,10.09-.22,15.13,0-.55,1.02-1.36,1.49-2.46,1.42-3.8,0-7.64.18-11.42-.24-.31-.29-.94-.88-1.25-1.18Z"/>
    <path class="st85" d="M397.72,237.68c2.2-1.36,4.85-.98,7.31-1.06,3.79.06,7.66-.43,11.4.53-6.01,1.73-12.53.72-18.71.53Z"/>
    <path class="st85" d="M341.33,237.05c6.07-.13,12.15-.22,18.21.04-.98,1.58-2.95,1.02-4.46,1.19-4.17-.13-8.36.27-12.51-.15-.31-.27-.93-.81-1.24-1.08Z"/>
    <path class="st85" d="M660.65,237.02c1.51,1.27,2.79,2.86,4.57,3.79,2.48.81,5.13.81,7.72.96,0-1.64,0-3.28.02-4.92,3.01,2.46,5.99,4.95,8.9,7.52-2.9,2.57-5.77,5.16-8.82,7.56-.11-1.6-.21-3.2-.3-4.8-2.51.16-5.11.15-7.45,1.18-1.78,1.03-3.08,2.66-4.61,4,.49-1.6,1.13-3.17,2.1-4.54,3.41-1.87,7.35-1.95,11.14-1.85.04.82.13,2.46.17,3.28,1.97-1.59,3.93-3.18,5.9-4.77-1.98-1.61-3.96-3.23-5.95-4.82-.02.86-.04,2.58-.06,3.44-2.48-.02-4.97.02-7.44-.18-2.88-.68-5.34-2.88-5.89-5.85Z"/>
    <path class="st85" d="M79.15,240.86c2.19-1.91,5.3-.89,7.91-1.17,2.48.29,5.51-.8,7.51,1.15-5.13.34-10.29.33-15.42.02Z"/>
    <path class="st85" d="M146.51,239.18c7-.48,14.04-.36,21.05-.06-1.07,1.47-3,.99-4.53,1.12-4.36-.09-8.73-.08-13.09-.07-1.25.11-2.37-.44-3.43-.99Z"/>
    <path class="st85" d="M170.36,240.02c1.48-.03,2.97-.03,4.45-.02.52,1.4.51,3.46,2.35,3.82,1.27-.23,2.48-.7,3.75-.96,1.8,1.4,4.35,3.35,1.94,5.55.07.56.23,1.67.3,2.22,1.13.41,2.25.83,3.37,1.26-.06,1.68-.11,3.36-.18,5.05-.72.09-2.18.27-2.91.36-.24.53-.72,1.59-.96,2.12.58,1.06,1.17,2.12,1.75,3.19-1.22,1.09-2.43,2.18-3.64,3.27-.97-.54-1.94-1.08-2.9-1.62-.61.39-1.84,1.17-2.46,1.56,0,.59-.05,1.76-.07,2.35-1.78.04-3.56.08-5.34.12-.67-1.11-.3-3.28-1.95-3.46-1.35-.84-2.53.58-3.75.97-1.04-1.39-3.61-2.46-2.67-4.51,1.33-2.62-.67-4.19-3-5.01-.02-1.5-.04-3-.04-4.5,1.07-.47,2.13-.98,3.17-1.52.96-1.49-.41-3-.81-4.41,1.09-1.15,2.18-2.28,3.28-3.41.96.54,1.92,1.08,2.89,1.63.51-.28,1.52-.84,2.03-1.12.44-.99.91-1.97,1.4-2.93M171.53,241.13c-.74,3.4-4.53,5.32-7.43,3.01-.64.78-1.28,1.56-1.92,2.34.46.49,1.39,1.48,1.85,1.97-.9,2.73-4.09,3.97-4.33,6.97,1.07.74,3.7.74,3.37,2.65.25,1.82-.6,3.85.28,5.53,2.21.09,4.46-.76,6.63.29.28,1.03.56,2.06.85,3.09.69-.01,2.06-.03,2.75-.03.58-1.13.75-2.64,1.94-3.32,2.02-1.76,5.04,1.45,6.65-1.15-1.45-2-.96-4.23.05-6.28.7-.08,2.09-.24,2.79-.32-.03-1.18-.07-2.36-.1-3.53-.67-.11-2.01-.33-2.67-.44-.45-1.18-.89-2.35-1.34-3.53.34-.57,1.01-1.7,1.35-2.27-.37-.42-1.11-1.26-1.48-1.68-2.23.97-4.6.78-6.75-.3-.04-.77-.12-2.32-.17-3.09-.58.02-1.74.07-2.32.09Z"/>
    <path class="st85" d="M397.52,241.1c5.7-1.42,11.64-.31,17.45-.77.24.39.71,1.17.95,1.56-6.1-.24-12.52,1.11-18.4-.79Z"/>
    <path class="st85" d="M336.53,242.84c1.08-2.1,3.62-1.22,5.51-1.42,5.45.2,10.94-.3,16.36.26.27.29.81.88,1.08,1.18-7.64.22-15.31.24-22.95-.02Z"/>
    <path class="st85" d="M816.13,244.9c1.41-1.41,2.86-2.84,4.66-3.77-1.05,2.37-3.06,4.07-4.87,5.82-1.07-1.1-2.07-2.27-2.78-3.63,1,.5,1.99,1.03,2.99,1.58Z"/>
    <path class="st85" d="M742.68,246.63c3.58-5.01,11.61-5.62,15.79-1.04,3.66,3.31,3.47,8.79,1.72,13.02,1.29,1.11,2.57,2.23,3.81,3.4,1.56,1.58,2.96,3.31,4.37,5.03-1.23.96-2.1,3.42-3.98,2.85-2.89-2.27-5.3-5.06-7.69-7.82-3.51,1.94-7.82,1.87-11.31-.07-4.86-3.37-6.36-10.6-2.71-15.37M748.35,244.38c-3.72,1.54-7.07,5.4-6.2,9.67.3,6.15,7.8,9.86,13.06,7.14,5.93-2.88,6.36-12.76.54-15.98-2.18-1.4-4.97-1.36-7.4-.83M759.61,260.6c-.2,3.86,3.45,6.48,6.67,7.75-.91-3.46-3.64-6.06-6.67-7.75Z"/>
    <path class="st85" d="M79.36,243.17c4.52-.09,9.08-.38,13.58.08.33.3.99.89,1.32,1.19-4.57.17-9.19.46-13.74-.01-.29-.32-.87-.95-1.16-1.26Z"/>
    <path class="st85" d="M146.44,243.13c4.66-.31,9.36-.41,14.01.13-2.56,1.47-5.61.76-8.41.93-1.87-.18-4.11.46-5.6-1.06Z"/>
    <path class="st85" d="M733.99,243.87c1.66,0,3.33,0,5.01,0-.22,5.17.45,10.48-.34,15.57-1.55.18-3.11.19-4.64.26-.09-5.28-.06-10.55-.03-15.82M735.02,245c.08,4.32.11,8.63.25,12.95.56,0,1.68.03,2.24.04.02-4.33.02-8.66.03-12.99h-2.52Z"/>
    <path class="st85" d="M399.07,244.36c5.73.04,11.47-.19,17.2.15-.88.83-1.94,1.59-3.23,1.39-4.94.12-9.89.03-14.84-.1.22-.36.66-1.08.87-1.44Z"/>
    <path class="st85" d="M584.3,246.86c0-1.59,1.48-2.25,2.56-3.1,3.38,2.05,3.02,5.94,2.12,9.25,3.03.21,7.01-1.18,8.72,2.18-.46,2.1-.75,4.23-1.29,6.32-.56,2.15-1.14,4.31-1.51,6.51-4.91,1.87-10.74,1.33-15.54-.72-.29.43-.87,1.31-1.16,1.75-2.23-.49-5.66,1.1-6.89-1.42-.25-4.57-.49-9.23.33-13.75,2.65.04,5.34,0,7.94.68,2.32-2.03,4.4-4.5,4.72-7.7M586.48,245.37c-.99,4.52-3.48,8.6-7.46,11.08.01,3.13.02,6.26.02,9.39,4.73,1.64,10.24,2.75,15.06.91-.14-1.73-2.19-1.82-3.34-2.61,1.53-.13,3.06-.28,4.6-.45-.73-1.14-1.68-2.1-2.65-3.01,1.49-.17,2.63-1,3.5-2.18l-3.28-.64.03-.86c1.36-.28,3.5.09,3.1-2.02-2.75-1.29-5.95-.52-8.88-.76.51-2.88,2.37-6.79-.7-8.85M572.75,255.08c-.16,4.12-.1,8.25-.03,12.37,1.61.06,3.23.12,4.85.18.19-4.1.21-8.21.16-12.32-1.66-.08-3.33-.16-4.98-.23Z"/>
    <path class="st85" d="M562.26,245.52c1.27-1.42,3.58.7,2.22,2.07-1.25,1.62-3.7-.73-2.22-2.07Z"/>
    <path class="st85" d="M750.27,245.24c6.26-.89,10.83,7.24,7.14,12.24-2.57,3.96-8.81,4.68-11.87.91-4.3-4.23-1.55-12.94,4.73-13.15M744.88,250.91c.17,2.02-.2,4.34,1.26,5.99,2.58,3.97,9.91,2.85,10.79-1.98,1.33-3.78-1.75-8.63-5.95-8.02-2.91-.55-4.61,2.01-6.1,4.01Z"/>
    <path class="st85" d="M146.46,247.82c2.22-1.52,5.01-.95,7.53-1.06,1.57.11,3.43-.21,4.63,1.11-4.04.27-8.12.32-12.16-.05Z"/>
    <path class="st85" d="M170.44,247.5c4.47-1.69,9.69,2.87,8.64,7.57.04,5.55-7.74,8.07-11.39,4.22-3.96-3.39-2.23-10.43,2.75-11.79M170.19,249.16c-4.22,1.69-4.32,8.41-.03,10.09,4.19,2.35,9.66-3.2,7.15-7.35-1.02-2.91-4.46-3.62-7.12-2.74Z"/>
    <path class="st85" d="M502.4,246.71c2.78,3.21,3.36,7.61,4.55,11.55-1.35-.44-2.13-1.39-2.35-2.84-.7-.06-2.1-.18-2.79-.24-.98,1.12-1.95,2.24-2.96,3.31.61-4.08,2.06-7.96,3.55-11.78M502.24,253.8c1.88,1.34,2.53-2.54.6-2.69-1.2.59-1.4,1.48-.6,2.69Z"/>
    <path class="st85" d="M398.36,248.29c4.19-.46,8.43-.21,12.64-.18,1.28-.24,2.29.44,3.09,1.35-5.18.2-10.39.4-15.56,0-.04-.3-.13-.88-.17-1.17Z"/>
    <path class="st85" d="M727.71,248.62c1.56-.03,3.13-.04,4.71-.05.17,3.67.17,7.35.13,11.03-1.67-.03-3.33-.06-4.99-.1.02-3.63.04-7.26.15-10.88M729,249.92c0,2.7.02,5.41.03,8.12.48.02,1.43.07,1.91.09.03-2.74.09-5.47.18-8.2-.53,0-1.59,0-2.12,0Z"/>
    <path class="st85" d="M340.47,251.66c1.85-1.56,4.37-.92,6.58-1.06,3.78.13,7.59-.33,11.35.17.29.28.87.85,1.16,1.13-6.36.06-12.76.43-19.09-.24Z"/>
    <path class="st85" d="M567.13,251.27c1.87-.57,2.78,2.53.78,2.94-1.87.6-2.66-2.53-.78-2.94Z"/>
    <path class="st85" d="M480.9,251.91l.97.11c.43,2.33.46,5.15,2.51,6.75,1.3,1.07,3.05,1.09,4.62,1.46-.45-1.12-.87-2.25-1.26-3.38,1.61,1.14,3.17,2.36,4.72,3.6-1.38,1.59-2.84,3.19-4.81,4.05.57-1.1,1.23-2.16,1.88-3.21-2.15-.19-4.6.08-6.25-1.59-2.33-1.88-2.38-5.06-2.38-7.79Z"/>
    <path class="st85" d="M721.04,253.85c1.32-1.29,3.42-.54,5.07-.84.14,2.13.25,4.27.38,6.41-1.78.07-3.55.12-5.31.17-.11-1.91-.24-3.83-.14-5.74M723.16,255.05c-1.28.92-.19,3.86,1.41,2.7,1.19-.93.18-3.88-1.41-2.7Z"/>
    <path class="st85" d="M56.91,255.48c1.96-1.66,4.68-1.03,7.04-1.2,4.18.1,8.39-.28,12.55.18.28.34.84,1.02,1.12,1.36-6.89.07-13.85.5-20.71-.34Z"/>
    <path class="st85" d="M56.84,258.23c7-.51,14.06-.26,21.08-.11-2.54,2-5.99.78-8.94,1.1-4.01-.37-8.43,1-12.14-.99Z"/>
    <path class="st85" d="M374.03,259.72c2.03,1.1,3.8,2.64,5.24,4.45l.03.2c-1.67,1.56-3.3,3.17-5.09,4.59.92-1.39,1.96-2.69,3.01-3.98-2.91-.07-5.87.07-8.71-.67,3.16-.32,6.34-.06,9.52.03-1.37-1.51-2.75-3.01-4-4.62Z"/>
    <path class="st85" d="M534.64,260.39c.5.05,1.51.15,2.01.21,1.19,1.14,2.37,2.3,3.56,3.45l-.08.29c-1.53,1.8-3.25,3.45-5.09,4.93.96-1.55,1.98-3.06,3.02-4.56-2.36,0-4.72.01-7.07-.09l-1.37-.09v-.51l1.67-.11c2.55-.11,5.11-.12,7.68-.18-1.44-1.12-2.89-2.24-4.33-3.34Z"/>
  </g>
  <g id="_x23_c3cedcff">
    <path class="st83" d="M314.14,218.33c1.56-.46,2.28,2.15.67,2.52-1.58.49-2.3-2.18-.67-2.52Z"/>
  </g>
  <g id="_x23_2a2b29ff">
    <path class="st71" d="M763.19,217.39c.87.99,2.13,1.97,1.79,3.51,0,12.41.09,24.82-.03,37.22-.21.61-.64,1.83-.86,2.44-.61-13.89.33-27.83-.55-41.69l-.35-1.48Z"/>
  </g>
  <g id="_x23_fbc390ff">
    <path class="st22" d="M399.23,220.14c6.87-.32,13.76-.04,20.64-.14.09.75.26,2.25.35,2.99.69.09,2.06.26,2.75.34-.07,3.73.22,7.48-.13,11.2-.54,1.6-1.16,3.18-1.69,4.79-.2-3,.04-6.02-.46-8.98-2.41-2.89-5-5.77-8.08-7.92-4.72-.53-9.47-.1-14.2-.36.21-.48.61-1.44.82-1.92Z"/>
  </g>
  <g id="_x23_7a9cc9ff">
    <path class="st11" d="M478.69,223.7c1.96-1.58,4.12-2.9,6.43-3.92-1.05,1.97-2.13,3.92-3.22,5.87-1.08-.65-2.15-1.3-3.21-1.95Z"/>
  </g>
  <g id="_x23_79a4dfff">
    <path class="st74" d="M483.26,226.36c1.21-2.59,2.32-5.57,5.19-6.72.13,2.49.23,4.99.32,7.49-1.85-.24-3.68-.49-5.51-.77Z"/>
    <path class="st74" d="M490.11,219.42c2.42,1.49,4.31,3.77,5,6.57-1.51.94-3.41.81-5.09,1.17-.02-2.58,0-5.16.09-7.74Z"/>
    <path class="st74" d="M53.98,231c.28-1.98-.9-5.74,2.07-5.95,13.68-.14,27.37-.02,41.06-.04.2,1.99.35,3.99.45,5.99h-43.58M56.19,227.14c-1.16,1.43,1.35,3.15,2.37,1.69,1.13-1.44-1.34-3.13-2.37-1.69M60.12,227.16c-1.24,1.46,1.39,3.02,2.41,1.66,1.21-1.46-1.39-3.01-2.41-1.66M64.31,227.16c-.54,1.61.01,2.17,1.66,1.67.54-1.62-.01-2.17-1.66-1.67Z"/>
    <path class="st74" d="M474.85,233.62c.09-3.06.74-6.3,2.96-8.57,1.24.59,2.44,1.28,3.65,1.96-.42,2.18-.82,4.37-1.21,6.55-1.81.02-3.61.04-5.4.06Z"/>
    <path class="st74" d="M497.1,227.06c1.29-.74,2.59-1.48,3.9-2.22,1.64,2.66,2.82,5.6,3.09,8.74-1.94,0-3.87.02-5.8.04-.34-2.2-.73-4.39-1.19-6.56Z"/>
    <path class="st74" d="M490.09,228.53c1.93-.28,3.87-.56,5.81-.86.29,1.96.6,3.92.9,5.89-2.24.02-4.47.05-6.7.09-.02-1.71-.02-3.42-.01-5.12Z"/>
    <path class="st74" d="M474.44,235c1.99.02,4,.06,6.01.11.31,2.14.63,4.28,1.01,6.42-1.18.53-2.33,1.09-3.53,1.54-2.45-1.91-2.77-5.28-3.49-8.07Z"/>
    <path class="st74" d="M481.84,235.01c2.32,0,4.64,0,6.97.02-.04,1.51-.06,3.03-.09,4.55-2.01.36-4.01.77-6,1.26-.34-1.94-.63-3.88-.88-5.83Z"/>
    <path class="st74" d="M490,235c2.27,0,4.55.04,6.84.09-.39,1.85-.78,3.7-1.14,5.56-1.89-.34-3.79-.64-5.69-.9-.01-1.58-.01-3.17-.01-4.75Z"/>
    <path class="st74" d="M498.22,235c1.98,0,3.97,0,5.96.02-.49,2.41-1.31,4.75-2.29,7-1.64-.06-3.26-.14-4.88-.21.46-2.26.88-4.53,1.21-6.81Z"/>
    <path class="st74" d="M483.28,242.22c1.81-.43,3.62-.86,5.45-1.26.03,2.73.03,5.46-.06,8.2-2.55-1.64-4.07-4.3-5.39-6.94Z"/>
    <path class="st74" d="M490.07,240.95c1.73.41,3.45.84,5.19,1.29-1.19,2.67-2.92,5.05-5.19,6.92-.07-2.74-.06-5.47,0-8.21Z"/>
    <path class="st74" d="M332.11,249.97c5.18,4.83,10.16,9.91,15.07,15.04-.74.69-1.47,1.39-2.2,2.09-4.94-5.15-9.95-10.22-14.78-15.47.48-.41,1.43-1.24,1.91-1.66Z"/>
    <path class="st74" d="M572.75,255.08c1.65.07,3.32.15,4.98.23.05,4.11.03,8.22-.16,12.32-1.62-.06-3.24-.12-4.85-.18-.07-4.12-.13-8.25.03-12.37M575.12,264.23c-1.35.68-1.37,1.35-.06,2,1.33-.68,1.35-1.35.06-2Z"/>
  </g>
  <g id="_x23_779bc9ff">
    <path class="st34" d="M493.38,219.74c2.34,1.04,4.58,2.3,6.73,3.69-1.09.76-2.2,1.5-3.28,2.25-1.17-1.98-2.33-3.95-3.45-5.94Z"/>
  </g>
  <g id="_x23_e6f0fbff">
    <path class="st5" d="M556.73,222.75c6.66-2.89,14.07-2.69,21.18-2.51,5.59.15,11.54,1.2,15.89,4.99-.02.66-.04,1.98-.05,2.65-3.55,3.15-8.31,4.09-12.87,4.64.05-.37.16-1.1.21-1.47,3.85.3,8-.83,11.05-3.23,1.66-1.95-.89-3.83-2.57-4.45-9.38-3.29-19.72-3.22-29.32-.98-1.17.23-2.34.35-3.52.36Z"/>
    <path class="st5" d="M568.1,233.04c-.02-.36-.07-1.07-.09-1.43,3.61.29,7.23.14,10.85.06.21.25.63.77.83,1.03-3.81.41-7.76-.28-11.59.34Z"/>
    <path class="st5" d="M170.19,249.16c2.66-.88,6.1-.17,7.12,2.74,2.51,4.15-2.96,9.7-7.15,7.35-4.29-1.68-4.19-8.4.03-10.09Z"/>
  </g>
  <g id="_x23_393d3dff">
    <path class="st92" d="M823,220.12c1.61-.54,2.18.01,1.71,1.64-1.62.54-2.19,0-1.71-1.64Z"/>
  </g>
  <g id="_x23_adc9f2ff">
    <path class="st30" d="M163.98,221.84c2.03,2.02,4.04,4.07,6.05,6.12-1.93-.09-3.86-.18-5.78-.27-.12-1.95-.21-3.9-.27-5.85Z"/>
    <path class="st30" d="M242.76,243.07c6.88-6.87,14.22-13.31,21.49-19.77,2.72,2.33,5.28,4.86,7.57,7.63-6.35,7.52-12.86,14.89-19.33,22.31-3.27-3.36-6.83-6.48-9.73-10.17M253.99,237.95c-1.72,1.58-3.63,3.08-4.73,5.19.29,1.89,2.16,2.62,3.58,3.54,3.67-4.27,7.29-8.57,11.43-12.41,2.48-1.75-.56-3.8-2.11-4.77-2.69,2.85-5.2,5.87-8.17,8.45Z"/>
  </g>
  <g id="_x23_474f48ff">
    <path class="st93" d="M752.9,221.7c4.55.12,8.29,3.72,8.41,8.31-2.79,0-5.58,0-8.36,0-.1-2.77-.11-5.54-.05-8.31M753.98,228.6c1.99.07,3.98.12,5.99.15-1.04-2.66-3.08-4.61-5.61-5.86-.16,1.9-.28,3.8-.38,5.71Z"/>
  </g>
  <g id="_x23_ededf0ff">
    <path class="st62" d="M553.59,228.24c-1.49-2.66.72-4.75,3.14-5.49-1.05,1.4-2.21,2.72-3.28,4.11,3.7,3.43,9,4.6,13.93,4.22-.54.47-1.07.94-1.6,1.41-4.19-.83-8.9-1.19-12.19-4.25Z"/>
    <path class="st62" d="M810.38,226.21c1.55,0,3.1.02,4.67.04.17.49.5,1.49.66,1.99,5.39-.13,10.81.25,16.19-.27.19-.46.57-1.36.76-1.81,1.43,0,2.88.02,4.34.04.01,5.21-.03,10.42.02,15.63-4.08,4.2-10.33.94-15.36,2.52,3.19,1.27,6.71.56,10.05.65-.88,2.49-1.78,4.97-2.89,7.36-1.95-.06-3.89-.1-5.82-.15-.2.38-.6,1.13-.81,1.5,2.52.1,5.05.17,7.58.3.51,2.64.88,5.54,3.54,6.96-7.52,1.33-15.25.06-22.85.49-.23-11.75-.06-23.5-.08-35.25M816.47,235.83c-1.2-.04-2.32-.52-3.46-.73,1.03,1.19,2.17,2.3,3.42,3.29,1.53-1.81,3.11-3.6,4.46-5.56-1.86.35-3.01,1.92-4.42,3M821.98,236.4c3.35.25,6.71.36,10.07.3,1.12.08,1.98-.39,2.57-1.4-3.23-.17-6.46-.25-9.68-.18-1.24-.22-2.19.43-2.96,1.28M816.13,244.9c-1-.55-1.99-1.08-2.99-1.58.71,1.36,1.71,2.53,2.78,3.63,1.81-1.75,3.82-3.45,4.87-5.82-1.8.93-3.25,2.36-4.66,3.77M816.26,253.03c-.73-.27-2.18-.81-2.91-1.08.71,1.47,1.74,2.73,3.23,3.48,1.54-1.78,3.13-3.56,4.26-5.64-1.84.6-3.09,2.11-4.58,3.24Z"/>
    <path class="st62" d="M557.3,236.01c-.83-1.69-1.65-3.4-2.33-5.16l1.21,1.39c4.89.78,9.72,2,14.72,2.07.07.4.21,1.2.28,1.6l.56-.25.59-.46c.53-.25,1.58-.76,2.11-1.02-.26.72-.78,2.15-1.04,2.86.25,1.09.5,2.19.76,3.29-.46.05-1.37.14-1.82.19.09.4.28,1.2.38,1.6,2.8-1.96.83-5.79,2.81-8.33,1.21.41,2.21,1.12,2.99,2.13.64-.68,1.3-1.35,1.98-2.01,1.3-.21,3.91-.64,5.22-.86-.29.77-.86,2.29-1.14,3.05,1.92-2.39,4.47-4.15,7.46-4.95-1.34,2.97-3.23,5.65-5.56,7.92-.39-.34-1.16-1.03-1.54-1.37.18.53.54,1.6.72,2.13-1.85.68-3.72,1.31-5.59,1.89.77-.92,1.59-1.8,2.47-2.63-1.14-.86-2.3-1.69-3.56-2.34.59.46,1.79,1.39,2.38,1.85-.61.5-1.2,1.01-1.77,1.54-.59-.26-1.76-.78-2.35-1.04,1.08.72,2.17,1.42,3.29,2.1-3.17,2.44-7.36,1.51-11.05,1.56-.07-.79-.22-2.36-.29-3.14-1.36-.52-2.62.48-3.85.87,2.08-.99,3.45-.48,4.11,1.51-3.38.12-6.52-1.3-9.19-3.26.07-.29.21-.88.29-1.17-.93-.2-1.85-.4-2.76-.61l1.06-1.77c-.39.2-1.16.62-1.55.82M588.23,234.25q.5.57,0,0M561.17,235.23q.57.56,0,0M564.26,235.25q.56.55,0,0M567.39,235.18c.11,3.33,3-1.52,0,0M581.27,235.29q.53.55,0,0M583.13,236.43c-1.58,2.97,3.33.18,0,0M562.15,237.12c.26,3.32,2.93-1.65,0,0M566.21,237.19q.6.52,0,0M569.4,237.26q.54.58,0,0M576.35,237.25q.58.58,0,0M571.09,238.44c-1.56,2.99,3.33.16,0,0M564.44,239.1q.54.55,0,0M576.09,240.29c-1.5,3.02,3.34.08,0,0Z"/>
    <path class="st62" d="M332.79,233.78c.92-1.08,2.15-1.73,3.58-1.84-4.88,6.49-11.36,11.55-16.83,17.52-2.4,2.16-4.29,5.41-7.8,5.77,6.55-7.58,14.01-14.32,21.05-21.45Z"/>
  </g>
  <g id="_x23_a5a7a9ff">
    <path class="st14" d="M555.91,226.97c1.79-3.53,6.69-3.32,10.11-4,4.38,0,10.48-2.6,13.06,2.4-.36-.7-1.1-2.08-1.46-2.77,2.65.43,5.75-.07,7.97,1.81.35-.12,1.07-.38,1.42-.5,1.47.8,2.93,1.62,4.39,2.47-1.44.91-2.89,1.79-4.35,2.67-.4-.09-1.21-.25-1.61-.33-2.82,1.35-5.94,1.27-8.97,1.16-1.19.44-2.29.34-3.32-.3-.2.22-.6.67-.8.89-5.55-.66-11.42-.75-16.44-3.5M564.25,224.21q.51.5,0,0M559.23,225.27q.56.5,0,0M562.34,225.26q.48.52,0,0M566.05,225.22c-1.42,3.05,3.33,0,0,0M569.21,225.26q.49.53,0,0M576.24,226.25q.49.53,0,0M583.25,226.24q.52.49,0,0M586.2,226.12c.22,3.32,2.94-1.61,0,0M560.41,227.1c.14,3.33,2.97-1.55,0,0M564.22,227.31q.57.45,0,0Z"/>
  </g>
  <g id="_x23_90bc98ff">
    <path class="st6" d="M639.01,222.74c2.67,1.08,5.29,2.29,7.87,3.59.08,3.28.13,6.57.12,9.85-2.68-1.11-5.32-2.3-7.95-3.51-.05-3.31-.07-6.62-.04-9.93Z"/>
    <path class="st6" d="M648.35,226.16c2.53-1.13,5.07-2.26,7.62-3.35.03,3.3.03,6.59.03,9.89-2.58,1.21-5.19,2.35-7.82,3.42-.04-3.32.01-6.64.17-9.96Z"/>
    <path class="st6" d="M652.4,244.35c1.41,0,2.82,0,4.25,0,0,3.86-.01,7.72.02,11.59-1.46,0-2.91,0-4.35.01.02-3.87.04-7.74.08-11.61Z"/>
    <path class="st6" d="M662.04,257.2c1.31,0,2.64,0,3.97,0,.16,3.9.18,7.81.01,11.71-1.34.02-2.68.05-4.01.08-.08-3.94-.06-7.87.03-11.8Z"/>
  </g>
  <g id="_x23_f9c18dff">
    <path class="st78" d="M394.9,223.9c5.68-.04,11.37-.24,17.06-.15-.04,2.45.01,4.93.6,7.32,2.22-.04,4.45-.06,6.68-.07,0,7.93.3,15.86-.11,23.78-8.05-.04-16.1-.03-24.15,0-.37-10.29-.09-20.58-.08-30.87M397.78,233.69c3.39.5,6.84.45,10.25.09-3.04-1.77-7.11-1.49-10.25-.09M397.72,237.68c6.18.19,12.7,1.2,18.71-.53-3.74-.96-7.61-.47-11.4-.53-2.46.08-5.11-.3-7.31,1.06M397.52,241.1c5.88,1.9,12.3.55,18.4.79-.24-.39-.71-1.17-.95-1.56-5.81.46-11.75-.65-17.45.77M399.07,244.36c-.21.36-.65,1.08-.87,1.44,4.95.13,9.9.22,14.84.1,1.29.2,2.35-.56,3.23-1.39-5.73-.34-11.47-.11-17.2-.15M398.36,248.29c.04.29.13.87.17,1.17,5.17.4,10.38.2,15.56,0-.8-.91-1.81-1.59-3.09-1.35-4.21-.03-8.45-.28-12.64.18Z"/>
    <path class="st78" d="M735.07,224.01c.58,0,1.73,0,2.3,0,.08,4.67.04,9.33,0,14h-2.12c-.05-4.66-.25-9.33-.18-13.99Z"/>
    <path class="st78" d="M413.23,224.82c1.7,1.61,3.37,3.27,5,4.97-1.64-.08-3.28-.15-4.91-.23-.04-1.58-.07-3.16-.09-4.74Z"/>
    <path class="st78" d="M744.98,232c-.45-3.62,2.75-5.84,5.65-7.1.09,2.29-.25,4.65.33,6.89,1.31,1.68,2.94,3.06,4.35,4.67-2.99,3.87-10.84.53-10.33-4.46Z"/>
    <path class="st78" d="M729.06,228.29c.45.2,1.35.58,1.8.77.26,2.97.08,5.96.1,8.94h-1.94c.01-3.24-.02-6.47.04-9.71Z"/>
    <path class="st78" d="M722.55,237.99c.16-2.03-.45-4.68,2.18-5.24.1,1.74.19,3.49.28,5.24h-2.46Z"/>
    <path class="st78" d="M428.07,241.32c1.28,0,2.57,0,3.85,0,.3,2.45-.66,5.48,1.24,7.44,1.98.33,4,.24,6,.29-.3,5.95.38,11.91-.14,17.86-7.75-.25-15.51.1-23.26-.01-.24-1.2-.12-2.34.37-3.42,3.78-.49,7.97.93,11.49-.82,1.08-6.97.12-14.26.45-21.35Z"/>
    <path class="st78" d="M495.88,244.92c-.17-1.68,1.98-1.62,3.08-1.68,5.69-.05,11.38-.08,17.06.04,1.26-.12,2.78.72,2.76,2.13.34,5.14.3,10.33.08,15.48-.89,1.24-2.67,1.11-3.95,1.64-.05,1.47-.09,2.95-.12,4.44-1.88-1.64-3.65-3.46-5.84-4.69-4.28-.54-8.62-.06-12.92-.42-.51-5.63-.51-11.31-.15-16.94M502.4,246.71c-1.49,3.82-2.94,7.7-3.55,11.78,1.01-1.07,1.98-2.19,2.96-3.31.69.06,2.09.18,2.79.24.22,1.45,1,2.4,2.35,2.84-1.19-3.94-1.77-8.34-4.55-11.55M510.35,247.43c-3.5,1.26-2.11,5.63-2.36,8.45.74.75,1.49,1.51,2.23,2.27,3.4.67,5.25-2.04,5.65-5.02-1.53-.08-3.06-.13-4.58-.14.71.46,2.14,1.36,2.85,1.81-.67.75-1.33,1.5-1.99,2.26-.57-.29-1.71-.88-2.27-1.17-.1-2.37-.07-4.74.1-7.11,2.18-.11,3.87,1.19,5.47,2.5-.02-2.47-2.6-5.27-5.1-3.85Z"/>
    <path class="st78" d="M433.55,242.78c1.64,1.55,3.23,3.17,4.71,4.87-1.49-.13-2.98-.21-4.45-.48-.07-1.1-.2-3.29-.26-4.39Z"/>
  </g>
  <g id="_x23_6b6965ff">
    <path class="st31" d="M564.25,224.21q.51.5,0,0Z"/>
  </g>
  <g id="_x23_bdcee6ff">
    <path class="st17" d="M321.36,228.55c1.09-1.08,2.18-2.15,3.27-3.23.87.95,1.75,1.91,2.63,2.87-.87,1.02-1.74,2.03-2.6,3.05-1.1-.9-2.2-1.8-3.3-2.69Z"/>
  </g>
  <g id="_x23_474b49ff">
    <path class="st15" d="M559.23,225.27q.56.5,0,0Z"/>
  </g>
  <g id="_x23_6d6e6cff">
    <path class="st53" d="M562.34,225.26q.48.52,0,0Z"/>
    <path class="st53" d="M569.4,237.26q.54.58,0,0Z"/>
  </g>
  <g id="_x23_767675ff">
    <path class="st56" d="M566.05,225.22c3.33,0-1.42,3.05,0,0Z"/>
  </g>
  <g id="_x23_595d5cff">
    <path class="st7" d="M569.21,225.26q.49.53,0,0Z"/>
  </g>
  <g id="_x23_636968ff">
    <path class="st29" d="M576.24,226.25q.49.53,0,0Z"/>
  </g>
  <g id="_x23_63635fff">
    <path class="st90" d="M583.25,226.24q.52.49,0,0Z"/>
  </g>
  <g id="_x23_747573ff">
    <path class="st36" d="M586.2,226.12c2.94-1.61.22,3.32,0,0Z"/>
  </g>
  <g id="_x23_474b4aff">
    <path class="st61" d="M64.31,227.16c1.65-.5,2.2.05,1.66,1.67-1.65.5-2.2-.06-1.66-1.67Z"/>
  </g>
  <g id="_x23_f5caa1ff">
    <path class="st10" d="M424.41,227.06c.59-.02,1.76-.04,2.35-.05.09,11.63.04,23.26.02,34.89-8.09.07-16.21.33-24.28-.12-.21-.45-.61-1.34-.81-1.79,7-.27,14.03.25,21.02-.18,2.11-.67,1.48-3.13,1.66-4.81-.18-9.32.06-18.63.04-27.94Z"/>
  </g>
  <g id="_x23_7a7b79ff">
    <path class="st40" d="M560.41,227.1c2.97-1.55.14,3.33,0,0Z"/>
  </g>
  <g id="_x23_66625eff">
    <path class="st72" d="M564.22,227.31q.57.45,0,0Z"/>
  </g>
  <g id="_x23_87abdeff">
    <path class="st41" d="M482.67,227.66c2.04.41,4.1.82,6.15,1.29-.04,1.56-.07,3.12-.1,4.69-2.26-.02-4.53-.03-6.78-.04.17-1.99.4-3.97.73-5.94Z"/>
    <path class="st41" d="M59.02,237.36c5.63.17,11.26.14,16.88.02.09,3.3.11,6.6.08,9.9-5.66.11-11.32.14-16.98.04,0-3.32,0-6.64.02-9.96Z"/>
    <path class="st41" d="M81.22,248.36c3.8.03,7.59,0,11.38,0,.03,3.21.06,6.42.07,9.62-3.82.03-7.65.02-11.47-.01.02-3.21.02-6.41.02-9.61Z"/>
  </g>
  <g id="_x23_80a8deff">
    <path class="st21" d="M253.99,237.95c2.97-2.58,5.48-5.6,8.17-8.45,1.55.97,4.59,3.02,2.11,4.77-4.14,3.84-7.76,8.14-11.43,12.41-1.42-.92-3.29-1.65-3.58-3.54,1.1-2.11,3.01-3.61,4.73-5.19Z"/>
    <path class="st21" d="M334.92,236c.95-.98,2.13-1.68,3.32-2.34-.82,3.58-4.78,5.07-6.1,8.36-.28,2.01-.14,4.05-.12,6.08-1.29,1.27-2.59,2.53-3.91,3.76-1.64-.42-3.31-1.17-5.03-.86-3.31,1.63-5.07,5.64-8.94,6.23,6.48-7.5,13.92-14.08,20.78-21.23Z"/>
  </g>
  <g id="_x23_ebedf0ff">
    <path class="st91" d="M54.03,232.3c14.46.3,28.93-.05,43.39.1,0,8.54-.07,17.08.1,25.62-.02,1.63.09,3.33-.51,4.89-1.13.88-2.64.65-3.96.76-10.69,0-21.37-.1-32.05,0-2.33.04-4.68-.07-6.95-.66-.08-10.24-.07-20.48-.02-30.72M57.86,236c-.19,4.23-.28,8.47.18,12.69,6.36.06,12.72.1,19.08.09.26-4.25.23-8.52.03-12.78h-19.29M79.32,236.14c.31.3.94.89,1.25,1.18,3.78.42,7.62.23,11.42.24,1.1.07,1.91-.4,2.46-1.42-5.04-.22-10.1-.22-15.13,0M79.15,240.86c5.13.31,10.29.32,15.42-.02-2-1.95-5.03-.86-7.51-1.15-2.61.28-5.72-.74-7.91,1.17M79.36,243.17c.29.31.87.94,1.16,1.26,4.55.47,9.17.18,13.74.01-.33-.3-.99-.89-1.32-1.19-4.5-.46-9.06-.17-13.58-.08M80,247.07c-.09,4.05-.06,8.11-.02,12.17,4.61.16,9.23.16,13.84-.06.2-4.01.25-8.03.05-12.03-4.62-.18-9.25-.17-13.87-.08M57.17,251.18c.45.21,1.36.62,1.81.83,6.07.27,12.15.12,18.22.13l-.04-1.2c-6.66.08-13.34-.23-19.99.24M56.91,255.48c6.86.84,13.82.41,20.71.34-.28-.34-.84-1.02-1.12-1.36-4.16-.46-8.37-.08-12.55-.18-2.36.17-5.08-.46-7.04,1.2M56.84,258.23c3.71,1.99,8.13.62,12.14.99,2.95-.32,6.4.9,8.94-1.1-7.02-.15-14.08-.4-21.08.11Z"/>
  </g>
  <g id="_x23_98c6a0ff">
    <path class="st35" d="M753.27,232.23c1.65,0,3.32,0,4.99,0-.51,1.22-1.01,2.45-1.52,3.67-1.17-1.22-2.33-2.44-3.47-3.67Z"/>
    <path class="st35" d="M837.49,243.37c3.71-.21,7.8.3,10.04,3.67.77,1.75,1.41,3.57,2.11,5.37-.74,1.97-1.44,3.96-2.1,5.97-1.64,1.05-3.24,2.16-4.82,3.28-1.9-.05-3.81-.09-5.69-.13-1.58-1.21-3.16-2.41-4.73-3.61-.44-2.01-1.03-3.98-1.75-5.9.32-.57.96-1.7,1.27-2.26-.31-3.52,3.38-4.64,5.67-6.39M837.38,245.38c-5.14,2.05-6.39,9.69-1.89,13.05,4.32,4.08,12,.11,11.96-5.59.45-5.07-5.32-9.54-10.07-7.46Z"/>
    <path class="st35" d="M639.05,244.18c3.96.09,7.92.13,11.88.11.09,3.9.06,7.81.07,11.71-4,0-8,0-11.99,0,.01-3.94.01-7.87.04-11.81Z"/>
    <path class="st35" d="M723.16,255.05c1.59-1.18,2.6,1.77,1.41,2.7-1.6,1.16-2.69-1.78-1.41-2.7Z"/>
    <path class="st35" d="M648.52,257.45c3.97-.16,7.95-.18,11.93.07-.02,3.81-.03,7.63-.05,11.46-4.05.02-8.1.03-12.14-.1.14-3.81.21-7.62.26-11.43Z"/>
  </g>
  <g id="_x23_bbd1f2ff">
    <path class="st89" d="M311.54,237.55c1.32-1.33,2.6-2.7,3.86-4.09,1.13,1.4,2.29,2.79,3.45,4.18-1.28,1.07-2.54,2.15-3.81,3.23-1.16-1.11-2.33-2.22-3.5-3.32Z"/>
    <path class="st89" d="M744.88,250.91c1.49-2,3.19-4.56,6.1-4.01,4.2-.61,7.28,4.24,5.95,8.02-.88,4.83-8.21,5.95-10.79,1.98-1.46-1.65-1.09-3.97-1.26-5.99Z"/>
  </g>
  <g id="_x23_878987ff">
    <path class="st75" d="M588.23,234.25q.5.57,0,0Z"/>
  </g>
  <g id="_x23_f7cba2ff">
    <path class="st77" d="M421.15,239.32c.53-1.61,1.15-3.19,1.69-4.79.32,7.89.1,15.8.15,23.7-7.94-.1-15.88.24-23.81-.05-.25-.52-.75-1.58-1-2.11,7.17-.31,14.38.3,21.53-.26.26-.29.78-.88,1.04-1.17.64-5.08-.3-10.25.4-15.32Z"/>
  </g>
  <g id="_x23_696a66ff">
    <path class="st9" d="M561.17,235.23q.57.56,0,0Z"/>
  </g>
  <g id="_x23_70706cff">
    <path class="st13" d="M564.26,235.25q.56.55,0,0Z"/>
  </g>
  <g id="_x23_9d9f9dff">
    <path class="st81" d="M567.39,235.18c3-1.52.11,3.33,0,0Z"/>
  </g>
  <g id="_x23_7b7d7cff">
    <path class="st45" d="M581.27,235.29q.53.55,0,0Z"/>
  </g>
  <g id="_x23_959796ff">
    <path class="st46" d="M583.13,236.43c3.33.18-1.58,2.97,0,0Z"/>
  </g>
  <g id="_x23_9b9c99ff">
    <path class="st94" d="M562.15,237.12c2.93-1.65.26,3.32,0,0Z"/>
  </g>
  <g id="_x23_6b6f6dff">
    <path class="st80" d="M566.21,237.19q.6.52,0,0Z"/>
  </g>
  <g id="_x23_535653ff">
    <path class="st32" d="M576.35,237.25q.58.58,0,0Z"/>
  </g>
  <g id="_x23_8f918fff">
    <path class="st49" d="M571.09,238.44c3.33.16-1.56,2.99,0,0Z"/>
  </g>
  <g id="_x23_7f7d79ff">
    <path class="st84" d="M564.44,239.1q.54.55,0,0Z"/>
  </g>
  <g id="_x23_818380ff">
    <path class="st28" d="M576.09,240.29c3.34.08-1.5,3.02,0,0Z"/>
  </g>
  <g id="_x23_8b9b9fff">
    <path class="st57" d="M171.53,241.13c.58-.02,1.74-.07,2.32-.09.05.77.13,2.32.17,3.09,2.15,1.08,4.52,1.27,6.75.3.37.42,1.11,1.26,1.48,1.68-.34.57-1.01,1.7-1.35,2.27.45,1.18.89,2.35,1.34,3.53.66.11,2,.33,2.67.44.03,1.17.07,2.35.1,3.53-.7.08-2.09.24-2.79.32-1.01,2.05-1.5,4.28-.05,6.28-1.61,2.6-4.63-.61-6.65,1.15-1.19.68-1.36,2.19-1.94,3.32-.69,0-2.06.02-2.75.03-.29-1.03-.57-2.06-.85-3.09-2.17-1.05-4.42-.2-6.63-.29-.88-1.68-.03-3.71-.28-5.53.33-1.91-2.3-1.91-3.37-2.65.24-3,3.43-4.24,4.33-6.97-.46-.49-1.39-1.48-1.85-1.97.64-.78,1.28-1.56,1.92-2.34,2.9,2.31,6.69.39,7.43-3.01M170.44,247.5c-4.98,1.36-6.71,8.4-2.75,11.79,3.65,3.85,11.43,1.33,11.39-4.22,1.05-4.7-4.17-9.26-8.64-7.57Z"/>
  </g>
  <g id="_x23_789fd2ff">
    <path class="st47" d="M478.73,244.44c1.04-.51,2.1-1.02,3.15-1.52,1.07,1.8,2.15,3.6,3.17,5.44-2.38-.84-4.46-2.25-6.32-3.92Z"/>
  </g>
  <g id="_x23_444744ff">
    <path class="st44" d="M637.82,256c-.01-4.33-.04-8.67.06-13,6.39.09,12.79-.2,19.18.16.22.18.65.54.87.71.18,4.04.01,8.09.07,12.13,3.11,0,6.22,0,9.33-.02.54,4.68.42,9.42.01,14.11-12.42-.02-24.84.05-37.25-.07,0-4.54-.4-9.14.19-13.65,2.42-.74,5.03-.22,7.54-.37M639.05,244.18c-.03,3.94-.03,7.87-.04,11.81,3.99,0,7.99,0,11.99,0-.01-3.9.02-7.81-.07-11.71-3.96.02-7.92-.02-11.88-.11M652.4,244.35c-.04,3.87-.06,7.74-.08,11.61,1.44-.01,2.89-.01,4.35-.01-.03-3.87-.02-7.73-.02-11.59-1.43,0-2.84,0-4.25,0M631.4,257.38c0,3.84-.01,7.68-.04,11.52,4.11.1,8.22.1,12.34.01-.1-3.84-.12-7.69-.08-11.53-4.07.01-8.15,0-12.22,0M645.12,256.74c-.18,4.08-.11,8.17-.12,12.26.5,0,1.5-.01,2-.01-.1-3.82.24-7.67-.27-11.45-.4-.2-1.21-.6-1.61-.8M648.52,257.45c-.05,3.81-.12,7.62-.26,11.43,4.04.13,8.09.12,12.14.1.02-3.83.03-7.65.05-11.46-3.98-.25-7.96-.23-11.93-.07M662.04,257.2c-.09,3.93-.11,7.86-.03,11.8,1.33-.03,2.67-.06,4.01-.08.17-3.9.15-7.81-.01-11.71-1.33,0-2.66,0-3.97,0Z"/>
  </g>
  <g id="_x23_908a84ff">
    <path class="st38" d="M241.95,244.77c3.04,3,6,6.07,9.08,9.03-3.11-.35-6.22,0-9.13,1.19-.63-.63-1.26-1.25-1.88-1.88,1.16-2.64,1.81-5.46,1.93-8.34Z"/>
    <path class="st38" d="M207.78,259.21c1.76,1.35,3.41,2.84,4.94,4.46.21.23.64.68.85.9-.71.65-1.42,1.29-2.15,1.91-1.24,1-2.51,1.96-3.78,2.91.93-1.48,1.89-2.94,2.86-4.4-3.12.02-6.23.02-9.35.02v-1.18c3.16,0,6.31,0,9.46.05-.96-1.55-1.92-3.1-2.83-4.67Z"/>
    <path class="st38" d="M294.55,259.35c1.77,1.37,3.51,2.79,5.25,4.2,0,.34-.02,1.02-.03,1.36-1.42,1.36-2.88,2.71-4.57,3.76.17-1.4.99-2.58,1.7-3.75-.62.02-1.87.06-2.5.08-2.36.04-4.72.07-7.07.1.01-.31.02-.93.03-1.24,2.33-.08,4.67-.08,7-.03.74.02,2.21.05,2.94.07-.93-1.51-1.85-3.03-2.75-4.55Z"/>
  </g>
  <g id="_x23_434e46ff">
    <path class="st68" d="M837.38,245.38c4.75-2.08,10.52,2.39,10.07,7.46.04,5.7-7.64,9.67-11.96,5.59-4.5-3.36-3.25-11,1.89-13.05M837.36,247.17c-4.77,2.04-4.09,9.61.73,11.04,3.57,1.58,7.76-1.42,7.91-5.18.97-4.51-4.86-8.31-8.64-5.86Z"/>
  </g>
  <g id="_x23_262624ff">
    <path class="st69" d="M336.29,246.26c7.21-.46,14.46-.38,21.68-.17.39.25,1.17.77,1.57,1.03-7.17.28-14.38.31-21.54,0-.43-.22-1.29-.65-1.71-.86Z"/>
  </g>
  <g id="_x23_f8c79cff">
    <path class="st26" d="M586.48,245.37c3.07,2.06,1.21,5.97.7,8.85,2.93.24,6.13-.53,8.88.76.4,2.11-1.74,1.74-3.1,2.02l-.03.86,3.28.64c-.87,1.18-2.01,2.01-3.5,2.18.97.91,1.92,1.87,2.65,3.01-1.54.17-3.07.32-4.6.45,1.15.79,3.2.88,3.34,2.61-4.82,1.84-10.33.73-15.06-.91,0-3.13,0-6.26-.02-9.39,3.98-2.48,6.47-6.56,7.46-11.08Z"/>
  </g>
  <g id="_x23_373938ff">
    <path class="st24" d="M80,247.07c4.62-.09,9.25-.1,13.87.08.2,4,.15,8.02-.05,12.03-4.61.22-9.23.22-13.84.06-.04-4.06-.07-8.12.02-12.17M81.22,248.36c0,3.2,0,6.4-.02,9.61,3.82.03,7.65.04,11.47.01,0-3.2-.04-6.41-.07-9.62-3.79,0-7.58.03-11.38,0Z"/>
  </g>
  <g id="_x23_574d43ff">
    <path class="st20" d="M510.35,247.43c2.5-1.42,5.08,1.38,5.1,3.85-1.6-1.31-3.29-2.61-5.47-2.5-.17,2.37-.2,4.74-.1,7.11.56.29,1.7.88,2.27,1.17.66-.76,1.32-1.51,1.99-2.26-.71-.45-2.14-1.35-2.85-1.81,1.52,0,3.05.06,4.58.14-.4,2.98-2.25,5.69-5.65,5.02-.74-.76-1.49-1.52-2.23-2.27.25-2.82-1.14-7.19,2.36-8.45Z"/>
  </g>
  <g id="_x23_424b43ff">
    <path class="st18" d="M839.46,253.46c1.49-1.58,3.02-3.15,4.68-4.57-.17,3.13-3.22,4.8-5.15,6.86-1.21-1.32-2.37-2.69-3.43-4.12,1.31.58,2.6,1.19,3.9,1.83Z"/>
  </g>
  <g id="_x23_272625ff">
    <path class="st48" d="M559.19,250.25c1.62-.52,2.17.04,1.64,1.68-1.63.52-2.18-.04-1.64-1.68Z"/>
  </g>
  <g id="_x23_535453ff">
    <path class="st70" d="M816.26,253.03c1.49-1.13,2.74-2.64,4.58-3.24-1.13,2.08-2.72,3.86-4.26,5.64-1.49-.75-2.52-2.01-3.23-3.48.73.27,2.18.81,2.91,1.08Z"/>
  </g>
  <g id="_x23_191a19ff">
    <path class="st55" d="M57.17,251.18c6.65-.47,13.33-.16,19.99-.24l.04,1.2c-6.07,0-12.15.14-18.22-.13-.45-.21-1.36-.62-1.81-.83Z"/>
  </g>
  <g id="_x23_e8ba8fff">
    <path class="st58" d="M502.24,253.8c-.8-1.21-.6-2.1.6-2.69,1.93.15,1.28,4.03-.6,2.69Z"/>
  </g>
  <g id="_x23_94c09cff">
    <path class="st66" d="M645.12,256.74c.4.2,1.21.6,1.61.8.51,3.78.17,7.63.27,11.45-.5,0-1.5.01-2,.01.01-4.09-.06-8.18.12-12.26Z"/>
  </g>
  <g id="_x23_878989ff">
    <path class="st39" d="M121.34,259.34c1.96,1.41,3.86,2.92,5.44,4.76v.55c-1.68,1.72-3.53,3.25-5.42,4.71.85-1.49,1.73-2.95,2.63-4.4-3.17.07-6.33.15-9.49-.04l-.73-.07c.19-.24.59-.72.78-.95,3.23-.14,6.46-.09,9.69-.04-.99-1.5-1.96-3-2.9-4.52Z"/>
  </g>
  <g id="_x23_918c85ff">
    <path class="st65" d="M457.14,259.58c2.32.86,4.08,2.66,5.61,4.54l.02.54c-1.64,1.61-3.34,3.16-5.11,4.62.64-1.52,1.46-2.95,2.33-4.35-2.72.08-5.44.08-8.15.09l.03-1.31c2.77.08,5.53.15,8.31.27-1.06-1.44-2.11-2.88-3.04-4.4Z"/>
  </g>
  <g id="_x23_8b8b84ff">
    <path class="st67" d="M613.51,259.54c1.73,1.28,3.43,2.61,5.13,3.94v1.57c-1.79,1.64-3.71,3.14-5.8,4.38.97-1.51,1.99-2.97,3.04-4.43-1.22.03-2.44.04-3.64.04-1.72-.07-3.42-.21-5.1-.43,1.82-.41,3.67-.73,5.55-.77.91.04,2.74.11,3.66.15-.96-1.47-1.92-2.96-2.84-4.45Z"/>
  </g>
  <g id="_x23_8d8d88ff">
    <path class="st16" d="M699.14,259.54c2.05,1.23,3.99,2.66,5.55,4.49l.02.71c-1.75,1.55-3.51,3.09-5.3,4.58.85-1.46,1.73-2.9,2.63-4.34-3.09.03-6.17.03-9.25.04h-1.11v-1.04c.44-.01,1.32-.04,1.76-.05,2.89-.1,5.78-.1,8.69-.05-1.03-1.43-2.04-2.87-2.99-4.34Z"/>
  </g>
  <g id="_x23_8f9089ff">
    <path class="st50" d="M784.89,259.4c1.94,1.31,3.83,2.72,5.61,4.28v.9c-1.69,1.73-3.51,3.33-5.4,4.84.69-1.49,1.42-2.97,2.17-4.43-3.06.02-6.1.02-9.15.03l-.09-1.02c1.29-.01,2.59-.03,3.9-.03,1.97-.01,3.95-.08,5.93-.13-1.01-1.47-2.02-2.95-2.97-4.44Z"/>
  </g>
  <g id="_x23_46515eff">
    <path class="st51" d="M575.12,264.23c1.29.65,1.27,1.32-.06,2-1.31-.65-1.29-1.32.06-2Z"/>
  </g>
  <g id="_x23_dfc1a8ff">
    <path class="st73" d="M379.46,330.99c.12-3.17-.19-6.55,1.45-9.41.28,6.48-.19,12.97.31,19.44.07,2.93,2.84,5.1,5.7,4.83,19.36.16,38.74-.01,58.1.05,2.89.29,6.05-1.35,6.27-4.52,1.27-6.17-.18-12.55.98-18.75,1.48,4.32.82,8.95.92,13.42-.18,3.63,0,7.43-1.29,10.9-1.47,2.78-5.18,2.54-7.87,2.71-19.35-.07-38.71-.01-58.06-.12-3.24.22-6.15-2.53-6.46-5.68-.37-4.28-.05-8.58-.05-12.87Z"/>
  </g>
  <g class="st4">
    <g class="st4">
      <text class="st3" transform="translate(46.02 293.39)"><tspan x="0" y="0">Download </tspan><tspan x=".83" y="18">(Common </tspan><tspan x="12.29" y="36">Crawl)</tspan></text>
    </g>
  </g>
  <g class="st4">
    <g class="st4">
      <text class="st3" transform="translate(138.48 300.92)"><tspan x="0" y="0">WARC </tspan><tspan x="1.88" y="18">Parsing</tspan></text>
    </g>
  </g>
  <g class="st4">
    <g class="st4">
      <text class="st3" transform="translate(227.32 299.28)"><tspan x="0" y="0">Content </tspan><tspan x="-5.61" y="18">Extraction</tspan></text>
    </g>
  </g>
  <g class="st4">
    <g class="st4">
      <text class="st3" transform="translate(307.34 307.12)"><tspan x="0" y="0">Cleaning</tspan></text>
    </g>
  </g>
  <g class="st4">
    <g class="st4">
      <text class="st0" transform="translate(378.16 294.75)"><tspan x="0" y="0">Deduplication </tspan><tspan x="-2.51" y="15.6">(near-duplicate </tspan><tspan x="14.99" y="31.2">removal)</tspan></text>
    </g>
  </g>
  <g class="st4">
    <g class="st4">
      <text class="st3" transform="translate(465.45 297.83)"><tspan x="0" y="0">Language </tspan><tspan x="17.27" y="18">Split</tspan></text>
    </g>
  </g>
  <g class="st4">
    <g class="st4">
      <text class="st3" transform="translate(551.22 296.47)"><tspan x="0" y="0">Quality </tspan><tspan x="-1.46" y="18">Filtering</tspan></text>
    </g>
  </g>
  <g class="st4">
    <g class="st4">
      <text class="st3" transform="translate(628.67 297.72)"><tspan x="0" y="0">Training </tspan><tspan x="-3.54" y="18">Packaging</tspan></text>
    </g>
  </g>
  <g class="st4">
    <g class="st4">
      <text class="st3" transform="translate(710.2 298.42)"><tspan x="0" y="0">Evaluation</tspan></text>
    </g>
  </g>
  <g class="st4">
    <g class="st4">
      <text class="st3" transform="translate(793.56 299.8)"><tspan x="0" y="0">Validation /</tspan><tspan x="22.91" y="18" xml:space="preserve"> QA</tspan></text>
    </g>
  </g>
  <g class="st4">
    <g class="st4">
      <text class="st1" transform="translate(201.69 81.8)"><tspan x="0" y="0">Mini-C4 Data Processing Pipeline Overview</tspan></text>
    </g>
  </g>
  <g class="st4">
    <g class="st4">
      <text class="st2" transform="translate(85.35 164.18)"><tspan x="0" y="0">Text Extraction stage</tspan></text>
    </g>
  </g>
  <g class="st4">
    <g class="st4">
      <text class="st2" transform="translate(356.42 164.64)"><tspan x="0" y="0">Corpus Refinement stage</tspan></text>
    </g>
  </g>
  <g class="st4">
    <g class="st4">
      <text class="st2" transform="translate(648.08 164.3)"><tspan x="0" y="0">Training Delivery stage</tspan></text>
    </g>
  </g>
</svg>
