<?xml version="1.0" encoding="UTF-8"?>
<svg id="_图层_1" data-name="图层_1" xmlns="http://www.w3.org/2000/svg" version="1.1" viewBox="0 0 1672 941">
  <!-- Generator: Adobe Illustrator 29.6.0, SVG Export Plug-In . SVG Version: 2.1.1 Build 207)  -->
  <defs>
    <style>
      .st0 {
        fill: #e9e7f2;
      }

      .st1 {
        fill: #96d2dd;
      }

      .st2 {
        fill: #2812a1;
      }

      .st3 {
        fill: #01009a;
      }

      .st4 {
        fill: #0ec9e9;
      }

      .st5, .st6, .st7, .st8, .st9, .st10, .st11, .st12, .st13, .st14, .st15, .st16, .st17 {
        font-family: TimesNewRomanPS-BoldMT, 'Times New Roman';
        font-weight: 700;
        isolation: isolate;
      }

      .st5, .st14, .st15 {
        fill: #111;
      }

      .st5, .st17 {
        font-size: 15px;
      }

      .st18 {
        fill: #a0d6e1;
      }

      .st19 {
        fill: #170192;
      }

      .st20, .st7, .st13, .st17 {
        fill: #005474;
      }

      .st21 {
        fill: #f8f8fc;
      }

      .st22 {
        fill: #f5f5fd;
      }

      .st23 {
        fill: #05496e;
      }

      .st24 {
        fill: #130491;
      }

      .st25 {
        fill: #0c53d0;
      }

      .st6, .st8 {
        font-size: 24px;
      }

      .st6, .st11 {
        fill: #1b0c95;
      }

      .st26 {
        fill: #f8fdfd;
      }

      .st27 {
        fill: #0780ab;
      }

      .st28 {
        fill: #0851d7;
      }

      .st29 {
        fill: #9377e2;
      }

      .st30 {
        fill: #b29ee9;
      }

      .st7 {
        font-size: 19px;
      }

      .st31 {
        fill: #20089f;
      }

      .st32 {
        fill: #fff;
      }

      .st33 {
        fill: #f7f5fe;
      }

      .st34 {
        fill: #3922a7;
      }

      .st35 {
        fill: #1f129f;
      }

      .st36 {
        fill: #1a0595;
      }

      .st37 {
        fill: #3521a7;
      }

      .st38 {
        fill: #efeefe;
      }

      .st39 {
        fill: #f7f5fd;
      }

      .st40 {
        fill: #100387;
      }

      .st8, .st16 {
        fill: #063e9e;
      }

      .st41 {
        fill: #f8f7fc;
      }

      .st42 {
        fill: #d8f0fb;
      }

      .st43 {
        fill: #002188;
      }

      .st44 {
        fill: #27169d;
      }

      .st45 {
        fill: #0d008c;
      }

      .st46 {
        fill: #f6f5fe;
      }

      .st47 {
        fill: #9dd3de;
      }

      .st48 {
        fill: #381fa2;
      }

      .st49 {
        fill: #026383;
      }

      .st50 {
        fill: #08badb;
      }

      .st51 {
        fill: #341ea2;
      }

      .st9 {
        fill: #050b1e;
        font-size: 52px;
      }

      .st52 {
        fill: #1c0d96;
      }

      .st53 {
        fill: #0084ae;
      }

      .st54 {
        fill: #ebfafb;
      }

      .st55 {
        fill: #e8fbfd;
      }

      .st56 {
        fill: #f2fafc;
      }

      .st57 {
        fill: #f3f4fe;
      }

      .st58 {
        fill: #c6cee2;
      }

      .st59 {
        fill: #005d86;
      }

      .st10 {
        font-size: 17px;
      }

      .st10, .st12, .st60 {
        fill: #1d0e9f;
      }

      .st61 {
        fill: #003867;
      }

      .st62 {
        fill: #0853da;
      }

      .st63 {
        fill: #f9fafb;
      }

      .st64 {
        fill: #2a1598;
      }

      .st65 {
        fill: #0c008b;
      }

      .st66 {
        fill: #0e0088;
      }

      .st11, .st13 {
        font-size: 20px;
      }

      .st67 {
        fill: #14028e;
      }

      .st68 {
        fill: #dfd9f9;
      }

      .st69 {
        fill: #af9de7;
      }

      .st12 {
        font-size: 16px;
      }

      .st70 {
        fill: #1e0d9e;
      }

      .st71 {
        fill: #edfbfd;
      }

      .st72 {
        fill: #083097;
      }

      .st73 {
        fill: #2a18ab;
      }

      .st74 {
        fill: #121fa4;
      }

      .st75 {
        fill: #000079;
      }

      .st76 {
        fill: #00446a;
      }

      .st77 {
        fill: #f6f5fb;
      }

      .st78 {
        fill: #e6fbfd;
      }

      .st79 {
        fill: #fefefd;
      }

      .st80 {
        fill: #2a149e;
      }

      .st81 {
        fill: #3620a7;
      }

      .st14 {
        font-size: 14px;
      }

      .st82 {
        fill: #097d9f;
      }

      .st83 {
        fill: #007daa;
      }

      .st84 {
        fill: #022d99;
      }

      .st85 {
        fill: #1a089d;
      }

      .st86 {
        fill: #fffeff;
      }

      .st87 {
        fill: #3722a8;
      }

      .st88 {
        fill: #3721a5;
      }

      .st89 {
        fill: #1b5a7d;
      }

      .st15 {
        font-size: 13px;
      }

      .st90 {
        fill: #18058e;
      }

      .st91 {
        fill: #00008e;
      }

      .st92 {
        fill: #2a0d9a;
      }

      .st16 {
        font-size: 22px;
      }

      .st93 {
        fill: #00008f;
      }

      .st94 {
        fill: #190595;
      }

      .st95 {
        fill: #fdfdfe;
      }

      .st96 {
        fill: #f4fcfd;
      }

      .st97 {
        fill: #010077;
      }

      .st98 {
        fill: #d4effc;
      }

      .st99 {
        fill: #ad98e9;
      }

      .st100 {
        fill: #170990;
      }

      .st101 {
        fill: #fbfbfd;
      }

      .st102 {
        fill: #f2fbfe;
      }

      .st103 {
        fill: #fefdfe;
      }

      .st104 {
        fill: #1a0593;
      }

      .st105 {
        fill: #fefefe;
      }

      .st106 {
        fill: #28149b;
      }

      .st107 {
        fill: #fdfcfe;
      }

      .st108 {
        fill: #dee0e8;
      }

      .st109 {
        fill: #0c0191;
      }

      .st110 {
        fill: #003f66;
      }

      .st111 {
        fill: #1c0c92;
      }

      .st112 {
        fill: #19c2e8;
      }

      .st113 {
        fill: #f7f7fc;
      }

      .st114 {
        fill: #e7fbfd;
      }

      .st115 {
        fill: #003ec9;
      }

      .st116 {
        fill: #02466c;
      }

      .st117 {
        fill: #160b96;
      }

      .st118 {
        fill: #f3f8f6;
      }

      .st119 {
        fill: #291ca0;
      }

      .st120 {
        fill: #261299;
      }

      .st121 {
        fill: #f5fbfc;
      }
    </style>
  </defs>
  <g id="_x23_fefefeff">
    <path class="st105" d="M0,0h1672v941H0V0M41.33,114.38c-3.53,1.52-6.53,4.38-8.07,7.92-2.26,4.23-1.53,9.15-1.62,13.76.06,191.65-.05,383.31.04,574.96.98,6.79,7.03,13.37,14.3,12.79,112.35-.03,224.7.1,337.06-.03,7.4.74,13.76-5.74,14.62-12.77.35-4.35.08-8.73.21-13.08-.02-127.64-.05-255.28.01-382.92-.2-31.66.74-63.31.42-94.97.03-30.03.01-60.06.03-90.09-.14-5.91-3.04-11.92-8.26-14.95-3.35-2.03-7.41-1.19-11.12-1.39-109.99.17-219.99-.04-329.98.09-2.55.06-5.25-.48-7.64.68M554.84,114.93c-3.62,1.75-6.42,5.09-7.97,8.87-.88,8.38-.31,16.83-.44,25.25-.02,183.65-.01,367.31-.01,550.96-.04,5.43-.15,10.87.38,16.28.16.56.48,1.67.65,2.23l.99.07c1.59,2.27,3.71,4.39,6.25,5.53,6.07.74,12.2.42,18.3.46,94.69.01,189.36-.03,284.05.01,4.03-.1,8.1.26,12.09-.53,3.67-1.81,6.68-5.3,8.12-9.1.8-17.62.05-35.29.34-52.92-.03-177.66,0-355.32,0-532.97-.01-2.52-.42-5.03-1.52-7.31-2.05-4.15-6.34-7.21-11.02-7.34-100.37,0-200.74.02-301.12-.03-3.04-.07-6.09.04-9.09.54M995.74,130c-.22,74.65.13,149.31.23,223.96.3,7.37-.86,14.75.1,22.1.25,4.65.6,9.37-.18,13.99-.78,4,.67,7.98.4,12-.32,9.67-.84,19.37-.13,29.04.45,5.3.1,10.6-.33,15.88.14,88.34.09,176.68.08,265.02-.24,5.11.74,10.81,4.75,14.38,2.78,3.2,7.25,4.09,11.32,3.99,101.67-.07,203.34,0,305.01-.02,3.94.04,8.39,0,11.39-2.99,4.09-3.12,5.71-8.44,5.71-13.4-.09-17.97-.06-35.93-.1-53.9-.25-9.82.6-19.66-.33-29.45l.3-.53c-3.28-.45-7.28,1.09-10.08-.89,3.67-1,7.37.35,11.06-.12,11.68.01,23.4.13,35.11.11,8.53.12,17.15-1.11,25.62.15-.17,3.13-.18,6.27,0,9.41,1.46-.39,2.29-1.77,3.37-2.73,2.95-3.07,6.56-5.39,9.61-8.35,1.05-1.31-.62-2.24-1.44-2.97-3.61-3.03-7.05-6.25-10.6-9.33-.3-.02-.88-.07-1.18-.09-.1,3.14.76,6.46-.15,9.51-7.73-.46-15.5-.16-23.23-.23-16.04.17-32.08-.27-48.1.13l.18-.81c3.24-.51,6.52.03,9.8-.1.56-2.89.37-5.84.41-8.76-.02-56.92-.01-113.84,0-170.76,21-.73,42.08.15,63.1-.37.15,2.85-.32,5.74.25,8.56,3.27-2.12,5.9-5.29,9.04-7.69,1.42-1.44,3.53-2.38,4.29-4.37-4.36-3.89-8.67-8.04-13.48-11.23-.08,3.12-.12,6.24-.01,9.37-22.97-.01-45.95-.18-68.92.07,1.48-1.38,3.55-.68,5.39-.81l-.41-.38c.62-6.12.74-12.31.5-18.46.01-53.11.31-106.23.04-159.33l-.09-1.09c21.1.02,42.22-.21,63.31.11,0,3.09.07,6.19-.04,9.28,1.74-.15,2.49-1.96,3.8-2.88,3.34-2.7,6.51-5.59,9.79-8.37-.17-1.5-1.69-2.14-2.65-3.05-3.87-2.84-7.06-6.53-10.89-9.36-.05,3.04-.02,6.08.12,9.12-.39.09-1.18.28-1.58.38-15.97-.06-31.94.04-47.91-.02-7.91.2-15.89-.4-23.76.4v-.92c3.15-1.33,7.01.44,9.93-.72.12-40.82.01-81.66.07-122.48.2-7.25-4.62-15.33-12.21-16.34-103.98-.04-207.97,0-311.96-.03-8.48-.44-14.61,8.5-14.32,16.37M1414.75,208.09c.03,34.97-.01,69.94.01,104.91-.01,2.49-.22,5.04.64,7.44,1.38,5.24,6.08,9.8,11.63,10.13,72.96-.03,145.92.06,218.89,0,6.49-.01,11.41-5.97,12.25-12.05l.36.13c-.07-36.23.09-72.46-.03-108.69-.16-1.33.29-2.82-.41-4.02-.51-5.43-4.64-10.39-9.95-11.67-2.65-.87-5.45-.44-8.15-.54-70.67,0-141.33-.02-211.99,0-7.45.27-13.08,7.15-13.25,14.36M1425.18,378.24c-7.28,1.21-11.51,8.77-11.34,15.69.22,34.02-.04,67.96.01,102-.15,3.06.15,6.16,1.17,9.07,1.5,4.83,5.89,8.84,11.01,9.3,70.99-.02,141.98,0,212.97-.02,3.67-.18,7.59.7,11.02-1.07,5.21-2.16,8.11-7.84,8.37-13.27-.06-35.97.09-71.95-.06-107.92-.27-7.52-6.52-14.3-14.23-14.18-64.4-.12-128.78.06-193.16-.04-8.59.28-17.23-.48-25.76.44M527.99,426.99c-.47,2.94-.17,5.93-.19,8.89-40.67.19-81.35-.13-122.03.12-.07,1.44-.05,2.88.05,4.33,40.62.12,81.24,0,121.86.04.15,3.03.06,6.08.04,9.12l1.22.3c3.78-4.31,9.11-7.21,12.49-11.77-3.21-2.69-6.2-5.62-9.48-8.22-1.28-1.01-2.23-2.55-3.96-2.81M977.33,427.25c-.01,2.87.32,5.76-.04,8.63-3.42.06-6.83.3-10.24.22-18.35-.51-36.72.07-55.07-.19-10.86.18-21.76-.44-32.59.32,0,1.16-.02,2.33-.05,3.51l.21-.03c1.56,1.19,3.62.43,5.44.62,30.82.02,61.64-.07,92.47.03-.01,3.16.06,6.33-.1,9.49,1.46-.06,2.16-1.48,3.17-2.35,3.28-3.33,7.45-5.81,10.35-9.49-3.41-3.27-7.15-6.15-10.63-9.33-.86-.58-1.76-2.2-2.92-1.43M1423.4,562.61c-6.09,1.87-9.39,8.42-9.6,14.43.07,11.3.08,22.6.04,33.9.64,10.04-.09,20.05-.01,30.11.12,14.02-.1,28.03.1,42.05-.02,5.18,1.98,10.6,6.5,13.5,3.89,3.04,9.06,1.84,13.62,2.05,68.98-.05,137.96,0,206.94,0,2.99-.13,6.21.51,8.99-.96,4.97-2.15,7.85-7.5,8.37-12.7,0-36,.03-72-.02-108,.22-7.46-5.52-15.07-13.33-15.15-70.66-.04-141.32-.01-211.97,0-3.23.08-6.57-.44-9.63.77M1529.39,726.05c-.01,27.96-.01,55.93-.03,83.89-.14,9.75-3.61,19.8-11.04,26.4-5.54,4.58-12.39,8.13-19.68,8.3l-.34.63c-233.46-.08-467.17-.05-700.34-.06-10.65-.14-21.34.42-31.95-.43-7.65.84-15.37.22-23.04.43-152.05.04-304.13-.03-456.02.02-14.99-.15-30.02.34-44.98-.27-3.64.71-7.35-.16-10.97.06-11.04.63-21.95-3.68-30.64-10.37-6.22-5.16-11.25-11.92-13.66-19.68-1.42-4.53-1.03-9.29-1.07-13.95.05-16.03-.01-32.06-.02-48.08.03-1.74-.19-3.52.3-5.2,3.36-.04,6.72-.08,10.08.01-.02-1.07-.39-2.01-1.1-2.8-3.4-4.88-6.76-9.78-10.11-14.69-.73-.77-1.14-2.57-2.53-2.12-4.38,6.28-8.27,12.93-13,18.97,2.94,2.26,8.34-1.11,10.93,1.84.07,19.03.02,38.06.02,57.1-.33,12.38,6.3,24.18,15.63,31.98,9.75,8.7,23.15,13.25,36.19,12.71,418.99-.03,837.98,0,1256.97-.03,7.66.18,15.7-.02,22.68-3.6,10.75-4.4,18.63-14.41,21.58-25.53,1.96-7.01,1.38-14.34,1.48-21.52-.03-31.03.03-62.06.01-93.08-.14-1.51.3-3.15-.42-4.52-1.56.08-3.11.08-4.64-.01-.75,7.8-.11,15.74-.29,23.6Z"/>
    <path class="st105" d="M1425.38,380.5c23.52-.5,47.07-.06,70.61-.2,49.68.02,99.36-.02,149.04.02,6.49.04,11.26,6.53,11.25,12.68.04,35.34.06,70.68.02,106.02.29,6.29-4.7,13.02-11.34,12.83-72.67-.03-145.34.04-218.01-.02-6.61-.1-10.88-6.73-11.05-12.82-.18-17.32-.07-34.64-.07-51.95-.2-8.72.92-17.43.01-26.13-.04-8.98-.05-17.96-.02-26.94.1-5.86,3.53-12.06,9.56-13.49M1455.38,399.46c-1.9.43-4.17-.33-5.66,1.2-1.71.99-1.21,3.11-1.34,4.74-2.17.05-4.31-.02-6.44.04-3.45-.32-5.78,3.46-5.53,6.58-.02,19.64-.03,39.29,0,58.93.14,2.84,2.61,5.97,5.67,5.6,13.95-.09,27.91.06,41.86-.15,1.81-1.19,3.46-3.13,3.51-5.4-.06-19.68.03-39.37.07-59.05.18-2.53-1.4-4.82-3.4-6.2-2.84-.54-5.76-.17-8.61-.24-.24-1.6.25-3.59-1.21-4.72-1.4-1.78-3.76-.81-5.61-1.35-.33-7.24-12.87-7.24-13.31.02M1518.28,466.42c-2.74.97-4.64,3.76-4.66,6.65-.15,6.27-.07,12.56.05,18.83-.03,3.3,2.86,6.65,6.33,6.35,28.3.13,56.62.02,84.93.08,2.09-.07,4.41.29,6.29-.93,2.21-1.29,3.17-4,3.15-6.45-.04-5.97.07-11.94-.05-17.91-.1-3.69-3.54-7.39-7.39-6.9-20.97.14-41.94.11-62.9.02-8.58.32-17.21-.53-25.75.26Z"/>
  </g>
  <g id="_x23_dfd9f9ff">
    <path class="st68" d="M41.33,114.38c2.39-1.16,5.09-.62,7.64-.68,109.99-.13,219.99.08,329.98-.09,3.71.2,7.77-.64,11.12,1.39,5.22,3.03,8.12,9.04,8.26,14.95-.02,30.03,0,60.06-.03,90.09.32,31.66-.62,63.31-.42,94.97-.06,127.64-.03,255.28-.01,382.92-.13,4.35.14,8.73-.21,13.08-.86,7.03-7.22,13.51-14.62,12.77-112.36.13-224.71,0-337.06.03-7.27.58-13.32-6-14.3-12.79-.09-191.65.02-383.31-.04-574.96.09-4.61-.64-9.53,1.62-13.76,1.54-3.54,4.54-6.4,8.07-7.92M44.38,115.5c-7.37,2.09-12.26,9.95-11.07,17.5.06,192.36.04,384.72-.02,577.08.76,6.09,6.33,11.97,12.77,11.58,112.64.18,225.28-.07,337.92.09,3.81.18,7.56-2.07,9.46-5.34,3.31-4.45,2.31-10.24,2.39-15.41.06-87.34.05-174.7.04-262.05,0-100.64.34-201.32.23-301.99-.03-2.96.07-5.93-.12-8.89-.36-6.02-5.16-11.46-11.03-12.67-63.34-.15-126.68.02-190.02-.06-50.18.12-100.38-.21-150.55.16Z"/>
  </g>
  <g id="_x23_0853daff">
    <path class="st62" d="M554.84,114.93c3-.5,6.05-.61,9.09-.54,100.38.05,200.75.03,301.12.03,4.68.13,8.97,3.19,11.02,7.34,1.1,2.28,1.51,4.79,1.52,7.31,0,177.65-.03,355.31,0,532.97-.29,17.63.46,35.3-.34,52.92-1.44,3.8-4.45,7.29-8.12,9.1-3.99.79-8.06.43-12.09.53-94.69-.04-189.36,0-284.05-.01-6.1-.04-12.23.28-18.3-.46-2.54-1.14-4.66-3.26-6.25-5.53l-.99-.07c-.17-.56-.49-1.67-.65-2.23-.53-5.41-.42-10.85-.38-16.28,0-183.65-.01-367.31.01-550.96.13-8.42-.44-16.87.44-25.25,1.55-3.78,4.35-7.12,7.97-8.87M554.07,116.04c-5.09,1.65-7.47,7.81-7.51,12.92.02,194.36,0,388.72.02,583.07-.15,3.07,2.74,4.97,2.93,7.9,2.94,2.99,7.23,4.7,11.46,4.5,101.02.02,202.03-.03,303.05.01,1.75.04,3.49-.41,5.21-.75,2.47-1.19,4.82-3.03,5.83-5.79.57-2.74,2.76-4.97,2.37-7.92.02-190.65-.01-381.3,0-571.96-.1-5.1.61-10.4-1.18-15.29-1.13-1.54-2.63-2.82-3.25-4.69-2.69-1.17-4.78-3.78-7.99-3.47-102.01.03-204.02-.04-306.02.02-1.6.44-3.85-.04-4.92,1.45Z"/>
    <path class="st62" d="M1397.36,244.24c3.83,2.83,7.02,6.52,10.89,9.36.96.91,2.48,1.55,2.65,3.05-3.28,2.78-6.45,5.67-9.79,8.37-1.31.92-2.06,2.73-3.8,2.88.11-3.09.04-6.19.04-9.28-21.09-.32-42.21-.09-63.31-.11-3.26,0-6.51-.06-9.76,0-.05-1.46-.08-2.93-.05-4.39,7.87-.8,15.85-.2,23.76-.4,15.97.06,31.94-.04,47.91.02.4-.1,1.19-.29,1.58-.38-.14-3.04-.17-6.08-.12-9.12Z"/>
  </g>
  <g id="_x23_d4effcff">
    <path class="st98" d="M995.74,130c-.29-7.87,5.84-16.81,14.32-16.37,103.99.03,207.98,0,311.96.03,7.59,1.01,12.41,9.09,12.21,16.34-.06,40.82.05,81.66-.07,122.48-1.55-.21-2.23-1.03-2.04-2.47-.22-40.31.11-80.63-.09-120.94.17-5.55-3.49-10.54-8.41-12.8-2.63-1.46-5.73-.87-8.58-.93-102.33.04-204.67-.06-307,.03-5.22,1.99-9.6,6.88-10.06,12.61-.4,4.33-.15,8.69-.13,13.03.01,37.66.09,75.32-.05,112.97.27,32.7.2,65.4.13,98.09,0,8.64.79,17.29-.12,25.9-.68,7.35,1.2,14.68-.01,22.01-.08,11.69,1.03,23.4-.17,35.07.54,11.29.45,22.6.35,33.9.16,82.03-.21,164.06.19,246.07.03,6.05,4.15,12.99,10.81,13.05,103.7-.06,207.41.2,311.11-.06,5.25.04,9.79-4,11.11-8.94,1.06-3.57.55-7.35.69-11,.12-24,.1-47.99-.04-71.99.33-1.87-.61-4.82,1.81-5.48.93,9.79.08,19.63.33,29.45.04,17.97.01,35.93.1,53.9,0,4.96-1.62,10.28-5.71,13.4-3,3-7.45,3.03-11.39,2.99-101.67.02-203.34-.05-305.01.02-4.07.1-8.54-.79-11.32-3.99-4.01-3.57-4.99-9.27-4.75-14.38.01-88.34.06-176.68-.08-265.02.43-5.28.78-10.58.33-15.88-.71-9.67-.19-19.37.13-29.04.27-4.02-1.18-8-.4-12,.78-4.62.43-9.34.18-13.99-.96-7.35.2-14.73-.1-22.1-.1-74.65-.45-149.31-.23-223.96Z"/>
  </g>
  <g id="_x23_f7f5feff">
    <path class="st33" d="M44.38,115.5c50.17-.37,100.37-.04,150.55-.16,63.34.08,126.68-.09,190.02.06,5.87,1.21,10.67,6.65,11.03,12.67.19,2.96.09,5.93.12,8.89.11,100.67-.23,201.35-.23,301.99.01,87.35.02,174.71-.04,262.05-.08,5.17.92,10.96-2.39,15.41-1.9,3.27-5.65,5.52-9.46,5.34-112.64-.16-225.28.09-337.92-.09-6.44.39-12.01-5.49-12.77-11.58.06-192.36.08-384.72.02-577.08-1.19-7.55,3.7-15.41,11.07-17.5M44.38,333.05c-.07,73.32-.03,146.65-.02,219.97.04,2.05-.11,4.15.43,6.16-.4.15-1.2.45-1.6.6-.55-9.88.11-19.81-.25-29.7-.49-12.67,1.04-25.4-.37-38.01-1.28,4.14-.51,8.61-.84,12.89.36,18.02,0,36.05.16,54.07.02,1.7.46,3.37,1.07,4.96.99,1.61,3.49,1.99,3.87,4.05.12,1.87.11,3.75.41,5.62,3.6,2.03,7.65,3.28,11.79,3.38,101.99-.14,204,.01,305.99-.04,6.38-.77,8.46-7.5,12.68-11.27.56-2.14.45-4.42-.1-6.55-.69,1.69-1.08,4.41-3.39,4.53,1.46-3.36,2.25-7.05,2.07-10.72-.01-71.67,0-143.34.03-215.01-.06-3.15.27-6.38-.71-9.42-1.25-5.83-6.56-10.86-12.66-10.92-101.64.03-203.28-.02-304.91,0-7.98-.12-13.94,7.84-13.65,15.4Z"/>
  </g>
  <g id="_x23_f3f4feff">
    <path class="st57" d="M554.07,116.04c1.07-1.49,3.32-1.01,4.92-1.45,102-.06,204.01.01,306.02-.02,3.21-.31,5.3,2.3,7.99,3.47.62,1.87,2.12,3.15,3.25,4.69,1.79,4.89,1.08,10.19,1.18,15.29-.01,190.66.02,381.31,0,571.96.39,2.95-1.8,5.18-2.37,7.92-1.01,2.76-3.36,4.6-5.83,5.79-1.72.34-3.46.79-5.21.75-101.02-.04-202.03.01-303.05-.01-4.23.2-8.52-1.51-11.46-4.5-.19-2.93-3.08-4.83-2.93-7.9-.02-194.35,0-388.71-.02-583.07.04-5.11,2.42-11.27,7.51-12.92M566.04,320.96c-5.57,2.7-8.58,9-8.34,15.03-.11,70.65,0,141.31-.04,211.97-.32,5.69-.03,11.87,3.84,16.44-.56.2-1.69.6-2.25.81.54,4.26,5.33,5.85,8.95,6.66,3.24,1.95,7.12,1.59,10.72,1.18,3.22-1.23,6.71-.64,10.08-.71,13.34,0,26.69.05,40.04-.02,5.8,1.54,12.08,1.37,17.89.01,10.68.12,21.34.02,32.02.06,4.79,1.8,10.03.56,15.03.88,5.54-2.09,11.41-.26,17.02-.09,5.19-1.98,10.8.03,16-.84,6.15,1.84,12.77.95,18.99-.04,3.82-.59,7.49,2.07,11.16.12,20.27-.19,40.56.03,60.84-.08,3.66.04,7.42-.38,10.96.84,5.02-.06,10.21.81,15.09-.72,3.62-.39,8.78.26,10.96-3.28-.58-.32-1.73-.95-2.3-1.27,4.97-1.78,7.94-6.89,8.44-11.97.38-1.62.17-3.3.24-4.93-.02-69.34.02-138.68-.02-208.02-.15-5,.8-10.32-1.53-14.97-2.12-4.62-6.65-8.1-11.82-8.27-88.68.02-177.37-.02-266.05.02-1.72.11-3.6-.48-5.17.43l-.79-.47c-3.36-.21-6.79.04-9.96,1.23Z"/>
  </g>
  <g id="_x23_f2fbfeff">
    <path class="st102" d="M997.98,127.98c.46-5.73,4.84-10.62,10.06-12.61,102.33-.09,204.67,0,307-.03,2.85.06,5.95-.53,8.58.93,4.92,2.26,8.58,7.25,8.41,12.8.2,40.31-.13,80.63.09,120.94-.19,1.44.49,2.26,2.04,2.47-2.92,1.16-6.78-.61-9.92.72v.92c-.04,1.46-.01,2.93.04,4.39,3.25-.06,6.5,0,9.76,0l.09,1.09c-1.68.03-2.43.82-2.25,2.38.25,51.01.02,102.02.11,153.03-.04,7.15-.16,14.32.39,21.47.3.22.91.68,1.21.91l.41.38c-1.84.13-3.91-.57-5.39.81.05,1.48.09,2.97.15,4.47,22.74.15,45.49-.06,68.24.1l.44.72c-21.02.52-42.1-.36-63.1.37-.01,56.92-.02,113.84,0,170.76-.04,2.92.15,5.87-.41,8.76-3.28.13-6.56-.41-9.8.1l-.18.81-.24,1.11c.04.85.13,2.55.17,3.4,2.8,1.98,6.8.44,10.08.89l-.3.53c-2.42.66-1.48,3.61-1.81,5.48.14,24,.16,47.99.04,71.99-.14,3.65.37,7.43-.69,11-1.32,4.94-5.86,8.98-11.11,8.94-103.7.26-207.41,0-311.11.06-6.66-.06-10.78-7-10.81-13.05-.4-82.01-.03-164.04-.19-246.07.1-11.3.19-22.61-.35-33.9,1.2-11.67.09-23.38.17-35.07,1.21-7.33-.67-14.66.01-22.01.91-8.61.12-17.26.12-25.9.07-32.69.14-65.39-.13-98.09.14-37.65.06-75.31.05-112.97-.02-4.34-.27-8.7.13-13.03M1018.37,184.56c-4.01.93-7.65,3.58-9.25,7.45-1.94,3.73-1.44,8.01-1.48,12.05-.11,41.97.26,83.93.15,125.9.02,6.82,5.06,14.07,12.19,14.62,94.68-.07,189.37.04,284.06-.05,4.64-.11,8.77-3.46,10.73-7.54,2.51-5.32,1.29-11.34,1.58-17-.23-12.33.48-24.69-.53-36.98-.04-28.33-.23-56.66-.18-84.99.22-6.53-4.97-13.09-11.61-13.6-41.02-.09-82.04-.04-123.07-.03-54.19.1-108.4-.21-162.59.17M1017.18,346.53c96.52.09,193.03-.01,289.58.01-44.26-.24-88.53-.01-132.8-.1-52.29.03-104.49-.15-156.78.09M1009.46,378.96c-.82,4.27-.58,8.64-.66,12.97.08,36.69-.07,73.38-.06,110.07.25,6.76-.58,13.65.41,20.33,1.12,5.69,5.88,11.01,11.91,11.26,95.64,0,191.28-.02,286.92,0,6.46.31,11.9-5.27,12.94-11.4.76-6.32.22-12.85.39-19.25-.06-40.31.04-80.61,0-120.92.02-6.83-5.34-13.75-12.33-14.38-95.66,0-191.33-.05-286.99-.01-6.24-.04-11.66,5.3-12.53,11.33M1304.07,556.16c-93.68.01-187.36-.04-281.04.02-4.97-.43-9.91,2.42-12.15,6.84-2.43,4.6-2.01,9.98-2.03,15.01.24,27.32-.31,54.69.22,82.01-.28,13.62-.22,27.29.2,40.94.6,5.06,4.03,10.16,9.04,11.65-.53.44-1.59,1.33-2.12,1.77,2.57,1.86,5.8,1.67,8.82,1.47,15.34-.14,30.67.49,46.01.05,53.65.12,107.3,0,160.95.11,25.19-.27,50.41.18,75.6-.32l.3-.58-.75.03-.42-1.35.52-.62c5.09-1.3,9.84-5.67,10.34-11.02,1.02-2.59.45-5.41.59-8.11-.09-9.35.27-18.72-.29-28.05.46-3.32.33-6.66-.01-9.97.38-3.65.47-7.34.09-10.99-.47-5.34.41-10.65.24-15.99-.04-19.7.04-39.39-.04-59.09.24-7.48-6.43-14.59-14.07-13.81Z"/>
  </g>
  <g id="_x23_00008eff">
    <path class="st91" d="M1018.37,184.56c54.19-.38,108.4-.07,162.59-.17,41.03,0,82.05-.06,123.07.03,6.64.51,11.83,7.07,11.61,13.6-.05,28.33.14,56.66.18,84.99,1.01,12.29.3,24.65.53,36.98-.29,5.66.93,11.68-1.58,17-1.96,4.08-6.09,7.43-10.73,7.54-94.69.09-189.38-.02-284.06.05-7.13-.55-12.17-7.8-12.19-14.62.11-41.97-.26-83.93-.15-125.9.04-4.04-.46-8.32,1.48-12.05,1.6-3.87,5.24-6.52,9.25-7.45M1019.34,186.54c-5.6.76-9.32,6.14-9.69,11.49-.23,44,.1,87.99.16,131.98.18,6.04,4.79,12.15,11.15,12.35,93.34.05,186.69-.04,280.03.03,3.38.37,6.92-.69,9.42-3.04,3.03-3.33,4.36-7.97,4.05-12.42-.24-15.65.44-31.33-.66-46.95-.27-3.69.79-7.35.03-11.01-.33-23.67-.07-47.34-.17-71.01-.11-6-5.37-12.14-11.68-11.54-94.22.14-188.44-.11-282.64.12Z"/>
    <path class="st91" d="M1008.8,391.93c.08-4.33-.16-8.7.66-12.97.42.29,1.24.89,1.66,1.18-.24,1.26-.36,2.52-.36,3.8.17,45.34-.19,90.68.03,136.02-.55.79-1.09,1.58-1.64,2.37-.99-6.68-.16-13.57-.41-20.33-.01-36.69.14-73.38.06-110.07Z"/>
    <path class="st91" d="M1304.07,556.16c7.64-.78,14.31,6.33,14.07,13.81.08,19.7,0,39.39.04,59.09.17,5.34-.71,10.65-.24,15.99.38,3.65.29,7.34-.09,10.99.34,3.31.47,6.65.01,9.97.56,9.33.2,18.7.29,28.05-.14,2.7.43,5.52-.59,8.11-.44-.32-1.31-.95-1.74-1.27.89-9.89.17-19.89.42-29.83,0-32.69-.11-65.37.01-98.06.25-5.04-1.66-10.52-6.06-13.31-3-2.05-6.79-1.27-10.18-1.39-92.35.01-184.71,0-277.06.02-6.83-.56-12.19,6.08-11.77,12.59-.74,38.34-.09,76.72-.33,115.07.3,6.37-1.14,13.23,1.97,19.12,1.96,3.83,6.19,6.05,10.45,5.85-1.45.66-2.9,1.29-4.4,1.76l-.56-.09c-5.01-1.49-8.44-6.59-9.04-11.65-.42-13.65-.48-27.32-.2-40.94-.53-27.32.02-54.69-.22-82.01.02-5.03-.4-10.41,2.03-15.01,2.24-4.42,7.18-7.27,12.15-6.84,93.68-.06,187.36-.01,281.04-.02Z"/>
  </g>
  <g id="_x23_ffffffff">
    <path class="st32" d="M1019.34,186.54c94.2-.23,188.42.02,282.64-.12,6.31-.6,11.57,5.54,11.68,11.54.1,23.67-.16,47.34.17,71.01.76,3.66-.3,7.32-.03,11.01,1.1,15.62.42,31.3.66,46.95.31,4.45-1.02,9.09-4.05,12.42-2.5,2.35-6.04,3.41-9.42,3.04-93.34-.07-186.69.02-280.03-.03-6.36-.2-10.97-6.31-11.15-12.35-.06-43.99-.39-87.98-.16-131.98.37-5.35,4.09-10.73,9.69-11.49M1033.16,213.29c-2.67,1.01-4.25,3.9-3.93,6.7-.05,23.5.04,47,.09,70.5-3.36-.14-6.08,3.29-5.65,6.5.02,5.64-.09,11.29.07,16.94.05,2.44,2.01,4.46,4.15,5.4,12.01-.02,24.03-.04,36.05.03,2.67.25,4.71-2.14,5.45-4.48,7.56-.6,15.31,1.6,22.75-.58,3.88-2.5,2.48-7.52,2.69-11.37-.37-5.65.62-11.3-.1-16.9-.16-15.7-.45-31.4-.4-47.1-.5-3.01-3.24-4.99-4.99-7.32-5.83-5.85-10.93-12.37-16.77-18.2-8.1-.78-16.38.04-24.55-.24-4.96.04-9.92-.26-14.86.12M1117.27,282.31c-.13.42-.39,1.25-.52,1.67,58.86.1,117.72.08,176.59.02-.1-.43-.29-1.3-.38-1.73-58.56-.08-117.13-.12-175.69.04Z"/>
    <path class="st32" d="M1039.49,300.27c1.83-.09,3.71.13,5.47-.66,5.25.61,5.19,9.57.11,10.59-.92-.35-1.84-.69-2.75-1.02,0,1.48.22,3.04-.63,4.35-.56-.02-1.69-.06-2.25-.08-.22-4.4.01-8.79.05-13.18M1042.77,307.29c3.23,1.62,4.03-3.47,1.98-5.03-2.98-.42-2.72,3.17-1.98,5.03Z"/>
    <path class="st32" d="M56.14,320.3c102.3-.18,204.6-.02,306.89-.08,6.67-.26,11.25,6.74,11.31,12.83-.02,73.98.01,147.97-.01,221.95.11,6.35-4.71,12.81-11.32,13.19-100.65-.02-201.3-.02-301.96,0-3.64.31-7.56-.3-10.36-2.83-2.72-2.69-4.28-6.54-4.32-10.36-.03-73.67,0-147.35,0-221.02-.19-5.98,3.41-12.78,9.78-13.68M68.05,372.23c-2.38.56-4.06,3.06-4.53,5.32-.38,30.85-.11,61.73-.17,92.59-2.8,1.11-5.27,3.68-5.19,6.86.09,7.32-.74,14.66.09,21.97.28,2.48,2.35,4.47,4.64,5.27,13.72.17,27.45.1,41.17.05,2.98-.71,5.02-3.51,5.15-6.52,8.21-.07,16.43.15,24.64,0,2.57-1.14,4.16-3.94,3.93-6.73-.16-29.66.21-59.34-.14-89l-.2-.98c-7.07-8.74-14.41-17.27-21.45-26.03-1.29-1.52-2.78-3.23-4.96-3.18-14.33.04-28.67-.36-42.98.39M168.95,464.25c-.06.48-.18,1.44-.24,1.92,17.1.37,34.24.05,51.36.18,46.41-.15,92.84.24,139.24-.21-.12-.46-.35-1.36-.47-1.82-63.29-.15-126.59-.08-189.89-.07Z"/>
    <path class="st32" d="M560.79,329.77c1.45-3.84,4.88-7.43,9.23-7.48,5.09-.08,10.19.06,15.28-.11,87.91.2,175.82,0,263.73.12,6.76.17,10.65,7.64,10.44,13.73-.09,73.36.11,146.73-.09,220.09-1.28,5.64-6.2,11.02-12.37,10.45-92.88-.04-185.76.16-278.64-.11-5.71-1.84-9.03-7.67-8.75-13.52-.04-69.99.01-139.98.01-209.98.11-4.4-.63-9.02,1.16-13.19M575.36,382.96c.11,29.35,0,58.69.09,88.04-2.97.93-4.69,4.02-4.77,7-.11,6.67.02,13.35.03,20.02-.04,3.29,2.77,6.86,6.3,6.38,12.31-.1,24.62-.09,36.93-.05,3.17-.12,4.76-3.46,5.19-6.21,7.29-.04,14.59.19,21.87-.02.34-.16,1-.48,1.34-.63,2.6-1.33,3.6-4.71,3.44-7.48-.02-27.69,0-55.37-.02-83.06.26-3.66-2.51-6.39-4.65-8.98-5.5-7.17-11.36-14.05-16.99-21.12-.92-1.36-2.51-2.31-4.18-2.11-6.65.08-13.3.01-19.94.07-6.64,1.3-13.4-1.09-20,.41-3.31.81-4.84,4.61-4.64,7.74M669.7,455.78l-.21,1.37c36.14.43,72.3,0,108.44.18,22.7-.19,45.42.31,68.1-.24l-.27-1.19c-4.21-.56-8.5-.2-12.73-.33-54.44.2-108.89-.29-163.33.21Z"/>
    <path class="st32" d="M1011.12,380.14c1.1-5.63,5.98-10.37,11.88-10.38,94.67.02,189.35-.04,284.02-.02,7.03-.23,12.58,6.54,12.38,13.29-.14,45.99.2,92-.16,137.98-1.06,5.36-5.41,10.56-11.24,10.43-95.35.04-190.71.03-286.06-.03-6.16-.12-10.78-5.51-11.15-11.45-.22-45.34.14-90.68-.03-136.02,0-1.28.12-2.54.36-3.8M1032.46,396.58c-2.24,1.31-3.83,3.77-3.77,6.4.23,24.19-.17,48.38.17,72.57-3.06-.49-5.74,2.55-5.73,5.45.06,6.02-.51,12.02-.16,18.04.32,2.54,2.27,5.03,4.95,5.25,11.7,0,23.4,0,35.09-.05,2.47-.27,4.07-2.65,4.74-4.84,6.73,0,13.48.26,20.22-.02,2.97-1.17,4.27-4.41,4.18-7.41.02-22.34-.04-44.67.01-67-.08-2.14-.33-4.49-1.96-6.04-5-5.7-10.01-11.38-14.9-17.17-1.5-1.71-2.75-3.73-4.74-4.9l.32-.36c-12.81-.07-25.62-.07-38.42.08M1116.37,483.47l.04.88c59.02-.12,118.05-.11,177.06-.03.04-.2.11-.6.14-.8-59.08,0-118.16.07-177.24-.05Z"/>
    <path class="st32" d="M93.91,481.86c.92-.1,1.84-.2,2.76-.31-.59,4.79-2.74,9.4-4.27,14.01-.74,2.2-3.13,2.33-5.08,2.16.03-.53.08-1.58.11-2.11.58-.23,1.75-.7,2.34-.93.45-4.54-3.17-8.59-3.09-12.87,5-1.79,2.53,5.89,5.82,5.94.16-2.04.9-3.94,1.41-5.89Z"/>
    <path class="st32" d="M587.33,482.18c1.96-.05,3.97.83,5.72-.53,4.99.97,5.7,8.63,2.04,11.52-1.38,1.35-3.37.37-4.95.05.01,1.54.18,3.14-.43,4.62-.61,0-1.83.01-2.44.01-.12-5.23.04-10.45.06-15.67M591.97,491.52c3.18-.88,3.36-6.22.04-7.13-2.42,1.33-2.8,5.95-.04,7.13Z"/>
    <path class="st32" d="M1038.77,484.65c2.47.71,5.5-1.08,7.54.94,2.18,2.19,2.25,6.56-.33,8.5-1.28,1.36-3.19.6-4.69.19.21,1.91.38,5.49-2.67,3.9-.36-4.5-.01-9.03.15-13.53M1043.6,492.56c1.94-.78,1.21-3.64.97-5.26-3.89-1.94-4.75,5.48-.97,5.26Z"/>
    <path class="st32" d="M582.3,490.29c1.04.03,2.09.08,3.14.14.41,2.18-.64,4.13-3.12,3.27-.05-1.15-.05-2.28-.02-3.41Z"/>
    <path class="st32" d="M1011.18,570.92c-.42-6.51,4.94-13.15,11.77-12.59,92.35-.02,184.71-.01,277.06-.02,3.39.12,7.18-.66,10.18,1.39,4.4,2.79,6.31,8.27,6.06,13.31-.12,32.69-.01,65.37-.01,98.06-.25,9.94.47,19.94-.42,29.83-1,5.11-5.28,10.02-10.8,9.9-93.91.15-187.84-.17-281.75.16-4.26.2-8.49-2.02-10.45-5.85-3.11-5.89-1.67-12.75-1.97-19.12.24-38.35-.41-76.73.33-115.07M1028.77,589.95c.03,21,.02,42.01,0,63.01.07,1.81-.35,3.71.41,5.45-3.09.03-5.9,2.4-6.19,5.53-.31,5,.18,10.02-.08,15.03-.35,2.98.76,7.13,4.16,7.75,10.97.32,21.99-.46,32.94.49,3.23.39,6.97-1.19,7.58-4.69,7-.06,14.01.02,21.02-.09,2.11-1.49,3.66-3.77,3.53-6.44.04-20.32-.07-40.63.05-60.95-.08-2.83.1-5.78-.83-8.48-4.02-4.91-8.55-9.39-12.73-14.16-2.86-3-5.13-6.83-8.54-9.13-12.04-.02-24.08-.04-36.12.02-3.3-.03-5.21,3.74-5.2,6.66M1116.02,653.97c33.33.3,66.67.05,100.01.14,25.94-.17,51.92.36,77.84-.27.19-3.04-3.98-1.58-5.84-1.84-57.05.3-114.11.1-171.15.11-.21.46-.64,1.39-.86,1.86Z"/>
    <path class="st32" d="M1426.31,564.41c72.54-.19,145.08.01,217.61-.09,6.57-.74,12.13,5.39,12.35,11.67.21,35.67,0,71.35.06,107.02.12,6.06-4.02,12.75-10.4,13.47-71.29.05-142.58.04-213.87.03-4.04.18-8.65.36-11.65-2.85-4.27-3.59-4.53-9.48-4.62-14.62.01-34.03.03-68.05.03-102.08.13-5.95,4.29-11.91,10.49-12.55M1440.21,579.31c-2.45,1.14-3.9,3.95-3.76,6.61-.11,22.71.06,45.42-.08,68.14-.27,3.13,2.15,6.91,5.62,6.47,13.66-.05,27.33-.02,40.99-.04,2.65-.81,4.19-3.81,3.92-6.49-.05-11.02-.1-22.03.19-33.04-.91-7.1.83-14.38-.64-21.35-4.14-6.07-9.5-11.24-13.96-17.08-1.28-1.35-2.23-3.71-4.45-3.38-9.28.09-18.58-.25-27.83.16M1516.19,651.17c-2.34,1.44-4.08,3.94-4.07,6.76-.22,6.03-.26,12.09.09,18.12-.01,2.57,1.37,5.06,3.6,6.36,2.61.88,5.44.35,8.16.47,7.67.36,15.35.51,23.04.33,27.35-.54,54.7.27,82.04-.11,3.39-.36,5.54-3.78,5.65-6.96.38-6.39.21-12.79-.09-19.17-.26-3.27-3.17-6.52-6.58-6.31-35.67-.03-71.34.01-107-.03-1.63.11-3.37-.23-4.84.54Z"/>
    <path class="st32" d="M1048.21,668.64c2.58-3.39,3.9,2.48,4.2,4.42,2.19-1.04.84-4.82,3.46-5.63,2.52.53.01,3.74-.16,5.34-1.45,3.31-1.77,10.08-7.1,8.28.02-1.92,2.83-2.07,2.66-4.02-.9-2.84-1.85-5.67-3.06-8.39Z"/>
  </g>
  <g id="_x23_0084aeff">
    <path class="st53" d="M1414.75,208.09c.17-7.21,5.8-14.09,13.25-14.36,70.66-.02,141.32,0,211.99,0,2.7.1,5.5-.33,8.15.54,5.31,1.28,9.44,6.24,9.95,11.67-.43.28-1.27.84-1.7,1.12-.78-4.57-3.72-8.88-8.2-10.44-7.66-1.36-15.46-.7-23.18-.84-8.02.14-16.05-.35-24.03.45-9.67-1.36-19.38.72-29.04-.35-7.64.53-15.35.55-22.97-.06-10.68,1.13-21.33-.63-32,.2-2.67.44-5.35.12-7.99-.16-8.64.61-17.33.24-25.99.36-7.7.29-15.37-1.09-23.04-.09-10.68-1.06-21.35.37-32.02.11-6.5-.05-11.23,6.59-11.19,12.69,0,35.01.07,70.03-.01,105.04-.19,4.8,1.65,9.96,5.8,12.69,4.33,2.73,9.62,1.44,14.44,1.75,69.01.02,138.02,0,207.03-.02,6.1.4,11.37-4.72,12.32-10.55.46.17,1.38.51,1.85.68-.84,6.08-5.76,12.04-12.25,12.05-72.97.06-145.93-.03-218.89,0-5.55-.33-10.25-4.89-11.63-10.13-.86-2.4-.65-4.95-.64-7.44-.02-34.97.02-69.94-.01-104.91Z"/>
  </g>
  <g id="_x23_fffeffff">
    <path class="st86" d="M1416.74,208.93c-.04-6.1,4.69-12.74,11.19-12.69,10.67.26,21.34-1.17,32.02-.11,7.67-1,15.34.38,23.04.09,8.66-.12,17.35.25,25.99-.36,2.64.28,5.32.6,7.99.16,10.67-.83,21.32.93,32-.2,7.62.61,15.33.59,22.97.06,9.66,1.07,19.37-1.01,29.04.35,7.98-.8,16.01-.31,24.03-.45,7.72.14,15.52-.52,23.18.84,4.48,1.56,7.42,5.87,8.2,10.44.06,36.92.11,73.86-.07,110.78-.95,5.83-6.22,10.95-12.32,10.55-69.01.02-138.02.04-207.03.02-4.82-.31-10.11.98-14.44-1.75-4.15-2.73-5.99-7.89-5.8-12.69.08-35.01.01-70.03.01-105.04M1440.27,213.26c-2.01,1.07-3.13,3.43-3.03,5.66-.03,22.37.06,44.75-.03,67.13-.13,3.01,2.53,6.24,5.74,5.77,13.04-.05,26.08.09,39.12.07,3.23.51,5.58-3.05,5.42-5.94-.09-17.32.03-34.65-.12-51.97-.64-2.46-2.69-4.14-4.27-5.99-4.53-4.81-8.45-10.24-13.21-14.79-7.55-.78-15.26-.24-22.87-.42-2.25.18-4.68-.46-6.75.48M1517.23,283.3c-2.44,1.24-4.02,3.91-3.91,6.64-.18,6.04-.23,12.08-.02,18.12-.05,3.19,2.45,6.43,5.76,6.62,27.98.13,55.99.24,83.97-.04,2.84-.76,5.13-3.58,4.92-6.6.18-6.03.21-12.08-.01-18.1.22-3.76-3.1-7.62-6.96-7.34-23,.04-45.99,0-68.99,0-4.91.25-10.01-.58-14.76.69Z"/>
  </g>
  <g id="_x23_097d9fff">
    <path class="st82" d="M1656.39,207.06c.43-.28,1.27-.84,1.7-1.12.7,1.2.25,2.69.41,4.02.12,36.23-.04,72.46.03,108.69l-.36-.13c-.47-.17-1.39-.51-1.85-.68.18-36.92.13-73.86.07-110.78Z"/>
  </g>
  <g id="_x23_1c0c92ff">
    <path class="st111" d="M1033.16,213.29c4.94-.38,9.9-.08,14.86-.12,8.17.28,16.45-.54,24.55.24,5.84,5.83,10.94,12.35,16.77,18.2,1.75,2.33,4.49,4.31,4.99,7.32-.05,15.7.24,31.4.4,47.1.72,5.6-.27,11.25.1,16.9-.21,3.85,1.19,8.87-2.69,11.37-7.44,2.18-15.19-.02-22.75.58l.22-.44c.7-.39,1.45-.74,2.22-1.04-1-.32-1.99-.64-2.96-.95h.65c6.86.05,13.73-.01,20.6,0,3.05-.68,2.54-4.11,2.56-6.45-.15-15.99.03-31.98-.39-47.96-.19-6.26.39-12.59-.39-18.82-5.64.06-11.27.07-16.9,0-2.63.01-4.69-2.67-4.47-5.19-.1-6.12-.02-12.25-.1-18.38-12.17-.04-24.35-.16-36.52.02-1.34.54-2.6,1.81-2.52,3.34-.23,23.76.29,47.52-.08,71.27-.5.05-1.49.15-1.99.2-.05-23.5-.14-47-.09-70.5-.32-2.8,1.26-5.69,3.93-6.7M1073.15,217.95c-.43,5.35-.32,10.73-.32,16.1.23.57.69,1.73.92,2.31,5.33.45,10.7-.09,16.05.14-5.07-6.58-10.86-12.65-16.65-18.55Z"/>
  </g>
  <g id="_x23_05496eff">
    <path class="st23" d="M1440.27,213.26c2.07-.94,4.5-.3,6.75-.48,7.61.18,15.32-.36,22.87.42,4.76,4.55,8.68,9.98,13.21,14.79,1.58,1.85,3.63,3.53,4.27,5.99.15,17.32.03,34.65.12,51.97.16,2.89-2.19,6.45-5.42,5.94-13.04.02-26.08-.12-39.12-.07-3.21.47-5.87-2.76-5.74-5.77.09-22.38,0-44.76.03-67.13-.1-2.23,1.02-4.59,3.03-5.66M1441.17,216.21c-1.32.79-1.52,2.42-1.39,3.81-.08,21.67.03,43.34.04,65.01-.28,1.79,1.05,4.23,3.14,3.79,12.99-.15,25.99-.17,38.98-.16,1.56.3,2.86-1.23,2.78-2.73.11-16.87-.1-33.75-.01-50.63-4.52-.92-9.14-.18-13.69-.59-1.53-.01-2.49-1.52-2.78-2.83-.5-5.25-.43-10.52-.39-15.78-8.9.07-17.79.05-26.68.11M1470.68,218.49c-.13,4.19-.15,8.38-.06,12.57,3.29,1.74,7.78.22,11.55.79-3.28-4.81-7.36-9.29-11.49-13.36Z"/>
  </g>
  <g id="_x23_f5f5fdff">
    <path class="st22" d="M1031.39,219.02c-.08-1.53,1.18-2.8,2.52-3.34,12.17-.18,24.35-.06,36.52-.02.08,6.13,0,12.26.1,18.38-.22,2.52,1.84,5.2,4.47,5.19,5.63.07,11.26.06,16.9,0,.78,6.23.2,12.56.39,18.82.42,15.98.24,31.97.39,47.96-.02,2.34.49,5.77-2.56,6.45-6.87-.02-13.74.04-20.6,0-.01-5.44-.01-10.88-.1-16.32-.04-2.42-1.86-5.03-4.33-5.41-11.25-.54-22.57.29-33.78-.44.37-23.75-.15-47.51.08-71.27M1046.86,248.84c-.04.61-.13,1.84-.17,2.46,9.4.24,18.82.05,28.24.05,1.62-.11,3.39.27,4.94-.49.21-1.56-.42-2.3-1.88-2.22-10.37.08-20.79-.27-31.13.2M1047.2,259.38c-.2.44-.61,1.31-.82,1.74l.78.58c10.89.02,21.77-.13,32.66-.02,0-.58-.02-1.73-.03-2.31-10.86.08-21.73-.05-32.59.01M1047.26,269.37c-.2.41-.59,1.25-.79,1.66l.69.67c10.87.07,21.74,0,32.61.03-.04-.59-.12-1.75-.16-2.34-10.78-.14-21.57,0-32.35-.02M1047.48,279.56c-.29.33-.87.98-1.17,1.31l.64,1.15c10.96.43,22.07.46,33.06-.23-.09-.57-.26-1.71-.35-2.28-10.73-.04-21.45-.01-32.18.05Z"/>
    <path class="st22" d="M1030.83,403.99c-.12-2.21.77-4.51,2.96-5.35,11.64.18,23.28.02,34.93.12.12,6.43-.01,12.86.12,19.29.24,2.07,1.68,4.66,4.08,4.49,5.46.06,10.94.11,16.42.02.85,5.75.16,11.62.39,17.43-.02,17.67-.06,35.35.05,53.02.2,1.69-.88,3.8-2.79,3.74-6.46-.01-12.92.04-19.37.05.21-5.29.14-10.59.03-15.88.02-2.29-1.58-4.38-3.52-5.42-11.12-.2-22.24-.03-33.35.06.06-23.86-.06-47.71.05-71.57M1045.84,432.77l-.47,1.21.59,1.11c10.01.4,20.05.16,30.07.16,1.43.06,2.08-.71,1.96-2.3l-.98-.37c-10.38-.08-20.82-.38-31.17.19M1045.49,443.4c.04.54.11,1.61.14,2.15,10.65.07,21.31-.13,31.96-.09l.23-1.48-.58-.76c-10.58.16-21.19-.32-31.75.18M1046.1,455.75c10.55.11,21.11-.14,31.67-.03-.03-.59-.09-1.76-.12-2.35-9.87.04-19.74-.05-29.61-.06-1.6-.64-3.79,1.02-1.94,2.44M1046.3,463.56c-1.32.61-1.05,2.6.5,2.77,9.73-.2,19.46.06,29.2-.04,1.9.53,1.88-1.58,1.68-2.8-10.46-.08-20.93,0-31.38.07Z"/>
    <path class="st22" d="M1030.95,591.93c-.51-2.6.54-6.89,3.95-6.36,11.25.08,22.51-.13,33.77-.04.19,6.16-.19,12.34.27,18.5-.03,1.85,1.1,3.3,2.43,4.47,5.98.1,11.98.14,17.97-.08.1.41.31,1.23.41,1.64-.07,22.31.01,44.62-.03,66.94.23,1.7-1.26,2.68-2.52,3.44-6.51-.31-13.03-.05-19.54-.11.07-5.13-.06-10.26-.03-15.39.17-2.53-1.31-5.15-3.64-6.17-11.06-.54-22.14.09-33.2-.27.15-22.19-.11-44.39.16-66.57M1045.84,620.36c10.48.44,20.99-.04,31.48.2.09-.55.27-1.66.36-2.21-9.55-.55-19.16-.97-28.71-.13-1.36-.1-4.73-.37-3.13,2.14M1047.02,630.59c10.2,0,20.39-.09,30.59-.07.03-.55.08-1.65.11-2.2-2.47-1.18-5.15.17-7.72-.13-7.67.24-15.31-.47-22.97-.34-2.16-.17-1.9,3.07-.01,2.74M1045.91,637.9c.01.61.04,1.84.05,2.46,10.01.1,20.04-.09,30.06.05,1.48.08,2.08-.67,1.78-2.25-1.54-.69-3.27-.36-4.86-.44-9.01.09-18.04-.23-27.03.18M1045.95,647.87l-.42,1.16.48,1.1c9.98.38,20.02.09,30.02.21,1.44.05,2.05-.72,1.84-2.31-1.83-.83-3.92-.28-5.84-.41-8.69.19-17.45-.22-26.08.25Z"/>
  </g>
  <g id="_x23_edfbfdff">
    <path class="st71" d="M1441.17,216.21c8.89-.06,17.78-.04,26.68-.11-.04,5.26-.11,10.53.39,15.78.29,1.31,1.25,2.82,2.78,2.83,4.55.41,9.17-.33,13.69.59-.09,16.88.12,33.76.01,50.63.08,1.5-1.22,3.03-2.78,2.73-12.99-.01-25.99.01-38.98.16-2.09.44-3.42-2-3.14-3.79,0-21.67-.12-43.34-.04-65.01-.13-1.39.07-3.02,1.39-3.81M1469.68,246.98c-.3,10.74-.42,21.57.19,32.31,2.44.18,4.91.18,7.38.16.39-10.85.25-21.74.04-32.58-2.14-.9-5.52-.84-7.61.11M1458.56,257.54c-.07,7.24-.71,14.63.39,21.79,2.28.06,4.6.26,6.89-.14.94-7.03.62-14.29.3-21.35-2.26-1.05-5.13-.5-7.58-.3M1447.56,266.52c.16,4.17-.32,8.42.34,12.54,1.99.91,4.51.1,6.71.48,1.63-4,.3-8.58.82-12.82-2.4-1.19-5.49-1.48-7.87-.2Z"/>
  </g>
  <g id="_x23_f8f7fcff">
    <path class="st41" d="M1073.15,217.95c5.79,5.9,11.58,11.97,16.65,18.55-5.35-.23-10.72.31-16.05-.14-.23-.58-.69-1.74-.92-2.31,0-5.37-.11-10.75.32-16.1Z"/>
  </g>
  <g id="_x23_f2fafcff">
    <path class="st56" d="M1470.68,218.49c4.13,4.07,8.21,8.55,11.49,13.36-3.77-.57-8.26.95-11.55-.79-.09-4.19-.07-8.38.06-12.57Z"/>
  </g>
  <g id="_x23_005474ff">
    <path class="st20" d="M1469.68,246.98c2.09-.95,5.47-1.01,7.61-.11.21,10.84.35,21.73-.04,32.58-2.47.02-4.94.02-7.38-.16-.61-10.74-.49-21.57-.19-32.31M1471.27,248.28c-.12,9.55.3,19.1.01,28.65,1.21.61,4.43,1.17,4.35-.95-.16-9.23.23-18.46.13-27.69-1.49-.64-3.01-.33-4.49,0Z"/>
    <path class="st20" d="M1458.56,257.54c2.45-.2,5.32-.75,7.58.3.32,7.06.64,14.32-.3,21.35-2.29.4-4.61.2-6.89.14-1.1-7.16-.46-14.55-.39-21.79M1460.38,259.27c.03,6.05-.67,12.29.37,18.24,1.19-.38,4.17.63,3.92-1.56-.06-5.55-.02-11.1-.03-16.64-1.44-.02-2.86-.04-4.26-.04Z"/>
    <path class="st20" d="M1447.56,266.52c2.38-1.28,5.47-.99,7.87.2-.52,4.24.81,8.82-.82,12.82-2.2-.38-4.72.43-6.71-.48-.66-4.12-.18-8.37-.34-12.54M1449.68,267.96c-.56,3.09-.32,6.27-.12,9.39.93-.04,2.79-.12,3.72-.16.38-3.11.44-6.25.15-9.36-.94.03-2.81.1-3.75.13Z"/>
  </g>
  <g id="_x23_0ec9e9ff">
    <path class="st4" d="M1471.27,248.28c1.48-.32,3-.63,4.49,0,.1,9.23-.29,18.46-.13,27.69.08,2.12-3.14,1.56-4.35.95.29-9.55-.13-19.1-.01-28.65Z"/>
  </g>
  <g id="_x23_1d0e9fff">
    <path class="st60" d="M1046.86,248.84c10.34-.47,20.76-.12,31.13-.2,1.46-.08,2.09.66,1.88,2.22-1.55.76-3.32.38-4.94.49-9.42,0-18.84.19-28.24-.05.04-.62.13-1.85.17-2.46Z"/>
  </g>
  <g id="_x23_130491ff">
    <path class="st24" d="M1047.2,259.38c10.86-.06,21.73.07,32.59-.01.01.58.02,1.73.03,2.31-10.89-.11-21.77.04-32.66.02l-.78-.58c.21-.43.62-1.3.82-1.74Z"/>
    <path class="st24" d="M1045.84,620.36c-1.6-2.51,1.77-2.24,3.13-2.14,9.55-.84,19.16-.42,28.71.13-.09.55-.27,1.66-.36,2.21-10.49-.24-21,.24-31.48-.2Z"/>
  </g>
  <g id="_x23_19c2e8ff">
    <path class="st112" d="M1460.38,259.27c1.4,0,2.82.02,4.26.04.01,5.54-.03,11.09.03,16.64.25,2.19-2.73,1.18-3.92,1.56-1.04-5.95-.34-12.19-.37-18.24Z"/>
    <path class="st112" d="M236.13,847.51c78.9-.13,157.81-.1,236.71-.01-78.91.12-157.81.11-236.71.01Z"/>
    <path class="st112" d="M474.21,847.55c75.56-.27,151.21-.02,226.81-.13,16.94.12,33.89-.13,50.83.11-92.54.05-185.09.04-277.64.02Z"/>
    <path class="st112" d="M765.29,847.46c61.48-.02,122.97-.07,184.46,0-53.88.24-107.79,0-161.68.11-7.59-.11-15.22.16-22.78-.11Z"/>
  </g>
  <g id="_x23_d8f0fbff">
    <path class="st42" d="M1331.88,261.98c-.18-1.56.57-2.35,2.25-2.38.27,53.1-.03,106.22-.04,159.33.24,6.15.12,12.34-.5,18.46-.3-.23-.91-.69-1.21-.91-.55-7.15-.43-14.32-.39-21.47-.09-51.01.14-102.02-.11-153.03Z"/>
  </g>
  <g id="_x23_08badbff">
    <path class="st50" d="M1449.68,267.96c.94-.03,2.81-.1,3.75-.13.29,3.11.23,6.25-.15,9.36-.93.04-2.79.12-3.72.16-.2-3.12-.44-6.3.12-9.39Z"/>
  </g>
  <g id="_x23_0d008cff">
    <path class="st45" d="M1047.26,269.37c10.78.03,21.57-.12,32.35.02.04.59.12,1.75.16,2.34-10.87-.03-21.74.04-32.61-.03l-.69-.67c.2-.41.59-1.25.79-1.66Z"/>
  </g>
  <g id="_x23_1a0595ff">
    <path class="st36" d="M1047.48,279.56c10.73-.06,21.45-.09,32.18-.05.09.57.26,1.71.35,2.28-10.99.69-22.1.66-33.06.23l-.64-1.15c.3-.33.88-.98,1.17-1.31Z"/>
  </g>
  <g id="_x23_b29ee9ff">
    <path class="st30" d="M1117.27,282.31c58.56-.16,117.13-.12,175.69-.04.09.43.28,1.3.38,1.73-58.87.06-117.73.08-176.59-.02.13-.42.39-1.25.52-1.67Z"/>
  </g>
  <g id="_x23_9dd3deff">
    <path class="st47" d="M1517.23,283.3c4.75-1.27,9.85-.44,14.76-.69,23,0,45.99.03,68.99,0,3.86-.28,7.18,3.58,6.96,7.34.22,6.02.19,12.07.01,18.1.21,3.02-2.08,5.84-4.92,6.6-27.98.28-55.99.17-83.97.04-3.31-.19-5.81-3.43-5.76-6.62-.21-6.04-.16-12.08.02-18.12-.11-2.73,1.47-5.4,3.91-6.64M1518.43,284.42c-2.27.68-3.81,3.27-3.36,5.62.41,6-.1,12,.07,18.01-.15,2.23,1.54,4.57,3.87,4.69,16.32.36,32.64-.15,48.97-.03,11.34-.14,22.69.64,34.03.01,2.83-.15,4.62-3.14,4.33-5.79-.23-5.63-.17-11.27-.03-16.9-.01-2.83-2.2-5.95-5.28-5.7-27.53-.06-55.08-.13-82.6.09Z"/>
  </g>
  <g id="_x23_e7fbfdff">
    <path class="st114" d="M1518.43,284.42c27.52-.22,55.07-.15,82.6-.09,3.08-.25,5.27,2.87,5.28,5.7-.14,5.63-.2,11.27.03,16.9.29,2.65-1.5,5.64-4.33,5.79-11.34.63-22.69-.15-34.03-.01-16.33-.12-32.65.39-48.97.03-2.33-.12-4.02-2.46-3.87-4.69-.17-6.01.34-12.01-.07-18.01-.45-2.35,1.09-4.94,3.36-5.62Z"/>
  </g>
  <g id="_x23_3721a5ff">
    <path class="st88" d="M1029.32,290.49c.5-.05,1.49-.15,1.99-.2,11.21.73,22.53-.1,33.78.44,2.47.38,4.29,2.99,4.33,5.41.09,5.44.09,10.88.1,16.32h-.65c.97.3,1.96.62,2.96.94-.77.3-1.52.65-2.22,1.04l-.22.44c-.74,2.34-2.78,4.73-5.45,4.48-12.02-.07-24.04-.05-36.05-.03-2.14-.94-4.1-2.96-4.15-5.4-.16-5.65-.05-11.3-.07-16.94-.43-3.21,2.29-6.64,5.65-6.5M1039.49,300.27c-.04,4.39-.27,8.78-.05,13.18.56.02,1.69.06,2.25.08.85-1.31.62-2.87.63-4.35.91.33,1.83.67,2.75,1.02,5.08-1.02,5.14-9.98-.11-10.59-1.76.79-3.64.57-5.47.66M1049.09,300.18c.94,3.41,2.68,6.53,3.55,9.97-1.23.74-2.84,1.3-2.88,3.02,1.68.57,4.27.54,4.86-1.55,1.29-3.9,3.25-7.81,3.63-11.85-.67.16-2.02.48-2.69.64-.43,1.77-.87,3.53-1.26,5.31-1.86-.87-1.29-3.94-2.29-5.63-.73.02-2.19.07-2.92.09M1034.86,306.85c-.07.91-.14,1.82-.21,2.74.95.22,1.92.24,2.92.06.11-1.03.02-2.04-.28-3.02-.84-.1-1.65-.03-2.43.22Z"/>
    <path class="st88" d="M1023.13,481c-.01-2.9,2.67-5.94,5.73-5.45.48,0,1.44.01,1.92.01,11.11-.09,22.23-.26,33.35-.06,1.94,1.04,3.54,3.13,3.52,5.42.11,5.29.18,10.59-.03,15.88.02.86.06,1.73.13,2.6-.67,2.19-2.27,4.57-4.74,4.84-11.69.06-23.39.06-35.09.05-2.68-.22-4.63-2.71-4.95-5.25-.35-6.02.22-12.02.16-18.04M1038.77,484.65c-.16,4.5-.51,9.03-.15,13.53,3.05,1.59,2.88-1.99,2.67-3.9,1.5.41,3.41,1.17,4.69-.19,2.58-1.94,2.51-6.31.33-8.5-2.04-2.02-5.07-.23-7.54-.94M1048.36,484.71c.17,3.6,2.55,6.85,3.1,10.47-1.23.63-2.59,1.29-2.55,2.91,1.37.49,3.44.4,4.14-1.15,1.84-3.9,2.95-8.1,4.34-12.17-4.32-1.66-2.56,4.24-5.07,5.22-.81-2.16-.34-6.44-3.96-5.28M1034.48,491.58c-1.87,1.76.05,4.09,2.23,3.13.09-1.07.04-2.13-.17-3.17-.51,0-1.54.03-2.06.04Z"/>
  </g>
  <g id="_x23_fefdfeff">
    <path class="st103" d="M1049.09,300.18c.73-.02,2.19-.07,2.92-.09,1,1.69.43,4.76,2.29,5.63.39-1.78.83-3.54,1.26-5.31.67-.16,2.02-.48,2.69-.64-.38,4.04-2.34,7.95-3.63,11.85-.59,2.09-3.18,2.12-4.86,1.55.04-1.72,1.65-2.28,2.88-3.02-.87-3.44-2.61-6.56-3.55-9.97Z"/>
  </g>
  <g id="_x23_2a149eff">
    <path class="st80" d="M1042.77,307.29c-.74-1.86-1-5.45,1.98-5.03,2.05,1.56,1.25,6.65-1.98,5.03Z"/>
  </g>
  <g id="_x23_fdfcfeff">
    <path class="st107" d="M1034.86,306.85c.78-.25,1.59-.32,2.43-.22.3.98.39,1.99.28,3.02-1,.18-1.97.16-2.92-.06.07-.92.14-1.83.21-2.74Z"/>
    <path class="st107" d="M1038.63,667.62c2.71.83,6.3-1.48,8.25,1.33,1.71,2.78,1.2,8.45-2.78,8.77-.73-.09-2.17-.28-2.9-.38.64,1.87.31,4.96-2.56,3.89-.28-4.53-.14-9.08-.01-13.61M1043.03,675.4c2.61.09,1.78-3.48,1.58-5.11-3.54-1.77-4.89,4.79-1.58,5.11Z"/>
  </g>
  <g id="_x23_1c0d96ff">
    <path class="st52" d="M44.38,333.05c-.29-7.56,5.67-15.52,13.65-15.4,101.63-.03,203.27.02,304.91,0,6.1.06,11.41,5.09,12.66,10.92.98,3.04.65,6.27.71,9.42-.03,71.67-.04,143.34-.03,215.01.18,3.67-.61,7.36-2.07,10.72-2.7,3.51-6.49,6.77-11.18,6.68-102,.01-204,0-306-.02-6.01-.49-10.92-5.44-12.24-11.19-.54-2.01-.39-4.11-.43-6.16-.01-73.32-.05-146.65.02-219.97M56.14,320.3c-6.37.9-9.97,7.7-9.78,13.68,0,73.67-.02,147.35,0,221.02.04,3.82,1.6,7.67,4.32,10.36,2.8,2.53,6.72,3.14,10.36,2.83,100.66-.02,201.31-.02,301.96,0,6.61-.38,11.43-6.84,11.32-13.19.02-73.98,0-147.97.01-221.95-.06-6.09-4.64-13.09-11.31-12.83-102.29.06-204.59-.1-306.89.08Z"/>
  </g>
  <g id="_x23_0c0191ff">
    <path class="st109" d="M566.04,320.96c3.17-1.19,6.6-1.44,9.96-1.23l.79.47c2.5,1.91,6.13-.22,8.51,1.98-5.09.17-10.19.03-15.28.11-4.35.05-7.78,3.64-9.23,7.48-1.79,4.17-1.05,8.79-1.16,13.19,0,70-.05,139.99-.01,209.98-.28,5.85,3.04,11.68,8.75,13.52l-.53,1.9c-2.43-.75-4.56-2.17-6.34-3.96-3.87-4.57-4.16-10.75-3.84-16.44.04-70.66-.07-141.32.04-211.97-.24-6.03,2.77-12.33,8.34-15.03Z"/>
    <path class="st109" d="M1045.49,443.4c10.56-.5,21.17-.02,31.75-.18l.58.76-.23,1.48c-10.65-.04-21.31.16-31.96.09-.03-.54-.1-1.61-.14-2.15Z"/>
  </g>
  <g id="_x23_1a0593ff">
    <path class="st104" d="M576.79,320.2c1.57-.91,3.45-.32,5.17-.43,88.68-.04,177.37,0,266.05-.02,5.17.17,9.7,3.65,11.82,8.27,2.33,4.65,1.38,9.97,1.53,14.97.04,69.34,0,138.68.02,208.02-.07,1.63.14,3.31-.24,4.93-.44.05-1.32.14-1.76.18.2-73.36,0-146.73.09-220.09.21-6.09-3.68-13.56-10.44-13.73-87.91-.13-175.82.08-263.73-.12-2.38-2.2-6.01-.07-8.51-1.98Z"/>
    <path class="st104" d="M83.37,455.33c12.18-.36,24.39.06,36.58-.15,2.83.08,1.24,3.71-.97,3.05-11.65-1.19-23.38.67-35.02-.24-1.49-.6-1.69-1.48-.59-2.66Z"/>
  </g>
  <g id="_x23_003f66ff">
    <path class="st110" d="M1017.18,346.53c52.29-.24,104.49-.06,156.78-.09,44.27.09,88.54-.14,132.8.1-96.55-.02-193.06.08-289.58-.01Z"/>
    <path class="st110" d="M1448.27,626.28c9.12.05,18.25-.05,27.39.07.01.59.03,1.77.04,2.36-2.94.11-5.87.06-8.76.54-5.31-.15-10.68-1.02-15.96-.16-1.77.02-4.13-.61-2.71-2.81Z"/>
  </g>
  <g id="_x23_00008fff">
    <path class="st93" d="M1009.46,378.96c.87-6.03,6.29-11.37,12.53-11.33,95.66-.04,191.33.01,286.99.01,6.99.63,12.35,7.55,12.33,14.38.04,40.31-.06,80.61,0,120.92-.17,6.4.37,12.93-.39,19.25-.42-.29-1.26-.89-1.68-1.18.36-45.98.02-91.99.16-137.98.2-6.75-5.35-13.52-12.38-13.29-94.67-.02-189.35.04-284.02.02-5.9,0-10.78,4.75-11.88,10.38-.42-.29-1.24-.89-1.66-1.18Z"/>
  </g>
  <g id="_x23_18058eff">
    <path class="st90" d="M68.05,372.23c14.31-.75,28.65-.35,42.98-.39,2.18-.05,3.67,1.66,4.96,3.18,7.04,8.76,14.38,17.29,21.45,26.03l.2.98c-.49.52-1.48,1.58-1.97,2.1-.81-.45-1.68-.66-2.61-.63-5.67-.05-11.35.04-17.02.1-2.07.25-3.38-1.74-4.42-3.2.48-.37,1.44-1.12,1.92-1.49.46.38,1.38,1.15,1.85,1.53,5.84.29,11.7.01,17.55.16-5.21-8.23-12.54-14.96-18.27-22.84-1.41-.63-2.48-1.75-3.3-3.02-13.78-.29-27.58.04-41.36-.07-2.23-.31-3.57,1.8-4.42,3.49-.52-.15-1.55-.46-2.07-.61.47-2.26,2.15-4.76,4.53-5.32Z"/>
  </g>
  <g id="_x23_f6f5feff">
    <path class="st46" d="M65.59,378.16c.85-1.69,2.19-3.8,4.42-3.49,13.78.11,27.58-.22,41.36.07.21,8.55-.3,17.12.25,25.66,1.04,1.46,2.35,3.45,4.42,3.2,5.67-.06,11.35-.15,17.02-.1.93-.03,1.8.18,2.61.63-.2,28.93.04,57.86-.08,86.78.2,1.82-1.34,3.07-2.49,4.25-7.89.08-15.79-.22-23.68.08-.47-6.22.02-12.48-.28-18.71-.22-2.55-1.85-4.84-4.14-5.95-13.15-.45-26.34.22-39.49-.32-.07-30.7-.18-61.4.08-92.1M83.29,416.36c-.36,1.11-.19,2.14.49,3.09,12.08-.24,24.17-.01,36.25-.18.38-.34,1.14-1.02,1.52-1.36-.26-.36-.77-1.09-1.02-1.45-12.41-.23-24.83-.09-37.24-.1M83.28,429.41c-.23,1.03-.19,2.06.13,3.08,12.22,0,24.45-.03,36.66.07,1.78-.02,1.94-3.16.02-3.13-12.27.04-24.54.07-36.81-.02M83.31,442.41c-.2.38-.6,1.12-.79,1.49l.51,1.14c11.92.63,24,.08,35.99.2,1.67.35,3.42-1.66,1.69-2.9-12.43-.63-25-.38-37.4.07M83.37,455.33c-1.1,1.18-.9,2.06.59,2.66,11.64.91,23.37-.95,35.02.24,2.21.66,3.8-2.97.97-3.05-12.19.21-24.4-.21-36.58.15Z"/>
    <path class="st46" d="M577.69,382.97c-.15-2.14,1-4.67,3.19-5.29,13.13-.21,26.27.09,39.4-.09.6,7.79-.05,15.64.3,23.44.36,1.85,1.47,3.84,3.31,4.56,6.48.11,12.99-.27,19.46.17.55,28.09.06,56.21.26,84.31.29,2.28-.96,5.36-3.65,5.24-7,.01-14-.1-21-.02-.14-6.13.08-12.26-.16-18.37.01-1.92-1.15-3.56-2.47-4.83-1.24-.96-2.86-.61-4.28-.7-11.49-.05-22.97-.12-34.45-.01.1-29.47-.06-58.94.09-88.41M594.08,420.71c1.96.27,3.96.6,5.95.25,9.64-.43,19.25.53,28.89.18,1.73-.14,2.03-2.94.12-2.83-11.01-.03-22.02-.09-33.03-.02-1.51-.58-2.71,1.09-1.93,2.42M594.19,431.3c-.9,1.4.04,3.19,1.83,2.85,11.22.16,22.47.01,33.67-.45.02-.62.05-1.85.06-2.47-11.85-.23-23.72-.69-35.56.07M594.08,436.26c-4.76,1.94-9.91,1.81-14.84,3.02-.31,6.86-.27,13.75-.02,20.61,2.49-1.09,2.81-4.37,5.44-5.28,4.05-1.82,8.2-3.41,12.23-5.28-.82-.56-1.62-1.12-2.42-1.67,0-.31,0-.93,0-1.24,11.85-.34,23.71.12,35.55-.22,1.03-1.4-.26-3.49-1.95-2.95-9.78.01-19.55.11-29.33-.04,2.39-2.64,6.57-.34,9.45-2,2.45-1.78,6.24-1.85,7.62-4.93-1.51-.12-3.01-.25-4.46-.64-5.72-1.58-11.49.75-17.26.62M594.28,456.31c0,.62-.02,1.86-.03,2.48,9.9.41,19.87.79,29.77-.01,2.11-.31,4.78.79,6.5-.79-.21-.42-.61-1.25-.81-1.66-11.81-.18-23.62-.15-35.43-.02Z"/>
  </g>
  <g id="_x23_000079ff">
    <path class="st75" d="M111.37,374.74c.82,1.27,1.89,2.39,3.3,3.02l-1.18-.38c.19,7.17.02,14.35.05,21.53-.48.37-1.44,1.12-1.92,1.49-.55-8.54-.04-17.11-.25-25.66Z"/>
  </g>
  <g id="_x23_100387ff">
    <path class="st40" d="M575.36,382.96c-.2-3.13,1.33-6.93,4.64-7.74,6.6-1.5,13.36.89,20-.41,6.64-.06,13.29.01,19.94-.07,1.67-.2,3.26.75,4.18,2.11,5.63,7.07,11.49,13.95,16.99,21.12,2.14,2.59,4.91,5.32,4.65,8.98.03,27.69,0,55.37.02,83.06.16,2.77-.84,6.15-3.44,7.48-7.66-.57-15.37,0-23.02-.78-.09-.36-.27-1.07-.36-1.42,7-.08,14,.03,21,.02,2.69.12,3.94-2.96,3.65-5.24-.2-28.1.29-56.22-.26-84.31-6.47-.44-12.98-.06-19.46-.17-1.84-.72-2.95-2.71-3.31-4.56-.35-7.8.3-15.65-.3-23.44-13.13.18-26.27-.12-39.4.09-2.19.62-3.34,3.15-3.19,5.29-.15,29.47.01,58.94-.09,88.41,11.48-.11,22.96-.04,34.45.01,1.42.09,3.04-.26,4.28.7-1.43.33-2.89.6-4.34.57-10.68-.1-21.36.02-32.03-.02-1.55.13-2.61-1.15-3.82-1.85l-.69.21c-.09-29.35.02-58.69-.09-88.04M623.04,380c-.5,5.63-.03,11.3-.22,16.95.01,1.89-.3,4.42,1.41,5.68,5.61.31,11.24-.06,16.86.18-1.14-3.14-3.92-5.34-5.76-8.07-4.22-4.81-7.71-10.28-12.29-14.74Z"/>
  </g>
  <g id="_x23_010077ff">
    <path class="st97" d="M63.35,470.14c.06-30.86-.21-61.74.17-92.59.52.15,1.55.46,2.07.61-.26,30.7-.15,61.4-.08,92.1l-2.16-.12Z"/>
  </g>
  <g id="_x23_f7f5fdff">
    <path class="st39" d="M113.49,377.38l1.18.38c5.73,7.88,13.06,14.61,18.27,22.84-5.85-.15-11.71.13-17.55-.16-.47-.38-1.39-1.15-1.85-1.53-.03-7.18.14-14.36-.05-21.53Z"/>
  </g>
  <g id="_x23_0780abff">
    <path class="st27" d="M1425.18,378.24c8.53-.92,17.17-.16,25.76-.44,64.38.1,128.76-.08,193.16.04,7.71-.12,13.96,6.66,14.23,14.18.15,35.97,0,71.95.06,107.92-.26,5.43-3.16,11.11-8.37,13.27-3.43,1.77-7.35.89-11.02,1.07-70.99.02-141.98,0-212.97.02-5.12-.46-9.51-4.47-11.01-9.3-1.02-2.91-1.32-6.01-1.17-9.07-.05-34.04.21-67.98-.01-102-.17-6.92,4.06-14.48,11.34-15.69M1425.38,380.5c-6.03,1.43-9.46,7.63-9.56,13.49-.03,8.98-.02,17.96.02,26.94.91,8.7-.21,17.41-.01,26.13,0,17.31-.11,34.63.07,51.95.17,6.09,4.44,12.72,11.05,12.82,72.67.06,145.34,0,218.01.02,6.64.19,11.63-6.54,11.34-12.83.04-35.34.02-70.68-.02-106.02.01-6.15-4.76-12.64-11.25-12.68-49.68-.04-99.36,0-149.04-.02-23.54.14-47.09-.3-70.61.2Z"/>
  </g>
  <g id="_x23_f6f5fbff">
    <path class="st77" d="M623.04,380c4.58,4.46,8.07,9.93,12.29,14.74,1.84,2.73,4.62,4.93,5.76,8.07-5.62-.24-11.25.13-16.86-.18-1.71-1.26-1.4-3.79-1.41-5.68.19-5.65-.28-11.32.22-16.95Z"/>
  </g>
  <g id="_x23_00446aff">
    <path class="st76" d="M1455.38,399.46c.44-7.26,12.98-7.26,13.31-.02,1.85.54,4.21-.43,5.61,1.35,1.46,1.13.97,3.12,1.21,4.72,2.85.07,5.77-.3,8.61.24,2,1.38,3.58,3.67,3.4,6.2-.04,19.68-.13,39.37-.07,59.05-.05,2.27-1.7,4.21-3.51,5.4-13.95.21-27.91.06-41.86.15-3.06.37-5.53-2.76-5.67-5.6-.03-19.64-.02-39.29,0-58.93-.25-3.12,2.08-6.9,5.53-6.58,2.13-.06,4.27.01,6.44-.04.13-1.63-.37-3.75,1.34-4.74,1.49-1.53,3.76-.77,5.66-1.2M1458.99,397.8c-1.05,1.27-.97,3.02-1.17,4.56-1.98,1.1-4.72-.47-6.41.95-.52,2.39-.71,5.01-.23,7.44,7.15.1,14.3-.19,21.46-.06.14-2.48.37-5.01-.05-7.46-1.79-1.02-4.13-.22-6.1-.65-.32-1.8-.2-4.52-2.41-5.07-1.71-.05-3.49-.36-5.09.29M1439.17,411.95c.1,19.37-.04,38.75.04,58.12-.31,1.72,1.25,2.69,2.56,3.35,13.43-.37,26.88.09,40.32-.15,1.46-.36,2.71-1.7,2.54-3.29.03-19.64.03-39.3-.03-58.94-.89-4.15-6.32-1.94-9.28-2.46.44,2.17-.57,5.48-3.29,5.2-7.26,0-14.52.15-21.77-.07-1.78-1.05-1.83-3.21-1.72-5.02-2.58-.06-5.14-.08-7.69-.06-.72,1.01-1.89,1.94-1.68,3.32Z"/>
  </g>
  <g id="_x23_0c008bff">
    <path class="st65" d="M1032.46,396.58c12.8-.15,25.61-.15,38.42-.08l-.32.36c-.61.64-1.23,1.28-1.84,1.9-11.65-.1-23.29.06-34.93-.12-2.19.84-3.08,3.14-2.96,5.35-.11,23.86.01,47.71-.05,71.57-.48,0-1.44-.01-1.92-.01-.34-24.19.06-48.38-.17-72.57-.06-2.63,1.53-5.09,3.77-6.4Z"/>
  </g>
  <g id="_x23_170990ff">
    <path class="st100" d="M1068.72,398.76c.61-.62,1.23-1.26,1.84-1.9,1.99,1.17,3.24,3.19,4.74,4.9,4.89,5.79,9.9,11.47,14.9,17.17,1.63,1.55,1.88,3.9,1.96,6.04-.05,22.33.01,44.66-.01,67,.09,3-1.21,6.24-4.18,7.41-6.74.28-13.49.02-20.22.02-.07-.87-.11-1.74-.13-2.6,6.45,0,12.91-.06,19.37-.05,1.91.06,2.99-2.05,2.79-3.74-.11-17.67-.07-35.35-.05-53.02-.23-5.81.46-11.68-.39-17.43-5.48.09-10.96.04-16.42-.02-2.4.17-3.84-2.42-4.08-4.49-.13-6.43,0-12.86-.12-19.29M1071.19,401.07c-.06,5.66-.1,11.32-.03,16.98-.24,1.55,1.39,2.56,2.8,2.26,4.53-.08,9.07-.1,13.61-.03-4.97-6.77-10.87-12.88-16.38-19.21Z"/>
  </g>
  <g id="_x23_ebfafbff">
    <path class="st54" d="M1458.99,397.8c1.6-.65,3.38-.34,5.09-.29,2.21.55,2.09,3.27,2.41,5.07,1.97.43,4.31-.37,6.1.65.42,2.45.19,4.98.05,7.46-7.16-.13-14.31.16-21.46.06-.48-2.43-.29-5.05.23-7.44,1.69-1.42,4.43.15,6.41-.95.2-1.54.12-3.29,1.17-4.56M1460.55,400.48c-1.7,1.96-.87,5,1.54,5.9,3.52-1.16,2.5-7.75-1.54-5.9Z"/>
  </g>
  <g id="_x23_026383ff">
    <path class="st49" d="M1460.55,400.48c4.04-1.85,5.06,4.74,1.54,5.9-2.41-.9-3.24-3.94-1.54-5.9Z"/>
  </g>
  <g id="_x23_f8f8fcff">
    <path class="st21" d="M1071.19,401.07c5.51,6.33,11.41,12.44,16.38,19.21-4.54-.07-9.08-.05-13.61.03-1.41.3-3.04-.71-2.8-2.26-.07-5.66-.03-11.32.03-16.98Z"/>
    <path class="st21" d="M1033.8,674.77c.89-.1,1.79-.19,2.7-.28.32,1.01.35,2.04.08,3.1-.61.04-1.84.11-2.45.14-.48-.94-.42-1.96-.33-2.96Z"/>
  </g>
  <g id="_x23_0e0088ff">
    <path class="st66" d="M137.64,402.03c.35,29.66-.02,59.34.14,89,.23,2.79-1.36,5.59-3.93,6.73-8.21.16-16.43-.06-24.64,0,.06-.34.19-1.03.25-1.37,7.48-.45,14.99-.07,22.46-.71.3-.13.89-.4,1.18-.53,1.15-1.18,2.69-2.43,2.49-4.25.12-28.92-.12-57.85.08-86.78.49-.52,1.48-1.58,1.97-2.1Z"/>
    <path class="st66" d="M879.55,439.71c9.78-.89,19.64-.07,29.46-.33,22.89-.12,45.78.18,68.66-.13-.05.28-.16.84-.21,1.11-30.83-.1-61.65,0-92.47-.03-1.82-.19-3.88.57-5.44-.62Z"/>
    <path class="st66" d="M1028.77,589.95c-.01-2.92,1.9-6.69,5.2-6.66,12.04-.06,24.08-.04,36.12-.02,3.41,2.3,5.68,6.13,8.54,9.13,4.18,4.77,8.71,9.25,12.73,14.16.93,2.7.75,5.65.83,8.48-.12,20.32,0,40.63-.05,60.95.13,2.67-1.42,4.95-3.53,6.44-7.01.11-14.02.03-21.02.09.05-.73.06-1.47.07-2.19,6.51.06,13.03-.2,19.54.11,1.26-.76,2.75-1.74,2.52-3.44.04-22.32-.04-44.63.03-66.94-.1-.41-.31-1.23-.41-1.64-5.99.22-11.99.18-17.97.08-1.33-1.17-2.46-2.62-2.43-4.47-.46-6.16-.08-12.34-.27-18.5-11.26-.09-22.52.12-33.77.04-3.41-.53-4.46,3.76-3.95,6.36-.27,22.18-.01,44.38-.16,66.57-.4-.02-1.21-.07-1.61-.09-.76-1.74-.34-3.64-.41-5.45.02-21,.03-42.01,0-63.01M1071.18,588c-.01,4.33.04,8.65-.32,12.97.26,1.82-.25,4.63,1.98,5.36,4.87-.12,9.74.07,14.62-.11-4.89-6.46-10.6-12.52-16.28-18.22Z"/>
  </g>
  <g id="_x23_f8fdfdff">
    <path class="st26" d="M1439.17,411.95c-.21-1.38.96-2.31,1.68-3.32,2.55-.02,5.11,0,7.69.06-.11,1.81-.06,3.97,1.72,5.02,7.25.22,14.51.07,21.77.07,2.72.28,3.73-3.03,3.29-5.2,2.96.52,8.39-1.69,9.28,2.46.06,19.64.06,39.3.03,58.94.17,1.59-1.08,2.93-2.54,3.29-13.44.24-26.89-.22-40.32.15-1.31-.66-2.87-1.63-2.56-3.35-.08-19.37.06-38.75-.04-58.12M1458.56,426.78c-12.54,4.14-14.21,24.02-3.33,30.98,4.37,2.93,10.8,2.86,14.79-.74,5.95-5.1,7.23-14.26,4.29-21.28-2.42-6.04-8.99-11.25-15.75-8.96Z"/>
  </g>
  <g id="_x23_14028eff">
    <path class="st67" d="M83.29,416.36c12.41.01,24.83-.13,37.24.1.25.36.76,1.09,1.02,1.45-.38.34-1.14,1.02-1.52,1.36-12.08.17-24.17-.06-36.25.18-.68-.95-.85-1.98-.49-3.09Z"/>
  </g>
  <g id="_x23_1e0d9eff">
    <path class="st70" d="M594.08,420.71c-.78-1.33.42-3,1.93-2.42,11.01-.07,22.02-.01,33.03.02,1.91-.11,1.61,2.69-.12,2.83-9.64.35-19.25-.61-28.89-.18-1.99.35-3.99.02-5.95-.25Z"/>
  </g>
  <g id="_x23_005d86ff">
    <path class="st59" d="M1458.56,426.78c6.76-2.29,13.33,2.92,15.75,8.96,2.94,7.02,1.66,16.18-4.29,21.28-3.99,3.6-10.42,3.67-14.79.74-10.88-6.96-9.21-26.84,3.33-30.98M1459.18,429.26c-10.89,3.52-11.86,20.34-2.79,26.39,3.09,2.13,7.42,2.58,10.62.4,8.8-5,8.83-19.21.92-25.04-2.39-1.94-5.81-2.92-8.75-1.75Z"/>
    <path class="st59" d="M1467.11,436.95c.57-1.45,3.19-.67,2.47,1.04-2.99,4.41-6.2,8.7-9.48,12.88-2.24-2.05-3.75-4.75-5.84-6.93.41-1.19,1.19-1.72,2.33-1.61,1.2,1.37,2.19,2.9,3.38,4.31,2.75-2.92,4.85-6.4,7.14-9.69Z"/>
  </g>
  <g id="_x23_3922a7ff">
    <path class="st34" d="M527.99,426.99c1.73.26,2.68,1.8,3.96,2.81,3.28,2.6,6.27,5.53,9.48,8.22-3.38,4.56-8.71,7.46-12.49,11.77l-1.22-.3c.02-3.04.11-6.09-.04-9.12-40.62-.04-81.24.08-121.86-.04-.1-1.45-.12-2.89-.05-4.33,40.68-.25,81.36.07,122.03-.12.02-2.96-.28-5.95.19-8.89Z"/>
  </g>
  <g id="_x23_3521a7ff">
    <path class="st37" d="M977.33,427.25c1.16-.77,2.06.85,2.92,1.43,3.48,3.18,7.22,6.06,10.63,9.33-2.9,3.68-7.07,6.16-10.35,9.49-1.01.87-1.71,2.29-3.17,2.35.16-3.16.09-6.33.1-9.49.05-.27.16-.83.21-1.11-22.88.31-45.77.01-68.66.13-9.82.26-19.68-.56-29.46.33l-.21.03c.03-1.18.05-2.35.05-3.51,10.83-.76,21.73-.14,32.59-.32,18.35.26,36.72-.32,55.07.19,3.41.08,6.82-.16,10.24-.22.36-2.87.03-5.76.04-8.63Z"/>
  </g>
  <g id="_x23_2a1598ff">
    <path class="st64" d="M83.28,429.41c12.27.09,24.54.06,36.81.02,1.92-.03,1.76,3.11-.02,3.13-12.21-.1-24.44-.07-36.66-.07-.32-1.02-.36-2.05-.13-3.08Z"/>
  </g>
  <g id="_x23_f5fbfcff">
    <path class="st121" d="M1459.18,429.26c2.94-1.17,6.36-.19,8.75,1.75,7.91,5.83,7.88,20.04-.92,25.04-3.2,2.18-7.53,1.73-10.62-.4-9.07-6.05-8.1-22.87,2.79-26.39M1467.11,436.95c-2.29,3.29-4.39,6.77-7.14,9.69-1.19-1.41-2.18-2.94-3.38-4.31-1.14-.11-1.92.42-2.33,1.61,2.09,2.18,3.6,4.88,5.84,6.93,3.28-4.18,6.49-8.47,9.48-12.88.72-1.71-1.9-2.49-2.47-1.04Z"/>
  </g>
  <g id="_x23_0c53d0ff">
    <path class="st25" d="M1397.54,429.14c4.81,3.19,9.12,7.34,13.48,11.23-.76,1.99-2.87,2.93-4.29,4.37-3.14,2.4-5.77,5.57-9.04,7.69-.57-2.82-.1-5.71-.25-8.56l-.44-.72c-22.75-.16-45.5.05-68.24-.1-.06-1.5-.1-2.99-.15-4.47,22.97-.25,45.95-.08,68.92-.07-.11-3.13-.07-6.25.01-9.37Z"/>
  </g>
  <g id="_x23_261299ff">
    <path class="st120" d="M594.19,431.3c11.84-.76,23.71-.3,35.56-.07-.01.62-.04,1.85-.06,2.47-11.2.46-22.45.61-33.67.45-1.79.34-2.73-1.45-1.83-2.85Z"/>
  </g>
  <g id="_x23_27169dff">
    <path class="st44" d="M1045.84,432.77c10.35-.57,20.79-.27,31.17-.19l.98.37c.12,1.59-.53,2.36-1.96,2.3-10.02,0-20.06.24-30.07-.16l-.59-1.11.47-1.21Z"/>
  </g>
  <g id="_x23_efeefeff">
    <path class="st38" d="M594.08,436.26c5.77.13,11.54-2.2,17.26-.62,1.45.39,2.95.52,4.46.64-1.38,3.08-5.17,3.15-7.62,4.93-2.88,1.66-7.06-.64-9.45,2-2.24-.36-6.24,0-4.27,3.21,0,.31,0,.93,0,1.24.8.55,1.6,1.11,2.42,1.67-4.03,1.87-8.18,3.46-12.23,5.28-2.63.91-2.95,4.19-5.44,5.28-.25-6.86-.29-13.75.02-20.61,4.93-1.21,10.08-1.08,14.84-3.02Z"/>
  </g>
  <g id="_x23_2812a1ff">
    <path class="st2" d="M83.31,442.41c12.4-.45,24.97-.7,37.4-.07,1.73,1.24-.02,3.25-1.69,2.9-11.99-.12-24.07.43-35.99-.2l-.51-1.14c.19-.37.59-1.11.79-1.49Z"/>
  </g>
  <g id="_x23_2a18abff">
    <path class="st73" d="M594.46,446.42c-1.97-3.21,2.03-3.57,4.27-3.21,9.78.15,19.55.05,29.33.04,1.69-.54,2.98,1.55,1.95,2.95-11.84.34-23.7-.12-35.55.22Z"/>
    <path class="st73" d="M1116.37,483.47c59.08.12,118.16.04,177.24.05-.03.2-.1.6-.14.8-59.01-.08-118.04-.09-177.06.03l-.04-.88Z"/>
  </g>
  <g id="_x23_160b96ff">
    <path class="st117" d="M1046.1,455.75c-1.85-1.42.34-3.08,1.94-2.44,9.87.01,19.74.1,29.61.06.03.59.09,1.76.12,2.35-10.56-.11-21.12.14-31.67.03Z"/>
  </g>
  <g id="_x23_170192ff">
    <path class="st19" d="M594.28,456.31c11.81-.13,23.62-.16,35.43.02.2.41.6,1.24.81,1.66-1.72,1.58-4.39.48-6.5.79-9.9.8-19.87.42-29.77.01.01-.62.03-1.86.03-2.48Z"/>
  </g>
  <g id="_x23_9377e2ff">
    <path class="st29" d="M669.7,455.78c54.44-.5,108.89-.01,163.33-.21,4.23.13,8.52-.23,12.73.33l.27,1.19c-22.68.55-45.4.05-68.1.24-36.14-.18-72.3.25-108.44-.18l.21-1.37Z"/>
  </g>
  <g id="_x23_190595ff">
    <path class="st94" d="M1046.3,463.56c10.45-.08,20.92-.15,31.38-.07.2,1.22.22,3.33-1.68,2.8-9.74.1-19.47-.16-29.2.04-1.55-.17-1.82-2.16-.5-2.77Z"/>
  </g>
  <g id="_x23_ad98e9ff">
    <path class="st99" d="M168.95,464.25c63.3-.01,126.6-.08,189.89.07.12.46.35,1.36.47,1.82-46.4.45-92.83.06-139.24.21-17.12-.13-34.26.19-51.36-.18.06-.48.18-1.44.24-1.92Z"/>
  </g>
  <g id="_x23_96d2ddff">
    <path class="st1" d="M1518.28,466.42c8.54-.79,17.17.06,25.75-.26,20.96.09,41.93.12,62.9-.02,3.85-.49,7.29,3.21,7.39,6.9.12,5.97.01,11.94.05,17.91.02,2.45-.94,5.16-3.15,6.45-1.88,1.22-4.2.86-6.29.93-28.31-.06-56.63.05-84.93-.08-3.47.3-6.36-3.05-6.33-6.35-.12-6.27-.2-12.56-.05-18.83.02-2.89,1.92-5.68,4.66-6.65M1518.38,468.43c-1.57.87-3.28,2.47-3.09,4.43.1,6.4-.03,12.81,0,19.21-.21,2.05,1.8,3.29,3.17,4.45,30.02.1,60.07.13,90.09.02,2.09-.55,3.97-2.34,4.09-4.59.09-6,.03-12-.02-18,.11-2.63-1.81-5.55-4.6-5.65-4.01-.24-8.03-.36-12.03-.28-11.34.58-22.67-.47-34.01-.02-14.53.44-29.1-.42-43.6.43Z"/>
  </g>
  <g id="_x23_e8fbfdff">
    <path class="st55" d="M1518.38,468.43c14.5-.85,29.07.01,43.6-.43,11.34-.45,22.67.6,34.01.02,4-.08,8.02.04,12.03.28,2.79.1,4.71,3.02,4.6,5.65.05,6,.11,12,.02,18-.12,2.25-2,4.04-4.09,4.59-30.02.11-60.07.08-90.09-.02-1.37-1.16-3.38-2.4-3.17-4.45-.03-6.4.1-12.81,0-19.21-.19-1.96,1.52-3.56,3.09-4.43Z"/>
  </g>
  <g id="_x23_341ea2ff">
    <path class="st51" d="M63.35,470.14l2.16.12c13.15.54,26.34-.13,39.49.32,2.29,1.11,3.92,3.4,4.14,5.95.3,6.23-.19,12.49.28,18.71,7.89-.3,15.79,0,23.68-.08-.29.13-.88.4-1.18.53-7.47.64-14.98.26-22.46.71-.06.34-.19,1.03-.25,1.37-.13,3.01-2.17,5.81-5.15,6.52-13.72.05-27.45.12-41.17-.05-2.29-.8-4.36-2.79-4.64-5.27-.83-7.31,0-14.65-.09-21.97-.08-3.18,2.39-5.75,5.19-6.86M93.91,481.86c-.51,1.95-1.25,3.85-1.41,5.89-3.29-.05-.82-7.73-5.82-5.94-.08,4.28,3.54,8.33,3.09,12.87-.59.23-1.76.7-2.34.93-.03.53-.08,1.58-.11,2.11,1.95.17,4.34.04,5.08-2.16,1.53-4.61,3.68-9.22,4.27-14.01-.92.11-1.84.21-2.76.31M75.46,482.46c.05,5.04-.13,10.09-.03,15.14.64.06,1.91.18,2.55.24,1.09-1.34.34-3.17.39-4.71,2,.6,4.65,1.41,6.05-.77,2.69-3.3,1.92-11.07-3.5-10.81-1.67,2.25-4.02-1.21-5.46.91M70.61,493.44c.93.21,1.86.19,2.78-.07.08-.98.16-1.96.26-2.93-2.44-1.9-4.32.72-3.04,3Z"/>
  </g>
  <g id="_x23_3620a7ff">
    <path class="st81" d="M575.45,471l.69-.21c1.21.7,2.27,1.98,3.82,1.85,10.67.04,21.35-.08,32.03.02,1.45.03,2.91-.24,4.34-.57,1.32,1.27,2.48,2.91,2.47,4.83.24,6.11.02,12.24.16,18.37.09.35.27,1.06.36,1.42,7.65.78,15.36.21,23.02.78-.34.15-1,.47-1.34.63-7.28.21-14.58-.02-21.87.02-.43,2.75-2.02,6.09-5.19,6.21-12.31-.04-24.62-.05-36.93.05-3.53.48-6.34-3.09-6.3-6.38-.01-6.67-.14-13.35-.03-20.02.08-2.98,1.8-6.07,4.77-7M587.33,482.18c-.02,5.22-.18,10.44-.06,15.67.61,0,1.83-.01,2.44-.01.61-1.48.44-3.08.43-4.62,1.58.32,3.57,1.3,4.95-.05,3.66-2.89,2.95-10.55-2.04-11.52-1.75,1.36-3.76.48-5.72.53M605.1,482.19c-1.22,2.01-1.01,4.71-2.86,6.32-.43-1.96-.83-3.91-1.28-5.86-.87-.07-2.6-.2-3.46-.27,1.23,3.91,2.58,7.79,3.89,11.68-1.09,1.11-2.96,1.71-3.17,3.45,1.71.52,4.13.6,4.98-1.35,1.85-4.5,2.96-9.27,4.61-13.85-.68-.03-2.03-.09-2.71-.12M582.3,490.29c-.03,1.13-.03,2.26.02,3.41,2.48.86,3.53-1.09,3.12-3.27-1.05-.06-2.1-.11-3.14-.14Z"/>
  </g>
  <g id="_x23_fdfdfeff">
    <path class="st95" d="M75.46,482.46c1.44-2.12,3.79,1.34,5.46-.91,5.42-.26,6.19,7.51,3.5,10.81-1.4,2.18-4.05,1.37-6.05.77-.05,1.54.7,3.37-.39,4.71-.64-.06-1.91-.18-2.55-.24-.1-5.05.08-10.1.03-15.14M79.63,484.48c-1.48,1.57-1.38,3.71-.93,5.68,1.17.66,2.51.79,3.78.37.71-2.38.74-6.7-2.85-6.05Z"/>
    <path class="st95" d="M70.61,493.44c-1.28-2.28.6-4.9,3.04-3-.1.97-.18,1.95-.26,2.93-.92.26-1.85.28-2.78.07Z"/>
    <path class="st95" d="M1034.48,491.58c.52,0,1.55-.03,2.06-.04.21,1.04.26,2.1.17,3.17-2.18.96-4.1-1.37-2.23-3.13Z"/>
  </g>
  <g id="_x23_fbfbfdff">
    <path class="st101" d="M605.1,482.19c.68.03,2.03.09,2.71.12-1.65,4.58-2.76,9.35-4.61,13.85-.85,1.95-3.27,1.87-4.98,1.35.21-1.74,2.08-2.34,3.17-3.45-1.31-3.89-2.66-7.77-3.89-11.68.86.07,2.59.2,3.46.27.45,1.95.85,3.9,1.28,5.86,1.85-1.61,1.64-4.31,2.86-6.32Z"/>
  </g>
  <g id="_x23_2a0d9aff">
    <path class="st92" d="M79.63,484.48c3.59-.65,3.56,3.67,2.85,6.05-1.27.42-2.61.29-3.78-.37-.45-1.97-.55-4.11.93-5.68Z"/>
  </g>
  <g id="_x23_381fa2ff">
    <path class="st48" d="M591.97,491.52c-2.76-1.18-2.38-5.8.04-7.13,3.32.91,3.14,6.25-.04,7.13Z"/>
  </g>
  <g id="_x23_fefefdff">
    <path class="st79" d="M1048.36,484.71c3.62-1.16,3.15,3.12,3.96,5.28,2.51-.98.75-6.88,5.07-5.22-1.39,4.07-2.5,8.27-4.34,12.17-.7,1.55-2.77,1.64-4.14,1.15-.04-1.62,1.32-2.28,2.55-2.91-.55-3.62-2.93-6.87-3.1-10.47Z"/>
  </g>
  <g id="_x23_28149bff">
    <path class="st106" d="M1043.6,492.56c-3.78.22-2.92-7.2.97-5.26.24,1.62.97,4.48-.97,5.26Z"/>
  </g>
  <g id="_x23_e9e7f2ff">
    <path class="st0" d="M41.73,504.96c.33-4.28-.44-8.75.84-12.89,1.41,12.61-.12,25.34.37,38.01.36,9.89-.3,19.82.25,29.7.4-.15,1.2-.45,1.6-.6,1.32,5.75,6.23,10.7,12.24,11.19,102,.02,204,.03,306,.02,4.69.09,8.48-3.17,11.18-6.68,2.31-.12,2.7-2.84,3.39-4.53.55,2.13.66,4.41.1,6.55-4.22,3.77-6.3,10.5-12.68,11.27-101.99.05-204-.1-305.99.04-4.14-.1-8.19-1.35-11.79-3.38-.3-1.87-.29-3.75-.41-5.62-.38-2.06-2.88-2.44-3.87-4.05-.61-1.59-1.05-3.26-1.07-4.96-.16-18.02.2-36.05-.16-54.07Z"/>
  </g>
  <g id="_x23_01009aff">
    <path class="st3" d="M1009.15,522.33c.55-.79,1.09-1.58,1.64-2.37.37,5.94,4.99,11.33,11.15,11.45,95.35.06,190.71.07,286.06.03,5.83.13,10.18-5.07,11.24-10.43.42.29,1.26.89,1.68,1.18-1.04,6.13-6.48,11.71-12.94,11.4-95.64-.02-191.28,0-286.92,0-6.03-.25-10.79-5.57-11.91-11.26Z"/>
  </g>
  <g id="_x23_20089fff">
    <path class="st31" d="M859.38,556.12c.44-.04,1.32-.13,1.76-.18-.5,5.08-3.47,10.19-8.44,11.97-1.54.45-3.12.71-4.7.69-78.99,0-157.98.05-236.97.01-14.4-.17-28.82.32-43.19-.25l.53-1.9c92.88.27,185.76.07,278.64.11,6.17.57,11.09-4.81,12.37-10.45Z"/>
    <path class="st31" d="M1043.03,675.4c-3.31-.32-1.96-6.88,1.58-5.11.2,1.63,1.03,5.2-1.58,5.11Z"/>
  </g>
  <g id="_x23_007daaff">
    <path class="st83" d="M1423.4,562.61c3.06-1.21,6.4-.69,9.63-.77,70.65-.01,141.31-.04,211.97,0,7.81.08,13.55,7.69,13.33,15.15.05,36,.02,72,.02,108-.52,5.2-3.4,10.55-8.37,12.7-2.78,1.47-6,.83-8.99.96-68.98,0-137.96-.05-206.94,0-4.56-.21-9.73.99-13.62-2.05-4.52-2.9-6.52-8.32-6.5-13.5-.2-14.02.02-28.03-.1-42.05-.08-10.06.65-20.07.01-30.11.04-11.3.03-22.6-.04-33.9.21-6.01,3.51-12.56,9.6-14.43M1426.31,564.41c-6.2.64-10.36,6.6-10.49,12.55,0,34.03-.02,68.05-.03,102.08.09,5.14.35,11.03,4.62,14.62,3,3.21,7.61,3.03,11.65,2.85,71.29.01,142.58.02,213.87-.03,6.38-.72,10.52-7.41,10.4-13.47-.06-35.67.15-71.35-.06-107.02-.22-6.28-5.78-12.41-12.35-11.67-72.53.1-145.07-.1-217.61.09Z"/>
  </g>
  <g id="_x23_dee0e8ff">
    <path class="st108" d="M559.25,565.21c.56-.21,1.69-.61,2.25-.81,1.78,1.79,3.91,3.21,6.34,3.96,14.37.57,28.79.08,43.19.25,78.99.04,157.98-.01,236.97-.01,1.58.02,3.16-.24,4.7-.69.57.32,1.72.95,2.3,1.27-2.18,3.54-7.34,2.89-10.96,3.28-4.88,1.53-10.07.66-15.09.72-3.54-1.22-7.3-.8-10.96-.84-20.28.11-40.57-.11-60.84.08-3.67,1.95-7.34-.71-11.16-.12-6.22.99-12.84,1.88-18.99.04-5.2.87-10.81-1.14-16,.84-5.61-.17-11.48-2-17.02.09-5-.32-10.24.92-15.03-.88-10.68-.04-21.34.06-32.02-.06-5.81,1.36-12.09,1.53-17.89-.01-13.35.07-26.7.03-40.04.02-3.37.07-6.86-.52-10.08.71-3.6.41-7.48.77-10.72-1.18-3.62-.81-8.41-2.4-8.95-6.66Z"/>
  </g>
  <g id="_x23_02466cff">
    <path class="st116" d="M1440.21,579.31c9.25-.41,18.55-.07,27.83-.16,2.22-.33,3.17,2.03,4.45,3.38,4.46,5.84,9.82,11.01,13.96,17.08,1.47,6.97-.27,14.25.64,21.35-.29,11.01-.24,22.02-.19,33.04.27,2.68-1.27,5.68-3.92,6.49-13.66.02-27.33-.01-40.99.04-3.47.44-5.89-3.34-5.62-6.47.14-22.72-.03-45.43.08-68.14-.14-2.66,1.31-5.47,3.76-6.61M1439.24,585.03c-.28,16.63.39,33.28-.41,49.89.33,6.35.38,12.71.34,19.08-.32,1.65,1.08,3.56,2.87,3.3,12.98-.03,25.97.07,38.96-.03,1.87.36,3.52-1.57,3.26-3.35-.03-9.97.09-19.93-.04-29.89-.1-7.39.42-14.85-.26-22.21-4.53-.37-9.08.06-13.6-.26-1.69-.78-2.63-2.76-2.54-4.55-.07-4.87.14-9.74-.13-14.6-8.56.08-17.12.11-25.67.01-1.51-.25-2.75,1.2-2.78,2.61M1470.46,585.2c.02,4.34.04,8.69.1,13.03,3.65,1.08,7.59.08,11.37.47-2.92-4.63-7.11-8.41-10.22-12.93l-1.25-.57Z"/>
  </g>
  <g id="_x23_f4fcfdff">
    <path class="st96" d="M1439.24,585.03c.03-1.41,1.27-2.86,2.78-2.61,8.55.1,17.11.07,25.67-.01.27,4.86.06,9.73.13,14.6-.09,1.79.85,3.77,2.54,4.55,4.52.32,9.07-.11,13.6.26.68,7.36.16,14.82.26,22.21.13,9.96.01,19.92.04,29.89.26,1.78-1.39,3.71-3.26,3.35-12.99.1-25.98,0-38.96.03-1.79.26-3.19-1.65-2.87-3.3.04-6.37-.01-12.73-.34-19.08.8-16.61.13-33.26.41-49.89M1448.27,614.38c-.01.6-.04,1.79-.06,2.39,9.2.01,18.41-.04,27.61-.1-.09-.54-.28-1.62-.37-2.17-9.06-.2-18.12-.1-27.18-.12M1448.27,626.28c-1.42,2.2.94,2.83,2.71,2.81,5.28-.86,10.65,0,15.96.16,2.89-.48,5.82-.43,8.76-.54-.01-.59-.03-1.77-.04-2.36-9.14-.12-18.27-.02-27.39-.07M1448.95,641.14c8.85.22,17.68-.17,26.52-.52-.02-.54-.05-1.61-.06-2.15-8.81-.48-17.68-1-26.48-.39-1.73,0-1.32,2.68.02,3.06Z"/>
  </g>
  <g id="_x23_f9fafbff">
    <path class="st63" d="M1470.46,585.2l1.25.57c3.11,4.52,7.3,8.3,10.22,12.93-3.78-.39-7.72.61-11.37-.47-.06-4.34-.08-8.69-.1-13.03Z"/>
  </g>
  <g id="_x23_f7f7fcff">
    <path class="st113" d="M1071.18,588c5.68,5.7,11.39,11.76,16.28,18.22-4.88.18-9.75,0-14.62.11-2.23-.73-1.72-3.54-1.98-5.36.36-4.32.31-8.64.32-12.97Z"/>
  </g>
  <g id="_x23_003867ff">
    <path class="st61" d="M1448.27,614.38c9.06.02,18.12-.08,27.18.12.09.55.28,1.63.37,2.17-9.2.06-18.41.11-27.61.1.02-.6.05-1.79.06-2.39Z"/>
  </g>
  <g id="_x23_0851d7ff">
    <path class="st28" d="M1395.43,615.26c.3.02.88.07,1.18.09,3.55,3.08,6.99,6.3,10.6,9.33.82.73,2.49,1.66,1.44,2.97-3.05,2.96-6.66,5.28-9.61,8.35-1.08.96-1.91,2.34-3.37,2.73-.18-3.14-.17-6.28,0-9.41-8.47-1.26-17.09-.03-25.62-.15-11.71.02-23.43-.1-35.11-.11-3.69.47-7.39-.88-11.06.12-.04-.85-.13-2.55-.17-3.4,3.77-.1,7.55-.22,11.33,0,10.98.73,21.97-.59,32.96.02,8.62.56,17.25-.32,25.88-.14.35-.23,1.05-.68,1.4-.9.91-3.05.05-6.37.15-9.51Z"/>
  </g>
  <g id="_x23_003ec9ff">
    <path class="st115" d="M1323.95,624.67c16.02-.4,32.06.04,48.1-.13,7.73.07,15.5-.23,23.23.23-.35.22-1.05.67-1.4.9-8.63-.18-17.26.7-25.88.14-10.99-.61-21.98.71-32.96-.02-3.78-.23-7.56-.11-11.33,0l.24-1.11Z"/>
  </g>
  <g id="_x23_1a089dff">
    <path class="st85" d="M1047.02,630.59c-1.89.33-2.15-2.91.01-2.74,7.66-.13,15.3.58,22.97.34,2.57.3,5.25-1.05,7.72.13-.03.55-.08,1.65-.11,2.2-10.2-.02-20.39.07-30.59.07Z"/>
  </g>
  <g id="_x23_1f129fff">
    <path class="st35" d="M1045.91,637.9c8.99-.41,18.02-.09,27.03-.18,1.59.08,3.32-.25,4.86.44.3,1.58-.3,2.33-1.78,2.25-10.02-.14-20.05.05-30.06-.05-.01-.62-.04-1.85-.05-2.46Z"/>
  </g>
  <g id="_x23_1b5a7dff">
    <path class="st89" d="M1448.95,641.14c-1.34-.38-1.75-3.06-.02-3.06,8.8-.61,17.67-.09,26.48.39.01.54.04,1.61.06,2.15-8.84.35-17.67.74-26.52.52Z"/>
  </g>
  <g id="_x23_291ca0ff">
    <path class="st119" d="M1045.95,647.87c8.63-.47,17.39-.06,26.08-.25,1.92.13,4.01-.42,5.84.41.21,1.59-.4,2.36-1.84,2.31-10-.12-20.04.17-30.02-.21l-.48-1.1.42-1.16Z"/>
  </g>
  <g id="_x23_a0d6e1ff">
    <path class="st18" d="M1516.19,651.17c1.47-.77,3.21-.43,4.84-.54,35.66.04,71.33,0,107,.03,3.41-.21,6.32,3.04,6.58,6.31.3,6.38.47,12.78.09,19.17-.11,3.18-2.26,6.6-5.65,6.96-27.34.38-54.69-.43-82.04.11-7.69.18-15.37.03-23.04-.33-2.72-.12-5.55.41-8.16-.47-2.23-1.3-3.61-3.79-3.6-6.36-.35-6.03-.31-12.09-.09-18.12-.01-2.82,1.73-5.32,4.07-6.76M1513.74,658.03c-.13,5.66.41,11.31.09,16.97-.22,2.6,1.41,5.54,4.15,5.99,7,.7,14.02-.32,21.04-.15,24.99.23,49.98.17,74.97-.06,5.57-.19,11.16.59,16.71-.1,1.3-1.63,2.65-3.47,2.24-5.69-.52-6.04.37-12.08-.11-18.1-.13-2.83-3.23-4.61-5.83-4.24-35.67-.03-71.34-.06-107.01.05-3.15-.41-6.27,2.1-6.25,5.33Z"/>
  </g>
  <g id="_x23_af9de7ff">
    <path class="st69" d="M1116.02,653.97c.22-.47.65-1.4.86-1.86,57.04-.01,114.1.19,171.15-.11,1.86.26,6.03-1.2,5.84,1.84-25.92.63-51.9.1-77.84.27-33.34-.09-66.68.16-100.01-.14Z"/>
  </g>
  <g id="_x23_e6fbfdff">
    <path class="st78" d="M1513.74,658.03c-.02-3.23,3.1-5.74,6.25-5.33,35.67-.11,71.34-.08,107.01-.05,2.6-.37,5.7,1.41,5.83,4.24.48,6.02-.41,12.06.11,18.1.41,2.22-.94,4.06-2.24,5.69-5.55.69-11.14-.09-16.71.1-24.99.23-49.98.29-74.97.06-7.02-.17-14.04.85-21.04.15-2.74-.45-4.37-3.39-4.15-5.99.32-5.66-.22-11.31-.09-16.97Z"/>
  </g>
  <g id="_x23_3722a8ff">
    <path class="st87" d="M1029.18,658.41c.4.02,1.21.07,1.61.09,11.06.36,22.14-.27,33.2.27,2.33,1.02,3.81,3.64,3.64,6.17-.03,5.13.1,10.26.03,15.39-.01.72-.02,1.46-.07,2.19-.61,3.5-4.35,5.08-7.58,4.69-10.95-.95-21.97-.17-32.94-.49-3.4-.62-4.51-4.77-4.16-7.75.26-5.01-.23-10.03.08-15.03.29-3.13,3.1-5.5,6.19-5.53M1038.63,667.62c-.13,4.53-.27,9.08.01,13.61,2.87,1.07,3.2-2.02,2.56-3.89.73.1,2.17.29,2.9.38,3.98-.32,4.49-5.99,2.78-8.77-1.95-2.81-5.54-.5-8.25-1.33M1048.21,668.64c1.21,2.72,2.16,5.55,3.06,8.39.17,1.95-2.64,2.1-2.66,4.02,5.33,1.8,5.65-4.97,7.1-8.28.17-1.6,2.68-4.81.16-5.34-2.62.81-1.27,4.59-3.46,5.63-.3-1.94-1.62-7.81-4.2-4.42M1033.8,674.77c-.09,1-.15,2.02.33,2.96.61-.03,1.84-.1,2.45-.14.27-1.06.24-2.09-.08-3.1-.91.09-1.81.18-2.7.28Z"/>
  </g>
  <g id="_x23_121fa4ff">
    <path class="st74" d="M1315.82,700.9c.43.32,1.3.95,1.74,1.27-.5,5.35-5.25,9.72-10.34,11.02-94.1.13-188.21,0-282.31.09-2.04.04-4.06-.22-6.04-.56,1.5-.47,2.95-1.1,4.4-1.76,93.91-.33,187.84-.01,281.75-.16,5.52.12,9.8-4.79,10.8-9.9Z"/>
  </g>
  <g id="_x23_083097ff">
    <path class="st72" d="M1529.39,726.05c.18-7.86-.46-15.8.29-23.6,1.53.09,3.08.09,4.64.01.72,1.37.28,3.01.42,4.52.02,31.02-.04,62.05-.01,93.08-.1,7.18.48,14.51-1.48,21.52-2.95,11.12-10.83,21.13-21.58,25.53-4.43-2.54-9.16,1.68-13.79,1.74-8.93-.91-17.97-.39-26.94-.49-41.3-.06-82.6.01-123.89-.03-2.39.11-4.71.82-7.08.88-12.57-1.73-25.29-.46-37.93-.93-52.03.13-104.05-.05-156.08.05-59.65-.1-119.3.16-178.94-.08-3.84-.24-7.8.43-11.55-.45l-.47-.64c54.32-.37,108.63-.17,162.94-.16,28.34-.33,56.67.39,85.01-.1,24.01.11,48.03-.12,72.05.16,54-.3,108.01-.2,162-.13,20.2-.24,40.39.22,60.58-.29.18-.34.54-1.02.72-1.37l.34-.63c7.29-.17,14.14-3.72,19.68-8.3,7.43-6.6,10.9-16.65,11.04-26.4.02-27.96.02-55.93.03-83.89Z"/>
  </g>
  <g id="_x23_c6cee2ff">
    <path class="st58" d="M1018.31,712.63l.56.09c1.98.34,4,.6,6.04.56,94.1-.09,188.21.04,282.31-.09l-.52.62c-51.88-.42-103.78.05-155.66-.17-33.35.08-66.69-.05-100.03.05-10.42.17-20.88-.48-31.26.27l.36,1.01c6.89.9,13.97.17,20.94.38,86.31.03,172.62-.1,258.94.05,2.37-.01,4.74-.14,7.13-.24l.75-.03-.3.58c-25.19.5-50.41.05-75.6.32-53.65-.11-107.3,0-160.95-.11-15.34.44-30.67-.19-46.01-.05-3.02.2-6.25.39-8.82-1.47.53-.44,1.59-1.33,2.12-1.77Z"/>
  </g>
  <g id="_x23_f3f8f6ff">
    <path class="st118" d="M1019.75,713.96c10.38-.75,20.84-.1,31.26-.27,33.34-.1,66.68.03,100.03-.05,51.88.22,103.78-.25,155.66.17l.42,1.35c-2.39.1-4.76.23-7.13.24-86.32-.15-172.63-.02-258.94-.05-6.97-.21-14.05.52-20.94-.38l-.36-1.01Z"/>
  </g>
  <g id="_x23_022d99ff">
    <path class="st84" d="M182.25,728.14c1.39-.45,1.8,1.35,2.53,2.12,3.35,4.91,6.71,9.81,10.11,14.69.71.79,1.08,1.73,1.1,2.8-3.36-.09-6.72-.05-10.08-.01-.49,1.68-.27,3.46-.3,5.2,0,16.02.07,32.05.02,48.08.04,4.66-.35,9.42,1.07,13.95,2.41,7.76,7.44,14.52,13.66,19.68-.97.43-1.97.84-3.02,1.06-.51.76-1.01,1.53-1.51,2.32-9.33-7.8-15.96-19.6-15.63-31.98,0-19.04.05-38.07-.02-57.1-2.59-2.95-7.99.42-10.93-1.84,4.73-6.04,8.62-12.69,13-18.97Z"/>
  </g>
  <g id="_x23_002188ff">
    <path class="st43" d="M197.34,835.71c1.05-.22,2.05-.63,3.02-1.06,8.69,6.69,19.6,11,30.64,10.37,3.62-.22,7.33.65,10.97-.06,14.96.61,29.99.12,44.98.27,151.89-.05,303.97.02,456.02-.02,7.67-.21,15.39.41,23.04-.43,10.61.85,21.3.29,31.95.43,233.17,0,466.88-.02,700.34.06-.18.35-.54,1.03-.72,1.37-20.19.51-40.38.05-60.58.29-53.99-.07-108-.17-162,.13-24.02-.28-48.04-.05-72.05-.16-28.34.49-56.67-.23-85.01.1-54.31-.01-108.62-.21-162.94.16l.47.64c3.75.88,7.71.21,11.55.45,59.64.24,119.29-.02,178.94.08,52.03-.1,104.05.08,156.08-.05,12.64.47,25.36-.8,37.93.93,2.37-.06,4.69-.77,7.08-.88,41.29.04,82.59-.03,123.89.03,8.97.1,18.01-.42,26.94.49,4.63-.06,9.36-4.28,13.79-1.74-6.98,3.58-15.02,3.78-22.68,3.6-418.99.03-837.98,0-1256.97.03-13.04.54-26.44-4.01-36.19-12.71.5-.79,1-1.56,1.51-2.32M236.13,847.51c78.9.1,157.8.11,236.71-.01-78.9-.09-157.81-.12-236.71.01M474.21,847.55c92.55.02,185.1.03,277.64-.02-16.94-.24-33.89,0-50.83-.11-75.6.11-151.25-.14-226.81.13M765.29,847.46c7.56.27,15.19,0,22.78.11,53.89-.1,107.8.13,161.68-.11-61.49-.07-122.98-.02-184.46,0Z"/>
  </g>
  <g id="editable_text_Times_New_Roman">
    <text id="title_main" class="st9" transform="translate(429.48 61)"><tspan x="0" y="0">DataOps Platform Lifecycle Pipeline</tspan></text>
    <text id="heading_definition_layer" class="st6" transform="translate(129.01 176)"><tspan x="0" y="0">Definition Layer</tspan></text>
    <text id="heading_execution_layer" class="st6" transform="translate(625.01 176)"><tspan x="0" y="0">Execution Layer</tspan></text>
    <text id="heading_evaluation_validation_layer" class="st16" transform="translate(1014 154)"><tspan x="0" y="0">Evaluation &amp; Validation Layer</tspan></text>
    <text id="def_card_title_1" class="st11" transform="translate(167 379)"><tspan x="0" y="0">Platform Specification</tspan></text>
    <text id="def_card_title_2" class="st11" transform="translate(167 405)"><tspan x="0" y="0">Generation</tspan></text>
    <text id="def_card_file" class="st10" transform="translate(167 440)"><tspan x="0" y="0">build_platform_specs.py</tspan></text>
    <text id="def_card_focus_1" class="st5" transform="translate(167 495)"><tspan x="0" y="0">Focus: object definition, rules,</tspan></text>
    <text id="def_card_focus_2" class="st5" transform="translate(167 519)"><tspan x="0" y="0">governance policies</tspan></text>
    <text id="annot_system_definition" class="st15" transform="translate(416 378)"><tspan x="0" y="0">system definition →</tspan></text>
    <text id="annot_system_behavior" class="st15" transform="translate(424 398)"><tspan x="0" y="0">system behavior</tspan></text>
    <text id="exec_card_title_1" class="st11" transform="translate(669 380)"><tspan x="0" y="0">Simulated Platform</tspan></text>
    <text id="exec_card_title_2" class="st11" transform="translate(669 405)"><tspan x="0" y="0">Operations</tspan></text>
    <text id="exec_card_file" class="st12" transform="translate(669 439)"><tspan x="0" y="0">simulate_platform_ops.py</tspan></text>
    <text id="exec_card_focus_1" class="st5" transform="translate(669 485)"><tspan x="0" y="0">Focus: task execution, event</tspan></text>
    <text id="exec_card_focus_2" class="st5" transform="translate(669 509)"><tspan x="0" y="0">generation, scheduling</tspan></text>
    <text id="exec_card_focus_3" class="st5" transform="translate(669 533)"><tspan x="0" y="0">behavior</tspan></text>
    <text id="annot_execution_results" class="st15" transform="translate(878 377)"><tspan x="0" y="0">execution results →</tspan></text>
    <text id="annot_metrics_validation" class="st15" transform="translate(896.1 393.1)"><tspan x="0" y="0">metrics and</tspan><tspan x="0" y="15.6" xml:space="preserve"> validation</tspan></text>
    <text id="eval_card1_title" class="st11" transform="translate(1116 234)"><tspan x="0" y="0">Platform Evaluation</tspan></text>
    <text id="eval_card1_file" class="st12" transform="translate(1116 266)"><tspan x="0" y="0">evaluate_platform.py</tspan></text>
    <text id="eval_card1_focus" class="st14" transform="translate(1116 310)"><tspan x="0" y="0">Focus: metrics computation</tspan></text>
    <text id="eval_card2_title" class="st11" transform="translate(1116 407)"><tspan x="0" y="0">Chapter Rendering</tspan></text>
    <text id="eval_card2_file" class="st12" transform="translate(1116 440)"><tspan x="0" y="0">render_p8_chapter.py</tspan></text>
    <text id="eval_card2_placeholder" class="st14" transform="translate(1116 463)"><tspan x="0" y="0">(placeholder module)</tspan></text>
    <text id="eval_card2_focus" class="st14" transform="translate(1116 511)"><tspan x="0" y="0">Focus: output presentation</tspan></text>
    <text id="eval_card3_title" class="st11" transform="translate(1116 605)"><tspan x="0" y="0">Project Checks</tspan></text>
    <text id="eval_card3_file" class="st12" transform="translate(1116 633)"><tspan x="0" y="0">run_p8_checks.py</tspan></text>
    <text id="eval_card3_focus" class="st14" transform="translate(1116 682)"><tspan x="0" y="0">Focus: validation</tspan></text>
    <text id="out_metrics_title_1" class="st7" transform="translate(1512 236)"><tspan x="0" y="0">Platform Metrics</tspan></text>
    <text id="out_metrics_title_2" class="st7" transform="translate(1512 262)"><tspan x="0" y="0">Reports</tspan></text>
    <text id="out_metrics_pill" class="st17" transform="translate(1536.27 302)"><tspan x="0" y="0">metrics</tspan></text>
    <text id="out_validation_title_1" class="st13" transform="translate(1512 424)"><tspan x="0" y="0">Validation</tspan></text>
    <text id="out_validation_title_2" class="st13" transform="translate(1512 452)"><tspan x="0" y="0">Results</tspan></text>
    <text id="out_validation_pill" class="st17" transform="translate(1533.74 486)"><tspan x="0" y="0">pass/fail</tspan></text>
    <text id="out_doc_title_1" class="st13" transform="translate(1512 609)"><tspan x="0" y="0">Documentation</tspan></text>
    <text id="out_doc_title_2" class="st13" transform="translate(1512 637)"><tspan x="0" y="0">Artifacts</tspan></text>
    <text id="out_doc_pill" class="st17" transform="translate(1514.31 670)"><tspan x="0" y="0">reports &amp; logs</tspan></text>
    <text id="bottom_iterative_refinement" class="st8" transform="translate(734.6 884)"><tspan x="0" y="0">iterative refinement</tspan></text>
  </g>
</svg>