<?xml version="1.0" encoding="UTF-8"?>
<svg id="_图层_1" data-name="图层_1" xmlns="http://www.w3.org/2000/svg" version="1.1" viewBox="0 0 900 503">
  <!-- Generator: Adobe Illustrator 29.6.0, SVG Export Plug-In . SVG Version: 2.1.1 Build 207)  -->
  <defs>
    <style>
      .st0 {
        font-size: 13px;
      }

      .st0, .st1, .st2, .st3, .st4, .st5, .st6 {
        isolation: isolate;
      }

      .st0, .st2, .st7 {
        font-family: TimesNewRomanPSMT, 'Times New Roman';
      }

      .st8 {
        fill: #17486d;
      }

      .st9 {
        fill: #0b70ba;
      }

      .st10 {
        fill: #ab5423;
      }

      .st11 {
        fill: #fce0de;
      }

      .st12 {
        fill: #0c6fb8;
      }

      .st13 {
        fill: #18476a;
      }

      .st1 {
        font-size: 25px;
      }

      .st1, .st4, .st5, .st6 {
        font-family: TimesNewRomanPS-BoldMT, 'Times New Roman';
        font-weight: 700;
      }

      .st14 {
        fill: #17476b;
      }

      .st15 {
        fill: #ef7909;
      }

      .st16 {
        fill: #eeedee;
      }

      .st17 {
        fill: #d2ebd5;
      }

      .st18 {
        fill: #d9d8d9;
      }

      .st19 {
        fill: #ecebec;
      }

      .st20 {
        fill: #d9d8d8;
      }

      .st21 {
        fill: #18486c;
      }

      .st22 {
        fill: #6a7987;
      }

      .st23 {
        fill: #076bb7;
      }

      .st24 {
        fill: #0c70ba;
      }

      .st2, .st7, .st6 {
        font-size: 15px;
      }

      .st25 {
        fill: #e2e2e2;
      }

      .st26 {
        fill: #16476c;
      }

      .st27 {
        fill: #0b6eb8;
      }

      .st28 {
        fill: #17466a;
      }

      .st29 {
        fill: #ee7909;
      }

      .st30 {
        fill: #deddde;
      }

      .st31 {
        fill: #efeeee;
      }

      .st32 {
        fill: #ddd;
      }

      .st4 {
        font-size: 17px;
      }

      .st33 {
        fill: #eee;
      }

      .st34 {
        letter-spacing: .31em;
      }

      .st35 {
        fill: #17476c;
      }

      .st36 {
        fill: #c39b7b;
      }

      .st37 {
        fill: #4e4745;
      }

      .st5 {
        fill: #fff;
        font-size: 19px;
      }

      .st38 {
        fill: #da7b2a;
      }

      .st39 {
        fill: #4e7898;
      }

      .st40 {
        fill: #dedede;
      }

      .st41 {
        fill: #c30303;
      }

      .st42 {
        fill: #fefefe;
      }

      .st43 {
        fill: #edeced;
      }

      .st44 {
        fill: #aa5424;
      }

      .st45 {
        fill: #ededed;
      }

      .st46 {
        fill: #f07a08;
      }

      .st47 {
        fill: #0c6fb9;
      }

      .st48 {
        fill: #eeeded;
      }
    </style>
  </defs>
  <g id="_x23_fefefeff">
    <path class="st42" d="M0,0h900v503H0V0M20.69,70.65c-3.54,6.59-1.81,14.2-2.39,21.32-.16,14.68.09,29.36-.11,44.05-.06,4.82.48,10.12,4,13.77,2.7,2.92,5.09,7.6,9.75,7.03,61.36.04,122.71,0,184.07.02,3.59.04,7.17-.4,10.69-1.08-.58-.92-1.15-1.85-1.72-2.77,4.98-7.16,5.56-16.17,4.4-24.56-.84-4.78.36-9.61-.36-14.4-.89-7.71,1.18-15.34.76-23.05-.06-3.94-.87-7.84-.59-11.79.24-3.94-.98-8.7-4.85-10.51-2.4-3.23-6.22-5.32-10.32-4.89-61.64.12-123.3-.19-184.94.15-3.97.12-6.44,3.7-8.39,6.71M242.93,65.89c-1.55.68-3.2,1.4-4.09,2.92-3.8,5.29-2.39,12.12-2.62,18.19.39,5.51-1.41,10.93-.67,16.44,1.05,13.17.38,26.39.61,39.59-.09,4.01,3.07,6.92,5.06,10.08-.99.89-1.97,1.79-2.96,2.69,3.55.62,7.13,1.07,10.74,1.05,58,0,116-.01,174-.01,4.88,0,9.8-.43,14.63.55.61-2.67,2.44-4.61,4.5-6.28,4.02-3.45,4.82-9.09,4.75-14.09-.16-17.35-.04-34.71-.16-52.06-.14-3.75-.69-7.5-1.65-11.12-.2-1.39-1.21-2.32-2.51-2.68-1.26-4.12-5.01-7.61-9.52-7.32-60.68-.11-121.37,0-182.06-.06-2.84-.15-5.63.64-8.05,2.11M462.85,64.88c-3.53,1.38-5.51,5.19-5.56,8.85-3.92,5.91-1.78,13.4-2.83,20.01-.8,3.73-.09,7.49.21,11.23.27,12.01-.23,24.04.15,36.05-.05,5.33,4.09,9.4,8.45,11.81,4.15,2.37,8.93,3.52,13.72,3.36,30.34-.07,60.69.14,91.03-.06,6.32-.72,12.64.4,18.98.06,19.01.02,38.03.05,57.04-.02,5.44-.28,11.31-1.83,14.82-6.3,4.98-4.89,4.41-12.46,4.39-18.87-.49-18.4.87-36.87-.94-55.22.04-1.65-.93-2.94-2.09-3.99-.79-2.75-2.29-5.74-5.06-6.9-1.6-.81-3.35-1.2-5.13-1.13-60.68.08-121.37-.07-182.05.03-1.79-.05-3.54.3-5.13,1.09M675.13,70.85c-4.02,3.96-3.51,9.98-3.43,15.15.26,3.99-.87,7.92-.63,11.9,1.39,9.64.42,19.4.73,29.1.19,6.69-.95,13.84,2.1,20.06,2.05,2.9,4.64,5.45,7.48,7.59,4.1,1.05,8.39,1.28,12.61,1.52,40,0,80.01,0,120.01,0,14.59-.15,29.21.37,43.79-.34,3.19.02,6.54.94,9.6-.42,5.51-2.41,11.89-5.82,12.78-12.44.61-10.65.03-21.32.17-31.98-.12-10.35.06-20.69-.14-31.04.17-2.11-.98-3.86-2.47-5.21.71-5.64-3.8-11.31-9.67-10.94-61.03,0-122.07-.08-183.1.03-4.47-.34-8.73,2.68-9.83,7.01M455.66,173.98c.05,41.69.17,83.37.07,125.05-.28,5.33,3.37,10.01,7.88,12.41,6.2,2.25,12.92,1.62,19.39,1.71,15,.12,30,0,45,.07,5.02.08,9.97-1.04,14.99-.97,5.7-.17,11.31,1.12,17.01,1.05,6-.02,12,.03,18.01-.07,4.31-.06,8.57-1.33,12.9-.8,10.97,1.53,22.06.44,33.09.71,6.05.35,12.06-1.59,18.07-.23,13.28.92,26.62-.06,39.93.26,6.09.05,12.19.24,18.24-.6,12.59.96,25.3.91,37.91.08,13.5.87,27.11.78,40.61-.05,5.27.45,10.55-.91,15.8.03,5.78.91,11.63.41,17.44.56,4.13.14,8.23-1.19,12.35-.5,6.55.95,13.18.43,19.73-.15,9.39.22,18.94,1.29,28.13-1.21,4.26-1.61,7.68-5.74,8.01-10.34,1.62-12.6.69-25.33.92-37.99.27-6-.7-11.99-.04-17.98.2-23.35.03-46.7.02-70.05-.28-3.2-.21-7.04-2.98-9.21-.77,5.38-.43,10.83-.47,16.24-.02,39.62.03,79.23-.03,118.84-2.52,2.87-5.47,6.1-9.68,5.81-132.66.06-265.33-.02-397.99.03-3.1-.04-6.42-.74-8.73-2.95-1.23-1.45-1.94-3.26-2.79-4.93.86-4.56.46-9.2.59-13.8-.33-32.67.27-65.35.03-98.02-.09-7.37.67-14.89-1.36-22.1-1.81,2.68-2.02,5.97-2.05,9.1M443.26,165.91c-2.11,6.84-1.23,14.06-1.36,21.1-.09,15.99,0,31.99,0,48-.16,22.29.53,44.6-.25,66.88-2.74,2.96-6.48,5.05-10.62,4.8-129.68-.04-259.35-.01-389.03-.02-3.8-.06-7.63.31-11.4-.3-2.96-.41-5.07-2.7-7.16-4.61-.18-3.59-.53-7.17-.59-10.76.05-36.99.07-73.99.06-110.98-.18-4.57,1.11-9.44-.89-13.74-3.1,3.54-2.14,8.42-2.25,12.72-.08,39.01.11,78.02.01,117.02.12,4.54.89,9.57,4.36,12.85,3.48,3.81,9.05,3.94,13.84,4.32,24.34.01,48.68-.08,73.01-.02,17.82-.14,35.65.34,53.45-.36,8.51.6,17.04.37,25.56.36,25.67-.19,51.34.09,77.01-.03,3.35-.01,6.64-.74,9.98-.81,13.94,1.37,28.03,1.23,41.98.13,5.03-.24,10,.95,15.03.73,10.4-.27,20.8.19,31.19-.36,15.26.65,30.54.08,45.8.34,6.48-.12,12.99.33,19.45-.49,3.47-.48,7.41-.55,10.1-3.14,3.49-3.53,4.91-8.66,4.81-13.53-.18-39.34.16-78.68,0-118.01-.21-4.04.9-8.8-2.09-12.09M58.31,189.39c-.12,32.07-.19,64.16.04,96.23,123.79-.05,247.58-.08,371.36-.01,0-.28-.04-.86-.06-1.15-4.42.15-8.84.06-13.26.07-.01-27.13.24-54.27-.12-81.39-16.17,0-32.33-.08-48.49-.04-16.36-.31-32.74.21-49.1-.25-.85,6.14-.1,12.37-.43,18.55-8.53.04-17.05.02-25.57.01-.28-6.13.22-12.28-.29-18.41-16.16.22-32.32.11-48.48.07-16.09-.11-32.17.03-48.26-.09l-.71.36c-1.1.83-.5,2.47-.62,3.64.33,4.8-.42,9.62.17,14.42-8.36.07-16.71,0-25.07.03-.48-6.02.29-12.19-.26-18.12-16.25-.49-32.66-.06-48.96-.21-16.32.2-32.64.05-48.96.04.12,27.1-.1,54.19-.1,81.29-4.1.16-8.2.19-12.3.01-.11-31.61-.14-63.23.02-94.83,14.94-.05,29.87-.06,44.81.02l.04-.26c-15.14.1-30.27.05-45.4.02M139.25,189.14v.71c31.15-.18,62.31-.23,93.47-.04l.08-.62c-31.18.19-62.37.15-93.55-.05M249.26,189.17l-.06.65c5.93-.21,11.87-.13,17.8-.13,27.92.19,55.84-.23,83.75.16v-.7c-18.91.29-37.83.12-56.75.14-14.91-.22-29.83.27-44.74-.12M385.16,189.05l-.04.9c14.61.06,29.21.13,43.82.03l-.02-.96c-14.59-.1-29.17-.03-43.76.03M494.42,189.3c-.17,29.23.02,58.46-.09,87.69.05,2.78-.32,5.64.32,8.38,11.76.56,23.57.02,35.35.22,111.58.06,223.16-.1,334.74.06-.02-.3-.05-.9-.07-1.2-2.53.05-5.06.06-7.58.08-.22-2.18-.34-4.36-.43-6.55-9.77-.34-19.55-.14-29.32-.06-9.6-.22-19.2.23-28.8-.05-.28,2.17-.33,4.36-.36,6.56-4.98.24-9.96.1-14.93.09-.11-5.97-.02-11.94-.09-17.91-19.58-.44-39.19-.21-58.78-.31.16,6.05.05,12.09,0,18.13-5.02.21-10.03.05-15.04.08-.14-6.88.09-13.77-.17-20.65-9.79-.07-19.58-.07-29.37,0-9.69-.07-19.38-.12-29.07.02-.2,6.88-.05,13.76-.11,20.64-4.93,0-9.87.07-14.8.02-.61-12.43-.27-24.9-.18-37.35-9.94-.05-19.88-.3-29.81-.15-9.7-.07-19.39.05-29.08.02-.25,12.48.15,24.96-.13,37.44-4.85-.02-9.7.1-14.54,0-.39-3.48-.38-6.98-.32-10.48-.09-18.34-.06-36.68-.04-55.02,19.08-.56,38.19-.07,57.29-.23,81.91.05,163.82-.16,245.73.1v-.71c-48.57.14-97.15.07-145.74.1-52.42-.18-104.86.23-157.28-.22-.08-6.28-.04-12.56.02-18.84-19.58-.33-39.18-.05-58.76-.24l-.15.69c.04,6.12.11,12.25.12,18.37-2.48.41-5.01.38-7.51.42-.16-7.29-.17-14.58.02-21.86,122.83-.03,245.67.08,368.51-.08-122.84-.06-245.68-.04-368.51-.04-.06-2.35-.05-4.7,0-7.05-.26-.02-.77-.07-1.03-.09M620.2,240.17l.04.68c80.93.04,161.85-.07,242.78,0,.44-.12,1.34-.35,1.78-.47-25.58-.43-51.2.02-76.8-.18-55.93-.03-111.87.06-167.8-.04M442.35,349.82c-.56,10.04-.2,20.11-.45,30.17-.24,12.01.77,24.12-.73,36.08-2.66,2.01-5.6,4.06-9.12,3.81-133.35-.13-266.71,0-400.06,0-2.61-.16-4.81-1.74-7.09-2.85-2.62-6.02-1.59-12.67-1.74-19.03-.1-14.35.14-28.71-.16-43.06-.14-1.08.22-3.92-1.65-2.54-1.91,3.5-2.08,7.66-2.24,11.57.08,13.34-.01,26.68-.03,40.03-.11,5.67,0,11.84,3.13,16.79,1.45,2.38,4.36,2.24,6.79,2.21,13.67-.2,27.33-.02,41-.08,122.32.07,244.65-.07,366.98.09,2.39-.03,5.52.33,6.66-2.36,4.53-8.15,1.57-17.72,2.62-26.49.89-6.61.26-13.28.31-19.92-1.15-5.55,1.22-11.15-.17-16.68-.74-2.8-1.31-6.17-4.05-7.74M455.06,356.97c-.25,17,.07,34.02-.13,51.03-.11,4.52-.22,9.51,2.84,13.21,1.27,2.28,4.13,1.62,6.29,1.76,135.64.03,271.28-.15,406.92.05,2.68.06,5.95.11,7.65-2.39,2.98-3.89,2.52-9.02,2.48-13.63-.18-4.23.27-8.44.28-12.66-.64-12.12-.02-24.25-.34-36.38,0-2.64-.65-5.35-2.8-7.08-1.33,19.6-.13,39.3-.68,58.94-.03,2.96-1.94,5.35-3,7.99-4.68,3.03-10.34,1.93-15.57,2.05-130.02.05-260.04-.15-390.05.04-3.97.33-7.2-2.13-9.68-4.93-.83-21.66.09-43.35-.55-65.02-2.17,1.71-3.81,4.13-3.66,7.02M53.24,381.55c-5.74.25-11.49-.05-17.23.19-3.32-.18-6.3,2.91-6.05,6.21,0,6.64-.28,13.31.15,19.94.33,3.32,3.74,5.26,6.85,5.01,41.67,0,83.35-.02,125.03.02,4.31-.11,10.01,1.09,12.71-3.27,1-4.81.24-9.77.48-14.64-.11-3.47.57-7.14-.72-10.44-1.32-2.78-4.8-2.92-7.46-2.92-37.92-.04-75.84,0-113.76-.1M187.19,381.58c-3.07-.04-6.33,2.07-6.25,5.42-.21,6.67-.12,13.36-.05,20.04-.33,3.38,3,5.8,6.12,5.76,34.66.2,69.32.05,103.98.08,2.55-.02,5.13.18,7.65-.28,2.46-1.22,4.24-3.82,4.16-6.61.11-5.99.16-11.99.03-17.98.03-3.16-2.45-6.52-5.84-6.25-36.6-.23-73.21.12-109.8-.18M313.36,381.55c-3.05.39-5.25,3.47-5.19,6.46-.18,5.34.04,10.68-.07,16.03.12,2.15-.29,4.74,1.52,6.34,3.07,3.64,8.23,2.36,12.39,2.5,34.34,0,68.7.06,103.04,0,3,.19,6.84-1.51,6.94-4.91.39-6.97.3-13.99.04-20.97.05-3.28-2.78-5.74-6.02-5.28-37.54-.38-75.12.28-112.65-.17M476.41,381.45c-2.82-.04-5.74,1.25-7.08,3.83-.73,4.53-.15,9.15-.31,13.72.08,3.46-.39,7.03.55,10.41.9,2.63,3.83,3.6,6.38,3.5,28.37-.02,56.75.04,85.11,0,4.18.38,7.1-4.05,6.86-7.87.03-5.68.13-11.37-.07-17.04.03-3.32-2.65-6.58-6.08-6.58-4.92-.28-9.83.45-14.75.25-23.53-.47-47.08.56-70.61-.22M580.41,381.49c-3.35.07-6.73,2.9-6.38,6.45.08,6.35-.13,12.71.12,19.06-.11,3.19,2.63,6.02,5.85,5.86,22.02.14,44.04,0,66.06.05,3.29.36,6.37-2.61,6.19-5.91.05-6.98.26-14-.21-20.97-.06-3.25-3.62-4.5-6.34-4.48-21.76.28-43.55.28-65.29-.06M661.36,382.31c-2.71,1.98-2.54,5.68-2.58,8.67.17,5.67-.19,11.35.21,17.01.16,3.4,3.93,5.15,6.96,4.94,27.03-.04,54.07-.02,81.1,0,2.13-.05,4.51-.09,6.18-1.65,2.3-1.65,1.83-4.8,2.05-7.27-.14-5.96.19-11.95-.39-17.89-.29-3.36-3.97-4.6-6.86-4.44-25.01.04-50.02.04-75.03.06-3.88.08-7.86-.46-11.64.57M764.38,382.31c-3.54,2.06-3.22,6.76-2.94,10.28.7,5.42-.21,10.9.52,16.29.46,2.82,3.35,4.28,6,4.06,31.37-.02,62.73-.06,94.1-.01,1.84-.07,3.98.01,5.29-1.55,2.44-2.05,1.8-5.56,1.98-8.38-.29-5.94.43-11.93-.4-17.83-.64-3.16-4.26-3.6-6.91-3.5-30.01.04-60.01.12-90.02,0-2.54.06-5.17-.16-7.62.63Z"/>
    <path class="st42" d="M22.91,98.04c63.69-.19,127.39-.02,191.09-.09,3.57,0,7.14.08,10.71.21.03,6.28.34,12.56.16,18.84.21,7.27-.67,14.6.59,21.81-.73,4.72-4.34,9.21-9.5,8.86-60.67.12-121.34.02-182.01.1-3.81.32-7.22-1.46-10.18-3.66-1.46-15.31.06-30.73-.86-46.07Z"/>
    <path class="st42" d="M240.4,98.17c4.87-.2,9.73-.24,14.6-.21,51-.01,102,0,153,0,11.44.12,22.9-.27,34.34.23-.64,14.52.76,29.06.2,43.6-2.39,3.01-5.36,6.21-9.59,5.88-57.31.12-114.63,0-171.95.06-4.55-.06-9.13.42-13.64-.25-3.23-.46-5.29-3.23-7.35-5.46.51-14.61-.22-29.24.39-43.85Z"/>
    <path class="st42" d="M458.8,97.85c66.38.15,132.76.04,199.14.07.44.38,1.3,1.14,1.74,1.52.51,14.22.01,28.45.16,42.66-2.11,2.93-4.95,5.81-8.88,5.58-61.32.1-122.67-.03-183.99.06-4.53.4-7.51-3.37-9.55-6.86,1.64-14.28-.88-28.81,1.38-43.03Z"/>
    <path class="st42" d="M675.07,97.95c67.03-.16,134.06.07,201.09-.11,1.21,3.42,1.65,7.05,1.48,10.68-.32,10.77,0,21.55,0,32.33-1.93,3.6-5.1,7.26-9.6,6.87-58.34,0-116.69-.05-175.03.03-3.79-.04-7.64.31-11.36-.51-2.82-.67-4.59-3.13-6.47-5.11.09-14.73.04-29.46-.11-44.18Z"/>
    <path class="st42" d="M495.39,218.49c2.52.04,5.04-.02,7.57.1,0,7.2-.04,14.4-.06,21.59-2.49.22-4.98.25-7.46.31-.24-7.34-.1-14.67-.05-22Z"/>
    <path class="st42" d="M169.4,221.56c8.36.04,16.72-.03,25.08.03-.34,6.46.42,12.93.15,19.4-.41,4.12-.43,8.28-.11,12.42-8.38.06-16.75-.02-25.13.04-.15-10.63-.18-21.26,0-31.89Z"/>
    <path class="st42" d="M292.68,221.58c8.52,0,17.05-.03,25.57,0,.13,20.94.14,41.88,0,62.82-8.53.25-17.06.16-25.58.02-.08-10.28-.13-20.56,0-30.84,7.99-.02,15.98-.06,23.97.02l.06-.23c-8.01.11-16.02.04-24.03.03-.13-10.6-.12-21.22,0-31.83Z"/>
    <path class="st42" d="M495.46,240.52c2.48.05,4.96.09,7.44.3-.04,14.57.15,29.15-.12,43.72-2.45-.04-4.91-.01-7.35-.03-.15-7.28-.24-14.56.08-21.83,1.21-.08,2.43-.16,3.65-.24-.93-.01-2.8-.03-3.73-.05-.17-7.29-.18-14.58.03-21.87Z"/>
    <path class="st42" d="M169.39,253.55c8.4.03,16.8.02,25.2,0,.65,8.81-.89,17.62.05,26.41.04,1.5.02,3-.06,4.5-8.4.11-16.81.12-25.21-.01-.08-10.3-.17-20.61.02-30.91Z"/>
  </g>
  <g id="_x23_efeeeeff">
    <path class="st31" d="M20.69,70.65c1.95-3.01,4.42-6.59,8.39-6.71-3.26,1.92-6.44,4.9-6.28,9.01-.24,8.36-.19,16.73.11,25.09.92,15.34-.6,30.76.86,46.07.75,5.75,7.2,7.79,12.2,7.83,58.35.15,116.71-.02,175.06,0,3.83-.06,8.03-.28,11.16-2.76,2.88-2.55,4.44-6.61,3.27-10.38-1.26-7.21-.38-14.54-.59-21.81.18-6.28-.13-12.56-.16-18.84.71-6.03.36-12.1.42-18.15,0-3.79.02-7.61-.79-11.33,3.87,1.81,5.09,6.57,4.85,10.51-.28,3.95.53,7.85.59,11.79.42,7.71-1.65,15.34-.76,23.05.72,4.79-.48,9.62.36,14.4,1.16,8.39.58,17.4-4.4,24.56.57.92,1.14,1.85,1.72,2.77-3.52.68-7.1,1.12-10.69,1.08-61.36,0-122.71.02-184.07-.02-4.66.57-7.05-4.11-9.75-7.03-3.52-3.65-4.06-8.95-4-13.77.2-14.69-.05-29.37.11-44.05.58-7.12-1.15-14.73,2.39-21.32Z"/>
    <path class="st31" d="M238.84,68.81c.89-1.52,2.54-2.24,4.09-2.92-2.01,2.59-3.33,5.73-3.1,9.07.2,7.73-.5,15.53.57,23.21-.61,14.61.12,29.24-.39,43.85.22,2.05.5,4.36,2.27,5.71,3.75,3.23,8.83,4.39,13.68,4.3,58.03-.14,116.06-.04,174.08-.09,5.76.19,12.86-3.64,12.5-10.15.56-14.54-.84-29.08-.2-43.6.51-9,.37-18.03.22-27.03,1.3.36,2.31,1.29,2.51,2.68.96,3.62,1.51,7.37,1.65,11.12.12,17.35,0,34.71.16,52.06.07,5-.73,10.64-4.75,14.09-2.06,1.67-3.89,3.61-4.5,6.28-4.83-.98-9.75-.56-14.63-.55-58,0-116,.02-174,.01-3.61.02-7.19-.43-10.74-1.05.99-.9,1.97-1.8,2.96-2.69-1.99-3.16-5.15-6.07-5.06-10.08-.23-13.2.44-26.42-.61-39.59-.74-5.51,1.06-10.93.67-16.44.23-6.07-1.18-12.9,2.62-18.19Z"/>
  </g>
  <g id="_x23_076bb7ff">
    <path class="st23" d="M29.08,63.94c61.64-.34,123.3-.03,184.94-.15,4.1-.43,7.92,1.66,10.32,4.89.81,3.72.8,7.54.79,11.33-.06,6.05.29,12.12-.42,18.15-3.57-.13-7.14-.22-10.71-.21-63.7.07-127.4-.1-191.09.09-.3-8.36-.35-16.73-.11-25.09-.16-4.11,3.02-7.09,6.28-9.01Z"/>
    <path class="st23" d="M242.93,65.89c2.42-1.47,5.21-2.26,8.05-2.11,60.69.07,121.38-.05,182.06.06,4.51-.29,8.26,3.2,9.52,7.32.15,9,.29,18.03-.22,27.03-11.44-.5-22.9-.11-34.34-.23-51,0-102-.01-153,0-4.87-.03-9.73.01-14.6.21-1.07-7.68-.37-15.48-.57-23.21-.23-3.34,1.09-6.48,3.1-9.07Z"/>
  </g>
  <g id="_x23_da7b2aff">
    <path class="st38" d="M462.85,64.88c1.59-.79,3.34-1.14,5.13-1.09,60.68-.1,121.37.05,182.05-.03,1.78-.07,3.53.32,5.13,1.13-64.11.05-128.21.02-192.31-.01Z"/>
  </g>
  <g id="_x23_c30303ff">
    <path class="st41" d="M675.13,70.85c1.1-4.33,5.36-7.35,9.83-7.01,61.03-.11,122.07-.03,183.1-.03,5.87-.37,10.38,5.3,9.67,10.94-.12,7.65-.02,15.31-.06,22.96-.38.03-1.13.1-1.51.13-67.03.18-134.06-.05-201.09.11-.26-9.03-.38-18.08.06-27.1Z"/>
  </g>
  <g id="_x23_f07a08ff">
    <path class="st46" d="M457.29,73.73c.05-3.66,2.03-7.47,5.56-8.85,64.1.03,128.2.06,192.31.01,2.77,1.16,4.27,4.15,5.06,6.9-.02,8.68.4,17.39-.23,26.06-.51.02-1.54.05-2.05.07-66.38-.03-132.76.08-199.14-.07-.35-.04-1.07-.14-1.42-.18.01-7.98.15-15.96-.09-23.94Z"/>
  </g>
  <g id="_x23_ecebecff">
    <path class="st19" d="M671.7,86c-.08-5.17-.59-11.19,3.43-15.15-.44,9.02-.32,18.07-.06,27.1.15,14.72.2,29.45.11,44.18-.24,4.93,4.34,9.03,9.01,9.55,4.91.6,9.87.18,14.81.22,52-.02,104,.05,156,.02,6.4-.23,13.61,1.21,19.21-2.73,2.72-1.84,3.68-5.2,3.43-8.34,0-10.78-.32-21.56,0-32.33.17-3.63-.27-7.26-1.48-10.68.38-.03,1.13-.1,1.51-.13.04-7.65-.06-15.31.06-22.96,1.49,1.35,2.64,3.1,2.47,5.21.2,10.35.02,20.69.14,31.04-.14,10.66.44,21.33-.17,31.98-.89,6.62-7.27,10.03-12.78,12.44-3.06,1.36-6.41.44-9.6.42-14.58.71-29.2.19-43.79.34-40,0-80.01,0-120.01,0-4.22-.24-8.51-.47-12.61-1.52-2.84-2.14-5.43-4.69-7.48-7.59-3.05-6.22-1.91-13.37-2.1-20.06-.31-9.7.66-19.46-.73-29.1-.24-3.98.89-7.91.63-11.9Z"/>
  </g>
  <g id="_x23_edecedff">
    <path class="st43" d="M660.22,71.79c1.16,1.05,2.13,2.34,2.09,3.99,1.81,18.35.45,36.82.94,55.22.02,6.41.59,13.98-4.39,18.87-3.51,4.47-9.38,6.02-14.82,6.3-19.01.07-38.03.04-57.04.02-6.34.34-12.66-.78-18.98-.06-30.34.2-60.69-.01-91.03.06-4.79.16-9.57-.99-13.72-3.36-4.36-2.41-8.5-6.48-8.45-11.81-.38-12.01.12-24.04-.15-36.05-.3-3.74-1.01-7.5-.21-11.23,1.05-6.61-1.09-14.1,2.83-20.01.24,7.98.1,15.96.09,23.94.35.04,1.07.14,1.42.18-2.26,14.22.26,28.75-1.38,43.03-.99,6.93,6.34,11.43,12.55,11.01,58.34.1,116.7-.03,175.05.07,4.81.14,10.08-.77,13.58-4.37,1.38-1.47,1.14-3.63,1.24-5.49-.15-14.21.35-28.44-.16-42.66-.44-.38-1.3-1.14-1.74-1.52.51-.02,1.54-.05,2.05-.07.63-8.67.21-17.38.23-26.06Z"/>
    <path class="st43" d="M878.25,350.88c2.15,1.73,2.8,4.44,2.8,7.08.32,12.13-.3,24.26.34,36.38-.01,4.22-.46,8.43-.28,12.66.04,4.61.5,9.74-2.48,13.63-1.7,2.5-4.97,2.45-7.65,2.39,1.4-1.57,2.76-3.24,3.59-5.21,1.06-2.64,2.97-5.03,3-7.99.55-19.64-.65-39.34.68-58.94Z"/>
    <path class="st43" d="M21.35,352.4c1.87-1.38,1.51,1.46,1.65,2.54.3,14.35.06,28.71.16,43.06.15,6.36-.88,13.01,1.74,19.03,1.03,2.2,2.53,4.13,4.1,5.97-2.43.03-5.34.17-6.79-2.21-3.13-4.95-3.24-11.12-3.13-16.79.02-13.35.11-26.69.03-40.03.16-3.91.33-8.07,2.24-11.57Z"/>
  </g>
  <g id="_x23_ddddddff">
    <path class="st32" d="M225.46,138.81c1.17,3.77-.39,7.83-3.27,10.38-3.13,2.48-7.33,2.7-11.16,2.76-58.35-.03-116.71.14-175.06,0-5-.04-11.45-2.08-12.2-7.83,2.96,2.2,6.37,3.98,10.18,3.66,60.67-.08,121.34.02,182.01-.1,5.16.35,8.77-4.14,9.5-8.86Z"/>
  </g>
  <g id="_x23_dededeff">
    <path class="st40" d="M469.97,151.89c-6.21.42-13.54-4.08-12.55-11.01,2.04,3.49,5.02,7.26,9.55,6.86,61.32-.09,122.67.04,183.99-.06,3.93.23,6.77-2.65,8.88-5.58-.1,1.86.14,4.02-1.24,5.49-3.5,3.6-8.77,4.51-13.58,4.37-58.35-.1-116.71.03-175.05-.07Z"/>
    <path class="st40" d="M470,310.76c-6.29.28-13.68-5.02-11.55-11.96.85,1.67,1.56,3.48,2.79,4.93,2.31,2.21,5.63,2.91,8.73,2.95,132.66-.05,265.33.03,397.99-.03,4.21.29,7.16-2.94,9.68-5.81.14,2.36-.37,4.92-2.48,6.31-5.4,4.36-12.68,3.68-19.16,3.61-128.67.07-257.34.06-386,0Z"/>
    <path class="st40" d="M31.53,310.37c-4.21-.59-8.22-4.14-8.09-8.61,2.09,1.91,4.2,4.2,7.16,4.61,3.77.61,7.6.24,11.4.3,129.68,0,259.35-.02,389.03.02,4.14.25,7.88-1.84,10.62-4.8-.08,2.5-1.02,5.14-3.31,6.43-3.75,2.02-8.14,2.27-12.3,2.41-126.68.13-253.36.04-380.04.11-4.82-.05-9.69.32-14.47-.47Z"/>
  </g>
  <g id="_x23_dedddeff">
    <path class="st30" d="M877.64,140.85c.25,3.14-.71,6.5-3.43,8.34-5.6,3.94-12.81,2.5-19.21,2.73-52,.03-104-.04-156-.02-4.94-.04-9.9.38-14.81-.22-4.67-.52-9.25-4.62-9.01-9.55,1.88,1.98,3.65,4.44,6.47,5.11,3.72.82,7.57.47,11.36.51,58.34-.08,116.69-.02,175.03-.03,4.5.39,7.67-3.27,9.6-6.87Z"/>
    <path class="st30" d="M240.01,142.02c2.06,2.23,4.12,5,7.35,5.46,4.51.67,9.09.19,13.64.25,57.32-.07,114.64.06,171.95-.06,4.23.33,7.2-2.87,9.59-5.88.36,6.51-6.74,10.34-12.5,10.15-58.02.05-116.05-.05-174.08.09-4.85.09-9.93-1.07-13.68-4.3-1.77-1.35-2.05-3.66-2.27-5.71Z"/>
  </g>
  <g id="_x23_eeededff">
    <path class="st48" d="M455.66,173.98c.03-3.13.24-6.42,2.05-9.1,2.03,7.21,1.27,14.73,1.36,22.1.24,32.67-.36,65.35-.03,98.02-.13,4.6.27,9.24-.59,13.8-2.13,6.94,5.26,12.24,11.55,11.96,128.66.06,257.33.07,386,0,6.48.07,13.76.75,19.16-3.61,2.11-1.39,2.62-3.95,2.48-6.31.06-39.61.01-79.22.03-118.84.04-5.41-.3-10.86.47-16.24,2.77,2.17,2.7,6.01,2.98,9.21.01,23.35.18,46.7-.02,70.05-.66,5.99.31,11.98.04,17.98-.23,12.66.7,25.39-.92,37.99-.33,4.6-3.75,8.73-8.01,10.34-9.19,2.5-18.74,1.43-28.13,1.21-6.55.58-13.18,1.1-19.73.15-4.12-.69-8.22.64-12.35.5-5.81-.15-11.66.35-17.44-.56-5.25-.94-10.53.42-15.8-.03-13.5.83-27.11.92-40.61.05-12.61.83-25.32.88-37.91-.08-6.05.84-12.15.65-18.24.6-13.31-.32-26.65.66-39.93-.26-6.01-1.36-12.02.58-18.07.23-11.03-.27-22.12.82-33.09-.71-4.33-.53-8.59.74-12.9.8-6.01.1-12.01.05-18.01.07-5.7.07-11.31-1.22-17.01-1.05-5.02-.07-9.97,1.05-14.99.97-15-.08-30,.05-45-.07-6.47-.09-13.19.54-19.39-1.71-4.51-2.4-8.16-7.08-7.88-12.41.1-41.68-.02-83.36-.07-125.05Z"/>
  </g>
  <g id="_x23_edededff">
    <path class="st45" d="M443.26,165.91c2.99,3.29,1.88,8.05,2.09,12.09.16,39.33-.18,78.67,0,118.01.1,4.87-1.32,10-4.81,13.53-2.69,2.59-6.63,2.66-10.1,3.14-6.46.82-12.97.37-19.45.49-15.26-.26-30.54.31-45.8-.34-10.39.55-20.79.09-31.19.36-5.03.22-10-.97-15.03-.73-13.95,1.1-28.04,1.24-41.98-.13-3.34.07-6.63.8-9.98.81-25.67.12-51.34-.16-77.01.03-8.52,0-17.05.24-25.56-.36-17.8.7-35.63.22-53.45.36-24.33-.06-48.67.03-73.01.02-4.79-.38-10.36-.51-13.84-4.32-3.47-3.28-4.24-8.31-4.36-12.85.1-39-.09-78.01-.01-117.02.11-4.3-.85-9.18,2.25-12.72,2,4.3.71,9.17.89,13.74.01,36.99-.01,73.99-.06,110.98.06,3.59.41,7.17.59,10.76-.13,4.47,3.88,8.02,8.09,8.61,4.78.79,9.65.42,14.47.47,126.68-.07,253.36.02,380.04-.11,4.16-.14,8.55-.39,12.3-2.41,2.29-1.29,3.23-3.93,3.31-6.43.78-22.28.09-44.59.25-66.88,0-16.01-.09-32.01,0-48,.13-7.04-.75-14.26,1.36-21.1Z"/>
  </g>
  <g id="_x23_4e4745ff">
    <path class="st37" d="M58.31,189.39c15.13.03,30.26.08,45.4-.02l-.04.26c-14.94-.08-29.87-.07-44.81-.02-.16,31.6-.13,63.22-.02,94.83,4.1.18,8.2.15,12.3-.01,0-27.1.22-54.19.1-81.29,16.32,0,32.64.16,48.96-.04l.02.74c-16.13-.53-32.3-.29-48.45-.11.04,26.72-.45,53.46-.03,80.19l.3.88c16.04.05,32.09.08,48.14-.03,16.25-.29,32.52-.15,48.77-.07.66-8.89.14-17.8.3-26.7-.06-18.23.1-36.46-.09-54.69.55,5.93-.22,12.1.26,18.12,8.36-.04,16.71.04,25.07-.03-.59-4.8.16-9.62-.17-14.42.12-1.17-.48-2.81.62-3.64l.02.54c-.83,16.69.09,33.42-.27,50.13.42,9.96-.32,19.95.3,29.91l.16.89c16.28.04,32.56-.01,48.84.05,15.95-.1,31.91-.21,47.87-.05l.39-.81c.36-26.99.02-54,.14-81,.51,6.13,0,12.28.29,18.41,8.52,0,17.04.03,25.57-.01.33-6.18-.42-12.41.43-18.55l.02,1.01c-.13,26.67-.23,53.35.08,80.02l.21.93c15.98.14,31.97-.06,47.96.04h.93c16.17-.2,32.35.19,48.51-.32,4.42-.01,8.84.08,13.26-.07.02.29.05.87.06,1.15-123.78-.07-247.57-.04-371.36.01-.23-32.07-.16-64.16-.04-96.23M169.4,221.56c-.19,10.63-.16,21.26,0,31.89,8.38-.06,16.75.02,25.13-.04-.32-4.14-.3-8.3.11-12.42.27-6.47-.49-12.94-.15-19.4-8.36-.06-16.72.01-25.08-.03M292.68,221.58c-.12,10.61-.13,21.23,0,31.83,8.01,0,16.02.08,24.03-.03l-.06.23c-7.99-.08-15.98-.04-23.97-.02-.14,10.28-.09,20.56,0,30.84,8.52.14,17.05.23,25.58-.02.14-20.94.13-41.88,0-62.82-8.52-.04-17.05-.02-25.57,0M169.39,253.55c-.19,10.3-.1,20.61-.02,30.91,8.4.13,16.81.12,25.21.01.08-1.5.1-3,.06-4.5-.94-8.79.6-17.6-.05-26.41-8.4.01-16.8.02-25.2,0Z"/>
    <path class="st37" d="M494.42,189.3c.26.02.77.07,1.03.09-.04,2.35-.05,4.7,0,7.05,122.83,0,245.67-.02,368.51.04-122.84.16-245.68.05-368.51.08-.19,7.28-.18,14.57-.02,21.86,2.5-.04,5.03,0,7.51-.42v.59c-2.52-.12-5.04-.06-7.56-.1-.05,7.33-.19,14.66.05,22,2.48-.06,4.97-.09,7.46-.31v.64c-2.48-.21-4.96-.25-7.44-.3-.21,7.29-.2,14.58-.03,21.87.93.02,2.8.04,3.73.05-1.22.08-2.44.16-3.65.24-.32,7.27-.23,14.55-.08,21.83,2.44.02,4.9-.01,7.35.03,9.79.69,19.6.21,29.4.18,9.72-.26,19.44.08,29.16-.24h.74c4.84.11,9.69-.01,14.54,0,9.76.86,19.57.21,29.35.22,9.95-.23,19.9.04,29.85-.18,4.93.05,9.87-.01,14.8-.02,9.79.78,19.61.2,29.41.21,9.76-.27,19.54.06,29.31-.21,5.01-.03,10.02.13,15.04-.08.05-6.04.16-12.08,0-18.13,19.59.1,39.2-.13,58.78.31-9.78.05-19.55-.08-29.32.07-9.75.11-19.51-.22-29.25.11-.15,5.71-.22,11.43.04,17.14l.31.92c9.68-.01,19.37.04,29.05-.11,9.75-.29,19.51.03,29.26-.22,4.97.01,9.95.15,14.93-.09.03-2.2.08-4.39.36-6.56.09,2.01.16,4.03.34,6.05l.11.95c9.41,0,18.82-.01,28.22-.13,9.96-.3,19.92.04,29.88-.21,2.52-.02,5.05-.03,7.58-.08.02.3.05.9.07,1.2-111.58-.16-223.16,0-334.74-.06-11.78-.2-23.59.34-35.35-.22-.64-2.74-.27-5.6-.32-8.38.11-29.23-.08-58.46.09-87.69Z"/>
    <path class="st37" d="M857.36,390.39c.84-1.27,2.46-1.16,3.79-1.47-.32,1.57-.78,3.14-1.82,4.41-3.22,4.22-5.8,8.95-9.64,12.66-2.75-2.21-4.47-5.48-5.57-8.76.82-1.05,2.13-1.04,3.35-1.1.82,1.43,1.68,2.85,2.56,4.27,2.74-3.13,4.67-6.84,7.33-10.01Z"/>
  </g>
  <g id="_x23_d9d8d8ff">
    <path class="st20" d="M139.25,189.14c31.18.2,62.37.24,93.55.05l-.08.62c-31.16-.19-62.32-.14-93.48.04v-.71Z"/>
    <path class="st20" d="M249.26,189.17c14.91.39,29.83-.1,44.74.12,18.92-.02,37.84.15,56.75-.14v.7c-27.91-.39-55.83.03-83.75-.16-5.93,0-11.87-.08-17.8.13l.06-.65Z"/>
    <path class="st20" d="M561.72,218.02c52.42.45,104.86.04,157.28.22,48.59-.03,97.17.04,145.75-.1v.71c-81.92-.26-163.83-.05-245.74-.1-19.1.16-38.21-.33-57.29.23v-.96Z"/>
    <path class="st20" d="M620.2,240.17c55.93.1,111.87,0,167.8.04,25.6.2,51.22-.25,76.8.18-.44.12-1.34.35-1.78.47-80.93-.08-161.85.03-242.78,0l-.04-.68Z"/>
    <path class="st20" d="M432.05,419.88c3.52.25,6.46-1.8,9.12-3.81-.53,2.76-2.39,4.9-4.19,6.94-122.33-.16-244.66-.02-366.98-.09-13.67.06-27.33-.12-41,.08-1.57-1.84-3.07-3.77-4.1-5.97,2.28,1.11,4.48,2.69,7.09,2.85,133.35,0,266.71-.13,400.06,0Z"/>
  </g>
  <g id="_x23_e2e2e2ff">
    <path class="st25" d="M385.16,189.05c14.59-.06,29.17-.13,43.76-.03l.02.96c-14.61.1-29.21.03-43.82-.03l.04-.9Z"/>
  </g>
  <g id="_x23_c39b7bff">
    <path class="st36" d="M502.98,198.94c19.58.19,39.18-.09,58.76.24-.06,6.28-.1,12.56-.02,18.84v.96c-.02,18.34-.05,36.68.04,55.02-.06,3.5-.07,7,.32,10.48h-.74c-.25-28.2.29-56.39-.13-84.58-9.63-.25-19.35-.84-28.92.38-2.71-.71-5.51-.96-8.29-.87-7.06.13-14.12-.11-21.17.22l.15-.69Z"/>
  </g>
  <g id="_x23_0c70baff">
    <path class="st24" d="M502.83,199.63c7.05-.33,14.11-.09,21.17-.22,2.78-.09,5.58.16,8.29.87-.04,27.85.1,55.69-.07,83.53-9.8.87-19.68-.55-29.44.73.27-14.57.08-29.15.12-43.72v-.64c.02-7.19.06-14.39.06-21.59v-.59c-.02-6.12-.09-12.25-.13-18.37Z"/>
    <path class="st24" d="M71.77,203.73c16.15-.18,32.32-.42,48.45.11.09,26.69.22,53.38,0,80.07-16.16.2-32.33.32-48.48.01-.42-26.73.07-53.47.03-80.19Z"/>
    <path class="st24" d="M194.96,203.88c16.05-.36,32.14-.39,48.19,0,.39,9.7.06,19.4.17,29.11-.13,16.99.26,33.99-.22,50.98-16.04.09-32.08.3-48.11-.06-.62-9.96.12-19.95-.3-29.91.36-16.71-.56-33.44.27-50.13Z"/>
  </g>
  <g id="_x23_ee7909ff">
    <path class="st29" d="M532.29,200.28c9.57-1.22,19.29-.63,28.92-.38.42,28.19-.12,56.38.13,84.58-9.72.32-19.44-.02-29.16.24l.04-.91c.17-27.84.03-55.68.07-83.53Z"/>
    <path class="st29" d="M120.2,203.1c16.3.15,32.71-.28,48.96.21.19,18.23.03,36.46.09,54.69-.16,8.9.36,17.81-.3,26.7-16.25-.08-32.52-.22-48.77.07l.04-.86c.22-26.69.09-53.38,0-80.07l-.02-.74Z"/>
    <path class="st29" d="M243.91,203.07c16.16.04,32.32.15,48.48-.07-.12,27,.22,54.01-.14,81-16.05.65-32.14.34-48.2-.03-.45-26.96-.17-53.93-.14-80.9Z"/>
    <path class="st29" d="M367.78,203.1c16.16-.04,32.32.03,48.49.04.36,27.12.11,54.26.12,81.39-16.17-.73-32.39.22-48.56-.54-.28-26.96-.17-53.93-.05-80.89Z"/>
    <path class="st29" d="M605.83,247.03c9.93-.15,19.87.1,29.81.15-.09,12.45-.43,24.92.18,37.35-9.95.22-19.9-.05-29.85.18l-.04-.85c-.26-12.27-.06-24.55-.1-36.83Z"/>
    <path class="st29" d="M679.8,263.85c9.79-.06,19.58-.06,29.37,0,.26,6.88.03,13.77.17,20.65-9.77.27-19.55-.06-29.31.21l-.15-.84c-.36-6.67-.13-13.36-.08-20.03Z"/>
    <path class="st29" d="M753.84,266.68c9.77-.15,19.54-.02,29.32-.07.07,5.97-.02,11.94.09,17.91-9.75.25-19.51-.07-29.26.22l-.11-.87c-.34-5.72-.16-11.46-.04-17.19Z"/>
  </g>
  <g id="_x23_4e7898ff">
    <path class="st39" d="M194.94,203.34l.71-.36c16.09.12,32.17-.02,48.26.09-.03,26.97-.31,53.94.14,80.9h-.95c.48-16.98.09-33.98.22-50.97-.11-9.71.22-19.41-.17-29.11-16.05-.4-32.14-.37-48.19,0l-.02-.54Z"/>
  </g>
  <g id="_x23_6a7987ff">
    <path class="st22" d="M318.68,202.85c16.36.46,32.74-.06,49.1.25-.12,26.96-.23,53.93.05,80.89l.05.86h-.93l.04-.97c.46-17.29.1-34.59.21-51.88-.09-9.39.21-18.78-.21-28.16-16.09-.34-32.2-.34-48.29.02l-.02-1.01Z"/>
  </g>
  <g id="_x23_0b70baff">
    <path class="st9" d="M318.7,203.86c16.09-.36,32.2-.36,48.29-.02.42,9.38.12,18.77.21,28.16-.11,17.29.25,34.59-.21,51.88-16.07.27-32.15.38-48.21,0-.31-26.67-.21-53.35-.08-80.02Z"/>
  </g>
  <g id="_x23_0c6fb9ff">
    <path class="st47" d="M576.75,247.05c9.69.03,19.38-.09,29.08-.02.04,12.28-.16,24.56.1,36.83-9.76.92-19.58-.55-29.31.63.28-12.48-.12-24.96.13-37.44Z"/>
  </g>
  <g id="_x23_0c6fb8ff">
    <path class="st12" d="M650.73,263.87c9.69-.14,19.38-.09,29.07-.02-.05,6.67-.28,13.36.08,20.03-9.75.86-19.55-.59-29.26.63.06-6.88-.09-13.76.11-20.64Z"/>
    <path class="st12" d="M724.59,266.79c9.74-.33,19.5,0,29.25-.11-.12,5.73-.3,11.47.04,17.19-9.74.46-19.5.35-29.25.06-.26-5.71-.19-11.43-.04-17.14Z"/>
  </g>
  <g id="_x23_0b6eb8ff">
    <path class="st27" d="M798.54,277.87c9.6.28,19.2-.17,28.8.05-.02,1.97-.04,3.93-.09,5.9-9.45.47-18.92.41-28.37.1-.18-2.02-.25-4.04-.34-6.05Z"/>
  </g>
  <g id="_x23_ef7909ff">
    <path class="st15" d="M827.34,277.92c9.77-.08,19.55-.28,29.32.06.09,2.19.21,4.37.43,6.55-9.96.25-19.92-.09-29.88.21l.04-.92c.05-1.97.07-3.93.09-5.9Z"/>
  </g>
  <g id="_x23_17486dff">
    <path class="st8" d="M71.74,283.92c16.15.31,32.32.19,48.48-.01l-.04.86c-16.05.11-32.1.08-48.14.03l-.3-.88Z"/>
  </g>
  <g id="_x23_18486cff">
    <path class="st21" d="M194.99,283.92c16.03.36,32.07.15,48.11.06h.95s-.06.88-.06.88c-16.28-.06-32.56,0-48.84-.05l-.16-.89Z"/>
  </g>
  <g id="_x23_aa5424ff">
    <path class="st44" d="M244.05,283.97c16.06.37,32.15.68,48.2.03l-.39.81c-15.96-.16-31.92-.05-47.87.05l.06-.89Z"/>
  </g>
  <g id="_x23_17476cff">
    <path class="st35" d="M318.78,283.88c16.06.38,32.14.27,48.21,0l-.04.97c-15.99-.1-31.98.1-47.96-.04l-.21-.93Z"/>
  </g>
  <g id="_x23_ab5423ff">
    <path class="st10" d="M367.83,283.99c16.17.76,32.39-.19,48.56.54-16.16.51-32.34.12-48.51.32l-.05-.86Z"/>
  </g>
  <g id="_x23_17466aff">
    <path class="st28" d="M502.78,284.54c9.76-1.28,19.64.14,29.44-.73l-.04.91c-9.8.03-19.61.51-29.4-.18Z"/>
    <path class="st28" d="M650.62,284.51c9.71-1.22,19.51.23,29.26-.63l.15.84c-9.8-.01-19.62.57-29.41-.21Z"/>
  </g>
  <g id="_x23_17476bff">
    <path class="st14" d="M576.62,284.49c9.73-1.18,19.55.29,29.31-.63l.04.85c-9.78,0-19.59.64-29.35-.22Z"/>
  </g>
  <g id="_x23_18476aff">
    <path class="st13" d="M724.63,283.93c9.75.29,19.51.4,29.25-.06l.11.87c-9.68.15-19.37.1-29.05.11l-.31-.92Z"/>
  </g>
  <g id="_x23_16476cff">
    <path class="st26" d="M798.88,283.92c9.45.31,18.92.37,28.37-.1l-.04.92c-9.4.12-18.81.13-28.22.13l-.11-.95Z"/>
  </g>
  <g id="_x23_eeedeeff">
    <path class="st16" d="M442.35,349.82c2.74,1.57,3.31,4.94,4.05,7.74,1.39,5.53-.98,11.13.17,16.68-.05,6.64.58,13.31-.31,19.92-1.05,8.77,1.91,18.34-2.62,26.49-1.14,2.69-4.27,2.33-6.66,2.36,1.8-2.04,3.66-4.18,4.19-6.94,1.5-11.96.49-24.07.73-36.08.25-10.06-.11-20.13.45-30.17Z"/>
  </g>
  <g id="_x23_eeeeeeff">
    <path class="st33" d="M455.06,356.97c-.15-2.89,1.49-5.31,3.66-7.02.64,21.67-.28,43.36.55,65.02.05,3.36,2.82,5.61,4.79,8-2.16-.14-5.02.52-6.29-1.76-3.06-3.7-2.95-8.69-2.84-13.21.2-17.01-.12-34.03.13-51.03Z"/>
  </g>
  <g id="_x23_d2ebd5ff">
    <path class="st17" d="M53.24,381.55c37.92.1,75.84.06,113.76.1,2.66,0,6.14.14,7.46,2.92,1.29,3.3.61,6.97.72,10.44-.24,4.87.52,9.83-.48,14.64-2.7,4.36-8.4,3.16-12.71,3.27-41.68-.04-83.36-.02-125.03-.02-3.11.25-6.52-1.69-6.85-5.01-.43-6.63-.16-13.3-.15-19.94-.25-3.3,2.73-6.39,6.05-6.21,5.74-.24,11.49.06,17.23-.19Z"/>
    <path class="st17" d="M187.19,381.58c36.59.3,73.2-.05,109.8.18,3.39-.27,5.87,3.09,5.84,6.25.13,5.99.08,11.99-.03,17.98.08,2.79-1.7,5.39-4.16,6.61-2.52.46-5.1.26-7.65.28-34.66-.03-69.32.12-103.98-.08-3.12.04-6.45-2.38-6.12-5.76-.07-6.68-.16-13.37.05-20.04-.08-3.35,3.18-5.46,6.25-5.42Z"/>
    <path class="st17" d="M313.36,381.55c37.53.45,75.11-.21,112.65.17,3.24-.46,6.07,2,6.02,5.28.26,6.98.35,14-.04,20.97-.1,3.4-3.94,5.1-6.94,4.91-34.34.06-68.7,0-103.04,0-4.16-.14-9.32,1.14-12.39-2.5-1.81-1.6-1.4-4.19-1.52-6.34.11-5.35-.11-10.69.07-16.03-.06-2.99,2.14-6.07,5.19-6.46Z"/>
  </g>
  <g id="_x23_fce0deff">
    <path class="st11" d="M476.41,381.45c23.53.78,47.08-.25,70.61.22,4.92.2,9.83-.53,14.75-.25,3.43,0,6.11,3.26,6.08,6.58.2,5.67.1,11.36.07,17.04.24,3.82-2.68,8.25-6.86,7.87-28.36.04-56.74-.02-85.11,0-2.55.1-5.48-.87-6.38-3.5-.94-3.38-.47-6.95-.55-10.41.16-4.57-.42-9.19.31-13.72,1.34-2.58,4.26-3.87,7.08-3.83Z"/>
    <path class="st11" d="M580.41,381.49c21.74.34,43.53.34,65.29.06,2.72-.02,6.28,1.23,6.34,4.48.47,6.97.26,13.99.21,20.97.18,3.3-2.9,6.27-6.19,5.91-22.02-.05-44.04.09-66.06-.05-3.22.16-5.96-2.67-5.85-5.86-.25-6.35-.04-12.71-.12-19.06-.35-3.55,3.03-6.38,6.38-6.45Z"/>
    <path class="st11" d="M661.36,382.31c3.78-1.03,7.76-.49,11.64-.57,25.01-.02,50.02-.02,75.03-.06,2.89-.16,6.57,1.08,6.86,4.44.58,5.94.25,11.93.39,17.89-.22,2.47.25,5.62-2.05,7.27-1.67,1.56-4.05,1.6-6.18,1.65-27.03-.02-54.07-.04-81.1,0-3.03.21-6.8-1.54-6.96-4.94-.4-5.66-.04-11.34-.21-17.01.04-2.99-.13-6.69,2.58-8.67Z"/>
    <path class="st11" d="M764.38,382.31c2.45-.79,5.08-.57,7.62-.63,30.01.11,60.01.03,90.02,0,2.65-.1,6.27.34,6.91,3.5.83,5.9.11,11.89.4,17.83-.18,2.82.46,6.33-1.98,8.38-1.31,1.56-3.45,1.48-5.29,1.55-31.37-.05-62.73,0-94.1.01-2.65.22-5.54-1.24-6-4.06-.73-5.39.18-10.87-.52-16.29-.28-3.52-.6-8.22,2.94-10.28M857.36,390.39c-2.66,3.17-4.59,6.88-7.33,10.01-.88-1.42-1.74-2.84-2.56-4.27-1.22.06-2.53.05-3.35,1.1,1.1,3.28,2.82,6.55,5.57,8.76,3.84-3.71,6.42-8.44,9.64-12.66,1.04-1.27,1.5-2.84,1.82-4.41-1.33.31-2.95.2-3.79,1.47Z"/>
  </g>
  <g id="_x23_d9d8d9ff">
    <path class="st18" d="M464.06,422.97c-1.97-2.39-4.74-4.64-4.79-8,2.48,2.8,5.71,5.26,9.68,4.93,130.01-.19,260.03.01,390.05-.04,5.23-.12,10.89.98,15.57-2.05-.83,1.97-2.19,3.64-3.59,5.21-135.64-.2-271.28-.02-406.92-.05Z"/>
  </g>
  <g class="st3">
    <g class="st3">
      <g class="st3">
        <text class="st1" transform="translate(166.9 39.33)"><tspan x="0" y="0">P02 Legal SFT Data Factory – Key Metrics Overview</tspan></text>
      </g>
    </g>
  </g>
  <g class="st3">
    <g class="st3">
      <g class="st3">
        <text class="st5" transform="translate(105.81 85.43)"><tspan x="0" y="0">Seed</tspan></text>
      </g>
    </g>
  </g>
  <g class="st3">
    <g class="st3">
      <g class="st3">
        <text class="st5" transform="translate(315.17 86.62)"><tspan x="0" y="0">SFT</tspan></text>
      </g>
    </g>
  </g>
  <g class="st3">
    <g class="st3">
      <g class="st3">
        <text class="st5" transform="translate(493.27 88.66)"><tspan x="0" y="0">Preference pairs</tspan><tspan class="st34" x="133.45" y="0">	</tspan></text>
      </g>
    </g>
  </g>
  <g class="st3">
    <g class="st3">
      <g class="st3">
        <text class="st5" transform="translate(728.02 90.08)"><tspan x="0" y="0">Final dataset</tspan></text>
      </g>
    </g>
  </g>
  <g class="st3">
    <g class="st3">
      <g class="st3">
        <text class="st1" transform="translate(95.7 132.08)"><tspan x="0" y="0">2577</tspan></text>
      </g>
    </g>
  </g>
  <g class="st3">
    <g class="st3">
      <g class="st3">
        <text class="st1" transform="translate(299.39 129.72)"><tspan x="0" y="0">7731</tspan></text>
      </g>
    </g>
  </g>
  <g class="st3">
    <g class="st3">
      <g class="st3">
        <text class="st1" transform="translate(532.61 128.67)"><tspan x="0" y="0">7731</tspan></text>
      </g>
    </g>
  </g>
  <g class="st3">
    <g class="st3">
      <g class="st3">
        <text class="st1" transform="translate(753.47 133.53)"><tspan x="0" y="0">7737</tspan></text>
      </g>
    </g>
  </g>
  <g class="st3">
    <g class="st3">
      <g class="st3">
        <text class="st2" transform="translate(84.78 296.47)"><tspan x="0" y="0">legal_qa</tspan></text>
      </g>
    </g>
  </g>
  <g class="st3">
    <g class="st3">
      <g class="st3">
        <text class="st2" transform="translate(185.15 297.57)"><tspan x="0" y="0">statute_explanation</tspan></text>
      </g>
    </g>
  </g>
  <g class="st3">
    <g class="st3">
      <g class="st3">
        <text class="st2" transform="translate(329.56 297.59)"><tspan x="0" y="0">case_analysis</tspan></text>
      </g>
    </g>
  </g>
  <g class="st3">
    <g class="st3">
      <g class="st3">
        <text class="st2" transform="translate(107.94 196.94)"><tspan x="0" y="0">2577</tspan></text>
      </g>
    </g>
  </g>
  <g class="st3">
    <g class="st3">
      <g class="st3">
        <text class="st4" transform="translate(167.38 172.82)"><tspan x="0" y="0">Task Distribution</tspan></text>
      </g>
    </g>
  </g>
  <g class="st3">
    <g class="st3">
      <g class="st3">
        <text class="st2" transform="translate(229.05 196.94)"><tspan x="0" y="0">2577</tspan></text>
      </g>
    </g>
  </g>
  <g class="st3">
    <g class="st3">
      <g class="st3">
        <text class="st2" transform="translate(352.83 196.94)"><tspan x="0" y="0">2577</tspan></text>
      </g>
    </g>
  </g>
  <g class="st3">
    <g class="st3">
      <g class="st3">
        <text class="st2" transform="translate(522.13 193.42)"><tspan x="0" y="0">3882</tspan></text>
      </g>
    </g>
  </g>
  <g class="st3">
    <g class="st3">
      <g class="st3">
        <text class="st2" transform="translate(596.3 244.38)"><tspan x="0" y="0">1710</tspan></text>
      </g>
    </g>
  </g>
  <g class="st3">
    <g class="st3">
      <g class="st3">
        <text class="st2" transform="translate(669.85 259.5)"><tspan x="0" y="0">951</tspan></text>
      </g>
    </g>
  </g>
  <g class="st3">
    <g class="st3">
      <g class="st3">
        <text class="st2" transform="translate(743.8 265.3)"><tspan x="0" y="0">855</tspan></text>
      </g>
    </g>
  </g>
  <g class="st3">
    <g class="st3">
      <g class="st3">
        <text class="st2" transform="translate(813.24 277.28)"><tspan x="0" y="0">333</tspan></text>
      </g>
    </g>
  </g>
  <g class="st3">
    <g class="st3">
      <g class="st3">
        <text class="st4" transform="translate(583.45 173.01)"><tspan x="0" y="0">Domain Distribution</tspan></text>
      </g>
    </g>
  </g>
  <g class="st3">
    <g class="st3">
      <g class="st3">
        <text class="st2" transform="translate(185.46 326.09)"><tspan x="0" y="0">Balanced tasks</tspan></text>
      </g>
    </g>
  </g>
  <g class="st3">
    <g class="st3">
      <g class="st3">
        <text class="st2" transform="translate(579.65 322.98)"><tspan x="0" y="0">Imbalanced domain coverage</tspan></text>
      </g>
    </g>
  </g>
  <g class="st3">
    <g class="st3">
      <g class="st3">
        <text class="st2" transform="translate(48.83 402)"><tspan x="0" y="0">QA records: 7731</tspan></text>
      </g>
    </g>
  </g>
  <g class="st3">
    <g class="st3">
      <g class="st3">
        <text class="st2" transform="translate(191.92 403.77)"><tspan x="0" y="0">Avg score: 5.0</tspan></text>
      </g>
    </g>
  </g>
  <g class="st3">
    <g class="st3">
      <g class="st3">
        <text class="st2" transform="translate(325.39 401.83)"><tspan x="0" y="0">Risk refusal: 6</tspan></text>
      </g>
    </g>
  </g>
  <g class="st3">
    <g class="st3">
      <g class="st3">
        <text class="st2" transform="translate(484.8 402)"><tspan x="0" y="0">train: 6947</tspan></text>
      </g>
    </g>
  </g>
  <g class="st3">
    <g class="st3">
      <g class="st3">
        <text class="st2" transform="translate(668.01 403.95)"><tspan x="0" y="0">smoke: 24</tspan></text>
      </g>
    </g>
  </g>
  <g class="st3">
    <g class="st3">
      <g class="st3">
        <text class="st2" transform="translate(586.64 403.91)"><tspan x="0" y="0">val: 790</tspan></text>
      </g>
    </g>
  </g>
  <g class="st3">
    <g class="st3">
      <g class="st3">
        <text class="st2" transform="translate(38.91 294.26)"><tspan x="0" y="0">0</tspan></text>
      </g>
    </g>
    <g class="st3">
      <g class="st3">
        <g class="st3">
          <text class="st2" transform="translate(27.66 266.02)"><tspan x="0" y="0">1000</tspan></text>
        </g>
      </g>
    </g>
    <text class="st7" transform="translate(25.85 235.66)"><tspan x="0" y="0">2000</tspan></text>
    <text class="st7" transform="translate(27.34 203.89)"><tspan x="0" y="0">3000</tspan></text>
    <text class="st7" transform="translate(487.09 287.49)"><tspan x="0" y="0">0</tspan></text>
    <text class="st7" transform="translate(463.54 268.77)"><tspan x="0" y="0">1000</tspan></text>
    <text class="st7" transform="translate(463.64 245.9)"><tspan x="0" y="0">2000</tspan></text>
    <text class="st7" transform="translate(462.96 223.7)"><tspan x="0" y="0">3000</tspan></text>
    <text class="st7" transform="translate(462.03 201.83)"><tspan x="0" y="0">4000</tspan></text>
  </g>
  <g class="st3">
    <g class="st3">
      <g class="st3">
        <text/>
      </g>
    </g>
  </g>
  <g class="st3">
    <g class="st3">
      <g class="st3">
        <text class="st6" transform="translate(423.45 453.44)"><tspan x="0" y="0">Key Insight:</tspan><tspan x="-117.48" y="18">&quot;Not just data volume, but system completeness&quot;</tspan><tspan x="-84.18" y="36">&quot;End-to-end supervised data pipeline&quot;</tspan></text>
      </g>
    </g>
  </g>
  <g class="st3">
    <g class="st3">
      <g class="st3">
        <text class="st2" transform="translate(590.35 440.25)"><tspan x="0" y="0">Multi-layer supervision</tspan></text>
      </g>
    </g>
  </g>
  <g class="st3">
    <g class="st3">
      <g class="st3">
        <text class="st2" transform="translate(140.11 443.37)"><tspan x="0" y="0">Multi-layer supervision</tspan></text>
      </g>
    </g>
  </g>
  <g class="st3">
    <g class="st3">
      <g class="st3">
        <text class="st4" transform="translate(145.86 366.9)"><tspan x="0" y="0">Quality &amp; Preference</tspan></text>
      </g>
    </g>
  </g>
  <g class="st3">
    <g class="st3">
      <g class="st3">
        <text class="st4" transform="translate(592.9 364.91)"><tspan x="0" y="0">Training Outputs</tspan></text>
      </g>
    </g>
  </g>
  <g class="st3">
    <g class="st3">
      <g class="st3">
        <text class="st2" transform="translate(776.16 402.71)"><tspan x="0" y="0">manifest:</tspan></text>
      </g>
    </g>
  </g>
  <g class="st3">
    <g class="st3">
      <g class="st3">
        <text class="st0" transform="translate(804.05 297.42)"><tspan x="0" y="0">Labor Law</tspan></text>
      </g>
    </g>
  </g>
  <g class="st3">
    <g class="st3">
      <g class="st3">
        <text class="st0" transform="translate(724.7 295.57)"><tspan x="0" y="0">Company Law</tspan></text>
      </g>
    </g>
  </g>
  <g class="st3">
    <g class="st3">
      <g class="st3">
        <text class="st0" transform="translate(642.29 295.44)"><tspan x="0" y="0">Civil Procedure</tspan></text>
      </g>
    </g>
  </g>
  <g class="st3">
    <g class="st3">
      <g class="st3">
        <text class="st0" transform="translate(568.52 295.91)"><tspan x="0" y="0">Criminal Law</tspan></text>
      </g>
    </g>
  </g>
  <g class="st3">
    <g class="st3">
      <g class="st3">
        <text class="st0" transform="translate(507.89 295.95)"><tspan x="0" y="0">Civil Law</tspan></text>
      </g>
    </g>
  </g>
</svg>