<?xml version="1.0" encoding="UTF-8"?>
<svg id="_图层_1" data-name="图层_1" xmlns="http://www.w3.org/2000/svg" version="1.1" viewBox="0 0 900 491">
  <!-- Generator: Adobe Illustrator 29.6.0, SVG Export Plug-In . SVG Version: 2.1.1 Build 207)  -->
  <defs>
    <style>
      .st0 {
        fill: #e08d27;
      }

      .st1 {
        fill: #ed8a83;
      }

      .st2 {
        fill: #50565d;
      }

      .st3 {
        fill: #53585f;
      }

      .st4 {
        fill: #b6bbc3;
      }

      .st5 {
        fill: #c7cbd2;
      }

      .st6 {
        fill: #68bc6e;
      }

      .st7 {
        fill: #4caf55;
      }

      .st8 {
        font-size: 19px;
      }

      .st8, .st9, .st10 {
        isolation: isolate;
      }

      .st8, .st11 {
        font-family: TimesNewRomanPS-BoldMT, 'Times New Roman';
        font-weight: 700;
      }

      .st12 {
        fill: #c8ccd3;
      }

      .st13 {
        fill: #1e9929;
      }

      .st14 {
        fill: #100d0d;
      }

      .st15 {
        fill: #fff;
      }

      .st16 {
        fill: #0e0c0c;
      }

      .st17 {
        fill: #889cb0;
      }

      .st18 {
        fill: #71889e;
      }

      .st19 {
        fill: #d0d3d9;
      }

      .st9 {
        font-family: TimesNewRomanPSMT, 'Times New Roman';
        font-size: 15px;
      }

      .st20 {
        fill: #c6c9d0;
      }

      .st21 {
        fill: #e6e9ee;
      }

      .st22 {
        fill: #febc6c;
      }

      .st23 {
        fill: #c3c7ce;
      }

      .st24 {
        fill: #4d545c;
      }

      .st25 {
        fill: #cfd3da;
      }

      .st26 {
        fill: #fbfbfb;
      }

      .st27 {
        fill: #f3f4f5;
      }

      .st28 {
        fill: #7e98b0;
      }

      .st29 {
        fill: #7a93ac;
      }

      .st30 {
        fill: #d77756;
      }

      .st31 {
        fill: #69829a;
      }

      .st11 {
        font-size: 29px;
      }

      .st32 {
        fill: #79828c;
      }

      .st33 {
        fill: #c6cad1;
      }

      .st34 {
        fill: #b8241a;
      }

      .st35 {
        fill: #6c869f;
      }

      .st36 {
        fill: #c54037;
      }

      .st37 {
        fill: #dcdee4;
      }

      .st38 {
        fill: #db7c75;
      }

      .st39 {
        fill: #cb685f;
      }

      .st40 {
        fill: #b2b9c0;
      }

      .st41 {
        fill: #97d399;
      }

      .st42 {
        fill: #c34037;
      }

      .st43 {
        fill: #91a1af;
      }

      .st44 {
        fill: #adb5be;
      }

      .st45 {
        fill: #595b61;
      }

      .st46 {
        fill: #7a94ac;
      }

      .st47 {
        fill: #c4c8cf;
      }

      .st48 {
        fill: #f2b56a;
      }
    </style>
  </defs>
  <g id="_x23_e6e9eeff">
    <path class="st21" d="M0,0h900v491H0V0M362.16,85.36c-.56.96-1.05,1.95-1.45,2.98v-1.28c-.7,7.76-.15,15.59-.38,23.37-5.42.36-10.79,1.21-16.19,1.69,1.48,1.53,3.08,2.97,4.28,4.76-19.11,14-34.75,32.62-45.89,53.5-2.16,3.9-3.85,8.03-6.01,11.93-.49,1.17-.38,2.39-.03,3.58-3.72,3.64-7.77,6.93-11.24,10.81,1.93.21,3.87.41,5.81.61-5.09,16.38-7.63,33.56-7.16,50.72-.21,25.23,6.83,50.13,18.54,72.37.46.13,1.38.4,1.84.54.93,5.29.77,10.69,1.61,16,1.54-1.43,3.07-2.86,4.61-4.29,20.11,31.9,52.63,55.21,88.75,65.59l.63-2c2.62,3.25,1.15,7.78,1.63,11.6.24-8.79.2-17.58.03-26.36l1-.92c.3,8.48-.02,16.96.17,25.44.02,4.9,4.31,8.3,8.54,9.85l-1.02-.09.08.79c39.63.01,79.27.16,118.9-.09-.39-.15-1.16-.46-1.55-.61,1.9-.81,3.71-1.81,5.48-2.87l-.62,1.52c1.56-.71,3.08-1.68,3.86-3.27,2.53-4.27.79-9.46,2.49-13.97,4.67,1.57,9.14,3.77,13.12,6.69,13.85,10.17,23.02,25.98,38.77,33.68-.99,1.61-1.94,3.26-2.82,4.94,4.58-.56,9.22-.54,13.78-1.27.05-.19.16-.58.21-.77-2.56-3.83-5.32-7.54-8.41-10.95-.44,1.78-.9,3.58-1.74,5.23-18.43-9.53-27.97-30.3-47.2-38.64,15.12-.38,30.25-.08,45.38-.09-.37,1.91-.73,3.81-1.04,5.73,4.47-2.32,8.81-4.89,13.23-7.3-4.36-2.64-8.75-5.22-13.22-7.64.33,2.02.7,4.04,1.06,6.07-15.02-.07-30.04.29-45.04-.1,6.56-2.93,12.36-7.31,17.54-12.24,9.44-9.13,17.55-20.38,29.72-26.08.39,1.8.74,3.58,1.11,5.39,3.27-4.07,6.32-8.31,9.52-12.43.07,4.16-.18,8.33.09,12.49.11,3.14,2.67,5.44,5.41,6.54.12.14.37.42.49.56,72.43-.17,144.87,0,217.3-.08,2.54-.07,4.33-2.2,5.96-3.89-.04-.25-.11-.74-.15-.99,1.35-7.92.28-16.07.61-24.08.38-4.65-4.04-8.72-8.63-8.18-70.97,0-141.94.03-212.9-.01-3.72-.2-7.46,2.4-8.04,6.18-.38,3.73.02,7.5-.13,11.25-5.01-.17-10.03-.36-15.01-.92.8,1.75,1.76,3.42,2.91,4.99-13.5,7.11-22.45,19.87-33.56,29.9-5.7,4.88-12.22,8.95-19.48,11.03,1.31-6.12-.99-12.25.02-18.36,4.61-.74,9.18-1.69,13.82-2.2-1.46-1.47-2.92-2.94-4.35-4.43,34.97-29.27,55.87-74.22,56.51-119.76-.68-.09-2.04-.26-2.72-.34.57-.75,1.16-1.47,1.79-2.17l-.43-.51c2.44-4.79,4.54-9.73,6.7-14.64-2.02.7-4.1,1.23-6.18,1.68-2.99-41.07-23.47-80.13-54.38-107.12l.2-.22c-.91-.98-2.58-1.66-2.5-3.21-.21-9.99.06-20-.26-29.99-.38-1.93-.1-4.78-2.33-5.61l.14,1.74c-1.2-2.4-3.03-4.44-4.89-6.35l1.38.33c-1.62-1.79-4.03-1.99-6.29-1.92-54.29.05-108.59-.02-162.88.03-3.8-.32-8.5,2.03-8.9,6.14M83.65,108.54c-1.54,2.54-2.11,5.55-2.12,8.49.04,24.99.01,49.99-.02,74.99.06,2.78-.44,5.91,1.56,8.19l-.15-1.38c2.35,3.13,5.42,5.87,9.24,7.02-.58.13-1.75.38-2.33.51,5.37.57,10.78.21,16.17.28,51.69-.02,103.37,0,155.06,0,2.38-.18,5.06.61,7.2-.73l-1.42-.04c4.11-1.64,7.44-4.97,8.93-9.15l.08,1.58c1.82-2.71.84-6.25,1.2-9.33-.34-25.43.53-50.88-.49-76.3-.21.39-.63,1.18-.84,1.57-.94-2.66-2.32-5.15-3.77-7.55l1.15.58c-2.2-3.21-6.48-3.86-10.09-3.83-56.34.1-112.68.06-169.01,0-3.97-.04-8.11,1.74-10.35,5.1M627.31,172.41l-.08.89,1.01-.04c-4.29,1.37-7.56,4.74-9.17,8.89-.15-.54-.46-1.63-.62-2.18-.37,35.67,0,71.34-.22,107.02.16,2.08-.42,4.46.94,6.27l-.04-1.56c.45,1.33,1,2.62,1.59,3.9l-.8-.77c1.47,4.7,6.65,6.39,11.13,6.04,5.66,1.12,11.31-.71,16.97.2,3.3.31,6.62.25,9.92,0,10.43-.2,20.86.48,31.3.17,5.88-.71,11.82-.54,17.73-.35,8.22.84,16.48.14,24.72.43,10.41-.98,20.9-.51,31.34-.21,4.09-.49,9.17.46,12.04-3.25l-1.17.52c1.41-2.13,2.8-4.28,3.95-6.56l.03,1.56c1.21-1.53,1.09-3.54,1.15-5.37.03-34.33-.1-68.65.06-102.98.04-2.68-.03-5.75-2.39-7.52l.34,1.61c-2.11-2.76-5.08-4.74-8.32-5.89.36-.18,1.09-.55,1.46-.74-47.62-.33-95.25.03-142.87-.08M80.84,281.1l1.33-.33c-1.55,1.4-3.09,2.81-4.6,4.26l.41-1.09c-2.19,2.49-2.5,5.93-2.57,9.1.09,38.3.03,76.61.02,114.91.02,2.77.08,5.63,1.4,8.14l-.22-1.26c2.39,2.82,5.07,5.66,8.56,7.07l-.94-.07-.02.8c45.92.26,91.85.06,137.77.08,16.1-.11,32.22.37,48.3-.22-.38-.13-1.13-.4-1.51-.53,3.51-1.46,6.34-4.17,8.58-7.18l-.24,1.29c1.55-2.79,1.44-6.03,1.5-9.11-.1-36.64.02-73.27-.08-109.91-.32-4.4.7-9.49-2.49-13.09l.37,1.11c-2.39-1.91-4.86-3.77-7.57-5.2.57-.06,1.72-.18,2.29-.24-2.36-.31-4.75-.43-7.13-.42-59-.05-117.99.04-176.98,0-2.22-.04-4.53.26-6.18,1.89M607.23,376.32c-2.44,1.26-4.49,3.8-4.44,6.65-.05,7.36-.04,14.72-.02,22.08-.22,4.41,4,7.92,8.24,7.68,85.37-.02,170.75.03,256.12-.02,4.1.09,7.69-3.64,7.55-7.72.05-7.35.05-14.71-.02-22.05-.2-4.33-4.33-7.76-8.63-7.27-83.34-.01-166.69.02-250.04-.01-2.92.09-5.97-.36-8.76.66M604.87,424.09c-.53.67-1.03,1.36-1.52,2.05-1.2,8.2-.34,16.55-.56,24.82-.2,3.85,2.98,6.84,6.45,7.87,71.95.05,143.89.02,215.83.02,3.25-.07,6.36-2.32,7.29-5.47,1.16-4.02.43-8.26.61-12.37-.22-4.45.57-9.02-.58-13.37-.64-3.38-3.98-6.02-7.41-5.88-71.3,0-142.6-.06-213.89.03-2.31-.16-4.62.61-6.22,2.3Z"/>
  </g>
  <g id="_x23_b6bbc3ff">
    <path class="st4" d="M362.16,85.36c.4-4.11,5.1-6.46,8.9-6.14,54.29-.05,108.59.02,162.88-.03,2.26-.07,4.67.13,6.29,1.92l-1.38-.33c-4.5-1.33-9.23-.93-13.85-.94-48.66.02-97.31.03-145.97,0-3.57.05-7.21-.28-10.71.55-2.68.69-4.6,2.82-6.16,4.98Z"/>
    <path class="st4" d="M83.65,108.54c2.24-3.36,6.38-5.14,10.35-5.1,56.33.06,112.67.1,169.01,0,3.61-.03,7.89.62,10.09,3.83l-1.15-.58c-2.43-1.38-5.1-2.51-7.95-2.4-56.36-.06-112.72.02-169.07-.05-3.61-.05-7.45,1.05-9.79,3.96-2.23,2.36-2.62,5.74-2.68,8.85.04,25.33.04,50.67.02,76,.03,1.93.2,3.86.44,5.78l.15,1.38c-2-2.28-1.5-5.41-1.56-8.19.03-25,.06-50,.02-74.99.01-2.94.58-5.95,2.12-8.49Z"/>
    <path class="st4" d="M618.45,179.97c.16.55.47,1.64.62,2.18-.01,30.29-.25,60.58-.03,90.86-.16,6.23-.37,12.47.09,18.69l.04,1.56c-1.36-1.81-.78-4.19-.94-6.27.22-35.68-.15-71.35.22-107.02Z"/>
    <path class="st4" d="M80.84,281.1c1.65-1.63,3.96-1.93,6.18-1.89,58.99.04,117.98-.05,176.98,0,2.38,0,4.77.11,7.13.42-.57.06-1.72.18-2.29.24-57.27-.15-114.53-.03-171.8-.06-4.96.04-10.05-.5-14.87.96l-1.33.33Z"/>
    <path class="st4" d="M412.83,386c1.46-1.35,2.91-3.17,5.09-3.2,4.35-.3,8.78-.42,13.11.24,2.17.16,2.73,2.43,3.49,4.06-3.51.35-7.01-.44-10.52-.04-3.75.34-7.7.77-11.17-1.06Z"/>
    <path class="st4" d="M84.23,421.83l.94.07c28.59.44,57.21.05,85.81.19,32.59-.1,65.19.17,97.79-.13.38.13,1.13.4,1.51.53-16.08.59-32.2.11-48.3.22-45.92-.02-91.85.18-137.77-.08l.02-.8Z"/>
  </g>
  <g id="_x23_ffffffff">
    <path class="st15" d="M368.32,80.38c3.5-.83,7.14-.5,10.71-.55,48.66.04,97.31.03,145.97,0,4.62.01,9.35-.39,13.85.94,1.86,1.91,3.69,3.95,4.89,6.35,1,15.92.04,31.9.44,47.84-.29,12.66-.15,25.32-.14,37.98.32,5.44-4.61,10.44-10.08,10.01-53.97.04-107.95,0-161.92.02-3.56.26-6.69-1.64-9.22-3.93-.07-.21-.21-.63-.28-.84-1.99-1.89-1.95-4.7-1.99-7.23.2-27.54-.16-55.09.16-82.64.4-1.03.89-2.02,1.45-2.98,1.56-2.16,3.48-4.29,6.16-4.98M383.19,89.3c-1.25.82-2.37,2.14-2.35,3.71-.2,4.63-.15,9.27-.03,13.9-.12,2.37,1.59,5.03,4.13,5.09,4.66.23,9.33.09,14,.08,2.86.34,5.87-2.1,5.53-5.1.04-4.34.03-8.67.03-13,.25-3.03-2.57-5.65-5.56-5.27-5.23.27-10.67-.77-15.75.59M369.85,120.67c1.36.32,2.74.52,4.14.61,52.35.04,104.7-.02,157.05.03,1.49-.1,3.33.23,4.38-1.17-53.45-.35-106.92,0-160.37-.17-1.77-.03-3.51.23-5.2.7M371.44,136.43c-1.63,2.6,3.21,4.84,3.79,1.69.75-2.39-2.51-3.64-3.79-1.69M371.56,164.52c-1.77,2.25,2.17,5.15,3.46,2.5,1.64-2.16-1.99-4.92-3.46-2.5Z"/>
    <path class="st15" d="M390.04,94.48c1.86.05,3.71.21,5.57.26.3.57.9,1.72,1.19,2.3.05,3.19-3.22,4.87-4.83,7.24,1.65.04,3.31.08,4.97.11-.05.4-.15,1.21-.2,1.62-2.94.46-5.96.36-8.86-.26.99-1.34,2.12-2.57,3.32-3.71,1.23-1.21,2.47-2.46,3.32-3.97-.49-1-1.21-1.8-2.17-2.41-1.16,1.42-2.7,2.32-4.54,2.49.72-1.24,1.46-2.46,2.23-3.67Z"/>
    <path class="st15" d="M85.14,108.2c2.34-2.91,6.18-4.01,9.79-3.96,56.35.07,112.71,0,169.07.05,2.85-.11,5.52,1.02,7.95,2.4,1.45,2.4,2.83,4.89,3.77,7.55.14,27.49-.01,54.99.05,82.48-1.49,4.18-4.82,7.51-8.93,9.15-58.23-.02-116.45.05-174.68-.02-3.82-1.15-6.89-3.89-9.24-7.02-.24-1.92-.41-3.85-.44-5.78.02-25.33.02-50.67-.02-76,.06-3.11.45-6.49,2.68-8.85M92.2,120.54c-.25,4.43-.41,8.91.06,13.33.58,2.52,3.34,3.66,5.72,3.39,4.99-.18,10.01.25,14.98-.29,5.06-2.66,2.21-9.3,3.02-13.82.13-2.68.26-5.49-1.21-7.87-.47-.42-.95-.84-1.42-1.27-6-.41-12.06-.44-18.07-.09-2.41,1.24-4.07,3.88-3.08,6.62M91.64,147.11c1.1,1.3,2.9.84,4.37.96,16.98-.25,33.97.35,50.95-.07,38.33.45,76.67-.15,115,.15,1.57-.16,3.56.42,4.71-1.02-58.34-.26-116.69-.17-175.03-.02Z"/>
    <path class="st15" d="M628.24,173.26c19.89-.4,39.79-.02,59.68-.12,26.93.08,53.87-.11,80.8.09,3.24,1.15,6.21,3.13,8.32,5.89.73,2.89,1.02,5.88.98,8.86-.14,34.61-.08,69.23-.17,103.84-1.15,2.28-2.54,4.43-3.95,6.56-4.54,2.6-9.9,1.99-14.91,2.01-13.67-.27-27.34.16-41.01.06-24.98-.28-49.97.14-74.95-.1-5.33-.07-10.71.43-15.99-.41-2.7-.36-4.51-2.55-6.32-4.34-.59-1.28-1.14-2.57-1.59-3.9-.46-6.22-.25-12.46-.09-18.69-.22-30.28.02-60.57.03-90.86,1.61-4.15,4.88-7.52,9.17-8.89M628.8,187.07c-.23,4.61-.16,9.23-.15,13.84-.15,2.84,2.43,5.39,5.29,5.13,4.7.04,9.41.1,14.11-.08,2.98-.06,4.86-3.17,4.49-5.93-.27-5.07.44-10.24-.63-15.23-.6-.59-1.2-1.17-1.81-1.74-4.94-1.19-10.09-.24-15.12-.48-2.84-.38-6.04,1.41-6.18,4.49M627.77,214.78c17.37.71,34.79.15,52.17.32,28.01,0,56.02,0,84.03-.01,1.78-.13,3.78.24,5.34-.87-15.42-.54-30.86-.14-46.29-.23-30.68-.05-61.35.02-92.02.02-1.16-.05-2.23.21-3.23.77M630.29,229.28c-1.55.67-1.86,3.2-.19,3.84,1.33,1.15,3.44-.68,3.17-2.22-.42-1.06-1.75-2.48-2.98-1.62M629.51,255.52c-1.77,1.86,1.2,5.05,3.04,3.03,2.21-1.84-1.32-5.53-3.04-3.03M629.37,281.21c-1.69,2.22,1.85,5.03,3.37,2.56,2.03-1.95-1.81-4.8-3.37-2.56Z"/>
    <path class="st15" d="M637.31,191.61c-.98-3.58,3.48-2.84,5.66-3.66,1.44,1.84,2.16,3.88.72,5.94.58,1.39,1.17,2.79,1.77,4.19-2.92,2.92-8.46,3.12-9.91-1.38,2.32.76,4.65,1.73,7.16,1.52-.02-.65-.05-1.94-.06-2.59-1.48-.38-2.91-.89-4.15-1.78,1.44-.42,2.78-1.03,4.04-1.84.04-3.38-3.7-1.44-5.23-.4Z"/>
    <path class="st15" d="M82.17,280.77c4.82-1.46,9.91-.92,14.87-.96,57.27.03,114.53-.09,171.8.06,2.71,1.43,5.18,3.29,7.57,5.2,1.84,4.74,1.7,9.9,1.82,14.9-.04,32.01.07,64.02,0,96.03-.1,6.26.52,12.61-.88,18.78-2.24,3.01-5.07,5.72-8.58,7.18-32.6.3-65.2.03-97.79.13-28.6-.14-57.22.25-85.81-.19-3.49-1.41-6.17-4.25-8.56-7.07-.44-2.25-.74-4.53-.82-6.82-.04-38.02.09-76.04-.07-114.06-.02-3.07.65-6.1,1.85-8.92,1.51-1.45,3.05-2.86,4.6-4.26M86.03,293.17c-.01,5.3-.15,10.59-.01,15.88.09,2.49,2.51,4.5,4.96,4.38,4.67.11,9.35.07,14.03,0,2.49.22,4.65-1.99,4.81-4.39.22-3-.01-6,.06-8.99-.02-2.91.39-6-1.17-8.63l.03-.18c-.37-.27-1.1-.81-1.47-1.08-6.13-.6-12.32-.4-18.46-.2-.95,1.06-1.87,2.13-2.78,3.22M85.71,323.1c.17.37.5,1.11.67,1.48,59.86.34,119.74-.02,179.61.15,1.19.15,1.94-.37,2.27-1.57-60.85-.3-121.7.06-182.55-.06M87.52,339.52c-1.26,2.31,1.91,4.6,3.63,2.51,1.45-2.34-2.08-5.02-3.63-2.51M88.31,370.47c-2.01,1.04-.88,5,1.59,3.94,3.17-.19,1.08-5.73-1.59-3.94M88.14,402.25c-1.93,1.17-.54,4.98,1.8,3.92,3.12-.73.88-5.6-1.8-3.92Z"/>
    <path class="st15" d="M94.34,295.77c2.85.26,5.71.44,8.56.71-1.8,1.64-4.27,1.15-6.48,1.29-.15.89-.3,1.77-.45,2.67,1.55-.25,3.27-1.19,4.75-.21,2.31,1.42,2.48,5.23.05,6.65-2.69,2.09-7.09.57-7.07-3.12,1.84.73,4.65,3.61,6.24,1.11,1.42-1.48-.68-2.76-1.59-3.7-1.4.57-2.79,1.14-4.25,1.53.05-2.31.14-4.62.24-6.93Z"/>
    <path class="st15" d="M410.18,372.02c37.93-.42,75.87,0,113.79-.19,3.15-.16,6.21.74,8.86,2.42,4.8,5.53,2.82,13.11,3.12,19.76-.3,6.35,1.64,13.61-2.81,18.97-1.77,1.06-3.58,2.06-5.48,2.87-28.21.08-56.43.02-84.64,0-10.59-.27-21.2.51-31.77,0-4.23-1.55-8.52-4.95-8.54-9.85-.19-8.48.13-16.96-.17-25.44,1.23-3.84,4-6.85,7.64-8.54M412.11,386.96c-.14,4.69-.13,9.4-.05,14.1-.03,2.5,2.31,4.71,4.8,4.62,4.75.07,9.51.07,14.27-.04,2.05-.01,3.88-1.5,4.42-3.47.78-5.71.43-11.5.18-17.24l-.33.58c-.85-1.71-2.26-3.41-4.35-3.38-4.7-.26-9.42-.19-14.11,0-2.55.01-4.86,2.26-4.83,4.83Z"/>
    <path class="st15" d="M420.13,393.61c1.25-1.92,2.5-3.84,3.71-5.78.77.02,2.3.06,3.06.09.01,2.09.01,4.19.12,6.29l.13.84c.39.29,1.17.86,1.56,1.15-.91,1.35-1.8,2.7-2.65,4.09-.63-.95-1.28-1.9-1.89-2.83-1.67,0-3.34.06-4.99-.06-.93-1.37.36-2.61.95-3.79M421,395.68c1.27.01,2.54.02,3.82.04,0-1.96,0-3.91-.02-5.86-1.36,1.88-2.63,3.82-3.8,5.82Z"/>
  </g>
  <g id="_x23_dcdee4ff">
    <path class="st37" d="M543.6,85.39c2.23.83,1.95,3.68,2.33,5.61.32,9.99.05,20,.26,29.99-.08,1.55,1.59,2.23,2.5,3.21l-.2.22c-.7.8-1.4,1.61-2.09,2.42,30.38,26.5,50.38,64.88,53.39,105.2-2.11-.34-4.24-.69-6.34-1.03,2.85,4.57,5.43,9.35,8.9,13.49l.43.51c-.63.7-1.22,1.42-1.79,2.17l-.24.39c-.86,14.05-2.43,28.15-6.52,41.68-8.57,29.29-25.94,55.87-49.1,75.72-.84-1.81-1.67-3.63-2.51-5.43-2.59,4.63-4.4,9.63-6.26,14.59l1.37-.22c-1.01,6.11,1.29,12.24-.02,18.36-.13,1.48-.18,2.97-.15,4.47.33.13.98.39,1.31.52-1.7,4.51.04,9.7-2.49,13.97-.78,1.59-2.3,2.56-3.86,3.27l.62-1.52c4.45-5.36,2.51-12.62,2.81-18.97-.3-6.65,1.68-14.23-3.12-19.76-2.18-4.23-7.96-2.65-11.82-3.01-37.36.16-74.73-.23-112.08.17.31.16.94.46,1.25.61-3.64,1.69-6.41,4.7-7.64,8.54l-1,.92c-.02-.37-.06-1.11-.08-1.47-.18,5.23.66,10.65-1.16,15.69-2.53-1.35-5.27-2.22-8-3.03-32.49-10.84-60.73-33.24-79.4-61.88,1.84-.75,3.68-1.49,5.53-2.23-4.62-2.71-9.24-5.48-14.15-7.62-.46-.14-1.38-.41-1.84-.54.99-.4,1.98-.8,2.98-1.2-4.58-8.98-8.85-18.18-11.8-27.84-9.16-30.01-8.85-62.78.37-92.73,1.82.92,3.62,1.87,5.43,2.82-1.03-5.18-1.71-10.42-2.93-15.56-.35-1.19-.46-2.41.03-3.58.96.74,1.97,1.41,2.98,2.08,10.65-25.74,28.57-48.37,50.8-65.1.75,1.73,1.49,3.47,2.25,5.2,3.09-4.34,4.24-9.72,7.53-13.93.68,15.46.1,30.95.34,46.43.28,7.81-1.2,15.93,1.78,23.41.16-.34.46-1.02.62-1.35,2.53,2.29,5.66,4.19,9.22,3.93,53.97,0,107.95.02,161.92-.02,5.47.43,10.4-4.57,10.08-10.01,0-12.66-.15-25.32.14-37.98-.4-15.94.56-31.92-.44-47.84l-.14-1.74M362.91,227.3l1.1-.62c-3.41,4.48-7.2,9.42-6.94,15.37.1,9.99-.24,20,.24,29.98,1.14,8.34,8.5,13.89,15.78,16.96,1.22.55,2.55.7,3.89.7,48.67-.03,97.34-.02,146.01-.01,3.55.02,7.08-.89,10.11-2.77l-1.3.43c4.21-3.87,9.24-7.62,10.71-13.45.83-4.93.69-9.96.72-14.94-.08-6.98.43-14.01-.67-20.93-1.6-6.8-7.17-11.61-12.87-15.13l1.43.27c-2.06-1.51-4.64-1.86-7.12-1.89-48.65-.05-97.31,0-145.97-.05-5.5-.19-11.76,1.4-15.12,6.08Z"/>
    <path class="st37" d="M85.71,323.1c60.85.12,121.7-.24,182.55.06-.33,1.2-1.08,1.72-2.27,1.57-59.87-.17-119.75.19-179.61-.15-.17-.37-.5-1.11-.67-1.48Z"/>
  </g>
  <g id="_x23_53585fff">
    <path class="st3" d="M360.33,110.43c.23-7.78-.32-15.61.39-23.37v1.28c-.33,27.55.03,55.1-.17,82.64.04,2.53,0,5.34,1.99,7.23.07.21.21.63.28.84-.16.33-.46,1.01-.62,1.35-2.98-7.48-1.5-15.6-1.78-23.41-.24-15.48.34-30.97-.34-46.43-3.29,4.21-4.44,9.59-7.53,13.93-.76-1.73-1.5-3.47-2.25-5.2-22.23,16.73-40.15,39.36-50.8,65.1-1.01-.67-2.02-1.34-2.98-2.08,2.16-3.9,3.85-8.03,6.01-11.93,11.14-20.88,26.78-39.5,45.89-53.5-1.2-1.79-2.8-3.23-4.28-4.76,5.4-.48,10.77-1.33,16.19-1.69Z"/>
    <path class="st3" d="M587.84,346.35c4.98.56,10,.75,15.01.92v.21c-3.21,4.12-6.26,8.36-9.53,12.43-.37-1.81-.72-3.59-1.11-5.39-12.17,5.7-20.28,16.95-29.72,26.08-5.18,4.93-10.98,9.31-17.54,12.24,15,.39,30.02.03,45.04.1-.36-2.03-.73-4.05-1.06-6.07,4.47,2.42,8.86,5,13.22,7.64-4.42,2.41-8.76,4.98-13.23,7.3.31-1.92.67-3.82,1.04-5.73-15.13.01-30.26-.29-45.38.09,19.23,8.34,28.77,29.11,47.2,38.64.84-1.65,1.3-3.45,1.74-5.23,3.09,3.41,5.85,7.12,8.41,10.95-.05.19-.16.58-.21.77-4.56.73-9.2.71-13.78,1.27.88-1.68,1.83-3.33,2.82-4.94-15.75-7.7-24.92-23.51-38.77-33.68-3.98-2.92-8.45-5.12-13.12-6.69-.33-.13-.98-.39-1.31-.52-.03-1.5.02-2.99.15-4.47,7.26-2.08,13.78-6.15,19.48-11.03,11.11-10.03,20.06-22.79,33.56-29.9-1.15-1.57-2.11-3.24-2.91-4.99Z"/>
  </g>
  <g id="_x23_69829aff">
    <path class="st31" d="M383.19,89.3c5.08-1.36,10.52-.32,15.75-.59,2.99-.38,5.81,2.24,5.56,5.27,0,4.33.01,8.66-.03,13,.34,3-2.67,5.44-5.53,5.1-4.67,0-9.34.15-14-.08-2.54-.06-4.25-2.72-4.13-5.09-.12-4.63-.17-9.27.03-13.9-.02-1.57,1.1-2.89,2.35-3.71M383.99,90.13l-.9,1.14-.45-.07c-.23.99-.45,1.98-.66,2.96,0,1.94-.06,3.89.24,5.82-.01,1.97,2.25,2.14,3.59,2.94.56-.87,1.14-1.73,1.72-2.6.32.4.98,1.19,1.31,1.58.14-.67.41-2.02.54-2.69.61.94,1.21,1.88,1.82,2.83-1.2,1.14-2.33,2.37-3.32,3.71,2.9.62,5.92.72,8.86.26.05-.41.15-1.22.2-1.62-1.66-.03-3.32-.07-4.97-.11,1.61-2.37,4.88-4.05,4.83-7.24.47.83.96,1.65,1.48,2.46,1.34.29,2.66.61,4,.93.95-2.05.89-4.32.88-6.53-.28-.81-.1-2.33-1.1-2.58l-.91-1.22c-5.65-.74-11.5-.47-17.16.03Z"/>
    <path class="st31" d="M92.2,120.54c.78,3.66,1.15,7.39,1.51,11.12,3.16-1.67,6.84-3.24,10.19-.99.54.22,1.64.65,2.19.87,0-1.88-.02-3.75,0-5.62,3.26-1.09,6.57-1.97,9.9-2.77-.81,4.52,2.04,11.16-3.02,13.82-4.97.54-9.99.11-14.98.29-2.38.27-5.14-.87-5.72-3.39-.47-4.42-.31-8.9-.06-13.33Z"/>
    <path class="st31" d="M628.8,187.07c.14-3.08,3.34-4.87,6.18-4.49,5.03.24,10.18-.71,15.12.48l.56,1.14c-6.17-.57-12.45-1.11-18.6-.2-2.45.77-1.92,3.6-1.93,5.57,1.57.08,3.15.15,4.74.24.65.68,1.33,1.34,2.03,2,.1-.05.31-.15.41-.2,1.53-1.04,5.27-2.98,5.23.4-1.26.81-2.6,1.42-4.04,1.84,1.24.89,2.67,1.4,4.15,1.78,0,.65.04,1.94.06,2.59-2.51.21-4.84-.76-7.16-1.52,1.45,4.5,6.99,4.3,9.91,1.38,1.61-1.02,3.35-1.83,5.1-2.61.25-2.51.47-5.03.41-7.55-.06-.87-.18-2.61-.25-3.48l1.19.36c1.07,4.99.36,10.16.63,15.23.37,2.76-1.51,5.87-4.49,5.93-4.7.18-9.41.12-14.11.08-2.86.26-5.44-2.29-5.29-5.13-.01-4.61-.08-9.23.15-13.84Z"/>
    <path class="st31" d="M412.11,386.96c-.03-2.57,2.28-4.82,4.83-4.83,4.69-.19,9.41-.26,14.11,0,2.09-.03,3.5,1.67,4.35,3.38-.22.4-.66,1.19-.88,1.59-.76-1.63-1.32-3.9-3.49-4.06-4.33-.66-8.76-.54-13.11-.24-2.18.03-3.63,1.85-5.09,3.2.51,2.01.75,4.39,2.5,5.77,1.51.82,3.18,1.27,4.8,1.84-.59,1.18-1.88,2.42-.95,3.79,1.65.12,3.32.06,4.99.06.61.93,1.26,1.88,1.89,2.83.85-1.39,1.74-2.74,2.65-4.09-.39-.29-1.17-.86-1.56-1.15l-.13-.84c2.6-.87,5.24-1.63,7.9-2.3.25,3.42.54,6.84.63,10.26-.54,1.97-2.37,3.46-4.42,3.47-4.76.11-9.52.11-14.27.04-2.49.09-4.83-2.12-4.8-4.62-.08-4.7-.09-9.41.05-14.1Z"/>
  </g>
  <g id="_x23_c3c7ceff">
    <path class="st23" d="M383.99,90.13c5.66-.5,11.51-.77,17.16-.03l.91,1.22c-6.28.7-12.7.81-18.97-.05l.9-1.14Z"/>
  </g>
  <g id="_x23_adb5beff">
    <path class="st44" d="M382.64,91.2l.45.07c6.27.86,12.69.75,18.97.05,1,.25.82,1.77,1.1,2.58-2.52.31-5.02.67-7.55.84-1.86-.05-3.71-.21-5.57-.26-2.69-.04-5.38-.09-8.06-.32.21-.98.43-1.97.66-2.96Z"/>
  </g>
  <g id="_x23_7a94acff">
    <path class="st46" d="M381.98,94.16c2.68.23,5.37.28,8.06.32-.77,1.21-1.51,2.43-2.23,3.67,1.84-.17,3.38-1.07,4.54-2.49.96.61,1.68,1.41,2.17,2.41-.85,1.51-2.09,2.76-3.32,3.97-.61-.95-1.21-1.89-1.82-2.83-.13.67-.4,2.02-.54,2.69-.33-.39-.99-1.18-1.31-1.58-.58.87-1.16,1.73-1.72,2.6-1.34-.8-3.6-.97-3.59-2.94-.3-1.93-.23-3.88-.24-5.82Z"/>
  </g>
  <g id="_x23_889cb0ff">
    <path class="st17" d="M395.61,94.74c2.53-.17,5.03-.53,7.55-.84.01,2.21.07,4.48-.88,6.53-1.34-.32-2.66-.64-4-.93-.52-.81-1.01-1.63-1.48-2.46-.29-.58-.89-1.73-1.19-2.3Z"/>
    <path class="st17" d="M113.53,118.88c.41-1.2.83-2.4,1.24-3.6,1.47,2.38,1.34,5.19,1.21,7.87-3.33.8-6.64,1.68-9.9,2.77.03-1.84.1-3.68.13-5.52,2.38-.76,4.84-1.26,7.32-1.52Z"/>
    <path class="st17" d="M86.03,293.17c.91-1.09,1.83-2.16,2.78-3.22l-.04,1c-.21,1.26-.48,2.51-.75,3.77,2.1.38,4.2.78,6.32,1.05-.1,2.31-.19,4.62-.24,6.93-1.95-.86-4.08-1.55-5.71-2.99-1.05-2.07-1.6-4.35-2.36-6.54Z"/>
  </g>
  <g id="_x23_c6cad1ff">
    <path class="st33" d="M275.72,114.24c.21-.39.63-1.18.84-1.57,1.02,25.42.15,50.87.49,76.3-.36,3.08.62,6.62-1.2,9.33l-.08-1.58c-.06-27.49.09-54.99-.05-82.48Z"/>
  </g>
  <g id="_x23_7a93acff">
    <path class="st29" d="M92.2,120.54c-.99-2.74.67-5.38,3.08-6.62l-.54,1.25-.43.97c-.43.99-.86,1.98-1.29,2.96,2.12.85,4.26,1.63,6.42,2.38.23.61.69,1.82.92,2.43.28-.15.83-.46,1.1-.61.56-.31,1.67-.92,2.23-1.22-.01,2.86-.02,5.73.21,8.59-3.35-2.25-7.03-.68-10.19.99-.36-3.73-.73-7.46-1.51-11.12Z"/>
    <path class="st29" d="M421,395.68c1.17-2,2.44-3.94,3.8-5.82.02,1.95.02,3.9.02,5.86-1.28-.02-2.55-.03-3.82-.04Z"/>
  </g>
  <g id="_x23_79828cff">
    <path class="st32" d="M95.28,113.92c6.01-.35,12.07-.32,18.07.09l-.26,1.02c-6.11-.09-12.24-.17-18.35.14l.54-1.25Z"/>
  </g>
  <g id="_x23_b2b9c0ff">
    <path class="st40" d="M113.35,114.01c.47.43.95.85,1.42,1.27-.41,1.2-.83,2.4-1.24,3.6-2.48.26-4.94.76-7.32,1.52-1.83-1.44-6.49.47-4.75,2.9-.27.15-.82.46-1.1.61-.23-.61-.69-1.82-.92-2.43-2.16-.75-4.3-1.53-6.42-2.38.43-.98.86-1.97,1.29-2.96,6.08.6,12.21.06,18.29.72.13-.45.37-1.37.49-1.83l.26-1.02Z"/>
    <path class="st40" d="M627.31,172.41c47.62.11,95.25-.25,142.87.08-.37.19-1.1.56-1.46.74-26.93-.2-53.87,0-80.8-.09-19.89.1-39.79-.28-59.68.12l-1.01.04.08-.89Z"/>
    <path class="st40" d="M650.1,183.06c.61.57,1.21,1.15,1.81,1.74l-1.19-.36c.07.87.19,2.61.25,3.48-2.65-.36-5.4-.84-8,.03-2.18.82-6.64.08-5.66,3.66-.1.05-.31.15-.41.2-.7-.66-1.38-1.32-2.03-2-1.59-.09-3.17-.16-4.74-.24.01-1.97-.52-4.8,1.93-5.57,6.15-.91,12.43-.37,18.6.2l-.56-1.14Z"/>
    <path class="st40" d="M89.83,206.36c.58-.13,1.75-.38,2.33-.51,58.23.07,116.45,0,174.68.02l1.42.04c-2.14,1.34-4.82.55-7.2.73-51.69,0-103.37-.02-155.06,0-5.39-.07-10.8.29-16.17-.28Z"/>
    <path class="st40" d="M362.91,227.3c3.36-4.68,9.62-6.27,15.12-6.08,48.66.05,97.32,0,145.97.05,2.48.03,5.06.38,7.12,1.89l-1.43-.27c-2.54-.57-5.11-.99-7.71-1.04-48.34.06-96.69.02-145.03.02-4.78-.08-9.14,2.12-12.94,4.81l-1.1.62Z"/>
    <path class="st40" d="M107.27,290.15c.37.27,1.1.81,1.47,1.08l-.03.18c-.22,1.28-.44,2.55-.64,3.84-1.71.47-3.43.91-5.17,1.23-2.85-.27-5.71-.45-8.56-.71-2.12-.27-4.22-.67-6.32-1.05.27-1.26.54-2.51.75-3.77l.91.22c5.48,1.65,11.24,1.28,16.87,1.72-.03-.5-.1-1.49-.13-1.98.21-.19.64-.57.85-.76Z"/>
    <path class="st40" d="M619.92,294.83l.8.77c1.81,1.79,3.62,3.98,6.32,4.34,5.28.84,10.66.34,15.99.41,24.98.24,49.97-.18,74.95.1,13.67.1,27.34-.33,41.01-.06,5.01-.02,10.37.59,14.91-2.01l1.17-.52c-2.87,3.71-7.95,2.76-12.04,3.25-10.44-.3-20.93-.77-31.34.21-8.24-.29-16.5.41-24.72-.43-5.91-.19-11.85-.36-17.73.35-10.44.31-20.87-.37-31.3-.17-3.3.25-6.62.31-9.92,0-5.66-.91-11.31.92-16.97-.2-4.48.35-9.66-1.34-11.13-6.04Z"/>
    <path class="st40" d="M408.93,371.41c37.35-.4,74.72-.01,112.08-.17,3.86.36,9.64-1.22,11.82,3.01-2.65-1.68-5.71-2.58-8.86-2.42-37.92.19-75.86-.23-113.79.19-.31-.15-.94-.45-1.25-.61Z"/>
    <path class="st40" d="M410.23,415.76l1.02.09c10.57.51,21.18-.27,31.77,0,28.21.02,56.43.08,84.64,0,.39.15,1.16.46,1.55.61-39.63.25-79.27.1-118.9.09l-.08-.79Z"/>
  </g>
  <g id="_x23_c8ccd3ff">
    <path class="st12" d="M94.74,115.17c6.11-.31,12.24-.23,18.35-.14-.12.46-.36,1.38-.49,1.83-6.08-.66-12.21-.12-18.29-.72l.43-.97Z"/>
  </g>
  <g id="_x23_fbfbfbff">
    <path class="st26" d="M101.46,123.3c-1.74-2.43,2.92-4.34,4.75-2.9-.03,1.84-.1,3.68-.13,5.52-.01,1.87,0,3.74,0,5.62-.55-.22-1.65-.65-2.19-.87-.23-2.86-.22-5.73-.21-8.59-.56.3-1.67.91-2.23,1.22Z"/>
  </g>
  <g id="_x23_cfd3daff">
    <path class="st25" d="M369.85,120.67c1.69-.47,3.43-.73,5.2-.7,53.45.17,106.92-.18,160.37.17-1.05,1.4-2.89,1.07-4.38,1.17-52.35-.05-104.7.01-157.05-.03-1.4-.09-2.78-.29-4.14-.61Z"/>
  </g>
  <g id="_x23_50565dff">
    <path class="st2" d="M546.4,126.84c.69-.81,1.39-1.62,2.09-2.42,30.91,26.99,51.39,66.05,54.38,107.12,2.08-.45,4.16-.98,6.18-1.68-2.16,4.91-4.26,9.85-6.7,14.64-3.47-4.14-6.05-8.92-8.9-13.49,2.1.34,4.23.69,6.34,1.03-3.01-40.32-23.01-78.7-53.39-105.2Z"/>
  </g>
  <g id="_x23_100d0dff">
    <path class="st14" d="M371.44,136.43c1.28-1.95,4.54-.7,3.79,1.69-.58,3.15-5.42.91-3.79-1.69Z"/>
    <path class="st14" d="M371.56,164.52c1.47-2.42,5.1.34,3.46,2.5-1.29,2.65-5.23-.25-3.46-2.5Z"/>
    <path class="st14" d="M629.51,255.52c1.72-2.5,5.25,1.19,3.04,3.03-1.84,2.02-4.81-1.17-3.04-3.03Z"/>
  </g>
  <g id="_x23_d0d3d9ff">
    <path class="st19" d="M91.64,147.11c58.34-.15,116.69-.24,175.03.02-1.15,1.44-3.14.86-4.71,1.02-38.33-.3-76.67.3-115-.15-16.98.42-33.97-.18-50.95.07-1.47-.12-3.27.34-4.37-.96Z"/>
  </g>
  <g id="_x23_c7cbd2ff">
    <path class="st5" d="M776.7,177.51c2.36,1.77,2.43,4.84,2.39,7.52-.16,34.33-.03,68.65-.06,102.98-.06,1.83.06,3.84-1.15,5.37l-.03-1.56c.09-34.61.03-69.23.17-103.84.04-2.98-.25-5.97-.98-8.86l-.34-1.61Z"/>
  </g>
  <g id="_x23_4d545cff">
    <path class="st24" d="M296.49,185.89c1.22,5.14,1.9,10.38,2.93,15.56-1.81-.95-3.61-1.9-5.43-2.82-9.22,29.95-9.53,62.72-.37,92.73,2.95,9.66,7.22,18.86,11.8,27.84-1,.4-1.99.8-2.98,1.2-11.71-22.24-18.75-47.14-18.54-72.37-.47-17.16,2.07-34.34,7.16-50.72-1.94-.2-3.88-.4-5.81-.61,3.47-3.88,7.52-7.17,11.24-10.81Z"/>
    <path class="st24" d="M600.75,247.57l.24-.39c.68.08,2.04.25,2.72.34-.64,45.54-21.54,90.49-56.51,119.76,1.43,1.49,2.89,2.96,4.35,4.43-4.64.51-9.21,1.46-13.82,2.2l-1.37.22c1.86-4.96,3.67-9.96,6.26-14.59.84,1.8,1.67,3.62,2.51,5.43,23.16-19.85,40.53-46.43,49.1-75.72,4.09-13.53,5.66-27.63,6.52-41.68Z"/>
  </g>
  <g id="_x23_7e98b0ff">
    <path class="st28" d="M642.97,187.95c2.6-.87,5.35-.39,8-.03.06,2.52-.16,5.04-.41,7.55-1.75.78-3.49,1.59-5.1,2.61-.6-1.4-1.19-2.8-1.77-4.19,1.44-2.06.72-4.1-.72-5.94Z"/>
  </g>
  <g id="_x23_c4c8cfff">
    <path class="st47" d="M627.77,214.78c1-.56,2.07-.82,3.23-.77,30.67,0,61.34-.07,92.02-.02,15.43.09,30.87-.31,46.29.23-1.56,1.11-3.56.74-5.34.87-28.01.02-56.02.02-84.03.01-17.38-.17-34.8.39-52.17-.32Z"/>
  </g>
  <g id="_x23_f3f4f5ff">
    <path class="st27" d="M364.01,226.68c3.8-2.69,8.16-4.89,12.94-4.81,48.34,0,96.69.04,145.03-.02,2.6.05,5.17.47,7.71,1.04,5.7,3.52,11.27,8.33,12.87,15.13,1.1,6.92.59,13.95.67,20.93-.03,4.98.11,10.01-.72,14.94-1.47,5.83-6.5,9.58-10.71,13.45-3.12,1.21-6.41,2.09-9.78,2.01-45.32-.12-90.65,0-135.98-.03-4.32.02-8.65.16-12.95-.33-7.28-3.07-14.64-8.62-15.78-16.96-.48-9.98-.14-19.99-.24-29.98-.26-5.95,3.53-10.89,6.94-15.37Z"/>
  </g>
  <g id="_x23_0e0c0cff">
    <path class="st16" d="M630.29,229.28c1.23-.86,2.56.56,2.98,1.62.27,1.54-1.84,3.37-3.17,2.22-1.67-.64-1.36-3.17.19-3.84Z"/>
    <path class="st16" d="M629.37,281.21c1.56-2.24,5.4.61,3.37,2.56-1.52,2.47-5.06-.34-3.37-2.56Z"/>
    <path class="st16" d="M87.52,339.52c1.55-2.51,5.08.17,3.63,2.51-1.72,2.09-4.89-.2-3.63-2.51Z"/>
    <path class="st16" d="M88.31,370.47c2.67-1.79,4.76,3.75,1.59,3.94-2.47,1.06-3.6-2.9-1.59-3.94Z"/>
    <path class="st16" d="M88.14,402.25c2.68-1.68,4.92,3.19,1.8,3.92-2.34,1.06-3.73-2.75-1.8-3.92Z"/>
  </g>
  <g id="_x23_91a1afff">
    <path class="st43" d="M75.41,293.04c.07-3.17.38-6.61,2.57-9.1l-.41,1.09c-1.2,2.82-1.87,5.85-1.85,8.92.16,38.02.03,76.04.07,114.06.08,2.29.38,4.57.82,6.82l.22,1.26c-1.32-2.51-1.38-5.37-1.4-8.14.01-38.3.07-76.61-.02-114.91Z"/>
    <path class="st43" d="M276.04,283.96c3.19,3.6,2.17,8.69,2.49,13.09.1,36.64-.02,73.27.08,109.91-.06,3.08.05,6.32-1.5,9.11l.24-1.29c1.4-6.17.78-12.52.88-18.78.07-32.01-.04-64.02,0-96.03-.12-5,.02-10.16-1.82-14.9l-.37-1.11Z"/>
    <path class="st43" d="M522.02,289.35c3.37.08,6.66-.8,9.78-2.01l1.3-.43c-3.03,1.88-6.56,2.79-10.11,2.77-48.67,0-97.34-.02-146.01.01-1.34,0-2.67-.15-3.89-.7,4.3.49,8.63.35,12.95.33,45.33.03,90.66-.09,135.98.03Z"/>
    <path class="st43" d="M435.4,385.51l.33-.58c.25,5.74.6,11.53-.18,17.24-.09-3.42-.38-6.84-.63-10.26-2.66.67-5.3,1.43-7.9,2.3-.11-2.1-.11-4.2-.12-6.29-.76-.03-2.29-.07-3.06-.09-1.21,1.94-2.46,3.86-3.71,5.78-1.62-.57-3.29-1.02-4.8-1.84-1.75-1.38-1.99-3.76-2.5-5.77,3.47,1.83,7.42,1.4,11.17,1.06,3.51-.4,7.01.39,10.52.04.22-.4.66-1.19.88-1.59Z"/>
  </g>
  <g id="_x23_71889eff">
    <path class="st18" d="M88.81,289.95c6.14-.2,12.33-.4,18.46.2-.21.19-.64.57-.85.76-5.58.11-11.16,0-16.74.26l-.91-.22.04-1Z"/>
  </g>
  <g id="_x23_c6c9d0ff">
    <path class="st20" d="M89.68,291.17c5.58-.26,11.16-.15,16.74-.26.03.49.1,1.48.13,1.98-5.63-.44-11.39-.07-16.87-1.72Z"/>
  </g>
  <g id="_x23_6c869fff">
    <path class="st35" d="M108.07,295.25c.2-1.29.42-2.56.64-3.84,1.56,2.63,1.15,5.72,1.17,8.63-.07,2.99.16,5.99-.06,8.99-.16,2.4-2.32,4.61-4.81,4.39-4.68.08-9.36.12-14.03,0-2.45.12-4.87-1.89-4.96-4.38-.14-5.29,0-10.58.01-15.88.76,2.19,1.31,4.47,2.36,6.54,1.63,1.44,3.76,2.13,5.71,2.99,1.46-.39,2.85-.96,4.25-1.53.91.94,3.01,2.22,1.59,3.7-1.59,2.5-4.4-.38-6.24-1.11-.02,3.69,4.38,5.21,7.07,3.12,2.43-1.42,2.26-5.23-.05-6.65-1.48-.98-3.2-.04-4.75.21.15-.9.3-1.78.45-2.67,2.21-.14,4.68.35,6.48-1.29,1.74-.32,3.46-.76,5.17-1.23Z"/>
  </g>
  <g id="_x23_595b61ff">
    <path class="st45" d="M304.28,320.94c4.91,2.14,9.53,4.91,14.15,7.62-1.85.74-3.69,1.48-5.53,2.23,18.67,28.64,46.91,51.04,79.4,61.88,2.73.81,5.47,1.68,8,3.03,1.82-5.04.98-10.46,1.16-15.69.02.36.06,1.1.08,1.47.17,8.78.21,17.57-.03,26.36-.48-3.82.99-8.35-1.63-11.6l-.63,2c-36.12-10.38-68.64-33.69-88.75-65.59-1.54,1.43-3.07,2.86-4.61,4.29-.84-5.31-.68-10.71-1.61-16Z"/>
  </g>
  <g id="_x23_1e9929ff">
    <path class="st13" d="M602.98,336.02c.58-3.78,4.32-6.38,8.04-6.18,70.96.04,141.93.02,212.9.01,4.59-.54,9.01,3.53,8.63,8.18-.33,8.01.74,16.16-.61,24.08-.79-8.31.19-16.7-.39-25.02-.09-2.76-1.99-5.32-4.72-5.92-3.58-.7-7.25-.3-10.86-.36-68.35.01-136.7-.02-205.05.01-3.92-.32-7.5,3.19-7.13,7.13.03,7.04-.03,14.07.03,21.11-.31,3.28,2.75,5.17,4.52,7.45-2.74-1.1-5.3-3.4-5.41-6.54-.27-4.16-.02-8.33-.09-12.49v-.21c.16-3.75-.24-7.52.14-11.25Z"/>
    <path class="st13" d="M612.98,338.1c6.03.28,12.09-.55,18.1.15,1.84.79,1.27,3.07,1.35,4.66-.3,4.67.27,9.37-.26,14.02-.52,1.85-2.84,1.25-4.24,1.45-4.95-.21-9.97.52-14.85-.35-1.62-1.96-.67-4.74-.91-7.05.34-4.28-.77-8.78.81-12.88M613.81,339.79l-.04,1.46c.47,1.38-.16,4.06,1.88,4.21,4.99.31,10,.14,15,.2.08-1.82.16-3.63.26-5.44l-.45.06c-5.46-1.22-11.11-.42-16.65-.49Z"/>
  </g>
  <g id="_x23_97d399ff">
    <path class="st41" d="M603.79,337.95c-.37-3.94,3.21-7.45,7.13-7.13,68.35-.03,136.7,0,205.05-.01,3.61.06,7.28-.34,10.86.36,2.73.6,4.63,3.16,4.72,5.92.58,8.32-.4,16.71.39,25.02.04.25.11.74.15.99-1.63,1.69-3.42,3.82-5.96,3.89-72.43.08-144.87-.09-217.3.08-.12-.14-.37-.42-.49-.56-1.77-2.28-4.83-4.17-4.52-7.45-.06-7.04,0-14.07-.03-21.11M612.98,338.1c-1.58,4.1-.47,8.6-.81,12.88.24,2.31-.71,5.09.91,7.05,4.88.87,9.9.14,14.85.35,1.4-.2,3.72.4,4.24-1.45.53-4.65-.04-9.35.26-14.02-.08-1.59.49-3.87-1.35-4.66-6.01-.7-12.07.13-18.1-.15Z"/>
  </g>
  <g id="_x23_68bc6eff">
    <path class="st6" d="M613.81,339.79c5.54.07,11.19-.73,16.65.49-5.52.88-11.12.8-16.69.97l.04-1.46Z"/>
  </g>
  <g id="_x23_4caf55ff">
    <path class="st7" d="M630.46,340.28l.45-.06c-.1,1.81-.18,3.62-.26,5.44-5-.06-10.01.11-15-.2-2.04-.15-1.41-2.83-1.88-4.21,5.57-.17,11.17-.09,16.69-.97Z"/>
  </g>
  <g id="_x23_e08d27ff">
    <path class="st0" d="M607.23,376.32c2.79-1.02,5.84-.57,8.76-.66,83.35.03,166.7,0,250.04.01,4.3-.49,8.43,2.94,8.63,7.27.07,7.34.07,14.7.02,22.05.14,4.08-3.45,7.81-7.55,7.72-85.37.05-170.75,0-256.12.02-4.24.24-8.46-3.27-8.24-7.68-.02-7.36-.03-14.72.02-22.08-.05-2.85,2-5.39,4.44-6.65M609.21,377.27c-2.81.35-5.11,2.78-5.1,5.64-.27,7.4-.07,14.81-.01,22.21-.27,3.73,3.43,6.56,6.95,6.34,85,0,170.01-.02,255.01,0,3.75.51,7.54-2.68,7.35-6.52.09-6.64-.02-13.28.06-19.92.17-2.61-.68-5.29-2.72-7-3.37-1.46-7.14-.91-10.7-1.02-70.33.06-140.66,0-211,.04-13.27.14-26.59-.38-39.84.23Z"/>
    <path class="st0" d="M613.08,384.08c6.32-.41,12.69-.18,19.03-.03.52,6.26.48,12.58.16,18.85-.32.35-.96,1.05-1.28,1.39-6.24.15-12.59.64-18.77-.4-.33-6.26-.42-12.56-.02-18.81.22-.25.66-.75.88-1M614.22,385.28c-.21,2.16-.22,4.34-.12,6.51,2.88-.24,6.12-1.32,8.64.7-.01-.39-.02-1.17-.03-1.56,1.94.21,3.91.53,5.64,1.53.71-.76,1.44-1.5,2.21-2.21.07-1.63.13-3.25.2-4.87-5.52.02-11.03.15-16.54-.1Z"/>
  </g>
  <g id="_x23_febc6cff">
    <path class="st22" d="M609.21,377.27c13.25-.61,26.57-.09,39.84-.23,70.34-.04,140.67.02,211-.04,3.56.11,7.33-.44,10.7,1.02,2.04,1.71,2.89,4.39,2.72,7-.08,6.64.03,13.28-.06,19.92.19,3.84-3.6,7.03-7.35,6.52-85-.02-170.01,0-255.01,0-3.52.22-7.22-2.61-6.95-6.34-.06-7.4-.26-14.81.01-22.21-.01-2.86,2.29-5.29,5.1-5.64M613.08,384.08c-.22.25-.66.75-.88,1-.4,6.25-.31,12.55.02,18.81,6.18,1.04,12.53.55,18.77.4.32-.34.96-1.04,1.28-1.39.32-6.27.36-12.59-.16-18.85-6.34-.15-12.71-.38-19.03.03Z"/>
  </g>
  <g id="_x23_f2b56aff">
    <path class="st48" d="M614.22,385.28c5.51.25,11.02.12,16.54.1-.07,1.62-.13,3.24-.2,4.87-.77.71-1.5,1.45-2.21,2.21-1.73-1-3.7-1.32-5.64-1.53,0,.39.02,1.17.03,1.56-2.52-2.02-5.76-.94-8.64-.7-.1-2.17-.09-4.35.12-6.51Z"/>
  </g>
  <g id="_x23_c54037ff">
    <path class="st36" d="M604.87,424.09c1.6-1.69,3.91-2.46,6.22-2.3,71.29-.09,142.59-.02,213.89-.03,3.43-.14,6.77,2.5,7.41,5.88-.38,8.57-.4,17.17-.03,25.74-.93,3.15-4.04,5.4-7.29,5.47-71.94,0-143.88.03-215.83-.02-.14-.34-.44-1-.59-1.33,68.8.1,137.6-.01,206.4.04,3.61-.03,7.25.25,10.84-.27,2.61-.34,5.16-2.5,5.22-5.27.42-6.32.04-12.68.2-19.01-.16-2.78.22-6.15-2.11-8.17-1.56-1.78-4.06-1.74-6.21-1.81-70.67-.02-141.34,0-212.01-.02-2.37-.12-4.37,1.28-6.41,2.24l.3-1.14Z"/>
    <path class="st36" d="M614.05,436.17c5.58-.12,11.16-.09,16.75.05-.02.59-.04,1.76-.05,2.34-.7.03-1.38.07-2.06.12-4.45,1.87-9.48.04-14.15.93-.17-1.15-.34-2.3-.49-3.44Z"/>
  </g>
  <g id="_x23_ed8a83ff">
    <path class="st1" d="M604.57,425.23c2.04-.96,4.04-2.36,6.41-2.24,70.67.03,141.34,0,212.01.02,2.15.07,4.65.03,6.21,1.81,2.33,2.02,1.95,5.39,2.11,8.17-.16,6.33.22,12.69-.2,19.01-.06,2.77-2.61,4.93-5.22,5.27-3.59.52-7.23.24-10.84.27-68.8-.05-137.6.06-206.4-.04-1.69-1.3-3.86-2.49-4.27-4.78-1.33-8.8.79-17.86-1.03-26.58.49-.69.99-1.38,1.52-2.05l-.3,1.14M612.75,429.95c-.93,2.94-.49,6.04-.53,9.07.05,3.71-.43,7.49.49,11.14,6.4.1,12.83.41,19.22-.17.67-6.58.55-13.25.03-19.84-6.4-.34-12.81-.07-19.21-.2Z"/>
  </g>
  <g id="_x23_c34037ff">
    <path class="st42" d="M603.35,426.14c1.82,8.72-.3,17.78,1.03,26.58.41,2.29,2.58,3.48,4.27,4.78.15.33.45.99.59,1.33-3.47-1.03-6.65-4.02-6.45-7.87.22-8.27-.64-16.62.56-24.82Z"/>
  </g>
  <g id="_x23_d77756ff">
    <path class="st30" d="M832.39,427.64c1.15,4.35.36,8.92.58,13.37-.18,4.11.55,8.35-.61,12.37-.37-8.57-.35-17.17.03-25.74Z"/>
  </g>
  <g id="_x23_b8241aff">
    <path class="st34" d="M612.75,429.95c6.4.13,12.81-.14,19.21.2.52,6.59.64,13.26-.03,19.84-6.39.58-12.82.27-19.22.17-.92-3.65-.44-7.43-.49-11.14.04-3.03-.4-6.13.53-9.07M614.28,431.75l-.49,1.24c.07.8.2,2.39.26,3.18.15,1.14.32,2.29.49,3.44,4.67-.89,9.7.94,14.15-.93.68-.05,1.36-.09,2.06-.12.01-.58.03-1.75.05-2.34-.03-1.51,0-3.01.14-4.5-5.55-.3-11.13-.32-16.66.03Z"/>
  </g>
  <g id="_x23_db7c75ff">
    <path class="st38" d="M614.28,431.75c5.53-.35,11.11-.33,16.66-.03-.92,2.3-3.35,1.78-5.27,1.7-3.96-.32-7.92-.39-11.88-.43l.49-1.24Z"/>
  </g>
  <g id="_x23_cb685fff">
    <path class="st39" d="M630.94,431.72c-.14,1.49-.17,2.99-.14,4.5-5.59-.14-11.17-.17-16.75-.05-.06-.79-.19-2.38-.26-3.18,3.96.04,7.92.11,11.88.43,1.92.08,4.35.6,5.27-1.7Z"/>
  </g>
  <g class="st10">
    <g class="st10">
      <g class="st10">
        <text class="st8" transform="translate(120.08 130.79)"><tspan x="0" y="0">Generation</tspan></text>
      </g>
    </g>
  </g>
  <g class="st10">
    <g class="st10">
      <g class="st10">
        <text class="st9" transform="translate(138.1 170.61)"><tspan x="0" y="0">Self-Instruct</tspan><tspan x="-24.77" y="18">candidate generation</tspan></text>
      </g>
    </g>
  </g>
  <g class="st10">
    <g class="st10">
      <g class="st10">
        <text class="st9" transform="translate(94.86 343.29)"><tspan x="0" y="0">update templates</tspan></text>
      </g>
    </g>
  </g>
  <g class="st10">
    <g class="st10">
      <g class="st10">
        <text class="st9" transform="translate(99.47 375.34)"><tspan x="0" y="0">refine rules</tspan></text>
      </g>
    </g>
  </g>
  <g class="st10">
    <g class="st10">
      <g class="st10">
        <text class="st8" transform="translate(112.87 307.42)"><tspan x="0" y="0">Feedback Loop</tspan></text>
      </g>
    </g>
  </g>
  <g class="st10">
    <g class="st10">
      <g class="st10">
        <text class="st9" transform="translate(98.1 407.45)"><tspan x="0" y="0">learn error patterns</tspan></text>
      </g>
    </g>
  </g>
  <g class="st10">
    <g class="st10">
      <g class="st10">
        <text class="st8" transform="translate(413.47 248.08)"><tspan x="0" y="0">Iterative</tspan><tspan x="-32.22" y="22.8" xml:space="preserve"> Quality Control</tspan></text>
        <text class="st11" transform="translate(336.6 48.72)"><tspan x="0" y="0">QA Review Loop</tspan></text>
      </g>
    </g>
  </g>
  <g class="st10">
    <g class="st10">
      <g class="st10">
        <text class="st8" transform="translate(449.35 399.78)"><tspan x="0" y="0">Decision</tspan></text>
      </g>
    </g>
  </g>
  <g class="st10">
    <g class="st10">
      <g class="st10">
        <text class="st8" transform="translate(409.99 108.41)"><tspan x="0" y="0">Auto Check</tspan></text>
      </g>
    </g>
  </g>
  <g class="st10">
    <g class="st10">
      <g class="st10">
        <text class="st9" transform="translate(379.2 142.38)"><tspan x="0" y="0">rule-based filtering</tspan></text>
      </g>
    </g>
  </g>
  <g class="st10">
    <g class="st10">
      <g class="st10">
        <text class="st9" transform="translate(376.85 170.61)"><tspan x="0" y="0">format validation</tspan></text>
      </g>
    </g>
  </g>
  <g class="st10">
    <g class="st10">
      <g class="st10">
        <text class="st8" transform="translate(654.56 201.59)"><tspan x="0" y="0">Human QA</tspan></text>
      </g>
    </g>
  </g>
  <g class="st10">
    <g class="st10">
      <g class="st10">
        <text class="st9" transform="translate(636.06 236.22)"><tspan x="0" y="0">correctness</tspan></text>
      </g>
    </g>
  </g>
  <g class="st10">
    <g class="st10">
      <g class="st10">
        <text class="st9" transform="translate(636.23 259.4)"><tspan x="0" y="0">completeness</tspan></text>
      </g>
    </g>
  </g>
  <g class="st10">
    <g class="st10">
      <g class="st10">
        <text class="st9" transform="translate(637.81 286.1)"><tspan x="0" y="0">risk control</tspan></text>
      </g>
    </g>
  </g>
  <g class="st10">
    <g class="st10">
      <g class="st10">
        <text class="st9" transform="translate(637.34 351.55)"><tspan x="0" y="0">Accept → training data</tspan></text>
      </g>
    </g>
  </g>
  <g class="st10">
    <g class="st10">
      <g class="st10">
        <text class="st9" transform="translate(639.17 399.22)"><tspan x="0" y="0">Revise → back to generation</tspan></text>
      </g>
    </g>
  </g>
  <g class="st10">
    <g class="st10">
      <g class="st10">
        <text class="st9" transform="translate(640.47 446.14)"><tspan x="0" y="0">Reject → error analysis</tspan></text>
      </g>
    </g>
  </g>
</svg>