<?xml version="1.0" encoding="UTF-8"?>
<svg id="_图层_1" data-name="图层_1" xmlns="http://www.w3.org/2000/svg" version="1.1" viewBox="0 0 900 672">
  <!-- Generator: Adobe Illustrator 29.6.0, SVG Export Plug-In . SVG Version: 2.1.1 Build 207)  -->
  <defs>
    <style>
      .st0, .st1 {
        font-family: AdobeSongStd-Light-GBpc-EUC-H, 'Adobe Song Std';
        font-weight: 300;
      }

      .st2 {
        fill: #050506;
      }

      .st3 {
        fill: #f47d76;
      }

      .st4 {
        fill: #fefffe;
      }

      .st5, .st6, .st7, .st1, .st8 {
        isolation: isolate;
      }

      .st5, .st7, .st1 {
        font-size: 24px;
      }

      .st9 {
        fill: #92ca95;
      }

      .st7, .st8, .st10 {
        font-family: TimesNewRomanPSMT, 'Times New Roman';
      }

      .st8 {
        font-size: 25px;
      }
    </style>
  </defs>
  <g id="_x23_fefffeff">
    <path class="st4" d="M0,0h900v672H0V0M172.98,207.37c-.09,13.43-.25,26.87.08,40.3,37.5-.32,75,.09,112.5-.21.03-13.35-.08-26.71.04-40.06-37.54-.02-75.08.05-112.62-.03M688.25,207.37c-.39,13.39.01,26.79-.14,40.19,30.88,0,61.76-.03,92.65.01-.16-13.39.29-26.78-.03-40.16-30.83.03-61.66.11-92.48-.04M513.33,218.32c-.02,2.53-.04,5.05-.02,7.58-18.61-.09-37.23.15-55.84-.12-.09,1.17-.16,2.35-.22,3.52,18.67.06,37.33.03,56,.07,0,2.51-.01,5.01.03,7.52,5.62-3.35,11.5-6.24,17.26-9.36-5.75-3.06-11.52-6.06-17.21-9.21M24.75,336.61c35.06.45,70.14.03,105.21.19,247.69-.04,495.37,0,743.06,0,.57-.11,1.73-.34,2.31-.45-19.78-.31-39.58-.04-59.37-.14-261.32.04-522.64,0-783.96,0-2.42,0-4.88-.23-7.25.4M156.45,452.91c-.04,37.22.01,74.45-.02,111.67,7.39.04,14.78-.03,22.17-.01,0-37.17-.04-74.35,0-111.53-7.38-.3-14.77-.06-22.16-.13M215.42,452.9c.23,37.21.05,74.43.09,111.64,7.32.02,14.64.08,21.96-.03-.07-37.2.15-74.39-.1-111.59-7.32,0-14.63-.01-21.95-.02M274.44,452.92c.08,37.22.17,74.44-.07,111.66,7.28-.03,14.57-.01,21.86,0,.12-37.22.2-74.44-.01-111.66-7.26-.04-14.52-.05-21.78,0M611.43,452.95c-.13,15.88,0,31.76-.04,47.64,49.6.05,99.19,0,148.79.02.07-15.91-.25-31.81.08-47.71-49.61.03-99.22-.05-148.83.05M490.68,499.49c0,2.47.01,4.95.01,7.43-18.71-.05-37.43,0-56.15-.02,0,.87.02,2.62.03,3.49,18.71-.04,37.42,0,56.13-.05-.01,2.43-.02,4.86,0,7.3,5.75-3.13,11.58-6.13,17.44-9.06-5.78-3.13-11.6-6.15-17.47-9.09M611.32,517.08c.17,15.83-.06,31.67.08,47.5,49.61-.18,99.22.1,148.82-.11-.16-15.83-.02-31.66-.11-47.49-49.6.09-99.2-.17-148.79.1Z"/>
  </g>
  <g id="_x23_f47d76ff">
    <path class="st3" d="M172.98,207.37c37.54.08,75.08.01,112.62.03-.12,13.35-.01,26.71-.04,40.06-37.5.3-75-.11-112.5.21-.33-13.43-.17-26.87-.08-40.3Z"/>
    <path class="st3" d="M156.45,452.91c7.39.07,14.78-.17,22.16.13-.05,37.18,0,74.36,0,111.53-7.39-.02-14.78.05-22.17.01.03-37.22-.02-74.45.02-111.67Z"/>
    <path class="st3" d="M215.42,452.9c7.32.01,14.63.03,21.95.02.25,37.2.03,74.39.1,111.59-7.32.11-14.64.05-21.96.03-.04-37.21.14-74.43-.09-111.64Z"/>
    <path class="st3" d="M274.44,452.92c7.26-.05,14.52-.04,21.78,0,.21,37.22.13,74.44.01,111.66-7.29-.01-14.58-.03-21.86,0,.24-37.22.15-74.44.07-111.66Z"/>
  </g>
  <g id="_x23_92ca95ff">
    <path class="st9" d="M688.25,207.37c30.82.15,61.65.07,92.48.04.32,13.38-.13,26.77.03,40.16-30.89-.04-61.77-.02-92.65-.01.15-13.4-.25-26.8.14-40.19Z"/>
    <path class="st9" d="M24.75,336.61c2.37-.63,4.83-.41,7.25-.4,261.32,0,522.64.03,783.96,0,19.79.1,39.59-.17,59.37.14-.58.11-1.74.34-2.31.45-247.69,0-495.37-.03-743.06,0-35.07-.16-70.15.26-105.21-.19Z"/>
    <path class="st9" d="M611.43,452.95c49.61-.1,99.22-.02,148.83-.05-.33,15.9-.01,31.8-.08,47.71-49.6-.02-99.19.03-148.79-.02.04-15.88-.09-31.76.04-47.64Z"/>
    <path class="st9" d="M611.32,517.08c49.59-.27,99.19-.01,148.79-.1.09,15.83-.05,31.66.11,47.49-49.6.21-99.21-.07-148.82.11-.14-15.83.09-31.67-.08-47.5Z"/>
  </g>
  <g id="_x23_050506ff">
    <path class="st2" d="M513.33,218.32c5.69,3.15,11.46,6.15,17.21,9.21-5.76,3.12-11.64,6.01-17.26,9.36-.04-2.51-.03-5.01-.03-7.52-18.67-.04-37.33,0-56-.07.06-1.17.13-2.35.22-3.52,18.61.27,37.23.03,55.84.12-.02-2.53,0-5.05.02-7.58Z"/>
    <path class="st2" d="M490.68,499.49c5.87,2.94,11.69,5.96,17.47,9.09-5.86,2.93-11.69,5.93-17.44,9.06-.03-2.44-.02-4.87,0-7.3-18.71.06-37.42.01-56.13.05-.01-.87-.02-2.62-.03-3.49,18.72.02,37.44-.03,56.15.02,0-2.48-.01-4.96-.01-7.43Z"/>
  </g>
  <g class="st6">
    <text class="st8" transform="translate(164.12 51.83)"><tspan x="0" y="0">Cleaning Examples: Page Numbers and Chinese Spacing Fix</tspan></text>
  </g>
  <g class="st6">
    <text class="st8" transform="translate(293.08 126.49)"><tspan x="0" y="0">Inline Page Number Removal</tspan></text>
  </g>
  <g class="st6">
    <text class="st5" transform="translate(77.75 236.63)"><tspan class="st10" x="0" y="0">...</tspan><tspan class="st0" x="18" y="0">责任。</tspan></text>
  </g>
  <g class="st6">
    <text class="st7" transform="translate(193.81 296)"><tspan x="0" y="0">Before</tspan></text>
  </g>
  <g class="st6">
    <text class="st7" transform="translate(660 292.13)"><tspan x="0" y="0">After</tspan></text>
  </g>
  <g class="st6">
    <text class="st5" transform="translate(595.7 235.92)"><tspan class="st10" x="0" y="0">...</tspan><tspan class="st0" x="18" y="0">责任。</tspan></text>
  </g>
  <g class="st6">
    <text class="st5" transform="translate(292.63 235.68)"><tspan class="st0" x="0" y="0">当事人</tspan><tspan class="st10" x="72" y="0">...</tspan></text>
  </g>
  <g class="st6">
    <text class="st7" transform="translate(191.24 236.89)"><tspan x="0" y="0" xml:space="preserve"> - 195 - </tspan></text>
  </g>
  <g class="st6">
    <text class="st5" transform="translate(689.46 236.89)"><tspan class="st0" x="0" y="0">当事人</tspan><tspan class="st10" x="72" y="0">...</tspan></text>
    <text/>
  </g>
  <g class="st6">
    <text class="st1" transform="translate(110.86 482)"><tspan x="0" y="0">法</tspan></text>
  </g>
  <g class="st6">
    <text class="st1" transform="translate(113.68 555.91)"><tspan x="0" y="0">合</tspan></text>
  </g>
  <g class="st6">
    <text class="st1" transform="translate(185 482)"><tspan x="0" y="0">律</tspan></text>
    <text/>
    <text/>
  </g>
  <g class="st6">
    <text class="st1" transform="translate(187.29 555.91)"><tspan x="0" y="0">同</tspan></text>
  </g>
  <g class="st6">
    <text class="st1" transform="translate(244.16 482)"><tspan x="0" y="0">规</tspan></text>
  </g>
  <g class="st6">
    <text class="st1" transform="translate(307.19 482)"><tspan x="0" y="0">定</tspan></text>
  </g>
  <g class="st6">
    <text class="st1" transform="translate(244 555.91)"><tspan x="0" y="0">关</tspan></text>
  </g>
  <g class="st6">
    <text class="st1" transform="translate(304.69 555.91)"><tspan x="0" y="0">系</tspan></text>
  </g>
  <g class="st6">
    <text class="st7" transform="translate(343.67 383)"><tspan x="0" y="0">Chinese Spacing Fix</tspan></text>
  </g>
  <g class="st6">
    <text class="st7" transform="translate(193.81 613)"><tspan x="0" y="0">Before</tspan></text>
  </g>
  <g class="st6">
    <text class="st7" transform="translate(667.79 616.22)"><tspan x="0" y="0">After</tspan></text>
  </g>
  <g class="st6">
    <text class="st1" transform="translate(640.07 482)"><tspan x="0" y="0">法律规定</tspan></text>
  </g>
  <g class="st6">
    <text class="st1" transform="translate(640.07 545.97)"><tspan x="0" y="0">合同关系</tspan></text>
  </g>
  <text/>
</svg>