<?xml version="1.0" encoding="UTF-8"?>
<svg id="_图层_1" xmlns="http://www.w3.org/2000/svg" version="1.1" viewBox="0 0 900 503">
  <!-- Generator: Adobe Illustrator 29.6.0, SVG Export Plug-In . SVG Version: 2.1.1 Build 207)  -->
  <defs>
    <style>
      .st0 {
        fill: #a9bddd;
      }

      .st1 {
        fill: #0c0b0b;
      }

      .st2 {
        fill: #ebebec;
      }

      .st3 {
        fill: #f6f6f2;
      }

      .st4 {
        fill: #1d1c1b;
      }

      .st5 {
        fill: #d7e6d4;
      }

      .st6 {
        fill: #d6e5d3;
      }

      .st7 {
        fill: #f5f5f2;
      }

      .st8 {
        font-size: 14px;
      }

      .st8, .st9 {
        font-family: TimesNewRomanPSMT, 'Times New Roman';
      }

      .st8, .st9, .st10, .st11, .st12 {
        isolation: isolate;
      }

      .st13 {
        fill: #e2c2a0;
      }

      .st14 {
        fill: #fee3cb;
      }

      .st15 {
        fill: #100f0f;
      }

      .st16 {
        fill: #e7e6e6;
      }

      .st17 {
        fill: #f6f7f3;
      }

      .st18 {
        fill: #151413;
      }

      .st19 {
        fill: #c17d3a;
      }

      .st20 {
        fill: #5f7cb0;
      }

      .st21 {
        fill: #060505;
      }

      .st22 {
        fill: #d2e3cf;
      }

      .st9, .st12 {
        font-size: 15px;
      }

      .st23 {
        fill: #090808;
      }

      .st24 {
        fill: #d5e4d2;
      }

      .st25 {
        fill: #131212;
      }

      .st26 {
        fill: #070606;
      }

      .st27 {
        fill: #c9d7f4;
      }

      .st28 {
        fill: #e8d6c6;
      }

      .st29 {
        fill: #111010;
      }

      .st30 {
        fill: #e1c09e;
      }

      .st31 {
        fill: #131211;
      }

      .st32 {
        fill: #a8bcdd;
      }

      .st10 {
        font-size: 23px;
      }

      .st10, .st12 {
        font-family: TimesNewRomanPS-BoldMT, 'Times New Roman';
        font-weight: 700;
      }

      .st33 {
        fill: #cfe1ca;
      }

      .st34 {
        fill: #040303;
      }

      .st35 {
        fill: #e0c19f;
      }

      .st36 {
        fill: #f4f4f0;
      }

      .st37 {
        fill: #6682b4;
      }

      .st38 {
        fill: #0e0d0d;
      }

      .st39 {
        fill: #e3c2a0;
      }

      .st40 {
        fill: #909499;
      }

      .st41 {
        fill: #558d41;
      }

      .st42 {
        fill: #0d0c0c;
      }

      .st43 {
        fill: #c9d8f4;
      }

      .st44 {
        fill: #eee;
      }

      .st45 {
        fill: #121110;
      }

      .st46 {
        fill: #cad8f5;
      }

      .st47 {
        fill: #c6180b;
      }

      .st48 {
        fill: #a7bbdc;
      }

      .st49 {
        fill: #f5f5f1;
      }

      .st50 {
        fill: #0b0a0a;
      }

      .st51 {
        fill: #627eb1;
      }

      .st52 {
        fill: #ececec;
      }

      .st53 {
        fill: #f4f5f1;
      }

      .st54 {
        fill: #f8f8f5;
      }

      .st55 {
        fill: #080707;
      }

      .st56 {
        fill: #e3c3a1;
      }

      .st57 {
        fill: #d5e5d2;
      }

      .st58 {
        fill: #fffffe;
      }

      .st59 {
        fill: #f5f6f2;
      }

      .st60 {
        fill: #728cbb;
      }

      .st61 {
        fill: #7b7a77;
      }

      .st62 {
        fill: #e9e8e8;
      }
    </style>
  </defs>
  <g id="_x23_fffffeff">
    <path class="st58" d="M0,0h900v503H0V0M787.82,69.31c.13.79.39,2.35.52,3.13-4.64-.02-9.28-.03-13.92.04.04.45.11,1.36.15,1.81,4.57-.01,9.15-.01,13.73-.01-.07.75-.2,2.24-.27,2.98,2.67-1.32,5.35-2.61,8.05-3.87-2.67-1.52-5.44-2.88-8.26-4.08M124.15,69.28c.12.8.37,2.39.49,3.19-4.8-.01-9.6-.08-14.39.19l.73,1.54c4.54.31,9.1,0,13.65.13-.15.77-.47,2.31-.63,3.08,2.82-1.29,5.62-2.64,8.3-4.21-2.7-1.35-5.43-2.62-8.15-3.92M289.85,69.31c.24,1.05.48,2.1.73,3.15-4.71-.02-9.42-.02-14.12.06l.02,1.79c4.7.16,9.44-.37,14.12.2-.15.72-.46,2.17-.61,2.89,2.75-1.34,5.51-2.63,8.26-3.97-2.65-1.66-5.5-2.96-8.4-4.12M385.37,69.19c.12.82.38,2.47.5,3.29-4.69-.06-9.39.03-14.09.03v1.77c4.69,0,9.39.05,14.1.03-.13.77-.38,2.3-.51,3.06,2.83-1.36,5.64-2.78,8.5-4.11-2.84-1.36-5.66-2.74-8.5-4.07M496.47,69.19c.16.82.47,2.45.62,3.27-4.66-.01-9.31,0-13.97-.02.08.49.24,1.45.32,1.93,4.55-.1,9.11-.08,13.66-.08-.16.77-.47,2.29-.63,3.05,2.57-1.18,5.16-2.32,7.61-3.74-1.56-2.52-5.2-2.85-7.61-4.41M598.49,69.16c.21.82.62,2.47.82,3.29-4.6-.02-9.2-.05-13.8.02-.01.45-.03,1.35-.04,1.8,4.59.08,9.19.01,13.78-.02-.05.74-.16,2.24-.21,2.98,2.65-1.32,5.31-2.63,8.01-3.84-2.78-1.56-5.65-2.95-8.56-4.23M681.48,69.16l.72,3.28c-4.62-.02-9.23-.09-13.84.04-.03.45-.07,1.35-.09,1.8,4.66.11,9.34-.24,14,.19-.16.68-.49,2.06-.65,2.75,2.77-1.25,5.52-2.55,8.31-3.74-2.62-1.8-5.57-3.01-8.45-4.32M14.07,109.96c.23,114.03-.04,228.06-.03,342.08.15,3.51,1.93,7.01,4.71,9.16,4.24,2.66,9.46,1.9,14.22,1.96,20.67-.05,41.34.09,62.02-.05,6.29.37,11.93-5.86,11.23-12.08-.08-56.38.06-112.76-.04-169.13,2.52,0,5.03,0,7.55-.02-.03,42.49,0,84.99-.01,127.48,3.26.05,6.52.01,9.77.11-.39,1.08-.77,2.17-1.16,3.25.04,12.78-.01,25.56.03,38.33-.01,3.79,1.4,7.77,4.64,9.96,4.66,3.27,10.65,1.93,15.96,2.17,206.71,0,413.41-.02,620.11,0,3.23-.09,6.76.26,9.66-1.48,3.31-2.02,5.62-5.75,5.51-9.69.11-14.21.24-28.44-.17-42.65,2.75.05,5.5.04,8.26,0-.02-41.41-.01-82.82-.02-124.24,2.63-1.29,5.24-2.62,7.83-4-2.59-1.46-5.24-2.81-7.87-4.2.09-38.69-.04-77.38.1-116.07-5.21-.03-10.41,0-15.6-.07l.04-.66c2.44.2,4.89.2,7.34,0,.3-15.38.08-30.77.24-46.15.1-4.05-.52-8.7-4.03-11.28-5.53-4.3-12.97-2.24-19.4-2.67-204,.12-408,0-611.99.07-3.68.05-7.36-.18-11.02.15-5.23.56-9.67,5.45-9.56,10.73-.05,15.52-.06,31.04-.01,46.56.24.83.72,2.49.96,3.32-3.2-.03-6.41-.04-9.61-.08-.01,39.76,0,79.51-.03,119.27-2.51.04-5.02.05-7.52.07.06-54.37-.03-108.74.04-163.11-.09-4.17.58-8.76-1.82-12.45-2.02-3.58-6.54-4.73-10.39-4.56-23.02.01-46.04-.02-69.05.06-5.51-.48-10.85,4.43-10.89,9.91M802.29,100.4c-3.18,1-6.4,3.18-7.12,6.65-.81,3.92-.38,7.94-.42,11.91-.13,107.68-.05,215.35-.09,323.03.06,4.31-.32,8.66.22,12.96.63,4.81,5.59,7.93,10.14,8.14,23.64.05,47.29.14,70.93-.01,6.06.47,10.77-5.27,10.85-11,.17-113.7.07-227.39.02-341.09.1-5.73-4.88-11.58-10.88-11.01-21.98,0-43.96.05-65.94,0-2.58.03-5.2-.17-7.71.42h0Z"/>
    <path class="st58" d="M115.53,162.63c2.55,0,5.1,0,7.65,0-.23.8-.67,2.39-.89,3.19l1.59-.69c-.38.3-1.15.9-1.53,1.2-.06,9.21.06,18.43-.05,27.64.03,3.06-.07,6.4,1.75,9.04,2.35,3.63,6.62,5.7,10.94,5.36,208.01,0,416.01-.02,624.01,0,5.02-.18,10.76.95,15.03-2.38,3.47-2.49,4.45-6.97,4.35-11-.11-10.76.06-21.53-.15-32.29,2.03,0,4.07,0,6.12.03.09,39.11-.02,78.21.03,117.32h-6.12c-.11-14.67,0-29.34-.02-44.01-.06-4.23.4-8.55-.66-12.7-1.52-4.88-6.64-7.87-11.64-7.47-210.65.02-421.31-.03-631.96.02-6.87-.32-12.25,6.5-11.68,13.08.25,15.97-.21,31.95.19,47.92.2,1.06.43,2.13.67,3.19-2.53.01-5.05.01-7.57.02-.09-39.15.16-78.31-.06-117.47h0Z"/>
    <path class="st58" d="M115.56,281.87c2.49.03,4.97.05,7.45.08-.14.83-.42,2.5-.56,3.33l1.44-.8c-.39.22-1.17.67-1.56.89.08,14.22-.03,28.45,0,42.67-.2,6.2,5.4,11.86,11.62,11.62,211.02-.02,422.06-.03,633.08,0,5.81.27,11.23-4.9,11.17-10.72.14-15.67-.05-31.33.04-47,2.03.01,4.05.01,6.09.01.03,41.83-.05,83.66,0,125.48-2.06.01-4.1.03-6.14.06.45-15.16-.1-30.32.2-45.48.02-3.9.04-8.45-3.18-11.21-4.23-4.32-10.69-3.36-16.14-3.44-205.69-.02-411.38.03-617.06,0-5.06.14-10.83-.85-15.14,2.47-3.33,2.63-4.78,6.97-4.56,11.12.22,14.38-.29,28.79.22,43.17.27,1.12.55,2.24.86,3.36-2.61,0-5.22.03-7.82.06.09-41.89,0-83.78-.02-125.67h0Z"/>
  </g>
  <g id="_x23_0e0d0dff">
    <path class="st38" d="M787.82,69.31c2.82,1.2,5.59,2.56,8.26,4.08-2.7,1.26-5.38,2.55-8.05,3.87.07-.74.2-2.23.27-2.98-4.58,0-9.16,0-13.73.01-.04-.45-.11-1.36-.15-1.81,4.64-.07,9.28-.06,13.92-.04-.13-.78-.39-2.34-.52-3.13Z"/>
    <path class="st38" d="M234.67,157.61c2.62,1.33,5.33,2.48,7.84,4.01v.29c-2.63,1.27-5.28,2.51-7.97,3.68.17-.71.5-2.15.66-2.86-2.58-.03-5.16-.03-7.73.09-.05-.61-.15-1.82-.2-2.42,2.69.5,5.43.47,8.15.44-.19-.81-.56-2.42-.75-3.23h0Z"/>
    <path class="st38" d="M802.87,162.84c25.19-.11,50.38-.17,75.57,0-.02,12.06.05,24.12-.04,36.19-9.22.1-18.47,1.09-27.4,3.44-8.56,2.17-17.07,4.94-25.95,5.36-7.49.2-14.89-1.37-22.14-3.1-.17-13.96-.09-27.93-.04-41.89M804.33,164.33c.15,13.06.07,26.12.04,39.18,7.72,1.84,15.68,3.11,23.64,2.46,9.45-.74,18.32-4.36,27.56-6.22,7.02-1.61,14.23-2.05,21.41-2.39-.23-11.01-.02-22.02-.12-33.03h-72.53,0Z"/>
    <path class="st38" d="M799.23,276.02c22.58-.54,45.2-.1,67.79-.24,4.94,0,9.89-.1,14.84.15.13,13.33-.04,26.66.07,39.99-9.05,0-18.15.7-26.95,2.94-10.6,2.42-20.93,6.59-31.93,6.74-8.08-.05-16.11-1.41-23.89-3.53-.07-15.35-.03-30.71.07-46.05M800.76,277.42c0,14.5.14,29.01.06,43.51,8.62,1.95,17.47,3.65,26.34,2.81,9.46-.95,18.37-4.46,27.62-6.44,8.35-2.07,16.97-2.86,25.57-2.87-.05-12.34-.17-24.68,0-37.02-26.53-.03-53.06-.02-79.58.01h-.01Z"/>
  </g>
  <g id="_x23_060505ff">
    <path class="st21" d="M124.15,69.28c2.72,1.3,5.45,2.57,8.15,3.92-2.68,1.57-5.48,2.92-8.3,4.21.16-.77.48-2.31.63-3.08-4.55-.13-9.11.18-13.65-.13l-.73-1.54c4.79-.27,9.59-.2,14.39-.19-.12-.8-.37-2.39-.49-3.19Z"/>
    <path class="st21" d="M289.85,69.31c2.9,1.16,5.75,2.46,8.4,4.12-2.75,1.34-5.51,2.63-8.26,3.97.15-.72.46-2.17.61-2.89-4.68-.57-9.42-.04-14.12-.2l-.02-1.79c4.7-.08,9.41-.08,14.12-.06-.25-1.05-.49-2.1-.73-3.15h0Z"/>
    <path class="st21" d="M122.38,157.53c2.77,1.32,5.5,2.73,8.15,4.3-2.21,1.11-4.43,2.2-6.65,3.29l-1.59.69c.22-.8.66-2.39.89-3.19-2.55,0-5.1,0-7.65,0,.22,39.16-.03,78.32.06,117.47,2.52-.01,5.04-.01,7.57-.02-.24-1.06-.47-2.13-.67-3.19,2.36,1.3,4.78,2.5,7.33,3.37-.03.36-.1,1.07-.13,1.43-2.01.76-3.93,1.73-5.8,2.79l-1.44.8c.14-.83.42-2.5.56-3.33-2.48-.03-4.96-.05-7.45-.08.02,41.89.11,83.78.02,125.67,2.6-.03,5.21-.05,7.82-.06-.31-1.12-.59-2.24-.86-3.36,2.72,1.39,5.46,2.72,8.11,4.24v.22c-2.8,1.31-5.56,2.72-8.32,4.14.39-1.08.77-2.17,1.16-3.25-3.25-.1-6.51-.06-9.77-.11.01-42.49-.02-84.99.01-127.48-2.52.01-5.03.01-7.55.02v-1.79c2.5-.02,5.01-.03,7.52-.07.03-39.76.02-79.51.03-119.27,3.2.04,6.41.05,9.61.08-.24-.83-.72-2.49-.96-3.32h0Z"/>
    <path class="st21" d="M440.42,231.11c2.4,1.5,6.22,1.82,7.62,4.4-2.42,1.41-5,2.53-7.53,3.74.28-1.04.56-2.08.84-3.11-10.75-.03-21.49,0-32.24.03-.06,5.28.06,10.55.03,15.83l-1.07.78c-.18.02-.55.04-.74.06l-.02-1.04c-.11-5.84,0-11.68-.09-17.52,11.45,0,22.91.09,34.36-.04-.29-.78-.87-2.34-1.16-3.13Z"/>
    <path class="st21" d="M614.27,232.3c.42-.09,1.25-.27,1.67-.36-.05,1.38-.09,2.76-.15,4.15,1.64.17,3.29.35,4.93.62-.56,2.5-1.29,4.95-2.17,7.36-3.55,1.22-7.09-.5-10.62-.85.04-2.16.1-4.31.13-6.46,3.26.65,4.72-2.19,6.21-4.46h0Z"/>
    <path class="st21" d="M353.51,276.99c2.43,1.06,4.83,2.2,7.29,3.2.06.34.18,1.02.23,1.36-2.58,1.02-5.05,2.27-7.49,3.58.31-1.07.62-2.14.93-3.21-4.84.03-9.68,0-14.51-.07v-1.71c4.82-.05,9.64-.08,14.46-.09-.22-.77-.67-2.3-.9-3.06h-.01Z"/>
    <path class="st21" d="M672.85,276.94c2.33,1.42,5.47,2.1,7.33,4.06-1.85,2.06-4.98,2.79-7.36,4.21.28-.83.83-2.47,1.1-3.29-2.46,0-4.93-.01-7.38-.03v-1.78c2.41,0,4.82,0,7.25-.02-.24-.79-.71-2.36-.94-3.15Z"/>
  </g>
  <g id="_x23_040303ff">
    <path class="st34" d="M385.37,69.19c2.84,1.33,5.66,2.71,8.5,4.07-2.86,1.33-5.67,2.75-8.5,4.11.13-.76.38-2.29.51-3.06-4.71.02-9.41-.03-14.1-.03v-1.77c4.7,0,9.4-.09,14.09-.03-.12-.82-.38-2.47-.5-3.29Z"/>
    <path class="st34" d="M496.47,69.19c2.41,1.56,6.05,1.89,7.61,4.41-2.45,1.42-5.04,2.56-7.61,3.74.16-.76.47-2.28.63-3.05-4.55,0-9.11-.02-13.66.08-.08-.48-.24-1.44-.32-1.93,4.66.02,9.31,0,13.97.02-.15-.82-.46-2.45-.62-3.27Z"/>
    <path class="st34" d="M624.56,226.59c3.17-1.23,6.44.83,9.7.77-.02,2.23-.02,4.46-.04,6.7-1.25.09-2.46.3-3.64.63-1.4,1.2-1.7,3.53-3.51,4.22-.68-1.33-.51-2.85-.64-4.28-1.53-.15-3.02-.29-4.52-.46.46-2.63.78-5.53,2.65-7.58Z"/>
    <path class="st34" d="M460.5,404.21c2.76,1.4,5.53,2.77,8.24,4.28v.12c-2.82,1.22-5.59,2.54-8.37,3.86.39-1.04.78-2.08,1.18-3.12-2.46-.03-4.92-.04-7.37-.05v-1.75c2.46,0,4.91-.03,7.38-.07-.36-1.09-.72-2.19-1.06-3.27Z"/>
    <path class="st34" d="M568.82,407.52c-.17-.81-.52-2.42-.69-3.23,2.68,1.4,5.42,2.72,8.08,4.18v.16c-2.77,1.13-5.5,2.41-8.2,3.7.25-.75.75-2.23,1-2.98-2.52-.06-5.04-.1-7.56-.14.01-.41.01-1.24.02-1.65,2.44-.01,4.89-.03,7.35-.04h0Z"/>
  </g>
  <g id="_x23_0c0b0bff">
    <path class="st1" d="M598.49,69.16c2.91,1.28,5.78,2.67,8.56,4.23-2.7,1.21-5.36,2.52-8.01,3.84.05-.74.16-2.24.21-2.98-4.59.03-9.19.1-13.78.02.01-.45.03-1.35.04-1.8,4.6-.07,9.2-.04,13.8-.02-.2-.82-.61-2.47-.82-3.29h0Z"/>
    <path class="st1" d="M681.48,69.16c2.88,1.31,5.83,2.52,8.45,4.32-2.79,1.19-5.54,2.49-8.31,3.74.16-.69.49-2.07.65-2.75-4.66-.43-9.34-.08-14-.19.02-.45.06-1.35.09-1.8,4.61-.13,9.22-.06,13.84-.04l-.72-3.28h0Z"/>
    <path class="st1" d="M770.74,162.69c-.02-.64-.01-1.28.03-1.92,5.19.08,10.39.04,15.6.07-.14,38.69-.01,77.38-.1,116.07,2.63,1.39,5.28,2.74,7.87,4.2-2.59,1.38-5.2,2.71-7.83,4,.01,41.42,0,82.83.02,124.24-2.76.04-5.51.05-8.26,0-2.49-.05-4.98-.09-7.45,0l-.5.03c0-.46.01-1.38.01-1.84l.5.02c2.52.03,5.04-.03,7.57-.07,2.04-.03,4.08-.05,6.14-.06-.05-41.82.03-83.65,0-125.48-2.04,0-4.06,0-6.09-.01-2.58-.01-5.16-.01-7.72-.12l-.86-.8v-.12l.78-.74c2.6-.1,5.2-.1,7.81-.11h6.12c-.05-39.11.06-78.21-.03-117.32-2.05-.02-4.09-.03-6.12-.03-2.5-.02-5-.02-7.49,0M786.28,279.22q.37.36,0,0M786.23,282.37q.37.38,0,0Z"/>
    <path class="st1" d="M48.75,184.01c.24-1.25.92-1.89,2.06-1.9,5.58-.04,11.19-.17,16.75.21.17.44.51,1.31.68,1.75-6.48.32-13.02.43-19.49-.06h0Z"/>
    <path class="st1" d="M802.89,216.82c25.15-.04,50.3-.13,75.45.05.18,12.02.02,24.04.07,36.06-8.92.15-17.85,1.03-26.51,3.22-7.25,1.76-14.32,4.37-21.76,5.28-9.17,1.29-18.41-.44-27.29-2.69-.02-13.97-.1-27.95.04-41.92M804.39,218.42c.08,13.04-.09,26.08.01,39.12,6.4,1.59,12.94,2.91,19.57,2.66,10.71.14,20.72-4.17,31.06-6.27,7.15-1.65,14.47-2.35,21.8-2.52.14-11.01.02-22.02.01-33.02-24.15.03-48.3,0-72.45.03Z"/>
  </g>
  <g id="_x23_ecececff">
    <path class="st52" d="M14.07,109.96c.04-5.48,5.38-10.39,10.89-9.91,23.01-.08,46.03-.05,69.05-.06,3.85-.17,8.37.98,10.39,4.56,2.4,3.69,1.73,8.28,1.82,12.45-.07,54.37.02,108.74-.04,163.11v1.79c.1,56.37-.04,112.75.04,169.13.7,6.22-4.94,12.45-11.23,12.08-20.68.14-41.35,0-62.02.05-4.76-.06-9.98.7-14.22-1.96-2.78-2.15-4.56-5.65-4.71-9.16-.01-114.02.26-228.05.03-342.08M45.38,144.46c-2.46.52-3.47,3.26-3.26,5.52.16,13.02.02,26.06.1,39.08-.14,2.53,2.21,4.87,4.75,4.68,9.7.05,19.4,0,29.1,0,2.62.21,5.4-1.94,5.1-4.73-.05-10.59.36-21.26-.27-31.81-4.11-4.49-8.44-8.92-13.09-12.83-7.47-.14-14.98-.28-22.43.09M37.35,218.35c-.32,1.74-.28,3.52-.41,5.28-2.25.16-5.14-.61-6.59,1.66-.42,1.8-.38,3.67-.5,5.52-2.27.26-5.12-.62-6.88,1.21-1.15.98-.85,2.58-.95,3.91.11,25.72-.06,51.45.07,77.17-.11,2.05,2.02,3.56,3.94,3.45,17.99.01,35.99-.03,53.98,0,1.61-.09,3.35.15,4.82-.67,1.83-1.45,1.21-3.99,1.41-6.01,1.76,0,3.5-.17,5.25-.36,2.59-1.71,2.35-4.75,2.28-7.47,1.71-.04,3.43.03,5.13-.22,1.95-.73,2.42-2.98,2.28-4.84-.07-22.34.03-44.68-.08-67.02-4.34-4.68-8.94-9.11-13.43-13.64-15.21.08-30.43.02-45.64,0-1.73-.05-3.84.29-4.68,2.03h0Z"/>
    <path class="st52" d="M802.29,100.4c2.51-.59,5.13-.39,7.71-.42,21.98.05,43.96,0,65.94,0,6-.57,10.98,5.28,10.88,11.01.05,113.7.15,227.39-.02,341.09-.08,5.73-4.79,11.47-10.85,11-23.64.15-47.29.06-70.93.01-4.55-.21-9.51-3.33-10.14-8.14-.54-4.3-.16-8.65-.22-12.96.04-107.68-.04-215.35.09-323.03.04-3.97-.39-7.99.42-11.91.72-3.47,3.94-5.65,7.12-6.65M802.87,162.84c-.05,13.96-.13,27.93.04,41.89,7.25,1.73,14.65,3.3,22.14,3.1,8.88-.42,17.39-3.19,25.95-5.36,8.93-2.35,18.18-3.34,27.4-3.44.09-12.07.02-24.13.04-36.19-25.19-.17-50.38-.11-75.57,0M802.89,216.82c-.14,13.97-.06,27.95-.04,41.92,8.88,2.25,18.12,3.98,27.29,2.69,7.44-.91,14.51-3.52,21.76-5.28,8.66-2.19,17.59-3.07,26.51-3.22-.05-12.02.11-24.04-.07-36.06-25.15-.18-50.3-.09-75.45-.05M799.23,276.02c-.1,15.34-.14,30.7-.07,46.05,7.78,2.12,15.81,3.48,23.89,3.53,11-.15,21.33-4.32,31.93-6.74,8.8-2.24,17.9-2.93,26.95-2.94-.11-13.33.06-26.66-.07-39.99-4.95-.25-9.9-.15-14.84-.15-22.59.14-45.21-.3-67.79.24Z"/>
    <path class="st52" d="M44.92,148.9c-.43-1.93,1.73-2.03,3.03-1.96,6.02,0,12.03,0,18.05-.04.14,3.93-.42,7.93.32,11.82,3.86,1.26,8.21.18,12.26.53.03,9.89.09,19.79.02,29.68.11,1.4-1.12,2.38-2.48,2.15-10.04,0-20.09.2-30.13-.1-.24-.23-.73-.7-.97-.93-.29-13.71-.08-27.43-.1-41.15M48.6,160.08c.35.4,1.03,1.2,1.37,1.6,3.55.21,7.14.23,10.68-.1,1.93-.87-.44-2.63-1.58-2.16-3.48,0-7.14-.65-10.47.66M49.52,165.26c-.19.44-.56,1.31-.75,1.75,8.43.66,16.97.63,25.4.04-.04-.47-.13-1.4-.17-1.87-8.14-.37-16.35-.37-24.48.08M49.09,172.85c8.19-.02,16.4.26,24.58-.12.19-.45.57-1.36.76-1.81-7.78-.5-15.6-.2-23.39-.19-1.48-.1-2.13.61-1.95,2.12M48.49,177.06c.37.4,1.13,1.21,1.51,1.61,6.33.24,12.67-.11,19.01.06,2-.14,4.68.65,5.75-1.65-3.99-1.73-8.54-.42-12.77-.81-4.47.38-9.26-1-13.5.79M48.75,184.01c6.47.49,13.01.38,19.49.06-.17-.44-.51-1.31-.68-1.75-5.56-.38-11.17-.25-16.75-.21-1.14,0-1.82.65-2.06,1.9h0Z"/>
    <path class="st52" d="M804.33,164.33h72.53c.1,11.01-.11,22.02.12,33.03-7.18.34-14.39.78-21.41,2.39-9.24,1.86-18.11,5.48-27.56,6.22-7.96.65-15.92-.62-23.64-2.46.03-13.06.11-26.12-.04-39.18h0Z"/>
    <path class="st52" d="M39.09,218.84c1.27-.24,2.55-.45,3.84-.45,14.45.02,28.9-.05,43.35-.04,0,3.85-.24,7.72.3,11.54-2.05-2.18-3.9-4.78-6.56-6.23-13.61-.2-27.24-.04-40.85-.07-.03-1.58-.06-3.17-.08-4.75Z"/>
    <path class="st52" d="M804.39,218.42c24.15-.04,48.3,0,72.45-.03,0,11,.13,22.01-.01,33.02-7.33.17-14.65.87-21.8,2.52-10.34,2.1-20.35,6.41-31.06,6.27-6.63.25-13.17-1.07-19.57-2.66-.1-13.04.07-26.08-.01-39.12h0Z"/>
    <path class="st52" d="M88.31,219.87c3.12,2.98,6.08,6.11,9.14,9.15-2.95-.23-6.29.64-9-.5-.34-2.87-.09-5.77-.14-8.65Z"/>
    <path class="st52" d="M32.04,225.78c15.68-.28,31.38,0,47.07-.1,0,3.92-.1,7.85.18,11.76-2.07-2.23-4.25-4.35-6.38-6.52-13.66-.22-27.32-.07-40.98-.08.03-1.69.06-3.38.11-5.06h0Z"/>
    <path class="st52" d="M88.03,231.21c3.7-.11,7.4-.1,11.1-.16,0,21.32-.09,42.65.06,63.97-.14,1.51.28,3.23-.51,4.6-1.6.4-3.27.3-4.9.42-.05-20.96-.09-41.92.01-62.88-1.84-2.06-3.76-4.05-5.76-5.95h0Z"/>
    <path class="st52" d="M24.16,232.91c15.74-.25,31.48,0,47.22-.13.01,3.39-.17,6.78.08,10.17-.01,1.41,1.14,2.67,2.56,2.74,3.39.33,6.81.12,10.21.12-.15,14.31.03,28.62-.04,42.94-8.99.47-18.11-.76-27.01.41-2.12,3.81-.51,8.64-1.02,12.85.17,2.59-.93,7.44,2.88,7.71,8.37.28,16.77-.04,25.15.12-.04,1.46-.07,2.92-.11,4.39-17.66.95-35.38,0-53.06.45-2.25-.17-4.78.52-6.82-.72-.43-3.27-.21-6.58-.19-9.87.11-23.72-.23-47.46.15-71.18M37.32,248.44c-.16.43-.49,1.29-.66,1.72,7.85.56,15.85.45,23.73.03-.49-1.61-1.81-2.08-3.32-1.88-6.58.1-13.18-.15-19.75.13M31.28,254.31c-.22.45-.67,1.34-.9,1.78,15.67.2,31.35.29,47.01-.05l.29-1.03-.73-.72c-15.21-.18-30.46-.18-45.67.02M30.94,260.08c-.02.49-.04,1.45-.06,1.94,15.41.14,30.84.09,46.24,0,1.82-1.35-.74-2.44-2.06-2.06-14.71.16-29.43-.28-44.12.13M30.45,265.88c.13.49.41,1.46.55,1.94,13.65.28,27.31-.01,40.97.14,2.11-.1,4.48.4,6.27-1.06-1.49-1.3-3.49-1.05-5.29-1.08-14.17.09-28.34-.02-42.5.06M30.4,271.83c.2.46.59,1.39.79,1.85,14.29.27,28.6.07,42.9.18,1.16-.02,5.16.11,3.25-2.04-15.63-.3-31.3-.21-46.94,0M30.1,277.91c.57,1.31,1.53,1.89,2.88,1.73,14.58-.01,29.17.19,43.74-.1,1.97-.26.78-2.62-.77-2.16-13.66-.08-27.33,0-40.99-.04-1.64-.04-3.28.13-4.86.57M31.21,283.34c-.21.46-.61,1.39-.81,1.86,14.54.32,29.08-.02,43.62.14,1.27.31,5.53-.44,2.85-1.99-15.21-.22-30.45-.19-45.66-.01M30.76,289.13c.02.48.06,1.43.08,1.9,7.42.14,14.85.18,22.27-.02.03-.48.08-1.44.1-1.92-7.47-.25-14.98-.25-22.45.04M30.49,294.93c.14.47.41,1.42.55,1.89,7.35.27,14.72,0,22.08.15.14-.42.42-1.25.56-1.67-7.68-.93-15.47-.24-23.19-.37M30.83,300.81c.09.47.26,1.42.35,1.9,7.22.2,14.47.22,21.7.02.11-.47.34-1.41.45-1.87-7.48-.34-15.01-.26-22.5-.05Z"/>
    <path class="st52" d="M79.96,238.1c3.92.15,7.84.13,11.76.18.06,17.5-.09,35.01.07,52.51-1.16-2.09-3.47-2.13-5.6-2.06-.1-13.93.03-27.85-.03-41.77.16-3.99-3.93-6.13-6.2-8.86Z"/>
  </g>
  <g id="_x23_cad8f5ff">
    <path class="st46" d="M122.39,110.97c-.11-5.28,4.33-10.17,9.56-10.73,3.66-.33,7.34-.1,11.02-.15,203.99-.08,407.99.05,611.99-.07,6.43.43,13.87-1.63,19.4,2.67,3.51,2.58,4.13,7.23,4.03,11.28-.16,15.38.06,30.77-.24,46.15-2.45.19-4.9.19-7.34,0,.48-5.69.53-11.42.37-17.13-.08-4.1-2.43-8.34-6.38-9.84-2.2-.62-4.5-.59-6.75-.63-27.34.1-54.68-.08-82.01.1-5.08-.32-9.41,4.45-9.26,9.39-.27,6.49.12,12.99-.21,19.48-2.63-1.29-5.24-2.59-7.86-3.89.22.82.66,2.47.88,3.29-18.72-.04-37.44-.08-56.16.03-.01-6.59.3-13.2-.09-19.78-.29-4.74-4.59-8.82-9.4-8.48-27.65-.14-55.3.02-82.95-.07-2.3.04-4.64,0-6.88.55-3.67,1.23-5.83,5.1-6.06,8.81-.55,6.51-.06,13.06-.29,19.58-2.58-1.36-5.17-2.69-7.77-3.97.31,1.08.63,2.16.96,3.25-4.79-.05-9.58.05-14.37-.07.45.67.9,1.33,1.36,2,4.25-.05,8.51,0,12.76,0-.25.99-.5,1.97-.74,2.97,2.63-1.22,5.27-2.44,7.79-3.87.6,8.95-1.16,18.17,1.3,26.93.46,4.41,4.83,6.72,8.93,6.47,29.02.04,58.03,0,87.04-.05,5.21.17,9.45-5.28,8.57-10.31-.17-7.38-.06-14.76-.17-22.13,18.64.06,37.27.02,55.9,0-.08.68-.25,2.05-.34,2.73,2.55-1.15,5.1-2.32,7.58-3.65.11,7.73,0,15.46.3,23.18.01,3.73,3.17,6.17,5.63,8.51,30.12-.16,60.26.23,90.38-.08,5.02-.52,8.19-5.68,8.3-10.4.15-6.78.35-13.59-.43-20.34,2.49,0,4.99,0,7.49,0,.21,10.76.04,21.53.15,32.29.1,4.03-.88,8.51-4.35,11-4.27,3.33-10.01,2.2-15.03,2.38-208-.03-416,0-624.01,0-4.32.34-8.59-1.73-10.94-5.36-1.82-2.64-1.72-5.98-1.75-9.04.11-9.21-.01-18.43.05-27.64.38-.3,1.15-.9,1.53-1.2,2.22-1.09,4.44-2.18,6.65-3.29-2.65-1.57-5.38-2.98-8.15-4.3-.05-15.52-.04-31.04.01-46.56M621.34,115.88c-.13,4.45.02,8.9,0,13.35-1.65.31-3.88-.59-5.01,1.02-.27,3.73-.45,7.54.13,11.25,1.44.75,3.21.32,4.8.54.18,2.49-.83,6.83,2.73,7.27,7.33.31,14.68.11,22.02.13,1.55.1,3.98-.46,3.93-2.43.18-7.01-.22-14.04.09-21.05-.18-1.7.46-3.81-.88-5.16-2.72-2.87-5.52-5.68-8.44-8.34-5.54.3-11.08,0-16.62.18-1.62.01-3.02,1.62-2.76,3.24M242.71,142.14c-.27,6.49,0,12.99-.2,19.48-2.51-1.53-5.22-2.68-7.84-4.01.19.81.56,2.42.75,3.23-2.72.03-5.46.06-8.15-.44.05.6.15,1.81.2,2.42,2.57-.12,5.15-.12,7.73-.09-.16.71-.49,2.15-.66,2.86,2.69-1.17,5.34-2.41,7.98-3.68.2,7,0,14,.08,21,0,2.08.33,4.2,1.33,6.06.2,4.32,5.36,6.01,9.03,6.11,30.34.32,60.7-.13,91.03.26,4.51-.35,9.25-3.38,9.04-8.4.38-8.07.52-16.16.28-24.24,5.29-.02,10.58.06,15.88.02-.17.76-.51,2.28-.67,3.04,2.61-1.31,5.24-2.59,7.9-3.81.17,6.69,0,13.39.07,20.08.01,2.34.28,4.75,1.44,6.82.54,2.81,2.79,4.86,5.4,5.8,7.86,1.09,15.79-.83,23.65.55,19.09-.29,38.2.24,57.29-.34,2.33-.1,5.08.28,6.86-1.61,2.62-2.45,5.51-5.36,5.4-9.24-.17-7.34.5-14.7-.33-22.01.32-6.94.72-13.91.21-20.86-.16-3.67-2.78-7.23-6.37-8.18-2.01-.41-4.06-.39-6.09-.41-25.95.11-51.91-.05-77.86.09-5.19-.45-9.47,4.4-9.5,9.36-.23,6.55,0,13.11-.18,19.66-2.48-1.55-5.18-2.66-7.85-3.81.26,1.02.54,2.03.82,3.04-5.36-.17-10.72-.08-16.07.03.07-6.62.41-13.26-.07-19.86-.24-4.6-4.55-8.75-9.22-8.44-30.68.02-61.37-.12-92.05.11-5.1-.36-9.35,4.49-9.26,9.41M132.06,141.99c-.09,13.69-.05,27.38,0,41.07-.22,2.52,1.34,4.53,2.34,6.68,2.43,1.02,4.91,2.08,7.61,1.89,25.37.02,50.74,0,76.1,0,4.59.21,8.69-4.04,8.59-8.58,0-13.35.06-26.71,0-40.06.09-4.65-3.71-9.4-8.65-8.96-25.7-.04-51.4.03-77.11,0-4.48-.34-8.89,3.39-8.87,7.97M637.72,168.13c-.56,10.55-.05,21.12-.28,31.68,7.97.32,15.95,0,23.92.14.2-8.09-.06-16.18.14-24.26-2.29-2.75-4.91-5.19-7.51-7.62-5.43.02-10.85-.12-16.27.06M130.54,188.39c1.1.65,2.19,1.3,3.26,2-.23,2.52,2.51,5.07,5.02,4.15,1.64-.57,4.05-.96,4.75,1.11.27-2.53,3.68-1.46,5.36-1.65l.02,1.67c.04-.4.12-1.2.16-1.6,22.31.11,44.62,0,66.93.03,2.61-.17,5.52,1.46,7.9-.21,2.66-1.2,4.19-3.78,4.13-6.66-1.54,1.75-3.22,3.39-4.75,5.16-2.06.58-4.07,1.51-6.25,1.44-24.03.02-48.06.03-72.08-.04-3.48-.31-7.8.34-10.55-2.09,0-.49-.03-1.47-.05-1.96-1.19-.58-2.82-.44-3.58-1.72-.08-.68-.25-2.05-.33-2.74-.02,1.04,0,2.07.06,3.11h0Z"/>
  </g>
  <g id="_x23_080707ff">
    <path class="st55" d="M621.34,115.88c-.26-1.62,1.14-3.23,2.76-3.24,5.54-.18,11.08.12,16.62-.18,2.92,2.66,5.72,5.47,8.44,8.34,1.34,1.35.7,3.46.88,5.16-.31,7.01.09,14.04-.09,21.05.05,1.97-2.38,2.53-3.93,2.43-7.34-.02-14.69.18-22.02-.13-3.56-.44-2.55-4.78-2.73-7.27-1.59-.22-3.36.21-4.8-.54-.58-3.71-.4-7.52-.13-11.25,1.13-1.61,3.36-.71,5.01-1.02.01-4.45-.14-8.9,0-13.35M623.73,114.57c-1.27,4.61-.14,9.84-.56,14.69,5.56.07,11.12-.15,16.67.07.24.21.72.65.97.87.24,3.63.23,7.3,0,10.94-.18.19-.54.57-.71.76-5.64.47-11.33.02-16.98.16.13,1.79-.3,3.73.42,5.42,6.79.58,13.65,0,20.46.23,1.3-.23,3.02.38,4.07-.62.21-7.95.05-15.91.05-23.85-2.63-.14-5.43.45-7.93-.46-1.46-2.43-.36-5.65-.63-8.37-5.28-.06-10.58-.25-15.83.16M641.19,115.39c0,1.93.02,3.86.01,5.8,1.97.2,3.94.34,5.92.48-1.95-2.12-3.96-4.18-5.93-6.28M620.12,132.05c-.12,2.64-.18,5.3.25,7.92,1.85-2,1.24-4.7.96-7.12.56.25,1.67.75,2.23.99-.33.84-1,2.51-1.33,3.35,1.57-.38,3.81-2.96,1.98-4.39-1.12-.94-2.77-.49-4.09-.75M625.96,132.15c-.05,2.39-.06,4.78-.04,7.17,2.35.19,5.82-.14,5.91-3.21.64-3.46-3.21-4.53-5.87-3.96M632.88,132.17c-.03,2.34-.04,4.68-.03,7.01l1.17-.04c-.73-2.66,1.5-2.9,3.36-3.57-.78-.14-2.35-.4-3.14-.53l-.1-1.64c1.32.17,2.44-.18,3.36-1.04-1.54-.1-3.08-.16-4.62-.19h0Z"/>
    <path class="st55" d="M500.63,231.06c2.8,1.23,5.54,2.64,8.26,4.08-2.73,1.41-5.49,2.78-8.31,4.01.29-1.01.58-2.01.87-3.01-8.13-.03-16.26,0-24.39,0,.02-.48.04-1.44.06-1.92,8.13.12,16.27.06,24.41.04-.31-1.07-.61-2.14-.9-3.2Z"/>
    <path class="st55" d="M725.4,312.21h.52c.47.87.92,1.76,1.36,2.66.82,1.72,1.66,3.45,2.5,5.17-.78-.1-2.33-.3-3.11-.4,0,2.67,0,5.35-.01,8.02-16.21.03-32.42,0-48.63.02-3.73,0-7.48.16-11.17-.42.52-.32,1.58-.97,2.11-1.3,18.6-.34,37.24.02,55.85-.12,0-2.08,0-4.16.01-6.23-.74.13-2.23.4-2.97.53.96-1.9,1.89-3.81,2.7-5.78.21-.54.63-1.61.84-2.15h0Z"/>
    <path class="st55" d="M716.16,353.2c4.29-.5,8.64-.29,12.95-.23,2.79,1.85,4.77,4.72,7.16,7.05.07,5.94.24,11.89.03,17.83-.31,2.08-2.85,1.58-4.32,1.71-5.19-.14-10.39.16-15.56-.16-1.53-.48-1.14-2.19-1.24-3.41.05-7.26-.16-14.53.12-21.78.21-.25.64-.75.86-1.01M716.69,354.58c.17,7.76.01,15.53.14,23.3,5.97.1,11.96-.02,17.94-.07.07-5.61.03-11.22,0-16.83-2.19-.03-4.37-.06-6.55-.14-.04-2.09-.06-4.18-.05-6.27-3.83.03-7.66.02-11.48,0h0Z"/>
  </g>
  <g id="_x23_c9d7f4ff">
    <path class="st27" d="M623.73,114.57c5.25-.41,10.55-.22,15.83-.16.27,2.72-.83,5.94.63,8.37,2.5.91,5.3.32,7.93.46,0,7.94.16,15.9-.05,23.85-1.05,1-2.77.39-4.07.62-6.81-.24-13.67.35-20.46-.23-.72-1.69-.29-3.63-.42-5.42,5.65-.14,11.34.31,16.98-.16.17-.19.53-.57.71-.76.23-3.64.24-7.31,0-10.94-.25-.22-.73-.66-.97-.87-5.55-.22-11.11,0-16.67-.07.42-4.85-.71-10.08.56-14.69h0Z"/>
  </g>
  <g id="_x23_c9d8f4ff">
    <path class="st43" d="M641.19,115.39c1.97,2.1,3.98,4.16,5.93,6.28-1.98-.14-3.95-.28-5.92-.48.01-1.94-.01-3.87-.01-5.8Z"/>
    <path class="st43" d="M639.04,169.61c4.58-.07,9.16,0,13.75,0-.03,2.38-.03,4.77.09,7.15,2.33.05,4.67.06,7.02.09-.03,7.21-.01,14.41-.04,21.62-6.92-.08-13.83-.11-20.75.02-.13-9.63-.2-19.26-.07-28.88M640.99,175.46c1.11,2.23,4.04,1.2,6.03,1.42,1.06-.33,3.91.51,3.42-1.39-3.14-.43-6.31-.25-9.45-.03M641.36,178.51c.1.37.29,1.1.39,1.47,2.87-.56,7.52,1.49,9.28-1.47-3.23-.12-6.45-.08-9.67,0M642.31,181.53c-.34.3-1.01.89-1.35,1.19,5.36.33,10.79.62,16.15.08l.79-1.17c-5.19-.13-10.4-.3-15.59-.1M640.89,185.6c5.68.78,11.48.4,17.19.09-2.24-1.91-5.39-.73-8.05-1.04-3.01.32-6.48-.89-9.14.95M640.82,188.64c5.75.62,11.61.56,17.38.03-2.32-1.9-5.51-.68-8.22-1-3.03.31-6.5-.93-9.16.97M640.88,191.73c5.65.6,11.35.3,17.01.11-.32-.29-.98-.87-1.31-1.16-4.21.05-8.42,0-12.63,0-1.19-.19-2.21.3-3.07,1.05M640.83,194.18c1.79,1.3,4.06.95,6.14,1.01,1.79,0,3.76.19,5.23-1.08-3.76-.56-7.64-.7-11.37.07Z"/>
    <path class="st43" d="M654.27,170.79c1.51,1.41,2.99,2.87,4.44,4.36-1.46-.02-2.92-.05-4.36-.09-.04-1.43-.06-2.85-.08-4.27Z"/>
  </g>
  <g id="_x23_e7e6e6ff">
    <path class="st16" d="M620.12,132.05c1.32.26,2.97-.19,4.09.75,1.83,1.43-.41,4.01-1.98,4.39.33-.84,1-2.51,1.33-3.35-.56-.24-1.67-.74-2.23-.99.28,2.42.89,5.12-.96,7.12-.43-2.62-.37-5.28-.25-7.92h0Z"/>
    <path class="st16" d="M625.96,132.15c2.66-.57,6.51.5,5.87,3.96-.09,3.07-3.56,3.4-5.91,3.21-.02-2.39-.01-4.78.04-7.17M627.3,132.83c-.06,1.81-.09,3.61-.1,5.41,1.8-.06,3.74-1.07,3.12-3.24.18-1.73-1.96-1.65-3.02-2.17Z"/>
    <path class="st16" d="M81.14,227.06c3.04,3.02,6.06,6.06,9.02,9.15-2.87-.28-6.13.68-8.79-.54-.42-2.85-.22-5.75-.23-8.61Z"/>
  </g>
  <g id="_x23_f5f5f2ff">
    <path class="st7" d="M632.88,132.17c1.54.03,3.08.09,4.62.19-.92.86-2.04,1.21-3.36,1.04l.1,1.64c.79.13,2.36.39,3.14.53-1.86.67-4.09.91-3.36,3.57l-1.17.04c0-2.33,0-4.67.03-7.01h0Z"/>
    <path class="st7" d="M250.14,253.27c26.24-.44,52.54-.03,78.8-.22,4.75-.66,9.63,3.1,9.61,8.01.13,13.67.06,27.35.04,41.02.18,4.61-3.76,9.08-8.52,8.74-26.04-.04-52.09-.03-78.13-.01-4.57.14-8.27-4.35-8.07-8.76-.13-13.37.03-26.75,0-40.12-.32-3.94,2.47-7.67,6.26-8.66h0Z"/>
    <path class="st7" d="M583.33,253.4c2.86-.6,5.81-.25,8.71-.32h65.02c4.25-.14,8.02,3.6,7.96,7.85.21,13.34.07,26.7.13,40.05.25,3.44-1.27,7.1-4.41,8.75-1.7,1.15-3.83,1.03-5.77,1.08-22.99-.09-45.97.04-68.95-.03-3.83.24-7.41-2.66-8.5-6.22-.63-4.17-.17-8.4-.23-12.6.26-10-.11-20.02.1-30.02-.14-3.76,2.27-7.49,5.94-8.55h0Z"/>
  </g>
  <g id="_x23_5f7cb0ff">
    <path class="st20" d="M242.71,142.14c-.09-4.92,4.16-9.77,9.26-9.41,30.68-.23,61.37-.09,92.05-.11,4.67-.31,8.98,3.84,9.22,8.44.48,6.6.14,13.24.07,19.86v1.78c.24,8.08.1,16.17-.28,24.24-1.95,3.22-4.89,6.63-9.06,6.28-30.67-.38-61.35.04-92.02-.15-3.24.16-5.75-2.12-8.02-4.1-1-1.86-1.33-3.98-1.33-6.06-.07-7,.12-14-.08-21v-.29c.2-6.49-.08-12.99.19-19.48M249.27,134.38c-3.38,1.35-5.68,4.89-5.4,8.55,0,13.36-.04,26.72,0,40.08-.21,4.82,4.2,9.28,9.05,8.94,30.01-.14,60.02.07,90.03-.08,4.91.43,9.46-3.94,9.06-8.88-.02-13.68-.09-27.36-.02-41.03.12-4.23-3.7-8.3-8.02-7.98-30.01,0-60.02.04-90.03-.03-1.56.08-3.2-.16-4.68.43h0Z"/>
  </g>
  <g id="_x23_6682b4ff">
    <path class="st37" d="M376.59,142c.03-4.96,4.31-9.81,9.5-9.36,25.95-.14,51.91.02,77.86-.09,2.03.02,4.08,0,6.09.41,3.59.95,6.21,4.51,6.37,8.18.51,6.95.11,13.92-.21,20.86.83,7.31.16,14.67.33,22.01.11,3.88-2.78,6.79-5.4,9.24-28.38-.31-56.76-.11-85.14-.03-3.38.32-5.85-2.22-8.06-4.37-1.16-2.07-1.43-4.48-1.44-6.82-.06-6.69.1-13.39-.07-20.08v-.29c.17-6.55-.06-13.11.17-19.66M383.3,134.31c-3.06,1.22-5.43,4.33-5.29,7.7-.05,13.35.03,26.7-.03,40.05-1.01,5.73,4.47,10.67,10.05,9.81,25.98,0,51.96.07,77.94,0,4.56.43,9.09-3.18,9.07-7.88.12-13.98.03-27.97.04-41.96.32-4.3-3.69-8.43-8.03-8.03-26.35,0-52.7.04-79.05-.02-1.57.07-3.2-.15-4.7.34h0Z"/>
  </g>
  <g id="_x23_627eb1ff">
    <path class="st51" d="M498.05,141.94c.23-3.71,2.39-7.58,6.06-8.81,2.24-.56,4.58-.51,6.88-.55,27.65.09,55.3-.07,82.95.07,4.81-.34,9.11,3.74,9.4,8.48.39,6.58.08,13.19.09,19.78,0,.45,0,1.36-.01,1.82.11,7.37,0,14.75.17,22.13-1.08,3.99-4.03,8.16-8.53,8.32-29.37-.13-58.75-.1-88.11-.07-3.33.27-5.77-2.19-7.9-4.36-2.46-8.76-.7-17.98-1.3-26.93v-.3c.24-6.52-.25-13.07.3-19.58M504.42,134.47c-3.41,1.36-5.27,5.02-5.15,8.57,0,13.35.12,26.71.03,40.06-.2,4.68,3.89,9.04,8.63,8.77,28.35.05,56.7.06,85.04,0,4.51.36,9.11-3.24,9.08-7.91.07-14-.06-28.01-.04-42.02.22-4.24-3.78-8.14-7.98-7.95-27.68,0-55.36.04-83.04,0-2.19.07-4.48-.28-6.57.49h0Z"/>
  </g>
  <g id="_x23_0b0a0aff">
    <path class="st50" d="M627.3,132.83c1.06.52,3.2.44,3.02,2.17.62,2.17-1.32,3.18-3.12,3.24.01-1.8.04-3.6.1-5.41Z"/>
    <path class="st50" d="M489.99,157.55c2.6,1.28,5.19,2.61,7.77,3.97v.3c-2.53,1.43-5.17,2.65-7.8,3.87.24-1,.49-1.98.74-2.97-4.25,0-8.51-.04-12.76,0-.46-.67-.91-1.33-1.36-2,4.79.12,9.58.02,14.37.07-.33-1.09-.65-2.17-.96-3.25h0Z"/>
    <path class="st50" d="M234.47,276.9c2.64,1.25,5.29,2.5,7.87,3.87,0,.14.02.41.02.54-2.63,1.26-5.26,2.54-7.91,3.78.31-1.05.62-2.09.94-3.13-2.4-.03-4.79-.05-7.18-.08v-1.73c2.38-.03,4.76-.06,7.14-.07-.22-.8-.66-2.39-.88-3.18Z"/>
    <path class="st50" d="M353.65,404.2c2.72,1.37,5.46,2.71,8.12,4.22v.23c-2.74,1.3-5.46,2.64-8.2,3.92.34-1.03.68-2.06,1.03-3.08-5-.13-10-.29-14.99-.12l-.51.04v-1.91l.63.03c4.95.06,9.91.03,14.86-.02-.31-1.11-.63-2.21-.94-3.31h0Z"/>
  </g>
  <g id="_x23_728cbbff">
    <path class="st60" d="M666.78,142c-.15-4.94,4.18-9.71,9.26-9.39,27.33-.18,54.67,0,82.01-.1,2.25.04,4.55,0,6.75.63,3.95,1.5,6.3,5.74,6.38,9.84.16,5.71.11,11.44-.37,17.13l-.04.66c-.04.64-.05,1.28-.03,1.92.78,6.75.58,13.56.43,20.34-.11,4.72-3.28,9.88-8.3,10.4-30.12.31-60.26-.08-90.38.08-2.46-2.34-5.62-4.78-5.63-8.51-.3-7.72-.19-15.45-.3-23.18v-.34c.34-6.49-.05-12.99.22-19.48M673.33,134.44c-3.26,1.43-5.46,4.91-5.3,8.48-.07,13.05.09,26.11-.03,39.16-.2,3.11.91,6.59,3.69,8.28,3.03,1.99,6.8,1.43,10.24,1.52,26.37-.06,52.75.02,79.12-.02,4.72.16,8.55-4.23,8.19-8.85-.05-13.65.13-27.31-.03-40.96.24-4.32-3.88-8.45-8.22-8.05h-83c-1.55.09-3.21-.18-4.66.44h0Z"/>
  </g>
  <g id="_x23_f5f5f1ff">
    <path class="st49" d="M132.06,141.99c-.02-4.58,4.39-8.31,8.87-7.97,25.71.04,51.41-.03,77.11,0,4.94-.44,8.74,4.31,8.65,8.96.06,13.35,0,26.71,0,40.06.1,4.54-4,8.79-8.59,8.58-25.36,0-50.73.02-76.1,0-2.7.19-5.18-.87-7.61-1.89-1-2.15-2.56-4.16-2.34-6.68-.04-13.69-.08-27.38,0-41.07h0Z"/>
    <path class="st49" d="M383.3,134.31c1.5-.49,3.13-.27,4.7-.34,26.35.06,52.7.02,79.05.02,4.34-.4,8.35,3.73,8.03,8.03,0,13.99.08,27.98-.04,41.96.02,4.7-4.51,8.31-9.07,7.88-25.98.08-51.96.02-77.94,0-5.58.86-11.06-4.08-10.05-9.81.06-13.35-.02-26.7.03-40.05-.14-3.37,2.23-6.48,5.29-7.7h0Z"/>
    <path class="st49" d="M137.34,253.48c1.19-.33,2.4-.47,3.64-.43,26.03.09,52.05,0,78.08.06,4.13-.09,7.8,3.69,7.75,7.81.2,13.71.02,27.44.06,41.16.12,3.8-2.66,7.47-6.3,8.47-3.18.48-6.41.19-9.61.25-22.32.03-44.64-.04-66.96.03-2.6-.09-5.44.34-7.77-1.1-3.12-1.64-4.7-5.33-4.5-8.75.26-13.33.06-26.66.17-39.98-.08-3.36,2.36-6.41,5.44-7.52Z"/>
    <path class="st49" d="M363.12,261.02c-.15-4.23,3.63-7.79,7.75-7.86,12.15-.38,24.32.27,36.46-.32.19-.02.56-.04.74-.06,12.33.72,24.69,0,37.02.36,3.01-.05,5.78,1.9,7.21,4.47,1.04,2.31.8,4.94.89,7.42-.21,12.66.29,25.33-.23,37.98,0,4.2-3.75,7.85-7.95,7.78-24.34.05-48.69-.01-73.04.05-3.13.19-6.27-1.43-7.85-4.15-1.34-2.31-1.24-5.07-1.28-7.64.37-12.68.13-25.36.28-38.03h0Z"/>
  </g>
  <g id="_x23_f4f4f0ff">
    <path class="st36" d="M249.27,134.38c1.48-.59,3.12-.35,4.68-.43,30.01.07,60.02.02,90.03.03,4.32-.32,8.14,3.75,8.02,7.98-.07,13.67,0,27.35.02,41.03.4,4.94-4.15,9.31-9.06,8.88-30.01.15-60.02-.06-90.03.08-4.85.34-9.26-4.12-9.05-8.94-.05-13.36-.02-26.72,0-40.08-.28-3.66,2.02-7.2,5.4-8.55h0Z"/>
    <path class="st36" d="M504.42,134.47c2.09-.77,4.38-.42,6.57-.49,27.68.05,55.36,0,83.04,0,4.2-.19,8.2,3.71,7.98,7.95-.02,14.01.11,28.02.04,42.02.03,4.67-4.57,8.27-9.08,7.91-28.34.06-56.69.05-85.04,0-4.74.27-8.83-4.09-8.63-8.77.09-13.35-.04-26.71-.03-40.06-.12-3.55,1.74-7.21,5.15-8.57h0Z"/>
    <path class="st36" d="M685.17,255.08c2.35-2.26,5.78-2.04,8.79-2.06,22.38.14,44.76,0,67.14.05,4.4-.24,8.23,3.68,8.28,8.01.23,6.6-.12,13.22.29,19.82v.12c-.53,7.51.07,15.05-.34,22.57-.34,4.58-4.97,7.62-9.33,7.25-23.03.03-46.07-.1-69.1.04-4.8.38-9.12-4.05-8.74-8.82.04-12.7-.03-25.4-.02-38.1-.05-3.17.32-6.79,3.03-8.88h0Z"/>
  </g>
  <g id="_x23_f8f8f5ff">
    <path class="st54" d="M673.33,134.44c1.45-.62,3.11-.35,4.66-.44h83c4.34-.4,8.46,3.73,8.22,8.05.16,13.65-.02,27.31.03,40.96.36,4.62-3.47,9.01-8.19,8.85-26.37.04-52.75-.04-79.12.02-3.44-.09-7.21.47-10.24-1.52-2.78-1.69-3.89-5.17-3.69-8.28.12-13.05-.04-26.11.03-39.16-.16-3.57,2.04-7.05,5.3-8.48h0Z"/>
  </g>
  <g id="_x23_111010ff">
    <path class="st29" d="M45.38,144.46c7.45-.37,14.96-.23,22.43-.09,4.65,3.91,8.98,8.34,13.09,12.83.63,10.55.22,21.22.27,31.81.3,2.79-2.48,4.94-5.1,4.73-9.7,0-19.4.05-29.1,0-2.54.19-4.89-2.15-4.75-4.68-.08-13.02.06-26.06-.1-39.08-.21-2.26.8-5,3.26-5.52M44.92,148.9c.02,13.72-.19,27.44.1,41.15.24.23.73.7.97.93,10.04.3,20.09.11,30.13.1,1.36.23,2.59-.75,2.48-2.15.07-9.89.01-19.79-.02-29.68-4.05-.35-8.4.73-12.26-.53-.74-3.89-.18-7.89-.32-11.82-6.02.05-12.03.05-18.05.04-1.3-.07-3.46.03-3.03,1.96M68.66,148.85c-.01,2.6.02,5.19.04,7.79,2.69.02,5.39,0,8.09,0-2.75-2.55-5.21-5.42-8.13-7.8h0Z"/>
    <path class="st29" d="M516.83,243.97c1.59-.22,4.02-.44,4.03,1.87.04,2.13-2.28,2.1-3.81,2-.14-1.29-.21-2.58-.22-3.87h0Z"/>
    <path class="st29" d="M30.76,289.13c7.47-.29,14.98-.29,22.45-.04-.02.48-.07,1.44-.1,1.92-7.42.2-14.85.16-22.27.02-.02-.47-.06-1.42-.08-1.9Z"/>
    <path class="st29" d="M719.3,361.59c1.94.32,6-1.4,6.37,1.28-2.08.4-4.23.36-6.32.22,0-.37-.03-1.13-.05-1.5Z"/>
    <path class="st29" d="M718.69,369.19c4.57-.37,9.18-.31,13.76-.05-.23.32-.68.96-.91,1.28-3.97.16-7.97.25-11.93-.01-.23-.3-.69-.91-.92-1.22h0Z"/>
    <path class="st29" d="M719.61,372.7c3.94-.19,7.92-.09,11.88.06.24.31.73.94.97,1.25-4.58.21-9.16.23-13.73,0,.22-.33.66-.98.88-1.31Z"/>
  </g>
  <g id="_x23_eeeeeeff">
    <path class="st44" d="M68.66,148.85c2.92,2.38,5.38,5.25,8.13,7.8-2.7,0-5.4,0-8.09,0-.02-2.6-.05-5.19-.04-7.79h0Z"/>
  </g>
  <g id="_x23_070606ff">
    <path class="st26" d="M368.56,157.85c2.67,1.15,5.37,2.26,7.85,3.81v.29c-2.65,1.22-5.28,2.5-7.89,3.81.16-.76.5-2.28.67-3.04-5.3.04-10.59-.04-15.88-.02v-1.78c5.35-.11,10.71-.2,16.07-.03-.28-1.01-.56-2.02-.82-3.04Z"/>
  </g>
  <g id="_x23_0d0c0cff">
    <path class="st42" d="M658.71,157.59c2.62,1.3,5.23,2.6,7.86,3.89v.34c-2.49,1.33-5.04,2.5-7.59,3.65.09-.68.26-2.05.34-2.73-18.63,0-37.26.05-55.9,0,.01-.46.01-1.37.01-1.82,18.72-.11,37.44-.07,56.16-.03-.22-.82-.66-2.47-.88-3.29h0Z"/>
  </g>
  <g id="_x23_151413ff">
    <path class="st18" d="M48.6,160.08c3.33-1.31,6.99-.65,10.47-.66,1.14-.47,3.51,1.29,1.58,2.16-3.54.33-7.13.31-10.68.1-.34-.4-1.02-1.2-1.37-1.6Z"/>
    <path class="st18" d="M49.52,165.26c8.13-.45,16.34-.45,24.48-.08.04.47.13,1.4.17,1.87-8.43.59-16.97.62-25.4-.04.19-.44.56-1.31.75-1.75Z"/>
    <path class="st18" d="M640.89,185.6c2.66-1.84,6.13-.63,9.14-.95,2.66.31,5.81-.87,8.05,1.04-5.71.31-11.51.69-17.19-.09Z"/>
    <path class="st18" d="M30.94,260.08c14.69-.41,29.41.03,44.12-.13,1.32-.38,3.88.71,2.06,2.06-15.4.1-30.83.15-46.24,0,.02-.49.04-1.45.06-1.94h0Z"/>
    <path class="st18" d="M30.83,300.81c7.49-.21,15.02-.29,22.5.05-.11.46-.34,1.4-.45,1.87-7.23.2-14.48.18-21.7-.02-.09-.48-.26-1.43-.35-1.9Z"/>
    <path class="st18" d="M613.86,367.1c4.81-.44,9.66-.3,14.49-.11-.47,1.01-1.24,1.46-2.32,1.33-3.53.08-7.07.25-10.59,0-.39-.3-1.19-.92-1.58-1.23h0Z"/>
  </g>
  <g id="_x23_121110ff">
    <path class="st45" d="M637.72,168.13c5.42-.18,10.84-.04,16.27-.06,2.6,2.43,5.22,4.87,7.51,7.62-.2,8.08.06,16.17-.14,24.26-7.97-.13-15.95.18-23.92-.14.23-10.56-.28-21.13.28-31.68M639.04,169.61c-.13,9.62-.06,19.25.07,28.88,6.92-.13,13.83-.1,20.75-.02.03-7.21.01-14.41.04-21.62-2.35-.03-4.69-.04-7.02-.09-.12-2.38-.12-4.77-.09-7.15-4.59,0-9.17-.07-13.75,0M654.27,170.79c.02,1.42.04,2.84.08,4.27,1.44.04,2.9.07,4.36.09-1.45-1.49-2.93-2.95-4.44-4.36Z"/>
    <path class="st45" d="M640.88,191.73c.86-.75,1.88-1.24,3.07-1.05,4.21,0,8.42.05,12.63,0,.33.29.99.87,1.31,1.16-5.66.19-11.36.49-17.01-.11Z"/>
    <path class="st45" d="M640.83,194.18c3.73-.77,7.61-.63,11.37-.07-1.47,1.27-3.44,1.07-5.23,1.08-2.08-.06-4.35.29-6.14-1.01Z"/>
    <path class="st45" d="M450.87,224.98c.47-3.77,6.53-4.31,7.51-.55,1.03,2.24-.95,4.06-2.44,5.43,0,1.4.01,2.79.02,4.19,2.36.02,4.73.19,7.08-.16,1.99-.4,2.98-2.34,4.1-3.83-1.56-1.41-3.74-3.25-2.53-5.62.93-3.24,6-3.48,7.15-.28,1.33,2.42-.91,4.37-2.3,6.03-1.22,2.33-2.71,4.76-5.37,5.59-2.7.54-5.47.35-8.2.44.29,1.82,0,3.98,1.43,5.4,1.62,1.98,4.36,1.87,6.68,2.02,1.22-1.94,3.42-4.14,5.91-2.82,3.18,1.41,2.78,6.91-.85,7.39-2.11.75-3.71-1.03-4.89-2.47-2.94-.06-6.32-.07-8.39-2.52-3.4-3.63-1.86-9.01-2.16-13.48-1.58-1.1-3.38-2.55-2.75-4.76M453.65,224.55c-1.95,1.27.86,3.75,2.19,2.31,1.46-1.38-.93-3.89-2.19-2.31M467.22,224.38c-1.8,1.14.11,3.8,1.78,2.7,1.98-.85.05-4.11-1.78-2.7M466.88,242.86c-.52,1.38.19,4.33,2.21,2.94,2.14-1.48-.36-3.42-2.21-2.94Z"/>
    <path class="st45" d="M37.32,248.44c6.57-.28,13.17-.03,19.75-.13,1.51-.2,2.83.27,3.32,1.88-7.88.42-15.88.53-23.73-.03.17-.43.5-1.29.66-1.72Z"/>
    <path class="st45" d="M30.45,265.88c14.16-.08,28.33.03,42.5-.06,1.8.03,3.8-.22,5.29,1.08-1.79,1.46-4.16.96-6.27,1.06-13.66-.15-27.32.14-40.97-.14-.14-.48-.42-1.45-.55-1.94h0Z"/>
    <path class="st45" d="M30.4,271.83c15.64-.22,31.31-.31,46.94,0,1.91,2.15-2.09,2.02-3.25,2.04-14.3-.11-28.61.09-42.9-.18-.2-.46-.59-1.39-.79-1.85h0Z"/>
    <path class="st45" d="M30.49,294.93c7.72.13,15.51-.56,23.19.37-.14.42-.42,1.25-.56,1.67-7.36-.14-14.73.12-22.08-.15-.14-.47-.41-1.42-.55-1.89Z"/>
  </g>
  <g id="_x23_090808ff">
    <path class="st23" d="M49.09,172.85c-.18-1.51.47-2.22,1.95-2.12,7.79,0,15.61-.31,23.39.19-.19.45-.57,1.36-.76,1.81-8.18.38-16.39.1-24.58.12Z"/>
    <path class="st23" d="M512.13,224.28c4.35-1.3,9.27-1.73,13.54.07,4.07,1.69,5.14,7.45,2.44,10.75-1.75,2.05-4.58,2.29-6.95,3.16-1.28.76-1.02,2.53-1.48,3.75-.67-.04-2.03-.13-2.7-.17.25-1.88-.34-4.23,1.25-5.66,1.94-1.35,4.4-1.58,6.48-2.66,2.07-1.51,1.72-5.45-.84-6.27-4.38-1.44-8.94-.14-13.24.88-.26-1.4-.27-3.47,1.5-3.85h0Z"/>
    <path class="st23" d="M567.96,276.95c2.26,1.09,4.55,2.15,6.94,2.98v2.12c-2.43.84-4.75,1.95-7.04,3.1.29-.81.88-2.44,1.17-3.25-2.46.01-4.91.01-7.36.01-.01-.6-.02-1.18-.01-1.77,2.43-.02,4.88-.04,7.32-.06-.35-1.04-.69-2.09-1.03-3.13h.01Z"/>
    <path class="st23" d="M672.75,404.35c2.67,1.33,5.36,2.61,7.99,4.03v.22c-2.63,1.23-5.26,2.48-7.87,3.73.22-.75.68-2.27.91-3.03-2.55-.05-5.08-.07-7.61-.09v-1.6c2.52-.05,5.06-.08,7.6-.1-.35-1.05-.69-2.11-1.02-3.16h0Z"/>
  </g>
  <g id="_x23_1d1c1bff">
    <path class="st4" d="M640.99,175.46c3.14-.22,6.31-.4,9.45.03.49,1.9-2.36,1.06-3.42,1.39-1.99-.22-4.92.81-6.03-1.42Z"/>
    <path class="st4" d="M641.36,178.51c3.22-.08,6.44-.12,9.67,0-1.76,2.96-6.41.91-9.28,1.47-.1-.37-.29-1.1-.39-1.47h0Z"/>
    <path class="st4" d="M642.31,181.53c5.19-.2,10.4-.03,15.59.1l-.79,1.17c-5.36.54-10.79.25-16.15-.08.34-.3,1.01-.89,1.35-1.19Z"/>
    <path class="st4" d="M640.82,188.64c2.66-1.9,6.13-.66,9.16-.97,2.71.32,5.9-.9,8.22,1-5.77.53-11.63.59-17.38-.03h0Z"/>
    <path class="st4" d="M30.1,277.91c1.58-.44,3.22-.61,4.86-.57,13.66.04,27.33-.04,40.99.04,1.55-.46,2.74,1.9.77,2.16-14.57.29-29.16.09-43.74.1-1.35.16-2.31-.42-2.88-1.73Z"/>
    <path class="st4" d="M719.53,365.36c4.04-.32,8.12-.2,12.17-.04.17.38.51,1.13.68,1.51-4.54.11-9.09.19-13.62-.02.19-.36.58-1.09.77-1.45Z"/>
    <path class="st4" d="M614.1,371.58c.24-.34.72-1.01.96-1.35,4.38-.37,8.8-.21,13.2-.06-.19.31-.57.95-.77,1.27-4.45.3-8.93.36-13.39.14Z"/>
    <path class="st4" d="M614.02,374.66c.82-2.08,3.23-1.32,4.99-1.47,1.48.15,3.6-.4,4.18,1.48-3.06.23-6.13.27-9.17-.01Z"/>
  </g>
  <g id="_x23_131212ff">
    <path class="st25" d="M48.49,177.06c4.24-1.79,9.03-.41,13.5-.79,4.23.39,8.78-.92,12.77.81-1.07,2.3-3.75,1.51-5.75,1.65-6.34-.17-12.68.18-19.01-.06-.38-.4-1.14-1.21-1.51-1.61Z"/>
    <path class="st46" d="M130.54,188.39c-.05-1.04-.08-2.07-.06-3.11.08.69.25,2.06.33,2.74.76,1.28,2.39,1.14,3.58,1.72.02.49.04,1.47.05,1.96,2.75,2.43,7.07,1.78,10.55,2.09,24.02.07,48.05.06,72.08.04,2.18.07,4.19-.86,6.25-1.44,1.53-1.77,3.21-3.41,4.75-5.16.06,2.88-1.47,5.46-4.13,6.66-2.38,1.67-5.29.04-7.9.21-22.31-.02-44.62.08-66.93-.03-.04.4-.12,1.2-.16,1.6l-.02-1.67c-1.68.19-5.09-.88-5.36,1.65-.7-2.07-3.11-1.68-4.75-1.11-2.51.92-5.25-1.63-5.02-4.15-1.07-.7-2.16-1.35-3.26-2h0Z"/>
    <path class="st25" d="M616.03,226.84c1.53-.84,3.02-2.18,4.9-1.64.42,1.54-1.23,1.75-2.18,2.37-.61,1.49-1.67,2.5-3.33,2.62.2-1.12.4-2.24.61-3.35h0Z"/>
    <path class="st25" d="M711.53,227.4c.43-2.61,3.64-1.7,5.49-1.87,7.28.36,14.65-.58,21.87.28.27.29.8.88,1.07,1.17.06,4.58.62,9.35-.38,13.83-5.13,2.13-11.15-.2-16.48,1.14-2.78,1.34-5.4,2.99-8.13,4.42.26-1.52.53-3.03.81-4.54-1.49-.25-4.04-.09-4.25-2.17-.19-4.08-.12-8.18,0-12.26M713.22,227.28c-.08,4.15-.03,8.31.12,12.46,1.56.06,3.13.11,4.72.16-.13.74-.37,2.22-.49,2.96,1.79-.99,3.53-2.14,5.46-2.88,4.98-.45,10,.14,14.99-.24.97-3.91.09-8.31.33-12.4-8.38-.17-16.76-.15-25.13-.06h0Z"/>
    <path class="st25" d="M624.67,241.68c.63-.26,1.89-.76,2.52-1.02-.3,1.13-.6,2.27-.89,3.4-1.21.75-2.41,1.51-3.6,2.27-.51-.53-.99-1.08-1.46-1.63.6-.25,1.79-.77,2.38-1.03.26-.5.79-1.49,1.05-1.99h0Z"/>
    <path class="st25" d="M407.15,312.35h2.05c-.13,4.56.13,9.13-.19,13.68-.32.58-.95,1.73-1.26,2.3-1.01-5.27-.41-10.65-.6-15.98h0Z"/>
  </g>
  <g id="_x23_a9bdddff">
    <path class="st0" d="M603.59,184.86c.88,5.03-3.36,10.48-8.57,10.31-29.01.06-58.02.09-87.04.05-4.1.25-8.47-2.06-8.93-6.47,2.13,2.17,4.57,4.63,7.9,4.36,29.36-.03,58.74-.06,88.11.07,4.5-.16,7.45-4.33,8.53-8.32h0Z"/>
  </g>
  <g id="_x23_a8bcddff">
    <path class="st32" d="M343.97,193.22c4.17.35,7.11-3.06,9.06-6.28.21,5.02-4.53,8.05-9.04,8.4-30.33-.39-60.69.06-91.03-.26-3.67-.1-8.83-1.79-9.03-6.11,2.27,1.98,4.78,4.26,8.02,4.1,30.67.19,61.35-.23,92.02.15Z"/>
  </g>
  <g id="_x23_a7bbdcff">
    <path class="st48" d="M377.93,188.85c2.21,2.15,4.68,4.69,8.06,4.37,28.38-.08,56.76-.28,85.14.03-1.78,1.89-4.53,1.51-6.86,1.61-19.09.58-38.2.05-57.29.34-7.86-1.38-15.79.54-23.65-.55-2.61-.94-4.86-2.99-5.4-5.8h0Z"/>
  </g>
  <g id="_x23_131211ff">
    <path class="st31" d="M37.35,218.35c.84-1.74,2.95-2.08,4.68-2.03,15.21,0,30.43.07,45.64,0,4.49,4.53,9.09,8.96,13.43,13.64.11,22.34.01,44.68.08,67.02.14,1.86-.33,4.11-2.28,4.84-1.7.25-3.42.18-5.13.22.07,2.72.31,5.76-2.28,7.47.36-6.23.43-12.47.3-18.71-.16-17.5-.01-35.01-.07-52.51-3.92-.05-7.84-.03-11.76-.18,2.27,2.73,6.36,4.87,6.2,8.86.06,13.92-.07,27.84.03,41.77-.5,0-1.5,0-2,.02.07-14.32-.11-28.63.04-42.94-3.4,0-6.82.21-10.21-.12-1.42-.07-2.57-1.33-2.56-2.74-.25-3.39-.07-6.78-.08-10.17-15.74.12-31.48-.12-47.22.13-.38,23.72-.04,47.46-.15,71.18-.02,3.29-.24,6.6.19,9.87,2.04,1.24,4.57.55,6.82.72,17.68-.45,35.4.5,53.06-.45.04-1.47.07-2.93.11-4.39.51.01,1.54.02,2.05.02-.2,2.02.42,4.56-1.41,6.01-1.47.82-3.21.58-4.82.67-17.99-.02-35.99.02-53.98,0-1.92.11-4.05-1.4-3.94-3.45-.13-25.72.04-51.45-.07-77.17.1-1.33-.2-2.93.95-3.91,1.76-1.83,4.61-.95,6.88-1.21.12-1.85.08-3.72.5-5.52,1.45-2.27,4.34-1.5,6.59-1.66.13-1.76.09-3.54.41-5.28M39.09,218.84c.02,1.58.05,3.17.08,4.75,13.61.03,27.24-.13,40.85.07,2.66,1.45,4.51,4.05,6.56,6.23-.54-3.82-.3-7.69-.3-11.54-14.45,0-28.9.06-43.35.04-1.29,0-2.57.21-3.84.45M88.31,219.87c.05,2.88-.2,5.78.14,8.65,2.71,1.14,6.05.27,9,.5-3.06-3.04-6.02-6.17-9.14-9.15M32.04,225.78c-.05,1.68-.08,3.37-.11,5.06,13.66,0,27.32-.14,40.98.08,2.13,2.17,4.31,4.29,6.38,6.52-.28-3.91-.18-7.84-.18-11.76-15.69.09-31.39-.18-47.07.1M81.14,227.06c.01,2.86-.19,5.76.23,8.61,2.66,1.22,5.92.26,8.79.54-2.96-3.09-5.98-6.13-9.02-9.15M88.03,231.21c2,1.9,3.92,3.89,5.76,5.95-.1,20.96-.06,41.92-.01,62.88,1.63-.12,3.3-.02,4.9-.42.79-1.37.37-3.09.51-4.6-.15-21.32-.07-42.65-.06-63.97-3.7.06-7.4.05-11.1.16M73.44,234.68c-.02,2.96-.15,5.94.16,8.9,3.03.39,6.1.21,9.16.23-3.12-3.03-5.96-6.36-9.32-9.13h0Z"/>
    <path class="st31" d="M31.28,254.31c15.21-.2,30.46-.2,45.67-.02l.73.72-.29,1.03c-15.66.34-31.34.25-47.01.05.23-.44.68-1.33.9-1.78Z"/>
  </g>
  <g id="_x23_fee3cbff">
    <path class="st14" d="M122.3,228.97c-.57-6.58,4.81-13.4,11.68-13.08,210.65-.05,421.31,0,631.96-.02,5-.4,10.12,2.59,11.64,7.47,1.06,4.15.6,8.47.66,12.7.02,14.67-.09,29.34.02,44.01-2.61.01-5.21.01-7.81.11.56-6.39.49-12.84.23-19.24-.05-5.01-4.71-9.46-9.76-9.1-23.31-.08-46.63,0-69.95-.03-5.63-.49-10.15,4.8-10.19,10.16-.12,10.35-.17,20.71-.04,31.07,0,4.93-.41,10.02,1.26,14.75.89,4.5,5.99,6.07,10.02,5.91,10.86-.27,21.69.54,32.54.68-.81,1.97-1.74,3.88-2.7,5.78.74-.13,2.23-.4,2.97-.53-.01,2.07-.01,4.15-.01,6.23-18.61.14-37.25-.22-55.85.12-.53.33-1.59.98-2.11,1.3,3.69.58,7.44.41,11.17.42,16.21-.02,32.42.01,48.63-.02.01-2.67.01-5.35.01-8.02.78.1,2.33.3,3.11.4-.84-1.72-1.68-3.45-2.5-5.17,9.49-1.43,19.14-.31,28.69-1.1,4.53-.25,11.48.44,13.09-5.08,1.72-3.63,2.17-7.7,2.14-11.68-.05-5.07.33-10.19-.67-15.19,2.56.11,5.14.11,7.72.12-.09,15.67.1,31.33-.04,47,.06,5.82-5.36,10.99-11.17,10.72-211.02-.03-422.06-.02-633.08,0-6.22.24-11.82-5.42-11.62-11.62-.04-14.22.07-28.45,0-42.67.39-.22,1.17-.67,1.56-.89,1.87-1.06,3.79-2.03,5.8-2.79,1.88,7.51.22,15.3,1.03,22.92.57,3.92,3.98,6.43,7.39,7.86,1.22.53,2.42,1.28,3.8,1.28,6.69.2,13.39.52,20.09.14,17.67-.34,35.34.02,53.01-.05,1.39-.05,2.79-.16,4.16-.39.42-.24,1.26-.74,1.68-.99,1.94-1.14,4.22-2.02,5.48-4,1.74-2.43,1.91-5.52,1.98-8.4.09-6.06,0-12.12-.1-18.18,2.39.03,4.78.05,7.18.08-.32,1.04-.63,2.08-.94,3.13,2.65-1.24,5.28-2.52,7.91-3.78.39,7.22.08,14.45.19,21.68-.13,4.21,3.22,7.5,6.71,9.33,3.15,2.14,7.15,1.38,10.74,1.55,22.68-.21,45.36.1,68.03-.03,1.76.04,3.37-.71,4.95-1.39.22-.1.65-.28.87-.38,3.4-1.79,5.88-5.13,6.14-9.03.53-7.05.23-14.14-.03-21.19,4.83.08,9.67.1,14.51.07-.31,1.07-.62,2.14-.93,3.21,2.44-1.31,4.91-2.56,7.49-3.58,1.33,7.58-.1,15.33.84,22.95.83,4.62,5.35,8.36,10.1,7.97,11.73-.06,23.45.08,35.18-.12.19,5.33-.41,10.71.6,15.98.31-.57.94-1.72,1.26-2.3.32-4.55.06-9.12.19-13.68,11.59.18,23.19.09,34.79.1,5.14.28,10.64-3.98,10.45-9.36.09-7.08-.06-14.15.01-21.23,2.31.05,4.62.08,6.94.11-.28,1.08-.56,2.15-.84,3.23,2.69-1.3,5.37-2.62,8.05-3.96.26,8.52-.63,17.11.58,25.6-.26,4.66,4.7,7.16,8.78,6.84,14.96,1.62,29.96-.59,44.94.17,8.68.58,17.39.56,26.08.21,3.54-.42,8.22-.45,10.05-4.15,1.52-2.37,2.79-5.02,2.71-7.9.1-6.7-.09-13.41-.06-20.1,2.45,0,4.9,0,7.36-.01-.29.81-.88,2.44-1.17,3.25,2.29-1.15,4.61-2.26,7.04-3.1v-2.12c-2.39-.83-4.68-1.89-6.94-2.98.34,1.04.68,2.09,1.03,3.13-2.44.02-4.89.04-7.32.06-.09-6.39.21-12.8-.08-19.18-.1-4.98-4.56-9.39-9.59-9.15-22.68-.07-45.36.03-68.04-.06-3.8.07-8.08-.55-11.3,1.95-3.01,2.03-4.1,5.82-4.02,9.3,0,5.99-.05,11.99-.05,17.99-2.63-1.49-5.35-2.81-8.03-4.2.21.82.63,2.45.84,3.26h-6.93c.07-6,.05-11.99-.07-17.98.04-3.42-1.42-6.99-4.41-8.82-3.3-2.04-7.36-1.38-11.03-1.49-9.94.26-19.9-.33-29.82.24.03-5.28-.09-10.55-.03-15.83,10.75-.04,21.49-.06,32.24-.03-.28,1.03-.56,2.07-.84,3.11,2.53-1.21,5.11-2.33,7.53-3.74-1.4-2.58-5.22-2.9-7.62-4.4.29.79.87,2.35,1.16,3.13-11.45.13-22.91.05-34.36.04.09,5.84-.02,11.68.09,17.52-11.76-.02-23.53-.02-35.3-.02-4.27-.34-8.43,2.37-9.66,6.49-1.98,7.16.41,14.75-1.55,21.92-2.46-1-4.86-2.14-7.29-3.2.23.76.68,2.29.9,3.06-4.82.01-9.64.04-14.46.09.2-6.72.7-13.5-.19-20.19-.51-4.76-5-8.41-9.75-8.13-25.68-.07-51.36-.02-77.03-.03-5.2-.43-10.4,3.89-10.39,9.2-.16,6.59.11,13.19-.25,19.78-2.58-1.37-5.23-2.62-7.87-3.87.22.79.66,2.38.88,3.18-2.38.01-4.76.04-7.14.07-.04-6.39.32-12.79-.09-19.17-.19-4.01-2.95-8.04-7.01-8.89-3.33-.56-6.73-.28-10.08-.31-23.34.04-46.68-.02-70.02.02-4.73-.35-9.52,2.88-10.26,7.69-.81,6.9.67,13.93-.93,20.77-2.55-.87-4.97-2.07-7.33-3.37-.4-15.97.06-31.95-.19-47.92M450.87,224.98c-.63,2.21,1.17,3.66,2.75,4.76.3,4.47-1.24,9.85,2.16,13.48,2.07,2.45,5.45,2.46,8.39,2.52,1.18,1.44,2.78,3.22,4.89,2.47,3.63-.48,4.03-5.98.85-7.39-2.49-1.32-4.69.88-5.91,2.82-2.32-.15-5.06-.04-6.68-2.02-1.43-1.42-1.14-3.58-1.43-5.4,2.73-.09,5.5.1,8.2-.44,2.66-.83,4.15-3.26,5.37-5.59,1.39-1.66,3.63-3.61,2.3-6.03-1.15-3.2-6.22-2.96-7.15.28-1.21,2.37.97,4.21,2.53,5.62-1.12,1.49-2.11,3.43-4.1,3.83-2.35.35-4.72.18-7.08.16,0-1.4-.02-2.79-.02-4.19,1.49-1.37,3.47-3.19,2.44-5.43-.98-3.76-7.04-3.22-7.51.55M512.13,224.28c-1.77.38-1.76,2.45-1.5,3.85,4.3-1.02,8.86-2.32,13.24-.88,2.56.82,2.91,4.76.84,6.27-2.08,1.08-4.54,1.31-6.48,2.66-1.59,1.43-1,3.78-1.25,5.66.67.04,2.03.13,2.7.17.46-1.22.2-2.99,1.48-3.75,2.37-.87,5.2-1.11,6.95-3.16,2.7-3.3,1.63-9.06-2.44-10.75-4.27-1.8-9.19-1.37-13.54-.07M616.03,226.84c-.21,1.11-.41,2.23-.61,3.35,1.66-.12,2.72-1.13,3.33-2.62.95-.62,2.6-.83,2.18-2.37-1.88-.54-3.37.8-4.9,1.64M624.56,226.59c-1.87,2.05-2.19,4.95-2.65,7.58,1.5.17,2.99.31,4.52.46.13,1.43-.04,2.95.64,4.28,1.81-.69,2.11-3.02,3.51-4.22,1.18-.33,2.39-.54,3.64-.63.02-2.24.02-4.47.04-6.7-3.26.06-6.53-2-9.7-.77M711.53,227.4c-.12,4.08-.19,8.18,0,12.26.21,2.08,2.76,1.92,4.25,2.17-.28,1.51-.55,3.02-.81,4.54,2.73-1.43,5.35-3.08,8.13-4.42,5.33-1.34,11.35.99,16.48-1.14,1-4.48.44-9.25.38-13.83-.27-.29-.8-.88-1.07-1.17-7.22-.86-14.59.08-21.87-.28-1.85.17-5.06-.74-5.49,1.87M500.63,231.06c.29,1.06.59,2.13.9,3.2-8.14.02-16.28.08-24.41-.04-.02.48-.04,1.44-.06,1.92,8.13,0,16.26-.03,24.39,0-.29,1-.58,2-.87,3.01,2.82-1.23,5.58-2.6,8.31-4.01-2.72-1.44-5.46-2.85-8.26-4.08M614.27,232.3c-1.49,2.27-2.95,5.11-6.21,4.46-.03,2.15-.09,4.3-.13,6.46,3.53.35,7.07,2.07,10.62.85.88-2.41,1.61-4.86,2.17-7.36-1.64-.27-3.29-.45-4.93-.62.06-1.39.1-2.77.15-4.15-.42.09-1.25.27-1.67.36M624.67,241.68c-.26.5-.79,1.49-1.05,1.99-.59.26-1.78.78-2.38,1.03.47.55.95,1.1,1.46,1.63,1.19-.76,2.39-1.52,3.6-2.27.29-1.13.59-2.27.89-3.4-.63.26-1.89.76-2.52,1.02M516.83,243.97c.01,1.29.08,2.58.22,3.87,1.53.1,3.85.13,3.81-2-.01-2.31-2.44-2.09-4.03-1.87M575.77,262.97c.13,13-.07,26.01.12,39.01-.02,4.44,2.5,8.7,6.77,10.23,2.63,2.92,6.95,1.15,10.37,1.49,6.36-.55,12.66,1.03,19.01.52,6.29-.41,12.59.19,18.87-.37,9.33-.61,18.7.47,28.01-.26,2.39-.64,6.17-1.75,5.76-4.9,1.29-1.95,1.91-4.27,1.88-6.6.08-6.73.03-13.47-.02-20.2,2.45.02,4.92.03,7.38.03-.27.82-.82,2.46-1.1,3.29,2.38-1.42,5.51-2.15,7.36-4.21-1.86-1.96-5-2.64-7.33-4.06.23.79.7,2.36.94,3.15-2.43.01-4.84.01-7.25.02-.02-6.35.24-12.71-.08-19.05-.21-4.93-4.48-9.36-9.51-9.23-23.61-.09-47.22-.03-70.82-.03-5.81-.26-10.8,5.51-10.36,11.17Z"/>
    <path class="st14" d="M453.65,224.55c1.26-1.58,3.65.93,2.19,2.31-1.33,1.44-4.14-1.04-2.19-2.31Z"/>
    <path class="st14" d="M467.22,224.38c1.83-1.41,3.76,1.85,1.78,2.7-1.67,1.1-3.58-1.56-1.78-2.7Z"/>
    <path class="st14" d="M713.22,227.28c8.37-.09,16.75-.11,25.13.06-.24,4.09.64,8.49-.33,12.4-4.99.38-10.01-.21-14.99.24-1.93.74-3.67,1.89-5.46,2.88.12-.74.36-2.22.49-2.96-1.59-.05-3.16-.1-4.72-.16-.15-4.15-.2-8.31-.12-12.46h0Z"/>
    <path class="st14" d="M466.88,242.86c1.85-.48,4.35,1.46,2.21,2.94-2.02,1.39-2.73-1.56-2.21-2.94Z"/>
  </g>
  <g id="_x23_e9e8e8ff">
    <path class="st62" d="M73.44,234.68c3.36,2.77,6.2,6.1,9.32,9.13-3.06-.02-6.13.16-9.16-.23-.31-2.96-.18-5.94-.16-8.9h0Z"/>
  </g>
  <g id="_x23_c17d3aff">
    <path class="st19" d="M130.75,259.49c.74-4.81,5.53-8.04,10.26-7.69,23.34-.04,46.68.02,70.02-.02,3.35.03,6.75-.25,10.08.31,4.06.85,6.82,4.88,7.01,8.89.41,6.38.05,12.78.09,19.17v1.73c.1,6.06.19,12.12.1,18.18-.07,2.88-.24,5.97-1.98,8.4-1.26,1.98-3.54,2.86-5.48,4-21.59-.66-43.2-.1-64.8-.29-5.98.03-11.97-.18-17.94.3-3.41-1.43-6.82-3.94-7.39-7.86-.81-7.62.85-15.41-1.03-22.92.03-.36.1-1.07.13-1.43,1.6-6.84.12-13.87.93-20.77M137.34,253.48c-3.08,1.11-5.52,4.16-5.44,7.52-.11,13.32.09,26.65-.17,39.98-.2,3.42,1.38,7.11,4.5,8.75,2.33,1.44,5.17,1.01,7.77,1.1,22.32-.07,44.64,0,66.96-.03,3.2-.06,6.43.23,9.61-.25,3.64-1,6.42-4.67,6.3-8.47-.04-13.72.14-27.45-.06-41.16.05-4.12-3.62-7.9-7.75-7.81-26.03-.07-52.05.03-78.08-.06-1.24-.04-2.45.1-3.64.43h0Z"/>
    <path class="st19" d="M242.59,260.99c0-5.31,5.19-9.63,10.39-9.2,25.67,0,51.35-.04,77.03.03,4.75-.28,9.24,3.37,9.75,8.13.89,6.69.39,13.47.19,20.19v1.71c.26,7.05.56,14.14.03,21.19-.26,3.9-2.74,7.24-6.14,9.03-.22.1-.65.28-.87.38-8.62-.57-17.27-.18-25.9-.28-19.28.1-38.55-.18-57.82.15-3.49-1.83-6.84-5.12-6.71-9.33-.11-7.23.2-14.46-.19-21.68,0-.13,0-.4-.02-.54.36-6.59.09-13.19.25-19.78M250.14,253.27c-3.79.99-6.58,4.72-6.26,8.66.02,13.37-.14,26.75,0,40.12-.2,4.41,3.5,8.9,8.07,8.76,26.04-.02,52.09-.03,78.13.01,4.76.34,8.7-4.13,8.52-8.74.02-13.67.09-27.35-.04-41.02.02-4.91-4.86-8.67-9.61-8.01-26.26.19-52.56-.22-78.8.22h0Z"/>
    <path class="st19" d="M362.35,258.27c1.23-4.12,5.39-6.83,9.66-6.49,11.77,0,23.54,0,35.3.02l.02,1.04c-12.14.59-24.31-.06-36.46.32-4.12.07-7.9,3.63-7.75,7.86-.15,12.67.09,25.35-.28,38.03.04,2.57-.06,5.33,1.28,7.64,1.58,2.72,4.72,4.34,7.85,4.15,24.35-.06,48.7,0,73.04-.05,4.2.07,7.94-3.58,7.95-7.78.52-12.65.02-25.32.23-37.98-.09-2.48.15-5.11-.89-7.42-1.43-2.57-4.2-4.52-7.21-4.47-12.33-.37-24.69.36-37.02-.36l1.07-.78c9.92-.57,19.88.02,29.82-.24,3.67.11,7.73-.55,11.03,1.49,2.99,1.83,4.45,5.4,4.41,8.82.12,5.99.14,11.98.07,17.98,0,.45-.02,1.36-.02,1.81-.07,7.08.08,14.15-.01,21.23.19,5.38-5.31,9.64-10.45,9.36-11.6-.01-23.2.08-34.79-.1h-2.05c-11.73.2-23.45.06-35.18.12-4.75.39-9.27-3.35-10.1-7.97-.94-7.62.49-15.37-.84-22.95-.05-.34-.17-1.02-.23-1.36,1.96-7.17-.43-14.76,1.55-21.92h0Z"/>
    <path class="st19" d="M472.66,253.7c3.22-2.5,7.5-1.88,11.3-1.95,22.68.09,45.36,0,68.04.06,5.03-.24,9.49,4.17,9.59,9.15.29,6.38-.01,12.79.08,19.18-.01.59,0,1.17.01,1.77-.03,6.69.16,13.4.06,20.1.08,2.88-1.19,5.53-2.71,7.9-3.7,1.97-7.94,2.4-12.06,2.31-23.02-.09-46.05.09-69.06-.12-3.78.24-6.7-2.4-8.73-5.26-1.21-8.49-.32-17.08-.58-25.6v-.25c-.01-6,.04-12,.04-17.99-.08-3.48,1.01-7.27,4.02-9.3M476.26,253.37c-3.69,1.01-6.42,4.75-6.18,8.59,0,13.35.01,26.7-.02,40.06-.49,4.83,4.13,9.2,8.9,8.8,24.36.03,48.73-.04,73.09,0,4.7.22,8.63-4.28,8.33-8.88-.02-13.62.14-27.26-.05-40.88.05-4.36-3.94-8.26-8.32-7.99-12.33-.08-24.67.08-37,0-12.91.23-25.87-.46-38.75.28v.02Z"/>
    <path class="st19" d="M575.77,262.97c-.44-5.66,4.55-11.43,10.36-11.17,23.6,0,47.21-.06,70.82.03,5.03-.13,9.3,4.3,9.51,9.23.32,6.34.06,12.7.08,19.05v1.78c.05,6.73.1,13.47.02,20.2.03,2.33-.59,4.65-1.88,6.6-2.4,2.18-5.42,3.73-8.74,3.5-24.43.03-48.86-.09-73.28.02-4.27-1.53-6.79-5.79-6.77-10.23-.19-13,.01-26.01-.12-39.01M583.33,253.4c-3.67,1.06-6.08,4.79-5.94,8.55-.21,10,.16,20.02-.1,30.02.06,4.2-.4,8.43.23,12.6,1.09,3.56,4.67,6.46,8.5,6.22,22.98.07,45.96-.06,68.95.03,1.94-.05,4.07.07,5.77-1.08,3.14-1.65,4.66-5.31,4.41-8.75-.06-13.35.08-26.71-.13-40.05.06-4.25-3.71-7.99-7.96-7.85h-65.02c-2.9.07-5.85-.28-8.71.32h0Z"/>
    <path class="st19" d="M680.78,261.95c.04-5.36,4.56-10.65,10.19-10.16,23.32.02,46.64-.05,69.95.03,5.05-.36,9.71,4.09,9.76,9.1.26,6.4.33,12.85-.23,19.24l-.78.74c-.41-6.6-.06-13.22-.29-19.82-.05-4.33-3.88-8.25-8.28-8.01-22.38-.06-44.76.09-67.14-.05-3.01.02-6.44-.2-8.79,2.06-2.71,2.09-3.08,5.71-3.03,8.88-.01,12.7.06,25.4.02,38.1-.38,4.77,3.94,9.2,8.74,8.82,23.03-.14,46.07-.01,69.1-.04,4.36.37,8.99-2.67,9.33-7.25.41-7.52-.19-15.06.34-22.57l.86.8c1,5,.62,10.12.67,15.19.03,3.98-.42,8.05-2.14,11.68-2.36,1.77-4.96,3.54-8.04,3.43-11.7.2-23.4-.05-35.1.1h-.52c-11.45-.06-22.9.05-34.34-.08-3.62.21-6.6-1.99-9.06-4.37-1.67-4.73-1.26-9.82-1.26-14.75-.13-10.36-.08-20.72.04-31.07h0Z"/>
  </g>
  <g id="_x23_f4f5f1ff">
    <path class="st53" d="M476.26,253.37c12.88-.74,25.84-.05,38.75-.28,12.33.07,24.67-.09,37,0,4.38-.27,8.37,3.63,8.32,7.99.19,13.62.03,27.26.05,40.88.3,4.6-3.63,9.1-8.33,8.88-24.36-.05-48.73.02-73.09,0-4.77.4-9.39-3.97-8.9-8.8.03-13.36.02-26.71.02-40.06-.24-3.84,2.49-7.58,6.18-8.59v-.02Z"/>
    <path class="st53" d="M61.61,294.61c2.43.09,6.8-1.11,7.1,2.48.39,3.02-3.07,3.52-5.31,3.42,0,1.12.02,2.25.04,3.39l-1.75-.04c-.04-3.08-.07-6.17-.08-9.25M63.28,298.87c1.22-.09,2.43-.18,3.65-.27-.12-1.36-.14-2.94-1.98-2.87-1.95-.02-1.49,1.85-1.67,3.14h0Z"/>
    <path class="st53" d="M80.31,294.58c2.26.4,5.44-1.05,7.06,1.05-1.84.13-3.68.18-5.52.23-.01.62-.02,1.85-.03,2.47,1.66.27,4.05-.69,4.85,1.37-1.51.07-3.02.13-4.53.18,0,1.33,0,2.65.01,3.99-.48,0-1.44.01-1.92.01.05-3.1.05-6.2.08-9.3Z"/>
  </g>
  <g id="_x23_100f0fff">
    <path class="st15" d="M460.56,276.79c2.68,1.39,5.4,2.71,8.03,4.2v.25c-2.67,1.34-5.35,2.66-8.04,3.96.28-1.08.56-2.15.84-3.23-2.32-.03-4.63-.06-6.94-.11,0-.45.02-1.36.02-1.81h6.93c-.21-.81-.63-2.44-.84-3.26h0Z"/>
    <path class="st15" d="M31.21,283.34c15.21-.18,30.45-.21,45.66.01,2.68,1.55-1.58,2.3-2.85,1.99-14.54-.16-29.08.18-43.62-.14.2-.47.6-1.4.81-1.86Z"/>
    <path class="st15" d="M610.14,352.96c7.34-.16,14.68-.04,22.02-.1.05,8.85-.19,17.71.06,26.56-7.34.27-14.69.05-22.04.12-.13-8.86.02-17.72-.04-26.58M611.7,354.56c.09,7.77.08,15.54.06,23.31,6.26,0,12.52.02,18.78-.07.11-7.75-.03-15.5,0-23.25-6.28.04-12.56,0-18.84.01Z"/>
    <path class="st15" d="M235.08,404.57c2.5,1.31,5.03,2.56,7.52,3.89v.17c-2.78,1.22-5.53,2.5-8.26,3.82.24-.79.73-2.37.97-3.15-2.48-.04-4.96-.07-7.44-.08l-.06-1.69c2.39,0,4.77.02,7.16.06.03-.76.08-2.27.11-3.02h0Z"/>
  </g>
  <g id="_x23_ebebecff">
    <path class="st2" d="M800.76,277.42c26.52-.03,53.05-.04,79.58-.01-.16,12.34-.04,24.68,0,37.02-8.6.01-17.22.8-25.57,2.87-9.25,1.98-18.16,5.49-27.62,6.44-8.87.84-17.72-.86-26.34-2.81.08-14.5-.06-29.01-.06-43.51h.01Z"/>
  </g>
  <g id="_x23_7b7a77ff">
    <path class="st61" d="M786.28,279.22q.37.36,0,0Z"/>
  </g>
  <g id="_x23_909499ff">
    <path class="st40" d="M786.23,282.37q.37.38,0,0Z"/>
  </g>
  <g id="_x23_c6180bff">
    <path class="st47" d="M57.18,289.16c8.9-1.17,18.02.06,27.01-.41.5-.01,1.5-.02,2-.02,2.13-.07,4.44-.03,5.6,2.06.13,6.24.06,12.48-.3,18.71-1.75.19-3.49.36-5.25.36-.51,0-1.54,0-2.05-.02-8.38-.16-16.78.16-25.15-.12-3.81-.27-2.71-5.12-2.88-7.71.51-4.21-1.1-9.04,1.02-12.85M61.61,294.61c0,3.08.04,6.17.08,9.25l1.75.04c-.02-1.14-.03-2.27-.04-3.39,2.24.1,5.7-.4,5.31-3.42-.3-3.59-4.67-2.39-7.1-2.48M80.31,294.58c-.03,3.1-.03,6.2-.08,9.3.48,0,1.44-.01,1.92-.01-.01-1.34-.01-2.66-.01-3.99,1.51-.05,3.02-.11,4.53-.18-.8-2.06-3.19-1.1-4.85-1.37.01-.62.02-1.85.03-2.47,1.84-.05,3.68-.1,5.52-.23-1.62-2.1-4.8-.65-7.06-1.05M70.49,294.44c0,3.21.02,6.41.03,9.62,1.8-.03,3.62.14,5.4-.2,2.86-1.17,3.16-5.15,1.83-7.56-1.44-2.61-4.85-1.62-7.26-1.86Z"/>
    <path class="st47" d="M63.28,298.87c.18-1.29-.28-3.16,1.67-3.14,1.84-.07,1.86,1.51,1.98,2.87-1.22.09-2.43.18-3.65.27h0Z"/>
    <path class="st47" d="M72.25,295.91c1.27.23,2.96-.23,3.79,1.06.89,1.6.25,3.49.15,5.2-1.26.15-2.52.31-3.77.46-.08-2.25-.13-4.49-.17-6.72Z"/>
  </g>
  <g id="_x23_e8d6c6ff">
    <path class="st28" d="M70.49,294.44c2.41.24,5.82-.75,7.26,1.86,1.33,2.41,1.03,6.39-1.83,7.56-1.78.34-3.6.17-5.4.2,0-3.21-.03-6.41-.03-9.62M72.25,295.91c.04,2.23.09,4.47.17,6.72,1.25-.15,2.51-.31,3.77-.46.1-1.71.74-3.6-.15-5.2-.83-1.29-2.52-.83-3.79-1.06Z"/>
  </g>
  <g id="_x23_e3c3a1ff">
    <path class="st56" d="M469.18,306.84c2.03,2.86,4.95,5.5,8.73,5.26,23.01.21,46.04.03,69.06.12,4.12.09,8.36-.34,12.06-2.31-1.83,3.7-6.51,3.73-10.05,4.15-8.69.35-17.4.37-26.08-.21-14.98-.76-29.98,1.45-44.94-.17-4.08.32-9.04-2.18-8.78-6.84h0Z"/>
  </g>
  <g id="_x23_e2c2a0ff">
    <path class="st13" d="M682,307.77c2.46,2.38,5.44,4.58,9.06,4.37,11.44.13,22.89.02,34.34.07-.21.54-.63,1.61-.84,2.15-10.85-.14-21.68-.95-32.54-.68-4.03.16-9.13-1.41-10.02-5.91Z"/>
  </g>
  <g id="_x23_e3c2a0ff">
    <path class="st39" d="M655.94,312.19c3.32.23,6.34-1.32,8.74-3.5.41,3.15-3.37,4.26-5.76,4.9-9.31.73-18.68-.35-28.01.26-6.28.56-12.58-.04-18.87.37-6.35.51-12.65-1.07-19.01-.52-3.42-.34-7.74,1.43-10.37-1.49,24.42-.11,48.85.01,73.28-.02h0Z"/>
  </g>
  <g id="_x23_e0c19fff">
    <path class="st35" d="M761.02,312.12c3.08.11,5.68-1.66,8.04-3.43-1.61,5.52-8.56,4.83-13.09,5.08-9.55.79-19.2-.33-28.69,1.1-.44-.9-.89-1.79-1.36-2.65,11.7-.15,23.4.1,35.1-.1h0Z"/>
  </g>
  <g id="_x23_e1c09eff">
    <path class="st30" d="M138.11,312.47c5.97-.48,11.96-.27,17.94-.3,21.6.19,43.21-.37,64.8.29-.42.25-1.26.75-1.68.99-1.37.23-2.77.34-4.16.39-17.67.07-35.34-.29-53.01.05-6.7.38-13.4.06-20.09-.14-1.38,0-2.58-.75-3.8-1.28h0Z"/>
    <path class="st30" d="M249.26,312.32c19.27-.33,38.54-.05,57.82-.15,8.63.1,17.28-.29,25.9.28-1.58.68-3.19,1.43-4.95,1.39-22.67.13-45.35-.18-68.03.03-3.59-.17-7.59.59-10.74-1.55h0Z"/>
  </g>
  <g id="_x23_d7e6d4ff">
    <path class="st5" d="M126.88,349.83c4.31-3.32,10.08-2.33,15.14-2.47,205.68.03,411.37-.02,617.06,0,5.45.08,11.91-.88,16.14,3.44,3.22,2.76,3.2,7.31,3.18,11.21-.3,15.16.25,30.32-.2,45.48-2.53.04-5.05.1-7.57.07-.18-5.54.08-11.09-.1-16.63-.14-4.39-3.86-8.86-8.49-8.63-24.02-.09-48.06-.05-72.08-.03-4.76-.44-8.76,4.12-8.79,8.67-.19,5.81.14,11.64-.43,17.44-2.63-1.42-5.32-2.7-7.99-4.03.33,1.05.67,2.11,1.02,3.16-2.54.02-5.08.05-7.6.1-.05-5.85.59-11.74-.15-17.56-.52-4.43-4.48-8.19-9.06-7.83-23.98.04-47.98,0-71.96.05-4.73-.39-8.5,4.17-8.58,8.63-.3,5.85,0,11.72-.21,17.57-2.66-1.46-5.4-2.78-8.08-4.18.17.81.52,2.42.69,3.23-2.46.01-4.91.03-7.35.04,0-5.48.31-10.96,0-16.43-.28-4.38-3.68-8.95-8.4-8.81-24.35-.23-48.71.11-73.06-.17-5.86-1.06-11.51,3.87-11.09,9.84-.22,5.5-.01,11-.17,16.5-2.71-1.51-5.48-2.88-8.24-4.28.34,1.08.7,2.18,1.06,3.27-2.47.04-4.92.06-7.38.07-.1-5.85.4-11.74-.23-17.57-.46-4.42-4.52-7.97-8.96-7.91-24.65.37-49.33.1-73.99.22-4.74-.24-8.93,4.03-9.01,8.7-.4,5.8-.05,11.62-.22,17.43-2.66-1.51-5.4-2.85-8.12-4.22.31,1.1.63,2.2.94,3.31-4.95.05-9.91.08-14.86.02-.07-5.51.12-11.03-.11-16.53-.08-4.53-3.92-8.94-8.65-8.69-26.34-.11-52.68-.03-79.02-.04-4.51-.41-8.46,3.34-9.02,7.68-.8,6.13-.14,12.35-.33,18.51-2.49-1.33-5.02-2.58-7.52-3.89-.03.75-.08,2.26-.11,3.02-2.39-.04-4.77-.06-7.16-.06-.42-6.37,1.06-12.85-.42-19.14-1.27-3.4-4.61-6.35-8.41-6.09-26.01-.1-52.02.01-78.03-.05-5.19-.8-9.86,3.7-10.18,8.74-.26,5.78,0,11.58-.12,17.37-2.65-1.52-5.39-2.85-8.11-4.24-.51-14.38,0-28.79-.22-43.17-.22-4.15,1.23-8.49,4.56-11.12M610.14,352.96c.06,8.86-.09,17.72.04,26.58,7.35-.07,14.7.15,22.04-.12-.25-8.85,0-17.71-.06-26.56-7.34.06-14.68-.06-22.02.1M716.16,353.2c-.22.26-.65.76-.86,1.01-.28,7.25-.07,14.52-.12,21.78.1,1.22-.29,2.93,1.24,3.41,5.17.32,10.37.02,15.56.16,1.47-.13,4.01.37,4.32-1.71.21-5.94.04-11.89-.03-17.83-2.39-2.33-4.37-5.2-7.16-7.05-4.31-.06-8.66-.27-12.95.23M287.24,354.4c-4.4,1.64-7.97,5.76-8.35,10.53-.89,7.17,5.7,14.4,13.04,13.43,7.03-.14,12.62-7.57,11.14-14.37-1.13-7.01-9.04-12.1-15.83-9.59M404.29,354.38c-4.08,1.5-7.49,5.1-8.18,9.47-1.64,7.1,4.48,15.04,11.91,14.62,6.6.17,12.56-5.85,12.2-12.46.2-7.86-8.46-14.38-15.93-11.63M502.31,355.45c-1.29.57-1.09,2.33-1.2,3.49.03,5.61-.05,11.22.11,16.83.68,2,3.09,1.48,4.74,1.62,7.06-.18,14.13.16,21.19-.15,2.16-.06,1.86-2.81,1.98-4.29-.14-5.59.29-11.22-.26-16.79-2.04-2.05-5.28-1.07-7.86-1.3-6.21.39-12.62-.74-18.7.59h0Z"/>
  </g>
  <g id="_x23_558d41ff">
    <path class="st41" d="M287.24,354.4c6.79-2.51,14.7,2.58,15.83,9.59,1.48,6.8-4.11,14.23-11.14,14.37-7.34.97-13.93-6.26-13.04-13.43.38-4.77,3.95-8.89,8.35-10.53M295.84,361.77c-2.5,2.34-4.84,4.84-7.39,7.14-1.62-1.32-3.34-5.02-5.24-1.9,1.76,1.78,3.5,3.59,5.19,5.44,3.76-3.22,7.05-6.93,10.67-10.3-.99-.53-2.31-1.78-3.23-.38h0Z"/>
    <path class="st41" d="M404.29,354.38c7.47-2.75,16.13,3.77,15.93,11.63.36,6.61-5.6,12.63-12.2,12.46-7.43.42-13.55-7.52-11.91-14.62.69-4.37,4.1-7.97,8.18-9.47M405.73,368.82c-1.7-1.28-3.47-4.79-5.47-1.94,1.75,1.83,3.49,3.68,5.18,5.57,3.67-3.13,6.79-6.84,10.44-9.99-.58-.67-1.17-1.34-1.75-2-2.75,2.84-5.57,5.6-8.4,8.36Z"/>
    <path class="st41" d="M502.31,355.45c6.08-1.33,12.49-.2,18.7-.59,2.58.23,5.82-.75,7.86,1.3.55,5.57.12,11.2.26,16.79-.12,1.48.18,4.23-1.98,4.29-7.06.31-14.13-.03-21.19.15-1.65-.14-4.06.38-4.74-1.62-.16-5.61-.08-11.22-.11-16.83.11-1.16-.09-2.92,1.2-3.49M503.54,360.91c-.03,4.73-.13,9.47.11,14.21,5.22-.02,10.45,0,15.67-.01.02-4.71.02-9.43,0-14.14-5.27-.1-10.53-.08-15.78-.06M521.62,360.98c-.01,4.72-.02,9.44.04,14.15,1.72-.04,3.45-.08,5.17-.12.07-4.65.04-9.29.05-13.94-1.76-.03-3.51-.06-5.26-.09h0Z"/>
    <path class="st41" d="M623.04,361.61c1.53-1.61,2.11-4.98,4.53-5.27.77,3-2.51,5.31-3.9,7.72-1.03,1.94-2.22-1.23-2.6-1.99-1.22.13-2.44.27-3.64.41-.93.67-1.85,1.33-2.77,2-1.54-4.02,3.87-3.8,6.26-4.92.53.52,1.59,1.54,2.12,2.05Z"/>
    <path class="st41" d="M505.43,364.32c3.83.02,7.89-.92,11.55.59-2.68,3.29-7.64,1-11.31,1.5-.06-.52-.18-1.57-.24-2.09Z"/>
    <path class="st41" d="M505.56,369.19c3.47-.13,6.95-.1,10.43.04-.06.53-.17,1.61-.23,2.14-3.13-.15-6.26-.02-9.38-.21-.21-.49-.62-1.47-.82-1.97h0Z"/>
    <path class="st41" d="M130.77,390.99c.32-5.04,4.99-9.54,10.18-8.74,26.01.06,52.02-.05,78.03.05,3.8-.26,7.14,2.69,8.41,6.09,1.48,6.29,0,12.77.42,19.14l.06,1.69c.29,6.58.36,13.17.23,19.75-.07,3.21-.63,6.75-3.14,9.02-2.07,2.09-5.14,2.47-7.94,2.45-24.35-.04-48.7-.04-73.04,0-3-.06-6.34.38-8.93-1.5-2.71-1.72-4.18-4.86-4.26-8.01-.38-7.45.12-14.91-.13-22.35v-.22c.1-5.79-.15-11.59.11-17.37M138.32,383.33c-3.9.66-6.82,4.8-6.67,8.68-.02,12.67,0,25.34,0,38.01-.29,4.62,3.37,9.7,8.34,9.3,25.68.05,51.36-.04,77.04.03,5.93.99,10.78-4.56,10.15-10.27.16-12.73-.25-25.45-.35-38.18-.02-4.97-5.08-8.64-9.85-7.81-26.22.25-52.46-.29-78.65.24h0Z"/>
    <path class="st41" d="M242.93,389.95c.56-4.34,4.51-8.09,9.02-7.68,26.34.01,52.68-.07,79.02.04,4.73-.25,8.57,4.16,8.65,8.69.23,5.5.04,11.02.11,16.53l-.63-.03c-.74-5.68.03-11.41-.5-17.09-.39-4.17-4.28-7.61-8.5-7.28-25.73-.03-51.46,0-77.2-.03-2.84-.11-5.87.86-7.5,3.32-1.97,2.39-1.79,5.62-1.79,8.53.12,12.01-.05,24.03.07,36.05,0,4.4,3.77,8.77,8.41,8.33,25.97.03,51.94.01,77.91.02,4.33.32,8.38-3.33,8.63-7.62.5-7.43-.3-14.9.47-22.32l.51-.04c.07,7.56.11,15.12-.1,22.68-.2,4.74-4.84,8.36-9.41,8.35-25.04.09-50.09-.05-75.13.06-3.14.02-6.69-.04-9.13-2.33-2.74-2.13-3.19-5.82-3.25-9.06-.06-6.81.14-13.63,0-20.44v-.17c.19-6.16-.47-12.38.33-18.51h0Z"/>
    <path class="st41" d="M361.99,390.99c.08-4.67,4.27-8.94,9.01-8.7,24.66-.12,49.34.15,73.99-.22,4.44-.06,8.5,3.49,8.96,7.91.63,5.83.13,11.72.23,17.57v1.75c-.07,7.57.18,15.14-.12,22.7-.2,5-5.07,8.78-9.93,8.41-24.39-.03-48.79.08-73.18-.02-4.99.1-9.1-4.56-9.07-9.41-.19-7.44.1-14.89-.11-22.33v-.23c.17-5.81-.18-11.63.22-17.43M369.35,383.33c-3.96.71-6.69,4.68-6.52,8.61-.08,12.68.02,25.35-.05,38.03-.28,4.59,3.34,9.53,8.21,9.35,24.68.06,49.36-.02,74.04,0,4.49.2,8.2-3.99,8.22-8.34.28-12.66-.06-25.33.12-37.99.24-3.57-1.43-7.13-4.49-9.02-3.4-1.66-7.31-1.18-10.95-.94-22.85.36-45.74-.26-68.58.29h0Z"/>
    <path class="st41" d="M468.91,391.99c-.42-5.97,5.23-10.9,11.09-9.84,24.35.28,48.71-.06,73.06.17,4.72-.14,8.12,4.43,8.4,8.81.32,5.47,0,10.95,0,16.43,0,.41,0,1.24-.02,1.65,0,7.57.32,15.15-.06,22.71-.37,5.07-5.33,8.94-10.31,8.52-24.36-.08-48.72.04-73.08-.06-4.97.18-9.27-4.37-9.14-9.28-.17-7.5.14-15-.12-22.49v-.12c.16-5.5-.05-11,.17-16.5M476.32,383.32c-3.96.7-6.51,4.86-6.48,8.7-.03,11.65-.05,23.29-.1,34.94.03,2.67-.09,5.49,1.12,7.96,1.2,2.77,4.25,4.54,7.25,4.4,24.6.04,49.2-.04,73.81.03,4.53.33,8.74-3.83,8.52-8.36.06-12.96,0-25.92.02-38.88.28-3.99-2.45-8.26-6.57-8.84-4.59-.58-9.22-.13-13.83-.16-19.69-.1-39.38.33-59.06-.21-1.58.02-3.14.12-4.68.42h0Z"/>
    <path class="st41" d="M576.42,390.9c.08-4.46,3.85-9.02,8.58-8.63,23.98-.05,47.98,0,71.96-.05,4.58-.36,8.54,3.4,9.06,7.83.74,5.82.1,11.71.15,17.56v1.6c.1,7.26.31,14.53.06,21.8,0,4.86-4.15,9.47-9.13,9.37-23.04.1-46.08-.03-69.11.08-2.48-.05-5.14.04-7.35-1.26-2.86-1.61-4.37-4.95-4.3-8.15-.14-7.47,0-14.95-.13-22.42v-.16c.21-5.85-.09-11.72.21-17.57M583.36,383.36c-3.86.71-6.28,4.86-6.15,8.6,0,13.04-.05,26.09.03,39.13-.15,4.19,3.5,8.28,7.76,8.22,24.02.08,48.03-.04,72.05.06,4.48.15,8.24-4.01,8.27-8.38.09-13,.01-26.01.04-39.01.08-2.74-1.27-5.39-3.25-7.21-2.5-2.19-6.09-1.73-9.15-1.88-23.19.74-46.43-.38-69.6.47Z"/>
    <path class="st41" d="M681.17,390.94c.03-4.55,4.03-9.11,8.79-8.67,24.02-.02,48.06-.06,72.08.03,4.63-.23,8.35,4.24,8.49,8.63.18,5.54-.08,11.09.1,16.63l-.5-.02c-.72-5.38-.22-10.81-.51-16.21-.06-3.08-1.79-6.1-4.55-7.53-2.23-.91-4.72-.68-7.06-.76-22.7.33-45.41-.19-68.1.11-4.2-.18-7.78,3.63-7.74,7.75-.26,13.38-.65,26.79-.17,40.18-.04,4.34,3.53,8.5,8.06,8.24h70.9c4.32.25,8.42-3.27,8.67-7.62.5-7.43-.41-14.91.49-22.33l.5-.03c-.16,7.23.04,14.46-.06,21.69.17,5.07-4.5,9.53-9.54,9.35-23.34.1-46.68-.03-70.02.03-4.46.38-9.16-2.74-9.62-7.37-1.09-8.1-.23-16.31-.64-24.45v-.22c.57-5.8.24-11.63.43-17.44h0Z"/>
  </g>
  <g id="_x23_d5e5d2ff">
    <path class="st57" d="M611.7,354.56c6.28-.01,12.56.03,18.84-.01-.03,7.75.11,15.5,0,23.25-6.26.09-12.52.07-18.78.07.02-7.77.03-15.54-.06-23.31M623.04,361.61c-.53-.51-1.59-1.53-2.12-2.05-2.39,1.12-7.8.9-6.26,4.92.92-.67,1.84-1.33,2.77-2,1.2-.14,2.42-.28,3.64-.41.38.76,1.57,3.93,2.6,1.99,1.39-2.41,4.67-4.72,3.9-7.72-2.42.29-3,3.66-4.53,5.27M613.86,367.1c.39.31,1.19.93,1.58,1.23,3.52.24,7.06.07,10.59,0,1.08.13,1.85-.32,2.32-1.33-4.83-.19-9.68-.33-14.49.11M614.1,371.58c4.46.22,8.94.16,13.39-.14.2-.32.58-.96.77-1.27-4.4-.15-8.82-.31-13.2.06-.24.34-.72,1.01-.96,1.35M614.02,374.66c3.04.28,6.11.24,9.17.01-.58-1.88-2.7-1.33-4.18-1.48-1.76.15-4.17-.61-4.99,1.47Z"/>
  </g>
  <g id="_x23_d5e4d2ff">
    <path class="st24" d="M716.69,354.58c3.82.01,7.65.02,11.48,0-.01,2.09.01,4.18.05,6.27,2.18.08,4.36.11,6.55.14.03,5.61.07,11.22,0,16.83-5.98.05-11.97.17-17.94.07-.13-7.77.03-15.54-.14-23.3M719.3,361.59c.02.37.04,1.13.05,1.5,2.09.14,4.24.18,6.32-.22-.37-2.68-4.43-.96-6.37-1.28M719.53,365.36c-.19.36-.58,1.09-.77,1.45,4.53.21,9.08.13,13.62.02-.17-.38-.51-1.13-.68-1.51-4.05-.16-8.13-.28-12.17.04M718.69,369.19c.23.31.69.92.92,1.22,3.96.26,7.96.17,11.93.01.23-.32.68-.96.91-1.28-4.58-.26-9.19-.32-13.76.05M719.61,372.7c-.22.33-.66.98-.88,1.31,4.57.23,9.15.21,13.73,0-.24-.31-.73-.94-.97-1.25-3.96-.15-7.94-.25-11.88-.06Z"/>
  </g>
  <g id="_x23_cfe1caff">
    <path class="st33" d="M295.84,361.77c.92-1.4,2.24-.15,3.23.38-3.62,3.37-6.91,7.08-10.67,10.3-1.69-1.85-3.43-3.66-5.19-5.44,1.9-3.12,3.62.58,5.24,1.9,2.55-2.3,4.89-4.8,7.39-7.14h0Z"/>
    <path class="st33" d="M405.73,368.82c2.83-2.76,5.65-5.52,8.4-8.36.58.66,1.17,1.33,1.75,2-3.65,3.15-6.77,6.86-10.44,9.99-1.69-1.89-3.43-3.74-5.18-5.57,2-2.85,3.77.66,5.47,1.94Z"/>
    <path class="st33" d="M521.62,360.98c1.75.03,3.5.06,5.26.09-.01,4.65.02,9.29-.05,13.94-1.72.04-3.45.08-5.17.12-.06-4.71-.05-9.43-.04-14.15h0Z"/>
  </g>
  <g id="_x23_d2e3cfff">
    <path class="st22" d="M503.54,360.91c5.25-.02,10.51-.04,15.78.06.02,4.71.02,9.43,0,14.14-5.22.01-10.45,0-15.67.01-.24-4.74-.14-9.48-.11-14.21M505.43,364.32c.06.52.18,1.57.24,2.09,3.67-.5,8.63,1.79,11.31-1.5-3.66-1.51-7.72-.57-11.55-.59M505.56,369.19c.2.5.61,1.48.82,1.97,3.12.19,6.25.06,9.38.21.06-.53.17-1.61.23-2.14-3.48-.14-6.96-.17-10.43-.04h0Z"/>
  </g>
  <g id="_x23_f6f7f3ff">
    <path class="st17" d="M138.32,383.33c26.19-.53,52.43.01,78.65-.24,4.77-.83,9.83,2.84,9.85,7.81.1,12.73.51,25.45.35,38.18.63,5.71-4.22,11.26-10.15,10.27-25.68-.07-51.36.02-77.04-.03-4.97.4-8.63-4.68-8.34-9.3.02-12.67,0-25.34,0-38.01-.15-3.88,2.77-8.02,6.67-8.68h0Z"/>
    <path class="st17" d="M245.4,386.42c1.63-2.46,4.66-3.43,7.5-3.32,25.74.03,51.47,0,77.2.03,4.22-.33,8.11,3.11,8.5,7.28.53,5.68-.24,11.41.5,17.09v1.91c-.77,7.42.03,14.89-.47,22.32-.25,4.29-4.3,7.94-8.63,7.62-25.97-.01-51.94,0-77.91-.02-4.64.44-8.4-3.93-8.41-8.33-.12-12.02.05-24.04-.07-36.05,0-2.91-.18-6.14,1.79-8.53h0Z"/>
  </g>
  <g id="_x23_f6f6f2ff">
    <path class="st3" d="M369.35,383.33c22.84-.55,45.73.07,68.58-.29,3.64-.24,7.55-.72,10.95.94,3.06,1.89,4.73,5.45,4.49,9.02-.18,12.66.16,25.33-.12,37.99-.02,4.35-3.73,8.54-8.22,8.34-24.68-.03-49.36.05-74.04,0-4.87.18-8.49-4.76-8.21-9.35.07-12.68-.03-25.35.05-38.03-.17-3.93,2.56-7.9,6.52-8.61h0Z"/>
    <path class="st3" d="M476.32,383.32c1.54-.3,3.1-.4,4.68-.42,19.68.54,39.37.11,59.06.21,4.61.03,9.24-.42,13.83.16,4.12.58,6.85,4.85,6.57,8.84-.02,12.96.04,25.92-.02,38.88.22,4.53-3.99,8.69-8.52,8.36-24.61-.07-49.21,0-73.81-.03-3,.14-6.05-1.63-7.25-4.4-1.21-2.47-1.09-5.29-1.12-7.96.05-11.65.07-23.29.1-34.94-.03-3.84,2.52-8,6.48-8.7h0Z"/>
    <path class="st3" d="M583.36,383.36c23.17-.85,46.41.27,69.6-.47,3.06.15,6.65-.31,9.15,1.88,1.98,1.82,3.33,4.47,3.25,7.21-.03,13,.05,26.01-.04,39.01-.03,4.37-3.79,8.53-8.27,8.38-24.02-.1-48.03.02-72.05-.06-4.26.06-7.91-4.03-7.76-8.22-.08-13.04-.03-26.09-.03-39.13-.13-3.74,2.29-7.89,6.15-8.6Z"/>
  </g>
  <g id="_x23_f5f6f2ff">
    <path class="st59" d="M682.17,390.9c-.04-4.12,3.54-7.93,7.74-7.75,22.69-.3,45.4.22,68.1-.11,2.34.08,4.83-.15,7.06.76,2.76,1.43,4.49,4.45,4.55,7.53.29,5.4-.21,10.83.51,16.21,0,.46-.01,1.38-.01,1.84-.9,7.42.01,14.9-.49,22.33-.25,4.35-4.35,7.87-8.67,7.62h-70.9c-4.53.26-8.1-3.9-8.06-8.24-.48-13.39-.09-26.8.17-40.18h0Z"/>
  </g>
  <g id="_x23_d6e5d3ff">
    <path class="st6" d="M122.33,412.72c2.76-1.42,5.52-2.83,8.33-4.14.25,7.44-.25,14.9.13,22.35.08,3.15,1.55,6.29,4.26,8.01,2.59,1.88,5.93,1.44,8.93,1.5,24.34-.04,48.69-.04,73.04,0,2.8.02,5.87-.36,7.94-2.45,2.51-2.27,3.07-5.81,3.14-9.02.13-6.58.06-13.17-.23-19.75,2.48.01,4.96.04,7.44.08-.24.78-.73,2.36-.97,3.15,2.73-1.32,5.48-2.6,8.26-3.82.13,6.81-.07,13.63,0,20.44.06,3.24.51,6.93,3.25,9.06,2.44,2.29,5.99,2.35,9.13,2.33,25.04-.11,50.09.03,75.13-.06,4.57.01,9.21-3.61,9.41-8.35.21-7.56.17-15.12.1-22.68,4.99-.17,9.99-.01,14.99.12-.35,1.02-.69,2.05-1.03,3.08,2.74-1.28,5.46-2.62,8.2-3.92.21,7.44-.08,14.89.11,22.33-.03,4.85,4.08,9.51,9.07,9.41,24.39.1,48.79-.01,73.18.02,4.86.37,9.73-3.41,9.93-8.41.3-7.56.05-15.13.12-22.7,2.45.01,4.91.02,7.37.05-.4,1.04-.79,2.08-1.18,3.12,2.78-1.32,5.55-2.64,8.37-3.86.26,7.49-.05,14.99.12,22.49-.13,4.91,4.17,9.46,9.14,9.28,24.36.1,48.72-.02,73.08.06,4.98.42,9.94-3.45,10.31-8.52.38-7.56.06-15.14.06-22.71,2.52.04,5.04.08,7.56.14-.25.75-.75,2.23-1,2.98,2.7-1.29,5.43-2.57,8.2-3.7.13,7.47-.01,14.95.13,22.42-.07,3.2,1.44,6.54,4.3,8.15,2.21,1.3,4.87,1.21,7.35,1.26,23.03-.11,46.07.02,69.11-.08,4.98.1,9.13-4.51,9.13-9.37.25-7.27.04-14.54-.06-21.8,2.53.02,5.06.04,7.61.09-.23.76-.69,2.28-.91,3.03,2.61-1.25,5.24-2.5,7.87-3.73.41,8.14-.45,16.35.64,24.45.46,4.63,5.16,7.75,9.62,7.37,23.34-.06,46.68.07,70.02-.03,5.04.18,9.71-4.28,9.54-9.35.1-7.23-.1-14.46.06-21.69,2.47-.09,4.96-.05,7.45,0,.41,14.21.28,28.44.17,42.65.11,3.94-2.2,7.67-5.51,9.69-2.9,1.74-6.43,1.39-9.66,1.48-206.7-.01-413.4,0-620.11,0-5.31-.24-11.3,1.1-15.96-2.17-3.24-2.19-4.65-6.17-4.64-9.96-.04-12.77.01-25.55-.03-38.33h0Z"/>
  </g>
  <g class="st11">
    <text class="st12" transform="translate(25.31 79.29)"><tspan x="0" y="0">Legal PDF</tspan></text>
  </g>
  <g class="st11">
    <text class="st12" transform="translate(174.77 70.52)"><tspan x="0" y="0">Cleaning &amp; </tspan></text>
    <text class="st12" transform="translate(181.42 88.52)"><tspan x="0" y="0">Chunking</tspan></text>
  </g>
  <g class="st11">
    <text class="st12" transform="translate(309.54 73.01)"><tspan x="0" y="0">Task</tspan></text>
    <text class="st12" transform="translate(297.67 91.01)"><tspan x="0" y="0" xml:space="preserve"> Routing</tspan></text>
  </g>
  <g class="st11">
    <text class="st12" transform="translate(402.07 70.52)"><tspan x="0" y="0">Instruction </tspan></text>
    <text class="st12" transform="translate(403.54 88.52)"><tspan x="0" y="0">Generation</tspan></text>
  </g>
  <g class="st11">
    <text class="st12" transform="translate(524.63 70.72)"><tspan x="0" y="0">QA / </tspan></text>
    <text class="st12" transform="translate(507.16 88.72)"><tspan x="0" y="0">Preference</tspan></text>
  </g>
  <g class="st11">
    <text class="st12" transform="translate(624.35 70.72)"><tspan x="0" y="0">Risk </tspan></text>
    <text class="st12" transform="translate(616.65 88.72)"><tspan x="0" y="0">Refusal</tspan></text>
  </g>
  <g class="st11">
    <text class="st12" transform="translate(708.38 69.16)"><tspan x="0" y="0">Training </tspan></text>
    <text class="st12" transform="translate(708.38 87.16)"><tspan x="0" y="0">Packaging</tspan></text>
  </g>
  <g class="st11">
    <text class="st12" transform="translate(810.25 70.3)"><tspan x="0" y="0">Validation</tspan></text>
    <text class="st12" transform="translate(819.64 88.3)"><tspan x="0" y="0" xml:space="preserve"> Report</tspan></text>
  </g>
  <g class="st11">
    <text class="st9" transform="translate(20.99 339.67)"><tspan x="0" y="0">Legal PDFs </tspan></text>
    <text class="st9" transform="translate(27.89 357.67)"><tspan x="0" y="0">(raw data)</tspan></text>
  </g>
  <g class="st11">
    <text class="st9" transform="translate(44.33 491.19)"><tspan x="0" y="0">Input</tspan></text>
  </g>
  <g class="st11">
    <text class="st9" transform="translate(322.22 491.19)"><tspan x="0" y="0">knowledge → supervision → production</tspan></text>
  </g>
  <g class="st11">
    <text class="st9" transform="translate(821.73 488.6)"><tspan x="0" y="0">Output</tspan></text>
  </g>
  <g class="st11">
    <text class="st8" transform="translate(804.61 298.1)"><tspan x="0" y="0">manifest.json</tspan></text>
  </g>
  <g class="st11">
    <text class="st9" transform="translate(810.55 239.32)"><tspan x="0" y="0">train.jsonl</tspan></text>
  </g>
  <g class="st11">
    <text class="st9" transform="translate(810.72 178.43)"><tspan x="0" y="0">val.jsonl</tspan></text>
  </g>
  <g class="st11">
    <text class="st9" transform="translate(806.42 375.13)"><tspan x="0" y="0">evaluation </tspan></text>
    <text class="st9" transform="translate(821.63 393.13)"><tspan x="0" y="0">report</tspan></text>
  </g>
  <g class="st11">
    <text class="st9" transform="translate(143.93 416.96)"><tspan x="0" y="0">QA review</tspan></text>
  </g>
  <g class="st11">
    <text class="st9" transform="translate(249.47 407.54)"><tspan x="0" y="0">accept/reject</tspan></text>
    <text class="st9" transform="translate(270.9 425.54)"><tspan x="0" y="0" xml:space="preserve"> rules</tspan></text>
  </g>
  <g class="st11">
    <text class="st9" transform="translate(380.28 409.38)"><tspan x="0" y="0">train/val </tspan></text>
    <text class="st9" transform="translate(394.23 427.38)"><tspan x="0" y="0">split</tspan></text>
  </g>
  <g class="st11">
    <text class="st9" transform="translate(485.59 409.38)"><tspan x="0" y="0">manifest</tspan></text>
    <text class="st9" transform="translate(477.89 427.38)"><tspan x="0" y="0" xml:space="preserve"> generation</tspan></text>
  </g>
  <g class="st11">
    <text class="st9" transform="translate(588.8 408.77)"><tspan x="0" y="0">evaluation </tspan></text>
    <text class="st9" transform="translate(604.01 426.77)"><tspan x="0" y="0">report</tspan></text>
  </g>
  <g class="st11">
    <text class="st9" transform="translate(693.53 411.06)"><tspan x="0" y="0">validation </tspan></text>
    <text class="st9" transform="translate(705.82 429.06)"><tspan x="0" y="0">scripts</tspan></text>
  </g>
  <g class="st11">
    <text class="st9" transform="translate(704.92 268.56)"><tspan x="0" y="0">Safety </tspan></text>
    <text class="st9" transform="translate(703.67 286.56)"><tspan x="0" y="0">refusal </tspan></text>
    <text class="st9" transform="translate(701.79 304.56)"><tspan x="0" y="0">samples</tspan></text>
  </g>
  <g class="st11">
    <text class="st9" transform="translate(590.41 281.08)"><tspan x="0" y="0">Preference</tspan></text>
    <text class="st9" transform="translate(606.01 299.08)"><tspan x="0" y="0" xml:space="preserve"> pairs</tspan></text>
  </g>
  <g class="st11">
    <text class="st9" transform="translate(484.94 271.63)"><tspan x="0" y="0">Chain-of-</tspan></text>
    <text class="st9" transform="translate(486.81 289.63)"><tspan x="0" y="0">Thought </tspan></text>
    <text class="st9" transform="translate(495.77 307.63)"><tspan x="0" y="0">(CoT)</tspan></text>
  </g>
  <g class="st11">
    <text class="st9" transform="translate(371.71 278.48)"><tspan x="0" y="0">Self-Instruct</tspan></text>
    <text class="st9" transform="translate(375.67 296.48)"><tspan x="0" y="0" xml:space="preserve"> generation</tspan></text>
  </g>
  <g class="st11">
    <text class="st9" transform="translate(261.36 278.51)"><tspan x="0" y="0">Prompt</tspan></text>
    <text class="st9" transform="translate(252.83 296.51)"><tspan x="0" y="0" xml:space="preserve"> templates</tspan></text>
  </g>
  <g class="st11">
    <text class="st9" transform="translate(160.79 280.1)"><tspan x="0" y="0">Task</tspan></text>
    <text class="st9" transform="translate(133.92 298.1)"><tspan x="0" y="0" xml:space="preserve"> classification</tspan></text>
  </g>
  <g class="st11">
    <text class="st8" transform="translate(164.43 159.26)"><tspan x="0" y="0">PDF </tspan></text>
    <text class="st8" transform="translate(158.02 176.06)"><tspan x="0" y="0">Parsing</tspan></text>
  </g>
  <g class="st11">
    <text class="st9" transform="translate(255.17 157.85)"><tspan x="0" y="0">Header/Footer</tspan></text>
    <text class="st9" transform="translate(269.53 175.85)"><tspan x="0" y="0" xml:space="preserve"> Removal</tspan></text>
  </g>
  <g class="st11">
    <text class="st9" transform="translate(387.25 159.26)"><tspan x="0" y="0">Chinese text</tspan></text>
    <text class="st9" transform="translate(404.74 177.26)"><tspan x="0" y="0" xml:space="preserve"> fixing</tspan></text>
  </g>
  <g class="st11">
    <text class="st9" transform="translate(509.4 160.77)"><tspan x="0" y="0">Page number </tspan></text>
    <text class="st9" transform="translate(525.23 178.77)"><tspan x="0" y="0">cleaning</tspan></text>
  </g>
  <g class="st11">
    <text class="st9" transform="translate(678 158.04)"><tspan x="0" y="0">Legal clause </tspan></text>
    <text class="st9" transform="translate(689.65 176.04)"><tspan x="0" y="0">chunking</tspan></text>
  </g>
  <g class="st11">
    <text class="st10" transform="translate(276.46 30.22)"><tspan x="0" y="0">Legal SFT Data Factory Overview</tspan></text>
  </g>
  <g class="st11">
    <text class="st12" transform="translate(134.85 240.66)"><tspan x="0" y="0">Supervision Construction</tspan></text>
  </g>
  <g class="st11">
    <text class="st12" transform="translate(131.4 121.67)"><tspan x="0" y="0">Knowledge Processing</tspan></text>
  </g>
  <g class="st11">
    <text class="st12" transform="translate(133.7 369.75)"><tspan x="0" y="0">QA &amp; Delivery</tspan></text>
  </g>
  <g class="st11">
    <text class="st9" transform="translate(411.75 334.02)"><tspan x="0" y="0">one clause transform into training samples</tspan></text>
  </g>
</svg>