<?xml version="1.0" encoding="UTF-8"?>
<svg id="_图层_1" data-name="图层_1" xmlns="http://www.w3.org/2000/svg" version="1.1" viewBox="0 0 900 491">
  <!-- Generator: Adobe Illustrator 29.6.0, SVG Export Plug-In . SVG Version: 2.1.1 Build 207)  -->
  <defs>
    <style>
      .st0 {
        fill: #b70404;
      }

      .st1, .st2, .st3, .st4 {
        isolation: isolate;
      }

      .st1, .st3 {
        font-size: 25px;
      }

      .st1, .st4 {
        font-family: TimesNewRomanPS-BoldMT, 'Times New Roman';
        font-weight: 700;
      }

      .st5 {
        fill: #fff;
      }

      .st6 {
        fill: #86c182;
      }

      .st7 {
        fill: #d18b3a;
      }

      .st8 {
        fill: #fdb558;
      }

      .st9 {
        fill: #635544;
      }

      .st10 {
        fill: #077807;
      }

      .st3 {
        font-family: TimesNewRomanPSMT, 'Times New Roman';
      }

      .st11 {
        fill: #e46862;
      }

      .st4 {
        font-size: 33px;
      }
    </style>
  </defs>
  <g id="_x23_ffffffff">
    <path class="st5" d="M0,0h900v491H0V0M229.95,68.65c-.06,21.06.01,42.12-.04,63.18-72.96,0-145.93-.06-218.9.03l-.05,1.58c41.66.29,83.32-.02,124.98.14,31.3-.15,62.6.21,93.9-.2.21,22.97.01,45.93.09,68.9-71.96-.17-143.92,0-215.88-.09-1.55.04-3.58-.4-3.67,1.8,73.18.03,146.36-.01,219.54.02.07,22.96-.13,45.92,0,68.88-73.23-.02-146.46-.11-219.69.04.21,2.63,3.12,1.3,4.74,1.66,71.61-.1,143.21.11,214.82-.11.18,22.9,0,45.79.1,68.69-71.64.08-143.27,0-214.91.04-1.76-.03-3.52.13-5.23.58.56.3,1.67.9,2.23,1.2,72.63.04,145.26,0,217.89.02.02,22.96-.03,45.92.03,68.89-73.34,0-146.68-.19-220.01.09.62,2.39,3.35,1.25,5.06,1.56,71.63-.09,143.26.03,214.89-.05.08,23.35,0,46.71.01,70.07,13.36.53,26.75.03,40.12.2,56.35.04,112.7,0,169.05.04,51.33.37,102.66.11,153.99.17,53.68.17,107.35-.39,161.03-.21,46.02-.09,92.04.18,138.05-.14.35-35.88-.01-71.77.11-107.66,0-57.32.04-114.64.07-171.96.13-24.73-.3-49.47.22-74.18-73.4.14-146.81,0-220.21.05.02-20.96.06-41.93-.07-62.89l-1.45.02c-.02,20.96-.08,41.92.03,62.88-72.92-.09-145.84-.09-218.76-.02-.02-20.96.1-41.91-.03-62.87h-1.48c0,20.92-.2,41.85.06,62.78-73.03.16-146.07-.02-219.1.06.08-19.62-.11-39.23.03-58.84-.29-1.47.7-4.09-1.56-4.35Z"/>
  </g>
  <g id="_x23_635544ff">
    <path class="st9" d="M229.95,68.65c2.26.26,1.27,2.88,1.56,4.35-.14,19.61.05,39.22-.03,58.84,73.03-.08,146.07.1,219.1-.06-.26-20.93-.07-41.86-.06-62.79h1.48c.13,20.97.01,41.92.03,62.88,72.92-.07,145.84-.07,218.76.02-.11-20.96-.05-41.92-.03-62.88l1.45-.02c.13,20.96.09,41.93.07,62.89,73.4-.06,146.81.09,220.21-.05-.52,24.71-.09,49.45-.22,74.18-.03,57.32-.07,114.64-.07,171.96-.12,35.89.24,71.78-.11,107.66-72.03-.26-144.08,0-216.11-.12-1.78-.08-3.55-.26-5.31-.43.21-15.28.11-30.57.08-45.85.05-7.82.21-15.65-.02-23.47l-.02-.31c-72.9.19-145.8-.1-218.7.15.02,22.83.03,45.67,0,68.5l-.91,1.52c-.47-2.51-.96-5.03-.99-7.58.05-14.66.11-29.31.14-43.97.06-6.18-.32-12.36.26-18.52-72.94.25-145.89-.09-218.83.17-.02,22.89-.14,45.78-.04,68.66,68.13-.13,136.25.06,204.38.02,4.25,0,8.56.23,12.73-.78.66.54,1.31,1.11,1.95,1.69-44.23.45-88.47.02-132.71.22-29.38.1-58.77-.15-88.14.04-.01-23.36.07-46.72-.01-70.07-71.63.08-143.26-.04-214.89.05-1.71-.31-4.44.83-5.06-1.56,73.33-.28,146.67-.09,220.01-.09-.06-22.97,0-45.93-.03-68.89-72.63-.03-145.26.02-217.89-.02-.56-.3-1.67-.9-2.23-1.2,1.71-.45,3.47-.61,5.23-.58,71.64-.03,143.27.04,214.91-.04-.11-22.9.08-45.79-.1-68.69-71.61.22-143.21,0-214.82.11-1.62-.36-4.53.97-4.74-1.66,73.23-.15,146.46-.06,219.69-.04-.13-22.96.07-45.92,0-68.88-73.18-.03-146.36.01-219.54-.02.09-2.2,2.12-1.76,3.67-1.8,71.96.1,143.92-.08,215.88.09-.08-22.97.12-45.93-.09-68.9-31.3.41-62.6.05-93.9.2-41.66-.16-83.32.15-124.98-.14l.05-1.58c72.97-.09,145.94-.04,218.9-.03.05-21.06-.02-42.12.04-63.18M231.55,133.56c-.09,22.76.22,45.53-.17,68.28,4.53.49,9.08.18,13.63.28,63.33-.11,126.66.04,190-.03,5.14-.08,10.31.37,15.44-.27-.38-22.75-.12-45.51-.08-68.27-72.94.19-145.88.03-218.82,0M452.14,133.54c-.3,22.86.08,45.73-.14,68.59,72.93-.16,145.85.15,218.77-.15.11-22.83-.05-45.67-.02-68.5-72.87.22-145.74.11-218.61.06M672.45,133.55c-.14,22.76.08,45.54-.1,68.31,16.85.33,33.72.12,50.58.17,56.02,0,112.04.03,168.06,0-.13-22.83.3-45.68-.22-68.5-14.9.29-29.81.03-44.72.17-57.86-.15-115.73.09-173.6-.14M231.39,204.2c.29,22.85.21,45.72.04,68.57,55.86.29,111.72.09,167.58.16,17.12-.18,34.25.29,51.36-.18-.16-22.85-.28-45.72.05-68.56-42.81-.44-85.63-.07-128.44-.19-30.19.13-60.4-.27-90.59.2M452.01,204c0,22.96.06,45.93.02,68.89,72.93-.1,145.87,0,218.8-.03-.21-22.94.09-45.88.03-68.83-72.95-.07-145.9,0-218.85-.03M672.4,204.22c-.02,22.86.1,45.71-.06,68.57,72.85.11,145.71-.1,218.57.08.21-22.95.03-45.91.09-68.86-49-.02-98,0-147,0-23.87.14-47.75-.28-71.6.22M231.57,274.54c-.13,22.77.16,45.55-.14,68.31,3.49.28,7,.25,10.5.19,65.02.02,130.05-.02,195.08.03,4.49-.05,9.01.33,13.48-.35-.58-8.88-.09-17.8-.22-26.69.07-13.83-.23-27.65.09-41.47-72.93-.03-145.86.01-218.79-.02M452.02,274.54c0,22.85.03,45.7-.02,68.55,72.93-.08,145.87.17,218.79-.13-.12-18.32.08-36.65,0-54.98,0-4.46.28-8.95-.32-13.39l.81-.06c-73.08-.07-146.17-.14-219.25.01M672.44,274.58c-.06,22.73-.03,45.47,0,68.21,17.18.62,34.39.07,51.58.25,55.66-.01,111.32,0,166.97-.06-.13-22.81.3-45.63-.21-68.43-72.78.14-145.56.15-218.34.03M231.37,345.17c.6,22.88.2,45.77.21,68.65,72.94.09,145.89.17,218.81-.05-.43-22.85-.23-45.73,0-68.58-14.78-.42-29.58-.08-44.37-.19-58.22.11-116.45-.23-174.66.17M452.03,345c.02,22.98-.03,45.96,0,68.94,72.94-.17,145.88-.03,218.82-.07-.27-22.94,0-45.88-.1-68.82-72.91-.12-145.81-.02-218.72-.05M672.4,345.18c0,22.87.05,45.75-.03,68.62,72.86.08,145.71-.09,218.57.09.13-22.96.02-45.92.06-68.89-72.86.11-145.74-.23-218.6.18M672.46,415.54c-.25,22.83.15,45.67-.15,68.51,3.9.45,7.82.27,11.74.27,68.98-.04,137.96-.01,206.94-.01-.11-22.93.26-45.87-.19-68.79-18.24.37-36.49.07-54.73.18-54.54-.15-109.08.14-163.61-.16Z"/>
  </g>
  <g id="_x23_86c182ff">
    <path class="st6" d="M231.55,133.56c72.94.02,145.88.18,218.82,0-.04,22.76-.3,45.52.08,68.27-5.13.64-10.3.19-15.44.27-63.34.07-126.67-.08-190,.03-4.55-.1-9.1.21-13.63-.28.39-22.75.08-45.52.17-68.28M422.55,152.6c-5.82,1.24-10.72,5.92-12.07,11.74-2.36,8.23,3.71,17.52,12.05,19.03,9.78,2.57,20.1-6.5,19-16.46-.56-9.12-10.04-16.24-18.98-14.31Z"/>
    <path class="st6" d="M422.94,170.61c3.52-3.28,6.89-6.73,10.09-10.33.85.86,1.72,1.72,2.58,2.59-4.18,4.25-8.23,8.65-12.6,12.71-2.43-2.41-4.91-4.76-7.2-7.3.82-.76,1.65-1.53,2.48-2.3,1.57,1.53,3.12,3.06,4.65,4.63Z"/>
    <path class="st6" d="M231.39,204.2c30.19-.47,60.4-.07,90.59-.2,42.81.12,85.63-.25,128.44.19-.33,22.84-.21,45.71-.05,68.56-17.11.47-34.24,0-51.36.18-55.86-.07-111.72.13-167.58-.16.17-22.85.25-45.72-.04-68.57M421.95,223.16c-8.36,1.81-13.82,11.26-11.35,19.39,1.82,6.74,8.42,11.8,15.44,11.58,9.14.28,17.18-9.2,15.31-18.18-1.33-8.69-10.76-15.3-19.4-12.79Z"/>
    <path class="st6" d="M422.99,240.71c3.46-3.09,6.38-6.76,9.97-9.68.93.52,1.78,1.16,2.55,1.92-3.91,4.5-8.29,8.55-12.48,12.79-2.49-2.45-5.06-4.81-7.31-7.47.9-.7,1.79-1.39,2.7-2.07,1.54,1.47,3.06,2.98,4.57,4.51Z"/>
    <path class="st6" d="M231.57,274.54c72.93.03,145.86-.01,218.79.02-.32,13.82-.02,27.64-.09,41.47.13,8.89-.36,17.81.22,26.69-4.47.68-8.99.3-13.48.35-65.03-.05-130.06-.01-195.08-.03-3.5.06-7.01.09-10.5-.19.3-22.76.01-45.54.14-68.31M422.31,293.49c-6.05,1.38-10.78,6.66-12.03,12.66-1.3,7.01,2.87,14.58,9.42,17.36,4.49,1.65,9.76,1.5,13.96-.89,4.25-2.8,7.62-7.42,7.88-12.63.73-9.84-9.35-19.37-19.23-16.5Z"/>
    <path class="st6" d="M423.04,311.41c3.23-3.49,6.67-6.77,10.06-10.11.44.95,2.68,2.03,1.5,3.2-3.67,3.99-7.13,8.47-11.61,11.53-2.46-2.19-5.13-4.36-6.91-7.13.66-.7,1.37-2.37,2.55-1.75,1.63,1.23,2.97,2.81,4.41,4.26Z"/>
    <path class="st6" d="M231.37,345.17c58.21-.4,116.44-.06,174.66-.17,14.79.11,29.59-.23,44.37.19-.24,22.85-.44,45.73,0,68.58-72.92.22-145.87.14-218.81.05,0-22.88.39-45.77-.21-68.65M421.25,364.38c-3.89,1.26-7.26,4.06-9.25,7.62-4.57,7.86-.71,19.13,7.93,22.2,9.28,4.05,20.8-3.21,21.53-13.17,1.57-10.53-10.12-20.36-20.21-16.65Z"/>
    <path class="st6" d="M422.97,381.92c4.09-2.82,6.65-7.37,10.84-10.06.48.91.85,1.87,1.1,2.87-2.48,3.53-5.86,6.28-8.72,9.49-1.05.91-1.89,2.3-3.29,2.66-2.31-1.94-4.47-4.07-6.42-6.36-1.17-1.22,1.1-2.32,1.58-3.22,1.57,1.6,3.08,3.29,4.91,4.62Z"/>
    <path class="st6" d="M231.68,415.72c72.94-.26,145.89.08,218.83-.17-.58,6.16-.2,12.34-.26,18.52-.03,14.66-.09,29.31-.14,43.97.03,2.55.52,5.07.99,7.58,1.92-.44,3.89-.86,5.88-.89,57.02.1,114.04-.01,171.06.06,14.21.16,28.44-.4,42.63.29,1.76.17,3.53.35,5.31.43,72.03.12,144.08-.14,216.11.12-46.01.32-92.03.05-138.05.14-53.68-.18-107.35.38-161.03.21-51.33-.06-102.66.2-153.99-.17-56.35-.05-112.7,0-169.05-.04-13.37-.17-26.76.33-40.12-.2,29.37-.19,58.76.06,88.14-.04,44.24-.2,88.48.23,132.71-.22-.64-.58-1.29-1.15-1.95-1.69-4.17,1.01-8.48.77-12.73.78-68.13.04-136.25-.15-204.38-.02-.1-22.88.02-45.77.04-68.66M422.36,434.53c-8.62,1.92-14.5,12.04-11.49,20.42,2.06,6.68,9.19,11.34,16.13,10.65,8.26-.35,15.14-8.3,14.47-16.52,0-9.41-10.09-16.99-19.11-14.55Z"/>
    <path class="st6" d="M423,452.72c3.47-3.31,6.67-6.89,10.11-10.22.85.81,1.71,1.63,2.56,2.46-4.13,4.32-8.41,8.5-12.59,12.77-2.4-2.38-4.73-4.82-7.25-7.05.78-.91,1.5-1.87,2.28-2.79,1.65,1.59,3.29,3.18,4.89,4.83Z"/>
  </g>
  <g id="_x23_fdb558ff">
    <path class="st8" d="M452.14,133.54c72.87.05,145.74.16,218.61-.06-.03,22.83.13,45.67.02,68.5-72.92.3-145.84,0-218.77.15.22-22.86-.16-45.73.14-68.59M645.68,154.74c-3.39,5.08-5.92,10.67-9.12,15.88-1.81,3.3-4.61,6.55-4.01,10.59,5.75,1.06,11.62.55,17.44.67,4.19-.1,8.44.33,12.6-.36,1.34-.84,1.92-2.57.91-3.91-4.19-7.39-8.57-14.67-12.76-22.06-.71-2.1-3.86-2.85-5.06-.81Z"/>
    <path class="st8" d="M635.88,178.82c3.09-7.68,8.18-14.3,11.83-21.68,4.47,6.96,9.12,13.95,12.32,21.59-8.05-.11-16.11-.37-24.15.09M645.98,162.8c.07,3.07.02,6.22.95,9.19.53,0,1.58.03,2.11.04,1.1-2.89.77-6.05.84-9.07-1.31-.05-2.61-.11-3.9-.16M646.11,174.17c-1.41,2.54,2.97,4.22,3.85,1.68.64-1.6-1.09-2.56-1.97-3.52-.47.46-1.41,1.38-1.88,1.84Z"/>
    <path class="st8" d="M452.01,204c72.95.02,145.9-.04,218.85.03.06,22.95-.24,45.89-.03,68.83-72.93.03-145.87-.07-218.8.03.04-22.96-.01-45.93-.02-68.89M645.42,225.49c-4.35,7.6-8.91,15.11-12.99,22.88-1.05,1.41-.32,3.76,1.63,3.63,9.69.17,19.39-.07,29.09.09.49-1.38,1.19-2.98.18-4.32-4.32-7.6-8.65-15.21-13.13-22.72-.92-2.04-4.08-1.53-4.78.44Z"/>
    <path class="st8" d="M647.4,228.26c.26.01.78.04,1.05.05,3.94,6.88,8.25,13.61,11.88,20.67-8.19-.02-16.38-.03-24.57-.14,3.72-6.94,7.61-13.81,11.64-20.58M645.95,232.93c.03,2.7-.09,5.44.36,8.12-.12,2.03,3.61,2.04,3.41-.04.33-2.62.12-5.26.06-7.88-1.29-.08-2.56-.14-3.83-.2M646.3,244.22c-1.92,2.45,3.39,4.55,3.63,1.76.87-2.21-2.38-3.04-3.63-1.76Z"/>
    <path class="st8" d="M452.02,274.54c4.98.48,9.98.43,14.98.32,23.34-.12,46.69.09,70.03-.2,18.02.88,36.05-.63,54.07.3,20.62-.22,41.24-.27,61.87-.11,5.83.05,11.67.22,17.49-.26.6,4.44.33,8.93.32,13.39.09,18.33-.11,36.66,0,54.98-72.92.3-145.86.05-218.79.13.05-22.85.01-45.7.02-68.55M645.67,295.58c-3.67,5.85-6.79,12.03-10.27,17.99-1.49,2.86-4.38,5.89-2.38,9.23,8.97.15,17.95-.07,26.93.24,2.12.43,5.25-1.43,3.81-3.84-4.53-7.83-8.81-15.81-13.43-23.58-.87-1.87-3.76-1.88-4.66-.04Z"/>
    <path class="st8" d="M647.71,298.33c1.04.1,1.2,1.38,1.77,2.09,3.6,6.5,7.3,12.96,11.29,19.24-8.49.21-17,.38-25.5.09,4.27-7.07,8.2-14.35,12.44-21.42M645.86,303.65c.1,3.12.05,6.32,1.04,9.32.54.01,1.62.02,2.16.03,1.54-2.87.95-6.25,1.02-9.36-1.41,0-2.82,0-4.22,0M647.02,314.03c-2.2,1.38-.63,4.89,1.92,4,2.36-1.33.67-5.14-1.92-4Z"/>
    <path class="st8" d="M452.03,345c72.91.03,145.81-.07,218.72.05.09,22.94-.17,45.88.1,68.82-72.94.04-145.88-.1-218.82.07-.03-22.98.02-45.96,0-68.94M645.44,366.51c-4.12,6.92-7.83,14.08-12.02,20.96-1.23,1.68-1.57,3.78-.59,5.67,9.36.21,18.74.14,28.1.1,2.12.5,3.98-1.86,2.6-3.7-4.35-7.96-8.68-15.94-13.62-23.56-1.01-1.85-3.75-1.28-4.47.53Z"/>
    <path class="st8" d="M647.38,369.36c.26,0,.78,0,1.04-.02,1.74,2.37,2.88,5.09,4.33,7.64,2.34,4.42,5.36,8.45,7.44,13.01-8.04.27-16.1.21-24.15-.04,3.45-7.03,7.34-13.86,11.34-20.59M645.88,374.68c.48,2.85.42,5.75,1.03,8.58,2.89,1.3,3.03-2.38,3.09-4.23-.03-1.81.76-5.01-1.9-5.2-.55.22-1.66.64-2.22.85M646.03,386.96c-.11,2.1,2.73,1.05,3.94,1.3-.02-.87-.05-2.59-.07-3.46-1.53-.25-4.78-.35-3.87,2.16Z"/>
    <path class="st8" d="M452.01,415.6c21.32.54,42.65-.09,63.98.19,23.36,0,46.72-.23,70.08.04,28.22-.33,56.44.18,84.66-.07.23,7.82.07,15.65.02,23.47-.23.16-.69.48-.92.64.4,2.33.74,4.7.74,7.08-.07,12.31.08,24.62-.14,36.93-58.14.05-116.29-.01-174.44.03-14.66.08-29.33-.25-43.98.19.03-22.83.02-45.67,0-68.5M646.09,435.7c-4.32,8.12-9.1,16-13.48,24.08-1.02,1.68.27,4.14,2.33,3.97,8.35.22,16.73-.05,25.09.01,1.66.2,2.95-.93,4.27-1.74-3.06-7.32-7.74-13.83-11.39-20.86-1.48-2.6-3-6.95-6.82-5.46Z"/>
    <path class="st8" d="M646.89,441.03c1.13-2.49,2.55.6,3.3,1.69,3.19,6,7.11,11.64,9.77,17.91-8.04.26-16.09.08-24.14.19,3.01-6.94,7.5-13.13,11.07-19.79M645.83,444.82c.44,3.12.73,6.27,1.06,9.41.55-.11,1.66-.33,2.21-.43,1.38-2.78.76-6.05,1.01-9.04-1.43-.49-2.88-.46-4.28.06M647.96,459.07c1.78.15,1.73-2.23,2.49-3.25-.63-.24-1.9-.7-2.53-.93-2.68,0-2.51,4.12.04,4.18Z"/>
  </g>
  <g id="_x23_e46862ff">
    <path class="st11" d="M672.45,133.55c57.87.23,115.74-.01,173.6.14,14.91-.14,29.82.12,44.72-.17.52,22.82.09,45.67.22,68.5-56.02.04-112.04,0-168.06,0-16.86-.05-33.73.16-50.58-.17.18-22.77-.04-45.55.1-68.31M862.41,153.51c-5.32,1.96-9.48,6.84-9.81,12.62-1.41,8.9,6.3,17.94,15.39,17.54,8.81.39,16.66-8.01,15.78-16.78-.25-10.12-12.13-17.59-21.36-13.38Z"/>
    <path class="st11" d="M860.98,163.01c.59-.93,1.23-1.82,1.93-2.67,1.73,1.73,3.45,3.47,5.16,5.23,1.68-1.79,3.38-3.57,5.08-5.36.82.88,1.65,1.77,2.5,2.65-1.81,1.64-3.55,3.35-5.25,5.09,1.61,1.63,3.38,3.16,4.65,5.09-.52.92-1.47,2.64-2.7,1.57-1.64-1.28-2.92-2.94-4.32-4.45-1.45,1.54-2.78,3.2-4.46,4.5-1.28.77-2.09-1.04-2.96-1.61,1.66-1.69,3.31-3.4,5.02-5.05-1.61-1.62-3.31-3.15-4.65-4.99Z"/>
    <path class="st11" d="M672.4,204.22c23.85-.5,47.73-.08,71.6-.22,49,0,98,0,147,0-.06,22.95.12,45.91-.09,68.86-72.86-.18-145.72.03-218.57-.08.16-22.86.04-45.71.06-68.57M863.18,223.41c-6.42,2.15-11.26,8.7-10.58,15.61-.28,8.21,7.32,15.32,15.43,14.98,9.32.61,17.24-8.97,15.59-18-1.14-9.24-11.64-15.81-20.44-12.59Z"/>
    <path class="st11" d="M860.97,232.94c.49-1,1.29-2.32,2.62-1.61,1.62,1.25,2.96,2.83,4.41,4.3,1.66-1.82,3.47-3.53,5.58-4.84.52.59,1.56,1.79,2.08,2.38-1.65,1.69-3.35,3.34-5.08,4.93,1.3,1.44,2.69,2.81,3.91,4.33,1.36,1.26-.8,2.54-1.37,3.53-1.68-1.65-3.16-3.55-5.13-4.85-2,1.27-3.41,3.25-5.1,4.86-.5-.99-2.79-2.29-1.38-3.48,1.29-1.51,2.74-2.89,4.12-4.34-1.57-1.69-3.91-2.96-4.66-5.21Z"/>
    <path class="st11" d="M672.44,274.58c72.78.12,145.56.11,218.34-.03.51,22.8.08,45.62.21,68.43-55.65.06-111.31.05-166.97.06-17.19-.18-34.4.37-51.58-.25-.03-22.74-.06-45.48,0-68.21M865.21,293.38c-7.59,1.31-13.45,8.81-12.61,16.54-.18,11.11,13.76,18.39,23.09,12.74,8.67-4.43,10.88-17.38,4.04-24.33-3.49-4.19-9.22-5.99-14.52-4.95Z"/>
    <path class="st11" d="M873.46,301.07c.47.94,1.67,1.69,1.4,2.87-1.07,1.7-2.66,2.98-4.1,4.34,1.02,1.61,2.34,2.99,3.64,4.39,1.27,1.03-.33,2.56-.59,3.67-2.25-1.45-4.08-3.4-5.88-5.34-1.4,1.59-2.66,3.33-4.36,4.62-1.34.78-2.12-1.03-3.01-1.64,1.48-1.65,3.1-3.19,4.37-5.02.09-1.99-2.25-3.03-3.26-4.55-1.44-1.06.69-2.29,1.18-3.18,1.63,1.54,3.19,3.14,4.68,4.82,2.18-1.41,4.07-3.18,5.93-4.98Z"/>
    <path class="st11" d="M672.4,345.18c72.86-.41,145.74-.07,218.6-.18-.04,22.97.07,45.93-.06,68.89-72.86-.18-145.71-.01-218.57-.09.08-22.87.03-45.75.03-68.62M863.3,364.47c-6.88,2.11-11.66,9.37-10.63,16.54.34,8.89,9.71,15.9,18.32,13.94,7.76-1.41,13.59-9.19,12.62-17.05-.53-9.53-11.33-16.68-20.31-13.43Z"/>
    <path class="st11" d="M862.13,371.74c2.24,1.38,4.09,3.25,5.92,5.13,1.75-1.83,3.6-3.55,5.61-5.08.45.58,1.33,1.74,1.78,2.32-1.52,1.62-3.14,3.15-4.41,4.97.63,1.78,2.45,2.82,3.52,4.35,1.32,1.23-.75,2.53-1.36,3.45-1.67-1.71-3.22-3.57-5.22-4.89-1.91,1.45-3.44,3.33-5.09,5.06-.47-.53-1.4-1.6-1.86-2.13.47-2.43,3.26-3.59,4.07-5.9-1.44-2.3-5.54-4.28-2.96-7.28Z"/>
    <path class="st11" d="M672.46,415.54c54.53.3,109.07,0,163.61.16,18.24-.11,36.49.19,54.73-.18.45,22.92.08,45.86.19,68.79-68.98,0-137.96-.03-206.94.01-3.92,0-7.84.18-11.74-.27.3-22.84-.1-45.68.15-68.51M864.46,434.55c-6.15,1.61-11.32,7.04-11.75,13.52-1.02,7.13,3.52,14.4,10.31,16.72,9.57,3.81,21.13-4.51,20.65-14.78.41-9.7-9.8-17.95-19.21-15.46Z"/>
    <path class="st11" d="M873.39,442.18c.75.88,1.5,1.77,2.29,2.66-1.67,1.56-3.36,3.1-5.08,4.6,1.39,2.12,3.17,3.94,5.03,5.66-.82.76-1.69,1.44-2.63,2.03-1.85-1.38-3.37-3.11-4.95-4.76-1.87,1.53-3.26,4.38-5.86,4.56-2.93-2.6,1.85-4.92,3.24-6.98-1.65-1.72-3.28-3.44-4.92-5.15.76-.81,1.53-1.61,2.31-2.41,1.68,1.76,3.44,3.46,5.23,5.13,1.78-1.78,3.57-3.55,5.34-5.34Z"/>
  </g>
  <g id="_x23_077807ff">
    <path class="st10" d="M422.55,152.6c8.94-1.93,18.42,5.19,18.98,14.31,1.1,9.96-9.22,19.03-19,16.46-8.34-1.51-14.41-10.8-12.05-19.03,1.35-5.82,6.25-10.5,12.07-11.74M422.94,170.61c-1.53-1.57-3.08-3.1-4.65-4.63-.83.77-1.66,1.54-2.48,2.3,2.29,2.54,4.77,4.89,7.2,7.3,4.37-4.06,8.42-8.46,12.6-12.71-.86-.87-1.73-1.73-2.58-2.59-3.2,3.6-6.57,7.05-10.09,10.33Z"/>
    <path class="st10" d="M421.95,223.16c8.64-2.51,18.07,4.1,19.4,12.79,1.87,8.98-6.17,18.46-15.31,18.18-7.02.22-13.62-4.84-15.44-11.58-2.47-8.13,2.99-17.58,11.35-19.39M422.99,240.71c-1.51-1.53-3.03-3.04-4.57-4.51-.91.68-1.8,1.37-2.7,2.07,2.25,2.66,4.82,5.02,7.31,7.47,4.19-4.24,8.57-8.29,12.48-12.79-.77-.76-1.62-1.4-2.55-1.92-3.59,2.92-6.51,6.59-9.97,9.68Z"/>
    <path class="st10" d="M422.31,293.49c9.88-2.87,19.96,6.66,19.23,16.5-.26,5.21-3.63,9.83-7.88,12.63-4.2,2.39-9.47,2.54-13.96.89-6.55-2.78-10.72-10.35-9.42-17.36,1.25-6,5.98-11.28,12.03-12.66M423.04,311.41c-1.44-1.45-2.78-3.03-4.41-4.26-1.18-.62-1.89,1.05-2.55,1.75,1.78,2.77,4.45,4.94,6.91,7.13,4.48-3.06,7.94-7.54,11.61-11.53,1.18-1.17-1.06-2.25-1.5-3.2-3.39,3.34-6.83,6.62-10.06,10.11Z"/>
    <path class="st10" d="M421.25,364.38c10.09-3.71,21.78,6.12,20.21,16.65-.73,9.96-12.25,17.22-21.53,13.17-8.64-3.07-12.5-14.34-7.93-22.2,1.99-3.56,5.36-6.36,9.25-7.62M422.97,381.92c-1.83-1.33-3.34-3.02-4.91-4.62-.48.9-2.75,2-1.58,3.22,1.95,2.29,4.11,4.42,6.42,6.36,1.4-.36,2.24-1.75,3.29-2.66,2.86-3.21,6.24-5.96,8.72-9.49-.25-1-.62-1.96-1.1-2.87-4.19,2.69-6.75,7.24-10.84,10.06Z"/>
    <path class="st10" d="M422.36,434.53c9.02-2.44,19.11,5.14,19.11,14.55.67,8.22-6.21,16.17-14.47,16.52-6.94.69-14.07-3.97-16.13-10.65-3.01-8.38,2.87-18.5,11.49-20.42M423,452.72c-1.6-1.65-3.24-3.24-4.89-4.83-.78.92-1.5,1.88-2.28,2.79,2.52,2.23,4.85,4.67,7.25,7.05,4.18-4.27,8.46-8.45,12.59-12.77-.85-.83-1.71-1.65-2.56-2.46-3.44,3.33-6.64,6.91-10.11,10.22Z"/>
  </g>
  <g id="_x23_b70404ff">
    <path class="st0" d="M862.41,153.51c9.23-4.21,21.11,3.26,21.36,13.38.88,8.77-6.97,17.17-15.78,16.78-9.09.4-16.8-8.64-15.39-17.54.33-5.78,4.49-10.66,9.81-12.62M860.98,163.01c1.34,1.84,3.04,3.37,4.65,4.99-1.71,1.65-3.36,3.36-5.02,5.05.87.57,1.68,2.38,2.96,1.61,1.68-1.3,3.01-2.96,4.46-4.5,1.4,1.51,2.68,3.17,4.32,4.45,1.23,1.07,2.18-.65,2.7-1.57-1.27-1.93-3.04-3.46-4.65-5.09,1.7-1.74,3.44-3.45,5.25-5.09-.85-.88-1.68-1.77-2.5-2.65-1.7,1.79-3.4,3.57-5.08,5.36-1.71-1.76-3.43-3.5-5.16-5.23-.7.85-1.34,1.74-1.93,2.67Z"/>
    <path class="st0" d="M863.18,223.41c8.8-3.22,19.3,3.35,20.44,12.59,1.65,9.03-6.27,18.61-15.59,18-8.11.34-15.71-6.77-15.43-14.98-.68-6.91,4.16-13.46,10.58-15.61M860.97,232.94c.75,2.25,3.09,3.52,4.66,5.21-1.38,1.45-2.83,2.83-4.12,4.34-1.41,1.19.88,2.49,1.38,3.48,1.69-1.61,3.1-3.59,5.1-4.86,1.97,1.3,3.45,3.2,5.13,4.85.57-.99,2.73-2.27,1.37-3.53-1.22-1.52-2.61-2.89-3.91-4.33,1.73-1.59,3.43-3.24,5.08-4.93-.52-.59-1.56-1.79-2.08-2.38-2.11,1.31-3.92,3.02-5.58,4.84-1.45-1.47-2.79-3.05-4.41-4.3-1.33-.71-2.13.61-2.62,1.61Z"/>
    <path class="st0" d="M865.21,293.38c5.3-1.04,11.03.76,14.52,4.95,6.84,6.95,4.63,19.9-4.04,24.33-9.33,5.65-23.27-1.63-23.09-12.74-.84-7.73,5.02-15.23,12.61-16.54M873.46,301.07c-1.86,1.8-3.75,3.57-5.93,4.98-1.49-1.68-3.05-3.28-4.68-4.82-.49.89-2.62,2.12-1.18,3.18,1.01,1.52,3.35,2.56,3.26,4.55-1.27,1.83-2.89,3.37-4.37,5.02.89.61,1.67,2.42,3.01,1.64,1.7-1.29,2.96-3.03,4.36-4.62,1.8,1.94,3.63,3.89,5.88,5.34.26-1.11,1.86-2.64.59-3.67-1.3-1.4-2.62-2.78-3.64-4.39,1.44-1.36,3.03-2.64,4.1-4.34.27-1.18-.93-1.93-1.4-2.87Z"/>
    <path class="st0" d="M863.3,364.47c8.98-3.25,19.78,3.9,20.31,13.43.97,7.86-4.86,15.64-12.62,17.05-8.61,1.96-17.98-5.05-18.32-13.94-1.03-7.17,3.75-14.43,10.63-16.54M862.13,371.74c-2.58,3,1.52,4.98,2.96,7.28-.81,2.31-3.6,3.47-4.07,5.9.46.53,1.39,1.6,1.86,2.13,1.65-1.73,3.18-3.61,5.09-5.06,2,1.32,3.55,3.18,5.22,4.89.61-.92,2.68-2.22,1.36-3.45-1.07-1.53-2.89-2.57-3.52-4.35,1.27-1.82,2.89-3.35,4.41-4.97-.45-.58-1.33-1.74-1.78-2.32-2.01,1.53-3.86,3.25-5.61,5.08-1.83-1.88-3.68-3.75-5.92-5.13Z"/>
    <path class="st0" d="M864.46,434.55c9.41-2.49,19.62,5.76,19.21,15.46.48,10.27-11.08,18.59-20.65,14.78-6.79-2.32-11.33-9.59-10.31-16.72.43-6.48,5.6-11.91,11.75-13.52M873.39,442.18c-1.77,1.79-3.56,3.56-5.34,5.34-1.79-1.67-3.55-3.37-5.23-5.13-.78.8-1.55,1.6-2.31,2.41,1.64,1.71,3.27,3.43,4.92,5.15-1.39,2.06-6.17,4.38-3.24,6.98,2.6-.18,3.99-3.03,5.86-4.56,1.58,1.65,3.1,3.38,4.95,4.76.94-.59,1.81-1.27,2.63-2.03-1.86-1.72-3.64-3.54-5.03-5.66,1.72-1.5,3.41-3.04,5.08-4.6-.79-.89-1.54-1.78-2.29-2.66Z"/>
  </g>
  <g id="_x23_d18b3aff">
    <path class="st7" d="M645.68,154.74c1.2-2.04,4.35-1.29,5.06.81,4.19,7.39,8.57,14.67,12.76,22.06,1.01,1.34.43,3.07-.91,3.91-4.16.69-8.41.26-12.6.36-5.82-.12-11.69.39-17.44-.67-.6-4.04,2.2-7.29,4.01-10.59,3.2-5.21,5.73-10.8,9.12-15.88M635.88,178.82c8.04-.46,16.1-.2,24.15-.09-3.2-7.64-7.85-14.63-12.32-21.59-3.65,7.38-8.74,14-11.83,21.68Z"/>
    <path class="st7" d="M645.98,162.8c1.29.05,2.59.11,3.9.16-.07,3.02.26,6.18-.84,9.07-.53,0-1.58-.03-2.11-.04-.93-2.97-.88-6.12-.95-9.19Z"/>
    <path class="st7" d="M646.11,174.17c.47-.46,1.41-1.38,1.88-1.84.88.96,2.61,1.92,1.97,3.52-.88,2.54-5.26.86-3.85-1.68Z"/>
    <path class="st7" d="M645.42,225.49c.7-1.97,3.86-2.48,4.78-.44,4.48,7.51,8.81,15.12,13.13,22.72,1.01,1.34.31,2.94-.18,4.32-9.7-.16-19.4.08-29.09-.09-1.95.13-2.68-2.22-1.63-3.63,4.08-7.77,8.64-15.28,12.99-22.88M647.4,228.26c-4.03,6.77-7.92,13.64-11.64,20.58,8.19.11,16.38.12,24.57.14-3.63-7.06-7.94-13.79-11.88-20.67-.27,0-.79-.04-1.05-.05Z"/>
    <path class="st7" d="M645.95,232.93c1.27.06,2.54.12,3.83.2.06,2.62.27,5.26-.06,7.88.2,2.08-3.53,2.07-3.41.04-.45-2.68-.33-5.42-.36-8.12Z"/>
    <path class="st7" d="M646.3,244.22c1.25-1.28,4.5-.45,3.63,1.76-.24,2.79-5.55.69-3.63-1.76Z"/>
    <path class="st7" d="M452.02,274.54c73.08-.15,146.17-.08,219.25-.01l-.81.06c-5.82.48-11.66.31-17.49.26-20.63-.16-41.25-.11-61.87.11-18.02-.93-36.05.58-54.07-.3-23.34.29-46.69.08-70.03.2-5,.11-10,.16-14.98-.32Z"/>
    <path class="st7" d="M645.67,295.58c.9-1.84,3.79-1.83,4.66.04,4.62,7.77,8.9,15.75,13.43,23.58,1.44,2.41-1.69,4.27-3.81,3.84-8.98-.31-17.96-.09-26.93-.24-2-3.34.89-6.37,2.38-9.23,3.48-5.96,6.6-12.14,10.27-17.99M647.71,298.33c-4.24,7.07-8.17,14.35-12.44,21.42,8.5.29,17.01.12,25.5-.09-3.99-6.28-7.69-12.74-11.29-19.24-.57-.71-.73-1.99-1.77-2.09Z"/>
    <path class="st7" d="M645.86,303.65c1.4,0,2.81,0,4.22,0-.07,3.11.52,6.49-1.02,9.36-.54-.01-1.62-.02-2.16-.03-.99-3-.94-6.2-1.04-9.32Z"/>
    <path class="st7" d="M647.02,314.03c2.59-1.14,4.28,2.67,1.92,4-2.55.89-4.12-2.62-1.92-4Z"/>
    <path class="st7" d="M645.44,366.51c.72-1.81,3.46-2.38,4.47-.53,4.94,7.62,9.27,15.6,13.62,23.56,1.38,1.84-.48,4.2-2.6,3.7-9.36.04-18.74.11-28.1-.1-.98-1.89-.64-3.99.59-5.67,4.19-6.88,7.9-14.04,12.02-20.96M647.38,369.36c-4,6.73-7.89,13.56-11.34,20.59,8.05.25,16.11.31,24.15.04-2.08-4.56-5.1-8.59-7.44-13.01-1.45-2.55-2.59-5.27-4.33-7.64-.26.01-.78.01-1.04.02Z"/>
    <path class="st7" d="M645.88,374.68c.56-.21,1.67-.63,2.22-.85,2.66.19,1.87,3.39,1.9,5.2-.06,1.85-.2,5.53-3.09,4.23-.61-2.83-.55-5.73-1.03-8.58Z"/>
    <path class="st7" d="M646.03,386.96c-.91-2.51,2.34-2.41,3.87-2.16.02.87.05,2.59.07,3.46-1.21-.25-4.05.8-3.94-1.3Z"/>
    <path class="st7" d="M452.01,415.6c72.9-.25,145.8.04,218.7-.15l.02.31c-28.22.25-56.44-.26-84.66.07-23.36-.27-46.72-.03-70.08-.04-21.33-.28-42.66.35-63.98-.19Z"/>
    <path class="st7" d="M646.09,435.7c3.82-1.49,5.34,2.86,6.82,5.46,3.65,7.03,8.33,13.54,11.39,20.86-1.32.81-2.61,1.94-4.27,1.74-8.36-.06-16.74.21-25.09-.01-2.06.17-3.35-2.29-2.33-3.97,4.38-8.08,9.16-15.96,13.48-24.08M646.89,441.03c-3.57,6.66-8.06,12.85-11.07,19.79,8.05-.11,16.1.07,24.14-.19-2.66-6.27-6.58-11.91-9.77-17.91-.75-1.09-2.17-4.18-3.3-1.69Z"/>
    <path class="st7" d="M669.83,439.87c.23-.16.69-.48.92-.64.03,15.28.13,30.57-.08,45.85-14.19-.69-28.42-.13-42.63-.29-57.02-.07-114.04.04-171.06-.06-1.99.03-3.96.45-5.88.89l.91-1.52c14.65-.44,29.32-.11,43.98-.19,58.15-.04,116.3.02,174.44-.03.22-12.31.07-24.62.14-36.93,0-2.38-.34-4.75-.74-7.08Z"/>
    <path class="st7" d="M645.83,444.82c1.4-.52,2.85-.55,4.28-.06-.25,2.99.37,6.26-1.01,9.04-.55.1-1.66.32-2.21.43-.33-3.14-.62-6.29-1.06-9.41Z"/>
    <path class="st7" d="M647.96,459.07c-2.55-.06-2.72-4.18-.04-4.18.63.23,1.9.69,2.53.93-.76,1.02-.71,3.4-2.49,3.25Z"/>
  </g>
  <g class="st2">
    <g class="st2">
      <g class="st2">
        <text class="st3" transform="translate(45.06 169.48)"><tspan x="0" y="0">Correctness</tspan></text>
      </g>
    </g>
  </g>
  <g class="st2">
    <g class="st2">
      <g class="st2">
        <text class="st3" transform="translate(35.76 246.3)"><tspan x="0" y="0">Completeness</tspan></text>
      </g>
    </g>
  </g>
  <g class="st2">
    <g class="st2">
      <g class="st2">
        <text class="st3" transform="translate(69.44 318.72)"><tspan x="0" y="0">Clarity</tspan></text>
      </g>
    </g>
  </g>
  <g class="st2">
    <g class="st2">
      <g class="st2">
        <text class="st3" transform="translate(69.17 392.69)"><tspan x="0" y="0">Format</tspan></text>
      </g>
    </g>
  </g>
  <g class="st2">
    <g class="st2">
      <g class="st2">
        <text class="st3" transform="translate(44.84 467.33)"><tspan x="0" y="0">Risk Control</tspan></text>
      </g>
    </g>
  </g>
  <g class="st2">
    <g class="st2">
      <g class="st2">
        <text class="st3" transform="translate(275.03 169.22)"><tspan x="0" y="0">correct </tspan></text>
      </g>
    </g>
  </g>
  <g class="st2">
    <g class="st2">
      <g class="st2">
        <text class="st3" transform="translate(266.63 241.87)"><tspan x="0" y="0">complete</tspan></text>
      </g>
    </g>
  </g>
  <g class="st2">
    <g class="st2">
      <g class="st2">
        <text class="st3" transform="translate(284.75 318.06)"><tspan x="0" y="0">clear </tspan></text>
      </g>
    </g>
  </g>
  <g class="st2">
    <g class="st2">
      <g class="st2">
        <text class="st3" transform="translate(262.37 393.62)"><tspan x="0" y="0">consistent</tspan></text>
      </g>
    </g>
  </g>
  <g class="st2">
    <g class="st2">
      <g class="st2">
        <text class="st3" transform="translate(290.18 463.17)"><tspan x="0" y="0">safe</tspan></text>
      </g>
    </g>
  </g>
  <g class="st2">
    <g class="st2">
      <g class="st2">
        <text class="st3" transform="translate(482.03 171.64)"><tspan x="0" y="0">minor issues </tspan></text>
      </g>
    </g>
  </g>
  <g class="st2">
    <g class="st2">
      <g class="st2">
        <text class="st3" transform="translate(463.92 244.29)"><tspan x="0" y="0">partially missing</tspan></text>
      </g>
    </g>
  </g>
  <g class="st2">
    <g class="st2">
      <g class="st2">
        <text class="st3" transform="translate(469.89 320.48)"><tspan x="0" y="0">slightly unclear</tspan></text>
      </g>
    </g>
  </g>
  <g class="st2">
    <g class="st2">
      <g class="st2">
        <text class="st3" transform="translate(465.77 386.84)"><tspan x="0" y="0">minor deviation</tspan></text>
      </g>
    </g>
  </g>
  <g class="st2">
    <g class="st2">
      <g class="st2">
        <text class="st3" transform="translate(458.34 458.11)"><tspan x="0" y="0">unclear boundary</tspan></text>
      </g>
    </g>
  </g>
  <g class="st2">
    <g class="st2">
      <g class="st2">
        <text class="st3" transform="translate(727.29 171.39)"><tspan x="0" y="0">incorrect</tspan></text>
      </g>
    </g>
  </g>
  <g class="st2">
    <g class="st2">
      <g class="st2">
        <text class="st3" transform="translate(694.57 244.04)"><tspan x="0" y="0">critical missing</tspan></text>
      </g>
    </g>
  </g>
  <g class="st2">
    <g class="st2">
      <g class="st2">
        <text class="st3" transform="translate(721.7 320.23)"><tspan x="0" y="0">confusing</tspan></text>
      </g>
    </g>
  </g>
  <g class="st2">
    <g class="st2">
      <g class="st2">
        <text class="st3" transform="translate(711.5 395.79)"><tspan x="0" y="0">inconsistent</tspan></text>
      </g>
    </g>
  </g>
  <g class="st2">
    <g class="st2">
      <g class="st2">
        <text class="st3" transform="translate(735.48 463.83)"><tspan x="0" y="0">unsafe</tspan></text>
      </g>
    </g>
  </g>
  <g class="st2">
    <g class="st2">
      <g class="st2">
        <text class="st1" transform="translate(56.06 102.2)"><tspan x="0" y="0">Dimension</tspan></text>
      </g>
    </g>
  </g>
  <g class="st2">
    <g class="st2">
      <g class="st2">
        <text class="st1" transform="translate(290.42 102.2)"><tspan x="0" y="0">Accept</tspan></text>
      </g>
    </g>
  </g>
  <g class="st2">
    <g class="st2">
      <g class="st2">
        <text class="st1" transform="translate(527.65 104.62)"><tspan x="0" y="0">Revise</tspan></text>
      </g>
    </g>
  </g>
  <g class="st2">
    <g class="st2">
      <g class="st2">
        <text class="st1" transform="translate(752.06 104.37)"><tspan x="0" y="0">Reject</tspan></text>
      </g>
    </g>
  </g>
  <g class="st2">
    <g class="st2">
      <g class="st2">
        <text class="st4" transform="translate(333.68 45.72)"><tspan x="0" y="0">QA Decision Table</tspan></text>
      </g>
    </g>
  </g>
</svg>