<?xml version="1.0" encoding="UTF-8"?>
<svg id="_图层_1" data-name="图层_1" xmlns="http://www.w3.org/2000/svg" version="1.1" viewBox="0 0 900 503">
  <!-- Generator: Adobe Illustrator 29.6.0, SVG Export Plug-In . SVG Version: 2.1.1 Build 207)  -->
  <defs>
    <style>
      .st0 {
        font-size: 27px;
      }

      .st0, .st1, .st2, .st3, .st4, .st5, .st6, .st7 {
        isolation: isolate;
      }

      .st0, .st1, .st5, .st6 {
        font-family: TimesNewRomanPS-BoldMT, 'Times New Roman';
        font-weight: 700;
      }

      .st8 {
        fill: #f5c33e;
      }

      .st1 {
        font-size: 19px;
      }

      .st9 {
        fill: #6bb82d;
      }

      .st10 {
        fill: #ee8313;
      }

      .st11 {
        fill: #fefffe;
      }

      .st2, .st4, .st12, .st7 {
        font-family: TimesNewRomanPSMT, 'Times New Roman';
      }

      .st2, .st5, .st6 {
        font-size: 15px;
      }

      .st13 {
        fill: #3a7cc4;
      }

      .st14 {
        fill: #85258f;
      }

      .st4 {
        font-size: 11px;
      }

      .st5 {
        fill: #fff;
      }

      .st15 {
        fill: #fef0c4;
      }

      .st16 {
        fill: #0a3219;
      }

      .st12, .st7 {
        font-size: 9px;
      }
    </style>
  </defs>
  <path class="st16" d="M0,0h.16s-.12.1-.16.13v-.13Z"/>
  <path class="st9" d="M665.27,116c.9-.59,1.58-1.66,2.76-1.72,5.52-.03,11.04.07,16.57.14-.17,4.85-.2,9.71-.13,14.57.08,1.79-.51,4.21-2.53,4.65-4.31.25-8.63.12-12.94.11-1.48.06-3.34-.39-3.67-2.07-.28-5.22-.08-10.45-.06-15.68M674.2,125.43c-.51.15-1.53.45-2.04.6-.57-1.04-.89-2.14-.94-3.31-.96.01-2.89.03-3.86.04,1.56,2.5,4.3,4.64,4.41,7.78h1.5c2.43-4.36,6.06-8.4,7.4-13.16l-2.35.22c-1.5,2.54-2.81,5.19-4.12,7.83Z"/>
  <path class="st16" d="M367.36,121.42c2.73-1.71,6.55,1.44,5.35,4.47-.67,3.38-5.96,3.5-6.98.29-.98-1.7-.11-3.99,1.63-4.76Z"/>
  <path class="st16" d="M48.23,139.49c2.85-2.75,7.68,1.35,5.71,4.61-1.1,2.87-5.77,2.48-6.78-.27-.84-1.51-.2-3.32,1.07-4.34Z"/>
  <path class="st16" d="M367.11,142.11c2.24-1.36,5.59.07,5.71,2.82.38,2.82-3.06,5.43-5.51,3.66-2.39-1.3-2.65-5.1-.2-6.48Z"/>
  <path class="st16" d="M367.34,162.41c2.7-1.87,6.61,1.41,5.3,4.43-.57,2.72-4.16,3.59-6,1.57-1.96-1.56-1.54-4.93.7-6Z"/>
  <path class="st16" d="M48.19,178.4c2.9-2.93,7.71,1.33,5.78,4.68-.92,2.38-4.42,2.77-6.03.91-1.66-1.46-1.47-4.27.25-5.59Z"/>
  <path class="st16" d="M675.04,181.06c.7.04,2.11.13,2.81.17-.05,3.26-.44,6.51-.78,9.75-.35-.17-1.07-.52-1.42-.7-.41-3.05-.47-6.14-.61-9.22Z"/>
  <path class="st16" d="M493.64,184.44h.96c.94.37,1.9.77,2.83,1.2,4.06,2.1,8.06,4.33,12.2,6.31-1.35,1.16-2.76,2.24-4.16,3.32,30.28,35.47,60.58,70.95,90.75,106.53,8.31,10.1,17.2,19.73,25.13,30.15,1.42-1.18,2.9-2.31,4.37-3.43,1.57,5.55,3.69,10.92,5.65,16.34h-1.05c-5.04-2.53-9.97-5.28-14.77-8.21,1.39-1.04,2.8-2.06,4.21-3.08-38.88-45.37-77.25-91.17-116.36-136.34-1.39,1.17-2.79,2.33-4.18,3.49-1.35-4.36-2.91-8.65-4.31-12.99-.4-1.11-.84-2.2-1.27-3.29Z"/>
  <path class="st16" d="M418.57,185.57c1-.41,2.04-.73,3.11-.96-.23.63-.67,1.91-.89,2.55-1.49,4.61-3.27,9.14-4.37,13.87-1.54-.84-2.91-1.94-4.21-3.1-36.14,45.12-72.5,90.06-108.52,135.28,1.15,1.2,2.37,2.35,3.64,3.45-3.27,1.86-6.53,3.72-9.72,5.68-1.56.84-3.53,2.4-5.21.91,2.21-4.74,3.31-9.9,4.86-14.87,1.42,1.04,2.83,2.1,4.22,3.2,16.79-21.48,34.2-42.47,51.15-63.83,19.03-23.93,38.46-47.53,57.29-71.61-1.32-1.07-2.64-2.14-3.96-3.19,2.52-1.41,5.02-2.84,7.5-4.32,1.71-1.01,3.39-2.05,5.11-3.06Z"/>
  <path class="st16" d="M675.34,192.46c1.09-.48,1.97-.23,2.64.75.57,1.25-1.05,1.75-1.76,2.36-.89-.9-1.89-1.86-.88-3.11Z"/>
  <path class="st16" d="M49.11,237.08c2.51-1.12,5.85,1.15,5.24,3.98.12,3.16-4.67,4.27-6.49,2.02-2.13-1.72-.91-4.94,1.25-6Z"/>
  <path class="st16" d="M125.18,394.03c4.27-1.85,7.23,5.29,2.94,6.96-4.48,2.19-7.38-5.13-2.94-6.96Z"/>
  <path class="st16" d="M624.29,394.16c2.47-1.26,5.65,1.2,5.07,3.92.21,3.05-4.15,4.38-6.13,2.39-2.27-1.62-1.33-5.32,1.06-6.31Z"/>
  <path class="st16" d="M311.87,408.33c5.02-2.44,10.35-4.14,15.5-6.28.01,1.75.03,3.51.05,5.27,88.76-.01,177.51-.07,266.27-.01-.03-1.77-.04-3.53-.04-5.29,5.4,2.04,10.87,3.96,16.07,6.51-.33.16-1,.5-1.34.67-4.78,2.3-9.86,3.91-14.74,5.98-.02-1.71-.01-3.42.01-5.13-55.22.02-110.44,0-165.66.02-33.52-.09-67.04.18-100.55-.16-.01,1.71-.01,3.42,0,5.14-4.9-1.73-9.7-3.71-14.51-5.67-.28-.12-.82-.37-1.09-.49l.03-.56Z"/>
  <path class="st16" d="M124.44,414.43c2.42-2.14,6.51.64,5.73,3.67.02,2.7-3.8,4.19-5.7,2.32-2.01-1.39-1.99-4.59-.03-5.99Z"/>
  <path class="st16" d="M623.48,414.45c1.99-1.75,5.73-.4,5.8,2.39.94,3.17-3.35,5.7-5.77,3.69-2.19-1.31-2.03-4.69-.03-6.08Z"/>
  <path class="st16" d="M623.17,434.33c2.18-2.14,6.26-.41,6.17,2.64.48,3.13-4.03,5.3-6.14,2.9-1.84-1.34-1.64-4.1-.03-5.54Z"/>
  <g id="_x23_fefffeff">
    <path class="st11" d="M.16,0h899.84v503H0V.13s.12-.1.16-.13M352.69,80.85c-1.1,10.34.84,20.88-1.25,31.12-.05,21.69.01,43.38-.03,65.07-.13,4.56,3.11,8.48,7.08,10.33,6.48.44,13.02,1.63,19.5.47,2.95,1.11,5.99.07,8.97-.27,4.11-.07,8.3-.35,12.3.77,4.56-.7,9.93-1.98,14.2.29-2.48,1.48-4.98,2.91-7.5,4.32,1.32,1.05,2.64,2.12,3.96,3.19-18.83,24.08-38.26,47.68-57.29,71.61-16.95,21.36-34.36,42.35-51.15,63.83-1.39-1.1-2.8-2.16-4.22-3.2-1.55,4.97-2.65,10.13-4.86,14.87,1.68,1.49,3.65-.07,5.21-.91,3.19-1.96,6.45-3.82,9.72-5.68-1.27-1.1-2.49-2.25-3.64-3.45,36.02-45.22,72.38-90.16,108.52-135.28,1.3,1.16,2.67,2.26,4.21,3.1,1.1-4.73,2.88-9.26,4.37-13.87,4.36.84,8.81.29,13.22.43,20.3.11,40.6-.21,60.9.14,1.4,4.34,2.96,8.63,4.31,12.99,1.39-1.16,2.79-2.32,4.18-3.49,39.11,45.17,77.48,90.97,116.36,136.34-1.41,1.02-2.82,2.04-4.21,3.08,4.8,2.93,9.73,5.68,14.77,8.2-4.15.57-8.32-.12-12.44.3-4.99.45-8.85,5.38-8.25,10.31-.71,5.47-.19,11.01-.35,16.51.23,12.18-.6,24.4.44,36.56-5.2-2.55-10.67-4.47-16.07-6.51,0,1.76,0,3.52.04,5.29-88.76-.06-177.51,0-266.27.01-.02-1.76-.04-3.52-.05-5.27-5.15,2.14-10.48,3.84-15.5,6.28l-.03.56-.65.07c.18-15.99.04-31.99.1-47.99-.03-3,.1-6.02-.32-8.99-1.12-4.76-6.31-7.54-10.97-7.09-59.99.06-119.98,0-179.97.03-4.98-.14-9.88,3.84-9.77,9.02-.18,23,0,46.01-.07,69.01.03,2.74-.09,5.77,1.73,8.03.76,2.79,2.66,5.48,5.44,6.51,3.18.6,6.44.21,9.66.28,58.01.01,116.02-.04,174.03.01,4.27.01,8.01-2.97,10.35-6.33,1.04-7.26-1.05-15.02,1.53-22.07,4.81,1.96,9.61,3.94,14.51,5.67-.01-1.72-.01-3.43,0-5.14,33.51.34,67.03.07,100.55.16,55.22-.02,110.44,0,165.66-.02-.02,1.71-.03,3.42-.01,5.13,4.88-2.07,9.96-3.68,14.74-5.98l.68.75c.45,12.37.13,24.77.27,37.15.11,1.29.01,2.68.66,3.87-.2,4.87,4.71,8.01,9,8.65,55.01.05,110.03.09,165.04.04,3.04-.36,5.58-2.37,8.44-3.34.94-2.35,2.09-4.73,2.07-7.32,0-26,.18-52.01-.05-78.02-.17-3-.98-5.96-.75-8.98-.13-2.72.57-5.6-.45-8.19-.07-1.27-.42-2.44-1.05-3.53-2.03-4.12-6.91-5.67-11.22-5.52-49.88.09-99.77-.09-149.65.1-1.96-5.42-4.08-10.79-5.65-16.34-1.47,1.12-2.95,2.25-4.37,3.43-7.93-10.42-16.82-20.05-25.13-30.15-30.17-35.58-60.47-71.06-90.75-106.53,1.4-1.08,2.81-2.16,4.16-3.32-4.14-1.98-8.14-4.21-12.2-6.31,2.2-1.6,5.01-.78,7.55-.96,11.46-.19,22.92.25,34.38-.07,4.45.08,7.88-4.42,7.95-8.58.04-29.67,0-59.35.05-89.02-.09-3.13.39-6.45-.97-9.38-1.54-3.55-5.55-5.51-9.3-5.41-58.06.01-116.12.01-174.17,0-4.93-.23-10.04,3.46-10.23,8.63M660.33,103.17c-2.87.96-5.6,3.51-5.52,6.74-.23,9.04.01,18.09-.07,27.12.09,4.51,3.22,10.08,8.28,9.84,63.67-.05,127.34.03,191.02-.05,5.53.14,10.72-5.24,10.19-10.83-.16-8.34.13-16.69-.06-25.03.06-4.25-3.68-8.64-8.16-8.06-53.32.05-106.64.02-159.97.01-11.9.17-23.84-.32-35.71.26M48.23,139.49c-1.27,1.02-1.91,2.83-1.07,4.34,1.01,2.75,5.68,3.14,6.78.27,1.97-3.26-2.86-7.36-5.71-4.61M661.4,158.53c-3.99,1.25-6.73,5.31-6.35,9.48.06,13,.03,26.01.14,39.01-.28,4.33,3.42,8.65,7.77,8.89,40.66.28,81.35-.27,122,.35,23.38-.7,46.79,0,70.18-.33,4.52.04,8.59-4.35,8.53-8.83.12-13.03,0-26.08.06-39.11.27-3.83-2.18-7.47-5.48-9.22-2.62-1-5.51-.58-8.24-.66-60.32,0-120.64,0-180.95,0-2.56.07-5.18-.28-7.66.42M48.19,178.4c-1.72,1.32-1.91,4.13-.25,5.59,1.61,1.86,5.11,1.47,6.03-.91,1.93-3.35-2.88-7.61-5.78-4.68M49.11,237.08c-2.16,1.06-3.38,4.28-1.25,6,1.82,2.25,6.61,1.14,6.49-2.02.61-2.83-2.73-5.1-5.24-3.98Z"/>
    <path class="st11" d="M656.25,109.94c-.06-3.43,3.57-5.8,6.73-5.78,64.34-.03,128.68.04,193.03-.01,4.22-.64,7.1,4.01,6.76,7.8-.14,8.35.13,16.71-.1,25.07-.02,3.05-2.46,6.18-5.7,5.96-42.66.03-85.31.01-127.97.01-23.26-.11-46.53.23-69.79-.16-1.68-1.92-3.37-4.14-3.05-6.86.11-8.67-.06-17.35.09-26.03M665.27,116c-.02,5.23-.22,10.46.06,15.68.33,1.68,2.19,2.13,3.67,2.07,4.31,0,8.63.14,12.94-.11,2.02-.44,2.61-2.86,2.53-4.65-.07-4.86-.04-9.72.13-14.57-5.53-.07-11.05-.17-16.57-.14-1.18.06-1.86,1.13-2.76,1.72Z"/>
    <path class="st11" d="M354.08,107.77c63.9-.02,127.79-.04,191.68,0,.01,22.4.01,44.8-.01,67.2.04,4.16-3.46,8.01-7.72,7.89-58.37.03-116.74-.04-175.11.03-3.07.23-6.33-1.34-7.65-4.2-1.64-3.34-.89-7.17-1.03-10.75-.1-20.05.19-40.12-.16-60.17M367.36,121.42c-1.74.77-2.61,3.06-1.63,4.76,1.02,3.21,6.31,3.09,6.98-.29,1.2-3.03-2.62-6.18-5.35-4.47M367.11,142.11c-2.45,1.38-2.19,5.18.2,6.48,2.45,1.77,5.89-.84,5.51-3.66-.12-2.75-3.47-4.18-5.71-2.82M367.34,162.41c-2.24,1.07-2.66,4.44-.7,6,1.84,2.02,5.43,1.15,6-1.57,1.31-3.02-2.6-6.3-5.3-4.43Z"/>
    <path class="st11" d="M674.2,125.43c1.31-2.64,2.62-5.29,4.12-7.83l2.35-.22c-1.34,4.76-4.97,8.8-7.4,13.17h-1.5c-.11-3.15-2.85-5.29-4.41-7.79.97-.01,2.9-.03,3.86-.04.05,1.17.37,2.27.94,3.31.51-.15,1.53-.45,2.04-.6Z"/>
    <path class="st11" d="M112.06,380.39c65.79.21,131.58-.12,197.36.18-.11,14.78.12,29.56,0,44.34.06,2.72-1.18,5.58-3.64,6.93-2.61,1.64-5.83.93-8.74,1.08-59,.02-118-.06-177,0-4.19.26-8.36-3.56-7.98-7.85-.15-14.89-.19-29.79,0-44.68M125.18,394.03c-4.44,1.83-1.54,9.15,2.94,6.96,4.29-1.67,1.33-8.81-2.94-6.96M124.44,414.43c-1.96,1.4-1.98,4.6.03,5.99,1.9,1.87,5.72.38,5.7-2.32.78-3.03-3.31-5.81-5.73-3.67Z"/>
    <path class="st11" d="M611.06,380.58c5.31-.25,10.64-.09,15.97-.13,54.8.06,109.61-.08,164.41.07-.49,19.47-.05,38.97-.14,58.45-.19,4.08.91,8.55-1.12,12.32-1.59,2.9-5.17,3.7-8.23,3.51-54.31,0-108.62-.02-162.93,0-3.97.3-7.51-3.2-7.62-7.1-.41-22.36.43-44.77-.34-67.12M624.29,394.16c-2.39.99-3.33,4.69-1.06,6.31,1.98,1.99,6.34.66,6.13-2.39.58-2.72-2.6-5.18-5.07-3.92M623.48,414.45c-2,1.39-2.16,4.77.03,6.08,2.42,2.01,6.71-.52,5.77-3.69-.07-2.79-3.81-4.14-5.8-2.39M623.17,434.33c-1.61,1.44-1.81,4.2.03,5.54,2.11,2.4,6.62.23,6.14-2.9.09-3.05-3.99-4.78-6.17-2.64Z"/>
  </g>
  <g id="_x23_3a7cc4ff">
    <path class="st13" d="M352.69,80.85c.19-5.17,5.3-8.86,10.23-8.63,58.05.01,116.11.01,174.17,0,3.75-.1,7.76,1.86,9.3,5.41,1.36,2.93.88,6.25.97,9.38-.05,29.67-.01,59.35-.05,89.02-.07,4.16-3.5,8.66-7.95,8.58-11.46.32-22.92-.12-34.38.07-2.54.18-5.35-.64-7.55.96-.93-.43-1.89-.83-2.83-1.2h-.96c-23.98.39-47.98.08-71.96.17-1.07.23-2.11.55-3.11.96-1.41-.77-3.01-.91-4.58-.89-17.58-.15-35.17,0-52.76-.07-3.08.14-5.94-1.84-7.27-4.56-1.86-3.04-1.19-6.72-1.29-10.09-.01-29.71.06-59.41.02-89.11M354.08,107.77c.35,20.05.06,40.12.16,60.17.14,3.58-.61,7.41,1.03,10.75,1.32,2.86,4.58,4.43,7.65,4.2,58.37-.07,116.74,0,175.11-.03,4.26.12,7.76-3.73,7.72-7.89.02-22.4.02-44.8.01-67.2-63.89-.04-127.78-.02-191.68,0Z"/>
  </g>
  <g id="_x23_fef0c4ff">
    <path class="st15" d="M351.44,111.97c2.09-10.24.15-20.78,1.25-31.12.04,29.7-.03,59.4-.02,89.11.1,3.37-.57,7.05,1.29,10.09,1.33,2.72,4.19,4.7,7.27,4.56,17.59.07,35.18-.08,52.76.07,1.57-.02,3.17.12,4.58.89-1.72,1.01-3.4,2.05-5.11,3.06-4.27-2.27-9.64-.99-14.2-.29-4-1.12-8.19-.84-12.3-.77-2.98.34-6.02,1.38-8.97.27-6.48,1.16-13.02-.03-19.5-.47-3.97-1.85-7.21-5.77-7.08-10.33.04-21.69-.02-43.38.03-65.07Z"/>
    <path class="st15" d="M660.33,103.17c11.87-.58,23.81-.09,35.71-.26,53.33,0,106.65.04,159.97-.01,4.48-.58,8.22,3.81,8.16,8.06.19,8.34-.1,16.69.06,25.03.53,5.59-4.66,10.97-10.19,10.83-63.68.08-127.35,0-191.02.05-5.06.24-8.19-5.33-8.28-9.84.08-9.03-.16-18.08.07-27.12-.08-3.23,2.65-5.78,5.52-6.74M656.25,109.94c-.15,8.68.02,17.36-.09,26.03-.32,2.72,1.37,4.94,3.05,6.86,23.26.39,46.53.05,69.79.16,42.66,0,85.31.02,127.97-.01,3.24.22,5.68-2.91,5.7-5.96.23-8.36-.04-16.72.1-25.07.34-3.79-2.54-8.44-6.76-7.8-64.35.05-128.69-.02-193.03.01-3.16-.02-6.79,2.35-6.73,5.78Z"/>
    <path class="st15" d="M661.21,160.02c2.83-.93,5.85-.38,8.76-.18,9.35.82,18.69-.58,28.04-.23,7.3.63,14.64.37,21.97.41,45.34-.04,90.69.07,136.03-.04,3.49-.04,6.28,3.73,5.97,7.07-.06,13.66.01,27.31-.03,40.96.13,3.7-3.58,6.69-7.09,6.76-63.3.04-126.6-.01-189.9.03-4.3.27-8.54-3.42-8.51-7.8-.03-13.33-.03-26.66,0-39.99-.15-3.06,2.13-5.73,4.76-6.99M675.31,177.04c-3.88,5.42-7.1,11.31-10.19,17.21-.74,1.21-.8,2.47-.2,3.79,7.67-.09,15.35.2,23.02-.18.52-1.23.47-2.42-.16-3.55-3.29-6.18-6.65-12.34-10.64-18.1-.46.21-1.37.62-1.83.83Z"/>
    <path class="st15" d="M421.68,184.61c23.98-.09,47.98.22,71.96-.17.43,1.09.87,2.18,1.27,3.29-20.3-.35-40.6-.03-60.9-.14-4.41-.14-8.86.41-13.22-.43.22-.64.66-1.92.89-2.55Z"/>
    <path class="st15" d="M793.29,353.81c1.02,2.59.32,5.47.45,8.19-.23,3.02.58,5.98.75,8.98.23,26.01.05,52.02.05,78.02.02,2.59-1.13,4.97-2.07,7.32-2.86.97-5.4,2.98-8.44,3.34-55.01.05-110.03.01-165.04-.04-4.29-.64-9.2-3.78-9-8.65,1.87,3.27,4.88,6.29,8.91,6.29,52.35.03,104.71.03,157.06,0,4.19-.12,8.86.9,12.57-1.63,3.05-1.71,4.66-5.23,4.57-8.65.14-31.06-.16-62.12.19-93.18Z"/>
    <path class="st15" d="M311.19,408.96l.65-.07c.27.12.81.37,1.09.49-2.58,7.05-.49,14.81-1.53,22.07-2.34,3.36-6.08,6.34-10.35,6.33-58.01-.05-116.02,0-174.03-.01-3.22-.07-6.48.32-9.66-.28-2.78-1.03-4.68-3.72-5.44-6.51,1.96,1.91,4.26,3.92,7.21,3.66,60.97.1,121.94,0,182.91.03,4.46.28,8.59-3.35,8.99-7.79.57-5.95,0-11.95.16-17.92Z"/>
  </g>
  <g id="_x23_f5c33eff">
    <path class="st8" d="M661.4,158.53c2.48-.7,5.1-.35,7.66-.42,60.31,0,120.63,0,180.95,0,2.73.08,5.62-.34,8.24.66,3.3,1.75,5.75,5.39,5.48,9.22-.06,13.03.06,26.08-.06,39.11.06,4.48-4.01,8.87-8.53,8.83-23.39.32-46.8-.37-70.18.33-40.65-.62-81.34-.07-122-.35-4.35-.24-8.05-4.56-7.77-8.89-.11-13-.08-26.01-.14-39.01-.38-4.17,2.36-8.23,6.35-9.48M661.21,160.02c-2.63,1.26-4.91,3.93-4.76,6.99-.03,13.33-.03,26.66,0,39.99-.03,4.38,4.21,8.07,8.51,7.8,63.3-.04,126.6,0,189.9-.03,3.51-.07,7.22-3.06,7.09-6.76.04-13.65-.03-27.3.03-40.96.31-3.34-2.48-7.11-5.97-7.07-45.34.11-90.69,0-136.03.04-7.33-.04-14.67.22-21.97-.41-9.35-.35-18.69,1.05-28.04.23-2.91-.2-5.93-.75-8.76.18Z"/>
    <path class="st8" d="M675.31,177.04c.46-.21,1.37-.62,1.83-.83,3.99,5.76,7.35,11.92,10.64,18.1.63,1.13.68,2.32.16,3.55-7.67.38-15.35.09-23.02.18-.6-1.32-.54-2.58.2-3.79,3.09-5.9,6.31-11.79,10.19-17.21M675.04,181.06c.14,3.08.2,6.17.61,9.22.35.18,1.07.53,1.42.7.34-3.24.73-6.49.78-9.75-.7-.04-2.11-.13-2.81-.17M675.34,192.46c-1.01,1.25-.01,2.21.88,3.11.71-.61,2.33-1.11,1.76-2.36-.67-.98-1.55-1.23-2.64-.75Z"/>
    <path class="st8" d="M792.24,350.28c.63,1.09.98,2.26,1.05,3.53-.35,31.06-.05,62.12-.19,93.18.09,3.42-1.52,6.94-4.57,8.65-3.71,2.53-8.38,1.51-12.57,1.63-52.35.02-104.71.02-157.06,0-4.03,0-7.04-3.02-8.91-6.29-.65-1.19-.55-2.58-.66-3.87-.14-12.38.18-24.78-.27-37.15l-.68-.75c.34-.17,1.01-.51,1.34-.67-1.04-12.16-.21-24.38-.44-36.56.16-5.5-.36-11.04.35-16.51,1.61,8.3-.86,16.99,1.43,25.12.77,22.35-.07,44.76.34,67.12.11,3.9,3.65,7.4,7.62,7.1,54.31-.02,108.62,0,162.93,0,3.06.19,6.64-.61,8.23-3.51,2.03-3.77.93-8.24,1.12-12.32.09-19.48-.35-38.98.14-58.45,1.18-10.04-.23-20.19.8-30.24Z"/>
  </g>
  <g id="_x23_85258fff">
    <path class="st14" d="M110.26,353.94c-.11-5.18,4.79-9.16,9.77-9.02,59.99-.03,119.98.03,179.97-.03,4.66-.45,9.85,2.33,10.97,7.09.42,2.97.29,5.99.32,8.99-.06,16,.08,32-.1,47.99-.16,5.97.41,11.97-.16,17.92-.4,4.44-4.53,8.07-8.99,7.79-60.97-.02-121.94.07-182.91-.03-2.95.26-5.25-1.75-7.21-3.66-1.82-2.26-1.7-5.29-1.73-8.03.08-23-.11-46.01.07-69.01M112.06,380.39c-.19,14.89-.15,29.79,0,44.68-.38,4.29,3.79,8.11,7.98,7.85,59-.06,118,.02,177,0,2.91-.15,6.13.56,8.74-1.08,2.46-1.35,3.7-4.21,3.64-6.93.12-14.78-.11-29.56,0-44.34-65.78-.3-131.57.03-197.36-.18Z"/>
  </g>
  <g id="_x23_ee8313ff">
    <path class="st10" d="M609.63,355.46c-.6-4.93,3.26-9.86,8.25-10.31,4.12-.42,8.29.27,12.44-.3h1.05c49.88-.18,99.77,0,149.65-.09,4.31-.15,9.19,1.4,11.22,5.52-1.03,10.05.38,20.2-.8,30.24-54.8-.15-109.61,0-164.41-.07-5.33.04-10.66-.12-15.97.13-2.29-8.13.18-16.82-1.43-25.12Z"/>
  </g>
  <g class="st3">
    <g class="st3">
      <g class="st3">
        <text class="st1" transform="translate(380.64 326.24)"><tspan x="0" y="0">Consistency = PASS</tspan></text>
      </g>
    </g>
  </g>
  <g class="st3">
    <g class="st3">
      <g class="st3">
        <text class="st2" transform="translate(133.79 399.5)"><tspan x="0" y="0">evaluation metrics</tspan></text>
      </g>
    </g>
  </g>
  <g class="st3">
    <g class="st3">
      <g class="st3">
        <text class="st2" transform="translate(136.58 420.53)"><tspan x="0" y="0">reports</tspan></text>
      </g>
    </g>
  </g>
  <g class="st3">
    <g class="st3">
      <g class="st3">
        <text class="st2" transform="translate(11.81 121.27)"><tspan x="0" y="0">Consistency over file existence</tspan></text>
      </g>
    </g>
  </g>
  <g class="st3">
    <g class="st3">
      <g class="st3">
        <text class="st2" transform="translate(13.15 219.25)"><tspan x="0" y="0">End-to-end validation</tspan></text>
      </g>
    </g>
  </g>
  <g class="st3">
    <g class="st3">
      <g class="st3">
        <text class="st2" transform="translate(60.5 146.06)"><tspan x="0" y="0">Consistency ensures existing codes </tspan><tspan x="0" y="18">and external files exist</tspan></text>
      </g>
    </g>
  </g>
  <g class="st3">
    <g class="st3">
      <g class="st3">
        <text class="st2" transform="translate(61.42 187.17)"><tspan x="0" y="0">Scientific alignment at code level</tspan></text>
      </g>
    </g>
  </g>
  <g class="st3">
    <g class="st3">
      <g class="st3">
        <text class="st2" transform="translate(60 243.57)"><tspan x="0" y="0">Continuous analysis, metrics </tspan><tspan x="0" y="18">validation sanity, and proper </tspan><tspan x="0" y="36">output orientations</tspan></text>
      </g>
    </g>
  </g>
  <g class="st3">
    <g class="st3">
      <g class="st3">
        <text class="st1" transform="translate(8.76 90.67)"><tspan x="0" y="0">Key insights</tspan></text>
      </g>
    </g>
  </g>
  <g class="st3">
    <g class="st3">
      <g class="st3">
        <text class="st0" transform="translate(246.61 41.26)"><tspan x="0" y="0">Code–Data–Metrics Validation Loop</tspan></text>
      </g>
    </g>
  </g>
  <g class="st3">
    <g class="st3">
      <g class="st3">
        <text class="st2" transform="translate(377.43 127.72)"><tspan x="0" y="0">scripts and checks</tspan></text>
      </g>
    </g>
  </g>
  <g class="st3">
    <g class="st3">
      <g class="st3">
        <text class="st2" transform="translate(378.51 148.11)"><tspan x="0" y="0">py_compile</tspan></text>
      </g>
    </g>
  </g>
  <g class="st3">
    <g class="st3">
      <g class="st3">
        <text class="st2" transform="translate(376.85 169.8)"><tspan x="0" y="0">evaluate_factory</tspan></text>
      </g>
    </g>
  </g>
  <g class="st3">
    <g class="st3">
      <g class="st3">
        <text class="st6" transform="translate(707.02 187.17)"><tspan x="0" y="0">Local correctness ≠ </tspan><tspan x="4.12" y="18">system correctness</tspan></text>
      </g>
    </g>
  </g>
  <g class="st3">
    <g class="st3">
      <g class="st3">
        <text class="st2" transform="translate(636.94 401.85)"><tspan x="0" y="0">train.jsonl</tspan></text>
      </g>
    </g>
  </g>
  <g class="st3">
    <g class="st3">
      <g class="st3">
        <text class="st2" transform="translate(638.06 424.04)"><tspan x="0" y="0">val.jsonl</tspan></text>
      </g>
    </g>
  </g>
  <g class="st3">
    <g class="st3">
      <g class="st3">
        <text class="st2" transform="translate(636.93 441.95)"><tspan x="0" y="0">preference pairs</tspan></text>
      </g>
    </g>
  </g>
  <g class="st3">
    <g class="st3">
      <g class="st3">
        <text/>
      </g>
    </g>
  </g>
  <g class="st3">
    <g class="st3">
      <g class="st3">
        <text class="st7" transform="translate(402.74 421.39)"><tspan x="0" y="0">preference_pairs_cover_accepted</tspan><tspan x="9.49" y="10.8">qa_reviews_cover_accepted</tspan></text>
      </g>
    </g>
  </g>
  <g class="st3">
    <g class="st3">
      <g class="st3">
        <text class="st4" transform="translate(311.53 293.36) rotate(-51.44)"><tspan x="0" y="0">train_val_no_overlap</tspan><tspan x="-5.8" y="13.2">report_matches_metrics</tspan></text>
      </g>
    </g>
  </g>
  <g class="st3">
    <g class="st3">
      <g class="st3">
        <text class="st4" transform="translate(556.16 217.79) rotate(52.19)"><tspan x="0" y="0">required_files_exist</tspan><tspan x="-1.23" y="13.2">seed_count_positive</tspan></text>
      </g>
    </g>
  </g>
  <text class="st12" transform="translate(388.15 404.37)"><tspan x="0" y="0">accepted_count_matches_seed_x_tasks</tspan></text>
  <g class="st3">
    <g class="st3">
      <g class="st3">
        <text class="st2" transform="translate(696.11 129.56)"><tspan x="0" y="0">13 / 13 checks passed</tspan></text>
      </g>
    </g>
  </g>
  <g class="st3">
    <g class="st3">
      <g class="st3">
        <text class="st5" transform="translate(144.66 370.02)"><tspan x="0" y="0">Metrics &amp; Reports</tspan></text>
      </g>
    </g>
  </g>
  <g class="st3">
    <g class="st3">
      <g class="st3">
        <text class="st5" transform="translate(655.38 369.61)"><tspan x="0" y="0" xml:space="preserve"> Data Artifacts</tspan></text>
      </g>
    </g>
  </g>
  <g class="st3">
    <g class="st3">
      <g class="st3">
        <text class="st5" transform="translate(430.4 96.09)"><tspan x="0" y="0" xml:space="preserve"> Code</tspan></text>
      </g>
    </g>
  </g>
</svg>