<?xml version="1.0" encoding="UTF-8"?>
<svg id="_图层_1" data-name="图层_1" xmlns="http://www.w3.org/2000/svg" version="1.1" viewBox="0 0 900 503">
  <!-- Generator: Adobe Illustrator 29.6.0, SVG Export Plug-In . SVG Version: 2.1.1 Build 207)  -->
  <defs>
    <style>
      .st0 {
        fill: #6fbf7c;
      }

      .st1 {
        fill: #ea9012;
      }

      .st2 {
        fill: #418b54;
      }

      .st3 {
        fill: #e98f12;
      }

      .st4 {
        fill: #d0d4d1;
      }

      .st5 {
        fill: #40a25a;
      }

      .st6 {
        fill: #418954;
      }

      .st7 {
        fill: #e7ecee;
      }

      .st8 {
        fill: #080809;
      }

      .st9 {
        fill: #c3d0dd;
      }

      .st10 {
        fill: #3fa159;
      }

      .st11 {
        fill: #eaeef0;
      }

      .st12 {
        fill: #3f85d8;
      }

      .st13 {
        font-family: TimesNewRomanPSMT, 'Times New Roman';
      }

      .st13, .st14, .st15, .st16, .st17 {
        isolation: isolate;
      }

      .st13, .st17 {
        font-size: 15px;
      }

      .st18 {
        fill: #3f9f58;
      }

      .st19 {
        fill: #418c55;
      }

      .st20 {
        fill: #0f1010;
      }

      .st21 {
        fill: #ec9313;
      }

      .st22 {
        fill: #c7862b;
      }

      .st15 {
        font-size: 24px;
      }

      .st15, .st16, .st17 {
        font-family: TimesNewRomanPS-BoldMT, 'Times New Roman';
        font-weight: 700;
      }

      .st23 {
        fill: #2b2b2b;
      }

      .st24 {
        fill: #3fa059;
      }

      .st25 {
        fill: #121314;
      }

      .st26 {
        fill: #93692e;
      }

      .st27 {
        fill: #3f824f;
      }

      .st28 {
        fill: #e9edef;
      }

      .st16 {
        font-size: 20px;
      }

      .st29 {
        fill: #09b212;
      }

      .st30 {
        fill: #1d1e1d;
      }

      .st31 {
        fill: #101011;
      }

      .st32 {
        fill: #101111;
      }

      .st33 {
        fill: #e2e4e3;
      }

      .st34 {
        fill: #131314;
      }

      .st35 {
        fill: #c48630;
      }

      .st36 {
        fill: #ecefee;
      }

      .st37 {
        fill: #1c2f2a;
      }

      .st38 {
        fill: #eb9213;
      }

      .st39 {
        fill: #41a35b;
      }

      .st40 {
        fill: #ed9313;
      }

      .st41 {
        fill: #eb9313;
      }

      .st42 {
        fill: #eb951b;
      }

      .st43 {
        fill: #e8edee;
      }

      .st44 {
        fill: #418151;
      }

      .st45 {
        fill: #797b7c;
      }

      .st46 {
        fill: #4487d5;
      }

      .st47 {
        fill: #1d1e1e;
      }

      .st48 {
        fill: #0f0e0f;
      }

      .st49 {
        fill: #936a31;
      }

      .st50 {
        fill: #3f7f50;
      }

      .st51 {
        fill: #419a58;
      }

      .st52 {
        fill: #e2e4e2;
      }

      .st53 {
        fill: #d4100d;
      }

      .st54 {
        fill: #875f23;
      }

      .st55 {
        fill: #4086d7;
      }
    </style>
  </defs>
  <g id="_x23_eaeef0ff">
    <path class="st11" d="M0,0h900v503H0V0M49.71,84.94c-1.54.21-3.43,0-4.09,1.78,1.33.11,2.66.21,3.99.3,1.08.86,1.91,2.26,3.39,2.47,1.94.63,3.17-1.42,4.44-2.48,4.48-.1,8.96-.01,13.44-.14-.03-.42-.07-1.27-.09-1.69-4.48-.11-8.96-.08-13.43-.13-1.08-1-1.94-2.53-3.54-2.67-1.87-.34-2.95,1.47-4.11,2.56M59.93,94.03c-4.72.11-9.44-.06-14.15.18.16.39.49,1.18.66,1.57,4.45.36,8.92.04,13.38.16,1.11,1.14,2.14,2.73,3.93,2.72,1.83.18,2.93-1.6,4.13-2.66.79-.02,2.37-.07,3.15-.1.03-.42.09-1.27.12-1.7-1.22-.1-2.45-.21-3.67-.32-1.04-.97-1.83-2.66-3.46-2.63-1.87-.03-2.94,1.59-4.09,2.78M51.15,102.8c-1.85.44-4.89-.65-5.4,1.91,1.77.11,3.55.18,5.32.25,1.15,1.27,2.55,2.98,4.48,2.61,1.56-.21,2.4-1.6,3.38-2.66,3.88-.12,7.77.16,11.63-.22.19-.38.56-1.14.74-1.52-4.16-.13-8.33-.18-12.5-.28-1.07-1.06-2.1-2.57-3.8-2.51-1.66,0-2.76,1.37-3.85,2.42M36.65,113.92c.87.95,1.95,1.36,3.23,1.21,79.39-.02,158.77.02,238.15,0,3.42-.04,6.93.35,10.24-.77-1.03-.4-2.08-.63-3.16-.68-81.35.01-162.71-.02-244.06.02-1.47.02-2.93.1-4.4.23M332.69,114.81c1.41.17,2.83.28,4.26.31,68.01,0,136.02,0,204.03,0,15.75-.2,31.54.38,47.28-.29-.82-.99-1.89-1.39-3.2-1.18-81.69.04-163.37.03-245.06,0-2.42.25-5.41-.81-7.31,1.14M630.67,114.05c.99.72,2.09,1.09,3.29,1.09,76.67-.01,153.35-.04,230.02.01,2.59-.2,5.63.7,7.78-1.22-22.58-.52-45.19-.1-67.78-.24-53.99.02-107.98-.02-161.98,0-3.78.05-7.58-.24-11.33.36M548.43,125.57c-9.88,2.83-16.87,13.11-15.63,23.36.85,11.37,11.72,21.04,23.19,20.08,11.1-.09,20.88-10.03,21.1-21.07.61-7.85-3.61-15.6-10.19-19.78-5.34-3.65-12.34-4.31-18.47-2.59M831.39,129.55c-.31,10.33-.37,20.73.03,31.04,2.47.38,4.99.22,7.5.16.18-10.55.02-21.11-.05-31.66-2.45.12-5.31-.74-7.48.46M849.79,135.12c-.24,8.55-.24,17.11-.02,25.66,2.36,0,4.74-.02,7.12-.02.31-8.51.17-17.04.09-25.56-2.4-.06-4.8-.08-7.19-.08M49.79,141.12c-.1-.19-.28-.58-.38-.78-.83,1.47-2.3,2.76-2.37,4.57-.38,5.48-.06,11-.14,16.5-4.96,0-9.92-.04-14.88.07-3.55.03-7.27,2.54-8,6.07-.66,2.11-.67,4.33-.64,6.52.24,37.65-.2,75.29-.05,112.93.05,53-.11,106,.01,159,.04,3.49-.37,7.08.64,10.49.9,3.93,5.08,6.5,9.01,6.33,7.36.05,14.72-.01,22.07.03l-.1-1.2c-7.88-.09-15.78.21-23.65-.15-3.75-.28-5.97-3.66-7.06-6.9.43-8.49.27-17.02.06-25.52l1.01.44c1.5,2.28,4.02,3.75,6.78,3.68,7.67.21,15.35.02,23.02.08v-1.13c-7.37-.02-14.75.05-22.13-.05-2.15.14-4.03-.96-5.92-1.82-.55-.89-1.2-1.68-1.95-2.38-.1-.44-.3-1.31-.39-1.75-.14-30.73-.01-61.46-.06-92.2-.09-2.71.32-5.47-.25-8.13,1.19-.6,2.4-2.71,1.31-3.83,2.03-.99,3.88-2.68,6.24-2.77,4.95-.17,9.91.04,14.86-.01.2,4.92-.26,9.87.3,14.77.48,3.2,3.87,4.82,6.84,4.62,9.02.05,18.04.08,27.06-.03,3.07.1,6.09-2.35,6.07-5.53.29-9.34-.01-18.7.11-28.05.44-3.53-2.58-6.81-6.13-6.63-9.38-.1-18.77-.09-28.15,0-3.02-.03-5.93,2.47-5.99,5.57-.22,4.74.02,9.48-.06,14.23-5.01.04-10.01-.13-15.01.05-2.39.06-4.71,1.21-6.13,3.16-1.84-2.02-.92-4.88-1.1-7.34-.06-22.23.27-44.49-.15-66.71.77-3.26,2.86-6.63,6.47-7.07,5.31-.38,10.64.03,15.96-.11.08,5.43-.36,10.9.32,16.31l.25-1.18.4.34c.35,2.9,3.61,3.89,6.12,3.81,8.98.02,17.98.05,26.96-.02,3.56.34,6.54-2.98,6.21-6.44.04-9.32.07-18.65-.06-27.96.12-3.26-2.9-6.02-6.09-5.87-9.38,0-18.77-.12-28.14.02-3.1,0-6.02,2.63-5.93,5.81-.21,4.66-.05,9.33-.06,14-5.33.09-10.68-.22-16.01.14-2.75.2-4.8,2.23-6.55,4.15.11-2.2.14-4.4.05-6.6.2-22.37.31-44.8-.07-67.17,1.01-3.11,3.05-6.6,6.72-6.78,5.28-.27,10.57.02,15.86-.07.1,4.14-.25,8.3.14,12.43.27,2.88,3.12,5.12,5.96,5,9.35.11,18.71.04,28.06.03,2.18.19,3.94-1.21,5.19-2.83.16-.08.49-.24.66-.32.61-10.31.18-20.65.25-30.97.37-3.82-3.5-6.64-7.07-6.15-9.72.31-19.57-.46-29.21.44-.27.21-.82.65-1.09.87M840.66,141.76c-.13,6.26-.04,12.51-.24,18.77,2.49.26,5,.28,7.51.25.25-6.34.23-12.69-.01-19.03-2.43-.04-4.85-.03-7.26,0M444.49,143.78c-25.02,2.65-48.87,15.21-64.82,34.73-14.9,17.89-23.2,41.21-22.6,64.51.31,20.47,7.46,40.74,19.9,56.98,13.13,17.26,31.98,30.3,53.06,35.68,21.95,5.76,45.9,3.64,66.37-6.22,28.5-13.42,49.73-41.31,54.58-72.49,3.68-21.92-.41-45.1-11.56-64.34-9.37-16.41-23.47-30.2-40.38-38.7-16.71-8.54-35.89-12.05-54.55-10.15M642.17,142.52c-.49,5.8-.2,11.62-.29,17.42.03,51.32-.11,102.65.07,153.97,19,.39,38.02-.01,57.03.15,54.55-.02,109.11,0,163.67-.02l-.46-1.42c-4.65-.62-9.39-.11-14.07-.23.11-20.15.02-40.31.02-60.46-16.18-.06-32.35.14-48.52-.13-.67,20.16-.04,40.36-.35,60.54-7.49.05-14.98-.21-22.46.23.14-35.89,0-71.79.07-107.68-16.19,0-32.38-.09-48.56.04.01,35.82.04,71.64-.02,107.45-7.37-.04-14.74.02-22.11-.05-.1-1.01-.31-3.02-.41-4.03.52-1.71.24-3.55.31-5.3-.03-27.33,0-54.66-.01-81.99-.13-23.04.28-46.1-.22-69.13l.74-.46c-16.42-.5-32.87-.12-49.31-.16.03,53.71.09,107.41,0,161.12-4.61-.05-9.21-.04-13.81-.01-.09-55.82-.03-111.64.05-167.46.1-1.08-.35-1.87-1.35-2.39M822.17,145.97c-.01,4.9-.04,9.81.04,14.71,2.43.04,4.89.27,7.32-.13.4-4.79.09-9.6.08-14.4-2.48-.19-4.97-.24-7.44-.18M283.64,162.91c5.81,2.25,12.31-.07,18.35,1.21,2.79.92,3.87,4.16,3.78,6.86-.05,20.67.02,41.34-.06,62.01-.32,2.82,1.17,5.24,2.99,7.24-6.24-.04-12.48,0-18.71-.06-2.12,0-4.32-.17-6.27.83.57.19,1.71.56,2.28.75,7.6.24,15.22-.03,22.83,0-1.55,1.78-3.19,3.77-3.05,6.28-.08,21.99-.08,43.98-.11,65.97.29,3.03-1.73,6.24-4.9,6.6-5.62.47-11.27-.22-16.89.36.31.27.93.82,1.23,1.1,4.9.52,9.91.19,14.85.18,3.83.09,7.38-3.34,7.15-7.22.1-22.04-.04-44.08.05-66.12-.35-3.81,3.02-7.42,6.87-7.1,5.37,0,10.73.1,16.1.1-1.7,1.98-4.88,3.32-4.93,6.27,2.98-2,5.39-4.7,7.96-7.18-2.64-2.53-4.88-5.68-8.31-7.2.88,2.73,3.41,4.34,5.27,6.36-5.36,0-10.72.05-16.08.06-3.87.36-7.24-3.36-6.88-7.15-.05-20.36-.04-40.73.02-61.1.04-2.74-.12-5.87-2.38-7.78-2.59-2.58-6.5-1.96-9.8-2.05-3.79.2-7.72-.56-11.36.78M819.43,163.38c-.21.41-.64,1.24-.85,1.65,13.85-.02,27.72.27,41.57-.13,1.49-2.14-2.12-1.45-3.14-1.68-12.53.06-25.07-.16-37.58.16M101.26,182.37c-6.27,2.53-4.09,13.06,2.73,12.69,55.68.08,111.37.02,167.05,0,4.31.27,7.87-4.62,6.41-8.63-.84-2.77-3.68-4.74-6.56-4.63-54.62,0-109.25-.09-163.87-.06-1.92.05-3.93-.06-5.76.64M616.21,234.17c.16,2.68,3.41,4,4.91,5.99-13.73.15-27.46,0-41.19.05-1.52-.05-2.97.22-4.35.83,3,1.19,6.28.7,9.43.8,12.03.07,24.07-.13,36.11.06-1.82,1.99-4.83,3.39-5.1,6.34,3.19-1.83,5.52-4.74,8.18-7.23-2.62-2.25-4.6-5.79-7.99-6.84M102.21,261.36c-2.68.91-4.72,3.56-4.59,6.45-.11,3.4,2.91,6.72,6.4,6.51,55.63.09,111.26-.04,166.89.02,2.71.17,5.35-1.52,6.29-4.07,1.83-3.78-1.11-8.53-5.11-9.17-51.37-.31-102.77-.05-154.15-.09-5.23.08-10.55-.55-15.73.35M550.44,310.56c-9.94,1.93-17.73,11.35-17.87,21.46-.26,9.57,6.27,19.02,15.51,21.77,7.91,2.65,17.31.43,23.01-5.73,7.25-7.4,8.26-19.86,2.17-28.27-4.84-7.31-14.27-11.07-22.82-9.23M102.29,340.41c-4.08,1.16-6.08,6.52-3.69,10.05,1.42,2.66,4.6,3.41,7.39,3.22,54.69-.07,109.38-.07,164.07-.05,3.03.26,6.18-1.49,7.12-4.47,1.7-4-1.6-9.13-6.01-8.97-54.71-.04-109.42.03-164.13-.1-1.58.03-3.2-.06-4.75.32M480.74,417.19c.02,18.32-.06,36.64.05,54.97,36.79.1,73.59-.03,110.38.08l-.02-1.64c-2.34-.01-4.68,0-7.01,0-.1-4.26.13-8.52-.09-12.77-8.94-.55-17.92-.12-26.87-.19-.03,4.3-.01,8.61-.04,12.92-2.49,0-4.98.02-7.46.22-.18-8.47-.05-16.94-.08-25.4-8.97-.09-17.94-.19-26.9-.03-.04,8.43-.02,16.86-.03,25.29-2.52,0-5.04-.02-7.56,0-.43-16.42.28-32.86-.23-49.28-8.91.14-17.82-.18-26.72.1-.05,16.42.06,32.83-.04,49.24-1.91-.06-3.81-.1-5.72-.14-.04-17.82.12-35.64-.11-53.46l-1.55.09M61.69,424.93c2.25,2.78,5.22,4.95,7.27,7.87-2.38,2.72-5.15,5.08-7.38,7.95,1.12.97,2.24,1.94,3.37,2.91,2.55-2.51,5.06-5.06,7.52-7.66,2.57,2.52,5.09,5.1,7.7,7.6,1.09-1.11,2.17-2.22,3.26-3.32-2.54-2.5-5.03-5.03-7.59-7.5,2.56-2.64,5.13-5.28,7.7-7.92-1.16-1.09-2.31-2.17-3.47-3.24-2.48,2.37-4.72,4.99-7.25,7.32-3.11-1.8-5.16-5.01-7.91-7.31-1.08,1.09-2.15,2.19-3.22,3.3M345.92,427.74c0,2.6.08,5.21.22,7.82-2.53.54-6.3-1.28-7.79,1.53,10.55.36,21.11.18,31.66.18,26.69.01,53.38.04,80.07-.03v-1.61c-2.33,0-4.66,0-6.98.02-.02-2.63-.02-5.26,0-7.89-9.07-.2-18.14-.05-27.21.02-.01,2.62-.02,5.25,0,7.88-2.59-.02-5.17-.05-7.76-.07-.04-2.61-.07-5.21-.17-7.81-9.05-.03-18.1-.11-27.15-.01,0,2.61,0,5.23.05,7.85-2.58-.03-5.15-.01-7.71.04-.03-2.63-.04-5.26-.05-7.89-9.06-.1-18.13-.03-27.19-.03M61.53,455.26l-.1.07c.3,5.34-.14,10.72.52,16.04l.94-.13c1.49,2.4,4.79,1.3,7.13,1.61,4.13-.31,8.61.91,12.44-1.11,1.63-4.42.6-9.22.89-13.8.22-2.6-.54-6.18-3.7-6.42-4.85-.24-9.73-.21-14.58,0-1.99.12-2.75,2.26-3.54,3.75M465.62,456.5c.97,2.17,2.77,3.75,4.48,5.33-8.06-.04-16.13-.04-24.19-.05l-.04,1.21c8.03.01,16.06.01,24.1-.08-1.66,1.48-3.63,2.88-4.2,5.16,2.37-1.64,4.41-3.7,6.53-5.64-2.03-2.18-4.07-4.43-6.68-5.93Z"/>
    <path class="st11" d="M185.41,182.66c28.54.3,57.09,0,85.64.12,4.43-.35,7.41,5.33,4.76,8.87-2.13,3.36-6.53,2.27-9.85,2.43-26.9.04-53.81-.16-80.71.08,3.25-2.53,4.03-7.6.92-10.55l-.76-.95Z"/>
    <path class="st11" d="M440.12,194.1c15.71-5.14,33.88-1.27,46.3,9.59-10.27,7.69-20.27,15.76-30.67,23.26-6.25.39-12.41,4.23-14.15,10.48-2.36,7.55,3.36,16.33,11.26,17.12,6.81,1.21,13.91-3.8,15.13-10.59.38-1.59.26-3.37,1.26-4.74,7.09-10.52,14.22-21.03,21.21-31.61,10.51,11.13,15.29,27.36,12.51,42.41-1.94,10.03-6.84,19.55-14.34,26.55-11.54,11.35-28.99,16.15-44.73,12.47-11.03-2.55-21.21-8.93-28.02-18.02-8.93-11.38-12.39-26.93-8.9-40.99,3.64-16.72,16.74-30.99,33.14-35.93Z"/>
    <path class="st11" d="M153.85,261.96c37.72.16,75.45.11,113.18.07,2.76.11,6.14-.62,8.16,1.81,3.38,3.27.73,9.99-4.15,9.46-39.02.13-78.04-.11-117.06.13,3.49-3.07,3.32-8.46-.13-11.47Z"/>
    <path class="st11" d="M136.93,341c44.72.32,89.45.01,134.17.16,3.36-.06,6.09,3.46,5.42,6.71-.39,2.65-2.87,4.78-5.56,4.69-44.6.16-89.22-.16-133.82.16,3.71-3.1,3.41-8.71-.21-11.72Z"/>
  </g>
  <g id="_x23_0f0e0fff">
    <path class="st48" d="M49.71,84.94c1.16-1.09,2.24-2.9,4.11-2.56,1.6.14,2.46,1.67,3.54,2.67,4.47.05,8.95.02,13.43.13.02.42.06,1.27.09,1.69-4.48.13-8.96.04-13.44.14-1.27,1.06-2.5,3.11-4.44,2.48-1.48-.21-2.31-1.61-3.39-2.47-1.33-.09-2.66-.19-3.99-.3.66-1.77,2.55-1.57,4.09-1.78M52.16,84.25c-.99,1.12-1.1,3.58.86,3.68,1.3.64,2.64-.76,2.89-1.96-.45-1.61-2.22-2.51-3.75-1.72Z"/>
    <path class="st48" d="M59.93,94.03c1.15-1.19,2.22-2.81,4.09-2.78,1.63-.03,2.42,1.66,3.46,2.63,1.22.11,2.45.22,3.67.32-.03.43-.09,1.28-.12,1.7-.78.03-2.36.08-3.15.1-1.2,1.06-2.3,2.84-4.13,2.66-1.79,0-2.82-1.58-3.93-2.72-4.46-.12-8.93.2-13.38-.16-.17-.39-.5-1.18-.66-1.57,4.71-.24,9.43-.07,14.15-.18M63.01,92.97c-1.42.78-1.41,2.49-.73,3.77,1.3.39,2.87.41,3.66-.9.48-1.7-1.25-3.37-2.93-2.87Z"/>
    <path class="st48" d="M548.43,125.57c6.13-1.72,13.13-1.06,18.47,2.59,6.58,4.18,10.8,11.93,10.19,19.78-.22,11.04-10,20.98-21.1,21.07-11.47.96-22.34-8.71-23.19-20.08-1.24-10.25,5.75-20.53,15.63-23.36M548.47,127.57c-8.22,2.52-14.2,10.83-13.86,19.43-.28,10.47,8.93,19.91,19.34,20.18,8.33.58,16.73-4.67,19.79-12.46,3.25-7.62,1.27-17.03-4.79-22.68-5.3-5.17-13.52-6.67-20.48-4.47Z"/>
    <path class="st48" d="M840.66,141.76c2.41-.04,4.83-.05,7.26,0,.24,6.34.26,12.69.01,19.03-2.51.03-5.02,0-7.51-.25.2-6.26.11-12.51.24-18.77M842.14,143.27c-.01,5.17-.09,10.35.08,15.52,1.37.06,2.74.12,4.13.18-.15-5.04.02-10.1-.32-15.14-1.09-.78-2.65-.31-3.89-.56Z"/>
    <path class="st48" d="M819.43,163.38c12.51-.32,25.05-.1,37.58-.16,1.02.23,4.63-.46,3.14,1.68-13.85.4-27.72.11-41.57.13.21-.41.64-1.24.85-1.65Z"/>
    <path class="st48" d="M550.44,310.56c8.55-1.84,17.98,1.92,22.82,9.23,6.09,8.41,5.08,20.87-2.17,28.27-5.7,6.16-15.1,8.38-23.01,5.73-9.24-2.75-15.77-12.2-15.51-21.77.14-10.11,7.93-19.53,17.87-21.46M550.44,312.51c-8.63,1.72-15.48,9.7-15.84,18.5-.9,8.94,5.02,18.01,13.52,20.86,7.62,2.88,16.8.51,22.15-5.6,7.71-8.4,6.4-23.01-2.68-29.88-4.74-3.97-11.22-4.79-17.15-3.88Z"/>
    <path class="st48" d="M552.43,312.45l2.07-.08c.18.76.53,2.28.7,3.04.26-.55.79-1.67,1.06-2.23.63.28,1.11.78,1.44,1.48,11.92,1.25,19.27,16,13.23,26.31-4.22,9.2-16.67,12.36-25.17,7.33-6.91-3.89-10.46-12.66-8.4-20.28,1.7-7.2,8.18-12.77,15.51-13.56-.11-.51-.33-1.51-.44-2.01M549.56,316.92c.42,1.09.84,2.19,1.27,3.29.76-.15,2.29-.45,3.05-.6.06-.76.17-2.27.22-3.03-1.52.1-3.03.22-4.54.34M555.7,316.56c.16.78.49,2.36.65,3.14,2.4,1.4,3.86-.43,4.22-2.73-1.63-.15-3.25-.29-4.87-.41M544.2,320.14c.82.8,1.64,1.6,2.47,2.41.62-.45,1.88-1.35,2.5-1.8-.46-1.03-.92-2.05-1.38-3.07-1.2.81-2.4,1.63-3.59,2.46M562.07,317.94c-.44.89-.87,1.79-1.3,2.69.89.67,1.78,1.35,2.68,2.03.81-.78,1.63-1.55,2.46-2.32-1.28-.81-2.56-1.61-3.84-2.4M551.44,321.7c-4.39,1.43-7.62,5.73-7.82,10.34-.46,5.84,4.48,11.31,10.25,11.81,6.55.77,12.88-5.28,12.3-11.88-.12-7.07-8-12.73-14.73-10.27M542.58,321.81c-.76,1.14-1.51,2.29-2.26,3.45,1.28.85,3.05,2.12,3.94,0,1.47-1.42-.72-2.66-1.68-3.45M564.63,324.58c.54.57,1.61,1.71,2.15,2.27.74-.42,2.24-1.28,2.99-1.7-.95-1.23-1.89-2.45-2.83-3.66-.78,1.02-1.55,2.05-2.31,3.09M539,327.45c-.13.98-.39,2.93-.52,3.9,1.1.17,2.21.34,3.32.51.15-1.31.3-2.62.45-3.92-.81-.12-2.44-.37-3.25-.49M567.28,328.41c.26,1.07.54,2.15.81,3.22.74.01,2.21.02,2.95.02-.2-1.5-.39-2.99-.59-4.48-.79.31-2.38.93-3.17,1.24M538.58,333.75c.28,1.35.57,2.71.87,4.07.96-.35,1.92-.69,2.89-1.03-.25-1.09-.49-2.18-.72-3.27-1.02.07-2.03.15-3.04.23M568.27,333.26c-.33,1.12-.65,2.25-.96,3.38,1,.37,2.01.76,3.03,1.14.3-1.36.61-2.72.92-4.08-1-.15-2-.3-2.99-.44M540.2,339.97c.82,1.24,1.66,2.49,2.5,3.74.64-.53,1.92-1.59,2.56-2.12-.72-1.06-1.44-2.12-2.15-3.17-.73.39-2.18,1.16-2.91,1.55M564.82,341.5c.6.52,1.8,1.57,2.4,2.09.81-1.26,1.63-2.51,2.46-3.77-.77-.39-2.29-1.18-3.05-1.58-.62,1.08-1.22,2.17-1.81,3.26M544.12,344.58c1.18.96,2.36,1.91,3.57,2.85.41-1.02.83-2.04,1.25-3.05-.91-.58-1.81-1.15-2.71-1.72-.52.48-1.58,1.44-2.11,1.92M560.74,344.25c.48,1.07.95,2.15,1.44,3.23,1.29-.88,2.58-1.75,3.87-2.62-.72-.8-1.43-1.6-2.14-2.39-1.06.59-2.12,1.18-3.17,1.78M550.17,345.23c-.23,1.09-.21,2.14.07,3.18,1.2.24,2.41.45,3.64.62.03-.79.08-2.36.11-3.15-1.28-.22-2.55-.44-3.82-.65M555.87,346.11c.04.71.13,2.11.17,2.82,1.39-.35,2.79-.69,4.19-1.03-.43-.85-.86-1.69-1.28-2.52-1.03.24-2.06.49-3.08.73Z"/>
    <path class="st48" d="M480.74,417.19l1.55-.09c.23,17.82.07,35.64.11,53.46,1.91.04,3.81.08,5.72.14.1-16.41-.01-32.82.04-49.24,8.9-.28,17.81.04,26.72-.1.51,16.42-.2,32.86.23,49.28,2.52-.01,5.04,0,7.56,0,.01-8.43-.01-16.86.03-25.29.2.25.61.75.82,1,.24,8.14.07,16.28-.05,24.42,8.66,1.13,17.51.48,26.21.01,2.48-.2,4.97-.21,7.46-.22.03-4.31.01-8.62.04-12.92,8.95.07,17.93-.36,26.87.19.22,4.25-.01,8.51.09,12.77,2.33,0,4.67-.02,7.01,0l.02,1.64c-36.79-.11-73.59.02-110.38-.08-.11-18.33-.03-36.65-.05-54.97M489.04,422.24c-.02,16.13-.07,32.25.04,48.38,8.32.18,16.64-.12,24.96.02.12-16.14.23-32.29-.04-48.43-8.32.09-16.64.16-24.96.03M558.15,458.71c-.01,3.95-.01,7.91,0,11.87,8.42-.06,16.84.05,25.26-.06-.12-3.95-.33-7.9-.26-11.85-8.34.02-16.67-.05-25.01.04Z"/>
  </g>
  <g id="_x23_41a35bff">
    <path class="st39" d="M52.16,84.25c1.53-.79,3.3.11,3.75,1.72-.25,1.2-1.59,2.6-2.89,1.96-1.96-.1-1.85-2.56-.86-3.68Z"/>
    <path class="st39" d="M346.68,428.6c8.51-.06,17.02-.06,25.53,0,.07,2.39.08,4.78.05,7.18-8.39-.37-16.8-.22-25.2-.14-.16-2.35-.29-4.71-.38-7.05Z"/>
  </g>
  <g id="_x23_419a58ff">
    <path class="st51" d="M63.01,92.97c1.68-.5,3.41,1.17,2.93,2.87-.79,1.31-2.36,1.29-3.66.9-.68-1.28-.69-2.99.73-3.77Z"/>
    <path class="st51" d="M555.97,130.83c1.35.11,2.71.23,4.08.35-.08.68-.23,2.04-.31,2.72-1.21,0-2.4-.02-3.6-.03-.04-.76-.12-2.28-.17-3.04Z"/>
    <path class="st51" d="M543.97,134.62c1.33-.89,2.67-1.78,4.03-2.65.74,1.77.43,3.46-.96,4.83-1.03-.73-2.06-1.45-3.07-2.18Z"/>
    <path class="st51" d="M542.73,135.97c.76.98,2.75,1.83,1.48,3.24-.63,2.11-2.64.96-4.09.71.86-1.32,1.73-2.64,2.61-3.95Z"/>
    <path class="st51" d="M538.65,145.93c.31-1.55.65-3.09.99-4.63.68.38,2.03,1.13,2.71,1.5-.13.78-.37,2.33-.49,3.11-.81,0-2.41.02-3.21.02Z"/>
    <path class="st51" d="M567.31,142.7c.72-.31,2.16-.93,2.87-1.24.31,1.45.62,2.91.94,4.36-.75,0-2.24.03-2.98.04-.21-.79-.62-2.37-.83-3.16Z"/>
    <path class="st51" d="M73.13,151.25c1.39-.31,1.9.23,1.53,1.61-1.4.3-1.91-.23-1.53-1.61Z"/>
    <path class="st51" d="M540.33,153.88c1.11-.27,2.23-.55,3.36-.81.39.85.78,1.7,1.19,2.56-.53.49-1.57,1.46-2.09,1.95-.83-1.23-1.65-2.46-2.46-3.7Z"/>
    <path class="st51" d="M564.72,155.74c1.01-1.3,1.94-3.82,3.96-2.41.56,1.36-.44,2.68-.73,3.97-1.09-.52-2.16-1.04-3.23-1.56Z"/>
    <path class="st51" d="M543.86,158.55c.57-.43,1.71-1.3,2.28-1.73.96.5,1.92,1,2.9,1.5-.39,1.1-.78,2.2-1.17,3.3-1.4-.95-2.75-1.96-4.01-3.07Z"/>
    <path class="st51" d="M555.91,160.14c.83-.17,2.48-.51,3.31-.68.24.68.72,2.03.95,2.71-1.35.34-2.71.67-4.06,1.01-.05-.76-.15-2.28-.2-3.04Z"/>
    <path class="st51" d="M567.28,328.41c.79-.31,2.38-.93,3.17-1.24.2,1.49.39,2.98.59,4.48-.74,0-2.21,0-2.95-.02-.27-1.07-.55-2.15-.81-3.22Z"/>
    <path class="st51" d="M550.17,345.23c1.27.21,2.54.43,3.82.65-.03.79-.08,2.36-.11,3.15-1.23-.17-2.44-.38-3.64-.62-.28-1.04-.3-2.09-.07-3.18Z"/>
    <path class="st51" d="M61.53,455.26c.79-1.49,1.55-3.63,3.54-3.75,4.85-.2,9.73-.23,14.58,0,3.16.24,3.92,3.82,3.7,6.42-.29,4.58.74,9.38-.89,13.8-.35-4.97-.22-9.96.01-14.93-.49-.29-1.49-.87-1.99-1.16.22-.92.43-1.84.65-2.75-6.51-.07-14.11-2.24-19.6,2.36Z"/>
  </g>
  <g id="_x23_080809ff">
    <path class="st8" d="M51.15,102.8c1.09-1.05,2.19-2.43,3.85-2.42,1.7-.06,2.73,1.45,3.8,2.51,4.17.1,8.34.15,12.5.28-.18.38-.55,1.14-.74,1.52-3.86.38-7.75.1-11.63.22-.98,1.06-1.82,2.45-3.38,2.66-1.93.37-3.33-1.34-4.48-2.61-1.77-.07-3.55-.14-5.32-.25.51-2.56,3.55-1.47,5.4-1.91M54.2,101.72c-1.38,1.54-1.35,4.79,1.46,3.96,2.68-1.06.33-3.53-1.46-3.96Z"/>
    <path class="st8" d="M444.49,143.78c18.66-1.9,37.84,1.61,54.55,10.15,16.91,8.5,31.01,22.29,40.38,38.7,11.15,19.24,15.24,42.42,11.56,64.34-4.85,31.18-26.08,59.07-54.58,72.49-20.47,9.86-44.42,11.98-66.37,6.22-21.08-5.38-39.93-18.42-53.06-35.68-12.44-16.24-19.59-36.51-19.9-56.98-.6-23.3,7.7-46.62,22.6-64.51,15.95-19.52,39.8-32.08,64.82-34.73M389.59,170.56c-16.16,14.91-26.99,35.49-29.96,57.3,14.94,1.9,29.8,4.34,44.7,6.47,2.35-17.38,14.17-32.96,30.22-39.97,6.11-2.58,12.71-3.81,19.31-4.24.01-15.02-.07-30.04.04-45.06-23.63.01-47.13,9.25-64.31,25.5M455.67,144.81c-.45,15.16-.05,30.34-.22,45.51,11.85.27,23.38,4.68,32.38,12.38,3.18-2.11,5.76-5.5,9.66-6.24-1.66,3.48-3.89,6.63-6.1,9.78,6.32,6.92,11.06,15.41,12.8,24.68,3.18,14.17-.44,29.63-9.31,41.09-9.24,12.01-24.07,19.73-39.3,19.71-.27,15.22-.3,30.47.02,45.69,10.33-.12,20.67-1.88,30.43-5.31,30.31-10.35,54.49-36.86,61.92-68.03,4.56-18.09,3.34-37.43-2.68-55.03-6.49-17.78-18-33.81-33.24-45.11-16.1-12.23-36.21-18.7-56.36-19.12M440.12,194.1c-16.4,4.94-29.5,19.21-33.14,35.93-3.49,14.06-.03,29.61,8.9,40.99,6.81,9.09,16.99,15.47,28.02,18.02,15.74,3.68,33.19-1.12,44.73-12.47,7.5-7,12.4-16.52,14.34-26.55,2.78-15.05-2-31.28-12.51-42.41-6.99,10.58-14.12,21.09-21.21,31.61-1,1.37-.88,3.15-1.26,4.74-1.22,6.79-8.32,11.8-15.13,10.59-7.9-.79-13.62-9.57-11.26-17.12,1.74-6.25,7.9-10.09,14.15-10.48,10.4-7.5,20.4-15.57,30.67-23.26-12.42-10.86-30.59-14.73-46.3-9.59M456.54,228.47c-3.01,1.02-6.58.75-9.04,3.11-5.8,4.08-6.34,13.42-1.05,18.13,4.87,4.9,13.97,4.43,17.88-1.43,2.4-2.72,1.79-6.63,3.36-9.69,8.28-12.42,16.87-24.65,24.78-37.33-12.04,8.99-23.86,18.27-35.93,27.21M359.35,229.4c-2.46,17.89.91,36.35,8.58,52.63,6.62,14.09,16.86,26.32,29.12,35.86,16.2,12.33,36.46,19.33,56.84,19.36.02-15.12,0-30.23,0-45.34-12.46-.42-24.94-5.11-33.84-14-11.65-10.48-17.24-26.65-15.85-42.12-14.96-2.09-29.91-4.19-44.85-6.39Z"/>
    <path class="st8" d="M345.92,427.74c9.06,0,18.13-.07,27.19.03.01,2.63.02,5.26.05,7.89,2.56-.05,5.13-.07,7.71-.04-.04-2.62-.05-5.24-.05-7.85,9.05-.1,18.1-.02,27.15.01.1,2.6.13,5.2.17,7.81,2.59.02,5.17.05,7.76.07-.03-2.63-.02-5.26,0-7.88,9.07-.07,18.14-.22,27.21-.02-.02,2.63-.02,5.26,0,7.89,2.32-.02,4.65-.02,6.98-.02v1.61c-26.69.07-53.38.04-80.07.03-10.55,0-21.11.18-31.66-.18,1.49-2.81,5.26-.99,7.79-1.53-.14-2.61-.22-5.22-.22-7.82M346.68,428.6c.09,2.34.22,4.7.38,7.05,8.4-.08,16.81-.23,25.2.14.03-2.4.02-4.79-.05-7.18-8.51-.07-17.02-.07-25.53,0M381.68,428.68c.02,2.26-.03,4.52-.13,6.79,8.58.36,17.18.13,25.76,0-.08-2.27-.13-4.55-.16-6.81-8.49.04-16.99.01-25.47.02M416.85,428.66c0,2.32.04,4.65.11,6.97,8.35-.09,16.7-.09,25.05-.01.04-2.33.07-4.65.08-6.96-8.41-.02-16.83-.01-25.24,0Z"/>
  </g>
  <g id="_x23_eb951bff">
    <path class="st42" d="M54.2,101.72c1.79.43,4.14,2.9,1.46,3.96-2.81.83-2.84-2.42-1.46-3.96Z"/>
    <path class="st42" d="M550.03,131.32c1.26-.2,2.53-.41,3.8-.61.03.75.08,2.24.11,2.99-1.22.04-2.42.09-3.62.13-.07-.63-.22-1.88-.29-2.51Z"/>
    <path class="st42" d="M562.19,132.24c1.13.84,2.26,1.68,3.4,2.54-.51.5-1.52,1.51-2.03,2.01-.85-.7-1.7-1.41-2.53-2.11.38-.82.76-1.63,1.16-2.44Z"/>
    <path class="st42" d="M564.73,138.59c.84-.53,1.31-2.48,2.53-1.92.85.97,1.46,2.14,2.15,3.24-1.91,1.13-3.45.23-4.68-1.32Z"/>
    <path class="st42" d="M538.9,147.93c.74.07,2.23.2,2.97.27.44,2-.08,3.68-2.34,3.86-.22-1.38-.43-2.75-.63-4.13Z"/>
    <path class="st42" d="M568.28,147.95c.67-.05,2-.15,2.67-.2-.17,1.39-.33,2.79-.49,4.19-.98-.35-1.94-.71-2.9-1.06.18-.73.54-2.2.72-2.93Z"/>
    <path class="st42" d="M560.91,158.87c.92-.68,1.85-1.35,2.79-2.02.52.54,1.55,1.63,2.07,2.17-1.16.81-2.32,1.62-3.47,2.42-.35-.64-1.04-1.93-1.39-2.57Z"/>
    <path class="st42" d="M549.78,162.11c-.18-2.68,2.17-2.83,4.1-2.15.02.77.07,2.32.09,3.09-1.41-.29-2.82-.53-4.19-.94Z"/>
    <path class="st42" d="M562.07,317.94c1.28.79,2.56,1.59,3.84,2.4-.83.77-1.65,1.54-2.46,2.32-.9-.68-1.79-1.36-2.68-2.03.43-.9.86-1.8,1.3-2.69Z"/>
    <path class="st42" d="M542.58,321.81c.96.79,3.15,2.03,1.68,3.45-.89,2.12-2.66.85-3.94,0,.75-1.16,1.5-2.31,2.26-3.45Z"/>
    <path class="st42" d="M538.58,333.75c1.01-.08,2.02-.16,3.04-.23.23,1.09.47,2.18.72,3.27-.97.34-1.93.68-2.89,1.03-.3-1.36-.59-2.72-.87-4.07Z"/>
    <path class="st42" d="M568.27,333.26c.99.14,1.99.29,2.99.44-.31,1.36-.62,2.72-.92,4.08-1.02-.38-2.03-.77-3.03-1.14.31-1.13.63-2.26.96-3.38Z"/>
    <path class="st42" d="M544.12,344.58c.53-.48,1.59-1.44,2.11-1.92.9.57,1.8,1.14,2.71,1.72-.42,1.01-.84,2.03-1.25,3.05-1.21-.94-2.39-1.89-3.57-2.85Z"/>
    <path class="st42" d="M555.87,346.11c1.02-.24,2.05-.49,3.08-.73.42.83.85,1.67,1.28,2.52-1.4.34-2.8.68-4.19,1.03-.04-.71-.13-2.11-.17-2.82Z"/>
    <path class="st42" d="M416.85,428.66c8.41-.01,16.83-.02,25.24,0-.01,2.31-.04,4.63-.08,6.96-8.35-.08-16.7-.08-25.05.01-.07-2.32-.1-4.65-.11-6.97Z"/>
  </g>
  <g id="_x23_101011ff">
    <path class="st31" d="M36.65,113.92c1.47-.13,2.93-.21,4.4-.23,81.35-.04,162.71-.01,244.06-.02,1.08.05,2.13.28,3.16.68-3.31,1.12-6.82.73-10.24.77-79.38.03-158.76-.01-238.15,0-1.28.15-2.36-.26-3.23-1.21Z"/>
  </g>
  <g id="_x23_0f1010ff">
    <path class="st20" d="M332.69,114.81c1.9-1.95,4.89-.89,7.31-1.14,81.69.02,163.37.03,245.06,0,1.31-.21,2.38.19,3.2,1.18-15.74.67-31.53.09-47.28.29-68.01,0-136.02,0-204.03,0-1.43-.03-2.85-.14-4.26-.31Z"/>
  </g>
  <g id="_x23_101111ff">
    <path class="st32" d="M630.67,114.05c3.75-.6,7.55-.31,11.33-.36,54-.02,107.99.02,161.98,0,22.59.14,45.2-.28,67.78.24-2.15,1.92-5.19,1.02-7.78,1.22-76.67-.05-153.35-.02-230.02-.01-1.2,0-2.3-.37-3.29-1.09Z"/>
  </g>
  <g id="_x23_e7eceeff">
    <path class="st7" d="M548.47,127.57c6.96-2.2,15.18-.7,20.48,4.47,6.06,5.65,8.04,15.06,4.79,22.68-3.06,7.79-11.46,13.04-19.79,12.46-10.41-.27-19.62-9.71-19.34-20.18-.34-8.6,5.64-16.91,13.86-19.43M551.15,129.21c-6.7,1.25-12.19,6.85-13.7,13.44-1.98,7.39,1.55,15.85,8.19,19.64,5.12,3.09,11.79,3.39,17.18.84,7.11-3.4,11.28-11.86,9.78-19.57-1.49-9.71-11.9-16.6-21.45-14.35Z"/>
    <path class="st7" d="M57.48,311.96c-.16-1.85.45-3.59,1.32-5.19,4.62.7,10.6-1.81,13.96,2.45,1.33,1.33,2.62,2.72,3.92,4.09-.06,4.61.14,9.23-.04,13.84.12,1.89-1.82,3.22-3.58,2.91-4.86-.17-9.86.63-14.61-.53-.21-.39-.61-1.18-.81-1.57-.32-5.32,0-10.67-.16-16M59.3,308.29c-.47,6.63-.22,13.29-.22,19.94,5.29.32,10.59.29,15.88.03v-13.99c-1.94-.04-3.88-.23-5.77-.67.58-.71,1.17-1.41,1.78-2.09.7.35,2.11,1.04,2.81,1.39-.65-.93-1.31-1.84-1.97-2.74-.66,0-1.99-.01-2.65-.01l.37-1.93c-3.41-.06-6.82-.05-10.23.07Z"/>
  </g>
  <g id="_x23_131314ff">
    <path class="st34" d="M551.15,129.21c9.55-2.25,19.96,4.64,21.45,14.35,1.5,7.71-2.67,16.17-9.78,19.57-5.39,2.55-12.06,2.25-17.18-.84-6.64-3.79-10.17-12.25-8.19-19.64,1.51-6.59,7-12.19,13.7-13.44M550.03,131.32c.07.63.22,1.88.29,2.51,1.2-.04,2.4-.09,3.62-.13-.03-.75-.08-2.24-.11-2.99-1.27.2-2.54.41-3.8.61M555.97,130.83c.05.76.13,2.28.17,3.04,1.2.01,2.39.02,3.6.03.08-.68.23-2.04.31-2.72-1.37-.12-2.73-.24-4.08-.35M543.97,134.62c1.01.73,2.04,1.45,3.07,2.18,1.39-1.37,1.7-3.06.96-4.83-1.36.87-2.7,1.76-4.03,2.65M562.19,132.24c-.4.81-.78,1.62-1.16,2.44.83.7,1.68,1.41,2.53,2.11.51-.5,1.52-1.51,2.03-2.01-1.14-.86-2.27-1.7-3.4-2.54M542.73,135.97c-.88,1.31-1.75,2.63-2.61,3.95,1.45.25,3.46,1.4,4.09-.71,1.27-1.41-.72-2.26-1.48-3.24M550.25,136.32c-3.99,1.9-6.84,6.15-6.74,10.62.02,5.98,5.51,11.31,11.46,11.29,6.32.22,12.14-5.89,11.23-12.26-.27-7.54-9.11-12.9-15.95-9.65M564.73,138.59c1.23,1.55,2.77,2.45,4.68,1.32-.69-1.1-1.3-2.27-2.15-3.24-1.22-.56-1.69,1.39-2.53,1.92M538.65,145.93c.8,0,2.4-.02,3.21-.02.12-.78.36-2.33.49-3.11-.68-.37-2.03-1.12-2.71-1.5-.34,1.54-.68,3.08-.99,4.63M567.31,142.7c.21.79.62,2.37.83,3.16.74,0,2.23-.03,2.98-.04-.32-1.45-.63-2.91-.94-4.36-.71.31-2.15.93-2.87,1.24M538.9,147.93c.2,1.38.41,2.75.63,4.13,2.26-.18,2.78-1.86,2.34-3.86-.74-.07-2.23-.2-2.97-.27M568.28,147.95c-.18.73-.54,2.2-.72,2.93.96.35,1.92.71,2.9,1.06.16-1.4.32-2.8.49-4.19-.67.05-2,.15-2.67.2M540.33,153.88c.81,1.24,1.63,2.47,2.46,3.7.52-.49,1.56-1.46,2.09-1.95-.41-.86-.8-1.71-1.19-2.56-1.13.26-2.25.54-3.36.81M564.72,155.74c1.07.52,2.14,1.04,3.23,1.56.29-1.29,1.29-2.61.73-3.97-2.02-1.41-2.95,1.11-3.96,2.41M543.86,158.55c1.26,1.11,2.61,2.12,4.01,3.07.39-1.1.78-2.2,1.17-3.3-.98-.5-1.94-1-2.9-1.5-.57.43-1.71,1.3-2.28,1.73M560.91,158.87c.35.64,1.04,1.93,1.39,2.57,1.15-.8,2.31-1.61,3.47-2.42-.52-.54-1.55-1.63-2.07-2.17-.94.67-1.87,1.34-2.79,2.02M549.78,162.11c1.37.41,2.78.65,4.19.94-.02-.77-.07-2.32-.09-3.09-1.93-.68-4.28-.53-4.1,2.15M555.91,160.14c.05.76.15,2.28.2,3.04,1.35-.34,2.71-.67,4.06-1.01-.23-.68-.71-2.03-.95-2.71-.83.17-2.48.51-3.31.68Z"/>
    <path class="st34" d="M547.86,139.92c2.17.02,3.41,1.94,4.86,3.25,1.41.03,2.83.07,4.25.13,1.55-1.5,2.98-3.51,5.38-3.55-.97,1.91-2.52,3.4-3.82,5.07-.12,1.37-.2,2.74-.24,4.12,1.57,1.46,3.65,2.8,3.78,5.19-2.1-.77-3.66-2.38-5.19-3.92-1.36,0-2.71,0-4.05-.01-1.48,1.56-2.92,3.23-4.96,4.05.12-2.31,2-3.74,3.51-5.23-.03-1.51-.03-3.02-.03-4.52-1.34-1.37-3.4-2.44-3.49-4.58M553.23,145.29c.24,1.03-.29,2.93,1.28,3.04,1.16.27,2.57-.6,2.09-1.92-.27-1.82-2.12-1.1-3.37-1.12Z"/>
    <path class="st34" d="M642.17,142.52c1,.52,1.45,1.31,1.35,2.39-.08,55.82-.14,111.64-.05,167.46,4.6-.03,9.2-.04,13.81.01.1-53.71.04-107.41,0-161.12,16.44.04,32.89-.34,49.31.16l-.74.46-.58.34c-15.63.32-31.27,0-46.91.15.03,37.54-.09,75.05.04,112.58-.07,15.83-.25,31.66.01,47.5,15.49,0,30.98,0,46.47-.03.06-.66.17-1.98.22-2.64l.67-1.48c.1,1.01.31,3.02.41,4.03,7.37.07,14.74.01,22.11.05.06-35.81.03-71.63.02-107.45,16.18-.13,32.37-.05,48.56-.04-.07,35.89.07,71.79-.07,107.68,7.71,1.31,15.62.6,23.38-.02l.66-.06c15.41-.36,30.84-.06,46.25-.15-.07-19.81-.02-39.62,0-59.42-15.39-.08-30.79.1-46.18-.08l-.89-.07-.4-.97c16.17.27,32.34.07,48.52.13,0,20.15.09,40.31-.02,60.46,4.68.12,9.42-.39,14.07.23l.46,1.42c-54.56.02-109.12,0-163.67.02-19.01-.16-38.03.24-57.03-.15-.18-51.32-.04-102.65-.07-153.97.09-5.8-.2-11.62.29-17.42M729.19,205.93c.29,35.51-.45,71.05.19,106.55,15.51-.26,31.02-.16,46.53-.02.07-35.53-.04-71.05,0-106.58-15.57.03-31.15-.06-46.72.05Z"/>
    <path class="st34" d="M822.17,145.97c2.47-.06,4.96,0,7.44.18.01,4.8.32,9.61-.08,14.4-2.43.4-4.89.17-7.32.13-.08-4.9-.05-9.81-.04-14.71M823.85,147.69c0,3.79.01,7.59.01,11.39,1.36-.02,2.74-.03,4.12-.03-.02-3.77-.01-7.53.03-11.29-1.4-.03-2.79-.05-4.16-.07Z"/>
    <path class="st34" d="M23.38,174.07c-.03-2.19-.02-4.41.64-6.52.08.48.23,1.44.3,1.92.38,22.37.27,44.8.07,67.17-.55,3.54-.45,7.14.1,10.67.42,22.22.09,44.48.15,66.71.18,2.46-.74,5.32,1.1,7.34,1.42-1.95,3.74-3.1,6.13-3.16,5-.18,10-.01,15.01-.05.08-4.75-.16-9.49.06-14.23.06-3.1,2.97-5.6,5.99-5.57,9.38-.08,18.77-.09,28.15,0,3.55-.18,6.57,3.1,6.13,6.63-.12,9.35.18,18.71-.11,28.05.02,3.18-3,5.63-6.07,5.53-9.02.11-18.04.08-27.06.03-2.97.2-6.36-1.42-6.84-4.62-.56-4.9-.1-9.85-.3-14.77-4.95.05-9.91-.16-14.86.01-2.36.09-4.21,1.78-6.24,2.77-1.66.58-2,2.35-1.31,3.83.57,2.66.16,5.42.25,8.13.05,30.74-.08,61.47.06,92.2-1.21.84-1.08,1.42.39,1.75.75.7,1.4,1.49,1.95,2.38l-1.75-.76-1.01-.44c.21,8.5.37,17.03-.06,25.52-.07.47-.2,1.42-.27,1.89-1.01-3.41-.6-7-.64-10.49-.12-53,.04-106-.01-159-.15-37.64.29-75.28.05-112.93M51.54,299.52c-2.41.35-3.77,3.12-3.54,5.41-.07,9.04,0,18.08-.04,27.12-.2,2.37,1.17,4.87,3.6,5.4,5.45.86,10.98.35,16.47.46,4.76-.09,9.56.37,14.27-.47,2.53-.4,4.28-2.98,4.02-5.49-.02-9,.11-18.01-.06-27.01.1-2.29-1.14-4.75-3.46-5.39-4.89-.96-9.89-.35-14.84-.44-5.47.17-10.99-.51-16.42.41Z"/>
    <path class="st34" d="M451.45,234.49c5.01-2.7,11.82,1.89,10.71,7.6-.64,5.8-8.46,8.35-12.57,4.36-3.92-3.18-2.87-10.15,1.86-11.96M452.1,236.05c-2.84,1.4-4.31,5.38-2.24,8.03,2.26,4.03,8.94,3.35,10.28-1.1,1.83-4.54-3.83-9.43-8.04-6.93Z"/>
  </g>
  <g id="_x23_1d1e1eff">
    <path class="st47" d="M831.39,129.55c2.17-1.2,5.03-.34,7.48-.46.07,10.55.23,21.11.05,31.66-2.51.06-5.03.22-7.5-.16-.4-10.31-.34-20.71-.03-31.04M833.02,130.8c.04,9.4,0,18.8.03,28.21,1.32-.02,2.64-.03,3.98-.04.11-9.38-.05-18.76.03-28.14-1.36,0-2.7-.02-4.04-.03Z"/>
    <path class="st47" d="M50.88,140.25c9.64-.9,19.49-.13,29.21-.44,3.57-.49,7.44,2.33,7.07,6.15-.07,10.32.36,20.66-.25,30.97-1.76-10.55.22-21.35-.93-31.97-.19-2.44-2.57-4.15-4.93-4.05-10.02-.35-20.05.14-30.08-.14-.02-.13-.07-.39-.09-.52Z"/>
    <path class="st47" d="M283.64,162.91c3.64-1.34,7.57-.58,11.36-.78,3.3.09,7.21-.53,9.8,2.05,2.26,1.91,2.42,5.04,2.38,7.78-.06,20.37-.07,40.74-.02,61.1-.36,3.79,3.01,7.51,6.88,7.15,5.36-.01,10.72-.07,16.08-.06-1.86-2.02-4.39-3.63-5.27-6.36,3.43,1.52,5.67,4.67,8.31,7.2-2.57,2.48-4.98,5.18-7.96,7.18.05-2.95,3.23-4.29,4.93-6.27-5.37,0-10.73-.1-16.1-.1-3.85-.32-7.22,3.29-6.87,7.1-.09,22.04.05,44.08-.05,66.12.23,3.88-3.32,7.31-7.15,7.22-4.94.01-9.95.34-14.85-.18-.3-.28-.92-.83-1.23-1.1,5.62-.58,11.27.11,16.89-.36,3.17-.36,5.19-3.57,4.9-6.6.03-21.99.03-43.98.11-65.97-.14-2.51,1.5-4.5,3.05-6.28-7.61-.03-15.23.24-22.83,0-.57-.19-1.71-.56-2.28-.75,1.95-1,4.15-.83,6.27-.83,6.23.05,12.47.02,18.71.06-1.82-2-3.31-4.42-2.99-7.24.08-20.67.01-41.34.06-62.01.09-2.7-.99-5.94-3.78-6.86-6.04-1.28-12.54,1.04-18.35-1.21Z"/>
    <path class="st47" d="M101.26,182.37c1.83-.7,3.84-.59,5.76-.64,54.62-.03,109.25.05,163.87.06,2.88-.11,5.72,1.86,6.56,4.63,1.46,4.01-2.1,8.9-6.41,8.63-55.68.03-111.37.09-167.05,0-6.82.37-9-10.16-2.73-12.69M98.7,189.92c.59,2.84,3.53,4.37,6.26,4.14,24.68.11,49.36-.05,74.03.07,2.45,0,5.37.04,6.96-2.19,2.08-2.38.66-5.63.22-8.33-2.7-.46-5.41-.94-8.15-.94-24.7.08-49.4-.06-74.1.08-3.63-.25-6.53,3.8-5.22,7.17M185.41,182.66l.76.95c3.11,2.95,2.33,8.02-.92,10.55,26.9-.24,53.81-.04,80.71-.08,3.32-.16,7.72.93,9.85-2.43,2.65-3.54-.33-9.22-4.76-8.87-28.55-.11-57.1.18-85.64-.12Z"/>
    <path class="st47" d="M46.96,224.95c-.09-3.18,2.83-5.82,5.93-5.81,9.37-.14,18.76-.03,28.14-.02,3.19-.15,6.21,2.61,6.09,5.87.13,9.31.1,18.64.06,27.96.33,3.46-2.65,6.78-6.21,6.44-8.98.07-17.98.04-26.96.02-2.51.08-5.77-.91-6.12-3.81,1.45,1.23,2.97,2.69,5.04,2.6,8.37.27,16.76.04,25.13.18,2.51-.19,5.9.44,7.33-2.22,1.34-2.48.82-5.45.94-8.15-.23-7.66.29-15.34-.15-22.99.05-2.79-2.43-5.02-5.17-4.81-9.02-.22-18.05-.03-27.07-.07-2.53-.15-5.54,1.07-5.75,3.95-.83,10.37.6,20.85-.7,31.17l-.25,1.18c-.68-5.41-.24-10.88-.32-16.31-5.32.14-10.65-.27-15.96.11-3.61.44-5.7,3.81-6.47,7.07-.55-3.53-.65-7.13-.1-10.67.09,2.2.06,4.4-.05,6.6,1.75-1.92,3.8-3.95,6.55-4.15,5.33-.36,10.68-.05,16.01-.14,0-4.67-.15-9.34.06-14Z"/>
    <path class="st47" d="M616.21,234.17c3.39,1.05,5.37,4.59,7.99,6.84-2.66,2.49-4.99,5.4-8.18,7.23.27-2.95,3.28-4.35,5.1-6.34-12.04-.19-24.08.01-36.11-.06-3.15-.1-6.43.39-9.43-.8,1.38-.61,2.83-.88,4.35-.83,13.73-.05,27.46.1,41.19-.05-1.5-1.99-4.75-3.31-4.91-5.99Z"/>
    <path class="st47" d="M799.27,312.34c.31-20.18-.32-40.38.35-60.54l.4.97c.58,19.91.18,39.86.17,59.78-7.76.62-15.67,1.33-23.38.02,7.48-.44,14.97-.18,22.46-.23Z"/>
    <path class="st47" d="M102.21,261.36c5.18-.9,10.5-.27,15.73-.35,51.38.04,102.78-.22,154.15.09,4,.64,6.94,5.39,5.11,9.17-.94,2.55-3.58,4.24-6.29,4.07-55.63-.06-111.26.07-166.89-.02-3.49.21-6.51-3.11-6.4-6.51-.13-2.89,1.91-5.54,4.59-6.45M103.21,262.25c-4.51.36-6.1,6.63-3.01,9.57,1.46,1.64,3.8,1.46,5.79,1.53,14.66-.09,29.32-.06,43.98-.08,4.9.56,7.15-6.12,4.09-9.37-1.73-2.12-4.67-1.77-7.1-1.81-14.58.18-29.18-.17-43.75.16M153.85,261.96c3.45,3.01,3.62,8.4.13,11.47,39.02-.24,78.04,0,117.06-.13,4.88.53,7.53-6.19,4.15-9.46-2.02-2.43-5.4-1.7-8.16-1.81-37.73.04-75.46.09-113.18-.07Z"/>
    <path class="st47" d="M102.29,340.41c1.55-.38,3.17-.29,4.75-.32,54.71.13,109.42.06,164.13.1,4.41-.16,7.71,4.97,6.01,8.97-.94,2.98-4.09,4.73-7.12,4.47-54.69-.02-109.38-.02-164.07.05-2.79.19-5.97-.56-7.39-3.22-2.39-3.53-.39-8.89,3.69-10.05M103.22,341.29c-2.02.29-3.69,1.93-4.39,3.79-1.27,3.38,1.54,7.61,5.24,7.39,9.31.13,18.63.02,27.94.06,2.61.14,5.7-.89,6.42-3.7,1.49-3.5-1.56-7.87-5.36-7.64-9.95.02-19.91-.18-29.85.1M136.93,341c3.62,3.01,3.92,8.62.21,11.72,44.6-.32,89.22,0,133.82-.16,2.69.09,5.17-2.04,5.56-4.69.67-3.25-2.06-6.77-5.42-6.71-44.72-.15-89.45.16-134.17-.16Z"/>
    <path class="st47" d="M25.32,429.52l1.75.76c1.89.86,3.77,1.96,5.92,1.82,7.38.1,14.76.03,22.14.05v1.13c-7.68-.06-15.36.13-23.03-.08-2.76.07-5.28-1.4-6.78-3.68Z"/>
    <path class="st47" d="M522.7,445.36c8.96-.16,17.93-.06,26.9.03.03,8.46-.1,16.93.08,25.4-8.7.47-17.55,1.12-26.21-.01,8.37-.46,16.75-.12,25.13-.3-.06-8.03.05-16.06-.05-24.08-8.34-.05-16.69.02-25.03-.04-.21-.25-.62-.75-.82-1Z"/>
    <path class="st47" d="M23.98,456.49c.07-.47.2-1.42.27-1.89,1.09,3.24,3.31,6.62,7.06,6.9,7.87.36,15.77.06,23.65.15l.1,1.2c-7.35-.04-14.71.02-22.07-.03-3.93.17-8.11-2.4-9.01-6.33Z"/>
    <path class="st47" d="M465.62,456.5c2.61,1.5,4.65,3.75,6.68,5.93-2.12,1.94-4.16,4-6.53,5.64.57-2.28,2.54-3.68,4.2-5.16-8.04.09-16.07.09-24.1.08l.04-1.21c8.06.01,16.13.01,24.19.05-1.71-1.58-3.51-3.16-4.48-5.33Z"/>
  </g>
  <g id="_x23_3fa059ff">
    <path class="st24" d="M833.02,130.8c1.34,0,2.68.02,4.04.03-.08,9.38.08,18.76-.03,28.14-1.34,0-2.66.02-3.98.04-.03-9.41.01-18.81-.03-28.21Z"/>
    <path class="st24" d="M489.04,422.24c8.32.13,16.64.06,24.96-.03.27,16.14.16,32.29.04,48.43-8.32-.14-16.64.16-24.96-.02-.11-16.13-.06-32.25-.04-48.38Z"/>
  </g>
  <g id="_x23_121314ff">
    <path class="st25" d="M849.79,135.12c2.39,0,4.79.02,7.19.08.08,8.52.22,17.05-.09,25.56-2.38,0-4.76.01-7.12.02-.22-8.55-.22-17.11.02-25.66M851.36,137.03c.01,7.3.06,14.61-.03,21.91,1.33.06,2.66.11,4.01.17-.03-7.38.08-14.75-.07-22.13-1.32.02-2.62.03-3.91.05Z"/>
    <path class="st25" d="M49.41,140.34c.1.2.28.59.38.78-1.2,2.12-2.24,4.4-1.98,6.91.19,8.67-.11,17.34.08,26-.11,2.4,1.65,4.89,4.16,5.02,5.98.45,11.98-.06,17.97.11,5.42-.13,11.29.95,16.23-1.91-1.25,1.62-3.01,3.02-5.19,2.83-9.35,0-18.71.08-28.06-.03-2.84.12-5.69-2.12-5.96-5-.39-4.13-.04-8.29-.14-12.43-5.29.09-10.58-.2-15.86.07-3.67.18-5.71,3.67-6.72,6.78-.07-.48-.22-1.44-.3-1.92.73-3.53,4.45-6.04,8-6.07,4.96-.11,9.92-.06,14.88-.07.08-5.5-.24-11.02.14-16.5.07-1.81,1.54-3.1,2.37-4.57Z"/>
    <path class="st25" d="M554.34,322.82c3.88.95-.02,5.8,3.17,7.59,1.66,2.68,4.99-.62,6.83,1.55-.26.54-.78,1.61-1.03,2.14-1.89-.46-4.42-1.63-5.86.33-2.34,1.61-1.24,4.54-.87,6.82-1.16.24-2.67,1.15-3.14-.51.19-2.12,1.38-4.81-1.02-6.13-1.41-1.91-3.88-.84-5.73-.55-.27-.51-.83-1.54-1.1-2.06,1.26-1.87,3.72-.25,5.49-.3,1-1.07,2.03-2.12,3.08-3.14-.25-1.24-.5-2.46-.78-3.67.24-.52.72-1.55.96-2.07M554.15,331.08c-1.41.67-.81,3.37.82,2.86,2.59.29,1.44-4-.82-2.86Z"/>
  </g>
  <g id="_x23_e9edefff">
    <path class="st28" d="M550.25,136.32c6.84-3.25,15.68,2.11,15.95,9.65.91,6.37-4.91,12.48-11.23,12.26-5.95.02-11.44-5.31-11.46-11.29-.1-4.47,2.75-8.72,6.74-10.62M547.86,139.92c.09,2.14,2.15,3.21,3.49,4.58,0,1.5,0,3.01.03,4.52-1.51,1.49-3.39,2.92-3.51,5.23,2.04-.82,3.48-2.49,4.96-4.05,1.34.01,2.69.01,4.05.01,1.53,1.54,3.09,3.15,5.19,3.92-.13-2.39-2.21-3.73-3.78-5.19.04-1.38.12-2.75.24-4.12,1.3-1.67,2.85-3.16,3.82-5.07-2.4.04-3.83,2.05-5.38,3.55-1.42-.06-2.84-.1-4.25-.13-1.45-1.31-2.69-3.23-4.86-3.25Z"/>
  </g>
  <g id="_x23_e98f12ff">
    <path class="st3" d="M851.36,137.03c1.29-.02,2.59-.03,3.91-.05.15,7.38.04,14.75.07,22.13-1.35-.06-2.68-.11-4.01-.17.09-7.3.04-14.61.03-21.91Z"/>
    <path class="st3" d="M59.3,308.29c3.41-.12,6.82-.13,10.23-.07l-.37,1.93c.66,0,1.99.01,2.65.01.66.9,1.32,1.81,1.97,2.74-.7-.35-2.11-1.04-2.81-1.39-.61.68-1.2,1.38-1.78,2.09,1.89.44,3.83.63,5.77.67v13.99c-5.29.26-10.59.29-15.88-.03,0-6.65-.25-13.31.22-19.94M61.36,317.17c1.54,1.46,3.74,1.06,5.66,1.16,1.94-.08,4.11.25,5.69-1.15-3.77-.35-7.57-.34-11.35,0M62.19,320.44c-.04.34-.13,1.02-.17,1.36,3.54.07,7.09.17,10.63.1-.25-.35-.76-1.04-1.02-1.39-3.13-.37-6.29-.04-9.44-.07M61.69,324.08l.24.81c3.26.71,6.66.3,9.94-.09-3.08-1.72-6.83-.95-10.18-.72Z"/>
  </g>
  <g id="_x23_3f9f58ff">
    <path class="st18" d="M49.79,141.12c.27-.22.82-.66,1.09-.87.02.13.07.39.09.52,10.03.28,20.06-.21,30.08.14,2.36-.1,4.74,1.61,4.93,4.05,1.15,10.62-.83,21.42.93,31.97-.17.08-.5.24-.66.32-4.94,2.86-10.81,1.78-16.23,1.91-5.99-.17-11.99.34-17.97-.11-2.51-.13-4.27-2.62-4.16-5.02-.19-8.66.11-17.33-.08-26-.26-2.51.78-4.79,1.98-6.91M55.56,154.02c.29,5.31-.46,10.7.4,15.96,2.5,2.88,6.74,1.21,10.03,1.58,2.43-.4,5.61.91,7.43-1.26-5.08-.54-10.2-.03-15.29-.41-.24-.25-.72-.77-.96-1.03-.39-6.31.01-12.65,0-18.97,4.95-.38,9.91-.37,14.87-.38.04,1.46.09,2.92.13,4.39,1.32.01,2.63.03,3.94.04.43,2.93-1.25,6.87,1.31,9.06.21-3.38.69-6.87-.04-10.21-1.25-1.77-2.89-3.21-4.41-4.74-5.01.2-10.03-.22-15.03.12-2.82.46-2.34,3.74-2.37,5.85M61.84,163.08c1.7,3.55,6.24,3.6,9.36,2.08,2.26,2.27,4.35,4.82,7.26,6.29-.66-3.39-3.81-5.27-5.98-7.65,2.48-3.8.33-9.72-4.48-9.95-4.83-.8-8.91,5.06-6.16,9.23Z"/>
  </g>
  <g id="_x23_3f85d8ff">
    <path class="st12" d="M842.14,143.27c1.24.25,2.8-.22,3.89.56.34,5.04.17,10.1.32,15.14-1.39-.06-2.76-.12-4.13-.18-.17-5.17-.09-10.35-.08-15.52Z"/>
    <path class="st12" d="M729.19,205.93c15.57-.11,31.15-.02,46.72-.05-.04,35.53.07,71.05,0,106.58-15.51-.14-31.02-.24-46.53.02-.64-35.5.1-71.04-.19-106.55Z"/>
    <path class="st12" d="M48.19,224.09c.21-2.88,3.22-4.1,5.75-3.95,9.02.04,18.05-.15,27.07.07,2.74-.21,5.22,2.02,5.17,4.81.44,7.65-.08,15.33.15,22.99-.12,2.7.4,5.67-.94,8.15-1.43,2.66-4.82,2.03-7.33,2.22-8.37-.14-16.76.09-25.13-.18-2.07.09-3.59-1.37-5.04-2.6l-.4-.34c1.3-10.32-.13-20.8.7-31.17M55.1,230.02c-.28,6.34.09,12.7-.16,19.05.98.61,1.77,1.75,3.03,1.79,4.74.25,9.51.03,14.26-.11-.23-.31-.68-.91-.91-1.21-4.74-.7-9.58-.04-14.36-.37-.17-6.72-.14-13.45-.04-20.17,5.34,0,10.68-.05,16.02.07.12,1.74.24,3.48.37,5.23,3.13-.76,1.91-7.07-1.4-6.77-4.59-.24-9.21-.43-13.81-.22-1.42.03-2.95,1.23-3,2.71M58.53,232.23c2.37,2.12,6.35,1.39,8.96.02-2.98-.33-5.98-.34-8.96-.02M64.03,235.12c-3.94,2.85-3.25,9.74,1.18,11.76,2.6,1.42,5.55.39,8.04-.73,1.91,1.74,3.55,4.02,6.21,4.65-1.17-2.28-3.06-4.03-4.93-5.73.67-2.17,1.82-4.48.9-6.76-1.28-4.66-7.89-6.57-11.4-3.19M59.13,235.3c-.51,1.58.07,2.12,1.74,1.61.5-1.58-.08-2.12-1.74-1.61Z"/>
    <path class="st12" d="M359.35,229.4c14.94,2.2,29.89,4.3,44.85,6.39-1.39,15.47,4.2,31.64,15.85,42.12,8.9,8.89,21.38,13.58,33.84,14,0,15.11.02,30.22,0,45.34-20.38-.03-40.64-7.03-56.84-19.36-12.26-9.54-22.5-21.77-29.12-35.86-7.67-16.28-11.04-34.74-8.58-52.63Z"/>
  </g>
  <g id="_x23_ed9313ff">
    <path class="st40" d="M389.59,170.56c17.18-16.25,40.68-25.49,64.31-25.5-.11,15.02-.03,30.04-.04,45.06-6.6.43-13.2,1.66-19.31,4.24-16.05,7.01-27.87,22.59-30.22,39.97-14.9-2.13-29.76-4.57-44.7-6.47,2.97-21.81,13.8-42.39,29.96-57.3Z"/>
  </g>
  <g id="_x23_3fa159ff">
    <path class="st10" d="M455.67,144.81c20.15.42,40.26,6.89,56.36,19.12,15.24,11.3,26.75,27.33,33.24,45.11,6.02,17.6,7.24,36.94,2.68,55.03-7.43,31.17-31.61,57.68-61.92,68.03-9.76,3.43-20.1,5.19-30.43,5.31-.32-15.22-.29-30.47-.02-45.69,15.23.02,30.06-7.7,39.3-19.71,8.87-11.46,12.49-26.92,9.31-41.09-1.74-9.27-6.48-17.76-12.8-24.68,2.21-3.15,4.44-6.3,6.1-9.78-3.9.74-6.48,4.13-9.66,6.24-9-7.7-20.53-12.11-32.38-12.38.17-15.17-.23-30.35.22-45.51Z"/>
    <path class="st10" d="M658.55,152.55c15.47-.17,30.94.18,46.41-.14.13,52.46-.22,104.92.15,157.37-.05.66-.16,1.98-.22,2.64-15.49.03-30.98.04-46.47.03.24-3.14.46-6.28.4-9.43.09-23.01-.44-45.98-.24-68.99.58-7.35-.4-14.7.22-22.04-.55-19.8-.18-39.62-.25-59.44Z"/>
    <path class="st10" d="M98.7,189.92c-1.31-3.37,1.59-7.42,5.22-7.17,24.7-.14,49.4,0,74.1-.08,2.74,0,5.45.48,8.15.94.44,2.7,1.86,5.95-.22,8.33-1.59,2.23-4.51,2.19-6.96,2.19-24.67-.12-49.35.04-74.03-.07-2.73.23-5.67-1.3-6.26-4.14Z"/>
  </g>
  <g id="_x23_ecefeeff">
    <path class="st36" d="M553.23,145.29c1.25.02,3.1-.7,3.37,1.12.48,1.32-.93,2.19-2.09,1.92-1.57-.11-1.04-2.01-1.28-3.04Z"/>
    <path class="st36" d="M55.56,154.02c.03-2.11-.45-5.39,2.37-5.85,5-.34,10.02.08,15.03-.12,1.52,1.53,3.16,2.97,4.41,4.74.73,3.34.25,6.83.04,10.21-2.56-2.19-.88-6.13-1.31-9.06-1.31-.01-2.62-.03-3.94-.04-.04-1.47-.09-2.93-.13-4.39-4.96.01-9.92,0-14.87.38.02,6.32-.38,12.66,0,18.97.24.26.72.78.96,1.03,5.09.38,10.21-.13,15.29.41-1.82,2.17-5,.86-7.43,1.26-3.29-.37-7.53,1.3-10.03-1.58-.86-5.26-.11-10.65-.4-15.96M73.13,151.25c-.38,1.38.13,1.91,1.53,1.61.37-1.38-.14-1.92-1.53-1.61Z"/>
    <path class="st36" d="M658.37,152.37c15.64-.16,31.28.17,46.91-.15l-.32.19c-15.47.32-30.94-.03-46.41.14.07,19.82-.3,39.64.25,59.44-.62,7.34.36,14.69-.22,22.04-.2,23.01.33,45.98.24,68.99.06,3.15-.16,6.29-.4,9.43-.26-15.84-.08-31.67-.01-47.5-.13-37.53,0-75.04-.04-112.58Z"/>
    <path class="st36" d="M61.84,163.08c-2.75-4.17,1.33-10.03,6.16-9.23,4.81.23,6.96,6.15,4.48,9.95,2.17,2.38,5.32,4.26,5.98,7.65-2.91-1.47-5-4.02-7.26-6.29-3.12,1.52-7.66,1.47-9.36-2.08M66.2,155.17c-4.11.81-5.19,7.11-1.37,9.03,2.95,2.09,7.28-.68,7.2-4.14.46-3.11-2.95-5.55-5.83-4.89Z"/>
    <path class="st36" d="M61.69,324.08c3.35-.23,7.1-1,10.18.72-3.28.39-6.68.8-9.94.09l-.24-.81Z"/>
    <path class="st36" d="M554.15,331.08c2.26-1.14,3.41,3.15.82,2.86-1.63.51-2.23-2.19-.82-2.86Z"/>
    <path class="st36" d="M70.98,464.75c2.63-2.4,3.38-6.46,5.84-9.16.68.02,2.05.05,2.73.07-3.01,4.69-5.66,9.6-8.7,14.28-2.03-2.75-3.94-5.61-5.55-8.63,2.48.08,3.91,2.35,5.68,3.44Z"/>
  </g>
  <g id="_x23_d0d4d1ff">
    <path class="st4" d="M823.85,147.69c1.37.02,2.76.04,4.16.07-.04,3.76-.05,7.52-.03,11.29-1.38,0-2.76,0-4.12.03,0-3.8-.01-7.6-.01-11.39Z"/>
  </g>
  <g id="_x23_1c2f2aff">
    <path class="st37" d="M705.28,152.22l.58-.34c.5,23.03.09,46.09.22,69.13.01,27.33-.02,54.66.01,81.99-.07,1.75.21,3.59-.31,5.3l-.67,1.48c-.37-52.45-.02-104.91-.15-157.37l.32-.19Z"/>
  </g>
  <g id="_x23_40a25aff">
    <path class="st5" d="M66.2,155.17c2.88-.66,6.29,1.78,5.83,4.89.08,3.46-4.25,6.23-7.2,4.14-3.82-1.92-2.74-8.22,1.37-9.03Z"/>
  </g>
  <g id="_x23_797b7cff">
    <path class="st45" d="M456.54,228.47c12.07-8.94,23.89-18.22,35.93-27.21-7.91,12.68-16.5,24.91-24.78,37.33-1.57,3.06-.96,6.97-3.36,9.69-3.91,5.86-13.01,6.33-17.88,1.43-5.29-4.71-4.75-14.05,1.05-18.13,2.46-2.36,6.03-2.09,9.04-3.11M451.45,234.49c-4.73,1.81-5.78,8.78-1.86,11.96,4.11,3.99,11.93,1.44,12.57-4.36,1.11-5.71-5.7-10.3-10.71-7.6Z"/>
  </g>
  <g id="_x23_e2e4e2ff">
    <path class="st52" d="M55.1,230.02c.05-1.48,1.58-2.68,3-2.71,4.6-.21,9.22-.02,13.81.22,3.31-.3,4.53,6.01,1.4,6.77-.13-1.75-.25-3.49-.37-5.23-5.34-.12-10.68-.06-16.02-.07-.1,6.72-.13,13.45.04,20.17,4.78.33,9.62-.33,14.36.37.23.3.68.9.91,1.21-4.75.14-9.52.36-14.26.11-1.26-.04-2.05-1.18-3.03-1.79.25-6.35-.12-12.71.16-19.05Z"/>
    <path class="st52" d="M64.03,235.12c3.51-3.38,10.12-1.47,11.4,3.19.92,2.28-.23,4.59-.9,6.76,1.87,1.7,3.76,3.45,4.93,5.73-2.66-.63-4.3-2.91-6.21-4.65-2.49,1.12-5.44,2.15-8.04.73-4.43-2.02-5.12-8.91-1.18-11.76M66.22,235.34c-3.43,1.26-4.35,5.9-2.05,8.59,2.39,3.7,8.92,2.46,9.73-1.92,1.33-4.31-3.54-8.73-7.68-6.67Z"/>
    <path class="st52" d="M452.1,236.05c4.21-2.5,9.87,2.39,8.04,6.93-1.34,4.45-8.02,5.13-10.28,1.1-2.07-2.65-.6-6.63,2.24-8.03Z"/>
    <path class="st52" d="M67.38,241.45c1.49-1.45,3.05-2.84,4.86-3.88-1.25,2.41-3.07,4.45-5.19,6.14-.86-1.24-1.68-2.5-2.43-3.8.69.39,2.07,1.16,2.76,1.54Z"/>
    <path class="st52" d="M61.36,317.17c3.78-.33,7.58-.34,11.35,0-1.58,1.4-3.75,1.07-5.69,1.15-1.92-.1-4.12.3-5.66-1.16Z"/>
    <path class="st52" d="M62.19,320.44c3.15.03,6.31-.3,9.44.07.26.35.77,1.04,1.02,1.39-3.54.07-7.09-.03-10.63-.1.04-.34.13-1.02.17-1.36Z"/>
  </g>
  <g id="_x23_e2e4e3ff">
    <path class="st33" d="M58.53,232.23c2.98-.32,5.98-.31,8.96.02-2.61,1.37-6.59,2.1-8.96-.02Z"/>
  </g>
  <g id="_x23_c3d0ddff">
    <path class="st9" d="M59.13,235.3c1.66-.51,2.24.03,1.74,1.61-1.67.51-2.25-.03-1.74-1.61Z"/>
  </g>
  <g id="_x23_4487d5ff">
    <path class="st46" d="M66.22,235.34c4.14-2.06,9.01,2.36,7.68,6.67-.81,4.38-7.34,5.62-9.73,1.92-2.3-2.69-1.38-7.33,2.05-8.59M67.38,241.45c-.69-.38-2.07-1.15-2.76-1.54.75,1.3,1.57,2.56,2.43,3.8,2.12-1.69,3.94-3.73,5.19-6.14-1.81,1.04-3.37,2.43-4.86,3.88Z"/>
  </g>
  <g id="_x23_875f23ff">
    <path class="st54" d="M800.02,252.77l.89.07c-.41,19.88-.26,39.77-.06,59.65l-.66.06c.01-19.92.41-39.87-.17-59.78Z"/>
  </g>
  <g id="_x23_ec9313ff">
    <path class="st21" d="M800.91,252.84c15.39.18,30.79,0,46.18.08-.01,19.8-.06,39.61,0,59.42-15.41.09-30.84-.21-46.25.15-.2-19.88-.35-39.77.06-59.65Z"/>
  </g>
  <g id="_x23_4086d7ff">
    <path class="st55" d="M103.21,262.25c14.57-.33,29.17.02,43.75-.16,2.43.04,5.37-.31,7.1,1.81,3.06,3.25.81,9.93-4.09,9.37-14.66.02-29.32,0-43.98.08-1.99-.07-4.33.11-5.79-1.53-3.09-2.94-1.5-9.21,3.01-9.57Z"/>
    <path class="st55" d="M381.68,428.68c8.48,0,16.98.02,25.47-.02.03,2.26.08,4.54.16,6.81-8.58.13-17.18.36-25.76,0,.1-2.27.15-4.53.13-6.79Z"/>
    <path class="st55" d="M523.52,446.36c8.34.06,16.69,0,25.03.04.1,8.02-.01,16.05.05,24.08-8.38.18-16.76-.16-25.13.3.12-8.14.29-16.28.05-24.42Z"/>
  </g>
  <g id="_x23_936a31ff">
    <path class="st49" d="M51.54,299.52c5.43-.92,10.95-.24,16.42-.41,4.95.09,9.95-.52,14.84.44-10.4.56-20.86.48-31.26-.03Z"/>
  </g>
  <g id="_x23_ea9012ff">
    <path class="st1" d="M48,304.93c-.23-2.29,1.13-5.06,3.54-5.41,10.4.51,20.86.59,31.26.03,2.32.64,3.56,3.1,3.46,5.39.17,9,.04,18.01.06,27.01.26,2.51-1.49,5.09-4.02,5.49-10.24-.47-20.5-.48-30.74.01-2.43-.53-3.8-3.03-3.6-5.4.04-9.04-.03-18.08.04-27.12M57.48,311.96c.16,5.33-.16,10.68.16,16,.2.39.6,1.18.81,1.57,4.75,1.16,9.75.36,14.61.53,1.76.31,3.7-1.02,3.58-2.91.18-4.61-.02-9.23.04-13.84-1.3-1.37-2.59-2.76-3.92-4.09-3.36-4.26-9.34-1.75-13.96-2.45-.87,1.6-1.48,3.34-1.32,5.19Z"/>
  </g>
  <g id="_x23_e8edeeff">
    <path class="st43" d="M550.44,312.51c5.93-.91,12.41-.09,17.15,3.88,9.08,6.87,10.39,21.48,2.68,29.88-5.35,6.11-14.53,8.48-22.15,5.6-8.5-2.85-14.42-11.92-13.52-20.86.36-8.8,7.21-16.78,15.84-18.5M552.43,312.45c.11.5.33,1.5.44,2.01-7.33.79-13.81,6.36-15.51,13.56-2.06,7.62,1.49,16.39,8.4,20.28,8.5,5.03,20.95,1.87,25.17-7.33,6.04-10.31-1.31-25.06-13.23-26.31-.33-.7-.81-1.2-1.44-1.48-.27.56-.8,1.68-1.06,2.23-.17-.76-.52-2.28-.7-3.04l-2.07.08Z"/>
    <path class="st43" d="M551.44,321.7c6.73-2.46,14.61,3.2,14.73,10.27.58,6.6-5.75,12.65-12.3,11.88-5.77-.5-10.71-5.97-10.25-11.81.2-4.61,3.43-8.91,7.82-10.34M554.34,322.82c-.24.52-.72,1.55-.96,2.07.28,1.21.53,2.43.78,3.67-1.05,1.02-2.08,2.07-3.08,3.14-1.77.05-4.23-1.57-5.49.3.27.52.83,1.55,1.1,2.06,1.85-.29,4.32-1.36,5.73.55,2.4,1.32,1.21,4.01,1.02,6.13.47,1.66,1.98.75,3.14.51-.37-2.28-1.47-5.21.87-6.82,1.44-1.96,3.97-.79,5.86-.33.25-.53.77-1.6,1.03-2.14-1.84-2.17-5.17,1.13-6.83-1.55-3.19-1.79.71-6.64-3.17-7.59Z"/>
  </g>
  <g id="_x23_418b54ff">
    <path class="st2" d="M549.56,316.92c1.51-.12,3.02-.24,4.54-.34-.05.76-.16,2.27-.22,3.03-.76.15-2.29.45-3.05.6-.43-1.1-.85-2.2-1.27-3.29Z"/>
  </g>
  <g id="_x23_418954ff">
    <path class="st6" d="M555.7,316.56c1.62.12,3.24.26,4.87.41-.36,2.3-1.82,4.13-4.22,2.73-.16-.78-.49-2.36-.65-3.14Z"/>
  </g>
  <g id="_x23_c48630ff">
    <path class="st35" d="M544.2,320.14c1.19-.83,2.39-1.65,3.59-2.46.46,1.02.92,2.04,1.38,3.07-.62.45-1.88,1.35-2.5,1.8-.83-.81-1.65-1.61-2.47-2.41Z"/>
  </g>
  <g id="_x23_2b2b2bff">
    <path class="st23" d="M24.42,325.82c-.69-1.48-.35-3.25,1.31-3.83,1.09,1.12-.12,3.23-1.31,3.83Z"/>
  </g>
  <g id="_x23_418c55ff">
    <path class="st19" d="M564.63,324.58c.76-1.04,1.53-2.07,2.31-3.09.94,1.21,1.88,2.43,2.83,3.66-.75.42-2.25,1.28-2.99,1.7-.54-.56-1.61-1.7-2.15-2.27Z"/>
  </g>
  <g id="_x23_3f824fff">
    <path class="st27" d="M539,327.45c.81.12,2.44.37,3.25.49-.15,1.3-.3,2.61-.45,3.92-1.11-.17-2.22-.34-3.32-.51.13-.97.39-2.92.52-3.9Z"/>
  </g>
  <g id="_x23_93692eff">
    <path class="st26" d="M51.56,337.45c10.24-.49,20.5-.48,30.74-.01-4.71.84-9.51.38-14.27.47-5.49-.11-11.02.4-16.47-.46Z"/>
  </g>
  <g id="_x23_418151ff">
    <path class="st44" d="M540.2,339.97c.73-.39,2.18-1.16,2.91-1.55.71,1.05,1.43,2.11,2.15,3.17-.64.53-1.92,1.59-2.56,2.12-.84-1.25-1.68-2.5-2.5-3.74Z"/>
  </g>
  <g id="_x23_c7862bff">
    <path class="st22" d="M564.82,341.5c.59-1.09,1.19-2.18,1.81-3.26.76.4,2.28,1.19,3.05,1.58-.83,1.26-1.65,2.51-2.46,3.77-.6-.52-1.8-1.57-2.4-2.09Z"/>
  </g>
  <g id="_x23_eb9313ff">
    <path class="st41" d="M103.22,341.29c9.94-.28,19.9-.08,29.85-.1,3.8-.23,6.85,4.14,5.36,7.64-.72,2.81-3.81,3.84-6.42,3.7-9.31-.04-18.63.07-27.94-.06-3.7.22-6.51-4.01-5.24-7.39.7-1.86,2.37-3.5,4.39-3.79Z"/>
  </g>
  <g id="_x23_3f7f50ff">
    <path class="st50" d="M560.74,344.25c1.05-.6,2.11-1.19,3.17-1.78.71.79,1.42,1.59,2.14,2.39-1.29.87-2.58,1.74-3.87,2.62-.49-1.08-.96-2.16-1.44-3.23Z"/>
  </g>
  <g id="_x23_d4100dff">
    <path class="st53" d="M61.69,424.93c1.07-1.11,2.14-2.21,3.22-3.3,2.75,2.3,4.8,5.51,7.91,7.31,2.53-2.33,4.77-4.95,7.25-7.32,1.16,1.07,2.31,2.15,3.47,3.24-2.57,2.64-5.14,5.28-7.7,7.92,2.56,2.47,5.05,5,7.59,7.5-1.09,1.1-2.17,2.21-3.26,3.32-2.61-2.5-5.13-5.08-7.7-7.6-2.46,2.6-4.97,5.15-7.52,7.66-1.13-.97-2.25-1.94-3.37-2.91,2.23-2.87,5-5.23,7.38-7.95-2.05-2.92-5.02-5.09-7.27-7.87Z"/>
  </g>
  <g id="_x23_1d1e1dff">
    <path class="st30" d="M25.12,427.9c-1.47-.33-1.6-.91-.39-1.75.09.44.29,1.31.39,1.75Z"/>
  </g>
  <g id="_x23_6fbf7cff">
    <path class="st0" d="M61.53,455.26c5.49-4.6,13.09-2.43,19.6-2.36-.22.91-.43,1.83-.65,2.75h-.93c-.68,0-2.05-.04-2.73-.06-4.85-.22-9.71-.1-14.56-.19.08,5.28-.33,10.61.63,15.84l-.94.13c-.66-5.32-.22-10.7-.52-16.04l.1-.07Z"/>
  </g>
  <g id="_x23_09b212ff">
    <path class="st29" d="M62.26,455.4c4.85.09,9.71-.03,14.56.19-2.46,2.7-3.21,6.76-5.84,9.16-1.77-1.09-3.2-3.36-5.68-3.44,1.61,3.02,3.52,5.88,5.55,8.63,3.04-4.68,5.69-9.59,8.7-14.28h.93c.5.28,1.5.86,1.99,1.15-.23,4.97-.36,9.96-.01,14.93-3.83,2.02-8.31.8-12.44,1.11-2.34-.31-5.64.79-7.13-1.61-.96-5.23-.55-10.56-.63-15.84Z"/>
  </g>
  <g id="_x23_eb9213ff">
    <path class="st38" d="M558.15,458.71c8.34-.09,16.67-.02,25.01-.04-.07,3.95.14,7.9.26,11.85-8.42.11-16.84,0-25.26.06-.02-3.96-.02-7.92,0-11.87Z"/>
  </g>
  <g class="st14">
    <g class="st14">
      <g class="st14">
        <text class="st16" transform="translate(88.98 103.76)"><tspan x="0" y="0">Task Weights (Input)</tspan></text>
      </g>
    </g>
  </g>
  <g class="st14">
    <g class="st14">
      <g class="st14">
        <text class="st16" transform="translate(375.65 106.45)"><tspan x="0" y="0">Sampling Mechanism</tspan></text>
      </g>
    </g>
  </g>
  <g class="st14">
    <g class="st14">
      <g class="st14">
        <text class="st16" transform="translate(673.81 110.03)"><tspan x="0" y="0">Output Distribution</tspan></text>
      </g>
    </g>
  </g>
  <g class="st14">
    <g class="st14">
      <g class="st14">
        <text class="st15" transform="translate(216.23 51.86)"><tspan x="0" y="0">Weighted Task Sampling (Roulette Selection)</tspan></text>
      </g>
    </g>
  </g>
  <g class="st14">
    <g class="st14">
      <g class="st14">
        <text class="st17" transform="translate(96.31 155.06)"><tspan x="0" y="0">case_analysis</tspan></text>
      </g>
    </g>
  </g>
  <g class="st14">
    <g class="st14">
      <g class="st14">
        <text class="st13" transform="translate(95.91 174.44)"><tspan x="0" y="0">0.5 (high)</tspan></text>
      </g>
    </g>
  </g>
  <g class="st14">
    <g class="st14">
      <g class="st14">
        <text class="st13" transform="translate(242.6 176.93)"><tspan x="0" y="0">50%</tspan></text>
      </g>
    </g>
  </g>
  <g class="st14">
    <g class="st14">
      <g class="st14">
        <text class="st13" transform="translate(395.77 194.34)"><tspan x="0" y="0">0.2</tspan></text>
      </g>
    </g>
  </g>
  <g class="st14">
    <g class="st14">
      <g class="st14">
        <text class="st13" transform="translate(516.44 244.85)"><tspan x="0" y="0">0.5</tspan></text>
      </g>
    </g>
  </g>
  <g class="st14">
    <g class="st14">
      <g class="st14">
        <text class="st13" transform="translate(399.69 299.54)"><tspan x="0" y="0">0.3</tspan></text>
      </g>
    </g>
  </g>
  <g class="st14">
    <g class="st14">
      <g class="st14">
        <text class="st17" transform="translate(100.3 231.82)"><tspan x="0" y="0">legal_qa</tspan></text>
      </g>
    </g>
  </g>
  <g class="st14">
    <g class="st14">
      <g class="st14">
        <text class="st13" transform="translate(100.06 250.79)"><tspan x="0" y="0">0.3 (medium)</tspan></text>
      </g>
    </g>
  </g>
  <g class="st14">
    <g class="st14">
      <g class="st14">
        <text class="st13" transform="translate(244.36 254.93)"><tspan x="0" y="0">30%</tspan></text>
      </g>
    </g>
  </g>
  <g class="st14">
    <g class="st14">
      <g class="st14">
        <text class="st17" transform="translate(102.88 311.28)"><tspan x="0" y="0">statute_explanation</tspan></text>
      </g>
    </g>
  </g>
  <g class="st14">
    <g class="st14">
      <g class="st14">
        <text class="st13" transform="translate(104.32 331.1)"><tspan x="0" y="0">0.2 (low)</tspan></text>
      </g>
    </g>
  </g>
  <g class="st14">
    <g class="st14">
      <g class="st14">
        <text class="st13" transform="translate(249.14 332.61)"><tspan x="0" y="0">20%</tspan></text>
      </g>
    </g>
  </g>
  <g class="st14">
    <g class="st14">
      <g class="st14">
        <text class="st13" transform="translate(110.17 436.81)"><tspan x="0" y="0">uniform sampling → inefficient</tspan></text>
      </g>
    </g>
  </g>
  <g class="st14">
    <g class="st14">
      <g class="st14">
        <text class="st13" transform="translate(109.98 467.71)"><tspan x="0" y="0">weighted sampling → better capability shaping</tspan></text>
      </g>
    </g>
  </g>
  <g class="st14">
    <g class="st14">
      <g class="st14">
        <text class="st13" transform="translate(366.77 380.33)"><tspan x="0" y="0">Weighted random sampling</tspan></text>
      </g>
    </g>
  </g>
  <g class="st14">
    <g class="st14">
      <g class="st14">
        <text class="st13" transform="translate(665.11 331.86)"><tspan x="0" y="0">case_</tspan><tspan x="-7.51" y="18">analysis</tspan></text>
      </g>
    </g>
  </g>
  <g class="st14">
    <g class="st14">
      <g class="st14">
        <text class="st13" transform="translate(727.12 331.65)"><tspan x="0" y="0">legal_qa</tspan></text>
      </g>
    </g>
  </g>
  <g class="st14">
    <g class="st14">
      <g class="st14">
        <text class="st13" transform="translate(804.68 329.65)"><tspan x="0" y="0">statute_</tspan><tspan x="-11.66" y="18">explanation</tspan></text>
      </g>
    </g>
  </g>
  <g class="st14">
    <g class="st14">
      <g class="st14">
        <text class="st13" transform="translate(686.81 383.93)"><tspan x="0" y="0">Resulting distribution</tspan></text>
      </g>
    </g>
  </g>
  <g class="st14">
    <g class="st14">
      <g class="st14">
        <g class="st14">
          <path d="M723.84,430l3.49,4.37c.49.62.92,1.03,1.27,1.25.26.16.53.23.82.23v.27h-5.17v-.27c.33-.03.54-.08.63-.15.09-.07.14-.16.14-.27,0-.21-.22-.59-.67-1.16l-2.28-2.86-.37.31v2.71c0,.52.03.84.09.97s.17.24.34.33c.17.09.43.13.8.13v.27h-5.01v-.27h.33c.29,0,.52-.05.7-.15.13-.07.22-.19.29-.35.05-.12.08-.42.08-.92v-6.53c0-.51-.03-.83-.08-.95s-.16-.24-.33-.33c-.16-.1-.38-.14-.66-.14h-.33v-.27h4.94v.27c-.34,0-.59.05-.77.15-.13.07-.23.18-.3.34-.06.12-.09.43-.09.94v3.09l3.68-2.98c.51-.41.77-.75.77-1,0-.18-.11-.33-.32-.44-.11-.05-.37-.09-.8-.1v-.27h3.87v.27c-.35.02-.62.09-.82.19-.2.1-.65.44-1.37,1.01l-2.91,2.33Z"/>
          <path d="M735.56,432.46h-3.76c.04.91.29,1.63.72,2.15.34.41.74.61,1.22.61.29,0,.56-.08.8-.25.24-.16.5-.46.77-.88l.25.16c-.37.76-.78,1.29-1.23,1.61-.45.32-.97.47-1.56.47-1.02,0-1.79-.39-2.31-1.17-.42-.63-.63-1.41-.63-2.34,0-1.14.31-2.05.93-2.73.62-.68,1.34-1.01,2.17-1.01.69,0,1.29.28,1.81.85.51.57.78,1.41.82,2.53ZM733.76,431.97c0-.79-.04-1.33-.13-1.62-.09-.29-.22-.51-.4-.67-.1-.09-.24-.13-.41-.13-.25,0-.46.12-.62.37-.29.43-.43,1.03-.43,1.79v.26h1.99Z"/>
          <path d="M739.56,436.41l-2.21-5.08c-.33-.77-.58-1.24-.74-1.41-.16-.18-.35-.3-.57-.37v-.27h3.64v.27c-.24,0-.41.06-.5.14s-.15.18-.15.3c0,.19.12.55.37,1.1l1.17,2.68.8-2.07c.29-.74.43-1.25.43-1.54,0-.18-.06-.33-.18-.43-.12-.11-.33-.17-.63-.18v-.27h2.29v.27c-.22.02-.41.11-.55.26-.14.15-.38.66-.71,1.52l-1.96,5.08c-.49,1.27-.86,2.05-1.1,2.34-.34.41-.76.62-1.27.62-.41,0-.73-.12-.99-.35-.25-.23-.38-.51-.38-.84,0-.28.09-.52.26-.7.17-.19.39-.28.64-.28s.44.08.59.23c.15.16.23.4.23.73,0,.18.03.3.07.36s.09.08.17.08c.12,0,.24-.07.37-.21.2-.21.42-.67.69-1.41l.21-.57Z"/>
          <path d="M752.66,435.86v.27h-5.19v-.27h.33c.29,0,.52-.05.7-.15.13-.07.22-.19.29-.35.05-.12.08-.42.08-.92v-6.53c0-.51-.03-.83-.08-.95s-.16-.24-.33-.33c-.16-.1-.38-.14-.66-.14h-.33v-.27h5.19v.27h-.33c-.29,0-.52.05-.7.15-.13.07-.23.19-.3.35-.05.12-.08.42-.08.92v6.53c0,.51.03.83.08.95.06.13.17.24.33.33.16.1.38.14.66.14h.33Z"/>
          <path d="M756.3,429.28v.89c.35-.38.69-.66,1.01-.83.32-.17.67-.26,1.04-.26.44,0,.81.12,1.11.37.29.25.49.55.59.92.08.28.12.81.12,1.6v2.67c0,.53.05.86.14.99.1.13.29.21.6.25v.26h-3.46v-.26c.26-.03.44-.14.56-.32.08-.12.12-.42.12-.91v-3.05c0-.56-.02-.92-.07-1.06s-.12-.26-.22-.34c-.11-.08-.22-.12-.35-.12-.42,0-.81.3-1.17.9v3.67c0,.51.05.84.14.97.09.14.27.22.53.26v.26h-3.46v-.26c.29-.03.49-.12.62-.28.08-.11.12-.42.12-.95v-3.87c0-.52-.05-.84-.14-.97-.09-.13-.29-.21-.6-.25v-.27h2.79Z"/>
          <path d="M766.18,429.09l.11,2.34h-.25c-.3-.69-.61-1.17-.93-1.42-.32-.25-.64-.38-.96-.38-.2,0-.37.07-.51.2-.14.13-.21.29-.21.46,0,.13.05.26.15.38.16.2.59.54,1.31,1.03.72.49,1.19.9,1.42,1.24.23.34.34.72.34,1.14,0,.38-.09.75-.29,1.12-.19.37-.46.65-.81.84s-.73.29-1.15.29c-.33,0-.76-.1-1.31-.31-.15-.05-.25-.08-.3-.08-.16,0-.29.12-.4.37h-.24l-.12-2.46h.25c.22.64.52,1.13.9,1.45.38.32.75.48,1.09.48.23,0,.43-.07.58-.22.15-.14.22-.32.22-.52,0-.23-.07-.44-.22-.61s-.47-.43-.98-.78c-.75-.52-1.23-.91-1.45-1.19-.32-.4-.48-.84-.48-1.33,0-.53.18-1,.54-1.43.36-.43.89-.64,1.58-.64.37,0,.73.09,1.08.27.13.07.24.11.32.11.09,0,.16-.02.21-.06.05-.04.14-.14.26-.31h.25Z"/>
          <path d="M770.36,429.28v5.43c0,.48.06.79.17.93.11.13.33.21.66.23v.26h-3.7v-.26c.3,0,.53-.1.67-.26.1-.11.15-.41.15-.89v-4c0-.48-.06-.79-.17-.93-.11-.13-.33-.21-.65-.23v-.27h2.87ZM769.33,425.97c.32,0,.59.11.81.33.22.22.33.49.33.8s-.11.58-.33.8c-.22.22-.49.33-.8.33s-.58-.11-.8-.33-.33-.49-.33-.8.11-.58.33-.8c.22-.22.49-.33.8-.33Z"/>
          <path d="M776.25,429.36h2.31v.81h-1.31c.24.24.41.46.5.65.12.26.18.54.18.83,0,.49-.14.91-.41,1.27-.27.36-.64.64-1.11.84-.47.2-.88.3-1.24.3-.03,0-.32-.01-.88-.04-.22,0-.4.07-.55.22-.15.14-.22.32-.22.52,0,.18.07.32.2.43.13.11.35.17.66.17h1.27c1.03-.01,1.73.1,2.12.32.55.31.83.79.83,1.44,0,.42-.13.79-.38,1.13-.25.34-.59.59-1,.75-.63.24-1.35.36-2.17.36-.62,0-1.18-.06-1.68-.18-.51-.12-.87-.29-1.09-.5-.22-.21-.33-.44-.33-.67s.08-.43.25-.6c.17-.18.48-.33.94-.45-.63-.31-.95-.75-.95-1.3,0-.34.13-.66.39-.98s.67-.59,1.23-.83c-.65-.24-1.13-.55-1.42-.95s-.44-.84-.44-1.36c0-.67.27-1.25.82-1.74.55-.49,1.25-.74,2.11-.74.45,0,.92.09,1.41.29ZM774.55,437.14c-.5,0-.83.04-.99.12-.28.15-.42.36-.42.62s.14.48.43.68c.29.2.83.3,1.63.3.68,0,1.21-.09,1.6-.27.39-.18.58-.43.58-.76,0-.12-.04-.22-.11-.31-.13-.15-.33-.25-.6-.3-.27-.05-.97-.08-2.13-.08ZM774.98,429.53c-.28,0-.52.14-.72.43-.2.29-.29.88-.29,1.78,0,.73.1,1.23.29,1.5.19.27.42.41.69.41.29,0,.54-.13.73-.4s.29-.79.29-1.57c0-.87-.11-1.47-.33-1.79-.16-.23-.38-.35-.66-.35Z"/>
          <path d="M782.15,426.2v3.96c.38-.4.72-.68,1.03-.84.31-.16.64-.25.97-.25.43,0,.8.12,1.1.37.31.25.51.53.61.86.1.33.15.88.15,1.67v2.67c0,.52.05.85.15.98.1.13.29.21.59.25v.26h-3.47v-.26c.24-.03.43-.13.55-.29.09-.13.13-.44.13-.93v-3.05c0-.57-.02-.92-.07-1.07-.04-.14-.12-.26-.22-.34-.1-.08-.22-.12-.35-.12-.2,0-.39.07-.57.2-.19.13-.39.37-.6.71v3.67c0,.49.04.79.11.92.09.17.28.27.57.31v.26h-3.47v-.26c.29-.03.49-.12.62-.28.08-.11.12-.42.12-.94v-6.96c0-.52-.05-.84-.14-.97-.09-.13-.29-.21-.6-.25v-.27h2.79Z"/>
          <path d="M790.41,426.78v2.51h1.63v.72h-1.63v4.23c0,.39.02.65.05.76.04.12.1.21.19.28.09.07.18.11.26.11.32,0,.62-.24.9-.73l.22.16c-.4.94-1.04,1.41-1.93,1.41-.43,0-.8-.12-1.1-.36-.3-.24-.49-.51-.58-.81-.05-.17-.07-.62-.07-1.35v-3.7h-.89v-.26c.62-.43,1.14-.89,1.57-1.37.43-.48.81-1.01,1.13-1.6h.24Z"/>
          <path d="M797.02,429.09l.11,2.34h-.25c-.3-.69-.61-1.17-.93-1.42-.32-.25-.64-.38-.96-.38-.2,0-.37.07-.51.2-.14.13-.21.29-.21.46,0,.13.05.26.15.38.16.2.59.54,1.31,1.03.72.49,1.19.9,1.42,1.24.23.34.34.72.34,1.14,0,.38-.1.75-.29,1.12-.19.37-.46.65-.81.84s-.73.29-1.15.29c-.33,0-.76-.1-1.31-.31-.15-.05-.25-.08-.3-.08-.16,0-.3.12-.4.37h-.24l-.12-2.46h.25c.22.64.52,1.13.9,1.45.38.32.75.48,1.09.48.23,0,.43-.07.58-.22.15-.14.22-.32.22-.52,0-.23-.07-.44-.22-.61s-.47-.43-.98-.78c-.75-.52-1.23-.91-1.45-1.19-.32-.4-.48-.84-.48-1.33,0-.53.18-1,.55-1.43.36-.43.89-.64,1.58-.64.37,0,.73.09,1.08.27.13.07.24.11.32.11.09,0,.16-.02.21-.06.05-.04.14-.14.26-.31h.25Z"/>
          <path d="M800.52,433.88c.34,0,.63.12.87.36.24.24.36.53.36.86s-.12.62-.36.86c-.24.24-.53.36-.86.36s-.62-.12-.86-.36c-.24-.24-.35-.52-.35-.86s.12-.62.35-.86c.24-.24.52-.36.86-.36ZM800.53,429.09c.34,0,.62.12.86.36.24.24.36.52.36.86s-.12.62-.36.86c-.24.24-.52.36-.86.36s-.62-.12-.86-.36c-.24-.24-.36-.52-.36-.86s.12-.62.36-.86c.24-.24.52-.36.86-.36Z"/>
          <path d="M689.98,443.97l.08,3.31h-.3c-.14-.83-.49-1.5-1.04-2-.55-.5-1.15-.76-1.8-.76-.5,0-.89.13-1.18.4-.29.27-.44.57-.44.92,0,.22.05.42.15.59.14.23.37.46.68.68.23.16.76.45,1.59.86,1.16.57,1.95,1.11,2.35,1.62.4.51.6,1.09.6,1.74,0,.83-.32,1.54-.97,2.14-.65.6-1.47.9-2.46.9-.31,0-.61-.03-.89-.1s-.63-.18-1.05-.36c-.23-.1-.43-.15-.58-.15-.13,0-.26.05-.4.15s-.26.25-.34.45h-.27v-3.75h.27c.21,1.05.63,1.86,1.24,2.41.61.55,1.27.83,1.98.83.55,0,.98-.15,1.31-.45.33-.3.49-.64.49-1.04,0-.23-.06-.46-.19-.68-.12-.22-.31-.43-.57-.63-.25-.2-.7-.46-1.35-.77-.9-.44-1.55-.82-1.95-1.13s-.7-.66-.91-1.05c-.21-.39-.32-.81-.32-1.28,0-.79.29-1.46.87-2.02s1.31-.83,2.2-.83c.32,0,.63.04.94.12.23.06.51.17.84.33.33.16.56.24.69.24s.23-.04.3-.12.14-.27.21-.56h.22Z"/>
          <path d="M695.56,453.12c-.83.74-1.58,1.11-2.25,1.11-.39,0-.72-.13-.97-.38-.26-.26-.39-.58-.39-.96,0-.52.22-.99.67-1.41.45-.42,1.43-.97,2.94-1.67v-.69c0-.52-.03-.84-.08-.98-.06-.13-.16-.25-.32-.35-.16-.1-.33-.15-.53-.15-.32,0-.58.07-.78.21-.13.09-.19.19-.19.31,0,.1.07.23.21.38.19.21.28.41.28.61,0,.24-.09.44-.27.61-.18.17-.41.25-.7.25-.31,0-.57-.09-.77-.28-.21-.18-.31-.4-.31-.65,0-.35.14-.69.42-1.01.28-.32.67-.57,1.16-.74s1.02-.26,1.55-.26c.65,0,1.16.14,1.54.41.38.28.62.58.74.9.07.21.1.68.1,1.41v2.66c0,.31.01.51.04.59.02.08.06.14.11.18s.1.06.17.06c.13,0,.26-.09.39-.27l.22.18c-.24.36-.5.62-.76.79-.26.16-.56.25-.89.25-.39,0-.7-.09-.92-.28-.22-.18-.35-.46-.4-.83ZM695.56,452.59v-2.29c-.59.35-1.03.72-1.32,1.11-.19.26-.29.53-.29.8,0,.22.08.42.24.59.12.13.29.2.51.2.24,0,.53-.14.85-.41Z"/>
          <path d="M702.12,447.28v.9c.38-.41.72-.7,1.04-.86.32-.16.67-.25,1.05-.25.44,0,.81.1,1.11.31s.53.52.69.94c.39-.44.77-.76,1.12-.95.36-.2.73-.29,1.12-.29.47,0,.85.11,1.13.33.28.22.48.49.59.83.11.33.17.87.17,1.6v2.8c0,.53.05.85.14.98.1.13.29.21.6.25v.26h-3.54v-.26c.28-.02.48-.13.62-.32.09-.13.13-.43.13-.91v-2.94c0-.61-.02-1-.07-1.17-.05-.17-.13-.29-.23-.37-.11-.08-.23-.12-.37-.12-.21,0-.42.08-.64.23-.21.15-.43.38-.65.69v3.68c0,.49.04.8.12.93.11.18.33.28.64.3v.26h-3.54v-.26c.19,0,.34-.06.45-.14.11-.09.18-.19.22-.31.04-.12.05-.38.05-.78v-2.94c0-.62-.02-1.01-.07-1.17-.05-.16-.13-.28-.25-.37-.12-.09-.24-.13-.37-.13-.2,0-.37.05-.54.15-.23.15-.47.41-.73.78v3.68c0,.48.05.8.14.96.09.15.29.25.6.27v.26h-3.53v-.26c.29-.03.49-.12.62-.28.08-.11.12-.42.12-.95v-3.87c0-.52-.05-.84-.14-.97-.09-.13-.29-.21-.6-.25v-.27h2.79Z"/>
          <path d="M714.42,453.44v2.55c0,.35.03.59.08.72.06.13.14.22.26.28s.35.09.69.09v.27h-3.9v-.27c.3-.01.53-.1.67-.26.1-.11.15-.4.15-.87v-7.23c0-.48-.06-.79-.17-.93-.11-.13-.33-.21-.65-.23v-.27h2.87v.9c.24-.35.48-.61.73-.76.36-.23.75-.34,1.17-.34.5,0,.96.16,1.37.48.41.32.73.76.94,1.31.21.56.32,1.16.32,1.81,0,.69-.11,1.33-.33,1.9-.22.57-.54,1.01-.97,1.31-.42.3-.89.45-1.41.45-.38,0-.73-.08-1.05-.25-.24-.13-.5-.34-.77-.65ZM714.42,452.7c.42.6.87.89,1.35.89.26,0,.48-.14.65-.42.25-.41.38-1.19.38-2.34s-.14-1.99-.42-2.42c-.19-.29-.43-.43-.75-.43-.49,0-.9.36-1.22,1.07v3.65Z"/>
          <path d="M722.8,444.2v8.51c0,.48.06.79.17.93.11.13.33.21.66.23v.26h-3.7v-.26c.3,0,.53-.1.67-.26.1-.11.15-.41.15-.89v-7.09c0-.48-.06-.79-.17-.92-.11-.13-.33-.21-.65-.23v-.27h2.87Z"/>
          <path d="M726.96,447.28v5.43c0,.48.06.79.17.93.11.13.33.21.66.23v.26h-3.7v-.26c.3,0,.53-.1.67-.26.1-.11.15-.41.15-.89v-4c0-.48-.06-.79-.17-.93-.11-.13-.33-.21-.65-.23v-.27h2.87ZM725.93,443.97c.32,0,.59.11.81.33.22.22.33.49.33.8s-.11.58-.33.8c-.22.22-.49.33-.8.33s-.58-.11-.8-.33-.33-.49-.33-.8.11-.58.33-.8c.22-.22.49-.33.8-.33Z"/>
          <path d="M731.25,447.28v.89c.35-.38.69-.66,1.01-.83.32-.17.67-.26,1.04-.26.44,0,.81.12,1.11.37.29.25.49.55.59.92.08.28.12.81.12,1.6v2.67c0,.53.05.86.14.99.1.13.29.21.6.25v.26h-3.46v-.26c.26-.03.44-.14.56-.32.08-.12.12-.42.12-.91v-3.05c0-.56-.02-.92-.07-1.06s-.12-.26-.22-.34c-.11-.08-.22-.12-.35-.12-.42,0-.81.3-1.17.9v3.67c0,.51.05.84.14.97.09.14.27.22.53.26v.26h-3.46v-.26c.29-.03.49-.12.62-.28.08-.11.12-.42.12-.95v-3.87c0-.52-.05-.84-.14-.97-.09-.13-.29-.21-.6-.25v-.27h2.79Z"/>
          <path d="M741.19,447.36h2.31v.81h-1.31c.24.24.41.46.5.65.12.26.18.54.18.83,0,.49-.13.91-.41,1.27-.27.36-.64.64-1.11.84-.47.2-.88.3-1.24.3-.03,0-.32-.01-.88-.04-.22,0-.4.07-.55.22-.15.14-.22.32-.22.52,0,.18.07.32.2.43.13.11.35.17.66.17h1.27c1.03-.01,1.73.1,2.12.32.55.31.83.79.83,1.44,0,.42-.13.79-.38,1.13-.25.34-.59.59-1,.75-.63.24-1.36.36-2.18.36-.62,0-1.18-.06-1.68-.18-.51-.12-.87-.29-1.09-.5-.22-.21-.33-.44-.33-.67s.08-.43.25-.6c.17-.18.48-.33.94-.45-.63-.31-.95-.75-.95-1.3,0-.34.13-.66.39-.98s.67-.59,1.23-.83c-.65-.24-1.13-.55-1.42-.95s-.44-.84-.44-1.36c0-.67.27-1.25.82-1.74.55-.49,1.25-.74,2.11-.74.45,0,.92.09,1.41.29ZM739.49,455.14c-.5,0-.83.04-.99.12-.28.15-.42.36-.42.62s.14.48.43.68c.29.2.83.3,1.63.3.68,0,1.21-.09,1.6-.27.39-.18.58-.43.58-.76,0-.12-.04-.22-.11-.31-.13-.15-.33-.25-.6-.3-.27-.05-.98-.08-2.13-.08ZM739.92,447.53c-.28,0-.52.14-.72.43-.2.29-.29.88-.29,1.78,0,.73.1,1.23.29,1.5.19.27.42.41.68.41.29,0,.54-.13.73-.4s.29-.79.29-1.57c0-.87-.11-1.47-.33-1.79-.16-.23-.38-.35-.66-.35Z"/>
          <path d="M750.72,447.28v5.43c0,.48.06.79.17.93.11.13.33.21.66.23v.26h-3.7v-.26c.3,0,.53-.1.67-.26.1-.11.15-.41.15-.89v-4c0-.48-.06-.79-.17-.93-.11-.13-.33-.21-.65-.23v-.27h2.87ZM749.69,443.97c.32,0,.59.11.81.33.22.22.33.49.33.8s-.11.58-.33.8c-.22.22-.49.33-.8.33s-.58-.11-.8-.33-.33-.49-.33-.8.11-.58.33-.8c.22-.22.49-.33.8-.33Z"/>
          <path d="M756.54,447.09l.11,2.34h-.25c-.3-.69-.61-1.17-.93-1.42-.32-.25-.64-.38-.96-.38-.2,0-.37.07-.51.2-.14.13-.21.29-.21.46,0,.13.05.26.15.38.16.2.59.54,1.31,1.03.72.49,1.19.9,1.42,1.24.23.34.34.72.34,1.14,0,.38-.09.75-.29,1.12-.19.37-.46.65-.81.84s-.73.29-1.15.29c-.33,0-.76-.1-1.31-.31-.15-.05-.25-.08-.3-.08-.16,0-.29.12-.4.37h-.24l-.12-2.46h.25c.22.64.52,1.13.9,1.45.38.32.75.48,1.09.48.23,0,.43-.07.58-.22.15-.14.22-.32.22-.52,0-.23-.07-.44-.22-.61s-.47-.43-.98-.78c-.75-.52-1.23-.91-1.45-1.19-.32-.4-.48-.84-.48-1.33,0-.53.18-1,.54-1.43.36-.43.89-.64,1.58-.64.37,0,.73.09,1.08.27.13.07.24.11.32.11.09,0,.16-.02.21-.06.05-.04.14-.14.26-.31h.25Z"/>
          <path d="M767.39,452.37l.23.18c-.32.61-.72,1.06-1.2,1.35-.48.3-.99.44-1.54.44-.91,0-1.64-.34-2.19-1.03-.55-.69-.82-1.52-.82-2.48s.25-1.75.75-2.46c.6-.85,1.43-1.28,2.48-1.28.71,0,1.27.18,1.69.53.42.36.63.75.63,1.19,0,.28-.08.5-.25.67-.17.17-.39.25-.66.25-.29,0-.53-.09-.71-.29-.19-.19-.3-.53-.35-1.02-.03-.31-.1-.52-.21-.64s-.24-.18-.4-.18c-.23,0-.43.12-.6.37-.25.38-.38.95-.38,1.73,0,.64.1,1.26.31,1.85.21.59.49,1.03.84,1.31.27.21.59.32.95.32.24,0,.47-.06.68-.17s.47-.32.76-.64Z"/>
          <path d="M771.69,447.08c.6,0,1.15.15,1.66.46s.9.75,1.17,1.31c.27.57.4,1.19.4,1.86,0,.97-.25,1.78-.74,2.44-.6.79-1.42,1.19-2.47,1.19s-1.82-.36-2.38-1.08-.83-1.56-.83-2.51.28-1.84.85-2.57c.57-.73,1.35-1.09,2.34-1.09ZM771.71,447.6c-.25,0-.46.09-.64.28-.18.19-.3.56-.35,1.11-.06.55-.08,1.32-.08,2.31,0,.52.03,1.01.1,1.46.05.35.17.61.34.79s.38.27.6.27.4-.06.55-.18c.19-.17.32-.4.38-.7.1-.46.15-1.4.15-2.81,0-.83-.05-1.4-.14-1.71-.09-.31-.23-.54-.41-.68-.13-.1-.29-.15-.5-.15Z"/>
          <path d="M778.75,447.28v.89c.35-.38.69-.66,1.01-.83.32-.17.67-.26,1.04-.26.44,0,.81.12,1.11.37.29.25.49.55.59.92.08.28.12.81.12,1.6v2.67c0,.53.05.86.14.99.1.13.29.21.6.25v.26h-3.46v-.26c.26-.03.44-.14.56-.32.08-.12.12-.42.12-.91v-3.05c0-.56-.02-.92-.07-1.06s-.12-.26-.22-.34c-.11-.08-.22-.12-.35-.12-.42,0-.81.3-1.17.9v3.67c0,.51.05.84.14.97.09.14.27.22.53.26v.26h-3.46v-.26c.29-.03.49-.12.62-.28.08-.11.12-.42.12-.95v-3.87c0-.52-.05-.84-.14-.97-.09-.13-.29-.21-.6-.25v-.27h2.79Z"/>
          <path d="M787.02,444.78v2.51h1.63v.72h-1.63v4.23c0,.39.02.65.05.76.04.12.1.21.19.28.09.07.18.11.26.11.32,0,.62-.24.9-.73l.22.16c-.4.94-1.04,1.41-1.93,1.41-.43,0-.8-.12-1.1-.36-.3-.24-.49-.51-.58-.81-.05-.17-.07-.62-.07-1.35v-3.7h-.89v-.26c.62-.43,1.14-.89,1.57-1.37.43-.48.81-1.01,1.13-1.6h.24Z"/>
          <path d="M792.13,447.28v1.55c.45-.71.85-1.18,1.19-1.41.34-.23.67-.35.99-.35.27,0,.49.08.66.25.16.17.25.41.25.71,0,.33-.08.58-.24.76-.16.18-.35.27-.58.27-.26,0-.48-.08-.67-.25s-.3-.26-.34-.28c-.05-.03-.1-.04-.17-.04-.14,0-.28.05-.4.16-.2.17-.35.4-.45.71-.16.47-.23,1-.23,1.57v1.98c0,.28.02.46.06.54.06.13.15.23.26.29.11.06.31.1.58.11v.26h-3.7v-.26c.3-.02.5-.11.6-.25.1-.14.16-.51.16-1.1v-3.79c0-.39-.02-.64-.06-.75-.05-.14-.12-.24-.21-.3s-.26-.11-.49-.13v-.27h2.8Z"/>
          <path d="M798.91,447.08c.6,0,1.15.15,1.66.46s.9.75,1.17,1.31c.27.57.4,1.19.4,1.86,0,.97-.25,1.78-.74,2.44-.6.79-1.42,1.19-2.47,1.19s-1.82-.36-2.38-1.08-.83-1.56-.83-2.51.28-1.84.85-2.57c.57-.73,1.35-1.09,2.34-1.09ZM798.94,447.6c-.25,0-.46.09-.64.28-.18.19-.3.56-.35,1.11-.06.55-.08,1.32-.08,2.31,0,.52.03,1.01.1,1.46.05.35.17.61.34.79s.38.27.6.27.4-.06.55-.18c.19-.17.32-.4.38-.7.1-.46.15-1.4.15-2.81,0-.83-.05-1.4-.14-1.71-.09-.31-.23-.54-.41-.68-.13-.1-.29-.15-.5-.15Z"/>
          <path d="M805.86,444.2v8.51c0,.48.06.79.17.93.11.13.33.21.66.23v.26h-3.7v-.26c.3,0,.53-.1.67-.26.1-.11.15-.41.15-.89v-7.09c0-.48-.06-.79-.17-.92-.11-.13-.33-.21-.65-.23v-.27h2.87Z"/>
          <path d="M810.03,444.2v8.51c0,.48.06.79.17.93.11.13.33.21.66.23v.26h-3.7v-.26c.3,0,.53-.1.67-.26.1-.11.15-.41.15-.89v-7.09c0-.48-.06-.79-.17-.92-.11-.13-.33-.21-.65-.23v-.27h2.87Z"/>
          <path d="M815.29,453.12c-.83.74-1.58,1.11-2.25,1.11-.39,0-.72-.13-.97-.38-.26-.26-.39-.58-.39-.96,0-.52.22-.99.67-1.41.45-.42,1.43-.97,2.94-1.67v-.69c0-.52-.03-.84-.08-.98-.06-.13-.16-.25-.32-.35-.16-.1-.33-.15-.53-.15-.32,0-.58.07-.78.21-.13.09-.19.19-.19.31,0,.1.07.23.21.38.19.21.28.41.28.61,0,.24-.09.44-.27.61-.18.17-.41.25-.7.25-.31,0-.57-.09-.77-.28-.21-.18-.31-.4-.31-.65,0-.35.14-.69.42-1.01.28-.32.67-.57,1.16-.74s1.02-.26,1.55-.26c.65,0,1.16.14,1.54.41.38.28.62.58.74.9.07.21.1.68.1,1.41v2.66c0,.31.01.51.04.59.02.08.06.14.11.18s.1.06.17.06c.13,0,.26-.09.39-.27l.22.18c-.24.36-.5.62-.76.79-.26.16-.56.25-.89.25-.39,0-.7-.09-.92-.28-.22-.18-.35-.46-.4-.83ZM815.29,452.59v-2.29c-.59.35-1.03.72-1.32,1.11-.19.26-.29.53-.29.8,0,.22.08.42.24.59.12.13.29.2.51.2.24,0,.53-.14.85-.41Z"/>
          <path d="M821.67,444.2v3.77c.58-.59,1.21-.89,1.89-.89.47,0,.91.14,1.33.41.42.28.74.67.97,1.18s.35,1.09.35,1.76c0,.75-.15,1.43-.45,2.04s-.7,1.08-1.19,1.4c-.5.32-1.07.48-1.71.48-.37,0-.7-.06-.99-.18s-.57-.31-.85-.57l-1.13.74h-.25v-8.71c0-.4-.02-.64-.05-.73-.05-.14-.13-.24-.23-.3-.11-.07-.28-.1-.53-.11v-.27h2.84ZM821.67,448.62v3.05c0,.62.01,1.02.04,1.19.05.29.17.52.35.7.19.18.42.27.71.27.25,0,.46-.07.64-.21.18-.14.33-.42.45-.84.12-.42.18-1.18.18-2.27s-.13-1.77-.4-2.16c-.19-.28-.45-.43-.77-.43-.42,0-.82.24-1.21.71Z"/>
          <path d="M830.04,444.2v8.51c0,.48.06.79.17.93.11.13.33.21.66.23v.26h-3.7v-.26c.3,0,.53-.1.67-.26.1-.11.15-.41.15-.89v-7.09c0-.48-.06-.79-.17-.92-.11-.13-.33-.21-.65-.23v-.27h2.87Z"/>
          <path d="M837.33,450.46h-3.76c.04.91.29,1.63.72,2.15.34.41.74.61,1.22.61.29,0,.56-.08.8-.25.24-.16.5-.46.77-.88l.25.16c-.37.76-.78,1.29-1.23,1.61-.45.32-.97.47-1.56.47-1.02,0-1.79-.39-2.31-1.17-.42-.63-.63-1.41-.63-2.34,0-1.14.31-2.05.93-2.73.62-.68,1.34-1.01,2.17-1.01.69,0,1.29.28,1.81.85.51.57.78,1.41.82,2.53ZM835.52,449.97c0-.79-.04-1.33-.13-1.62-.09-.29-.22-.51-.4-.67-.1-.09-.24-.13-.41-.13-.25,0-.46.12-.62.37-.29.43-.43,1.03-.43,1.79v.26h1.99Z"/>
          <path d="M696.96,462.2l4.9,6.16v-4.27c0-.6-.08-1-.26-1.21-.23-.28-.63-.42-1.18-.41v-.27h3.28v.27c-.42.05-.7.12-.85.21-.14.09-.26.22-.34.42-.08.19-.12.52-.12.99v8.27h-.25l-6.72-8.27v6.31c0,.57.13.96.39,1.16.26.2.56.3.9.3h.23v.27h-3.52v-.27c.55,0,.93-.12,1.14-.34.21-.22.32-.59.32-1.12v-7.01l-.21-.26c-.21-.26-.4-.44-.56-.52s-.39-.13-.7-.14v-.27h3.52Z"/>
          <path d="M707.79,465.08c.6,0,1.15.15,1.66.46s.9.75,1.17,1.31c.27.57.4,1.19.4,1.86,0,.97-.25,1.78-.74,2.44-.6.79-1.42,1.19-2.47,1.19s-1.82-.36-2.38-1.08-.83-1.56-.83-2.51.28-1.84.85-2.57c.57-.73,1.35-1.09,2.34-1.09ZM707.82,465.6c-.25,0-.46.09-.64.28-.18.19-.3.56-.35,1.11-.06.55-.08,1.32-.08,2.31,0,.52.03,1.01.1,1.46.05.35.17.61.34.79s.38.27.6.27.4-.06.55-.18c.19-.17.32-.4.38-.7.1-.46.15-1.4.15-2.81,0-.83-.05-1.4-.14-1.71-.09-.31-.23-.54-.41-.68-.13-.1-.29-.15-.5-.15Z"/>
          <path d="M714.78,462.78v2.51h1.63v.72h-1.63v4.23c0,.39.02.65.05.76.04.12.1.21.19.28.09.07.18.11.26.11.32,0,.62-.24.9-.73l.22.16c-.4.94-1.04,1.41-1.93,1.41-.43,0-.8-.12-1.1-.36-.3-.24-.49-.51-.58-.81-.05-.17-.07-.62-.07-1.35v-3.7h-.89v-.26c.62-.43,1.14-.89,1.57-1.37.43-.48.81-1.01,1.13-1.6h.24Z"/>
          <path d="M727.42,465.28v5.36c0,.52.05.85.15.98.1.13.3.21.59.25v.26h-2.79v-.92c-.33.39-.65.68-.98.85-.33.18-.69.27-1.1.27s-.73-.12-1.03-.36c-.3-.24-.5-.51-.6-.83s-.15-.87-.15-1.66v-2.72c0-.52-.05-.84-.14-.97-.1-.13-.29-.21-.6-.25v-.27h2.79v4.68c0,.49.02.8.07.95.05.14.12.25.22.32.1.07.22.11.35.11.18,0,.33-.05.48-.14.2-.13.43-.38.7-.77v-3.66c0-.52-.05-.84-.14-.97-.1-.13-.29-.21-.6-.25v-.27h2.79Z"/>
          <path d="M731.94,465.28v.89c.35-.38.69-.66,1.01-.83.32-.17.67-.26,1.04-.26.44,0,.81.12,1.11.37.29.25.49.55.59.92.08.28.12.81.12,1.6v2.67c0,.53.05.86.14.99.1.13.29.21.6.25v.26h-3.46v-.26c.26-.03.44-.14.56-.32.08-.12.12-.42.12-.91v-3.05c0-.56-.02-.92-.07-1.06s-.12-.26-.22-.34c-.11-.08-.22-.12-.35-.12-.42,0-.81.3-1.17.9v3.67c0,.51.05.84.14.97.09.14.27.22.53.26v.26h-3.46v-.26c.29-.03.49-.12.62-.28.08-.11.12-.42.12-.95v-3.87c0-.52-.05-.84-.14-.97-.09-.13-.29-.21-.6-.25v-.27h2.79Z"/>
          <path d="M740.16,465.28v5.43c0,.48.06.79.17.93.11.13.33.21.66.23v.26h-3.7v-.26c.3,0,.53-.1.67-.26.1-.11.15-.41.15-.89v-4c0-.48-.06-.79-.17-.93-.11-.13-.33-.21-.65-.23v-.27h2.87ZM739.14,461.97c.32,0,.59.11.81.33.22.22.33.49.33.8s-.11.58-.33.8c-.22.22-.49.33-.8.33s-.58-.11-.8-.33-.33-.49-.33-.8.11-.58.33-.8c.22-.22.49-.33.8-.33Z"/>
          <path d="M744.66,466v4.75c0,.46.05.75.15.86.16.18.44.26.86.25v.26h-4.04v-.26c.31,0,.53-.04.66-.11.13-.07.22-.16.27-.27s.07-.36.07-.73v-4.75h-1v-.72h1v-.85c0-.7.25-1.29.77-1.76.51-.47,1.21-.7,2.09-.7.6,0,1.05.11,1.34.34.29.23.44.47.44.75,0,.22-.09.41-.27.57-.18.16-.42.24-.72.24-.25,0-.46-.07-.6-.2-.15-.13-.22-.28-.22-.44,0-.04.01-.13.04-.27.02-.08.03-.16.03-.23,0-.1-.03-.18-.09-.23-.08-.07-.17-.11-.29-.11-.14,0-.26.06-.35.18-.1.12-.14.31-.14.56v1.28s.01.87.01.87h1.01v.72h-1.01Z"/>
          <path d="M749.88,465.08c.6,0,1.15.15,1.66.46s.9.75,1.17,1.31c.27.57.4,1.19.4,1.86,0,.97-.25,1.78-.74,2.44-.6.79-1.42,1.19-2.47,1.19s-1.82-.36-2.38-1.08-.83-1.56-.83-2.51.28-1.84.85-2.57c.57-.73,1.35-1.09,2.34-1.09ZM749.91,465.6c-.25,0-.46.09-.64.28-.18.19-.3.56-.35,1.11-.06.55-.08,1.32-.08,2.31,0,.52.03,1.01.1,1.46.05.35.17.61.34.79s.38.27.6.27.4-.06.55-.18c.19-.17.32-.4.38-.7.1-.46.15-1.4.15-2.81,0-.83-.05-1.4-.14-1.71-.09-.31-.23-.54-.41-.68-.13-.1-.29-.15-.5-.15Z"/>
          <path d="M756.99,465.28v1.55c.45-.71.85-1.18,1.19-1.41.34-.23.67-.35.99-.35.27,0,.49.08.66.25.16.17.25.41.25.71,0,.33-.08.58-.24.76-.16.18-.35.27-.58.27-.26,0-.48-.08-.67-.25s-.3-.26-.34-.28c-.05-.03-.1-.04-.17-.04-.14,0-.28.05-.4.16-.2.17-.35.4-.45.71-.16.47-.23,1-.23,1.57v1.98c0,.28.02.46.06.54.06.13.15.23.26.29.11.06.31.1.58.11v.26h-3.7v-.26c.3-.02.5-.11.6-.25.1-.14.16-.51.16-1.1v-3.79c0-.39-.02-.64-.06-.75-.05-.14-.12-.24-.21-.3s-.26-.11-.49-.13v-.27h2.8Z"/>
          <path d="M763.65,465.28v.9c.38-.41.72-.7,1.04-.86.32-.16.67-.25,1.05-.25.44,0,.81.1,1.11.31s.53.52.69.94c.39-.44.77-.76,1.12-.95.36-.2.73-.29,1.12-.29.47,0,.85.11,1.13.33.28.22.48.49.59.83.11.33.17.87.17,1.6v2.8c0,.53.05.85.14.98.1.13.29.21.6.25v.26h-3.54v-.26c.28-.02.48-.13.62-.32.09-.13.13-.43.13-.91v-2.94c0-.61-.02-1-.07-1.17-.05-.17-.13-.29-.23-.37-.11-.08-.23-.12-.37-.12-.21,0-.42.08-.64.23-.21.15-.43.38-.65.69v3.68c0,.49.04.8.12.93.11.18.33.28.64.3v.26h-3.54v-.26c.19,0,.34-.06.45-.14.11-.09.18-.19.22-.31.04-.12.05-.38.05-.78v-2.94c0-.62-.02-1.01-.07-1.17-.05-.16-.13-.28-.25-.37-.12-.09-.24-.13-.37-.13-.2,0-.37.05-.53.15-.23.15-.47.41-.73.78v3.68c0,.48.05.8.14.96.09.15.29.25.6.27v.26h-3.53v-.26c.29-.03.49-.12.62-.28.08-.11.12-.42.12-.95v-3.87c0-.52-.05-.84-.14-.97-.09-.13-.29-.21-.6-.25v-.27h2.79Z"/>
          <path d="M779.9,465.28v1.55c.45-.71.85-1.18,1.19-1.41.34-.23.67-.35.99-.35.27,0,.49.08.66.25.16.17.25.41.25.71,0,.33-.08.58-.24.76-.16.18-.35.27-.57.27-.26,0-.48-.08-.67-.25s-.3-.26-.34-.28c-.05-.03-.11-.04-.17-.04-.14,0-.28.05-.4.16-.2.17-.35.4-.45.71-.16.47-.23,1-.23,1.57v1.98c0,.28.02.46.06.54.06.13.14.23.26.29.11.06.31.1.58.11v.26h-3.7v-.26c.3-.02.5-.11.6-.25.11-.14.16-.51.16-1.1v-3.79c0-.39-.02-.64-.06-.75-.05-.14-.12-.24-.21-.3s-.26-.11-.49-.13v-.27h2.8Z"/>
          <path d="M787.49,471.12c-.83.74-1.58,1.11-2.25,1.11-.39,0-.72-.13-.97-.38-.26-.26-.39-.58-.39-.96,0-.52.22-.99.67-1.41.45-.42,1.43-.97,2.94-1.67v-.69c0-.52-.03-.84-.08-.98-.06-.13-.16-.25-.32-.35-.16-.1-.33-.15-.53-.15-.32,0-.58.07-.78.21-.13.09-.19.19-.19.31,0,.1.07.23.21.38.19.21.28.41.28.61,0,.24-.09.44-.27.61-.18.17-.41.25-.7.25-.31,0-.57-.09-.77-.28-.21-.18-.31-.4-.31-.65,0-.35.14-.69.42-1.01.28-.32.67-.57,1.16-.74s1.02-.26,1.55-.26c.65,0,1.16.14,1.54.41.38.28.62.58.74.9.07.21.1.68.1,1.41v2.66c0,.31.01.51.04.59.02.08.06.14.11.18s.1.06.17.06c.13,0,.26-.09.39-.27l.22.18c-.24.36-.5.62-.76.79-.26.16-.56.25-.89.25-.39,0-.7-.09-.92-.28-.22-.18-.35-.46-.4-.83ZM787.49,470.59v-2.29c-.59.35-1.03.72-1.32,1.11-.19.26-.29.53-.29.8,0,.22.08.42.24.59.12.13.29.2.51.2.24,0,.53-.14.85-.41Z"/>
          <path d="M794.01,465.28v.89c.35-.38.69-.66,1.01-.83.32-.17.67-.26,1.04-.26.44,0,.81.12,1.11.37.29.25.49.55.59.92.08.28.12.81.12,1.6v2.67c0,.53.05.86.14.99.1.13.29.21.6.25v.26h-3.46v-.26c.26-.03.44-.14.56-.32.08-.12.12-.42.12-.91v-3.05c0-.56-.02-.92-.07-1.06s-.12-.26-.22-.34c-.11-.08-.22-.12-.35-.12-.42,0-.81.3-1.17.9v3.67c0,.51.05.84.14.97.09.14.27.22.53.26v.26h-3.46v-.26c.29-.03.49-.12.62-.28.08-.11.12-.42.12-.95v-3.87c0-.52-.05-.84-.14-.97-.09-.13-.29-.21-.6-.25v-.27h2.79Z"/>
          <path d="M806.21,462.2v7.88c0,.53.01.85.04.95.04.16.11.28.22.36.11.08.3.13.58.15v.24l-2.89.56v-1.08c-.35.42-.66.71-.93.86-.27.15-.58.23-.92.23-.87,0-1.56-.39-2.07-1.17-.41-.63-.62-1.41-.62-2.34,0-.74.13-1.4.38-1.98.25-.58.6-1.02,1.04-1.32.44-.3.92-.45,1.42-.45.33,0,.62.06.87.19.25.13.52.35.81.67v-2.07c0-.52-.02-.84-.07-.95-.06-.14-.15-.25-.26-.31s-.34-.1-.66-.1v-.31h3.04ZM804.16,466.84c-.36-.69-.8-1.04-1.33-1.04-.18,0-.33.05-.45.15-.18.15-.33.42-.44.8-.11.38-.17.96-.17,1.75,0,.86.06,1.5.19,1.92s.3.72.52.9c.11.09.27.14.46.14.43,0,.83-.34,1.22-1.01v-3.6Z"/>
          <path d="M811.13,465.08c.6,0,1.15.15,1.66.46s.9.75,1.17,1.31c.27.57.4,1.19.4,1.86,0,.97-.25,1.78-.74,2.44-.6.79-1.42,1.19-2.47,1.19s-1.82-.36-2.38-1.08-.83-1.56-.83-2.51.28-1.84.85-2.57c.57-.73,1.35-1.09,2.34-1.09ZM811.16,465.6c-.25,0-.46.09-.64.28-.18.19-.3.56-.35,1.11-.06.55-.08,1.32-.08,2.31,0,.52.03,1.01.1,1.46.05.35.17.61.34.79s.38.27.6.27.4-.06.55-.18c.19-.17.32-.4.38-.7.1-.46.15-1.4.15-2.81,0-.83-.05-1.4-.14-1.71-.09-.31-.23-.54-.41-.68-.13-.1-.29-.15-.5-.15Z"/>
          <path d="M818.24,465.28v.9c.38-.41.72-.7,1.04-.86.32-.16.67-.25,1.05-.25.44,0,.81.1,1.11.31s.53.52.69.94c.39-.44.77-.76,1.12-.95.36-.2.73-.29,1.12-.29.47,0,.85.11,1.13.33.28.22.48.49.59.83.11.33.17.87.17,1.6v2.8c0,.53.05.85.14.98.1.13.29.21.6.25v.26h-3.54v-.26c.28-.02.48-.13.62-.32.09-.13.13-.43.13-.91v-2.94c0-.61-.02-1-.07-1.17-.05-.17-.13-.29-.23-.37-.11-.08-.23-.12-.37-.12-.21,0-.42.08-.64.23-.21.15-.43.38-.65.69v3.68c0,.49.04.8.12.93.11.18.33.28.64.3v.26h-3.54v-.26c.19,0,.34-.06.45-.14.11-.09.18-.19.22-.31.04-.12.05-.38.05-.78v-2.94c0-.62-.02-1.01-.07-1.17-.05-.16-.13-.28-.25-.37-.12-.09-.24-.13-.37-.13-.2,0-.37.05-.54.15-.23.15-.47.41-.73.78v3.68c0,.48.05.8.14.96.09.15.29.25.6.27v.26h-3.53v-.26c.29-.03.49-.12.62-.28.08-.11.12-.42.12-.95v-3.87c0-.52-.05-.84-.14-.97-.09-.13-.29-.21-.6-.25v-.27h2.79Z"/>
        </g>
      </g>
    </g>
  </g>
  <g class="st14">
    <g class="st14">
      <g class="st14">
        <text class="st13" transform="translate(100.09 383.36)"><tspan x="0" y="0">Configurable weights</tspan></text>
      </g>
    </g>
  </g>
</svg>