<?xml version="1.0" encoding="UTF-8"?>
<svg id="_图层_1" data-name="图层_1" xmlns="http://www.w3.org/2000/svg" version="1.1" viewBox="0 0 900 503">
  <!-- Generator: Adobe Illustrator 29.6.0, SVG Export Plug-In . SVG Version: 2.1.1 Build 207)  -->
  <defs>
    <style>
      .st0 {
        fill: #cbcece;
      }

      .st1 {
        font-size: 25px;
      }

      .st1, .st2 {
        font-family: TimesNewRomanPS-BoldMT, 'Times New Roman';
        font-weight: 700;
      }

      .st3 {
        fill: #f6f6f2;
      }

      .st4 {
        fill: #cfd3d3;
      }

      .st5 {
        fill: #666664;
      }

      .st6 {
        fill: #c3c3c3;
      }

      .st7 {
        fill: #ccd0d0;
      }

      .st8 {
        fill: #cbe8d6;
      }

      .st9 {
        fill: #fbfbf9;
      }

      .st2 {
        font-size: 18px;
      }

      .st10 {
        fill: #bbbbba;
      }

      .st11 {
        fill: #a62d24;
      }

      .st11, .st12, .st13 {
        font-family: AdobeSongStd-Light-GBpc-EUC-H, 'Adobe Song Std';
        font-weight: 300;
      }

      .st12 {
        fill: #ca2b1c;
      }

      .st14 {
        fill: #cbe8d7;
      }

      .st15, .st16 {
        font-size: 15px;
      }

      .st15, .st17 {
        font-family: TimesNewRomanPSMT, 'Times New Roman';
      }

      .st18 {
        fill: #c8c8c9;
      }

      .st19 {
        fill: #c9cacb;
      }

      .st20 {
        fill: #fdfdfc;
      }

      .st13 {
        fill: #d62a18;
      }

      .st21 {
        fill: #cacccd;
      }

      .st22 {
        fill: #419f6e;
      }

      .st23 {
        fill: #eceff3;
      }

      .st24 {
        fill: #575857;
      }

      .st25 {
        fill: #41a16f;
      }

      .st26 {
        fill: #e1e4e5;
      }

      .st27 {
        fill: #f9c8c5;
      }

      .st28 {
        fill: #a1a0a0;
      }
    </style>
  </defs>
  <g id="_x23_eceff3ff">
    <path class="st23" d="M0,0h900v503H0V0M44.82,95.61c.4.15,1.2.44,1.6.59-3.75,1.3-7.69,4.45-7.38,8.83-.08,15.94-.09,31.89.02,47.83h-1.04c-.04-10.28.45-20.57.03-30.85-.32-6.11.73-12.26-.38-18.33-1.61,8.67-.84,17.54-1.03,26.31-.09,106.01-.03,212.01-.05,318.02.2,5.78-1.14,12.01,1.93,17.29,1.65,4.75,6.7,7.11,11.25,8.21,26.07-.1,52.15.05,78.21-.1,4.69-1.15,9.34.47,14.05.09,23.67-.1,47.34,0,71.01-.03,10.54-.26,21.13.6,31.62-.63,10.26,1.27,20.64.28,30.96.67,6.02-.59,13.17-.39,17.41-5.51,2.85-4.42,3.8-9.84,3.35-15.03,0-51.67.1-103.35.03-155.02-.14-1.44.52-2.71,1.18-3.93,4.7-.04,9.47.41,14.13-.34,4.98-.96,8.67-5.76,8.59-10.79.19-31.33-.09-62.66,0-93.99-.17-4.5,2.97-9.24,7.61-9.86,5.3-.35,10.63-.05,15.94-.2-1.26,1.31-3.64,2.16-3.16,4.41,3.23-1.68,6.36-3.56,9.57-5.28-3.18-1.98-6.35-4.03-9.86-5.38.86,1.53,1.89,2.97,3,4.34-5.2.12-10.42-.17-15.61.14-5.46,1.01-9.59,6.42-9.27,11.97-.05,31,.01,62.01-.04,93.01.28,4.54-2.88,9.15-7.49,9.87-5.16.49-10.35-.03-15.52.04.7-1.9,1.14-3.89,1.05-5.92-.1-2.93.41-6.4-2.18-8.46v-.7l.74,1.28c1.66-2.05.87-4.57.63-6.91-.58-4.43.75-8.81.74-13.24-.14-47.66.02-95.33-.19-143-.74-4.84.11-10.22-2.38-14.61l.06,1.74c-1.78-2.55-4.19-4.81-7.18-5.84h1.42c-.31-.2-.94-.63-1.25-.85-15.61-.29-31.25,0-46.88-.05-60.02.02-120.04-.02-180.06.01-5.06,0-10.13-.15-15.18.2M604.73,104.76c-.54,10.71-.28,21.44-.35,32.17-.08,5.62.41,11.31-.66,16.87-.41,43.74-.06,87.5-.2,131.25-.03,2.55-.07,5.13.44,7.65-2.94-1.38-5.62-4.46-9-4.18,1.09,1.22,2.23,2.42,3.37,3.62-4.79-.06-10.31-.52-14.03,3.12-3.4,2.89-3.92,7.54-3.69,11.72.05,31.04,0,62.09.04,93.13-.02,4.6-3.99,8.68-8.58,8.84-5.85.35-11.71-.08-17.57.04-2.02-4.88-.3-10.22-1.33-15.24-1.5-4.31-5.12-8.83-10.15-8.49-21-.03-42-.01-63-.03-9.24-.08-18.48.33-27.7-.28,1.85-2.86,3.93-5.65,4.94-8.94-1.52.85-2.97,1.83-4.4,2.82.03-6.79.07-13.59.01-20.38.32.3.96.9,1.27,1.2,5.64-.37,11.2,1.07,16.83.78,23.34-.1,46.69-.08,70.03-.03,5.38.04,11.87-3.64,11.47-9.73.24-10.54-.06-21.1.13-31.64.18-3.14-.78-6.34-3.23-8.41-3.71-3.89-9.53-2.51-14.31-2.73-27.51-.2-55.04.35-82.54-.27,1.7-2.96,3.53-5.85,4.99-8.94-1.77.35-3.15,1.5-4.54,2.55.06-5.99.04-11.98.05-17.96,11.99.48,23.96-.23,35.95-.41,8.99.72,18.06.83,27.05-.08,7.95.9,15.95.48,23.94.59,4.78-.06,10.42-2.4,11.82-7.4,1.03-1.4.66-3.26.82-4.88-.11-10.34.04-20.69-.12-31.03.03-5.03-4.29-9.58-9.43-9.29-18.69-.12-37.38,0-56.07-.04-11.55-.06-23.11.35-34.64-.33,1.8-3.1,4.25-6,4.94-9.6-1.6,1.11-3.09,2.37-4.52,3.69.36-6.08.14-12.17.25-18.26,6.68.7,13.32-.71,20-.59,23.02.1,46.04-.03,69.05.03,4,.21,7.26-2.45,9.94-5.09.99-2.72,1.44-5.62,1.36-8.51-.14-8.37-.04-16.73-.04-25.09-.1-4.67-1.38-10.08-5.69-12.62-1.97-1.33-4.45-1.09-6.7-1.17-46.73.2-93.45-.06-140.17.18-13.95.08-27.9-.05-41.85.06-4.45.09-8.28,4.2-8.22,8.62-.08,10.63.01,21.27-.06,31.91-.52,5.19,4.56,9.16,9.39,9.26,13.52.2,27.06-.17,40.59.16v-.98s.8,1.65.8,1.65c14.54-.13,29.09-.03,43.64-.04,1.97-.03,3.93-.38,5.88-.72.52,7.1.15,14.23.28,21.34-1.33-1.46-2.67-2.96-4.46-3.87,1.13,3.5,3.24,6.54,5.17,9.64-17.04.79-34.12.17-51.17.39-13.91-.03-27.83-.1-41.73.02-3.78-.16-6.58,2.86-8.14,5.97-2.34,3.59-1.98,8.12-1.5,12.18.26,7.28.28,14.6-.64,21.84.62,4.7,2.44,10.11,7.1,12.24,1.98.66,4.12.4,6.18.48,16.28-.13,32.56.11,48.84-.14,13.38-.37,26.78.41,40.14-.12.08,5.98.05,11.96.14,17.95-1.45-1.02-2.74-2.28-4.52-2.72,1.37,3.23,3.16,6.25,5.2,9.1-17.03.59-34.09-.11-51.11.45-12.55-.3-25.11-.01-37.66-.16-2.69.05-5.59-.23-8.02,1.16-2.85,1.5-4.45,4.75-4.35,7.91-.03,10.01.04,20.01-.04,30.02.03,1.65-.1,3.35.38,4.95-.23,4.26,3.69,8.06,7.93,7.78,5.69.12,11.4-.38,17.07.39,5.34.71,10.66-.52,16-.53,5.34-.22,10.61,1.08,15.95.85,11.34-.18,22.68.25,34.01-.15,2.98-.48,6.39,0,9.01-1.74.01,6.78.13,13.56.14,20.34-1.47-.87-2.65-2.98-4.62-2.36,1.6,2.87,3.37,5.65,5.03,8.49-16.92.7-33.87-.11-50.79.39-13.6.04-27.21,0-40.81,0-4.04-.23-7.91,2.49-9.06,6.37-.86,1.6-1.5,3.33-1.38,5.18-.05,10,.03,20-.05,30.01-.15,3.47.88,7.4,4.06,9.28,5.11,2.57,11.03,1.92,16.53,1.44,8.65.62,17.35.93,25.98-.03,47.66-.08,95.33-.07,142.99-.01,3.34-.22,7.3.84,10.06-1.62,3.31-2.57,4.67-6.93,4.32-11-.27-4.73.57-9.58-.69-14.21,5.76.19,11.52-.07,17.29.02,3.42.15,7.12-.69,9.47-3.36,2.42-2.49,3.17-6.04,3.06-9.4-.03-31.03-.02-62.07-.02-93.1-.08-3.25.78-6.85,3.61-8.8,3.41-2.76,8-1.82,12.04-2.02-1.21,1.31-2.37,2.65-3.38,4.11,1.39-.35,2.77-.83,4.01-1.59,1.9,3.13,1.1,6.86,1.37,10.31-.05,6.67.76,13.34.21,20.01-.57,17.6.42,35.25-.81,52.82-.34.83-.75,1.61-1.15,2.41.28.15.84.46,1.12.61,1.07,6.22.4,12.54,1.04,18.79.36,4.38-.1,8.77-.07,13.16-.43,10.08-.18,20.18-.3,30.27.11,2.38-1.12,4.5-1.69,6.75.65,2.36,1.87,4.59,1.9,7.1.29,3.3-.66,6.79.86,9.9,1.67,3.8,3.86,7.4,6.65,10.5,1.23-.32,2.5-.97,3.8-.59,4.74,1.2,9.68,1.1,14.52,1.66,4.94.64,9.77-1.61,14.69-.48,5.09.93,10.24-.04,15.35.17.14.41.43,1.23.57,1.64,2.94-.19,5.89-1.28,8.84-.65.38-.25,1.14-.75,1.52-1.01,6.32.7,12.67-.08,19,.37,5.77.28,11.51-1.1,17.26-.17,2.43-.42,5.76-1.39,6.74,1.76.26.12.77.37,1.02.49.91-.87,1.8-1.76,2.82-2.5,1.03.37,2.02.88,3.02,1.37.59-.27,1.18-.54,1.79-.8.56.61,1.14,1.22,1.72,1.84,1.07-.2,2.13-.4,3.22-.59-.94-.58-1.88-1.16-2.79-1.73,4.4-.82,8.86,2.34,13-.11,4.08,2.81,8.84.07,13.3.56,4.69.42,9.44-.44,14.08.44,3.84-1.54,7.96.09,11.94-.52,5.79-.79,11.83-.61,17.32,1.61-.48-.82-.95-1.63-1.4-2.44,1.76.29,2.83,1.55,3.62,3.07.74-.84,1.51-1.66,2.31-2.46,1.95,1.37,4.09,2.86,6.62,2.49,2.54.22,3.56-3.25,6.13-2.83,4.88.71,9.98-.49,14.69,1.25.35-.2,1.03-.59,1.37-.78.35.2,1.04.61,1.39.81.85-.46,1.7-.92,2.58-1.36,1.35.49,2.71.98,4.08,1.46,4.04-1.84,8.47-.27,12.7-.98,2.96-.58,5.99.38,8.92.02,3.27-2.09,7.61-1.3,10.57-4.02,2.2-2.39,2.76-5.78,3.63-8.8.34-.27,1.01-.82,1.34-1.09-.36-3.01-.14-6.05-.61-9.05-.72-5.75.91-11.89-1.66-17.31,1.83-3.39,2.01-7.15,1.15-10.83.83-4.14-1.43-8.05-.88-12.2.49-5.24-.84-10.42-.54-15.65.69-4.97-.97-9.95-.03-14.91.74-3.39.8-6.87,1.38-10.28.5-3.11-.74-6.21-.22-9.32.82-3.06-1.26-6.27.72-9.1-.65-1-1.28-2-1.91-2.99,2.83-3.92,1.62-8.89,2.02-13.37.53-4.97-3.47-10.07-.46-14.8-.45-.82-.9-1.63-1.34-2.43.58-.31,1.16-.61,1.76-.92-1.09-1.8-1.05-3.9-1.26-5.92-.46-1.74-1.14-3.49-.55-5.3.97-3.97-.12-8-.13-12-.13-6.58-.03-13.17-.09-19.75-.1-.98.54-1.74,1.01-2.52.4,1.43.79,2.87,1.19,4.31.72-3.64-2.6-6.4-2.03-9.98,2.27-2.88,2.05-6.57,1.83-10-4.36-2.39-.75-7.18.52-10.35-.9-.05-1.79-.09-2.67-.13.15-1.44.27-2.88.37-4.32.76.42,1.52.84,2.3,1.27-.69-3-1.49-6.08-.64-9.14.75-2.93-.92-5.63-1.16-8.48.57-8.75-.39-17.51.26-26.26-1.22-11.07-1.01-22.2-1.03-33.32.14-2.06,1.13-4.11.39-6.17-.87-2.67.55-5.42-.17-8.11-.82-3.34,2.4-6.48,1.03-9.74-1.96-4.28.25-8.91-.61-13.37.06-7.02-.26-14.04-.71-21.06-.32-3.35-2.34-6.19-3.9-9.07-.2-.93-.43-1.84-.69-2.74l-.91.31c-2.24-2.67-5.26-4.99-8.95-4.61-80.11-.13-160.23.21-240.34-.17,1.04-.49,2.14-.75,3.31-.78,63.68.02,127.37-.02,191.06-.02,16.4-.16,32.82.39,49.2-.24-1.08-.15-2.14-.26-3.2-.35-78.68-.02-157.36-.04-236.04-.01-5.58-.56-11.13,3.82-11.23,9.56Z"/>
  </g>
  <g id="_x23_c8c8c9ff">
    <path class="st18" d="M44.82,95.61c5.05-.35,10.12-.2,15.18-.2,60.02-.03,120.04,0,180.06-.01,15.63.05,31.27-.24,46.88.05.31.22.94.65,1.25.86h-1.42c-80.11-.21-160.23.02-240.35-.11-.4-.15-1.2-.44-1.6-.59Z"/>
    <path class="st18" d="M55.4,432.05l.55-.47c73.81-.06,147.63-.04,221.45-.02.06,6.56.04,13.13.01,19.7-61.14.05-122.28.06-183.43.02-12.91-.11-25.84.24-38.74-.21.22-6.34-.09-12.69.16-19.02Z"/>
  </g>
  <g id="_x23_c9cacbff">
    <path class="st19" d="M604.73,104.76c.1-5.74,5.65-10.12,11.23-9.56,78.68-.03,157.36,0,236.04.01,1.06.09,2.12.2,3.2.35-16.38.63-32.8.08-49.2.24-63.69,0-127.38.04-191.06.02-1.17.03-2.27.29-3.31.78-3.88,1.36-6.31,5.36-5.98,9.43-.03,15.65-.11,31.31.03,46.97,74.12.35,148.23-.17,222.35.1,11.22-.16,22.44-.09,33.66-.15-.08-13.3-.01-26.6,0-39.9,0-3.89.21-7.86-.77-11.67l.91-.31c.26.9.49,1.81.69,2.74.39,29.38-.04,58.76.11,88.15.24,48.68-.09,97.35.1,146.03.15,36.34-.07,72.68.04,109.01-.01,6.58,1.94,14.32-2.95,19.73-3.54,4.63-9.93,4.57-15.12,3.59-4.31-.99-8.46,1.26-12.76,1.07-7.98-.03-15.95-.02-23.93,0-7.34.23-14.67-.8-22-.02-33.65.06-67.31-.01-100.95-.05-7.04-.94-14.06.34-21.11.05-9.12-.17-18.26.51-27.35-.54-8.31.03-17.07,2.05-25.04-1.28-4.31-1.61-7.93-6.29-5.99-10.99.57,4.64,4.39,8.95,9.35,8.51,78.69.04,157.38.02,236.08.05,2.97.05,6.21-.56,8.25-2.94,3.41-3.5,2.3-8.77,2.46-13.16-.15-99.05.04-198.1-.08-297.15-85.2-.24-170.41.04-255.61-.08-.57,0-1.72.01-2.3.01,1.07-5.56.58-11.25.66-16.87.07-10.73-.19-21.46.35-32.17Z"/>
  </g>
  <g id="_x23_ccd0d0ff">
    <path class="st7" d="M293.89,100.4c2.49,4.39,1.64,9.77,2.38,14.61.21,47.67.05,95.34.19,143,.01,4.43-1.32,8.81-.74,13.24.24,2.34,1.03,4.86-.63,6.91l-.74-1.28c-.03-41,0-82.01-.1-123.01-57.78-.1-115.56.01-173.33-.07-27.51.17-55.02-.24-82.52.22.12,101.02-.04,202.05-.03,303.08-.46,5.31,4.12,10.43,9.57,9.91,78.68.04,157.36-.04,236.03.04,4.13.32,8.77-1.88,9.9-6.11.82-4.28.28-8.65.35-12.97.06-56.8-.21-113.6.13-170.39,2.59,2.06,2.08,5.53,2.18,8.46.09,2.03-.35,4.02-1.05,5.92-.22.49-.66,1.49-.89,1.98.75.02,2.25.06,3,.08-.66,1.22-1.32,2.49-1.18,3.93.07,51.67-.03,103.35-.03,155.02.45,5.19-.5,10.61-3.35,15.03-4.24,5.12-11.39,4.92-17.41,5.51-10.32-.39-20.7.6-30.96-.67-10.49,1.23-21.08.37-31.62.63-23.67.03-47.34-.07-71.01.03-4.71.38-9.36-1.24-14.05-.09-26.06.15-52.14,0-78.21.1-4.55-1.1-9.6-3.46-11.25-8.21-3.07-5.28-1.73-11.51-1.93-17.29.02-106.01-.04-212.01.05-318.02.19-8.77-.58-17.64,1.03-26.31,1.11,6.07.06,12.22.38,18.33.42,10.28-.07,20.57-.03,30.84h1.04c85.06.36,170.11-.09,255.18.11.24-16.94.18-33.89-.29-50.82l-.06-1.74Z"/>
    <path class="st7" d="M349.38,248.96c-.48-4.06-.84-8.59,1.5-12.18-.08,11.75-.11,23.52.05,35.27-.03,4.7,4.47,8.35,9.02,8.1,13.6.07,27.21.07,40.8-.04,16.75-.43,33.5-.25,50.25-.12v3.27c-13.36.53-26.76-.25-40.14.12-16.28.25-32.56.01-48.84.14-2.06-.08-4.2.18-6.18-.48-4.66-2.13-6.48-7.54-7.1-12.24.92-7.24.9-14.56.64-21.84Z"/>
  </g>
  <g id="_x23_e1e4e5ff">
    <path class="st26" d="M862.52,103.81c1.56,2.88,3.58,5.72,3.9,9.07.45,7.02.77,14.04.71,21.06.86,4.46-1.35,9.09.61,13.37,1.37,3.26-1.85,6.4-1.03,9.74.72,2.69-.7,5.44.17,8.11.74,2.06-.25,4.11-.39,6.17.02,11.12-.19,22.25,1.03,33.32-.65,8.75.31,17.51-.26,26.26.24,2.85,1.91,5.55,1.16,8.48-.85,3.06-.05,6.14.64,9.14-.78-.43-1.54-.85-2.3-1.27-.1,1.44-.22,2.88-.37,4.32.88.04,1.77.08,2.67.13-1.27,3.17-4.88,7.96-.52,10.35.22,3.43.44,7.12-1.83,10-.57,3.58,2.75,6.34,2.03,9.98-.4-1.44-.79-2.88-1.19-4.31-.47.78-1.11,1.54-1.01,2.52.06,6.58-.04,13.17.09,19.75.01,4,1.1,8.03.13,12-.59,1.81.09,3.56.55,5.3.21,2.02.17,4.12,1.26,5.92-.6.31-1.18.61-1.76.92.44.8.89,1.61,1.34,2.43-3.01,4.73.99,9.83.46,14.8-.4,4.48.81,9.45-2.02,13.37.63.99,1.26,1.99,1.91,2.99-1.98,2.83.1,6.04-.72,9.1-.52,3.11.72,6.21.22,9.32-.58,3.41-.64,6.89-1.38,10.28-.94,4.96.72,9.94.03,14.91-.3,5.23,1.03,10.41.54,15.65-.55,4.15,1.71,8.06.88,12.2.86,3.68.68,7.44-1.15,10.83,2.57,5.42.94,11.56,1.66,17.31.47,3,.25,6.04.61,9.05-.33.27-1,.82-1.34,1.09-.87,3.02-1.43,6.41-3.63,8.8-2.96,2.72-7.3,1.93-10.57,4.02-2.93.36-5.96-.6-8.92-.02-4.23.71-8.66-.86-12.7.98-1.37-.48-2.73-.97-4.08-1.46-.88.44-1.73.9-2.58,1.36-.35-.2-1.04-.61-1.39-.81-.34.19-1.02.58-1.37.78-4.71-1.74-9.81-.54-14.69-1.25-2.57-.42-3.59,3.05-6.13,2.83-2.53.37-4.67-1.12-6.62-2.49-.8.8-1.57,1.62-2.31,2.46-.79-1.52-1.86-2.78-3.62-3.07.45.81.92,1.62,1.4,2.44-5.49-2.22-11.53-2.4-17.32-1.61-3.98.61-8.1-1.02-11.94.52-4.64-.88-9.39-.02-14.08-.44-4.46-.49-9.22,2.25-13.3-.56-4.14,2.45-8.6-.71-13,.11.91.57,1.85,1.15,2.79,1.73-1.09.19-2.15.39-3.22.59-.58-.62-1.16-1.23-1.72-1.84-.61.26-1.2.53-1.79.8-1-.49-1.99-1-3.02-1.37-1.02.74-1.91,1.63-2.82,2.5-.25-.12-.76-.37-1.02-.49-.98-3.15-4.31-2.18-6.74-1.76-5.75-.93-11.49.45-17.26.17-6.33-.45-12.68.33-19-.37-.38.26-1.14.76-1.52,1.01-2.95-.63-5.9.46-8.84.65-.14-.41-.43-1.23-.57-1.64-5.11-.21-10.26.76-15.35-.17-4.92-1.13-9.75,1.12-14.69.48-4.84-.56-9.78-.46-14.52-1.66-1.3-.38-2.57.27-3.8.59-2.79-3.1-4.98-6.7-6.65-10.5-1.52-3.11-.57-6.6-.86-9.9-.03-2.51-1.25-4.74-1.9-7.1.57-2.25,1.8-4.37,1.69-6.75.12-10.09-.13-20.19.3-30.27-.03-4.39.43-8.78.07-13.16-.64-6.25.03-12.57-1.04-18.79-.28-.15-.84-.46-1.12-.61.4-.8.81-1.58,1.15-2.41,1.23-17.57.24-35.22.81-52.82.55-6.67-.26-13.34-.21-20.01-.27-3.45.53-7.18-1.37-10.31,1.84-1.05,3.68-2.1,5.55-3.12-.1-.21-.28-.62-.37-.83-.51-2.52-.47-5.1-.44-7.65.14-43.75-.21-87.51.2-131.25.58,0,1.73-.01,2.3-.01.1,98.07-.04,196.13.06,294.2.06,3.52.03,7.07-.51,10.57-1.94,4.7,1.68,9.38,5.99,10.99,7.97,3.33,16.73,1.31,25.04,1.28,9.09,1.05,18.23.37,27.35.54,7.05.29,14.07-.99,21.11-.05,33.64.04,67.3.11,100.95.05,7.33-.78,14.66.25,22,.02,7.98-.02,15.95-.03,23.93,0,4.3.19,8.45-2.06,12.76-1.07,5.19.98,11.58,1.04,15.12-3.59,4.89-5.41,2.94-13.15,2.95-19.73-.11-36.33.11-72.67-.04-109.01-.19-48.68.14-97.35-.1-146.03-.15-29.39.28-58.77-.11-88.15Z"/>
  </g>
  <g id="_x23_41a16fff">
    <path class="st25" d="M350.69,162.05c-.06-4.42,3.77-8.53,8.22-8.62,13.95-.11,27.9.02,41.85-.06-.13,16.34.14,32.69-.14,49.03v.98c-13.54-.33-27.08.04-40.6-.16-4.83-.1-9.91-4.07-9.39-9.26.07-10.64-.02-21.28.06-31.91M366.82,164.63c-.01,1.41-.02,2.83-.02,4.25-1.44,0-2.88.02-4.31.06-.69,3.09,2.35,2.42,4.34,2.67.06,4.44-.23,8.9.09,13.34.3.33.9.98,1.19,1.3,4.08.39,8.19.07,12.28.17-.01-.59-.04-1.79-.06-2.38-3.67-.02-7.33-.06-11-.08.03-6.43.05-12.87,0-19.31-.62,0-1.87,0-2.5-.02M371.07,168.87c0,.62,0,1.86,0,2.48,3.66.1,7.33.11,11,.03.2,3.51.23,7.03.16,10.54.63.02,1.88.06,2.51.08-.09-3.88.23-7.77-.15-11.64-.21-.29-.64-.86-.86-1.15-4.12-.97-8.47-.21-12.67-.34M382.12,183.9c.03,2.33.05,4.66.09,6.99.62.04,1.86.11,2.48.14,0-1.52.01-3.04.03-4.56,1.45-.05,2.91-.09,4.38-.13-.13-.62-.4-1.85-.53-2.47-2.15-.18-4.31-.05-6.45.03Z"/>
  </g>
  <g id="_x23_cbe8d7ff">
    <path class="st14" d="M400.76,153.37c46.72-.24,93.44.02,140.17-.18,2.25.08,4.73-.16,6.7,1.17,4.31,2.54,5.59,7.95,5.69,12.62,0,8.36-.1,16.72.04,25.09.08,2.89-.37,5.79-1.36,8.51-3.06-1.96-5.71,2.64-9,2.14-29.99.44-60.01-.23-90,.24-.52.08-1.55.25-2.07.33-1.95.34-3.91.69-5.88.72-14.55.01-29.1-.09-43.64.04l-.79-1.65c.28-16.34.01-32.69.14-49.03Z"/>
    <path class="st14" d="M400.75,385.38c16.92-.5,33.87.31,50.79-.39.19,0,.59-.03.78-.04,9.22.61,18.46.2,27.7.28,21,.02,42,0,63,.03,5.03-.34,8.65,4.18,10.15,8.49,1.03,5.02-.69,10.36,1.33,15.24-.64.01-1.92.02-2.56.02.02.43.07,1.3.09,1.73.19,5.75.93,11.58.02,17.3-1.14,4.86-6.39,7.38-11.08,6.88-46.74-.16-93.48.03-140.22-.06-.04-16.49-.04-32.99,0-49.48Z"/>
  </g>
  <g id="_x23_f9c8c5ff">
    <path class="st27" d="M55.36,160.33c66.55,0,133.1,0,199.65,0,7.49-.03,14.98.15,22.47-.18.28,6.43.11,12.86.15,19.3-74.03,0-148.05.04-222.07.03-.47-6.37-.13-12.77-.2-19.16Z"/>
  </g>
  <g id="_x23_fdfdfcff">
    <path class="st20" d="M366.82,164.63c.63,0,1.88,0,2.5.02.06,6.44.04,12.88,0,19.31,3.67.02,7.33.06,11,.08.02.59.05,1.79.06,2.38-4.09-.1-8.2.22-12.28-.17-.29-.32-.89-.97-1.19-1.3-.32-4.44-.03-8.9-.09-13.34-1.99-.25-5.03.42-4.34-2.67,1.43-.04,2.87-.06,4.31-.06,0-1.42.01-2.84.02-4.25Z"/>
  </g>
  <g id="_x23_f6f6f2ff">
    <path class="st3" d="M371.07,168.87c4.2.13,8.55-.63,12.67.34.22.29.65.86.86,1.15.38,3.87.06,7.76.15,11.64-.63-.02-1.88-.06-2.51-.08.07-3.51.04-7.03-.16-10.54-3.67.08-7.34.07-11-.03,0-.62,0-1.86,0-2.48Z"/>
  </g>
  <g id="_x23_575857ff">
    <path class="st24" d="M340.41,172.59c3.51,1.35,6.68,3.4,9.86,5.38-3.21,1.72-6.34,3.6-9.57,5.28-.48-2.25,1.9-3.1,3.16-4.41-5.31.15-10.64-.15-15.94.2-4.64.62-7.78,5.36-7.61,9.86-.09,31.33.19,62.66,0,93.99.08,5.03-3.61,9.83-8.59,10.79-4.66.75-9.43.3-14.13.34-.75-.02-2.25-.06-3-.08.23-.49.67-1.49.89-1.98,5.17-.07,10.36.45,15.52-.04,4.61-.72,7.77-5.33,7.49-9.87.05-31,0-62.01.04-93.01-.32-5.55,3.81-10.96,9.27-11.97,5.19-.31,10.41-.02,15.61-.14-1.11-1.37-2.14-2.81-3-4.34Z"/>
    <path class="st24" d="M450.93,203.29c.52-.08,1.55-.25,2.07-.33,0,.82,0,2.45.01,3.27-.11,6.09.11,12.18-.25,18.26,1.43-1.32,2.92-2.58,4.52-3.69-.69,3.6-3.14,6.5-4.94,9.6h-.42c-1.93-3.1-4.04-6.14-5.17-9.64,1.79.91,3.13,2.41,4.46,3.87-.13-7.11.24-14.24-.28-21.34Z"/>
    <path class="st24" d="M594.96,288.52c3.38-.28,6.06,2.8,9,4.18.09.21.27.62.37.83-1.87,1.02-3.71,2.07-5.55,3.12-1.24.76-2.62,1.24-4.01,1.59,1.01-1.46,2.17-2.8,3.38-4.11-4.04.2-8.63-.74-12.04,2.02-2.83,1.95-3.69,5.55-3.61,8.8,0,31.03-.01,62.07.02,93.1.11,3.36-.64,6.91-3.06,9.4-2.35,2.67-6.05,3.51-9.47,3.36-5.77-.09-11.53.17-17.29-.02l-.67-.05c-.02-.43-.07-1.3-.09-1.73.64,0,1.92-.01,2.56-.02,5.86-.12,11.72.31,17.57-.04,4.59-.16,8.56-4.24,8.58-8.84-.04-31.04,0-62.09-.04-93.13-.23-4.18.29-8.83,3.69-11.72,3.72-3.64,9.24-3.18,14.03-3.12-1.14-1.2-2.28-2.4-3.37-3.62Z"/>
    <path class="st24" d="M450.99,358.52c.26-.23.79-.68,1.05-.91.21.21.62.63.83.84.06,6.79.02,13.59-.01,20.38,1.43-.99,2.88-1.97,4.4-2.82-1.01,3.29-3.09,6.08-4.94,8.94-.19,0-.59.03-.78.04-1.66-2.84-3.43-5.62-5.03-8.49,1.97-.62,3.15,1.49,4.62,2.36-.01-6.78-.13-13.56-.14-20.34Z"/>
  </g>
  <g id="_x23_c3c3c3ff">
    <path class="st6" d="M66.26,185.29q.51.49,0,0Z"/>
  </g>
  <g id="_x23_a1a0a0ff">
    <path class="st28" d="M100.2,185.25q.48.57,0,0Z"/>
  </g>
  <g id="_x23_bbbbbaff">
    <path class="st10" d="M136.27,185.28q.52.49,0,0Z"/>
  </g>
  <g id="_x23_cfd3d3ff">
    <path class="st4" d="M543,202.72c3.29.5,5.94-4.1,9-2.14-2.68,2.64-5.94,5.3-9.94,5.09-23.01-.06-46.03.07-69.05-.03-6.68-.12-13.32,1.29-20,.59-.01-.82-.01-2.45-.01-3.27,29.99-.47,60.01.2,90-.24Z"/>
  </g>
  <g id="_x23_cbe8d6ff">
    <path class="st8" d="M451.92,230.4h.42c11.53.68,23.09.27,34.64.33,18.69.04,37.38-.08,56.07.04,5.14-.29,9.46,4.26,9.43,9.29.16,10.34.01,20.69.12,31.03-.16,1.62.21,3.48-.82,4.88-2.91,2-6.02,4.21-9.73,3.97-29.69-.09-59.39-.09-89.07.05h-1.98c-16.75-.13-33.5-.31-50.25.12-.04-16.44-.03-32.88,0-49.32,17.05-.22,34.13.4,51.17-.39Z"/>
    <path class="st8" d="M451.82,307.59c.17.01.52.03.7.03,27.5.62,55.03.07,82.54.27,4.78.22,10.6-1.16,14.31,2.73,2.45,2.07,3.41,5.27,3.23,8.41-.19,10.54.11,21.1-.13,31.64-1.51,2.04-3,4.23-5.18,5.62-1.95.98-4.22.87-6.34.97-23.63-.21-47.27.11-70.91-.12-23.1.27-46.2-.25-69.3.22-.02-16.44,0-32.88-.03-49.32,17.02-.56,34.08.14,51.11-.45Z"/>
  </g>
  <g id="_x23_419f6eff">
    <path class="st22" d="M350.88,236.78c1.56-3.11,4.36-6.13,8.14-5.97,13.9-.12,27.82-.05,41.73-.02-.03,16.44-.04,32.88,0,49.32-13.59.11-27.2.11-40.8.04-4.55.25-9.05-3.4-9.02-8.1-.16-11.75-.13-23.52-.05-35.27M372.19,243.11c-.33.42-1,1.25-1.34,1.67-2.1.35-5.23-.99-6.23,1.67,7.08,1.05,14.34.2,21.5.42.23-3.16-3.45-1.73-5.41-2.18-2.06-2.53-5.71-1.23-8.52-1.58M366.73,248.52c.27,5.83-.23,11.68.27,17.49.27.29.8.88,1.07,1.18,5.2.16,10.7.8,15.75-.35,1.41-5.88.47-12.24.59-18.3-5.89,0-11.79-.07-17.68-.02Z"/>
    <path class="st22" d="M371.09,254.05c1.89-1.77,3.06,1,4.4,2,1.07-.96,2.14-1.91,3.21-2.85.28.33.82.99,1.09,1.32-.87.96-1.73,1.92-2.59,2.89.96,1.16,1.94,2.33,2.89,3.52-1.96,1.28-3.1-1.09-4.53-1.96-1.07.75-3.25,4.01-3.98,1.29.8-1.06,1.69-2.06,2.56-3.07-1.03-1.04-2.05-2.08-3.05-3.14Z"/>
    <path class="st22" d="M355.03,309.04c2.43-1.39,5.33-1.11,8.02-1.16,12.55.15,25.11-.14,37.66.16.02,16.44.01,32.88.03,49.32-13.93.04-27.87.11-41.8-.02-3.55.04-6.22-2.57-7.92-5.42-.48-1.6-.35-3.3-.38-4.95.08-10.01,0-20.01.04-30.02-.1-3.16,1.5-6.41,4.35-7.91M378.96,320.95c-2.71,1.69-2.01,5.27-3.19,7.86.92.84,1.85,1.69,2.76,2.56,2.67-.3,6.02.4,7.86-2.07,1.66-1.37,1.22-3.64,1.27-5.52-1.36,1.05-2.63,2.22-3.84,3.45-1.61-.38-2.54-1.73-3.21-3.13,1.24-1.32,2.47-2.66,3.66-4.02-1.76.18-3.81-.32-5.31.87M363.71,322.52c.85,1.16,1.7,2.32,2.59,3.47,4.45,1.19,6.49,6.35,10.51,7.78.07-.25.21-.76.28-1.02-2.64-3.3-6.62-5.65-8.05-9.81-1.17-.83-2.35-1.64-3.52-2.44-.71.58-1.31,1.25-1.81,2.02M363.5,340.87c-.46,2.31,1.76,2.98,3.4,3.78,2.59-3.41,6.74-5.81,7.89-10.14-.94-.83-1.88-1.66-2.81-2.5-2.88,2.9-6.1,5.51-8.48,8.86M379.3,332.86c-1.16,1.11-2.27,2.26-3.47,3.32,2.31,3.34,5.44,5.98,8.33,8.79,1.47-1.1,2.86-2.35,3.9-3.9-3.04-2.59-5.39-6.11-8.76-8.21Z"/>
    <path class="st22" d="M366.4,340.46c1.34.62,1.4,1.31.16,2.05-1.36-.64-1.41-1.32-.16-2.05Z"/>
    <path class="st22" d="M350.88,391.75c1.15-3.88,5.02-6.6,9.06-6.37,13.6,0,27.21.04,40.81,0-.04,16.49-.04,32.99,0,49.48-13.96.07-27.92.22-41.87.01-4.62.14-8.31-4.39-8-8.85,0-11.42-.01-22.85,0-34.27M363.78,398.82c.03.79.09,2.37.12,3.16,7.83.04,15.67.02,23.51,0-.01-.79-.03-2.37-.04-3.16-7.87-.06-15.73.31-23.59,0M363.87,405.24c-.01.77-.03,2.32-.03,3.1,5.46.02,10.93.02,16.4,0-.03-.8-.11-2.4-.14-3.2-5.41.02-10.83,0-16.23.1M363.82,411.61c.02.78.05,2.33.07,3.1,7.67-.09,15.35.08,23.01-.09.14-.75.43-2.26.57-3.01-7.88-.05-15.77-.03-23.65,0M364.08,417.8c-.03.79-.07,2.36-.1,3.15,4.65.05,9.29.07,13.93.03.01-.8.04-2.38.05-3.17-4.63-.01-9.26-.01-13.88-.01Z"/>
  </g>
  <g id="_x23_cbceceff">
    <path class="st0" d="M542.05,279.94c3.71.24,6.82-1.97,9.73-3.97-1.4,5-7.04,7.34-11.82,7.4-7.99-.11-15.99.31-23.94-.59-8.99.91-18.06.8-27.05.08-11.99.18-23.96.89-35.95.41,0-.82-.03-2.46-.04-3.28,29.68-.14,59.38-.14,89.07-.05Z"/>
    <path class="st0" d="M349.5,396.93c-.12-1.85.52-3.58,1.38-5.18-.01,11.42,0,22.85,0,34.27-.31,4.46,3.38,8.99,8,8.85,13.95.21,27.91.06,41.87-.01,46.74.09,93.48-.1,140.22.06,4.69.5,9.94-2.02,11.08-6.88.91-5.72.17-11.55-.02-17.3l.67.05c1.26,4.63.42,9.48.69,14.21.35,4.07-1.01,8.43-4.32,11-2.76,2.46-6.72,1.4-10.06,1.62-47.66-.06-95.33-.07-142.99.01-8.63.96-17.33.65-25.98.03-5.5.48-11.42,1.13-16.53-1.44-3.18-1.88-4.21-5.81-4.06-9.28.08-10.01,0-20.01.05-30.01Z"/>
  </g>
  <g id="_x23_666664ff">
    <path class="st5" d="M451,279.99h1.98c0,.82.03,2.46.04,3.28,0,5.98.01,11.97-.05,17.96,1.39-1.05,2.77-2.2,4.54-2.55-1.46,3.09-3.29,5.98-4.99,8.94-.18,0-.53-.02-.7-.03-2.04-2.85-3.83-5.87-5.2-9.1,1.78.44,3.07,1.7,4.52,2.72-.09-5.99-.06-11.97-.14-17.95v-3.27Z"/>
  </g>
  <g id="_x23_cacccdff">
    <path class="st21" d="M547.29,356.29c2.18-1.39,3.67-3.58,5.18-5.62.4,6.09-6.09,9.77-11.47,9.73-23.34-.05-46.69-.07-70.03.03-5.63.29-11.19-1.15-16.83-.78-.31-.3-.95-.9-1.27-1.2-.21-.21-.62-.63-.83-.84-.26.23-.79.68-1.05.91-2.62,1.74-6.03,1.26-9.01,1.74-11.33.4-22.67-.03-34.01.15-5.34.23-10.61-1.07-15.95-.85-5.34.01-10.66,1.24-16,.53-5.67-.77-11.38-.27-17.07-.39-4.24.28-8.16-3.52-7.93-7.78,1.7,2.85,4.37,5.46,7.92,5.42,13.93.13,27.87.06,41.8.02,23.1-.47,46.2.05,69.3-.22,23.64.23,47.28-.09,70.91.12,2.12-.1,4.39,0,6.34-.97Z"/>
  </g>
  <g id="_x23_fbfbf9ff">
    <path class="st9" d="M363.78,398.82c7.86.32,15.72-.05,23.59,0,.01.79.03,2.37.04,3.16-7.84.01-15.68.03-23.51,0-.03-.79-.09-2.37-.12-3.16Z"/>
  </g>
  <text class="st1" transform="translate(219.77 55.27)"><tspan x="0" y="0">PDF Cleaning Pipeline for Legal Text</tspan></text>
  <text class="st2" transform="translate(84.03 120)"><tspan x="0" y="0">Raw PDF Text (noisy)</tspan></text>
  <text class="st15" transform="translate(70.93 140.21)"><tspan x="0" y="0">Parsed text from legal document</tspan></text>
  <text class="st15" transform="translate(100.2 175.55)"><tspan x="0" y="0">Headers and Footers</tspan></text>
  <text class="st15" transform="translate(55.24 200.09)"><tspan x="0" y="0">T: Lorem ipsum dolor sit amet, </tspan><tspan x="0" y="18">Consectetur of Prarnhooss, the </tspan><tspan x="0" y="36">requirement of the mia/aostrator anta</tspan><tspan x="0" y="54">repaution legal markerrogramments.</tspan></text>
  <text class="st16" transform="translate(52.52 275.97)"><tspan class="st17" x="0" y="0">Subject to of the </tspan><tspan class="st11" x="102.48" y="0">测试字符</tspan><tspan class="st17" x="162.48" y="0" xml:space="preserve"> spacing. </tspan><tspan class="st17" x="0" y="18">Watermark noise </tspan><tspan class="st12" x="106.62" y="18">占位</tspan><tspan class="st17" x="136.62" y="18">. Chinese</tspan><tspan class="st17"><tspan x="0" y="36" xml:space="preserve"> spacing oscapabled by amdterots se </tspan></tspan><tspan class="st17"><tspan x="0" y="54">tinteracting processs. The alignrvacent </tspan></tspan><tspan class="st17"><tspan x="0" y="72">allowate considation/eaparment and </tspan></tspan><tspan class="st17"><tspan x="0" y="90">indicates that oasl atspethes case </tspan></tspan><tspan class="st17" x="0" y="108">drecotoss in all </tspan><tspan class="st13" x="94.56" y="108">整理</tspan><tspan class="st17" x="124.56" y="108" xml:space="preserve"> chinese</tspan><tspan class="st17"><tspan x="0" y="126">standnmpathachness training larm of </tspan></tspan><tspan class="st17"><tspan x="0" y="144">the property, and content ......</tspan></tspan></text>
  <text class="st15" transform="translate(109.8 447.57)"><tspan x="0" y="0">Watermark noise</tspan></text>
  <text class="st15" transform="translate(412.5 175.54)"><tspan x="0" y="0">Crop header/footer</tspan></text>
  <text class="st2" transform="translate(380.39 124.71)"><tspan x="0" y="0">Cleaning Steps</tspan></text>
  <text class="st2" transform="translate(683.1 132.94)"><tspan x="0" y="0">Cleaned Text</tspan></text>
  <text class="st15" transform="translate(413.06 255.25)"><tspan x="0" y="0">Remove inline page </tspan><tspan x="0" y="18">numbers</tspan></text>
  <text class="st15" transform="translate(414.36 338.33)"><tspan x="0" y="0">Fix Chinese spacing</tspan></text>
  <text class="st15" transform="translate(414.6 415)"><tspan x="0" y="0">Normalize text</tspan></text>
  <text class="st15" transform="translate(622.92 175.35)"><tspan x="0" y="0">The corr ipsum dolor sit amet, slaaid </tspan><tspan x="0" y="18">the ownmeshio of brarnhooes and</tspan><tspan x="0" y="36">resouveres of the marnotement anta </tspan><tspan x="0" y="54">sntranr legal markenogramments.</tspan></text>
  <text class="st15" transform="translate(623.85 260.15)"><tspan x="0" y="0">The staterment require must irsenlately </tspan><tspan x="0" y="18">contains, headers that bosh preruptend </tspan><tspan x="0" y="36">and bontiat as cationairas prose, </tspan><tspan x="0" y="54">scanciping and position disponse, </tspan><tspan x="0" y="72">monitors and developments.</tspan></text>
  <text class="st15" transform="translate(623.03 360.47)"><tspan x="0" y="0">Watermark noise trumṣlisses the </tspan><tspan x="0" y="18">document ossapabled by amdhatof </tspan><tspan x="0" y="36">a set interacting processs. The </tspan><tspan x="0" y="54">align-nacent of allowate considation</tspan><tspan x="0" y="72">aaparment and indicates that oasl at </tspan><tspan x="0" y="90">spetles case drecotnes in ......</tspan></text>
</svg>