<?xml version="1.0" encoding="UTF-8"?>
<svg id="_图层_1" data-name="图层_1" xmlns="http://www.w3.org/2000/svg" version="1.1" viewBox="0 0 900 503">
  <!-- Generator: Adobe Illustrator 29.6.0, SVG Export Plug-In . SVG Version: 2.1.1 Build 207)  -->
  <defs>
    <style>
      .st0 {
        font-size: 27px;
      }

      .st0, .st1, .st2, .st3, .st4 {
        isolation: isolate;
      }

      .st0, .st1, .st4 {
        font-family: TimesNewRomanPS-BoldMT, 'Times New Roman';
        font-weight: 700;
      }

      .st5 {
        fill: #4e9973;
      }

      .st6 {
        fill: #fc9c38;
      }

      .st7 {
        fill: #3f84c3;
      }

      .st1 {
        font-size: 19px;
      }

      .st8 {
        fill: #8542a1;
      }

      .st9 {
        fill: #61b687;
      }

      .st10 {
        fill: #0c0c0c;
      }

      .st11 {
        fill: #a19e9a;
      }

      .st12 {
        fill: #fff;
      }

      .st2, .st13 {
        font-family: TimesNewRomanPSMT, 'Times New Roman';
      }

      .st2, .st13, .st4 {
        font-size: 15px;
      }

      .st14 {
        fill: #4d98dc;
      }

      .st15 {
        fill: #dcdde1;
      }

      .st16 {
        fill: #0f1010;
      }

      .st17 {
        fill: #d47320;
      }

      .st18 {
        fill: #dee0e3;
      }

      .st19 {
        fill: #b46cd4;
      }

      .st20 {
        fill: #4a83b7;
      }

      .st21 {
        fill: #dfe2e5;
      }

      .st22 {
        fill: #8649a0;
      }

      .st23 {
        fill: #a4abb2;
      }

      .st24 {
        fill: #7b828a;
      }

      .st25 {
        fill: #edf1f4;
      }

      .st26 {
        fill: #dbdbdf;
      }

      .st27 {
        fill: #7d858d;
      }

      .st28 {
        fill: #d5ccc0;
      }

      .st29 {
        fill: #080909;
      }

      .st30 {
        fill: #161616;
      }

      .st31 {
        fill: #252526;
      }
    </style>
  </defs>
  <g id="_x23_edf1f4ff">
    <path class="st25" d="M0,0h900v503H0V0M404.53,97.6c-2.08,1.44-3,3.97-2.95,6.43-.12,19.08,0,38.16-.05,57.24-.43-.48-1.3-1.45-1.73-1.94-.73,1.87-1,3.86-1.02,5.86-2.67.62-5.31,1.36-7.96,2.06,1.03,1.09,2.06,2.19,3.1,3.28-12.94,12.11-25.88,24.22-38.89,36.25-13.03-12.98-31.58-20.21-49.96-19.3-12.62.67-25.19,4.72-35.44,12.2-14.11,10.12-24.35,25.86-26.87,43.13-2.04,12.31-.28,25.16,4.58,36.62-2.02,3.19-.25,6.92,1.59,9.72,5.52,8.21,11.41,16.58,19.75,22.15,4.19,3.58,9.58,5.11,14.32,7.78,7.15,3.55,15.2,6.03,23.26,5.28,5.84-.44,11.94.58,17.52-1.65,7.17-2.93,14.86-5.04,21.06-9.88,4.27-3.28,9.15-5.7,13.19-9.27,12.31,12.1,24.71,24.11,36.85,36.39-1.08,1.01-2.14,2.05-3.21,3.08,3.62,1.25,7.33,2.22,11.02,3.24-.98-3.66-2.08-7.28-3.1-10.92-1.11,1.06-2.24,2.11-3.35,3.18-13.09-13.67-27.22-26.33-40.16-40.13,10.68-10.52,16.9-25.39,17.83-40.31,10.34.14,20.67.87,31.01,1.06.04,1.42.08,2.85.12,4.29,3.3-1.62,6.61-3.23,9.92-4.84-3.16-2.18-6.56-3.98-9.89-5.87.02,1.47.03,2.94.06,4.41-10.38-.01-20.73-.75-31.1-1.16.98-17.42-5.73-34.93-17.57-47.67,12.87-12.14,25.87-24.16,38.94-36.1,1.06,1.04,2.13,2.07,3.2,3.11.48-1.52.96-3.04,1.45-4.55,4.15,1.16,8.44,1.51,12.69,2.12,4.14-.19,8.28-.55,12.43-.32,7.26.63,14.51-.87,21.77,0,9.34-.44,18.7.24,28.03-.48,4.3.48,8.72-.02,12.91,1.24,3.32-1.74,7.08-.49,10.57-1.15,3.26-1.62,7.68-3.97,7.41-8.23-.11-1.41.34-3.36-1.21-4.17-.11-9.12,0-18.24-.15-27.36,25.05.05,50.56,4.58,72.88,16.31,14.85,7.7,28.01,19.49,35.43,34.66-1.31.5-2.6,1-3.9,1.51,2.89,2.63,5.83,5.21,8.98,7.54.39-3.89.87-7.77,1.19-11.66-1.48.6-2.96,1.2-4.42,1.81-10.53-21.9-32.33-35.87-54.7-43.53-17.84-5.74-36.7-9.02-55.46-8.35-.14-9.22.1-18.44-.1-27.65.07-3.91-3.64-7.01-7.42-6.84-28.33-.09-56.67.03-85-.06-2.51.06-5.32-.15-7.45,1.43M551.95,200.97c.01,35,0,70-.02,105-.15,2.97.69,6.1,3.1,8.03-.08.54-.24,1.61-.32,2.15,2.03,1.6,4.49,2.56,6.96,3.27,2.21.59,4.38-.64,6.6-.52,2.91.15,5.81.71,8.73.34,5.65-.96,11.32.46,17.01.06,7.67.35,15.31-.9,22.96.02,11.12-.18,22.27.72,33.35-.44,8.53.61,17.13.79,25.64-.14,4.66,1.62,9.49.18,14.23-.28,2.17-.22,4.51-2.04,3.83-4.46,1.94-1.79,3.29-4.28,3.06-6.99-.02-16.3.03-32.6-.03-48.89,5.21.05,10.42-.17,15.63-.03.01,1.43.03,2.87.06,4.3,2.99-1.68,6.14-3.1,9.04-4.96.04-.22.1-.65.13-.87-3.01-1.75-6.19-3.2-9.21-4.92.02,1.47.06,2.95.1,4.43-5.25.13-10.5-.05-15.75.12.02-18.41.07-36.83-.02-55.24.24-3.97-2.78-8.45-7.09-8.1-43.64,0-87.28-.06-130.92.02-4.25-.23-7.39,4.12-7.07,8.1M723.22,200c-.11,35.69-.12,71.36-.04,107.04.04,1.48.24,2.96.68,4.37-.67,1.22-1.62,2.72-.13,3.77,4.16,5.07,11.41,4.12,17.26,4.25,8.6.43,17.22.07,25.82-.46,3.06-.05,6.12,1.02,9.18.27,3.41-.77,6.92-1.04,10.41-.58-1.65,1.04-3.21,2.17-4.76,3.33,1.23.66,2.46,1.32,3.71,1.98-14.5,21.63-38.24,34.8-62.25,43.29-22.91,8.08-46.98,12.32-71.09,14.78-42.02,4-84.34,2.57-126.35-.68.04-9.13.06-18.26-.04-27.39.11-2.82-2.01-4.9-3.93-6.64l-1.21.64.85-.65c-11.73-.89-23.53-.16-35.29-.39-31.01,0-62.02.01-93.02,0-2.05.06-4.16-.19-6.14.35l.03.53-.79-.11c-3.33.47-5.01,4.24-4.87,7.3.1,18.82-.18,37.64.14,56.46-.3.4-.91,1.19-1.22,1.59.79,2.48,2.14,4.88,4.11,6.61,4.51,1.92,9.58,2.83,14.46,2.19,6-.9,11.97,1.03,17.97-.03,4.78.39,9.55.52,14.32-.12,6.33.57,12.69-.7,19.01.17,4.27.74,8.51-.7,12.8-.34,11.29.57,22.58.36,33.87.15,6.67.65,13.34.06,20.02.08,4.28,0,8.46-3.31,8.38-7.82.82-2.9.53-5.93.57-8.9.1-7.25-.06-14.51-.02-21.76,54.7,4.3,110.35,5.87,164.43-4.97,20.65-4.22,41.01-10.57,59.63-20.57,14.63-8,28.06-18.74,37.34-32.74,1.25.84,2.51,1.68,3.78,2.53.06-1.97.14-3.93.19-5.89,6.8-3.42,14.54-1.36,21.73-2.81,12.05,1.16,24.16.83,36.25.4,2.96-.29,5.93-.59,8.86-1.23,2.21-.65,5.14-2.57,3.79-5.24,1.45-1.95,1.78-4.39,1.7-6.75-.07-35.3.08-70.6-.1-105.89.14-3.91-3.28-7.59-7.27-7.33-41.64.02-83.29,0-124.93,0-4.17-.54-8.06,3.02-7.84,7.21M415.64,229.96c-.14,18,.02,36.01-.08,54.02-.09,2.33.22,4.72,1.37,6.79-.48,3.45,2.74,6.52,6.07,6.57,6.25.45,12.53-.06,18.79.11,18.75-.3,37.48.2,56.22-.17,5.95-.26,12.01.93,17.88-.42,2.93-1.67,5.02-4.45,7.38-6.8-.38-.36-1.14-1.08-1.52-1.44.75-10.02.01-20.11.26-30.15,6.48-.04,12.97-.42,19.44.02-.1,1.43-.19,2.85-.27,4.28,3.36-1.69,6.64-3.54,9.9-5.41-3.02-2.3-6.49-3.84-9.76-5.72.01,1.53.03,3.07.05,4.61-6.45.07-12.89.15-19.34.17-.05-8.49-.11-16.97-.07-25.46.38-3.94-2.73-8.31-6.94-8.04-30.7-.03-61.4-.02-92.1,0-3.95-.34-7.52,3.05-7.28,7.05Z"/>
  </g>
  <g id="_x23_4a83b7ff">
    <path class="st20" d="M404.53,97.6c2.13-1.58,4.94-1.37,7.45-1.43,28.33.09,56.67-.03,85,.06,3.78-.17,7.49,2.93,7.42,6.84.2,9.21-.04,18.43.1,27.65v1.71c.15,9.12.04,18.24.15,27.36-.4,2.17-.99,4.6-3.04,5.81-2.85,2.11-6.59,1.26-9.87,1.39,1.94-.6,3.84-1.28,5.78-1.89,2.51-.46,5.14-2.22,4.98-5.07.16-9.13.04-18.28-.05-27.42-32.96,0-65.92-.03-98.88.03-.12,9.08-.17,18.17.03,27.25-.1,2.74,2.24,4.66,4.75,5.13,2.6.78,5.22,1.5,7.9,1.99-3.3-.1-6.68.38-9.91-.45-2.54-.68-3.77-3.11-4.81-5.29.05-19.08-.07-38.16.05-57.24-.05-2.46.87-4.99,2.95-6.43M404.29,100.37c-1.33,3.04-1.14,6.44-1.17,9.68.24,6.83,0,13.67.29,20.51,2.19.19,4.38.34,6.59.34,30.93-.07,61.87.03,92.8-.04.01-7.95-.02-15.9.01-23.86-.04-2.61.05-5.76-2.21-7.56-1.5-1.41-3.65-1.29-5.54-1.35-28.37.07-56.73.02-85.09,0-2.11-.09-4.41.47-5.68,2.28Z"/>
  </g>
  <g id="_x23_4d98dcff">
    <path class="st14" d="M404.29,100.37c1.27-1.81,3.57-2.37,5.68-2.28,28.36.02,56.72.07,85.09,0,1.89.06,4.04-.06,5.54,1.35,2.26,1.8,2.17,4.95,2.21,7.56-.03,7.96,0,15.91-.01,23.86-30.93.07-61.87-.03-92.8.04-2.21,0-4.4-.15-6.59-.34-.29-6.84-.05-13.68-.29-20.51.03-3.24-.16-6.64,1.17-9.68Z"/>
  </g>
  <g id="_x23_7d858dff">
    <path class="st27" d="M504.5,130.72c18.76-.67,37.62,2.61,55.46,8.35,22.37,7.66,44.17,21.63,54.7,43.53,1.46-.61,2.94-1.21,4.42-1.81-.32,3.89-.8,7.77-1.19,11.66-3.15-2.33-6.09-4.91-8.98-7.54,1.3-.51,2.59-1.01,3.9-1.51-7.42-15.17-20.58-26.96-35.43-34.66-22.32-11.73-47.83-16.26-72.88-16.31v-1.71Z"/>
    <path class="st27" d="M390.82,167.25c2.65-.7,5.29-1.44,7.96-2.06.84-.19,2.51-.57,3.35-.76-.7,2.11-1.39,4.22-2.08,6.34-.49,1.51-.97,3.03-1.45,4.55-1.07-1.04-2.14-2.07-3.2-3.11-13.07,11.94-26.07,23.96-38.94,36.1-.48-.52-.95-1.03-1.43-1.53,13.01-12.03,25.95-24.14,38.89-36.25-1.04-1.09-2.07-2.19-3.1-3.28Z"/>
    <path class="st27" d="M541.32,251.64c3.27,1.88,6.74,3.42,9.76,5.72-3.26,1.87-6.54,3.72-9.9,5.41.08-1.43.17-2.85.27-4.28-6.47-.44-12.96-.06-19.44-.02,0-.52.02-1.54.02-2.05,6.45-.02,12.89-.1,19.34-.17-.02-1.54-.04-3.08-.05-4.61Z"/>
    <path class="st27" d="M712.7,251.64c3.02,1.72,6.2,3.17,9.21,4.92-.03.22-.09.65-.13.87-2.9,1.86-6.05,3.28-9.04,4.96-.03-1.43-.05-2.87-.06-4.3-5.21-.14-10.42.08-15.63.03v-1.93c5.25-.17,10.5.01,15.75-.12-.04-1.48-.08-2.96-.1-4.43Z"/>
    <path class="st27" d="M405.07,252.73c3.33,1.89,6.73,3.69,9.89,5.87-3.31,1.61-6.62,3.22-9.92,4.84-.04-1.44-.08-2.87-.12-4.29-10.34-.19-20.67-.92-31.01-1.06.04-.7.09-1.41.12-2.11,10.37.41,20.72,1.15,31.1,1.16-.03-1.47-.04-2.94-.06-4.41Z"/>
  </g>
  <g id="_x23_ffffffff">
    <path class="st12" d="M403.6,159.89c-.2-9.08-.15-18.17-.03-27.25,32.96-.06,65.92-.02,98.88-.03.09,9.14.21,18.29.05,27.42.16,2.85-2.47,4.61-4.98,5.07-29.72-.34-59.45-.05-89.17-.08-2.51-.47-4.85-2.39-4.75-5.13Z"/>
    <path class="st12" d="M553.98,229.17c47.06,0,94.12-.05,141.18,0,.07,25.62.04,51.23,0,76.85.18,2.62-.51,5.77-3.22,6.84-2.59.66-5.29.34-7.92.38-41.33.08-82.65-.04-123.97.03-2.5.29-4.93-1.06-5.83-3.42-.41-2.27-.27-4.59-.29-6.88.06-24.6-.03-49.2.05-73.8M570.52,261.4c-1.98,1.9,1.26,5.1,3.15,3.11,2.41-1.68-1.23-5.62-3.15-3.11M570.15,279.07c-1.15,1.54.97,2.68,1.79,3.65,1.42-.86,3.08-1.81,2.37-3.76-.93-1.52-3.52-1.67-4.16.11M571.23,295.17c-2.6.98-.76,5.17,1.71,4.06,3.1-.5.85-5.82-1.71-4.06Z"/>
    <path class="st12" d="M724.89,229.18c45.56,0,91.12-.04,136.68,0-.17,25.96.2,51.91-.12,77.87.11,2.39-1.02,5.03-3.45,5.8-3.29.58-6.64.24-9.96.31-39.02.02-78.03.01-117.05-.01-2.44.25-4.85-1.07-5.7-3.4-.47-2.56-.29-5.18-.34-7.76,0-24.28-.04-48.54-.06-72.81M736.37,261.35c-2.25,1.95,1.19,5.23,3.2,3.18,1.78-2.06-1.16-5.43-3.2-3.18M736.37,278.34c-2.06,2.02,1.08,5.39,3.19,3.34,1.99-2.12-1-5.26-3.19-3.34M737.04,294.92c-2.61,1.22-.67,5.83,1.88,4.14,2.66-1.04.71-5.25-1.88-4.14Z"/>
    <path class="st12" d="M417.51,259.26c34.17-.22,68.36-.04,102.54-.09-.03,8.96.09,17.92-.02,26.88.27,2.79-2.07,5.68-4.96,5.51-29,.08-58-.02-87,.05-2.88-.17-6.18.81-8.69-1.05-1.44-1.45-2.03-3.53-1.92-5.54.03-8.59-.03-17.18.05-25.76Z"/>
    <path class="st12" d="M383.26,383.25c46.84,0,93.69.04,140.53-.01-.04,8.94.07,17.89-.04,26.84.22,3.13-2.59,5.92-5.72,5.64-43.02.02-86.03.02-129.05.01-3.11.25-5.88-2.54-5.69-5.63-.08-8.95-.02-17.9-.03-26.85Z"/>
  </g>
  <g id="_x23_dfe2e5ff">
    <path class="st21" d="M398.78,165.19c.02-2,.29-3.99,1.02-5.86.43.49,1.3,1.46,1.73,1.94,1.04,2.18,2.27,4.61,4.81,5.29,3.23.83,6.61.35,9.91.45,25.16,0,50.33.04,75.49-.02,3.28-.13,7.02.72,9.87-1.39,2.05-1.21,2.64-3.64,3.04-5.81,1.55.81,1.1,2.76,1.21,4.17.27,4.26-4.15,6.61-7.41,8.23-3.49.66-7.25-.59-10.57,1.15-4.19-1.26-8.61-.76-12.91-1.24-9.33.72-18.69.04-28.03.48-7.26-.88-14.51.62-21.77,0-4.15-.23-8.29.13-12.43.32-4.25-.61-8.54-.96-12.69-2.12.69-2.12,1.38-4.23,2.08-6.34-.84.19-2.51.57-3.35.76Z"/>
    <path class="st21" d="M247.34,279.43c4.93,10.71,12.27,20.43,21.91,27.33,13,9.67,29.7,14.02,45.78,12.33,13.33-1.35,26.14-6.93,36.18-15.8,1.09-1.03,2.14-2.1,3.2-3.16,1.21,1.14,2.42,2.27,3.62,3.43-4.04,3.57-8.92,5.99-13.19,9.27-6.2,4.84-13.89,6.95-21.06,9.88-5.58,2.23-11.68,1.21-17.52,1.65-8.06.75-16.11-1.73-23.26-5.28-4.74-2.67-10.13-4.2-14.32-7.78-8.34-5.57-14.23-13.94-19.75-22.15-1.84-2.8-3.61-6.53-1.59-9.72Z"/>
  </g>
  <g id="_x23_3f84c3ff">
    <path class="st7" d="M408.35,165.02c29.72.03,59.45-.26,89.17.08-1.94.61-3.84,1.29-5.78,1.89-25.16.06-50.33.02-75.49.02-2.68-.49-5.3-1.21-7.9-1.99Z"/>
  </g>
  <g id="_x23_a19e9aff">
    <path class="st11" d="M269.63,199.68c10.25-7.48,22.82-11.53,35.44-12.2,18.38-.91,36.93,6.32,49.96,19.3.48.5.95,1.01,1.43,1.53,11.84,12.74,18.55,30.25,17.57,47.67-.03.7-.08,1.41-.12,2.11-.93,14.92-7.15,29.79-17.83,40.31-.29-.32-.88-.95-1.17-1.26,10.09-11.3,16.85-25.92,17.11-41.21,1.05-17.74-6.07-35.73-18.83-48.07-7.98-8.16-18.4-13.66-29.36-16.61-17.7-4.37-37.25-1.03-52.25,9.4-10.89,7.56-19.56,18.42-23.95,30.96-5.45,14.88-4.86,31.82,1.35,46.38,6.85,16.32,20.68,29.58,37.36,35.57,21.26,8.1,46.45,3.2,63.57-11.66.32.35.97,1.05,1.3,1.39-10.04,8.87-22.85,14.45-36.18,15.8-16.08,1.69-32.78-2.66-45.78-12.33-9.64-6.9-16.98-16.62-21.91-27.33-4.86-11.46-6.62-24.31-4.58-36.62,2.52-17.27,12.76-33.01,26.87-43.13Z"/>
  </g>
  <g id="_x23_d5ccc0ff">
    <path class="st28" d="M271.58,200.65c15-10.43,34.55-13.77,52.25-9.4,10.96,2.95,21.38,8.45,29.36,16.61,12.76,12.34,19.88,30.33,18.83,48.07-.26,15.29-7.02,29.91-17.11,41.21-1.53,1.72-3.22,3.31-5,4.76-17.12,14.86-42.31,19.76-63.57,11.66-16.68-5.99-30.51-19.25-37.36-35.57-6.21-14.56-6.8-31.5-1.35-46.38,4.39-12.54,13.06-23.4,23.95-30.96Z"/>
  </g>
  <g id="_x23_4e9973ff">
    <path class="st5" d="M551.95,200.97c-.32-3.98,2.82-8.33,7.07-8.1,43.64-.08,87.28-.02,130.92-.02,4.31-.35,7.33,4.13,7.09,8.1.09,18.41.04,36.83.02,55.24v1.93c.06,16.29.01,32.59.03,48.89.23,2.71-1.12,5.2-3.06,6.99-1.6.64-3.29,1.09-5.01,1.11-40.67.06-81.34.02-122.01.04-4-.07-8.21.53-11.97-1.15-2.41-1.93-3.25-5.06-3.1-8.03.02-35,.03-70,.02-105M555.58,196.38c-1.81,2.08-1.41,5-1.5,7.54.14,7.66-.01,15.32.09,22.97,46.93.15,93.87.04,140.8.09.04-8.33-.02-16.65.03-24.98,0-2.38-.01-5.36-2.49-6.58-3.06-.91-6.33-.34-9.46-.45-20.04-.12-40.07.1-60.1-.15-20.62.38-41.25-.19-61.87.06-1.86.21-4.23-.19-5.5,1.5M553.98,229.17c-.08,24.6.01,49.2-.05,73.8.02,2.29-.12,4.61.29,6.88.9,2.36,3.33,3.71,5.83,3.42,41.32-.07,82.64.05,123.97-.03,2.63-.04,5.33.28,7.92-.38,2.71-1.07,3.4-4.22,3.22-6.84.04-25.62.07-51.23,0-76.85-47.06-.05-94.12,0-141.18,0Z"/>
  </g>
  <g id="_x23_7b828aff">
    <path class="st24" d="M723.22,200c-.22-4.19,3.67-7.75,7.84-7.21,41.64-.02,83.29.01,124.93,0,3.99-.26,7.41,3.42,7.27,7.33.18,35.29.03,70.59.1,105.89.08,2.36-.25,4.8-1.7,6.75-2.12,1.8-4.85,2.56-7.61,2.39-41.01-.1-82.03.03-123.05-.03-2.95.28-5.32-1.62-7.14-3.7-.44-1.41-.64-2.89-.68-4.37-.08-35.68-.07-71.35.04-107.04M724.91,200c-.21,9.09-.02,18.19-.07,27.29,42.39.07,84.78,0,127.16.02,3.21.06,6.43.1,9.63-.32-.14-8.33-.03-16.66-.05-24.98-.07-2.08.01-4.5-1.67-6.02-1.55-1.55-3.9-1.43-5.9-1.52-41.01,0-82.02,0-123.02,0-3.08-.17-6.38,2.21-6.08,5.54M724.89,229.18c.02,24.27.06,48.53.06,72.81.05,2.58-.13,5.2.34,7.76.85,2.33,3.26,3.65,5.7,3.4,39.02.02,78.03.03,117.05.01,3.32-.07,6.67.27,9.96-.31,2.43-.77,3.56-3.41,3.45-5.8.32-25.96-.05-51.91.12-77.87-45.56-.04-91.12,0-136.68,0Z"/>
    <path class="st24" d="M354.91,297.14c.29.31.88.94,1.17,1.26,12.94,13.8,27.07,26.46,40.16,40.13,1.11-1.07,2.24-2.12,3.35-3.18,1.02,3.64,2.12,7.26,3.1,10.92-3.69-1.02-7.4-1.99-11.02-3.24,1.07-1.03,2.13-2.07,3.21-3.08-12.14-12.28-24.54-24.29-36.85-36.39-1.2-1.16-2.41-2.29-3.62-3.43-1.06,1.06-2.11,2.13-3.2,3.16-.33-.34-.98-1.04-1.3-1.39,1.78-1.45,3.47-3.04,5-4.76Z"/>
    <path class="st24" d="M786.4,318.66c1.54-.99,3.11-1.94,4.67-2.9-.02,1.95-.01,3.91-.04,5.87-.05,1.96-.13,3.92-.19,5.89-1.27-.85-2.53-1.69-3.78-2.53-9.28,14-22.71,24.74-37.34,32.74-18.62,10-38.98,16.35-59.63,20.57-54.08,10.84-109.73,9.27-164.43,4.97v-1.91c42.01,3.25,84.33,4.68,126.35.68,24.11-2.46,48.18-6.7,71.09-14.78,24.01-8.49,47.75-21.66,62.25-43.29-1.25-.66-2.48-1.32-3.71-1.98,1.55-1.16,3.11-2.29,4.76-3.33Z"/>
  </g>
  <g id="_x23_a4abb2ff">
    <path class="st23" d="M724.91,200c-.3-3.33,3-5.71,6.08-5.54,41,.02,82.01,0,123.02,0,2,.09,4.35-.03,5.9,1.52,1.68,1.52,1.6,3.94,1.67,6.02.02,8.32-.09,16.65.05,24.98-3.2.42-6.42.38-9.63.32-42.38-.03-84.77.05-127.16-.02.05-9.1-.14-18.2.07-27.29Z"/>
  </g>
  <g id="_x23_61b687ff">
    <path class="st9" d="M555.58,196.38c1.27-1.69,3.64-1.29,5.5-1.5,20.62-.25,41.25.32,61.87-.06,20.03.25,40.06.03,60.1.15,3.13.11,6.4-.46,9.46.45,2.48,1.22,2.49,4.2,2.49,6.58-.05,8.33.01,16.65-.03,24.98-46.93-.05-93.87.06-140.8-.09-.1-7.65.05-15.31-.09-22.97.09-2.54-.31-5.46,1.5-7.54Z"/>
  </g>
  <g id="_x23_d47320ff">
    <path class="st17" d="M415.64,229.96c-.24-4,3.33-7.39,7.28-7.05,30.7-.01,61.4-.02,92.1,0,4.21-.27,7.32,4.1,6.94,8.04-.04,8.49.02,16.97.07,25.46,0,.51-.02,1.53-.02,2.05-.25,10.04.49,20.13-.26,30.15-1.11,1.97-2.55,4.06-4.89,4.61-2.95.49-5.95.26-8.92.29-28.31-.04-56.62.01-84.93-.03-2.41.22-4.39-1.2-6.08-2.72-1.15-2.07-1.46-4.46-1.37-6.79.1-18.01-.06-36.02.08-54.02M418.32,227.27c-1.18,3.46-.6,7.19-.63,10.77.27,6.32-.41,12.66.16,18.97,5.39.46,10.8.07,16.2.15,28.62-.02,57.24.06,85.86-.04.29-6.38.27-12.76.16-19.15-.14-3.52.73-7.23-.54-10.61-.9-2.16-3.43-2.66-5.52-2.62-29.67-.03-59.35.04-89.02-.02-2.4.05-5.28.26-6.67,2.55M417.51,259.26c-.08,8.58-.02,17.17-.05,25.76-.11,2.01.48,4.09,1.92,5.54,2.51,1.86,5.81.88,8.69,1.05,29-.07,58,.03,87-.05,2.89.17,5.23-2.72,4.96-5.51.11-8.96-.01-17.92.02-26.88-34.18.05-68.37-.13-102.54.09Z"/>
  </g>
  <g id="_x23_fc9c38ff">
    <path class="st6" d="M418.32,227.27c1.39-2.29,4.27-2.5,6.67-2.55,29.67.06,59.35,0,89.02.02,2.09-.04,4.62.46,5.52,2.62,1.27,3.38.4,7.09.54,10.61.11,6.39.13,12.77-.16,19.15-28.62.1-57.24.02-85.86.04-5.4-.08-10.81.31-16.2-.15-.57-6.31.11-12.65-.16-18.97.03-3.58-.55-7.31.63-10.77Z"/>
  </g>
  <g id="_x23_080909ff">
    <path class="st29" d="M570.52,261.4c1.92-2.51,5.56,1.43,3.15,3.11-1.89,1.99-5.13-1.21-3.15-3.11Z"/>
    <path class="st29" d="M570.15,279.07c.64-1.78,3.23-1.63,4.16-.11.71,1.95-.95,2.9-2.37,3.76-.82-.97-2.94-2.11-1.79-3.65Z"/>
  </g>
  <g id="_x23_0f1010ff">
    <path class="st16" d="M736.37,261.35c2.04-2.25,4.98,1.12,3.2,3.18-2.01,2.05-5.45-1.23-3.2-3.18Z"/>
  </g>
  <g id="_x23_0c0c0cff">
    <path class="st10" d="M736.37,278.34c2.19-1.92,5.18,1.22,3.19,3.34-2.11,2.05-5.25-1.32-3.19-3.34Z"/>
  </g>
  <g id="_x23_dbdbdfff">
    <path class="st26" d="M516.86,293.23c2.34-.55,3.78-2.64,4.89-4.61.38.36,1.14,1.08,1.52,1.44-2.36,2.35-4.45,5.13-7.38,6.8-5.87,1.35-11.93.16-17.88.42-18.74.37-37.47-.13-56.22.17-6.26-.17-12.54.34-18.79-.11-3.33-.05-6.55-3.12-6.07-6.57,1.69,1.52,3.67,2.94,6.08,2.72,28.31.04,56.62,0,84.93.03,2.97-.03,5.97.2,8.92-.29Z"/>
  </g>
  <g id="_x23_161616ff">
    <path class="st30" d="M571.23,295.17c2.56-1.76,4.81,3.56,1.71,4.06-2.47,1.11-4.31-3.08-1.71-4.06Z"/>
  </g>
  <g id="_x23_252526ff">
    <path class="st31" d="M737.04,294.92c2.59-1.11,4.54,3.1,1.88,4.14-2.55,1.69-4.49-2.92-1.88-4.14Z"/>
  </g>
  <g id="_x23_dee0e3ff">
    <path class="st18" d="M723.73,315.18c-1.49-1.05-.54-2.55.13-3.77,1.82,2.08,4.19,3.98,7.14,3.7,41.02.06,82.04-.07,123.05.03,2.76.17,5.49-.59,7.61-2.39,1.35,2.67-1.58,4.59-3.79,5.24-2.93.64-5.9.94-8.86,1.23-12.09.43-24.2.76-36.25-.4-7.19,1.45-14.93-.61-21.73,2.81.03-1.96.02-3.92.04-5.87-1.56.96-3.13,1.91-4.67,2.9-3.49-.46-7-.19-10.41.58-3.06.75-6.12-.32-9.18-.27-8.6.53-17.22.89-25.82.46-5.85-.13-13.1.82-17.26-4.25Z"/>
    <path class="st18" d="M380.17,413.04c.31-.4.92-1.19,1.22-1.59.73,4,4.5,6.69,8.51,6.31,42.4.05,84.8,0,127.2.03,3.21.3,6.05-1.44,8.01-3.86.08,4.51-4.1,7.82-8.38,7.82-6.68-.02-13.35.57-20.02-.08-11.29.21-22.58.42-33.87-.15-4.29-.36-8.53,1.08-12.8.34-6.32-.87-12.68.4-19.01-.17-4.77.64-9.54.51-14.32.12-6,1.06-11.97-.87-17.97.03-4.88.64-9.95-.27-14.46-2.19-1.97-1.73-3.32-4.13-4.11-6.61Z"/>
  </g>
  <g id="_x23_dcdde1ff">
    <path class="st15" d="M555.03,314c3.76,1.68,7.97,1.08,11.97,1.15,40.67-.02,81.34.02,122.01-.04,1.72-.02,3.41-.47,5.01-1.11.68,2.42-1.66,4.24-3.83,4.46-4.74.46-9.57,1.9-14.23.28-8.51.93-17.11.75-25.64.14-11.08,1.16-22.23.26-33.35.44-7.65-.92-15.29.33-22.96-.02-5.69.4-11.36-1.02-17.01-.06-2.92.37-5.82-.19-8.73-.34-2.22-.12-4.39,1.11-6.6.52-2.47-.71-4.93-1.67-6.96-3.27.08-.54.24-1.61.32-2.15Z"/>
  </g>
  <g id="_x23_8542a1ff">
    <path class="st8" d="M386.88,347.27c1.98-.54,4.09-.29,6.14-.35,31,.02,62.01,0,93.02,0,11.76.23,23.56-.5,35.29.39l-.85.65c-.38.2-1.13.61-1.51.81-17.99.5-36,.07-54,.21-25.71-.05-51.42.12-77.13-.09-.24-.27-.7-.82-.93-1.1l-.03-.53Z"/>
  </g>
  <g id="_x23_8649a0ff">
    <path class="st22" d="M381.25,354.99c-.14-3.06,1.54-6.83,4.87-7.3l.79.11c.23.28.69.83.93,1.1-2.51,1.04-4.76,3.17-4.48,6.11.03,8.78-.41,17.56.09,26.33,46.79-.05,93.58-.01,140.37-.02.3-8.46.12-16.93.11-25.39.18-3.26-1.66-6.41-4.96-7.15.38-.2,1.13-.61,1.51-.81l1.21-.64c1.92,1.74,4.04,3.82,3.93,6.64.1,9.13.08,18.26.04,27.39v1.91c-.04,7.25.12,14.51.02,21.76-.04,2.97.25,6-.57,8.9-1.96,2.42-4.8,4.16-8.01,3.86-42.4-.03-84.8.02-127.2-.03-4.01.38-7.78-2.31-8.51-6.31-.32-18.82-.04-37.64-.14-56.46M383.26,383.25c0,8.95-.05,17.9.03,26.85-.19,3.09,2.58,5.88,5.69,5.63,43.02,0,86.03,0,129.05-.01,3.13.28,5.94-2.51,5.72-5.64.11-8.95,0-17.9.04-26.84-46.84.05-93.69.01-140.53.01Z"/>
  </g>
  <g id="_x23_b46cd4ff">
    <path class="st19" d="M383.36,355.01c-.28-2.94,1.97-5.07,4.48-6.11,25.71.21,51.42.04,77.13.09,18-.14,36.01.29,54-.21,3.3.74,5.14,3.89,4.96,7.15.01,8.46.19,16.93-.11,25.39-46.79,0-93.58-.03-140.37.02-.5-8.77-.06-17.55-.09-26.33Z"/>
  </g>
  <g class="st3">
    <g class="st3">
      <g class="st3">
        <text class="st2" transform="translate(98.7 238.53)"><tspan x="0" y="0">final_sft_dataset.jsonl</tspan></text>
      </g>
    </g>
  </g>
  <g class="st3">
    <g class="st3">
      <g class="st3">
        <text class="st0" transform="translate(215.08 44.83)"><tspan x="0" y="0">Training Artifacts and Interface Layer</tspan></text>
      </g>
    </g>
  </g>
  <g class="st3">
    <g class="st3">
      <g class="st3">
        <text class="st4" transform="translate(414.72 119.9)"><tspan x="0" y="0">train.jsonl</tspan></text>
      </g>
    </g>
  </g>
  <g class="st3">
    <g class="st3">
      <g class="st3">
        <text class="st2" transform="translate(416.05 154.6)"><tspan x="0" y="0">training data</tspan></text>
      </g>
    </g>
  </g>
  <g class="st3">
    <g class="st3">
      <g class="st3">
        <text class="st4" transform="translate(438.71 246.73)"><tspan x="0" y="0">val.jsonl</tspan></text>
      </g>
    </g>
  </g>
  <g class="st3">
    <g class="st3">
      <g class="st3">
        <text class="st2" transform="translate(424.43 279.83)"><tspan x="0" y="0">validation data</tspan></text>
      </g>
    </g>
  </g>
  <g class="st3">
    <g class="st3">
      <g class="st3">
        <text class="st4" transform="translate(261.79 259.48)"><tspan x="0" y="0">Final Dataset</tspan></text>
      </g>
    </g>
  </g>
  <g class="st3">
    <g class="st3">
      <g class="st3">
        <text class="st2" transform="translate(387.29 402.5)"><tspan x="0" y="0">quick interface testing</tspan></text>
      </g>
    </g>
  </g>
  <g class="st3">
    <g class="st3">
      <g class="st3">
        <text class="st4" transform="translate(400.84 370.08)"><tspan x="0" y="0">smoke_test.jsonl</tspan></text>
      </g>
    </g>
  </g>
  <g class="st3">
    <g class="st3">
      <g class="st3">
        <text class="st2" transform="translate(608.66 402.41)"><tspan x="0" y="0">validating all the datasets, </tspan><tspan x="10.61" y="18">splits, and the manifest</tspan></text>
      </g>
    </g>
  </g>
  <g class="st3">
    <g class="st3">
      <g class="st3">
        <text class="st4" transform="translate(553.27 214.69)"><tspan x="0" y="0">training_manifest.json</tspan></text>
      </g>
    </g>
  </g>
  <g class="st3">
    <g class="st3">
      <g class="st3">
        <text class="st4" transform="translate(751.55 217.85)"><tspan x="0" y="0">check scripts</tspan></text>
      </g>
    </g>
  </g>
  <g class="st3">
    <g class="st3">
      <g class="st3">
        <text class="st2" transform="translate(560.96 248.41)"><tspan x="0" y="0">describes:</tspan></text>
      </g>
    </g>
  </g>
  <g class="st3">
    <g class="st3">
      <g class="st3">
        <text class="st2" transform="translate(727.98 248.13)"><tspan x="0" y="0">verify:</tspan></text>
      </g>
    </g>
  </g>
  <g class="st3">
    <g class="st3">
      <g class="st3">
        <text class="st2" transform="translate(580.66 265.93)"><tspan x="0" y="0">version</tspan></text>
      </g>
    </g>
  </g>
  <g class="st3">
    <g class="st3">
      <g class="st3">
        <text class="st2" transform="translate(580.11 284.43)"><tspan x="0" y="0">file paths</tspan></text>
      </g>
    </g>
  </g>
  <g class="st3">
    <g class="st3">
      <g class="st3">
        <text class="st2" transform="translate(578.48 300.88)"><tspan x="0" y="0">dataset size</tspan></text>
      </g>
    </g>
  </g>
  <g class="st3">
    <g class="st3">
      <g class="st3">
        <text class="st2" transform="translate(745.47 267.67)"><tspan x="0" y="0">schema consistency</tspan></text>
      </g>
    </g>
  </g>
  <g class="st3">
    <g class="st3">
      <g class="st3">
        <text class="st2" transform="translate(747.34 284.94)"><tspan x="0" y="0">file alignment</tspan></text>
      </g>
    </g>
  </g>
  <g class="st3">
    <g class="st3">
      <g class="st3">
        <text class="st2" transform="translate(747.01 300.55)"><tspan x="0" y="0">splits correctness</tspan></text>
      </g>
    </g>
  </g>
  <g class="st3">
    <g class="st3">
      <g class="st3">
        <text class="st1" transform="translate(11.1 432.2)"><tspan x="0" y="0">This is a training interface layer</tspan></text>
      </g>
    </g>
  </g>
  <g class="st3">
    <g class="st3">
      <g class="st3">
        <text class="st2" transform="translate(78.57 276.62)"><tspan x="0" y="0">Unified structured dataset</tspan></text>
      </g>
    </g>
  </g>
  <g class="st3">
    <g class="st3">
      <g class="st3">
        <text class="st1" transform="translate(11.04 459.35)"><tspan x="0" y="0">Not just intermediate files</tspan></text>
      </g>
    </g>
  </g>
  <text class="st13" transform="translate(558.89 135.16)"><tspan x="0" y="0">describes all the datasets and </tspan><tspan x="27.48" y="18">splits in the diagram</tspan></text>
</svg>