<?xml version="1.0" encoding="UTF-8"?>
<svg id="_图层_1" xmlns="http://www.w3.org/2000/svg" version="1.1" viewBox="0 0 900 503">
  <!-- Generator: Adobe Illustrator 29.6.0, SVG Export Plug-In . SVG Version: 2.1.1 Build 207)  -->
  <defs>
    <style>
      .st0 {
        fill: #d6d9e4;
      }

      .st1 {
        fill: #d3a571;
      }

      .st2 {
        fill: #ee8d0c;
      }

      .st3 {
        fill: #e2cde8;
      }

      .st4 {
        fill: #09080a;
      }

      .st5 {
        fill: #0c0a0c;
      }

      .st6 {
        fill: #d7c8dd;
      }

      .st7 {
        fill: #110f11;
      }

      .st8 {
        fill: #9550bb;
      }

      .st9 {
        fill: #ca955c;
      }

      .st10 {
        font-size: 25px;
      }

      .st10, .st11, .st12, .st13, .st14, .st15 {
        isolation: isolate;
      }

      .st10, .st13, .st14, .st15 {
        font-family: TimesNewRomanPS-BoldMT, 'Times New Roman';
        font-weight: 700;
      }

      .st16 {
        fill: #e0b886;
      }

      .st17 {
        fill: #cbddf4;
      }

      .st18 {
        fill: #cee5d1;
      }

      .st19 {
        fill: #e3cee9;
      }

      .st20 {
        fill: #fff;
      }

      .st21 {
        fill: #d9dde3;
      }

      .st22 {
        fill: #20ab25;
      }

      .st23 {
        fill: #c68d5c;
      }

      .st24 {
        fill: #fee5c8;
      }

      .st25 {
        fill: #e2c9a9;
      }

      .st26 {
        fill: #0e0c0f;
      }

      .st11 {
        font-family: TimesNewRomanPSMT, 'Times New Roman';
      }

      .st11, .st14 {
        font-size: 15px;
      }

      .st27 {
        fill: #d0e7d3;
      }

      .st28 {
        fill: #070507;
      }

      .st29 {
        fill: #fee4c7;
      }

      .st30 {
        fill: #d8c9dd;
      }

      .st31 {
        fill: #e1a65a;
      }

      .st32 {
        fill: #ecf3fb;
      }

      .st33 {
        fill: #fdf3e7;
      }

      .st34 {
        fill: #d9ae7d;
      }

      .st35 {
        fill: #eef7ef;
      }

      .st36 {
        fill: #f5eaf7;
      }

      .st37 {
        fill: #7a91af;
      }

      .st38 {
        fill: #378c48;
      }

      .st39 {
        fill: #e1cde8;
      }

      .st40 {
        fill: #e7d5be;
      }

      .st41 {
        fill: #d7dee8;
      }

      .st42 {
        fill: #733090;
      }

      .st43 {
        fill: #69a06f;
      }

      .st44 {
        fill: #fdf4e7;
      }

      .st45 {
        fill: #deb178;
      }

      .st13 {
        font-size: 20px;
      }

      .st46 {
        fill: #d1e2f6;
      }

      .st47 {
        fill: #e7d5c2;
      }

      .st48 {
        fill: #ddb685;
      }

      .st49 {
        fill: #edf7ef;
      }

      .st50 {
        fill: #5f9a69;
      }

      .st51 {
        fill: #d0a06a;
      }

      .st52 {
        fill: #5585bd;
      }

      .st53 {
        fill: #131114;
      }

      .st54 {
        fill: #d1a167;
      }

      .st55 {
        fill: #d9dde4;
      }

      .st56 {
        fill: #145dd3;
      }

      .st57 {
        fill: #d77a06;
      }

      .st58 {
        fill: #ad73c3;
      }

      .st59 {
        fill: #4ca952;
      }

      .st15 {
        font-size: 18px;
      }

      .st60 {
        fill: #d2e8d5;
      }

      .st61 {
        fill: #d7dae4;
      }

      .st62 {
        fill: #cc9962;
      }

      .st63 {
        fill: #87a3c6;
      }

      .st64 {
        fill: #e1e1de;
      }
    </style>
  </defs>
  <g id="_x23_ffffffff">
    <path class="st20" d="M0,0h900v503H0V0M414.24,75.81c-.1,2.13-.11,4.26-.09,6.39-74.43-.12-148.86.08-223.28-.1-.12.23-.37.68-.49.91-4.12-.45-8.26-.21-12.39-.29-48.27,0-96.54-.03-144.81.04-3.03-.79-6.55.97-6.86,4.28.14,26.84-.02,53.69.06,80.54.61,3.13,3.91,4.46,6.79,3.72,48.63.15,97.26,0,145.89.07,3.77-.07,7.56.13,11.29-.46-.03,1.79-.06,3.59-.06,5.39-52.33.17-104.65.16-156.98,0v.4c-3-1.09-6.83.85-6.81,4.22-.04,26.67-.04,53.34,0,80-.2,3.45,3.88,4.94,6.73,4.15,1.59.2,3.2.23,4.81.19,46.33-.07,92.66.03,138.99-.02,4.42-.04,8.87.33,13.28-.19,0,1.71-.02,3.41,0,5.13-52.38.18-104.77.14-157.15.05-3.18-.68-6.75,1.29-6.71,4.79-.05,26.62-.06,53.24-.01,79.86.19,3.29,3.73,4.99,6.69,4.26,48.62.06,97.25,0,145.87.03,3.77.01,7.56.24,11.32-.21,0,1.75,0,3.5,0,5.25-52.38.21-104.76.09-157.14.08-3.04-.62-6.97,1.01-6.71,4.6-.01,26.69-.06,53.39.02,80.09.01,3.29,3.85,4.86,6.68,4.19,47.61.16,95.23-.02,142.84.07,4.77-.02,9.56.14,14.31-.41.07,1.46-.23,3.03.36,4.43,69.14-.21,138.28-.08,207.42-.07.54,1.94-1.31,5.61,1,6.29.05-2.12.06-4.23.06-6.33,92.37.02,184.73-.01,277.1.01-.03,2.17-.05,4.35.03,6.53,2.03-1.48.46-4.49,1.05-6.59,63.23.18,126.47-.06,189.7.13-.03,1.19-.78,2.22-1.07,3.36,2.42-1.44,5.03-2.57,7.36-4.19-1.59-.66-3.1-1.46-4.58-2.29,6.25-5.3,3.53-14.01,4.17-21.08-.32-21.24.01-42.53-.27-63.75-.92-3.3-4.24-5.63-7.67-5.22-50.33.03-100.67-.04-151,.03-1.33,0-2.54-.36-3.64-1.11.14-1.32.19-2.65.16-3.97,50.15,0,100.31.03,150.46.01,2.59.01,5.24.27,7.79-.35,2.35-.63,3.34-3.19,3.61-5.38.48-6.44-.49-12.92.39-19.34.31-1.7-.34-3.33-.88-4.88,1.37-3.19.95-6.71,1.01-10.08-.07-7.6.1-15.21-.06-22.81.19-4.72-.04-9.45.06-14.18.02-3.12.2-6.52-1.59-9.24-1.42-1.97-3.91-2.79-6.24-2.68-51.04-.02-102.07.1-153.1-.08-1.96.23-4.32-.4-5.97.87-83.33.06-166.66.01-249.98.01-1.33-.07-2.61.15-3.83.67-2.06-2.33-5.47-.7-8.16-1.4-29.33-.14-58.66-.05-87.99-.03-2.93-.12-5.84.34-8.67,1.05.05-2.37-.04-4.73-.06-7.1,1.52.5,3.08.98,4.71.94,171,.04,342-.03,512.99.06,1.92-.05,4.08-.09,5.61-1.45,1.39-1.77,1.96-4.07,1.95-6.3.33-16.49-.14-32.99.04-49.48.14-8.96.36-17.93-.41-26.86-.19-2.36-2.5-3.81-4.47-4.64-1.91.16-3.78.76-5.7.65-70.35.1-140.69-.09-211.03.03-4.02-.29-8.01-1.17-12.06-.8-94.65.11-189.3-.02-283.94.06-2.92-.05-5.82-.37-8.73-.57,1.07-1.37,1.11-3.11,1.01-4.76,6.54.54,13.12.12,19.69.25,165.69.04,331.38-.04,497.08.04,2.8.03,6.69-.27,7.91-3.26.82-8.97.36-18.02.31-27.02.64-6.76-.55-13.54.21-20.29-.09-7.66-.16-15.32.17-22.97-.51-4.62.22-9.48-1.83-13.79.7-.41,1.4-.83,2.11-1.28-2.3-1.24-4.62-2.45-6.99-3.55.34,1.03.7,2.05,1.09,3.07-63.42.03-126.85-.05-190.27.04-.03-2.08-.02-4.15-.02-6.23-2.56.52-.51,4.37-1.14,6.25-86.69-.05-173.39-.19-260.08.07-.89-2,1.06-5.69-1.26-6.48h0Z"/>
    <path class="st20" d="M191.37,170.99c7.55.52,15.12.11,22.68.23,33.65-.02,67.31.03,100.97,0,10.39-.11,20.79.29,31.18-.2.33,2.61-1.24,5.66-4.22,5.45-30.68.15-61.36-.03-92.04.08-1.55-.11-2.92.6-4.15,1.44-1.41-1.02-2.96-1.92-4.77-1.74-16.53-.1-33.07.29-49.6-.14,0-1.71-.03-3.41-.05-5.11h0Z"/>
    <path class="st20" d="M341.01,265.04c1.77.07,3.49-.42,5.17-.96.05,4.81.06,9.62.01,14.44l-1.18-.53c.1-2.48.13-4.97-.11-7.44-4.61-.63-9.28-.47-13.91-.48-42.01.04-84.02-.01-126.03.04-4.53-.02-9.13.27-13.56-.85v-3.49c3.17-.5,6.39-.76,9.61-.72,46.67,0,93.33.03,140,0h0Z"/>
    <path class="st20" d="M191.37,359.04c51.6.09,103.2-.12,154.8.04.02,2.99.05,5.98.07,8.98-1-1.37-1.69-3.35-3.55-3.71-2.53-.47-5.12-.25-7.67-.27-47.89,0-95.77.05-143.66-.05,0-1.67.02-3.33,0-4.99h.01Z"/>
    <path class="st20" d="M347.32,358.97c52.84.17,105.68-.07,158.51.17.24.78.74,2.32.99,3.09-.44,1.65-1.97,2.97-3.72,2.86-16.53.05-33.06.02-49.59.04-1.07-.62-2.2-.98-3.4-1.07-29.37.08-58.75-.04-88.12.03-4.9.11-9.87-.48-14.67.76.03-1.97.03-3.92,0-5.88Z"/>
    <path class="st20" d="M508.15,358.95c67.07.18,134.15-.01,201.22.11.23,2.51-.18,5.58-2.98,6.47-.61-.32-1.83-.96-2.45-1.28-56.32-.22-112.65-.17-168.97-.14-9.19-.17-18.41.4-27.58-.4.73-1.49.87-3.14.76-4.76h0Z"/>
    <path class="st20" d="M665.01,453.13c3.75-.04,7.68.58,11.22-1-.02,1.3-.02,2.6-.01,3.91-68.1.06-136.21-.05-204.31,0-24.05-.36-48.1.24-72.15-.11.13-.7.41-2.11.54-2.81,88.22.04,176.48-.04,264.71,0h0Z"/>
    <path class="st20" d="M191.34,453.03c13.88.3,27.76-.01,41.64.12,55.04-.1,110.08.15,165.11-.13,0,.74.01,2.21.01,2.94-68.91.2-137.83.1-206.74.02,0-.74,0-2.21-.02-2.95h0Z"/>
    <path class="st20" d="M677.25,453.03c13.92.25,27.84.07,41.76.11,48.99-.16,97.99.21,146.98-.2.42.97.84,1.94,1.28,2.91-63.33.24-126.65.15-189.98.21,0-.76-.03-2.27-.04-3.03h0Z"/>
  </g>
  <g id="_x23_0e0c0fff">
    <path class="st26" d="M414.24,75.81c2.32.79.37,4.48,1.26,6.48,86.69-.26,173.39-.12,260.08-.07.63-1.88-1.42-5.73,1.14-6.25,0,2.08,0,4.15.02,6.23,63.42-.09,126.85,0,190.27-.04-.39-1.02-.75-2.04-1.09-3.07,2.37,1.1,4.69,2.31,6.99,3.55-.71.45-1.41.87-2.11,1.28-1.63.89-3.27,1.72-4.91,2.55.36-1.04.73-2.08,1.11-3.13-63.41-.16-126.82.08-190.22-.12-.02,2.12-.13,4.26-.15,6.39-2.23-1.09-.54-4.29-.98-6.19-86.78-.31-173.58,0-260.37-.14-.48,2.03,1.12,5.38-1.09,6.41-.03-2.14-.03-4.28-.05-6.42-74.26.01-148.52.11-222.78-.05-.12-.28-.37-.84-.49-1.12,74.42.18,148.85-.02,223.28.1-.02-2.13,0-4.26.09-6.39h0Z"/>
    <path class="st26" d="M390.53,98.82c1.38,2.08,1.3,4.75,1.41,7.16-.11,6.83.02,13.67-.01,20.51,2.16,0,4.33,0,6.5-.05-.47-1.03-.93-2.06-1.38-3.09,1.94.79,3.79,1.76,5.54,2.93l.54-1.11c.01,1.21.02,2.42.04,3.63l-.67-.82c-1.81,1.02-3.68,1.94-5.54,2.85.43-.77,1.28-2.32,1.71-3.09-2.23-.02-4.45-.07-6.67-.07l-.74.02c.66-3.88.17-7.83.26-11.75-.12-5.72.61-11.54-.99-17.12Z"/>
    <path class="st26" d="M294.76,123.38c2.2,1.06,4.37,2.19,6.5,3.4v.92c-2.19.98-4.38,1.97-6.54,3.01.33-.73.99-2.2,1.33-2.94-2.04-.04-4.06-.04-6.08-.09l-.9-.28v-.49c.22-.1.67-.28.89-.38,2.03-.02,4.04-.02,6.07-.05-.32-.77-.95-2.32-1.27-3.1h0Z"/>
    <path class="st26" d="M500.18,123.32c2.32,1.09,4.54,2.4,6.87,3.51l.88-.28v.27c-.23.14-.69.43-.91.58-2.31,1.17-4.63,2.31-6.99,3.38.52-1.02,1.02-2.05,1.57-3.07-2.55-.05-5.09-.02-7.62-.04-.02-.3-.06-.89-.08-1.19,2.54.02,5.08.02,7.63-.03-.46-1.04-.91-2.08-1.35-3.13h0Z"/>
    <path class="st26" d="M500.53,215.89c2.13,1.02,4.21,2.15,6.27,3.3-.04.27-.11.81-.15,1.08-2.12,1.13-4.25,2.24-6.45,3.2.48-1.04.96-2.09,1.45-3.12-2.4-.11-4.79-.14-7.17-.09-.01-.41-.01-.82,0-1.22,2.37.1,4.75.11,7.13.06-.37-1.07-.73-2.14-1.08-3.21Z"/>
    <path class="st26" d="M655.8,249.65c.3-.11.9-.34,1.2-.45-.01.62-.03,1.88-.04,2.5.04,2.27.17,4.7-1.65,6.38,32.92.01,65.84.05,98.76.02,1.29,0,2.69-.14,3.74-.99,2.17-1.95,1.16-5.17,1.28-7.71.33-.03.97-.1,1.3-.13-.01.33-.02.99-.02,1.32.56,3.63-.78,8.76-5.34,8.56-134.03.02-268.07-.1-402.1.01-3.03-.61-5.98,1.74-5.64,4.92.02,2.37.11,4.73.06,7.1-.03,2.41-.03,4.83.04,7.24.84-.29,2.53-.87,3.37-1.16-1.14,2-2.25,4.02-3.3,6.07-.2.39-.6,1.17-.8,1.56h0l-.36-.83c-.86-2.41-2.21-4.6-3.3-6.9l2.01.83,1.18.53c.05-4.82.04-9.63-.01-14.44-.39-3.33,2.41-6.38,5.79-6.12,100.03-.12,200.06.04,300.08-.08,4.55.32,3.93-5.22,3.75-8.23h0Z"/>
    <path class="st26" d="M452.17,271.56c1.22-.52,2.5-.74,3.83-.67,83.32,0,166.65.05,249.98-.01,2.42.57,4.56,2.68,4.44,5.3.04,27.61-.04,55.22.08,82.84.03,1.32-.02,2.65-.16,3.97-.89,2.17-2.95,3.68-5.31,3.68-11.02.06-22.03-.08-33.04.09-2.08-.23-3.42,1.53-4.05,3.27-.26,3.03-.08,6.08-.1,9.13-.26-.02-.79-.05-1.06-.06.43-3.88-1-8.42,1.62-11.75.98-1.49,2.94-1.7,4.57-1.75,11.14-.11,22.29.24,33.42-.07,2.8-.89,3.21-3.96,2.98-6.47-.05-27.34-.01-54.69-.02-82.03.44-2.51-1.63-5.2-4.27-4.94-82.03-.03-164.07.04-246.1-.02-2.49.19-5.59-.79-7.42,1.42-1.05,1.43-.6,3.32-.76,4.96.78-.29,2.35-.87,3.13-1.16-1.18,2.21-2.37,4.42-3.41,6.71l.17.85h-.31c-.16-.29-.49-.85-.65-1.13-1.19-2.14-2.28-4.32-3.39-6.48.73.28,2.19.84,2.92,1.12.42-2.44.52-5.38,2.91-6.8h0Z"/>
    <path class="st26" d="M397.26,309.52c2.33.98,4.55,2.21,6.74,3.47l-.05.68c-2.24,1.26-4.52,2.43-6.82,3.57.42-1.12.85-2.22,1.28-3.33-2.11.01-4.21.03-6.31.06v-1.17c2.06-.02,4.13-.02,6.2.01-.26-.82-.78-2.47-1.04-3.29Z"/>
    <path class="st26" d="M604.28,309.42c2.3,1.11,4.55,2.32,6.78,3.58l-.04.63c-2.22,1.35-4.54,2.53-6.9,3.62.43-1.1.88-2.2,1.33-3.29-2.43-.05-4.85-.06-7.27,0v-1.26c2.37.09,4.74.11,7.12.09-.26-.84-.76-2.52-1.02-3.37h0Z"/>
    <path class="st26" d="M501.19,404.17c2.24,1.29,4.54,2.49,6.72,3.89v.62c-2.33,1.11-4.63,2.3-6.93,3.49.47-1.08.96-2.14,1.45-3.21-2.3,0-4.59-.03-6.88-.12l-.74-.03-.03-.81.8-.2c2.25-.11,4.5-.08,6.76-.09-.29-.88-.86-2.66-1.15-3.54h0Z"/>
    <path class="st26" d="M398.1,449.76l.99.09c.01,2.02.02,4.04.02,6.08h.65c24.05.36,48.1-.24,72.15.12,68.1-.06,136.21.05,204.31,0,0-1.31,0-2.61.01-3.91.02-.67.06-2.02.09-2.7,1.28.81.8,2.35.93,3.6.01.76.03,2.27.04,3.03,63.33-.06,126.65.03,189.98-.21-.44-.97-.86-1.94-1.28-2.91.95.3,1.86.69,2.76,1.18,1.48.83,2.99,1.63,4.58,2.29-2.33,1.62-4.94,2.75-7.36,4.19.29-1.14,1.04-2.17,1.07-3.36-63.23-.19-126.47.05-189.7-.13-.59,2.1.98,5.11-1.05,6.59-.08-2.18-.06-4.36-.03-6.53-92.37-.02-184.73,0-277.1-.01,0,2.1-.01,4.21-.06,6.33-2.31-.68-.46-4.35-1-6.29-69.14-.01-138.28-.14-207.42.07.17-.32.51-.97.68-1.29,68.91.08,137.83.18,206.74-.02,0-.73-.01-2.2-.01-2.94,0-.81.01-2.44.01-3.26h0Z"/>
  </g>
  <g id="_x23_131114ff">
    <path class="st53" d="M190.38,83.01c.12-.23.37-.68.49-.91.12.28.37.84.49,1.12.03,29.26-.03,58.51,0,87.77.02,1.7.04,3.4.05,5.11-.05,29.89-.04,59.78-.02,89.67v3.49c.02,29.93-.11,59.86-.03,89.78,0,1.66,0,3.32,0,4.99-.06,29.67-.02,59.33-.02,89,0,.74,0,2.21.02,2.95-.17.32-.51.97-.68,1.29-.59-1.4-.29-2.97-.36-4.43.03-29.54.06-59.08,0-88.62-.02-1.75-.02-3.5,0-5.25.06-29.59-.02-59.19,0-88.78,0-1.72,0-3.42,0-5.13.05-29.59.05-59.18-.02-88.76,0-1.8.03-3.6.06-5.39,0-29.3,0-58.6.03-87.9h0Z"/>
    <path class="st53" d="M604.14,215.83c2.26,1.09,4.5,2.25,6.71,3.46l-.02.73c-2.17,1.33-4.47,2.4-6.81,3.37.36-.7,1.07-2.12,1.43-2.83-2.38-.48-4.82-.27-7.22-.29v-1.21c2.36.05,4.73.05,7.11.02-.3-.81-.9-2.44-1.2-3.25Z"/>
  </g>
  <g id="_x23_5585bdff">
    <path class="st52" d="M26.32,87.04c.31-3.31,3.83-5.07,6.86-4.28.04,29.51.1,59.03,0,88.54-2.88.74-6.18-.59-6.79-3.72-.08-26.85.08-53.7-.06-80.54Z"/>
    <path class="st52" d="M199.82,101.95c-.33-2.34,1.93-4.44,4.23-4.18,27.31.01,54.62-.08,81.93.03,2.34-.32,4.15,1.94,4.04,4.14.03,8.2.25,16.4-.06,24.59-.22.1-.67.28-.89.38-.4-7.98-.05-15.97-.13-23.95.13-1.39-.35-2.69-.99-3.89-1.62-.17-3.24-.36-4.87-.37-26.01.05-52.02.01-78.03.02-1.54-.07-4.07.28-4.02,2.29-.06,17.32-.02,34.63-.03,51.94-.26,1.39,1.31,2.26,2.46,2.48,13.27.33,26.55-.2,39.81.09l1.33.61-.03.6c-13.56-.06-27.11.06-40.66-.06-1.71.09-2.91-1.3-4.19-2.19.07-17.51,0-35.02.1-52.53h0Z"/>
    <path class="st52" d="M403.97,100.93c.19-3.03,3.83-2.85,6.05-3.16,25.99-.03,51.98-.03,77.96.01,2.27.18,5.92.1,6.07,3.18.16,8.5.46,17.05-.15,25.52.02.3.06.89.08,1.19.57,5.76.14,11.55.25,17.33-.18,3.62.54,7.41-.81,10.87-1.43.51-2.9.99-4.43.87-13.1-.09-26.2.09-39.3-.1h-1.11c-12.85.18-25.71,0-38.56.1-1.73.05-3.44-.22-5.11-.63-1.88-3.74-.89-8.04-1.12-12.05.18-14.38-.11-28.76.18-43.13M406.24,99.17c-.28.27-.84.81-1.11,1.08-.29,17.57-.06,35.16-.12,52.73-.19,1.57,1.69,2.59,3.08,2.55,27.27-.19,54.55.09,81.82-.07,2.53.24,3.64-2.35,3.29-4.48-.43-16.91-.02-33.84-.29-50.76-1.08-1.68-3.27-1.32-4.97-1.5-25.98-.01-51.96.01-77.94-.01-1.28,0-2.53.15-3.76.46Z"/>
    <path class="st52" d="M506.97,101.95c-.11-2.22,1.74-4.5,4.11-4.13,27.63-.13,55.28-.08,82.92-.02,2.83-.33,4.54,2.65,4.09,5.17-.14,17.35.39,34.72-.28,52.04-1.43.97-2.96,1.98-4.77,1.72-25.01-.02-50.02,0-75.03,0-3.37-.04-6.82.34-10.09-.69-.84-2.25-1.18-4.65-1.08-7.05.11-7.2-.02-14.39.18-21.58.22-.15.68-.44.9-.58.08,8.4.24,16.8.11,25.2-.38,1.86,1.28,3.6,3.13,3.49,27.28-.05,54.56-.02,81.83,0,1.64.15,4.02-.64,3.98-2.59.06-17,.03-34,.02-51,.1-1.67-1.23-3.42-3.03-3.15-20.64-.14-41.28-.02-61.91-.06-7.67.19-15.37-.41-23.01.36-.7,1.19-1.19,2.49-1.04,3.89-.06,7.86.13,15.72-.07,23.58l-.88.28c-.26-8.29-.15-16.59-.08-24.88h0Z"/>
    <path class="st52" d="M41.76,118.76c5.16-.39,10.36-.27,15.54-.07.27,2.17.21,4.36-.26,6.5-4.94.59-9.89.18-14.83.49-.5-2.27-.99-4.61-.45-6.92Z"/>
    <path class="st52" d="M289.07,127.4l.9.28c.19,9.08.29,18.18-.11,27.25-1.18.72-2.28,1.85-3.76,1.76-13.55.07-27.1,0-40.65.03v-1.01c1.8-.55,3.72-.28,5.59-.32,11.59.17,23.19.12,34.78.08,1.42.08,3.08-1.06,3.13-2.53.22-8.51-.31-17.03.12-25.54h0Z"/>
    <path class="st52" d="M691.33,129.22l.4-.04c-.08,4.17.07,8.33-.05,12.49l-.66.26c.19-2.58.27-5.16.11-7.74-3.59.49-7.22.45-10.83.41-.59-1.64-.92-3.33-.58-5.06,3.86-.26,7.75.09,11.61-.32Z"/>
  </g>
  <g id="_x23_d1e2f6ff">
    <path class="st46" d="M33.18,82.76c48.27-.07,96.54-.04,144.81-.04,4.13.08,8.27-.16,12.39.29-.02,29.3-.04,58.6-.03,87.9-3.73.59-7.52.39-11.29.46-48.63-.07-97.26.08-145.89-.07.11-29.51.05-59.03,0-88.54M40.69,117.7c.25,6-.57,12.17.43,18.06,5.67.19,11.34.03,17.01.09.53-6.02.3-12.13.09-18.17-5.85,0-11.69-.1-17.53.02Z"/>
  </g>
  <g id="_x23_ecf3fbff">
    <path class="st32" d="M191.36,83.22c74.26.16,148.52.06,222.78.05.02,2.14.02,4.28.05,6.42,2.21-1.03.61-4.38,1.09-6.41,86.79.13,173.59-.17,260.37.14.44,1.9-1.25,5.1.98,6.19.02-2.13.13-4.27.15-6.39,63.4.2,126.81-.04,190.22.12-.38,1.05-.75,2.09-1.11,3.13,1.64-.83,3.28-1.66,4.91-2.55,2.05,4.31,1.32,9.17,1.83,13.79-.33,7.65-.26,15.31-.17,22.97-.76,6.75.43,13.53-.21,20.29.05,9,.51,18.05-.31,27.02-1.22,2.99-5.11,3.29-7.91,3.26-165.7-.08-331.39,0-497.08-.04-6.57-.13-13.15.29-19.69-.25-.05-1.77-.07-3.54.35-5.27,3.1-.5,6.25-.18,9.38-.24,28.33-.02,56.66-.03,84.99,0,2.08-.07,4.56.27,6.15-1.41,1.79-1.54,1.5-4.07,1.58-6.18,1.33.57,2.73,1.11,4.22,1.06,11.68.05,23.37.13,35.05.17,1.95.06,5.84-.31,4.44-3.22,1.35-3.46.63-7.25.81-10.87-.11-5.78.32-11.57-.25-17.33,2.53.02,5.07,0,7.62.04-.55,1.02-1.05,2.05-1.57,3.07,2.36-1.07,4.68-2.21,6.99-3.38-.2,7.19-.07,14.38-.18,21.58-.1,2.4.24,4.8,1.08,7.05.2.59.61,1.77.81,2.36,3.71.79,7.53.53,11.3.55,24.66,0,49.32,0,73.98.1,2.29.16,3.88-1.86,3.8-4.03.67-17.32.14-34.69.28-52.04.45-2.52-1.26-5.5-4.09-5.17-27.64-.06-55.29-.11-82.92.02-2.37-.37-4.22,1.91-4.11,4.13-.07,8.29-.18,16.59.08,24.88-2.33-1.11-4.55-2.42-6.87-3.51.44,1.05.89,2.09,1.35,3.13-2.55.05-5.09.05-7.63.03.61-8.47.31-17.02.15-25.52-.15-3.08-3.8-3-6.07-3.18-25.98-.04-51.97-.04-77.96-.01-2.22.31-5.86.13-6.05,3.16-.29,14.37,0,28.75-.18,43.13.23,4.01-.76,8.31,1.12,12.05.47,1.92,2.19,2.84,4.09,2.74,13.21.13,26.45.72,39.66-.05.25,2.37-.77,5.57-3.65,5.47-65,.08-129.98.02-194.98.03-3.03.5-4.85-2.55-4.49-5.23,13.14-.1,26.3-.35,39.46-.08,2.47.39,5.12-1.36,4.86-4.06.4-9.07.3-18.17.11-27.25,2.02.05,4.04.05,6.08.09-.34.74-1,2.21-1.33,2.94,2.16-1.04,4.35-2.03,6.54-3.01-.16,8.72-.14,17.45,0,26.17-1.06,4.09,3.56,5.43,6.71,5.2,26.69-.55,53.39.43,80.07-.06,2.78.09,4.09-2.65,3.96-5.08.18-8.75.06-17.5-.01-26.26,2.22,0,4.44.05,6.67.07-.43.77-1.28,2.32-1.71,3.09,1.86-.91,3.73-1.83,5.54-2.85l.67.82c-.02-1.21-.03-2.42-.04-3.63l-.54,1.11c-1.75-1.17-3.6-2.14-5.54-2.93.45,1.03.91,2.06,1.38,3.09-2.17.04-4.34.05-6.5.05.03-6.84-.1-13.68.01-20.51-.11-2.41-.03-5.08-1.41-7.16l-.59-.86c-1.96-.28-3.93-.35-5.9-.34-25.66.06-51.32-.01-76.98.06-1.73.2-3.97-.26-5,1.53-1.18,2.43-.83,5.21-.9,7.82.11,6.58-.12,13.17.1,19.75-2.13-1.21-4.3-2.34-6.5-3.4.32.78.95,2.33,1.27,3.1-2.03.03-4.04.03-6.07.05.31-8.19.09-16.39.06-24.59.11-2.2-1.7-4.46-4.04-4.14-27.31-.11-54.62-.02-81.93-.03-2.3-.26-4.56,1.84-4.23,4.18-.11,17.51-.03,35.02-.1,52.53-.09.54-.26,1.61-.35,2.15,1.59,1.34,3.45,2.45,5.62,2.24,13.15-.05,26.31.35,39.47.26-.28,2.86,1.49,6.11,4.63,6.21,31.32.23,62.64-.05,93.96.14,3.03-.13,3.5,3.25,3.15,5.53-10.39.49-20.79.09-31.18.2-33.66.04-67.32,0-100.97,0-7.56-.12-15.13.29-22.68-.23-.04-29.26.02-58.51,0-87.77M678.3,102.43c-2.94.64-5,3.54-4.67,6.53-.05,11.33.19,22.66.04,33.99-.35,3.13,1.95,6.47,5.3,6.34,54.34,0,108.69-.07,163.04.04,3.3-.03,6.67.32,9.94-.36,2.8-.9,4.11-4.18,3.92-6.94-.01-10.68-.01-21.36.02-32.04-.07-2.06.09-4.6-1.8-5.96-2.65-2.73-6.69-1.85-10.08-1.92-44.34.02-88.69.02-133.03-.02-10.89.2-21.83-.33-32.68.34h0Z"/>
  </g>
  <g id="_x23_87a3c6ff">
    <path class="st63" d="M302.06,99.21c1.03-1.79,3.27-1.33,5-1.53,25.66-.07,51.32,0,76.98-.06,1.97-.01,3.94.06,5.9.34l.59.86c-28.78.48-57.59-.06-86.38.27-1.82.97-1.03,3.28-1.24,4.93.26,16.95-.35,33.92.31,50.85,28.62.79,57.3-.21,85.92.53l.37,1.3c-1.16.32-2.34.46-3.54.42-26.67-.1-53.34-.07-80.01-.04-2.27.38-3.65-1.55-4.69-3.21-.15-8.72-.17-17.45,0-26.17v-.92c-.22-6.58,0-13.17-.1-19.75.07-2.61-.28-5.39.9-7.82h0Z"/>
  </g>
  <g id="_x23_cbddf4ff">
    <path class="st17" d="M201.03,101.01c-.05-2.01,2.48-2.36,4.02-2.29,26.01-.01,52.02.03,78.03-.02,1.63.01,3.25.2,4.87.37.64,1.2,1.12,2.5.99,3.89.08,7.98-.27,15.97.13,23.95v.49c-.43,8.51.1,17.03-.12,25.54-.05,1.47-1.71,2.61-3.13,2.53-11.59.04-23.19.09-34.78-.08-1.87.04-3.79-.23-5.59.32-.22.11-.64.31-.85.42l-1.33-.61c-13.26-.29-26.54.24-39.81-.09-1.15-.22-2.72-1.09-2.46-2.48,0-17.31-.03-34.62.03-51.94Z"/>
    <path class="st17" d="M304.15,99.09c28.79-.33,57.6.21,86.38-.27,1.6,5.58.87,11.4.99,17.12-.09,3.92.4,7.87-.26,11.75-1.1,8.32,0,16.76-.59,25.11-.43.91-.94,1.78-1.53,2.6-28.62-.74-57.3.26-85.92-.53-.66-16.93-.05-33.9-.31-50.85.21-1.65-.58-3.96,1.24-4.93h0Z"/>
    <path class="st17" d="M406.24,99.17c1.23-.31,2.48-.46,3.76-.46,25.98.02,51.96,0,77.94.01,1.7.18,3.89-.18,4.97,1.5.27,16.92-.14,33.85.29,50.76.35,2.13-.76,4.72-3.29,4.48-27.27.16-54.55-.12-81.82.07-1.39.04-3.27-.98-3.08-2.55.06-17.57-.17-35.16.12-52.73.27-.27.83-.81,1.11-1.08Z"/>
    <path class="st17" d="M509.04,99.08c7.64-.77,15.34-.17,23.01-.36,20.63.04,41.27-.08,61.91.06,1.8-.27,3.13,1.48,3.03,3.15.01,17,.04,34-.02,51,.04,1.95-2.34,2.74-3.98,2.59-27.27-.03-54.55-.06-81.83,0-1.85.11-3.51-1.63-3.13-3.49.13-8.4-.03-16.8-.11-25.2v-.27c.21-7.86.02-15.72.08-23.58-.15-1.4.34-2.7,1.04-3.89h0Z"/>
    <path class="st17" d="M678.3,102.43c10.85-.67,21.79-.14,32.68-.34,44.34.04,88.69.04,133.03.02,3.39.07,7.43-.81,10.08,1.92,1.89,1.36,1.73,3.9,1.8,5.96-.03,10.68-.03,21.36-.02,32.04.19,2.76-1.12,6.04-3.92,6.94-3.27.68-6.64.33-9.94.36-54.35-.11-108.7-.04-163.04-.04-3.35.13-5.65-3.21-5.3-6.34.15-11.33-.09-22.66-.04-33.99-.33-2.99,1.73-5.89,4.67-6.53M679.15,128.79c-.31,4.34-.32,8.7-.14,13.05,3.99.04,8-.1,12.01.09l.66-.26c.12-4.16-.03-8.32.05-12.49l-.4.04c-3.85-1.14-8.16-.29-12.18-.43h0Z"/>
  </g>
  <g id="_x23_145dd3ff">
    <path class="st56" d="M40.69,117.7c5.84-.12,11.68-.02,17.53-.02.21,6.04.44,12.15-.09,18.17-5.67-.06-11.34.1-17.01-.09-1-5.89-.18-12.06-.43-18.06M41.76,118.76c-.54,2.31-.05,4.65.45,6.92,4.94-.31,9.89.1,14.83-.49.47-2.14.53-4.33.26-6.5-5.18-.2-10.38-.32-15.54.07Z"/>
    <path class="st56" d="M679.15,128.79c4.02.14,8.33-.71,12.18.43-3.86.41-7.75.06-11.61.32-.34,1.73,0,3.42.58,5.06,3.61.04,7.24.08,10.83-.41.16,2.58.08,5.16-.11,7.74-4.01-.19-8.02-.05-12.01-.09-.18-4.35-.17-8.71.14-13.05h0Z"/>
  </g>
  <g id="_x23_7a91afff">
    <path class="st37" d="M391.26,127.69l.74-.02c.07,8.76.19,17.51.01,26.26-.71,1.03-1.56,1.96-2.5,2.77l-.37-1.3c.59-.82,1.1-1.69,1.53-2.6.59-8.35-.51-16.79.59-25.11Z"/>
  </g>
  <g id="_x23_d6d9e4ff">
    <path class="st0" d="M301.27,153.87c1.04,1.66,2.42,3.59,4.69,3.21,26.67-.03,53.34-.06,80.01.04,1.2.04,2.38-.1,3.54-.42.94-.81,1.79-1.74,2.5-2.77.13,2.43-1.18,5.17-3.96,5.08-26.68.49-53.38-.49-80.07.06-3.15.23-7.77-1.11-6.71-5.2h0Z"/>
  </g>
  <g id="_x23_d9dde4ff">
    <path class="st55" d="M199.37,156.63c.09-.54.26-1.61.35-2.15,1.28.89,2.48,2.28,4.19,2.19,13.55.12,27.1,0,40.66.06-.03.6-.09,1.8-.11,2.4-13.16.09-26.32-.31-39.47-.26-2.17.21-4.03-.9-5.62-2.24h0Z"/>
    <path class="st55" d="M488.99,156.74c1.53.12,3-.36,4.43-.87,1.4,2.91-2.49,3.28-4.44,3.22-11.68-.04-23.37-.12-35.05-.17-1.49.05-2.89-.49-4.22-1.06l-.02-1.22c13.1.19,26.2,0,39.3.1h0Z"/>
  </g>
  <g id="_x23_d9dde3ff">
    <path class="st21" d="M286.1,156.69c1.48.09,2.58-1.04,3.76-1.76.26,2.7-2.39,4.45-4.86,4.06-13.16-.27-26.32-.02-39.46.08-.02-.58-.07-1.76-.09-2.35,13.55-.03,27.1.04,40.65-.03h0Z"/>
  </g>
  <g id="_x23_d7dee8ff">
    <path class="st41" d="M593.04,156.73c1.81.26,3.34-.75,4.77-1.72.08,2.17-1.51,4.19-3.8,4.03-24.66-.11-49.32-.11-73.98-.1-3.77-.02-7.59.24-11.3-.55-.2-.59-.61-1.77-.81-2.36,3.27,1.03,6.72.65,10.09.69h75.03,0Z"/>
  </g>
  <g id="_x23_0c0a0cff">
    <path class="st5" d="M244.6,156.13c.21-.11.63-.31.85-.42v1.01c.02.59.07,1.77.09,2.35-.36,2.68,1.46,5.73,4.49,5.23,65,0,129.98.05,194.98-.03,2.88.1,3.9-3.1,3.65-5.47-.02-.54-.06-1.62-.08-2.16h1.11l.02,1.22c-.08,2.11.21,4.64-1.58,6.18-1.59,1.68-4.07,1.34-6.15,1.41-28.33-.03-56.66-.02-84.99,0-3.13.06-6.28-.26-9.38.24-.42,1.73-.4,3.5-.35,5.27.1,1.65.06,3.39-1.01,4.76-1.36,1.36-3.29,1.96-5.19,1.93-30.7.03-61.41-.14-92.1.08-3.48.24-3.47,4.47-3.27,7.05,1.07-.39,2.14-.82,3.2-1.27-1.21,2.27-2.43,4.54-3.46,6.9h-.72c-1.06-2.37-2.32-4.64-3.45-6.96.79.36,2.37,1.08,3.17,1.44,0-2.38,0-4.85,1.36-6.92,1.23-.84,2.6-1.55,4.15-1.44,30.68-.11,61.36.07,92.04-.08,2.98.21,4.55-2.84,4.22-5.45.35-2.28-.12-5.66-3.15-5.53-31.32-.19-62.64.09-93.96-.14-3.14-.1-4.91-3.35-4.63-6.21.02-.6.08-1.8.11-2.4l.03-.6h0Z"/>
    <path class="st5" d="M294.6,215.91c2.27,1.08,4.49,2.27,6.77,3.35l-.09.81c-2.2,1.21-4.48,2.27-6.74,3.34.34-.77,1.01-2.33,1.35-3.11-1.96-.04-3.9-.03-5.85-.09-.24-.03-.74-.08-.98-.1l.05-.58.9-.4c1.95-.04,3.91-.03,5.87-.04-.32-.8-.96-2.38-1.28-3.18h0Z"/>
    <path class="st5" d="M500.53,309.48c1.97.95,3.9,2.01,5.81,3.11.21.3.62.9.82,1.2-2.24,1.12-4.46,2.29-6.73,3.33.38-1.06.77-2.12,1.16-3.18-2.35-.02-4.7,0-7.04-.12l-.89-.1.02-.71.93-.22c2.29-.03,4.58-.01,6.88-.03-.33-1.09-.65-2.19-.96-3.28h0Z"/>
    <path class="st5" d="M294.25,404.16c2.42,1.32,4.9,2.55,7.26,4v.4c-2.4,1.13-4.78,2.32-7.13,3.56.33-.8.99-2.4,1.32-3.2-2.12-.01-4.25,0-6.37.07,0-.43,0-.85.02-1.27,2.11.02,4.23.01,6.35-.04-.49-1.18-.97-2.35-1.45-3.52Z"/>
  </g>
  <g id="_x23_d7dae4ff">
    <path class="st61" d="M404.91,156.11c1.67.41,3.38.68,5.11.63,12.85-.1,25.71.08,38.56-.1.02.54.06,1.62.08,2.16-13.21.77-26.45.18-39.66.05-1.9.1-3.62-.82-4.09-2.74h0Z"/>
  </g>
  <g id="_x23_fee5c8ff">
    <path class="st24" d="M33.31,176.31c52.33.15,104.65.16,156.98,0,.07,29.58.07,59.17.02,88.76-4.41.52-8.86.15-13.28.19-46.33.05-92.66-.05-138.99.02-1.61.04-3.22.01-4.81-.19.11-29.46-.08-58.92.08-88.37v-.4M40.8,200.48c-.24,5.93,0,11.86-.12,17.79,5.7,1.07,11.72.02,17.54.55l.11-.7c.75-3.97.16-8.08.38-12.11-.22-1.89.62-4.21-.91-5.71-5.66.03-11.37-.47-17,.18h0Z"/>
    <path class="st24" d="M405.95,192.01c.9-.55,1.96-.88,3.03-.85,27.72-.15,55.46.22,83.18-.17,2.01,5.81.54,11.96.71,17.94.53,11.68.15,23.39.35,35.08.28,1.96-.86,4.37-3.17,3.85-27.95.04-55.91.16-83.85-.08-.4-.91-.69-1.85-.87-2.82-.17-13.32.05-26.65-.16-39.97.26-4.32-.6-8.78.78-12.98h0Z"/>
    <path class="st24" d="M716.06,194.91c-.63-2.9,2.83-3.55,4.97-3.27,26.31,0,52.63-.02,78.94-.03,2.04-.32,4.02,1.11,3.87,3.26.07,16.4.05,32.79-.01,49.19.19,1.75-.53,4.36-2.82,3.85-27.96-.2-55.88.44-83.82-.08-.79-.77-1.14-1.69-1.07-2.77-.17-16.72.04-33.44-.06-50.15h0Z"/>
  </g>
  <g id="_x23_fdf4e7ff">
    <path class="st44" d="M191.42,176.1c16.53.43,33.07.04,49.6.14,1.81-.18,3.36.72,4.77,1.74-1.36,2.07-1.37,4.54-1.36,6.92-.8-.36-2.38-1.08-3.17-1.44,1.13,2.32,2.39,4.59,3.45,6.96-13.26-.09-26.53-.17-39.79-.14-2.06-.1-4.25.8-5.07,2.82-.61,15.6,0,31.24-.3,46.85.11,3.17-.66,6.72,1.55,9.38,1.28.16,2.57.27,3.86.33,26.35,0,52.71-.05,79.06.02,1.56-.06,3.23.08,4.68-.62,1.95-2.27,1.36-5.4,1.48-8.14-.07-6.91.16-13.82-.14-20.71,1.95.06,3.89.05,5.85.09-.34.78-1.01,2.34-1.35,3.11,2.26-1.07,4.54-2.13,6.74-3.34-.92,9.02-.15,18.11.05,27.15-.25,1.8.65,3.26,1.99,4.36h75.72c3.71-.05,7.45.22,11.15-.24.22-.58.66-1.73.88-2.31.78-1.92,1.32-3.95,1.2-6.04-.11-7.6.09-15.2-.19-22.79,2.14,0,4.29,0,6.43.26-.35.72-1.06,2.17-1.41,2.89,2.27-1.03,4.54-2.08,6.73-3.28.11,7.97-.09,15.93-.03,23.9-.06,1.73.51,3.37,1.12,4.96.61.85.7,2.75,2.15,2.6,11.32.15,22.65.04,33.96-.02,6.57-1.3,13.29-1.07,19.9-.2,8.69.24,17.4-.16,26.09.13,2.03-.03,4.68.48,5.65-1.86.75-1.16,1.99-2.16,2.01-3.66.09-8.56.32-17.12-.2-25.67,2.38-.05,4.77-.02,7.17.09-.49,1.03-.97,2.08-1.45,3.12,2.2-.96,4.33-2.07,6.45-3.2.47,8.26.14,16.54.15,24.81-.15,3.24,3.23,5.44,6.19,5.31,26.69.1,53.38-.06,80.07.07,1.99.1,3.71-1.22,4.97-2.62.61-3.23.21-6.54.3-9.8-.17-5.93.53-11.86-.1-17.77,2.4.02,4.84-.19,7.22.29-.36.71-1.07,2.13-1.43,2.83,2.34-.97,4.64-2.04,6.81-3.37-.22,8.34-.07,16.67-.12,25.01-.23,1.52.32,2.95,1.45,3.99,5.72,2.23,11.93,1.12,17.85.62,7.27,1.11,14.65.65,21.99.75,1.32.06,2.59-.18,3.8-.74.18,3.01.8,8.55-3.75,8.23-100.02.12-200.05-.04-300.08.08-3.38-.26-6.18,2.79-5.79,6.12-1.68.54-3.4,1.03-5.17.96-46.67.04-93.33,0-140,0-3.22-.04-6.44.22-9.61.72-.02-29.89-.03-59.78.02-89.67v.02Z"/>
    <path class="st44" d="M341.06,177.65c1.9.03,3.83-.57,5.19-1.93,2.91.2,5.81.52,8.73.57,94.64-.08,189.29.05,283.94-.06,4.05-.37,8.04.51,12.06.8,70.34-.12,140.68.07,211.03-.03,1.92.11,3.79-.49,5.7-.65,1.97.83,4.28,2.28,4.47,4.64.77,8.93.55,17.9.41,26.86-.18,16.49.29,32.99-.04,49.48.01,2.23-.56,4.53-1.95,6.3-1.53,1.36-3.69,1.4-5.61,1.45-170.99-.09-341.99-.02-512.99-.06-1.63.04-3.19-.44-4.71-.94-.34-3.18,2.61-5.53,5.64-4.92,134.03-.11,268.07.01,402.1-.01,4.56.2,5.9-4.93,5.34-8.56,7.9.22,15.8.03,23.69.62,6.18-.74,12.43-.1,18.61-.7.35-.41,1.05-1.23,1.4-1.65.71-1.53,1.26-3.16,1.12-4.87-.09-16.68.09-33.37-.11-50.06-.27-3.99-5.15-3.91-8.09-3.65-26.01-.05-52.04.02-78.06.02-2.04-.07-4.21,1.46-4.14,3.64-.25,8.48-.3,16.98-.11,25.47-2.28-1.24-4.58-2.43-6.9-3.56.43,1.09.88,2.19,1.33,3.29-2.32,0-4.63,0-6.94-.03-.14-8.81.19-17.62-.09-26.43l-1.09.06c.74-2.77-3.08-2.53-4.87-2.72-24.04-.03-48.07-.1-72.11.09-3.38.11-6.89-.64-10.18.31-1.61.52-3.12,1.8-2.99,3.65-.23,8.4-.16,16.81,0,25.22-2.21-1.21-4.45-2.37-6.71-3.46.3.81.9,2.44,1.2,3.25-2.38.03-4.75.03-7.11-.02.53-5.7-.09-11.41.1-17.12-.08-3.23.32-6.52-.34-9.71-1.22-1.45-3.11-2.22-4.97-2.15-27.01,0-54.01,0-81.01.04-1.34-.05-2.53.59-3.6,1.31-.92.98-1.77,2.11-1.55,3.55-.11,8.07.33,16.15-.06,24.21-2.06-1.15-4.14-2.28-6.27-3.3.35,1.07.71,2.14,1.08,3.21-2.38.05-4.76.04-7.13-.06.49-7.36.33-14.74.36-22.1.03-1.82-.33-3.61-.99-5.29l-1.69-.66c-27.72.39-55.46.02-83.18.17-1.07-.03-2.13.3-3.03.85-2.4-.46-2.05,2.32-2.16,3.91,0,7.78.14,15.55.04,23.34-2.19-1.18-4.39-2.35-6.63-3.43.45,1.09.91,2.17,1.37,3.26-2.17.02-4.33,0-6.5.04.21-8.64.28-17.29-.02-25.93-.85-2.59-3.55-3.71-6.12-3.46-25.31-.07-50.62.06-75.92-.08-2.58.08-5.83-.65-7.44,1.92-.22.31-.67.92-.89,1.22-1.25,2.19-.77,4.77-.8,7.17.14,6.43-.21,12.88.49,19.29-2.28-1.08-4.5-2.27-6.77-3.35.32.8.96,2.38,1.28,3.18-1.96,0-3.92,0-5.87.04.21-8.4.33-16.81.09-25.2-.38-3.46-4.36-3.78-7.08-3.65-12.53.21-25.07-.26-37.59.13,1.03-2.36,2.25-4.63,3.46-6.9-1.06.45-2.13.88-3.2,1.27-.2-2.58-.21-6.81,3.27-7.05,30.69-.22,61.4-.05,92.1-.08h0Z"/>
  </g>
  <g id="_x23_d77a06ff">
    <path class="st57" d="M26.5,180.93c-.02-3.37,3.81-5.31,6.81-4.22-.16,29.45.03,58.91-.08,88.37-2.85.79-6.93-.7-6.73-4.15-.04-26.66-.04-53.33,0-80Z"/>
  </g>
  <g id="_x23_e1a65aff">
    <path class="st31" d="M199.85,193.1c.82-2.02,3.01-2.92,5.07-2.82,13.26-.03,26.53.05,39.79.14h.72c12.52-.39,25.06.08,37.59-.13,2.72-.13,6.7.19,7.08,3.65.24,8.39.12,16.8-.09,25.2l-.9.4c-.89-8.58.2-17.27-.59-25.84-.3-2.27-2.87-1.96-4.55-2.02-26.32-.04-52.63,0-78.94,0-1.43-.08-2.7.65-4.01,1.08l-1.17.35h0Z"/>
    <path class="st31" d="M714.79,193.94c-.07-2.18,2.1-3.71,4.14-3.64,26.02,0,52.05-.07,78.06-.02,2.94-.26,7.82-.34,8.09,3.65.2,16.69.02,33.38.11,50.06.14,1.71-.41,3.34-1.12,4.87-14.53.98-29.13.19-43.68.41-.33.03-.97.1-1.3.13-10.36.58-20.75.1-31.12.24-3.78-.07-7.6.32-11.35-.23-2.51-1.64-2.06-4.81-2.08-7.39.15-7.37,0-14.74.13-22.1v-.51c-.18-8.49-.13-16.99.12-25.47M716.06,194.91c.1,16.71-.11,33.43.06,50.15-.07,1.08.28,2,1.07,2.77,27.94.52,55.86-.12,83.82.08,2.29.51,3.01-2.1,2.82-3.85.06-16.4.08-32.79.01-49.19.15-2.15-1.83-3.58-3.87-3.26-26.31,0-52.63.04-78.94.03-2.14-.28-5.6.37-4.97,3.27h0Z"/>
    <path class="st31" d="M40.8,200.48c5.63-.65,11.34-.15,17-.18,1.53,1.5.69,3.82.91,5.71-.22,4.03.37,8.14-.38,12.11-.11-4.4-.24-8.8-.6-13.18-.26.38-.77,1.15-1.03,1.53-3.48.47-7.07,1.85-10.53.5-1.35-.63-2.78-.23-4.15.05.02-.75.07-2.23.09-2.97,2.25.94,4.55-.15,6.85-.14,2.65,0,5.3.15,7.95.07-.07-.4-.21-1.21-.28-1.61-4.82-.5-9.69.13-14.51-.41-.33-.37-.99-1.11-1.32-1.48h0Z"/>
  </g>
  <g id="_x23_fee4c7ff">
    <path class="st29" d="M302.57,191.58c1.61-2.57,4.86-1.84,7.44-1.92,25.3.14,50.61,0,75.92.08,2.57-.25,5.27.87,6.12,3.46l-1.4.23c.22,8.68-.31,17.38.51,26.04l-.06.72c-.79,7.94-.27,15.92-.44,23.88.04,1.28-.43,2.48-.84,3.67-27.94.44-55.89.04-83.83.2-1.63.41-2.6-.79-3.18-2.11.69-17.4.15-34.84.28-52.25-.13-.5-.39-1.5-.52-2Z"/>
    <path class="st29" d="M201.02,192.75c1.31-.43,2.58-1.16,4.01-1.08,26.31,0,52.62-.04,78.94,0,1.68.06,4.25-.25,4.55,2.02.79,8.57-.3,17.26.59,25.84l-.05.58c-.8,8.6.23,17.25-.35,25.86-.25,2.27-3.01,2.11-4.7,2.16-25.99-.05-51.98.03-77.96-.06-1.69-.23-4.8.34-4.9-2.11-.21-17.73,0-35.47-.13-53.21h0Z"/>
    <path class="st29" d="M508.41,191.43l1.3.62c10.11-.3,20.23,0,30.35-.26,18.59.36,37.19-.22,55.77.35,1.44,2.02,1.01,4.56,1.08,6.88-.06,14.33-.14,28.66.02,42.99-.19,1.87.45,4.3-1.32,5.61-6.84.58-13.74.1-20.61.26-21.93-.17-43.89.3-65.81-.2-.38-1.86-.63-3.74-.57-5.64.05-14.69,0-29.38.02-44.08-.12-2.17.73-4.48-.23-6.53h0Z"/>
    <path class="st29" d="M612.21,193.33c.39-.36,1.19-1.09,1.58-1.45,25.75.28,51.52,0,77.27.25,3.31-.06,6.67-.18,9.93.61-.11.57-.32,1.71-.42,2.28.11,14.66-.01,29.32.1,43.98-.06,2.92.31,5.96-.84,8.73-6.26.48-12.55.11-18.81.2-22.63-.16-45.25.23-67.87-.15-.99-1.43-1.17-3.13-1.07-4.81.16-16.55-.24-33.1.13-49.64Z"/>
  </g>
  <g id="_x23_d9ae7dff">
    <path class="st34" d="M508.41,191.43c1.07-.72,2.26-1.36,3.6-1.31,27-.03,54-.03,81.01-.04,1.86-.07,3.75.7,4.97,2.15.66,3.19.26,6.48.34,9.71-.19,5.71.43,11.42-.1,17.12v1.21c.63,5.91-.07,11.84.1,17.77-.09,3.26.31,6.57-.3,9.8-1.26,1.4-2.98,2.72-4.97,2.62-26.69-.13-53.38.03-80.07-.07-2.96.13-6.34-2.07-6.19-5.31,0-8.27.32-16.55-.15-24.81.04-.27.11-.81.15-1.08.39-8.06-.05-16.14.06-24.21-.22-1.44.63-2.57,1.55-3.55.96,2.05.11,4.36.23,6.53-.02,14.7.03,29.39-.02,44.08-.06,1.9.19,3.78.57,5.64,21.92.5,43.88.03,65.81.2,6.87-.16,13.77.32,20.61-.26,1.77-1.31,1.13-3.74,1.32-5.61-.16-14.33-.08-28.66-.02-42.99-.07-2.32.36-4.86-1.08-6.88-18.58-.57-37.18,0-55.77-.35-10.12.26-20.24-.04-30.35.26l-1.3-.62Z"/>
  </g>
  <g id="_x23_e0b886ff">
    <path class="st16" d="M613.83,190.42c3.29-.95,6.8-.2,10.18-.31,24.04-.19,48.07-.12,72.11-.09,1.79.19,5.61-.05,4.87,2.72-3.26-.79-6.62-.67-9.93-.61-25.75-.24-51.52.03-77.27-.25l.04-1.46h0Z"/>
  </g>
  <g id="_x23_d0a06aff">
    <path class="st51" d="M610.84,194.07c-.13-1.85,1.38-3.13,2.99-3.65l-.04,1.46c-.39.36-1.19,1.09-1.58,1.45-.37,16.54.03,33.09-.13,49.64-.1,1.68.08,3.38,1.07,4.81,22.62.38,45.24,0,67.87.15,6.26-.09,12.55.28,18.81-.2,1.15-2.77.78-5.81.84-8.73-.11-14.66.01-29.32-.1-43.98.1-.57.31-1.71.42-2.28l1.09-.06c.28,8.81-.05,17.62.09,26.43v1.19c.06,8.25-.01,16.5.05,24.76.12,1.64-.78,3.13-1.84,4.3-14.46-.14-28.93.25-43.38-.16-.3.11-.9.34-1.2.45-1.21.56-2.48.8-3.8.74-7.34-.1-14.72.36-21.99-.75-5.92.5-12.13,1.61-17.85-.62-1.13-1.04-1.68-2.47-1.45-3.99.05-8.34-.1-16.67.12-25.01l.02-.73c-.17-8.41-.24-16.82,0-25.22h-.01Z"/>
  </g>
  <g id="_x23_c68d5cff">
    <path class="st23" d="M301.68,192.8c.22-.3.67-.91.89-1.22.13.5.39,1.5.52,2-.35-.19-1.06-.58-1.41-.78Z"/>
  </g>
  <g id="_x23_d3a571ff">
    <path class="st1" d="M403.79,195.92c.11-1.59-.24-4.37,2.16-3.91-1.38,4.2-.52,8.66-.78,12.98.21,13.32-.01,26.65.16,39.97.18.97.47,1.91.87,2.82,27.94.24,55.9.12,83.85.08,2.31.52,3.45-1.89,3.17-3.85-.2-11.69.18-23.4-.35-35.08-.17-5.98,1.3-12.13-.71-17.94l1.69.66c.66,1.68,1.02,3.47.99,5.29-.03,7.36.13,14.74-.36,22.1-.01.4-.01.81,0,1.22.52,8.55.29,17.11.2,25.67-.02,1.5-1.26,2.5-2.01,3.66-27.23-.09-54.47-.03-81.71-.03-2.03,0-4.04-.3-6.04-.62-.61-1.59-1.18-3.23-1.12-4.96-.06-7.97.14-15.93.03-23.9v-.82c.1-7.79-.04-15.56-.04-23.34h0Z"/>
  </g>
  <g id="_x23_cc9962ff">
    <path class="st62" d="M199.85,193.1l1.17-.35c.14,17.74-.08,35.48.13,53.21.1,2.45,3.21,1.88,4.9,2.11,25.98.09,51.97,0,77.96.06,1.69-.05,4.45.11,4.7-2.16.58-8.61-.45-17.26.35-25.86.24.02.74.07.98.1.3,6.89.07,13.8.14,20.71-.12,2.74.47,5.87-1.48,8.14-1.45.7-3.12.56-4.68.62-26.35-.07-52.71-.03-79.06-.02-1.29-.06-2.58-.17-3.86-.33-2.21-2.66-1.44-6.21-1.55-9.38.29-15.61-.31-31.25.3-46.85h0Z"/>
  </g>
  <g id="_x23_ddb685ff">
    <path class="st48" d="M300.88,199.97c.03-2.4-.45-4.98.8-7.17.35.2,1.06.59,1.41.78-.13,17.41.41,34.85-.28,52.25-.31.28-.91.84-1.22,1.12l-.26.27c-.2-9.04-.97-18.13-.05-27.15l.09-.81c-.7-6.41-.35-12.86-.49-19.29Z"/>
  </g>
  <g id="_x23_ca955cff">
    <path class="st9" d="M390.65,193.43l1.4-.23c.3,8.64.23,17.29.02,25.93l-.91.34c-.82-8.66-.29-17.36-.51-26.04h0Z"/>
  </g>
  <g id="_x23_ee8d0cff">
    <path class="st2" d="M40.8,200.48c.33.37.99,1.11,1.32,1.48v2.09c-.02.74-.07,2.22-.09,2.97,1.37-.28,2.8-.68,4.15-.05,3.46,1.35,7.05-.03,10.53-.5.26-.38.77-1.15,1.03-1.53.36,4.38.49,8.78.6,13.18l-.11.7c-5.82-.53-11.84.52-17.54-.55.11-5.93-.12-11.86.12-17.79h0Z"/>
  </g>
  <g id="_x23_deb178ff">
    <path class="st45" d="M42.12,201.96c4.82.54,9.69-.09,14.51.41.07.4.21,1.21.28,1.61-2.65.08-5.3-.07-7.95-.07-2.3,0-4.6,1.08-6.85.14v-2.09h.01Z"/>
  </g>
  <g id="_x23_110f11ff">
    <path class="st7" d="M397.2,215.83c2.24,1.08,4.44,2.25,6.63,3.43v.82c-2.19,1.2-4.46,2.25-6.73,3.28.35-.72,1.06-2.17,1.41-2.89-2.14-.27-4.29-.25-6.43-.26l-.98-.02.06-.72.91-.34c2.17-.03,4.33-.02,6.5-.04-.46-1.09-.92-2.17-1.37-3.26h0Z"/>
    <path class="st7" d="M605.07,404.2c2.29,1.27,4.61,2.53,6.8,3.99v.39c-2.36,1.24-4.73,2.45-7.12,3.64.49-1.09.98-2.17,1.47-3.25-2.3,0-4.6.04-6.89.08v-1.33h6.89c-.29-.88-.86-2.64-1.15-3.52h0Z"/>
  </g>
  <g id="_x23_09080aff">
    <path class="st4" d="M707.78,215.85c2.32,1.13,4.62,2.32,6.9,3.56v.51c-2.22,1.37-4.57,2.49-6.95,3.51.33-.77.99-2.33,1.32-3.11-2.3-.04-4.59-.05-6.88-.02v-1.19c2.31.04,4.62.04,6.94.03-.45-1.1-.9-2.2-1.33-3.29h0Z"/>
    <path class="st4" d="M656.1,343.06h1.05c-.06,1.73-.06,3.45-.03,5.19-.2,2.52-2.36,4.78-4.98,4.59-44.71,0-89.43-.02-134.15,0-2.96.12-6-.35-8.9.34-1.56,1.51-.79,3.86-.94,5.77.11,1.62-.03,3.27-.76,4.76-.97,1.46-2.5,2.5-4.31,2.41-16.28.14-32.58-.15-48.85.12-3.5.2-3.53,4.06-3.32,6.69.79-.23,2.36-.68,3.14-.91-1.26,2.25-2.45,4.53-3.56,6.86h-.37c-1.3-2.23-2.43-4.53-3.53-6.84.72.25,2.17.75,2.89,1-.07-3.14.53-6.9,4.03-7.91,16.53-.02,33.06.01,49.59-.04,1.75.11,3.28-1.21,3.72-2.86.43-3.1.13-6.26.44-9.37-52.12-.04-104.24-.1-156.36.05-3.07.2-3.98,3.48-3.58,6.06.03,1.96.03,3.91,0,5.88-.05,2.72,0,5.44.09,8.17.77-.24,2.31-.72,3.08-.96-1.21,2.25-2.31,4.57-3.47,6.85-.14,0-.42.01-.56.01-1.03-2.32-2.19-4.58-3.39-6.81,1.03.31,2.06.63,3.1.94.02-1.67.05-3.33.07-4.99-.02-3-.05-5.99-.07-8.98-.75-3.65,1.78-7.69,5.8-7.27,100.04-.06,200.07.02,300.11-.04,3.74.34,4.41-4.08,4.05-6.86-.01-.46-.03-1.39-.03-1.85h0Z"/>
    <path class="st4" d="M397.57,404.28c2.43,1.19,4.85,2.43,7.16,3.85v.39c-2.38,1.15-4.74,2.37-7.12,3.55.34-.79,1-2.36,1.34-3.14-2.33.02-4.64.03-6.96.01l.02-1.2c2.31,0,4.62-.04,6.93-.11-.46-1.12-.91-2.24-1.37-3.35Z"/>
  </g>
  <g id="_x23_d1a167ff">
    <path class="st54" d="M391.1,220.19l.98.02c.28,7.59.08,15.19.19,22.79.12,2.09-.42,4.12-1.2,6.04-4.67.72-9.4.38-14.1.45-23.63-.02-47.26,0-70.89,0-2,.3-3.47-1-4.49-2.54.31-.28.91-.84,1.22-1.12.58,1.32,1.55,2.52,3.18,2.11,27.94-.16,55.89.24,83.83-.2.41-1.19.88-2.39.84-3.67.17-7.96-.35-15.94.44-23.88Z"/>
  </g>
  <g id="_x23_fdf3e7ff">
    <path class="st33" d="M707.73,223.43c2.38-1.02,4.73-2.14,6.94-3.51-.14,7.36.02,14.73-.13,22.1.02,2.58-.43,5.75,2.08,7.39,3.75.55,7.57.16,11.35.23,10.37-.14,20.76.34,31.12-.24-.12,2.54.89,5.76-1.28,7.71-1.05.85-2.45.99-3.74.99-32.92.03-65.84-.01-98.76-.02,1.82-1.68,1.69-4.11,1.65-6.38,4.23-1.37,8.7-.85,13.06-.92,8.68.12,17.37-.36,26.05.1,1.62.21,3.14-.43,4.31-1.52,1.06-1.17,1.96-2.66,1.84-4.3-.06-8.26.01-16.51-.05-24.76,2.29-.03,4.58-.02,6.88.02-.33.78-.99,2.34-1.32,3.11Z"/>
  </g>
  <g id="_x23_e7d5beff">
    <path class="st40" d="M301.33,247.22l.26-.27c1.02,1.54,2.49,2.84,4.49,2.54,23.63,0,47.26-.02,70.89,0,4.7-.07,9.43.27,14.1-.45-.22.58-.66,1.73-.88,2.31-3.7.46-7.44.19-11.15.24-25.24-.02-50.48,0-75.72,0-1.34-1.1-2.24-2.56-1.99-4.36h0Z"/>
  </g>
  <g id="_x23_e7d5c2ff">
    <path class="st47" d="M404.92,248.94c2,.32,4.01.62,6.04.62,27.24,0,54.48-.06,81.71.03-.97,2.34-3.62,1.83-5.65,1.86-8.69-.29-17.4.11-26.09-.13-6.61-.87-13.33-1.1-19.9.2-11.31.06-22.64.17-33.96.02-1.45.15-1.54-1.75-2.15-2.6h0Z"/>
  </g>
  <g id="_x23_e2c9a9ff">
    <path class="st25" d="M657,249.2c14.45.41,28.92.02,43.38.16-1.17,1.09-2.69,1.73-4.31,1.52-8.68-.46-17.37.02-26.05-.1-4.36.07-8.83-.45-13.06.92,0-.62.03-1.88.04-2.5Z"/>
    <path class="st25" d="M760.39,249.27c14.55-.22,29.15.57,43.68-.41-.35.42-1.05,1.24-1.4,1.65-6.18.6-12.43-.04-18.61.7-7.89-.59-15.79-.4-23.69-.62,0-.33.01-.99.02-1.32h0Z"/>
  </g>
  <g id="_x23_f5eaf7ff">
    <path class="st36" d="M191.4,269.26c4.43,1.12,9.03.83,13.56.85,42.01-.05,84.02,0,126.03-.04,4.63,0,9.3-.15,13.91.48.24,2.47.21,4.96.11,7.44l-2.01-.83c1.09,2.3,2.44,4.49,3.3,6.9-13.74.37-27.49-.04-41.23.17-1.82.24-3.66,1.77-3.43,3.77-.09,8.36-.04,16.72-.06,25.08-2.4-1.15-4.75-2.4-7.09-3.64.36,1.11.73,2.22,1.1,3.34-1.98-.01-3.96-.03-5.93.04.27-7.95-.09-15.9.08-23.85.36-2.64-2.01-5.1-4.65-4.77-27.04.02-54.09-.09-81.13.06-2.12-.23-4.34,1.56-4.2,3.78-.17,16.3.07,32.62-.03,48.93-.07,1.71.15,3.41.79,5.01.02.44.04,1.31.05,1.74,2.99,2.33,6.95,1.53,10.46,1.62,24.33,0,48.66-.16,72.98.02,3.15.45,6.64-2.06,5.69-5.48-.07-8.67.1-17.34-.05-26,2.01.04,4.03.04,6.05.06-.29.76-.87,2.27-1.16,3.02,2.47-.8,4.74-2.09,7.03-3.29.03,8.43-.01,16.86.04,25.29-.18,2.35,1.95,4.77,4.4,4.33,27.72-.02,55.43-.09,83.14,0,1.93-1.11,3-3.01,2.89-5.26.05-8.01.07-16.04.06-24.06,2.1-.03,4.2-.05,6.31-.06-.43,1.11-.86,2.21-1.28,3.33,2.3-1.14,4.58-2.31,6.82-3.57.43,8.1.05,16.22.12,24.33-.13,2.29,1.34,5.22,3.88,5.27,27.33-.03,54.66-.02,82,0,2.4.44,4.91-1.71,4.62-4.2.04-8.42.05-16.83-.02-25.25,2.34.12,4.69.1,7.04.12-.39,1.06-.78,2.12-1.16,3.18,2.27-1.04,4.49-2.21,6.73-3.33.35,8.59-.16,17.22.22,25.82-.04,1.72,1.62,2.55,2.66,3.64,27.99-.01,55.97.03,83.96-.04,2.23.15,4.29-1.98,4.17-4.2.17-8.35.05-16.7.01-25.05,2.42-.06,4.84-.05,7.27,0-.45,1.09-.9,2.19-1.33,3.29,2.36-1.09,4.68-2.27,6.9-3.62-.04,9.08-.36,18.18.23,27.24.04.71.12,2.12.16,2.83,4.12,2.43,9.05,1.18,13.57,1.47,10.39.26,20.77-.4,31.15-.26.36,2.78-.31,7.2-4.05,6.86-100.04.06-200.07-.02-300.11.04-4.02-.42-6.55,3.62-5.8,7.27-51.6-.16-103.2.05-154.8-.04-.08-29.92.05-59.85.03-89.78h0Z"/>
    <path class="st36" d="M347.35,271.18c2.83-.71,5.74-1.17,8.67-1.05,29.33-.02,58.66-.11,87.99.03,2.69.7,6.1-.93,8.16,1.4-2.39,1.42-2.49,4.36-2.91,6.8-.73-.28-2.19-.84-2.92-1.12,1.11,2.16,2.2,4.34,3.39,6.48-2.84.77-5.79.38-8.69.48-10.68-.09-21.36.07-32.04-.02-2.22-.19-4.78,1.39-4.83,3.77-.18,8.34.18,16.7-.17,25.04-2.19-1.26-4.41-2.49-6.74-3.47.26.82.78,2.47,1.04,3.29-2.07-.03-4.14-.03-6.2-.01-.11-8.26.2-16.52-.2-24.76.13-2.1-1.82-3.79-3.83-3.8-13.43-.08-26.86.04-40.29-.12l-.32-.79c1.05-2.05,2.16-4.07,3.3-6.07-.84.29-2.53.87-3.37,1.16-.07-2.41-.07-4.83-.04-7.24h0Z"/>
    <path class="st36" d="M705.98,270.88c1.65-1.27,4.01-.64,5.97-.87,51.03.18,102.06.06,153.1.08,2.33-.11,4.82.71,6.24,2.68,1.79,2.72,1.61,6.12,1.59,9.24-.1,4.73.13,9.46-.06,14.18-.76-1.77-1.44-3.78-3.11-4.91-2.52-.79-5.2-.56-7.79-.62-47.32.13-94.64-.09-141.95.1-3.66-.52-6.89,2.6-6.89,6.2-.23,8.99.48,18.01-.24,26.99-.3,2.98,1.51,7.41,5.07,7.11,49.01.01,98.02.03,147.03.01,2.5.21,4.79-.81,6.93-1.99.54,1.55,1.19,3.18.88,4.88-.88,6.42.09,12.9-.39,19.34-.27,2.19-1.26,4.75-3.61,5.38-2.55.62-5.2.36-7.79.35-50.15.02-100.31-.01-150.46-.01-.12-27.62-.04-55.23-.08-82.84.12-2.62-2.02-4.73-4.44-5.3h0Z"/>
    <path class="st36" d="M451.56,273.49c1.83-2.21,4.93-1.23,7.42-1.42,82.03.06,164.07-.01,246.1.02,2.64-.26,4.71,2.43,4.27,4.94.01,27.34-.03,54.69.02,82.03-67.07-.12-134.15.07-201.22-.11.15-1.91-.62-4.26.94-5.77,2.9-.69,5.94-.22,8.9-.34,44.72-.02,89.44,0,134.15,0,2.62.19,4.78-2.07,4.98-4.59.33-1.02.67-2.02,1.04-3.02,3.58-.7,7.2-.04,10.81-.03,7.67.05,15.35-.15,23.02-.05,3.21-.1,6.63.07,9.54-1.54.07-.67.23-2,.31-2.66.74-17.29.22-34.63.28-51.93.42-2.9-2.3-5.23-5.07-4.91-26.67,0-53.35.1-80.02.03-2.57-.32-5.82.87-5.96,3.85-.5,8.33.13,16.68-.01,25.01-2.23-1.26-4.48-2.47-6.78-3.58.26.85.76,2.53,1.02,3.37-2.38.02-4.75,0-7.12-.09-.01-8.54.26-17.1-.12-25.63-.91-3.51-5.31-2.84-8.08-2.97-26.02.28-52.05-.17-78.07.13-2.58-.28-4.84,2.19-4.64,4.71.03,7.89-.15,15.78.13,23.67l-1.06-.02c-1.91-1.1-3.84-2.16-5.81-3.11.31,1.09.63,2.19.96,3.28-2.3.02-4.59,0-6.88.03-.08-8.24.07-16.48-.08-24.72,0-2.33-2.2-4.14-4.47-3.88-13.18-.06-26.37.15-39.54-.19,1.04-2.29,2.23-4.5,3.41-6.71-.78.29-2.35.87-3.13,1.16.16-1.64-.29-3.53.76-4.96h0Z"/>
    <path class="st36" d="M347.32,358.97c-.4-2.58.51-5.86,3.58-6.06,52.12-.15,104.24-.09,156.36-.05-.31,3.11-.01,6.27-.44,9.37-.25-.77-.75-2.31-.99-3.09-52.83-.24-105.67,0-158.51-.17Z"/>
  </g>
  <g id="_x23_733090ff">
    <path class="st42" d="M26.44,275.03c-.04-3.5,3.53-5.47,6.71-4.79,0,29.64.05,59.28-.03,88.91-2.96.73-6.5-.97-6.69-4.26-.05-26.62-.04-53.24.01-79.86h0Z"/>
    <path class="st42" d="M346.66,284.89c.2-.39.6-1.17.8-1.56l.32.79c13.43.16,26.86.04,40.29.12,2.01.01,3.96,1.7,3.83,3.8.4,8.24.09,16.5.2,24.76v1.17c0,8.02-.01,16.05-.06,24.06.11,2.25-.96,4.15-2.89,5.26-27.71-.09-55.42-.02-83.14,0-2.45.44-4.58-1.98-4.4-4.33-.05-8.43,0-16.86-.04-25.29v-.59c.03-8.36-.02-16.72.07-25.08-.23-2,1.61-3.53,3.43-3.77,13.74-.21,27.49.2,41.23-.17l.36.83c-13.99.73-28.04-.73-42.02.48-2.47.7-1.83,3.64-2.02,5.59.06,15.68,0,31.36.04,47.04-.28,1.95,1,4.47,3.28,4.11,27.03-.02,54.06,0,81.09,0,2.92.61,4.49-2.6,4.18-5.06-.2-15.37-.15-30.71-.06-46.09-.09-2.04.15-5.13-2.44-5.7-4.19-.74-8.48.24-12.71-.09-9.77-.76-19.58.65-29.34-.27h0Z"/>
    <path class="st42" d="M449.73,283.72c.16.28.49.84.65,1.12-6.12.63-12.28.25-18.42.07-7.31.44-14.63.2-21.94.16-1.94,0-4.66.63-4.84,2.97-.32,9.31.32,18.64-.34,27.93.48,6.69.3,13.4,0,20.1-.01,2.24.46,5.52,3.12,6.02,27.36.05,54.72-.01,82.08.01,2.01.33,3.54-1.49,3.55-3.36.12-8.34-.05-16.68.07-25.02l.89.1c.07,8.42.06,16.83.02,25.25.29,2.49-2.22,4.64-4.62,4.2-27.34-.02-54.67-.03-82,0-2.54-.05-4.01-2.98-3.88-5.27-.07-8.11.31-16.23-.12-24.33l.05-.68c.35-8.34-.01-16.7.17-25.04.05-2.38,2.61-3.96,4.83-3.77,10.68.09,21.36-.07,32.04.02,2.9-.1,5.85.29,8.69-.48h0Z"/>
    <path class="st42" d="M199.76,288.04c-.14-2.22,2.08-4.01,4.2-3.78,27.04-.15,54.09-.04,81.13-.06,2.64-.33,5.01,2.13,4.65,4.77-.17,7.95.19,15.9-.08,23.85l-.97.08c-.09-8.2.12-16.39-.09-24.58,0-1.35-.82-2.67-2.16-3.02-7.13-.71-14.31-.34-21.45-.12-12.35-.43-24.71-.26-37.06-.24-8.26.73-16.53-.52-24.78.33-1.29.13-2.63,1.27-2.36,2.69-.14,16.7.03,33.4-.06,50.09-.29,1.98.94,4.31,3.21,4.07,27.04-.04,54.09.01,81.13-.03,1.71.3,3.36-1.05,3.49-2.75.28-8.57.06-17.16.15-25.74l.94.28c.15,8.66-.02,17.33.05,26-.79,1.85-2.45,3.56-4.65,3.26-26.7-.03-53.4-.04-80.1,0-1.59.14-3.05-.47-4.43-1.17-.64-1.6-.86-3.3-.79-5.01.1-16.31-.14-32.63.03-48.93h0Z"/>
    <path class="st42" d="M450.52,284c13.17.34,26.36.13,39.54.19,2.27-.26,4.47,1.55,4.47,3.88.15,8.24,0,16.48.08,24.72l-.93.22c-.18-8.32.15-16.67-.27-24.99-.03-1.83-1.73-2.97-3.44-2.83-13.09.01-26.18-.23-39.28-.34l-.17-.85h0Z"/>
    <path class="st42" d="M507.27,288.94c-.2-2.52,2.06-4.99,4.64-4.71,26.02-.3,52.05.15,78.07-.13,2.77.13,7.17-.54,8.08,2.97.38,8.53.11,17.09.12,25.63v1.26c.04,8.35.16,16.7-.01,25.05.12,2.22-1.94,4.35-4.17,4.2-27.99.07-55.97.03-83.96.04-1.04-1.09-2.7-1.92-2.66-3.64-.38-8.6.13-17.23-.22-25.82-.2-.3-.61-.9-.82-1.2l1.06.02c-.28-7.89-.1-15.78-.13-23.67M511.22,285.21c-2.43.16-2.97,2.71-2.85,4.73.01,16.31-.01,32.62-.01,48.93-.19,1.9,1.8,3.54,3.65,3.21,27.36.19,54.73-.11,82.09.05,1.73.28,3.25-1.38,3.05-3.07.06-16.35,0-32.69,0-49.04-.09-1.62.33-3.88-1.63-4.53-5.75-1.24-11.69-.33-17.51-.34-5.98-.84-11.98.51-17.98-.1-16.27.33-32.54-.68-48.82.16h.01Z"/>
    <path class="st42" d="M611.07,287.99c.14-2.98,3.39-4.17,5.96-3.85,26.67.07,53.35-.03,80.02-.03,2.77-.32,5.49,2.01,5.07,4.91-.06,17.3.46,34.64-.28,51.93-1.31,1.35-2.93,2.31-4.89,2.08-13.26.09-26.53.01-39.8.03h-1.05c-13.71,0-27.41.03-41.11.02-1.59.12-2.55-1.44-3.74-2.21-.59-9.06-.27-18.16-.23-27.24l.04-.63c.14-8.33-.49-16.68.01-25.01M614.34,285.31c-1.04.45-2.33,1.3-2.16,2.61-.15,9.03.25,18.07-.38,27.08.86,7.67-.1,15.36.35,23.04-.42,1.81.86,3.95,2.83,3.96,27.69.29,55.39.16,83.09.05,2.16.25,3.51-2.12,3.08-4.03-.26-16.98.32-33.97-.27-50.94-2.33-3.45-7.34-2.03-10.86-1.94-17.67-.99-35.37.67-53.04-.33-7.54.99-15.13-.75-22.64.5h0Z"/>
  </g>
  <g id="_x23_e3cee9ff">
    <path class="st19" d="M33.15,270.24c52.38.09,104.77.13,157.15-.05,0,29.59.07,59.19,0,88.78-3.76.45-7.55.22-11.32.21-48.62-.03-97.25.03-145.87-.03.08-29.63.04-59.27.03-88.91M40.93,294.13c-.65,2.59-.12,5.28-.22,7.93.16,3.6-.43,7.26.22,10.83,5.73-.03,11.45-.09,17.18.02,1.01-2.17.22-4.63.47-6.92-.04-3.93.59-8.06-.59-11.87-5.69-.08-11.37-.09-17.06.01h0Z"/>
  </g>
  <g id="_x23_e1cde8ff">
    <path class="st39" d="M203.15,285.27c8.25-.85,16.52.4,24.78-.33,12.35-.02,24.71-.19,37.06.24,7.14-.22,14.32-.59,21.45.12,1.34.35,2.16,1.67,2.16,3.02.21,8.19,0,16.38.09,24.58l.02.7c-.09,8.58.13,17.17-.15,25.74-.13,1.7-1.78,3.05-3.49,2.75-27.04.04-54.09-.01-81.13.03-2.27.24-3.5-2.09-3.21-4.07.09-16.69-.08-33.39.06-50.09-.27-1.42,1.07-2.56,2.36-2.69h0Z"/>
    <path class="st39" d="M304.64,285.37c13.98-1.21,28.03.25,42.02-.48h0c9.76.92,19.57-.49,29.34.27,4.23.33,8.52-.65,12.71.09,2.59.57,2.35,3.66,2.44,5.7-.09,15.38-.14,30.72.06,46.09.31,2.46-1.26,5.67-4.18,5.06-27.03,0-54.06-.01-81.09,0-2.28.36-3.56-2.16-3.28-4.11-.04-15.68.02-31.36-.04-47.04.19-1.95-.45-4.89,2.02-5.59h0Z"/>
    <path class="st39" d="M405.18,288.04c.18-2.34,2.9-2.97,4.84-2.97,7.31.04,14.63.28,21.94-.16,6.14.18,12.3.56,18.42-.07h.31c13.1.12,26.19.36,39.28.35,1.71-.14,3.41,1,3.44,2.83.42,8.32.09,16.67.27,24.99l-.02.71c-.12,8.34.05,16.68-.07,25.02-.01,1.87-1.54,3.69-3.55,3.36-27.36-.02-54.72.04-82.08-.01-2.66-.5-3.13-3.78-3.12-6.02.3-6.7.48-13.41,0-20.1.66-9.29.02-18.62.34-27.93h0Z"/>
    <path class="st39" d="M614.34,285.31c7.51-1.25,15.1.49,22.64-.5,17.67,1,35.37-.66,53.04.33,3.52-.09,8.53-1.51,10.86,1.94.59,16.97.01,33.96.27,50.94.43,1.91-.92,4.28-3.08,4.03-27.7.11-55.4.24-83.09-.05-1.97-.01-3.25-2.15-2.83-3.96-.45-7.68.51-15.37-.35-23.04.63-9.01.23-18.05.38-27.08-.17-1.31,1.12-2.16,2.16-2.61h0Z"/>
    <path class="st39" d="M285.05,343.14c2.2.3,3.86-1.41,4.65-3.26.95,3.42-2.54,5.93-5.69,5.48-24.32-.18-48.65-.02-72.98-.02-3.51-.09-7.47.71-10.46-1.62,0-.43-.03-1.3-.05-1.74,1.38.7,2.84,1.31,4.43,1.17,26.7-.05,53.4-.04,80.1,0h0Z"/>
  </g>
  <g id="_x23_e2cde8ff">
    <path class="st3" d="M511.22,285.21c16.28-.84,32.55.17,48.82-.16,6,.61,12-.74,17.98.1,5.82.01,11.76-.9,17.51.34,1.96.65,1.54,2.91,1.63,4.53,0,16.35.05,32.69,0,49.04.2,1.69-1.32,3.35-3.05,3.07-27.36-.16-54.73.14-82.09-.05-1.85.33-3.84-1.31-3.65-3.21,0-16.31.02-32.62.01-48.93-.12-2.02.42-4.57,2.85-4.73h-.01Z"/>
    <path class="st3" d="M713.08,296.96c0-3.6,3.23-6.72,6.89-6.2,47.31-.19,94.63.03,141.95-.1,2.59.06,5.27-.17,7.79.62,1.67,1.13,2.35,3.14,3.11,4.91.16,7.6-.01,15.21.06,22.81-.06,3.37.36,6.89-1.01,10.08-2.14,1.18-4.43,2.2-6.93,1.99-49.01.02-98.02,0-147.03-.01-3.56.3-5.37-4.13-5.07-7.11.72-8.98,0-18,.24-26.99h0Z"/>
  </g>
  <g id="_x23_9550bbff">
    <path class="st8" d="M40.93,294.13c5.69-.1,11.37-.09,17.06-.01,1.18,3.81.55,7.94.59,11.87-.25,2.29.54,4.75-.47,6.92-5.73-.11-11.45-.05-17.18-.02-.65-3.57-.06-7.23-.22-10.83.1-2.65-.43-5.34.22-7.93M41.96,295.71c-.05,1.99.06,3.98.35,5.96,4.8-.73,9.71.23,14.48-.82.44-1.69.69-3.4.24-5.11-5.01-.41-10.05-.28-15.07-.03Z"/>
  </g>
  <g id="_x23_ad73c3ff">
    <path class="st58" d="M41.96,295.71c5.02-.25,10.06-.38,15.07.03.45,1.71.2,3.42-.24,5.11-4.77,1.05-9.68.09-14.48.82-.29-1.98-.4-3.97-.35-5.96Z"/>
  </g>
  <g id="_x23_070507ff">
    <path class="st28" d="M294.49,309.44c2.34,1.24,4.69,2.49,7.09,3.64v.59c-2.3,1.2-4.57,2.49-7.04,3.29.29-.75.87-2.26,1.16-3.02-2.02-.02-4.04-.02-6.05-.06l-.94-.28-.02-.7.97-.08c1.97-.07,3.95-.05,5.93-.04-.37-1.12-.74-2.23-1.1-3.34h0Z"/>
  </g>
  <g id="_x23_d8c9ddff">
    <path class="st30" d="M611.25,340.87c1.19.77,2.15,2.33,3.74,2.21,13.7.01,27.4-.02,41.11-.02,0,.46.02,1.39.03,1.85-10.38-.14-20.76.52-31.15.26-4.52-.29-9.45.96-13.57-1.47-.04-.71-.12-2.12-.16-2.83h0Z"/>
  </g>
  <g id="_x23_d7c8ddff">
    <path class="st6" d="M696.95,343.03c1.96.23,3.58-.73,4.89-2.08-.08.66-.24,1.99-.31,2.66-2.91,1.61-6.33,1.44-9.54,1.54-7.67-.1-15.35.1-23.02.05-3.61-.01-7.23-.67-10.81.03-.37,1-.71,2-1.04,3.02-.03-1.74-.03-3.46.03-5.19,13.27-.02,26.54.06,39.8-.03h0Z"/>
  </g>
  <g id="_x23_eef7efff">
    <path class="st35" d="M705.03,366.67c2.36,0,4.42-1.51,5.31-3.68,1.1.75,2.31,1.12,3.64,1.11,50.33-.07,100.67,0,151-.03,3.43-.41,6.75,1.92,7.67,5.22.28,21.22-.05,42.51.27,63.75-.64,7.07,2.08,15.78-4.17,21.08-.9-.49-1.81-.88-2.76-1.18-48.99.41-97.99.04-146.98.2-13.92-.04-27.84.14-41.76-.11-.13-1.25.35-2.79-.93-3.6-.03.68-.07,2.03-.09,2.7-3.54,1.58-7.47.96-11.22,1-88.23-.04-176.49.04-264.71,0-.13.7-.41,2.11-.54,2.81h-.65c0-2.05,0-4.07-.02-6.09l-.99-.09c0,.82-.01,2.45-.01,3.26-55.03.28-110.07.03-165.11.13-13.88-.13-27.76.18-41.64-.12,0-29.67-.04-59.33.02-89,47.89.1,95.77.04,143.66.05,2.55.02,5.14-.2,7.67.27,1.86.36,2.55,2.34,3.55,3.71-.02,1.66-.05,3.32-.07,4.99-1.04-.31-2.07-.63-3.1-.94,1.2,2.23,2.36,4.49,3.39,6.81-13.52,0-27.05.04-40.57.02-2.26-.25-4.62,1.71-4.34,4.08.09,8.38.04,16.76-.04,25.14-2.36-1.45-4.84-2.68-7.26-4,.48,1.17.96,2.34,1.45,3.52-2.12.05-4.24.06-6.35.04.17-8.2.02-16.41.13-24.61.2-2.89-2.91-4.54-5.46-4.18-25.35,0-50.71,0-76.06.01-2.7-.03-5.43.11-7.98,1.1-.73,5.27-.26,10.6-.36,15.9-.07,12.95.12,25.9-.1,38.85-1.54,3.3,2.45,5.97,5.41,5.82,26.7.13,53.42-.05,80.12.07,2.13.25,3.48-1.57,4.73-2.96-.07-.73-.22-2.18-.29-2.91.01-8.61.05-17.21-.16-25.82,2.12-.06,4.25-.08,6.37-.07-.33.8-.99,2.4-1.32,3.2,2.35-1.24,4.73-2.43,7.14-3.56.1,8.43.07,16.86.05,25.29-.28,2.43,2.12,4.44,4.44,4.37,26.98.1,53.97.01,80.95.05,2.94.36,5.48-2.25,5.18-5.17-.07-8.05.13-16.11-.15-24.16,2.32.02,4.63.01,6.96-.01-.34.78-1,2.35-1.34,3.14,2.38-1.18,4.74-2.4,7.13-3.55-.05,8.4.18,16.8-.11,25.2-.87,2.33-.01,5.21,2.3,6.33,2.23.8,4.67.59,7,.68,26.6-.16,53.21-.02,79.8-.1.24-.33.72-.99.96-1.32-.43-.3-1.3-.91-1.73-1.21,1.17-1.15,2.81-2.25,2.64-4.11,0-8.38-.07-16.77-.05-25.15,2.29.09,4.58.11,6.88.12-.49,1.07-.98,2.13-1.45,3.21,2.3-1.19,4.6-2.38,6.94-3.49,0,8.11-.04,16.23-.01,24.34-.07,2.34,1.44,5.21,4.05,5.25,28.08.17,56.18-.06,84.26.12.97-.81,1.93-1.62,2.91-2.41.49-8.96.22-17.96.2-26.93,2.29-.04,4.59-.08,6.89-.08-.49,1.08-.98,2.16-1.47,3.25,2.39-1.19,4.76-2.4,7.13-3.64.08,8.47-.14,16.95.13,25.41.06,2.59,2.43,4.45,4.95,4.26,26.7.04,53.4-.03,80.11.04,1.76.16,3.41-.54,5.05-1.12.82-1.24,1.42-2.62,1.27-4.14.03-16.63.01-33.26-.04-49.88.14-2.33-2.02-4.46-4.36-4.23-10.38-.02-20.78-.04-31.15.24.02-3.05-.16-6.1.1-9.13.63-1.74,1.97-3.5,4.05-3.27,11.01-.17,22.02-.03,33.04-.09M717.33,385.43c-2.05,1.11-3.63,3.21-3.51,5.63-.37,10.32-.12,20.65-.16,30.97-.21,3.97,3.66,6.71,7.4,6.23,47.98.17,95.96.04,143.94.08,3.45.31,7.58-2.49,6.93-6.29-.11-10.36.08-20.73-.08-31.09.03-2.77-2.1-5.48-4.9-5.76-5.97-.48-11.96-.12-17.94-.13-31-.03-61.99.03-92.98-.03-12.9.27-25.84-.38-38.7.39Z"/>
  </g>
  <g id="_x23_378c48ff">
    <path class="st38" d="M26.47,368.9c-.26-3.59,3.67-5.22,6.71-4.6,0,29.63.04,59.25,0,88.88-2.83.67-6.67-.9-6.68-4.19-.08-26.7-.03-53.4-.02-80.09Z"/>
    <path class="st38" d="M450.12,378.87h.37c13.52.16,27.04-.03,40.55.12,2.3-.28,4.66,1.54,4.49,3.94.07,8.29,0,16.58.05,24.87l-.8.2c-.21-8.65.03-17.31-.28-25.95-.55-1.97-2.76-2.37-4.5-2.26-26.68.02-53.36,0-80.04,0-1.92-.29-4.31.91-4.11,3.13-.09,16.69-.03,33.4-.02,50.1-.23,1.9.94,4.24,3.18,3.77,28.16-.1,56.34.27,84.49-.19.68-1.19,1.19-2.49,1.15-3.88.18-7.97-.11-15.95.16-23.92l.74.03c-.02,8.38.05,16.77.05,25.15.17,1.86-1.47,2.96-2.64,4.11-27.68.17-55.36.02-83.04.08-2.69.25-5.14-1.73-5.29-4.46.29-8.4.06-16.8.11-25.2v-.39c.1-8.38.07-16.76.13-25.13-.12-2.23,1.86-4.16,4.1-3.98,13.71-.24,27.43.05,41.15-.15h0Z"/>
    <path class="st38" d="M199.98,380.04c2.55-.99,5.28-1.13,7.98-1.1,25.35-.01,50.71-.01,76.06-.01,2.55-.36,5.66,1.29,5.46,4.18-.11,8.2.04,16.41-.13,24.61-.02.42-.02.84-.02,1.27.21,8.61.17,17.21.16,25.82-.93,2.16-3.09,3.69-5.5,3.4-25-.04-50-.02-75-.03-3.34-.08-8.11.59-9.47-3.39.22-12.95.03-25.9.1-38.85.1-5.3-.37-10.63.36-15.9M200.87,380.92c-.45,2.33-.29,4.7-.29,7.06v45.05c-.25,1.97,1.21,4.22,3.4,3.77,27.01,0,54.02.01,81.03-.02,2.2.36,3.88-1.87,3.47-3.94.01-16.59.11-33.17-.1-49.76.41-2.5-2.37-3.52-4.37-3.29-25.68.02-51.35-.01-77.03,0-2.08.04-4.31-.11-6.12,1.12h0Z"/>
    <path class="st38" d="M301.55,383.02c-.28-2.37,2.08-4.33,4.34-4.08,13.52.02,27.05-.02,40.57-.02.14,0,.42-.01.56-.01,13.66.12,27.33-.12,40.98.13,3.23-.09,4.26,3.39,4.12,6.03-.04,7.56.13,15.12-.11,22.67l-.02,1.2c.28,8.05.08,16.11.15,24.16.3,2.92-2.24,5.53-5.18,5.17-26.98-.04-53.97.05-80.95-.05-2.32.07-4.72-1.94-4.44-4.37.02-8.43.05-16.86-.05-25.29v-.4c.07-8.38.12-16.76.03-25.14M304.25,380.21c-1.69.48-1.78,2.36-1.74,3.83.06,16.62-.03,33.25.11,49.87-.2,1.8,1.63,3.23,3.34,2.9,27.32-.02,54.64.03,81.96-.02,2.01.32,3.43-1.89,3.3-3.67-.05-16.4.06-32.81-.06-49.21.06-2.3-1.67-4.51-4.15-4.1-27.35.01-54.7-.07-82.05.04l-.71.36h0Z"/>
    <path class="st38" d="M611.99,383.01c.06-2.52,2.5-4.43,4.97-4.05,16.6.05,33.22-.25,49.82.14.27,0,.8.04,1.06.06,10.37-.28,20.77-.26,31.15-.24,2.34-.23,4.5,1.9,4.36,4.23.05,16.62.07,33.25.04,49.88.15,1.52-.45,2.9-1.27,4.14-1.64.58-3.29,1.28-5.05,1.12-26.71-.07-53.41,0-80.11-.04-2.52.19-4.89-1.67-4.95-4.26-.27-8.46-.05-16.94-.13-25.41v-.39c.15-8.4-.19-16.8.11-25.18M614.92,379.97c-1.32.9-2.35,2.32-2.03,4,.09,15.34.04,30.68-.05,46.02-.1,2.38-.53,6,2.46,6.8,12.24.13,24.5-.12,36.74.09,1.96.47,3.95.18,5.93-.06,13.01-.02,26.01-.02,39.02,0,1.42-.13,3.03.29,4.34-.47,1.36-1.04.98-2.86,1.08-4.33.03-15.98.02-31.97.01-47.95.3-2.03-1.13-4.47-3.37-4.26-28.04.12-56.09-.23-84.13.16h0Z"/>
  </g>
  <g id="_x23_d2e8d5ff">
    <path class="st60" d="M33.18,364.3c52.38.01,104.76.13,157.14-.08.06,29.54.03,59.08,0,88.62-4.75.55-9.54.39-14.31.41-47.61-.09-95.23.09-142.84-.07.05-29.63,0-59.25,0-88.88M41.29,388.41l-.8.48c0,1.2,0,2.41-.02,3.62.12,4.17,0,8.34.09,12.51-.52,1.98,1.93,1.9,3.16,1.82,4.94.05,9.92.37,14.84-.11.04-5.81.1-11.63-.02-17.44-.2-.23-.6-.7-.8-.94-5.48-.08-10.98-.16-16.45.06h0Z"/>
  </g>
  <g id="_x23_edf7efff">
    <path class="st49" d="M347.32,364.85c4.8-1.24,9.77-.65,14.67-.76,29.37-.07,58.75.05,88.12-.03,1.2.09,2.33.45,3.4,1.07-3.5,1.01-4.1,4.77-4.03,7.91-.72-.25-2.17-.75-2.89-1,1.1,2.31,2.23,4.61,3.53,6.83-13.72.2-27.44-.09-41.15.15-2.24-.18-4.22,1.75-4.1,3.98-.06,8.37-.03,16.75-.14,25.13-2.31-1.42-4.73-2.66-7.16-3.85.46,1.11.91,2.23,1.37,3.35-2.31.07-4.62.1-6.93.11.24-7.55.07-15.11.11-22.67.14-2.64-.89-6.12-4.12-6.03-13.65-.25-27.32-.01-40.98-.13,1.16-2.28,2.26-4.6,3.47-6.85-.77.24-2.31.72-3.08.96-.09-2.73-.14-5.45-.09-8.17h0Z"/>
    <path class="st49" d="M503.08,366.12c1.81.09,3.34-.95,4.31-2.41,9.17.8,18.39.23,27.58.4,56.32-.03,112.65-.08,168.97.14.62.32,1.84.96,2.45,1.28-11.13.31-22.28-.04-33.42.07-1.63.05-3.59.26-4.57,1.75-2.62,3.33-1.19,7.87-1.62,11.75-16.6-.39-33.22-.09-49.82-.14-2.47-.38-4.91,1.53-4.97,4.05-.3,8.38.04,16.78-.12,25.18-2.19-1.46-4.51-2.72-6.8-3.99.29.88.86,2.64,1.15,3.52h-6.9c.06-8.23.18-16.47.01-24.69.19-2.33-2.01-4.46-4.33-4.11-27.68,0-55.36-.03-83.04.03-2.63-.11-4.11,2.75-3.93,5.07-.2,8.01-.05,16.03-.12,24.04-2.18-1.4-4.48-2.6-6.72-3.89.29.88.86,2.66,1.15,3.54-2.26.01-4.51-.02-6.76.09-.05-8.29.02-16.58-.05-24.87.17-2.4-2.19-4.22-4.49-3.94-13.51-.15-27.03.04-40.55-.11,1.11-2.33,2.3-4.61,3.56-6.86-.78.23-2.35.68-3.14.91-.21-2.63-.18-6.49,3.32-6.69,16.27-.27,32.57.02,48.85-.12h0Z"/>
    <path class="st49" d="M732.28,410.63c.46-.11,1.37-.31,1.83-.42-2.14,2.86-3.39,6.31-5.76,8.98-1.17-1.72-2.29-3.46-3.28-5.27,1.66.2,2.58,1.63,3.62,2.79,1.15-2.06,2.26-4.14,3.59-6.08h0Z"/>
  </g>
  <g id="_x23_5f9a69ff">
    <path class="st50" d="M508.03,384.02c-.18-2.32,1.3-5.18,3.93-5.07,27.68-.06,55.36-.03,83.04-.03,2.32-.35,4.52,1.78,4.33,4.11.17,8.22.05,16.46-.01,24.69v1.33c.03,8.97.3,17.97-.19,26.93-.98.79-1.94,1.6-2.91,2.41-28.08-.18-56.18.05-84.26-.12-2.61-.04-4.12-2.91-4.05-5.25-.03-8.11.01-16.23.01-24.34v-.62c.06-8.01-.09-16.03.11-24.04M511.1,380.09c-2.39,1.53-1.78,4.55-1.75,6.94.03,15.33-.03,30.66.03,45.99-.29,2.04,1.43,4.19,3.6,3.73h82.02c1.44.03,3.36-.98,2.97-2.7-.03-16.7.13-33.4.05-50.1.37-1.86-.82-4.29-3-3.94-27.97.03-55.95-.12-83.92.08h0Z"/>
  </g>
  <g id="_x23_d0e7d3ff">
    <path class="st27" d="M200.87,380.92c1.81-1.23,4.04-1.08,6.12-1.12,25.68-.02,51.35.01,77.03,0,2-.23,4.78.79,4.37,3.29.21,16.59.11,33.17.1,49.76.41,2.07-1.27,4.3-3.47,3.94-27.01.03-54.02.01-81.03.02-2.19.45-3.65-1.8-3.4-3.77-.02-15.01,0-30.03,0-45.05,0-2.36-.16-4.73.29-7.06h0Z"/>
  </g>
  <g id="_x23_cee5d1ff">
    <path class="st18" d="M304.25,380.21l.71-.36c27.35-.11,54.7-.03,82.05-.04,2.48-.41,4.21,1.8,4.15,4.1.12,16.4.01,32.81.06,49.21.13,1.78-1.29,3.99-3.3,3.67-27.32.05-54.64,0-81.96.02-1.71.33-3.54-1.1-3.34-2.9-.14-16.62-.05-33.25-.11-49.87-.04-1.47.05-3.35,1.74-3.83h0Z"/>
    <path class="st18" d="M405.85,382.93c-.2-2.22,2.19-3.42,4.11-3.13,26.68,0,53.36.01,80.04,0,1.74-.11,3.95.29,4.5,2.26.31,8.64.07,17.3.28,25.95l.03.81c-.27,7.97.02,15.95-.16,23.92.04,1.39-.47,2.69-1.15,3.88-28.15.46-56.33.09-84.49.19-2.24.47-3.41-1.87-3.18-3.77,0-16.7-.07-33.41.02-50.1h0Z"/>
    <path class="st18" d="M511.1,380.09c27.97-.2,55.95-.05,83.92-.08,2.18-.35,3.37,2.08,3,3.94.08,16.7-.08,33.4-.05,50.1.39,1.72-1.53,2.73-2.97,2.7h-82.02c-2.17.46-3.89-1.69-3.6-3.73-.06-15.33,0-30.66-.03-45.99-.03-2.39-.64-5.41,1.75-6.94h0Z"/>
    <path class="st18" d="M614.92,379.97c28.04-.39,56.09-.04,84.13-.16,2.24-.21,3.67,2.23,3.37,4.26.01,15.98.02,31.97-.01,47.95-.1,1.47.28,3.29-1.08,4.33-1.31.76-2.92.34-4.34.47-13.01-.02-26.01-.02-39.02,0-1.98.24-3.97.53-5.93.06-12.24-.21-24.5.04-36.74-.09-2.99-.8-2.56-4.42-2.46-6.8.09-15.34.14-30.68.05-46.02-.32-1.68.71-3.1,2.03-4h0Z"/>
    <path class="st18" d="M717.33,385.43c12.86-.77,25.8-.12,38.7-.39,30.99.06,61.98,0,92.98.03,5.98,0,11.97-.35,17.94.13,2.8.28,4.93,2.99,4.9,5.76.16,10.36-.03,20.73.08,31.09.65,3.8-3.48,6.6-6.93,6.29-47.98-.04-95.96.09-143.94-.08-3.74.48-7.61-2.26-7.4-6.23.04-10.32-.21-20.65.16-30.97-.12-2.42,1.46-4.52,3.51-5.63M723.12,408.38l.18.38c-1.28,2.26-.57,4.88-.75,7.33.02,1.75-.59,4.35,1.6,5.11,3.55.65,7.22.22,10.82.2.3-.36.9-1.08,1.2-1.44.39-3.65.22-7.4-.07-11.07-.78-.87-1.83-1.44-3.02-1.24-3.32.21-6.79-.55-9.96.73h0Z"/>
  </g>
  <g id="_x23_4ca952ff">
    <path class="st59" d="M41.29,388.41c5.47-.22,10.97-.14,16.45-.06.2.24.6.71.8.94.12,5.81.06,11.63.02,17.44-4.92.48-9.9.16-14.84.11,4.66-1.16,9.46.02,14.16-.71.26-4.72-.18-9.43-.03-14.15-.68,1.02-1.39,2.25-2.83,2.17-4.14.42-8.33-.07-12.46.55-.52-.55-1.57-1.64-2.09-2.19.02-1.21.02-2.42.02-3.62,0,0,.8-.48.8-.48Z"/>
  </g>
  <g id="_x23_20ab25ff">
    <path class="st22" d="M55.02,394.15c1.44.08,2.15-1.15,2.83-2.17-.15,4.72.29,9.43.03,14.15-4.7.73-9.5-.45-14.16.71-1.23.08-3.68.16-3.16-1.82-.09-4.17.03-8.34-.09-12.51.52.55,1.57,1.64,2.09,2.19,4.13-.62,8.32-.13,12.46-.55h0Z"/>
    <path class="st22" d="M723.3,408.76c.24.43.72,1.28.96,1.7,2.67.07,5.34.16,8.02.17-1.33,1.94-2.44,4.02-3.59,6.08-1.04-1.16-1.96-2.59-3.62-2.79.99,1.81,2.11,3.55,3.28,5.27,2.37-2.67,3.62-6.12,5.76-8.98.5-.33,1.5-.99,1.99-1.32.29,3.67.46,7.42.07,11.07-.3.36-.9,1.08-1.2,1.44-3.6.02-7.27.45-10.82-.2-2.19-.76-1.58-3.36-1.6-5.11.18-2.45-.53-5.07.75-7.33h0Z"/>
  </g>
  <g id="_x23_69a06fff">
    <path class="st43" d="M723.12,408.38c3.17-1.28,6.64-.52,9.96-.73,1.19-.2,2.24.37,3.02,1.24-.49.33-1.49.99-1.99,1.32-.46.11-1.37.31-1.83.42-2.68-.01-5.35-.1-8.02-.17-.24-.42-.72-1.27-.96-1.7l-.18-.38h0Z"/>
  </g>
  <g id="_x23_e1e1deff">
    <path class="st64" d="M406.93,440.05c-2.31-1.12-3.17-4-2.3-6.33.15,2.73,2.6,4.71,5.29,4.46,27.68-.06,55.36.09,83.04-.08.43.3,1.3.91,1.73,1.21-.24.33-.72.99-.96,1.32-26.59.08-53.2-.06-79.8.1-2.33-.09-4.77.12-7-.68h0Z"/>
    <path class="st64" d="M204.93,440.61c-2.96.15-6.95-2.52-5.41-5.82,1.36,3.98,6.13,3.31,9.47,3.39,25,.01,50,0,75,.03,2.41.29,4.57-1.24,5.5-3.4.07.73.22,2.18.29,2.91-1.25,1.39-2.6,3.21-4.73,2.96-26.7-.12-53.42.06-80.12-.07Z"/>
  </g>
  <g class="st12">
    <text class="st10" transform="translate(161.26 38.47)"><tspan x="0" y="0">Roles and Responsibilities in Legal SFT Data Factory</tspan></text>
  </g>
  <g class="st12">
    <text class="st11" transform="translate(241.28 75.92)"><tspan x="0" y="0">Seed Processing</tspan></text>
  </g>
  <g class="st12">
    <text class="st11" transform="translate(455.7 76.02)"><tspan x="0" y="0">Supervision Construction</tspan></text>
  </g>
  <g class="st12">
    <text class="st11" transform="translate(730.16 75.81)"><tspan x="0" y="0">QA &amp; Delivery</tspan></text>
  </g>
  <g class="st12">
    <text class="st11" transform="translate(213.37 130.94)"><tspan x="0" y="0">define task </tspan></text>
    <text class="st11" transform="translate(215.03 148.94)"><tspan x="0" y="0">boundaries</tspan></text>
  </g>
  <g class="st12">
    <text class="st11" transform="translate(333.4 130.83)"><tspan x="0" y="0">task</tspan></text>
    <text class="st11" transform="translate(313.61 148.83)"><tspan x="0" y="0" xml:space="preserve"> taxonomy</tspan></text>
  </g>
  <g class="st12">
    <text class="st11" transform="translate(427.99 131.04)"><tspan x="0" y="0">legal</tspan></text>
    <text class="st11" transform="translate(413.63 149.04)"><tspan x="0" y="0" xml:space="preserve"> coverage</tspan></text>
  </g>
  <g class="st12">
    <text class="st11" transform="translate(538.62 131.15)"><tspan x="0" y="0">risk </tspan></text>
    <text class="st11" transform="translate(511.76 149.15)"><tspan x="0" y="0">identification</tspan></text>
  </g>
  <g class="st12">
    <text class="st15" transform="translate(63.56 132.5)"><tspan x="0" y="0">Domain Design</tspan></text>
  </g>
  <g class="st12">
    <text class="st15" transform="translate(91.04 216.64)"><tspan x="0" y="0">Data </tspan></text>
    <text class="st15" transform="translate(64.78 238.24)"><tspan x="0" y="0">Engineering</tspan></text>
  </g>
  <g class="st12">
    <text class="st11" transform="translate(232.82 223.36)"><tspan x="0" y="0">PDF </tspan></text>
    <text class="st11" transform="translate(226.37 241.36)"><tspan x="0" y="0">parsing</tspan></text>
  </g>
  <g class="st12">
    <text class="st11" transform="translate(317.67 223.47)"><tspan x="0" y="0">cleaning</tspan></text>
    <text class="st11" transform="translate(326.62 241.47)"><tspan x="0" y="0" xml:space="preserve"> rules</tspan></text>
  </g>
  <g class="st12">
    <text class="st11" transform="translate(422.38 223.36)"><tspan x="0" y="0">chunking </tspan></text>
    <text class="st11" transform="translate(437.17 241.36)"><tspan x="0" y="0">logic</tspan></text>
  </g>
  <g class="st12">
    <text class="st11" transform="translate(527.94 223.36)"><tspan x="0" y="0">schema </tspan></text>
    <text class="st11" transform="translate(532.72 241.36)"><tspan x="0" y="0">design</tspan></text>
  </g>
  <g class="st12">
    <text class="st11" transform="translate(621.17 223.36)"><tspan x="0" y="0">storage &amp; </tspan></text>
    <text class="st11" transform="translate(627.82 241.36)"><tspan x="0" y="0">splitting</tspan></text>
  </g>
  <g class="st12">
    <text class="st11" transform="translate(726.36 223.68)"><tspan x="0" y="0">validation</tspan></text>
  </g>
  <g class="st12">
    <text class="st14" transform="translate(681.93 120.3)"><tspan x="0" y="0">Responsibility highlight:</tspan></text>
  </g>
  <g class="st12">
    <text class="st11" transform="translate(693.73 139.91)"><tspan x="0" y="0">task definition → Domain</tspan></text>
  </g>
  <g class="st12">
    <text class="st11" transform="translate(645.18 187.42)"><tspan x="0" y="0">single-person pipeline → high risk</tspan></text>
  </g>
  <g class="st12">
    <text class="st15" transform="translate(67.02 310.24)"><tspan x="0" y="0">Generation &amp; </tspan></text>
    <text class="st15" transform="translate(68.52 331.84)"><tspan x="0" y="0">Orchestration</tspan></text>
  </g>
  <g class="st12">
    <text class="st11" transform="translate(222.81 317.25)"><tspan x="0" y="0">prompt</tspan></text>
    <text class="st11" transform="translate(213.86 335.25)"><tspan x="0" y="0" xml:space="preserve"> templates</tspan></text>
  </g>
  <g class="st12">
    <text class="st11" transform="translate(309.84 317.36)"><tspan x="0" y="0">Self-Instruct</tspan></text>
    <text class="st11" transform="translate(313.8 335.36)"><tspan x="0" y="0" xml:space="preserve"> generation</tspan></text>
  </g>
  <g class="st12">
    <text class="st11" transform="translate(438.21 316.96)"><tspan x="0" y="0">task </tspan></text>
    <text class="st11" transform="translate(424.67 334.96)"><tspan x="0" y="0">sampling</tspan></text>
  </g>
  <g class="st12">
    <text class="st11" transform="translate(533.63 317.46)"><tspan x="0" y="0">batch </tspan></text>
    <text class="st11" transform="translate(520.09 335.46)"><tspan x="0" y="0">generation</tspan></text>
  </g>
  <g class="st12">
    <text class="st11" transform="translate(642.64 301.67)"><tspan x="0" y="0">post-</tspan></text>
    <text class="st11" transform="translate(625.56 319.67)"><tspan x="0" y="0">processing</tspan></text>
    <text class="st11" transform="translate(633.9 337.67)"><tspan x="0" y="0" xml:space="preserve"> &amp; retry</tspan></text>
  </g>
  <g class="st12">
    <text class="st14" transform="translate(714.24 303.48)"><tspan x="0" y="0">Responsibility highlight:</tspan></text>
  </g>
  <g class="st12">
    <text class="st13" transform="translate(84.18 404.34)"><tspan x="0" y="0">QA &amp; </tspan></text>
    <text class="st13" transform="translate(64.73 428.34)"><tspan x="0" y="0">Operations</tspan></text>
  </g>
  <g class="st12">
    <text class="st11" transform="translate(224.78 413.45)"><tspan x="0" y="0">review</tspan></text>
    <text class="st11" transform="translate(215.4 431.45)"><tspan x="0" y="0" xml:space="preserve"> protocols</tspan></text>
  </g>
  <g class="st12">
    <text class="st11" transform="translate(317.96 410.21)"><tspan x="0" y="0">sampling </tspan></text>
    <text class="st11" transform="translate(326.93 428.21)"><tspan x="0" y="0">checks</tspan></text>
  </g>
  <g class="st12">
    <text class="st11" transform="translate(432.21 410.93)"><tspan x="0" y="0">error </tspan></text>
    <text class="st11" transform="translate(424.5 428.93)"><tspan x="0" y="0">labeling</tspan></text>
  </g>
  <g class="st12">
    <text class="st11" transform="translate(527.17 410.63)"><tspan x="0" y="0">rework</tspan></text>
    <text class="st11" transform="translate(522.38 428.63)"><tspan x="0" y="0" xml:space="preserve"> pipeline</tspan></text>
  </g>
  <g class="st12">
    <text class="st11" transform="translate(625.29 410.74)"><tspan x="0" y="0">escalation </tspan></text>
    <text class="st11" transform="translate(641.32 428.74)"><tspan x="0" y="0">paths</tspan></text>
  </g>
  <g class="st12">
    <text class="st14" transform="translate(717.04 400.31)"><tspan x="0" y="0">Responsibility highlight:</tspan></text>
  </g>
  <g class="st12">
    <text class="st11" transform="translate(241.28 478.28)"><tspan x="0" y="0">Seed Processing</tspan></text>
  </g>
  <g class="st12">
    <text class="st11" transform="translate(455.54 474.93)"><tspan x="0" y="0">Supervision Construction</tspan></text>
  </g>
  <g class="st12">
    <text class="st11" transform="translate(725.6 475.04)"><tspan x="0" y="0">QA &amp; Delivery</tspan></text>
  </g>
  <g class="st12">
    <text class="st11" transform="translate(734.12 419.19)"><tspan x="0" y="0" xml:space="preserve"> final approval → QA</tspan></text>
  </g>
  <g class="st12">
    <text class="st11" transform="translate(712.84 322.17)"><tspan x="0" y="0">generation→Orchestration</tspan></text>
  </g>
</svg>