<?xml version="1.0" encoding="UTF-8"?>
<svg id="_图层_1" data-name="图层_1" xmlns="http://www.w3.org/2000/svg" version="1.1" viewBox="0 0 900 503">
  <!-- Generator: Adobe Illustrator 29.6.0, SVG Export Plug-In . SVG Version: 2.1.1 Build 207)  -->
  <defs>
    <style>
      .st0 {
        fill: #c2c5c6;
      }

      .st1 {
        font-size: 13px;
      }

      .st1, .st2, .st3, .st4, .st5, .st6 {
        isolation: isolate;
      }

      .st1, .st3, .st4 {
        font-family: TimesNewRomanPSMT, 'Times New Roman';
      }

      .st2 {
        font-size: 27px;
      }

      .st2, .st6 {
        font-family: TimesNewRomanPS-BoldMT, 'Times New Roman';
        font-weight: 700;
      }

      .st3 {
        font-size: 12px;
      }

      .st7 {
        fill: #c0c4c5;
      }

      .st8 {
        fill: #bcbfc0;
      }

      .st9 {
        fill: #d5d8da;
      }

      .st10 {
        fill: #b37673;
      }

      .st11 {
        fill: #3877a7;
      }

      .st12 {
        fill: #c7deeb;
      }

      .st13 {
        fill: #bcc0c2;
      }

      .st14 {
        fill: #f5c7c2;
      }

      .st15 {
        fill: #fff;
      }

      .st16 {
        fill: #c3d8e6;
      }

      .st17 {
        fill: #8a8a8d;
      }

      .st18 {
        fill: #b7bbbb;
      }

      .st19 {
        fill: #c7ddea;
      }

      .st20 {
        fill: #babdbe;
      }

      .st21 {
        fill: #24aa32;
      }

      .st4, .st6 {
        font-size: 15px;
      }

      .st22 {
        fill: #070505;
      }

      .st23 {
        fill: #e3e5e5;
      }

      .st24 {
        fill: #d4d8da;
      }

      .st25 {
        fill: #0d0b0b;
      }

      .st26 {
        fill: #949391;
      }

      .st27 {
        fill: #dad5d4;
      }

      .st28 {
        fill: #8c8e91;
      }

      .st29 {
        fill: #edeef1;
      }

      .st30 {
        fill: #b6b9b9;
      }

      .st31 {
        fill: #fce1bf;
      }

      .st32 {
        fill: #d4d8db;
      }

      .st33 {
        fill: #3274a6;
      }

      .st34 {
        fill: #0b0909;
      }

      .st35 {
        fill: #cb8a86;
      }

      .st36 {
        fill: #bcc0c1;
      }

      .st37 {
        fill: #fbe0be;
      }

      .st38 {
        fill: #f9faf8;
      }

      .st39 {
        fill: #c5e3c7;
      }

      .st40 {
        fill: #d7dadc;
      }

      .st41 {
        fill: #ecedee;
      }

      .st42 {
        fill: #d5d9dc;
      }

      .st43 {
        fill: #090707;
      }

      .st44 {
        fill: #cd332e;
      }

      .st45 {
        fill: #f8cbc6;
      }

      .st46 {
        fill: #050303;
      }

      .st47 {
        fill: #dcdfe0;
      }

      .st48 {
        fill: #d4d6d7;
      }

      .st49 {
        fill: #ac7e7c;
      }

      .st50 {
        fill: #edeff1;
      }

      .st51 {
        fill: #fbe1bf;
      }
    </style>
  </defs>
  <g id="_x23_24aa32ff">
    <path class="st21" d="M0,0h.1s-.08,0-.1.02v-.02Z"/>
    <path class="st21" d="M507.67,111.08c-.29-2.92,2.73-4.79,5.36-4.38,3.62.49,7.42,1.51,10.97.02,1.22,1.18,2.42,2.57,2.33,4.4.11,3.6.24,7.22-.01,10.82-.15,2.1-2.24,3.61-4.26,3.51-4.39.03-8.8.26-13.15-.38-2.34-4.29-1.16-9.34-1.24-13.99M520.49,110.35c-1.55,2.93-3.24,5.77-4.67,8.76-1.2-1.54-2.14-4.07-4.56-3.7,1.34,2.23,2.82,4.37,4.13,6.62,2.55-3.81,4.91-7.74,7.52-11.51-.6-.04-1.81-.13-2.42-.17Z"/>
  </g>
  <g id="_x23_edeff1ff">
    <path class="st50" d="M.1,0h899.9v503H0V.02s.07-.02.1-.02M375.7,99.43l1.07.26c-3.82.55-5.79,4.91-5.88,8.4-.11,8.32-.04,16.65,0,24.98-.17,11.16-.1,22.32.2,33.48-2.57-1.49-5.26-2.79-7.86-4.22.03.85.08,2.55.11,3.4-2.07.02-4.14.06-6.2.13.1,22.1.13,44.19.08,66.29-3.28-.02-6.57-.52-9.82.06.2-30.75.02-61.5-.03-92.25.53-5.63-4.75-10.82-10.41-9.77-42.32.04-84.64.04-126.95-.01-4.15.12-9.18-.99-12.35,2.45-4.08,4.41-2.74,10.92-2.79,16.39-.25,27.12-.02,54.25-.17,81.37-2.45-1.47-4.96-2.81-7.44-4.22,0,.88-.01,2.62-.01,3.5-4.37,0-8.74.15-13.11-.05v-.29c.82-8.72.12-17.54.35-26.3-.09-21.54.54-43.08.1-64.61-.86,8.82-.08,17.72-.33,26.57-.24,5.59.57,11.25-.57,16.78-8.57-.33-17.16.02-25.74-.17-18.66-.62-37.33.39-55.99-.18-19.88.06-39.75-.1-59.63.26.03-13.56.07-27.12-.02-40.68-.67-5.56,3.84-11.32,9.76-10.34,41.3.14,82.61-.09,123.9.11,4.41-.22,6.7,3.96,8.01,7.52-.11-4.15-3.69-8.27-8.02-7.98-41.31-.05-82.61.03-123.92-.04-2.21.04-4.68-.06-6.47,1.48-3.11,2.35-3.99,6.44-3.88,10.14.09,54.52-.06,109.06.09,163.58.27,2.87,2.32,5.15,4.46,6.9.1.52.31,1.56.42,2.08,3.4,1.85,7.61.98,11.33,1.84,37.67.22,75.36-.02,113.04.12,2.92-.09,6.23.45,8.67-1.54,2.6-1.87,4.97-5,4.79-8.28,1.08-6.48.47-13.07.59-19.59-.13-18.57.4-37.15-.17-55.71,4.1-.11,8.2,0,12.31.04-.02.81-.05,2.42-.07,3.22,2.03-.98,4.03-2.02,5.95-3.19l1.68-.33c-.06,24.61-.02,49.23-.02,73.84.45,5.9,6.61,9.78,12.22,9.36,30.68.1,61.36-.01,92.04.02,5.02.17,10.02-.19,15.03-.34,8.89.8,17.8.05,26.68-.43l-.12-.91c1.54-.93,3.04-1.91,4.51-2.94,2.76-2.34,2.29-6.36,2.52-9.61-.11-22.11.08-44.22-.1-66.34,3.22,0,6.45,0,9.67,0,.06,23.88-.02,47.76-.01,71.64,2.06,0,4.12,0,6.18.03-.05.79-.14,2.36-.19,3.15,1.65-.81,3.34-1.55,4.93-2.49.64-.44,2.46-1.32,1.26-2.25-1.66-1.81-4.26-2.3-6.27-3.6.08.86.24,2.57.32,3.43-1.54.04-3.09.11-4.63.22-.05-45.43.13-90.86-.07-136.29,1.53,0,3.07-.02,4.61-.03-.02.81-.07,2.44-.09,3.26,1.48-.79,2.96-1.58,4.48-2.33.9,7.17.38,14.39.44,21.59-.13,9.67.3,19.33-.07,28.99,0,2.44-.15,5.29,1.84,7.09,2.69,2.63,5.02,6.16,8.92,7.04,3.3.9,6.75.61,10.13.56,5.02-.21,10.04.12,15.07.02,29.57-.42,59.14.41,88.72-.23,11.69.09,23.39.2,35.08.04,5.32,0,8.12-4.84,11.2-8.37,1.45-1.68.71-4.07.86-6.08-.53.29-1.6.86-2.13,1.14-.28-37.39.03-74.8-.15-112.19.03-5.11-4.47-9.8-9.65-9.61-48.69-.06-97.37-.02-146.05-.03-2.14-.04-4.25.34-6.25,1.06M582.57,106.57c-.65,5.6-.49,11.3-.09,16.91.09.69.38,1.43.93,1.9,1.37.94,2.81,2.03,4.6,1.84,23.68-.05,47.37.09,71.06.02,6.98-.05,13.97.24,20.94-.4,5.83-.4,11.88,1.47,17.57-.29,3.81-2.02,2.43-6.97,2.9-10.46,14.55.26,29.1.17,43.65.14.04.77.12,2.3.16,3.07,2.66-1.33,5.31-2.69,7.93-4.1-2.72-1.39-5.41-2.83-8.09-4.27.02.81.05,2.42.07,3.23-14.62.03-29.24-.1-43.86.03-.13-3.29.48-6.99-1.84-9.71-.05-.16-.16-.48-.21-.65l-.59.04c-1.18-.59-2.41-.89-3.7-.89-34.99-.05-69.98.02-104.97-.03-.94.16-2.83.47-3.78.63-1.39.23-2.64,1.55-2.68,2.99M564.59,145.51c-4.63,1.64-7.03,6.74-6.78,11.43.06,49.12-.17,98.24.06,147.35-2.34-1.59-4.95-2.74-7.41-4.12.03.85.09,2.55.12,3.4-4.23.21-8.46-.07-12.69.06.6-15.19.09-30.46.25-45.68.22-3.44-1.55-6.75-4.18-8.86-4.37-3.05-9.95-1.93-14.93-2.08-45.69,0-91.38.09-137.07,0-1.95.24-4.5.03-5.92,1.49-4.9,2.09-5.87,7.83-5.5,12.56.11,13.32.14,26.63.2,39.95.19,18.1-.44,36.22.17,54.32l.34.52c-.98,4.58,4.72,8,8.69,8.55,49.02.14,98.06,0,147.08.11,3.2.12,7.21-1.42,7.79-4.96,2.2-2.26,3.48-5.36,3.37-8.52-.05-12.67-.05-25.33-.03-38-.07-2.56.1-5.16-.47-7.66,4.24-.07,8.49-.13,12.75-.09-.03.82-.09,2.46-.12,3.28,2.55-1.23,5.07-2.55,7.58-3.88-.2,30.77.05,61.54-.09,92.31.04,1.57.24,3.12.63,4.66.57,4.86,5.7,8.96,10.59,8.79,6.88-.07,13.77.21,20.63-.51,6.42.83,12.89.46,19.34.48,7.8-.23,15.61.45,23.38-.43,2.57.02,5.11.5,7.69.49,15.97-.13,31.93.01,47.9-.1,5.91-.12,12,.66,17.72-1.21l-.77-1.19c3.42-.74,6.21-3.61,7.04-6.98.58-3.31.22-6.68.28-10.01-.01-44.66-.04-89.33.09-134-.02-2.49.3-5.08-.63-7.46,3.21-.2,6.43-.09,9.65-.1-.02.87-.04,2.62-.05,3.49,2.39-1.39,4.92-2.55,7.18-4.17.04,7.76.29,15.53.15,23.29-.38,4.35,2.64,8.1,6.25,10.12,1.67,1.55,3.76,2.53,6.1,2.29,29.68.03,59.35-.11,89.03,0,9.55-.2,19.14.46,28.67-.45,1.47-.04,2.75-.7,3.67-1.86,3.68-1.35,6.23-5.15,6.2-9.06.05-38.02-.08-76.04.02-114.06-.1-2.83.17-5.83-1.01-8.49-1.82-3.44-5.64-5.83-9.57-5.65-39.63-.02-79.27-.02-118.91.02-5.57-.27-10.43,4.69-10.36,10.19-.19,31.06.25,62.14-.22,93.21-2.38-1.27-4.78-2.48-7.13-3.78.02.8.06,2.39.09,3.18-3.05-.58-6.15-.73-9.23-.55.12-30.38-.05-60.76.01-91.14.33-6.08-5.15-11.57-11.26-11.08-41.98-.07-83.97,0-125.95-.03-3.47.09-7.07-.43-10.43.63M51.77,375.77c-3.12,2.61-1.9,7.18-2.28,10.75-3.82.36-7.69.47-11.47,1.21-1.79.13-3.15,1.25-3.88,2.87l1.97-.6c-1.14.95-2.2,2-3.17,3.14l.6-2.02c-2.85,2.46-2.81,6.39-2.79,9.83.17,20.75-.26,41.53.19,62.27l1.44.68-.15-1.99c.15.55.44,1.64.59,2.18-1.99.71.04,4.06,1.83,3.62-1.13,1.3.56,2.54,1.58,3.06,4.23,2.27,9.18,1.64,13.79,1.69,6.62-.18,13.26.29,19.85-.42,3.02-.33,6.01.78,9.02.13,3.04-.71,6.06.38,9.1.31,7.98-1.05,16.05-.21,24.05-.21,3.33-.78,6.65.15,9.98.18,6.91-1.67,13.98,1.03,20.91-.5,2.71-.58,5.38.48,8.08.6,11-1.93,22.21,1.24,33.23-.88,4.91,1.12,9.87-.17,14.81.68,4.1.57,8.15-.87,12.26-.49,6.86.76,13.85,1.03,20.69-.11,3-.43,5.92,1.03,8.92.44,2.96-.64,5.96.54,8.9-.29,2.74-.73,5.48.25,8.21.48,2.2-.09,4.36-.87,6.57-.56,8.44,1.66,16.99-.7,25.47.27,3,.59,6.01-.63,9.02.05,7.62,1.21,15.28-.84,22.9.23,4.71.45,10.58.24,13.15-4.48,1.67-1.93,3.22-4.24,3.11-6.9.17-19.02.01-38.04.08-57.05-.07-3.32.23-6.68-.43-9.94l-1.18-.81.1,1.86c-1-1.85-2.3-3.54-3.72-5.08l1.82.58c-2.13-3.88-7.23-3.05-10.94-3.36-52.08-.08-104.17.08-156.25-.06,0-3.87.72-8.49-2.38-11.46-1.82-2.12-4.84-1.71-7.32-1.84-33.35.14-66.69-.09-100.03.1-2.2-.03-4.57.25-6.23,1.84M372.25,395.05c-2.2,2.46-1.56,5.95-1.63,8.97.16,3.84-.45,7.8.85,11.51.28.99,1.15,1.57,2.14,1.78,5.06.92,10.24.22,15.35.42,30.34-.01,60.68-.02,91.02.04,2.22-.03,4.54-.16,6.47-1.4l.81-.15c.04-.39.12-1.19.16-1.58.66-2.67.57-5.43.44-8.15,17.62,0,35.24-.03,52.86.02-.05.88-.15,2.66-.2,3.54,2.73-1.51,5.46-3.01,8.26-4.4-2.6-1.79-5.43-3.19-8.26-4.57.06.85.19,2.55.25,3.4-17.62-.01-35.23.02-52.85-.03-.11-2.64.21-5.39-.58-7.94-1.1-2.44-3.76-3.42-6.3-3.18-33.69-.07-67.38.05-101.07,0-2.58.19-5.78-.42-7.72,1.73M373.43,438.6c-4.04,2.3-2.43,7.6-2.74,11.39.21,3.86-1.31,9.14,2.85,11.46,3.42.71,6.95.31,10.43.37,31.67,0,63.34-.02,95.01.02,2.22.1,4.45.07,6.64-.37,1.01-.14,1.74-.96,1.78-1.97.55-2.8.55-5.66.46-8.49,80.19,0,160.37-.09,240.56-.06,0,.8.01,2.38.01,3.17,2.81-1.4,5.78-2.56,8.2-4.62-2.76-1.4-5.53-2.77-8.25-4.21-.01,1.2.01,2.4.05,3.61-80.17-.14-160.34-.05-240.5-.05-.12-2.72.09-5.51-.63-8.15-1.92-3.83-6.87-2.77-10.36-2.94-8.31-.28-16.61.64-24.9-.01-22,.08-43.99.03-65.99.01-4.21.05-8.49-.05-12.62.84Z"/>
    <path class="st50" d="M730.03,154.94c-.04-4.69,4.2-8.87,8.88-8.79,37.69-.16,75.39.02,113.09-.06,4.37.02,9.69-.79,12.88,2.98,2.72,2.59,2.06,6.55,2.11,9.93-.1,21.33.1,42.66.05,63.99-45.68.02-91.36,0-137.04,0,.02-22.68-.04-45.37.03-68.05Z"/>
  </g>
  <g id="_x23_3274a6ff">
    <path class="st33" d="M375.7,99.43c2-.72,4.11-1.1,6.25-1.06,48.68,0,97.36-.03,146.05.03,5.18-.19,9.68,4.5,9.65,9.61.18,37.39-.13,74.8.15,112.19-.34,3.61-2.59,7.24-6.19,8.32-8.51.92-17.1,1.08-25.64.42-9.32.71-18.67.25-28.01.42-5.68.14-11.33-1.17-17.01-.48-6.93.74-13.9.36-20.86.45-18.05-.04-36.11.06-54.16-.04-4.18-.24-9.17.38-12.31-3.01-3.35-2.76-2.38-7.45-2.44-11.25,0-16.07.09-32.13-.07-48.2v-.28c-.31-11.16-.38-22.32-.21-33.48h.95c.32,29.01.13,58.02.22,87.03-.23,4.69,4.37,8.47,8.91,8.12,45.35.18,90.7-.13,136.06.07,4.57-.18,9.2.28,13.74-.49,3.84-.9,6.1-4.97,5.86-8.75.06-28.65-.06-57.31.06-85.96l.02-1.11c.13-7.35.07-14.7.06-22.04,0-2.9-.5-6-2.56-8.18-1.98-2.42-5.35-2.42-8.19-2.52-47.69,0-95.37.03-143.06-.02-2.08.06-4.14.34-6.2.47l-1.07-.26Z"/>
    <path class="st33" d="M383.48,108.64c3.91-.32,7.89-.41,11.8,0,2.5,1.49,1.18,4.99,1.55,7.37-.38,2.37.92,5.59-1.19,7.34-3.81.61-7.72.25-11.56.21-1.84.02-2.6-2-2.32-3.55.23-3.58-.74-7.36.5-10.79.3-.14.91-.43,1.22-.58Z"/>
  </g>
  <g id="_x23_c7ddeaff">
    <path class="st19" d="M376.77,99.69c2.06-.13,4.12-.41,6.2-.47,47.69.05,95.37.01,143.06.02,2.84.1,6.21.1,8.19,2.52,2.06,2.18,2.57,5.28,2.56,8.18,0,7.34.07,14.69-.06,22.04-54.94.04-109.87,0-164.8.02.27-8.02-.13-16.04-.01-24.06-.16-3.5,2.28-6.22,4.86-8.25M507.67,111.08c.08,4.65-1.1,9.7,1.24,13.99,4.35.64,8.76.41,13.15.38,2.02.1,4.11-1.41,4.26-3.51.25-3.6.12-7.22.01-10.82.09-1.83-1.11-3.22-2.33-4.4-3.55,1.49-7.35.47-10.97-.02-2.63-.41-5.65,1.46-5.36,4.38M383.48,108.64c-.31.15-.92.44-1.22.58-1.24,3.43-.27,7.21-.5,10.79-.28,1.55.48,3.57,2.32,3.55,3.84.04,7.75.4,11.56-.21,2.11-1.75.81-4.97,1.19-7.34-.37-2.38.95-5.88-1.55-7.37-3.91-.41-7.89-.32-11.8,0Z"/>
  </g>
  <g id="_x23_3877a7ff">
    <path class="st11" d="M370.89,108.09c.09-3.49,2.06-7.85,5.88-8.4-2.58,2.03-5.02,4.75-4.86,8.25-.12,8.02.28,16.04.01,24.06,54.93-.03,109.86.02,164.8-.02l-.02,1.11c-54.95-.04-109.9.04-164.85,0h-.95c-.05-8.34-.12-16.67,0-24.99Z"/>
  </g>
  <g id="_x23_d4d8dbff">
    <path class="st32" d="M582.57,106.57c.04-1.44,1.29-2.76,2.68-2.99,10.86,1.35,21.81.26,32.71.49,23.67.4,47.34-.13,71.01.01,2.9.04,5.82-.02,8.73-.21l.59-.04c.05.17.16.49.21.65,1.82,5.63,1.32,11.65,1.22,17.46.15,3.03-2.94,4.82-5.65,4.65-32.32-.1-64.66.16-96.99-.02-4.57.03-9.3.41-13.67-1.19-.55-.47-.84-1.21-.93-1.9.36-5.63.35-11.27.09-16.91Z"/>
  </g>
  <g id="_x23_b6b9b9ff">
    <path class="st30" d="M585.25,103.58c.95-.16,2.84-.47,3.78-.63,34.99.05,69.98-.02,104.97.03,1.29,0,2.52.3,3.7.89-2.91.19-5.83.25-8.73.21-23.67-.14-47.34.39-71.01-.01-10.9-.23-21.85.86-32.71-.49Z"/>
  </g>
  <g id="_x23_949391ff">
    <path class="st26" d="M699.72,121.94c.1-5.81.6-11.83-1.22-17.46,2.32,2.72,1.71,6.42,1.84,9.71,14.62-.13,29.24,0,43.86-.03-.02-.81-.05-2.42-.07-3.23,2.68,1.44,5.37,2.88,8.09,4.27-2.62,1.41-5.27,2.77-7.93,4.1-.04-.77-.12-2.3-.16-3.07-14.55.03-29.1.12-43.65-.14-.47,3.49.91,8.44-2.9,10.46-5.69,1.76-11.74-.11-17.57.29-6.97.64-13.96.35-20.94.4-23.69.07-47.38-.07-71.06-.02-1.79.19-3.23-.9-4.6-1.84,4.37,1.6,9.1,1.22,13.67,1.19,32.33.18,64.67-.08,96.99.02,2.71.17,5.8-1.62,5.65-4.65Z"/>
    <path class="st26" d="M582.57,106.57c.26,5.64.27,11.28-.09,16.91-.4-5.61-.56-11.31.09-16.91Z"/>
  </g>
  <g id="_x23_e3e5e5ff">
    <path class="st23" d="M520.49,110.35c.61.04,1.82.13,2.42.17-2.61,3.77-4.97,7.7-7.52,11.51-1.31-2.25-2.79-4.39-4.13-6.62,2.42-.37,3.36,2.16,4.56,3.7,1.43-2.99,3.12-5.83,4.67-8.76Z"/>
    <path class="st23" d="M571.44,205.56c12.5-.46,25.05-.05,37.57-.21,29.02.07,58.03,0,87.05-.03,2.71-.22,5.88.94,6.83,3.71.89,3.94.46,8.02.58,12.02-.14,2.57.26,5.62-1.68,7.65-1.7,1.96-4.47,1.84-6.81,1.89-40.36,0-80.71.03-121.07,0-3.29.36-6.89-1.54-7.44-5.01-.51-4.48-.3-9.03-.11-13.53-.1-3.09,1.88-6.08,5.08-6.49Z"/>
    <path class="st23" d="M742.33,232.44c36.55-.62,73.15-.06,109.72-.28,3.47-.32,7.59,1.97,7.72,5.77.29,8.01-.07,16.04.1,24.06-.04,3,.34,6.52-1.98,8.85-2.61,2.62-6.58,1.87-9.9,1.99-33.66.1-67.33-.06-101,0-2.61-.05-5.68-.05-7.53-2.21-2.62-2.89-1.87-7.09-1.91-10.65.4-7.3-.41-14.63.09-21.93.03-2.66,2.13-5.02,4.69-5.59Z"/>
    <path class="st23" d="M570.29,236.37c2.8-.89,5.81-.54,8.71-.6,39.02-.12,78.04-.01,117.06-.07,2.96-.25,6.58.98,7.09,4.32.52,4.97.31,10.01.22,15.01.13,2.93-2.33,5.69-5.26,5.8-41.35.36-82.73.11-124.08.12-1.91-.07-4.05-.06-5.45-1.55-3.51-3.12-2.07-8.25-2.4-12.36.02-3.77-.47-9.31,4.11-10.67Z"/>
    <path class="st23" d="M571.33,266.45c13.84-.49,27.73-.15,41.58-.24,28.06-.07,56.12-.04,84.18,0,3.28-.36,6.38,2.46,6.24,5.78.16,4.66.25,9.34.01,14.01-.01,3.29-3.23,5.7-6.36,5.59-41.35.02-82.72-.1-124.07.06-3.29.45-6.35-2.51-6.47-5.71-.19-4.6-.23-9.22-.05-13.82.01-2.79,2.19-5.26,4.94-5.67Z"/>
    <path class="st23" d="M569.35,298.4c1.75-.79,3.74-.73,5.63-.82,40.36-.13,80.71.06,121.06-.1,2.41.02,5.29.52,6.58,2.84.99,2.05.75,4.43.83,6.65-.16,8.98.14,17.96-.11,26.93.11,3.79-3.93,6.11-7.34,5.72-41.02.02-82.03.12-123.05-.05-3.54.17-6.82-2.97-6.73-6.53-.26-8.36.32-16.72-.09-25.07-.08-3.37-.19-7.69,3.22-9.57Z"/>
  </g>
  <g id="_x23_8c8e91ff">
    <path class="st28" d="M35.58,131.75c1.79-1.54,4.26-1.44,6.47-1.48,41.31.07,82.61-.01,123.92.04,4.33-.29,7.91,3.83,8.02,7.98-1.31-3.56-3.6-7.74-8.01-7.52-41.29-.2-82.6.03-123.9-.11-5.92-.98-10.43,4.78-9.76,10.34.09,13.56.05,27.12.02,40.68,19.88-.36,39.75-.2,59.63-.26,18.66.57,37.33-.44,55.99.18,8.58.19,17.17-.16,25.74.17,1.14-5.53.33-11.19.57-16.78.25-8.85-.53-17.75.33-26.57.44,21.53-.19,43.07-.1,64.61-.23,8.76.47,17.58-.36,26.3-.85-15.65-.14-31.36-.37-47.04-10.91-.35-21.84.36-32.74-.5-12.01.2-24.04-.43-36.03.51-16.65-.99-33.34-.29-50.01-.53-7.54-.3-15.05.82-22.6.52.07,40.55,0,81.11.05,121.66-.29,3.89,2.51,6.99,5.68,8.79-.47-.09-1.4-.28-1.87-.37-2.14-1.75-4.19-4.03-4.46-6.9-.15-54.52,0-109.06-.09-163.58-.11-3.7.77-7.79,3.88-10.14Z"/>
    <path class="st28" d="M197.67,132.63c3.17-3.44,8.2-2.33,12.35-2.45,42.31.05,84.63.05,126.95.01,5.66-1.05,10.94,4.14,10.41,9.77.05,30.75.23,61.5.03,92.25l-.35.06c-.74-16.63-.14-33.33-.32-49.99-6.9.06-13.79,0-20.67-.45-25.03-.11-50.06.04-75.08-.06-18.46.97-36.95.23-55.43.54,0,40.55-.02,81.1,0,121.65-.28,5.46,5.12,9.82,10.38,9.41,40.35.09,80.7.07,121.06.04,4.54-.15,9.18.34,13.63-.84l.12.91c-8.88.48-17.79,1.23-26.68.43-5.01.15-10.01.51-15.03.34-30.68-.03-61.36.08-92.04-.02-5.61.42-11.77-3.46-12.22-9.36,0-24.61-.04-49.23.02-73.84l-1.68.33c.4-.24,1.2-.72,1.6-.97.15-27.12-.08-54.25.17-81.37.05-5.47-1.29-11.98,2.79-16.39M195.54,140.03c.02,13.89-.04,27.78-.03,41.66,15.51-.09,31.01-.01,46.51-.03,10-.43,20-.15,30-.19,24.91-.09,49.82-.05,74.74.18.1-14.18-.06-28.35-.09-42.53.15-4.6-4-8.96-8.71-8.5-44.66-.09-89.33,0-133.99-.02-4.97-.21-8.82,4.68-8.43,9.43Z"/>
    <path class="st28" d="M38.95,312.92c7,.57,14.02.16,21.04.26,35.62,0,71.24.16,106.86-.19l1.25.16c-6.01.78-12.08.43-18.11.48-35.35.07-70.7-.11-106.04.09-1.7-.07-3.35-.45-5-.8Z"/>
    <path class="st28" d="M372.25,395.05c1.94-2.15,5.14-1.54,7.72-1.73,33.69.06,67.38-.06,101.07,0,2.54-.24,5.2.74,6.3,3.18.79,2.55.47,5.3.58,7.94,17.62.05,35.23.02,52.85.03-.06-.85-.19-2.55-.25-3.4,2.83,1.38,5.66,2.78,8.26,4.57-2.8,1.39-5.53,2.89-8.26,4.4.05-.88.15-2.66.2-3.54-17.62-.05-35.24-.02-52.86-.02.13,2.72.22,5.48-.44,8.15-.17-5.83.45-11.74-.5-17.5-1.09-3.83-5.81-3.17-8.89-3.37-32.69.04-65.37.01-98.05.01-2.96.19-7.19-.14-8.35,3.37-.9,6.07-.15,12.26-.16,18.38-1.3-3.71-.69-7.67-.85-11.51.07-3.02-.57-6.51,1.63-8.97Z"/>
    <path class="st28" d="M480.08,417.25c2.14-.11,4.25-.51,6.37-.88-1.93,1.24-4.25,1.37-6.47,1.4-30.34-.06-60.68-.05-91.02-.04-5.11-.2-10.29.5-15.35-.42,35.48-.13,70.98.01,106.47-.06Z"/>
    <path class="st28" d="M38.12,469.29c.29-.14.85-.4,1.14-.54,89.9.05,179.8.01,269.7.02,7.3.16,14.65,1.09,21.91-.15-6.39,2.1-13.23.59-19.81.77-90.98-.14-181.96.08-272.94-.1Z"/>
  </g>
  <g id="_x23_edeef1ff">
    <path class="st29" d="M195.54,140.03c-.39-4.75,3.46-9.64,8.43-9.43,44.66.02,89.33-.07,133.99.02,4.71-.46,8.86,3.9,8.71,8.5.03,14.18.19,28.35.09,42.53-24.92-.23-49.83-.27-74.74-.18-10,.04-20-.24-30,.19-15.5.02-31-.06-46.51.03,0-13.88.05-27.77.03-41.66M318.13,143.2c-.09,2.71-.15,5.42-.03,8.13,1.05.12,2.11.25,3.16.4,0,1.49.04,2.99.07,4.48-2.93.05-6.4-.81-8.79,1.4-1.48,1.11-1.71,3.04-2.15,4.7,2.27.3,2.29-2.29,3.65-3.34,2.1-1.54,4.87-.97,7.3-1.15-.03,1.36-.07,2.72-.1,4.09.54,0,1.62.03,2.16.04-.09-1.36-.19-2.72-.31-4.07,2.18.06,4.49-.35,6.57.51,2,.81,1.99,3.99,4.52,3.87-.38-2.63-1.87-5.25-4.55-6.07-2.15-.25-4.32-.01-6.48.06.01-1.55.02-3.09.02-4.64.79.02,2.36.06,3.15.08.18-2.74.39-5.51.05-8.25-2.6-.87-5.53-.1-8.24-.24M319.38,163.59c-.03,1.94-.05,3.88-.08,5.82,2.01-.02,4.04-.02,6.06-.02-.02-1.93,0-3.86,0-5.79-1.99,0-3.98,0-5.97-.01M308.66,163.57c-.01,1.91-.02,3.82-.03,5.73,1.97,0,3.95,0,5.93.03.01-1.9.03-3.8.06-5.7-1.99-.02-3.98-.04-5.96-.06M330.18,163.64c-.02,1.9-.04,3.79-.05,5.69,1.94,0,3.89-.02,5.85-.02-.01-1.88-.02-3.76-.01-5.63-1.93-.02-3.87-.03-5.79-.04Z"/>
    <path class="st29" d="M559.02,154.99c.05-5.18,4.9-9.29,9.98-8.93,44.33,0,88.66.02,132.99.02,4.74-.15,9.01,4.15,8.95,8.87.02,14,.1,28.01-.01,42.02-50.61-.14-101.23,0-151.85-.05-.11-13.97-.04-27.96-.06-41.93M673.99,162.88c-.39,5.51-.61,11.62,2.82,16.31,2.24,2.92,5.34,5.56,9,6.39,4.53-1.5,8.51-4.98,10.34-9.43,1.99-4.24,1.38-9,1.32-13.53-3.94-1.21-7.68-2.93-11.51-4.43-4.01,1.47-8.09,2.99-11.97,4.69Z"/>
  </g>
  <g id="_x23_ffffffff">
    <path class="st15" d="M371.85,133.08c54.95.05,109.9-.03,164.85,0-.12,28.65,0,57.31-.06,85.96.24,3.78-2.02,7.85-5.86,8.75-4.54.77-9.17.31-13.74.49-45.36-.2-90.71.11-136.06-.07-4.54.35-9.14-3.43-8.91-8.12-.09-29.01.1-58.02-.22-87.02M381.33,141.42c-1.68.89-2.79,2.73-2.76,4.63-.13,4.3-.12,8.6.05,12.9-.05,3.26,3.43,5.2,6.34,5.17,46.01.09,92.02-.05,138.04.09,3.54.41,7.42-2.39,7.19-6.16.08-4.35.27-8.73-.26-13.05-.47-2.75-3.11-4.75-5.89-4.45-44.03.02-88.05-.01-132.08,0-3.54.11-7.27-.44-10.63.87M383.45,169.5c-2.8.25-4.95,2.83-4.95,5.59-.08,4.65-.52,9.4.31,14,1.78,4.55,7.23,3.98,11.2,3.88,44.34.06,88.69-.03,133.03.04,1.85-.06,3.92-.19,5.27-1.65,2.15-1.83,1.86-4.87,1.93-7.41-.1-3.63.33-7.33-.47-10.9-.93-2.69-4-3.92-6.67-3.7-46.55.09-93.12-.2-139.65.15M382.37,198.5c-2.22.8-3.99,2.98-3.92,5.39-.12,4.33-.33,8.69.03,13.01.32,3.07,3.58,4.94,6.47,4.75,46,.14,92.01.1,138.02.01,2.94.25,6.65-1.29,7.03-4.57.43-4.35.25-8.74.16-13.11.09-3.23-2.93-5.95-6.11-5.68-30.67-.11-61.35-.09-92.03-.06-16.54.09-33.13-.29-49.65.26Z"/>
    <path class="st15" d="M32.39,182.29c7.55.3,15.06-.82,22.6-.52,16.67.24,33.36-.46,50.01.53,11.99-.94,24.02-.31,36.03-.51,10.9.86,21.83.15,32.74.5.23,15.68-.48,31.39.37,47.04v.29c0,.43,0,1.29,0,1.72-.35,2.87-.65,5.76-.58,8.66.21,21.72-.2,43.45.2,65.17-1.12,3.47-3.64,6.23-6.9,7.82-35.62.35-71.24.18-106.86.19-7.02-.1-14.04.31-21.04-.26-.21-.05-.62-.14-.83-.18-3.17-1.8-5.97-4.9-5.68-8.79-.06-40.55.02-81.11-.05-121.66M44.32,190.48c-2.05.58-3.93,2.32-4.11,4.53-.46,4.62-.55,9.32-.07,13.94.36,3.24,3.77,5.09,6.81,4.8,22.7-.12,45.41-.07,68.12-.08,2.88.03,5.6-2.67,5.54-5.57.06-4.56.27-9.15-.17-13.68-.9-3.19-4.39-4.54-7.44-4.21-22.89.17-45.81-.31-68.68.27M44.24,219.31c-2.91.7-4.41,3.88-4.29,6.68,0,23.99.09,47.98.06,71.97-.36,3.96,2.85,7.92,6.96,7.7,31.03.23,62.06-.06,93.08.02-.76-3.26-3.94-6.37-2.94-9.8-2.21-7.73,4.06-16.3,11.85-17.55,4.25-.11,8.51.11,12.75-.22-.36.36-1.08,1.08-1.44,1.45,1.9,1.17,3.82,2.31,5.79,3.37.53-13.96.02-27.94.2-41.91-.12-5.67.25-11.35-.14-17-.23-3.46-4-5.25-7.11-5.02-35.02-.05-70.04,0-105.06-.03-3.23.02-6.51-.25-9.71.34M149.5,280.75c-7.14,1.92-11.92,10.12-9.51,17.25,1.77,6.38,8.55,10.54,15.04,9.58,7.61-.79,13.08-9.21,11.18-16.51-1.51-7.15-9.51-12.6-16.71-10.32Z"/>
    <path class="st15" d="M195.56,182.31c18.48-.31,36.97.43,55.43-.54,25.02.1,50.05-.05,75.08.06,6.88.45,13.77.51,20.67.45.18,16.66-.42,33.36.32,49.99.56,4.56.28,9.15.34,13.73.01,17.98-.03,35.97.02,53.96-.06,3.33-.06,6.96-2.29,9.67-1.47,1.03-2.97,2.01-4.51,2.94-4.45,1.18-9.09.69-13.63.84-40.36.03-80.71.05-121.06-.04-5.26.41-10.66-3.95-10.38-9.41-.01-40.55,0-81.1,0-121.65M206.34,208.49c-4.95,2.16-3.85,8.15-3.92,12.51.29,2.97-.69,6.61,1.66,8.96,2.26,2.44,5.91,1.64,8.88,1.86,40.03-.15,80.06.06,120.09-.07,2.66.16,6.05-.81,6.62-3.81.87-4.6.69-9.35.36-14-.04-3.1-2.84-5.92-5.98-5.74-40.99-.16-81.99.12-122.99-.06-1.58.03-3.18-.02-4.72.35M206.35,237.44c-3.06,1.12-4.01,4.64-3.86,7.59.07,7.64-.01,15.29,0,22.92-.16,3.49,3.02,6.35,6.44,6.11,41-.12,82.01.1,123.02,0,2.19-.11,4.71-.11,6.37-1.82,2.12-2.18,1.75-5.47,1.85-8.25-.08-7.02.32-14.05-.22-21.05-.13-3.54-3.46-6.28-6.95-5.99-19.33-.11-38.67.13-58.01-.06-18.65.62-37.3-.34-55.94.24-4.23.16-8.55-.68-12.7.31M206.44,279.55c-4.74,1.69-4.16,7.41-4.08,11.44.34,3.28-.96,7.34,1.74,9.91,1.91,2.42,5.22,1.83,7.92,1.91,40.33,0,80.67.06,121.01-.01,2.78.22,5.7-1.35,6.56-4.1.78-4.53.5-9.18.24-13.75-.12-3.4-3.5-6.03-6.81-5.67-34.69-.08-69.37.03-104.06-.02-7.5.33-15.06-.31-22.52.29Z"/>
    <path class="st15" d="M559.12,198.02c50.63-.1,101.25.02,151.88-.06.09,16.66-.3,33.33.25,49.98l.02.21c-.65,21.93-.1,43.9-.29,65.85-.01,27.66-.01,55.33-.01,83,.27,4.1-2.04,8.56-6.18,9.69-3.55.63-7.18.28-10.76.32-43.07-.08-86.14.06-129.21-.08-2.42-2.03-4.5-4.46-5.88-7.31.26-67.19.03-134.4.18-201.6M571.44,205.56c-3.2.41-5.18,3.4-5.08,6.49-.19,4.5-.4,9.05.11,13.53.55,3.47,4.15,5.37,7.44,5.01,40.36.03,80.71,0,121.07,0,2.34-.05,5.11.07,6.81-1.89,1.94-2.03,1.54-5.08,1.68-7.65-.12-4,.31-8.08-.58-12.02-.95-2.77-4.12-3.93-6.83-3.71-29.02.03-58.03.1-87.05.03-12.52.16-25.07-.25-37.57.21M570.29,236.37c-4.58,1.36-4.09,6.9-4.11,10.67.33,4.11-1.11,9.24,2.4,12.36,1.4,1.49,3.54,1.48,5.45,1.55,41.35-.01,82.73.24,124.08-.12,2.93-.11,5.39-2.87,5.26-5.8.09-5,.3-10.04-.22-15.01-.51-3.34-4.13-4.57-7.09-4.32-39.02.06-78.04-.05-117.06.07-2.9.06-5.91-.29-8.71.6M571.33,266.45c-2.75.41-4.93,2.88-4.94,5.67-.18,4.6-.14,9.22.05,13.82.12,3.2,3.18,6.16,6.47,5.71,41.35-.16,82.72-.04,124.07-.06,3.13.11,6.35-2.3,6.36-5.59.24-4.67.15-9.35-.01-14.01.14-3.32-2.96-6.14-6.24-5.78-28.06-.04-56.12-.07-84.18,0-13.85.09-27.74-.25-41.58.24M569.35,298.4c-3.41,1.88-3.3,6.2-3.22,9.57.41,8.35-.17,16.71.09,25.07-.09,3.56,3.19,6.7,6.73,6.53,41.02.17,82.03.07,123.05.05,3.41.39,7.45-1.93,7.34-5.72.25-8.97-.05-17.95.11-26.93-.08-2.22.16-4.6-.83-6.65-1.29-2.32-4.17-2.82-6.58-2.84-40.35.16-80.7-.03-121.06.1-1.89.09-3.88.03-5.63.82M634.22,345.93c-.09,2.8-.1,5.61-.03,8.42-.79-.06-2.37-.18-3.16-.24,1.26,2.26,2.31,4.64,3.61,6.89,2.33-1.42,2.8-4.79,4.4-6.97-.81.11-2.45.33-3.26.44-.05-2.64.1-5.29-.17-7.92-.34-.15-1.04-.46-1.39-.62Z"/>
    <path class="st15" d="M730.02,224.05c45.72.06,91.44.03,137.16.06.09,14.95-.03,29.9.06,44.85-.11,2.93.28,6.27-1.73,8.7-1.7,2.36-4.61,3.61-7.49,3.35-39.68-.05-79.36.02-119.04-.02-4.74.24-9.21-4.12-8.97-8.88-.02-16.02-.02-32.04.01-48.06M742.33,232.44c-2.56.57-4.66,2.93-4.69,5.59-.5,7.3.31,14.63-.09,21.93.04,3.56-.71,7.76,1.91,10.65,1.85,2.16,4.92,2.16,7.53,2.21,33.67-.05,67.34.11,101,0,3.32-.12,7.29.63,9.9-1.99,2.32-2.33,1.94-5.85,1.98-8.85-.17-8.02.19-16.05-.1-24.06-.13-3.8-4.25-6.09-7.72-5.77-36.57.22-73.17-.34-109.72.28Z"/>
    <path class="st15" d="M372.07,281.92c31.32-.18,62.64-.03,93.97-.06,23.44.16,46.9-.35,70.34.24.02,7.21-.19,14.42.08,21.63l.06,1.04c-.31,15.92.34,31.86-.09,47.78.21,4.57-4.01,8.15-8.41,8.02-49.01,0-98.03.04-147.03,0-4.11.24-7.61-2.54-8.91-6.33.03-24.1.05-48.21,0-72.32M381.31,289.36c-1.56.76-2.63,2.33-2.72,4.08-.75,8.86-.17,17.77-.25,26.66-.13,3.96,4.06,6.34,7.64,5.96,46.03.08,92.07-.09,138.09-.02,3.26.18,6.45-2.72,6.22-6.05-.03-8.67.26-17.35-.22-26-.01-3.15-3-5.65-6.09-5.31-46.31,0-92.63.02-138.94,0-1.31-.06-2.55.17-3.73.69M381.23,331.27c-2.99,1.42-3.05,4.93-2.83,7.77.16,3.51-.3,7.05.09,10.56.6,2.91,3.65,4.5,6.46,4.25,46.36-.08,92.73-.17,139.1.05,3.28.36,6.26-2.66,6.18-5.89.13-4.32.31-8.67-.24-12.96-.41-2.83-3.21-4.75-6-4.44-46.3-.08-92.61.03-138.91-.04-1.36-.08-2.64.15-3.85.7Z"/>
    <path class="st15" d="M36.11,390c4.31-1.56,8.93-.94,13.4-.81.24,3.7-.73,8.23,2.17,11.13,1.59,1.78,4.11,1.93,6.34,2.01,33.65-.04,67.31.03,100.96-.05,2.44-.08,5.31-.19,6.91-2.33,2.66-2.97,1.78-7.21,1.84-10.83,53.08-.27,106.17.01,159.25-.15,2.07,0,4.16.27,6.12,1,1.42,1.54,2.72,3.23,3.72,5.08.46,21.66.05,43.34.17,65.01.34,3.41-1.98,6.03-4.44,8.03-.42.13-1.26.4-1.68.53-7.26,1.24-14.61.31-21.91.15-89.9,0-179.8.03-269.7-.02-1.14-.39-2.27-.8-3.39-1.23-1-1.16-2.01-2.32-3.05-3.43-.15-.54-.44-1.63-.59-2.18-.57-19.96-.02-39.96-.27-59.93-.07-2.97,0-6.01.98-8.84.97-1.14,2.03-2.19,3.17-3.14M51.41,417.57c-3.5,1.92.25,7.79,3.37,4.97,2.89-2.04-.31-7.14-3.37-4.97M51.39,442.55c-3.74,1.94.17,7.71,3.39,5.13,2.86-2.06-.3-7.09-3.39-5.13Z"/>
  </g>
  <g id="_x23_c7deebff">
    <path class="st12" d="M381.33,141.42c3.36-1.31,7.09-.76,10.63-.87,44.03-.01,88.05.02,132.08,0,2.78-.3,5.42,1.7,5.89,4.45.53,4.32.34,8.7.26,13.05.23,3.77-3.65,6.57-7.19,6.16-46.02-.14-92.03,0-138.04-.09-2.91.03-6.39-1.91-6.34-5.17-.17-4.3-.18-8.6-.05-12.9-.03-1.9,1.08-3.74,2.76-4.63Z"/>
  </g>
  <g id="_x23_050303ff">
    <path class="st46" d="M318.13,143.2c2.71.14,5.64-.63,8.24.24.34,2.74.13,5.51-.05,8.25-.79-.02-2.36-.06-3.15-.08,0,1.55-.01,3.09-.02,4.64,2.16-.07,4.33-.31,6.48-.06,2.68.82,4.17,3.44,4.55,6.07-2.53.12-2.52-3.06-4.52-3.87-2.08-.86-4.39-.45-6.57-.51.12,1.35.22,2.71.31,4.07-.54,0-1.62-.03-2.16-.04.03-1.37.07-2.73.1-4.09-2.43.18-5.2-.39-7.3,1.15-1.36,1.05-1.38,3.64-3.65,3.34.44-1.66.67-3.59,2.15-4.7,2.39-2.21,5.86-1.35,8.79-1.4-.03-1.49-.06-2.99-.07-4.48-1.05-.15-2.11-.28-3.16-.4-.12-2.71-.06-5.42.03-8.13Z"/>
    <path class="st46" d="M673.99,162.88c3.88-1.7,7.96-3.22,11.97-4.69,3.83,1.5,7.57,3.22,11.51,4.43.06,4.53.67,9.29-1.32,13.53-1.83,4.45-5.81,7.93-10.34,9.43-3.66-.83-6.76-3.47-9-6.39-3.43-4.69-3.21-10.8-2.82-16.31M679.11,166.04c2.1,2.5,4.62,4.61,6.93,6.93,2.29,2.1,4.13,4.73,6.89,6.29.17-1.27-.19-2.34-1.09-3.2-3.9-4.04-8.06-7.81-11.95-11.85-.2.45-.59,1.37-.78,1.83Z"/>
    <path class="st46" d="M319.38,163.59c1.99.01,3.98.01,5.97.01,0,1.93-.01,3.86,0,5.79-2.02,0-4.05,0-6.06.02.03-1.94.05-3.88.08-5.82Z"/>
    <path class="st46" d="M363.24,162.33c2.6,1.43,5.29,2.73,7.86,4.22v.28c-1.13.51-2.25,1.04-3.36,1.58-1.52.75-3,1.54-4.48,2.33.02-.82.07-2.45.09-3.26-1.54.01-3.08.02-4.61.03.2,45.43.02,90.86.07,136.29,1.54-.11,3.09-.18,4.63-.22-.08-.86-.24-2.57-.32-3.43,2.01,1.3,4.61,1.79,6.27,3.6,1.2.93-.62,1.81-1.26,2.25-1.59.94-3.28,1.68-4.93,2.49.05-.79.14-2.36.19-3.15-2.06-.03-4.12-.03-6.18-.03,0-23.88.07-47.76.01-71.64-3.22,0-6.45,0-9.67,0,.18,22.12,0,44.23.1,66.34-.23,3.25.24,7.27-2.52,9.61,2.23-2.71,2.23-6.34,2.29-9.67-.05-17.99-.01-35.98-.02-53.96-.06-4.58.22-9.17-.34-13.73l.35-.06c3.25-.58,6.54-.08,9.82-.06.05-22.1.02-44.19-.08-66.29,2.06-.07,4.13-.11,6.2-.13-.03-.85-.08-2.55-.11-3.4Z"/>
    <path class="st46" d="M308.66,163.57c1.98.02,3.97.04,5.96.06-.03,1.9-.05,3.8-.06,5.7-1.98-.02-3.96-.02-5.93-.03.01-1.91.02-3.82.03-5.73Z"/>
    <path class="st46" d="M187.27,226.17c2.48,1.41,4.99,2.75,7.44,4.22-.4.25-1.2.73-1.6.97-1.92,1.17-3.92,2.21-5.95,3.19.02-.8.05-2.41.07-3.22-4.11-.04-8.21-.15-12.31-.04l-.79.05c0-.43.02-1.29.02-1.72,4.37.2,8.74.06,13.11.05,0-.88.01-2.62.01-3.5Z"/>
    <path class="st46" d="M721.36,244.5c2.35,1.3,4.75,2.51,7.13,3.78l-.02.45c-2.26,1.62-4.79,2.78-7.18,4.17.01-.87.03-2.62.05-3.49-3.22,0-6.44-.1-9.65.1-.1-.34-.32-1.02-.42-1.36l-.02-.21c3.4.17,6.81.14,10.2-.26-.03-.79-.07-2.38-.09-3.18Z"/>
    <path class="st46" d="M149.5,280.75c7.2-2.28,15.2,3.17,16.71,10.32,1.9,7.3-3.57,15.72-11.18,16.51-6.49.96-13.27-3.2-15.04-9.58-2.41-7.13,2.37-15.33,9.51-17.25M148.16,283.81c-6.41,2.75-8.17,11.69-4.17,17.15,4.85-4.45,13.16-4.6,17.97,0,1.64-3,3.09-6.53,1.79-9.94-1.62-6.46-9.61-10.43-15.59-7.21Z"/>
    <path class="st46" d="M51.39,442.55c3.09-1.96,6.25,3.07,3.39,5.13-3.22,2.58-7.13-3.19-3.39-5.13Z"/>
  </g>
  <g id="_x23_babdbeff">
    <path class="st20" d="M564.59,145.51c3.36-1.06,6.96-.54,10.43-.63,41.98.03,83.97-.04,125.95.03,6.11-.49,11.59,5,11.26,11.08-.06,30.38.11,60.76-.01,91.14,3.08-.18,6.18-.03,9.23.55-3.39.4-6.8.43-10.2.26-.55-16.65-.16-33.32-.25-49.98-50.63.08-101.25-.04-151.88.06-.15,67.2.08,134.41-.18,201.6-.13.51-.39,1.51-.51,2.02-.39-1.54-.59-3.09-.63-4.66.14-30.77-.11-61.54.09-92.31l-.02-.38c-.23-49.11,0-98.23-.06-147.35-.25-4.69,2.15-9.79,6.78-11.43M559.02,154.99c.02,13.97-.05,27.96.06,41.93,50.62.05,101.24-.09,151.85.05.11-14.01.03-28.02.01-42.02.06-4.72-4.21-9.02-8.95-8.87-44.33,0-88.66-.03-132.99-.02-5.08-.36-9.93,3.75-9.98,8.93Z"/>
  </g>
  <g id="_x23_c0c4c5ff">
    <path class="st7" d="M728.71,155.07c-.07-5.5,4.79-10.46,10.36-10.19,39.64-.04,79.28-.04,118.91-.02,3.93-.18,7.75,2.21,9.57,5.65,1.18,2.66.91,5.66,1.01,8.49-.1,38.02.03,76.04-.02,114.06.03,3.91-2.52,7.71-6.2,9.06-22.78.26-45.56-.03-68.33.06-19.71-.1-39.43.31-59.14-.04-3.61-2.02-6.63-5.77-6.25-10.12.14-7.76-.11-15.53-.15-23.29l.02-.45c.47-31.07.03-62.15.22-93.21M730.03,154.94c-.07,22.68-.01,45.37-.03,68.05,45.68,0,91.36.02,137.04,0,.05-21.33-.15-42.66-.05-63.99-.05-3.38.61-7.34-2.11-9.93-3.19-3.77-8.51-2.96-12.88-2.98-37.7.08-75.4-.1-113.09.06-4.68-.08-8.92,4.1-8.88,8.79M730.02,224.05c-.03,16.02-.03,32.04-.01,48.06-.24,4.76,4.23,9.12,8.97,8.88,39.68.04,79.36-.03,119.04.02,2.88.26,5.79-.99,7.49-3.35,2.01-2.43,1.62-5.77,1.73-8.7-.09-14.95.03-29.9-.06-44.85-45.72-.03-91.44,0-137.16-.06Z"/>
  </g>
  <g id="_x23_0d0b0bff">
    <path class="st25" d="M330.18,163.64c1.92,0,3.86.02,5.79.04-.01,1.87,0,3.75.01,5.63-1.96,0-3.91.01-5.85.02.01-1.9.03-3.79.05-5.69Z"/>
    <path class="st25" d="M550.46,300.17c2.46,1.38,5.07,2.53,7.41,4.12l.02.38c-2.51,1.33-5.03,2.65-7.58,3.88.03-.82.09-2.46.12-3.28-4.26-.04-8.51.02-12.75.09l-1.16-.59-.06-1.04,1.43-.1c4.23-.13,8.46.15,12.69-.06-.03-.85-.09-2.55-.12-3.4Z"/>
  </g>
  <g id="_x23_ecedeeff">
    <path class="st41" d="M679.11,166.04c.19-.46.58-1.38.78-1.83,3.89,4.04,8.05,7.81,11.95,11.85.9.86,1.26,1.93,1.09,3.2-2.76-1.56-4.6-4.19-6.89-6.29-2.31-2.32-4.83-4.43-6.93-6.93Z"/>
    <path class="st41" d="M44.24,219.31c3.2-.59,6.48-.32,9.71-.34,35.02.04,70.04-.02,105.06.03,3.11-.23,6.88,1.56,7.11,5.02.39,5.65.02,11.33.14,17-.18,13.97.33,27.95-.2,41.91-1.97-1.06-3.89-2.2-5.79-3.37.36-.37,1.08-1.09,1.44-1.45-4.24.33-8.5.11-12.75.22-7.79,1.25-14.06,9.82-11.85,17.55-1,3.43,2.18,6.54,2.94,9.8-31.02-.08-62.05.21-93.08-.02-4.11.22-7.32-3.74-6.96-7.7.03-23.99-.06-47.98-.06-71.97-.12-2.8,1.38-5.98,4.29-6.68Z"/>
  </g>
  <g id="_x23_dcdfe0ff">
    <path class="st47" d="M367.74,168.41c1.11-.54,2.23-1.07,3.37-1.58.16,16.07.07,32.13.07,48.2.06,3.8-.91,8.49,2.44,11.25,3.14,3.39,8.13,2.77,12.31,3.01,18.05.1,36.11,0,54.16.04,6.96-.09,13.93.29,20.86-.45,5.68-.69,11.33.62,17.01.48,9.34-.17,18.69.29,28.01-.42,8.54.66,17.13.5,25.64-.42,3.6-1.08,5.85-4.71,6.19-8.32.53-.28,1.6-.85,2.13-1.14-.15,2.01.59,4.4-.86,6.08-3.08,3.53-5.88,8.36-11.2,8.37-11.69.16-23.39.05-35.08-.04-29.58.64-59.15-.19-88.72.23-5.03.1-10.05-.23-15.07-.02-3.38.05-6.83.34-10.13-.56-3.9-.88-6.23-4.41-8.92-7.04-1.99-1.8-1.84-4.65-1.84-7.09.37-9.66-.06-19.32.07-28.99-.06-7.2.46-14.42-.44-21.59Z"/>
  </g>
  <g id="_x23_c5e3c7ff">
    <path class="st39" d="M383.45,169.5c46.53-.35,93.1-.06,139.65-.15,2.67-.22,5.74,1.01,6.67,3.7.8,3.57.37,7.27.47,10.9-.07,2.54.22,5.58-1.93,7.41-1.35,1.46-3.42,1.59-5.27,1.65-44.34-.07-88.69.02-133.03-.04-3.97.1-9.42.67-11.2-3.88-.83-4.6-.39-9.35-.31-14,0-2.76,2.15-5.34,4.95-5.59Z"/>
    <path class="st39" d="M382.37,198.5c16.52-.55,33.11-.17,49.65-.26,30.68-.03,61.36-.05,92.03.06,3.18-.27,6.2,2.45,6.11,5.68.09,4.37.27,8.76-.16,13.11-.38,3.28-4.09,4.82-7.03,4.57-46.01.09-92.02.13-138.02-.01-2.89.19-6.15-1.68-6.47-4.75-.36-4.32-.15-8.68-.03-13.01-.07-2.41,1.7-4.59,3.92-5.39Z"/>
  </g>
  <g id="_x23_c3d8e6ff">
    <path class="st16" d="M44.32,190.48c22.87-.58,45.79-.1,68.68-.27,3.05-.33,6.54,1.02,7.44,4.21.44,4.53.23,9.12.17,13.68.06,2.9-2.66,5.6-5.54,5.57-22.71,0-45.42-.04-68.12.08-3.04.29-6.45-1.56-6.81-4.8-.48-4.62-.39-9.32.07-13.94.18-2.21,2.06-3.95,4.11-4.53Z"/>
  </g>
  <g id="_x23_fbe0beff">
    <path class="st37" d="M206.34,208.49c1.54-.37,3.14-.32,4.72-.35,41,.18,82-.1,122.99.06,3.14-.18,5.94,2.64,5.98,5.74.33,4.65.51,9.4-.36,14-.57,3-3.96,3.97-6.62,3.81-40.03.13-80.06-.08-120.09.07-2.97-.22-6.62.58-8.88-1.86-2.35-2.35-1.37-5.99-1.66-8.96.07-4.36-1.03-10.35,3.92-12.51Z"/>
  </g>
  <g id="_x23_bcc0c2ff">
    <path class="st13" d="M174.13,231.34l.79-.05c.57,18.56.04,37.14.17,55.71-.12,6.52.49,13.11-.59,19.59l-.75-1.42c-.4-21.72,0-43.45-.2-65.17-.07-2.9.23-5.79.58-8.66Z"/>
  </g>
  <g id="_x23_fce1bfff">
    <path class="st31" d="M206.35,237.44c4.15-.99,8.47-.15,12.7-.31,18.64-.58,37.29.38,55.94-.24,19.34.19,38.68-.05,58.01.06,3.49-.29,6.82,2.45,6.95,5.99.54,7,.14,14.03.22,21.05-.1,2.78.27,6.07-1.85,8.25-1.66,1.71-4.18,1.71-6.37,1.82-41.01.1-82.02-.12-123.02,0-3.42.24-6.6-2.62-6.44-6.11-.01-7.63.07-15.28,0-22.92-.15-2.95.8-6.47,3.86-7.59Z"/>
  </g>
  <g id="_x23_cb8a86ff">
    <path class="st35" d="M376.04,248.49c1.42-1.46,3.97-1.25,5.92-1.49,45.69.1,91.38,0,137.07,0,4.98.15,10.56-.97,14.93,2.08,2.63,2.11,4.4,5.42,4.18,8.86-.16,15.22.35,30.49-.25,45.68l-1.43.1c-.27-7.21-.06-14.42-.08-21.63-23.44-.59-46.9-.08-70.34-.24-31.33.03-62.65-.12-93.97.06-.01-.48-.02-1.44-.02-1.92,54.64-.07,109.28.09,163.92-.05.52-7.63.42-15.29.23-22.92.25-3.98-3.04-8.11-7.16-8.01-47.36-.05-94.73,0-142.09-.03-3.79-.06-7.63-.18-11.32.82l.41-1.32Z"/>
  </g>
  <g id="_x23_ac7e7cff">
    <path class="st49" d="M370.54,261.05c-.37-4.73.6-10.47,5.5-12.56l-.41,1.32c-1.38,1.93-3.49,3.64-3.51,6.21-.28,7.98-.07,15.99-.07,23.98,0,.48.01,1.44.02,1.92.06,24.11.04,48.22,0,72.32l-1.17,1.08c-.61-18.1.02-36.22-.17-54.32-.06-13.32-.09-26.63-.2-39.95Z"/>
  </g>
  <g id="_x23_f5c7c2ff">
    <path class="st14" d="M375.63,249.81c3.69-1,7.53-.88,11.32-.82,47.36.04,94.73-.02,142.09.03,4.12-.1,7.41,4.03,7.16,8.01.19,7.63.29,15.29-.23,22.92-54.64.14-109.28-.02-163.92.05,0-7.99-.21-16,.07-23.98.02-2.57,2.13-4.28,3.51-6.21M516.15,255.91c-2.89,4.32-5.03,9.09-7.77,13.5-.77,1.31-2.23,3.35-.29,4.41,3.61.45,7.26.19,10.9.27,3.08-.1,6.36.34,9.21-1.11-2.19-5.28-5.62-9.9-8.26-14.95-.77-1.45-1.93-3.52-3.79-2.12M381.46,257.66c-.22.23-.66.68-.88.91-.52,3.75-.29,7.58-.36,11.37-.09,1.47,1.18,3.04,2.76,2.68,3.73-.02,7.53.31,11.23-.32,1.73-1.99.77-4.89,1.1-7.28-.26-2.39.87-5.43-1.12-7.28-4.19-.59-8.51-.28-12.73-.08Z"/>
    <path class="st14" d="M381.31,289.36c1.18-.52,2.42-.75,3.73-.69,46.31.03,92.63,0,138.94,0,3.09-.34,6.08,2.16,6.09,5.31.48,8.65.19,17.33.22,26,.23,3.33-2.96,6.23-6.22,6.05-46.02-.07-92.06.1-138.09.02-3.58.38-7.77-2-7.64-5.96.08-8.89-.5-17.8.25-26.66.09-1.75,1.16-3.32,2.72-4.08Z"/>
    <path class="st14" d="M381.23,331.27c1.21-.55,2.49-.78,3.85-.7,46.3.07,92.61-.04,138.91.04,2.79-.31,5.59,1.61,6,4.44.55,4.29.37,8.64.24,12.96.08,3.23-2.9,6.25-6.18,5.89-46.37-.22-92.74-.13-139.1-.05-2.81.25-5.86-1.34-6.46-4.25-.39-3.51.07-7.05-.09-10.56-.22-2.84-.16-6.35,2.83-7.77Z"/>
  </g>
  <g id="_x23_bcbfc0ff">
    <path class="st8" d="M711.27,248.15c.1.34.32,1.02.42,1.36.93,2.38.61,4.97.63,7.46-.13,44.67-.1,89.34-.09,134-.06,3.33.3,6.7-.28,10.01-.83,3.37-3.62,6.24-7.04,6.98-12.28-.36-24.56.05-36.84.21-33.02-.22-66.05.14-99.07-.14-1.49.03-2.88-.45-4.18-1.1,43.07.14,86.14,0,129.21.08,3.58-.04,7.21.31,10.76-.32,4.14-1.13,6.45-5.59,6.18-9.69,0-27.67,0-55.34.01-83,.19-21.95-.36-43.92.29-65.85Z"/>
  </g>
  <g id="_x23_cd332eff">
    <path class="st44" d="M516.15,255.91c1.86-1.4,3.02.67,3.79,2.12,2.64,5.05,6.07,9.67,8.26,14.95-2.85,1.45-6.13,1.01-9.21,1.11-3.64-.08-7.29.18-10.9-.27-1.94-1.06-.48-3.1.29-4.41,2.74-4.41,4.88-9.18,7.77-13.5M516.17,260.9c.07,2.4.17,4.8.39,7.19,3.2-.63,1.57-4.62,2.05-6.9-.61-.07-1.83-.21-2.44-.29M516.24,269.1c-1.18,1.44,1.29,3.2,2.31,1.67,1.15-1.43-1.3-3.18-2.31-1.67Z"/>
    <path class="st44" d="M381.46,257.66c4.22-.2,8.54-.51,12.73.08,1.99,1.85.86,4.89,1.12,7.28-.33,2.39.63,5.29-1.1,7.28-3.7.63-7.5.3-11.23.32-1.58.36-2.85-1.21-2.76-2.68.07-3.79-.16-7.62.36-11.37.22-.23.66-.68.88-.91Z"/>
  </g>
  <g id="_x23_f8cbc6ff">
    <path class="st45" d="M516.17,260.9c.61.08,1.83.22,2.44.29-.48,2.28,1.15,6.27-2.05,6.9-.22-2.39-.32-4.79-.39-7.19Z"/>
    <path class="st45" d="M516.24,269.1c1.01-1.51,3.46.24,2.31,1.67-1.02,1.53-3.49-.23-2.31-1.67Z"/>
  </g>
  <g id="_x23_fbe1bfff">
    <path class="st51" d="M206.44,279.55c7.46-.6,15.02.04,22.52-.29,34.69.05,69.37-.06,104.06.02,3.31-.36,6.69,2.27,6.81,5.67.26,4.57.54,9.22-.24,13.75-.86,2.75-3.78,4.32-6.56,4.1-40.34.07-80.68.01-121.01.01-2.7-.08-6.01.51-7.92-1.91-2.7-2.57-1.4-6.63-1.74-9.91-.08-4.03-.66-9.75,4.08-11.44Z"/>
  </g>
  <g id="_x23_d4d8daff">
    <path class="st24" d="M734.87,282.14c19.71.35,39.43-.06,59.14.04,22.77-.09,45.55.2,68.33-.06-.92,1.16-2.2,1.82-3.67,1.86-9.53.91-19.12.25-28.67.45-29.68-.11-59.35.03-89.03,0-2.34.24-4.43-.74-6.1-2.29Z"/>
    <path class="st24" d="M558.94,399.62c1.38,2.85,3.46,5.28,5.88,7.31,1.3.65,2.69,1.13,4.18,1.1,33.02.28,66.05-.08,99.07.14,12.28-.16,24.56-.57,36.84-.21l.77,1.19c-5.72,1.87-11.81,1.09-17.72,1.21-15.97.11-31.93-.03-47.9.1-2.58.01-5.12-.47-7.69-.49-7.77.88-15.58.2-23.38.43-6.45-.02-12.92.35-19.34-.48-6.86.72-13.75.44-20.63.51-4.89.17-10.02-3.93-10.59-8.79.12-.51.38-1.51.51-2.02Z"/>
  </g>
  <g id="_x23_f9faf8ff">
    <path class="st38" d="M148.16,283.81c5.98-3.22,13.97.75,15.59,7.21,1.3,3.41-.15,6.94-1.79,9.94-4.81-4.6-13.12-4.45-17.97,0-4-5.46-2.24-14.4,4.17-17.15M151.41,286.59c-3.14.92-3.94,5.42-1.52,7.53,2.27,2.32,6.69,1,7.49-2.08,1.06-3.38-2.68-6.91-5.97-5.45Z"/>
  </g>
  <g id="_x23_090707ff">
    <path class="st43" d="M151.41,286.59c3.29-1.46,7.03,2.07,5.97,5.45-.8,3.08-5.22,4.4-7.49,2.08-2.42-2.11-1.62-6.61,1.52-7.53Z"/>
  </g>
  <g id="_x23_b37673ff">
    <path class="st10" d="M536.52,304.77l1.16.59c.57,2.5.4,5.1.47,7.66-.02,12.67-.02,25.33.03,38,.11,3.16-1.17,6.26-3.37,8.52-2.61,1.73-5.67,2.66-8.81,2.51-46.02-.06-92.04,0-138.06-.04-4.17-.12-8.76.76-12.53-1.47-1.92-1.02-2.98-2.99-4.16-4.7l-.34-.52,1.17-1.08c1.3,3.79,4.8,6.57,8.91,6.33,49,.04,98.02,0,147.03,0,4.4.13,8.62-3.45,8.41-8.02.43-15.92-.22-31.86.09-47.78Z"/>
  </g>
  <g id="_x23_d5d8daff">
    <path class="st9" d="M166.85,312.99c3.26-1.59,5.78-4.35,6.9-7.82l.75,1.42c.18,3.28-2.19,6.41-4.79,8.28-2.44,1.99-5.75,1.45-8.67,1.54-37.68-.14-75.37.1-113.04-.12-3.72-.86-7.93,0-11.33-1.84-.11-.52-.32-1.56-.42-2.08.47.09,1.4.28,1.87.37.21.04.62.13.83.18,1.65.35,3.3.73,5,.8,35.34-.2,70.69-.02,106.04-.09,6.03-.05,12.1.3,18.11-.48l-1.25-.16Z"/>
  </g>
  <g id="_x23_0b0909ff">
    <path class="st34" d="M634.22,345.93c.35.16,1.05.47,1.39.62.27,2.63.12,5.28.17,7.92.81-.11,2.45-.33,3.26-.44-1.6,2.18-2.07,5.55-4.4,6.97-1.3-2.25-2.35-4.63-3.61-6.89.79.06,2.37.18,3.16.24-.07-2.81-.06-5.62.03-8.42Z"/>
  </g>
  <g id="_x23_dad5d4ff">
    <path class="st27" d="M371.25,355.84c1.18,1.71,2.24,3.68,4.16,4.7,3.77,2.23,8.36,1.35,12.53,1.47,46.02.04,92.04-.02,138.06.04,3.14.15,6.2-.78,8.81-2.51-.58,3.54-4.59,5.08-7.79,4.96-49.02-.11-98.06.03-147.08-.11-3.97-.55-9.67-3.97-8.69-8.55Z"/>
  </g>
  <g id="_x23_d5d9dcff">
    <path class="st42" d="M51.77,375.77c1.66-1.59,4.03-1.87,6.23-1.84,33.34-.19,66.68.04,100.03-.1,2.48.13,5.5-.28,7.32,1.84,3.1,2.97,2.37,7.59,2.38,11.46,0,.66,0,1.32,0,1.99-.06,3.62.82,7.86-1.84,10.83-1.6,2.14-4.47,2.25-6.91,2.33-33.65.08-67.31.01-100.96.05-2.23-.08-4.75-.23-6.34-2.01-2.9-2.9-1.93-7.43-2.17-11.13-4.47-.13-9.09-.75-13.4.81l-1.97.6c.73-1.62,2.09-2.74,3.88-2.87,3.78-.74,7.65-.85,11.47-1.21.38-3.57-.84-8.14,2.28-10.75Z"/>
    <path class="st42" d="M371.63,397.15c1.16-3.51,5.39-3.18,8.35-3.37,32.68,0,65.36.03,98.05-.01,3.08.2,7.8-.46,8.89,3.37.95,5.76.33,11.67.5,17.5-.04.39-.12,1.19-.16,1.58l-.81.15c-2.12.37-4.23.77-6.37.88-35.49.07-70.99-.07-106.47.06-.99-.21-1.86-.79-2.14-1.78.01-6.12-.74-12.31.16-18.38Z"/>
    <path class="st42" d="M374.08,439.02c6.59-1.16,13.34-.42,20.01-.64,28.3-.04,56.61.13,84.92-.04,1.95.07,3.99-.03,5.86.67,1.95.79,2.18,3.16,2.39,4.97.34,5.16-.04,10.35.14,15.52-.04,1.01-.77,1.83-1.78,1.97-36.2-.25-72.41-.02-108.62-.12-2.32.08-4.97-.77-5.53-3.33-.4-4.64-.09-9.31-.15-13.96-.07-1.95.57-4.56,2.76-5.04Z"/>
  </g>
  <g id="_x23_d4d6d7ff">
    <path class="st48" d="M167.73,387.13c52.08.14,104.17-.02,156.25.06,3.71.31,8.81-.52,10.94,3.36l-1.82-.58c-1.96-.73-4.05-1-6.12-1-53.08.16-106.17-.12-159.25.15,0-.67,0-1.33,0-1.99Z"/>
  </g>
  <g id="_x23_b7bbbbff">
    <path class="st18" d="M30.75,400.95c-.02-3.44-.06-7.37,2.79-9.83l-.6,2.02c-.98,2.83-1.05,5.87-.98,8.84.25,19.97-.3,39.97.27,59.93l.15,1.99-1.44-.68c-.45-20.74-.02-41.52-.19-62.27Z"/>
  </g>
  <g id="_x23_bcc0c1ff">
    <path class="st36" d="M336.72,393.19l1.18.81c.66,3.26.36,6.62.43,9.94-.07,19.01.09,38.03-.08,57.05.11,2.66-1.44,4.97-3.11,6.9-.65.05-1.95.15-2.59.2,2.46-2,4.78-4.62,4.44-8.03-.12-21.67.29-43.35-.17-65.01l-.1-1.86Z"/>
  </g>
  <g id="_x23_070505ff">
    <path class="st22" d="M51.41,417.57c3.06-2.17,6.26,2.93,3.37,4.97-3.12,2.82-6.87-3.05-3.37-4.97Z"/>
  </g>
  <g id="_x23_8a8a8dff">
    <path class="st17" d="M373.43,438.6c4.13-.89,8.41-.79,12.62-.84,22,.02,43.99.07,65.99-.01,8.29.65,16.59-.27,24.9.01,3.49.17,8.44-.89,10.36,2.94.72,2.64.51,5.43.63,8.15,80.16,0,160.33-.09,240.5.05-.04-1.21-.06-2.41-.05-3.61,2.72,1.44,5.49,2.81,8.25,4.21-2.42,2.06-5.39,3.22-8.2,4.62,0-.79-.01-2.37-.01-3.17-80.19-.03-160.37.06-240.56.06.09,2.83.09,5.69-.46,8.49-.18-5.17.2-10.36-.14-15.52-.21-1.81-.44-4.18-2.39-4.97-1.87-.7-3.91-.6-5.86-.67-28.31.17-56.62,0-84.92.04-6.67.22-13.42-.52-20.01.64-2.19.48-2.83,3.09-2.76,5.04.06,4.65-.25,9.32.15,13.96.56,2.56,3.21,3.41,5.53,3.33,36.21.1,72.42-.13,108.62.12-2.19.44-4.42.47-6.64.37-31.67-.04-63.34-.02-95.01-.02-3.48-.06-7.01.34-10.43-.37-4.16-2.32-2.64-7.6-2.85-11.46.31-3.79-1.3-9.09,2.74-11.39Z"/>
  </g>
  <g id="_x23_c2c5c6ff">
    <path class="st0" d="M34.65,467.71c-1.79.44-3.82-2.91-1.83-3.62,1.04,1.11,2.05,2.27,3.05,3.43-.3.05-.91.15-1.22.19Z"/>
  </g>
  <g id="_x23_d7dadcff">
    <path class="st40" d="M34.65,467.71c.31-.04.92-.14,1.22-.19,1.12.43,2.25.84,3.39,1.23-.29.14-.85.4-1.14.54,90.98.18,181.96-.04,272.94.1,6.58-.18,13.42,1.33,19.81-.77.42-.13,1.26-.4,1.68-.53.64-.05,1.94-.15,2.59-.2-2.57,4.72-8.44,4.93-13.15,4.48-7.62-1.07-15.28.98-22.9-.23-3.01-.68-6.02.54-9.02-.05-8.48-.97-17.03,1.39-25.47-.27-2.21-.31-4.37.47-6.57.56-2.73-.23-5.47-1.21-8.21-.48-2.94.83-5.94-.35-8.9.29-3,.59-5.92-.87-8.92-.44-6.84,1.14-13.83.87-20.69.11-4.11-.38-8.16,1.06-12.26.49-4.94-.85-9.9.44-14.81-.68-11.02,2.12-22.23-1.05-33.23.88-2.7-.12-5.37-1.18-8.08-.6-6.93,1.53-14-1.17-20.91.5-3.33-.03-6.65-.96-9.98-.18-8,0-16.07-.84-24.05.21-3.04.07-6.06-1.02-9.1-.31-3.01.65-6-.46-9.02-.13-6.59.71-13.23.24-19.85.42-4.61-.05-9.56.58-13.79-1.69-1.02-.52-2.71-1.76-1.58-3.06Z"/>
  </g>
  <g class="st5">
    <g class="st5">
      <g class="st5">
        <text class="st6" transform="translate(82.54 155.42)"><tspan x="0" y="0">Input: </tspan><tspan x="-14.98" y="18">User Query</tspan></text>
      </g>
    </g>
  </g>
  <g class="st5">
    <g class="st5">
      <g class="st5">
        <text class="st6" transform="translate(208.73 162.91)"><tspan x="0" y="0">Risk Detection</tspan></text>
      </g>
    </g>
  </g>
  <g class="st5">
    <g class="st5">
      <g class="st5">
        <text class="st4" transform="translate(47.4 205.79)"><tspan x="0" y="0">User Query</tspan></text>
      </g>
    </g>
  </g>
  <g class="st5">
    <g class="st5">
      <g class="st5">
        <text class="st4" transform="translate(204.3 199.86)"><tspan x="0" y="0">Classification</tspan></text>
      </g>
    </g>
  </g>
  <g class="st5">
    <g class="st5">
      <g class="st5">
        <text class="st3" transform="translate(43.11 242.52)"><tspan x="0" y="0">How do I register a legal</tspan><tspan x="0" y="14.4">charity in New York for </tspan><tspan x="0" y="28.8">an environmental </tspan><tspan x="0" y="43.2">non-profit?</tspan></text>
      </g>
    </g>
  </g>
  <g class="st5">
    <g class="st5">
      <g class="st5">
        <text class="st1" transform="translate(208.5 225.54)"><tspan x="0" y="0">insufficient information</tspan></text>
      </g>
    </g>
  </g>
  <g class="st5">
    <g class="st5">
      <g class="st5">
        <text class="st1" transform="translate(209.56 262.27)"><tspan x="0" y="0">case-specific judgment</tspan></text>
      </g>
    </g>
  </g>
  <g class="st5">
    <g class="st5">
      <g class="st5">
        <text class="st1" transform="translate(210.6 296.73)"><tspan x="0" y="0">high-risk advice</tspan></text>
      </g>
    </g>
  </g>
  <g class="st5">
    <g class="st5">
      <g class="st5">
        <text class="st4" transform="translate(70.03 394.04)"><tspan x="0" y="0">Key Insight</tspan></text>
      </g>
    </g>
  </g>
  <g class="st5">
    <g class="st5">
      <g class="st5">
        <text class="st4" transform="translate(62.34 425.4)"><tspan x="0" y="0">Refusal is a learned behavior</tspan></text>
      </g>
    </g>
  </g>
  <g class="st5">
    <g class="st5">
      <g class="st5">
        <text class="st4" transform="translate(62.22 449.89)"><tspan x="0" y="0">Not answering is part of capability</tspan></text>
      </g>
    </g>
  </g>
  <g class="st5">
    <g class="st5">
      <g class="st5">
        <text class="st6" transform="translate(404.05 123.03)"><tspan x="0" y="0">Low-risk Path</tspan></text>
      </g>
    </g>
  </g>
  <g class="st5">
    <g class="st5">
      <g class="st5">
        <text class="st4" transform="translate(379.09 158.32)"><tspan x="0" y="0">general legal information</tspan></text>
      </g>
    </g>
  </g>
  <g class="st5">
    <g class="st5">
      <g class="st5">
        <text class="st4" transform="translate(382.52 184.09)"><tspan x="0" y="0">→ normal SFT pipeline</tspan></text>
      </g>
    </g>
  </g>
  <g class="st5">
    <g class="st5">
      <g class="st5">
        <text class="st4" transform="translate(383.09 212.44)"><tspan x="0" y="0">→ structured answer</tspan></text>
      </g>
    </g>
  </g>
  <g class="st5">
    <g class="st5">
      <g class="st5">
        <text class="st6" transform="translate(401.4 272.37)"><tspan x="0" y="0">High-risk Path </tspan></text>
      </g>
    </g>
  </g>
  <g class="st5">
    <g class="st5">
      <g class="st5">
        <text class="st4" transform="translate(382.11 304.58)"><tspan x="0" y="0">case-specific / uncertain </tspan><tspan x="44.13" y="18">/ sensitive</tspan></text>
      </g>
    </g>
  </g>
  <g class="st5">
    <g class="st5">
      <g class="st5">
        <text class="st4" transform="translate(382.31 347.74)"><tspan x="0" y="0">→ go to refusal module</tspan></text>
      </g>
    </g>
  </g>
  <g class="st5">
    <g class="st5">
      <g class="st5">
        <text class="st4" transform="translate(384.69 411.18)"><tspan x="0" y="0">system prompt </tspan></text>
      </g>
    </g>
  </g>
  <g class="st5">
    <g class="st5">
      <g class="st5">
        <text class="st4" transform="translate(383.21 455.83)"><tspan x="0" y="0">training data </tspan></text>
      </g>
    </g>
  </g>
  <g class="st5">
    <g class="st5">
      <g class="st5">
        <text class="st4" transform="translate(592.84 119.79)"><tspan x="0" y="0">system prompt </tspan></text>
      </g>
    </g>
  </g>
  <g class="st5">
    <g class="st5">
      <g class="st5">
        <text class="st4" transform="translate(758.41 118.93)"><tspan x="0" y="0">weak control</tspan></text>
      </g>
    </g>
  </g>
  <g class="st5">
    <g class="st5">
      <g class="st5">
        <text class="st6" transform="translate(566.8 177.17)"><tspan x="0" y="0">Refusal Module</tspan></text>
      </g>
    </g>
  </g>
  <g class="st5">
    <g class="st5">
      <g class="st5">
        <text class="st1" transform="translate(571.75 223.72)"><tspan x="0" y="0">explain insufficient info</tspan></text>
      </g>
    </g>
  </g>
  <g class="st5">
    <g class="st5">
      <g class="st5">
        <text class="st1" transform="translate(573.02 253.8)"><tspan x="0" y="0">clarify boundaries</tspan></text>
      </g>
    </g>
  </g>
  <g class="st5">
    <g class="st5">
      <g class="st5">
        <text class="st1" transform="translate(574.05 283.36)"><tspan x="0" y="0">avoid definitive advice</tspan></text>
      </g>
    </g>
  </g>
  <g class="st5">
    <g class="st5">
      <g class="st5">
        <text class="st1" transform="translate(580.33 313.24)"><tspan x="0" y="0">suggest professional </tspan><tspan x="22.75" y="15.6">consultation</tspan></text>
      </g>
    </g>
  </g>
  <g class="st5">
    <g class="st5">
      <g class="st5">
        <text class="st4" transform="translate(594.39 377.95)"><tspan x="0" y="0">safe refusal /</tspan><tspan x="-33.53" y="18">boundary-aware answer</tspan></text>
      </g>
    </g>
  </g>
  <g class="st5">
    <g class="st5">
      <g class="st5">
        <text class="st4" transform="translate(742.37 456)"><tspan x="0" y="0">strong control</tspan></text>
      </g>
    </g>
  </g>
  <g class="st5">
    <g class="st5">
      <g class="st5">
        <text class="st6" transform="translate(765.79 178.77)"><tspan x="0" y="0">Optional:</tspan><tspan x="-30.42" y="18" xml:space="preserve"> Human Escalation</tspan></text>
      </g>
    </g>
  </g>
  <g class="st5">
    <g class="st5">
      <g class="st5">
        <text class="st4" transform="translate(763.37 247.75)"><tspan x="0" y="0">escalate to </tspan><tspan x="-7.71" y="18">human expert</tspan></text>
      </g>
    </g>
  </g>
  <g class="st5">
    <g class="st5">
      <g class="st5">
        <text class="st2" transform="translate(225.18 50.36)"><tspan x="0" y="0">Risk-aware Refusal Flow in Legal SFT</tspan></text>
      </g>
    </g>
  </g>
</svg>