<?xml version="1.0" encoding="UTF-8"?>
<svg id="_图层_1" data-name="图层_1" xmlns="http://www.w3.org/2000/svg" version="1.1" viewBox="0 0 900 503">
  <!-- Generator: Adobe Illustrator 29.6.0, SVG Export Plug-In . SVG Version: 2.1.1 Build 207)  -->
  <defs>
    <style>
      .st0 {
        letter-spacing: .5em;
      }

      .st1 {
        fill: #70797d;
      }

      .st2 {
        fill: #9da0a2;
      }

      .st3 {
        font-size: 30px;
      }

      .st3, .st4, .st5, .st6, .st7, .st8 {
        isolation: isolate;
      }

      .st3, .st8 {
        font-family: TimesNewRomanPS-BoldMT, 'Times New Roman';
        font-weight: 700;
      }

      .st9 {
        fill: #5b6c75;
      }

      .st4 {
        font-size: 18px;
      }

      .st4, .st5, .st6 {
        font-family: TimesNewRomanPSMT, 'Times New Roman';
      }

      .st10 {
        fill: #628ba3;
      }

      .st5, .st8 {
        font-size: 20px;
      }

      .st11 {
        fill: #8a827f;
      }

      .st12 {
        fill: #bd7963;
      }

      .st6 {
        font-size: 15px;
      }

      .st13 {
        fill: #eff1f5;
      }

      .st14 {
        fill: #818283;
      }

      .st15 {
        fill: #6b6f71;
      }

      .st16 {
        fill: #eef1f5;
      }

      .st17 {
        fill: #929292;
      }

      .st18 {
        fill: #9d9e9f;
      }

      .st19 {
        fill: #d57b5e;
      }

      .st20 {
        fill: #6ca979;
      }

      .st21 {
        fill: #989999;
      }

      .st22 {
        fill: #f6cd5e;
      }

      .st23 {
        fill: #99999e;
      }

      .st24 {
        fill: #9570a4;
      }

      .st25 {
        fill: #eff1f6;
      }

      .st26 {
        fill: #818c92;
      }

      .st27 {
        fill: #828c92;
      }

      .st28 {
        fill: #494130;
      }

      .st29 {
        fill: #514632;
      }

      .st30 {
        fill: #828c97;
      }

      .st31 {
        fill: #5881a2;
      }

      .st32 {
        fill: #8f9091;
      }
    </style>
  </defs>
  <g id="_x23_eef1f5ff">
    <path class="st16" d="M0,3.24h900v503H0V3.24M390.08,96.68c-.14,5.49-.11,10.98.02,16.46,5.85.11,11.75.5,17.57-.08l.61-.84c-5.63-.12-11.26.08-16.89-.27-.12-4.83.34-9.7-.21-14.5l-1.1-.77M837.09,97.09c-.02,5.38-.05,10.75.02,16.12,6.05.22,12.11.21,18.16-.03l-.68-.84c-5.41-.38-10.85.09-16.26-.3.05-4.97-.07-9.93-.14-14.9l-1.1-.05M851.19,97.07c-.55,1.68-1.32,3.76-3.26,4.18-.85-.51-1.67-1.06-2.45-1.64-1.73,1.53-4.31,2.58-4.78,5.08,1.72-.7,3.15-1.89,4.46-3.19,1.98,2.24,4.57.91,6.21-.96.66-.07,1.98-.21,2.64-.28-.01-.79-.02-2.37-.03-3.16-.7-.01-2.09-.02-2.79-.03M404.23,98.57c-.13,3.9-.1,7.8-.09,11.71.65-.04,1.96-.13,2.61-.17-.04-3.83-.06-7.66-.11-11.48-.6-.02-1.81-.05-2.41-.06M397.08,100.23c-.04,3.34-.07,6.68-.12,10.03.57.03,1.69.09,2.26.12.15-3.37.18-6.74.05-10.11-.54-.01-1.64-.03-2.19-.04M850.29,102.46c-.02,2.61-.03,5.21-.08,7.82,1.21.03,2.44.06,3.67.1-.02-2.66-.04-5.3-.08-7.95-1.18,0-2.35.02-3.51.03M400.29,104.26c.07,1.94.09,3.89.09,5.83l2.48.28c0-2.12.01-4.25.04-6.38-.65.07-1.95.2-2.61.27M845.1,104.91c0,1.84,0,3.67,0,5.5,1.25-.02,2.52-.05,3.79-.09-.06-1.92-.17-3.85-.43-5.75-.84.08-2.51.26-3.35.34M393.06,105.93c.01,1.45.03,2.91.06,4.36.69,0,2.06,0,2.75,0,.02-1.44.05-2.87.08-4.31-.72-.02-2.17-.04-2.89-.06M839.98,106.13c-.01,1.44-.01,2.88,0,4.32,1.27-.07,2.55-.14,3.85-.2-.04-1.28-.07-2.55-.09-3.82-1.26-.11-2.51-.21-3.76-.3M87.52,134.12c.03,1.55.07,3.1.12,4.66-.52.35-1.55,1.05-2.07,1.41.48.21,1.42.63,1.9.84.31,11.64-.1,23.3.2,34.95-.75.14-2.25.43-3,.57.99.44,2,.8,3.05,1.08-.25,11.76-.21,23.53-.03,35.29-1.06.16-2.06.51-2.99,1.04.74.14,2.23.42,2.97.56-.19,11.79-.11,23.58-.04,35.37-.66.1-1.97.31-2.63.42v.87c.67.05,2.03.16,2.71.22-.34,11.84.05,23.69-.04,35.54-.67.09-2,.28-2.67.38v.82c.66.08,2.01.24,2.68.32-.2,11.81-.15,23.62-.03,35.43-.66.08-1.99.24-2.65.32v.86c.67.09,1.99.29,2.66.38-.2,11.54-.01,23.09-.09,34.63-.92.58-2.07.85-2.77,1.76,18.82.66,37.69-.04,56.53.36-.02,1.16.46,1.96,1.45,2.41.1-.6.31-1.8.41-2.41,35.33-.02,70.66.01,105.99.04,0,.51-.04,1.52-.05,2.03.41-.01,1.23-.05,1.63-.06-.03-.49-.11-1.48-.14-1.97,34.88-.14,69.77.2,104.65-.17.43.07,1.3.2,1.73.27v1.93l1.07-.04c.08-.46.26-1.39.35-1.85,17.98-.43,36.02-.18,54.03-.2-.2-.37-.58-1.11-.78-1.48-4.51-.45-9.07.49-13.57-.25.15-63.43.06-126.86.06-190.3-24.04-.01-48.09,0-72.13,0-2.89-.04-5.78-.09-8.65.24.08,2,.13,4.01.14,6.01-9.06.38-18.13.21-27.19.12-.04-2.01-.02-4.02.04-6.03l-.31-.21c-26.74-.36-53.49.03-80.23-.19-.1,2.16-.14,4.31-.14,6.47-9.06-.01-18.13.27-27.18-.16.02-2.02.06-4.04.12-6.05-26.88-.45-53.77-.1-80.66-.17.01,63.44-.12,126.89.02,190.34-4.28.43-8.58.12-12.87.35-.3-75.57-.06-151.14-.12-226.72l-1.48-.03M514.89,141.71c.84.31,1.69.63,2.54.95.06,17.63,0,35.26-.01,52.89-.56.32-1.67.97-2.23,1.29.57.21,1.72.63,2.29.84-.1,17.37,0,34.75-.06,52.13-.78.65-1.54,1.31-2.28,1.99.59.22,1.76.66,2.35.88-.06,17.37-.1,34.75.01,52.12-.89.57-1.75,1.15-2.6,1.77.66.25,1.98.75,2.64,1.01-.22,17.37-.08,34.74-.09,52.11-.66.79-1.32,1.58-1.96,2.38,12.08.38,24.17.07,36.26.17.08.45.23,1.36.31,1.81l.9.66c.02-.62.05-1.85.07-2.47h66.97c0,.57.01,1.71.02,2.28,1.32-.15,1.95-.91,1.87-2.28,22.22.1,44.46-.25,66.66.16.08.46.23,1.37.3,1.83l1.15.06v-2.05c22.33-.01,44.65-.04,66.98,0-.05.5-.17,1.5-.23,2l1.25.08c0-.52.01-1.56.01-2.08,22.33-.02,44.66-.01,66.99,0v2h.99c.02-.5.05-1.5.07-2,11.52-.01,23.03.02,34.55-.02l-.39-1.29c-2.87-.48-5.79-.3-8.66-.42-.05-1.92-.08-3.84-.2-5.75-17.12.07-34.24-.15-51.36.1,0,1.89-.01,3.78,0,5.68-5.67.1-11.35.46-17.01-.07.07-4.45,0-8.9-.06-13.35-16.99.04-33.98-.18-50.96.12-.1,4.42-.12,8.85,0,13.28-5.77.38-11.54.22-17.31.1.03-15.37.02-30.73.03-46.1-17.05.12-34.11-.21-51.15.17.39,15.3-.1,30.61.25,45.91-5.67.16-11.35.24-17.01,0-.25-31.25.13-62.51-.19-93.75-10.85.49-21.71-.09-32.57.05-6.21-.11-12.43.27-18.64-.07-.25,31.26.07,62.53-.16,93.8-5.69.13-11.38.11-17.07.03.05-70.91.11-141.81.11-212.72-17.15-.08-34.3.01-51.44-.05.05,70.93-.01,141.85.06,212.78-2.63.04-5.26.01-7.88-.06-.01-75.58.02-151.17-.01-226.76-4.06.83.77,7.37-4.1,7.86M55.16,472.3c-1.56,3.2-4.01,6.11-4.28,9.79,5.73.22,11.46.18,17.18.02-1.21-6.24-5.2-11.57-8.23-17.06-2.42,1.75-3.22,4.77-4.67,7.25M549.23,465.13c-2.66,3.94-4.53,8.33-6.93,12.42-.88,1.37-1.2,2.96-1.42,4.55,5.77.08,11.54.03,17.31.15.75-2.34-1.28-4.27-2.1-6.28-2.25-3.62-3.52-8.03-6.86-10.84Z"/>
    <path class="st16" d="M182.5,324.91c9.06-.23,18.11,0,27.17-.15.06,11.92.15,23.85-.05,35.77-9.03.23-18.07-.26-27.09.23-.08-11.95,0-23.9-.03-35.85Z"/>
  </g>
  <g id="_x23_989999ff">
    <path class="st21" d="M390.08,93.44l1.1.77c.55,4.8.09,9.67.21,14.5,5.63.35,11.26.15,16.89.27l-.61.84c-5.82.58-11.72.19-17.57.08-.13-5.48-.16-10.97-.02-16.46Z"/>
  </g>
  <g id="_x23_929292ff">
    <path class="st17" d="M837.09,93.85l1.1.05c.07,4.97.19,9.93.14,14.9,5.41.39,10.85-.08,16.26.3l.68.84c-6.05.24-12.11.25-18.16.03-.07-5.37-.04-10.74-.02-16.12Z"/>
  </g>
  <g id="_x23_9d9e9fff">
    <path class="st18" d="M851.19,93.83c.7,0,2.09.02,2.79.03.01.79.02,2.37.03,3.16-.66.07-1.98.21-2.64.28-1.64,1.87-4.23,3.2-6.21.96-1.31,1.3-2.74,2.49-4.46,3.19.47-2.5,3.05-3.55,4.78-5.08.78.58,1.6,1.13,2.45,1.64,1.94-.42,2.71-2.5,3.26-4.18Z"/>
  </g>
  <g id="_x23_818c92ff">
    <path class="st26" d="M404.23,95.33c.6,0,1.81.04,2.41.06.05,3.82.07,7.65.11,11.48-.65.04-1.96.13-2.61.17-.01-3.91-.04-7.81.09-11.71Z"/>
    <path class="st26" d="M850.29,99.22c1.16-.01,2.33-.02,3.51-.03.04,2.65.06,5.29.08,7.95-1.23-.04-2.46-.07-3.67-.1.05-2.61.06-5.21.08-7.82Z"/>
  </g>
  <g id="_x23_8f9091ff">
    <path class="st32" d="M397.08,96.99c.55.01,1.65.03,2.19.04.13,3.37.1,6.74-.05,10.11-.57-.03-1.69-.09-2.26-.12.05-3.35.08-6.69.12-10.03Z"/>
  </g>
  <g id="_x23_828c92ff">
    <path class="st27" d="M400.29,101.02c.66-.07,1.96-.2,2.61-.27-.03,2.13-.04,4.26-.04,6.38l-2.48-.28c0-1.94-.02-3.89-.09-5.83Z"/>
  </g>
  <g id="_x23_828c97ff">
    <path class="st30" d="M845.1,101.67c.84-.08,2.51-.26,3.35-.34.26,1.9.37,3.83.43,5.75-1.27.04-2.54.07-3.79.09,0-1.83,0-3.66,0-5.5Z"/>
  </g>
  <g id="_x23_9da0a2ff">
    <path class="st2" d="M393.06,102.69c.72.02,2.17.04,2.89.06-.03,1.44-.06,2.87-.08,4.31-.69,0-2.06,0-2.75,0-.03-1.45-.05-2.91-.06-4.36Z"/>
  </g>
  <g id="_x23_99999eff">
    <path class="st23" d="M839.98,102.89c1.25.09,2.5.19,3.76.3.02,1.27.05,2.54.09,3.82-1.3.06-2.58.13-3.85.2-.01-1.44-.01-2.88,0-4.32Z"/>
    <path class="st23" d="M209.69,173.32c0-2.16.04-4.31.14-6.47.44,26.71.08,53.44.17,80.16,0,36.63,0,73.26,0,109.89v1.13c-9.16-.19-18.37.53-27.47-.51,9.02-.49,18.06,0,27.09-.23.2-11.92.11-23.85.05-35.77-9.06.16-18.11-.08-27.17.15v-.34c9.05.19,18.11.03,27.16.08.12-12.28.05-24.57.04-36.86-9.06.13-18.13-.05-27.19.1v-.29c9.05.12,18.1,0,27.16.09.09-12.31.07-24.62.02-36.93-9.06.18-18.13-.03-27.19.15v-.29c9.05.07,18.1-.05,27.15.05.13-12.28.08-24.55.07-36.82-9.07,0-18.15-.09-27.22.03v-.28c9.07.12,18.15-.05,27.23.13.12-12.35-.04-24.69.09-37.03-9.1.16-18.21.15-27.31,0v-.3c9.05.43,18.12.15,27.18.16Z"/>
    <path class="st23" d="M290.06,167.04l.31.21c-.06,2.01-.08,4.02-.04,6.03,9.06.09,18.13.26,27.19-.12v.32c-9.11.06-18.23.2-27.34-.06.16,12.34,0,24.68.13,37.02,8.53.02,17.07-.18,25.61.1-8.55.09-17.09.1-25.63,0-.05,12.32-.06,24.63-.02,36.94,9.07-.18,18.15,0,27.23-.15v.29c-9.06-.07-18.12.06-27.18-.04-.09,12.3-.09,24.6.03,36.89,9.05-.1,18.1,0,27.14-.09v.26c-9.05-.09-18.1,0-27.15-.03-.17,12.28-.07,24.56-.01,36.84,9.06-.05,18.11.06,27.16-.15v.36c-9.05-.24-18.11.04-27.16-.07-.06,11.9-.12,23.81.01,35.71,8.97.19,17.93-.13,26.89.16-9.04.65-18.14.73-27.2.58v-1.07c-.02-63.31-.15-126.62.03-189.92Z"/>
  </g>
  <g id="_x23_6b6f71ff">
    <path class="st15" d="M87.52,130.88l1.48.03c.06,75.58-.18,151.15.12,226.72,4.29-.23,8.59.08,12.87-.35,5.33-.54,10.68-.12,16.03-.22,18.66,0,37.31.1,55.97-.06,2.83-.07,5.67.03,8.47.52-1.41.51-2.88.91-4.39.88-11.58,0-23.17-.15-34.75-.06l-.13.62c-.1.61-.31,1.81-.41,2.41-.99-.45-1.47-1.25-1.45-2.41-18.84-.4-37.71.3-56.53-.36.7-.91,1.85-1.18,2.77-1.76.08-11.54-.11-23.09.09-34.63-.67-.09-1.99-.29-2.66-.38v-.86c.66-.08,1.99-.24,2.65-.32-.12-11.81-.17-23.62.03-35.43-.67-.08-2.02-.24-2.69-.32v-.82c.68-.1,2.01-.29,2.68-.38.09-11.85-.3-23.7.04-35.54-.68-.06-2.04-.17-2.72-.22v-.87c.67-.11,1.98-.32,2.64-.42-.07-11.79-.15-23.58.04-35.37-.74-.14-2.23-.42-2.97-.56.93-.53,1.93-.88,2.99-1.04-.18-11.76-.22-23.53.03-35.29-1.05-.28-2.06-.64-3.05-1.08.75-.14,2.25-.43,3-.57-.3-11.65.11-23.31-.2-34.95-.48-.21-1.42-.63-1.9-.84.52-.36,1.55-1.06,2.07-1.41-.05-1.56-.09-3.11-.12-4.66Z"/>
  </g>
  <g id="_x23_8a827fff">
    <path class="st11" d="M514.89,138.47c4.87-.49.04-7.03,4.1-7.86.03,75.59,0,151.18.01,226.76,2.62.07,5.25.1,7.88.06,17.09-.02,34.18.04,51.27,0,5.69.08,11.38.1,17.07-.03.23-31.27-.09-62.54.16-93.8,6.21.34,12.43-.04,18.64.07,10.86-.14,21.72.44,32.57-.05.32,31.24-.06,62.5.19,93.75,5.66.24,11.34.16,17.01,0,16.96.06,33.91-.04,50.87.02,5.77.12,11.54.28,17.31-.1,7.98-.6,15.99-.08,23.99-.26,9.01.16,18.03-.35,27.03.21,5.66.53,11.34.17,17.01.07,17.19-.18,34.37-.07,51.56-.03,2.87.12,5.79-.06,8.66.42l.39,1.29c-11.52.04-23.03,0-34.55.02-.02.5-.05,1.5-.07,2h-.99v-2c-22.33-.01-44.66-.02-66.99,0,0,.52-.01,1.56-.01,2.08l-1.25-.08c.06-.5.18-1.5.23-2-22.33-.04-44.65-.01-66.98,0v2.05l-1.15-.06c-.07-.46-.22-1.37-.3-1.83-22.2-.41-44.44-.06-66.66-.16.08,1.37-.55,2.13-1.87,2.28-.01-.57-.02-1.71-.02-2.28h-66.97c-.02.62-.05,1.85-.07,2.47l-.9-.66c-.08-.45-.23-1.36-.31-1.81-12.09-.1-24.18.21-36.26-.17.64-.8,1.3-1.59,1.96-2.38.01-17.37-.13-34.74.09-52.11-.66-.26-1.98-.76-2.64-1.01.85-.62,1.71-1.2,2.6-1.77-.11-17.37-.07-34.75-.01-52.12-.59-.22-1.76-.66-2.35-.88.74-.68,1.5-1.34,2.28-1.99.06-17.38-.04-34.76.06-52.13-.57-.21-1.72-.63-2.29-.84.56-.32,1.67-.97,2.23-1.29.01-17.63.07-35.26.01-52.89-.85-.32-1.7-.64-2.54-.95M595.76,264.09c-.29,31.03-.23,62.08-.04,93.12,16.83.15,33.69.31,50.51-.08.4-8.04.05-16.1.19-24.14-.12-22.98.17-45.95-.15-68.92-16.84,0-33.68-.06-50.51.02Z"/>
  </g>
  <g id="_x23_5881a2ff">
    <path class="st31" d="M526.82,144.65c17.14.06,34.29-.03,51.44.05,0,70.91-.06,141.81-.11,212.72-17.09.05-34.18-.01-51.27,0-.07-70.93-.01-141.85-.06-212.78Z"/>
  </g>
  <g id="_x23_628ba3ff">
    <path class="st10" d="M101.97,166.94c26.89.07,53.78-.28,80.66.17-.06,2.01-.1,4.03-.12,6.05v.3c-.04,12.3.02,24.6,0,36.9v.28c0,12.25,0,24.49,0,36.74v.29c0,12.23,0,24.46,0,36.69v.29c0,12.22,0,24.45,0,36.68v.34c.02,11.95-.05,23.9.03,35.85h-.07c-2.8-.49-5.64-.59-8.47-.52-18.66.16-37.31.06-55.97.06-5.35.1-10.7-.32-16.03.22-.14-63.45,0-126.9-.02-190.34Z"/>
    <path class="st10" d="M209.83,166.85c26.74.22,53.49-.17,80.23.19-.18,63.3-.05,126.61-.04,189.92-26.68-.21-53.35.14-80.02-.06,0-36.63,0-73.26,0-109.89-.09-26.72.27-53.45-.17-80.16Z"/>
    <path class="st10" d="M317.38,167.15c2.87-.33,5.76-.28,8.65-.24,24.04,0,48.09-.01,72.13,0,0,63.44.09,126.87-.06,190.3-4.34-.7-8.74-.32-13.1-.31-16.98-.08-33.95.09-50.93-.08-5.5.11-11.04-.34-16.49.59l-.35.04c.56-11.92.12-23.87.26-35.8v-.36c.02-12.22-.03-24.44,0-36.66v-.26c.01-12.25.01-24.5.01-36.76v-.29c.02-24.61-.04-49.23.02-73.84v-.32c0-2-.06-4.01-.14-6.01Z"/>
  </g>
  <g id="_x23_eff1f5ff">
    <path class="st13" d="M182.51,173.46c9.1.15,18.21.16,27.31,0-.13,12.34.03,24.68-.09,37.03-9.08-.18-18.16-.01-27.23-.13.03-12.3-.03-24.6,0-36.9Z"/>
  </g>
  <g id="_x23_eff1f6ff">
    <path class="st25" d="M290.18,173.42c9.11.26,18.23.12,27.34.06-.06,24.61,0,49.23-.02,73.84-9.08.14-18.16-.03-27.23.15-.04-12.31-.03-24.62.02-36.94,8.54.11,17.08.1,25.63,0-8.54-.28-17.08-.08-25.61-.1-.13-12.34.03-24.68-.13-37.02Z"/>
    <path class="st25" d="M182.5,210.64c9.07-.12,18.15-.02,27.22-.03,0,12.27.06,24.54-.07,36.82-9.05-.1-18.1.02-27.15-.05,0-12.25,0-24.49,0-36.74Z"/>
    <path class="st25" d="M182.5,247.67c9.06-.18,18.13.03,27.19-.15.05,12.31.07,24.62-.02,36.93-9.06-.09-18.11.03-27.16-.09,0-12.23,0-24.46,0-36.69Z"/>
    <path class="st25" d="M290.32,247.57c9.06.1,18.12-.03,27.18.04,0,12.26,0,24.51-.01,36.76-9.04.08-18.09-.01-27.14.09-.12-12.29-.12-24.59-.03-36.89Z"/>
    <path class="st25" d="M182.51,284.65c9.06-.15,18.13.03,27.19-.1.01,12.29.08,24.58-.04,36.86-9.05-.05-18.11.11-27.16-.08,0-12.23,0-24.46,0-36.68Z"/>
    <path class="st25" d="M290.34,284.6c9.05.03,18.1-.06,27.15.03-.03,12.22.02,24.44,0,36.66-9.05.21-18.1.1-27.16.15-.06-12.28-.16-24.56.01-36.84Z"/>
    <path class="st25" d="M290.33,321.58c9.05.11,18.11-.17,27.16.07-.14,11.93.3,23.88-.26,35.8-8.96-.29-17.92.03-26.89-.16-.13-11.9-.07-23.81-.01-35.71Z"/>
  </g>
  <g id="_x23_d57b5eff">
    <path class="st19" d="M595.76,264.09c16.83-.08,33.67-.02,50.51-.02.32,22.97.03,45.94.15,68.92-.14,8.04.21,16.1-.19,24.14-16.82.39-33.68.23-50.51.08-.19-31.04-.25-62.09.04-93.12Z"/>
  </g>
  <g id="_x23_6ca979ff">
    <path class="st20" d="M663.54,311.45c17.04-.38,34.1-.05,51.15-.17-.01,15.37,0,30.73-.03,46.1-16.96-.06-33.91.04-50.87-.02-.35-15.3.14-30.61-.25-45.91Z"/>
  </g>
  <g id="_x23_9570a4ff">
    <path class="st24" d="M731.97,344c16.98-.3,33.97-.08,50.96-.12.06,4.45.13,8.9.06,13.35-9-.56-18.02-.05-27.03-.21-8,.18-16.01-.34-23.99.26-.12-4.43-.1-8.86,0-13.28Z"/>
  </g>
  <g id="_x23_bd7963ff">
    <path class="st12" d="M800,351.62c17.12-.25,34.24-.03,51.36-.1.12,1.91.15,3.83.2,5.75-17.19-.04-34.37-.15-51.56.03-.01-1.9,0-3.79,0-5.68Z"/>
  </g>
  <g id="_x23_818283ff">
    <path class="st14" d="M182.46,357.52h.07c9.1,1.04,18.31.32,27.46.51,17.35.38,34.7-.28,52.04.2,9.33-.33,18.66-.16,28-.2,9.06.15,18.16.07,27.2-.58l.35-.04c1.1.52,2.25.84,3.45.97,11.4.23,22.88-.75,34.24.45-34.88.37-69.77.03-104.65.17.03.49.11,1.48.14,1.97-.4.01-1.22.05-1.63.06,0-.51.04-1.52.05-2.03-35.33-.03-70.66-.06-105.99-.04l.13-.62c11.58-.09,23.17.06,34.75.06,1.51.03,2.98-.37,4.39-.88Z"/>
  </g>
  <g id="_x23_5b6c75ff">
    <path class="st9" d="M210,356.9c26.67.2,53.34-.15,80.02.06v1.07c-9.33.04-18.66-.13-27.99.2-17.34-.48-34.69.18-52.04-.2v-1.13Z"/>
  </g>
  <g id="_x23_70797dff">
    <path class="st1" d="M317.58,357.41c5.45-.93,10.99-.48,16.49-.59,16.98.17,33.95,0,50.93.08,4.36,0,8.76-.39,13.1.31,4.5.74,9.06-.2,13.57.25.2.37.58,1.11.78,1.48-18.01.02-36.05-.23-54.03.2-.09.46-.27,1.39-.35,1.85l-1.07.04v-1.93c-.43-.07-1.3-.2-1.73-.27-11.36-1.2-22.84-.22-34.24-.45-1.2-.13-2.35-.45-3.45-.97Z"/>
  </g>
  <g id="_x23_f6cd5eff">
    <path class="st22" d="M55.16,469.06c1.45-2.48,2.25-5.5,4.67-7.25,3.03,5.49,7.02,10.82,8.23,17.06-5.72.16-11.45.2-17.18-.02.27-3.68,2.72-6.59,4.28-9.79M58.9,466.11c-.93,2.65-.3,5.53.58,8.11-.34.46-1.03,1.38-1.37,1.84.71.01,2.14.04,2.85.05-.31-.48-.93-1.45-1.24-1.93.52-1.37.83-2.78.94-4.22-.18-1.28.54-4.48-1.76-3.85Z"/>
    <path class="st22" d="M549.23,461.89c3.34,2.81,4.61,7.22,6.86,10.84.82,2.01,2.85,3.94,2.1,6.28-5.77-.12-11.54-.07-17.31-.15.22-1.59.54-3.18,1.42-4.55,2.4-4.09,4.27-8.48,6.93-12.42M548.74,465.93c-.3,2.82-.15,5.7.81,8.39-.35.39-1.05,1.17-1.4,1.56,1.98,1.45,3.46-.13,1.78-1.85.29-2.5,2.25-7.38-1.19-8.1Z"/>
  </g>
  <g id="_x23_514632ff">
    <path class="st29" d="M58.9,466.11c2.3-.63,1.58,2.57,1.76,3.85-.11,1.44-.42,2.85-.94,4.22.31.48.93,1.45,1.24,1.93-.71,0-2.14-.04-2.85-.05.34-.46,1.03-1.38,1.37-1.84-.88-2.58-1.51-5.46-.58-8.11Z"/>
  </g>
  <g id="_x23_494130ff">
    <path class="st28" d="M548.74,465.93c3.44.72,1.48,5.6,1.19,8.1,1.68,1.72.2,3.3-1.78,1.85.35-.39,1.05-1.17,1.4-1.56-.96-2.69-1.11-5.57-.81-8.39Z"/>
  </g>
  <g class="st7">
    <g class="st7">
      <text class="st3" transform="translate(267.23 50.66)"><tspan x="0" y="0">Task vs Domain Distribution</tspan></text>
    </g>
  </g>
  <g class="st7">
    <g class="st7">
      <text class="st5" transform="translate(147.01 109.5)"><tspan x="0" y="0">Task Distribution (Balanced)</tspan></text>
    </g>
  </g>
  <g class="st7">
    <g class="st7">
      <text class="st5" transform="translate(553.79 107.74)"><tspan x="0" y="0">Domain Distribution (Imbalanced)</tspan></text>
    </g>
  </g>
  <g class="st7">
    <g class="st7">
      <text class="st4" transform="translate(78.56 477.16)"><tspan x="0" y="0">model bias toward dominant domains</tspan></text>
    </g>
  </g>
  <g class="st7">
    <g class="st7">
      <text class="st6" transform="translate(121.39 376.04)"><tspan x="0" y="0">legal_qa</tspan></text>
    </g>
  </g>
  <g class="st7">
    <g class="st7">
      <text class="st6" transform="translate(196.56 374.88)"><tspan x="0" y="0">statute_explanation</tspan></text>
    </g>
  </g>
  <g class="st7">
    <g class="st7">
      <text class="st6" transform="translate(326.44 376.11)"><tspan x="0" y="0">case_analysis</tspan></text>
    </g>
  </g>
  <g class="st7">
    <g class="st7">
      <text class="st6" transform="translate(519.75 379.29)"><tspan x="0" y="0">Civil Law</tspan></text>
    </g>
  </g>
  <g class="st7">
    <g class="st7">
      <text class="st6" transform="translate(591.91 375.64)"><tspan x="0" y="0">Criminal </tspan><tspan x="15.21" y="18">Law</tspan></text>
    </g>
  </g>
  <g class="st7">
    <g class="st7">
      <text class="st6" transform="translate(663.46 375.75)"><tspan x="0" y="0">Company </tspan><tspan x="17.71" y="18">Law</tspan></text>
    </g>
  </g>
  <g class="st7">
    <g class="st7">
      <text class="st6" transform="translate(747.44 379.3)"><tspan x="0" y="0">Civil </tspan><tspan x="-19.12" y="18">Procedure</tspan><tspan class="st0" x="41.68" y="18">	</tspan></text>
    </g>
  </g>
  <g class="st7">
    <g class="st7">
      <text class="st6" transform="translate(801.85 377.29)"><tspan x="0" y="0">Labor Law</tspan></text>
    </g>
  </g>
  <g class="st7">
    <g class="st7">
      <text class="st4" transform="translate(579.5 417.7)"><tspan x="0" y="0">Imbalanced Domain Coverage</tspan></text>
    </g>
  </g>
  <g class="st7">
    <g class="st7">
      <text class="st4" transform="translate(156.42 416.8)"><tspan x="0" y="0">Balanced Task Distribution</tspan></text>
    </g>
  </g>
  <g class="st7">
    <g class="st7">
      <text class="st8" transform="translate(288.8 450.66)"><tspan x="0" y="0">Balanced Tasks ≠ Balanced Knowledge</tspan></text>
    </g>
  </g>
  <g class="st7">
    <g class="st7">
      <text class="st4" transform="translate(569.24 476.45)"><tspan x="0" y="0">uneven coverage affects generalization</tspan></text>
    </g>
  </g>
  <g class="st7">
    <g class="st7">
      <text class="st6" transform="translate(62.12 324.88)"><tspan x="0" y="0">500</tspan></text>
    </g>
  </g>
  <g class="st7">
    <g class="st7">
      <text class="st6" transform="translate(74.02 359.12)"><tspan x="0" y="0">0</tspan></text>
    </g>
  </g>
  <g class="st7">
    <g class="st7">
      <text class="st6" transform="translate(51.96 289.77)"><tspan x="0" y="0">1000</tspan></text>
    </g>
  </g>
  <g class="st7">
    <g class="st7">
      <text class="st6" transform="translate(53.45 247.93)"><tspan x="0" y="0">1500</tspan></text>
    </g>
  </g>
  <g class="st7">
    <g class="st7">
      <text class="st6" transform="translate(55.36 214.8)"><tspan x="0" y="0">2000</tspan></text>
    </g>
  </g>
  <g class="st7">
    <g class="st7">
      <text class="st6" transform="translate(54.05 176.97)"><tspan x="0" y="0">2500</tspan></text>
    </g>
  </g>
  <g class="st7">
    <g class="st7">
      <text class="st6" transform="translate(51.72 141.29)"><tspan x="0" y="0">3000</tspan></text>
    </g>
  </g>
  <g class="st7">
    <g class="st7">
      <text class="st6" transform="translate(504.94 362.23)"><tspan x="0" y="0">0</tspan></text>
    </g>
  </g>
  <g class="st7">
    <g class="st7">
      <text class="st6" transform="translate(484.96 308.37)"><tspan x="0" y="0">1000</tspan></text>
    </g>
  </g>
  <g class="st7">
    <g class="st7">
      <text class="st6" transform="translate(484.23 254.45)"><tspan x="0" y="0">2000</tspan></text>
    </g>
  </g>
  <g class="st7">
    <g class="st7">
      <text class="st6" transform="translate(484.33 199.27)"><tspan x="0" y="0">3000</tspan></text>
    </g>
  </g>
  <g class="st7">
    <g class="st7">
      <text class="st6" transform="translate(483.41 145.13)"><tspan x="0" y="0">4000</tspan></text>
    </g>
  </g>
  <g class="st7">
    <g class="st7">
      <text class="st6" transform="translate(124.3 163.47)"><tspan x="0" y="0">2577</tspan></text>
    </g>
  </g>
  <g class="st7">
    <g class="st7">
      <text class="st6" transform="translate(228.35 163.04)"><tspan x="0" y="0">2577</tspan></text>
    </g>
  </g>
  <g class="st7">
    <g class="st7">
      <text class="st6" transform="translate(337.19 163.04)"><tspan x="0" y="0">2577</tspan></text>
    </g>
  </g>
  <g class="st7">
    <g class="st7">
      <text class="st6" transform="translate(536.97 142.98)"><tspan x="0" y="0">3882</tspan></text>
    </g>
  </g>
  <g class="st7">
    <g class="st7">
      <text class="st6" transform="translate(605.11 261.53)"><tspan x="0" y="0">1710</tspan></text>
    </g>
  </g>
  <g class="st7">
    <g class="st7">
      <text class="st6" transform="translate(678.39 308.84)"><tspan x="0" y="0">855</tspan></text>
    </g>
  </g>
  <g class="st7">
    <g class="st7">
      <text class="st6" transform="translate(743.78 342.83)"><tspan x="0" y="0">263</tspan></text>
    </g>
  </g>
  <g class="st7">
    <g class="st7">
      <text class="st6" transform="translate(818.74 351.47)"><tspan x="0" y="0">54</tspan></text>
    </g>
  </g>
</svg>