<?xml version="1.0" encoding="UTF-8"?>
<svg id="_图层_1" data-name="图层_1" xmlns="http://www.w3.org/2000/svg" version="1.1" viewBox="0 0 1377 768">
  <!-- Generator: Adobe Illustrator 29.6.0, SVG Export Plug-In . SVG Version: 2.1.1 Build 207)  -->
  <defs>
    <style>
      .st0 {
        fill: #4ea15f;
      }

      .st1 {
        fill: #4e9a5e;
      }

      .st2 {
        fill: #c56962;
      }

      .st3 {
        fill: #d1b9ba;
      }

      .st4, .st5, .st6, .st7, .st8 {
        font-family: TimesNewRomanPS-BoldMT, 'Times New Roman';
        font-weight: 700;
      }

      .st4, .st5, .st9, .st8 {
        font-size: 21px;
      }

      .st10 {
        fill: #e0a153;
      }

      .st11 {
        fill: #feecd4;
      }

      .st12 {
        fill: #d8eddf;
      }

      .st13 {
        fill: #868489;
      }

      .st14 {
        fill: #dcfde5;
      }

      .st15 {
        fill: #818186;
      }

      .st16 {
        fill: #c5d5ee;
      }

      .st17, .st5 {
        fill: #fff;
      }

      .st18 {
        fill: #c9605a;
      }

      .st19 {
        fill: #e5fdff;
      }

      .st20 {
        fill: #c36761;
      }

      .st21 {
        fill: #9357a6;
      }

      .st22 {
        fill: #f59b2c;
      }

      .st23 {
        fill: #7c4a8e;
      }

      .st24 {
        fill: #d3abab;
      }

      .st25 {
        fill: #50a15f;
      }

      .st26 {
        fill: #e14c3e;
      }

      .st27 {
        fill: #b2b1b1;
      }

      .st28 {
        fill: #848388;
      }

      .st29 {
        fill: #c46963;
      }

      .st30 {
        fill: #86858a;
      }

      .st31 {
        fill: #e4ffed;
      }

      .st32 {
        fill: #c1ddc6;
      }

      .st33 {
        fill: #818086;
      }

      .st34 {
        fill: #4072b6;
      }

      .st35 {
        fill: #467fcf;
      }

      .st36 {
        fill: #fff4cc;
      }

      .st37 {
        fill: #825596;
      }

      .st38 {
        fill: #468c54;
      }

      .st39 {
        fill: #f1b8b1;
      }

      .st40, .st5, .st6, .st9, .st41, .st8 {
        isolation: isolate;
      }

      .st42 {
        fill: #e79738;
      }

      .st43 {
        fill: #957ca0;
      }

      .st44 {
        fill: #b0b0b0;
      }

      .st45 {
        fill: #e04c40;
      }

      .st46 {
        fill: #eefcf3;
      }

      .st47 {
        fill: #ffe9e5;
      }

      .st48 {
        fill: #e9dced;
      }

      .st49 {
        fill: #d5b4b1;
      }

      .st50 {
        fill: #858489;
      }

      .st51 {
        fill: #b1b1af;
      }

      .st52 {
        fill: #e6993d;
      }

      .st53 {
        fill: #fad8ad;
      }

      .st54 {
        fill: #d6f5ff;
      }

      .st55 {
        fill: #497bc0;
      }

      .st56 {
        fill: #b2b1b0;
      }

      .st57 {
        fill: #e99c3c;
      }

      .st58 {
        fill: #bf4439;
      }

      .st59, .st41 {
        font-size: 19px;
      }

      .st60 {
        fill: #dcfee4;
      }

      .st61 {
        fill: #b4b3b3;
      }

      .st62 {
        fill: #e1fdeb;
      }

      .st63 {
        fill: #bf5a52;
      }

      .st64 {
        fill: #d78b27;
      }

      .st65 {
        fill: #cfcfcf;
      }

      .st66 {
        fill: #e3e9f6;
      }

      .st6 {
        font-size: 39px;
      }

      .st67 {
        fill: #9357a8;
      }

      .st9, .st68 {
        font-family: TimesNewRomanPSMT, 'Times New Roman';
      }

      .st69 {
        fill: #fff4ff;
      }

      .st70 {
        fill: #c5c3c0;
      }

      .st71 {
        fill: #4880d3;
      }

      .st72 {
        fill: #828287;
      }

      .st73 {
        fill: #85529e;
      }

      .st74 {
        fill: #817f85;
      }

      .st75 {
        fill: #f69b29;
      }

      .st76 {
        fill: #d4bbd9;
      }

      .st77 {
        fill: #f7dad7;
      }

      .st78 {
        fill: #e5fafe;
      }

      .st79 {
        fill: #dafce3;
      }

      .st80 {
        fill: #8d59a3;
      }

      .st81 {
        fill: #5680b8;
      }

      .st82 {
        fill: #88629a;
      }

      .st83 {
        fill: #e5fcff;
      }
    </style>
  </defs>
  <g id="_x23_cfcfcfff">
    <path class="st65" d="M0,0h1377v768H0V0M134.96,182.91c-.82,5.43-.2,10.94-.37,16.41-23.72.13-47.45-.16-71.17.15.04,1,.11,3.01.15,4.02,23.66.24,47.33-.18,70.99.16-.04,7.33-.05,14.66,0,21.99-20.26.24-40.53-.15-60.78.31-5.25.34-9.61,5.01-10.22,10.13-.31,2.61-.27,5.23-.27,7.85,0,29.42-.07,58.84.13,88.26,0,2.74-.09,5.48-.15,8.23-2.14,2.39-1.07,5.67-1.18,8.54-.55,26.99-.42,54,0,80.99-.39,6.34-.47,12.68-.37,19.03-.02,55.34-.02,110.67-.03,166.01.48,5.22,1.09,11.26,5.26,14.97,2.37,2.33,5.93,2.24,9.01,2.48,63.7.11,127.4-.07,191.1.03,4.59-.13,10.11.93,13.7-2.67,3.09-3.57,5.45-8.13,5.53-12.93l-1.14.78c-.4-24.21-.02-48.42-.16-72.63.12-7.74-.37-15.5.32-23.22,1.03-9.55.15-19.18.44-28.77-.22-8.04.49-16.12-.46-24.12-.67-10.61-.12-21.26-.29-31.88-.07-34.98.12-69.95-.1-104.92l.69-.02c-.28-14.45.01-28.9-.12-43.36,7.14-.05,14.28.04,21.42.06,0,1.97,0,3.95.03,5.94,3.14-1.74,6.25-3.51,9.35-5.32.51,5.86.82,11.74.92,17.62.22,6.71-1.6,13.41-.36,20.1.97,5.25.48,10.61,1.02,15.91,1.03,8.88-.7,17.76-.19,26.67.91,13.73.62,27.51.33,41.26-.72,7.34.43,14.69.16,22.04-.27,10.34.66,20.69-.22,31.01-.3,21.85.13,43.74-.42,65.61.39,12.24.29,24.49-.05,36.73.5,7.76-.33,15.54.19,23.31.62,9.67.74,19.38.17,29.05.08,5.64,2.75,11.85,8.14,14.29,2.84,1.34,5.96,2.42,9.15,2.19,9.95-.52,19.93-.68,29.9-.21,6.98.45,13.96-.46,20.95-.07,5.38.26,10.65-1.44,16.03-.86,9.33.84,18.66-.98,27.98.13,23,.11,46.01-.02,69.02.06,3.38-.03,7.14.61,9.98-1.76,6.02.41,12.06.09,18.1.33,4.41.07,9.71-.25,12.58-4.11,2.63-4.07,4.71-8.77,4.76-13.7-.07-53,.01-106.01-.09-159.02-.46-12.66-.11-25.32-.18-37.98-.72-7.32.29-14.65-.15-21.97.7-18.12-.34-36.26.54-54.38.2-3.39.17-6.8-.41-10.15l-1.1,1.8.11-.96c.52-14.48.4-29,.12-43.49,7.01-.34,14.02-.04,21.04-.08,0,2.01.01,4.02.03,6.03,4.72-2.68,9.31-5.59,14.18-7.98.1,15.1-.16,30.21.09,45.31.24,45.65-.17,91.3.16,136.94-1.17,1.12-.59,3.37-.88,4.92-.01,15.93.1,31.86.25,47.79h.78c-.13,28.41.11,56.84-.02,85.26,0,4.75-.23,9.61,1.08,14.24-2.15-.78-.78,2.04-.27,2.86,2.13,4.68,6.62,8.44,11.96,8.37,62.46-.13,124.93-.09,187.4-.04,5.27-.24,11.51,1.35,15.82-2.59,2.44-2.13,5.98-5.26,3.64-8.69,2.02-5.85,1.13-12.13,1.26-18.19.02-27.05-.18-54.1.16-81.14.53-7.63.14-15.28.22-22.92-.09-10.01.29-20.03-.14-30.04-.08-21.95-.04-43.9-.04-65.85.14-23.62-.29-47.25.16-70.87.35-14.47.17-28.96.15-43.44,7.16-.14,14.32-.02,21.48.1,0,1.99,0,3.98.03,5.97,4.18-2.59,8.77-4.59,12.62-7.66-.1,11.28.16,22.57-.05,33.85,0,3.58-.51,7.43,1.49,10.64v.54c.38,30.28.04,60.57.16,90.86-.22,15.36.43,30.75-.33,46.1-.13-2.12-.7-4.18-1.17-6.23-.44,47.04-.08,94.09-.22,141.13-.4,7.53-1.26,15.82,3.18,22.43,2.85,5.08,9,7.18,14.57,6.73,9.63-.84,19.3-.4,28.96-.51,8.31.16,16.64-.4,24.93.38,4.68.45,9.37-.03,14.06-.18,36.33-.78,72.67.84,109-.23,5.34-.16,10.68.28,16.02.26,5.29-.04,10.95-2.99,12.44-8.38,2.93-9.54,1.62-19.66,1.62-29.45.52-6.36-.81-12.7-.21-19.05.78-10,.57-20.04.01-30.04.41-21.66.5-43.35.4-65.03.32-10.65-.83-21.27-.6-31.92-.01-32.69.03-65.38.01-98.07.09-7.35,1.71-14.67.89-22.03-.39-6.3-.16-12.59.42-18.86.75-7.15-.84-14.24-.92-21.38,6.78-.06,13.56-.03,20.35.11-.02,2.02-.02,4.04-.01,6.07,3.56-2.14,7.1-4.34,10.63-6.55.73,5.56,1.7,11.09,2.13,16.68-.4,8.3-1.88,16.69-.38,24.97.8,4.63.71,9.35.44,14.03-1.13,14.64.08,29.31-.29,43.97-.45,23.68-.1,47.38.05,71.06-.73,25.95-.08,51.92-.4,77.88.31,26.14-.19,52.28.02,78.41.11,1.25,1,2.19,1.59,3.28v-1.87c.36,1.54.93,3.04,1.61,4.48l-1.27-.41c.43,6.76,6.88,11.57,13.38,11.57,61.68.1,123.38-.02,185.07.09,5.92-.18,12.66,1.18,17.71-2.77,3.05-2.39,6.28-6.42,4.78-10.52.61-7.39.14-14.81.29-22.21.18-24.1-.3-48.22.24-72.31.48-6.9.23-13.83.31-20.74-.12-11.65.23-23.32-.33-34.97.13-45.58-.27-91.18.21-136.76.31-4.39.24-8.79.22-13.18-.04-27.02.05-54.05-.04-81.07.31-6.25-4.95-12.24-11.32-12.2-19.57-.25-39.18.4-58.74-.33-.47.19-1.39.57-1.86.76.18-7.81-.14-15.62.06-23.43v.95c19.27-.35,38.54-.03,57.81-.14.01,1.86.05,3.72.1,5.58,4.68-2.5,9.26-5.21,13.9-7.8-4.42-2.89-9.08-5.37-13.84-7.62-.02,1.89-.02,3.78,0,5.67-19.33-.22-38.66.07-57.98-.15-.16-5.49.39-11.01-.36-16.46-1.52-8.46-9.57-14.88-18.14-14.76-13.68-.26-27.4-.36-41.08.17-6.08.04-12,3.13-15.42,8.18-4.93,6.54-2.75,15.2-3.08,22.77-21.78.44-43.59.07-65.38.18-37.94.02-75.89-.03-113.82,0-.11-7.53,1.31-15.84-2.95-22.57-3.39-5.58-9.81-8.69-16.22-8.84-11.02-.24-22.03-.03-33.05-.08-5.38.05-11.04-.21-16.04,2.11-5.43,2.33-9.58,7.54-10.31,13.43-.38,5.29-.09,10.61-.1,15.91-59.71,0-119.43.19-179.14-.06-.59-7.76,1.41-16.43-3.2-23.31-3.43-5.4-10-7.79-16.18-7.77-13.35-.08-26.72-.32-40.07,0-6.88.05-13.84,3.71-16.87,10.05-3.13,6.57-1.47,14.09-1.73,21.09-59.96.08-119.92.07-179.88-.03.14-5.76.34-11.56-.25-17.3-1.52-7.89-9.23-13.87-17.24-13.58-14.33-.04-28.66-.11-42.98-.03-9.02-.15-17,7.82-17.47,16.7-.21,4.64.03,9.28.02,13.91-10.5.73-21.04.12-31.56.36-49.4-.02-98.81.13-148.21-.09.1-5.96-.49-11.96.45-17.88-.23.03-.7.1-.93.13l.24-.32c-1.47-3.25-3.06-6.65-5.95-8.89-4.05-3.38-9.51-4.23-14.62-4.1-13.04.07-26.07-.2-39.1.1-8.34.19-16.36,6.32-17.93,14.65Z"/>
    <path class="st65" d="M213.14,203.63c59.8-.1,119.61-.25,179.41.08-.42,7.4.69,14.92-1,22.2-17.18-.63-34.41-.08-51.6-.34-3.87.06-7.89-.38-11.59.98-3.17,1.23-5.34,4.07-6.72,7.07-1.59,5.31-1.14,10.91-1.17,16.38,0,11.95-.01,23.91.03,35.87-4.51-2.29-8.97-4.66-13.39-7.12-.1,1.95-.19,3.91-.28,5.88-7.11-.03-14.23.04-21.35.07.05-13.88-.03-27.76.02-41.64-.11-4.13.21-8.67-2.21-12.25-2.18-3.46-6.28-5.19-10.28-5.1-20.09-.06-40.18.23-60.27-.06.73-7.32.51-14.68.4-22.02Z"/>
    <path class="st65" d="M471.46,203.62c59.64-.14,119.28-.16,178.92.01-.22,7.33-.97,14.69-.02,22.01-1.32.02-2.63.04-3.93.07-17.48.25-34.96.12-52.44,0-3.93,0-8.39-.03-11.42,2.89-3.3,2.74-4.11,7.23-4.06,11.3-.02,15.54-.03,31.08-.01,46.61-4.59-2.83-9.42-5.23-14.13-7.83-.02,1.93-.02,3.86-.02,5.8-7.03.21-14.07.25-21.09.1.41-13.84.04-27.69.19-41.54-.05-4.77-.01-10.25-3.59-13.91-2.45-2.79-6.26-3.75-9.84-3.7-18.37-.02-36.75.26-55.12.07-.96-.36-3.14.3-3.08-1.28-.86-6.83-.11-13.74-.36-20.6Z"/>
    <path class="st65" d="M728.28,225.78c.04-7.37,0-14.74.14-22.11,59.34-.39,118.69.08,178.03-.2-.93,6.86-1.38,13.77-1.93,20.66-19.17,1.18-38.4,0-57.58.38-6.25.06-11.6,5.47-12.26,11.56-1.57,11.23-.89,22.59-.97,33.89.05,5.07-.38,10.18.45,15.21-4.13-2.12-8.27-4.22-12.29-6.52-.06,1.97-.1,3.95-.14,5.94-7.14.07-14.29.09-21.43.08.14-14.54-.07-29.07.06-43.61,0-4.17-.33-8.88-3.57-11.91-2.71-3-6.97-3.48-10.78-3.46-19.24.13-38.48.15-57.73.09Z"/>
    <path class="st65" d="M987.93,203.58c55.35-.09,110.7,0,166.05-.05,3.59.06,7.31-.43,10.8.67,1.58,7.12-.32,14.42-.09,21.61-.42-.02-1.24-.06-1.65-.08-18.7.03-37.39.04-56.09-.05-3.58-.02-7.49.49-10.08,3.22-4.19,3.8-4.05,9.92-4.15,15.11.16,14.02-.13,28.04.14,42.05-4.36-2.7-8.95-4.98-13.46-7.4.02,1.96.05,3.92.1,5.88-7.01.33-14.02-.08-21.01.24,1.81-8.14.81-16.51.99-24.76-.21-8,.27-16.03-.29-24.01-.29-7.11-7.27-12.36-14.11-12.1-18.37.03-36.78,1.23-55.13,0-.03-6.83-.51-13.66-2.02-20.34Z"/>
  </g>
  <g id="_x23_4880d3ff">
    <path class="st71" d="M134.96,182.91c1.57-8.33,9.59-14.46,17.93-14.65,13.03-.3,26.06-.03,39.1-.1,5.11-.13,10.57.72,14.62,4.1,2.89,2.24,4.48,5.64,5.95,8.89l-.24.32c-.1.14-.3.41-.4.54,1.36,14.67.23,29.45.81,44.16v.89c19.77.28,39.55.2,59.31,0,3.19-.05,6.68.52,8.86,3.09,3.35,3.36,2.96,8.46,3.06,12.82-.1,29.22.1,58.45-.23,87.67-52.92.32-105.85.13-158.77.19-19.96-.05-39.92.11-59.88-.17-.36-28.23-.12-56.47-.23-84.71.02-3.77-.1-7.61.77-11.31,1.01-4.19,4.93-7.59,9.35-7.4,13.34-.14,26.7-.01,40.05-.07,6.59-.07,13.21.44,19.76-.51-20.3-1.09-40.68.16-61-.71,20.25-.46,40.52-.07,60.78-.31-.05-7.33-.04-14.66,0-21.99,0-1.44.02-2.89.03-4.33.17-5.47-.45-10.98.37-16.41M158.47,184.68c-2.45.5-2,3.44-2.09,5.3.22,11.7-.16,23.4.05,35.09-.28,2.56,1.88,4.89,4.48,4.62,9.07.06,18.15.13,27.21,0,2.09.25,3.91-1.59,3.69-3.66.03-8.35.38-16.7.33-25.05.46-3.65-2.93-5.68-5.05-8.03-2.93-2.67-5.18-6.13-8.49-8.35-6.68-.33-13.45-.41-20.13.07M134.7,232.72c-.71,6.9,4.65,12.24,9.79,15.94,2.11,1.64,4.86,1.76,7.43,1.78,12-.06,24,0,36,.03,6.23.25,13.24.15,18.16-4.25,3.1-3.35,6.57-7.22,6.51-12.06-3.33,3.47-5.92,8.01-10.56,9.93-4.44,1.82-9.36,1.16-14.03,1.29-12.66-.16-25.35.29-37.99-.37-7.23-.49-11.91-6.56-15.31-12.29Z"/>
  </g>
  <g id="_x23_f59b2cff">
    <path class="st22" d="M392.55,185.04c.47-8.88,8.45-16.85,17.47-16.7,14.32-.08,28.65,0,42.98.03,8.01-.29,15.72,5.69,17.24,13.58.59,5.74.39,11.54.25,17.3-.09,1.11-.19,2.21-.31,3.31-1.06,7.88-.75,15.86-.35,23.78.23,1.68.56,3.36.81,5.05-1.83,5.08-4.98,10-10.02,12.35-4.54,2.16-9.73,1.61-14.59,1.68-11.02-.16-22.04,0-33.06,0-4.76,0-9.81-.75-13.57-3.92-4.7-3.52-5.97-9.59-7.65-14.88-.05-.18-.15-.54-.2-.72,1.69-7.28.58-14.8,1-22.2.02-1.59.02-3.17.02-4.76,0-4.63-.23-9.27-.02-13.91M412.35,190.94c-.56,3.37,2.67,5.26,4.93,7.01.66,2.2.75,4.76,2.28,6.59,2.92,2.38,6.55,3.64,9.87,5.35.39,2.02.77,4.03,1.11,6.06-1.57,1.29-3.33,2.44-4.52,4.13-1.71,3.39.17,7.93,3.88,8.95,4.2,1.64,8.67-2.62,7.78-6.91.28-2.87-2.5-4.29-4.4-5.8.18-1.77-.1-3.68.63-5.33,2.7-3.28,7.36-3.88,10.34-6.81,1.16-1.79,1.33-4,2.18-5.94,1.18-1.41,2.74-2.45,3.94-3.87,1.02-2.89.49-6.67-2.37-8.31-3.74-2.42-8.97.62-9.25,4.94-.39,3.29,2.57,5.34,4.84,7.09-.67,6.18-7.28,7.53-11.69,10.31-3.12-1.65-6.45-2.92-9.39-4.88-1.89-1.21-1.84-3.74-2.49-5.66,1.71-1.67,4.31-3.1,4.41-5.78.44-3.22-1.89-6.98-5.4-6.88-3.44-.74-6.85,2.27-6.68,5.74Z"/>
  </g>
  <g id="_x23_9357a8ff">
    <path class="st67" d="M652.1,178.19c3.03-6.34,9.99-10,16.87-10.05,13.35-.32,26.72-.08,40.07,0,6.18-.02,12.75,2.37,16.18,7.77,4.61,6.88,2.61,15.55,3.2,23.31v4.45c-.13,7.37-.1,14.74-.14,22.11-.03.69-.1,2.07-.14,2.76-.6,3.96-1.78,8.05-4.58,11.04-3.71,4-9.16,6.18-14.59,6.06-12.68-.04-25.37-.03-38.06.02-6.16.17-12.65-2.02-16.52-7.01-3-3.64-3.55-8.5-4.03-13.01-.95-7.32-.2-14.68.02-22.01.01-1.45,0-2.9-.01-4.35.26-7-1.4-14.52,1.73-21.09M685.09,192.61c-3.48.47-6.97.78-10.47.98-2.02,5.83-4.41,11.55-7.51,16.89,1.35,2.89,3.43,5.91,6.93,6.18,4.13.89,7.73-2,9.42-5.54-2.63-5.07-4.77-10.38-7.03-15.62,3.29-.41,6.59-.76,9.89-1.15,1.07,1.35,2.38,2.71,2.1,4.61.08,8.08-.12,16.16-.04,24.25-3.09.02-6.17.04-9.25.09,0,.55.02,1.67.02,2.22,6.58,0,13.16-.06,19.74-.02.02-.57.07-1.7.09-2.26-2.83-.02-5.65-.01-8.46.02-.08-8.89-.2-17.77-.11-26.66.99-.89,1.98-1.79,2.98-2.7,2.68-.26,5.37-.53,8.06-.8-2.07,5.08-4.2,10.14-6.62,15.07,1.38,2.52,3.03,5.39,6.16,5.86,3.98,1.23,10.09-1.18,9.77-5.96-2.04-5.85-4.93-11.39-6.66-17.36-3.55.33-7.1.66-10.65.89-2.35-3.31-7-2.91-8.36,1.01Z"/>
  </g>
  <g id="_x23_c9605aff">
    <path class="st18" d="M917.97,169.94c5-2.32,10.66-2.06,16.04-2.11,11.02.05,22.03-.16,33.05.08,6.41.15,12.83,3.26,16.22,8.84,4.26,6.73,2.84,15.04,2.95,22.57-.08,1.47-.17,2.93-.26,4.39-.65,7.31.33,14.63.26,21.94-.44-.02-1.32-.06-1.76-.08.15-11.19-.38-22.38.06-33.57,0-4.5.51-9.46-2.1-13.4-3.5-5.55-9.93-8.75-16.4-8.98-10.33-.45-20.67-.05-31-.11-7.33-.03-15.53.03-21.33,5.22-4.54,3.61-5.18,9.84-4.89,15.23.69,11.82.7,23.73-.88,35.48-.48-7.35-.01-14.7-.27-22.05-.05-1.37-.09-2.75-.1-4.11.01-5.3-.28-10.62.1-15.91.73-5.89,4.88-11.1,10.31-13.43Z"/>
  </g>
  <g id="_x23_4ea15fff">
    <path class="st0" d="M1168.51,176.38c3.42-5.05,9.34-8.14,15.42-8.18,13.68-.53,27.4-.43,41.08-.17,8.57-.12,16.62,6.3,18.14,14.76.75,5.45.2,10.97.36,16.46-.01,1.17-.01,2.34.01,3.51-.2,7.81.12,15.62-.06,23.43-.72,5.16-1.8,10.74-5.8,14.45-3.77,3.9-9.44,4.82-14.63,4.82-12.1-.22-24.22-.37-36.32.02-4.98.08-10.42-.41-14.28-3.88-4.59-3.82-6.62-9.85-6.68-15.69-.18-8.92-.02-17.84-.32-26.76.33-7.57-1.85-16.23,3.08-22.77M1184.25,188.87c-.27,11.37-.15,22.76-.1,34.14.06,1.62-.16,4.06,1.86,4.62,5.26.97,10.66.35,15.98.52,7.5-.19,15.07.6,22.51-.68,1.25-6.39.55-12.93.78-19.4-.19-7.2.37-14.46-.76-21.61-5.12-.9-10.32-.62-15.49-.62-6.7.08-13.41-.14-20.11.1-1.89.06-4.87.36-4.67,2.93Z"/>
  </g>
  <g id="_x23_e04c40ff">
    <path class="st45" d="M913.7,174.73c5.8-5.19,14-5.25,21.33-5.22,10.33.06,20.67-.34,31,.11,6.47.23,12.9,3.43,16.4,8.98,2.61,3.94,2.1,8.9,2.1,13.4-.44,11.19.09,22.38-.06,33.57.44.02,1.32.06,1.76.08,19.58,1.3,39.2-.04,58.8.14,4.04-.21,7.71,1.79,10.47,4.61.58,9.86.13,19.74.59,29.61.29,7.67-.05,15.34-.3,23-.32,9.34.56,18.67.36,28-.13,6.53-.39,13.05-.44,19.59-70.23.16-140.46.03-210.69.09-2.41-.02-4.84.02-7.2-.45-1.17-5.34-.41-10.85-.55-16.26-.1-19.32.03-38.65-.01-57.97-.08-7.31.57-14.68-.77-21.92,1.68-4.38,5.58-8.18,10.54-8.08,20.28-.08,40.61.74,60.89-.3v-.27c1.59-11.75,1.58-23.66.89-35.48-.29-5.39.35-11.62,4.89-15.23M927.68,191.66c.02,4.44-.31,8.9.1,13.33,1.05,9.22,6.33,18.13,14.49,22.75,2,1.02,4.4,2.35,6.66,1.23,7.57-2.86,12.96-9.81,15.79-17.19,2.54-6.38,1.7-13.36,1.66-20.05-6.7-1.74-13.28-4.01-19.45-7.18-6.16,3.02-12.59,5.48-19.25,7.11M911.09,240.37c3.2,4.43,7.6,8.17,12.91,9.73,3.31.81,6.71-.29,10.07,0,9.29.82,18.63.19,27.95.42,7.85.31,15.96-3.1,20.56-9.61-1.65-1.68-3.48.88-5.01,1.52-3.25,2.62-7.5,3.09-11.52,2.99-12.68-.24-25.37-.16-38.05.03-3.29-.08-6.82-.02-9.71-1.79-2.33-1.27-4.38-3.36-7.2-3.29Z"/>
  </g>
  <g id="_x23_86858aff">
    <path class="st30" d="M212.32,181.47c.23-.03.7-.1.93-.13-.94,5.92-.35,11.92-.45,17.88,49.4.22,98.81.07,148.21.09,10.52-.24,21.06.37,31.56-.36,0,1.59,0,3.17-.02,4.76-59.8-.33-119.61-.18-179.41-.08.11,7.34.33,14.7-.4,22.02v.52c-.59-14.71.54-29.49-.82-44.16.1-.13.3-.4.4-.54Z"/>
    <path class="st30" d="M470.49,199.25c59.96.1,119.92.11,179.88.03.01,1.45.02,2.9.01,4.35-59.64-.17-119.28-.15-178.92-.01-.32-.27-.96-.79-1.28-1.06.12-1.1.22-2.2.31-3.31Z"/>
    <path class="st30" d="M986.23,199.32c37.93-.02,75.88.03,113.82,0,21.79-.11,43.6.26,65.38-.18.3,8.92.14,17.84.32,26.76l-1.06-.1c-.23-7.19,1.67-14.49.09-21.61-3.49-1.1-7.21-.61-10.8-.67-55.35.04-110.7-.04-166.05.05-.49.04-1.47.1-1.96.13.09-1.46.18-2.92.26-4.39Z"/>
  </g>
  <g id="_x23_e5fcffff">
    <path class="st83" d="M158.47,184.68c6.68-.48,13.45-.4,20.13-.07,3.31,2.22,5.56,5.68,8.49,8.35,2.12,2.35,5.51,4.38,5.05,8.03.05,8.35-.3,16.7-.33,25.05.22,2.07-1.6,3.91-3.69,3.66-9.06.12-18.14.05-27.21,0-2.6.27-4.76-2.06-4.48-4.62-.21-11.69.17-23.39-.05-35.09.09-1.86-.36-4.8,2.09-5.3M158.85,186.67c-.25,12.12,0,24.24-.06,36.36.16,1.61-.34,4.67,2.23,4.32,9.47.26,18.96.09,28.44.13.5-9.26.13-18.54.04-27.81-4.23-.49-9.15,1.02-12.91-1.37-.69-3.83-.28-7.75-.4-11.62-5.78-.02-11.56-.08-17.34,0M178.63,187.44c-.05,3.28-.03,6.56.09,9.84,3.15.11,6.3.17,9.45.2-3.08-3.44-6.25-6.8-9.54-10.04Z"/>
  </g>
  <g id="_x23_fff4ccff">
    <path class="st36" d="M412.35,190.94c-.17-3.47,3.24-6.48,6.68-5.74,3.51-.1,5.84,3.66,5.4,6.88-.1,2.68-2.7,4.11-4.41,5.78.65,1.92.6,4.45,2.49,5.66,2.94,1.96,6.27,3.23,9.39,4.88,4.41-2.78,11.02-4.13,11.69-10.31-2.27-1.75-5.23-3.8-4.84-7.09.28-4.32,5.51-7.36,9.25-4.94,2.86,1.64,3.39,5.42,2.37,8.31-1.2,1.42-2.76,2.46-3.94,3.87-.85,1.94-1.02,4.15-2.18,5.94-2.98,2.93-7.64,3.53-10.34,6.81-.73,1.65-.45,3.56-.63,5.33,1.9,1.51,4.68,2.93,4.4,5.8.89,4.29-3.58,8.55-7.78,6.91-3.71-1.02-5.59-5.56-3.88-8.95,1.19-1.69,2.95-2.84,4.52-4.13-.34-2.03-.72-4.04-1.11-6.06-3.32-1.71-6.95-2.97-9.87-5.35-1.53-1.83-1.62-4.39-2.28-6.59-2.26-1.75-5.49-3.64-4.93-7.01M414.8,193.07c1.57,2.23,4.45,1.45,6.74,1.44-.12-2.15,1.07-5.44-1.57-6.48-2.95-1.7-6.68,1.98-5.17,5.04M443.05,187.97c-2.79,1.29-2.42,6.75,1.05,6.73,2.23.56,4.82-1.19,4.47-3.62.26-2.72-3.31-4.68-5.52-3.11M427.06,222.94c1.22,1.7,2.3,4.35,4.9,3.78,3.54.25,4.67-4.86,1.88-6.64-2.67-2.1-5.23.87-6.78,2.86Z"/>
  </g>
  <g id="_x23_ffe9e5ff">
    <path class="st47" d="M927.68,191.66c6.66-1.63,13.09-4.09,19.25-7.11,6.17,3.17,12.75,5.44,19.45,7.18.04,6.69.88,13.67-1.66,20.05-2.83,7.38-8.22,14.33-15.79,17.19-2.26,1.12-4.66-.21-6.66-1.23-8.16-4.62-13.44-13.53-14.49-22.75-.41-4.43-.08-8.89-.1-13.33M934.21,192.32c-1.46.24-2.9.48-4.34.73-.07,6.83-.11,13.95,2.66,20.33,2.67,5.89,7.44,11.14,13.65,13.28,3.07.5,5.56-2.1,7.83-3.78,1.44-.85,2.45-2.27,2.94-3.86,1.74.62,3.79-2.37,2.93-3.94.35-.39,1.03-1.17,1.38-1.56,3.24-6.27,2.86-13.53,2.96-20.37-1.92-.36-3.83-.69-5.74-.98-3.85-1.59-7.85-2.8-11.54-4.74-4.07,2.07-8.44,3.41-12.73,4.89Z"/>
  </g>
  <g id="_x23_e4ffedff">
    <path class="st31" d="M1184.25,188.87c-.2-2.57,2.78-2.87,4.67-2.93,6.7-.24,13.41-.02,20.11-.1,5.17,0,10.37-.28,15.49.62,1.13,7.15.57,14.41.76,21.61-.23,6.47.47,13.01-.78,19.4-7.44,1.28-15.01.49-22.51.68-5.32-.17-10.72.45-15.98-.52-2.02-.56-1.8-3-1.86-4.62-.05-11.38-.17-22.77.1-34.14M1186.43,188.43c-.02,12.39-.01,24.78.11,37.17,12.07-.2,24.15.05,36.22-.25-.05-12.32.07-24.63-.11-36.94-12.07.02-24.15,0-36.22.02Z"/>
  </g>
  <g id="_x23_467fcfff">
    <path class="st35" d="M158.85,186.67c5.78-.07,11.56,0,17.34,0,.12,3.87-.29,7.79.4,11.62,3.76,2.39,8.68.88,12.91,1.37.09,9.27.46,18.55-.04,27.81-9.48-.04-18.97.13-28.44-.13-2.57.35-2.07-2.71-2.23-4.32.06-12.12-.19-24.24.06-36.36M164.58,205.7c.06.66.17,1.97.22,2.63-.88,3.88-1.8,7.93-1.07,11.92,1.31,1.46,3.43,1.06,5.18,1.24,5.08-.11,10.32.57,15.25-1.02-.06-.65-.18-1.95-.24-2.6,1.32-4.19,1.58-8.59,1.13-12.94-6.8-.16-13.86-1.3-20.47.77Z"/>
  </g>
  <g id="_x23_497bc0ff">
    <path class="st55" d="M178.63,187.44c3.29,3.24,6.46,6.6,9.54,10.04-3.15-.03-6.3-.09-9.45-.2-.12-3.28-.14-6.56-.09-9.84Z"/>
  </g>
  <g id="_x23_e6993dff">
    <path class="st52" d="M414.8,193.07c-1.51-3.06,2.22-6.74,5.17-5.04,2.64,1.04,1.45,4.33,1.57,6.48-2.29.01-5.17.79-6.74-1.44Z"/>
  </g>
  <g id="_x23_e79738ff">
    <path class="st42" d="M443.05,187.97c2.21-1.57,5.78.39,5.52,3.11.35,2.43-2.24,4.18-4.47,3.62-3.47.02-3.84-5.44-1.05-6.73Z"/>
  </g>
  <g id="_x23_e14c3eff">
    <path class="st26" d="M934.21,192.32c4.29-1.48,8.66-2.82,12.73-4.89,3.69,1.94,7.69,3.15,11.54,4.74,1.45.74,2.88,1.52,4.33,2.31.05,6.38-.71,12.72-1.55,19.04-.35.39-1.03,1.17-1.38,1.56-1.4.95-2.48,2.29-2.93,3.94-.49,1.59-1.5,3.01-2.94,3.86-3.6,1.03-7.84,2.82-11.3.42-8.98-5.22-11.68-16.6-11.49-26.29-.25-2.15,1.46-3.54,2.99-4.69Z"/>
  </g>
  <g id="_x23_4e9a5eff">
    <path class="st1" d="M1186.43,188.43c12.07-.02,24.15,0,36.22-.02.18,12.31.06,24.62.11,36.94-12.07.3-24.15.05-36.22.25-.12-12.39-.13-24.78-.11-37.17M1211.85,192.63c.5.64,1.51,1.94,2.01,2.59-2.53,2.53-5.09,5.02-7.69,7.48-2.54-2.34-5.09-4.66-7.8-6.79-2.5,3.02-7.23,4.9-7.32,9.3,2.68-1.86,5.06-4.11,7.42-6.36,2.55,2.01,4.88,4.32,7.57,6.18,3.69-2.01,6.27-5.5,9.56-8.07.84.77,1.7,1.53,2.58,2.3.07-2.22.13-4.45.2-6.68-2.18,0-4.38,0-6.53.05M1215.15,204.22c-.05,5.57-.07,11.14-.04,16.71.65-.03,1.96-.09,2.61-.11-.04-5.47-.04-10.93-.1-16.39-.62-.05-1.85-.16-2.47-.21M1199.77,208.31c-.13,4.36-.15,8.74-.02,13.1.55-.24,1.65-.73,2.21-.98.39-3.73.37-7.53.01-11.26-.55-.22-1.65-.65-2.2-.86M1207.45,213.52c-.03,2.43-.06,4.87-.06,7.31.69,0,2.08.02,2.77.03-.14-2.51-.28-5.02-.39-7.53-.58.05-1.74.14-2.32.19M1191.75,213.23c-.06,2.56-.05,5.13-.01,7.7.67-.05,2-.16,2.67-.22-.53-2.62,1.42-7.29-2.66-7.48Z"/>
  </g>
  <g id="_x23_fff4ffff">
    <path class="st69" d="M685.09,192.61c1.36-3.92,6.01-4.32,8.36-1.01,3.55-.23,7.1-.56,10.65-.89,1.73,5.97,4.62,11.51,6.66,17.36.32,4.78-5.79,7.19-9.77,5.96-3.13-.47-4.78-3.34-6.16-5.86,2.42-4.93,4.55-9.99,6.62-15.07-2.69.27-5.38.54-8.06.8-1,.91-1.99,1.81-2.98,2.7-.09,8.89.03,17.77.11,26.66,2.81-.03,5.63-.04,8.46-.02-.02.56-.07,1.69-.09,2.26-6.58-.04-13.16.03-19.74.02,0-.55-.02-1.67-.02-2.22,3.08-.05,6.16-.07,9.25-.09-.08-8.09.12-16.17.04-24.25.28-1.9-1.03-3.26-2.1-4.61-3.3.39-6.6.74-9.89,1.15,2.26,5.24,4.4,10.55,7.03,15.62-1.69,3.54-5.29,6.43-9.42,5.54-3.5-.27-5.58-3.29-6.93-6.18,3.1-5.34,5.49-11.06,7.51-16.89,3.5-.2,6.99-.51,10.47-.98M688.35,191.28c-1.94,1.94.35,3.87,2.44,2.73,1.16-1.9-.68-3.15-2.44-2.73M697.78,206.45c3.4.01,6.79.01,10.19,0-1.65-3.92-3.28-7.84-4.92-11.75-1.64,3.97-3.36,7.9-5.27,11.75M675.22,197.83c-1.62,3.74-3.21,7.49-4.77,11.25,3.21.03,6.42.04,9.63.04-1.44-3.84-3.04-7.61-4.86-11.29M697.04,208.84c2.81,4.23,9.45,4.64,12.11,0-4.04-.25-8.08-.24-12.11,0M669.56,211.4c1.72,1.67,3.75,3.53,6.38,3.06,2.23.04,3.7-1.77,5.23-3.1-3.87-.21-7.75-.2-11.61.04Z"/>
  </g>
  <g id="_x23_957ca0ff">
    <path class="st43" d="M688.35,191.28c1.76-.42,3.6.83,2.44,2.73-2.09,1.14-4.38-.79-2.44-2.73Z"/>
  </g>
  <g id="_x23_c56962ff">
    <path class="st2" d="M929.87,193.05c1.44-.25,2.88-.49,4.34-.73-1.53,1.15-3.24,2.54-2.99,4.69-.19,9.69,2.51,21.07,11.49,26.29,3.46,2.4,7.7.61,11.3-.42-2.27,1.68-4.76,4.28-7.83,3.78-6.21-2.14-10.98-7.39-13.65-13.28-2.77-6.38-2.73-13.5-2.66-20.33Z"/>
  </g>
  <g id="_x23_c36761ff">
    <path class="st20" d="M958.48,192.17c1.91.29,3.82.62,5.74.98-.1,6.84.28,14.1-2.96,20.37.84-6.32,1.6-12.66,1.55-19.04-1.45-.79-2.88-1.57-4.33-2.31Z"/>
  </g>
  <g id="_x23_eefcf3ff">
    <path class="st46" d="M1211.85,192.63c2.15-.04,4.35-.06,6.53-.05-.07,2.23-.13,4.46-.2,6.68-.88-.77-1.74-1.53-2.58-2.3-3.29,2.57-5.87,6.06-9.56,8.07-2.69-1.86-5.02-4.17-7.57-6.18-2.36,2.25-4.74,4.5-7.42,6.36.09-4.4,4.82-6.28,7.32-9.3,2.71,2.13,5.26,4.45,7.8,6.79,2.6-2.46,5.16-4.95,7.69-7.48-.5-.65-1.51-1.95-2.01-2.59Z"/>
  </g>
  <g id="_x23_848388ff">
    <path class="st28" d="M1301.49,193.73c4.76,2.25,9.42,4.73,13.84,7.62-4.64,2.59-9.22,5.3-13.9,7.8-.05-1.86-.09-3.72-.1-5.58-19.27.11-38.54-.21-57.8.14v-.95c-.03-1.17-.03-2.34-.02-3.51,19.32.22,38.65-.07,57.98.15-.02-1.89-.02-3.78,0-5.67Z"/>
  </g>
  <g id="_x23_8d59a3ff">
    <path class="st80" d="M697.78,206.45c1.91-3.85,3.63-7.78,5.27-11.75,1.64,3.91,3.27,7.83,4.92,11.75-3.4.01-6.79.01-10.19,0Z"/>
  </g>
  <g id="_x23_858489ff">
    <path class="st50" d="M63.42,199.47c23.72-.31,47.45-.02,71.17-.15,0,1.44-.03,2.89-.03,4.33-23.66-.34-47.33.08-70.99-.16-.04-1.01-.11-3.02-.15-4.02Z"/>
  </g>
  <g id="_x23_85529eff">
    <path class="st73" d="M675.22,197.83c1.82,3.68,3.42,7.45,4.86,11.29-3.21,0-6.42,0-9.63-.04,1.56-3.76,3.15-7.51,4.77-11.25Z"/>
  </g>
  <g id="_x23_868489ff">
    <path class="st13" d="M728.42,199.22c59.71.25,119.43.05,179.14.06.01,1.36.05,2.74.1,4.11l-1.21.08c-59.34.28-118.69-.19-178.03.2v-4.45Z"/>
  </g>
  <g id="_x23_e0a153ff">
    <path class="st10" d="M470.18,202.56c.32.27.96.79,1.28,1.06.25,6.86-.5,13.77.36,20.6-.06,1.58,2.12.92,3.08,1.28,18.37.19,36.75-.09,55.12-.07,3.58-.05,7.39.91,9.84,3.7,3.58,3.66,3.54,9.14,3.59,13.91-.15,13.85.22,27.7-.19,41.54-.03,1.42-.03,2.85-.01,4.28.28,14.49.4,29.01-.12,43.49-74.09-.16-148.2.07-222.3-.11-.65-15.15-.1-30.31-.35-45.47l.02-.9c-.04-11.96-.03-23.92-.03-35.87.03-5.47-.42-11.07,1.17-16.38,1.74,5.97.94,12.2.98,18.32.02,20.36.04,40.73-.04,61.1.09,5.48-.78,11.16.93,16.48,1.72.72,3.6.88,5.45.98,25.36.54,50.72.22,76.08.3,45.18-.07,90.35.18,135.53-.25.34-11.83,1.35-23.67.35-35.49-.95-10.35.75-20.68.33-31.03-.2-6.37-.62-12.73-.44-19.1,0-3.85.33-7.76-.4-11.57-.74-3.35-3.97-5.77-7.36-5.81-15.34-.69-30.68.75-46.01.19-5.77.09-11.89,1.71-17.21-1.4-.4-7.92-.71-15.9.35-23.78Z"/>
  </g>
  <g id="_x23_d3ababff">
    <path class="st24" d="M906.45,203.47l1.21-.08c.26,7.35-.21,14.7.27,22.05v.27c-20.29,1.04-40.62.22-60.9.3-4.96-.1-8.86,3.7-10.54,8.08-.88,6.26-.47,12.6-.55,18.9-.07,26.22.12,52.44-.09,78.66-2-3.21-1.49-7.06-1.49-10.64.21-11.28-.05-22.57.05-33.85v-.51c-.07-.37-.19-1.11-.25-1.48-.83-5.03-.4-10.14-.45-15.21.08-11.3-.6-22.66.97-33.89.66-6.09,6.01-11.5,12.26-11.56,19.18-.37,38.41.8,57.58-.38.55-6.89,1-13.8,1.93-20.66Z"/>
  </g>
  <g id="_x23_d1b9baff">
    <path class="st3" d="M985.97,203.71c.49-.03,1.47-.09,1.96-.13,1.51,6.68,1.99,13.51,2.02,20.34,18.35,1.22,36.76.02,55.13,0,6.84-.26,13.82,4.99,14.11,12.1.56,7.98.08,16.01.29,24.01-.18,8.25.82,16.62-.99,24.76l-1.04.33c.11-15.03-.09-30.06.02-45.1.05-3.3-.42-6.66-1.97-9.61-2.76-2.82-6.43-4.82-10.47-4.61-19.6-.18-39.22,1.16-58.8-.14.07-7.31-.91-14.63-.26-21.94Z"/>
  </g>
  <g id="_x23_dcfde5ff">
    <path class="st14" d="M1215.15,204.22c.62.05,1.85.16,2.47.21.06,5.46.06,10.92.1,16.39-.65.02-1.96.08-2.61.11-.03-5.57-.01-11.14.04-16.71Z"/>
  </g>
  <g id="_x23_5680b8ff">
    <path class="st81" d="M164.58,205.7c6.61-2.07,13.67-.93,20.47-.77.45,4.35.19,8.75-1.13,12.94-6.38-.07-12.76-.05-19.14-.03,0,.62-.02,1.85-.03,2.46,6.47.09,12.95-.15,19.41.17-4.93,1.59-10.17.91-15.25,1.02-1.75-.18-3.87.22-5.18-1.24-.73-3.99.19-8.04,1.07-11.92,6.4.03,12.8.04,19.19.05-.04-.63-.13-1.88-.18-2.51-6.41.05-12.83.28-19.23-.17M164.83,211.63c0,.65-.04,1.97-.05,2.62,6.13-.16,12.28.33,18.39-.21.31-.58.92-1.74,1.23-2.32-6.52-.16-13.05-.03-19.57-.09Z"/>
    <path class="st81" d="M63.56,236.08c.61-5.12,4.97-9.79,10.22-10.13,20.32.87,40.7-.38,61,.71-6.55.95-13.17.44-19.76.51-13.35.06-26.71-.07-40.05.07-4.42-.19-8.34,3.21-9.35,7.4-.87,3.7-.75,7.54-.77,11.31.11,28.24-.13,56.48.23,84.71,19.96.28,39.92.12,59.88.17,52.92-.06,105.85.13,158.77-.19.33-29.22.13-58.45.23-87.67-.1-4.36.29-9.46-3.06-12.82-2.18-2.57-5.67-3.14-8.86-3.09-19.76.2-39.54.28-59.3,0v-.89s0-.52,0-.52c20.09.29,40.18,0,60.27.06,4-.09,8.1,1.64,10.28,5.1,2.42,3.58,2.1,8.12,2.21,12.25-.05,13.88.03,27.76-.02,41.64,0,1.34-.01,2.68-.01,4.03.13,14.46-.16,28.91.12,43.36l-.69.02c-73.83.19-147.65.02-221.48.08-.2-29.42-.12-58.84-.13-88.26,0-2.62-.04-5.24.27-7.85Z"/>
  </g>
  <g id="_x23_d6f5ffff">
    <path class="st54" d="M164.58,205.7c6.4.45,12.82.22,19.23.17.05.63.14,1.88.18,2.51-6.39-.01-12.79-.02-19.19-.05-.05-.66-.16-1.97-.22-2.63Z"/>
  </g>
  <g id="_x23_825596ff">
    <path class="st37" d="M697.04,208.84c4.03-.24,8.07-.25,12.11,0-2.66,4.64-9.3,4.23-12.11,0Z"/>
  </g>
  <g id="_x23_dafce3ff">
    <path class="st79" d="M1199.77,208.31c.55.21,1.65.64,2.2.86.36,3.73.38,7.53-.01,11.26-.56.25-1.66.74-2.21.98-.13-4.36-.11-8.74.02-13.1Z"/>
  </g>
  <g id="_x23_88629aff">
    <path class="st82" d="M669.56,211.4c3.86-.24,7.74-.25,11.61-.04-1.53,1.33-3,3.14-5.23,3.1-2.63.47-4.66-1.39-6.38-3.06Z"/>
  </g>
  <g id="_x23_e5fafeff">
    <path class="st78" d="M164.83,211.63c6.52.06,13.05-.07,19.57.09-.31.58-.92,1.74-1.23,2.32-6.11.54-12.26.05-18.39.21,0-.65.04-1.97.05-2.62Z"/>
  </g>
  <g id="_x23_e1fdebff">
    <path class="st62" d="M1207.45,213.52c.58-.05,1.74-.14,2.32-.19.11,2.51.25,5.02.39,7.53-.69,0-2.08-.02-2.77-.03,0-2.44.03-4.88.06-7.31Z"/>
  </g>
  <g id="_x23_dcfee4ff">
    <path class="st60" d="M1191.75,213.23c4.08.19,2.13,4.86,2.66,7.48-.67.06-2,.17-2.67.22-.04-2.57-.05-5.14.01-7.7Z"/>
  </g>
  <g id="_x23_c46963ff">
    <path class="st29" d="M956.95,219.02c.45-1.65,1.53-2.99,2.93-3.94.86,1.57-1.19,4.56-2.93,3.94Z"/>
  </g>
  <g id="_x23_e5fdffff">
    <path class="st19" d="M164.78,217.84c6.38-.02,12.76-.04,19.14.03.06.65.18,1.95.24,2.6-6.46-.32-12.94-.08-19.41-.17,0-.61.02-1.84.03-2.46Z"/>
  </g>
  <g id="_x23_e99c3cff">
    <path class="st57" d="M427.06,222.94c1.55-1.99,4.11-4.96,6.78-2.86,2.79,1.78,1.66,6.89-1.88,6.64-2.6.57-3.68-2.08-4.9-3.78Z"/>
  </g>
  <g id="_x23_f69b29ff">
    <path class="st75" d="M328.36,226.55c3.7-1.36,7.72-.92,11.59-.98,17.19.26,34.42-.29,51.6.34.05.18.15.54.2.72-1.16,8.1,2.29,16.9,9.35,21.27,8.52,4.57,18.53,3.29,27.83,3.45,9.01-.33,18.18.86,27.06-1.08,6.64-1.35,12.23-6.37,14.72-12.6.77-2.03.16-4.22-.07-6.28-.25-1.69-.58-3.37-.81-5.05,5.32,3.11,11.44,1.49,17.21,1.4,15.33.56,30.67-.88,46.01-.19,3.39.04,6.62,2.46,7.36,5.81.73,3.81.4,7.72.4,11.57-.18,6.37.24,12.73.44,19.1.42,10.35-1.28,20.68-.33,31.03,1,11.82-.01,23.66-.35,35.49-45.18.43-90.35.18-135.53.25-25.36-.08-50.72.24-76.08-.3-1.85-.1-3.73-.26-5.45-.98-1.71-5.32-.84-11-.93-16.48.08-20.37.06-40.74.04-61.1-.04-6.12.76-12.35-.98-18.32,1.38-3,3.55-5.84,6.72-7.07Z"/>
  </g>
  <g id="_x23_9357a6ff">
    <path class="st21" d="M582.57,228.6c3.03-2.92,7.49-2.88,11.42-2.89,17.48.12,34.96.25,52.44,0,2.48,4.53,3.07,9.78,5.35,14.39,2.93,5.89,9.11,9.61,15.53,10.42,8.83,1.21,17.77.61,26.66.79,7.43,0,15.16.69,22.27-1.99,4.81-1.72,8.86-5.27,11.49-9.62,1.81-2.98,1.88-6.56,2.12-9.93-.43-.31-1.28-.92-1.71-1.23.04-.69.11-2.07.14-2.76,19.25.06,38.49.04,57.73-.09,3.81-.02,8.07.46,10.78,3.46,3.24,3.03,3.57,7.74,3.57,11.91-.13,14.54.08,29.07-.06,43.61-.02,1.36-.01,2.72-.02,4.08.02,14.48.2,28.97-.15,43.44-73.85-.09-147.69.01-221.54-.05-.25-15.1,0-30.21-.09-45.31v-.32c-.02-15.53-.01-31.07.01-46.61-.05-4.07.76-8.56,4.06-11.3Z"/>
  </g>
  <g id="_x23_7c4a8eff">
    <path class="st23" d="M646.43,225.71c1.3-.03,2.61-.05,3.93-.07.48,4.51,1.03,9.37,4.03,13.01,3.87,4.99,10.36,7.18,16.52,7.01,12.69-.05,25.38-.06,38.06-.02,5.43.12,10.88-2.06,14.59-6.06,2.8-2.99,3.98-7.08,4.58-11.04.43.31,1.28.92,1.71,1.23-.24,3.37-.31,6.95-2.12,9.93-2.63,4.35-6.68,7.9-11.49,9.62-7.11,2.68-14.84,1.98-22.27,1.99-8.89-.18-17.83.42-26.66-.79-6.42-.81-12.6-4.53-15.53-10.42-2.28-4.61-2.87-9.86-5.35-14.39Z"/>
  </g>
  <g id="_x23_50a15fff">
    <path class="st25" d="M1096.87,228.9c2.59-2.73,6.5-3.24,10.08-3.22,18.7.09,37.39.08,56.09.05.61,5.71.76,11.97,4.64,16.6,4.97,7.07,14.18,8.95,22.31,8.99,10.67.03,21.35-.03,32.03-.08,8.36.14,16.22-4.64,20.76-11.51,2.54-4.3,2.25-9.49,2.54-14.3,19.56.73,39.17.08,58.74.33,6.37-.04,11.63,5.95,11.32,12.2.09,27.02,0,54.05.04,81.07.02,4.39.09,8.79-.22,13.18-74-.09-148,.11-222-.09-.08-15.18.51-30.38-.3-45.55l-.04-.51c-.27-14.01.02-28.03-.14-42.05.1-5.19-.04-11.31,4.15-15.11Z"/>
  </g>
  <g id="_x23_468c54ff">
    <path class="st38" d="M1163.04,225.73c.41.02,1.23.06,1.65.08l1.06.1c.06,5.84,2.09,11.87,6.68,15.69,3.86,3.47,9.3,3.96,14.28,3.88,12.1-.39,24.22-.24,36.32-.02,5.19,0,10.86-.92,14.63-4.82,4-3.71,5.08-9.29,5.8-14.45.47-.19,1.39-.57,1.86-.76-.29,4.81,0,10-2.54,14.3-4.54,6.87-12.4,11.65-20.76,11.51-10.68.05-21.36.11-32.03.08-8.13-.04-17.34-1.92-22.31-8.99-3.88-4.63-4.03-10.89-4.64-16.6Z"/>
  </g>
  <g id="_x23_d78b27ff">
    <path class="st64" d="M391.75,226.63c1.68,5.29,2.95,11.36,7.65,14.88,3.76,3.17,8.81,3.92,13.57,3.92,11.02,0,22.04-.17,33.06,0,4.86-.07,10.05.48,14.59-1.68,5.04-2.35,8.19-7.27,10.02-12.35.23,2.06.84,4.25.07,6.28-2.49,6.23-8.08,11.25-14.72,12.6-8.88,1.94-18.05.75-27.06,1.08-9.3-.16-19.31,1.12-27.83-3.45-7.06-4.37-10.51-13.17-9.35-21.27Z"/>
  </g>
  <g id="_x23_bf5a52ff">
    <path class="st63" d="M1055.5,230.4c1.55,2.95,2.02,6.31,1.97,9.61-.11,15.04.09,30.07-.02,45.1-.01,1.21-.02,2.41-.02,3.62.14,14.54-.24,29.08.13,43.62-73.9-.32-147.81-.01-221.72-.16v-.54c.22-26.22.03-52.44.1-78.66.08-6.3-.33-12.64.55-18.9,1.34,7.24.69,14.61.77,21.92.04,19.32-.09,38.65.01,57.97.14,5.41-.62,10.92.55,16.26,2.36.47,4.79.43,7.2.45,70.23-.06,140.46.07,210.69-.09.05-6.54.31-13.06.44-19.59.2-9.33-.68-18.66-.36-28,.25-7.66.59-15.33.3-23-.46-9.87-.01-19.75-.59-29.61Z"/>
  </g>
  <g id="_x23_4072b6ff">
    <path class="st34" d="M134.7,232.72c3.4,5.73,8.08,11.8,15.31,12.29,12.64.66,25.33.21,37.99.37,4.67-.13,9.59.53,14.03-1.29,4.64-1.92,7.23-6.46,10.56-9.93.06,4.84-3.41,8.71-6.51,12.06-4.92,4.4-11.93,4.5-18.16,4.25-12-.03-24-.09-36-.03-2.57-.02-5.32-.14-7.43-1.78-5.14-3.7-10.5-9.04-9.79-15.94Z"/>
  </g>
  <g id="_x23_bf4439ff">
    <path class="st58" d="M911.09,240.37c2.82-.07,4.87,2.02,7.2,3.29,2.89,1.77,6.42,1.71,9.71,1.79,12.68-.19,25.37-.27,38.05-.03,4.02.1,8.27-.37,11.52-2.99,1.53-.64,3.36-3.2,5.01-1.52-4.6,6.51-12.71,9.92-20.56,9.61-9.32-.23-18.66.4-27.95-.42-3.36-.29-6.76.81-10.07,0-5.31-1.56-9.71-5.3-12.91-9.73Z"/>
  </g>
  <g id="_x23_828287ff">
    <path class="st72" d="M307.11,278.75c4.42,2.46,8.88,4.83,13.39,7.12l-.02.9c-1.37.94-2.78,1.8-4.21,2.64-3.1,1.81-6.21,3.58-9.35,5.32-.02-1.99-.03-3.97-.03-5.94-7.14-.02-14.28-.11-21.42-.06,0-1.35.01-2.69.01-4.03,7.12-.03,14.24-.1,21.35-.07.09-1.97.18-3.93.28-5.88Z"/>
  </g>
  <g id="_x23_817f85ff">
    <path class="st74" d="M564.37,278.68c4.71,2.6,9.54,5,14.13,7.83v.32c-4.87,2.39-9.46,5.3-14.18,7.98-.02-2.01-.03-4.02-.03-6.03-7.02.04-14.03-.26-21.04.08-.02-1.43-.02-2.86.01-4.28,7.02.15,14.06.11,21.09-.1,0-1.94,0-3.87.02-5.8Z"/>
  </g>
  <g id="_x23_818086ff">
    <path class="st33" d="M821.87,278.65c4.02,2.3,8.16,4.4,12.29,6.52.06.37.18,1.11.24,1.48v.51c-3.84,3.07-8.43,5.07-12.61,7.66-.03-1.99-.03-3.98-.03-5.97-7.16-.12-14.32-.24-21.48-.1,0-1.36,0-2.72.02-4.08,7.14,0,14.29-.01,21.43-.08.04-1.99.08-3.97.14-5.94Z"/>
  </g>
  <g id="_x23_818186ff">
    <path class="st15" d="M1079.4,278.66c4.51,2.42,9.1,4.7,13.46,7.4l.04.51c-.98.59-1.92,1.18-2.86,1.78-3.53,2.21-7.07,4.41-10.63,6.55-.01-2.03-.01-4.05.01-6.07-6.79-.14-13.57-.17-20.35-.11-.41.01-1.23.01-1.64.01,0-1.21,0-2.41.02-3.62l1.04-.33c6.99-.32,14,.09,21.01-.24-.05-1.96-.08-3.92-.1-5.88Z"/>
    <path class="st15" d="M285.29,468.91c.95,8,.24,16.08.46,24.12-.29,9.59.59,19.22-.44,28.77.55-8.92.09-17.86.22-26.79-.1-8.7.25-17.41-.24-26.1Z"/>
  </g>
  <g id="_x23_c5c3c0ff">
    <path class="st70" d="M316.27,289.41c1.43-.84,2.84-1.7,4.21-2.64.25,15.16-.3,30.32.35,45.47.49,45.64-.11,91.31.3,136.96.19,17.49.11,34.99.05,52.49-.19,27.78,0,55.55-.09,83.33.02,4.85.02,9.72.41,14.57.26,3.3.68,7.05,3.46,9.28,4.63,4.21,11.4,2.71,17.1,2.93,52.64-.17,105.28.08,157.93-.11,3,.06,5.99.44,8.98.8-2.84,2.37-6.6,1.73-9.98,1.76-23.01-.08-46.02.05-69.02-.06-9.32-1.11-18.65.71-27.98-.13-5.38-.58-10.65,1.12-16.03.86-6.99-.39-13.97.52-20.95.07-9.97-.47-19.95-.31-29.9.21-3.19.23-6.31-.85-9.15-2.19-5.39-2.44-8.06-8.65-8.14-14.29.57-9.67.45-19.38-.17-29.05-.52-7.77.31-15.55-.19-23.31.34-12.24.44-24.49.05-36.73.55-21.87.12-43.76.42-65.61.88-10.32-.05-20.67.22-31.01.27-7.35-.88-14.7-.16-22.04.29-13.75.58-27.53-.33-41.26-.51-8.91,1.22-17.79.19-26.67-.54-5.3-.05-10.66-1.02-15.91-1.24-6.69.58-13.39.36-20.1-.1-5.88-.41-11.76-.92-17.62Z"/>
  </g>
  <g id="_x23_b1b1afff">
    <path class="st51" d="M1090.04,288.35c.94-.6,1.88-1.19,2.86-1.78.81,15.17.22,30.37.3,45.55-.31,45.58.2,91.17-.25,136.75-.42,18.66-.39,37.34.02,56.01.4,30.62-.05,61.25.23,91.88v1.87c-.59-1.09-1.48-2.03-1.59-3.28-.21-26.13.29-52.27-.02-78.41.32-25.96-.33-51.93.4-77.88-.15-23.68-.5-47.38-.05-71.06.37-14.66-.84-29.33.29-43.97.27-4.68.36-9.4-.44-14.03-1.5-8.28-.02-16.67.38-24.97-.43-5.59-1.4-11.12-2.13-16.68Z"/>
    <path class="st51" d="M1314.48,619.2c1.5,4.1-1.73,8.13-4.78,10.52-5.05,3.95-11.79,2.59-17.71,2.77-61.69-.11-123.39.01-185.07-.09-6.5,0-12.95-4.81-13.38-11.57l1.27.41c3.03,3.65,7.38,6.14,12.27,5.73,64.97.02,129.96.02,194.94-.02,5.38.39,10.21-2.97,12.46-7.75Z"/>
  </g>
  <g id="_x23_d5b4b1ff">
    <path class="st49" d="M1057.43,288.73c.41,0,1.23,0,1.64-.01.08,7.14,1.67,14.23.92,21.38-.58,6.27-.81,12.56-.42,18.86-.66,1.14-1.32,2.27-2.01,3.39-.37-14.54,0-29.08-.13-43.62Z"/>
  </g>
  <g id="_x23_b4b3b3ff">
    <path class="st61" d="M1059.57,328.96c.82,7.36-.8,14.68-.89,22.03.02,32.69-.02,65.38-.01,98.07-.23,10.65.92,21.27.6,31.92.1,21.68.01,43.37-.4,65.03.56,10,.77,20.04-.01,30.04-.6,6.35.73,12.69.21,19.05,0,9.79,1.31,19.91-1.62,29.45-1.49,5.39-7.15,8.34-12.44,8.38-5.34.02-10.68-.42-16.02-.26-36.33,1.07-72.67-.55-109,.23-4.69.15-9.38.63-14.06.18-8.29-.78-16.62-.22-24.93-.38-9.66.11-19.33-.33-28.96.51-5.57.45-11.72-1.65-14.57-6.73-4.44-6.61-3.58-14.9-3.18-22.43.14-47.04-.22-94.09.22-141.13.47,2.05,1.04,4.11,1.17,6.23.04,17.52-.11,35.05.05,52.57.06,27.43.06,54.85.02,82.28.06,4.81-.45,9.74.73,14.46,1.52,5.36,7.07,8.7,12.5,8.43,62.68.05,125.35-.03,188.03.06,5.8-.1,12.81.96,17.15-3.86,4.06-3.9,3.24-9.96,3.32-15.06-.08-28.72-.1-57.44.01-86.16.09-17.69.14-35.38-.03-53.07-.04-45.48-.19-90.97.1-136.45.69-1.12,1.35-2.25,2.01-3.39Z"/>
  </g>
  <g id="_x23_ffffffff">
    <path class="st17" d="M63.42,332.19c73.83-.06,147.65.11,221.48-.08.22,34.97.03,69.94.1,104.92.17,10.62-.38,21.27.29,31.88-74,.04-147.99-.11-221.98.08,0-42.86-.02-85.72-.04-128.57.06-2.75.15-5.49.15-8.23Z"/>
    <path class="st17" d="M320.83,332.24c74.1.18,148.21-.05,222.3.11l-.11.96c-.63,4.87-.26,9.8-.3,14.7-.02,40.27.03,80.54,0,120.81-64.22-.13-128.44-.01-192.66-.04-9.64.09-19.3-.34-28.92.42-.41-45.65.19-91.32-.3-136.96Z"/>
    <path class="st17" d="M578.59,332.14c73.85.06,147.69-.04,221.54.05-.45,23.62-.02,47.25-.16,70.87,0,21.95-.04,43.9.04,65.85-56.34-.02-112.68.01-169.02-.01-17.41.14-34.84-.24-52.24.18-.33-45.64.08-91.29-.16-136.94Z"/>
    <path class="st17" d="M835.84,332.19c73.91.15,147.82-.16,221.72.16-.29,45.48-.14,90.97-.1,136.45-66.14.08-132.29,0-198.43.03-7.79.03-15.58-.22-23.35.32.76-15.35.11-30.74.33-46.1-.12-30.29.22-60.58-.17-90.86Z"/>
    <path class="st17" d="M1093.2,332.12c74,.2,148,0,222,.09-.48,45.58-.08,91.18-.21,136.76-74.01-.22-148.03-.02-222.04-.1.45-45.58-.06-91.17.25-136.75Z"/>
  </g>
  <g id="_x23_b2b1b0ff">
    <path class="st56" d="M543.02,333.31l1.1-1.8c.58,3.35.61,6.76.41,10.15-.88,18.12.16,36.26-.54,54.38.44,7.32-.57,14.65.15,21.97.07,12.66-.28,25.32.18,37.98.1,53.01.02,106.02.09,159.02-.05,4.93-2.13,9.63-4.76,13.7-2.87,3.86-8.17,4.18-12.58,4.11-6.04-.24-12.08.08-18.1-.33-2.99-.36-5.98-.74-8.98-.8-52.65.19-105.29-.06-157.93.11-5.7-.22-12.47,1.28-17.1-2.93-2.78-2.23-3.2-5.98-3.46-9.28,2.71,4.27,7.2,7.62,12.48,7.3,65,.14,130-.01,195,.07,3.74.07,7.72-.8,10.36-3.63,2.85-2.62,3.52-6.65,3.44-10.34-.05-30.43,0-60.87-.03-91.31-.04-17.62.04-35.24-.04-52.86.04-40.27-.01-80.54,0-120.81.04-4.9-.33-9.83.3-14.7Z"/>
  </g>
  <g id="_x23_b0b0b0ff">
    <path class="st44" d="M62.09,348.96c.11-2.87-.96-6.15,1.18-8.54.02,42.85.04,85.71.04,128.57-.01,17.6-.01,35.2-.02,52.8-.01,28.74.06,57.49-.02,86.24.12,4.3-.46,8.99,1.79,12.88,2.37,4.21,7.25,6.3,11.96,6.06,64.99,0,129.98,0,194.97,0,2.98-.06,6.09-.59,8.5-2.45,2.35-1.65,3.42-4.4,4.66-6.86l1.14-.78c-.08,4.8-2.44,9.36-5.53,12.93-3.59,3.6-9.11,2.54-13.7,2.67-63.7-.1-127.4.08-191.1-.03-3.08-.24-6.64-.15-9.01-2.48-4.17-3.71-4.78-9.75-5.26-14.97.01-55.34.01-110.67.03-166.01-.1-6.35-.02-12.69.37-19.03-.42-26.99-.55-54,0-80.99Z"/>
  </g>
  <g id="_x23_c5d5eeff">
    <path class="st16" d="M63.31,468.99c73.99-.19,147.98-.04,221.98-.08.49,8.69.14,17.4.24,26.1-.13,8.93.33,17.87-.22,26.79-74.01-.03-148.01-.04-222.02-.01,0-17.6,0-35.2.02-52.8Z"/>
  </g>
  <g id="_x23_fad8adff">
    <path class="st53" d="M321.13,469.2c9.62-.76,19.28-.33,28.92-.42,64.22.03,128.44-.09,192.66.04.08,17.62,0,35.24.04,52.86-54.56.09-109.12,0-163.69.04-19.29-.17-38.59.35-57.88-.03.06-17.5.14-35-.05-52.49Z"/>
  </g>
  <g id="_x23_d4bbd9ff">
    <path class="st76" d="M577.87,474c.29-1.55-.29-3.8.88-4.92,17.4-.42,34.83-.04,52.24-.18,56.34.02,112.68,0,169.02.01.43,10.01.05,20.03.14,30.04-.08,7.64.31,15.29-.22,22.92-73.68-.32-147.36-.14-221.03-.09h-.78c-.15-15.92-.26-31.85-.25-47.78Z"/>
  </g>
  <g id="_x23_f1b8b1ff">
    <path class="st39" d="M835.68,469.15c7.77-.54,15.56-.29,23.35-.32,66.14-.04,132.29.05,198.43-.03.17,17.69.12,35.38.03,53.07-73.92-.35-147.84-.02-221.76-.15-.16-17.52-.01-35.05-.05-52.57Z"/>
  </g>
  <g id="_x23_c1ddc6ff">
    <path class="st32" d="M1092.95,468.87c74.01.08,148.03-.12,222.04.1.56,11.65.21,23.32.33,34.97-.08,6.91.17,13.84-.31,20.74-48.66-.15-97.32,0-145.98-.03-25.35,0-50.71-.06-76.06.23-.41-18.67-.44-37.35-.02-56.01Z"/>
  </g>
  <g id="_x23_e3e9f6ff">
    <path class="st66" d="M63.29,521.79c74.01-.03,148.01-.02,222.02.01-.69,7.72-.2,15.48-.32,23.22.14,24.21-.24,48.42.16,72.63-1.24,2.46-2.31,5.21-4.66,6.86-2.41,1.86-5.52,2.39-8.5,2.45-64.99,0-129.98,0-194.97,0-4.71.24-9.59-1.85-11.96-6.06-2.25-3.89-1.67-8.58-1.79-12.88.08-28.75,0-57.5.02-86.24Z"/>
  </g>
  <g id="_x23_feecd4ff">
    <path class="st11" d="M321.18,521.69c19.29.38,38.59-.14,57.88.03,54.57-.04,109.13.05,163.69-.04.03,30.44-.02,60.88.03,91.31.08,3.69-.59,7.72-3.44,10.34-2.64,2.83-6.62,3.7-10.36,3.63-65-.08-130,.07-195-.07-5.28.32-9.77-3.03-12.48-7.3-.39-4.85-.39-9.72-.41-14.57.09-27.78-.1-55.55.09-83.33Z"/>
  </g>
  <g id="_x23_e9dcedff">
    <path class="st48" d="M578.9,521.78c73.67-.05,147.35-.23,221.03.09-.34,27.04-.14,54.09-.16,81.14-.13,6.06.76,12.34-1.26,18.19-1.99,2.5-4.51,4.88-7.8,5.35-4.54.7-9.15.33-13.72.38-62-.02-124,.04-186-.03-4.51.35-8.18-2.46-11.03-5.61-1.31-4.63-1.08-9.49-1.08-14.24.13-28.42-.11-56.85.02-85.27Z"/>
  </g>
  <g id="_x23_f7dad7ff">
    <path class="st77" d="M835.73,521.72c73.92.13,147.84-.2,221.76.15-.11,28.72-.09,57.44-.01,86.16-.08,5.1.74,11.16-3.32,15.06-4.34,4.82-11.35,3.76-17.15,3.86-62.68-.09-125.35-.01-188.03-.06-5.43.27-10.98-3.07-12.5-8.43-1.18-4.72-.67-9.65-.73-14.46.04-27.43.04-54.85-.02-82.28Z"/>
  </g>
  <g id="_x23_d8eddfff">
    <path class="st12" d="M1092.97,524.88c25.35-.29,50.71-.22,76.06-.23,48.66.03,97.32-.12,145.98.03-.54,24.09-.06,48.21-.24,72.31-.15,7.4.32,14.82-.29,22.21-2.25,4.78-7.08,8.14-12.46,7.75-64.98.04-129.97.04-194.94.02-4.89.41-9.24-2.08-12.27-5.73-.68-1.44-1.25-2.94-1.61-4.48-.28-30.63.17-61.26-.23-91.88Z"/>
  </g>
  <g id="_x23_b2b1b1ff">
    <path class="st27" d="M579.69,624.15c-.51-.82-1.88-3.64.27-2.86,2.85,3.15,6.52,5.96,11.03,5.61,62,.07,124,0,186,.03,4.57-.05,9.18.32,13.72-.38,3.29-.47,5.81-2.85,7.8-5.35,2.34,3.43-1.2,6.56-3.64,8.69-4.31,3.94-10.55,2.35-15.82,2.59-62.47-.05-124.94-.09-187.4.04-5.34.07-9.83-3.69-11.96-8.37Z"/>
  </g>
  <g class="st40">
    <g class="st40">
      <g class="st40">
        <text class="st6" transform="translate(271.69 71.22)"><tspan x="0" y="0">P02 Legal SFT Data Factory – Version Evolution</tspan></text>
      </g>
    </g>
  </g>
  <g class="st40">
    <g class="st40">
      <g class="st40">
        <text class="st5" transform="translate(101.2 294.25)"><tspan x="0" y="0">V1: Seed Layer</tspan></text>
      </g>
    </g>
  </g>
  <g class="st40">
    <g class="st40">
      <g class="st40">
        <text/>
      </g>
    </g>
  </g>
  <g class="st40">
    <g class="st40">
      <g class="st40">
        <text class="st9" transform="translate(70.65 400.29)"><tspan x="0" y="0">PDF cleaning + chunking</tspan><tspan x="3.91" y="25.2">creating structured seeds</tspan></text>
      </g>
    </g>
  </g>
  <g class="st40">
    <g class="st40">
      <g class="st40">
        <text class="st8" transform="translate(105.35 502.91)"><tspan x="0" y="0">pipeline works</tspan></text>
      </g>
    </g>
  </g>
  <g class="st40">
    <g class="st40">
      <g class="st40">
        <text class="st41" transform="translate(77.86 566.53)"><tspan class="st68"><tspan x="0" y="0">Enhancement question: </tspan></tspan><tspan class="st7"><tspan x="-1.85" y="22.8">can we generate seeds?</tspan></tspan></text>
      </g>
    </g>
  </g>
  <g class="st40">
    <g class="st40">
      <g class="st40">
        <text/>
      </g>
    </g>
  </g>
  <g class="st40">
    <g class="st40">
      <g class="st40">
        <g class="st40">
          <path d="M80.41,657.43l5.82,7.29c.82,1.03,1.53,1.72,2.12,2.09.43.26.89.39,1.37.39v.45h-8.62v-.45c.54-.05.9-.13,1.06-.26.16-.12.24-.27.24-.45,0-.34-.37-.98-1.12-1.93l-3.8-4.77-.61.51v4.52c0,.86.05,1.4.15,1.61s.28.39.56.54c.28.15.72.23,1.33.23v.45h-8.35v-.45h.55c.48,0,.87-.09,1.16-.26.21-.11.37-.31.49-.59.09-.2.13-.71.13-1.54v-10.89c0-.85-.04-1.38-.13-1.59-.09-.21-.27-.4-.54-.56-.27-.16-.64-.24-1.1-.24h-.55v-.45h8.24v.45c-.56,0-.99.08-1.28.24-.21.11-.38.31-.5.57-.1.2-.15.72-.15,1.56v5.15l6.14-4.97c.85-.69,1.28-1.25,1.28-1.66,0-.31-.18-.55-.52-.73-.18-.09-.62-.15-1.33-.17v-.45h6.46v.45c-.58.04-1.03.15-1.36.31-.33.17-1.09.73-2.28,1.69l-4.85,3.88Z"/>
          <path d="M99.96,661.54h-6.26c.07,1.51.48,2.71,1.21,3.59.56.68,1.24,1.01,2.03,1.01.49,0,.93-.14,1.33-.41.4-.27.83-.76,1.28-1.47l.42.27c-.62,1.26-1.3,2.15-2.05,2.68-.75.52-1.62.79-2.6.79-1.69,0-2.97-.65-3.85-1.95-.7-1.05-1.05-2.35-1.05-3.91,0-1.9.51-3.42,1.54-4.55,1.03-1.13,2.24-1.69,3.62-1.69,1.16,0,2.16.47,3.01,1.42.85.95,1.31,2.35,1.37,4.22ZM96.95,660.72c0-1.31-.07-2.21-.21-2.7-.14-.49-.36-.86-.67-1.11-.17-.15-.4-.22-.68-.22-.42,0-.77.21-1.04.62-.48.72-.72,1.72-.72,2.98v.43h3.32Z"/>
          <path d="M106.62,668.12l-3.69-8.46c-.55-1.28-.96-2.06-1.23-2.36-.26-.29-.58-.5-.96-.61v-.45h6.07v.45c-.4.02-.68.09-.84.23-.16.14-.24.31-.24.5,0,.31.2.92.61,1.83l1.95,4.47,1.33-3.45c.48-1.23.72-2.08.72-2.56,0-.3-.1-.54-.3-.72-.2-.18-.55-.28-1.06-.29v-.45h3.82v.45c-.37.04-.68.19-.92.43-.24.25-.63,1.09-1.18,2.53l-3.26,8.46c-.82,2.12-1.43,3.42-1.83,3.91-.56.68-1.27,1.03-2.11,1.03-.68,0-1.22-.19-1.64-.58-.42-.39-.63-.85-.63-1.4,0-.47.14-.86.43-1.17.29-.31.65-.46,1.07-.46s.73.13.98.39c.25.26.38.66.38,1.21,0,.31.04.51.11.6.06.09.16.13.28.13.2,0,.4-.12.62-.35.33-.34.71-1.12,1.15-2.34l.35-.95Z"/>
          <path d="M124.59,656.24v9.05c0,.81.09,1.32.28,1.54.19.22.55.35,1.1.38v.44h-6.16v-.44c.5-.02.88-.16,1.12-.44.16-.19.24-.68.24-1.49v-6.67c0-.81-.09-1.32-.28-1.54-.19-.22-.55-.35-1.09-.38v-.45h4.79ZM122.88,650.71c.53,0,.98.19,1.34.56s.55.82.55,1.34-.19.96-.56,1.33c-.37.37-.82.55-1.34.55s-.96-.18-1.33-.55-.55-.81-.55-1.33.18-.97.55-1.34.81-.56,1.33-.56Z"/>
          <path d="M131.74,656.24v1.48c.59-.63,1.15-1.1,1.68-1.39.54-.29,1.11-.43,1.73-.43.74,0,1.35.21,1.84.62s.81.92.98,1.53c.13.46.2,1.36.2,2.67v4.44c0,.88.08,1.43.24,1.64.16.22.49.35.99.41v.44h-5.77v-.44c.43-.06.74-.24.93-.54.13-.2.2-.71.2-1.51v-5.08c0-.94-.04-1.53-.11-1.77s-.2-.43-.37-.57c-.17-.13-.37-.2-.58-.2-.7,0-1.35.5-1.95,1.5v6.12c0,.85.08,1.4.24,1.62.16.23.45.37.89.43v.44h-5.77v-.44c.48-.05.82-.2,1.03-.46.14-.18.21-.71.21-1.59v-6.45c0-.86-.08-1.4-.24-1.61-.16-.21-.49-.35-1-.42v-.45h4.65Z"/>
          <path d="M148.2,655.92l.18,3.89h-.42c-.5-1.16-1.01-1.95-1.54-2.37-.53-.42-1.06-.63-1.59-.63-.33,0-.62.11-.85.34-.24.22-.35.48-.35.78,0,.22.08.43.24.63.26.33.99.91,2.19,1.71s1.98,1.5,2.36,2.06c.38.57.57,1.2.57,1.9,0,.63-.16,1.26-.48,1.87-.32.61-.77,1.08-1.34,1.4-.58.33-1.22.49-1.92.49-.55,0-1.27-.17-2.19-.51-.24-.09-.41-.13-.5-.13-.27,0-.49.2-.67.61h-.4l-.2-4.1h.42c.37,1.07.87,1.88,1.51,2.42.64.54,1.24.8,1.81.8.39,0,.71-.12.96-.36.25-.24.37-.53.37-.87,0-.39-.12-.73-.37-1.01-.24-.28-.79-.72-1.64-1.29-1.25-.86-2.05-1.52-2.42-1.98-.54-.67-.81-1.4-.81-2.21,0-.88.3-1.67.91-2.39.61-.71,1.48-1.07,2.63-1.07.62,0,1.22.15,1.79.45.22.12.4.18.54.18.15,0,.26-.03.35-.09.09-.06.23-.23.43-.52h.42Z"/>
          <path d="M155.17,656.24v9.05c0,.81.09,1.32.28,1.54.19.22.55.35,1.1.38v.44h-6.16v-.44c.5-.02.88-.16,1.12-.44.16-.19.24-.68.24-1.49v-6.67c0-.81-.09-1.32-.28-1.54-.19-.22-.55-.35-1.09-.38v-.45h4.79ZM153.46,650.71c.53,0,.98.19,1.34.56s.55.82.55,1.34-.19.96-.56,1.33c-.37.37-.82.55-1.34.55s-.96-.18-1.33-.55-.55-.81-.55-1.33.18-.97.55-1.34.81-.56,1.33-.56Z"/>
          <path d="M164.98,656.37h3.85v1.34h-2.19c.4.4.68.76.83,1.09.2.44.29.9.29,1.38,0,.81-.23,1.52-.68,2.12-.45.6-1.07,1.07-1.84,1.4-.78.34-1.47.51-2.07.51-.05,0-.54-.02-1.46-.06-.37,0-.67.12-.92.36-.25.24-.37.53-.37.86,0,.29.11.53.34.72.22.19.59.28,1.09.28l2.11-.03c1.71,0,2.88.19,3.53.56.92.52,1.38,1.32,1.38,2.4,0,.69-.21,1.32-.63,1.89-.42.57-.98.98-1.67,1.25-1.05.4-2.26.6-3.63.6-1.03,0-1.96-.1-2.81-.3-.85-.2-1.45-.48-1.82-.83-.37-.35-.55-.73-.55-1.12s.14-.71.42-1.01c.28-.3.8-.55,1.57-.75-1.06-.52-1.59-1.25-1.59-2.17,0-.56.22-1.11.65-1.64.43-.53,1.11-.99,2.05-1.38-1.09-.4-1.88-.92-2.37-1.57s-.73-1.4-.73-2.26c0-1.12.46-2.08,1.37-2.9.91-.82,2.08-1.23,3.52-1.23.76,0,1.54.16,2.34.48ZM162.15,669.34c-.83,0-1.38.07-1.65.21-.46.25-.7.59-.7,1.03s.24.79.72,1.13c.48.34,1.38.51,2.71.51,1.13,0,2.02-.15,2.67-.45.65-.3.97-.72.97-1.27,0-.2-.06-.37-.18-.51-.22-.24-.55-.41-.99-.5-.44-.09-1.63-.13-3.55-.13ZM162.87,656.65c-.47,0-.87.24-1.2.71-.33.48-.49,1.46-.49,2.96,0,1.21.16,2.04.48,2.5.32.45.7.68,1.14.68.49,0,.9-.22,1.22-.67.33-.45.49-1.32.49-2.61,0-1.46-.18-2.45-.55-2.98-.26-.39-.63-.59-1.1-.59Z"/>
          <path d="M174.82,651.1v6.6c.63-.66,1.2-1.12,1.72-1.4.52-.27,1.06-.41,1.62-.41.72,0,1.33.2,1.84.61.51.41.85.88,1.01,1.43.17.55.25,1.48.25,2.78v4.46c0,.87.08,1.42.24,1.63.16.22.49.35.99.41v.44h-5.79v-.44c.41-.06.71-.22.92-.49.15-.21.22-.73.22-1.55v-5.09c0-.94-.04-1.54-.11-1.78-.07-.24-.2-.43-.37-.56-.18-.13-.37-.2-.59-.2-.33,0-.64.11-.95.34-.31.22-.64.62-1,1.18v6.12c0,.81.06,1.32.18,1.53.15.28.47.45.95.51v.44h-5.79v-.44c.48-.05.82-.2,1.03-.46.14-.18.21-.7.21-1.58v-11.6c0-.86-.08-1.4-.24-1.61-.16-.21-.49-.35-1-.42v-.45h4.65Z"/>
          <path d="M188.59,652.06v4.17h2.71v1.21h-2.71v7.04c0,.66.03,1.08.09,1.28.06.19.17.35.32.46.15.12.3.18.43.18.53,0,1.03-.4,1.5-1.21l.37.27c-.66,1.56-1.73,2.34-3.21,2.34-.72,0-1.34-.2-1.84-.6-.5-.4-.82-.85-.96-1.35-.08-.28-.12-1.03-.12-2.25v-6.16h-1.49v-.43c1.03-.72,1.9-1.48,2.62-2.28.72-.8,1.35-1.69,1.89-2.67h.4Z"/>
          <path d="M199.6,655.92l.18,3.89h-.42c-.5-1.16-1.01-1.95-1.54-2.37-.53-.42-1.06-.63-1.59-.63-.33,0-.62.11-.85.34-.24.22-.35.48-.35.78,0,.22.08.43.24.63.26.33.99.91,2.19,1.71s1.98,1.5,2.36,2.06c.38.57.57,1.2.57,1.9,0,.63-.16,1.26-.48,1.87-.32.61-.77,1.08-1.34,1.4-.58.33-1.22.49-1.92.49-.55,0-1.27-.17-2.19-.51-.24-.09-.41-.13-.5-.13-.27,0-.49.2-.67.61h-.4l-.2-4.1h.42c.37,1.07.87,1.88,1.51,2.42.64.54,1.24.8,1.81.8.39,0,.71-.12.96-.36.25-.24.37-.53.37-.87,0-.39-.12-.73-.37-1.01-.24-.28-.79-.72-1.64-1.29-1.25-.86-2.05-1.52-2.42-1.98-.54-.67-.81-1.4-.81-2.21,0-.88.3-1.67.91-2.39.61-.71,1.48-1.07,2.63-1.07.62,0,1.22.15,1.79.45.22.12.4.18.54.18.15,0,.26-.03.35-.09.09-.06.23-.23.43-.52h.42Z"/>
          <path d="M205.44,663.89c.57,0,1.05.2,1.45.6.39.4.59.88.59,1.44s-.2,1.04-.6,1.43c-.4.39-.88.59-1.44.59s-1.04-.2-1.43-.59c-.4-.39-.59-.87-.59-1.43s.2-1.04.59-1.44c.39-.4.87-.6,1.43-.6ZM205.45,655.91c.56,0,1.04.2,1.43.59.39.4.59.87.59,1.43s-.2,1.04-.59,1.43c-.4.39-.87.59-1.43.59s-1.04-.2-1.43-.59c-.39-.39-.59-.87-.59-1.43s.2-1.04.59-1.43c.4-.39.87-.59,1.43-.59Z"/>
          <path d="M78.14,680.76v13.54c0,1.02.04,1.67.13,1.95.09.28.28.51.56.69.28.18.74.27,1.37.27h.38v.45h-8.72v-.45h.44c.71,0,1.21-.08,1.51-.24.3-.16.5-.39.61-.67.11-.29.16-.95.16-1.99v-8.58c0-.76-.04-1.24-.11-1.43-.07-.19-.21-.35-.41-.49-.2-.13-.43-.2-.69-.2-.42,0-.92.13-1.51.39l-.22-.44,6.09-2.78h.4Z"/>
          <path d="M85.62,693.89c.57,0,1.05.2,1.45.6.4.4.59.88.59,1.44s-.2,1.04-.6,1.43c-.4.39-.88.59-1.44.59s-1.04-.2-1.43-.59c-.39-.39-.59-.87-.59-1.43s.2-1.04.59-1.44c.4-.4.87-.6,1.43-.6Z"/>
          <path d="M112.81,682.05v6.74h.33c1.05,0,1.81-.33,2.28-.99.47-.66.77-1.63.9-2.92h.46v8.67h-.46c-.1-.94-.3-1.72-.62-2.32-.31-.6-.68-1.01-1.09-1.21-.42-.21-1.02-.31-1.81-.31v4.66c0,.91.04,1.47.12,1.67.08.2.22.37.43.5.21.13.55.2,1.03.2h.99c1.55,0,2.79-.36,3.72-1.07.93-.72,1.6-1.81,2.01-3.27h.45l-.74,5.26h-14.31v-.45h.55c.48,0,.87-.09,1.16-.26.21-.11.37-.31.49-.59.09-.2.13-.71.13-1.54v-10.89c0-.75-.02-1.21-.06-1.38-.08-.29-.23-.5-.45-.66-.31-.23-.73-.34-1.27-.34h-.55v-.45h13.85v4.89h-.46c-.24-1.2-.57-2.05-1-2.58-.43-.52-1.03-.9-1.81-1.15-.46-.15-1.31-.22-2.56-.22h-1.71Z"/>
          <path d="M129.82,695.97c-1.39,1.23-2.64,1.84-3.75,1.84-.65,0-1.19-.21-1.62-.64-.43-.43-.65-.96-.65-1.61,0-.87.37-1.65,1.12-2.35.75-.7,2.38-1.62,4.9-2.78v-1.15c0-.86-.05-1.41-.14-1.63-.09-.22-.27-.42-.53-.59-.26-.17-.55-.25-.88-.25-.53,0-.96.12-1.31.35-.21.15-.32.32-.32.51,0,.17.11.38.34.63.31.35.46.69.46,1.01,0,.4-.15.74-.45,1.02-.3.28-.69.42-1.17.42-.51,0-.94-.15-1.29-.46-.35-.31-.52-.67-.52-1.09,0-.59.23-1.15.7-1.68.46-.53,1.11-.94,1.94-1.23s1.69-.43,2.59-.43c1.08,0,1.94.23,2.57.69.63.46,1.04.96,1.23,1.5.11.34.17,1.13.17,2.36v4.43c0,.52.02.85.06.98.04.13.1.23.18.3.08.07.17.1.28.1.21,0,.43-.15.65-.45l.37.29c-.41.6-.83,1.04-1.26,1.31-.44.27-.93.41-1.48.41-.65,0-1.16-.15-1.53-.46-.37-.31-.59-.77-.67-1.39ZM129.82,695.08v-3.82c-.98.58-1.72,1.2-2.2,1.86-.32.44-.48.88-.48,1.33,0,.38.13.7.4.99.2.22.49.33.85.33.41,0,.88-.23,1.42-.68Z"/>
          <path d="M145.33,694.71l.38.29c-.54,1.01-1.21,1.76-2.01,2.25-.8.49-1.65.74-2.56.74-1.52,0-2.74-.57-3.65-1.72-.91-1.15-1.37-2.53-1.37-4.14s.42-2.92,1.25-4.1c1-1.42,2.38-2.14,4.14-2.14,1.18,0,2.12.3,2.81.89.7.59,1.04,1.26,1.04,1.99,0,.46-.14.83-.42,1.11-.28.28-.65.42-1.1.42-.48,0-.88-.16-1.19-.48-.31-.32-.51-.88-.58-1.7-.05-.51-.17-.87-.35-1.07-.19-.2-.41-.3-.66-.3-.39,0-.72.21-1,.62-.42.63-.63,1.59-.63,2.88,0,1.07.17,2.1.51,3.08.34.98.81,1.71,1.4,2.19.45.35.98.52,1.59.52.4,0,.78-.09,1.14-.28.36-.19.78-.54,1.27-1.06Z"/>
          <path d="M151.78,681.1v6.6c.63-.66,1.2-1.12,1.72-1.4.52-.27,1.06-.41,1.62-.41.72,0,1.33.2,1.84.61.51.41.85.88,1.01,1.43.17.55.25,1.48.25,2.78v4.46c0,.87.08,1.42.24,1.63.16.22.49.35.99.41v.44h-5.79v-.44c.41-.06.71-.22.92-.49.15-.21.22-.73.22-1.55v-5.09c0-.94-.04-1.54-.11-1.78-.07-.24-.2-.43-.37-.56-.18-.13-.37-.2-.59-.2-.33,0-.64.11-.95.34-.31.22-.64.62-1,1.18v6.12c0,.81.06,1.32.18,1.53.15.28.47.45.95.51v.44h-5.79v-.44c.48-.05.82-.2,1.03-.46.14-.18.21-.7.21-1.58v-11.6c0-.86-.08-1.4-.24-1.61-.16-.21-.49-.35-1-.42v-.45h4.65Z"/>
          <path d="M172.42,697.99l-3.85-8.85c-.46-1.07-.83-1.74-1.09-2.03-.19-.21-.46-.35-.83-.43v-.45h6.07v.45c-.38,0-.64.07-.78.21-.2.18-.29.39-.29.63,0,.3.18.87.54,1.7l1.88,4.28,1.5-3.7c.43-1.06.65-1.81.65-2.25,0-.25-.09-.46-.27-.62-.18-.16-.51-.25-.97-.26v-.45h3.74v.45c-.36.05-.65.18-.88.4-.23.22-.57.87-1.03,1.94l-3.81,8.96h-.57Z"/>
          <path d="M189.43,691.54h-6.26c.07,1.51.48,2.71,1.21,3.59.56.68,1.24,1.01,2.03,1.01.49,0,.93-.14,1.33-.41.4-.27.83-.76,1.28-1.47l.42.27c-.62,1.26-1.3,2.15-2.05,2.68-.75.52-1.62.79-2.6.79-1.69,0-2.97-.65-3.85-1.95-.7-1.05-1.05-2.35-1.05-3.91,0-1.9.51-3.42,1.54-4.55,1.03-1.13,2.24-1.69,3.62-1.69,1.16,0,2.16.47,3.01,1.42.85.95,1.31,2.35,1.37,4.22ZM186.43,690.72c0-1.31-.07-2.21-.21-2.7-.14-.49-.36-.86-.67-1.11-.17-.15-.4-.22-.68-.22-.42,0-.77.21-1.04.62-.48.72-.72,1.72-.72,2.98v.43h3.32Z"/>
          <path d="M195.6,686.24v2.59c.76-1.18,1.42-1.96,1.99-2.35.57-.39,1.12-.58,1.65-.58.46,0,.82.14,1.09.42.27.28.41.68.41,1.19,0,.55-.13.97-.4,1.27-.26.3-.58.45-.96.45-.43,0-.81-.14-1.12-.42s-.5-.43-.56-.46c-.08-.05-.18-.07-.28-.07-.24,0-.46.09-.67.27-.33.28-.59.67-.76,1.18-.26.79-.39,1.66-.39,2.61v3.31c.01.46.04.76.1.89.1.22.24.38.43.48.19.1.51.17.97.19v.44h-6.16v-.44c.5-.04.83-.18,1.01-.41.17-.23.26-.84.26-1.84v-6.31c0-.65-.03-1.07-.1-1.25-.08-.23-.2-.39-.35-.5-.15-.11-.43-.18-.82-.22v-.45h4.66Z"/>
          <path d="M209.17,685.92l.18,3.89h-.42c-.5-1.16-1.01-1.95-1.54-2.37-.53-.42-1.06-.63-1.59-.63-.33,0-.62.11-.85.34-.24.22-.35.48-.35.78,0,.22.08.43.24.63.26.33.99.91,2.19,1.71s1.98,1.5,2.36,2.06c.38.57.57,1.2.57,1.9,0,.63-.16,1.26-.48,1.87-.32.61-.77,1.08-1.34,1.4-.58.33-1.22.49-1.92.49-.55,0-1.27-.17-2.19-.51-.24-.09-.41-.13-.5-.13-.27,0-.49.2-.67.61h-.4l-.2-4.1h.42c.37,1.07.87,1.88,1.51,2.42.64.54,1.24.8,1.81.8.39,0,.71-.12.96-.36.25-.24.37-.53.37-.87,0-.39-.12-.73-.37-1.01-.24-.28-.79-.72-1.64-1.29-1.25-.86-2.05-1.52-2.42-1.98-.54-.67-.81-1.4-.81-2.21,0-.88.3-1.67.91-2.39.61-.71,1.48-1.07,2.63-1.07.62,0,1.22.15,1.79.45.22.12.4.18.54.18.15,0,.26-.03.35-.09.09-.06.23-.23.43-.52h.42Z"/>
          <path d="M216.14,686.24v9.05c0,.81.09,1.32.28,1.54.19.22.55.35,1.1.38v.44h-6.16v-.44c.5-.02.88-.16,1.12-.44.16-.19.24-.68.24-1.49v-6.67c0-.81-.09-1.32-.28-1.54-.19-.22-.55-.35-1.09-.38v-.45h4.79ZM214.43,680.71c.53,0,.98.19,1.34.56s.55.82.55,1.34-.19.96-.56,1.33c-.37.37-.82.55-1.34.55s-.96-.18-1.33-.55-.55-.81-.55-1.33.18-.97.55-1.34.81-.56,1.33-.56Z"/>
          <path d="M224.02,685.9c.99,0,1.92.26,2.77.77s1.5,1.24,1.95,2.19c.44.94.67,1.98.67,3.1,0,1.62-.41,2.97-1.23,4.07-.99,1.32-2.36,1.98-4.11,1.98s-3.04-.6-3.97-1.81-1.39-2.6-1.39-4.19.47-3.06,1.42-4.28c.95-1.22,2.25-1.83,3.9-1.83ZM224.07,686.76c-.42,0-.77.16-1.07.47-.3.31-.49.93-.59,1.86-.09.92-.14,2.21-.14,3.85,0,.87.06,1.68.17,2.44.09.58.28,1.02.57,1.32s.63.45,1,.45.67-.1.92-.31c.32-.28.53-.66.63-1.16.16-.77.24-2.34.24-4.69,0-1.38-.08-2.33-.23-2.85-.15-.52-.38-.89-.68-1.13-.21-.17-.49-.26-.83-.26Z"/>
          <path d="M235.8,686.24v1.48c.59-.63,1.15-1.1,1.68-1.39.54-.29,1.11-.43,1.73-.43.74,0,1.35.21,1.84.62s.81.92.98,1.53c.13.46.2,1.36.2,2.67v4.44c0,.88.08,1.43.24,1.64.16.22.49.35.99.41v.44h-5.77v-.44c.43-.06.74-.24.93-.54.13-.2.2-.71.2-1.51v-5.08c0-.94-.04-1.53-.11-1.77s-.2-.43-.37-.57c-.17-.13-.37-.2-.58-.2-.7,0-1.35.5-1.95,1.5v6.12c0,.85.08,1.4.24,1.62.16.23.45.37.89.43v.44h-5.77v-.44c.48-.05.82-.2,1.03-.46.14-.18.21-.71.21-1.59v-6.45c0-.86-.08-1.4-.24-1.61-.16-.21-.49-.35-1-.42v-.45h4.65Z"/>
          <path d="M258.5,685.92l.18,3.89h-.42c-.5-1.16-1.01-1.95-1.54-2.37-.53-.42-1.06-.63-1.59-.63-.33,0-.62.11-.85.34-.24.22-.35.48-.35.78,0,.22.08.43.24.63.26.33.99.91,2.19,1.71s1.98,1.5,2.36,2.06c.38.57.57,1.2.57,1.9,0,.63-.16,1.26-.48,1.87-.32.61-.77,1.08-1.34,1.4-.58.33-1.22.49-1.92.49-.55,0-1.27-.17-2.19-.51-.24-.09-.41-.13-.5-.13-.27,0-.49.2-.67.61h-.4l-.2-4.1h.42c.37,1.07.87,1.88,1.51,2.42.64.54,1.24.8,1.81.8.39,0,.71-.12.96-.36.25-.24.37-.53.37-.87,0-.39-.12-.73-.37-1.01-.24-.28-.79-.72-1.64-1.29-1.25-.86-2.05-1.52-2.42-1.98-.54-.67-.81-1.4-.81-2.21,0-.88.3-1.67.91-2.39.61-.71,1.48-1.07,2.63-1.07.62,0,1.22.15,1.79.45.22.12.4.18.54.18.15,0,.26-.03.35-.09.09-.06.23-.23.43-.52h.42Z"/>
          <path d="M266.4,685.9c.99,0,1.92.26,2.77.77s1.5,1.24,1.95,2.19c.44.94.67,1.98.67,3.1,0,1.62-.41,2.97-1.23,4.07-.99,1.32-2.36,1.98-4.11,1.98s-3.04-.6-3.97-1.81-1.39-2.6-1.39-4.19.47-3.06,1.42-4.28c.95-1.22,2.25-1.83,3.9-1.83ZM266.45,686.76c-.42,0-.77.16-1.07.47-.3.31-.49.93-.59,1.86-.09.92-.14,2.21-.14,3.85,0,.87.06,1.68.17,2.44.09.58.28,1.02.57,1.32s.63.45,1,.45.67-.1.92-.31c.32-.28.53-.66.63-1.16.16-.77.24-2.34.24-4.69,0-1.38-.08-2.33-.23-2.85-.15-.52-.38-.89-.68-1.13-.21-.17-.49-.26-.83-.26Z"/>
          <path d="M277.98,681.1v14.18c0,.81.09,1.32.28,1.54.19.22.55.35,1.1.38v.44h-6.16v-.44c.5-.02.88-.16,1.12-.44.16-.19.24-.68.24-1.49v-11.82c0-.8-.09-1.31-.28-1.53-.19-.22-.55-.35-1.09-.38v-.45h4.79Z"/>
          <path d="M285.61,697.99l-3.85-8.85c-.46-1.07-.83-1.74-1.09-2.03-.19-.21-.46-.35-.83-.43v-.45h6.07v.45c-.38,0-.64.07-.78.21-.2.18-.29.39-.29.63,0,.3.18.87.54,1.7l1.88,4.28,1.5-3.7c.43-1.06.65-1.81.65-2.25,0-.25-.09-.46-.27-.62-.18-.16-.51-.25-.97-.26v-.45h3.74v.45c-.36.05-.65.18-.88.4-.23.22-.57.87-1.03,1.94l-3.81,8.96h-.57Z"/>
          <path d="M302.63,691.54h-6.26c.07,1.51.48,2.71,1.21,3.59.56.68,1.24,1.01,2.03,1.01.49,0,.93-.14,1.33-.41.4-.27.83-.76,1.28-1.47l.42.27c-.62,1.26-1.3,2.15-2.05,2.68-.75.52-1.62.79-2.6.79-1.69,0-2.97-.65-3.85-1.95-.7-1.05-1.05-2.35-1.05-3.91,0-1.9.51-3.42,1.54-4.55,1.03-1.13,2.24-1.69,3.62-1.69,1.16,0,2.16.47,3.01,1.42.85.95,1.31,2.35,1.37,4.22ZM299.63,690.72c0-1.31-.07-2.21-.21-2.7-.14-.49-.36-.86-.67-1.11-.17-.15-.4-.22-.68-.22-.42,0-.77.21-1.04.62-.48.72-.72,1.72-.72,2.98v.43h3.32Z"/>
          <path d="M311.27,685.92l.18,3.89h-.42c-.5-1.16-1.01-1.95-1.54-2.37-.53-.42-1.06-.63-1.59-.63-.33,0-.62.11-.85.34-.24.22-.35.48-.35.78,0,.22.08.43.24.63.26.33.99.91,2.19,1.71s1.98,1.5,2.36,2.06c.38.57.57,1.2.57,1.9,0,.63-.16,1.26-.48,1.87-.32.61-.77,1.08-1.34,1.4-.58.33-1.22.49-1.92.49-.55,0-1.27-.17-2.19-.51-.24-.09-.41-.13-.5-.13-.27,0-.49.2-.67.61h-.4l-.2-4.1h.42c.37,1.07.87,1.88,1.51,2.42.64.54,1.24.8,1.81.8.39,0,.71-.12.96-.36.25-.24.37-.53.37-.87,0-.39-.12-.73-.37-1.01-.24-.28-.79-.72-1.64-1.29-1.25-.86-2.05-1.52-2.42-1.98-.54-.67-.81-1.4-.81-2.21,0-.88.3-1.67.91-2.39.61-.71,1.48-1.07,2.63-1.07.62,0,1.22.15,1.79.45.22.12.4.18.54.18.15,0,.26-.03.35-.09.09-.06.23-.23.43-.52h.42Z"/>
          <path d="M325.42,685.9c.99,0,1.92.26,2.77.77s1.5,1.24,1.95,2.19c.44.94.67,1.98.67,3.1,0,1.62-.41,2.97-1.23,4.07-.99,1.32-2.36,1.98-4.11,1.98s-3.04-.6-3.97-1.81-1.39-2.6-1.39-4.19.47-3.06,1.42-4.28c.95-1.22,2.25-1.83,3.9-1.83ZM325.47,686.76c-.42,0-.77.16-1.07.47-.3.31-.49.93-.59,1.86-.09.92-.14,2.21-.14,3.85,0,.87.06,1.68.17,2.44.09.58.28,1.02.57,1.32s.63.45,1,.45.67-.1.92-.31c.32-.28.53-.66.63-1.16.16-.77.24-2.34.24-4.69,0-1.38-.08-2.33-.23-2.85-.15-.52-.38-.89-.68-1.13-.21-.17-.49-.26-.83-.26Z"/>
          <path d="M337.2,686.24v1.48c.59-.63,1.15-1.1,1.68-1.39.54-.29,1.11-.43,1.73-.43.74,0,1.35.21,1.84.62s.81.92.98,1.53c.13.46.2,1.36.2,2.67v4.44c0,.88.08,1.43.24,1.64.16.22.49.35.99.41v.44h-5.77v-.44c.43-.06.74-.24.93-.54.13-.2.2-.71.2-1.51v-5.08c0-.94-.04-1.53-.11-1.77s-.2-.43-.37-.57c-.17-.13-.37-.2-.58-.2-.7,0-1.35.5-1.95,1.5v6.12c0,.85.08,1.4.24,1.62.16.23.45.37.89.43v.44h-5.77v-.44c.48-.05.82-.2,1.03-.46.14-.18.21-.71.21-1.59v-6.45c0-.86-.08-1.4-.24-1.61-.16-.21-.49-.35-1-.42v-.45h4.65Z"/>
          <path d="M356.11,691.54h-6.26c.07,1.51.48,2.71,1.21,3.59.56.68,1.24,1.01,2.03,1.01.49,0,.93-.14,1.33-.41.4-.27.83-.76,1.28-1.47l.42.27c-.62,1.26-1.3,2.15-2.05,2.68-.75.52-1.62.79-2.6.79-1.69,0-2.97-.65-3.85-1.95-.7-1.05-1.05-2.35-1.05-3.91,0-1.9.51-3.42,1.54-4.55,1.03-1.13,2.24-1.69,3.62-1.69,1.16,0,2.16.47,3.01,1.42.85.95,1.31,2.35,1.37,4.22ZM353.11,690.72c0-1.31-.07-2.21-.21-2.7-.14-.49-.36-.86-.67-1.11-.17-.15-.4-.22-.68-.22-.42,0-.77.21-1.04.62-.48.72-.72,1.72-.72,2.98v.43h3.32Z"/>
          <path d="M373.1,694.71l.38.29c-.54,1.01-1.21,1.76-2.01,2.25-.8.49-1.65.74-2.56.74-1.52,0-2.74-.57-3.65-1.72-.91-1.15-1.37-2.53-1.37-4.14s.42-2.92,1.25-4.1c1-1.42,2.38-2.14,4.14-2.14,1.18,0,2.12.3,2.81.89.7.59,1.04,1.26,1.04,1.99,0,.46-.14.83-.42,1.11-.28.28-.65.42-1.1.42-.48,0-.88-.16-1.19-.48-.31-.32-.51-.88-.58-1.7-.05-.51-.17-.87-.35-1.07-.19-.2-.41-.3-.66-.3-.39,0-.72.21-1,.62-.42.63-.63,1.59-.63,2.88,0,1.07.17,2.1.51,3.08.34.98.81,1.71,1.4,2.19.45.35.98.52,1.59.52.4,0,.78-.09,1.14-.28.36-.19.78-.54,1.27-1.06Z"/>
          <path d="M380.27,685.9c.99,0,1.92.26,2.77.77s1.5,1.24,1.95,2.19c.44.94.67,1.98.67,3.1,0,1.62-.41,2.97-1.23,4.07-.99,1.32-2.36,1.98-4.11,1.98s-3.04-.6-3.97-1.81-1.39-2.6-1.39-4.19.47-3.06,1.42-4.28c.95-1.22,2.25-1.83,3.9-1.83ZM380.32,686.76c-.42,0-.77.16-1.07.47-.3.31-.49.93-.59,1.86-.09.92-.14,2.21-.14,3.85,0,.87.06,1.68.17,2.44.09.58.28,1.02.57,1.32s.63.45,1,.45.67-.1.92-.31c.32-.28.53-.66.63-1.16.16-.77.24-2.34.24-4.69,0-1.38-.08-2.33-.23-2.85-.15-.52-.38-.89-.68-1.13-.21-.17-.49-.26-.83-.26Z"/>
          <path d="M392.12,686.24v2.59c.76-1.18,1.42-1.96,1.99-2.35.57-.39,1.12-.58,1.65-.58.46,0,.82.14,1.09.42.27.28.41.68.41,1.19,0,.55-.13.97-.4,1.27-.26.3-.58.45-.96.45-.43,0-.81-.14-1.12-.42s-.5-.43-.56-.46c-.08-.05-.18-.07-.28-.07-.24,0-.46.09-.67.27-.33.28-.59.67-.76,1.18-.26.79-.39,1.66-.39,2.61v3.31c.01.46.04.76.1.89.1.22.24.38.43.48.19.1.51.17.97.19v.44h-6.16v-.44c.5-.04.83-.18,1.01-.41.17-.23.26-.84.26-1.84v-6.31c0-.65-.03-1.07-.1-1.25-.08-.23-.2-.39-.35-.5-.15-.11-.43-.18-.82-.22v-.45h4.66Z"/>
          <path d="M407.7,691.54h-6.26c.07,1.51.48,2.71,1.21,3.59.56.68,1.24,1.01,2.03,1.01.49,0,.93-.14,1.33-.41.4-.27.83-.76,1.28-1.47l.42.27c-.62,1.26-1.3,2.15-2.05,2.68-.75.52-1.62.79-2.6.79-1.69,0-2.97-.65-3.85-1.95-.7-1.05-1.05-2.35-1.05-3.91,0-1.9.51-3.42,1.54-4.55,1.03-1.13,2.24-1.69,3.62-1.69,1.16,0,2.16.47,3.01,1.42.85.95,1.31,2.35,1.37,4.22ZM404.69,690.72c0-1.31-.07-2.21-.21-2.7-.14-.49-.36-.86-.67-1.11-.17-.15-.4-.22-.68-.22-.42,0-.77.21-1.04.62-.48.72-.72,1.72-.72,2.98v.43h3.32Z"/>
          <path d="M419.79,696.49v4.25c0,.59.05.99.14,1.2.09.21.24.37.43.46s.58.15,1.15.15v.45h-6.51v-.45c.5-.02.88-.16,1.12-.43.16-.19.24-.67.24-1.45v-12.05c0-.81-.09-1.32-.28-1.54-.19-.22-.55-.35-1.09-.38v-.45h4.79v1.5c.4-.59.81-1.01,1.22-1.27.59-.38,1.24-.57,1.94-.57.84,0,1.6.26,2.29.79.69.53,1.21,1.26,1.57,2.19.36.93.54,1.93.54,3.01,0,1.16-.19,2.21-.56,3.17-.37.96-.91,1.68-1.61,2.18-.7.5-1.49.75-2.35.75-.63,0-1.21-.14-1.76-.42-.41-.21-.83-.57-1.28-1.09ZM419.79,695.26c.7.99,1.45,1.49,2.25,1.49.44,0,.8-.23,1.09-.7.42-.68.63-1.99.63-3.91s-.23-3.32-.7-4.04c-.31-.48-.72-.72-1.25-.72-.82,0-1.5.59-2.03,1.78v6.09Z"/>
          <path d="M434.01,686.24v2.59c.76-1.18,1.42-1.96,1.99-2.35.57-.39,1.12-.58,1.65-.58.46,0,.82.14,1.09.42.27.28.41.68.41,1.19,0,.55-.13.97-.4,1.27-.26.3-.58.45-.96.45-.43,0-.81-.14-1.12-.42s-.5-.43-.56-.46c-.08-.05-.18-.07-.28-.07-.24,0-.46.09-.67.27-.33.28-.59.67-.76,1.18-.26.79-.39,1.66-.39,2.61v3.31c.01.46.04.76.1.89.1.22.24.38.43.48.19.1.51.17.97.19v.44h-6.16v-.44c.5-.04.83-.18,1.01-.41.17-.23.26-.84.26-1.84v-6.31c0-.65-.03-1.07-.1-1.25-.08-.23-.2-.39-.35-.5-.15-.11-.43-.18-.82-.22v-.45h4.66Z"/>
          <path d="M445.31,685.9c.99,0,1.92.26,2.77.77s1.5,1.24,1.95,2.19c.44.94.67,1.98.67,3.1,0,1.62-.41,2.97-1.23,4.07-.99,1.32-2.36,1.98-4.11,1.98s-3.04-.6-3.97-1.81-1.39-2.6-1.39-4.19.47-3.06,1.42-4.28c.95-1.22,2.25-1.83,3.9-1.83ZM445.35,686.76c-.42,0-.77.16-1.07.47-.3.31-.49.93-.59,1.86-.09.92-.14,2.21-.14,3.85,0,.87.06,1.68.17,2.44.09.58.28,1.02.57,1.32s.63.45,1,.45.67-.1.92-.31c.32-.28.53-.66.63-1.16.16-.77.24-2.34.24-4.69,0-1.38-.08-2.33-.23-2.85-.15-.52-.38-.89-.68-1.13-.21-.17-.49-.26-.83-.26Z"/>
          <path d="M456.84,681.1v6.29c.96-.99,2.01-1.49,3.15-1.49.78,0,1.52.23,2.21.69.69.46,1.23,1.11,1.62,1.96s.59,1.82.59,2.93c0,1.25-.25,2.38-.74,3.39-.5,1.02-1.16,1.79-1.99,2.33-.83.53-1.78.8-2.84.8-.62,0-1.17-.1-1.65-.29-.48-.2-.95-.51-1.42-.95l-1.89,1.23h-.42v-14.51c0-.66-.03-1.07-.09-1.22-.08-.23-.21-.4-.38-.51-.18-.11-.47-.17-.89-.19v-.45h4.74ZM456.84,688.47v5.08c0,1.03.02,1.69.07,1.98.08.48.28.87.59,1.17.31.3.7.45,1.18.45.42,0,.77-.12,1.07-.35.3-.24.54-.7.74-1.4.2-.7.3-1.96.3-3.78s-.22-2.95-.66-3.6c-.32-.47-.74-.71-1.28-.71-.7,0-1.37.39-2.01,1.18Z"/>
          <path d="M470.79,681.1v14.18c0,.81.09,1.32.28,1.54.19.22.55.35,1.1.38v.44h-6.16v-.44c.5-.02.88-.16,1.12-.44.16-.19.24-.68.24-1.49v-11.82c0-.8-.09-1.31-.28-1.53-.19-.22-.55-.35-1.09-.38v-.45h4.79Z"/>
          <path d="M482.94,691.54h-6.26c.07,1.51.48,2.71,1.21,3.59.56.68,1.24,1.01,2.03,1.01.49,0,.93-.14,1.33-.41.4-.27.83-.76,1.28-1.47l.42.27c-.62,1.26-1.3,2.15-2.05,2.68-.75.52-1.62.79-2.6.79-1.69,0-2.97-.65-3.85-1.95-.7-1.05-1.05-2.35-1.05-3.91,0-1.9.51-3.42,1.54-4.55,1.03-1.13,2.24-1.69,3.62-1.69,1.16,0,2.16.47,3.01,1.42.85.95,1.31,2.35,1.37,4.22ZM479.94,690.72c0-1.31-.07-2.21-.21-2.7-.14-.49-.36-.86-.67-1.11-.17-.15-.4-.22-.68-.22-.42,0-.77.21-1.04.62-.48.72-.72,1.72-.72,2.98v.43h3.32Z"/>
          <path d="M489.1,686.24v1.5c.63-.68,1.21-1.16,1.74-1.43.53-.27,1.12-.41,1.75-.41.73,0,1.35.17,1.84.51.5.34.88.86,1.15,1.56.65-.73,1.28-1.26,1.87-1.59.6-.33,1.22-.49,1.87-.49.79,0,1.42.18,1.89.54.47.36.79.82.98,1.38.18.56.27,1.45.27,2.67v4.68c0,.88.08,1.42.24,1.64.16.21.49.35.99.42v.44h-5.9v-.44c.46-.04.81-.22,1.03-.54.15-.22.22-.72.22-1.51v-4.91c0-1.02-.04-1.66-.12-1.94-.08-.28-.21-.48-.38-.62-.17-.13-.38-.2-.62-.2-.35,0-.7.13-1.06.38-.36.26-.72.64-1.09,1.15v6.13c0,.82.07,1.34.21,1.55.19.3.54.47,1.07.5v.44h-5.91v-.44c.32-.02.57-.1.75-.24.18-.14.31-.31.37-.51.06-.2.09-.63.09-1.3v-4.91c0-1.03-.04-1.68-.12-1.94-.08-.26-.22-.46-.41-.61-.19-.15-.4-.22-.62-.22-.33,0-.62.08-.89.26-.38.25-.79.68-1.22,1.29v6.13c0,.81.08,1.34.24,1.59.16.26.49.41,1,.46v.44h-5.88v-.44c.48-.05.82-.2,1.03-.46.14-.18.21-.71.21-1.59v-6.45c0-.86-.08-1.4-.24-1.61-.16-.21-.49-.35-1-.42v-.45h4.65Z"/>
          <path d="M507.48,693.89c.57,0,1.05.2,1.45.6.4.4.59.88.59,1.44s-.2,1.04-.6,1.43c-.4.39-.88.59-1.44.59s-1.04-.2-1.43-.59c-.39-.39-.59-.87-.59-1.43s.2-1.04.59-1.44c.4-.4.87-.6,1.43-.6Z"/>
          <path d="M80.35,727.65h-9.74v-.27c2.99-3.56,4.8-5.95,5.44-7.18.64-1.23.96-2.43.96-3.6,0-.86-.26-1.56-.79-2.13-.53-.57-1.18-.85-1.94-.85-1.25,0-2.23.63-2.92,1.88l-.45-.16c.44-1.56,1.11-2.72,2-3.47.9-.75,1.93-1.12,3.1-1.12.84,0,1.6.2,2.29.59.69.39,1.23.93,1.62,1.61s.59,1.32.59,1.91c0,1.08-.3,2.18-.9,3.3-.82,1.51-2.62,3.61-5.38,6.3h3.58c.88,0,1.45-.04,1.72-.11.26-.07.48-.2.65-.37.17-.17.39-.54.67-1.1h.44l-.93,4.79Z"/>
          <path d="M85.62,723.89c.57,0,1.05.2,1.45.6.4.4.59.88.59,1.44s-.2,1.04-.6,1.43c-.4.39-.88.59-1.44.59s-1.04-.2-1.43-.59c-.39-.39-.59-.87-.59-1.43s.2-1.04.59-1.44c.4-.4.87-.6,1.43-.6Z"/>
          <path d="M115.15,727.2v.45h-8.65v-.45h.55c.48,0,.87-.09,1.16-.26.21-.11.37-.31.49-.59.09-.2.13-.71.13-1.54v-10.89c0-.85-.04-1.38-.13-1.59-.09-.21-.27-.4-.54-.56-.27-.16-.64-.24-1.1-.24h-.55v-.45h8.65v.45h-.55c-.48,0-.87.09-1.16.26-.21.11-.38.31-.5.59-.09.2-.13.71-.13,1.54v10.89c0,.85.05,1.38.14,1.59.09.21.28.4.55.56.27.16.64.24,1.1.24h.55Z"/>
          <path d="M121.1,712.06v4.17h2.71v1.21h-2.71v7.04c0,.66.03,1.08.09,1.28.06.19.17.35.32.46.15.12.3.18.43.18.53,0,1.03-.4,1.5-1.21l.37.27c-.66,1.56-1.73,2.34-3.21,2.34-.72,0-1.34-.2-1.84-.6-.5-.4-.82-.85-.96-1.35-.08-.28-.12-1.03-.12-2.25v-6.16h-1.49v-.43c1.03-.72,1.9-1.48,2.62-2.28.72-.8,1.35-1.69,1.89-2.67h.4Z"/>
          <path d="M134.56,721.54h-6.26c.07,1.51.48,2.71,1.21,3.59.56.68,1.24,1.01,2.03,1.01.49,0,.93-.14,1.33-.41.4-.27.83-.76,1.28-1.47l.42.27c-.62,1.26-1.3,2.15-2.05,2.68-.75.52-1.62.79-2.6.79-1.69,0-2.97-.65-3.85-1.95-.7-1.05-1.05-2.35-1.05-3.91,0-1.9.51-3.42,1.54-4.55,1.03-1.13,2.24-1.69,3.62-1.69,1.16,0,2.16.47,3.01,1.42.85.95,1.31,2.35,1.37,4.22ZM131.56,720.72c0-1.31-.07-2.21-.21-2.7-.14-.49-.36-.86-.67-1.11-.17-.15-.4-.22-.68-.22-.42,0-.77.21-1.04.62-.48.72-.72,1.72-.72,2.98v.43h3.32Z"/>
          <path d="M140.73,716.24v2.59c.76-1.18,1.42-1.96,1.99-2.35.57-.39,1.12-.58,1.65-.58.46,0,.82.14,1.09.42.27.28.41.68.41,1.19,0,.55-.13.97-.4,1.27-.26.3-.58.45-.96.45-.43,0-.81-.14-1.12-.42s-.5-.43-.56-.46c-.08-.05-.18-.07-.28-.07-.24,0-.46.09-.67.27-.33.28-.59.67-.76,1.18-.26.79-.39,1.66-.39,2.61v3.31c.01.46.04.76.1.89.1.22.24.38.43.48.19.1.51.17.97.19v.44h-6.16v-.44c.5-.04.83-.18,1.01-.41.17-.23.26-.84.26-1.84v-6.31c0-.65-.03-1.07-.1-1.25-.08-.23-.2-.39-.35-.5-.15-.11-.43-.18-.82-.22v-.45h4.66Z"/>
          <path d="M153.39,725.97c-1.39,1.23-2.64,1.84-3.75,1.84-.65,0-1.19-.21-1.62-.64-.43-.43-.65-.96-.65-1.61,0-.87.37-1.65,1.12-2.35.75-.7,2.38-1.62,4.9-2.78v-1.15c0-.86-.05-1.41-.14-1.63-.09-.22-.27-.42-.53-.59-.26-.17-.55-.25-.88-.25-.53,0-.96.12-1.31.35-.21.15-.32.32-.32.51,0,.17.11.38.34.63.31.35.46.69.46,1.01,0,.4-.15.74-.45,1.02-.3.28-.69.42-1.17.42-.51,0-.94-.15-1.29-.46-.35-.31-.52-.67-.52-1.09,0-.59.23-1.15.7-1.68.46-.53,1.11-.94,1.94-1.23s1.69-.43,2.59-.43c1.08,0,1.94.23,2.57.69.63.46,1.04.96,1.23,1.5.11.34.17,1.13.17,2.36v4.43c0,.52.02.85.06.98.04.13.1.23.18.3.08.07.17.1.28.1.21,0,.43-.15.65-.45l.37.29c-.41.6-.83,1.04-1.26,1.31-.44.27-.93.41-1.48.41-.65,0-1.16-.15-1.53-.46-.37-.31-.59-.77-.67-1.39ZM153.39,725.08v-3.82c-.98.58-1.72,1.2-2.2,1.86-.32.44-.48.88-.48,1.33,0,.38.13.7.4.99.2.22.49.33.85.33.41,0,.88-.23,1.42-.68Z"/>
          <path d="M164.12,712.06v4.17h2.71v1.21h-2.71v7.04c0,.66.03,1.08.09,1.28.06.19.17.35.32.46.15.12.3.18.43.18.53,0,1.03-.4,1.5-1.21l.37.27c-.66,1.56-1.73,2.34-3.21,2.34-.72,0-1.34-.2-1.84-.6-.5-.4-.82-.85-.96-1.35-.08-.28-.12-1.03-.12-2.25v-6.16h-1.49v-.43c1.03-.72,1.9-1.48,2.62-2.28.72-.8,1.35-1.69,1.89-2.67h.4Z"/>
          <path d="M172.37,716.24v9.05c0,.81.09,1.32.28,1.54.19.22.55.35,1.1.38v.44h-6.16v-.44c.5-.02.88-.16,1.12-.44.16-.19.24-.68.24-1.49v-6.67c0-.81-.09-1.32-.28-1.54-.19-.22-.55-.35-1.09-.38v-.45h4.79ZM170.66,710.71c.53,0,.98.19,1.34.56s.55.82.55,1.34-.19.96-.56,1.33c-.37.37-.82.55-1.34.55s-.96-.18-1.33-.55-.55-.81-.55-1.33.18-.97.55-1.34.81-.56,1.33-.56Z"/>
          <path d="M180.01,727.99l-3.85-8.85c-.46-1.07-.83-1.74-1.09-2.03-.19-.21-.46-.35-.83-.43v-.45h6.07v.45c-.38,0-.64.07-.78.21-.2.18-.29.39-.29.63,0,.3.18.87.54,1.7l1.88,4.28,1.5-3.7c.43-1.06.65-1.81.65-2.25,0-.25-.09-.46-.27-.62-.18-.16-.51-.25-.97-.26v-.45h3.74v.45c-.36.05-.65.18-.88.4-.23.22-.57.87-1.03,1.94l-3.81,8.96h-.57Z"/>
          <path d="M197.03,721.54h-6.26c.07,1.51.48,2.71,1.21,3.59.56.68,1.24,1.01,2.03,1.01.49,0,.93-.14,1.33-.41.4-.27.83-.76,1.28-1.47l.42.27c-.62,1.26-1.3,2.15-2.05,2.68-.75.52-1.62.79-2.6.79-1.69,0-2.97-.65-3.85-1.95-.7-1.05-1.05-2.35-1.05-3.91,0-1.9.51-3.42,1.54-4.55,1.03-1.13,2.24-1.69,3.62-1.69,1.16,0,2.16.47,3.01,1.42.85.95,1.31,2.35,1.37,4.22ZM194.02,720.72c0-1.31-.07-2.21-.21-2.7-.14-.49-.36-.86-.67-1.11-.17-.15-.4-.22-.68-.22-.42,0-.77.21-1.04.62-.48.72-.72,1.72-.72,2.98v.43h3.32Z"/>
          <path d="M211.92,715.92l.18,3.89h-.42c-.5-1.16-1.01-1.95-1.54-2.37-.53-.42-1.06-.63-1.59-.63-.33,0-.62.11-.85.34-.24.22-.35.48-.35.78,0,.22.08.43.24.63.26.33.99.91,2.19,1.71s1.98,1.5,2.36,2.06c.38.57.57,1.2.57,1.9,0,.63-.16,1.26-.48,1.87-.32.61-.77,1.08-1.34,1.4-.58.33-1.22.49-1.92.49-.55,0-1.27-.17-2.19-.51-.24-.09-.41-.13-.5-.13-.27,0-.49.2-.67.61h-.4l-.2-4.1h.42c.37,1.07.87,1.88,1.51,2.42.64.54,1.24.8,1.81.8.39,0,.71-.12.96-.36.25-.24.37-.53.37-.87,0-.39-.12-.73-.37-1.01-.24-.28-.79-.72-1.64-1.29-1.25-.86-2.05-1.52-2.42-1.98-.54-.67-.81-1.4-.81-2.21,0-.88.3-1.67.91-2.39.61-.71,1.48-1.07,2.63-1.07.62,0,1.22.15,1.79.45.22.12.4.18.54.18.15,0,.26-.03.35-.09.09-.06.23-.23.43-.52h.42Z"/>
          <path d="M219.67,728.12l-3.69-8.46c-.55-1.28-.96-2.06-1.23-2.36-.26-.29-.58-.5-.96-.61v-.45h6.07v.45c-.4.02-.68.09-.84.23-.16.14-.24.31-.24.5,0,.31.2.92.61,1.83l1.95,4.47,1.33-3.45c.48-1.23.72-2.08.72-2.56,0-.3-.1-.54-.3-.72-.2-.18-.55-.28-1.06-.29v-.45h3.82v.45c-.37.04-.68.19-.92.43-.24.25-.63,1.09-1.18,2.53l-3.26,8.46c-.82,2.12-1.43,3.42-1.83,3.91-.56.68-1.27,1.03-2.11,1.03-.68,0-1.22-.19-1.64-.58-.42-.39-.63-.85-.63-1.4,0-.47.14-.86.43-1.17.29-.31.65-.46,1.07-.46s.73.13.98.39c.25.26.38.66.38,1.21,0,.31.04.51.11.6.06.09.16.13.28.13.2,0,.4-.12.62-.35.33-.34.71-1.12,1.15-2.34l.35-.95Z"/>
          <path d="M234.15,715.92l.18,3.89h-.42c-.5-1.16-1.01-1.95-1.54-2.37-.53-.42-1.06-.63-1.59-.63-.33,0-.62.11-.85.34-.24.22-.35.48-.35.78,0,.22.08.43.24.63.26.33.99.91,2.19,1.71s1.98,1.5,2.36,2.06c.38.57.57,1.2.57,1.9,0,.63-.16,1.26-.48,1.87-.32.61-.77,1.08-1.34,1.4-.58.33-1.22.49-1.92.49-.55,0-1.27-.17-2.19-.51-.24-.09-.41-.13-.5-.13-.27,0-.49.2-.67.61h-.4l-.2-4.1h.42c.37,1.07.87,1.88,1.51,2.42.64.54,1.24.8,1.81.8.39,0,.71-.12.96-.36.25-.24.37-.53.37-.87,0-.39-.12-.73-.37-1.01-.24-.28-.79-.72-1.64-1.29-1.25-.86-2.05-1.52-2.42-1.98-.54-.67-.81-1.4-.81-2.21,0-.88.3-1.67.91-2.39.61-.71,1.48-1.07,2.63-1.07.62,0,1.22.15,1.79.45.22.12.4.18.54.18.15,0,.26-.03.35-.09.09-.06.23-.23.43-.52h.42Z"/>
          <path d="M241.19,712.06v4.17h2.71v1.21h-2.71v7.04c0,.66.03,1.08.09,1.28.06.19.17.35.32.46.15.12.3.18.43.18.53,0,1.03-.4,1.5-1.21l.37.27c-.66,1.56-1.73,2.34-3.21,2.34-.72,0-1.34-.2-1.84-.6-.5-.4-.82-.85-.96-1.35-.08-.28-.12-1.03-.12-2.25v-6.16h-1.49v-.43c1.03-.72,1.9-1.48,2.62-2.28.72-.8,1.35-1.69,1.89-2.67h.4Z"/>
          <path d="M254.66,721.54h-6.26c.07,1.51.48,2.71,1.21,3.59.56.68,1.24,1.01,2.03,1.01.49,0,.93-.14,1.33-.41.4-.27.83-.76,1.28-1.47l.42.27c-.62,1.26-1.3,2.15-2.05,2.68-.75.52-1.62.79-2.6.79-1.69,0-2.97-.65-3.85-1.95-.7-1.05-1.05-2.35-1.05-3.91,0-1.9.51-3.42,1.54-4.55,1.03-1.13,2.24-1.69,3.62-1.69,1.16,0,2.16.47,3.01,1.42.85.95,1.31,2.35,1.37,4.22ZM251.65,720.72c0-1.31-.07-2.21-.21-2.7-.14-.49-.36-.86-.67-1.11-.17-.15-.4-.22-.68-.22-.42,0-.77.21-1.04.62-.48.72-.72,1.72-.72,2.98v.43h3.32Z"/>
          <path d="M260.82,716.24v1.5c.63-.68,1.21-1.16,1.74-1.43.53-.27,1.12-.41,1.75-.41.73,0,1.35.17,1.84.51.5.34.88.86,1.15,1.56.65-.73,1.28-1.26,1.87-1.59.6-.33,1.22-.49,1.87-.49.79,0,1.42.18,1.89.54.47.36.79.82.98,1.38.18.56.27,1.45.27,2.67v4.68c0,.88.08,1.42.24,1.64.16.21.49.35.99.42v.44h-5.9v-.44c.46-.04.81-.22,1.03-.54.15-.22.22-.72.22-1.51v-4.91c0-1.02-.04-1.66-.12-1.94-.08-.28-.21-.48-.38-.62-.17-.13-.38-.2-.62-.2-.35,0-.7.13-1.06.38-.36.26-.72.64-1.09,1.15v6.13c0,.82.07,1.34.21,1.55.19.3.54.47,1.07.5v.44h-5.91v-.44c.32-.02.57-.1.75-.24.18-.14.31-.31.37-.51.06-.2.09-.63.09-1.3v-4.91c0-1.03-.04-1.68-.12-1.94-.08-.26-.22-.46-.41-.61-.19-.15-.4-.22-.62-.22-.33,0-.62.08-.89.26-.38.25-.79.68-1.22,1.29v6.13c0,.81.08,1.34.24,1.59.16.26.49.41,1,.46v.44h-5.88v-.44c.48-.05.82-.2,1.03-.46.14-.18.21-.71.21-1.59v-6.45c0-.86-.08-1.4-.24-1.61-.16-.21-.49-.35-1-.42v-.45h4.65Z"/>
          <path d="M292.83,721.54h-6.26c.07,1.51.48,2.71,1.21,3.59.56.68,1.24,1.01,2.03,1.01.49,0,.93-.14,1.33-.41.4-.27.83-.76,1.28-1.47l.42.27c-.62,1.26-1.3,2.15-2.05,2.68-.75.52-1.62.79-2.6.79-1.69,0-2.97-.65-3.85-1.95-.7-1.05-1.05-2.35-1.05-3.91,0-1.9.51-3.42,1.54-4.55,1.03-1.13,2.24-1.69,3.62-1.69,1.16,0,2.16.47,3.01,1.42.85.95,1.31,2.35,1.37,4.22ZM289.83,720.72c0-1.31-.07-2.21-.21-2.7-.14-.49-.36-.86-.67-1.11-.17-.15-.4-.22-.68-.22-.42,0-.77.21-1.04.62-.48.72-.72,1.72-.72,2.98v.43h3.32Z"/>
          <path d="M299.41,727.99l-3.85-8.85c-.46-1.07-.83-1.74-1.09-2.03-.19-.21-.46-.35-.83-.43v-.45h6.07v.45c-.38,0-.64.07-.78.21-.2.18-.29.39-.29.63,0,.3.18.87.54,1.7l1.88,4.28,1.5-3.7c.43-1.06.65-1.81.65-2.25,0-.25-.09-.46-.27-.62-.18-.16-.51-.25-.97-.26v-.45h3.74v.45c-.36.05-.65.18-.88.4-.23.22-.57.87-1.03,1.94l-3.81,8.96h-.57Z"/>
          <path d="M312.14,715.9c.99,0,1.92.26,2.77.77s1.5,1.24,1.95,2.19c.44.94.67,1.98.67,3.1,0,1.62-.41,2.97-1.23,4.07-.99,1.32-2.36,1.98-4.11,1.98s-3.04-.6-3.97-1.81-1.39-2.6-1.39-4.19.47-3.06,1.42-4.28c.95-1.22,2.25-1.83,3.9-1.83ZM312.19,716.76c-.42,0-.77.16-1.07.47-.3.31-.49.93-.59,1.86-.09.92-.14,2.21-.14,3.85,0,.87.06,1.68.17,2.44.09.58.28,1.02.57,1.32s.63.45,1,.45.67-.1.92-.31c.32-.28.53-.66.63-1.16.16-.77.24-2.34.24-4.69,0-1.38-.08-2.33-.23-2.85-.15-.52-.38-.89-.68-1.13-.21-.17-.49-.26-.83-.26Z"/>
          <path d="M323.72,711.1v14.18c0,.81.09,1.32.28,1.54.19.22.55.35,1.1.38v.44h-6.16v-.44c.5-.02.88-.16,1.12-.44.16-.19.24-.68.24-1.49v-11.82c0-.8-.09-1.31-.28-1.53-.19-.22-.55-.35-1.09-.38v-.45h4.79Z"/>
          <path d="M337.23,716.24v8.94c0,.87.08,1.42.24,1.63.16.22.49.35.99.41v.44h-4.65v-1.53c-.55.65-1.09,1.12-1.64,1.42-.55.3-1.16.45-1.83.45s-1.21-.2-1.71-.59c-.5-.39-.84-.86-1.01-1.39s-.26-1.45-.26-2.77v-4.53c0-.86-.08-1.4-.24-1.61-.16-.21-.49-.35-.99-.42v-.45h4.65v7.8c0,.81.04,1.34.12,1.57.08.24.2.42.37.54.17.12.36.18.58.18.29,0,.56-.08.79-.23.33-.21.72-.64,1.17-1.28v-6.1c0-.86-.08-1.4-.24-1.61-.16-.21-.49-.35-.99-.42v-.45h4.65Z"/>
          <path d="M344.63,712.06v4.17h2.71v1.21h-2.71v7.04c0,.66.03,1.08.09,1.28.06.19.17.35.32.46.15.12.3.18.43.18.53,0,1.03-.4,1.5-1.21l.37.27c-.66,1.56-1.73,2.34-3.21,2.34-.72,0-1.34-.2-1.84-.6-.5-.4-.82-.85-.96-1.35-.08-.28-.12-1.03-.12-2.25v-6.16h-1.49v-.43c1.03-.72,1.9-1.48,2.62-2.28.72-.8,1.35-1.69,1.89-2.67h.4Z"/>
          <path d="M352.89,716.24v9.05c0,.81.09,1.32.28,1.54.19.22.55.35,1.1.38v.44h-6.16v-.44c.5-.02.88-.16,1.12-.44.16-.19.24-.68.24-1.49v-6.67c0-.81-.09-1.32-.28-1.54-.19-.22-.55-.35-1.09-.38v-.45h4.79ZM351.18,710.71c.53,0,.98.19,1.34.56s.55.82.55,1.34-.19.96-.56,1.33c-.37.37-.82.55-1.34.55s-.96-.18-1.33-.55-.55-.81-.55-1.33.18-.97.55-1.34.81-.56,1.33-.56Z"/>
          <path d="M360.76,715.9c.99,0,1.92.26,2.77.77s1.5,1.24,1.95,2.19c.44.94.67,1.98.67,3.1,0,1.62-.41,2.97-1.23,4.07-.99,1.32-2.36,1.98-4.11,1.98s-3.04-.6-3.97-1.81-1.39-2.6-1.39-4.19.47-3.06,1.42-4.28c.95-1.22,2.25-1.83,3.9-1.83ZM360.81,716.76c-.42,0-.77.16-1.07.47-.3.31-.49.93-.59,1.86-.09.92-.14,2.21-.14,3.85,0,.87.06,1.68.17,2.44.09.58.28,1.02.57,1.32s.63.45,1,.45.67-.1.92-.31c.32-.28.53-.66.63-1.16.16-.77.24-2.34.24-4.69,0-1.38-.08-2.33-.23-2.85-.15-.52-.38-.89-.68-1.13-.21-.17-.49-.26-.83-.26Z"/>
          <path d="M372.54,716.24v1.48c.59-.63,1.15-1.1,1.68-1.39.54-.29,1.11-.43,1.73-.43.74,0,1.35.21,1.84.62s.81.92.98,1.53c.13.46.2,1.36.2,2.67v4.44c0,.88.08,1.43.24,1.64.16.22.49.35.99.41v.44h-5.77v-.44c.43-.06.74-.24.93-.54.13-.2.2-.71.2-1.51v-5.08c0-.94-.04-1.53-.11-1.77s-.2-.43-.37-.57c-.17-.13-.37-.2-.58-.2-.7,0-1.35.5-1.95,1.5v6.12c0,.85.08,1.4.24,1.62.16.23.45.37.89.43v.44h-5.77v-.44c.48-.05.82-.2,1.03-.46.14-.18.21-.71.21-1.59v-6.45c0-.86-.08-1.4-.24-1.61-.16-.21-.49-.35-1-.42v-.45h4.65Z"/>
          <path d="M384.06,723.89c.57,0,1.05.2,1.45.6.4.4.59.88.59,1.44s-.2,1.04-.6,1.43c-.4.39-.88.59-1.44.59s-1.04-.2-1.43-.59c-.39-.39-.59-.87-.59-1.43s.2-1.04.59-1.44c.4-.4.87-.6,1.43-.6Z"/>
        </g>
      </g>
    </g>
  </g>
  <g class="st40">
    <g class="st40">
      <g class="st40">
        <text class="st5" transform="translate(358.84 297.09)"><tspan x="0" y="0">V2: Task Layer</tspan></text>
      </g>
    </g>
  </g>
  <g class="st40">
    <g class="st40">
      <g class="st40">
        <text class="st5" transform="translate(606 297.3)"><tspan x="0" y="0">V3: Quality Layer</tspan></text>
      </g>
    </g>
  </g>
  <g class="st40">
    <g class="st40">
      <g class="st40">
        <text class="st5" transform="translate(868.7 296.18)"><tspan x="0" y="0">V4: Safety Layer</tspan></text>
      </g>
    </g>
  </g>
  <g class="st40">
    <g class="st40">
      <g class="st40">
        <text class="st5" transform="translate(1112.54 295.48)"><tspan x="0" y="0">V5: Validation Layer</tspan></text>
      </g>
    </g>
  </g>
  <text/>
  <g class="st40">
    <g class="st40">
      <g class="st40">
        <text class="st9" transform="translate(621.98 396.19)"><tspan x="0" y="0">preference pairs </tspan><tspan x="32.03" y="25.2" xml:space="preserve"> QA logs</tspan><tspan x="-39.11" y="50.4">distinguish better answers</tspan></text>
      </g>
    </g>
  </g>
  <g class="st40">
    <g class="st40">
      <g class="st40">
        <text class="st9" transform="translate(370.09 401.51)"><tspan x="0" y="0">three task types</tspan><tspan x="-30.04" y="25.2">supervision generation</tspan></text>
      </g>
    </g>
  </g>
  <g class="st40">
    <g class="st40">
      <g class="st40">
        <text class="st9" transform="translate(899.23 404.53)"><tspan x="0" y="0">risk refusal</tspan><tspan x="-25.08" y="25.2">boundary control</tspan></text>
      </g>
    </g>
  </g>
  <g class="st40">
    <g class="st40">
      <g class="st40">
        <text class="st9" transform="translate(1111.91 402.35)"><tspan x="0" y="0">lightweight evaluation</tspan><tspan x="17.22" y="25.2">chosen vs rejected</tspan></text>
      </g>
    </g>
  </g>
  <text class="st4" transform="translate(606.86 499.72)"><tspan x="0" y="0">explainable quality</tspan></text>
  <text class="st4" transform="translate(372.5 499.13)"><tspan x="0" y="0">task diversity</tspan></text>
  <text class="st4" transform="translate(879.52 501.99)"><tspan x="0" y="0" xml:space="preserve"> safe behavior</tspan></text>
  <text class="st4" transform="translate(1114.42 502.9)"><tspan x="0" y="0">validate effectiveness</tspan></text>
  <text class="st59" transform="translate(330.43 570.59)"><tspan class="st68"><tspan x="0" y="0">Enhancement question: </tspan></tspan><tspan class="st7"><tspan x="-1.33" y="22.8">can we generate tasks?</tspan></tspan></text>
  <text class="st59" transform="translate(596.08 575.27)"><tspan class="st68"><tspan x="0" y="0">Enhancement question: </tspan></tspan><tspan class="st7"><tspan x="-21.17" y="22.8" xml:space="preserve"> can we distinguish quality?</tspan></tspan></text>
  <text class="st59" transform="translate(851.5 579.35)"><tspan class="st68"><tspan x="0" y="0">Enhancement question: </tspan></tspan><tspan class="st7"><tspan x="9.22" y="22.8">can we control risk?</tspan></tspan></text>
  <text class="st59" transform="translate(1109.72 574.3)"><tspan class="st68"><tspan x="0" y="0">Enhancement question: </tspan></tspan><tspan class="st7"><tspan x="-.02" y="22.8" xml:space="preserve"> does it actually work?</tspan></tspan></text>
</svg>