<?xml version="1.0" encoding="UTF-8"?>
<svg id="_图层_1" data-name="图层_1" xmlns="http://www.w3.org/2000/svg" version="1.1" viewBox="0 0 900 503">
  <!-- Generator: Adobe Illustrator 29.6.0, SVG Export Plug-In . SVG Version: 2.1.1 Build 207)  -->
  <defs>
    <style>
      .st0 {
        fill: #95c6f8;
      }

      .st1 {
        fill: #a1403e;
      }

      .st2 {
        fill: #f4bab6;
      }

      .st3 {
        fill: #6c9b70;
      }

      .st4 {
        fill: #f3b4b1;
      }

      .st5 {
        fill: #884a9d;
      }

      .st6 {
        fill: #d7d7d7;
      }

      .st7 {
        fill: #bbe4bc;
      }

      .st8 {
        fill: #5a81b4;
      }

      .st9 {
        fill: #5f7ea5;
      }

      .st10 {
        fill: #cfe6fb;
      }

      .st11 {
        fill: #814495;
      }

      .st12 {
        fill: #f3f4f9;
      }

      .st13 {
        fill: #3e69a4;
      }

      .st14 {
        fill: #ead6f4;
      }

      .st15 {
        fill: #242629;
      }

      .st16 {
        fill: #d1a8e7;
      }

      .st17 {
        fill: #a6dbab;
      }

      .st18 {
        font-size: 19px;
      }

      .st18, .st19, .st20 {
        font-family: TimesNewRomanPS-BoldMT, 'Times New Roman';
        font-weight: 700;
      }

      .st21 {
        fill: #b35d5a;
      }

      .st19, .st22 {
        font-size: 15px;
      }

      .st23 {
        fill: #ededee;
      }

      .st24 {
        fill: #5f7ea8;
      }

      .st25 {
        fill: #d3d3d5;
      }

      .st26 {
        fill: #6c6f73;
      }

      .st27 {
        fill: #5f81af;
      }

      .st28 {
        fill: #3f6aa7;
      }

      .st29 {
        fill: #f0c53f;
      }

      .st30 {
        fill: #7d3d92;
      }

      .st20 {
        font-size: 29px;
      }

      .st31 {
        fill: #1cb427;
      }

      .st32 {
        fill: #9a47c4;
      }

      .st33 {
        fill: #6a8cb4;
      }

      .st22 {
        font-family: TimesNewRomanPSMT, 'Times New Roman';
      }

      .st34 {
        fill: #5f7ba2;
      }

      .st35 {
        fill: #25282c;
      }

      .st36 {
        fill: #619866;
      }

      .st37 {
        fill: #fffeff;
      }

      .st38 {
        fill: #6b8cb4;
      }

      .st39 {
        fill: #4c8c52;
      }

      .st40 {
        fill: #d1e7fc;
      }

      .st41 {
        fill: #dae1ea;
      }

      .st42 {
        fill: #ad5554;
      }

      .st43 {
        fill: #d2d2d3;
      }

      .st44 {
        fill: #cececf;
      }

      .st45 {
        fill: #647d9e;
      }

      .st46 {
        fill: #d4d4d5;
      }

      .st47 {
        fill: #524042;
      }

      .st48 {
        fill: #6b88ac;
      }

      .st49 {
        fill: #5f81a8;
      }

      .st50 {
        fill: #408145;
      }

      .st51 {
        fill: #d3d3d4;
      }

      .st52 {
        fill: #d9d9d9;
      }

      .st53 {
        fill: #eef0f3;
      }

      .st54 {
        fill: #282a2e;
      }
    </style>
  </defs>
  <g id="_x23_cececfff">
    <path class="st44" d="M0,0h.39c-.1.09-.29.26-.39.35v-.35Z"/>
    <path class="st44" d="M372.97,239.99h.87c.19,23.91-.04,47.83.26,71.75h-1.17c.05-23.92.02-47.83.04-71.75Z"/>
    <path class="st44" d="M386.47,241.39v.05s-.01.12-.01.16v-.21Z"/>
    <path class="st44" d="M373.27,313.38h.83l.21.78-.57.83-.81-.15c.09-.37.25-1.1.34-1.46Z"/>
    <path class="st44" d="M554.64,343.95c-1.82.59-4.61-3.35-2.24-4.17l.45.41c.34.44,1.04,1.31,1.38,1.75.11.5.31,1.51.41,2.01Z"/>
    <path class="st44" d="M554.64,343.95c1.41.36,2.82.81,4.3.91,36.03.05,72.08-.15,108.11.1.54-.32,1.61-.95,2.15-1.27l.37.07,1.17.21c-.49,1.02-1.33,1.82-2.54,1.72-11.05.72-22.12.1-33.18.27-24.33.16-48.65.05-72.98.01-2.6-.12-5.92.76-7.4-2.02Z"/>
  </g>
  <g id="_x23_f3f4f9ff">
    <path class="st12" d="M.39,0h899.61v503H0V.35c.1-.09.29-.26.39-.35M713.26,124.15c-1.17,3.83-.66,7.89-.6,11.83.29,3.21,3.93,3.15,6.33,3.01,2.58-.27,5.69.73,7.8-1.22.49-4.5.2-9.08-.07-13.59-2.33-1.4-5.1-.78-7.65-.84-1.98-.04-3.98-.02-5.81.81M26.66,138.65c-2.35,1.68-1.8,4.82-1.91,7.31.19,47.67.09,95.34.16,143,.21,24.6-.48,49.24.29,73.81l.92.53v-1.36c.76.9,1.51,1.82,2.25,2.74,5.84.69,11.73.2,17.59.36,38.22-.25,76.45.3,114.66-.31.74-.95,1.49-1.88,2.24-2.8v1.21s1.07.02,1.07.02c.25-3.37.35-6.75.32-10.13-.34-26.84.11-53.68-.26-80.51,4.55.07,9.1.05,13.65.04-.02.86-.05,2.59-.07,3.45,2.72-1.17,5.37-2.53,7.86-4.14.61,12.36.06,24.76.24,37.13.2,18.07-.48,36.19.36,54.23l1.22-.48c3.03,3.29,7.76,2.11,11.73,2.27,54.33-.1,108.66-.08,162.99-.05,3.81-.08,8.74,1.04,10.91-3.02l-.02,1.04.99-.06c.3-12.96.07-25.93.21-38.9-.03-3.01.26-6.07-.32-9.04l.57-.83c1.46.87,2.25.58,2.38-.89,4.21-.22,7.42-4.19,7.45-8.26.17-7.35-.04-14.69.09-22.03.06-2.58,1.1-5.2,3.29-6.69.45,1.53.72,3.09.82,4.69.02,25.67-.03,51.35-.04,77.03.12,2.12-.67,4.84,1.43,6.27,2.54,1.19,5.45.75,8.17.78,42.04-.16,84.08.02,126.12-.08,2.22.29,3.61-1.45,4.85-2.98v1.29c1.93-.39.78-2.97,1.18-4.32-.13-28.01.24-56.01-.22-84.01,4.69.03,9.39-.02,14.09.04.04.89.12,2.68.16,3.58,2.33-.98,4.46-3.47,7.07-3.14-.01-.98-.01-1.97,0-2.95-2.55.68-4.79-2.37-7.25-3.14.01.96.04,2.88.06,3.84-4.71.07-9.41.02-14.1.08.46-12.09.04-24.2.23-36.31-.2-30.99.19-61.99.05-92.99-.15-.9-.45-2.69-.6-3.59-.11-1.41-1.65-2.18-2.62-3.03l-.46.13c-3.08-.95-6.32-.62-9.49-.64-38.33.04-76.65-.04-114.98.01-3.67.05-7.38-.29-11.03.25-2.8.97-4.92,3.8-4.61,6.84.03,32.48-.14,64.97.11,97.45v.21c-.76,9.65.92,19.52-.86,29.05-.9-1.36-1.28-2.98-1.35-4.58-.24-6.69.14-13.38-.13-20.07-.42-4.95-5.16-8.72-10.12-7.76.23-1.4.35-2.81.36-4.23-.08-30.34-.06-60.68-.03-91.02.37-3.82-3.76-6.91-7.39-6.29-57.98-.09-115.97.01-173.96-.02-2.92-.08-5.98,1.53-7.26,4.21-.36,43.49.34,87.02-.28,130.52-2.63-1.36-5.17-2.88-7.81-4.19.03.89.09,2.67.12,3.56l-.56.03c-4.27-1.22-8.76.04-13.1-.65-.06-8.4.34-16.8.04-25.21-.27-33.66.18-67.32.13-100.98.08-2.02-.24-4.2-2.13-5.33-.21-.89-.76-1.28-1.65-1.17-.89-.14-2.68-.43-3.58-.58-39.28.08-78.57.04-117.86,0-4.11.2-8.87-.96-12.39,1.76M553.68,138.63c-2,1.94-1.86,4.85-1.84,7.4.16,62.98.2,125.95.16,188.93.08,1.59-.24,3.3.4,4.82-2.37.82.42,4.76,2.24,4.17,1.48,2.78,4.8,1.9,7.4,2.02,24.33.04,48.65.15,72.98-.01,11.06-.17,22.13.45,33.18-.27,1.21.1,2.05-.7,2.54-1.72,1.74-1.91,1.33-4.61,1.43-6.97-.38-20.15.02-40.31-.21-60.46,5.01.23,10.04-.08,15.05.2,3.7.13,6.47,3.71,6.14,7.33.06,31.98.08,63.97.06,95.96-.04,3.04,1.57,6.04,4.17,7.62,3.39,1.86,7.4,1.03,11.09,1.14-.02.82-.06,2.44-.07,3.25,2.93-.75,5.35-2.66,8.06-3.95-.1,11.31,0,22.62-.05,33.94-.09,1.78.17,3.57.98,5.19,1.21,2.3,4.18,2.93,6.59,2.8,47.93-.07,95.86.04,143.78-.08l.1.1.21-.52c2.83-.83,4.56-3.6,4.26-6.52.08-24.33.02-48.66.03-72.99.16-3.4-2.9-6.72-6.4-6.27-47.63-.07-95.26,0-142.89-.02-2.92-.33-6.25,1.62-6.43,4.76-.47,12.96-.13,26.16-.19,39.22-2.66-1.53-5.28-3.11-8.03-4.46.05.9.14,2.69.19,3.59-3.9.2-8.5,1.17-11.75-1.58-2.4-2.49-2.01-6.13-2.01-9.28,0-29.41,0-58.82.02-88.23,3.48,3.83,8.89,2.68,13.48,2.97-.05,1.23.06,2.44.31,3.64,2.23-1.35,4.56-2.53,6.75-3.94l.76.44c.01,13.07-.03,26.15.05,39.23-.21,3.3,2.25,6.94,5.76,6.96,48.35,0,96.72.03,145.07-.01,2.96-.21,5.45-3.14,5.29-6.1.04-25.61.17-51.23-.01-76.83.19-2.4-2.7-7.17-5.14-4.5l.94-1.27c-32.06-.41-64.15.03-96.22-.18-17.02.21-34.07-.29-51.07.26-.16.07-.48.21-.64.28l-.93.27-.19.84c-1.52-.35-3.03,1.91-2.05,3.14l-.7.17c-.29,11.99-.35,24.02.06,36.01-2.91-.85-5.33-2.77-8.05-4.03.07.93.22,2.8.3,3.73-4.37-.07-10.69,1.44-13.01-3.48-.96-3.67-1.79-7.8-5.4-9.84,3.21-1.5,4.64-5.13,4.65-8.5.02-21.01-.02-42.02-.04-63.04,0-2.75-.02-5.96,2.22-7.95,3.1-2.86,7.65-1.52,11.45-1.73v3.48c2.64-1.1,5.03-2.69,7.51-4.09.05,13.13,0,26.27.08,39.41.02,3.6,3.11,6.79,6.79,6.55,47.36.02,94.73,0,142.09.02,2.89.17,5.78-1.02,7.11-3.71.45-3.96.24-7.95.29-11.92-.03-22.32,0-44.64-.02-66.95.27-3.48-2.91-6.78-6.43-6.28-34.96-.04-69.92,0-104.88,0-13.76.2-27.56-.44-41.3.33-2.03,1.26-3.61,3.32-3.65,5.79-.16,12.03.02,24.06-.09,36.09-2.43-1.57-4.92-3.15-7.66-4.12.05.91.16,2.74.22,3.65-3.64.28-7.59-.7-10.95,1.12-3.02,1.56-4.44,5.1-4.47,8.36.09,20.68,0,41.37.02,62.05-.1,2.64.26,5.55-1.28,7.87-1.44,2.29-4.37,2.97-6.9,2.97-4.18.03-8.35.03-12.51-.03-.93-2.9-.31-5.95-.32-8.91-.13-39.65-.02-79.28.18-118.93-.14-2.88.53-6.42-2.18-8.35-.23-.9-.78-1.31-1.64-1.21-3.11-.89-6.34-.53-9.51-.57-31.33.03-62.66.07-93.98,0-3.81.1-8.09-.75-11.35,1.74M28.73,365.94c.99,1.4,2.88.95,4.34,1.09,40.97-.03,81.94-.07,122.91-.01,1.42-.14,3.21.34,4.24-.95-43.82-.42-87.67-.14-131.49-.13M390.67,365.9l.33.95c43.32.35,86.69-.02,130.03.17,1.75-.11,3.74.34,5.21-.87-15.73-.6-31.51-.1-47.26-.26-29.44-.05-58.87,0-88.31,0M719.16,444.67c-2.02,4.25-5.52,8.02-6.44,12.65,4.53.27,9.08.35,13.61-.05-1.32-4.58-4.19-8.9-7.17-12.6M713.45,464.46c-2.92.68-2.38,4.29-2.46,6.56.35,2.56-.81,6.43,2.33,7.59,3.22.14,6.47.14,9.71-.02,3.04-1.24,1.93-5.06,2.14-7.61-.01-2.33.45-5.93-2.57-6.54-3.05-.09-6.11-.09-9.15.02Z"/>
    <path class="st12" d="M54.02,151.53c1-1.45,2.28-2.5,4.18-2.06-.28,2.67.17,5.5-.6,8.08-.3.07-.9.22-1.2.29-.26-2.26.92-5.95-2.38-6.31Z"/>
    <path class="st12" d="M399.62,152.1c-1.14-3.93,3.66-2.47,5.92-2.58.11,1.57-.3,3-1.3,4.21l1.44.69c.48,3.38-3.32,3.82-5.69,2.81l-.63-1.69c1.69-.74,3.07,1.88,4.7.42-.12-1.51-1.04-2.22-2.74-2.14.67-1.12,2.58-1.24,2.59-2.78-1.47.21-2.9.58-4.29,1.06Z"/>
    <path class="st12" d="M373.84,239.98c3.79-.81,7.95,1.39,8.5,5.41.59,7.17-.13,14.39.33,21.56.15,3.12,2.15,5.7,4.63,7.44-2.19,1.62-4.3,3.75-4.56,6.62-.66,8.18.3,16.41-.34,24.59-.31,4.07-4.45,6.61-8.3,6.14-.3-23.92-.07-47.84-.26-71.76Z"/>
    <path class="st12" d="M552.85,340.19l.88.05c.12.43.38,1.28.5,1.7-.34-.44-1.04-1.31-1.38-1.75Z"/>
    <path class="st12" d="M669.2,343.69c.13-.06.4-.19.53-.26l-.16.33-.37-.07Z"/>
    <path class="st12" d="M667.05,344.96c.54-.32,1.61-.95,2.15-1.27-.54.32-1.61.95-2.15,1.27Z"/>
    <path class="st12" d="M733.52,362.07c1.69-2.62,2.48-6.32,5.24-7.94-.51,3.96-3.63,7.26-5.61,10.69-1.33-1.91-2.64-3.83-3.75-5.87,1.95.05,2.87,1.94,4.12,3.12Z"/>
  </g>
  <g id="_x23_6b88acff">
    <path class="st48" d="M713.26,124.15c1.83-.83,3.83-.85,5.81-.81,2.55.06,5.32-.56,7.65.84.27,4.51.56,9.09.07,13.59-2.11,1.95-5.22.95-7.8,1.22-2.4.14-6.04.2-6.33-3.01-.06-3.94-.57-8,.6-11.83M717.12,132.02c1.29-.3,2.57-.64,3.85-1.01.08.48.25,1.43.33,1.91-.21,2.42-3.07-.08-4.43-.03.31.54.93,1.64,1.23,2.19,2.13.55,5.67,0,4.95-2.98.07-2.35-2.67-2.26-4.3-2.35.71-2.31,4.15.11,4.28-2.89-1.82-.16-3.64-.27-5.44-.37-.43,1.81-.49,3.67-.47,5.53Z"/>
  </g>
  <g id="_x23_dae1eaff">
    <path class="st41" d="M717.12,132.02c-.02-1.86.04-3.72.47-5.53,1.8.1,3.62.21,5.44.37-.13,3-3.57.58-4.28,2.89,1.63.09,4.37,0,4.3,2.35.72,2.98-2.82,3.53-4.95,2.98-.3-.55-.92-1.65-1.23-2.19,1.36-.05,4.22,2.45,4.43.03-.08-.48-.25-1.43-.33-1.91-1.28.37-2.56.71-3.85,1.01Z"/>
  </g>
  <g id="_x23_d3d3d5ff">
    <path class="st25" d="M26.66,138.65c3.52-2.72,8.28-1.56,12.39-1.76,39.29.04,78.58.08,117.86,0,.9.15,2.69.44,3.58.58-3.1.76-6.29.6-9.45.57-39.71-.05-79.41.14-119.11,0-2.28-.08-4.52,1.24-5.7,3.16-.37,2.26-.26,4.56-.27,6.84.15,13.32-.14,26.64.1,39.95.04,57.98-.05,115.97.06,173.95v1.36l-.92-.53c-.77-24.57-.08-49.21-.29-73.81-.07-47.66.03-95.33-.16-143,.11-2.49-.44-5.63,1.91-7.31Z"/>
  </g>
  <g id="_x23_ededeeff">
    <path class="st23" d="M160.49,137.47c.89-.11,1.44.28,1.65,1.17.78,3.72.88,7.53.83,11.31-.09,12.66.11,25.32,0,37.98-45.64.14-91.27.08-136.91.06-.24-13.31.05-26.63-.1-39.95.01-2.28-.1-4.58.27-6.84,1.18-1.92,3.42-3.24,5.7-3.16,39.7.14,79.4-.05,119.11,0,3.16.03,6.35.19,9.45-.57M50.55,146.02l.48.93c-.42.12-1.25.34-1.67.45-.49,3.85-.42,7.77-.17,11.63.51,1.03,1.39,2.27,2.73,2.05,3.38.12,6.78.22,10.15-.13.94-.66,1.79-1.65,1.85-2.85.17-3.56.22-7.15-.28-10.68-.44-.11-1.32-.34-1.75-.46l.58-.87c-3.97-.09-7.95-.14-11.92-.07Z"/>
    <path class="st23" d="M185.73,140.89c1.28-2.68,4.34-4.29,7.26-4.21,57.99.03,115.98-.07,173.96.02,3.63-.62,7.76,2.47,7.39,6.29-.03,30.34-.05,60.68.03,91.02-.01,1.42-.13,2.83-.36,4.23h-1.15c-.38-16.72-.06-33.46-.18-50.2-61.8-.06-123.6-.13-185.4.04,0,58.22.1,116.45-.03,174.67l-1.22.48c-.84-18.04-.16-36.16-.36-54.23-.18-12.37.37-24.77-.24-37.13l.02-.46c.62-43.5-.08-87.03.28-130.52M233.32,146.46c-2.78,3.09-1.13,7.81-1.55,11.58-.39,3.55,3.82,3.35,6.21,3.22,2.69-.39,6.66,1.16,8.14-1.92.34-3.9.15-7.83.05-11.74-.99-.54-1.83-1.64-3.07-1.46-3.25.14-6.63-.56-9.78.32Z"/>
    <path class="st23" d="M526.47,137.48l.46-.13c.97.85,2.51,1.62,2.62,3.03-.29,1.52-.69,3.03-.68,4.59.18,14.32.13,28.65.09,42.98-47.07.09-94.13.05-141.2.05.12-14.32.17-28.64-.05-42.96-.51-3.57,2.48-7.51,6.28-6.89,41.65.34,83.31-.25,124.96.11,2.52.02,5.09.02,7.52-.78M395.17,157.03c-.44,2.26,1.36,4.7,3.81,4.2,3.21-.21,6.73.69,9.75-.59,2.43-3.59.8-8.29.96-12.34-.87-.72-1.44-2.18-2.74-2.09-3.29-.08-6.6-.17-9.89.07-3.03,2.7-1.55,7.19-1.89,10.75Z"/>
    <path class="st23" d="M668.52,137.46c.86-.1,1.41.31,1.64,1.21.67,3.08.85,6.23.81,9.38-.13,13.31.37,26.63.01,39.94-39.26.07-78.53-.03-117.79,0-.32-14.32.1-28.65-.16-42.98-.26-3.43,2.13-7.2,5.92-6.88,30.02-.19,60.04.07,90.06-.15,6.5-.07,13.07.63,19.51-.52M560.35,146.48c-2.04,1.83-1.39,5.08-1.65,7.55.19,2.4-.89,6.49,2.4,7.11,3.61.17,7.27.28,10.88-.17,2.37-1.95,1.28-5.38,1.55-8.03-.08-2.32.32-6.04-2.54-6.84-3.51-.05-7.28-.42-10.64.38Z"/>
    <path class="st23" d="M236.78,149.56c1.45-.13,2.89-.14,4.34-.02.29.63.87,1.89,1.16,2.52-1.01,1.48-2.54,2.59-3.3,4.23.72.03,2.16.09,2.88.12,0,.32,0,.97,0,1.3-1.95-.05-3.9-.06-5.84-.05.44-2.77,4.27-3.65,4.01-6.71-1.43.35-2.72,1.17-4.21,1.32.25-.68.73-2.03.97-2.71Z"/>
    <path class="st23" d="M720.97,466.77l1.68-.27c-1.59,3.17-3.5,6.17-5.3,9.22-2.06-.52-2.48-3.4-3.82-4.85,1.74-.05,2.42,1.81,3.53,2.82,1.38-2.27,2.64-4.6,3.91-6.92Z"/>
  </g>
  <g id="_x23_d7d7d7ff">
    <path class="st6" d="M386.36,143.94c-.31-3.04,1.81-5.87,4.61-6.84,3.65-.54,7.36-.2,11.03-.25,38.33-.05,76.65.03,114.98-.01,3.17.02,6.41-.31,9.49.64-2.43.8-5,.8-7.52.78-41.65-.36-83.31.23-124.96-.11-3.8-.62-6.79,3.32-6.28,6.89.22,14.32.17,28.64.05,42.96-.19,28.14.27,56.29-.27,84.42-.65-.57-1.28-1.16-1.88-1.77,1.78-9.53.1-19.4.85-29.05,0-.04.01-.12.01-.16v-.05c-.25-32.48-.08-64.97-.11-97.45Z"/>
    <path class="st6" d="M564.1,229.86c.07-2.49,2.42-4.43,4.91-3.94,28.98-.12,57.96.02,86.94-.03,2.31-.28,4.47,1.8,4.07,4.15.05,7.65.08,15.32-.03,22.98-1.17.98-2.3,2.28-3.99,2.01-29,.05-58.01.09-87.01,0-2.82.49-5.24-2.2-4.93-4.92,0-6.75-.09-13.51.04-20.26Z"/>
    <path class="st6" d="M568.36,264.47c28.89-.18,57.8-.12,86.7-.1,2.17-.14,4.86,1.18,4.93,3.6.15,7.36.1,14.73.02,22.09.01,2.99-3.5,3.99-5.95,3.72-28.38.11-56.75-.02-85.13.05-2.25.11-4.7-1.29-4.78-3.73-.17-7.04-.07-14.09-.14-21.12-.12-2.44,1.91-4.53,4.35-4.51Z"/>
    <path class="st6" d="M567.16,303.25c29.25-.51,58.56,0,87.83-.25,2.32-.37,5.23,1.3,5,3.9.05,7.36.15,14.72,0,22.08-.1,2.42-2.87,3.45-4.98,3.18-28.99-.05-57.99.03-86.98-.03-2.53.03-4.18-2.77-3.97-5.08.01-6.38.04-12.77.06-19.15-.11-2,1.02-4.1,3.04-4.65Z"/>
  </g>
  <g id="_x23_d4d4d5ff">
    <path class="st46" d="M553.68,138.63c3.26-2.49,7.54-1.64,11.35-1.74,31.32.07,62.65.03,93.98,0,3.17.04,6.4-.32,9.51.57-6.44,1.15-13.01.45-19.51.52-30.02.22-60.04-.04-90.06.15-3.79-.32-6.18,3.45-5.92,6.88.26,14.33-.16,28.66.16,42.98.11,44.66,0,89.31.02,133.97-.16,6.08.31,12.18-.36,18.23l-.45-.41c-.64-1.52-.32-3.23-.4-4.82.04-62.98,0-125.95-.16-188.93-.02-2.55-.16-5.46,1.84-7.4Z"/>
    <path class="st46" d="M162.14,138.64c1.89,1.13,2.21,3.31,2.13,5.33.05,33.66-.4,67.32-.13,100.98.3,8.41-.1,16.81-.04,25.21,4.34.69,8.83-.57,13.1.65-4.41.3-8.83.15-13.25.2.01.37.03,1.13.04,1.51.37,26.83-.08,53.67.26,80.51.03,3.38-.07,6.76-.32,10.13l-1.08-.02v-1.21c.2-58,0-116,.12-174,.11-12.66-.09-25.32,0-37.98.05-3.78-.05-7.59-.83-11.31Z"/>
    <path class="st46" d="M670.16,138.67c2.71,1.93,2.04,5.47,2.18,8.35-.2,39.65-.31,79.28-.18,118.93.01,2.96-.61,6.01.32,8.91-.13.42-.39,1.26-.52,1.68.23,20.15-.17,40.31.21,60.46-.1,2.36.31,5.06-1.43,6.97l-1.17-.21.16-.33c2.03-3.47.98-7.65,1.22-11.46.03-47.99-.08-95.98.03-143.98.36-13.31-.14-26.63-.01-39.94.04-3.15-.14-6.3-.81-9.38Z"/>
  </g>
  <g id="_x23_d3d3d4ff">
    <path class="st51" d="M528.87,144.97c-.01-1.56.39-3.07.68-4.59.15.9.45,2.69.6,3.59.14,31-.25,62-.05,92.99-.19,12.11.23,24.22-.23,36.31h-.88c-.09-28.44-.07-56.88-.03-85.32.04-14.33.09-28.66-.09-42.98Z"/>
    <path class="st51" d="M529.04,274.96h.79c.46,28,.09,56,.22,84.01-.4,1.35.75,3.93-1.19,4.32v-1.29c.22-29.01-.1-58.03.18-87.04Z"/>
    <path class="st51" d="M28.73,365.94c43.82-.01,87.67-.29,131.49.13-1.03,1.29-2.82.81-4.24.95-40.97-.06-81.94-.02-122.91.01-1.46-.14-3.35.31-4.34-1.09Z"/>
    <path class="st51" d="M390.67,365.9c29.44,0,58.87-.06,88.31,0,15.75.16,31.53-.34,47.26.26-1.47,1.21-3.46.76-5.21.87-43.34-.19-86.71.18-130.03-.17l-.33-.95Z"/>
  </g>
  <g id="_x23_6a8cb4ff">
    <path class="st33" d="M50.55,146.02c3.97-.07,7.95-.02,11.92.07l-.58.87c-3.62-.07-7.24-.1-10.86-.01l-.48-.93Z"/>
  </g>
  <g id="_x23_5a81b4ff">
    <path class="st8" d="M233.32,146.46c3.15-.88,6.53-.18,9.78-.32,1.24-.18,2.08.92,3.07,1.46.1,3.91.29,7.84-.05,11.74-1.48,3.08-5.45,1.53-8.14,1.92-2.39.13-6.6.33-6.21-3.22.42-3.77-1.23-8.49,1.55-11.58M236.78,149.56c-.24.68-.72,2.03-.97,2.71,1.49-.15,2.78-.97,4.21-1.32.26,3.06-3.57,3.94-4.01,6.71,1.94-.01,3.89,0,5.84.05,0-.33,0-.98,0-1.3-.72-.03-2.16-.09-2.88-.12.76-1.64,2.29-2.75,3.3-4.23-.29-.63-.87-1.89-1.16-2.52-1.45-.12-2.89-.11-4.34.02Z"/>
    <path class="st8" d="M716.1,156.9c.04-2.47,1.62-4.53,3.65-5.79l.48.89c-1.42,1.74-2.91,3.63-2.61,6.03.04,24.65-.02,49.29-.01,73.94-.28,2.75,1.15,6.4,4.46,6.06,47.97.33,95.94.03,143.92.08,1.92.19,3.4-1.12,4.98-1.99l1.12-.18c-1.33,2.69-4.22,3.88-7.11,3.71-47.36,0-94.73,0-142.09-.02-3.68.24-6.77-2.95-6.79-6.55-.08-13.14-.03-26.28-.08-39.41v-.68c.1-12.03-.08-24.06.08-36.09Z"/>
  </g>
  <g id="_x23_5f7ba2ff">
    <path class="st34" d="M395.17,157.03c.34-3.56-1.14-8.05,1.89-10.75,3.29-.24,6.6-.15,9.89-.07,1.3-.09,1.87,1.37,2.74,2.09-.16,4.05,1.47,8.75-.96,12.34-3.02,1.28-6.54.38-9.75.59-2.45.5-4.25-1.94-3.81-4.2M399.62,152.1c1.39-.48,2.82-.85,4.29-1.06-.01,1.54-1.92,1.66-2.59,2.78,1.7-.08,2.62.63,2.74,2.14-1.63,1.46-3.01-1.16-4.7-.42l.63,1.69c1.8,1.37,6.48,1.49,6.71-1.41.41-.87-.19-3.32-1.02-1.4l-1.44-.69c1-1.21,1.41-2.64,1.3-4.21-2.26.11-7.06-1.35-5.92,2.58Z"/>
  </g>
  <g id="_x23_5f81afff">
    <path class="st27" d="M560.35,146.48c3.36-.8,7.13-.43,10.64-.38,2.86.8,2.46,4.52,2.54,6.84-.27,2.65.82,6.08-1.55,8.03-3.61.45-7.27.34-10.88.17-3.29-.62-2.21-4.71-2.4-7.11.26-2.47-.39-5.72,1.65-7.55M562.8,156.13c1.91-.05,3.97-.01,5.08,1.82,1.85-2.58-.18-5.68.57-8.56-3.56-.52-5.3,3.86-5.65,6.74Z"/>
    <path class="st27" d="M564.44,154.83c-.38-1.14,1.19-3.06,2.4-2.47,1.25,1.43-.94,3.81-2.4,2.47Z"/>
    <path class="st27" d="M405.68,154.42c.83-1.92,1.43.53,1.02,1.4-.23,2.9-4.91,2.78-6.71,1.41,2.37,1.01,6.17.57,5.69-2.81Z"/>
  </g>
  <g id="_x23_6b8cb4ff">
    <path class="st38" d="M49.36,147.4c.42-.11,1.25-.33,1.67-.45,3.62-.09,7.24-.06,10.86.01.43.12,1.31.35,1.75.46.5,3.53.45,7.12.28,10.68-.06,1.2-.91,2.19-1.85,2.85-3.37.35-6.77.25-10.15.13-1.34.22-2.22-1.02-2.73-2.05-.25-3.86-.32-7.78.17-11.63M54.02,151.53c3.3.36,2.12,4.05,2.38,6.31.3-.07.9-.22,1.2-.29.77-2.58.32-5.41.6-8.08-1.9-.44-3.18.61-4.18,2.06Z"/>
  </g>
  <g id="_x23_eef0f3ff">
    <path class="st53" d="M562.8,156.13c.35-2.88,2.09-7.26,5.65-6.74-.75,2.88,1.28,5.98-.57,8.56-1.11-1.83-3.17-1.87-5.08-1.82M564.44,154.83c1.46,1.34,3.65-1.04,2.4-2.47-1.21-.59-2.78,1.33-2.4,2.47Z"/>
  </g>
  <g id="_x23_3e69a4ff">
    <path class="st13" d="M719.75,151.11c13.74-.77,27.54-.13,41.3-.33,34.96,0,69.92-.03,104.88,0,3.52-.5,6.7,2.8,6.43,6.28.02,22.31-.01,44.63.02,66.95-.05,3.97.16,7.96-.29,11.92l-1.12.18c.19-16.38.01-32.76.09-49.14-.13-10.33.56-20.66-.06-30.97.02-2.5-2.63-4.33-4.98-4.05-48.6.09-97.2.02-145.79.04l-.48-.89Z"/>
  </g>
  <g id="_x23_95c6f8ff">
    <path class="st0" d="M720.23,152c48.59-.02,97.19.05,145.79-.04,2.35-.28,5,1.55,4.98,4.05.62,10.31-.07,20.64.06,30.97-.08,16.38.1,32.76-.09,49.14-1.58.87-3.06,2.18-4.98,1.99-47.98-.05-95.95.25-143.92-.08-3.31.34-4.74-3.31-4.46-6.06-.01-24.65.05-49.29.01-73.94-.3-2.4,1.19-4.29,2.61-6.03M727.14,159.08c-.07,5.01-.09,10.01-.04,15.01,4.95.37,9.95.39,14.91.03.11-4.98.07-9.96-.24-14.93-4.88-.12-9.76-.32-14.63-.11M727.26,182.31c-2.56,1.16-3.06,4.17-2.97,6.67.07,6.33-.1,12.66.08,18.99-.03,3.03,2.64,5.71,5.75,5.3,42.94.09,85.88-.03,128.82.04,3,.33,5.48-2.36,5.31-5.28.03-7.32.2-14.66-.1-21.98-.13-3.08-3.44-4.6-6.17-4.32-42.32-.05-84.65.07-126.97-.04-1.31-.05-2.56.15-3.75.62Z"/>
  </g>
  <g id="_x23_3f6aa7ff">
    <path class="st28" d="M727.14,159.08c4.87-.21,9.75,0,14.63.11.31,4.97.35,9.95.24,14.93-4.96.36-9.96.34-14.91-.03-.05-5-.03-10,.04-15.01Z"/>
    <path class="st28" d="M727.26,182.31c1.19-.47,2.44-.67,3.75-.62,42.32.11,84.65-.01,126.97.04,2.73-.28,6.04,1.24,6.17,4.32.3,7.32.13,14.66.1,21.98.17,2.92-2.31,5.61-5.31,5.28-42.94-.07-85.88.05-128.82-.04-3.11.41-5.78-2.27-5.75-5.3-.18-6.33-.01-12.66-.08-18.99-.09-2.5.41-5.51,2.97-6.67M725.53,187.11c-.12,6.93-.13,13.89,0,20.82-.13,3.02,2.77,4.7,5.49,4.26,42.33,0,84.67-.01,127-.01,2.13.3,4.77-.82,4.99-3.19.32-5.65.03-11.32.14-16.98-.18-3.11.86-6.99-2.2-9-43.3-.2-86.6,0-129.91-.1-2.67-.45-5.67,1.2-5.52,4.2Z"/>
    <path class="st28" d="M78.72,231.83c1.29,1.04,2.66,2.37,2.47,4.2.12,4.64,0,9.29.02,13.94,0,.48-.01,1.43-.01,1.91,0,6.37.15,12.74-.07,19.11.22,2.79-2.63,4.73-5.22,4.37-11.29-.02-22.6.15-33.88-.09-2.76.13-3.79-2.95-3.73-5.2-.14-10.35-.1-20.7-.1-31.04.1-1.74-.14-3.63.84-5.16.12.37.34,1.12.46,1.5-.04,11.53-.09,23.07-.02,34.6-.13,2.02,1.01,4.63,3.44,4.15,11.35.03,22.7.12,34.05-.04,2.25.31,3.27-2.22,3.04-4.08,0-10.67-.04-21.35,0-32.02.08-1.72-.44-3.36-.92-4.98l-.37-1.17Z"/>
  </g>
  <g id="_x23_d1e7fcff">
    <path class="st40" d="M725.53,187.11c-.15-3,2.85-4.65,5.52-4.2,43.31.09,86.61-.1,129.91.1,3.06,2.01,2.02,5.89,2.2,9-.11,5.66.18,11.33-.14,16.98-.22,2.37-2.86,3.49-4.99,3.19-42.33,0-84.67.02-127,.01-2.72.44-5.62-1.24-5.49-4.26-.14-6.93-.13-13.89,0-20.82Z"/>
  </g>
  <g id="_x23_fffeffff">
    <path class="st37" d="M26.06,187.99c45.64.02,91.27.08,136.91-.06-.11,58,.08,116-.11,174-.75.92-1.5,1.85-2.24,2.8-38.21.61-76.44.06-114.66.31-5.86-.16-11.75.33-17.59-.36-.74-.92-1.49-1.84-2.25-2.74-.11-57.98-.02-115.97-.06-173.95M111.98,217.92c-.76.57-1.54,1.13-2.32,1.67-2.07-1.15-4.26-2.06-6.46-2.93.06.94.16,2.8.22,3.74-3.79.48-7.63,2.72-8.83,6.52-1.88,6.18.6,12.95-1.59,19.05-2.07,4.49-7.66,4.07-11.79,4-.01-4.65.1-9.3-.02-13.94.19-1.83-1.18-3.16-2.47-4.2-10.19-.75-20.47-.07-30.7-.29-3.08.14-6.74-.78-9.18,1.67l.2.66c-.98,1.53-.74,3.42-.84,5.16,0,10.34-.04,20.69.1,31.04-.06,2.25.97,5.33,3.73,5.2,11.28.24,22.59.07,33.88.09,2.59.36,5.44-1.58,5.22-4.37.22-6.37.06-12.74.07-19.11,3.15.22,6.74-.6,9.46,1.44,2.13,1.43,3.12,4.07,3.18,6.57.17,8.05-.11,16.12.17,24.17.22,4.97,4.72,8.74,9.57,8.79-.04.77-.13,2.31-.17,3.08,3.02-.25,5.43-2.46,8.25-3.41-2.22-2.32-5.38-3.39-7.98-5.21.02.92.06,2.76.08,3.68-4.02.1-8.01-2.86-8.08-7.08-.44-8.36.16-16.75-.27-25.11-.15-2.93-1.79-5.51-4.18-7.15,4.13.41,8.28-.08,12.41.31-.05.88-.14,2.62-.19,3.49,2.82-1.29,5.57-2.74,8.17-4.43-2.56-1.92-5.52-3.18-8.19-4.92.06.95.17,2.84.23,3.78-3.93.27-7.87.15-11.81.18,6.87-6.02,1.76-15.98,4.7-23.49,1.27-2.77,4.31-3.96,7.09-4.57.02.91.05,2.74.06,3.65,2.02-.85,3.8-2.11,5.49-3.48.7-.22,2.1-.66,2.8-.88.06,3.07-.63,6.34.63,9.27,1.45,2.65,4.82,2.4,7.4,2.48,4.97-.12,9.95.17,14.91-.15,2.87-.32,4.17-3.39,4.08-5.95,0-5.63.08-11.26-.04-16.88.04-2.7-2.09-5.75-5.06-5.3-6.25.05-12.52-.24-18.75.17-5,2.31-2.84,8.7-3.18,12.99M114.42,238.37c-1.91.63-2.46,2.88-2.5,4.67-.13,5.99-.07,11.98-.04,17.98-.18,2.73,2.29,5.27,5.06,5.01,5.69.01,11.38.1,17.07,0,2.75.26,5.03-2.32,4.92-4.96.09-6.03.18-12.07.05-18.1.03-2.65-2.12-5.41-4.97-5.09-6.51.24-13.19-.62-19.59.49M116.53,279.83c-2.4-.24-4.52,1.8-4.59,4.15-.28,6.33-.02,12.66-.07,18.99-.26,2.47,1.55,5.1,4.15,5.13,5.99.1,11.98.02,17.96,0,2.81.4,5.25-2.35,5.04-5.07.02-6.04.03-12.09-.01-18.13.04-2.49-1.78-5.27-4.53-5.09-5.98-.09-11.97-.04-17.95,0Z"/>
    <path class="st37" d="M187.28,188.08c61.8-.17,123.6-.1,185.4-.04.12,16.74-.2,33.48.18,50.21-3.24,0-6.49-.02-9.73.07-.03-5.43.04-10.87,0-16.3.22-2.58-1.41-5.4-4.01-6.02-2.68-.43-5.4-.19-8.09-.21-26.67.04-53.34-.08-80.01.04-2.79-.1-5.44,2.27-5.24,5.14-.06,12.01-.09,24.02.01,36.03-.13,3.22,3.15,5.54,6.19,5.16,28.32-.01,56.65.02,84.98-.02,2.99.33,6.1-2.07,6.14-5.16.15-5.65-.02-11.29.04-16.94,3.27.03,6.55.03,9.83-.05-.02,23.92.01,47.83-.04,71.75-3.3-.07-6.61-.13-9.91.01.18-5.93.26-11.88.02-17.8-.2-3.45-3.98-5.02-7.01-4.79-28.01.01-56.01-.01-84.01.01-2.9-.16-6.19,1.75-6.31,4.89-.41,6.08,0,12.19-.16,18.29-2.72-1.59-5.48-3.1-8.3-4.5.02.96.06,2.87.08,3.83-2.89-.71-4.87-3.33-5.03-6.26-.4-7.8.13-15.63-.19-23.44.02-3.05-2.02-5.51-4.42-7.14,2.17-1.67,4.2-3.93,4.39-6.8.42-7.32-.17-14.67.23-21.98.12-2.96,2.39-5.16,5.08-6.02-.03.9-.1,2.7-.13,3.61,2.85-1.38,5.79-2.64,8.32-4.58-2.73-1.62-5.57-3.03-8.44-4.36.04.87.12,2.62.16,3.49-3.55,1.04-6.57,4.02-6.71,7.87-.37,6.94.1,13.91-.17,20.86-.05,2.41-1.14,5-3.45,6.04-2.83,1.27-6.05.7-9.05.92.12.41.37,1.22.5,1.63,3.33.39,7.44-.69,9.99,2.1,1.57,1.35,1.93,3.47,2.01,5.43.22,7.72-.28,15.47.23,23.19.28,3.76,3.4,6.35,6.77,7.46-.05.84-.15,2.52-.19,3.36,2.78-1.44,5.58-2.87,8.32-4.41.1,6.09-.21,12.21.17,18.29.21,3.07,3.38,5.09,6.28,4.88,28.01,0,56.03-.02,84.05,0,3.05.27,6.78-1.38,7.02-4.79.21-5.89.13-11.79-.07-17.68,3.42-.02,6.84-.03,10.27.02-.09.36-.25,1.09-.34,1.46-.04,15.7.08,31.41-.05,47.11-2.17,4.06-7.1,2.94-10.91,3.02-54.33-.03-108.66-.05-162.99.05-3.97-.16-8.7,1.02-11.73-2.27.13-58.22.03-116.45.03-174.67M215.14,254.21c-3.57,1.45-6.11,4.99-6.41,8.82-.46,5.32,3.86,10.56,9.24,10.88,5.77.26,10.9-5.13,10.4-10.88.02-6.38-7.33-11.3-13.23-8.82M209.44,276.58c-4.3,1.27-7.96,5.05-8.81,9.49-.36,1.83,0,4.63,2.3,4.87,10.03.09,20.06.01,30.09.08,2.32.48,4.07-1.92,3.72-4.07-.55-5.41-5.25-10.05-10.65-10.64-2.72,0-5.24,1.58-8,1.24-2.93-.03-5.71-1.95-8.65-.97Z"/>
    <path class="st37" d="M387.76,188c47.07,0,94.13.04,141.2-.05-.04,28.44-.06,56.88.03,85.32-6.32.02-12.64-.05-18.96.06.24-6.12.14-12.26.1-18.38.26-2.91-2.09-6.01-5.11-5.97-28.67-.04-57.35.02-86.02-.03-3.42-.47-6.74,2.63-6.29,6.11.08,12.98-.14,25.98.13,38.96.16,3.63,4.04,4.81,7.09,4.68,26.01.04,52.02,0,78.03.04,2.96-.07,6.06.32,8.92-.64,2.16-.68,3.4-2.94,3.25-5.13.04-6,.14-12.01-.12-18.01,6.34.03,12.68,0,19.03,0-.28,29.01.04,58.03-.17,87.04-1.24,1.53-2.63,3.27-4.85,2.98-42.04.1-84.08-.08-126.12.08-2.72-.03-5.63.41-8.17-.78-2.1-1.43-1.31-4.15-1.43-6.27.01-25.68.06-51.36.04-77.03-.1-1.6-.37-3.16-.82-4.69,5.32-2.47,11.45-.66,17.11-1.21-.02.87-.05,2.61-.07,3.49,2.42-1.62,5.71-2.25,7.59-4.49-2.08-2.05-4.93-2.97-7.37-4.47-.08,1.21-.15,2.42-.21,3.64-5.68-.45-11.55.8-17.08-.83.54-28.13.08-56.28.27-84.42Z"/>
    <path class="st37" d="M553.19,187.99c39.26-.03,78.53.07,117.79,0-.11,48,0,95.99-.03,143.98-.24,3.81.81,7.99-1.22,11.46-.13.07-.4.2-.53.26-.54.32-1.61.95-2.15,1.27-36.03-.25-72.08-.05-108.11-.1-1.48-.1-2.89-.55-4.3-.91-.1-.5-.3-1.51-.41-2.01-.12-.42-.38-1.27-.5-1.7l-.88-.05c.67-6.05.2-12.15.36-18.23-.02-44.66.09-89.31-.02-133.97M565.39,225.47c-1.53.91-2.52,2.71-2.42,4.49.01,7.02-.05,14.05.03,21.07-.06,2.63,2.29,5.24,4.99,5.12,29.34.05,58.68.05,88.02.02,2.83.16,5.5-2.32,5.26-5.22.02-7.28.12-14.58-.09-21.86-.13-3.06-3.43-4.72-6.18-4.44-28.33.01-56.66-.02-84.99.02-1.55.07-3.3-.19-4.62.8M567.25,263.45c-2.62.34-4.42,2.95-4.26,5.51-.02,7.02-.11,14.06.03,21.08,0,3.04,3.06,5.05,5.89,4.87,28.7.19,57.4.01,86.1.09,2.96.4,6.35-1.85,6.21-5.05.12-7.3.14-14.61,0-21.91-.06-3.12-3.36-5.13-6.25-4.75-29.24.13-58.49-.19-87.72.16M566.19,302.25c-1.83.84-3.18,2.68-3.19,4.72-.14,6.66,0,13.32-.05,19.99-.31,2.94,1.78,6.51,5.04,6.39,28.67.11,57.35,0,86.02.05,2.01-.03,4.38.05,5.87-1.57,1.72-1.83,1.34-4.48,1.43-6.78-.09-6,.11-12.01-.1-18.01.17-2.88-2.4-5.32-5.25-5.12-27.65-.1-55.3-.03-82.95-.05-2.28.06-4.6-.18-6.82.38Z"/>
    <path class="st37" d="M374.1,313.38c.65-.03,1.95-.08,2.59-.11-.13,1.47-.92,1.76-2.38.89l-.21-.78Z"/>
  </g>
  <g id="_x23_25282cff">
    <path class="st35" d="M708.35,188.87c2.74.97,5.23,2.55,7.66,4.12v.68c-2.47,1.4-4.86,2.99-7.5,4.09v-3.48c-3.8.21-8.35-1.13-11.45,1.73-2.24,1.99-2.22,5.2-2.22,7.95.02,21.02.06,42.03.04,63.04-.01,3.37-1.44,7-4.65,8.5,3.61,2.04,4.44,6.17,5.4,9.84,2.32,4.92,8.64,3.41,13.01,3.48-.08-.93-.23-2.8-.3-3.73,2.72,1.26,5.14,3.18,8.05,4.03v.36c-.32.32-.65.63-.98.93-2.19,1.41-4.52,2.59-6.75,3.94-.25-1.2-.36-2.41-.31-3.64-4.59-.29-10,.86-13.48-2.97-.03,29.41-.03,58.82-.02,88.23,0,3.15-.39,6.79,2.01,9.28,3.25,2.75,7.85,1.78,11.75,1.58-.05-.9-.14-2.69-.19-3.59,2.75,1.35,5.37,2.93,8.03,4.46.06-13.06-.28-26.26.19-39.22l.72-.62c.05,26.17-.03,52.34.04,78.52v.84c-.82-1.62-1.08-3.41-.99-5.19.06-11.32-.05-22.63.05-33.94-2.71,1.29-5.13,3.2-8.06,3.95,0-.81.05-2.43.07-3.25-3.69-.11-7.7.72-11.09-1.14-2.6-1.58-4.21-4.58-4.17-7.62.02-31.99,0-63.98-.06-95.96.33-3.62-2.44-7.2-6.14-7.33-5.01-.28-10.04.03-15.05-.2.13-.42.39-1.26.52-1.68,4.16.06,8.33.06,12.51.03,2.53,0,5.46-.68,6.9-2.97,1.54-2.32,1.18-5.23,1.28-7.87-.02-20.68.07-41.37-.02-62.05.03-3.26,1.45-6.8,4.47-8.36,3.36-1.82,7.31-.84,10.95-1.12-.06-.91-.17-2.74-.22-3.65Z"/>
    <path class="st35" d="M257.14,234.71c2.87,1.33,5.71,2.74,8.44,4.36-2.53,1.94-5.47,3.2-8.32,4.58.03-.91.1-2.71.13-3.61-2.69.86-4.96,3.06-5.08,6.02-.4,7.31.19,14.66-.23,21.98-.19,2.87-2.22,5.13-4.39,6.8,2.4,1.63,4.44,4.09,4.42,7.14.32,7.81-.21,15.64.19,23.44.16,2.93,2.14,5.55,5.03,6.26-.02-.96-.06-2.87-.08-3.83,2.82,1.4,5.58,2.91,8.3,4.5v.3c-2.74,1.54-5.54,2.97-8.32,4.41.04-.84.14-2.52.19-3.36-3.37-1.11-6.49-3.7-6.77-7.46-.51-7.72,0-15.47-.23-23.19-.08-1.96-.44-4.08-2.01-5.43-2.55-2.79-6.66-1.71-9.99-2.1-.13-.41-.38-1.22-.5-1.63,3-.22,6.22.35,9.05-.92,2.31-1.04,3.4-3.63,3.45-6.04.27-6.95-.2-13.92.17-20.86.14-3.85,3.16-6.83,6.71-7.87-.04-.87-.12-2.62-.16-3.49Z"/>
    <path class="st35" d="M177.64,267.22c2.64,1.31,5.18,2.83,7.81,4.19l-.02.46c-2.49,1.61-5.14,2.97-7.86,4.14.02-.86.05-2.59.07-3.45-4.55.01-9.1.03-13.65-.04-.01-.38-.03-1.14-.04-1.51,4.42-.05,8.84.1,13.25-.2l.56-.03c-.03-.89-.09-2.67-.12-3.56Z"/>
    <path class="st35" d="M543.91,269.35c2.46.77,4.7,3.82,7.25,3.14-.02.98-.02,1.97,0,2.95-2.61-.33-4.74,2.16-7.07,3.14-.04-.9-.12-2.69-.16-3.58-4.7-.06-9.4-.01-14.09-.04h-.79c-6.35,0-12.69.03-19.03,0,0-.41,0-1.22.02-1.63,6.32-.11,12.64-.04,18.96-.06h.88c4.69-.06,9.39,0,14.1-.08-.02-.96-.05-2.88-.06-3.84Z"/>
  </g>
  <g id="_x23_242629ff">
    <path class="st15" d="M111.98,217.92c.34-4.29-1.82-10.68,3.18-12.99,6.23-.41,12.5-.12,18.75-.17,2.97-.45,5.1,2.6,5.06,5.3.12,5.62.04,11.25.04,16.88.09,2.56-1.21,5.63-4.08,5.95-4.96.32-9.94.03-14.91.15-2.58-.08-5.95.17-7.4-2.48-1.26-2.93-.57-6.2-.63-9.27-.7.22-2.1.66-2.8.88-1.69,1.37-3.47,2.63-5.49,3.48,0-.91-.04-2.74-.06-3.65-2.78.61-5.82,1.8-7.09,4.57-2.94,7.51,2.17,17.47-4.7,23.49,3.94-.03,7.88.09,11.81-.18-.06-.94-.17-2.83-.23-3.78,2.67,1.74,5.63,3,8.19,4.92-2.6,1.69-5.35,3.14-8.17,4.43.05-.87.14-2.61.19-3.49-4.13-.39-8.28.1-12.41-.31,2.39,1.64,4.03,4.22,4.18,7.15.43,8.36-.17,16.75.27,25.11.07,4.22,4.06,7.18,8.08,7.08-.02-.92-.06-2.76-.08-3.68,2.6,1.82,5.76,2.89,7.98,5.21-2.82.95-5.23,3.16-8.25,3.41.04-.77.13-2.31.17-3.08-4.85-.05-9.35-3.82-9.57-8.79-.28-8.05,0-16.12-.17-24.17-.06-2.5-1.05-5.14-3.18-6.57-2.72-2.04-6.31-1.22-9.46-1.44,0-.48.01-1.43.01-1.91,4.13.07,9.72.49,11.79-4,2.19-6.1-.29-12.87,1.59-19.05,1.2-3.8,5.04-6.04,8.83-6.52-.06-.94-.16-2.8-.22-3.74,2.2.87,4.39,1.78,6.46,2.93.78-.54,1.56-1.1,2.32-1.67M114.92,205.85c-3.37,2.32-1.83,6.71-2.14,10.14.4,5.04-.99,10.39,1.06,15.16,6.11,2.19,12.79.58,19.15,1.13,3.09.66,5.44-2.39,5.44-5.22-.03-6.04.16-12.09-.14-18.12-.86-1.7-2.08-3.83-4.34-3.4-6.34.16-12.75-.41-19.03.31Z"/>
    <path class="st15" d="M719.27,447.44c1.41.49,1.53,5.21-.05,5.47-.42-1.66-1.11-3.99.05-5.47Z"/>
  </g>
  <g id="_x23_bbe4bcff">
    <path class="st7" d="M114.92,205.85c6.28-.72,12.69-.15,19.03-.31,2.26-.43,3.48,1.7,4.34,3.4.3,6.03.11,12.08.14,18.12,0,2.83-2.35,5.88-5.44,5.22-6.36-.55-13.04,1.06-19.15-1.13-2.05-4.77-.66-10.12-1.06-15.16.31-3.43-1.23-7.82,2.14-10.14Z"/>
    <path class="st7" d="M269.28,217.28c1.5-.54,3.14-.22,4.7-.32,27.68.03,55.37,0,83.05,0,2.78-.44,5.31,2.24,4.96,4.97,0,11.38.02,22.75,0,34.13.37,2.71-2.22,5.31-4.93,4.92-28.35-.06-56.71-.04-85.07-.03-2.33.36-5.16-1.43-5-3.98-.22-11.64-.07-23.3-.07-34.94-.24-1.95.62-3.82,2.37-4.75Z"/>
    <path class="st7" d="M415.22,251.2c1.23-.37,2.42-1.03,3.75-1,26.69.2,53.38-.09,80.07.08,2.92-.04,5.96-.31,8.68,1.01.6,1.12,1.43,2.25,1.27,3.61-.1,12.73.08,25.47-.02,38.2.13,1.59-1.37,2.61-2.13,3.84-29.27.45-58.57.08-87.85.2-2.43.39-5.33-1.42-4.98-4.09-.02-12.68-.01-25.36-.01-38.03-.21-1.44.43-2.69,1.22-3.82Z"/>
  </g>
  <g id="_x23_408145ff">
    <path class="st50" d="M265.78,220.97c-.2-2.87,2.45-5.24,5.24-5.14,26.67-.12,53.34,0,80.01-.04,2.69.02,5.41-.22,8.09.21,2.6.62,4.23,3.44,4.01,6.02.04,5.43-.03,10.87,0,16.3,0,.43.01,1.29.01,1.72-.06,5.65.11,11.29-.04,16.94-.04,3.09-3.15,5.49-6.14,5.16-28.33.04-56.66,0-84.98.02-3.04.38-6.32-1.94-6.19-5.16-.1-12.01-.07-24.02-.01-36.03M269.28,217.28c-1.75.93-2.61,2.8-2.37,4.75,0,11.64-.15,23.3.07,34.94-.16,2.55,2.67,4.34,5,3.98,28.36-.01,56.72-.03,85.07.03,2.71.39,5.3-2.21,4.93-4.92.03-11.38,0-22.75,0-34.13.35-2.73-2.18-5.41-4.96-4.97-27.68,0-55.37.03-83.05,0-1.56.1-3.2-.22-4.7.32Z"/>
  </g>
  <g id="_x23_6c6f73ff">
    <path class="st26" d="M565.39,225.47c1.32-.99,3.07-.73,4.62-.8,28.33-.04,56.66,0,84.99-.02,2.75-.28,6.05,1.38,6.18,4.44.21,7.28.11,14.58.09,21.86.24,2.9-2.43,5.38-5.26,5.22-29.34.03-58.68.03-88.02-.02-2.7.12-5.05-2.49-4.99-5.12-.08-7.02-.02-14.05-.03-21.07-.1-1.78.89-3.58,2.42-4.49M564.1,229.86c-.13,6.75-.04,13.51-.04,20.26-.31,2.72,2.11,5.41,4.93,4.92,29,.08,58.01.04,87.01,0,1.69.27,2.82-1.03,3.99-2.01.11-7.66.08-15.33.03-22.98.4-2.35-1.76-4.43-4.07-4.15-28.98.05-57.96-.09-86.94.03-2.49-.49-4.84,1.45-4.91,3.94Z"/>
    <path class="st26" d="M215.14,254.21c5.9-2.48,13.25,2.44,13.23,8.82.5,5.75-4.63,11.14-10.4,10.88-5.38-.32-9.7-5.56-9.24-10.88.3-3.83,2.84-7.37,6.41-8.82Z"/>
    <path class="st26" d="M567.25,263.45c29.23-.35,58.48-.03,87.72-.16,2.89-.38,6.19,1.63,6.25,4.75.14,7.3.12,14.61,0,21.91.14,3.2-3.25,5.45-6.21,5.05-28.7-.08-57.4.1-86.1-.09-2.83.18-5.89-1.83-5.89-4.87-.14-7.02-.05-14.06-.03-21.08-.16-2.56,1.64-5.17,4.26-5.51M568.36,264.47c-2.44-.02-4.47,2.07-4.35,4.51.07,7.03-.03,14.08.14,21.12.08,2.44,2.53,3.84,4.78,3.73,28.38-.07,56.75.06,85.13-.05,2.45.27,5.96-.73,5.95-3.72.08-7.36.13-14.73-.02-22.09-.07-2.42-2.76-3.74-4.93-3.6-28.9-.02-57.81-.08-86.7.1Z"/>
    <path class="st26" d="M209.44,276.58c2.94-.98,5.72.94,8.65.97,2.76.34,5.28-1.24,8-1.24,5.4.59,10.1,5.23,10.65,10.64.35,2.15-1.4,4.55-3.72,4.07-10.03-.07-20.06.01-30.09-.08-2.3-.24-2.66-3.04-2.3-4.87.85-4.44,4.51-8.22,8.81-9.49Z"/>
    <path class="st26" d="M566.19,302.25c2.22-.56,4.54-.32,6.82-.38,27.65.02,55.3-.05,82.95.05,2.85-.2,5.42,2.24,5.25,5.12.21,6,0,12.01.1,18.01-.09,2.3.29,4.95-1.43,6.78-1.49,1.62-3.86,1.54-5.87,1.57-28.67-.05-57.35.06-86.02-.05-3.26.12-5.35-3.45-5.04-6.39.05-6.67-.09-13.33.05-19.99.01-2.04,1.36-3.88,3.19-4.72M567.16,303.25c-2.02.55-3.15,2.65-3.04,4.65-.02,6.38-.05,12.77-.06,19.15-.21,2.31,1.44,5.11,3.97,5.08,28.99.06,57.99-.02,86.98.03,2.11.27,4.88-.76,4.98-3.18.15-7.36.05-14.72,0-22.08.23-2.6-2.68-4.27-5-3.9-29.27.25-58.58-.26-87.83.25Z"/>
    <path class="st26" d="M729.43,373.49c42.87-.28,85.75-.05,128.63-.11,2.75-.17,6.03,1.65,5.98,4.72.58,12.9.27,25.83.27,38.74.29,3.48-3.17,5.86-6.38,5.38-42.28-.05-84.57.05-126.85-.06-3.25.52-6.76-1.68-6.71-5.17-.28-12.35.04-24.71-.1-37.06-.34-3.11,2-6.18,5.16-6.44M728.12,375.09c-2.28.96-2.85,3.7-2.75,5.93.02,11.65-.04,23.3.08,34.95-.07,2.56,1.69,5.52,4.59,5.09,42.65.13,85.3.11,127.95,0,2.46.43,5.26-1.37,5.11-4.03.13-12.67.12-25.34.07-38.01.27-2.85-2.55-4.76-5.17-4.42-41.32-.01-82.65,0-123.98-.03-1.98.04-4.01-.11-5.9.52Z"/>
  </g>
  <g id="_x23_647d9eff">
    <path class="st45" d="M38.84,233.21c2.44-2.45,6.1-1.53,9.18-1.67,10.23.22,20.51-.46,30.7.29l.37,1.17c-12.71,0-25.41-.02-38.12-.03-.37.6-1.1,1.8-1.47,2.4-.12-.38-.34-1.13-.46-1.5l-.2-.66Z"/>
  </g>
  <g id="_x23_cfe6fbff">
    <path class="st10" d="M40.97,232.97c12.71,0,25.41.04,38.12.03.48,1.62,1,3.26.92,4.98-.04,10.67,0,21.35,0,32.02.23,1.86-.79,4.39-3.04,4.08-11.35.16-22.7.07-34.05.04-2.43.48-3.57-2.13-3.44-4.15-.07-11.53-.02-23.07.02-34.6.37-.6,1.1-1.8,1.47-2.4M45.68,239.99c-.01.87-.05,2.62-.07,3.49,9.47-.15,18.94.12,28.4-.14-.02-.82-.06-2.48-.09-3.3-9.41-.14-18.82-.03-28.24-.05M45.69,248.03c-.09,1.25.03,2.47.37,3.68,9.27.07,18.55-.07,27.83-.04.02-1.2.05-2.39.07-3.58-9.42-.08-18.85.01-28.27-.06M45.71,256.09c-.06.82-.18,2.44-.24,3.25.4.09,1.21.28,1.61.37,8.93-.03,17.87-.08,26.8.02.03-1.2.06-2.4.09-3.6-9.42.05-18.84.12-28.26-.04M45.57,264.33c0,1.12,0,2.24-.02,3.36,5.32.18,10.65.24,15.97.05,0-1.17,0-2.33,0-3.49-5.32-.16-10.64-.16-15.96.08Z"/>
  </g>
  <g id="_x23_a1403eff">
    <path class="st1" d="M114.42,238.37c6.4-1.11,13.08-.25,19.59-.49,2.85-.32,5,2.44,4.97,5.09.13,6.03.04,12.07-.05,18.1.11,2.64-2.17,5.22-4.92,4.96-5.69.1-11.38.01-17.07,0-2.77.26-5.24-2.28-5.06-5.01-.03-6-.09-11.99.04-17.98.04-1.79.59-4.04,2.5-4.67M115.32,239.38c-1.3.74-2.56,1.92-2.32,3.57-.02,6.04.01,12.09.03,18.14-.25,2.58,2.72,4.12,4.97,3.89,5.34,0,10.68.03,16.01-.16,2.5,0,4.35-2.44,3.87-4.85-.37-6.17.13-12.38-.31-18.54-1.16-3.21-4.98-2.23-7.59-2.34-4.87.23-9.83-.38-14.66.29Z"/>
  </g>
  <g id="_x23_282a2eff">
    <path class="st54" d="M363.13,238.32c3.24-.09,6.49-.07,9.73-.07h1.15c4.96-.97,9.7,2.8,10.12,7.75.27,6.69-.11,13.38.13,20.07.07,1.6.45,3.22,1.35,4.58.6.61,1.23,1.2,1.88,1.77,5.53,1.63,11.4.38,17.08.83.06-1.22.13-2.43.21-3.64,2.44,1.5,5.29,2.42,7.37,4.47-1.88,2.24-5.17,2.87-7.59,4.49.02-.88.05-2.62.07-3.49-5.66.55-11.79-1.26-17.11,1.21-2.19,1.49-3.23,4.11-3.29,6.69-.13,7.34.08,14.68-.09,22.03-.03,4.07-3.24,8.04-7.45,8.26-.64.03-1.94.08-2.59.11h-.83c-3.43-.05-6.85-.04-10.27-.02.01-.4.02-1.2.02-1.61,3.3-.14,6.61-.08,9.91-.01h1.17c3.85.47,7.99-2.07,8.3-6.14.64-8.18-.32-16.41.34-24.59.26-2.87,2.37-5,4.56-6.62-2.48-1.74-4.48-4.32-4.63-7.44-.46-7.17.26-14.39-.33-21.56-.55-4.02-4.71-6.22-8.5-5.41h-.87c-3.28.09-6.56.09-9.83.06,0-.43-.01-1.29-.01-1.72Z"/>
  </g>
  <g id="_x23_f3b4b1ff">
    <path class="st4" d="M115.32,239.38c4.83-.67,9.79-.06,14.66-.29,2.61.11,6.43-.87,7.59,2.34.44,6.16-.06,12.37.31,18.54.48,2.41-1.37,4.86-3.87,4.85-5.33.19-10.67.16-16.01.16-2.25.23-5.22-1.31-4.97-3.89-.02-6.05-.05-12.1-.03-18.14-.24-1.65,1.02-2.83,2.32-3.57Z"/>
  </g>
  <g id="_x23_5f7ea5ff">
    <path class="st9" d="M45.68,239.99c9.42.02,18.83-.09,28.24.05.03.82.07,2.48.09,3.3-9.46.26-18.93,0-28.4.14.02-.87.06-2.62.07-3.49Z"/>
    <path class="st9" d="M45.71,256.09c9.42.16,18.84.09,28.26.04-.03,1.2-.06,2.4-.09,3.6-8.93-.1-17.87-.05-26.8-.02-.4-.09-1.21-.28-1.61-.37.06-.81.18-2.43.24-3.25Z"/>
  </g>
  <g id="_x23_5f7ea8ff">
    <path class="st24" d="M45.69,248.03c9.42.07,18.85-.02,28.27.06-.02,1.19-.05,2.38-.07,3.58-9.28-.03-18.56.11-27.83.04-.34-1.21-.46-2.43-.37-3.68Z"/>
  </g>
  <g id="_x23_d1a8e7ff">
    <path class="st16" d="M720.2,248.69c.16-.07.48-.21.64-.28l-.04.62-.6-.34Z"/>
    <path class="st16" d="M720.8,249.03c.52.1,1.56.31,2.08.42,48.1.15,96.21-.19,144.31.15,1.42.53,2.67,1.4,3.83,2.39-.01,27.01-.07,54.02.02,81.03-1.49,1.73-3.52,3.18-5.93,2.95-46.71.07-93.42,0-140.13.03-2.43.15-5.07-.37-6.69-2.34-1.2-3.07-.75-6.44-.8-9.65.19-23.73-.12-47.47.12-71.19.68-.86,1.37-1.73,2.09-2.58.27-.31.83-.91,1.1-1.21M727.02,256.96c-.19,4.65-.11,9.31.09,13.97.23.22.7.67.93.9,4.6-.11,9.65,1.11,13.97-.76.16-4.72.04-9.44-.05-14.16-4.89-.78-10.08-.81-14.94.05M728.34,279.43c-2.43.63-4.15,2.99-4.04,5.49-.1,6.35.17,12.71-.25,19.06-.44,3.46,2.22,7.21,5.91,7.02,43.05-.01,86.1.01,129.15-.01,2.54-.14,5.3-2.33,5.12-5.09.12-7.28.15-14.58-.04-21.87-.03-3.12-3.33-5.09-6.18-4.98-39,.06-78-.03-117.01.03-4.21.11-8.51-.47-12.66.35Z"/>
  </g>
  <g id="_x23_814495ff">
    <path class="st11" d="M720.84,248.41c17-.55,34.05-.05,51.07-.26,32.07.21,64.16-.23,96.22.18l-.94,1.27c-48.1-.34-96.21,0-144.31-.15-.52-.11-1.56-.32-2.08-.42l.04-.62Z"/>
    <path class="st11" d="M719.27,248.96l.93-.27.6.34c-.27.3-.83.9-1.1,1.21l-.62-.44.19-.84Z"/>
    <path class="st11" d="M867.19,249.6c2.44-2.67,5.33,2.1,5.14,4.5.18,25.6.05,51.22.01,76.83.16,2.96-2.33,5.89-5.29,6.1-48.35.04-96.72.01-145.07.01-3.51-.02-5.97-3.66-5.76-6.96-.08-13.08-.04-26.16-.05-39.23l-.76-.44c.33-.3.66-.61.99-.93v-.36c-.42-11.99-.36-24.02-.07-36.01l.7-.17.58-.12c-.24,23.72.07,47.46-.12,71.19.05,3.21-.4,6.58.8,9.65,1.62,1.97,4.26,2.49,6.69,2.34,46.71-.03,93.42.04,140.13-.03,2.41.23,4.44-1.22,5.93-2.95-.09-27.01-.03-54.02-.02-81.03-1.16-.99-2.41-1.86-3.83-2.39Z"/>
  </g>
  <g id="_x23_619866ff">
    <path class="st36" d="M412.71,255.06c-.45-3.48,2.87-6.58,6.29-6.11,28.67.05,57.35,0,86.02.03,3.02-.04,5.37,3.06,5.11,5.97.04,6.12.14,12.26-.1,18.38-.01.41-.02,1.22-.02,1.63.26,6,.16,12.01.12,18.01.15,2.19-1.09,4.45-3.25,5.13-2.86.96-5.96.57-8.92.64-26.01-.03-52.02,0-78.03-.04-3.05.13-6.93-1.05-7.09-4.68-.27-12.98-.05-25.98-.13-38.96M415.22,251.2c-.79,1.13-1.43,2.38-1.22,3.82,0,12.67-.01,25.35.01,38.03-.35,2.67,2.55,4.48,4.98,4.09,29.28-.12,58.58.25,87.85-.2.76-1.23,2.26-2.25,2.13-3.84.1-12.73-.08-25.47.02-38.2.16-1.36-.67-2.49-1.27-3.61-2.72-1.32-5.76-1.05-8.68-1.01-26.69-.17-53.38.12-80.07-.08-1.33-.03-2.52.63-3.75,1Z"/>
  </g>
  <g id="_x23_884a9dff">
    <path class="st5" d="M717.03,252.94c-.98-1.23.53-3.49,2.05-3.14l.62.44c-.72.85-1.41,1.72-2.09,2.58l-.58.12Z"/>
  </g>
  <g id="_x23_9a47c4ff">
    <path class="st32" d="M727.02,256.96c4.86-.86,10.05-.83,14.94-.05.09,4.72.21,9.44.05,14.16-4.32,1.87-9.37.65-13.97.76-.23-.23-.7-.68-.93-.9-.2-4.66-.28-9.32-.09-13.97Z"/>
  </g>
  <g id="_x23_5f81a8ff">
    <path class="st49" d="M45.57,264.33c5.32-.24,10.64-.24,15.96-.08,0,1.16,0,2.32,0,3.49-5.32.19-10.65.13-15.97-.05.01-1.12.01-2.24.02-3.36Z"/>
  </g>
  <g id="_x23_ad5554ff">
    <path class="st42" d="M116.53,279.83c5.98-.05,11.97-.1,17.95,0,2.75-.18,4.57,2.6,4.53,5.09.04,6.04.03,12.09.01,18.13.21,2.72-2.23,5.47-5.04,5.07-5.98.01-11.97.09-17.96,0-2.6-.03-4.41-2.66-4.15-5.13.05-6.33-.21-12.66.07-18.99.07-2.35,2.19-4.39,4.59-4.15M115.35,281.37c-1.08.86-2.32,1.96-2.15,3.5-.23,6.05-.22,12.12-.18,18.18-.18,2.07,1.87,4.03,3.92,3.87,5.7,0,11.4.1,17.1.03,2.06.21,3.68-1.92,3.59-3.85-.06-6.07.14-12.15.05-18.22.07-1.91-1.54-3.97-3.57-3.76-6.24.13-12.56-.33-18.76.25Z"/>
  </g>
  <g id="_x23_7d3d92ff">
    <path class="st30" d="M728.34,279.43c4.15-.82,8.45-.24,12.66-.35,39.01-.06,78.01.03,117.01-.03,2.85-.11,6.15,1.86,6.18,4.98.19,7.29.16,14.59.04,21.87.18,2.76-2.58,4.95-5.12,5.09-43.05.02-86.1,0-129.15.01-3.69.19-6.35-3.56-5.91-7.02.42-6.35.15-12.71.25-19.06-.11-2.5,1.61-4.86,4.04-5.49M727.32,281.28c-2.14,1.49-1.8,4.45-1.94,6.72.05,5.85-.18,11.7.11,17.54.16,3.24,3.68,4.72,6.53,4.36,41.99-.08,83.98-.02,125.97.01,2.24.19,5.19-1.39,5.01-3.94.04-7.71.08-15.42.01-23.12-1.07-1.7-2.98-2.58-4.95-2.45-41.68.01-83.37,0-125.05,0-1.93.02-3.96-.11-5.69.88Z"/>
  </g>
  <g id="_x23_ead6f4ff">
    <path class="st14" d="M727.32,281.28c1.73-.99,3.76-.86,5.69-.88,41.68,0,83.37.01,125.05,0,1.97-.13,3.88.75,4.95,2.45.07,7.7.03,15.41-.01,23.12.18,2.55-2.77,4.13-5.01,3.94-41.99-.03-83.98-.09-125.97-.01-2.85.36-6.37-1.12-6.53-4.36-.29-5.84-.06-11.69-.11-17.54.14-2.27-.2-5.23,1.94-6.72Z"/>
  </g>
  <g id="_x23_f4bab6ff">
    <path class="st2" d="M115.35,281.37c6.2-.58,12.52-.12,18.76-.25,2.03-.21,3.64,1.85,3.57,3.76.09,6.07-.11,12.15-.05,18.22.09,1.93-1.53,4.06-3.59,3.85-5.7.07-11.4-.02-17.1-.03-2.05.16-4.1-1.8-3.92-3.87-.04-6.06-.05-12.13.18-18.18-.17-1.54,1.07-2.64,2.15-3.5Z"/>
    <path class="st2" d="M269.14,291.06c29.3-.27,58.62-.06,87.92-.13,2.42-.48,4.62,1.68,4.73,4.01.11,11.68.25,23.37,0,35.05-.16,2-1.45,4.57-3.84,4.04-28.97.06-57.95.03-86.92.02-2.67.35-4.3-2.75-4-5.07-.04-11.36-.04-22.73-.01-34.09-.17-1.62,1.3-2.65,2.12-3.83Z"/>
  </g>
  <g id="_x23_b35d5aff">
    <path class="st21" d="M265.71,294.06c.12-3.14,3.41-5.05,6.31-4.89,28-.02,56,0,84.01-.01,3.03-.23,6.81,1.34,7.01,4.79.24,5.92.16,11.87-.02,17.8,0,.41,0,1.21-.02,1.61.2,5.89.28,11.79.07,17.68-.24,3.41-3.97,5.06-7.02,4.79-28.02-.03-56.04,0-84.05,0-2.9.21-6.07-1.81-6.28-4.88-.38-6.08-.07-12.2-.17-18.29v-.3c.16-6.1-.25-12.21.16-18.29M269.14,291.06c-.82,1.18-2.29,2.21-2.12,3.83-.03,11.36-.03,22.73.01,34.09-.3,2.32,1.33,5.42,4,5.07,28.97.01,57.95.04,86.92-.02,2.39.53,3.68-2.04,3.84-4.04.25-11.68.11-23.37,0-35.05-.11-2.33-2.31-4.49-4.73-4.01-29.3.07-58.62-.14-87.92.13Z"/>
  </g>
  <g id="_x23_d2d2d3ff">
    <path class="st43" d="M372.93,314.84l.81.15c.58,2.97.29,6.03.32,9.04-.14,12.97.09,25.94-.21,38.9l-.99.06.02-1.04c.13-15.7.01-31.41.05-47.11Z"/>
  </g>
  <g id="_x23_4c8c52ff">
    <path class="st39" d="M716.64,348.48c.18-3.14,3.51-5.09,6.43-4.76,47.63.01,95.26-.05,142.89.02,3.5-.45,6.56,2.87,6.4,6.27-.01,24.33.05,48.66-.03,72.99.3,2.92-1.43,5.69-4.26,6.52.42-1.6,1.79-2.62,2.88-3.75.27-25.25.09-50.52.09-75.78.4-2.78-2.22-5.38-4.98-5-48.02.04-96.04-.03-144.06.04-2.02-.14-3.16,1.82-4.64,2.83l-.72.62Z"/>
  </g>
  <g id="_x23_a6dbabff">
    <path class="st17" d="M717.36,347.86c1.48-1.01,2.62-2.97,4.64-2.83,48.02-.07,96.04,0,144.06-.04,2.76-.38,5.38,2.22,4.98,5,0,25.26.18,50.53-.09,75.78-1.09,1.13-2.46,2.15-2.88,3.75l-.21.52-.1-.1c-.45-.32-1.35-.96-1.79-1.28-47.68-.21-95.38-.04-143.07-.1-2.05-.01-3.74-1.34-5.5-2.18-.07-26.18,0-52.35-.04-78.52M728.35,352.39c-2.68.94-1.26,4.49-1.66,6.61.41,2.64-1.12,6.42,1.42,8.2,3.23.64,6.6.17,9.89.31,1.64.15,4.11-.43,4.12-2.5.26-3.65.06-7.31.27-10.95-1.02-.77-1.88-2.18-3.35-1.92-3.56.07-7.14-.06-10.69.25M729.43,373.49c-3.16.26-5.5,3.33-5.16,6.44.14,12.35-.18,24.71.1,37.06-.05,3.49,3.46,5.69,6.71,5.17,42.28.11,84.57.01,126.85.06,3.21.48,6.67-1.9,6.38-5.38,0-12.91.31-25.84-.27-38.74.05-3.07-3.23-4.89-5.98-4.72-42.88.06-85.76-.17-128.63.11Z"/>
  </g>
  <g id="_x23_1cb427ff">
    <path class="st31" d="M728.35,352.39c3.55-.31,7.13-.18,10.69-.25,1.47-.26,2.33,1.15,3.35,1.92-.21,3.64-.01,7.3-.27,10.95-.01,2.07-2.48,2.65-4.12,2.5-3.29-.14-6.66.33-9.89-.31-2.54-1.78-1.01-5.56-1.42-8.2.4-2.12-1.02-5.67,1.66-6.61M733.52,362.07c-1.25-1.18-2.17-3.07-4.12-3.12,1.11,2.04,2.42,3.96,3.75,5.87,1.98-3.43,5.1-6.73,5.61-10.69-2.76,1.62-3.55,5.32-5.24,7.94Z"/>
    <path class="st31" d="M713.45,464.46c3.04-.11,6.1-.11,9.15-.02,3.02.61,2.56,4.21,2.57,6.54-.21,2.55.9,6.37-2.14,7.61-3.24.16-6.49.16-9.71.02-3.14-1.16-1.98-5.03-2.33-7.59.08-2.27-.46-5.88,2.46-6.56M720.97,466.77c-1.27,2.32-2.53,4.65-3.91,6.92-1.11-1.01-1.79-2.87-3.53-2.82,1.34,1.45,1.76,4.33,3.82,4.85,1.8-3.05,3.71-6.05,5.3-9.22l-1.68.27Z"/>
  </g>
  <g id="_x23_d9d9d9ff">
    <path class="st52" d="M728.12,375.09c1.89-.63,3.92-.48,5.9-.52,41.33.04,82.66.02,123.98.03,2.62-.34,5.44,1.57,5.17,4.42.05,12.67.06,25.34-.07,38.01.15,2.66-2.65,4.46-5.11,4.03-42.65.11-85.3.13-127.95,0-2.9.43-4.66-2.53-4.59-5.09-.12-11.65-.06-23.3-.08-34.95-.1-2.23.47-4.97,2.75-5.93Z"/>
  </g>
  <g id="_x23_6c9b70ff">
    <path class="st3" d="M717.39,427.22v-.84c1.77.84,3.46,2.17,5.51,2.18,47.69.06,95.39-.11,143.07.1.44.32,1.34.96,1.79,1.28-47.92.12-95.85.01-143.78.08-2.41.13-5.38-.5-6.59-2.8Z"/>
  </g>
  <g id="_x23_f0c53fff">
    <path class="st29" d="M719.16,444.67c2.98,3.7,5.85,8.02,7.17,12.6-4.53.4-9.08.32-13.61.05.92-4.63,4.42-8.4,6.44-12.65M719.27,447.44c-1.16,1.48-.47,3.81-.05,5.47,1.58-.26,1.46-4.98.05-5.47M719.1,454.25c-1.56,3.15,3.15.21,0,0Z"/>
  </g>
  <g id="_x23_524042ff">
    <path class="st47" d="M719.1,454.25c3.15.21-1.56,3.15,0,0Z"/>
  </g>
  <text class="st19" transform="translate(88.08 413.72)"><tspan x="0" y="0">Key insight:</tspan><tspan x="-64.61" y="18">Beyond single supervision signal</tspan><tspan x="-48.72" y="36">SFT + Preference + Review</tspan></text>
  <g>
    <path d="M332.6,395.38c1.58-.06,2.87.4,3.86,1.38.99.98,1.48,2.21,1.48,3.68,0,1.26-.37,2.37-1.11,3.32-.98,1.27-2.36,1.9-4.14,1.9s-3.17-.6-4.15-1.82c-.77-.96-1.16-2.09-1.16-3.41,0-1.47.5-2.7,1.5-3.69,1-.98,2.24-1.45,3.7-1.39ZM332.69,395.84c-.91,0-1.6.46-2.07,1.39-.39.76-.58,1.86-.58,3.28,0,1.7.3,2.95.89,3.76.42.57,1,.85,1.74.85.5,0,.92-.12,1.26-.37.43-.31.76-.81,1-1.5.24-.69.36-1.58.36-2.68,0-1.31-.12-2.3-.37-2.95-.24-.65-.56-1.11-.93-1.38-.38-.27-.81-.4-1.31-.4Z"/>
    <path d="M341.63,404.75v2.55c0,.35.03.59.08.72.06.13.14.22.26.28s.35.09.69.09v.27h-3.9v-.27c.3-.01.53-.1.67-.26.1-.11.15-.4.15-.87v-7.23c0-.48-.06-.79-.17-.93-.11-.13-.33-.21-.65-.23v-.27h2.87v.9c.24-.35.48-.61.73-.76.36-.23.74-.34,1.16-.34.5,0,.96.16,1.37.48.41.32.73.76.94,1.31.21.56.32,1.16.32,1.81,0,.69-.11,1.33-.33,1.9-.22.57-.54,1.01-.97,1.31-.42.3-.89.45-1.41.45-.38,0-.73-.08-1.05-.25-.24-.13-.5-.34-.77-.65ZM341.63,404.01c.42.6.87.89,1.35.89.26,0,.48-.14.65-.42.25-.41.38-1.19.38-2.34s-.14-1.99-.42-2.42c-.19-.29-.43-.43-.75-.43-.49,0-.9.36-1.22,1.07v3.65Z"/>
    <path d="M350.04,396.09v2.51h1.63v.72h-1.63v4.23c0,.39.02.65.05.76.04.12.1.21.19.28.09.07.18.11.26.11.32,0,.62-.24.9-.73l.22.16c-.4.94-1.04,1.41-1.93,1.41-.43,0-.8-.12-1.1-.36-.3-.24-.49-.51-.58-.81-.05-.17-.07-.62-.07-1.35v-3.7h-.89v-.26c.62-.43,1.14-.89,1.57-1.37.43-.48.81-1.01,1.13-1.6h.24Z"/>
    <path d="M354.99,398.6v5.43c0,.48.06.79.17.93.11.13.33.21.66.23v.26h-3.7v-.26c.3,0,.53-.1.67-.26.1-.11.15-.41.15-.89v-4c0-.48-.06-.79-.17-.93-.11-.13-.33-.21-.65-.23v-.27h2.87ZM353.96,395.28c.32,0,.59.11.81.33.22.22.33.49.33.8s-.11.58-.33.8c-.22.22-.49.33-.8.33s-.58-.11-.8-.33-.33-.49-.33-.8.11-.58.33-.8c.22-.22.49-.33.8-.33Z"/>
    <path d="M359.71,398.39c.6,0,1.15.15,1.66.46s.9.75,1.17,1.31c.27.57.4,1.19.4,1.86,0,.97-.25,1.78-.74,2.44-.6.79-1.42,1.19-2.47,1.19s-1.82-.36-2.38-1.08-.83-1.56-.83-2.51.28-1.84.85-2.57c.57-.73,1.35-1.09,2.34-1.09ZM359.74,398.91c-.25,0-.46.09-.64.28-.18.19-.3.56-.35,1.11-.06.55-.08,1.32-.08,2.31,0,.52.03,1.01.1,1.46.05.35.17.61.34.79s.38.27.6.27.4-.06.55-.18c.19-.17.32-.4.38-.7.1-.46.15-1.4.15-2.81,0-.83-.05-1.4-.14-1.71-.09-.31-.23-.54-.41-.68-.13-.1-.29-.15-.5-.15Z"/>
    <path d="M366.78,398.6v.89c.35-.38.69-.66,1.01-.83.32-.17.67-.26,1.04-.26.44,0,.81.12,1.11.37.29.25.49.55.59.92.08.28.12.81.12,1.6v2.67c0,.53.05.86.14.99.1.13.29.21.6.25v.26h-3.46v-.26c.26-.03.44-.14.56-.32.08-.12.12-.42.12-.91v-3.05c0-.56-.02-.92-.07-1.06s-.12-.26-.22-.34c-.11-.08-.22-.12-.35-.12-.42,0-.81.3-1.17.9v3.67c0,.51.05.84.14.97.09.14.27.22.53.26v.26h-3.46v-.26c.29-.03.49-.12.62-.28.08-.11.12-.42.12-.95v-3.87c0-.52-.05-.84-.14-.97-.09-.13-.29-.21-.6-.25v-.27h2.79Z"/>
    <path d="M376.1,404.43c-.83.74-1.58,1.11-2.25,1.11-.39,0-.72-.13-.97-.38-.26-.26-.39-.58-.39-.96,0-.52.22-.99.67-1.41.45-.42,1.43-.97,2.94-1.67v-.69c0-.52-.03-.84-.08-.98-.06-.13-.16-.25-.32-.35-.16-.1-.33-.15-.53-.15-.32,0-.58.07-.78.21-.13.09-.19.19-.19.31,0,.1.07.23.21.38.19.21.28.41.28.61,0,.24-.09.44-.27.61-.18.17-.41.25-.7.25-.31,0-.57-.09-.77-.28-.21-.18-.31-.4-.31-.65,0-.35.14-.69.42-1.01.28-.32.67-.57,1.16-.74s1.02-.26,1.55-.26c.65,0,1.16.14,1.54.41.38.28.62.58.74.9.07.21.1.68.1,1.41v2.66c0,.31.01.51.04.59.02.08.06.14.11.18s.1.06.17.06c.13,0,.26-.09.39-.27l.22.18c-.24.36-.5.62-.76.79-.26.16-.56.25-.89.25-.39,0-.7-.09-.92-.28-.22-.18-.35-.46-.4-.83ZM376.1,403.9v-2.29c-.59.35-1.03.72-1.32,1.11-.19.26-.29.53-.29.8,0,.22.08.42.24.59.12.13.29.2.51.2.24,0,.53-.14.85-.41Z"/>
    <path d="M382.51,395.51v8.51c0,.48.06.79.17.93.11.13.33.21.66.23v.26h-3.7v-.26c.3,0,.53-.1.67-.26.1-.11.15-.41.15-.89v-7.09c0-.48-.06-.79-.17-.92-.11-.13-.33-.21-.65-.23v-.27h2.87Z"/>
    <path d="M393.54,401.78h-3.76c.04.91.29,1.63.73,2.15.34.41.74.61,1.22.61.29,0,.56-.08.8-.25.24-.16.5-.46.77-.88l.25.16c-.37.76-.78,1.29-1.23,1.61-.45.32-.97.47-1.56.47-1.02,0-1.78-.39-2.31-1.17-.42-.63-.63-1.41-.63-2.34,0-1.14.31-2.05.93-2.73.62-.68,1.34-1.01,2.17-1.01.69,0,1.29.28,1.81.85.51.57.79,1.41.82,2.53ZM391.74,401.29c0-.79-.04-1.33-.13-1.62-.08-.29-.22-.51-.4-.67-.1-.09-.24-.13-.41-.13-.25,0-.46.12-.62.37-.29.43-.43,1.03-.43,1.79v.26h1.99Z"/>
    <path d="M397.2,398.6v.89c.35-.38.69-.66,1.01-.83.32-.17.67-.26,1.04-.26.44,0,.81.12,1.11.37.29.25.49.55.59.92.08.28.12.81.12,1.6v2.67c0,.53.05.86.14.99.1.13.29.21.6.25v.26h-3.46v-.26c.26-.03.44-.14.56-.32.08-.12.12-.42.12-.91v-3.05c0-.56-.02-.92-.07-1.06s-.12-.26-.22-.34c-.11-.08-.22-.12-.35-.12-.42,0-.81.3-1.17.9v3.67c0,.51.05.84.14.97.09.14.27.22.53.26v.26h-3.46v-.26c.29-.03.49-.12.62-.28.08-.11.12-.42.12-.95v-3.87c0-.52-.05-.84-.14-.97-.09-.13-.29-.21-.6-.25v-.27h2.79Z"/>
    <path d="M405.54,395.51v3.96c.38-.4.72-.68,1.03-.84.31-.16.64-.25.97-.25.43,0,.8.12,1.1.37.31.25.51.53.61.86.1.33.15.88.15,1.67v2.67c0,.52.05.85.15.98.1.13.29.21.59.25v.26h-3.47v-.26c.24-.03.43-.13.55-.29.09-.13.13-.44.13-.93v-3.05c0-.57-.02-.92-.07-1.07-.04-.14-.12-.26-.22-.34-.1-.08-.22-.12-.35-.12-.2,0-.39.07-.57.2-.19.13-.39.37-.6.71v3.67c0,.49.04.79.11.92.09.17.28.27.57.31v.26h-3.47v-.26c.29-.03.49-.12.62-.28.08-.11.12-.42.12-.94v-6.96c0-.52-.05-.84-.14-.97-.09-.13-.29-.21-.6-.25v-.27h2.79Z"/>
    <path d="M414.86,404.43c-.83.74-1.58,1.11-2.25,1.11-.39,0-.72-.13-.97-.38-.26-.26-.39-.58-.39-.96,0-.52.22-.99.67-1.41.45-.42,1.43-.97,2.94-1.67v-.69c0-.52-.03-.84-.08-.98-.06-.13-.16-.25-.32-.35-.16-.1-.33-.15-.53-.15-.32,0-.58.07-.78.21-.13.09-.19.19-.19.31,0,.1.07.23.21.38.19.21.28.41.28.61,0,.24-.09.44-.27.61-.18.17-.41.25-.7.25-.31,0-.57-.09-.77-.28-.21-.18-.31-.4-.31-.65,0-.35.14-.69.42-1.01.28-.32.67-.57,1.16-.74s1.02-.26,1.55-.26c.65,0,1.16.14,1.54.41.38.28.62.58.74.9.07.21.1.68.1,1.41v2.66c0,.31.01.51.04.59.02.08.06.14.11.18s.1.06.17.06c.13,0,.26-.09.39-.27l.22.18c-.24.36-.5.62-.76.79-.26.16-.56.25-.89.25-.39,0-.7-.09-.92-.28-.22-.18-.35-.46-.4-.83ZM414.86,403.9v-2.29c-.59.35-1.03.72-1.32,1.11-.19.26-.29.53-.29.8,0,.22.08.42.24.59.12.13.29.2.51.2.24,0,.53-.14.85-.41Z"/>
    <path d="M421.38,398.6v.89c.35-.38.69-.66,1.01-.83.32-.17.67-.26,1.04-.26.44,0,.81.12,1.11.37.29.25.49.55.59.92.08.28.12.81.12,1.6v2.67c0,.53.05.86.14.99.1.13.29.21.6.25v.26h-3.46v-.26c.26-.03.44-.14.56-.32.08-.12.12-.42.12-.91v-3.05c0-.56-.02-.92-.07-1.06s-.12-.26-.22-.34c-.11-.08-.22-.12-.35-.12-.42,0-.81.3-1.17.9v3.67c0,.51.05.84.14.97.09.14.27.22.53.26v.26h-3.46v-.26c.29-.03.49-.12.62-.28.08-.11.12-.42.12-.95v-3.87c0-.52-.05-.84-.14-.97-.09-.13-.29-.21-.6-.25v-.27h2.79Z"/>
    <path d="M432.52,403.68l.23.18c-.32.61-.72,1.06-1.21,1.35-.48.3-.99.44-1.53.44-.91,0-1.64-.34-2.19-1.03-.55-.69-.82-1.52-.82-2.48s.25-1.75.75-2.46c.6-.85,1.43-1.28,2.48-1.28.71,0,1.27.18,1.69.53.42.36.63.75.63,1.19,0,.28-.08.5-.25.67-.17.17-.39.25-.66.25-.29,0-.53-.09-.71-.29-.19-.19-.3-.53-.35-1.02-.03-.31-.1-.52-.21-.64s-.24-.18-.4-.18c-.23,0-.43.12-.6.37-.25.38-.38.95-.38,1.73,0,.64.1,1.26.31,1.85.21.59.49,1.03.84,1.31.27.21.59.32.95.32.24,0,.47-.06.68-.17s.47-.32.76-.64Z"/>
    <path d="M439.39,401.78h-3.76c.04.91.29,1.63.72,2.15.34.41.74.61,1.22.61.29,0,.56-.08.8-.25.24-.16.5-.46.77-.88l.25.16c-.37.76-.78,1.29-1.23,1.61-.45.32-.97.47-1.56.47-1.02,0-1.79-.39-2.31-1.17-.42-.63-.63-1.41-.63-2.34,0-1.14.31-2.05.93-2.73.62-.68,1.34-1.01,2.17-1.01.69,0,1.29.28,1.81.85.51.57.78,1.41.82,2.53ZM437.58,401.29c0-.79-.04-1.33-.13-1.62-.09-.29-.22-.51-.4-.67-.1-.09-.24-.13-.41-.13-.25,0-.46.12-.62.37-.29.43-.43,1.03-.43,1.79v.26h1.99Z"/>
    <path d="M443.08,398.6v.9c.38-.41.72-.7,1.04-.86.32-.16.67-.25,1.05-.25.44,0,.81.1,1.11.31s.53.52.69.94c.39-.44.77-.76,1.12-.95.36-.2.73-.29,1.12-.29.47,0,.85.11,1.13.33.28.22.48.49.59.83.11.33.17.87.17,1.6v2.8c0,.53.05.85.14.98.1.13.29.21.6.25v.26h-3.54v-.26c.28-.02.48-.13.62-.32.09-.13.13-.43.13-.91v-2.94c0-.61-.02-1-.07-1.17-.05-.17-.13-.29-.23-.37-.11-.08-.23-.12-.37-.12-.21,0-.42.08-.64.23-.21.15-.43.38-.65.69v3.68c0,.49.04.8.12.93.11.18.33.28.64.3v.26h-3.54v-.26c.19,0,.34-.06.45-.14.11-.09.18-.19.22-.31.04-.12.05-.38.05-.78v-2.94c0-.62-.02-1.01-.07-1.17-.05-.16-.13-.28-.25-.37-.12-.09-.24-.13-.37-.13-.2,0-.37.05-.53.15-.23.15-.47.41-.73.78v3.68c0,.48.05.8.14.96.09.15.29.25.6.27v.26h-3.53v-.26c.29-.03.49-.12.62-.28.08-.11.12-.42.12-.95v-3.87c0-.52-.05-.84-.14-.97-.09-.13-.29-.21-.6-.25v-.27h2.79Z"/>
    <path d="M458.54,401.78h-3.76c.04.91.29,1.63.73,2.15.34.41.74.61,1.22.61.29,0,.56-.08.8-.25.24-.16.5-.46.77-.88l.25.16c-.37.76-.78,1.29-1.23,1.61-.45.32-.97.47-1.56.47-1.02,0-1.78-.39-2.31-1.17-.42-.63-.63-1.41-.63-2.34,0-1.14.31-2.05.93-2.73.62-.68,1.34-1.01,2.17-1.01.69,0,1.29.28,1.81.85.51.57.79,1.41.82,2.53ZM456.74,401.29c0-.79-.04-1.33-.13-1.62-.08-.29-.22-.51-.4-.67-.1-.09-.24-.13-.41-.13-.25,0-.46.12-.62.37-.29.43-.43,1.03-.43,1.79v.26h1.99Z"/>
    <path d="M462.19,398.6v.89c.35-.38.69-.66,1.01-.83.32-.17.67-.26,1.04-.26.44,0,.81.12,1.11.37.29.25.49.55.59.92.08.28.12.81.12,1.6v2.67c0,.53.05.86.14.99.1.13.29.21.6.25v.26h-3.46v-.26c.26-.03.44-.14.56-.32.08-.12.12-.42.12-.91v-3.05c0-.56-.02-.92-.07-1.06s-.12-.26-.22-.34c-.11-.08-.22-.12-.35-.12-.42,0-.81.3-1.17.9v3.67c0,.51.05.84.14.97.09.14.27.22.53.26v.26h-3.46v-.26c.29-.03.49-.12.62-.28.08-.11.12-.42.12-.95v-3.87c0-.52-.05-.84-.14-.97-.09-.13-.29-.21-.6-.25v-.27h2.79Z"/>
    <path d="M470.46,396.09v2.51h1.63v.72h-1.63v4.23c0,.39.02.65.05.76.04.12.1.21.19.28.09.07.18.11.26.11.32,0,.62-.24.9-.73l.22.16c-.4.94-1.04,1.41-1.93,1.41-.43,0-.8-.12-1.1-.36-.3-.24-.49-.51-.58-.81-.05-.17-.07-.62-.07-1.35v-3.7h-.89v-.26c.62-.43,1.14-.89,1.57-1.37.43-.48.81-1.01,1.13-1.6h.24Z"/>
    <path d="M477.06,398.41l.11,2.34h-.25c-.3-.69-.61-1.17-.93-1.42-.32-.25-.64-.38-.96-.38-.2,0-.37.07-.51.2-.14.13-.21.29-.21.46,0,.13.05.26.15.38.16.2.59.54,1.31,1.03.72.49,1.19.9,1.42,1.24.23.34.34.72.34,1.14,0,.38-.09.75-.29,1.12-.19.37-.46.65-.81.84s-.73.29-1.15.29c-.33,0-.76-.1-1.31-.31-.15-.05-.25-.08-.3-.08-.16,0-.29.12-.4.37h-.24l-.12-2.46h.25c.22.64.52,1.13.9,1.45.38.32.75.48,1.09.48.23,0,.43-.07.58-.22.15-.14.22-.32.22-.52,0-.23-.07-.44-.22-.61s-.47-.43-.98-.78c-.75-.52-1.23-.91-1.45-1.19-.32-.4-.48-.84-.48-1.33,0-.53.18-1,.54-1.43.36-.43.89-.64,1.58-.64.37,0,.73.09,1.08.27.13.07.24.11.32.11.09,0,.16-.02.21-.06.05-.04.14-.14.26-.31h.25Z"/>
    <path d="M480.56,403.19c.34,0,.63.12.87.36.24.24.36.53.36.86s-.12.62-.36.86c-.24.24-.53.36-.86.36s-.62-.12-.86-.36-.36-.52-.36-.86.12-.62.36-.86c.24-.24.52-.36.86-.36ZM480.57,398.4c.34,0,.62.12.86.36s.36.52.36.86-.12.62-.36.86-.52.36-.86.36-.62-.12-.86-.36c-.24-.24-.36-.52-.36-.86s.12-.62.36-.86c.24-.24.52-.36.86-.36Z"/>
    <path d="M329.46,416.4c.58,0,1.07.2,1.48.61.41.41.61.9.61,1.48s-.2,1.07-.61,1.48c-.41.41-.9.62-1.48.62s-1.08-.21-1.48-.62c-.41-.41-.61-.9-.61-1.48s.2-1.08.61-1.48c.41-.41.9-.61,1.49-.61Z"/>
    <path d="M351.85,413.29l.08,3.31h-.3c-.14-.83-.49-1.5-1.04-2-.55-.5-1.15-.76-1.8-.76-.5,0-.89.13-1.18.4-.29.27-.44.57-.44.92,0,.22.05.42.15.59.14.23.37.46.68.68.23.16.76.45,1.59.86,1.16.57,1.95,1.11,2.35,1.62.4.51.6,1.09.6,1.74,0,.83-.32,1.54-.97,2.14-.65.6-1.47.9-2.46.9-.31,0-.61-.03-.89-.1s-.63-.18-1.05-.36c-.23-.1-.43-.15-.58-.15-.13,0-.26.05-.4.15s-.26.25-.34.45h-.27v-3.75h.27c.21,1.05.63,1.86,1.24,2.41.61.55,1.27.83,1.98.83.55,0,.98-.15,1.31-.45.32-.3.49-.64.49-1.04,0-.23-.06-.46-.19-.68-.12-.22-.31-.43-.57-.63-.25-.2-.7-.46-1.35-.77-.9-.44-1.55-.82-1.95-1.13s-.7-.66-.91-1.05c-.21-.39-.32-.81-.32-1.28,0-.79.29-1.46.87-2.02s1.31-.83,2.2-.83c.32,0,.63.04.94.12.23.06.51.17.84.33.33.16.56.24.69.24s.23-.04.3-.12.14-.27.21-.56h.22Z"/>
    <path d="M357.27,414.08v4.08h.29c.44,0,.8-.07,1.08-.2s.51-.35.71-.67c.19-.31.32-.74.38-1.27h.26v4.99h-.26c-.09-.94-.35-1.56-.76-1.86-.41-.3-.88-.45-1.4-.45h-.29v3.04c0,.51.03.83.08.95.06.13.17.24.33.33.16.1.38.14.66.14h.33v.27h-5.19v-.27h.33c.29,0,.52-.05.7-.15.13-.07.22-.19.29-.35.05-.12.08-.42.08-.92v-6.53c0-.51-.03-.83-.08-.95s-.16-.24-.33-.33c-.16-.1-.38-.14-.66-.14h-.33v-.27h8.38v2.85h-.3c-.07-.67-.24-1.17-.52-1.49-.28-.32-.69-.55-1.22-.68-.29-.07-.83-.11-1.63-.11h-.92Z"/>
    <path d="M371.77,413.51v2.69h-.26c-.16-.62-.33-1.07-.52-1.34-.19-.27-.45-.49-.78-.65-.19-.09-.51-.13-.97-.13h-.74v7.66c0,.51.03.83.08.95.06.13.17.24.33.33.16.1.39.14.67.14h.33v.27h-5.2v-.27h.33c.29,0,.52-.05.7-.15.13-.07.23-.19.3-.35.05-.12.08-.42.08-.92v-7.66h-.72c-.67,0-1.15.14-1.46.42-.42.4-.69.96-.81,1.69h-.28v-2.69h8.92Z"/>
    <path d="M380.61,413.29v.34c-.51.33-.88.66-1.12.97-.33.44-.59,1-.78,1.69-.23.86-.35,2.05-.35,3.58,0,1.45.11,2.57.32,3.37.21.8.5,1.45.87,1.94.25.34.61.64,1.06.9v.37c-1.18-.4-2.17-1.2-2.99-2.42-.82-1.22-1.23-2.62-1.23-4.2s.41-2.95,1.22-4.15c.82-1.2,1.81-2,3-2.39Z"/>
    <path d="M385.62,416.41l.11,2.34h-.25c-.3-.69-.61-1.17-.93-1.42-.32-.25-.64-.38-.96-.38-.2,0-.37.07-.51.2-.14.13-.21.29-.21.46,0,.13.05.26.15.38.16.2.59.54,1.31,1.03.72.49,1.19.9,1.42,1.24.23.34.34.72.34,1.14,0,.38-.09.75-.29,1.12-.19.37-.46.65-.81.84s-.73.29-1.15.29c-.33,0-.76-.1-1.31-.31-.15-.05-.25-.08-.3-.08-.16,0-.29.12-.4.37h-.24l-.12-2.46h.25c.22.64.52,1.13.9,1.45.38.32.75.48,1.09.48.23,0,.43-.07.58-.22.15-.14.22-.32.22-.52,0-.23-.07-.44-.22-.61s-.47-.43-.98-.78c-.75-.52-1.23-.91-1.45-1.19-.32-.4-.48-.84-.48-1.33,0-.53.18-1,.54-1.43.36-.43.89-.64,1.58-.64.37,0,.73.09,1.08.27.13.07.24.11.32.11.09,0,.16-.02.21-.06.05-.04.14-.14.26-.31h.25Z"/>
    <path d="M389.81,416.6v5.43c0,.48.06.79.17.93.11.13.33.21.66.23v.26h-3.7v-.26c.3,0,.53-.1.67-.26.1-.11.15-.41.15-.89v-4c0-.48-.06-.79-.17-.93-.11-.13-.33-.21-.65-.23v-.27h2.87ZM388.78,413.28c.32,0,.59.11.81.33.22.22.33.49.33.8s-.11.58-.33.8c-.22.22-.49.33-.8.33s-.58-.11-.8-.33-.33-.49-.33-.8.11-.58.33-.8c.22-.22.49-.33.8-.33Z"/>
    <path d="M394.1,416.6v.89c.35-.38.69-.66,1.01-.83.32-.17.67-.26,1.04-.26.44,0,.81.12,1.11.37.29.25.49.55.59.92.08.28.12.81.12,1.6v2.67c0,.53.05.86.14.99.1.13.29.21.6.25v.26h-3.46v-.26c.26-.03.44-.14.56-.32.08-.12.12-.42.12-.91v-3.05c0-.56-.02-.92-.07-1.06s-.12-.26-.22-.34c-.11-.08-.22-.12-.35-.12-.42,0-.81.3-1.17.9v3.67c0,.51.05.84.14.97.09.14.27.22.53.26v.26h-3.46v-.26c.29-.03.49-.12.62-.28.08-.11.12-.42.12-.95v-3.87c0-.52-.05-.84-.14-.97-.09-.13-.29-.21-.6-.25v-.27h2.79Z"/>
    <path d="M404.04,416.68h2.31v.81h-1.31c.24.24.41.46.5.65.12.26.18.54.18.83,0,.49-.13.91-.41,1.27-.27.36-.64.64-1.11.84-.47.2-.88.3-1.24.3-.03,0-.32-.01-.88-.04-.22,0-.4.07-.55.22-.15.14-.22.32-.22.52,0,.18.07.32.2.43.13.11.35.17.66.17h1.27c1.03-.01,1.73.1,2.12.32.55.31.83.79.83,1.44,0,.42-.13.79-.38,1.13-.25.34-.59.59-1,.75-.63.24-1.36.36-2.18.36-.62,0-1.18-.06-1.68-.18-.51-.12-.87-.29-1.09-.5-.22-.21-.33-.44-.33-.67s.08-.43.25-.6c.17-.18.48-.33.94-.45-.63-.31-.95-.75-.95-1.3,0-.34.13-.66.39-.98s.67-.59,1.23-.83c-.65-.24-1.13-.55-1.42-.95s-.44-.84-.44-1.36c0-.67.27-1.25.82-1.74.55-.49,1.25-.74,2.11-.74.45,0,.92.09,1.41.29ZM402.34,424.46c-.5,0-.83.04-.99.12-.28.15-.42.36-.42.62s.14.48.43.68c.29.2.83.3,1.63.3.68,0,1.21-.09,1.6-.27.39-.18.58-.43.58-.76,0-.12-.04-.22-.11-.31-.13-.15-.33-.25-.6-.3-.27-.05-.98-.08-2.13-.08ZM402.77,416.85c-.28,0-.52.14-.72.43-.2.29-.29.88-.29,1.78,0,.73.1,1.23.29,1.5.19.27.42.41.68.41.29,0,.54-.13.73-.4s.29-.79.29-1.57c0-.87-.11-1.47-.33-1.79-.16-.23-.38-.35-.66-.35Z"/>
    <path d="M409.82,413.51v8.51c0,.48.06.79.17.93.11.13.33.21.66.23v.26h-3.7v-.26c.3,0,.53-.1.67-.26.1-.11.15-.41.15-.89v-7.09c0-.48-.06-.79-.17-.92-.11-.13-.33-.21-.65-.23v-.27h2.87Z"/>
    <path d="M417.11,419.78h-3.76c.04.91.29,1.63.73,2.15.34.41.74.61,1.22.61.29,0,.56-.08.8-.25.24-.16.5-.46.77-.88l.25.16c-.37.76-.78,1.29-1.23,1.61-.45.32-.97.47-1.56.47-1.02,0-1.78-.39-2.31-1.17-.42-.63-.63-1.41-.63-2.34,0-1.14.31-2.05.93-2.73.62-.68,1.34-1.01,2.17-1.01.69,0,1.29.28,1.81.85.51.57.79,1.41.82,2.53ZM415.31,419.29c0-.79-.04-1.33-.13-1.62-.08-.29-.22-.51-.4-.67-.1-.09-.24-.13-.41-.13-.25,0-.46.12-.62.37-.29.43-.43,1.03-.43,1.79v.26h1.99Z"/>
    <path d="M417.64,426.45v-.34c.51-.34.88-.66,1.12-.98.33-.44.59-1,.78-1.68.23-.86.35-2.06.35-3.59,0-1.45-.11-2.57-.32-3.37-.21-.8-.5-1.44-.87-1.94-.25-.34-.61-.64-1.06-.9v-.37c1.18.39,2.17,1.2,2.99,2.42.82,1.22,1.23,2.62,1.23,4.2s-.41,2.94-1.23,4.14c-.82,1.2-1.82,2-2.99,2.4Z"/>
    <path d="M329.46,434.4c.58,0,1.07.2,1.48.61.41.41.61.9.61,1.48s-.2,1.07-.61,1.48c-.41.41-.9.62-1.48.62s-1.08-.21-1.48-.62c-.41-.41-.61-.9-.61-1.48s.2-1.08.61-1.48c.41-.41.9-.61,1.49-.61Z"/>
    <path d="M347.96,440.75v2.55c0,.35.03.59.08.72.06.13.14.22.26.28s.35.09.69.09v.27h-3.9v-.27c.3-.01.53-.1.67-.26.1-.11.15-.4.15-.87v-7.23c0-.48-.06-.79-.17-.93-.11-.13-.33-.21-.65-.23v-.27h2.87v.9c.24-.35.48-.61.73-.76.36-.23.75-.34,1.17-.34.5,0,.96.16,1.37.48.41.32.73.76.94,1.31.21.56.32,1.16.32,1.81,0,.69-.11,1.33-.33,1.9-.22.57-.54,1.01-.97,1.31-.42.3-.89.45-1.41.45-.38,0-.73-.08-1.05-.25-.24-.13-.5-.34-.77-.65ZM347.96,440.01c.42.6.87.89,1.35.89.26,0,.48-.14.65-.42.25-.41.38-1.19.38-2.34s-.14-1.99-.42-2.42c-.19-.29-.43-.43-.75-.43-.49,0-.9.36-1.22,1.07v3.65Z"/>
    <path d="M356.5,434.6v1.55c.45-.71.85-1.18,1.19-1.41.34-.23.67-.35.99-.35.27,0,.49.08.66.25.16.17.25.41.25.71,0,.33-.08.58-.24.76-.16.18-.35.27-.57.27-.26,0-.48-.08-.67-.25s-.3-.26-.34-.28c-.05-.03-.11-.04-.17-.04-.14,0-.28.05-.4.16-.2.17-.35.4-.45.71-.16.47-.23,1-.23,1.57v1.98c0,.28.02.46.06.54.06.13.14.23.26.29.11.06.31.1.58.11v.26h-3.7v-.26c.3-.02.5-.11.6-.25.11-.14.16-.51.16-1.1v-3.79c0-.39-.02-.64-.06-.75-.05-.14-.12-.24-.21-.3s-.26-.11-.49-.13v-.27h2.8Z"/>
    <path d="M365.84,437.78h-3.76c.04.91.29,1.63.73,2.15.34.41.74.61,1.22.61.29,0,.56-.08.8-.25.24-.16.5-.46.77-.88l.25.16c-.37.76-.78,1.29-1.23,1.61-.45.32-.97.47-1.56.47-1.02,0-1.78-.39-2.31-1.17-.42-.63-.63-1.41-.63-2.34,0-1.14.31-2.05.93-2.73.62-.68,1.34-1.01,2.17-1.01.69,0,1.29.28,1.81.85.51.57.79,1.41.82,2.53ZM364.04,437.29c0-.79-.04-1.33-.13-1.62-.08-.29-.22-.51-.4-.67-.1-.09-.24-.13-.41-.13-.25,0-.46.12-.62.37-.29.43-.43,1.03-.43,1.79v.26h1.99Z"/>
    <path d="M369.7,435.31v4.75c0,.46.05.75.15.86.16.18.44.26.86.25v.26h-4.04v-.26c.31,0,.53-.04.66-.11.13-.07.22-.16.27-.27s.07-.36.07-.73v-4.75h-1v-.72h1v-.85c0-.7.25-1.29.77-1.76.51-.47,1.21-.7,2.09-.7.6,0,1.05.11,1.34.34.29.23.44.47.44.75,0,.22-.09.41-.27.57-.18.16-.42.24-.72.24-.25,0-.46-.07-.6-.2-.15-.13-.22-.28-.22-.44,0-.04.01-.13.04-.27.02-.08.03-.16.03-.23,0-.1-.03-.18-.09-.23-.08-.07-.17-.11-.29-.11-.14,0-.26.06-.35.18-.1.12-.14.31-.14.56v1.28s.01.87.01.87h1.01v.72h-1.01Z"/>
    <path d="M377.49,437.78h-3.76c.04.91.29,1.63.72,2.15.34.41.74.61,1.22.61.29,0,.56-.08.8-.25.24-.16.5-.46.77-.88l.25.16c-.37.76-.78,1.29-1.23,1.61-.45.32-.97.47-1.56.47-1.02,0-1.79-.39-2.31-1.17-.42-.63-.63-1.41-.63-2.34,0-1.14.31-2.05.93-2.73.62-.68,1.34-1.01,2.17-1.01.69,0,1.29.28,1.81.85.51.57.78,1.41.82,2.53ZM375.69,437.29c0-.79-.04-1.33-.13-1.62-.09-.29-.22-.51-.4-.67-.1-.09-.24-.13-.41-.13-.25,0-.46.12-.62.37-.29.43-.43,1.03-.43,1.79v.26h1.99Z"/>
    <path d="M381.19,434.6v1.55c.45-.71.85-1.18,1.19-1.41.34-.23.67-.35.99-.35.27,0,.49.08.66.25.16.17.25.41.25.71,0,.33-.08.58-.24.76-.16.18-.35.27-.57.27-.26,0-.48-.08-.67-.25s-.3-.26-.34-.28c-.05-.03-.11-.04-.17-.04-.14,0-.28.05-.4.16-.2.17-.35.4-.45.71-.16.47-.23,1-.23,1.57v1.98c0,.28.02.46.06.54.06.13.14.23.26.29.11.06.31.1.58.11v.26h-3.7v-.26c.3-.02.5-.11.6-.25.11-.14.16-.51.16-1.1v-3.79c0-.39-.02-.64-.06-.75-.05-.14-.12-.24-.21-.3s-.26-.11-.49-.13v-.27h2.8Z"/>
    <path d="M390.54,437.78h-3.76c.04.91.29,1.63.73,2.15.34.41.74.61,1.22.61.29,0,.56-.08.8-.25.24-.16.5-.46.77-.88l.25.16c-.37.76-.78,1.29-1.23,1.61-.45.32-.97.47-1.56.47-1.02,0-1.78-.39-2.31-1.17-.42-.63-.63-1.41-.63-2.34,0-1.14.31-2.05.93-2.73.62-.68,1.34-1.01,2.17-1.01.69,0,1.29.28,1.81.85.51.57.79,1.41.82,2.53ZM388.74,437.29c0-.79-.04-1.33-.13-1.62-.08-.29-.22-.51-.4-.67-.1-.09-.24-.13-.41-.13-.25,0-.46.12-.62.37-.29.43-.43,1.03-.43,1.79v.26h1.99Z"/>
    <path d="M394.19,434.6v.89c.35-.38.69-.66,1.01-.83.32-.17.67-.26,1.04-.26.44,0,.81.12,1.11.37.29.25.49.55.59.92.08.28.12.81.12,1.6v2.67c0,.53.05.86.14.99.1.13.29.21.6.25v.26h-3.46v-.26c.26-.03.44-.14.56-.32.08-.12.12-.42.12-.91v-3.05c0-.56-.02-.92-.07-1.06s-.12-.26-.22-.34c-.11-.08-.22-.12-.35-.12-.42,0-.81.3-1.17.9v3.67c0,.51.05.84.14.97.09.14.27.22.53.26v.26h-3.46v-.26c.29-.03.49-.12.62-.28.08-.11.12-.42.12-.95v-3.87c0-.52-.05-.84-.14-.97-.09-.13-.29-.21-.6-.25v-.27h2.79Z"/>
    <path d="M405.33,439.68l.23.18c-.32.61-.72,1.06-1.21,1.35-.48.3-.99.44-1.53.44-.91,0-1.64-.34-2.19-1.03-.55-.69-.82-1.52-.82-2.48s.25-1.75.75-2.46c.6-.85,1.43-1.28,2.48-1.28.71,0,1.27.18,1.69.53.42.36.63.75.63,1.19,0,.28-.08.5-.25.67-.17.17-.39.25-.66.25-.29,0-.53-.09-.71-.29-.19-.19-.3-.53-.35-1.02-.03-.31-.1-.52-.21-.64s-.24-.18-.4-.18c-.23,0-.43.12-.6.37-.25.38-.38.95-.38,1.73,0,.64.1,1.26.31,1.85.21.59.49,1.03.84,1.31.27.21.59.32.95.32.24,0,.47-.06.68-.17s.47-.32.76-.64Z"/>
    <path d="M412.2,437.78h-3.76c.04.91.29,1.63.72,2.15.34.41.74.61,1.22.61.29,0,.56-.08.8-.25.24-.16.5-.46.77-.88l.25.16c-.37.76-.78,1.29-1.23,1.61-.45.32-.97.47-1.56.47-1.02,0-1.79-.39-2.31-1.17-.42-.63-.63-1.41-.63-2.34,0-1.14.31-2.05.93-2.73.62-.68,1.34-1.01,2.17-1.01.69,0,1.29.28,1.81.85.51.57.78,1.41.82,2.53ZM410.39,437.29c0-.79-.04-1.33-.13-1.62-.09-.29-.22-.51-.4-.67-.1-.09-.24-.13-.41-.13-.25,0-.46.12-.62.37-.29.43-.43,1.03-.43,1.79v.26h1.99Z"/>
    <path d="M421.12,431.29v.34c-.51.33-.88.66-1.12.97-.33.44-.59,1-.78,1.69-.23.86-.35,2.05-.35,3.58,0,1.45.11,2.57.32,3.37.21.8.5,1.45.87,1.94.25.34.61.64,1.06.9v.37c-1.18-.4-2.17-1.2-2.99-2.42-.82-1.22-1.23-2.62-1.23-4.2s.41-2.95,1.22-4.15c.82-1.2,1.81-2,3-2.39Z"/>
    <path d="M424.45,440.75v2.55c0,.35.03.59.08.72.06.13.14.22.26.28s.35.09.69.09v.27h-3.9v-.27c.3-.01.53-.1.67-.26.1-.11.15-.4.15-.87v-7.23c0-.48-.06-.79-.17-.93-.11-.13-.33-.21-.65-.23v-.27h2.87v.9c.24-.35.48-.61.73-.76.36-.23.74-.34,1.16-.34.5,0,.96.16,1.37.48.41.32.73.76.94,1.31.21.56.32,1.16.32,1.81,0,.69-.11,1.33-.33,1.9-.22.57-.54,1.01-.97,1.31-.42.3-.89.45-1.41.45-.38,0-.73-.08-1.05-.25-.24-.13-.5-.34-.77-.65ZM424.45,440.01c.42.6.87.89,1.35.89.26,0,.48-.14.65-.42.25-.41.38-1.19.38-2.34s-.14-1.99-.42-2.42c-.19-.29-.43-.43-.75-.43-.49,0-.9.36-1.22,1.07v3.65Z"/>
    <path d="M433.92,440.43c-.83.74-1.58,1.11-2.25,1.11-.39,0-.72-.13-.97-.38-.26-.26-.39-.58-.39-.96,0-.52.22-.99.67-1.41.45-.42,1.43-.97,2.94-1.67v-.69c0-.52-.03-.84-.08-.98-.06-.13-.16-.25-.32-.35-.16-.1-.33-.15-.53-.15-.32,0-.58.07-.78.21-.13.09-.19.19-.19.31,0,.1.07.23.21.38.19.21.28.41.28.61,0,.24-.09.44-.27.61-.18.17-.41.25-.7.25-.31,0-.57-.09-.77-.28-.21-.18-.31-.4-.31-.65,0-.35.14-.69.42-1.01.28-.32.67-.57,1.16-.74s1.02-.26,1.55-.26c.65,0,1.16.14,1.54.41.38.28.62.58.74.9.07.21.1.68.1,1.41v2.66c0,.31.01.51.04.59.02.08.06.14.11.18s.1.06.17.06c.13,0,.26-.09.39-.27l.22.18c-.24.36-.5.62-.76.79-.26.16-.56.25-.89.25-.39,0-.7-.09-.92-.28-.22-.18-.35-.46-.4-.83ZM433.92,439.9v-2.29c-.59.35-1.03.72-1.32,1.11-.19.26-.29.53-.29.8,0,.22.08.42.24.59.12.13.29.2.51.2.24,0,.53-.14.85-.41Z"/>
    <path d="M440.31,434.6v5.43c0,.48.06.79.17.93.11.13.33.21.66.23v.26h-3.7v-.26c.3,0,.53-.1.67-.26.1-.11.15-.41.15-.89v-4c0-.48-.06-.79-.17-.93-.11-.13-.33-.21-.65-.23v-.27h2.87ZM439.29,431.28c.32,0,.59.11.81.33.22.22.33.49.33.8s-.11.58-.33.8c-.22.22-.49.33-.8.33s-.58-.11-.8-.33-.33-.49-.33-.8.11-.58.33-.8c.22-.22.49-.33.8-.33Z"/>
    <path d="M444.65,434.6v1.55c.45-.71.85-1.18,1.19-1.41.34-.23.67-.35.99-.35.27,0,.49.08.66.25.16.17.25.41.25.71,0,.33-.08.58-.24.76-.16.18-.35.27-.57.27-.26,0-.48-.08-.67-.25s-.3-.26-.34-.28c-.05-.03-.11-.04-.17-.04-.14,0-.28.05-.4.16-.2.17-.35.4-.45.71-.16.47-.23,1-.23,1.57v1.98c0,.28.02.46.06.54.06.13.14.23.26.29.11.06.31.1.58.11v.26h-3.7v-.26c.3-.02.5-.11.6-.25.11-.14.16-.51.16-1.1v-3.79c0-.39-.02-.64-.06-.75-.05-.14-.12-.24-.21-.3s-.26-.11-.49-.13v-.27h2.8Z"/>
    <path d="M448.14,444.45v-.34c.51-.34.88-.66,1.12-.98.33-.44.59-1,.78-1.68.23-.86.35-2.06.35-3.59,0-1.45-.11-2.57-.32-3.37-.21-.8-.5-1.44-.87-1.94-.25-.34-.61-.64-1.06-.9v-.37c1.18.39,2.17,1.2,2.99,2.42.82,1.22,1.23,2.62,1.23,4.2s-.41,2.94-1.23,4.14c-.82,1.2-1.82,2-2.99,2.4Z"/>
    <path d="M329.46,452.4c.58,0,1.07.2,1.48.61.41.41.61.9.61,1.48s-.2,1.07-.61,1.48c-.41.41-.9.62-1.48.62s-1.08-.21-1.48-.62c-.41-.41-.61-.9-.61-1.48s.2-1.08.61-1.48c.41-.41.9-.61,1.49-.61Z"/>
    <path d="M347.99,449.51v8.51c0,.48.06.79.17.93.11.13.33.21.66.23v.26h-3.7v-.26c.3,0,.53-.1.67-.26.1-.11.15-.41.15-.89v-7.09c0-.48-.06-.79-.17-.92-.11-.13-.33-.21-.65-.23v-.27h2.87Z"/>
    <path d="M352.71,452.39c.6,0,1.15.15,1.66.46s.9.75,1.17,1.31c.27.57.4,1.19.4,1.86,0,.97-.25,1.78-.74,2.44-.6.79-1.42,1.19-2.47,1.19s-1.82-.36-2.38-1.08-.83-1.56-.83-2.51.28-1.84.85-2.57c.57-.73,1.35-1.09,2.34-1.09ZM352.74,452.91c-.25,0-.46.09-.64.28-.18.19-.3.56-.35,1.11-.06.55-.08,1.32-.08,2.31,0,.52.03,1.01.1,1.46.05.35.17.61.34.79s.38.27.6.27.4-.06.55-.18c.19-.17.32-.4.38-.7.1-.46.15-1.4.15-2.81,0-.83-.05-1.4-.14-1.71-.09-.31-.23-.54-.41-.68-.13-.1-.29-.15-.5-.15Z"/>
    <path d="M361.37,452.68h2.31v.81h-1.31c.24.24.41.46.5.65.12.26.18.54.18.83,0,.49-.14.91-.41,1.27-.27.36-.64.64-1.11.84-.47.2-.88.3-1.24.3-.03,0-.32-.01-.88-.04-.22,0-.4.07-.55.22-.15.14-.22.32-.22.52,0,.18.07.32.2.43.13.11.35.17.66.17h1.27c1.03-.01,1.73.1,2.12.32.55.31.83.79.83,1.44,0,.42-.13.79-.38,1.13-.25.34-.59.59-1,.75-.63.24-1.35.36-2.17.36-.62,0-1.18-.06-1.68-.18-.51-.12-.87-.29-1.09-.5-.22-.21-.33-.44-.33-.67s.08-.43.25-.6c.17-.18.48-.33.94-.45-.63-.31-.95-.75-.95-1.3,0-.34.13-.66.39-.98s.67-.59,1.23-.83c-.65-.24-1.13-.55-1.42-.95s-.44-.84-.44-1.36c0-.67.27-1.25.82-1.74.55-.49,1.25-.74,2.11-.74.45,0,.92.09,1.41.29ZM359.67,460.46c-.5,0-.83.04-.99.12-.28.15-.42.36-.42.62s.14.48.43.68c.29.2.83.3,1.63.3.68,0,1.21-.09,1.6-.27.39-.18.58-.43.58-.76,0-.12-.04-.22-.11-.31-.13-.15-.33-.25-.6-.3-.27-.05-.97-.08-2.13-.08ZM360.11,452.85c-.28,0-.52.14-.72.43-.2.29-.29.88-.29,1.78,0,.73.1,1.23.29,1.5.19.27.42.41.69.41.29,0,.54-.13.73-.4s.29-.79.29-1.57c0-.87-.11-1.47-.33-1.79-.16-.23-.38-.35-.66-.35Z"/>
    <path d="M368.81,452.41l.11,2.34h-.25c-.3-.69-.61-1.17-.93-1.42-.32-.25-.64-.38-.96-.38-.2,0-.37.07-.51.2-.14.13-.21.29-.21.46,0,.13.05.26.15.38.16.2.59.54,1.31,1.03.72.49,1.19.9,1.42,1.24.23.34.34.72.34,1.14,0,.38-.09.75-.29,1.12-.19.37-.46.65-.81.84s-.73.29-1.15.29c-.33,0-.76-.1-1.31-.31-.15-.05-.25-.08-.3-.08-.16,0-.29.12-.4.37h-.24l-.12-2.46h.25c.22.64.52,1.13.9,1.45.38.32.75.48,1.09.48.23,0,.43-.07.58-.22.15-.14.22-.32.22-.52,0-.23-.07-.44-.22-.61s-.47-.43-.98-.78c-.75-.52-1.23-.91-1.45-1.19-.32-.4-.48-.84-.48-1.33,0-.53.18-1,.54-1.43.36-.43.89-.64,1.58-.64.37,0,.73.09,1.08.27.13.07.24.11.32.11.09,0,.16-.02.21-.06.05-.04.14-.14.26-.31h.25Z"/>
    <path d="M378.38,449.29v.34c-.51.33-.88.66-1.12.97-.33.44-.59,1-.78,1.69-.23.86-.35,2.05-.35,3.58,0,1.45.11,2.57.32,3.37.21.8.5,1.45.87,1.94.25.34.61.64,1.06.9v.37c-1.18-.4-2.17-1.2-2.99-2.42-.82-1.22-1.23-2.62-1.23-4.2s.41-2.95,1.22-4.15c.82-1.2,1.81-2,3-2.39Z"/>
    <path d="M381.9,452.6v.9c.38-.41.72-.7,1.04-.86.32-.16.67-.25,1.05-.25.44,0,.81.1,1.11.31s.53.52.69.94c.39-.44.77-.76,1.12-.95.36-.2.73-.29,1.12-.29.47,0,.85.11,1.13.33.28.22.48.49.59.83.11.33.17.87.17,1.6v2.8c0,.53.05.85.14.98.1.13.29.21.6.25v.26h-3.54v-.26c.28-.02.48-.13.62-.32.09-.13.13-.43.13-.91v-2.94c0-.61-.02-1-.07-1.17-.05-.17-.13-.29-.23-.37-.11-.08-.23-.12-.37-.12-.21,0-.42.08-.64.23-.21.15-.43.38-.65.69v3.68c0,.49.04.8.12.93.11.18.33.28.64.3v.26h-3.54v-.26c.19,0,.34-.06.45-.14.11-.09.18-.19.22-.31.04-.12.05-.38.05-.78v-2.94c0-.62-.02-1.01-.07-1.17-.05-.16-.13-.28-.25-.37-.12-.09-.24-.13-.37-.13-.2,0-.37.05-.54.15-.23.15-.47.41-.73.78v3.68c0,.48.05.8.14.96.09.15.29.25.6.27v.26h-3.53v-.26c.29-.03.49-.12.62-.28.08-.11.12-.42.12-.95v-3.87c0-.52-.05-.84-.14-.97-.09-.13-.29-.21-.6-.25v-.27h2.79Z"/>
    <path d="M397.36,455.78h-3.76c.04.91.29,1.63.72,2.15.34.41.74.61,1.22.61.29,0,.56-.08.8-.25.24-.16.5-.46.77-.88l.25.16c-.37.76-.78,1.29-1.23,1.61-.45.32-.97.47-1.56.47-1.02,0-1.79-.39-2.31-1.17-.42-.63-.63-1.41-.63-2.34,0-1.14.31-2.05.93-2.73.62-.68,1.34-1.01,2.17-1.01.69,0,1.29.28,1.81.85.51.57.78,1.41.82,2.53ZM395.55,455.29c0-.79-.04-1.33-.13-1.62-.09-.29-.22-.51-.4-.67-.1-.09-.24-.13-.41-.13-.25,0-.46.12-.62.37-.29.43-.43,1.03-.43,1.79v.26h1.99Z"/>
    <path d="M400.93,450.09v2.51h1.63v.72h-1.63v4.23c0,.39.02.65.05.76.04.12.1.21.19.28.09.07.18.11.26.11.32,0,.62-.24.9-.73l.22.16c-.4.94-1.04,1.41-1.93,1.41-.43,0-.8-.12-1.1-.36-.3-.24-.49-.51-.58-.81-.05-.17-.07-.62-.07-1.35v-3.7h-.89v-.26c.62-.43,1.14-.89,1.57-1.37.43-.48.81-1.01,1.13-1.6h.24Z"/>
    <path d="M406.99,458.43c-.83.74-1.58,1.11-2.25,1.11-.39,0-.71-.13-.97-.38-.26-.26-.39-.58-.39-.96,0-.52.22-.99.67-1.41.45-.42,1.43-.97,2.94-1.67v-.69c0-.52-.03-.84-.08-.98-.06-.13-.16-.25-.32-.35-.16-.1-.33-.15-.53-.15-.32,0-.58.07-.78.21-.13.09-.19.19-.19.31,0,.1.07.23.21.38.19.21.28.41.28.61,0,.24-.09.44-.27.61-.18.17-.41.25-.7.25-.31,0-.57-.09-.77-.28-.21-.18-.31-.4-.31-.65,0-.35.14-.69.42-1.01.28-.32.67-.57,1.17-.74s1.02-.26,1.55-.26c.65,0,1.16.14,1.54.41.38.28.62.58.74.9.07.21.1.68.1,1.41v2.66c0,.31.01.51.04.59.02.08.06.14.11.18s.11.06.17.06c.13,0,.26-.09.39-.27l.22.18c-.24.36-.5.62-.76.79-.26.16-.56.25-.89.25-.39,0-.7-.09-.92-.28-.22-.18-.35-.46-.4-.83ZM406.99,457.9v-2.29c-.59.35-1.03.72-1.32,1.11-.19.26-.29.53-.29.8,0,.22.08.42.24.59.12.13.29.2.51.2.24,0,.53-.14.85-.41Z"/>
    <path d="M410.39,462.45v-.34c.51-.34.88-.66,1.12-.98.33-.44.59-1,.78-1.68.23-.86.35-2.06.35-3.59,0-1.45-.11-2.57-.32-3.37-.21-.8-.5-1.44-.87-1.94-.25-.34-.61-.64-1.06-.9v-.37c1.18.39,2.17,1.2,2.99,2.42.82,1.22,1.23,2.62,1.23,4.2s-.41,2.94-1.23,4.14c-.82,1.2-1.81,2-2.99,2.4Z"/>
  </g>
  <text class="st19" transform="translate(74.8 157.92)"><tspan x="0" y="0">Candidate </tspan><tspan x="-1.03" y="18">Generation</tspan></text>
  <text class="st19" transform="translate(255.99 156.81)"><tspan x="0" y="0">QA Review</tspan></text>
  <text class="st19" transform="translate(412.79 156.6)"><tspan x="0" y="0">Preference Pair </tspan><tspan x="9.96" y="18">Construction</tspan></text>
  <text class="st19" transform="translate(575.04 157.43)"><tspan x="0" y="0">Review Logs</tspan></text>
  <text class="st19" transform="translate(731.53 137.38)"><tspan x="0" y="0">Outputs (3 streams)</tspan></text>
  <text class="st20" transform="translate(145.76 34.2)"><tspan x="0" y="0">Preference Pairs and Review Records Pipeline</tspan></text>
  <text class="st18" transform="translate(302.81 70)"><tspan x="0" y="0">Beyond single supervision signal</tspan></text>
  <text class="st22" transform="translate(437.01 273.7)"><tspan x="0" y="0">(chosen,</tspan><tspan x="-2.9" y="18" xml:space="preserve"> rejected)</tspan></text>
  <text class="st22" transform="translate(289.29 308.81)"><tspan x="0" y="0">rejected </tspan><tspan x="-20.42" y="18">(worse answer)</tspan></text>
  <text class="st22" transform="translate(290.59 237.22)"><tspan x="0" y="0">chosen </tspan><tspan x="-22.48" y="18">(better answer)</tspan></text>
  <text class="st22" transform="translate(55.39 335.18)"><tspan x="0" y="0">Self-Instruct </tspan><tspan x="7.71" y="18">generation</tspan></text>
  <text class="st22" transform="translate(586.72 245.58)"><tspan x="0" y="0">decision</tspan></text>
  <text class="st22" transform="translate(590.67 284.62)"><tspan x="0" y="0">reason</tspan></text>
  <text class="st22" transform="translate(583.18 321.73)"><tspan x="0" y="0">metadata</tspan></text>
  <text class="st19" transform="translate(747.88 170.35)"><tspan x="0" y="0">SFT Data</tspan></text>
  <text class="st22" transform="translate(736.67 203.72)"><tspan x="0" y="0">chosen samples</tspan></text>
  <text class="st22" transform="translate(763.78 228.88)"><tspan x="0" y="0">train.jsonl</tspan></text>
  <text class="st19" transform="translate(742.99 270.62)"><tspan x="0" y="0">Preference Data</tspan></text>
  <text class="st22" transform="translate(740.26 303.32)"><tspan x="0" y="0">preference pairs</tspan></text>
  <text class="st22" transform="translate(735.68 327.3)"><tspan x="0" y="0">alignment training</tspan></text>
  <text class="st19" transform="translate(747.11 362.98)"><tspan x="0" y="0">Review Records</tspan></text>
  <text class="st22" transform="translate(740.24 396.53)"><tspan x="0" y="0">logs for auditing </tspan><tspan x="13.76" y="18">and iteration</tspan></text>
  <text class="st22" transform="translate(735.61 455.99)"><tspan x="0" y="0">SFT alone is insufficient</tspan></text>
  <text class="st22" transform="translate(736.54 474.08)"><tspan x="0" y="0">preference adds nuance</tspan></text>
  <text class="st22" transform="translate(192.45 307.07)"><tspan x="0" y="0">human or</tspan><tspan x="-4.57" y="18" xml:space="preserve"> rule-based</tspan></text>
  <text class="st22" transform="translate(349.72 97.31)"><tspan x="0" y="0">SFT + Preference + Review</tspan></text>
  <text class="st22" transform="translate(116.95 226.81)"><tspan x="0" y="0">A</tspan></text>
  <text class="st22" transform="translate(120.42 258.17)"><tspan x="0" y="0">B</tspan></text>
  <text class="st22" transform="translate(120.3 298.82)"><tspan x="0" y="0">A</tspan></text>
  <text class="st19" transform="translate(127.1 278.1) rotate(-91.3)"><tspan x="0" y="0">...</tspan></text>
</svg>