<?xml version="1.0" encoding="UTF-8"?>
<svg id="_图层_1" data-name="图层_1" xmlns="http://www.w3.org/2000/svg" version="1.1" viewBox="0 0 900 503">
  <!-- Generator: Adobe Illustrator 29.6.0, SVG Export Plug-In . SVG Version: 2.1.1 Build 207)  -->
  <defs>
    <style>
      .st0 {
        fill: #ebeef3;
      }

      .st1 {
        fill: #6d96c0;
      }

      .st2 {
        fill: #fcfdfa;
      }

      .st3 {
        fill: #e5ba90;
      }

      .st4 {
        fill: #f4cd35;
      }

      .st5 {
        fill: #fcfdfc;
      }

      .st6 {
        fill: #1eb527;
      }

      .st7 {
        font-size: 14px;
      }

      .st7, .st8, .st9, .st10 {
        isolation: isolate;
      }

      .st7, .st9, .st11 {
        font-family: TimesNewRomanPSMT, 'Times New Roman';
      }

      .st8 {
        font-family: TimesNewRomanPS-BoldMT, 'Times New Roman';
        font-size: 25px;
        font-weight: 700;
      }

      .st12 {
        fill: #d2dedb;
      }

      .st13 {
        fill: #aac9e2;
      }

      .st14 {
        fill: #e2e6e8;
      }

      .st15 {
        fill: #e3e7e9;
      }

      .st16 {
        fill: #fafbf9;
      }

      .st17 {
        fill: #88a8c8;
      }

      .st18 {
        fill: #6ba68a;
      }

      .st19 {
        fill: #ebeff3;
      }

      .st20 {
        fill: #767e87;
      }

      .st21 {
        fill: #fcfdfb;
      }

      .st9, .st11 {
        font-size: 15px;
      }

      .st22 {
        fill: #5890cf;
      }

      .st23 {
        fill: #deaa78;
      }

      .st24 {
        fill: #ef8f3d;
      }

      .st25 {
        fill: #fcfcf6;
      }

      .st26 {
        fill: #110f12;
      }

      .st27 {
        fill: #dca673;
      }

      .st28 {
        fill: #f7e8d4;
      }

      .st29 {
        fill: #a2d0be;
      }

      .st30 {
        fill: #fcfcfb;
      }

      .st31 {
        fill: #eceff4;
      }

      .st32 {
        fill: #e8c098;
      }

      .st33 {
        fill: #fbf4e5;
      }

      .st34 {
        fill: #68a687;
      }

      .st35 {
        fill: #4da37b;
      }

      .st36 {
        fill: #deac7d;
      }

      .st37 {
        fill: #7695b5;
      }

      .st38 {
        fill: #6e97c2;
      }

      .st39 {
        fill: #dee3e5;
      }

      .st40 {
        fill: #e5e9ec;
      }

      .st41 {
        fill: #dfe3e5;
      }

      .st42 {
        fill: #fcfcf8;
      }

      .st43 {
        fill: #88c0a3;
      }

      .st44 {
        fill: #6390c1;
      }

      .st45 {
        fill: #f9fcfd;
      }

      .st46 {
        fill: #d79e6a;
      }

      .st47 {
        fill: #5587c1;
      }

      .st48 {
        fill: #e7bb90;
      }

      .st49 {
        fill: #5890cc;
      }

      .st50 {
        fill: #fcfdfd;
      }

      .st51 {
        fill: #bee2d2;
      }
    </style>
  </defs>
  <g id="_x23_deaa78ff">
    <path class="st23" d="M0,0h.22c-.05.05-.16.15-.22.2v-.2Z"/>
    <path class="st23" d="M524.72,156.78c.53-4.77-1.95-11.13,2.36-14.6,24.62.41,49.26-.14,73.89.15,20.03.15,40.06-.16,60.09-.07,2.58-.09,7.62-1.25,7.27,2.89l-.14.83c-1.46-1.44-2.86-3.42-5.19-2.93-43.69.02-87.38.08-131.07-.04-1.6.14-3.41-.16-4.78.82-1.4,2.1-1.03,4.76-1.16,7.15.12,6.03-.04,12.07.12,18.11-.2,2.57,2.45,4.23,4.8,3.87,43.7.02,87.42-.01,131.12.02,2.12.11,4.65-.25,5.4-2.6.83-3.89.28-7.92.44-11.87l1.17.19c-.23,4.42,1,9.16-.72,13.36-1.99,3.76-6.91,2.26-10.34,2.51-42.32-.02-84.65.05-126.97,0-2.54.18-5.36-1.03-6.08-3.66-.87-3.85-.43-7.81-.24-11.7.01-.61.02-1.83.03-2.44Z"/>
  </g>
  <g id="_x23_ebeef3ff">
    <path class="st0" d="M.22,0h899.78v503H0V.2c.06-.05.17-.15.22-.2M692.03,92.07c-.87,3.16-.18,6.53-.58,9.77-3.44,1.19-5.94,4.12-7.21,7.45-5.42,13.21-3.25,28.17-8.58,41.4-1.06,3-3.44,5.72-6.86,5.76-.19-4.06.17-8.13-.18-12.18l-.29.88c.35-4.14-4.69-2.98-7.27-2.89-20.03-.09-40.06.22-60.09.07-24.63-.29-49.27.26-73.89-.15-4.31,3.47-1.83,9.83-2.36,14.6-19.14-.09-36.24,11.93-46.99,27.07-8.56,12.22-14.97,25.98-18.8,40.4-8.7-.06-17.4-.04-26.1.06-.58-3.98-2.48-7.58-3.93-11.29-4.48-11-10.87-21.27-19.07-29.89-10.86-11.18-25.91-18.6-41.6-19.08-1.36-.12-2.71-.23-4.06-.34-.17-3.56.17-7.17-.42-10.69-.8-2.89-4.04-4.15-6.79-4.01-22.67,0-45.35-.03-68.03,0-2.81-.27-5.07,1.76-5.98,4.27-.09,3.6-.15,7.21-.19,10.81-4.14-1.55-6.08-5.91-7.06-9.92-2.4-10.89-2.66-22.12-4.92-33.04-1.28-5.65-3.7-12.07-9.65-14.2-.47-4.21,1.54-10.2-3.08-12.69-52.34-.06-104.7.16-157.04-.11-.45.32-1.36.96-1.81,1.28l-.23,1.12c-.19.27-.57.82-.77,1.1.34,7-.14,14.01.19,21.01.23.44.7,1.33.93,1.77-.51.16-1.52.48-2.03.64,1.73,1.73,3.66,3.26,5.64,4.69-3.06.49-6.36-.2-9.23,1.13-3.4-.55-7.3,1.36-7.58,5.09-.3,6.43-.07,12.87-.1,19.31.94,1.6,1.78,3.61,3.78,4.12,2.69.61,5.49.29,8.23.36,52.33,0,104.67,0,157,0,2.49.09,5.18-1.22,5.85-3.78.63-3.06.15-6.22.21-9.31,3.8.76,6.51,3.9,8.02,7.31,2.22,5.15,3.75,10.89,8.09,14.77-5.48,2.78-9.3,9.07-16.17,8.63-.09-3.94.74-8.14-1.18-11.8l-1.08.71.53-1.22c-1.4-.49-2.81-1.09-4.31-1.07-55.67.01-111.34-.05-167.01.01-3.07-.33-6.73,1.48-6.91,4.88-.25,5.06.03,10.13-.12,15.19.06,2.48-.32,5.43,1.66,7.32,1.64,1.76,4.13,1.9,6.37,1.83,55.37-.05,110.73,0,166.09-.06,1.72.13,3.23-.72,4.42-1.88,2.81-2.95,1.33-7.66,1.59-11.37,5.9-.38,10.63-3.86,14.95-7.55-5.49,11.08-4.59,23.84-7.79,35.56-1.25,4.27-2.98,8.88-7.05,11.23-.07-5.67-.06-11.35-.04-17.02-.55-4.42-5.46-5.56-9.2-5.14-75.66.07-151.33-.03-226.99.05-3.79-.22-6.97,3.19-6.55,6.95.26,12.08-.64,24.25.5,36.29l1.32-.27-.72.98c1.64,1.11,3.35,2.5,5.48,2.25,76.66,0,153.32,0,229.98-.02,2.89.43,4.88-1.88,6.09-4.16.19-5.87-.02-11.75.12-17.62,3-1.2,5.6-3.33,6.89-6.35,5.45-11.63,4.12-24.99,8.2-37.01,1.05-3.29,3.11-6.23,6.08-8.06,1.07,3.91.03,8,.71,11.96.73,2.51,3.23,4.36,5.87,4.19,23.62.06,47.24-.05,70.86.03,6.56-2.59,3.46-10.67,4.33-15.99,13.67.33,27.51,4.7,38.01,13.64,13.69,11.45,22.35,27.79,27.88,44.51-14.01-.23-28.03-.12-42.04-.12-3.19-.18-5.89,2.58-5.75,5.75-.04,14.03-.05,28.07-.01,42.11-.02,3.48,3.46,6.03,6.8,5.61,23.94-.07,47.89,0,71.84-.09,4.58,13.51,11.88,26.36,21.64,36.89,10.83,11.65,26.07,19.81,42.23,19.69.4,4.77-1.32,10.22,1.6,14.44-.72,2.34,1.78,3.02,3.57,3.21,37.05.29,74.12.16,111.18.03,2.46.09,3.99-2.01,4.93-4l-1.22.16c1.74-4.52.63-9.48,1.23-14.19,3.49.96,5.75,4.02,6.71,7.39,3.81,12.43,3.71,25.62,6.64,38.24,1.24,5.61,4.26,11.32,10,13.35.01,5.36-.26,10.74.1,16.09.24,3.2,3.47,5.44,6.54,5.31,58.64-.05,117.29.03,175.93-.03,3.24.27,6.58-1.23,7.58-4.52l.1-.08-.07-.05c.42-10.53.05-21.08.21-31.61-.12-2.71.4-5.89-1.68-8.01-2.6-2.76-6.72-1.61-10.06-1.83-57.34-.07-114.69.11-172.03-.07-3.04-.26-6.12,1.92-6.53,5-.62,5.77.37,11.58-.19,17.37-5.8-2.3-7.14-9-8.35-14.41-2.17-11.98-2.89-24.2-5.82-36.04,1.78,2.83,3.18,6.04,5.86,8.17,2.36,1.84,5.35,2.5,8.24,3,.19,3.53-.38,7.26,1.11,10.58-.52,3.56,3.68,5.33,6.63,5.24,15.22-.11,30.46-.03,45.68-.47,20.81.68,41.64.18,62.46.38,4.96-.13,9.93.26,14.88-.13,2.88-.54,4.43-3.22,4.87-5.9l-.97.38c.73-6.37.25-12.81.34-19.21.31-2.95-2.02-5.73-4.9-6.15-1.93-.88-4.07-.97-6.13-1.16,2.19-1.52,6.12-2.5,5.59-5.89.95-6.14.21-12.41.45-18.6.2-2.79-1.5-5.36-4.01-6.47-2.29-.95-4.78-.92-7.2-1.03.77-1.59,1.47-3.22,1.88-4.94,1.8-2.92,1.27-6.43,1.32-9.68-.08-3.69.13-7.38-.07-11.07-.01-2.82-2.29-5.55-5.15-5.72-36.67,0-73.33.01-110,0-2.74-.26-5.79,1.26-6.48,4.08-.42,2.9-.16,5.84-.29,8.77-7.66,1.87-9.36,10.49-10.78,17.09-.49-3.04.02-6.1.33-9.12,1.01-10.03,1.8-20.17,4.58-29.9.91-3.31,2.56-6.55,5.67-8.28.24,2.49.07,4.99-.01,7.48l.32.75-.28.79.24.78.59.13.05.75c1.54,1.66,3.71,2.89,6.05,2.69,33.16-.04,66.33.04,99.5-.08,2.74-.19,5.69-2.22,5.64-5.22.2-5.64.06-11.29.08-16.93.32-2.99-2.09-6.1-5.18-6.06-32.31.23-64.63.06-96.94.09-2.78.2-6.31-.85-8.31,1.68-2.52,3.11-1.05,7.41-1.63,11.05-4.31,1.19-6.6,5.38-7.75,9.38-4.09,13.54-4.05,27.82-5.84,41.74-1.06,8.6-1.1,17.69-5.18,25.56-.86,1.81-2.64,2.81-4.34,3.69-.32-3.68.02-7.4-.45-11.07-.47-1.21-1.15-3.36-2.85-2.89l.52-1.11c-4.35-1.06-8.85-.69-13.28-.73-32.64.04-65.29,0-97.94.02-2.92-.17-5.99.98-7.16,3.86-.19,3.83-.21,7.66-.26,11.49-11.2-.39-22.33-4.05-31.15-11.04-13.93-10.87-23.97-26.41-29.45-43.1,12.01.07,24.03,0,36.04.02,3.14.27,5.95-2.47,5.77-5.61.13-14.02,0-28.04.06-42.06.19-3.21-2.73-5.94-5.9-5.73-12.77-.11-25.55.07-38.33.08,5.18-16.25,12.17-32.31,23.53-45.25,9.88-11.38,24.14-19.8,39.53-19.83-.19,3.89-.63,7.85.24,11.7.72,2.63,3.54,3.84,6.08,3.66,42.32.04,84.65-.03,126.97,0,3.43-.25,8.35,1.25,10.34-2.51,1.72-4.2.49-8.94.72-13.36,3.6.08,5.78,3.37,7,6.36,3.82,9.38,3.27,19.81,6.37,29.38,1.26,4.53,4.71,8.1,9.08,9.76.05,2.96-.47,6,.34,8.9.81,3.04,4.28,4.43,7.18,4.19,58.32.01,116.64-.02,174.96.01,3.33.28,7.39-1.66,7.59-5.39.28-6.16.02-12.35-.08-18.51-.01-3.43-3.26-5.79-6.51-5.5-59.01-.05-118.02-.06-177.03.02-2.6-.09-5.57,1.29-6.09,4.08-.53,3.11-.34,6.28-.36,9.43-2.03-.79-4.09-1.85-5.13-3.85-3.75-6.56-3.82-14.33-5.13-21.58-.56-4.51-2.09-8.81-3.25-13.18,1.56,1.49,2.99,3.13,4.69,4.49,2.55,2.06,5.92,2.47,8.99,3.31-.03,3.79-.8,7.92,1.26,11.35.63,1.74,1.25,3.94,3.13,4.71,37,.03,74.01,0,111.01.15,3.64.52,5.59-3.04,6.92-5.8-.38-.56-1.13-1.67-1.5-2.23.21-4.93-.06-9.86.03-14.79-.03-2.62.36-5.72-1.86-7.63-2.24-2.41-5.79-1.38-8.66-1.3-13.32-.5-26.66.63-39.98-.21-14.3.01-28.68.83-43,.07-5.67.61-11.36.27-17.02-.1-3.16.52-7.43-.62-9.45,2.56-1.77,3.2-.7,7.01-.36,10.44-7.91,1.19-11.16-7.36-17.3-10.3,2.56-2.86,5.23-5.73,6.51-9.43,1.83-4.77,4.6-10.13,10.23-10.96.34,3.8-1.1,8.33,1.6,11.54,1.83,2.43,5.14,1.67,7.75,1.8,42.35-.02,84.71-.04,127.06,0,2.8.19,5.18-2.22,5.38-4.94.34-4.83.07-9.68.12-14.52-.09-2.63.36-5.77-1.84-7.74-2.61-2.57-6.46-.85-9.63-1.02-12.71-.21-25.38-.07-38.08,0-4.69.12-9.35-.76-14.02-.01-12.33-.06-24.63-.14-36.97.02-11.64-.74-23.36.86-34.98-.57-3.96-.5-7.26,3.46-6.38,7.27-.12,2.14,1.76,5.77-1.51,6.27-4.82,1.3-8.07,5.4-9.92,9.82,1.25-9.58,2.29-19.23,4.2-28.71,1.07-4.68,2.58-10.17,7.3-12.39.76,3.51-.83,7.25.83,10.6,1.21,2.35,4.08,3,6.52,2.88,39.65-.05,79.3.02,118.96-.04,3.18.38,6.8-1.85,6.71-5.33.18-6.03.07-12.07-.02-18.11.22-3.08-2.61-5.71-5.64-5.53-40.03-.1-80.06.02-120.09-.05-2.75-.16-6.03.78-6.94,3.69M283.24,437.98c-.81,5.57.03,11.23-.53,16.83-.2,2.04-1.9,3.44-2.8,5.18.59,1.59,2.08,2.66,2.69,4.25.92,5.87-.31,11.89.72,17.75.55,2.81,3.41,4.07,6.03,4.12-1.32-1.96-4.57-1.97-4.82-4.73-1.02-5.74.26-11.64-.74-17.38-.4-1.59-1.59-2.79-2.49-4.08,1.09-1.48,2.62-2.88,2.7-4.85.56-5.45-.33-10.98.45-16.41.35-2.51,2.74-3.56,4.85-4.28-2.47-1.6-5.67,1.03-6.06,3.6M563.72,433.83c1.71,1.54,4.58,2.41,4.54,5.18,1.32,6.89-2.12,15.16,3.06,20.91-5.19,5.81-1.63,14.16-3.13,21.08-.2,2.61-2.92,3.56-4.58,5.1,2.75.03,5.4-1.69,5.86-4.52,1.03-5.75-.2-11.66.75-17.43.41-2.5,3.06-3.27,4.96-4.39-1.84-.64-4.21-1.12-4.79-3.3-1.36-6.12.25-12.52-1.04-18.65-.55-2.59-3.05-4.22-5.63-3.98M590.28,445.93c-2.29,4.5-5.38,8.63-7.03,13.44,4.95-.15,9.93.23,14.86-.4-2.15-4.56-4.47-9.27-7.83-13.04M24.13,448.14c-2.31,1.89.41,5.72,2.87,4.04,2.87-1.5-.3-6.19-2.87-4.04M584,464.91c-1.63,4.16-1.39,9.16-.36,13.43,1.76,2.15,4.91,1.02,7.32,1.36,2.16-.38,5.58.92,6.69-1.65.53-3.7-.08-7.47.51-11.18-.34-.46-1.03-1.38-1.38-1.84-4.22-.7-8.53-.25-12.78-.12M24.2,467.36c-2.64,1.79.66,6.14,3,3.95,2.48-1.74-.6-6.05-3-3.95Z"/>
    <path class="st0" d="M99.32,120.41c.15.14.45.41.61.55-.16-.14-.46-.41-.61-.55Z"/>
    <path class="st0" d="M99.93,120.96c.13.11.4.32.54.42-.14-.1-.41-.31-.54-.42Z"/>
  </g>
  <g id="_x23_ef8f3dff">
    <path class="st24" d="M692.03,92.07c.91-2.91,4.19-3.85,6.94-3.69,40.03.07,80.06-.05,120.09.05,3.03-.18,5.86,2.45,5.64,5.53.09,6.04.2,12.08.02,18.11.09,3.48-3.53,5.71-6.71,5.33-39.66.06-79.31-.01-118.96.04-2.44.12-5.31-.53-6.52-2.88-1.66-3.35-.07-7.09-.83-10.6-4.72,2.22-6.23,7.71-7.3,12.39-1.91,9.48-2.95,19.13-4.2,28.71,1.85-4.42,5.1-8.52,9.92-9.82,3.27-.5,1.39-4.13,1.51-6.27-.88-3.81,2.42-7.77,6.38-7.27,11.62,1.43,23.34-.17,34.98.57,12.34-.16,24.64-.08,36.97-.02,4.67-.75,9.33.13,14.02.01,12.7-.06,25.37-.2,38.08,0,3.17.17,7.02-1.55,9.63,1.02,2.2,1.97,1.75,5.11,1.84,7.74-.05,4.84.22,9.69-.12,14.52-.2,2.72-2.58,5.13-5.38,4.94-42.35-.04-84.71-.02-127.06,0-2.61-.13-5.92.63-7.75-1.8-2.7-3.21-1.26-7.74-1.6-11.54-5.63.83-8.4,6.19-10.23,10.96-1.28,3.7-3.95,6.57-6.51,9.43,6.14,2.94,9.39,11.49,17.3,10.3-.34-3.43-1.41-7.24.36-10.44,2.02-3.18,6.29-2.04,9.45-2.56,5.66.37,11.35.71,17.02.1,14.32.76,28.7-.06,43-.07,13.32.84,26.66-.29,39.98.21,2.87-.08,6.42-1.11,8.66,1.3,2.22,1.91,1.83,5.01,1.86,7.63-.09,4.93.18,9.86-.03,14.79-.62,2.58-2.64,4.92-5.51,4.61-34,.11-68,.02-102,.14-4.03-.11-8.48.81-12.05-1.58-2.06-3.43-1.29-7.56-1.26-11.35-3.07-.84-6.44-1.25-8.99-3.31-1.7-1.36-3.13-3-4.69-4.49,1.16,4.37,2.69,8.67,3.25,13.18,1.31,7.25,1.38,15.02,5.13,21.58,1.04,2,3.1,3.06,5.13,3.85-.01.92,0,1.84,0,2.77-4.37-1.66-7.82-5.23-9.08-9.76-3.1-9.57-2.55-20-6.37-29.38-1.22-2.99-3.4-6.28-7-6.36l-1.17-.19c.08-4.18-.28-8.38.32-12.53l.14-.83.29-.88c.35,4.05-.01,8.12.18,12.18,3.42-.04,5.8-2.76,6.86-5.76,5.33-13.23,3.16-28.19,8.58-41.4,1.27-3.33,3.77-6.26,7.21-7.45.4-3.24-.29-6.61.58-9.77M695.14,89.97c-1.83.95-2.55,3.14-2.45,5.09-.06,5.33.07,10.67.02,16.01-.27,2.45,1.58,5.23,4.27,4.87,10.35-.16,20.68.64,31.03.39,21.65-1.12,43.31.53,64.96-.2,8.35.31,16.7.21,25.06.21,2.57.19,5.64-1.51,5.64-4.38.27-5.97.13-11.96.02-17.93.12-2.61-2.17-4.8-4.77-4.54-39.61-.1-79.23.01-118.85-.07-1.65.11-3.41-.15-4.93.55M695.26,123.28c-2.13.98-2.77,3.55-2.57,5.7.19,5.34-.22,10.69.03,16.03.05,2.26,1.9,4.51,4.3,4.36,43.3.3,86.61-.11,129.92.15,2.84.47,5.43-1.74,5.47-4.61.23-5.61.12-11.24.05-16.85.23-2.48-1.7-5.35-4.4-5-32.02-.07-64.04.01-96.06-.02-12.24.16-24.52-.34-36.74.24M696.14,156.25c-2.6.32-3.59,3.41-3.45,5.67.11,5.35-.09,10.7.02,16.04-.21,2.87,2.64,4.96,5.35,4.55,35.99.01,71.99.02,107.98.03,2.71.37,5.56-1.75,5.4-4.62.06-5.33-.04-10.66-.01-15.99.36-2.65-1.3-6.05-4.35-5.8-17.38-.18-34.76-.03-52.14-.08-19.6.11-39.21-.26-58.8.2Z"/>
    <path class="st24" d="M699.9,133.99c.88-4.17,6.33-5.99,9.67-3.47,3.39,1.99,3.64,7.29.61,9.73-1.43,1.48-3.57,1.68-5.42,2.27-2.78-1.9-6.13-4.71-4.86-8.53M701.06,134.99c-.6,3.13,2.18,5.36,4.85,6.21-.19-1.62-.39-3.25-.58-4.87.62-.88,1.25-1.76,1.88-2.64-1.22-.18-2.3.17-3.24,1.06.07-.64.19-1.9.25-2.54,1.18.22,3.15-.64,3.71.87,1.21,1.49-.92,2.84-1.54,4.04-.03.95-.08,2.87-.11,3.83,1.8-.61,3.29-1.78,4.56-3.16-.13-2.26.33-5.32-2.35-6.28-2.85-2.1-7.28-.06-7.43,3.48Z"/>
    <path class="st24" d="M477.73,183.85c10.75-15.14,27.85-27.16,46.99-27.07,0,.61-.02,1.83-.03,2.44-15.39.03-29.65,8.45-39.53,19.83-11.36,12.94-18.35,29-23.53,45.25-.67-.01-2.02-.04-2.7-.05,3.83-14.42,10.24-28.18,18.8-40.4Z"/>
    <path class="st24" d="M704.51,162.65c4.98-1.37,9.61,4.48,7.26,9.04-1.72,4.33-8.14,5.01-10.85,1.29-3.01-3.48-.85-9.42,3.59-10.33M704.13,164.26c-3.91,1.21-4.31,7.59-.66,9.39,2.67,1.55,6.29.02,7.34-2.81,1.76-3.82-2.88-8.48-6.68-6.58Z"/>
  </g>
  <g id="_x23_fcfcf8ff">
    <path class="st42" d="M695.14,89.97c1.52-.7,3.28-.44,4.93-.55,39.62.08,79.24-.03,118.85.07,2.6-.26,4.89,1.93,4.77,4.54.11,5.97.25,11.96-.02,17.93,0,2.87-3.07,4.57-5.64,4.38-8.36,0-16.71.1-25.06-.21-21.65.73-43.31-.92-64.96.2-10.35.25-20.68-.55-31.03-.39-2.69.36-4.54-2.42-4.27-4.87.05-5.34-.08-10.68-.02-16.01-.1-1.95.62-4.14,2.45-5.09M704.25,96.36c-5.22.99-6.89,8.81-2.31,11.64,3.89,3.27,10.97.22,10.55-5.09.47-4.32-4.23-7.8-8.24-6.55Z"/>
    <path class="st42" d="M296.23,160.22c4.6-.89,5.48,6.97.78,7.2-4.33.23-4.89-6.37-.78-7.2Z"/>
    <path class="st42" d="M681.14,313.08c2.84-1.85,7.04.57,7.1,3.91.61,4.13-5.28,7.25-8.08,3.9-2.49-2.05-1.81-6.37.98-7.81M682.13,314.13c-.29.47-.87,1.4-1.16,1.86,1.24-.36,2.52-.76,3.84-.42-1.48,1.51-1.96,3.5-2.02,5.55l1.01.02c-.88-2.8,3.54-4.34,1.19-7.09-.71.02-2.15.06-2.86.08Z"/>
  </g>
  <g id="_x23_5890ccff">
    <path class="st49" d="M99.2,95.41c.45-.32,1.36-.96,1.81-1.28,52.34.27,104.7.05,157.04.11,4.62,2.49,2.61,8.48,3.08,12.69,5.95,2.13,8.37,8.55,9.65,14.2,2.26,10.92,2.52,22.15,4.92,33.04.98,4.01,2.92,8.37,7.06,9.92.04-3.6.1-7.21.19-10.81l1.03-.62c.29,8.09-.18,16.19.22,24.27.02,2.47,2.45,4.13,4.79,3.91,23.77.22,47.56-.07,71.33.15l-.53,1.2c-23.62-.08-47.24.03-70.86-.03-2.64.17-5.14-1.68-5.87-4.19-.68-3.96.36-8.05-.71-11.96-2.97,1.83-5.03,4.77-6.08,8.06-4.08,12.02-2.75,25.38-8.2,37.01-1.29,3.02-3.89,5.15-6.89,6.35-.14,5.87.07,11.75-.12,17.62l-1.04-.08c-.08-12.5-.22-25.01.03-37.5l1.1.65c-.02,5.67-.03,11.35.04,17.02,4.07-2.35,5.8-6.96,7.05-11.23,3.2-11.72,2.3-24.48,7.79-35.56-4.32,3.69-9.05,7.17-14.95,7.55-.26,3.71,1.22,8.42-1.59,11.37l-1.3.16c2.74-3.96,1.51-8.96,1.77-13.46-.21-3.89.75-8.11-1.19-11.7l1.08-.71c1.92,3.66,1.09,7.86,1.18,11.8,6.87.44,10.69-5.85,16.17-8.63-4.34-3.88-5.87-9.62-8.09-14.77-1.51-3.41-4.22-6.55-8.02-7.31-.06,3.09.42,6.25-.21,9.31-.67,2.56-3.36,3.87-5.85,3.78-52.33,0-104.67,0-157,0-2.74-.07-5.54.25-8.23-.36-2-.51-2.84-2.52-3.78-4.12l1.07-.35c1.21,2.3,3.23,4.04,6.01,3.6,53.3.03,106.61,0,159.92-.02,2.64.14,6.46-.21,6.76-3.56.35-7.45.35-14.96-.38-22.39,2.78,3.12,1.35,7.66,1.6,11.43,2.63,1.19,5.47,2.28,7.39,4.54,2.23,2.43,3.26,5.62,4.4,8.65-.21-3.41-.81-6.76-1.28-10.13-1.11-9.29-1.55-18.87-5.02-27.67-.97-2.72-3.11-4.72-5.34-6.45-.11,3.32.2,6.67-.32,9.96-.74,2.44-3.34,3.81-5.77,3.81-49.35,0-98.71-.08-148.06.04-2.23-.07-4.67.13-6.53-1.35-.14-.1-.41-.31-.54-.42-.16-.14-.46-.41-.61-.55-.23-.44-.7-1.33-.93-1.77-.33-7,.15-14.01-.19-21.01.2-.28.58-.83.77-1.1.13,6.86-.08,13.73.07,20.6-.23,1.9,1.06,3.78,3.02,3.99,3.94.61,7.96.23,11.93.3,46.35-.02,92.7-.09,139.04.04,2.6.14,6.26-.36,6.72-3.52.42-5.97.15-11.99.16-17.98.31-2.76-2-5.51-4.9-4.96-50.37.01-100.74.01-151.11,0-1.81-.18-3.4.7-4.93,1.53l.23-1.12Z"/>
  </g>
  <g id="_x23_fcfdfdff">
    <path class="st50" d="M98.97,96.53c1.53-.83,3.12-1.71,4.93-1.53,50.37.01,100.74.01,151.11,0,2.9-.55,5.21,2.2,4.9,4.96-.01,5.99.26,12.01-.16,17.98-.46,3.16-4.12,3.66-6.72,3.52-46.34-.13-92.69-.06-139.04-.04-3.97-.07-7.99.31-11.93-.3-1.96-.21-3.25-2.09-3.02-3.99-.15-6.87.06-13.74-.07-20.6M109.41,102.39c-1.62,1.62-.78,5.12,1.65,5.39,2.38.59,4.52-2.25,3.47-4.4-.71-1.98-3.7-2.44-5.12-.99M105.72,114.13c3.85.32,7.73.25,11.59.03,1.32-7.5-12.51-7.43-11.59-.03Z"/>
    <path class="st50" d="M87.32,132.14c.15-2.34,2.22-4.28,4.6-4.05,53.04-.07,106.09.01,159.13-.05,2.79.01,5.57.33,8.35.51.73,7.43.73,14.94.38,22.39-.3,3.35-4.12,3.7-6.76,3.56-53.31.02-106.62.05-159.92.02-2.78.44-4.8-1.3-6.01-3.6.32-6.25-.21-12.53.23-18.78M93.69,139.03c-.74,2.15.82,3.93,2.19,5.35-.03.76-.09,2.26-.11,3.01,2.47-1.96,5.57-2.33,8.54-3.02,3.59-1.53,3.24-7.07-.18-8.57-3.51-1.58-9.23-1.08-10.44,3.23Z"/>
    <path class="st50" d="M283.98,152.66c1.54-1.02,2.95-2.62,4.99-2.43,22.7,0,45.42.05,68.12.01,2.41-.19,5.35,1.14,5.41,3.88.12,6.96.17,13.94.16,20.9.22,2.31-1.14,4.16-2.34,5.97-23.77-.22-47.56.07-71.33-.15-2.34.22-4.77-1.44-4.79-3.91-.4-8.08.07-16.18-.22-24.27M291.87,162.92c-.89,4.32,4.23,7.47,7.85,5.27,1.54,1.49,2.74,4.57,5.37,3.86.35-2.6-2.48-3.81-4.01-5.36.6-1.88,1.39-4.09-.15-5.75-2.08-3.77-8.76-2.34-9.06,1.98Z"/>
    <path class="st50" d="M82.32,165.04c.17-2.79,3.19-4.07,5.64-3.9,55.02,0,110.03.03,165.05,0,1.97-.03,3.92.4,5.76,1.14,1.94,3.59.98,7.81,1.19,11.7-.26,4.5.97,9.5-1.77,13.46-2.06.22-4.12.37-6.18.42-54.7-.08-109.4-.04-164.1-.03-2.84.26-5.95-1.78-5.69-4.89-.07-5.96-.25-11.94.1-17.89M88.87,167.96c-.11,4.28-.27,8.58.26,12.84,4.17.12,8.36.18,12.53-.06.13-4.19.07-8.39.04-12.58-4.26-.51-8.56-.35-12.83-.2Z"/>
    <path class="st50" d="M383.31,230.08c-.18-2.63,2.04-5,4.71-4.77,14.11-.11,28.22.04,42.33,0,.67,0,1.99,0,2.65,0,22.3,0,44.6-.05,66.89-.05,2.65-.25,5.14,1.94,4.86,4.68.21,13.38.06,26.78.1,40.16.19,2.76-.94,6.41-4.28,6.38-12.3.25-24.61,0-36.92.1h-2.65c-24.3-.2-48.62.17-72.92-.12-2.95.16-5.03-2.65-4.77-5.43.03-13.65-.14-27.3,0-40.95M399.19,236.37c-.11,4.21-.16,8.42.04,12.62,3.82.17,7.67.48,11.47-.13-.23-4.25.3-8.54-.41-12.76-3.69-1.11-7.48-1.09-11.1.27Z"/>
    <path class="st50" d="M679.69,249.65c2.31-3.13,8.05-1.57,8.37,2.34.71,2.41-1.15,4.38-2.77,5.84-.86-1-1.64-2.05-2.42-3.08.14.86.41,2.59.55,3.46-3.97-.41-6.7-5.46-3.73-8.56M683.65,253.81c.71-1.28.69-3.07.04-4.37-1.41.35-1.51,4.05-.04,4.37Z"/>
    <path class="st50" d="M673.04,305.1c.75-.1,2.24-.32,2.98-.42,39,.03,78-.04,117,0,2.44-.25,4.92,1.65,4.92,4.19.25,5.73.2,11.48-.02,17.21.12,2.67-2.57,4.51-5.02,4.44-38.99.07-77.98,0-116.97.04-2.28.13-5.02-1.07-5.31-3.59-.46-5.62-.03-11.27-.18-16.9-.2-1.96.59-4.26,2.6-4.96M681.38,311.47c-4.23,1.38-5.86,7.52-2.25,10.43,2.95,3.4,8.9,1.83,10.19-2.36,1.83-4.58-3.29-10.07-7.94-8.07Z"/>
    <path class="st50" d="M526.04,319.75c2.13-1.19,4.45-2.05,6.95-1.77,36.57.24,73.16-.28,109.72.23,2.48,2.67,1.73,6.47,1.86,9.78-.12,5.55.36,11.11-.08,16.64-.08,2.77-2.82,4.62-5.44,4.31-35.7.03-71.4.01-107.1.01-2.56.27-5.78-.94-5.9-3.9-.43-8.42-.18-16.88-.01-25.3M535.16,326.23c-.52,4.66-.29,9.36-.16,14.05,3.97.3,7.97.36,11.95-.01.09-3.32.57-6.74-.26-10-1.09-1.52-2.5-2.77-3.8-4.09-2.58-.02-5.16-.02-7.73.05Z"/>
    <path class="st50" d="M536.17,327.68c1.9-.11,3.8-.14,5.71-.1.01.9.03,2.7.04,3.6,1.24.03,2.49.06,3.75.1-.08,2.54-.09,5.08-.01,7.62-3.16.19-6.32.25-9.47.11.05-3.78.05-7.56-.02-11.33M537.75,331.79c-.05,2.11-.07,4.22-.08,6.33,2.22,0,4.45,0,6.68-.01.02-1.35.04-2.68.07-4.01-1.26-.05-2.5-.19-3.72-.42-.54-1.29-1.53-1.92-2.95-1.89Z"/>
    <path class="st50" d="M670.33,340.16c1.19-1.43,2.49-3.34,4.63-3.08,41.04-.18,82.08,0,123.11-.07,2.75-.33,5.07,2.17,4.84,4.87.1,5.69.21,11.4-.05,17.09-.16,2.83-3.38,3.86-5.78,3.71-40.83.24-81.68-.17-122.51.2-1.72-.76-3.94-1.7-3.96-3.93-.58-6.24-.08-12.53-.28-18.79M677.54,343.53c-.81,3.64-.36,7.51-.25,11.23.61,2.08,3.24.94,4.82,1.07,3.57.12,6.44-3.33,7.49-6.39-3.16-.56-5.04,3.35-6.88,5.42-1.43-.1-2.84-.19-4.24-.29.08-3.38.08-6.77-.02-10.15,1.51-.11,3.03-.2,4.57-.28.05.69.14,2.09.19,2.79,1.83-.08,3.1.88,3.86,2.52,1.66-5.31-5.51-8.66-9.54-5.92Z"/>
    <path class="st50" d="M670.6,374.4c-.36-3.08,2.35-5.7,5.42-5.26,58.99-.04,118,.02,176.99-.02,1.83-.09,3.89.42,4.85,2.16.98,2.06.65,4.44.74,6.66-.15,9.01.1,18.02-.03,27.03.22,1.48-.63,3.63.97,4.57l.07.05-.1.08c-1.56.97-2.87,2.36-4.59,3.02-3.32.42-6.66.15-9.98.2-56.3-.01-112.59,0-168.88-.01-2.95.37-5.8-2-5.54-5.05-.06-11.14-.12-22.29.08-33.43M680.33,378.29c-.22,2.73.34,5.36,1.6,7.79-1.28,1.26-3.21,1.8-4.04,3.53,4.04.14,8.09.23,12.14-.02-1.07-1.63-2.84-2.53-4.45-3.5,1.53-2.62,2.8-6.63.36-9.07-1.91-1.65-4.23-.32-5.61,1.27Z"/>
  </g>
  <g id="_x23_dca673ff">
    <path class="st27" d="M704.25,96.36c4.01-1.25,8.71,2.23,8.24,6.55.42,5.31-6.66,8.36-10.55,5.09-4.58-2.83-2.91-10.65,2.31-11.64M703.38,98.39c-3.07,1.67-3.18,6.63-.19,8.42,3.25,2.56,8.59-.88,7.75-4.91-.31-3.53-4.68-5.01-7.56-3.51Z"/>
  </g>
  <g id="_x23_fcfcf6ff">
    <path class="st25" d="M703.38,98.39c2.88-1.5,7.25-.02,7.56,3.51.84,4.03-4.5,7.47-7.75,4.91-2.99-1.79-2.88-6.75.19-8.42M705.3,98.69c-.23,2.53-.36,5.07-.47,7.62.6-.03,1.8-.1,2.4-.13-.65-2.41.64-6.07-1.93-7.49Z"/>
    <path class="st25" d="M695.26,123.28c12.22-.58,24.5-.08,36.74-.24,32.02.03,64.04-.05,96.06.02,2.7-.35,4.63,2.52,4.4,5,.07,5.61.18,11.24-.05,16.85-.04,2.87-2.63,5.08-5.47,4.61-43.31-.26-86.62.15-129.92-.15-2.4.15-4.25-2.1-4.3-4.36-.25-5.34.16-10.69-.03-16.03-.2-2.15.44-4.72,2.57-5.7M699.9,133.99c-1.27,3.82,2.08,6.63,4.86,8.53,1.85-.59,3.99-.79,5.42-2.27,3.03-2.44,2.78-7.74-.61-9.73-3.34-2.52-8.79-.7-9.67,3.47Z"/>
    <path class="st25" d="M704.13,164.26c3.8-1.9,8.44,2.76,6.68,6.58-1.05,2.83-4.67,4.36-7.34,2.81-3.65-1.8-3.25-8.18.66-9.39M704.95,164.58c-.01,2.91.06,5.82.31,8.72,2.54-1.6,1.38-5.54,1.57-8.11-.47-.15-1.41-.46-1.88-.61Z"/>
  </g>
  <g id="_x23_e5ba90ff">
    <path class="st3" d="M705.3,98.69c2.57,1.42,1.28,5.08,1.93,7.49-.6.03-1.8.1-2.4.13.11-2.55.24-5.09.47-7.62Z"/>
  </g>
  <g id="_x23_5890cfff">
    <path class="st22" d="M109.41,102.39c1.42-1.45,4.41-.99,5.12.99,1.05,2.15-1.09,4.99-3.47,4.4-2.43-.27-3.27-3.77-1.65-5.39Z"/>
    <path class="st22" d="M105.72,114.13c-.92-7.4,12.91-7.47,11.59.03-3.86.22-7.74.29-11.59-.03Z"/>
    <path class="st22" d="M93.69,139.03c1.21-4.31,6.93-4.81,10.44-3.23,3.42,1.5,3.77,7.04.18,8.57-2.97.69-6.07,1.06-8.54,3.02.02-.75.08-2.25.11-3.01-1.37-1.42-2.93-3.2-2.19-5.35Z"/>
    <path class="st22" d="M368.23,164.05c15.69.48,30.74,7.9,41.6,19.08,8.2,8.62,14.59,18.89,19.07,29.89,1.45,3.71,3.35,7.31,3.93,11.29l.17,1c-.66,0-1.98,0-2.65,0l-.34-.95c-5.53-16.72-14.19-33.06-27.88-44.51-10.5-8.94-24.34-13.31-38.01-13.64l.11-1.01c1.31-.43,2.64-.82,4-1.14Z"/>
    <path class="st22" d="M88.87,167.96c4.27-.15,8.57-.31,12.83.2.03,4.19.09,8.39-.04,12.58-4.17.24-8.36.18-12.53.06-.53-4.26-.37-8.56-.26-12.84M95.93,175.35c-.02-1.69-.08-3.37-.2-5.05-1.52,1.2-2.19,4.44.2,5.05M94.28,176.25c-.49,1.64.07,2.2,1.68,1.68.48-1.65-.08-2.21-1.68-1.68Z"/>
  </g>
  <g id="_x23_e5e9ecff">
    <path class="st40" d="M261.15,108.92c2.23,1.73,4.37,3.73,5.34,6.45,3.47,8.8,3.91,18.38,5.02,27.67.47,3.37,1.07,6.72,1.28,10.13-1.14-3.03-2.17-6.22-4.4-8.65-1.92-2.26-4.76-3.35-7.39-4.54-.25-3.77,1.18-8.31-1.6-11.43-1.04-.65-2.08-1.5-3.36-1.51-54.1-.23-108.23.08-162.34-.17,2.87-1.33,6.17-.64,9.23-1.13-1.98-1.43-3.91-2.96-5.64-4.69.51-.16,1.52-.48,2.03-.64.15.14.45.41.61.55.13.11.4.32.54.42,1.86,1.48,4.3,1.28,6.53,1.35,49.35-.12,98.71-.03,148.06-.04,2.43,0,5.03-1.37,5.77-3.81.52-3.29.21-6.64.32-9.96Z"/>
  </g>
  <g id="_x23_6390c1ff">
    <path class="st44" d="M86.12,131.96c.28-3.73,4.18-5.64,7.58-5.09,54.11.25,108.24-.06,162.34.17,1.28.01,2.32.86,3.36,1.51-2.78-.18-5.56-.5-8.35-.51-53.04.06-106.09-.02-159.13.05-2.38-.23-4.45,1.71-4.6,4.05-.44,6.25.09,12.53-.23,18.78l-1.07.35c.03-6.44-.2-12.88.1-19.31Z"/>
  </g>
  <g id="_x23_fcfdfaff">
    <path class="st2" d="M701.06,134.99c.15-3.54,4.58-5.58,7.43-3.48,2.68.96,2.22,4.02,2.35,6.28-1.27,1.38-2.76,2.55-4.56,3.16.03-.96.08-2.88.11-3.83.62-1.2,2.75-2.55,1.54-4.04-.56-1.51-2.53-.65-3.71-.87-.06.64-.18,1.9-.25,2.54.94-.89,2.02-1.24,3.24-1.06-.63.88-1.26,1.76-1.88,2.64.19,1.62.39,3.25.58,4.87-2.67-.85-5.45-3.08-4.85-6.21Z"/>
  </g>
  <g id="_x23_fcfdfbff">
    <path class="st21" d="M527.15,143.83c1.37-.98,3.18-.68,4.78-.82,43.69.12,87.38.06,131.07.04,2.33-.49,3.73,1.49,5.19,2.93-.6,4.15-.24,8.35-.32,12.53-.16,3.95.39,7.98-.44,11.87-.75,2.35-3.28,2.71-5.4,2.6-43.7-.03-87.42,0-131.12-.02-2.35.36-5-1.3-4.8-3.87-.16-6.04,0-12.08-.12-18.11.13-2.39-.24-5.05,1.16-7.15M534.8,150.9c-.8,4.07-.66,8.33-.17,12.41.24.28.72.83.96,1.11,3.34.77,6.87.17,10.29.33.87-4.54.45-9.18.31-13.75-3.8-.22-7.6-.2-11.39-.1Z"/>
  </g>
  <g id="_x23_6d96c0ff">
    <path class="st1" d="M282.95,153.28c.91-2.51,3.17-4.54,5.98-4.27,22.68-.03,45.36,0,68.03,0,2.75-.14,5.99,1.12,6.79,4.01.59,3.52.25,7.13.42,10.69,1.35.11,2.7.22,4.06.34-1.36.32-2.69.71-4,1.14l-.11,1.01c-.87,5.32,2.23,13.4-4.33,15.99l.53-1.2c1.2-1.81,2.56-3.66,2.34-5.97.01-6.96-.04-13.94-.16-20.9-.06-2.74-3-4.07-5.41-3.88-22.7.04-45.42-.01-68.12-.01-2.04-.19-3.45,1.41-4.99,2.43l-1.03.62Z"/>
  </g>
  <g id="_x23_deac7dff">
    <path class="st36" d="M534.8,150.9c3.79-.1,7.59-.12,11.39.1.14,4.57.56,9.21-.31,13.75-3.42-.16-6.95.44-10.29-.33-.24-.28-.72-.83-.96-1.11-.49-4.08-.63-8.34.17-12.41M536.02,152.79c-.02,2.4-.03,4.8-.02,7.2,2.95.02,5.91,0,8.87-.04-.02-2.35-.04-4.69-.04-7.04-2.94-.26-5.88-.27-8.81-.12M536.37,161.33c-.15.43-.44,1.28-.59,1.7,3.14.18,6.3.16,9.44-.06-.16-.38-.48-1.16-.64-1.54-2.72-.33-5.49-.34-8.21-.1Z"/>
  </g>
  <g id="_x23_fbf4e5ff">
    <path class="st33" d="M536.02,152.79c2.93-.15,5.87-.14,8.81.12,0,2.35.02,4.69.04,7.04-2.96.04-5.92.06-8.87.04-.01-2.4,0-4.8.02-7.2M537.34,154.18c-.02,1.24-.04,2.48-.05,3.72,1.78.1,3.57.07,5.35-.08.2-1.29.41-2.58.63-3.86-1.99.05-3.96.13-5.93.22Z"/>
  </g>
  <g id="_x23_e7bb90ff">
    <path class="st48" d="M537.34,154.18c1.97-.09,3.94-.17,5.93-.22-.22,1.28-.43,2.57-.63,3.86-1.78.15-3.57.18-5.35.08.01-1.24.03-2.48.05-3.72Z"/>
  </g>
  <g id="_x23_fafbf9ff">
    <path class="st16" d="M696.14,156.25c19.59-.46,39.2-.09,58.8-.2,17.38.05,34.76-.1,52.14.08,3.05-.25,4.71,3.15,4.35,5.8-.03,5.33.07,10.66.01,15.99.16,2.87-2.69,4.99-5.4,4.62-35.99,0-71.99-.02-107.98-.03-2.71.41-5.56-1.68-5.35-4.55-.11-5.34.09-10.69-.02-16.04-.14-2.26.85-5.35,3.45-5.67M704.51,162.65c-4.44.91-6.6,6.85-3.59,10.33,2.71,3.72,9.13,3.04,10.85-1.29,2.35-4.56-2.28-10.41-7.26-9.04Z"/>
    <path class="st16" d="M696.25,189.37c12.89-.57,25.84-.05,38.75-.23,46.69,0,93.38-.03,140.07,0,2.24-.09,4.92,1.34,4.94,3.85.35,5.01.1,10.05.27,15.07-.08,2.17.28,4.87-1.59,6.43-1.24,1.2-3.04,1.27-4.64,1.29-58.7-.02-117.39.01-176.08,0-2.68.24-5.3-2-5.06-4.77-.04-6.01-.2-12.05.09-18.06-.02-1.84,1.61-3.14,3.25-3.59Z"/>
    <path class="st16" d="M400.46,237.13c2.73,1.41,5.87,1.6,8.62.1.15,3.53.44,7.08.04,10.61-2.88-.06-5.77-.08-8.65-.13.06-3.53.06-7.06-.01-10.58M401.61,241.89c2.23.12,4.47.11,6.7-.05-1.4-1.87-5.44-1.99-6.7.05M402.2,243.24c.85,1.53,3.94.81,5.48.37-.92-1.39-4-1.08-5.48-.37M402.17,245.28c.51.83,1.46,1.1,2.85.8.5.1,3.88-.2,2.11-1.08-1.61-.31-3.48-.56-4.96.28Z"/>
  </g>
  <g id="_x23_7695b5ff">
    <path class="st37" d="M291.87,162.92c.3-4.32,6.98-5.75,9.06-1.98,1.54,1.66.75,3.87.15,5.75,1.53,1.55,4.36,2.76,4.01,5.36-2.63.71-3.83-2.37-5.37-3.86-3.62,2.2-8.74-.95-7.85-5.27M296.23,160.22c-4.11.83-3.55,7.43.78,7.2,4.7-.23,3.82-8.09-.78-7.2Z"/>
  </g>
  <g id="_x23_6e97c2ff">
    <path class="st38" d="M81.07,164.87c.18-3.4,3.84-5.21,6.91-4.88,55.67-.06,111.34,0,167.01-.01,1.5-.02,2.91.58,4.31,1.07l-.53,1.22c-1.84-.74-3.79-1.17-5.76-1.14-55.02.04-110.03,0-165.05,0-2.45-.17-5.47,1.11-5.64,3.9-.35,5.95-.17,11.93-.1,17.89-.26,3.11,2.85,5.15,5.69,4.89,54.7-.01,109.4-.05,164.1.03,2.06-.05,4.12-.2,6.18-.42l1.3-.16c-1.19,1.16-2.7,2.01-4.42,1.88-55.36.06-110.72.01-166.09.06-2.24.07-4.73-.07-6.37-1.83-1.98-1.89-1.6-4.84-1.66-7.32.15-5.06-.13-10.13.12-15.19Z"/>
  </g>
  <g id="_x23_f7e8d4ff">
    <path class="st28" d="M536.37,161.33c2.72-.24,5.49-.23,8.21.1.16.38.48,1.16.64,1.54-3.14.22-6.3.24-9.44.06.15-.42.44-1.27.59-1.7Z"/>
  </g>
  <g id="_x23_e8c098ff">
    <path class="st32" d="M704.95,164.58c.47.15,1.41.46,1.88.61-.19,2.57.97,6.51-1.57,8.11-.25-2.9-.32-5.81-.31-8.72Z"/>
  </g>
  <g id="_x23_f9fcfdff">
    <path class="st45" d="M95.93,175.35c-2.39-.61-1.72-3.85-.2-5.05.12,1.68.18,3.36.2,5.05Z"/>
    <path class="st45" d="M21.48,195.49c3.24-1.7,7.07-.81,10.57-.97,74.25-.01,148.52-.05,222.77-.04,2.28-.23,3.73,1.62,5.23,2.99-.25,12.49-.11,25-.03,37.5-2.2,4.09-7.13,2.86-10.95,2.99-72.37,0-144.74-.04-217.11,0-3.96-.16-8.47.91-11.73-1.97-.5-11.32-.08-22.66-.26-33.98.16-2.2-.41-4.94,1.51-6.53M29.82,202.91c-1.34,2.76-.07,5.72,1.18,8.25-1.44,1.14-3.29,1.84-4.25,3.51,4.02.22,8.05.19,12.07.14-.2-.44-.59-1.32-.79-1.76-1.04-.47-2.08-.94-3.12-1.4.84-2.76,1.83-5.66.96-8.55-1.22-2.05-4.65-1.97-6.05-.19Z"/>
    <path class="st45" d="M679.16,284.53c1.36.16,1.65.86.88,2.1-1.39-.16-1.68-.86-.88-2.1Z"/>
    <path class="st45" d="M687.39,284.21c1.29.67,1.27,1.35-.04,2.06-1.29-.66-1.28-1.35.04-2.06Z"/>
  </g>
  <g id="_x23_aac9e2ff">
    <path class="st13" d="M94.28,176.25c1.6-.53,2.16.03,1.68,1.68-1.61.52-2.17-.04-1.68-1.68Z"/>
  </g>
  <g id="_x23_dfe3e5ff">
    <path class="st41" d="M806.97,183.41c2.87.31,4.89-2.03,5.51-4.61.37.56,1.12,1.67,1.5,2.23-1.33,2.76-3.28,6.32-6.92,5.8-37-.15-74.01-.12-111.01-.15-1.88-.77-2.5-2.97-3.13-4.71,3.57,2.39,8.02,1.47,12.05,1.58,34-.12,68-.03,102-.14Z"/>
  </g>
  <g id="_x23_d79e6aff">
    <path class="st46" d="M691.85,192c.52-2.79,3.49-4.17,6.09-4.08,59.01-.08,118.02-.07,177.03-.02,3.25-.29,6.5,2.07,6.51,5.5.1,6.16.36,12.35.08,18.51-.2,3.73-4.26,5.67-7.59,5.39-58.32-.03-116.64,0-174.96-.01-2.9.24-6.37-1.15-7.18-4.19-.81-2.9-.29-5.94-.34-8.9,0-.93-.01-1.85,0-2.77.02-3.15-.17-6.32.36-9.43M696.25,189.37c-1.64.45-3.27,1.75-3.25,3.59-.29,6.01-.13,12.05-.09,18.06-.24,2.77,2.38,5.01,5.06,4.77,58.69.01,117.38-.02,176.08,0,1.6-.02,3.4-.09,4.64-1.29,1.87-1.56,1.51-4.26,1.59-6.43-.17-5.02.08-10.06-.27-15.07-.02-2.51-2.7-3.94-4.94-3.85-46.69-.04-93.38,0-140.07,0-12.91.18-25.86-.34-38.75.23Z"/>
  </g>
  <g id="_x23_88a8c8ff">
    <path class="st17" d="M18.41,199.98c-.42-3.76,2.76-7.17,6.55-6.95,75.66-.08,151.33.02,226.99-.05,3.74-.42,8.65.72,9.2,5.14l-1.1-.65c-1.5-1.37-2.95-3.22-5.23-2.99-74.25,0-148.52.03-222.77.04-3.5.16-7.33-.73-10.57.97-1.92,1.59-1.35,4.33-1.51,6.53.18,11.32-.24,22.66.26,33.98l-1.32.27c-1.14-12.04-.24-24.21-.5-36.29Z"/>
  </g>
  <g id="_x23_767e87ff">
    <path class="st20" d="M29.82,202.91c1.4-1.78,4.83-1.86,6.05.19.87,2.89-.12,5.79-.96,8.55,1.04.46,2.08.93,3.12,1.4.2.44.59,1.32.79,1.76-4.02.05-8.05.08-12.07-.14.96-1.67,2.81-2.37,4.25-3.51-1.25-2.53-2.52-5.49-1.18-8.25Z"/>
    <path class="st20" d="M382.22,229.98c-.14-3.17,2.56-5.93,5.75-5.75,14.01,0,28.03-.11,42.04.12l.34.95c-14.11.05-28.22-.1-42.33,0-2.67-.23-4.89,2.14-4.71,4.77-.14,13.65.03,27.3,0,40.95-.26,2.78,1.82,5.59,4.77,5.43,24.3.29,48.62-.08,72.92.12l-.15,1.03c-23.95.09-47.9.02-71.84.09-3.34.42-6.82-2.13-6.8-5.61-.04-14.04-.03-28.08.01-42.11Z"/>
    <path class="st20" d="M432.83,224.31c8.7-.1,17.4-.12,26.1-.06.68,0,2.03.04,2.7.05,12.78-.01,25.56-.19,38.33-.08,3.17-.21,6.09,2.52,5.9,5.73-.06,14.02.07,28.04-.06,42.06.18,3.14-2.63,5.88-5.77,5.61-12.01-.01-24.03.05-36.04-.02l-.34-1.02c12.31-.1,24.62.15,36.92-.1,3.34.03,4.47-3.62,4.28-6.38-.04-13.38.11-26.78-.1-40.16.28-2.74-2.21-4.93-4.86-4.68-22.29,0-44.59.04-66.89.05l-.17-1Z"/>
    <path class="st20" d="M399.19,236.37c3.62-1.36,7.41-1.38,11.1-.27.71,4.22.18,8.51.41,12.76-3.8.61-7.65.3-11.47.13-.2-4.2-.15-8.41-.04-12.62M400.46,237.13c.07,3.52.07,7.05.01,10.58,2.88.05,5.77.07,8.65.13.4-3.53.11-7.08-.04-10.61-2.75,1.5-5.89,1.31-8.62-.1Z"/>
    <path class="st20" d="M401.61,241.89c1.26-2.04,5.3-1.92,6.7-.05-2.23.16-4.47.17-6.7.05Z"/>
    <path class="st20" d="M402.2,243.24c1.48-.71,4.56-1.02,5.48.37-1.54.44-4.63,1.16-5.48-.37Z"/>
    <path class="st20" d="M402.17,245.28c1.48-.84,3.35-.59,4.96-.28,1.77.88-1.61,1.18-2.11,1.08-1.39.3-2.34.03-2.85-.8Z"/>
    <path class="st20" d="M680.33,378.29c1.38-1.59,3.7-2.92,5.61-1.27,2.44,2.44,1.17,6.45-.36,9.07,1.61.97,3.38,1.87,4.45,3.5-4.05.25-8.1.16-12.14.02.83-1.73,2.76-2.27,4.04-3.53-1.26-2.43-1.82-5.06-1.6-7.79Z"/>
    <path class="st20" d="M283.24,437.98c.39-2.57,3.59-5.2,6.06-3.6-2.11.72-4.5,1.77-4.85,4.28-.78,5.43.11,10.96-.45,16.41-.08,1.97-1.61,3.37-2.7,4.85.9,1.29,2.09,2.49,2.49,4.08,1,5.74-.28,11.64.74,17.38.25,2.76,3.5,2.77,4.82,4.73-2.62-.05-5.48-1.31-6.03-4.12-1.03-5.86.2-11.88-.72-17.75-.61-1.59-2.1-2.66-2.69-4.25.9-1.74,2.6-3.14,2.8-5.18.56-5.6-.28-11.26.53-16.83Z"/>
    <path class="st20" d="M563.72,433.83c2.58-.24,5.08,1.39,5.63,3.98,1.29,6.13-.32,12.53,1.04,18.65.58,2.18,2.95,2.66,4.79,3.3-1.9,1.12-4.55,1.89-4.96,4.39-.95,5.77.28,11.68-.75,17.43-.46,2.83-3.11,4.55-5.86,4.52,1.66-1.54,4.38-2.49,4.58-5.1,1.5-6.92-2.06-15.27,3.13-21.08-5.18-5.75-1.74-14.02-3.06-20.91.04-2.77-2.83-3.64-4.54-5.18Z"/>
  </g>
  <g id="_x23_5587c1ff">
    <path class="st47" d="M249.07,237.96c3.82-.13,8.75,1.1,10.95-2.99l1.04.08c-1.21,2.28-3.2,4.59-6.09,4.16-76.66.02-153.32,0-229.98.02-2.13.25-3.84-1.14-5.48-2.25l.72-.98c3.26,2.88,7.77,1.81,11.73,1.97,72.37-.05,144.74,0,217.11,0Z"/>
  </g>
  <g id="_x23_4da37bff">
    <path class="st35" d="M670.75,240.75c2-2.53,5.53-1.48,8.31-1.68,32.31-.03,64.63.14,96.94-.09,3.09-.04,5.5,3.07,5.18,6.06-.02,5.64.12,11.29-.08,16.93.05,3-2.9,5.03-5.64,5.22-33.17.12-66.34.04-99.5.08-2.34.2-4.51-1.03-6.05-2.69l-.05-.75c.27-.32.79-.96,1.06-1.28.28,2.07,1.95,3.64,4.07,3.52,33.01.12,66.04,0,99.06.08,2.6.25,5.85-1.11,5.98-4.08.25-5.72.11-11.46.07-17.19.29-2.81-2.23-5.3-5.04-4.83-33.03-.01-66.06,0-99.09-.01-2.43-.35-5.19.99-5.39,3.67-.54,6,.02,12.05-.16,18.07-.28.09-.83.26-1.11.35l-.32-.75c.08-2.49.25-4.99.01-7.48-3.11,1.73-4.76,4.97-5.67,8.28-2.78,9.73-3.57,19.87-4.58,29.9-.31,3.02-.82,6.08-.33,9.12,1.42-6.6,3.12-15.22,10.78-17.09.13-2.93-.13-5.87.29-8.77.69-2.82,3.74-4.34,6.48-4.08,36.67.02,73.33,0,110,0,2.86.17,5.14,2.9,5.15,5.72.2,3.69-.01,7.38.07,11.07-.05,3.25.48,6.76-1.32,9.68-1.74,1.12-3.73,1.79-5.81,1.65-36.29-.11-72.58-.01-108.87-.03-2.08.06-3.72-1.35-5.39-2.35-.62-3.66-.45-7.41-1.1-11.06-4.33,2.61-6.23,7.47-7.45,12.13-2.43,9.94-3.55,20.22-7.04,29.89,2.39-3.45,4.42-7.47,8.21-9.61,2.03-1.24,4.45-1.44,6.74-1.87.21-4.54-1.16-11.69,4.98-12.79,25.92.21,51.85-.08,77.77.2,7.36-.65,14.73.57,22.1-.07,7.05-.11,14.11-.15,21.18-.12,2.51,1.11,4.21,3.68,4.01,6.47-.24,6.19.5,12.46-.45,18.6-1.79,1.77-4.04,3.23-6.67,2.93-38.72-.03-77.43.01-116.15-.02-3.24.38-5.77-1.98-6.74-4.89.12-2.72.08-5.45.03-8.17-3.17.45-6.6,1.25-8.61,3.97-2.8,3.71-5.21,7.76-8.76,10.83,4.13,2.94,6.15,7.68,9.25,11.52,1.96,2.54,5.18,3.31,8.18,3.85-.08-3.21-.27-6.44.33-9.61l.72.97c.2,6.26-.3,12.55.28,18.79.02,2.23,2.24,3.17,3.96,3.93l-.85.89c-1.18-.64-2.32-1.34-3.42-2.08-1.49-3.32-.92-7.05-1.11-10.58-2.89-.5-5.88-1.16-8.24-3-2.68-2.13-4.08-5.34-5.86-8.17,2.93,11.84,3.65,24.06,5.82,36.04,1.21,5.41,2.55,12.11,8.35,14.41.56-5.79-.43-11.6.19-17.37.41-3.08,3.49-5.26,6.53-5,57.34.18,114.69,0,172.03.07,3.34.22,7.46-.93,10.06,1.83,2.08,2.12,1.56,5.3,1.68,8.01-.16,10.53.21,21.08-.21,31.61-1.6-.94-.75-3.09-.97-4.57.13-9.01-.12-18.02.03-27.03-.09-2.22.24-4.6-.74-6.66-.96-1.74-3.02-2.25-4.85-2.16-58.99.04-118-.02-176.99.02-3.07-.44-5.78,2.18-5.42,5.26-.2,11.14-.14,22.29-.08,33.43-.26,3.05,2.59,5.42,5.54,5.05,56.29.01,112.58,0,168.88.01,3.32-.05,6.66.22,9.98-.2,1.72-.66,3.03-2.05,4.59-3.02-1,3.29-4.34,4.79-7.58,4.52-58.64.06-117.29-.02-175.93.03-3.07.13-6.3-2.11-6.54-5.31-.36-5.35-.09-10.73-.1-16.09-5.74-2.03-8.76-7.74-10-13.35-2.93-12.62-2.83-25.81-6.64-38.24-.96-3.37-3.22-6.43-6.71-7.39-.6,4.71.51,9.67-1.23,14.19-1.76,1.05-3.59,2.21-5.73,2.02-33.35-.08-66.71.22-100.05-.1-4.23-.07-8.84.98-12.68-1.32-2.92-4.22-1.2-9.67-1.6-14.44-16.16.12-31.4-8.04-42.23-19.69-9.76-10.53-17.06-23.38-21.64-36.89l.15-1.03h2.65l.34,1.02c5.48,16.69,15.52,32.23,29.45,43.1,8.82,6.99,19.95,10.65,31.15,11.04.05-3.83.07-7.66.26-11.49l1.19-.5c-.17,8.42-.42,16.88.01,25.3.12,2.96,3.34,4.17,5.9,3.9,35.7,0,71.4.02,107.1-.01,2.62.31,5.36-1.54,5.44-4.31.44-5.53-.04-11.09.08-16.64-.13-3.31.62-7.11-1.86-9.78,1.7-.47,2.38,1.68,2.85,2.89.47,3.67.13,7.39.45,11.07,1.7-.88,3.48-1.88,4.34-3.69,4.08-7.87,4.12-16.96,5.18-25.56,1.79-13.92,1.75-28.2,5.84-41.74,1.15-4,3.44-8.19,7.75-9.38.58-3.64-.89-7.94,1.63-11.05M674.25,272.37c-2.27.32-3.91,2.52-3.82,4.77-.07,5.58-.21,11.19.06,16.77.01,2.84,2.82,4.72,5.5,4.35,36.33-.04,72.68.02,109.01-.04,2.47.24,5.01-1.61,5.03-4.2.14-5.68-.09-11.38-.06-17.06.37-3.25-3.15-5.15-6-4.73-36.57.09-73.16-.2-109.72.14M673.04,305.1c-2.01.7-2.8,3-2.6,4.96.15,5.63-.28,11.28.18,16.9.29,2.52,3.03,3.72,5.31,3.59,38.99-.04,77.98.03,116.97-.04,2.45.07,5.14-1.77,5.02-4.44.22-5.73.27-11.48.02-17.21,0-2.54-2.48-4.44-4.92-4.19-39-.03-78,.04-117,0-.74.1-2.23.32-2.98.42Z"/>
    <path class="st35" d="M680.29,247.31c3.98-2.31,9.62,1.05,9.33,5.68.12,4.95-6.57,8.29-10.22,4.71-3.45-2.61-2.87-8.37.89-10.39M679.69,249.65c-2.97,3.1-.24,8.15,3.73,8.56-.14-.87-.41-2.6-.55-3.46.78,1.03,1.56,2.08,2.42,3.08,1.62-1.46,3.48-3.43,2.77-5.84-.32-3.91-6.06-5.47-8.37-2.34Z"/>
    <path class="st35" d="M678.11,281.03c1.92-.3,3.78-.91,5.5-1.84,1.28,1.19,3.03,1.24,4.67,1.46.23,2.43,1.5,4.63,1.64,7.08-1.78.4-3.84.89-5.19-.71.47-1.96,1.34-3.79,2.01-5.68-.63.14-1.89.41-2.53.55-.18,2.57-.07,5.15-.05,7.72,1.03.44,2.46.54,2.86,1.8-2.39-.29-5.54,1.06-7.37-.95.78-.18,2.35-.56,3.13-.74-.31-2.7.71-5.9-.62-8.26-.55.1-1.65.29-2.2.39.74,1.7,1.58,3.37,2.18,5.14-.82,2.42-4.23,1.74-5.62.17.72-1.47,1.44-2.94,2.16-4.41-.14-.43-.43-1.29-.57-1.72M679.16,284.53c-.8,1.24-.51,1.94.88,2.1.77-1.24.48-1.94-.88-2.1M687.39,284.21c-1.32.71-1.33,1.4-.04,2.06,1.31-.71,1.33-1.39.04-2.06Z"/>
    <path class="st35" d="M681.38,311.47c4.65-2,9.77,3.49,7.94,8.07-1.29,4.19-7.24,5.76-10.19,2.36-3.61-2.91-1.98-9.05,2.25-10.43M681.14,313.08c-2.79,1.44-3.47,5.76-.98,7.81,2.8,3.35,8.69.23,8.08-3.9-.06-3.34-4.26-5.76-7.1-3.91Z"/>
    <path class="st35" d="M682.13,314.13c.71-.02,2.15-.06,2.86-.08,2.35,2.75-2.07,4.29-1.19,7.09l-1.01-.02c.06-2.05.54-4.04,2.02-5.55-1.32-.34-2.6.06-3.84.42.29-.46.87-1.39,1.16-1.86Z"/>
    <path class="st35" d="M535.16,326.23c2.57-.07,5.15-.07,7.73-.05,1.3,1.32,2.71,2.57,3.8,4.09.83,3.26.35,6.68.26,10-3.98.37-7.98.31-11.95.01-.13-4.69-.36-9.39.16-14.05M536.17,327.68c.07,3.77.07,7.55.02,11.33,3.15.14,6.31.08,9.47-.11-.08-2.54-.07-5.08.01-7.62-1.26-.04-2.51-.07-3.75-.1-.01-.9-.03-2.7-.04-3.6-1.91-.04-3.81,0-5.71.1M543.3,329.23q.48.52,0,0Z"/>
    <path class="st35" d="M677.54,343.53c4.03-2.74,11.2.61,9.54,5.92-.76-1.64-2.03-2.6-3.86-2.52-.05-.7-.14-2.1-.19-2.79-1.54.08-3.06.17-4.57.28.1,3.38.1,6.77.02,10.15,1.4.1,2.81.19,4.24.29,1.84-2.07,3.72-5.98,6.88-5.42-1.05,3.06-3.92,6.51-7.49,6.39-1.58-.13-4.21,1.01-4.82-1.07-.11-3.72-.56-7.59.25-11.23Z"/>
  </g>
  <g id="_x23_fcfcfbff">
    <path class="st30" d="M670.58,243.71c.2-2.68,2.96-4.02,5.39-3.67,33.03.01,66.06,0,99.09.01,2.81-.47,5.33,2.02,5.04,4.83.04,5.73.18,11.47-.07,17.19-.13,2.97-3.38,4.33-5.98,4.08-33.02-.08-66.05.04-99.06-.08-2.12.12-3.79-1.45-4.07-3.52-.27.32-.79.96-1.06,1.28l-.59-.13-.24-.78.28-.79c.28-.09.83-.26,1.11-.35.18-6.02-.38-12.07.16-18.07M680.29,247.31c-3.76,2.02-4.34,7.78-.89,10.39,3.65,3.58,10.34.24,10.22-4.71.29-4.63-5.35-7.99-9.33-5.68Z"/>
  </g>
  <g id="_x23_6ba68aff">
    <path class="st18" d="M683.65,253.81c-1.47-.32-1.37-4.02.04-4.37.65,1.3.67,3.09-.04,4.37Z"/>
  </g>
  <g id="_x23_fcfdfcff">
    <path class="st5" d="M674.25,272.37c36.56-.34,73.15-.05,109.72-.14,2.85-.42,6.37,1.48,6,4.73-.03,5.68.2,11.38.06,17.06-.02,2.59-2.56,4.44-5.03,4.2-36.33.06-72.68,0-109.01.04-2.68.37-5.49-1.51-5.5-4.35-.27-5.58-.13-11.19-.06-16.77-.09-2.25,1.55-4.45,3.82-4.77M678.11,281.03c.14.43.43,1.29.57,1.72-.72,1.47-1.44,2.94-2.16,4.41,1.39,1.57,4.8,2.25,5.62-.17-.6-1.77-1.44-3.44-2.18-5.14.55-.1,1.65-.29,2.2-.39,1.33,2.36.31,5.56.62,8.26-.78.18-2.35.56-3.13.74,1.83,2.01,4.98.66,7.37.95-.4-1.26-1.83-1.36-2.86-1.8-.02-2.57-.13-5.15.05-7.72.64-.14,1.9-.41,2.53-.55-.67,1.89-1.54,3.72-2.01,5.68,1.35,1.6,3.41,1.11,5.19.71-.14-2.45-1.41-4.65-1.64-7.08-1.64-.22-3.39-.27-4.67-1.46-1.72.93-3.58,1.54-5.5,1.84Z"/>
  </g>
  <g id="_x23_ebeff3ff">
    <path class="st19" d="M668.7,285.95c.65,3.65.48,7.4,1.1,11.06,1.05,2.46,2.67,4.61,4.34,6.69-6.14,1.1-4.77,8.25-4.98,12.79-2.29.43-4.71.63-6.74,1.87-3.79,2.14-5.82,6.16-8.21,9.61,3.49-9.67,4.61-19.95,7.04-29.89,1.22-4.66,3.12-9.52,7.45-12.13Z"/>
  </g>
  <g id="_x23_e3e7e9ff">
    <path class="st15" d="M669.8,297.01c1.67,1,3.31,2.41,5.39,2.35,36.29.02,72.58-.08,108.87.03,2.08.14,4.07-.53,5.81-1.65-.41,1.72-1.11,3.35-1.88,4.94,2.42.11,4.91.08,7.2,1.03-7.07-.03-14.13.01-21.18.12-7.37.64-14.74-.58-22.1.07-25.92-.28-51.85.01-77.77-.2-1.67-2.08-3.29-4.23-4.34-6.69Z"/>
  </g>
  <g id="_x23_88c0a3ff">
    <path class="st43" d="M524.85,320.25c1.17-2.88,4.24-4.03,7.16-3.86,32.65-.02,65.3.02,97.94-.02,4.43.04,8.93-.33,13.28.73l-.52,1.11c-36.56-.51-73.15.01-109.72-.23-2.5-.28-4.82.58-6.95,1.77l-1.19.5Z"/>
    <path class="st43" d="M584,464.91c4.25-.13,8.56-.58,12.78.12.35.46,1.04,1.38,1.38,1.84-.93.36-1.86.69-2.8,1.02-.48.08-1.46.25-1.95.33-2.42-.36-4.88-.55-7.31-.21-.75-.29-1.48-.57-2.2-.84-.18,3.71-.28,7.44-.26,11.17-1.03-4.27-1.27-9.27.36-13.43Z"/>
  </g>
  <g id="_x23_eceff4ff">
    <path class="st31" d="M660.61,322.6c2.01-2.72,5.44-3.52,8.61-3.97.05,2.72.09,5.45-.03,8.17-.2,1.52-.64,3.04-.54,4.59,1.37,1.9,3.46,3.1,5.34,4.44-1.9.45-3.38,1.73-4.38,3.36-.6,3.17-.41,6.4-.33,9.61-3-.54-6.22-1.31-8.18-3.85-3.1-3.84-5.12-8.58-9.25-11.52,3.55-3.07,5.96-7.12,8.76-10.83Z"/>
    <path class="st31" d="M593.41,468.22c.49-.08,1.47-.25,1.95-.33-1.82,3.25-3.78,6.43-6,9.43-1.3-1.95-2.6-3.91-3.78-5.93,1.7.32,2.84,1.6,3.97,2.8,1.33-1.97,2.55-3.99,3.86-5.97Z"/>
  </g>
  <g id="_x23_e2e6e8ff">
    <path class="st14" d="M669.19,326.8c.97,2.91,3.5,5.27,6.74,4.89,38.72.03,77.43-.01,116.15.02,2.63.3,4.88-1.16,6.67-2.93.53,3.39-3.4,4.37-5.59,5.89,2.06.19,4.2.28,6.13,1.16-41.77.03-83.53.18-125.3,0-1.88-1.34-3.97-2.54-5.34-4.44-.1-1.55.34-3.07.54-4.59Z"/>
  </g>
  <g id="_x23_bee2d2ff">
    <path class="st51" d="M543.3,329.23q.48.52,0,0Z"/>
  </g>
  <g id="_x23_a2d0beff">
    <path class="st29" d="M537.75,331.79c1.42-.03,2.41.6,2.95,1.89,1.22.23,2.46.37,3.72.42-.03,1.33-.05,2.66-.07,4.01-2.23.01-4.46.01-6.68.01.01-2.11.03-4.22.08-6.33Z"/>
  </g>
  <g id="_x23_68a687ff">
    <path class="st34" d="M669.61,339.19c1-1.63,2.48-2.91,4.38-3.36,41.77.18,83.53.03,125.3,0,2.88.42,5.21,3.2,4.9,6.15-.09,6.4.39,12.84-.34,19.21-1.93,1.63-4.12,3.15-6.79,2.86-31.34,0-62.68,0-94.02,0-9.77-.17-19.57.43-29.32-.28l.85-.89c40.83-.37,81.68.04,122.51-.2,2.4.15,5.62-.88,5.78-3.71.26-5.69.15-11.4.05-17.09.23-2.7-2.09-5.2-4.84-4.87-41.03.07-82.07-.11-123.11.07-2.14-.26-3.44,1.65-4.63,3.08l-.72-.97Z"/>
  </g>
  <g id="_x23_d2dedbff">
    <path class="st12" d="M639.05,350.05c2.14.19,3.97-.97,5.73-2.02l1.22-.16c-.94,1.99-2.47,4.09-4.93,4-37.06.13-74.13.26-111.18-.03-1.79-.19-4.29-.87-3.57-3.21,3.84,2.3,8.45,1.25,12.68,1.32,33.34.32,66.7.02,100.05.1Z"/>
  </g>
  <g id="_x23_dee3e5ff">
    <path class="st39" d="M797.06,364.05c2.67.29,4.86-1.23,6.79-2.86l.97-.38c-.44,2.68-1.99,5.36-4.87,5.9-4.95.39-9.92,0-14.88.13-20.82-.2-41.65.3-62.46-.38-15.22.44-30.46.36-45.68.47-2.95.09-7.15-1.68-6.63-5.24,1.1.74,2.24,1.44,3.42,2.08,9.75.71,19.55.11,29.32.28,31.34,0,62.68,0,94.02,0Z"/>
  </g>
  <g id="_x23_f4cd35ff">
    <path class="st4" d="M590.28,445.93c3.36,3.77,5.68,8.48,7.83,13.04-4.93.63-9.91.25-14.86.4,1.65-4.81,4.74-8.94,7.03-13.44M590.06,448.64c-.04,2.23.01,4.46.27,6.69.89-1.88,2.02-5.45-.27-6.69M589.9,456.1c-.49,1.69.06,2.25,1.63,1.68.46-1.67-.08-2.23-1.63-1.68Z"/>
  </g>
  <g id="_x23_110f12ff">
    <path class="st26" d="M24.13,448.14c2.57-2.15,5.74,2.54,2.87,4.04-2.46,1.68-5.18-2.15-2.87-4.04Z"/>
    <path class="st26" d="M590.06,448.64c2.29,1.24,1.16,4.81.27,6.69-.26-2.23-.31-4.46-.27-6.69Z"/>
    <path class="st26" d="M589.9,456.1c1.55-.55,2.09,0,1.63,1.68-1.57.57-2.12.01-1.63-1.68Z"/>
    <path class="st26" d="M24.2,467.36c2.4-2.1,5.48,2.21,3,3.95-2.34,2.19-5.64-2.16-3-3.95Z"/>
  </g>
  <g id="_x23_1eb527ff">
    <path class="st6" d="M583.9,467.17c.72.27,1.45.55,2.2.84,2.43-.34,4.89-.15,7.31.21-1.31,1.98-2.53,4-3.86,5.97-1.13-1.2-2.27-2.48-3.97-2.8,1.18,2.02,2.48,3.98,3.78,5.93,2.22-3,4.18-6.18,6-9.43.94-.33,1.87-.66,2.8-1.02-.59,3.71.02,7.48-.51,11.18-1.11,2.57-4.53,1.27-6.69,1.65-2.41-.34-5.56.79-7.32-1.36-.02-3.73.08-7.46.26-11.17Z"/>
  </g>
  <g class="st10">
    <text class="st9" transform="translate(33 453.83)"><tspan x="0" y="0">Different tasks → different capabilities</tspan></text>
  </g>
  <g class="st10">
    <text class="st9" transform="translate(33.66 472.54)"><tspan x="0" y="0">Avoid single-task dominance</tspan></text>
  </g>
  <g class="st10">
    <text class="st9" transform="translate(290.26 447.03)"><tspan x="0" y="0" xml:space="preserve"> QA → user interaction capability</tspan></text>
  </g>
  <g class="st10">
    <text class="st9" transform="translate(296.57 466.66)"><tspan x="0" y="0">Explanation → legal knowledge articulation</tspan></text>
  </g>
  <g class="st10">
    <text class="st9" transform="translate(296.74 483.81)"><tspan x="0" y="0">Analysis → reasoning capability</tspan></text>
  </g>
  <g class="st10">
    <text class="st9" transform="translate(603.57 460.7)"><tspan x="0" y="0">Only explanation → model becomes a repeater</tspan></text>
  </g>
  <g class="st10">
    <text class="st9" transform="translate(602.66 478.13)"><tspan x="0" y="0">multi-task → richer behavior</tspan></text>
  </g>
  <g class="st10">
    <text class="st9" transform="translate(550.27 336.31)"><tspan x="0" y="0">case_analysis</tspan></text>
  </g>
  <g class="st10">
    <text class="st9" transform="translate(420.04 246.67)"><tspan x="0" y="0">Legal SFT</tspan></text>
  </g>
  <g class="st10">
    <text class="st9" transform="translate(54.76 213.5)"><tspan x="0" y="0">Example: &quot;What happens if a</tspan><tspan x=".85" y="18" xml:space="preserve"> rental contract is breached?&quot;</tspan></text>
  </g>
  <g class="st10">
    <text class="st9" transform="translate(102.53 178.12)"><tspan x="0" y="0">conditions and boundaries</tspan></text>
  </g>
  <g class="st10">
    <text class="st9" transform="translate(106.69 145.4)"><tspan x="0" y="0">natural language answers</tspan></text>
  </g>
  <g class="st10">
    <text class="st9" transform="translate(119.7 114.55)"><tspan x="0" y="0">user-oriented questions</tspan></text>
  </g>
  <g class="st10">
    <text class="st9" transform="translate(306.79 171.02)"><tspan x="0" y="0">legal_qa</tspan></text>
  </g>
  <g class="st10">
    <text class="st9" transform="translate(549 162.76)"><tspan x="0" y="0">statute_explanation</tspan></text>
  </g>
  <g class="st10">
    <text class="st7" transform="translate(715.51 106.42)"><tspan x="0" y="0">interpret legal text</tspan></text>
  </g>
  <g class="st10">
    <text class="st7" transform="translate(714.99 139.55)"><tspan x="0" y="0">explain applicability</tspan></text>
  </g>
  <g class="st10">
    <text class="st7" transform="translate(715.81 172.41)"><tspan x="0" y="0">clarify concepts</tspan></text>
  </g>
  <g class="st10">
    <text class="st7" transform="translate(693.92 207.62)"><tspan x="0" y="0">Example: &quot;Explain Article XXX&quot;</tspan></text>
  </g>
  <g class="st10">
    <text class="st7" transform="translate(692.78 257.87)"><tspan x="0" y="0">identify issues</tspan></text>
  </g>
  <g class="st10">
    <text class="st7" transform="translate(691.84 287.71)"><tspan x="0" y="0">apply legal rules</tspan></text>
  </g>
  <g class="st10">
    <text class="st7" transform="translate(691.41 319.58)"><tspan x="0" y="0">explain reasoning</tspan></text>
  </g>
  <g class="st10">
    <text class="st7" transform="translate(690.56 352.24)"><tspan x="0" y="0">handle uncertainty</tspan></text>
  </g>
  <g class="st10">
    <text class="st7" transform="translate(691.26 389.43)"><tspan x="0" y="0" xml:space="preserve"> Example: &quot;How to handle </tspan><tspan x="20.81" y="16.8">a contract dispute?&quot;</tspan></text>
  </g>
  <g class="st10">
    <text class="st8" transform="translate(296.68 53.41)"><tspan x="0" y="0">Task Taxonomy for Legal SFT</tspan></text>
  </g>
  <text class="st11" transform="translate(396.82 266.87)"><tspan x="0" y="0">Task Taxonomy</tspan></text>
</svg>