<?xml version="1.0" encoding="UTF-8"?>
<svg id="_图层_1" data-name="图层_1" xmlns="http://www.w3.org/2000/svg" version="1.1" viewBox="0 0 1377 768">
  <!-- Generator: Adobe Illustrator 29.6.0, SVG Export Plug-In . SVG Version: 2.1.1 Build 207)  -->
  <defs>
    <style>
      .st0, .st1, .st2, .st3, .st4, .st5, .st6, .st7, .st8, .st9 {
        isolation: isolate;
      }

      .st0, .st10 {
        font-size: 19px;
      }

      .st0, .st10, .st3, .st4, .st6, .st11, .st8, .st12 {
        font-family: TimesNewRomanPS-BoldMT, 'Times New Roman';
        font-weight: 700;
      }

      .st13 {
        fill: #595343;
      }

      .st14 {
        fill: #edecec;
      }

      .st1, .st3 {
        fill: #fff;
      }

      .st2, .st7, .st15, .st16 {
        font-family: TimesNewRomanPSMT, 'Times New Roman';
      }

      .st2, .st8 {
        font-size: 15px;
      }

      .st17 {
        fill: #07a80d;
      }

      .st18 {
        fill: #f38332;
      }

      .st3, .st4, .st11, .st9 {
        font-size: 23px;
      }

      .st19 {
        fill: #9a978d;
      }

      .st6 {
        font-size: 37px;
      }

      .st7, .st15 {
        font-size: 17px;
      }

      .st20 {
        fill: #4c82d0;
      }

      .st21 {
        fill: #f5d356;
      }

      .st22 {
        fill: #fef2c0;
      }

      .st23 {
        fill: #8f3b98;
      }

      .st24 {
        fill: #509c5e;
      }
    </style>
  </defs>
  <g id="_x23_07a80dff">
    <path class="st17" d="M0,0h.06s-.04.05-.06.06v-.06Z"/>
    <path class="st17" d="M1032.13,357.75c2.63-.05,5.28-.16,7.91-.4,5.92-.66,11.91.22,17.81-.81.36.43,1.08,1.29,1.44,1.73.1.12.29.36.38.48.82,1.05,1.63,2.13,2.44,3.22.15,6.02.16,12.08-.2,18.1.11,2.8-2.11,5.49-4.93,5.72-6.32.73-12.71.31-19.05.43-3.56.35-7.27-2.39-7.18-6.13.09-5.47-.65-11.13.58-16.47.65-1.74,1.56-3.62.89-5.49-.02-.1-.07-.28-.09-.38M1052.6,360.35c-2.65,4.48-4.93,9.2-7.95,13.44-2.49.61-3.12-2.8-4.52-4.2-.52-.2-1.58-.6-2.11-.8-.45.2-1.37.6-1.83.8,2.57,3.89,4.97,7.89,7.81,11.59,4.08-5.88,7.55-12.16,11.41-18.19.05-.09.14-.27.18-.36.39-.09,1.18-.27,1.57-.36v-.88s-.66-.28-.66-.28c-.98-.19-2.92-.57-3.9-.76Z"/>
  </g>
  <g id="_x23_edececff">
    <path class="st14" d="M.06,0h1376.94v768H0V.06s.05-.04.06-.06M971.28,128.95c-.07,18.34-.02,36.68-.06,55.02-.09,3.38.46,6.88-.59,10.16-8.68.47-17.13,2.88-25.73,4.07,2.78,2.04,5.52,4.16,8,6.58-19.74,15.7-39.69,31.14-59.28,47.03-5.04-6.72-11.16-12.52-16.09-19.32-8.5-9.47-17.84-18.18-27.29-26.7-13.75-11.1-28.09-21.71-43.88-29.76,6.32-5.33,9.6-14.72,5.92-22.45-2.31-5.23-8.18-6.88-12.96-9-26.68-10.27-54.89-16.36-83.31-19.16-16.99-.54-33.99-.37-50.97-.14-14.18.71-28.15,3.5-42.09,6.05-16.93,3.99-33.6,9.09-49.88,15.22-3.7,1.72-7.14,4.63-8.5,8.58-2.74,7.29.86,15.53,6.45,20.43-3.15,3.28-7.61,4.73-11.37,7.15-10.18,6.24-20.03,13.06-29.21,20.71-9.77,7.83-18.22,17.11-27.18,25.81-6.33,7.5-12.87,14.88-18.67,22.81-19.78-15.88-39.69-31.59-59.68-47.21,2.52-2.55,5.4-4.7,8.33-6.76-8.83-1.23-17.5-3.34-26.28-4.82,3.46,8.32,7,16.62,10.88,24.76,1.33-3.02,2.54-6.1,3.67-9.2,7.56,4.83,14.43,10.62,21.38,16.28,13.11,10.09,26.05,20.42,38.98,30.76-3.94,5.23-7.34,10.83-10.48,16.57-5.53,9.37-10.54,19.06-14.97,28.99-7.62,18.91-14.25,38.36-17.52,58.55-1.25,7.97-2.79,15.96-2.66,24.07-1.9,14.56-.75,29.31-.95,43.96,3.15,48.96,20.03,97.2,49.02,136.88,4.86,5.83,9.07,12.16,13.97,17.96-10.01,9.05-19.96,18.17-30.06,27.12-1.33-3.29-2.57-6.6-3.82-9.91-3.8,8.55-6.9,17.4-10.24,26.14,8.83-2.71,17.7-5.35,26.71-7.45-3.13-1.74-6.29-3.41-9.4-5.19,9.96-9.09,20.08-18,29.87-27.27l-.52-.56c4.63,3.49,8.29,8.04,12.44,12.06,5.24,6.43,11.66,11.77,18.4,16.57,5.1,3.93,10.01,8.09,15.24,11.86,23.04,15.33,47.94,28.29,74.82,35.35-1.53.2-3,.55-4.48.88,3.67.97,7.33,2.02,10.99,3.08,10.61,2.88,21.57,4.1,32.43,5.74,3.75.54,7.57.13,11.32.73,6.93,1.18,13.98.45,20.98.63,16.8.37,33.43-2.5,49.97-5.15-1.95-.35-3.9-.75-5.84-1.01,14.46-2.41,28.18-7.73,41.99-12.47,14.77-5.78,28.75-13.34,42.17-21.76,11.41-6.53,21.24-15.29,31.53-23.38,8.3-7.09,15.41-15.43,23.44-22.82,9.9,9.4,20.29,18.26,30.36,27.47-2.8,1.98-5.79,3.65-8.76,5.34,8.7,2.69,17.57,4.78,26.31,7.36.35,30.95.01,61.93.23,92.89-.1,7.62,7.07,13.95,14.58,13.41,40.36.1,80.73.01,121.09.05,3.63-.02,7.5.12,10.79-1.7,4.3-2.22,7.04-6.97,6.85-11.8.01-42.01-.06-84.02-.04-126.03.39-6.93-5.4-13.9-12.6-13.53-42.99.02-85.98-.08-128.96.06-6.55-.06-11.62,6.11-11.76,12.37-.38,11.32.16,22.66-.2,33.98-3.9-8.19-6.54-16.9-9.74-25.37-2.04,2.89-3.26,6.23-4.76,9.41-10.14-9.01-20.16-18.14-30.28-27.15,4.72-5.15,8.43-11.1,12.9-16.45,8.09-10.05,14.13-21.49,20.53-32.62,6.94-13.08,12.7-26.77,17.18-40.87,7.44-21.18,10.79-43.54,12.73-65.82.17-12.33.22-24.66-.04-36.99-1.23-11.72-2.28-23.5-4.74-35.04-6.6-33.25-19.9-65.07-38.21-93.56-1.33-1.88-2.5-3.88-3.38-6.01,11.84-9.18,23.47-18.64,35.39-27.72,8.22-6.26,15.73-13.53,24.7-18.75,1.4,2.55,1.55,6.34,3.96,8.04,3.62-7.35,7.01-14.81,10.12-22.39.65,1.02.94,2.14.86,3.36-.28,18.33.05,36.66-.1,55,.08,3.9-.56,8.39,2.32,11.53,3.32,4.46,9.27,5.26,14.45,4.93,43.02,0,86.04.05,129.06-.03,6.02.02,12.06-5.09,11.7-11.38.06-42.66-.04-85.32.06-127.98.11-3.01-.23-6.2-2.27-8.58-2.54-3.75-7.2-5.35-11.58-4.98-44.03.16-88.06-.03-132.09.11-6.36.08-11.87,6.02-11.6,12.37M256.37,117.51c-5.31,2.1-8.16,8.03-7.75,13.55.53,17.31.43,34.63.34,51.94-1.05,23.96.57,47.94-.11,71.9.03,2.94-.19,6.17,1.53,8.72,2.09,3.15,5.69,5.53,9.58,5.33,45.04.03,90.08.02,135.12,0,3.66.21,7.24-1.66,9.25-4.7,2.59-3.55,1.43-8.21,1.65-12.28-.44-18.34,1.23-36.67-.03-54.99.09-20.64-.04-41.29.06-61.93.03-5.07.92-11.07-3.2-14.93-3.43-4.05-9.14-3.08-13.83-3.12-40,.03-80,0-120.01.02-4.19.1-8.51-.71-12.6.48M1029.18,339.15c-6.33.72-11.84,6.4-11.5,12.91-.15,57.99-.08,115.98-.18,173.98-.3,5.37,3.02,10.48,7.84,12.73,3.24,1.82,7.07,1.24,10.64,1.36,98.71-.19,197.42.07,296.13-.07,7.05-.28,13.31-6.92,12.9-14.05-.02-56.68-.02-113.37,0-170.05.21-4.36-.36-9.15-3.57-12.41-3.23-3.97-8.59-4.96-13.43-4.57-99.61.15-199.23-.2-298.83.17M310.51,579.74c-6.61,1.06-11,7.84-10.62,14.29.12,41.32-.22,82.65.15,123.98-.69,7.32,5.27,14.62,12.83,14.42,40.37.16,80.75-.01,121.13.07,4-.06,8.24.4,11.96-1.43,4.55-2.12,7.65-7.02,7.37-12.08-.03-42.02,0-84.04-.09-126.06.44-6.8-5.17-13.64-12.21-13.42-28.35-.14-56.69.01-85.04-.03-15.16.19-30.35-.34-45.48.26Z"/>
    <path class="st14" d="M329.33,136.44c3.41-1.13,7.44-.32,10.05,2.18,4.23,3.95,4.38,11.7-.33,15.35-4.07,3.85-11.31,3.1-14.5-1.49-4.1-5.22-1.57-13.97,4.78-16.04M330.43,137.46c-5.89,1.07-8.68,8.71-5.49,13.58,2.66,4.77,9.88,5.32,13.61,1.52,2.91-2.39,2.84-6.6,2.08-9.95-1.34-4.11-6.16-6.16-10.2-5.15Z"/>
    <path class="st14" d="M332.32,139.55c1.18,1.18,2.37,2.34,3.57,3.49-1.75.32-4.02-.37-5.22,1.34,1.62.95,4.01,1.1,5.06,2.81.43,2.46-2.09,3.93-3.31,5.73-.97-1.47-2.12-2.8-3.38-4.01,1.87.03,3.73.02,5.61-.07-1.05-2.27-4.34-1.78-5.34-3.97.03-2.13,2.01-3.59,3.01-5.32Z"/>
    <path class="st14" d="M308.52,155.39c3.23.09,7.29-1.27,9.53,1.83,6.39.09,12.31,2.94,18.18,5.15,3.05-.82,7.09-4.35,9.78-1.17.99,2.06-1.37,3.04-2.69,4.06-3.34,2-6.39,4.54-9.99,6.05-5.26,1.44-10.67-.31-15.69-1.86-.34.52-1.04,1.57-1.38,2.09-2.56.04-5.11,0-7.66-.14-.3-5.33-.16-10.67-.08-16.01M310.15,156.81c-.03,4.3-.04,8.6.1,12.9,1.8.02,3.6.04,5.4.07.14-4.36.19-8.71.21-13.06-1.91.02-3.81.05-5.71.09M317.22,159.05c-.06,3.01-.1,6.03-.16,9.04,3.31.93,6.59,2.04,10.02,2.43,6.92.96,12.2-4.57,17.59-7.97,0-.33,0-1,.02-1.33-5.08-.47-8.57,4.97-13.68,4.29-2.32-.11-4.89-.2-6.62-1.96,3.55.1,7.07.73,10.64.57-.41-.38-1.24-1.12-1.65-1.5-5.27-1.65-10.48-4.29-16.16-3.57Z"/>
    <path class="st14" d="M311.44,168.07c1.21-.92,1.93-.71,2.18.63-1.22.9-1.94.69-2.18-.63Z"/>
    <path class="st14" d="M674.3,178.95c2.92-.05,5.86-.03,8.79.04,0,2.48,0,4.97.03,7.45-2.85-.02-5.68-.04-8.51-.05-.18-2.48-.26-4.96-.31-7.44M675.94,180.24c-.03,1.58-.04,3.17-.04,4.76,1.95-.05,3.91-.08,5.88-.11-.01-1.55-.01-3.1,0-4.65h-5.84Z"/>
    <path class="st14" d="M694.78,179c2.93-.08,5.86-.06,8.8.02.02,2.42.06,4.84.12,7.26-3,.11-6,.15-8.99.14-.05-2.48-.04-4.95.07-7.42M696.09,180.26c-.01,1.55,0,3.11,0,4.68,2.06,0,4.12.03,6.19.05,0-1.62.01-3.25.02-4.87-2.08.03-4.15.08-6.22.14Z"/>
    <path class="st14" d="M685.19,180.26c1.45.52,1.12,3.3.48,4.49-1.39-.58-1.11-3.29-.48-4.49Z"/>
    <path class="st14" d="M674.5,188.48c2.77-.12,5.54-.13,8.32-.04.15,2.8.18,5.61.12,8.42-2.78-.02-5.64.4-8.36-.28-.3-2.69-.14-5.4-.08-8.1M675.9,189.68c.03,1.95.08,3.9.14,5.85,1.88-.03,3.77-.06,5.67-.09.04-1.91.08-3.82.13-5.73-1.98-.02-3.97-.03-5.94-.03Z"/>
    <path class="st14" d="M695.29,188.42c2.74-.24,5.5-.07,8.26.02.14,2.83.11,5.68-.18,8.51-2.79-.04-5.56-.06-8.34-.09.08-2.78-.71-5.84.26-8.44M696.19,189.78c-.03,1.85-.06,3.71-.07,5.57,2.04.03,4.08.05,6.13.07-.01-1.89-.02-3.78-.02-5.66-2.02,0-4.03,0-6.04.02Z"/>
    <path class="st14" d="M685.25,188.88c.29.07.87.22,1.16.3-.57,1.93.56,5.15-1.88,5.94.2-2.08.46-4.16.72-6.24Z"/>
    <path class="st14" d="M688.35,188.92c1.4.11,2.82.22,4.24.33.33,1.72.77,3.42,1.44,5.05-.57-.15-1.7-.46-2.27-.61-.34-1.61.77-4.23-1.8-4.49-.08,4.13,0,8.26.04,12.4,1.25-.1,2.51-.2,3.77-.29-.47,1,.68,4.16-1.12,3.52-.13-.58-.39-1.75-.53-2.33-.78.02-2.35.08-3.13.11-.29-4.56.16-9.17-.64-13.69Z"/>
    <path class="st14" d="M674.6,207.22c.11-2.68-.8-5.79.32-8.22,2.69-.23,5.41-.05,8.11.03.02,2.73.02,5.47,0,8.2-2.82.04-5.64.02-8.44,0M675.87,200.01c0,1.99.01,3.98.04,5.97,1.94-.03,3.9-.06,5.86-.1-.01-1.93-.01-3.86-.01-5.79-1.97-.03-3.93-.05-5.89-.08Z"/>
    <path class="st14" d="M694.93,198.94c2.88-.03,5.77-.02,8.66.12-.03,2.64-.04,5.28-.04,7.92-2.86.21-5.73.27-8.58.2-.02-2.75-.02-5.49-.04-8.24M696.14,200.08c.01,1.94.03,3.87.06,5.81,2,.04,4,.07,6.02.1.01-1.98.01-3.96.01-5.93-2.04,0-4.06.01-6.09.02Z"/>
    <path class="st14" d="M544.67,233.02c.5-7.74,9.87-13.09,16.77-9.38,6.94,3.21,8.25,12.77,3.85,18.62,1.31,3.67,2.81,7.28,4.09,10.96-1.68-.44-3.35-.89-5.03-1.33-1.03,1.5-2.05,2.99-3.12,4.46-1.66-3.54-3.1-7.18-4.83-10.68-2.43,3.29-3.51,7.28-5.04,11.02-.91-1.49-1.74-3.03-2.78-4.43-1.73-.5-3.47.86-5.16,1.11.94-3.6,2.5-6.99,3.58-10.55-.99-3.19-3.02-6.27-2.33-9.8M553.43,224.6c-5.73,1.63-9.18,8.82-6.22,14.16,2.07,5.08,8.68,7.25,13.48,4.78,4.95-2.44,6.9-8.99,4.57-13.89-1.9-4.34-7.39-6.69-11.83-5.05M545.38,251.11c1.03-.32,2.07-.58,3.14-.78.95.94,1.86,1.93,2.72,2.98.91-2.39,1.89-4.75,2.92-7.1-1.92-.86-3.82-1.75-5.69-2.68-1.03,2.53-2.04,5.06-3.09,7.58M558.44,246.29c1.02,2.4,2.05,4.79,3.03,7.21.78-1.13,1.55-2.26,2.34-3.38.8.24,2.41.71,3.21.95-.97-2.61-1.92-5.22-2.88-7.83-1.89,1.06-3.78,2.08-5.7,3.05Z"/>
    <path class="st14" d="M816.98,233.07c-1.95-1.93-1.77-7.64,1.98-7.15,5.76-.19,11.52-.07,17.28-.02.71,2.27,1.51,5.22-.23,7.2-6.33.27-12.71.39-19.03-.03M816.88,229.13c5.61.36,11.32-.42,16.89.42-5.62.59-11.28.04-16.91.32l1.37,1.59c5.63.66,11.35.1,17.02.37.02-1.5.04-3,.07-4.49-5.57-.06-11.16-.39-16.71.07l-1.73,1.72Z"/>
    <path class="st14" d="M806.79,227.79c.72-.48,2.16-1.44,2.88-1.92-.63,1.67-1.69,3.24-1.75,5.07,1.4,1.14,3.15.51,4.05-.9-.68-.53-2.04-1.6-2.72-2.13.76-.53,1.53-1.06,2.31-1.58.46.66,1.39,1.99,1.85,2.65.9,2.27-1.66,3.64-3.23,4.65.05,1.69.06,3.4.31,5.09,1.63.99,4.11.08,5.26,1.98-1.66.08-3.31.15-4.96.19-.02,2.82.01,5.64.13,8.46,1.31.02,2.64.04,3.97.07.02.29.05.88.06,1.17-1.62,0-3.22,0-4.81.01-1.42-5.57-.65-11.36-1.13-17.02-1.82-1.23-4.01-3.58-2.22-5.79Z"/>
    <path class="st14" d="M816.05,236.87c6.97-.5,13.97-.29,20.94-.09-.05,1.99.03,4-.31,5.97-1.15,1.36-3.21.63-4.73.9-5.29-.06-10.59.08-15.87-.27-.02-2.18-.03-4.34-.03-6.51M817.8,238c0,1.34.02,2.69.05,4.04,5.83.08,11.67-.1,17.51-.1.01-1.32.03-2.63.05-3.94h-17.61Z"/>
    <path class="st14" d="M815.37,250.08c1.28-1.93,3.26-4.56,5.93-3.43,3.17.91,3.33,5.7.24,6.86-2.82,1.77-4.91-1.36-6.17-3.43M819.07,248.01c-2.79,1.08-1,5.74,1.83,4.17,2.89-.8.96-5.51-1.83-4.17Z"/>
    <path class="st14" d="M669.43,327.27c6.65-3.59,12.65-8.45,19.61-11.38,6.64,3.41,12.68,7.9,19.31,11.34-.02.74-.07,2.21-.09,2.95-3.98,1-8.23.13-12.3.37-8.77-.28-17.62.64-26.33-.3-.05-.75-.15-2.23-.2-2.98M670.61,328.96c12.22.17,24.46.39,36.69-.02-5.69-4.48-12.26-7.67-18.36-11.55-6.14,3.8-12.59,7.17-18.33,11.57Z"/>
    <path class="st14" d="M673.51,331.84c.33.28,1.01.85,1.35,1.13.39,4.93.19,9.91.02,14.85-1.08-.64-1.57-1.57-1.47-2.78-.1-4.4-.05-8.8.1-13.2Z"/>
    <path class="st14" d="M703.36,332.66c.74.58,1.11,1.33,1.12,2.23.12,4.45.17,8.92-.22,13.36.6.02,1.8.07,2.4.1.12.6.36,1.81.48,2.41-4.17-1.61-8.72-.72-13.07-.92-7.36.17-14.79-.44-22.11.35l-1.22,1c10.72.96,21.55.38,32.31.44,1.95.21,4.83-.87,5.88,1.41.63,1.19.92,2.51,1.33,3.8-14.23.29-28.47.11-42.7.1-.42-3.59,3.72-4.82,3.68-8.14,3.52-.88,7.17-.53,10.77-.57,7.16.06,14.33-.12,21.49.11-.81-5.18-.6-10.48-.14-15.68M669.35,355.04c13.02.15,26.06.27,39.08-.01-.4-.47-1.21-1.42-1.61-1.9-10.6-.35-21.22-.02-31.83-.13-2.05.1-4.89-.55-5.64,2.04Z"/>
    <path class="st14" d="M678.25,334.52c2.54,1.95.95,5.62,1.45,8.31.77-.07,2.33-.2,3.11-.27.09.29.26.87.35,1.16-1.66.03-3.3.08-4.94.13.04-3.11-.05-6.22.03-9.33Z"/>
    <path class="st14" d="M688.42,340.24c-1.28-1.89-4.02-3.67-1.32-5.83,2.03,2.27,1.64,6.18,4.01,7.91,1.23-2.32.48-4.97.74-7.46,3.27.02,2.48,4.67,3.71,6.79,1.35-2.28,1.14-6.33,4.23-6.91.11,3.21.13,6.43-.12,9.64-2.45-1.21-.98-4.39-1.3-6.58-.95,2.17-1.84,4.36-2.85,6.5-.8-2.13-1.54-4.28-2.3-6.41-.13,1.91-.13,3.82-.06,5.75-1.3.12-2.6.18-3.89.23-.15-.7-.45-2.09-.6-2.78-.61-.04-1.83-.1-2.44-.13-.44,1.17-.71,2.51-1.84,3.26.14-1.82.35-3.63.51-5.44,1.17.49,2.32.98,3.52,1.46Z"/>
    <path class="st14" d="M1030.41,341.54c55.85-.38,111.73-.02,167.59-.17,44.02-.01,88.04,0,132.07-.02,3.33-.09,6.85.86,9.08,3.5,3.23,3.14,3.75,7.92,3.57,12.19,0,56-.03,111.99.05,167.99.41,6.47-5.15,12.72-11.7,12.68-97.7,0-195.4-.05-293.11,0-3.85-.15-7.97.66-11.54-1.16-3.95-1.85-6.8-6.12-6.42-10.54,0-57.66-.01-115.33.01-172.99-.44-5.82,4.62-11.23,10.4-11.48M1032.13,357.75c.02.1.07.28.09.38-1.8.71-1.87,3.98-.89,5.49-1.23,5.34-.49,11-.58,16.47-.09,3.74,3.62,6.48,7.18,6.13,6.34-.12,12.73.3,19.05-.43,2.82-.23,5.04-2.92,4.93-5.72.36-6.02.35-12.08.2-18.1-.29-1.84-.35-3.95-1.84-5.28-1.88-2.01-4.83-1.76-7.31-1.76-5.35.14-10.69-.07-16.03.1-2.02-.12-3.67,1.19-4.8,2.72M1035.57,436.47l-.68-.66c-2,1.61-3.8,3.46-5.16,5.64,3.62,3.86,7.41,7.55,11.16,11.29-3.83,3.63-7.82,7.13-11.02,11.35l1.27,1.07c-1.5,1.5,1.11,4.21,2.66,2.71l.97,1.21c4.26-3.17,7.86-7.1,11.66-10.8,3.86,3.61,7.3,7.68,11.41,11.03.33-.39,1-1.17,1.33-1.56,1.48,1.59,4.19-1.11,2.63-2.61l1.21-1c-3.6-3.9-7.36-7.64-11.09-11.41,3.44-4.11,7.42-7.72,10.92-11.79-1.58-1.94-3.28-3.82-5.41-5.17-3.92,1.93-6.89,5.09-9.51,8.5-5.65,1-6.81-7.79-12.35-7.8Z"/>
    <path class="st14" d="M482.32,364.05c-.11-2.09,1.86-3.63,3.84-3.53,6.96-.06,13.94.1,20.91-.02,2.22-.24,4.88.78,5.25,3.26.66,4.48.29,9.06.23,13.58-3.06-2.19-.95-6.7-1.54-9.89-9.01.12-18.01.04-27.01.11.08,4.76-.16,9.53.09,14.29.24.26.74.79.98,1.05,4.32.24,8.66-.02,12.99.13-.36-1.5-1.82-3.92.85-3.89.53.16,1.59.48,2.12.65.35-2.54-1.21-6.01,1.13-7.8,2.62-.67,2.92,2.43,3.05,4.25,2.41.98,5.38,1.25,7.24,3.21.42,2.87.89,6.41-1.4,8.67-2.25,2.51-6.44,2.75-9.04.67-1.46-1.12-2.22-2.86-3.2-4.35-4.59.09-9.2.45-13.77.05-2.29-.76-2.85-3.43-2.77-5.54.03-4.97-.09-9.94.05-14.9M487.36,363.75l-.3,1.14c-1-1.15-2.41-1.15-3.79-1.07l1.28,1.93c8.88.45,17.79.15,26.68.12-.22-1.46-.31-4.01-2.35-3.96-8.22-.24-16.47-.17-24.7.1,1.02.63,2.09,1.19,3.18,1.74M502.61,373.47c-.47,3.21.79,6.76-1.02,9.68-.81-1.05-1.75-1.95-2.82-2.7,1.21,3.01,2.26,6.77,5.53,8.14,2.49,1.2,5.42-.51,6.61-2.76.37-1.91.25-3.87.25-5.8-1.19-.27-2.37-.55-3.55-.84-.41.2-1.22.61-1.63.82,0-.54.04-1.6.05-2.14-.58.33-1.73.99-2.31,1.31-.32-1.91-.35-3.9-1.11-5.71Z"/>
    <path class="st14" d="M1052.6,360.35c.98.19,2.92.57,3.9.76-.23.38-.68,1.14-.91,1.52-.04.09-.13.27-.18.36-3.86,6.03-7.33,12.31-11.41,18.19-2.84-3.7-5.24-7.7-7.81-11.59.46-.2,1.38-.6,1.83-.8.53.2,1.59.6,2.11.8,1.4,1.4,2.03,4.81,4.52,4.2,3.02-4.24,5.3-8.96,7.95-13.44Z"/>
    <path class="st14" d="M864.92,371.94c-.09-3.16,2.75-6.23,5.99-5.94,5.87.02,11.75-.11,17.63.13-1,1.11-2.22,1.64-3.66,1.59-5.03.21-10.08-.28-15.09.17-2.47.18-3.75,2.86-3.53,5.09.14,4.97-.07,9.95.08,14.93.19,2.28,2.43,3.73,4.61,3.61,6.5.08,13.04.25,19.54-.16,3.49-.55,2.78-4.82,2.88-7.4.29-3.14-1-6.91,1.4-9.47.31,4.53.3,9.08.14,13.61-.16,2.93-2.91,5.43-5.86,5.14-6.03.09-12.06.03-18.08-.04-3,.31-6.13-2.11-6.08-5.23-.19-5.34-.14-10.69.03-16.03Z"/>
    <path class="st14" d="M888.32,369.41c1.68-1.43,3.09-4.13,5.69-3.42,1.02.71,1.74,1.81,1.99,3.05-2.65,3.93-6.46,6.92-9.54,10.51-1.68,2.11-4.33,2.86-6.77,3.71-.65-6.26,5.01-9.75,8.63-13.85M890.5,369.57c.57.38,1.71,1.15,2.28,1.53.63-1.23,2.1-2.44.94-3.83-1.5,0-2.27,1.39-3.22,2.3M881.39,381.05c4.24-1.78,6.98-5.72,9.99-9.01-.41-.38-1.22-1.15-1.63-1.53-3.26,3.01-7.67,5.81-8.36,10.54Z"/>
    <path class="st14" d="M869.52,373.82c2.32-2.44,6.18-.78,9.16-1.22.3.32.9.97,1.2,1.29-3.45.17-6.92.28-10.36-.07Z"/>
    <path class="st14" d="M869.54,377.21c2.7-.26,5.42-.24,8.15-.18-.25.4-.76,1.2-1.02,1.6-2.38-.29-5.55.97-7.13-1.42Z"/>
    <path class="st14" d="M869.42,382.89c1.98-2.4,6.48-2.17,8.68-.14-2.89.34-5.8.36-8.68.14Z"/>
    <path class="st14" d="M870.59,386.33c5.27-.25,10.64-.45,15.89.1.3.33.91,1,1.21,1.33-5.98.28-11.99.36-17.96,0,.21-.36.65-1.08.86-1.44Z"/>
    <path class="st14" d="M557.05,513.01c.7-1.57,3.2-1.7,3.86-.01,5.02,8.15,9.59,16.59,14.17,25-.69.67-1.38,1.35-2.06,2.03-8.69.17-17.4.3-26.09.06-2.18.43-4.62-2.06-2.94-4.04,4.19-7.77,8.26-15.63,13.06-23.04M546.37,534.56c-.49,1.23-2.67,3.79-.2,4.13,7.23.53,14.51.13,21.77.27,1.75-.15,3.8.33,5.26-.94-1.5-4-4.05-7.49-6.03-11.25-2.82-4.63-5.15-9.55-8.26-14-4.58,7.03-8.15,14.65-12.54,21.79Z"/>
    <path class="st14" d="M805.32,515.35c4.51-5.11,13.74-5.17,17.85.48,4.22,4.27,3.58,11.67-.6,15.72-2.02,2.1-4.91,2.93-7.49,4.09,2.94,3.79,8.19,5.34,12.54,3.03.98.18,1.98.36,2.98.57-1.5-3.59,2.01-6.71,1.21-10.31-.31-3.39-3.21-5.53-4.9-8.21,3.75,1.06,6.02,4.7,6.54,8.4.64,2.73-1.02,5.22-1.95,7.67.63,1.53,1.27,3.08,1.87,4.65-2.98-1.24-6.13-1.51-9.22-.58-5.12,1.15-9.21-2.9-11.57-6.93,3.21-.4,6.76-.77,9.02-3.38,4.66-4.46,3.44-13.02-2.2-16.1-5.16-3.3-12.72-.71-15.05,4.87-1.37,3.65-.24,7.63,1.61,10.9-.32.82-.63,1.65-.94,2.49,2.36.42,6.17-.86,7.23,2.04-3.19-.46-6.47-1.04-9.59.06.54-2.07,2.15-4.27.91-6.37-2.17-4.21-1.72-9.71,1.75-13.09Z"/>
    <path class="st14" d="M809.82,522.5c-1.18-5.11,6.33-6.65,8.23-2.45.79,2.21-1.42,3.24-2.89,4.28-.17,1.2-.33,2.41-.49,3.63l1.68-.16c-.39,1.3-1.56,2.56-2.94,1.56-2.12-.96.51-2.52,1.1-3.68l-1.78-.12c1.24-1.83,2.86-3.35,4.55-4.77-1.26-.79-2.48-2.12-4.11-1.69-1.4.81-2.2,2.31-3.35,3.4Z"/>
    <path class="st14" d="M558.22,520.9c.4.13,1.2.37,1.6.5-.1,3.1,1.5,7.67-1.41,9.8-.26-3.43-.27-6.87-.19-10.3Z"/>
    <path class="st14" d="M558.22,532.4c2.77-2.1,2.95,4.01-.07,2.41.02-.6.05-1.81.07-2.41Z"/>
    <path class="st14" d="M691.73,571.16c1.24-1.16,2.42-2.82,4.31-2.76,1.79.06,2.82,1.73,4.04,2.82,1.81.33,4.55-.74,5.34,1.58-1.87.04-3.72.05-5.57.04-.39.64-1.17,1.92-1.56,2.56-.67-.42-1.32-.84-1.96-1.25,2.52-.03,2.08-3.39.4-4.09-1.39-.51-2.96.35-2.99,1.89.59,1.42,1.35,2.74,2.01,4.16-1.68-.73-3.05-1.81-4.14-3.26-6.84-.23-13.68.08-20.51-.18.72-1.01,1.69-1.47,2.91-1.38,5.91-.13,11.82.08,17.72-.13Z"/>
    <path class="st14" d="M682.53,581.66c1.06-1.07,1.82-2.78,3.48-2.99,2.2-.62,3.69,1.39,5.08,2.71,4.43.24,8.9-.27,13.3.29.29.33.86,1,1.15,1.33-4.81.13-9.62-.15-14.43-.05-1.19,1.18-2.19,3.13-4.13,3.06-2.05.29-3.15-1.72-4.43-2.91-3.87.02-7.74.07-11.61.06l.07-1.55c3.84-.03,7.67.04,11.52.05M686.17,580.02c-1.41.81-2.01,2.43-1.16,3.9,1.19.95,2.7.84,3.82-.16,1.02-1.86-.5-4.28-2.66-3.74Z"/>
    <path class="st14" d="M698.38,587.42c4.67-1.42,10.07,2.72,9.8,7.64.22,4.34-3.88,8.15-8.14,7.98-4.64.14-8.41-4.53-7.83-9.01.55-3.15,3.15-5.72,6.17-6.61M697.31,589.21c-4.51,2.16-4.77,9.6-.13,11.76,4.43,2.8,10.56-1.87,9.57-6.85-.5-4.28-5.67-6.95-9.44-4.91Z"/>
    <path class="st14" d="M674.9,592.58c1.13-1.23,2.14-3.07,4.08-2.95,2.05-.18,3.15,1.73,4.34,3.04,2.25.01,4.51,0,6.77,0l.1,1.45c-2.33-.03-4.66-.04-6.98-.02-1.28,1.12-2.31,3.06-4.26,2.89-1.81-.04-2.86-1.73-4.13-2.74-1.42-.31-3.76.51-3.85-1.62,1.31-.03,2.62-.04,3.93-.05M678.32,591.13c-1.57.58-1.62,2.25-1.08,3.6,1.1,1.07,3.81,1.05,3.92-.87.68-1.6-1.21-3.62-2.84-2.73Z"/>
    <path class="st14" d="M698.95,596.51c1.36-1.59,2.74-3.17,4.3-4.56-.56,2.56-2.17,4.9-4.36,6.34-1.7-.42-2.31-2.2-3.07-3.54,1.05.56,2.09,1.14,3.13,1.76Z"/>
    <path class="st14" d="M367.48,609.37c4.63-3.64,11.52-4.52,16.52-1.13,4.38,2.38,5.76,7.45,8.8,11.06.96.99,1.37,2.66.43,3.82-2.87,4.23-7.58,6.48-11.68,9.27-5.3,2.66-11.72-.76-14.33-5.64-3-5.24-.75-13.18,5.24-15.08,4.25-1.14,9.77-.76,12.38,3.29,2.54,3.3,1.96,7.64,2.41,11.52,3.82-5.23,1.89-13.71-3.79-16.94-5.74-3.92-14.33-1.88-17.83,4.08-2.23,3.55-1.84,7.91-2,11.92-1.7-.48-3.6-1.15-4.22-2.99-.95-1.75.71-3.25,1.61-4.57,2.22-2.83,3.46-6.46,6.46-8.61M368.02,618.07c-1.61,5.67,1.68,11.86,7.28,13.69.15-1.63-.85-3.71.65-4.96,2.36-1.7,5.24.08,7.62.78,1.21-3.26,2.7-6.94,1.12-10.33-2.71-6.95-14.67-6.39-16.67.82M391.18,620.38c-.86,1.23-.61,1.94.74,2.1.86-1.24.61-1.95-.74-2.1M377.13,628.2c-1.27,1.55,1.55,2.82,2.51,1.47,1.24-1.54-1.58-2.82-2.51-1.47Z"/>
    <path class="st14" d="M982.66,612.99c.09-2.76,3.44-2.24,5.35-2.38,4.95.16,9.96-.43,14.88.28,2.84,2.2,5.49,4.71,7.83,7.46.65,2.97.21,6.07-.08,9.07-2.41-2.06-1.13-5.58-1.48-8.32-2.25-.09-4.48-.18-6.7-.31-.07-2.31-.12-4.62-.17-6.92-6.03.07-12.07-.16-18.1.18-.19,9.3.07,18.6-.09,27.89.12,1.65-.28,3.64,1.03,4.95,5.01.5,10.07-.21,15.08.43-3.43,1.87-7.52.76-11.24,1.06-2.44.18-6.2-.04-6.21-3.32-.43-10.01-.34-20.06-.1-30.07M1004.05,617.4c1.26.02,2.54.05,3.83.08-1.21-1.15-2.42-2.3-3.61-3.43-.09,1.11-.17,2.22-.22,3.35Z"/>
    <path class="st14" d="M988.35,623.21c5.3-.35,10.66-.57,15.94.2-3.21,1.55-6.88.74-10.29.97-1.91-.18-4.23.5-5.65-1.17Z"/>
    <path class="st14" d="M988.46,628.73c.6-.84,1.41-1.24,2.42-1.21,3.77-.14,7.57-.07,11.35.2-4.01,2.5-9.28.75-13.77,1.01Z"/>
    <path class="st14" d="M1007.55,628.56c7.4-1.35,14.9,7.15,11.16,14.18-2.66,6.7-12.64,8.32-17.1,2.56-4.95-5.56-1.62-15.74,5.94-16.74M1006.26,630.32c-6.99,2.3-7.24,13-.94,16.25,4.77,2.82,11.17-.41,12.34-5.66,1.96-6.35-5.11-13.24-11.4-10.59Z"/>
    <path class="st14" d="M1006.8,638.15c-1.81-2.6,1.19-5.02,2.39-7.14,1.12,1.66,2.26,3.31,3.35,5.02-1.56-.4-3.08-2-4.74-1.14-1.29,3.48,4.55,2.69,4.91,5.67.46,2.46-2.26,3.9-3.47,5.69-1.45-1.61-2.88-3.26-3.66-5.29,1.15.72,2.27,1.5,3.48,2.17,1.55.06,2.75-1.39,1.98-2.87-1.4-.77-2.91-1.27-4.24-2.11Z"/>
    <path class="st14" d="M989.09,632.23c3.07-.03,6.16-.05,9.24.29-2.68,1.94-6.22.91-9.27,1.16,0-.36.02-1.09.03-1.45Z"/>
    <path class="st14" d="M360.9,640.04c4.51-4.23,11.02-5.5,17.02-5.3,5.42.43,11.45,1.76,15.01,6.25,1.83,2.09,2.16,4.92,2.73,7.53-.43-.03-1.27-.08-1.69-.11-.85-2.74-.98-6.04-3.61-7.79-5.69-4.22-13.43-4.97-20.19-3.44-3.36.83-6.92,2.13-9.03,5.03-1.26,2.23-1.73,4.82-3,7.06-1.01-3.32.24-6.93,2.76-9.23Z"/>
    <path class="st14" d="M988.41,637.25c2.95-.25,5.94-.2,8.89.2-2.72,1.08-6.53,1.92-8.89-.2Z"/>
  </g>
  <g id="_x23_f38332ff">
    <path class="st18" d="M971.28,128.95c-.27-6.35,5.24-12.29,11.6-12.37,44.03-.14,88.06.05,132.09-.11,4.38-.37,9.04,1.23,11.58,4.98,2.04,2.38,2.38,5.57,2.27,8.58-.1,42.66,0,85.32-.06,127.98.36,6.29-5.68,11.4-11.7,11.38-43.02.08-86.04.04-129.06.03-5.18.33-11.13-.47-14.45-4.93-2.88-3.14-2.24-7.63-2.32-11.53.15-18.34-.18-36.67.1-55,.08-1.22-.21-2.34-.86-3.36l.16-.47c1.05-3.28.5-6.78.59-10.16.04-18.34,0-36.68.06-55.02M1032.7,141.24c-.1,5-1.09,10.71,2.08,15.04,1.66,2.59,4.83,3.29,7.34,4.75.79,2.26.86,4.74,1.9,6.92,3.36,5.87,12.99,6.34,16.99.9,2.22-2.85,2.14-6.65,2.53-10.07,1.28-1.09,2.88-1.93,3.78-3.39.65-2.14.62-4.9-1.27-6.42-2.91-3.2-9.14-.28-8.61,3.96-.18,2.72,2.27,4.33,4.2,5.73-.08,3.32.47,7.21-2.05,9.84-2.53,3.22-7.23,2.74-10.75,1.89-3.99-1.6-3.92-6.14-3.64-9.72,4.02-1.23,7.93-4.32,8.26-8.8.18-4.21.32-8.48-.21-12.67-1.29-2.25-4.19-2.44-6.35-3.39,0,.8.01,2.4.01,3.21,1.61.07,3.24.15,4.89.23-.11,4.96.69,10.07-.44,14.95-2.96,6.94-14.35,6.07-16.7-.9-1.01-4.58-.49-9.33-.35-13.97,1.64-.12,3.29-.23,4.96-.33-.01-.77-.03-2.31-.04-3.08-2.67.86-6.54,1.79-6.53,5.32M1041.86,141.83c-.08,1.69-.06,3.39-.18,5.09-1.07.42-2.13.81-3.19,1.16,1.24.25,2.5.5,3.77.76.12,1.46.26,2.91.4,4.37.35.03,1.05.07,1.4.09-.02-1.51-.03-3.01-.04-4.52.73-.13,2.17-.4,2.89-.53-1.08-.37-2.18-.74-3.22-1.1-.34-1.85.08-4.21-1.83-5.32Z"/>
    <path class="st18" d="M1062.13,152.26c3.37.34-1.77,2.85,0,0Z"/>
    <path class="st18" d="M1057.43,435.77c2.13,1.35,3.83,3.23,5.41,5.17-3.5,4.07-7.48,7.68-10.92,11.79,3.73,3.77,7.49,7.51,11.09,11.41l-1.21,1c-1,.75-1.88,1.63-2.63,2.61-.33.39-1,1.17-1.33,1.56-4.11-3.35-7.55-7.42-11.41-11.03-3.8,3.7-7.4,7.63-11.66,10.8l-.97-1.21c-.77-1.03-1.67-1.94-2.66-2.71l-1.27-1.07c3.2-4.22,7.19-7.72,11.02-11.35-3.75-3.74-7.54-7.43-11.16-11.29,1.36-2.18,3.16-4.03,5.16-5.64l.68.66c3.65,3.45,6.99,7.24,10.89,10.44,3.71-3.66,7.45-7.29,10.97-11.14Z"/>
  </g>
  <g id="_x23_4c82d0ff">
    <path class="st20" d="M256.37,117.51c4.09-1.19,8.41-.38,12.6-.48,40.01-.02,80.01.01,120.01-.02,4.69.04,10.4-.93,13.83,3.12,4.12,3.86,3.23,9.86,3.2,14.93-.1,20.64.03,41.29-.06,61.93,1.26,18.32-.41,36.65.03,54.99-.22,4.07.94,8.73-1.65,12.28-2.01,3.04-5.59,4.91-9.25,4.7-45.04.01-90.08.02-135.12,0-3.89.2-7.49-2.18-9.58-5.33-1.72-2.55-1.5-5.78-1.53-8.72.68-23.96-.94-47.94.11-71.9.09-17.31.19-34.63-.34-51.94-.41-5.52,2.44-11.45,7.75-13.55M329.33,136.44c-6.35,2.07-8.88,10.82-4.78,16.04,3.19,4.59,10.43,5.34,14.5,1.49,4.71-3.65,4.56-11.4.33-15.35-2.61-2.5-6.64-3.31-10.05-2.18M308.52,155.39c-.08,5.34-.22,10.68.08,16.01,2.55.14,5.1.18,7.66.14.34-.52,1.04-1.57,1.38-2.09,5.02,1.55,10.43,3.3,15.69,1.86,3.6-1.51,6.65-4.05,9.99-6.05,1.32-1.02,3.68-2,2.69-4.06-2.69-3.18-6.73.35-9.78,1.17-5.87-2.21-11.79-5.06-18.18-5.15-2.24-3.1-6.3-1.74-9.53-1.83Z"/>
    <path class="st20" d="M330.43,137.46c4.04-1.01,8.86,1.04,10.2,5.15.76,3.35.83,7.56-2.08,9.95-3.73,3.8-10.95,3.25-13.61-1.52-3.19-4.87-.4-12.51,5.49-13.58M332.32,139.55c-1,1.73-2.98,3.19-3.01,5.32,1,2.19,4.29,1.7,5.34,3.97-1.88.09-3.74.1-5.61.07,1.26,1.21,2.41,2.54,3.38,4.01,1.22-1.8,3.74-3.27,3.31-5.73-1.05-1.71-3.44-1.86-5.06-2.81,1.2-1.71,3.47-1.02,5.22-1.34-1.2-1.15-2.39-2.31-3.57-3.49Z"/>
    <path class="st20" d="M310.15,156.81c1.9-.04,3.8-.07,5.71-.09-.02,4.35-.07,8.7-.21,13.06-1.8-.03-3.6-.05-5.4-.07-.14-4.3-.13-8.6-.1-12.9M311.44,168.07c.24,1.32.96,1.53,2.18.63-.25-1.34-.97-1.55-2.18-.63Z"/>
    <path class="st20" d="M317.22,159.05c5.68-.72,10.89,1.92,16.16,3.57.41.38,1.24,1.12,1.65,1.5-3.57.16-7.09-.47-10.64-.57,1.73,1.76,4.3,1.85,6.62,1.96,5.11.68,8.6-4.76,13.68-4.29-.01.33-.02,1-.02,1.33-5.39,3.4-10.67,8.93-17.59,7.97-3.43-.39-6.71-1.5-10.02-2.43.06-3.01.1-6.03.16-9.04Z"/>
  </g>
  <g id="_x23_f5d356ff">
    <path class="st21" d="M622.95,131.33c13.94-2.55,27.91-5.34,42.09-6.05,16.98-.23,33.98-.4,50.97.14,28.42,2.8,56.63,8.89,83.31,19.16,4.78,2.12,10.65,3.77,12.96,9,3.68,7.73.4,17.12-5.92,22.45,15.79,8.05,30.13,18.66,43.88,29.76,9.45,8.52,18.79,17.23,27.29,26.7,4.93,6.8,11.05,12.6,16.09,19.32-.04.28-.12.84-.15,1.12.67,1.02,1.39,2.02,2.09,3.05.18-.14.56-.42.74-.56.88,2.13,2.05,4.13,3.38,6.01,18.31,28.49,31.61,60.31,38.21,93.56,2.46,11.54,3.51,23.32,4.74,35.04.26,12.33.21,24.66.04,36.99-1.94,22.28-5.29,44.64-12.73,65.82-4.48,14.1-10.24,27.79-17.18,40.87-6.4,11.13-12.44,22.57-20.53,32.62-4.47,5.35-8.18,11.3-12.9,16.45-1.02,1.1-2.06,2.18-3.11,3.24-8.03,7.39-15.14,15.73-23.44,22.82-10.29,8.09-20.12,16.85-31.53,23.38-13.42,8.42-27.4,15.98-42.17,21.76-13.81,4.74-27.53,10.06-41.99,12.47-14.04,1.19-27.96,4.17-42.1,4.15-7.34-.09-14.71.38-22-.64-17.29-1.19-34.69-3.15-51.27-8.41-26.88-7.06-51.78-20.02-74.82-35.35-5.23-3.77-10.14-7.93-15.24-11.86-6.74-4.8-13.16-10.14-18.4-16.57-4.15-4.02-7.81-8.57-12.44-12.06-.89-.93-1.72-1.91-2.54-2.88-4.9-5.8-9.11-12.13-13.97-17.96-28.99-39.68-45.87-87.92-49.02-136.88.2-14.65-.95-29.4.95-43.96-.13-8.11,1.41-16.1,2.66-24.07,3.27-20.19,9.9-39.64,17.52-58.55,4.43-9.93,9.44-19.62,14.97-28.99,3.14-5.74,6.54-11.34,10.48-16.57.92-1.26,1.82-2.53,2.72-3.81,5.8-7.93,12.34-15.31,18.67-22.81,8.96-8.7,17.41-17.98,27.18-25.81,9.18-7.65,19.03-14.47,29.21-20.71,3.76-2.42,8.22-3.87,11.37-7.15-5.59-4.9-9.19-13.14-6.45-20.43,1.36-3.95,4.8-6.86,8.5-8.58,16.28-6.13,32.95-11.23,49.88-15.22M664.37,157.51c-16.7,1.75-33.27,4.79-49.4,9.52-7.78,2.55-15.53,5.22-23.31,7.8-3.89,1.19-7.43,3.83-11.65,3.68-1.89.15-3.91-.13-5.64.8-9.96,5.13-19.38,11.23-28.71,17.4-13.71,10.45-27.25,21.39-38.44,34.57-14,14.43-25.35,31.19-35.57,48.43-19,34.8-30.91,73.68-33.05,113.35-.25,12.29-.37,24.59.07,36.88,1.11,10.7,2.17,21.45,4.5,31.97,3.78,14.94,7.57,29.97,13.48,44.23,7.01,16.41,14.49,32.8,24.79,47.44,4.54,6.42,8.54,13.25,13.82,19.12,3.04,3.33,5.85,6.86,8.6,10.44,9.79,11.3,21.31,20.9,32.6,30.65,7.28,5.85,15.35,10.63,23.04,15.91,8.43,5.87,17.74,10.27,26.84,14.97,15.16,6.57,30.47,13.22,46.76,16.42,18.36,3.9,37.09,6.73,55.91,6.39,17.96.17,35.95-1.65,53.41-5.95,6.62-1.56,13.31-2.83,19.73-5.11,9.69-2.91,18.76-7.47,28.16-11.12,9.91-4.75,19.73-9.8,28.79-16.06,11.97-7.86,23.68-16.22,34.28-25.89,2.76-2.21,6.01-3.84,8.32-6.59,4.71-5.35,8.92-11.15,13.9-16.27,3.28-4.97,8.21-8.53,11.5-13.5,8.95-12.62,17.69-25.49,24.58-39.38,16.75-33.03,26.13-69.66,27.77-106.63.07-13,.46-26.04-1.15-38.97-3.42-32.98-13.12-65.3-28.45-94.7-7.04-14.62-16.39-27.95-26.28-40.75-2.83-4.14-6.05-7.97-9.57-11.54-19.54-22.95-44.02-41.28-70.26-55.9-3.26-1.22-6.91-.04-10.26-.93-4.61-1.24-8.83-3.5-13.2-5.35-18.65-6.98-38.12-11.83-57.89-14.27-8.14-.74-16.23-2.22-24.42-2.01-11.2.01-22.48-.58-33.6.95Z"/>
  </g>
  <g id="_x23_fef2c0ff">
    <path class="st22" d="M1032.7,141.24c-.01-3.53,3.86-4.46,6.53-5.32.01.77.03,2.31.04,3.08-1.67.1-3.32.21-4.96.33-.14,4.64-.66,9.39.35,13.97,2.35,6.97,13.74,7.84,16.7.9,1.13-4.88.33-9.99.44-14.95-1.65-.08-3.28-.16-4.89-.23,0-.81-.01-2.41-.01-3.21,2.16.95,5.06,1.14,6.35,3.39.53,4.19.39,8.46.21,12.67-.33,4.48-4.24,7.57-8.26,8.8-.28,3.58-.35,8.12,3.64,9.72,3.52.85,8.22,1.33,10.75-1.89,2.52-2.63,1.97-6.52,2.05-9.84-1.93-1.4-4.38-3.01-4.2-5.73-.53-4.24,5.7-7.16,8.61-3.96,1.89,1.52,1.92,4.28,1.27,6.42-.9,1.46-2.5,2.3-3.78,3.39-.39,3.42-.31,7.22-2.53,10.07-4,5.44-13.63,4.97-16.99-.9-1.04-2.18-1.11-4.66-1.9-6.92-2.51-1.46-5.68-2.16-7.34-4.75-3.17-4.33-2.18-10.04-2.08-15.04M1062.13,152.26c-1.77,2.85,3.37.34,0,0Z"/>
    <path class="st22" d="M1041.86,141.83c1.91,1.11,1.49,3.47,1.83,5.32,1.04.36,2.14.73,3.22,1.1-.72.13-2.16.4-2.89.53.01,1.51.02,3.01.04,4.52-.35-.02-1.05-.06-1.4-.09-.14-1.46-.28-2.91-.4-4.37-1.27-.26-2.53-.51-3.77-.76,1.06-.35,2.12-.74,3.19-1.16.12-1.7.1-3.4.18-5.09Z"/>
    <path class="st22" d="M664.37,157.51c11.12-1.53,22.4-.94,33.6-.95,8.19-.21,16.28,1.27,24.42,2.01,19.77,2.44,39.24,7.29,57.89,14.27,4.37,1.85,8.59,4.11,13.2,5.35,3.35.89,7-.29,10.26.93,26.24,14.62,50.72,32.95,70.26,55.9,3.52,3.57,6.74,7.4,9.57,11.54,9.89,12.8,19.24,26.13,26.28,40.75,15.33,29.4,25.03,61.72,28.45,94.7,1.61,12.93,1.22,25.97,1.15,38.97-1.64,36.97-11.02,73.6-27.77,106.63-6.89,13.89-15.63,26.76-24.58,39.38-3.29,4.97-8.22,8.53-11.5,13.5-4.98,5.12-9.19,10.92-13.9,16.27-2.31,2.75-5.56,4.38-8.32,6.59-10.6,9.67-22.31,18.03-34.28,25.89-9.06,6.26-18.88,11.31-28.79,16.06-9.4,3.65-18.47,8.21-28.16,11.12-6.42,2.28-13.11,3.55-19.73,5.11-17.46,4.3-35.45,6.12-53.41,5.95-18.82.34-37.55-2.49-55.91-6.39-16.29-3.2-31.6-9.85-46.76-16.42-9.1-4.7-18.41-9.1-26.84-14.97-7.69-5.28-15.76-10.06-23.04-15.91-11.29-9.75-22.81-19.35-32.6-30.65-2.75-3.58-5.56-7.11-8.6-10.44-5.28-5.87-9.28-12.7-13.82-19.12-10.3-14.64-17.78-31.03-24.79-47.44-5.91-14.26-9.7-29.29-13.48-44.23-2.33-10.52-3.39-21.27-4.5-31.97-.44-12.29-.32-24.59-.07-36.88,2.14-39.67,14.05-78.55,33.05-113.35,10.22-17.24,21.57-34,35.57-48.43,11.19-13.18,24.73-24.12,38.44-34.57,9.33-6.17,18.75-12.27,28.71-17.4,1.73-.93,3.75-.65,5.64-.8,4.22.15,7.76-2.49,11.65-3.68,7.78-2.58,15.53-5.25,23.31-7.8,16.13-4.73,32.7-7.77,49.4-9.52M679.42,164.59c-10.17,3.12-17.73,12.39-19.84,22.67-1.37,7.94.23,16.55,5.03,23.11,5.65,7.53,14.85,12.47,24.33,12.36,14.27.07,28.24-11.16,29.44-25.74,23.3,3.56,45.7,11.74,66.45,22.82-1.4,1.12-2.77,2.26-4.08,3.48,4.7.02,9.39.5,14.04,1.18-2.55-4-5.06-8.02-7.58-12.03-.36,1.72-.71,3.44-1.05,5.16-21.07-11.28-43.83-19.89-67.6-23.11.37-7.64-2.11-15.34-7.1-21.16-7.55-9.12-20.91-12.52-32.04-8.74M644.24,191.56c1.05,1.58,2.11,3.17,3.15,4.77-23.2,5.19-45.38,14.6-65.2,27.72-4.77-7.29-12.46-12.77-21.16-14.03-12.6-2.12-25.98,4.94-31.39,16.49-6.61,12.54-2.42,29.47,9.13,37.63,6.61,5,15.4,6.39,23.44,4.96,8.69-1.67,16.27-7.58,20.56-15.24,4.53-8.41,4.82-18.99.61-27.58,19.8-12.49,41.38-22.45,64.37-27.3-.12,1.65-.24,3.29-.36,4.94,3.6-3.1,7.44-5.89,11.08-8.95-4.68-1.39-9.5-2.22-14.23-3.41M792.12,233.08c-1.68,8.47.12,17.7,5.37,24.63,4.89,6.39,12.33,11.05,20.45,11.68,7.59.93,15.27-1.48,21.5-5.79,16.84,22.1,30.29,47.04,37.28,74.04-1.8-.12-3.59-.24-5.37-.36,3.27,3.81,6.3,7.88,10.13,11.17,1.16-4.84,2.31-9.7,3-14.64-1.81,1.14-3.58,2.32-5.35,3.5-6.76-27.56-20.54-53.03-37.82-75.38,6.37-5.79,10.15-14.28,9.88-22.91.17-15.05-12.98-28.9-28.09-29.18-14.14-1.06-27.9,9.48-30.98,23.24M678.47,290.76c-35.13,2.52-67.77,23.81-85.8,53.81-20.3,33.48-20.7,77.99-.98,111.81,8.79,15.22,21.18,28.31,35.76,38.1,27.56,18.6,63.72,23.52,95.31,13.22,30.11-9.66,55.66-32.67,68.38-61.62,9.95-22.55,11.68-48.41,5.89-72.28-7.99-33.17-32.85-61.27-64-74.74-17.07-7.51-36.06-9.95-54.56-8.3M507.38,303.62c1.72.15,3.46.27,5.2.39-2.59,4.19-4.21,8.87-6.12,13.39-3.46,8.95-6.63,18.06-8.43,27.5-15.53-.76-29.77,12.62-30.47,28.03-.76,8.92,2.83,17.95,9.4,24.02,9.26,9.27,24.84,10.27,35.97,3.89,7.54-4.78,12.92-12.92,14.17-21.77,1.36-9.47-2.18-19.51-9.15-26.05-4.72-4.62-11.05-7.22-17.53-8.08,3.73-13.52,8.07-26.91,14.12-39.59,1.35,1.38,2.71,2.76,4.1,4.11.07-4.91.24-9.82.06-14.72-3.54,3.25-7.56,5.9-11.32,8.88M872.41,350.53c-3.59,1.07-7.02,2.72-10.03,4.95-11.69,8.48-15.56,25.96-8.34,38.51,5.83,11.12,19.14,17.72,31.52,15.39,12.19-1.94,22.16-12.41,24.21-24.47,2.2-11.81-3.33-24.68-13.57-31.01-6.96-4.5-15.86-5.45-23.79-3.37M870.31,460.22c-5.44,13.85-12.5,27.06-20.88,39.36-1.12-1.3-2.22-2.59-3.32-3.88-.82,4.73-1.94,9.41-2.47,14.19,4.39-1.99,8.74-4.1,13.08-6.21-1.74-.82-3.48-1.61-5.21-2.4,8.79-12.41,15.82-26.02,21.41-40.15-.88-.31-1.75-.61-2.61-.91M512.02,473c.24,4.79.23,9.59.26,14.4,1.34-1.18,2.68-2.36,4.03-3.52,5.39,9.33,11.05,18.54,17.69,27.04-4.14,6.9-6.14,15.33-3.97,23.23,3.03,13.01,15.45,23.32,28.95,22.96,15.3.77,29.46-12.29,30.28-27.52.87-9.92-3.74-20.03-11.56-26.11-6.53-5.18-15.24-7.22-23.42-5.85-7.48,1.02-13.9,5.61-18.84,11.1-5.87-8.55-11.77-17.12-16.56-26.33,1.62-.28,3.23-.58,4.86-.86-3.55-3.31-7.95-5.5-11.72-8.54M787.95,527.02c-.35,8.83,4.04,17.22,10.43,23.11-20.33,14.66-43.54,25.24-67.93,30.99.18-1.89.38-3.78.58-5.66-3.96,2.72-7.61,5.86-11.03,9.23,4.16,1.3,8.34,2.56,12.57,3.61-.56-1.43-1.1-2.83-1.64-4.24,24.93-6.33,49.09-16.72,69.69-32.29,10.32,7.47,25.5,7.12,35.55-.68,7.89-6.03,12.52-16.12,11.67-26.06-.89-15.01-14.64-28.23-29.83-27.71-16.05-.79-30.16,13.91-30.06,29.7M580.65,551.22c1.69,4.31,3.89,8.4,6.06,12.49.7-1.59,1.41-3.16,2.12-4.74,20.34,13.24,43.29,22.84,67.32,26.64.45-.15,1.35-.45,1.79-.6.05-.42.15-1.26.19-1.68-24.1-4.31-47.57-13.02-67.85-26.87,1.34-1.2,2.71-2.39,4.02-3.63-4.53-.72-9.08-1.31-13.65-1.61M682.36,554.77c-9.56,1.94-17.87,9.04-21.51,18.07-5.16,12.15-.84,27.65,10.07,35.18,8.38,6.12,19.93,7.28,29.5,3.37,11.37-4.39,19.19-16.22,18.85-28.38-.6-8.69-4.65-17.21-11.71-22.48-6.97-5.71-16.48-7.35-25.2-5.76Z"/>
    <path class="st22" d="M691.53,181.17c1.41-.06,1.01,3.53-.29,3.48-.64-1.21-.55-2.37.29-3.48Z"/>
    <path class="st22" d="M488.95,363.21c1.41-.52,1.91-.08,1.52,1.32-1.41.52-1.92.08-1.52-1.32Z"/>
    <path class="st22" d="M1035.57,436.47c5.54.01,6.7,8.8,12.35,7.8,2.62-3.41,5.59-6.57,9.51-8.5-3.52,3.85-7.26,7.48-10.97,11.14-3.9-3.2-7.24-6.99-10.89-10.44Z"/>
    <path class="st22" d="M1031.14,465.16c.99.77,1.89,1.68,2.66,2.71-1.55,1.5-4.16-1.21-2.66-2.71Z"/>
    <path class="st22" d="M1059.17,467.75c.75-.98,1.63-1.86,2.63-2.61,1.56,1.5-1.15,4.2-2.63,2.61Z"/>
    <path class="st22" d="M617.24,662.43c1.48-.33,2.95-.68,4.48-.88,16.58,5.26,33.98,7.22,51.27,8.41,7.29,1.02,14.66.55,22,.64,14.14.02,28.06-2.96,42.1-4.15,1.94.26,3.89.66,5.84,1.01-16.54,2.65-33.17,5.52-49.97,5.15-7-.18-14.05.55-20.98-.63-3.75-.6-7.57-.19-11.32-.73-10.86-1.64-21.82-2.86-32.43-5.74-3.66-1.06-7.32-2.11-10.99-3.08Z"/>
  </g>
  <g id="_x23_595343ff">
    <path class="st13" d="M679.42,164.59c11.13-3.78,24.49-.38,32.04,8.74,4.99,5.82,7.47,13.52,7.1,21.16,23.77,3.22,46.53,11.83,67.6,23.11.34-1.72.69-3.44,1.05-5.16,2.52,4.01,5.03,8.03,7.58,12.03-4.65-.68-9.34-1.16-14.04-1.18,1.31-1.22,2.68-2.36,4.08-3.48-20.75-11.08-43.15-19.26-66.45-22.82-1.2,14.58-15.17,25.81-29.44,25.74-9.48.11-18.68-4.83-24.33-12.36-4.8-6.56-6.4-15.17-5.03-23.11,2.11-10.28,9.67-19.55,19.84-22.67M674.3,178.95c.05,2.48.13,4.96.31,7.44,2.83,0,5.66.03,8.51.05-.02-2.48-.03-4.97-.03-7.45-2.93-.07-5.87-.09-8.79-.04M694.78,179c-.11,2.47-.12,4.94-.07,7.42,2.99,0,5.99-.03,8.99-.14-.06-2.42-.1-4.84-.12-7.26-2.94-.08-5.87-.1-8.8-.02M685.19,180.26c-.63,1.2-.91,3.91.48,4.49.64-1.19.97-3.97-.48-4.49M691.53,181.17c-.84,1.11-.93,2.27-.29,3.48,1.3.05,1.7-3.54.29-3.48M674.5,188.48c-.06,2.7-.22,5.41.08,8.1,2.72.68,5.58.26,8.36.28.06-2.81.03-5.62-.12-8.42-2.78-.09-5.55-.08-8.32.04M695.29,188.42c-.97,2.6-.18,5.66-.26,8.44,2.78.03,5.55.05,8.34.09.29-2.83.32-5.68.18-8.51-2.76-.09-5.52-.26-8.26-.02M685.25,188.88c-.26,2.08-.52,4.16-.72,6.24,2.44-.79,1.31-4.01,1.88-5.94-.29-.08-.87-.23-1.16-.3M688.35,188.92c.8,4.52.35,9.13.64,13.69.78-.03,2.35-.09,3.13-.11.14.58.4,1.75.53,2.33,1.8.64.65-2.52,1.12-3.52-1.26.09-2.52.19-3.77.29-.04-4.14-.12-8.27-.04-12.4,2.57.26,1.46,2.88,1.8,4.49.57.15,1.7.46,2.27.61-.67-1.63-1.11-3.33-1.44-5.05-1.42-.11-2.84-.22-4.24-.33M674.6,207.22c2.8.03,5.62.05,8.44,0,.01-2.73.01-5.47,0-8.2-2.7-.08-5.42-.26-8.11-.03-1.12,2.43-.21,5.54-.32,8.22M694.93,198.94c.02,2.75.02,5.49.04,8.24,2.85.07,5.72.01,8.58-.2,0-2.64.01-5.28.04-7.92-2.89-.14-5.78-.15-8.66-.12Z"/>
    <path class="st13" d="M675.94,180.24h5.84c-.01,1.55-.01,3.1,0,4.65-1.97.03-3.93.06-5.88.11,0-1.59,0-3.18.04-4.76Z"/>
    <path class="st13" d="M696.09,180.26c2.07-.06,4.14-.11,6.22-.14-.01,1.62-.02,3.25-.02,4.87-2.07-.02-4.13-.04-6.19-.05,0-1.57-.02-3.13,0-4.68Z"/>
    <path class="st13" d="M675.9,189.68c1.97,0,3.96.01,5.94.03-.05,1.91-.09,3.82-.13,5.73-1.9.03-3.79.06-5.67.09-.06-1.95-.11-3.9-.14-5.85Z"/>
    <path class="st13" d="M696.19,189.78c2.01-.02,4.02-.02,6.04-.02,0,1.88.01,3.77.02,5.66-2.05-.02-4.09-.04-6.13-.07.01-1.86.04-3.72.07-5.57Z"/>
    <path class="st13" d="M644.24,191.56c4.73,1.19,9.55,2.02,14.23,3.41-3.64,3.06-7.48,5.85-11.08,8.95.12-1.65.24-3.29.36-4.94-22.99,4.85-44.57,14.81-64.37,27.3,4.21,8.59,3.92,19.17-.61,27.58-4.29,7.66-11.87,13.57-20.56,15.24-8.04,1.43-16.83.04-23.44-4.96-11.55-8.16-15.74-25.09-9.13-37.63,5.41-11.55,18.79-18.61,31.39-16.49,8.7,1.26,16.39,6.74,21.16,14.03,19.82-13.12,42-22.53,65.2-27.72-1.04-1.6-2.1-3.19-3.15-4.77M544.67,233.02c-.69,3.53,1.34,6.61,2.33,9.8-1.08,3.56-2.64,6.95-3.58,10.55,1.69-.25,3.43-1.61,5.16-1.11,1.04,1.4,1.87,2.94,2.78,4.43,1.53-3.74,2.61-7.73,5.04-11.02,1.73,3.5,3.17,7.14,4.83,10.68,1.07-1.47,2.09-2.96,3.12-4.46,1.68.44,3.35.89,5.03,1.33-1.28-3.68-2.78-7.29-4.09-10.96,4.4-5.85,3.09-15.41-3.85-18.62-6.9-3.71-16.27,1.64-16.77,9.38Z"/>
    <path class="st13" d="M406.96,193.25c8.78,1.48,17.45,3.59,26.28,4.82-2.93,2.06-5.81,4.21-8.33,6.76,19.99,15.62,39.9,31.33,59.68,47.21-.9,1.28-1.8,2.55-2.72,3.81-12.93-10.34-25.87-20.67-38.98-30.76-6.95-5.66-13.82-11.45-21.38-16.28-1.13,3.1-2.34,6.18-3.67,9.2-3.88-8.14-7.42-16.44-10.88-24.76Z"/>
    <path class="st13" d="M944.9,198.2c8.6-1.19,17.05-3.6,25.73-4.07l-.16.47c-3.11,7.58-6.5,15.04-10.12,22.39-2.41-1.7-2.56-5.49-3.96-8.04-8.97,5.22-16.48,12.49-24.7,18.75-11.92,9.08-23.55,18.54-35.39,27.72-.18.14-.56.42-.74.56-.7-1.03-1.42-2.03-2.09-3.05.03-.28.11-.84.15-1.12,19.59-15.89,39.54-31.33,59.28-47.03-2.48-2.42-5.22-4.54-8-6.58Z"/>
    <path class="st13" d="M675.87,200.01c1.96.03,3.92.05,5.89.08,0,1.93,0,3.86.01,5.79-1.96.04-3.92.07-5.86.1-.03-1.99-.04-3.98-.04-5.97Z"/>
    <path class="st13" d="M696.14,200.08c2.03,0,4.05-.02,6.09-.02,0,1.97,0,3.95-.01,5.93-2.02-.03-4.02-.06-6.02-.1-.03-1.94-.05-3.87-.06-5.81Z"/>
    <path class="st13" d="M792.12,233.08c3.08-13.76,16.84-24.3,30.98-23.24,15.11.28,28.26,14.13,28.09,29.18.27,8.63-3.51,17.12-9.88,22.91,17.28,22.35,31.06,47.82,37.82,75.38,1.77-1.18,3.54-2.36,5.35-3.5-.69,4.94-1.84,9.8-3,14.64-3.83-3.29-6.86-7.36-10.13-11.17,1.78.12,3.57.24,5.37.36-6.99-27-20.44-51.94-37.28-74.04-6.23,4.31-13.91,6.72-21.5,5.79-8.12-.63-15.56-5.29-20.45-11.68-5.25-6.93-7.05-16.16-5.37-24.63M816.98,233.07c6.32.42,12.7.3,19.03.03,1.74-1.98.94-4.93.23-7.2-5.76-.05-11.52-.17-17.28.02-3.75-.49-3.93,5.22-1.98,7.15M806.79,227.79c-1.79,2.21.4,4.56,2.22,5.79.48,5.66-.29,11.45,1.13,17.02,1.59-.01,3.19-.01,4.81-.01-.01-.29-.04-.88-.06-1.17-1.33-.03-2.66-.05-3.97-.07-.12-2.82-.15-5.64-.13-8.46,1.65-.04,3.3-.11,4.96-.19-1.15-1.9-3.63-.99-5.26-1.98-.25-1.69-.26-3.4-.31-5.09,1.57-1.01,4.13-2.38,3.23-4.65-.46-.66-1.39-1.99-1.85-2.65-.78.52-1.55,1.05-2.31,1.58.68.53,2.04,1.6,2.72,2.13-.9,1.41-2.65,2.04-4.05.9.06-1.83,1.12-3.4,1.75-5.07-.72.48-2.16,1.44-2.88,1.92M816.05,236.87c0,2.17.01,4.33.03,6.51,5.28.35,10.58.21,15.87.27,1.52-.27,3.58.46,4.73-.9.34-1.97.26-3.98.31-5.97-6.97-.2-13.97-.41-20.94.09M815.37,250.08c1.26,2.07,3.35,5.2,6.17,3.43,3.09-1.16,2.93-5.95-.24-6.86-2.67-1.13-4.65,1.5-5.93,3.43Z"/>
    <path class="st13" d="M553.43,224.6c4.44-1.64,9.93.71,11.83,5.05,2.33,4.9.38,11.45-4.57,13.89-4.8,2.47-11.41.3-13.48-4.78-2.96-5.34.49-12.53,6.22-14.16Z"/>
    <path class="st13" d="M816.88,229.13l1.73-1.72c5.55-.46,11.14-.13,16.71-.07-.03,1.49-.05,2.99-.07,4.49-5.67-.27-11.39.29-17.02-.37l-1.37-1.59c5.63-.28,11.29.27,16.91-.32-5.57-.84-11.28-.06-16.89-.42Z"/>
    <path class="st13" d="M817.8,238h17.61c-.02,1.31-.04,2.62-.05,3.94-5.84,0-11.68.18-17.51.1-.03-1.35-.05-2.7-.05-4.04Z"/>
    <path class="st13" d="M545.38,251.11c1.05-2.52,2.06-5.05,3.09-7.58,1.87.93,3.77,1.82,5.69,2.68-1.03,2.35-2.01,4.71-2.92,7.1-.86-1.05-1.77-2.04-2.72-2.98-1.07.2-2.11.46-3.14.78Z"/>
    <path class="st13" d="M558.44,246.29c1.92-.97,3.81-1.99,5.7-3.05.96,2.61,1.91,5.22,2.88,7.83-.8-.24-2.41-.71-3.21-.95-.79,1.12-1.56,2.25-2.34,3.38-.98-2.42-2.01-4.81-3.03-7.21Z"/>
    <path class="st13" d="M819.07,248.01c2.79-1.34,4.72,3.37,1.83,4.17-2.83,1.57-4.62-3.09-1.83-4.17Z"/>
    <path class="st13" d="M678.47,290.76c18.5-1.65,37.49.79,54.56,8.3,31.15,13.47,56.01,41.57,64,74.74,5.79,23.87,4.06,49.73-5.89,72.28-12.72,28.95-38.27,51.96-68.38,61.62-31.59,10.3-67.75,5.38-95.31-13.22-14.58-9.79-26.97-22.88-35.76-38.1-19.72-33.82-19.32-78.33.98-111.81,18.03-30,50.67-51.29,85.8-53.81M669.43,327.27c.05.75.15,2.23.2,2.98,8.71.94,17.56.02,26.33.3,4.07-.24,8.32.63,12.3-.37.02-.74.07-2.21.09-2.95-6.63-3.44-12.67-7.93-19.31-11.34-6.96,2.93-12.96,7.79-19.61,11.38M673.51,331.84c-.15,4.4-.2,8.8-.1,13.2-.1,1.21.39,2.14,1.47,2.78.17-4.94.37-9.92-.02-14.85-.34-.28-1.02-.85-1.35-1.13M703.36,332.66c-.46,5.2-.67,10.5.14,15.68-7.16-.23-14.33-.05-21.49-.11-3.6.04-7.25-.31-10.77.57.04,3.32-4.1,4.55-3.68,8.14,14.23.01,28.47.19,42.7-.1-.41-1.29-.7-2.61-1.33-3.8-1.05-2.28-3.93-1.2-5.88-1.41-10.76-.06-21.59.52-32.31-.44l1.22-1c7.32-.79,14.75-.18,22.11-.35,4.35.2,8.9-.69,13.07.92-.12-.6-.36-1.81-.48-2.41-.6-.03-1.8-.08-2.4-.1.39-4.44.34-8.91.22-13.36-.01-.9-.38-1.65-1.12-2.23M678.25,334.52c-.08,3.11.01,6.22-.03,9.33,1.64-.05,3.28-.1,4.94-.13-.09-.29-.26-.87-.35-1.16-.78.07-2.34.2-3.11.27-.5-2.69,1.09-6.36-1.45-8.31M688.42,340.24c-1.2-.48-2.35-.97-3.52-1.46-.16,1.81-.37,3.62-.51,5.44,1.13-.75,1.4-2.09,1.84-3.26.61.03,1.83.09,2.44.13.15.69.45,2.08.6,2.78,1.29-.05,2.59-.11,3.89-.23-.07-1.93-.07-3.84.06-5.75.76,2.13,1.5,4.28,2.3,6.41,1.01-2.14,1.9-4.33,2.85-6.5.32,2.19-1.15,5.37,1.3,6.58.25-3.21.23-6.43.12-9.64-3.09.58-2.88,4.63-4.23,6.91-1.23-2.12-.44-6.77-3.71-6.79-.26,2.49.49,5.14-.74,7.46-2.37-1.73-1.98-5.64-4.01-7.91-2.7,2.16.04,3.94,1.32,5.83Z"/>
    <path class="st13" d="M507.38,303.62c3.76-2.98,7.78-5.63,11.32-8.88.18,4.9.01,9.81-.06,14.72-1.39-1.35-2.75-2.73-4.1-4.11-6.05,12.68-10.39,26.07-14.12,39.59,6.48.86,12.81,3.46,17.53,8.08,6.97,6.54,10.51,16.58,9.15,26.05-1.25,8.85-6.63,16.99-14.17,21.77-11.13,6.38-26.71,5.38-35.97-3.89-6.57-6.07-10.16-15.1-9.4-24.02.7-15.41,14.94-28.79,30.47-28.03,1.8-9.44,4.97-18.55,8.43-27.5,1.91-4.52,3.53-9.2,6.12-13.39-1.74-.12-3.48-.24-5.2-.39M482.32,364.05c-.14,4.96-.02,9.93-.05,14.9-.08,2.11.48,4.78,2.77,5.54,4.57.4,9.18.04,13.77-.05.98,1.49,1.74,3.23,3.2,4.35,2.6,2.08,6.79,1.84,9.04-.67,2.29-2.26,1.82-5.8,1.4-8.67-1.86-1.96-4.83-2.23-7.24-3.21-.13-1.82-.43-4.92-3.05-4.25-2.34,1.79-.78,5.26-1.13,7.8-.53-.17-1.59-.49-2.12-.65-2.67-.03-1.21,2.39-.85,3.89-4.33-.15-8.67.11-12.99-.13-.24-.26-.74-.79-.98-1.05-.25-4.76-.01-9.53-.09-14.29,9-.07,18,.01,27.01-.11.59,3.19-1.52,7.7,1.54,9.89.06-4.52.43-9.1-.23-13.58-.37-2.48-3.03-3.5-5.25-3.26-6.97.12-13.95-.04-20.91.02-1.98-.1-3.95,1.44-3.84,3.53Z"/>
    <path class="st13" d="M670.61,328.96c5.74-4.4,12.19-7.77,18.33-11.57,6.1,3.88,12.67,7.07,18.36,11.55-12.23.41-24.47.19-36.69.02Z"/>
    <path class="st13" d="M1029.18,339.15c99.6-.37,199.22-.02,298.83-.17,4.84-.39,10.2.6,13.43,4.57,3.21,3.26,3.78,8.05,3.57,12.41-.02,56.68-.02,113.37,0,170.05.41,7.13-5.85,13.77-12.9,14.05-98.71.14-197.42-.12-296.13.07-3.57-.12-7.4.46-10.64-1.36-4.82-2.25-8.14-7.36-7.84-12.73.1-58,.03-115.99.18-173.98-.34-6.51,5.17-12.19,11.5-12.91M1030.41,341.54c-5.78.25-10.84,5.66-10.4,11.48-.02,57.66-.01,115.33-.01,172.99-.38,4.42,2.47,8.69,6.42,10.54,3.57,1.82,7.69,1.01,11.54,1.16,97.71-.05,195.41,0,293.11,0,6.55.04,12.11-6.21,11.7-12.68-.08-56-.05-111.99-.05-167.99.18-4.27-.34-9.05-3.57-12.19-2.23-2.64-5.75-3.59-9.08-3.5-44.03.02-88.05,0-132.07.02-55.86.15-111.74-.21-167.59.17Z"/>
    <path class="st13" d="M872.41,350.53c7.93-2.08,16.83-1.13,23.79,3.37,10.24,6.33,15.77,19.2,13.57,31.01-2.05,12.06-12.02,22.53-24.21,24.47-12.38,2.33-25.69-4.27-31.52-15.39-7.22-12.55-3.35-30.03,8.34-38.51,3.01-2.23,6.44-3.88,10.03-4.95M864.92,371.94c-.17,5.34-.22,10.69-.03,16.03-.05,3.12,3.08,5.54,6.08,5.23,6.02.07,12.05.13,18.08.04,2.95.29,5.7-2.21,5.86-5.14.16-4.53.17-9.08-.14-13.61-2.4,2.56-1.11,6.33-1.4,9.47-.1,2.58.61,6.85-2.88,7.4-6.5.41-13.04.24-19.54.16-2.18.12-4.42-1.33-4.61-3.61-.15-4.98.06-9.96-.08-14.93-.22-2.23,1.06-4.91,3.53-5.09,5.01-.45,10.06.04,15.09-.17,1.44.05,2.66-.48,3.66-1.59-5.88-.24-11.76-.11-17.63-.13-3.24-.29-6.08,2.78-5.99,5.94M888.32,369.41c-3.62,4.1-9.28,7.59-8.63,13.85,2.44-.85,5.09-1.6,6.77-3.71,3.08-3.59,6.89-6.58,9.54-10.51-.25-1.24-.97-2.34-1.99-3.05-2.6-.71-4.01,1.99-5.69,3.42M869.52,373.82c3.44.35,6.91.24,10.36.07-.3-.32-.9-.97-1.2-1.29-2.98.44-6.84-1.22-9.16,1.22M869.54,377.21c1.58,2.39,4.75,1.13,7.13,1.42.26-.4.77-1.2,1.02-1.6-2.73-.06-5.45-.08-8.15.18M869.42,382.89c2.88.22,5.79.2,8.68-.14-2.2-2.03-6.7-2.26-8.68.14M870.59,386.33c-.21.36-.65,1.08-.86,1.44,5.97.35,11.98.27,17.96,0-.3-.33-.91-1-1.21-1.33-5.25-.55-10.62-.35-15.89-.1Z"/>
    <path class="st13" d="M669.35,355.04c.75-2.59,3.59-1.94,5.64-2.04,10.61.11,21.23-.22,31.83.13.4.48,1.21,1.43,1.61,1.9-13.02.28-26.06.16-39.08.01Z"/>
    <path class="st13" d="M1032.13,357.75c1.13-1.53,2.78-2.84,4.8-2.72,5.34-.17,10.68.04,16.03-.1,2.48,0,5.43-.25,7.31,1.76,1.49,1.33,1.55,3.44,1.84,5.28-.81-1.09-1.62-2.17-2.44-3.22-.09-.12-.28-.36-.38-.48-.36-.44-1.08-1.3-1.44-1.73-5.9,1.03-11.89.15-17.81.81-2.63.24-5.28.35-7.91.4Z"/>
    <path class="st13" d="M1032.22,358.13c-.02-.1-.07-.28-.09-.38.02.1.07.28.09.38Z"/>
    <path class="st13" d="M1031.33,363.62c-.98-1.51-.91-4.78.89-5.49.67,1.87-.24,3.75-.89,5.49Z"/>
    <path class="st13" d="M487.36,363.75c-1.09-.55-2.16-1.11-3.18-1.74,8.23-.27,16.48-.34,24.7-.1,2.04-.05,2.13,2.5,2.35,3.96-8.89.03-17.8.33-26.68-.12l-1.28-1.93c1.38-.08,2.79-.08,3.79,1.07l.3-1.14M488.95,363.21c-.4,1.4.11,1.84,1.52,1.32.39-1.4-.11-1.84-1.52-1.32M492.18,363.14c-.53,1.62.02,2.18,1.66,1.7.53-1.63-.02-2.19-1.66-1.7Z"/>
    <path class="st13" d="M890.5,369.57c.95-.91,1.72-2.3,3.22-2.3,1.16,1.39-.31,2.6-.94,3.83-.57-.38-1.71-1.15-2.28-1.53Z"/>
    <path class="st13" d="M881.39,381.05c.69-4.73,5.1-7.53,8.36-10.54.41.38,1.22,1.15,1.63,1.53-3.01,3.29-5.75,7.23-9.99,9.01Z"/>
    <path class="st13" d="M502.61,373.47c.76,1.81.79,3.8,1.11,5.71.58-.32,1.73-.98,2.31-1.31-.01.54-.04,1.6-.05,2.14.41-.21,1.22-.62,1.63-.82,1.18.29,2.36.57,3.55.84,0,1.93.12,3.89-.25,5.8-1.19,2.25-4.12,3.96-6.61,2.76-3.27-1.37-4.32-5.13-5.53-8.14,1.07.75,2.01,1.65,2.82,2.7,1.81-2.92.55-6.47,1.02-9.68Z"/>
    <path class="st13" d="M870.31,460.22c.86.3,1.73.6,2.61.91-5.59,14.13-12.62,27.74-21.41,40.15,1.73.79,3.47,1.58,5.21,2.4-4.34,2.11-8.69,4.22-13.08,6.21.53-4.78,1.65-9.46,2.47-14.19,1.1,1.29,2.2,2.58,3.32,3.88,8.38-12.3,15.44-25.51,20.88-39.36Z"/>
    <path class="st13" d="M512.02,473c3.77,3.04,8.17,5.23,11.72,8.54-1.63.28-3.24.58-4.86.86,4.79,9.21,10.69,17.78,16.56,26.33,4.94-5.49,11.36-10.08,18.84-11.1,8.18-1.37,16.89.67,23.42,5.85,7.82,6.08,12.43,16.19,11.56,26.11-.82,15.23-14.98,28.29-30.28,27.52-13.5.36-25.92-9.95-28.95-22.96-2.17-7.9-.17-16.33,3.97-23.23-6.64-8.5-12.3-17.71-17.69-27.04-1.35,1.16-2.69,2.34-4.03,3.52-.03-4.81-.02-9.61-.26-14.4M557.05,513.01c-4.8,7.41-8.87,15.27-13.06,23.04-1.68,1.98.76,4.47,2.94,4.04,8.69.24,17.4.11,26.09-.06.68-.68,1.37-1.36,2.06-2.03-4.58-8.41-9.15-16.85-14.17-25-.66-1.69-3.16-1.56-3.86.01Z"/>
    <path class="st13" d="M787.95,527.02c-.1-15.79,14.01-30.49,30.06-29.7,15.19-.52,28.94,12.7,29.83,27.71.85,9.94-3.78,20.03-11.67,26.06-10.05,7.8-25.23,8.15-35.55.68-20.6,15.57-44.76,25.96-69.69,32.29.54,1.41,1.08,2.81,1.64,4.24-4.23-1.05-8.41-2.31-12.57-3.61,3.42-3.37,7.07-6.51,11.03-9.23-.2,1.88-.4,3.77-.58,5.66,24.39-5.75,47.6-16.33,67.93-30.99-6.39-5.89-10.78-14.28-10.43-23.11M805.32,515.35c-3.47,3.38-3.92,8.88-1.75,13.09,1.24,2.1-.37,4.3-.91,6.37,3.12-1.1,6.4-.52,9.59-.06-1.06-2.9-4.87-1.62-7.23-2.04.31-.84.62-1.67.94-2.49-1.85-3.27-2.98-7.25-1.61-10.9,2.33-5.58,9.89-8.17,15.05-4.87,5.64,3.08,6.86,11.64,2.2,16.1-2.26,2.61-5.81,2.98-9.02,3.38,2.36,4.03,6.45,8.08,11.57,6.93,3.09-.93,6.24-.66,9.22.58-.6-1.57-1.24-3.12-1.87-4.65.93-2.45,2.59-4.94,1.95-7.67-.52-3.7-2.79-7.34-6.54-8.4,1.69,2.68,4.59,4.82,4.9,8.21.8,3.6-2.71,6.72-1.21,10.31-1-.21-2-.39-2.98-.57-4.35,2.31-9.6.76-12.54-3.03,2.58-1.16,5.47-1.99,7.49-4.09,4.18-4.05,4.82-11.45.6-15.72-4.11-5.65-13.34-5.59-17.85-.48M809.82,522.5c1.15-1.09,1.95-2.59,3.35-3.4,1.63-.43,2.85.9,4.11,1.69-1.69,1.42-3.31,2.94-4.55,4.77l1.78.12c-.59,1.16-3.22,2.72-1.1,3.68,1.38,1,2.55-.26,2.94-1.56l-1.68.16c.16-1.22.32-2.43.49-3.63,1.47-1.04,3.68-2.07,2.89-4.28-1.9-4.2-9.41-2.66-8.23,2.45Z"/>
    <path class="st13" d="M546.37,534.56c4.39-7.14,7.96-14.76,12.54-21.79,3.11,4.45,5.44,9.37,8.26,14,1.98,3.76,4.53,7.25,6.03,11.25-1.46,1.27-3.51.79-5.26.94-7.26-.14-14.54.26-21.77-.27-2.47-.34-.29-2.9.2-4.13M558.22,520.9c-.08,3.43-.07,6.87.19,10.3,2.91-2.13,1.31-6.7,1.41-9.8-.4-.13-1.2-.37-1.6-.5M558.22,532.4c-.02.6-.05,1.81-.07,2.41,3.02,1.6,2.84-4.51.07-2.41Z"/>
    <path class="st13" d="M580.65,551.22c4.57.3,9.12.89,13.65,1.61-1.31,1.24-2.68,2.43-4.02,3.63,20.28,13.85,43.75,22.56,67.85,26.87-.04.42-.14,1.26-.19,1.68-.44.15-1.34.45-1.79.6-24.03-3.8-46.98-13.4-67.32-26.64-.71,1.58-1.42,3.15-2.12,4.74-2.17-4.09-4.37-8.18-6.06-12.49Z"/>
    <path class="st13" d="M682.36,554.77c8.72-1.59,18.23.05,25.2,5.76,7.06,5.27,11.11,13.79,11.71,22.48.34,12.16-7.48,23.99-18.85,28.38-9.57,3.91-21.12,2.75-29.5-3.37-10.91-7.53-15.23-23.03-10.07-35.18,3.64-9.03,11.95-16.13,21.51-18.07M691.73,571.16c-5.9.21-11.81,0-17.72.13-1.22-.09-2.19.37-2.91,1.38,6.83.26,13.67-.05,20.51.18,1.09,1.45,2.46,2.53,4.14,3.26-.66-1.42-1.42-2.74-2.01-4.16.03-1.54,1.6-2.4,2.99-1.89,1.68.7,2.12,4.06-.4,4.09.64.41,1.29.83,1.96,1.25.39-.64,1.17-1.92,1.56-2.56,1.85,0,3.7,0,5.57-.04-.79-2.32-3.53-1.25-5.34-1.58-1.22-1.09-2.25-2.76-4.04-2.82-1.89-.06-3.07,1.6-4.31,2.76M682.53,581.66c-3.85,0-7.68-.08-11.52-.05l-.07,1.55c3.87.01,7.74-.04,11.61-.06,1.28,1.19,2.38,3.2,4.43,2.91,1.94.07,2.94-1.88,4.13-3.06,4.81-.1,9.62.18,14.43.05-.29-.33-.86-1-1.15-1.33-4.4-.56-8.87-.05-13.3-.29-1.39-1.32-2.88-3.33-5.08-2.71-1.66.21-2.42,1.92-3.48,2.99M698.38,587.42c-3.02.89-5.62,3.46-6.17,6.61-.58,4.48,3.19,9.15,7.83,9.01,4.26.17,8.36-3.64,8.14-7.98.27-4.92-5.13-9.06-9.8-7.64M674.9,592.58c-1.31.01-2.62.02-3.93.05.09,2.13,2.43,1.31,3.85,1.62,1.27,1.01,2.32,2.7,4.13,2.74,1.95.17,2.98-1.77,4.26-2.89,2.32-.02,4.65,0,6.98.02l-.1-1.45c-2.26,0-4.52.01-6.77,0-1.19-1.31-2.29-3.22-4.34-3.04-1.94-.12-2.95,1.72-4.08,2.95Z"/>
    <path class="st13" d="M686.17,580.02c2.16-.54,3.68,1.88,2.66,3.74-1.12,1-2.63,1.11-3.82.16-.85-1.47-.25-3.09,1.16-3.9Z"/>
    <path class="st13" d="M468.22,609.95c10.1-8.95,20.05-18.07,30.06-27.12.82.97,1.65,1.95,2.54,2.88l.52.56c-9.79,9.27-19.91,18.18-29.87,27.27,3.11,1.78,6.27,3.45,9.4,5.19-9.01,2.1-17.88,4.74-26.71,7.45,3.34-8.74,6.44-17.59,10.24-26.14,1.25,3.31,2.49,6.62,3.82,9.91Z"/>
    <path class="st13" d="M876.22,586.02c1.05-1.06,2.09-2.14,3.11-3.24,10.12,9.01,20.14,18.14,30.28,27.15,1.5-3.18,2.72-6.52,4.76-9.41,3.2,8.47,5.84,17.18,9.74,25.37l.02.3c-8.74-2.58-17.61-4.67-26.31-7.36,2.97-1.69,5.96-3.36,8.76-5.34-10.07-9.21-20.46-18.07-30.36-27.47Z"/>
    <path class="st13" d="M697.31,589.21c3.77-2.04,8.94.63,9.44,4.91.99,4.98-5.14,9.65-9.57,6.85-4.64-2.16-4.38-9.6.13-11.76M698.95,596.51c-1.04-.62-2.08-1.2-3.13-1.76.76,1.34,1.37,3.12,3.07,3.54,2.19-1.44,3.8-3.78,4.36-6.34-1.56,1.39-2.94,2.97-4.3,4.56Z"/>
    <path class="st13" d="M678.32,591.13c1.63-.89,3.52,1.13,2.84,2.73-.11,1.92-2.82,1.94-3.92.87-.54-1.35-.49-3.02,1.08-3.6Z"/>
  </g>
  <g id="_x23_509c5eff">
    <path class="st24" d="M1059.29,358.27c.1.12.29.36.38.48-.09-.12-.28-.36-.38-.48Z"/>
    <path class="st24" d="M1056.5,361.11l.67.28v.88c-.4.09-1.19.27-1.58.36.23-.38.68-1.14.91-1.52Z"/>
    <path class="st24" d="M1055.41,362.99c.05-.09.14-.27.18-.36-.04.09-.13.27-.18.36Z"/>
    <path class="st24" d="M310.51,579.74c15.13-.6,30.32-.07,45.48-.26,28.35.04,56.69-.11,85.04.03,7.04-.22,12.65,6.62,12.21,13.42.09,42.02.06,84.04.09,126.06.28,5.06-2.82,9.96-7.37,12.08-3.72,1.83-7.96,1.37-11.96,1.43-40.38-.08-80.76.09-121.13-.07-7.56.2-13.52-7.1-12.83-14.42-.37-41.33-.03-82.66-.15-123.98-.38-6.45,4.01-13.23,10.62-14.29M367.48,609.37c-3,2.15-4.24,5.78-6.46,8.61-.9,1.32-2.56,2.82-1.61,4.57.62,1.84,2.52,2.51,4.22,2.99.16-4.01-.23-8.37,2-11.92,3.5-5.96,12.09-8,17.83-4.08,5.68,3.23,7.61,11.71,3.79,16.94-.45-3.88.13-8.22-2.41-11.52-2.61-4.05-8.13-4.43-12.38-3.29-5.99,1.9-8.24,9.84-5.24,15.08,2.61,4.88,9.03,8.3,14.33,5.64,4.1-2.79,8.81-5.04,11.68-9.27.94-1.16.53-2.83-.43-3.82-3.04-3.61-4.42-8.68-8.8-11.06-5-3.39-11.89-2.51-16.52,1.13M360.9,640.04c-2.52,2.3-3.77,5.91-2.76,9.23,1.27-2.24,1.74-4.83,3-7.06,2.11-2.9,5.67-4.2,9.03-5.03,6.76-1.53,14.5-.78,20.19,3.44,2.63,1.75,2.76,5.05,3.61,7.79.42.03,1.26.08,1.69.11-.57-2.61-.9-5.44-2.73-7.53-3.56-4.49-9.59-5.82-15.01-6.25-6-.2-12.51,1.07-17.02,5.3Z"/>
    <path class="st24" d="M368.02,618.07c2-7.21,13.96-7.77,16.67-.82,1.58,3.39.09,7.07-1.12,10.33-2.38-.7-5.26-2.48-7.62-.78-1.5,1.25-.5,3.33-.65,4.96-5.6-1.83-8.89-8.02-7.28-13.69Z"/>
  </g>
  <g id="_x23_9a978dff">
    <path class="st19" d="M492.18,363.14c1.64-.49,2.19.07,1.66,1.7-1.64.48-2.19-.08-1.66-1.7Z"/>
    <path class="st19" d="M391.18,620.38c1.35.15,1.6.86.74,2.1-1.35-.16-1.6-.87-.74-2.1Z"/>
    <path class="st19" d="M377.13,628.2c.93-1.35,3.75-.07,2.51,1.47-.96,1.35-3.78.08-2.51-1.47Z"/>
  </g>
  <g id="_x23_8f3b98ff">
    <path class="st23" d="M924.31,591.91c.14-6.26,5.21-12.43,11.76-12.37,42.98-.14,85.97-.04,128.96-.06,7.2-.37,12.99,6.6,12.6,13.53-.02,42.01.05,84.02.04,126.03.19,4.83-2.55,9.58-6.85,11.8-3.29,1.82-7.16,1.68-10.79,1.7-40.36-.04-80.73.05-121.09-.05-7.51.54-14.68-5.79-14.58-13.41-.22-30.96.12-61.94-.23-92.89l-.02-.3c.36-11.32-.18-22.66.2-33.98M982.66,612.99c-.24,10.01-.33,20.06.1,30.07.01,3.28,3.77,3.5,6.21,3.32,3.72-.3,7.81.81,11.24-1.06-5.01-.64-10.07.07-15.08-.43-1.31-1.31-.91-3.3-1.03-4.95.16-9.29-.1-18.59.09-27.89,6.03-.34,12.07-.11,18.1-.18.05,2.3.1,4.61.17,6.92,2.22.13,4.45.22,6.7.31.35,2.74-.93,6.26,1.48,8.32.29-3,.73-6.1.08-9.07-2.34-2.75-4.99-5.26-7.83-7.46-4.92-.71-9.93-.12-14.88-.28-1.91.14-5.26-.38-5.35,2.38M988.35,623.21c1.42,1.67,3.74.99,5.65,1.17,3.41-.23,7.08.58,10.29-.97-5.28-.77-10.64-.55-15.94-.2M988.46,628.73c4.49-.26,9.76,1.49,13.77-1.01-3.78-.27-7.58-.34-11.35-.2-1.01-.03-1.82.37-2.42,1.21M1007.55,628.56c-7.56,1-10.89,11.18-5.94,16.74,4.46,5.76,14.44,4.14,17.1-2.56,3.74-7.03-3.76-15.53-11.16-14.18M989.09,632.23c-.01.36-.03,1.09-.03,1.45,3.05-.25,6.59.78,9.27-1.16-3.08-.34-6.17-.32-9.24-.29M988.41,637.25c2.36,2.12,6.17,1.28,8.89.2-2.95-.4-5.94-.45-8.89-.2Z"/>
    <path class="st23" d="M1004.05,617.4c.05-1.13.13-2.24.22-3.35,1.19,1.13,2.4,2.28,3.61,3.43-1.29-.03-2.57-.06-3.83-.08Z"/>
    <path class="st23" d="M1006.26,630.32c6.29-2.65,13.36,4.24,11.4,10.59-1.17,5.25-7.57,8.48-12.34,5.66-6.3-3.25-6.05-13.95.94-16.25M1006.8,638.15c1.33.84,2.84,1.34,4.24,2.11.77,1.48-.43,2.93-1.98,2.87-1.21-.67-2.33-1.45-3.48-2.17.78,2.03,2.21,3.68,3.66,5.29,1.21-1.79,3.93-3.23,3.47-5.69-.36-2.98-6.2-2.19-4.91-5.67,1.66-.86,3.18.74,4.74,1.14-1.09-1.71-2.23-3.36-3.35-5.02-1.2,2.12-4.2,4.54-2.39,7.14Z"/>
  </g>
  <g class="st5">
    <g class="st5">
      <g class="st5">
        <text class="st1" transform="translate(636.25 402.13)"><tspan class="st11"><tspan x="0" y="0">Legal SFT </tspan></tspan><tspan class="st11"><tspan x="-13.39" y="27.6">Data Factory </tspan></tspan><tspan class="st15"><tspan x="-7.76" y="48">(example domain)</tspan></tspan></text>
      </g>
    </g>
  </g>
  <g class="st5">
    <g class="st5">
      <g class="st5">
        <text class="st9" transform="translate(1064.75 380.42)"><tspan class="st12"><tspan x="0" y="0">Transferable: </tspan></tspan><tspan class="st16"><tspan x="0" y="27.6">methodology pipeline</tspan></tspan></text>
      </g>
    </g>
  </g>
  <g class="st5">
    <g class="st5">
      <g class="st5">
        <text class="st9" transform="translate(1068.9 463.36)"><tspan class="st12"><tspan x="0" y="0">Not directly transferable: </tspan></tspan><tspan class="st16"><tspan x="0" y="27.6">domain rules, style, </tspan></tspan><tspan class="st16"><tspan x="0" y="55.2">risk definitions</tspan></tspan></text>
      </g>
    </g>
  </g>
  <g class="st5">
    <g class="st5">
      <g class="st5">
        <text class="st7" transform="translate(1024.6 284.81)"><tspan x="0" y="0">higher risk</tspan></text>
      </g>
    </g>
  </g>
  <g class="st5">
    <g class="st5">
      <g class="st5">
        <text class="st3" transform="translate(995.46 204.99)"><tspan x="0" y="0">Healthcare</tspan></text>
      </g>
    </g>
  </g>
  <g class="st5">
    <g class="st5">
      <g class="st5">
        <text class="st2" transform="translate(878.23 204.43)"><tspan x="0" y="0">apply </tspan><tspan x="-3.96" y="18">method</tspan></text>
      </g>
    </g>
  </g>
  <g class="st5">
    <g class="st5">
      <g class="st5">
        <text class="st7" transform="translate(270.41 289.37)"><tspan x="0" y="0">compliance focus</tspan></text>
      </g>
    </g>
  </g>
  <g class="st5">
    <g class="st5">
      <g class="st5">
        <text class="st2" transform="translate(455.65 208.02)"><tspan x="0" y="0">apply </tspan><tspan x="-3.96" y="18">method</tspan></text>
      </g>
    </g>
  </g>
  <g class="st5">
    <g class="st5">
      <g class="st5">
        <text class="st8" transform="translate(601.74 148.06)"><tspan x="0" y="0">Transferable methodology</tspan></text>
      </g>
    </g>
  </g>
  <g class="st5">
    <g class="st5">
      <g class="st5">
        <text class="st6" transform="translate(379.71 45.78)"><tspan x="0" y="0">Cross-domain SFT Data Factory Transfer</tspan></text>
      </g>
    </g>
  </g>
  <g class="st5">
    <g class="st5">
      <g class="st5">
        <text class="st0" transform="translate(528.95 569.61)"><tspan x="0" y="0">risk </tspan><tspan x="-19.26" y="22.8">modeling</tspan></text>
      </g>
    </g>
  </g>
  <g class="st5">
    <g class="st5">
      <g class="st5">
        <text class="st2" transform="translate(481.25 622.14)"><tspan x="0" y="0">apply </tspan><tspan x="-3.96" y="18">method</tspan></text>
      </g>
    </g>
  </g>
  <g class="st5">
    <g class="st5">
      <g class="st5">
        <text/>
      </g>
    </g>
  </g>
  <g class="st5">
    <g class="st5">
      <g class="st5">
        <text class="st4" transform="translate(630.05 691.64)"><tspan x="0" y="0">Transferable </tspan><tspan x="3.5" y="27.6">methodology</tspan></text>
      </g>
    </g>
  </g>
  <g class="st5">
    <g class="st5">
      <g class="st5">
        <text class="st4" transform="translate(1102.87 642.41)"><tspan x="0" y="0">Method &gt; Domain Content</tspan><tspan x="28.6" y="27.6">Transfer the pipeline</tspan><tspan x="73.31" y="55.2">not the laws</tspan></text>
      </g>
    </g>
  </g>
  <g class="st5">
    <g class="st5">
      <g class="st5">
        <text/>
      </g>
    </g>
  </g>
  <g class="st5">
    <g class="st5">
      <g class="st5">
        <text class="st2" transform="translate(859.65 620.7)"><tspan x="0" y="0">apply </tspan><tspan x="-3.96" y="18">method</tspan></text>
      </g>
    </g>
  </g>
  <g class="st5">
    <g class="st5">
      <g class="st5">
        <text class="st3" transform="translate(982.07 684.98)"><tspan x="0" y="0">Tax</tspan></text>
      </g>
    </g>
  </g>
  <g class="st5">
    <g class="st5">
      <g class="st5">
        <text class="st3" transform="translate(329.67 680.02)"><tspan x="0" y="0">Customer </tspan><tspan x="-7.36" y="27.6">Compliance</tspan></text>
      </g>
    </g>
  </g>
  <g class="st5">
    <g class="st5">
      <g class="st5">
        <text class="st3" transform="translate(291.1 210.33)"><tspan x="0" y="0">Finance</tspan></text>
      </g>
    </g>
  </g>
  <g class="st5">
    <g class="st5">
      <g class="st5">
        <text class="st7" transform="translate(275.32 399.57)"><tspan x="0" y="0">structured knowledge </tspan><tspan x="15.1" y="20.4">constrained tasks </tspan><tspan x="4.73" y="40.8">clear risk boundaries</tspan></text>
      </g>
    </g>
  </g>
  <g class="st5">
    <g class="st5">
      <g class="st5">
        <text/>
      </g>
    </g>
  </g>
  <text class="st10" transform="translate(613.25 632.79)"><tspan x="0" y="0">model alignment &amp;</tspan><tspan x="5.78" y="22.8" xml:space="preserve"> output validation</tspan></text>
  <text class="st10" transform="translate(805.7 572.43)"><tspan x="0" y="0">QA +</tspan><tspan x="-23.58" y="22.8" xml:space="preserve"> preference</tspan></text>
  <text class="st10" transform="translate(833.59 431.64)"><tspan x="0" y="0">controlled</tspan><tspan x="-4.49" y="22.8" xml:space="preserve"> generation</tspan></text>
  <text class="st10" transform="translate(784.67 288.6)"><tspan x="0" y="0">task </tspan><tspan x="-20.84" y="22.8">taxonomy</tspan></text>
  <text class="st10" transform="translate(642.43 244.79)"><tspan x="0" y="0">structured </tspan><tspan x="7.09" y="22.8">chunking</tspan></text>
  <text class="st10" transform="translate(506.58 285.03)"><tspan x="0" y="0">authoritative </tspan><tspan x="34.03" y="22.8">seeds</tspan></text>
  <text class="st10" transform="translate(466.83 416.18)"><tspan x="0" y="0">training </tspan><tspan x="-13.43" y="22.8">interface &amp; </tspan><tspan x="-5.55" y="45.6">validation</tspan></text>
</svg>