<svg width="1296" height="724" xmlns="http://www.w3.org/2000/svg" xmlns:xlink="http://www.w3.org/1999/xlink" overflow="hidden"><defs><filter id="fx0" x="-10%" y="-10%" width="120%" height="120%" filterUnits="userSpaceOnUse" primitiveUnits="userSpaceOnUse"><feComponentTransfer color-interpolation-filters="sRGB"><feFuncR type="discrete" tableValues="0 0"/><feFuncG type="discrete" tableValues="0 0"/><feFuncB type="discrete" tableValues="0 0"/><feFuncA type="linear" slope="0.34902" intercept="0"/></feComponentTransfer><feGaussianBlur stdDeviation="1.39983 1.40047"/></filter><filter id="fx1" x="-10%" y="-10%" width="120%" height="120%" filterUnits="userSpaceOnUse" primitiveUnits="userSpaceOnUse"><feComponentTransfer color-interpolation-filters="sRGB"><feFuncR type="discrete" tableValues="0 0"/><feFuncG type="discrete" tableValues="0 0"/><feFuncB type="discrete" tableValues="0 0"/><feFuncA type="linear" slope="0.34902" intercept="0"/></feComponentTransfer><feGaussianBlur stdDeviation="1.39983 1.40047"/></filter><filter id="fx2" x="-10%" y="-10%" width="120%" height="120%" filterUnits="userSpaceOnUse" primitiveUnits="userSpaceOnUse"><feComponentTransfer color-interpolation-filters="sRGB"><feFuncR type="discrete" tableValues="0 0"/><feFuncG type="discrete" tableValues="0 0"/><feFuncB type="discrete" tableValues="0 0"/><feFuncA type="linear" slope="0.34902" intercept="0"/></feComponentTransfer><feGaussianBlur stdDeviation="1.39983 1.40047"/></filter><filter id="fx3" x="-10%" y="-10%" width="120%" height="120%" filterUnits="userSpaceOnUse" primitiveUnits="userSpaceOnUse"><feComponentTransfer color-interpolation-filters="sRGB"><feFuncR type="discrete" tableValues="0 0"/><feFuncG type="discrete" tableValues="0 0"/><feFuncB type="discrete" tableValues="0 0"/><feFuncA type="linear" slope="0.34902" intercept="0"/></feComponentTransfer><feGaussianBlur stdDeviation="1.39983 1.40047"/></filter><filter id="fx4" x="-10%" y="-10%" width="120%" height="120%" filterUnits="userSpaceOnUse" primitiveUnits="userSpaceOnUse"><feComponentTransfer color-interpolation-filters="sRGB"><feFuncR type="discrete" tableValues="0 0"/><feFuncG type="discrete" tableValues="0 0"/><feFuncB type="discrete" tableValues="0 0"/><feFuncA type="linear" slope="0.34902" intercept="0"/></feComponentTransfer><feGaussianBlur stdDeviation="1.39983 1.40047"/></filter><filter id="fx5" x="-10%" y="-10%" width="120%" height="120%" filterUnits="userSpaceOnUse" primitiveUnits="userSpaceOnUse"><feComponentTransfer color-interpolation-filters="sRGB"><feFuncR type="discrete" tableValues="0 0"/><feFuncG type="discrete" tableValues="0 0"/><feFuncB type="discrete" tableValues="0 0"/><feFuncA type="linear" slope="0.34902" intercept="0"/></feComponentTransfer><feGaussianBlur stdDeviation="1.39983 1.40047"/></filter><filter id="fx6" x="-10%" y="-10%" width="120%" height="120%" filterUnits="userSpaceOnUse" primitiveUnits="userSpaceOnUse"><feComponentTransfer color-interpolation-filters="sRGB"><feFuncR type="discrete" tableValues="0 0"/><feFuncG type="discrete" tableValues="0 0"/><feFuncB type="discrete" tableValues="0 0"/><feFuncA type="linear" slope="0.34902" intercept="0"/></feComponentTransfer><feGaussianBlur stdDeviation="1.39983 1.40047"/></filter><filter id="fx7" x="-10%" y="-10%" width="120%" height="120%" filterUnits="userSpaceOnUse" primitiveUnits="userSpaceOnUse"><feComponentTransfer color-interpolation-filters="sRGB"><feFuncR type="discrete" tableValues="0 0"/><feFuncG type="discrete" tableValues="0 0"/><feFuncB type="discrete" tableValues="0 0"/><feFuncA type="linear" slope="0.34902" intercept="0"/></feComponentTransfer><feGaussianBlur stdDeviation="1.39983 1.40047"/></filter><filter id="fx8" x="-10%" y="-10%" width="120%" height="120%" filterUnits="userSpaceOnUse" primitiveUnits="userSpaceOnUse"><feComponentTransfer color-interpolation-filters="sRGB"><feFuncR type="discrete" tableValues="0 0"/><feFuncG type="discrete" tableValues="0 0"/><feFuncB type="discrete" tableValues="0 0"/><feFuncA type="linear" slope="0.34902" intercept="0"/></feComponentTransfer><feGaussianBlur stdDeviation="1.39983 1.40047"/></filter><filter id="fx9" x="-10%" y="-10%" width="120%" height="120%" filterUnits="userSpaceOnUse" primitiveUnits="userSpaceOnUse"><feComponentTransfer color-interpolation-filters="sRGB"><feFuncR type="discrete" tableValues="0 0"/><feFuncG type="discrete" tableValues="0 0"/><feFuncB type="discrete" tableValues="0 0"/><feFuncA type="linear" slope="0.34902" intercept="0"/></feComponentTransfer><feGaussianBlur stdDeviation="1.39983 1.40047"/></filter><filter id="fx10" x="-10%" y="-10%" width="120%" height="120%" filterUnits="userSpaceOnUse" primitiveUnits="userSpaceOnUse"><feComponentTransfer color-interpolation-filters="sRGB"><feFuncR type="discrete" tableValues="0 0"/><feFuncG type="discrete" tableValues="0 0"/><feFuncB type="discrete" tableValues="0 0"/><feFuncA type="linear" slope="0.34902" intercept="0"/></feComponentTransfer><feGaussianBlur stdDeviation="1.39983 1.40047"/></filter><filter id="fx11" x="-10%" y="-10%" width="120%" height="120%" filterUnits="userSpaceOnUse" primitiveUnits="userSpaceOnUse"><feComponentTransfer color-interpolation-filters="sRGB"><feFuncR type="discrete" tableValues="0 0"/><feFuncG type="discrete" tableValues="0 0"/><feFuncB type="discrete" tableValues="0 0"/><feFuncA type="linear" slope="0.34902" intercept="0"/></feComponentTransfer><feGaussianBlur stdDeviation="1.39983 1.40047"/></filter><filter id="fx12" x="-10%" y="-10%" width="120%" height="120%" filterUnits="userSpaceOnUse" primitiveUnits="userSpaceOnUse"><feComponentTransfer color-interpolation-filters="sRGB"><feFuncR type="discrete" tableValues="0 0"/><feFuncG type="discrete" tableValues="0 0"/><feFuncB type="discrete" tableValues="0 0"/><feFuncA type="linear" slope="0.34902" intercept="0"/></feComponentTransfer><feGaussianBlur stdDeviation="1.39983 1.40047"/></filter><filter id="fx13" x="-10%" y="-10%" width="120%" height="120%" filterUnits="userSpaceOnUse" primitiveUnits="userSpaceOnUse"><feComponentTransfer color-interpolation-filters="sRGB"><feFuncR type="discrete" tableValues="0 0"/><feFuncG type="discrete" tableValues="0 0"/><feFuncB type="discrete" tableValues="0 0"/><feFuncA type="linear" slope="0.34902" intercept="0"/></feComponentTransfer><feGaussianBlur stdDeviation="1.39983 1.40047"/></filter><filter id="fx14" x="-10%" y="-10%" width="120%" height="120%" filterUnits="userSpaceOnUse" primitiveUnits="userSpaceOnUse"><feComponentTransfer color-interpolation-filters="sRGB"><feFuncR type="discrete" tableValues="0 0"/><feFuncG type="discrete" tableValues="0 0"/><feFuncB type="discrete" tableValues="0 0"/><feFuncA type="linear" slope="0.34902" intercept="0"/></feComponentTransfer><feGaussianBlur stdDeviation="1.39983 1.40047"/></filter><filter id="fx15" x="-10%" y="-10%" width="120%" height="120%" filterUnits="userSpaceOnUse" primitiveUnits="userSpaceOnUse"><feComponentTransfer color-interpolation-filters="sRGB"><feFuncR type="discrete" tableValues="0 0"/><feFuncG type="discrete" tableValues="0 0"/><feFuncB type="discrete" tableValues="0 0"/><feFuncA type="linear" slope="0.34902" intercept="0"/></feComponentTransfer><feGaussianBlur stdDeviation="1.39983 1.40047"/></filter><filter id="fx16" x="-10%" y="-10%" width="120%" height="120%" filterUnits="userSpaceOnUse" primitiveUnits="userSpaceOnUse"><feComponentTransfer color-interpolation-filters="sRGB"><feFuncR type="discrete" tableValues="0 0"/><feFuncG type="discrete" tableValues="0 0"/><feFuncB type="discrete" tableValues="0 0"/><feFuncA type="linear" slope="0.34902" intercept="0"/></feComponentTransfer><feGaussianBlur stdDeviation="1.39983 1.40047"/></filter><filter id="fx17" x="-10%" y="-10%" width="120%" height="120%" filterUnits="userSpaceOnUse" primitiveUnits="userSpaceOnUse"><feComponentTransfer color-interpolation-filters="sRGB"><feFuncR type="discrete" tableValues="0 0"/><feFuncG type="discrete" tableValues="0 0"/><feFuncB type="discrete" tableValues="0 0"/><feFuncA type="linear" slope="0.380392" intercept="0"/></feComponentTransfer><feGaussianBlur stdDeviation="1.39983 1.40047"/></filter><filter id="fx18" x="-10%" y="-10%" width="120%" height="120%" filterUnits="userSpaceOnUse" primitiveUnits="userSpaceOnUse"><feComponentTransfer color-interpolation-filters="sRGB"><feFuncR type="discrete" tableValues="0 0"/><feFuncG type="discrete" tableValues="0 0"/><feFuncB type="discrete" tableValues="0 0"/><feFuncA type="linear" slope="0.380392" intercept="0"/></feComponentTransfer><feGaussianBlur stdDeviation="1.39983 1.40047"/></filter><filter id="fx19" x="-10%" y="-10%" width="120%" height="120%" filterUnits="userSpaceOnUse" primitiveUnits="userSpaceOnUse"><feComponentTransfer color-interpolation-filters="sRGB"><feFuncR type="discrete" tableValues="0 0"/><feFuncG type="discrete" tableValues="0 0"/><feFuncB type="discrete" tableValues="0 0"/><feFuncA type="linear" slope="0.380392" intercept="0"/></feComponentTransfer><feGaussianBlur stdDeviation="1.39983 1.40047"/></filter><filter id="fx20" x="-10%" y="-10%" width="120%" height="120%" filterUnits="userSpaceOnUse" primitiveUnits="userSpaceOnUse"><feComponentTransfer color-interpolation-filters="sRGB"><feFuncR type="discrete" tableValues="0 0"/><feFuncG type="discrete" tableValues="0 0"/><feFuncB type="discrete" tableValues="0 0"/><feFuncA type="linear" slope="0.380392" intercept="0"/></feComponentTransfer><feGaussianBlur stdDeviation="1.39983 1.40047"/></filter><filter id="fx21" x="-10%" y="-10%" width="120%" height="120%" filterUnits="userSpaceOnUse" primitiveUnits="userSpaceOnUse"><feComponentTransfer color-interpolation-filters="sRGB"><feFuncR type="discrete" tableValues="0 0"/><feFuncG type="discrete" tableValues="0 0"/><feFuncB type="discrete" tableValues="0 0"/><feFuncA type="linear" slope="0.380392" intercept="0"/></feComponentTransfer><feGaussianBlur stdDeviation="1.39983 1.40047"/></filter><filter id="fx22" x="-10%" y="-10%" width="120%" height="120%" filterUnits="userSpaceOnUse" primitiveUnits="userSpaceOnUse"><feComponentTransfer color-interpolation-filters="sRGB"><feFuncR type="discrete" tableValues="0 0"/><feFuncG type="discrete" tableValues="0 0"/><feFuncB type="discrete" tableValues="0 0"/><feFuncA type="linear" slope="0.380392" intercept="0"/></feComponentTransfer><feGaussianBlur stdDeviation="1.39983 1.40047"/></filter><filter id="fx23" x="-10%" y="-10%" width="120%" height="120%" filterUnits="userSpaceOnUse" primitiveUnits="userSpaceOnUse"><feComponentTransfer color-interpolation-filters="sRGB"><feFuncR type="discrete" tableValues="0 0"/><feFuncG type="discrete" tableValues="0 0"/><feFuncB type="discrete" tableValues="0 0"/><feFuncA type="linear" slope="0.380392" intercept="0"/></feComponentTransfer><feGaussianBlur stdDeviation="1.39983 1.40047"/></filter><filter id="fx24" x="-10%" y="-10%" width="120%" height="120%" filterUnits="userSpaceOnUse" primitiveUnits="userSpaceOnUse"><feComponentTransfer color-interpolation-filters="sRGB"><feFuncR type="discrete" tableValues="0 0"/><feFuncG type="discrete" tableValues="0 0"/><feFuncB type="discrete" tableValues="0 0"/><feFuncA type="linear" slope="0.380392" intercept="0"/></feComponentTransfer><feGaussianBlur stdDeviation="1.39983 1.40047"/></filter><filter id="fx25" x="-10%" y="-10%" width="120%" height="120%" filterUnits="userSpaceOnUse" primitiveUnits="userSpaceOnUse"><feComponentTransfer color-interpolation-filters="sRGB"><feFuncR type="discrete" tableValues="0 0"/><feFuncG type="discrete" tableValues="0 0"/><feFuncB type="discrete" tableValues="0 0"/><feFuncA type="linear" slope="0.380392" intercept="0"/></feComponentTransfer><feGaussianBlur stdDeviation="1.39983 1.40047"/></filter><filter id="fx26" x="-10%" y="-10%" width="120%" height="120%" filterUnits="userSpaceOnUse" primitiveUnits="userSpaceOnUse"><feComponentTransfer color-interpolation-filters="sRGB"><feFuncR type="discrete" tableValues="0 0"/><feFuncG type="discrete" tableValues="0 0"/><feFuncB type="discrete" tableValues="0 0"/><feFuncA type="linear" slope="0.380392" intercept="0"/></feComponentTransfer><feGaussianBlur stdDeviation="1.39983 1.40047"/></filter><clipPath id="clip27"><rect x="0" y="0" width="1296" height="724"/></clipPath><clipPath id="clip28"><path d="M51.6673 288.133C36.9393 288.133 25 300.077 25 314.812L25 436.534C25 451.268 36.9393 463.213 51.6673 463.213L158.333 463.213C173.061 463.213 185 451.268 185 436.534L185 314.812C185 300.077 173.061 288.133 158.333 288.133ZM1.93119e-05 1.07884e-05 1296 1.07884e-05 1296 724 1.93119e-05 724Z" fill-rule="evenodd" clip-rule="evenodd"/></clipPath><clipPath id="clip29"><rect x="1" y="-1" width="173" height="189"/></clipPath><clipPath id="clip30"><path d="M25.5001 288.633 25.5001 329.652 185.5 329.652 185.5 288.633ZM1.93119e-05 1.07884e-05 1296 1.07884e-05 1296 724 1.93119e-05 724Z" fill-rule="evenodd" clip-rule="evenodd"/></clipPath><clipPath id="clip31"><rect x="1" y="1" width="173" height="53"/></clipPath><clipPath id="clip32"><path d="M254.667 288.133C239.939 288.133 228 300.077 228 314.812L228 461.545C228 476.28 239.939 488.225 254.667 488.225L361.333 488.225C376.061 488.225 388 476.28 388 461.545L388 314.812C388 300.077 376.061 288.133 361.333 288.133ZM1.93119e-05 1.07884e-05 1296 1.07884e-05 1296 724 1.93119e-05 724Z" fill-rule="evenodd" clip-rule="evenodd"/></clipPath><clipPath id="clip33"><rect x="1" y="-1" width="173" height="215"/></clipPath><clipPath id="clip34"><path d="M228.5 288.633 228.5 329.652 388.5 329.652 388.5 288.633ZM1.93119e-05 1.07884e-05 1296 1.07884e-05 1296 724 1.93119e-05 724Z" fill-rule="evenodd" clip-rule="evenodd"/></clipPath><clipPath id="clip35"><rect x="1" y="1" width="173" height="53"/></clipPath><clipPath id="clip36"><path d="M457.667 288.133C442.939 288.133 431 300.077 431 314.812L431 461.545C431 476.28 442.939 488.225 457.667 488.225L564.333 488.225C579.061 488.225 591 476.28 591 461.545L591 314.812C591 300.077 579.061 288.133 564.333 288.133ZM1.93119e-05 1.07884e-05 1296 1.07884e-05 1296 724 1.93119e-05 724Z" fill-rule="evenodd" clip-rule="evenodd"/></clipPath><clipPath id="clip37"><rect x="1" y="-1" width="173" height="215"/></clipPath><clipPath id="clip38"><path d="M431.5 288.633 431.5 329.652 591.5 329.652 591.5 288.633ZM1.93119e-05 1.07884e-05 1296 1.07884e-05 1296 724 1.93119e-05 724Z" fill-rule="evenodd" clip-rule="evenodd"/></clipPath><clipPath id="clip39"><rect x="1" y="1" width="173" height="53"/></clipPath><clipPath id="clip40"><path d="M671.834 170.078C650.939 170.078 634 187.025 634 207.93L634 537.413C634 558.318 650.939 575.265 671.834 575.265L823.166 575.265C844.061 575.265 861 558.318 861 537.413L861 207.93C861 187.025 844.061 170.078 823.166 170.078ZM1.93119e-05 1.07884e-05 1296 1.07884e-05 1296 724 1.93119e-05 724Z" fill-rule="evenodd" clip-rule="evenodd"/></clipPath><clipPath id="clip41"><rect x="1" y="1" width="239" height="419"/></clipPath><clipPath id="clip42"><path d="M634.5 170.579 634.5 254.617 861.5 254.617 861.5 170.579ZM1.93119e-05 1.07884e-05 1296 1.07884e-05 1296 724 1.93119e-05 724Z" fill-rule="evenodd" clip-rule="evenodd"/></clipPath><clipPath id="clip43"><rect x="1" y="1" width="239" height="97"/></clipPath><clipPath id="clip44"><path d="M659.334 262.121C650.313 262.121 643 269.437 643 278.462L643 343.825C643 352.85 650.313 360.166 659.334 360.166L835.666 360.166C844.687 360.166 852 352.85 852 343.825L852 278.462C852 269.437 844.687 262.121 835.666 262.121ZM1.93119e-05 1.07884e-05 1296 1.07884e-05 1296 724 1.93119e-05 724Z" fill-rule="evenodd" clip-rule="evenodd"/></clipPath><clipPath id="clip45"><rect x="1" y="-1" width="221" height="113"/></clipPath><clipPath id="clip46"><path d="M658.833 275.627C655.888 275.627 653.5 278.016 653.5 280.963L653.5 302.306C653.5 305.253 655.888 307.642 658.833 307.642L832.167 307.642C835.112 307.642 837.5 305.253 837.5 302.306L837.5 280.963C837.5 278.016 835.112 275.627 832.167 275.627ZM1.93119e-05 1.07884e-05 1296 1.07884e-05 1296 724 1.93119e-05 724Z" fill-rule="evenodd" clip-rule="evenodd"/></clipPath><clipPath id="clip47"><rect x="1" y="1" width="197" height="45"/></clipPath><clipPath id="clip48"><path d="M658.833 319.647C655.888 319.647 653.5 322.036 653.5 324.983L653.5 346.326C653.5 349.273 655.888 351.662 658.833 351.662L832.167 351.662C835.112 351.662 837.5 349.273 837.5 346.326L837.5 324.983C837.5 322.036 835.112 319.647 832.167 319.647ZM1.93119e-05 1.07884e-05 1296 1.07884e-05 1296 724 1.93119e-05 724Z" fill-rule="evenodd" clip-rule="evenodd"/></clipPath><clipPath id="clip49"><rect x="1" y="1" width="197" height="45"/></clipPath><clipPath id="clip50"><path d="M989.5 322.148 933 365.168 989.5 408.188 1046 365.168ZM1.93119e-05 1.07884e-05 1296 1.07884e-05 1296 724 1.93119e-05 724Z" fill-rule="evenodd" clip-rule="evenodd"/></clipPath><clipPath id="clip51"><rect x="1" y="-1" width="125" height="101"/></clipPath><clipPath id="clip52"><path d="M917 227.105C913.134 227.105 910 230.24 910 234.108L910 262.121C910 265.988 913.134 269.124 917 269.124L1064 269.124C1067.87 269.124 1071 265.988 1071 262.121L1071 234.108C1071 230.24 1067.87 227.105 1064 227.105ZM1.93119e-05 1.07884e-05 1296 1.07884e-05 1296 724 1.93119e-05 724Z" fill-rule="evenodd" clip-rule="evenodd"/></clipPath><clipPath id="clip53"><rect x="1" y="-1" width="173" height="57"/></clipPath><clipPath id="clip54"><path d="M924.334 449.207C910.895 449.207 900 460.106 900 473.552L900 570.929C900 584.374 910.895 595.274 924.334 595.274L1058.67 595.274C1072.11 595.274 1083 584.374 1083 570.929L1083 473.552C1083 460.106 1072.11 449.207 1058.67 449.207ZM1.93119e-05 1.07884e-05 1296 1.07884e-05 1296 724 1.93119e-05 724Z" fill-rule="evenodd" clip-rule="evenodd"/></clipPath><clipPath id="clip55"><rect x="1" y="-1" width="195" height="161"/></clipPath><clipPath id="clip56"><path d="M900.5 449.707 900.5 492.727 1083.5 492.727 1083.5 449.707ZM1.93119e-05 1.07884e-05 1296 1.07884e-05 1296 724 1.93119e-05 724Z" fill-rule="evenodd" clip-rule="evenodd"/></clipPath><clipPath id="clip57"><rect x="1" y="-1" width="195" height="57"/></clipPath><clipPath id="clip58"><path d="M1151.67 288.133C1136.94 288.133 1125 300.077 1125 314.812L1125 447.539C1125 462.274 1136.94 474.218 1151.67 474.218L1258.33 474.218C1273.06 474.218 1285 462.274 1285 447.539L1285 314.812C1285 300.077 1273.06 288.133 1258.33 288.133ZM1.93119e-05 1.07884e-05 1296 1.07884e-05 1296 724 1.93119e-05 724Z" fill-rule="evenodd" clip-rule="evenodd"/></clipPath><clipPath id="clip59"><rect x="1" y="-1" width="173" height="201"/></clipPath><clipPath id="clip60"><path d="M1125.5 288.633 1125.5 329.652 1285.5 329.652 1285.5 288.633ZM1.93119e-05 1.07884e-05 1296 1.07884e-05 1296 724 1.93119e-05 724Z" fill-rule="evenodd" clip-rule="evenodd"/></clipPath><clipPath id="clip61"><rect x="1" y="1" width="173" height="53"/></clipPath><clipPath id="clip62"><rect x="-1" y="1" width="55" height="15"/></clipPath><clipPath id="clip63"><rect x="-1" y="1" width="55" height="15"/></clipPath><clipPath id="clip64"><rect x="-1" y="1" width="53" height="15"/></clipPath><clipPath id="clip65"><rect x="-1" y="1" width="85" height="15"/></clipPath><clipPath id="clip66"><rect x="-1" y="1" width="89" height="15"/></clipPath><clipPath id="clip67"><rect x="1" y="3" width="15" height="65"/></clipPath><clipPath id="clip68"><rect x="1" y="1" width="15" height="53"/></clipPath><clipPath id="clip69"><rect x="1" y="-1" width="19" height="53"/></clipPath><clipPath id="clip70"><rect x="1" y="-1" width="19" height="73"/></clipPath></defs><g clip-path="url(#clip27)"><rect x="0" y="0" width="1296" height="724.333" fill="#FFFFFF"/><text fill="#08234C" font-family="Arial,Arial_MSFontService,sans-serif" font-weight="700" font-size="45" transform="matrix(1 0 0 1.00046 340.003 89)">Generation Pipeline Diagram</text><text fill="#08234C" font-family="Arial,Arial_MSFontService,sans-serif" font-weight="400" font-size="27" transform="matrix(1 0 0 1.00046 364.88 144)">From Problem Evolution to Executable Solutions</text><g clip-path="url(#clip28)"><g clip-path="url(#clip29)" filter="url(#fx0)" transform="translate(18 284)"><g><path d="M7 33.228C7 18.4933 18.9393 6.54846 33.6672 6.54846L140.333 6.54846C155.061 6.54846 167 18.4933 167 33.228L167 154.95C167 169.684 155.061 181.629 140.333 181.629L33.6672 181.629C18.9393 181.629 7 169.684 7 154.95Z" stroke="#1C6EA8" stroke-width="2" stroke-linejoin="round" stroke-miterlimit="10" fill="#EAF6FF" fill-rule="evenodd"/></g></g></g><path d="M25 314.812C25 300.077 36.9393 288.133 51.6672 288.133L158.333 288.133C173.061 288.133 185 300.077 185 314.812L185 436.534C185 451.268 173.061 463.213 158.333 463.213L51.6672 463.213C36.9393 463.213 25 451.268 25 436.534Z" stroke="#1C6EA8" stroke-width="2" stroke-linejoin="round" stroke-miterlimit="10" fill="#EAF6FF" fill-rule="evenodd"/><g clip-path="url(#clip30)"><g clip-path="url(#clip31)" filter="url(#fx1)" transform="translate(19 284)"><g><rect x="6.50005" y="7.04874" width="160" height="41.0189" stroke="#1C6EA8" stroke-linejoin="round" stroke-miterlimit="10" fill="#3989C9"/></g></g></g><rect x="25.5001" y="288.633" width="160" height="41.0189" stroke="#1C6EA8" stroke-width="1.2" stroke-linejoin="round" stroke-miterlimit="10" fill="#3989C9"/><text fill="#FFFFFF" font-family="Arial,Arial_MSFontService,sans-serif" font-weight="700" font-size="13" transform="matrix(1 0 0 1.00046 45.4133 314)">Seed Problem</text><text fill="#FFFFFF" font-family="Arial,Arial_MSFontService,sans-serif" font-weight="700" font-size="13" transform="matrix(1 0 0 1.00046 135.247 314)">Input</text><text fill="#111111" font-family="Arial,Arial_MSFontService,sans-serif" font-weight="400" font-size="11" transform="matrix(1 0 0 1.00046 39.36 349)">• Original problem</text><text fill="#111111" font-family="Arial,Arial_MSFontService,sans-serif" font-weight="400" font-size="11" transform="matrix(1 0 0 1.00046 45.6933 361)">(simple text)</text><text fill="#111111" font-family="Arial,Arial_MSFontService,sans-serif" font-weight="400" font-size="11" transform="matrix(1 0 0 1.00046 39.36 385)">• Simple structure</text><text fill="#111111" font-family="Arial,Arial_MSFontService,sans-serif" font-weight="400" font-size="11" transform="matrix(1 0 0 1.00046 45.6933 397)">(basic inputs/outputs)</text><text fill="#111111" font-family="Arial,Arial_MSFontService,sans-serif" font-weight="400" font-size="11" transform="matrix(1 0 0 1.00046 39.36 421)">• Low reasoning</text><text fill="#111111" font-family="Arial,Arial_MSFontService,sans-serif" font-weight="400" font-size="11" transform="matrix(1 0 0 1.00046 45.6933 433)">complexity</text><text fill="#111111" font-family="Arial,Arial_MSFontService,sans-serif" font-weight="400" font-size="11" transform="matrix(1 0 0 1.00046 45.6933 445)">(direct questions)</text><g clip-path="url(#clip32)"><g clip-path="url(#clip33)" filter="url(#fx2)" transform="translate(221 284)"><g><path d="M7 33.2279C7 18.4932 18.9393 6.54846 33.6671 6.54846L140.333 6.54846C155.061 6.54846 167 18.4932 167 33.2279L167 179.961C167 194.696 155.061 206.641 140.333 206.641L33.6671 206.641C18.9393 206.641 7 194.696 7 179.961Z" stroke="#B96A16" stroke-width="2" stroke-linejoin="round" stroke-miterlimit="10" fill="#FFF1DC" fill-rule="evenodd"/></g></g></g><path d="M228 314.812C228 300.077 239.939 288.133 254.667 288.133L361.333 288.133C376.061 288.133 388 300.077 388 314.812L388 461.545C388 476.28 376.061 488.225 361.333 488.225L254.667 488.225C239.939 488.225 228 476.28 228 461.545Z" stroke="#B96A16" stroke-width="2" stroke-linejoin="round" stroke-miterlimit="10" fill="#FFF1DC" fill-rule="evenodd"/><g clip-path="url(#clip34)"><g clip-path="url(#clip35)" filter="url(#fx3)" transform="translate(222 284)"><g><rect x="6.50005" y="7.04874" width="160" height="41.0189" stroke="#B96A16" stroke-linejoin="round" stroke-miterlimit="10" fill="#F18421"/></g></g></g><rect x="228.5" y="288.633" width="160" height="41.0189" stroke="#B96A16" stroke-width="1.2" stroke-linejoin="round" stroke-miterlimit="10" fill="#F18421"/><text fill="#FFFFFF" font-family="Arial,Arial_MSFontService,sans-serif" font-weight="700" font-size="12" transform="matrix(1 0 0 1.00046 268.613 306)">Evol</text><text fill="#FFFFFF" font-family="Arial,Arial_MSFontService,sans-serif" font-weight="700" font-size="12" transform="matrix(1 0 0 1.00046 293.947 306)">-</text><text fill="#FFFFFF" font-family="Arial,Arial_MSFontService,sans-serif" font-weight="700" font-size="12" transform="matrix(1 0 0 1.00046 297.947 306)">Instruct</text><text fill="#FFFFFF" font-family="Arial,Arial_MSFontService,sans-serif" font-weight="700" font-size="12" transform="matrix(1 0 0 1.00046 288.947 319)">Stage</text><text fill="#111111" font-family="Arial,Arial_MSFontService,sans-serif" font-weight="400" font-size="11" transform="matrix(1 0 0 1.00046 241.92 348)">• Add constraints</text><text fill="#111111" font-family="Arial,Arial_MSFontService,sans-serif" font-weight="400" font-size="11" transform="matrix(1 0 0 1.00046 247.92 360)">(specific rules/limitations)</text><text fill="#111111" font-family="Arial,Arial_MSFontService,sans-serif" font-weight="400" font-size="11" transform="matrix(1 0 0 1.00046 241.92 384)">• Increase reasoning</text><text fill="#111111" font-family="Arial,Arial_MSFontService,sans-serif" font-weight="400" font-size="11" transform="matrix(1 0 0 1.00046 247.92 396)">depth (multi</text><text fill="#111111" font-family="Arial,Arial_MSFontService,sans-serif" font-weight="400" font-size="11" transform="matrix(1 0 0 1.00046 305.587 396)">-</text><text fill="#111111" font-family="Arial,Arial_MSFontService,sans-serif" font-weight="400" font-size="11" transform="matrix(1 0 0 1.00046 309.253 396)">step logic)</text><text fill="#111111" font-family="Arial,Arial_MSFontService,sans-serif" font-weight="400" font-size="11" transform="matrix(1 0 0 1.00046 241.92 420)">• Contextualization</text><text fill="#111111" font-family="Arial,Arial_MSFontService,sans-serif" font-weight="400" font-size="11" transform="matrix(1 0 0 1.00046 247.92 432)">(real</text><text fill="#111111" font-family="Arial,Arial_MSFontService,sans-serif" font-weight="400" font-size="11" transform="matrix(1 0 0 1.00046 270.087 432)">-</text><text fill="#111111" font-family="Arial,Arial_MSFontService,sans-serif" font-weight="400" font-size="11" transform="matrix(1 0 0 1.00046 273.753 432)">world scenarios)</text><text fill="#111111" font-family="Arial,Arial_MSFontService,sans-serif" font-weight="400" font-size="11" transform="matrix(1 0 0 1.00046 241.92 456)">• Maintain solvability</text><text fill="#111111" font-family="Arial,Arial_MSFontService,sans-serif" font-weight="400" font-size="11" transform="matrix(1 0 0 1.00046 247.92 468)">(logical consistency)</text><g clip-path="url(#clip36)"><g clip-path="url(#clip37)" filter="url(#fx4)" transform="translate(424 284)"><g><path d="M7 33.2279C7 18.4932 18.9393 6.54846 33.6671 6.54846L140.333 6.54846C155.061 6.54846 167 18.4932 167 33.2279L167 179.961C167 194.696 155.061 206.641 140.333 206.641L33.6671 206.641C18.9393 206.641 7 194.696 7 179.961Z" stroke="#6F217D" stroke-width="2" stroke-linejoin="round" stroke-miterlimit="10" fill="#F7EAF9" fill-rule="evenodd"/></g></g></g><path d="M431 314.812C431 300.077 442.939 288.133 457.667 288.133L564.333 288.133C579.061 288.133 591 300.077 591 314.812L591 461.545C591 476.28 579.061 488.225 564.333 488.225L457.667 488.225C442.939 488.225 431 476.28 431 461.545Z" stroke="#6F217D" stroke-width="2" stroke-linejoin="round" stroke-miterlimit="10" fill="#F7EAF9" fill-rule="evenodd"/><g clip-path="url(#clip38)"><g clip-path="url(#clip39)" filter="url(#fx5)" transform="translate(425 284)"><g><rect x="6.50006" y="7.04874" width="160" height="41.0189" stroke="#6F217D" stroke-linejoin="round" stroke-miterlimit="10" fill="#9435A5"/></g></g></g><rect x="431.5" y="288.633" width="160" height="41.0189" stroke="#6F217D" stroke-width="1.2" stroke-linejoin="round" stroke-miterlimit="10" fill="#9435A5"/><text fill="#FFFFFF" font-family="Arial,Arial_MSFontService,sans-serif" font-weight="700" font-size="13" transform="matrix(1 0 0 1.00046 464.16 314)">PoT</text><text fill="#FFFFFF" font-family="Arial,Arial_MSFontService,sans-serif" font-weight="700" font-size="13" transform="matrix(1 0 0 1.00046 492.16 314)">Generation</text><text fill="#111111" font-family="Arial,Arial_MSFontService,sans-serif" font-weight="400" font-size="11" transform="matrix(1 0 0 1.00046 445.44 348)">• Python code output</text><text fill="#111111" font-family="Arial,Arial_MSFontService,sans-serif" font-weight="400" font-size="11" transform="matrix(1 0 0 1.00046 451.44 360)">(structured scripts)</text><text fill="#111111" font-family="Arial,Arial_MSFontService,sans-serif" font-weight="400" font-size="11" transform="matrix(1 0 0 1.00046 445.44 384)">• Variables and</text><text fill="#111111" font-family="Arial,Arial_MSFontService,sans-serif" font-weight="400" font-size="11" transform="matrix(1 0 0 1.00046 451.44 395)">expressions (defined data)</text><text fill="#111111" font-family="Arial,Arial_MSFontService,sans-serif" font-weight="400" font-size="11" transform="matrix(1 0 0 1.00046 445.44 419)">• Explicit computation</text><text fill="#111111" font-family="Arial,Arial_MSFontService,sans-serif" font-weight="400" font-size="11" transform="matrix(1 0 0 1.00046 451.44 431)">steps (commented logic)</text><text fill="#111111" font-family="Arial,Arial_MSFontService,sans-serif" font-weight="400" font-size="11" transform="matrix(1 0 0 1.00046 445.44 454)">• Executable solution</text><text fill="#111111" font-family="Arial,Arial_MSFontService,sans-serif" font-weight="400" font-size="11" transform="matrix(1 0 0 1.00046 451.44 466)">(runnable program)</text><g clip-path="url(#clip40)"><g clip-path="url(#clip41)" filter="url(#fx6)" transform="translate(627 165)"><g><path d="M7 45.3456C7 24.4408 23.9389 7.49411 44.8341 7.49411L196.166 7.49411C217.061 7.49411 234 24.4408 234 45.3456L234 374.829C234 395.734 217.061 412.681 196.166 412.681L44.8341 412.681C23.9389 412.681 7 395.734 7 374.829Z" stroke="#1E7C38" stroke-width="2" stroke-linejoin="round" stroke-miterlimit="10" fill="#E6F5E6" fill-rule="evenodd"/></g></g></g><path d="M634 207.93C634 187.025 650.939 170.078 671.834 170.078L823.166 170.078C844.061 170.078 861 187.025 861 207.93L861 537.413C861 558.318 844.061 575.265 823.166 575.265L671.834 575.265C650.939 575.265 634 558.318 634 537.413Z" stroke="#1E7C38" stroke-width="2.26667" stroke-linejoin="round" stroke-miterlimit="10" fill="#E6F5E6" fill-rule="evenodd"/><g clip-path="url(#clip42)"><g clip-path="url(#clip43)" filter="url(#fx7)" transform="translate(628 166)"><g><rect x="6.50006" y="6.9944" width="227" height="84.0387" stroke="#1E7C38" stroke-linejoin="round" stroke-miterlimit="10" fill="#44A75A"/></g></g></g><rect x="634.5" y="170.579" width="227" height="84.0387" stroke="#1E7C38" stroke-width="1.33333" stroke-linejoin="round" stroke-miterlimit="10" fill="#44A75A"/><text fill="#FFFFFF" font-family="Arial,Arial_MSFontService,sans-serif" font-weight="700" font-size="13" transform="matrix(1 0 0 1.00046 672.05 216)">API Orchestration Layer</text><text fill="#FFFFFF" font-family="Arial,Arial_MSFontService,sans-serif" font-weight="700" font-size="13" transform="matrix(1 0 0 1.00046 697.05 232)">(critical module)</text><g clip-path="url(#clip44)"><g clip-path="url(#clip45)" filter="url(#fx8)" transform="translate(636 258)"><g><path d="M7 22.8778C7 13.8527 14.3129 6.5365 23.3337 6.5365L199.666 6.5365C208.687 6.5365 216 13.8527 216 22.8778L216 88.2404C216 97.2654 208.687 104.582 199.666 104.582L23.3337 104.582C14.3129 104.582 7 97.2654 7 88.2404Z" stroke="#1E7C38" stroke-width="2" stroke-linejoin="round" stroke-miterlimit="10" fill="#CBE9CE" fill-rule="evenodd"/></g></g></g><path d="M643 278.462C643 269.437 650.313 262.121 659.334 262.121L835.666 262.121C844.687 262.121 852 269.437 852 278.462L852 343.825C852 352.85 844.687 360.166 835.666 360.166L659.334 360.166C650.313 360.166 643 352.85 643 343.825Z" stroke="#1E7C38" stroke-width="1.6" stroke-linejoin="round" stroke-miterlimit="10" fill="#CBE9CE" fill-rule="evenodd"/><g clip-path="url(#clip46)"><g clip-path="url(#clip47)" filter="url(#fx9)" transform="translate(647 271)"><g><path d="M6.50006 12.3787C6.50006 9.43173 8.88793 7.04276 11.8335 7.04276L185.167 7.04276C188.112 7.04276 190.5 9.43173 190.5 12.3787L190.5 33.7216C190.5 36.6685 188.112 39.0575 185.167 39.0575L11.8335 39.0575C8.88793 39.0575 6.50006 36.6685 6.50006 33.7216Z" stroke="#1E7C38" stroke-linejoin="round" stroke-miterlimit="10" fill="#EAF7EA" fill-rule="evenodd"/></g></g></g><path d="M653.5 280.963C653.5 278.016 655.888 275.627 658.833 275.627L832.167 275.627C835.112 275.627 837.5 278.016 837.5 280.963L837.5 302.306C837.5 305.253 835.112 307.642 832.167 307.642L658.833 307.642C655.888 307.642 653.5 305.253 653.5 302.306Z" stroke="#1E7C38" stroke-width="1.33333" stroke-linejoin="round" stroke-miterlimit="10" fill="#EAF7EA" fill-rule="evenodd"/><text fill="#111111" font-family="Arial,Arial_MSFontService,sans-serif" font-weight="700" font-size="12" transform="matrix(1 0 0 1.00046 693.877 295)">Scheduling Layer</text><g clip-path="url(#clip48)"><g clip-path="url(#clip49)" filter="url(#fx10)" transform="translate(647 315)"><g><path d="M6.50006 12.3989C6.50006 9.45199 8.88793 7.06302 11.8335 7.06302L185.167 7.06302C188.112 7.06302 190.5 9.45199 190.5 12.3989L190.5 33.7418C190.5 36.6888 188.112 39.0778 185.167 39.0778L11.8335 39.0778C8.88793 39.0778 6.50006 36.6888 6.50006 33.7418Z" stroke="#1E7C38" stroke-linejoin="round" stroke-miterlimit="10" fill="#EAF7EA" fill-rule="evenodd"/></g></g></g><path d="M653.5 324.983C653.5 322.036 655.888 319.647 658.833 319.647L832.167 319.647C835.112 319.647 837.5 322.036 837.5 324.983L837.5 346.326C837.5 349.273 835.112 351.662 832.167 351.662L658.833 351.662C655.888 351.662 653.5 349.273 653.5 346.326Z" stroke="#1E7C38" stroke-width="1.33333" stroke-linejoin="round" stroke-miterlimit="10" fill="#EAF7EA" fill-rule="evenodd"/><text fill="#111111" font-family="Arial,Arial_MSFontService,sans-serif" font-weight="700" font-size="12" transform="matrix(1 0 0 1.00046 709.21 340)">Model Layer</text><text fill="#111111" font-family="Arial,Arial_MSFontService,sans-serif" font-weight="400" font-size="11" transform="matrix(1 0 0 1.00046 648 386)">• Model: DeepSeek</text><text fill="#111111" font-family="Arial,Arial_MSFontService,sans-serif" font-weight="400" font-size="11" transform="matrix(1 0 0 1.00046 745.5 386)">-</text><text fill="#111111" font-family="Arial,Arial_MSFontService,sans-serif" font-weight="400" font-size="11" transform="matrix(1 0 0 1.00046 749.333 386)">V3</text><text fill="#111111" font-family="Arial,Arial_MSFontService,sans-serif" font-weight="400" font-size="11" transform="matrix(1 0 0 1.00046 654.333 398)">(state</text><text fill="#111111" font-family="Arial,Arial_MSFontService,sans-serif" font-weight="400" font-size="11" transform="matrix(1 0 0 1.00046 682.833 398)">-</text><text fill="#111111" font-family="Arial,Arial_MSFontService,sans-serif" font-weight="400" font-size="11" transform="matrix(1 0 0 1.00046 686.667 398)">of</text><text fill="#111111" font-family="Arial,Arial_MSFontService,sans-serif" font-weight="400" font-size="11" transform="matrix(1 0 0 1.00046 696.167 398)">-</text><text fill="#111111" font-family="Arial,Arial_MSFontService,sans-serif" font-weight="400" font-size="11" transform="matrix(1 0 0 1.00046 700 398)">the</text><text fill="#111111" font-family="Arial,Arial_MSFontService,sans-serif" font-weight="400" font-size="11" transform="matrix(1 0 0 1.00046 715.833 398)">-</text><text fill="#111111" font-family="Arial,Arial_MSFontService,sans-serif" font-weight="400" font-size="11" transform="matrix(1 0 0 1.00046 719.667 398)">art)</text><text fill="#111111" font-family="Arial,Arial_MSFontService,sans-serif" font-weight="400" font-size="11" transform="matrix(1 0 0 1.00046 648 422)">• max_tokens = 4096</text><text fill="#111111" font-family="Arial,Arial_MSFontService,sans-serif" font-weight="400" font-size="11" transform="matrix(1 0 0 1.00046 654.333 435)">(long</text><text fill="#111111" font-family="Arial,Arial_MSFontService,sans-serif" font-weight="400" font-size="11" transform="matrix(1 0 0 1.00046 679.667 435)">-</text><text fill="#111111" font-family="Arial,Arial_MSFontService,sans-serif" font-weight="400" font-size="11" transform="matrix(1 0 0 1.00046 683.5 435)">form generation)</text><text fill="#111111" font-family="Arial,Arial_MSFontService,sans-serif" font-weight="400" font-size="11" transform="matrix(1 0 0 1.00046 648 459)">• timeout = 180 seconds</text><text fill="#111111" font-family="Arial,Arial_MSFontService,sans-serif" font-weight="400" font-size="11" transform="matrix(1 0 0 1.00046 654.333 471)">(extended execution time)</text><text fill="#111111" font-family="Arial,Arial_MSFontService,sans-serif" font-weight="400" font-size="11" transform="matrix(1 0 0 1.00046 648 496)">• Support long reasoning and code</text><text fill="#111111" font-family="Arial,Arial_MSFontService,sans-serif" font-weight="400" font-size="11" transform="matrix(1 0 0 1.00046 654.333 508)">generation (complex tasks)</text><text fill="#111111" font-family="Arial,Arial_MSFontService,sans-serif" font-weight="400" font-size="11" transform="matrix(1 0 0 1.00046 648 533)">• Request scheduling</text><text fill="#111111" font-family="Arial,Arial_MSFontService,sans-serif" font-weight="400" font-size="11" transform="matrix(1 0 0 1.00046 654.333 545)">(load balancing &amp; prioritization)</text><g clip-path="url(#clip50)"><g clip-path="url(#clip51)" filter="url(#fx11)" transform="translate(926 318)"><g><path d="M7 49.5839 63.5 6.56412 120 49.5839 63.5 92.6037Z" stroke="#666666" stroke-width="2" stroke-linejoin="round" stroke-miterlimit="10" fill="#F2F2F2" fill-rule="evenodd"/></g></g></g><path d="M933 365.168 989.5 322.148 1046 365.168 989.5 408.188Z" stroke="#666666" stroke-width="1.86667" stroke-linejoin="round" stroke-miterlimit="10" fill="#F2F2F2" fill-rule="evenodd"/><text fill="#111111" font-family="Arial,Arial_MSFontService,sans-serif" font-weight="700" font-size="15" transform="matrix(1 0 0 1.00046 959.927 359)">Success</text><text fill="#111111" font-family="Arial,Arial_MSFontService,sans-serif" font-weight="700" font-size="15" transform="matrix(1 0 0 1.00046 955.593 377)">vs Failure</text><g clip-path="url(#clip52)"><g clip-path="url(#clip53)" filter="url(#fx12)" transform="translate(903 223)"><g><path d="M7 13.5237C7 9.65586 10.134 6.52037 14.0001 6.52037L161 6.52037C164.866 6.52037 168 9.65586 168 13.5237L168 41.5364C168 45.4042 164.866 48.5397 161 48.5397L14.0001 48.5397C10.134 48.5397 7 45.4042 7 41.5364Z" stroke="#1E7C38" stroke-width="2" stroke-linejoin="round" stroke-miterlimit="10" fill="#44A75A" fill-rule="evenodd"/></g></g></g><path d="M910 234.108C910 230.24 913.134 227.105 917 227.105L1064 227.105C1067.87 227.105 1071 230.24 1071 234.108L1071 262.121C1071 265.988 1067.87 269.124 1064 269.124L917 269.124C913.134 269.124 910 265.988 910 262.121Z" stroke="#1E7C38" stroke-width="1.73333" stroke-linejoin="round" stroke-miterlimit="10" fill="#44A75A" fill-rule="evenodd"/><text fill="#FFFFFF" font-family="Arial,Arial_MSFontService,sans-serif" font-weight="700" font-size="12" transform="matrix(1 0 0 1.00046 943.48 250)">Final Valid Sample</text><text fill="#1E7C38" font-family="Arial,Arial_MSFontService,sans-serif" font-weight="700" font-size="14" transform="matrix(1 0 0 1.00046 927.36 309)">Success</text><g clip-path="url(#clip54)"><g clip-path="url(#clip55)" filter="url(#fx13)" transform="translate(893 445)"><g><path d="M7 30.9676C7 17.5222 17.8946 6.62262 31.3338 6.62262L165.666 6.62262C179.105 6.62262 190 17.5222 190 30.9676L190 128.345C190 141.79 179.105 152.69 165.666 152.69L31.3338 152.69C17.8946 152.69 7 141.79 7 128.345Z" stroke="#B71919" stroke-width="2" stroke-linejoin="round" stroke-miterlimit="10" fill="#FDE7E2" fill-rule="evenodd"/></g></g></g><path d="M900 473.552C900 460.106 910.895 449.207 924.334 449.207L1058.67 449.207C1072.11 449.207 1083 460.106 1083 473.552L1083 570.929C1083 584.374 1072.11 595.274 1058.67 595.274L924.334 595.274C910.895 595.274 900 584.374 900 570.929Z" stroke="#B71919" stroke-width="2" stroke-linejoin="round" stroke-miterlimit="10" fill="#FDE7E2" fill-rule="evenodd"/><g clip-path="url(#clip56)"><g clip-path="url(#clip57)" filter="url(#fx14)" transform="translate(894 446)"><g><rect x="6.50006" y="6.12292" width="183" height="43.0198" stroke="#B71919" stroke-linejoin="round" stroke-miterlimit="10" fill="#D93434"/></g></g></g><rect x="900.5" y="449.707" width="183" height="43.0198" stroke="#B71919" stroke-width="1.06667" stroke-linejoin="round" stroke-miterlimit="10" fill="#D93434"/><text fill="#FFFFFF" font-family="Arial,Arial_MSFontService,sans-serif" font-weight="700" font-size="12" transform="matrix(1 0 0 1.00046 951.88 468)">Failure Handling</text><text fill="#FFFFFF" font-family="Arial,Arial_MSFontService,sans-serif" font-weight="700" font-size="12" transform="matrix(1 0 0 1.00046 966.213 481)">Mechanism</text><text fill="#111111" font-family="Arial,Arial_MSFontService,sans-serif" font-weight="400" font-size="9" transform="matrix(1 0 0 1.00046 914.88 511)">• Timeout (exceeded 180s)</text><text fill="#111111" font-family="Arial,Arial_MSFontService,sans-serif" font-weight="400" font-size="9" transform="matrix(1 0 0 1.00046 914.88 531)">• Truncated output</text><text fill="#111111" font-family="Arial,Arial_MSFontService,sans-serif" font-weight="400" font-size="9" transform="matrix(1 0 0 1.00046 920.213 541)">(max_tokens reached)</text><text fill="#111111" font-family="Arial,Arial_MSFontService,sans-serif" font-weight="400" font-size="9" transform="matrix(1 0 0 1.00046 914.88 561)">• Network error</text><text fill="#111111" font-family="Arial,Arial_MSFontService,sans-serif" font-weight="400" font-size="9" transform="matrix(1 0 0 1.00046 920.213 571)">(connectivity issues)</text><text fill="#B71919" font-family="Arial,Arial_MSFontService,sans-serif" font-weight="700" font-size="14" transform="matrix(1 0 0 1.00046 936 428)">Failure</text><g clip-path="url(#clip58)"><g clip-path="url(#clip59)" filter="url(#fx15)" transform="translate(1118 284)"><g><path d="M7 33.2279C7 18.4932 18.9393 6.54846 33.6671 6.54846L140.333 6.54846C155.061 6.54846 167 18.4932 167 33.2279L167 165.955C167 180.689 155.061 192.634 140.333 192.634L33.6671 192.634C18.9393 192.634 7 180.689 7 165.955Z" stroke="#D59E12" stroke-width="2" stroke-linejoin="round" stroke-miterlimit="10" fill="#FFF6D4" fill-rule="evenodd"/></g></g></g><path d="M1125 314.812C1125 300.077 1136.94 288.133 1151.67 288.133L1258.33 288.133C1273.06 288.133 1285 300.077 1285 314.812L1285 447.539C1285 462.274 1273.06 474.218 1258.33 474.218L1151.67 474.218C1136.94 474.218 1125 462.274 1125 447.539Z" stroke="#D59E12" stroke-width="2" stroke-linejoin="round" stroke-miterlimit="10" fill="#FFF6D4" fill-rule="evenodd"/><g clip-path="url(#clip60)"><g clip-path="url(#clip61)" filter="url(#fx16)" transform="translate(1119 284)"><g><rect x="6.5" y="7.04874" width="160" height="41.0189" stroke="#D59E12" stroke-linejoin="round" stroke-miterlimit="10" fill="#F2C230"/></g></g></g><rect x="1125.5" y="288.633" width="160" height="41.0189" stroke="#D59E12" stroke-width="1.2" stroke-linejoin="round" stroke-miterlimit="10" fill="#F2C230"/><text fill="#FFFFFF" font-family="Arial,Arial_MSFontService,sans-serif" font-weight="700" font-size="12" transform="matrix(1 0 0 1.00046 1166.28 314)">Generated Output</text><text fill="#111111" font-family="Arial,Arial_MSFontService,sans-serif" font-weight="400" font-size="11" transform="matrix(1 0 0 1.00046 1139.52 350)">• Code solution</text><text fill="#111111" font-family="Arial,Arial_MSFontService,sans-serif" font-weight="400" font-size="11" transform="matrix(1 0 0 1.00046 1145.52 363)">(complete Python script)</text><text fill="#111111" font-family="Arial,Arial_MSFontService,sans-serif" font-weight="400" font-size="11" transform="matrix(1 0 0 1.00046 1139.52 389)">• Final result</text><text fill="#111111" font-family="Arial,Arial_MSFontService,sans-serif" font-weight="400" font-size="11" transform="matrix(1 0 0 1.00046 1145.52 402)">(verified output value)</text><text fill="#111111" font-family="Arial,Arial_MSFontService,sans-serif" font-weight="400" font-size="11" transform="matrix(1 0 0 1.00046 1139.52 428)">• Intermediate variables</text><text fill="#111111" font-family="Arial,Arial_MSFontService,sans-serif" font-weight="400" font-size="11" transform="matrix(1 0 0 1.00046 1145.52 441)">(step</text><text fill="#111111" font-family="Arial,Arial_MSFontService,sans-serif" font-weight="400" font-size="11" transform="matrix(1 0 0 1.00046 1169.69 441)">-</text><text fill="#111111" font-family="Arial,Arial_MSFontService,sans-serif" font-weight="400" font-size="11" transform="matrix(1 0 0 1.00046 1173.35 441)">by</text><text fill="#111111" font-family="Arial,Arial_MSFontService,sans-serif" font-weight="400" font-size="11" transform="matrix(1 0 0 1.00046 1184.85 441)">-</text><text fill="#111111" font-family="Arial,Arial_MSFontService,sans-serif" font-weight="400" font-size="11" transform="matrix(1 0 0 1.00046 1188.52 441)">step data flow)</text><g clip-path="url(#clip62)" filter="url(#fx17)" transform="translate(179 361)"><g><path d="M6 8.26974 47.28 8.26985" stroke="#1C6EA8" stroke-width="4" stroke-linejoin="round" stroke-miterlimit="10" fill="none" fill-rule="evenodd"/></g></g><path d="M185 367.169 226.28 367.169" stroke="#1C6EA8" stroke-width="4" stroke-linejoin="round" stroke-miterlimit="10" fill="none" fill-rule="evenodd"/><g clip-path="url(#clip63)" filter="url(#fx18)" transform="translate(382 361)"><g><path d="M6 8.26974 48.24 8.26985" stroke="#B96A16" stroke-width="4" stroke-linejoin="round" stroke-miterlimit="10" fill="none" fill-rule="evenodd"/></g></g><path d="M388 367.169 430.24 367.169" stroke="#B96A16" stroke-width="4" stroke-linejoin="round" stroke-miterlimit="10" fill="none" fill-rule="evenodd"/><g clip-path="url(#clip64)" filter="url(#fx19)" transform="translate(585 361)"><g><path d="M6 8.26974 46.32 8.26985" stroke="#6F217D" stroke-width="4" stroke-linejoin="round" stroke-miterlimit="10" fill="none" fill-rule="evenodd"/></g></g><path d="M591 367.169 631.32 367.169" stroke="#6F217D" stroke-width="4" stroke-linejoin="round" stroke-miterlimit="10" fill="none" fill-rule="evenodd"/><g clip-path="url(#clip65)" filter="url(#fx20)" transform="translate(856 361)"><g><path d="M6 8.26974 77.04 8.26985" stroke="#1E7C38" stroke-width="4" stroke-linejoin="round" stroke-miterlimit="10" fill="none" fill-rule="evenodd"/></g></g><path d="M862 367.169 933.04 367.169" stroke="#1E7C38" stroke-width="4" stroke-linejoin="round" stroke-miterlimit="10" fill="none" fill-rule="evenodd"/><g clip-path="url(#clip66)" filter="url(#fx21)" transform="translate(1040 361)"><g><path d="M6 8.26974 82.8 8.26985" stroke="#D59E12" stroke-width="4" stroke-linejoin="round" stroke-miterlimit="10" fill="none" fill-rule="evenodd"/></g></g><path d="M1046 367.169 1122.8 367.169" stroke="#D59E12" stroke-width="4" stroke-linejoin="round" stroke-miterlimit="10" fill="none" fill-rule="evenodd"/><g clip-path="url(#clip67)" filter="url(#fx22)" transform="translate(982 263)"><g><path d="M0 0 0.000104987 52.8" stroke="#1E7C38" stroke-width="4" stroke-linejoin="round" stroke-miterlimit="10" fill="none" fill-rule="evenodd" transform="matrix(1 0 0 -1.00046 8 61.0489)"/></g></g><path d="M0 0 0.000104987 52.8" stroke="#1E7C38" stroke-width="4" stroke-linejoin="round" stroke-miterlimit="10" fill="none" fill-rule="evenodd" transform="matrix(1 0 0 -1.00046 990 321.948)"/><g clip-path="url(#clip68)" filter="url(#fx23)" transform="translate(982 404)"><g><path d="M8 6.28864 8.0001 47.5877" stroke="#B71919" stroke-width="4" stroke-linejoin="round" stroke-miterlimit="10" fill="none" fill-rule="evenodd"/></g></g><path d="M990 408.188 990 449.487" stroke="#B71919" stroke-width="4" stroke-linejoin="round" stroke-miterlimit="10" fill="none" fill-rule="evenodd"/><g clip-path="url(#clip69)" filter="url(#fx24)" transform="translate(980 592)"><g><path d="M9.50006 5.87506 9.50017 46.2136" stroke="#B71919" stroke-width="7" stroke-linejoin="round" stroke-miterlimit="10" fill="none" fill-rule="evenodd"/></g></g><path d="M989.5 595.774 989.5 636.113" stroke="#B71919" stroke-width="6.66667" stroke-linejoin="round" stroke-miterlimit="10" fill="none" fill-rule="evenodd"/><g filter="url(#fx25)" transform="translate(736 630)"><g><path d="M5.50006 8.89392 253.18 8.89403" stroke="#B71919" stroke-width="7" stroke-linejoin="round" stroke-miterlimit="10" fill="none" fill-rule="evenodd"/></g></g><path d="M741.5 636.793 989.18 636.793" stroke="#B71919" stroke-width="6.66667" stroke-linejoin="round" stroke-miterlimit="10" fill="none" fill-rule="evenodd"/><g clip-path="url(#clip70)" filter="url(#fx26)" transform="translate(732 572)"><g><path d="M9.50006 5.86584 9.50017 66.3737" stroke="#B71919" stroke-width="7" stroke-linejoin="round" stroke-miterlimit="10" fill="none" fill-rule="evenodd"/></g></g><path d="M741.5 575.765 741.5 636.273" stroke="#B71919" stroke-width="6.66667" stroke-linejoin="round" stroke-miterlimit="10" fill="none" fill-rule="evenodd"/><text fill="#111111" font-family="Arial,Arial_MSFontService,sans-serif" font-weight="700" font-size="12" transform="matrix(1 0 0 1.00046 761.88 678)">Retry Mechanism &amp; Backoff Strategy</text><text fill="#111111" font-family="Arial,Arial_MSFontService,sans-serif" font-weight="700" font-size="12" transform="matrix(1 0 0 1.00046 818.88 691)">(Feedback Loop)</text></g></svg>