<?xml version="1.0" encoding="UTF-8"?>
<svg id="_图层_1" data-name="图层_1" xmlns="http://www.w3.org/2000/svg" version="1.1" viewBox="0 0 1672 941">
  <!-- Generator: Adobe Illustrator 29.6.0, SVG Export Plug-In . SVG Version: 2.1.1 Build 207)  -->
  <defs>
    <style>
      .st0 {
        font-size: 16.5px;
      }

      .st0, .st1, .st2, .st3, .st4, .st5, .st6, .st7, .st8, .st9, .st10, .st11, .st12, .st13, .st14, .st15, .st16, .st17, .st18, .st19, .st20, .st21, .st22, .st23, .st24, .st25, .st26 {
        isolation: isolate;
      }

      .st0, .st1, .st2, .st3, .st4, .st5, .st6, .st7, .st8, .st9, .st13, .st14, .st15, .st17, .st18, .st21, .st23, .st24, .st25 {
        font-family: TimesNewRomanPS-BoldMT, 'Times New Roman';
        font-weight: 700;
      }

      .st0, .st1, .st18 {
        fill: #00266f;
      }

      .st1 {
        font-size: 23px;
      }

      .st27, .st28, .st29, .st30, .st31, .st32, .st33, .st34, .st35, .st36, .st37, .st38, .st39, .st40, .st41, .st42, .st43, .st44, .st45, .st46, .st47, .st48, .st49, .st50, .st51, .st52, .st53, .st54, .st55, .st56, .st57, .st58, .st59 {
        fill: none;
      }

      .st27, .st28, .st29, .st60, .st37, .st39, .st44, .st46, .st50, .st53, .st55, .st58, .st59 {
        stroke-width: 3px;
      }

      .st27, .st29, .st31, .st61, .st34, .st60, .st36, .st38, .st62, .st39, .st40, .st41, .st47, .st63, .st53, .st57, .st58, .st59 {
        stroke-linecap: round;
      }

      .st27, .st30, .st64, .st37, .st55, .st57 {
        stroke: #003cb5;
      }

      .st27, .st31, .st61, .st60, .st36, .st37, .st38, .st62, .st39, .st40, .st43, .st44, .st63, .st58, .st59 {
        stroke-linejoin: round;
      }

      .st65, .st3, .st61, .st7, .st12, .st13, .st17, .st25, .st26 {
        fill: #4a1dac;
      }

      .st2, .st66, .st6, .st14, .st63 {
        fill: #0097a7;
      }

      .st2, .st7, .st9 {
        font-size: 19px;
      }

      .st28, .st29, .st34, .st67, .st63, .st52, .st56, .st59 {
        stroke: #0097a7;
      }

      .st30, .st32, .st64, .st68, .st67, .st69, .st70, .st48, .st49, .st51, .st52, .st71 {
        stroke-width: 2px;
      }

      .st31, .st68, .st38, .st62, .st45, .st47, .st48, .st49, .st50, .st58 {
        stroke: #0052c8;
      }

      .st31, .st34, .st41 {
        stroke-width: 5px;
      }

      .st72 {
        stroke-width: 1.5px;
      }

      .st72, .st64, .st68, .st73, .st60, .st67, .st70, .st71 {
        fill: #fff;
      }

      .st72, .st74 {
        stroke: #a98bd5;
      }

      .st32, .st61, .st60, .st39, .st40, .st41, .st42, .st69, .st43, .st44, .st46, .st70, .st53 {
        stroke: #4a1dac;
      }

      .st3, .st22, .st23 {
        font-size: 16px;
      }

      .st33 {
        stroke: #5ba8e8;
      }

      .st33, .st54 {
        stroke-width: 1.4px;
      }

      .st4, .st8, .st9, .st62, .st75, .st23 {
        fill: #0052c8;
      }

      .st4, .st14, .st17, .st21 {
        font-size: 34px;
      }

      .st5, .st6 {
        font-size: 13.5px;
      }

      .st5, .st15, .st21 {
        fill: #008c77;
      }

      .st74 {
        fill: #f7f3ff;
        stroke-width: 1.2px;
      }

      .st35 {
        stroke: #cdbceb;
      }

      .st8, .st10 {
        font-size: 20px;
      }

      .st36, .st38, .st42, .st43, .st45, .st47, .st56, .st57 {
        stroke-width: 4px;
      }

      .st36, .st51, .st71 {
        stroke: #008c77;
      }

      .st10 {
        fill: #222;
        font-family: TimesNewRomanPS-ItalicMT, 'Times New Roman';
        font-style: italic;
      }

      .st40 {
        stroke-width: 2.5px;
      }

      .st76 {
        fill: #e8f3ff;
        stroke: #79b2f0;
      }

      .st11 {
        font-size: 17px;
      }

      .st11, .st16, .st19, .st20, .st22, .st26 {
        font-family: TimesNewRomanPSMT, 'Times New Roman';
      }

      .st11, .st19, .st20, .st22 {
        fill: #111;
      }

      .st69 {
        fill: #fbfaff;
      }

      .st12 {
        font-family: AdobeSongStd-Light-GBpc-EUC-H, 'Adobe Song Std';
        font-size: 27px;
        font-weight: 300;
      }

      .st77, .st24 {
        fill: #003cb5;
      }

      .st13 {
        font-size: 22px;
      }

      .st15 {
        font-size: 42px;
      }

      .st16 {
        fill: #d00000;
      }

      .st16, .st20 {
        font-size: 15.5px;
      }

      .st18, .st24 {
        font-size: 24px;
      }

      .st19 {
        font-size: 15.3px;
      }

      .st49 {
        stroke-dasharray: 6 6;
      }

      .st54 {
        stroke: #8d6cda;
      }

      .st25 {
        font-size: 21px;
      }

      .st78 {
        fill: #e8f2ff;
      }

      .st26 {
        font-size: 36px;
      }
    </style>
  </defs>
  <rect class="st73" width="1672" height="941"/>
  <text class="st18" transform="translate(35 48)"><tspan x="0" y="0">Section 1 (Left): Input Sources</tspan></text>
  <line class="st55" x1="56" y1="79" x2="293" y2="79"/>
  <text class="st18" transform="translate(424.93 37)"><tspan x="0" y="0">Section 2 (Center): Aggregation &amp;</tspan></text>
  <text class="st18" transform="translate(504.97 68)"><tspan x="0" y="0">Evaluation Engine</tspan></text>
  <line class="st46" x1="386" y1="82" x2="818" y2="82"/>
  <text class="st18" transform="translate(910.04 48)"><tspan x="0" y="0">Section 3 (Right): System Metrics</tspan></text>
  <line class="st28" x1="899" y1="80" x2="1266" y2="80"/>
  <text class="st1" transform="translate(1268.58 48)"><tspan x="0" y="0">Section 4 (Far Right): Structured Conclusions</tspan></text>
  <line class="st50" x1="1326" y1="80" x2="1660" y2="80"/>
  <rect class="st64" x="14" y="126" width="263" height="213" rx="10" ry="10"/>
  <rect class="st64" x="14" y="377" width="263" height="213" rx="10" ry="10"/>
  <rect class="st64" x="14" y="629" width="263" height="213" rx="10" ry="10"/>
  <line class="st47" x1="277" y1="223" x2="338" y2="223"/>
  <path class="st62" d="M338,210l15,13-15,13v-26Z"/>
  <line class="st47" x1="277" y1="475" x2="338" y2="475"/>
  <path class="st62" d="M338,462l15,13-15,13v-26Z"/>
  <line class="st47" x1="277" y1="727" x2="338" y2="727"/>
  <path class="st62" d="M338,714l15,13-15,13v-26Z"/>
  <rect class="st78" x="31" y="151" width="75" height="105" rx="12" ry="12"/>
  <rect class="st78" x="31" y="402" width="75" height="105" rx="12" ry="12"/>
  <rect class="st78" x="31" y="654" width="75" height="105" rx="12" ry="12"/>
  <ellipse class="st55" cx="68" cy="181" rx="24" ry="12"/>
  <path class="st27" d="M44,181v53c0,16,48,16,48,0v-53"/>
  <path class="st27" d="M44,204c0,16,48,16,48,0"/>
  <path class="st27" d="M44,222c0,16,48,16,48,0"/>
  <circle class="st55" cx="68" cy="455" r="33"/>
  <polygon class="st37" points="61 437 61 473 88 455 61 437"/>
  <polygon class="st37" points="68 658 100 698 68 738 36 698 68 658"/>
  <line class="st57" x1="68" y1="678" x2="68" y2="708"/>
  <circle class="st77" cx="68" cy="721" r="2.5"/>
  <text class="st24" transform="translate(121 180)"><tspan x="0" y="0">Registry</tspan></text>
  <circle class="st77" cx="121" cy="219" r="3.3"/>
  <text class="st22" transform="translate(138 224)"><tspan x="0" y="0">manual review hours</tspan></text>
  <circle class="st77" cx="121" cy="258" r="3.3"/>
  <text class="st22" transform="translate(138 263)"><tspan x="0" y="0">manual review cost</tspan></text>
  <circle class="st77" cx="121" cy="298" r="3.3"/>
  <text class="st22" transform="translate(138 303)"><tspan x="0" y="0">project metadata</tspan></text>
  <text class="st24" transform="translate(121 430)"><tspan x="0" y="0">Runs</tspan></text>
  <circle class="st77" cx="121" cy="469" r="3.3"/>
  <text class="st11" transform="translate(138 474)"><tspan x="0" y="0">status</tspan></text>
  <circle class="st77" cx="121" cy="508" r="3.3"/>
  <text class="st11" transform="translate(138 513)"><tspan x="0" y="0">score</tspan></text>
  <circle class="st77" cx="121" cy="548" r="3.3"/>
  <text class="st11" transform="translate(138 553)"><tspan x="0" y="0">stage progression</tspan></text>
  <text class="st24" transform="translate(121 683)"><tspan x="0" y="0">Bottlenecks</tspan></text>
  <circle class="st77" cx="121" cy="722" r="3.3"/>
  <text class="st11" transform="translate(138 727)"><tspan x="0" y="0">name</tspan></text>
  <circle class="st77" cx="121" cy="761" r="3.3"/>
  <text class="st11" transform="translate(138 766)"><tspan x="0" y="0">severity</tspan></text>
  <circle class="st77" cx="121" cy="801" r="3.3"/>
  <text class="st11" transform="translate(138 806)"><tspan x="0" y="0">reason</tspan></text>
  <rect class="st69" x="361" y="111" width="482" height="772" rx="11" ry="11"/>
  <polygon class="st43" points="446 173 437.06 182.55 436.63 195.63 423.55 196.06 414 205 404.45 196.06 391.37 195.63 390.94 182.55 382 173 390.94 163.45 391.37 150.37 404.45 149.94 414 141 423.55 149.94 436.63 150.37 437.06 163.45 446 173"/>
  <circle class="st42" cx="414" cy="173" r="12.16"/>
  <text class="st17" transform="translate(469 178)"><tspan x="0" y="0">evaluate_flywheel.py</tspan></text>
  <text class="st10" transform="translate(469 219)"><tspan x="0" y="0">Metrics are computed, not guessed</tspan></text>
  <rect class="st72" x="374" y="247" width="450" height="151" rx="8" ry="8"/>
  <rect class="st74" x="374" y="247" width="450" height="52" rx="8" ry="8"/>
  <line class="st35" x1="374" y1="299" x2="824" y2="299"/>
  <rect class="st72" x="374" y="420" width="450" height="119" rx="8" ry="8"/>
  <rect class="st74" x="374" y="420" width="450" height="52" rx="8" ry="8"/>
  <line class="st35" x1="374" y1="472" x2="824" y2="472"/>
  <rect class="st72" x="374" y="560" width="450" height="119" rx="8" ry="8"/>
  <rect class="st74" x="374" y="560" width="450" height="52" rx="8" ry="8"/>
  <line class="st35" x1="374" y1="612" x2="824" y2="612"/>
  <rect class="st72" x="374" y="698" width="450" height="149" rx="8" ry="8"/>
  <rect class="st74" x="374" y="698" width="450" height="52" rx="8" ry="8"/>
  <line class="st35" x1="374" y1="750" x2="824" y2="750"/>
  <text class="st26" transform="translate(390 281)"><tspan x="0" y="0">∑</tspan></text>
  <text class="st25" transform="translate(426 280)"><tspan x="0" y="0">sum(...)</tspan></text>
  <text class="st12" transform="translate(386 458)"><tspan x="0" y="0">▥</tspan></text>
  <text class="st25" transform="translate(426 456)"><tspan x="0" y="0">average(...)</tspan></text>
  <text class="st13" transform="translate(387 598)"><tspan x="0" y="0">%</tspan></text>
  <circle class="st32" cx="398" cy="592" r="15"/>
  <text class="st25" transform="translate(426 596)"><tspan x="0" y="0">rate calculation</tspan></text>
  <path class="st40" d="M389,714h22l-10,16v21"/>
  <text class="st25" transform="translate(426 734)"><tspan x="0" y="0">bottleneck summary</tspan></text>
  <text class="st20" transform="translate(386 333)"><tspan x="0" y="0">total_manual_review_hours = sum(registry[</tspan></text>
  <text class="st16" transform="translate(651 333)"><tspan x="0" y="0">&apos;manual review hours&apos;</tspan></text>
  <text class="st20" transform="translate(785 333)"><tspan x="0" y="0">])</tspan></text>
  <text class="st20" transform="translate(386 365)"><tspan x="0" y="0">total_manual_review_cost_rmb = sum(registry[</tspan></text>
  <text class="st16" transform="translate(679 365)"><tspan x="0" y="0">&apos;manual review cost&apos;</tspan></text>
  <text class="st20" transform="translate(809 365)"><tspan x="0" y="0">])</tspan></text>
  <text class="st20" transform="translate(386 509)"><tspan x="0" y="0">avg_stage_score = average(runs[</tspan></text>
  <text class="st16" transform="translate(609 509)"><tspan x="0" y="0">&apos;score&apos;</tspan></text>
  <text class="st20" transform="translate(664 509)"><tspan x="0" y="0">])</tspan></text>
  <text class="st20" transform="translate(386 649)"><tspan x="0" y="0">stage_completion_rate = count(runs[</tspan></text>
  <text class="st16" transform="translate(624 649)"><tspan x="0" y="0">&apos;status&apos;</tspan></text>
  <text class="st20" transform="translate(685 649)"><tspan x="0" y="0">] ==</tspan></text>
  <text class="st16" transform="translate(728 649)"><tspan x="0" y="0">&apos;completed&apos;</tspan></text>
  <text class="st20" transform="translate(816 649)"><tspan x="0" y="0">) / total_runs</tspan></text>
  <text class="st20" transform="translate(386 781)"><tspan x="0" y="0">bottleneck_summary = aggregate(bottlenecks[</tspan></text>
  <text class="st16" transform="translate(681 781)"><tspan x="0" y="0">&apos;severity&apos;</tspan></text>
  <text class="st20" transform="translate(754 781)"><tspan x="0" y="0">],</tspan></text>
  <text class="st20" transform="translate(592 811)"><tspan x="0" y="0">bottlenecks[</tspan></text>
  <text class="st16" transform="translate(684 811)"><tspan x="0" y="0">&apos;reason&apos;</tspan></text>
  <text class="st20" transform="translate(743 811)"><tspan x="0" y="0">])</tspan></text>
  <line class="st41" x1="846" y1="471" x2="876" y2="471"/>
  <path class="st61" d="M876,458l15,13-15,13v-26Z"/>
  <line class="st34" x1="1261" y1="471" x2="1286" y2="471"/>
  <path class="st63" d="M1286,458l15,13-15,13v-26Z"/>
  <rect class="st67" x="900" y="137" width="168" height="312" rx="10" ry="10"/>
  <rect class="st71" x="1085" y="137" width="168" height="312" rx="10" ry="10"/>
  <rect class="st68" x="900" y="476" width="168" height="318" rx="10" ry="10"/>
  <rect class="st70" x="1085" y="476" width="168" height="318" rx="10" ry="10"/>
  <circle class="st56" cx="984" cy="207" r="34"/>
  <line class="st29" x1="984" y1="207" x2="984" y2="184"/>
  <line class="st29" x1="984" y1="207" x2="999" y2="220"/>
  <path class="st36" d="M1147,180c13-11,31-11,44,0,20,32,8,68-22,68s-42-36-22-68"/>
  <path class="st36" d="M1159,177l-6-19,12,5,8-5,12,5-6,14"/>
  <text class="st15" transform="translate(1158.5 221)"><tspan x="0" y="0">¥</tspan></text>
  <rect class="st75" x="954" y="644.1" width="12" height="35"/>
  <rect class="st75" x="979.5" y="625.86" width="12" height="52"/>
  <rect class="st75" x="1006.81" y="603.29" width="12" height="75"/>
  <path class="st31" d="M949,611l30-30,27-28"/>
  <path class="st31" d="M1006,553l-2,20,18-14"/>
  <polygon class="st43" points="1169 561 1179.58 588.44 1208.94 590.02 1186.12 608.56 1193.69 636.98 1169 621 1144.31 636.98 1151.88 608.56 1129.06 590.02 1158.42 588.44 1169 561"/>
  <text class="st6" transform="translate(926.75 286.78)"><tspan x="0" y="0">total_manual_review</tspan><tspan x="40.86" y="16.2">_hours</tspan></text>
  <line class="st52" x1="912" y1="333" x2="1055" y2="333"/>
  <text class="st14" transform="translate(899.93 397)"><tspan x="0" y="0">1,250 hours</tspan></text>
  <text class="st5" transform="translate(1110.64 289.65)"><tspan x="0" y="0">total_manual_review</tspan><tspan x="30.37" y="16.2">_cost_rmb</tspan></text>
  <line class="st51" x1="1098" y1="333" x2="1240" y2="333"/>
  <text class="st21" transform="translate(1109.5 397)"><tspan x="0" y="0">¥ 85,000</tspan></text>
  <text class="st23" transform="translate(912.23 528.08)"><tspan x="0" y="0">stage_completion_rate</tspan></text>
  <line class="st48" x1="912" y1="676" x2="1055" y2="676"/>
  <text class="st4" transform="translate(933 742)"><tspan x="0" y="0">92.5 %</tspan></text>
  <text class="st3" transform="translate(1110 529.38)"><tspan x="0" y="0">avg_stage_score</tspan></text>
  <line class="st32" x1="1098" y1="676" x2="1240" y2="676"/>
  <text class="st17" transform="translate(1113.28 742)"><tspan x="0" y="0">4.3 / 5.0</tspan></text>
  <rect class="st68" x="1312" y="104" width="348" height="805" rx="13" ry="13"/>
  <path class="st38" d="M1350,126h31l20,20v50h-51v-70Z"/>
  <path class="st38" d="M1381,126v22h20"/>
  <line class="st50" x1="1362" y1="161" x2="1390" y2="161"/>
  <line class="st50" x1="1362" y1="174" x2="1390" y2="174"/>
  <text class="st24" transform="translate(1424 147)"><tspan x="0" y="0">System Summary /</tspan></text>
  <text class="st24" transform="translate(1424 178)"><tspan x="0" y="0">Report Conclusions</tspan></text>
  <line class="st30" x1="1324" y1="201" x2="1650" y2="201"/>
  <line class="st54" x1="1325" y1="341" x2="1649" y2="341"/>
  <line class="st33" x1="1325" y1="459" x2="1649" y2="459"/>
  <line class="st33" x1="1325" y1="610" x2="1649" y2="610"/>
  <line class="st49" x1="1325" y1="748" x2="1649" y2="748"/>
  <polygon class="st44" points="1350 208 1323 262 1377 262 1350 208"/>
  <line class="st53" x1="1350" y1="228" x2="1350" y2="247"/>
  <circle class="st65" cx="1350" cy="256" r="2.5"/>
  <text class="st7" transform="translate(1383 238)"><tspan x="0" y="0">Bottleneck Summary:</tspan></text>
  <circle class="st77" cx="1385" cy="262" r="3.3"/>
  <text class="st20" transform="translate(1402 267)"><tspan x="0" y="0">High severity in data preprocessing</tspan></text>
  <text class="st20" transform="translate(1402 291)"><tspan x="0" y="0">due to low quality input</tspan></text>
  <circle class="st77" cx="1385" cy="314" r="3.3"/>
  <text class="st20" transform="translate(1402 319)"><tspan x="0" y="0">High severity closure process</tspan></text>
  <circle class="st28" cx="1350" cy="386" r="27"/>
  <circle class="st28" cx="1350" cy="386" r="14"/>
  <line class="st29" x1="1348" y1="388" x2="1372" y2="363"/>
  <path class="st59" d="M1372,363l2-15,10,10-12,5Z"/>
  <text class="st2" transform="translate(1383 385)"><tspan x="0" y="0">Flywheel Readiness:</tspan></text>
  <circle class="st66" cx="1385" cy="409" r="3.3"/>
  <text class="st20" transform="translate(1402 414)"><tspan x="0" y="0">High readiness, with strong stage</tspan></text>
  <text class="st20" transform="translate(1402 438)"><tspan x="0" y="0">completion rates, ready for scaling</tspan></text>
  <path class="st58" d="M1350,478l28,12-4,34c-6,16-24,28-24,28,0,0-18-12-24-28l-4-34,28-12Z"/>
  <path class="st58" d="M1340,520v-18h20v18"/>
  <path class="st58" d="M1336,502l14-12,14,12"/>
  <text class="st9" transform="translate(1383 508)"><tspan x="0" y="0">Governance Implications:</tspan></text>
  <circle class="st77" cx="1385" cy="532" r="3.3"/>
  <text class="st19" transform="translate(1402 537)"><tspan x="0" y="0">Manual review cost requires budget</tspan></text>
  <text class="st19" transform="translate(1402 561)"><tspan x="0" y="0">reassessment; data quality needs</tspan></text>
  <text class="st19" transform="translate(1402 585)"><tspan x="0" y="0">stricter protocols</tspan></text>
  <rect class="st46" x="1326" y="622" width="48" height="62" rx="3" ry="3"/>
  <path class="st60" d="M1340,619h20l4,9h-28l4-9Z"/>
  <path class="st39" d="M1340,651l8,9,15-18"/>
  <line class="st46" x1="1340" y1="671" x2="1361" y2="671"/>
  <text class="st7" transform="translate(1383 648)"><tspan x="0" y="0">Next-Step Priorities:</tspan></text>
  <circle class="st77" cx="1385" cy="672" r="3.3"/>
  <text class="st20" transform="translate(1402 677)"><tspan x="0" y="0">Focus on resolving data</tspan></text>
  <text class="st20" transform="translate(1402 701)"><tspan x="0" y="0">preprocessing bottlenecks;</tspan></text>
  <text class="st20" transform="translate(1402 725)"><tspan x="0" y="0">optimize manual review process</tspan></text>
  <text class="st8" transform="translate(1367.94 787)"><tspan x="0" y="0">Structured outputs support</tspan></text>
  <text class="st8" transform="translate(1383.35 814)"><tspan x="0" y="0">system-level judgments.</tspan></text>
  <rect class="st76" x="1313" y="830" width="346" height="78"/>
  <line class="st50" x1="1352.5" y1="837.83" x2="1352.5" y2="900.83"/>
  <line class="st50" x1="1321" y1="851" x2="1383" y2="851"/>
  <line class="st50" x1="1321" y1="851" x2="1307" y2="884"/>
  <line class="st50" x1="1321" y1="851" x2="1335" y2="884"/>
  <path class="st58" d="M1305,884c4,16,28,16,32,0"/>
  <line class="st50" x1="1383" y1="851" x2="1369" y2="884"/>
  <line class="st50" x1="1383" y1="851" x2="1397" y2="884"/>
  <path class="st58" d="M1367,884c4,16,28,16,32,0"/>
  <line class="st45" x1="1334" y1="903" x2="1370" y2="903"/>
  <text class="st0" transform="translate(1396 858)"><tspan x="0" y="0">Subjective summary is grounded</tspan></text>
  <text class="st0" transform="translate(1396 887)"><tspan x="0" y="0">in structured computation.</tspan></text>
</svg>