<?xml version="1.0" encoding="UTF-8" ?>
<!DOCTYPE svg PUBLIC "-//W3C//DTD SVG 1.1//EN" "http://www.w3.org/Graphics/SVG/1.1/DTD/svg11.dtd">
<svg width="1672pt" height="941pt" viewBox="0 0 1672 941" version="1.1" xmlns="http://www.w3.org/2000/svg">
<defs>
  <style>
      .st0 {
        fill: #060f7d;
      }

      .st1 {
        font-size: 27px;
      }

      .st1, .st2, .st3, .st4, .st5, .st6, .st7, .st8, .st9, .st10, .st11, .st12 {
        isolation: isolate;
      }

      .st1, .st2, .st3, .st5, .st6, .st7, .st8, .st9, .st10, .st11, .st12 {
        font-family: TimesNewRomanPS-BoldMT, 'Times New Roman';
        font-weight: 700;
      }

      .st13 {
        fill: #2944ae;
      }

      .st14 {
        fill: #1c36a3;
      }

      .st15 {
        fill: #3341b5;
      }

      .st16 {
        fill: #298f41;
      }

      .st17 {
        fill: none;
        stroke: #000;
        stroke-linecap: square;
        stroke-width: 2px;
      }

      .st18 {
        fill: #2845a9;
      }

      .st19 {
        fill: #f9f9f8;
      }

      .st20 {
        fill: #080808;
      }

      .st2, .st6 {
        font-size: 22px;
      }

      .st21 {
        fill: #8a8fa1;
      }

      .st22, .st6, .st8, .st11, .st12 {
        fill: #fff;
      }

      .st23 {
        fill: #4532b1;
      }

      .st24 {
        fill: #9ba0af;
      }

      .st25 {
        fill: #a4a8b6;
      }

      .st26 {
        fill: #fafbfa;
      }

      .st27 {
        fill: #2b45ac;
      }

      .st28 {
        fill: #f9f9f9;
      }

      .st29 {
        fill: #2842a9;
      }

      .st30 {
        fill: #0e2b9c;
      }

      .st31 {
        fill: #c21b20;
      }

      .st3 {
        font-size: 23px;
      }

      .st32 {
        fill: #11309d;
      }

      .st33 {
        fill: #040303;
      }

      .st34 {
        fill: #9ca1b0;
      }

      .st35 {
        fill: #a2a7b5;
      }

      .st5, .st12 {
        font-size: 26px;
      }

      .st36 {
        fill: #989ead;
      }

      .st37 {
        fill: #001d94;
      }

      .st38 {
        fill: #0b1588;
      }

      .st39 {
        fill: #2a48b3;
      }

      .st40 {
        fill: #0e178b;
      }

      .st41 {
        fill: #4532b0;
      }

      .st42 {
        fill: #030303;
      }

      .st43 {
        fill: #989eae;
      }

      .st44 {
        fill: #cd2d34;
      }

      .st7 {
        font-size: 20px;
      }

      .st45 {
        fill: #fdfdfc;
      }

      .st46 {
        fill: #2a48b2;
      }

      .st8, .st9 {
        font-size: 21px;
      }

      .st47 {
        fill: #2845b0;
      }

      .st48 {
        fill: #fafaf9;
      }

      .st49 {
        fill: #00229b;
      }

      .st50 {
        fill: #f7f7f8;
      }

      .st51 {
        fill: #2946ab;
      }

      .st52 {
        fill: #2e49af;
      }

      .st53 {
        fill: #102da2;
      }

      .st54 {
        fill: #fefefe;
      }

      .st55 {
        fill: #f6f6f7;
      }

      .st56 {
        fill: #8a90a0;
      }

      .st57 {
        fill: #2e4cb4;
      }

      .st58 {
        fill: #0f319f;
      }

      .st59 {
        fill: #fcfbfc;
      }

      .st10 {
        font-size: 46px;
      }

      .st60 {
        fill: #298e41;
      }

      .st61 {
        fill: #2b47ae;
      }

      .st11 {
        font-size: 25px;
      }

      .st62 {
        fill: #148031;
      }

      .st63 {
        fill: #9da2b0;
      }

      .st64 {
        fill: #030202;
      }

      .st65 {
        fill: #f7f7f9;
      }
    </style>
</defs>

<g id="#ffffffff">
<path fill="#ffffff" opacity="1.00" d=" M 0.00 0.00 L 1672.00 0.00 L 1672.00 941.00 L 0.00 941.00 L 0.00 0.00 M 1060.56 170.79 C 1050.61 173.29 1043.29 183.81 1045.15 194.05 C 1046.39 203.99 1056.06 211.94 1066.06 211.30 C 1076.29 211.29 1085.25 202.14 1085.63 192.04 C 1086.12 185.82 1083.56 179.47 1078.85 175.37 C 1074.10 170.75 1066.90 169.33 1060.56 170.79 M 403.56 173.83 C 393.94 176.64 387.67 187.32 389.43 197.09 C 390.62 204.33 395.92 210.79 402.97 213.01 C 407.87 214.87 413.41 214.40 418.12 212.19 C 427.31 208.54 432.19 197.15 429.26 187.86 C 426.35 177.29 414.12 170.02 403.56 173.83 M 445.72 265.95 C 445.72 278.30 445.74 290.66 445.73 303.02 C 445.53 308.39 450.64 312.99 455.92 312.59 C 511.61 312.54 567.31 312.62 623.00 312.56 C 627.81 312.88 632.61 308.99 632.77 304.06 C 632.94 298.09 632.63 292.10 633.09 286.13 C 644.41 286.65 655.81 284.81 667.06 286.64 C 671.85 287.67 675.32 292.27 675.44 297.09 C 675.51 315.94 675.31 334.79 675.52 353.64 C 675.31 353.71 674.88 353.84 674.66 353.91 C 672.17 350.71 668.00 349.45 664.09 349.41 C 653.76 349.40 643.44 349.32 633.11 349.34 C 632.69 343.55 633.00 337.74 632.91 331.94 C 632.92 328.40 630.87 324.87 627.62 323.40 C 625.27 322.14 622.53 322.50 619.98 322.43 C 565.31 322.51 510.65 322.40 455.99 322.48 C 452.21 322.26 448.51 324.47 446.70 327.74 C 445.14 330.58 445.74 333.93 445.64 337.03 C 446.00 348.45 445.44 359.88 445.82 371.28 C 443.48 364.71 445.44 357.48 444.71 350.64 C 439.71 347.94 434.69 345.26 429.57 342.79 L 429.60 342.60 C 429.06 342.49 427.98 342.27 427.44 342.16 C 427.47 344.60 427.50 347.04 427.52 349.48 C 422.38 349.41 417.17 348.97 412.09 350.02 C 409.81 351.08 407.78 352.55 405.90 354.20 C 406.15 334.75 405.76 315.30 406.01 295.85 C 406.91 292.59 408.59 289.30 411.73 287.72 C 415.02 285.71 418.99 286.46 422.63 286.10 C 424.21 286.18 425.79 286.22 427.38 286.23 C 427.40 288.71 427.44 291.19 427.50 293.68 C 433.12 290.61 439.14 288.18 444.42 284.54 C 438.69 281.85 433.30 278.49 427.48 276.02 C 427.49 278.50 427.49 280.99 427.52 283.49 C 423.00 283.68 418.41 283.01 413.94 283.84 C 407.57 285.21 403.00 291.54 403.34 297.99 C 403.30 354.65 403.16 411.32 403.12 467.98 C 403.00 471.98 402.68 476.54 399.65 479.52 C 397.85 481.55 395.17 482.34 392.73 483.31 C 381.58 483.27 370.43 483.33 359.29 483.28 C 359.41 446.14 359.39 409.00 359.31 371.87 C 359.56 355.92 359.34 339.96 359.44 324.01 C 359.65 320.91 358.51 317.93 356.75 315.44 L 356.71 315.02 C 354.07 312.56 350.78 310.48 347.02 310.78 C 250.15 310.78 153.28 310.65 56.41 310.84 C 56.74 302.28 50.67 294.23 42.71 291.45 C 34.06 288.33 23.68 292.05 18.82 299.81 C 14.85 306.06 14.57 314.40 18.19 320.88 C 21.53 326.90 28.14 330.91 34.95 331.49 C 34.32 335.28 34.66 339.13 34.61 342.95 C 34.69 352.62 34.39 362.28 34.70 371.95 C 34.59 389.62 34.62 407.29 34.56 424.96 C 34.78 483.45 34.42 541.94 34.74 600.42 C 35.96 605.67 40.47 610.21 46.04 610.33 C 146.36 610.34 246.68 610.34 347.01 610.32 C 351.46 610.61 355.48 607.97 357.93 604.42 C 358.86 602.06 359.52 599.58 359.36 597.03 C 359.27 559.91 359.49 522.77 359.26 485.66 C 370.59 485.81 381.94 485.74 393.28 485.68 L 393.40 486.18 C 398.96 487.12 403.07 492.44 402.79 498.04 C 402.84 556.38 402.81 614.73 402.77 673.07 C 402.82 676.82 403.76 680.77 406.44 683.56 C 411.59 689.39 420.32 688.76 427.39 688.54 C 427.47 690.72 427.42 692.92 427.43 695.12 C 428.30 694.85 429.17 694.59 430.06 694.35 C 434.79 691.44 439.97 689.32 444.71 686.45 C 445.31 678.87 443.71 671.02 445.74 663.64 C 445.57 676.75 445.79 689.87 445.66 702.98 C 445.75 708.25 450.85 712.48 455.98 712.34 C 511.66 712.29 567.34 712.34 623.02 712.31 C 628.06 712.49 632.99 708.13 632.85 702.98 C 632.89 698.06 632.82 693.15 633.13 688.24 C 641.41 688.40 649.70 688.22 657.98 688.28 C 663.49 688.36 669.90 688.35 673.99 684.05 C 678.17 679.86 678.38 673.55 678.18 668.01 C 678.15 611.00 678.13 553.98 678.19 496.97 C 678.09 491.10 683.24 486.23 688.95 485.83 C 696.43 485.59 703.93 485.91 711.43 485.71 C 711.37 488.40 711.40 491.10 711.45 493.80 C 717.41 490.71 723.15 487.20 729.28 484.44 C 723.58 480.87 717.34 478.25 711.40 475.10 C 711.40 477.85 711.47 480.60 711.44 483.35 C 703.09 482.01 694.56 484.47 686.28 482.52 C 681.20 481.28 677.80 476.10 678.16 470.97 C 678.18 431.37 678.15 391.77 678.16 352.16 C 678.15 334.78 678.13 317.40 678.17 300.02 C 678.17 295.93 677.38 291.59 674.73 288.35 C 672.21 285.12 668.09 283.51 664.06 283.50 C 653.74 283.48 643.42 283.49 633.09 283.45 C 633.04 277.28 632.86 271.10 632.78 264.94 C 632.57 260.08 627.81 256.27 623.09 256.45 C 567.40 256.43 511.70 256.47 456.00 256.43 C 450.73 256.03 445.67 260.63 445.72 265.95 M 714.96 277.94 C 714.02 282.39 713.80 287.22 715.70 291.47 C 718.11 298.02 724.34 303.04 731.27 303.91 C 731.17 428.62 731.22 553.33 731.20 678.03 C 730.70 683.74 735.26 689.46 741.04 689.90 C 753.67 690.90 766.36 689.28 779.00 690.13 C 790.66 689.57 802.32 690.38 814.00 689.99 C 876.97 689.91 940.00 689.77 1003.01 689.86 C 1007.07 690.14 1011.65 690.51 1015.06 687.82 C 1018.08 685.56 1019.99 681.82 1019.78 678.02 C 1019.77 613.50 1019.79 548.98 1019.75 484.46 C 1032.13 485.07 1044.56 484.69 1056.96 484.70 C 1056.94 487.32 1056.94 489.94 1056.97 492.57 C 1062.84 489.57 1068.60 486.35 1074.56 483.51 C 1068.90 480.09 1062.90 477.25 1056.97 474.35 C 1056.92 476.84 1056.98 479.33 1056.96 481.83 C 1046.64 481.62 1036.31 481.81 1026.00 481.75 C 1023.85 481.69 1021.71 481.85 1019.67 482.49 C 1019.98 422.67 1019.58 362.85 1019.75 303.04 C 1019.79 300.72 1019.64 298.38 1018.74 296.22 C 1016.98 292.17 1012.40 289.82 1008.09 289.92 C 923.46 289.93 838.82 289.87 754.19 289.97 C 755.39 286.79 755.49 283.36 755.05 280.03 C 753.02 269.36 741.82 260.87 730.97 263.44 C 723.42 264.71 717.30 270.78 714.96 277.94 M 1382.22 284.14 C 1380.23 288.42 1378.94 293.36 1380.45 298.00 C 1382.00 306.62 1390.06 313.24 1398.69 313.71 C 1398.90 414.49 1398.73 515.29 1398.81 616.07 C 1399.02 621.12 1402.43 626.07 1407.40 627.45 C 1413.89 628.33 1420.47 627.71 1427.01 627.87 C 1458.95 628.05 1490.91 627.58 1522.85 628.13 C 1522.63 677.41 1522.80 726.69 1522.74 775.97 C 1522.69 781.38 1518.70 785.89 1513.78 787.71 C 1456.95 788.23 1400.09 787.53 1343.25 788.08 C 1343.25 785.76 1343.22 783.45 1343.27 781.14 C 1337.50 783.41 1332.15 786.61 1326.53 789.18 C 1331.88 792.53 1337.64 795.14 1343.30 797.92 C 1343.24 795.52 1343.27 793.13 1343.22 790.75 C 1396.12 790.64 1449.03 790.73 1501.93 790.67 C 1506.49 790.54 1511.23 791.25 1515.62 789.59 L 1515.88 789.86 C 1521.59 787.21 1525.79 781.48 1525.53 775.02 C 1525.47 726.06 1525.62 677.09 1525.45 628.13 C 1537.59 627.61 1549.77 627.90 1561.93 628.01 C 1589.28 627.68 1616.66 628.31 1644.01 627.64 L 1643.30 627.00 C 1644.36 628.22 1646.06 626.65 1647.22 626.19 C 1650.66 624.02 1653.02 620.13 1653.04 616.02 C 1653.08 588.67 1653.08 561.31 1653.07 533.96 C 1652.94 481.61 1653.33 429.26 1652.89 376.92 C 1652.73 351.58 1652.94 326.25 1652.81 300.92 C 1652.90 298.41 1651.60 296.19 1650.30 294.17 C 1647.82 291.14 1643.85 289.67 1640.00 289.90 C 1566.82 290.07 1493.63 289.67 1420.45 290.09 C 1419.12 281.81 1412.36 274.93 1404.07 273.60 C 1395.53 271.83 1386.05 276.26 1382.22 284.14 M 1079.79 340.80 C 1075.47 344.68 1076.29 350.85 1076.31 356.05 C 1076.33 442.03 1076.30 528.02 1076.32 614.01 C 1076.24 620.30 1081.60 626.29 1088.02 626.33 C 1167.99 626.36 1247.96 626.40 1327.93 626.32 C 1332.38 626.29 1336.62 623.54 1338.63 619.60 C 1340.27 616.31 1339.54 612.49 1339.72 608.96 C 1339.83 567.44 1339.43 525.89 1339.96 484.39 C 1352.76 484.42 1365.56 484.17 1378.36 484.46 C 1378.27 487.02 1378.28 489.58 1378.30 492.15 C 1384.31 489.17 1390.15 485.84 1396.27 483.04 C 1391.16 479.84 1385.58 477.51 1380.32 474.60 C 1379.84 474.48 1378.88 474.25 1378.40 474.14 C 1378.44 476.58 1378.42 479.02 1378.46 481.47 C 1365.54 481.58 1352.62 481.40 1339.70 481.53 C 1339.74 437.37 1339.71 393.21 1339.74 349.05 C 1340.29 342.67 1334.27 337.14 1328.08 337.30 C 1251.06 337.30 1174.04 337.30 1097.02 337.29 C 1091.19 337.42 1084.22 335.97 1079.79 340.80 M 530.23 736.43 C 532.64 736.41 535.06 736.52 537.48 736.52 C 537.37 749.35 537.48 762.18 537.43 775.02 C 537.29 780.04 539.58 785.33 543.83 788.15 C 548.32 791.05 553.86 790.42 558.94 790.45 C 707.47 790.39 856.00 790.51 1004.53 790.39 C 1004.59 800.94 1014.48 810.25 1025.02 809.69 C 1036.83 809.68 1047.07 797.62 1044.67 785.93 C 1043.71 777.72 1036.92 771.05 1029.05 769.17 C 1017.30 765.98 1004.25 776.17 1004.46 788.35 C 1003.00 787.91 1001.53 787.72 1000.04 787.77 C 852.02 787.78 704.00 787.77 555.99 787.79 C 552.32 787.77 548.25 788.12 545.13 785.81 C 543.04 784.49 541.94 782.21 540.75 780.15 C 540.49 778.76 540.16 777.38 539.75 776.05 C 539.67 762.87 539.76 749.70 539.75 736.53 C 542.20 736.44 544.65 736.41 547.11 736.28 C 544.39 730.49 541.62 724.72 538.94 718.92 C 535.45 724.44 533.10 730.57 530.23 736.43 Z" />
<path fill="#ffffff" opacity="1.00" d=" M 453.40 258.58 C 466.93 258.02 480.52 258.53 494.07 258.36 C 537.06 258.32 580.06 258.36 623.05 258.35 C 626.91 257.90 630.70 261.05 631.01 264.91 C 631.30 268.60 631.02 272.31 630.95 276.00 C 630.67 285.37 631.46 294.75 630.88 304.11 C 630.73 307.54 627.49 310.65 624.05 310.65 C 567.70 310.74 511.33 310.70 454.97 310.67 C 450.47 310.73 447.12 306.29 447.61 301.97 C 447.59 290.34 447.63 278.71 447.54 267.09 C 447.31 263.39 449.63 259.40 453.40 258.58 Z" />
<path fill="#ffffff" opacity="1.00" d=" M 453.38 324.51 C 509.58 324.12 565.82 324.41 622.04 324.33 C 626.53 323.61 631.28 327.22 631.02 331.93 C 631.08 344.28 630.82 356.64 630.94 369.00 C 631.39 373.31 627.26 377.15 623.01 376.68 C 568.34 376.75 513.66 376.70 458.99 376.71 C 456.41 376.67 453.64 377.00 451.33 375.61 C 448.49 374.27 447.43 370.89 447.57 367.95 C 447.63 355.97 447.48 343.98 447.65 332.00 C 447.59 328.63 450.01 325.20 453.38 324.51 Z" />
<path fill="#ffffff" opacity="1.00" d=" M 36.35 371.59 C 42.91 371.23 49.49 371.53 56.06 371.41 C 137.05 371.41 218.03 371.41 299.02 371.40 C 318.53 371.53 338.05 371.13 357.55 371.58 C 357.33 408.75 357.44 445.93 357.47 483.11 C 357.48 483.54 357.50 484.39 357.50 484.82 C 357.29 514.53 357.48 544.23 357.45 573.94 C 357.20 583.30 357.95 592.72 357.03 602.04 C 355.33 605.97 351.51 608.98 347.07 608.54 C 247.03 608.46 146.99 608.56 46.95 608.50 C 41.57 608.92 37.21 604.43 36.42 599.35 C 36.56 539.58 36.36 479.82 36.50 420.05 C 36.33 403.90 36.63 387.74 36.35 371.59 Z" />
<path fill="#ffffff" opacity="1.00" d=" M 453.51 390.70 C 467.31 390.08 481.17 390.59 494.99 390.43 C 537.65 390.41 580.32 390.42 622.99 390.43 C 627.17 390.10 631.20 393.77 631.02 398.01 C 630.87 411.03 631.24 424.05 630.80 437.05 C 630.33 441.24 625.93 443.68 621.99 443.18 C 566.67 443.10 511.35 443.19 456.02 443.12 C 451.90 443.41 447.71 440.23 447.63 435.95 C 447.48 423.63 447.70 411.30 447.54 398.97 C 447.27 395.25 449.87 391.57 453.51 390.70 Z" />
<path fill="#ffffff" opacity="1.00" d=" M 447.49 465.94 C 447.01 461.25 451.20 456.71 455.99 457.26 C 509.98 457.22 563.98 457.27 617.97 457.24 C 620.75 457.31 623.62 456.95 626.35 457.69 C 629.62 458.98 631.33 462.56 631.09 465.96 C 631.16 477.98 631.26 490.00 631.01 502.02 C 631.22 504.93 629.21 507.15 627.62 509.33 C 625.77 509.67 623.90 509.91 622.03 509.94 C 567.04 509.98 512.05 509.90 457.05 509.98 C 454.69 510.09 452.43 509.37 450.28 508.47 C 448.91 506.58 447.39 504.52 447.52 502.07 C 447.54 490.03 447.54 477.98 447.49 465.94 Z" />
<path fill="#ffffff" opacity="1.00" d=" M 451.45 591.56 C 454.34 589.82 457.84 590.69 461.03 590.53 C 514.67 590.58 568.30 590.53 621.93 590.55 C 624.93 590.29 628.25 591.45 629.83 594.16 C 631.47 596.81 631.15 600.06 631.20 603.05 C 631.06 614.05 631.34 625.06 630.90 636.06 C 631.19 640.24 627.09 643.79 623.04 643.53 C 567.36 643.54 511.68 643.51 456.01 643.53 C 451.81 643.77 447.51 640.35 447.57 635.99 C 447.52 623.35 447.46 610.71 447.60 598.08 C 447.63 595.44 449.18 592.88 451.45 591.56 Z" />
<path fill="#ffffff" opacity="1.00" d=" M 452.18 658.34 C 454.65 657.25 457.43 657.70 460.05 657.61 C 514.05 657.56 568.05 657.60 622.05 657.62 C 626.36 657.16 630.93 660.45 631.01 664.95 C 631.25 675.63 630.62 686.31 631.06 696.99 C 630.83 700.46 631.62 704.44 629.37 707.42 C 627.90 709.34 625.47 710.53 623.06 710.43 C 567.38 710.46 511.71 710.43 456.04 710.45 C 451.83 710.77 447.62 707.29 447.63 702.97 C 447.39 690.66 447.69 678.34 447.54 666.03 C 447.38 662.85 449.32 659.69 452.18 658.34 Z" />
</g>
<g id="#040303ff">
<path fill="#040303" opacity="1.00" d=" M 1060.56 170.79 C 1066.90 169.33 1074.10 170.75 1078.85 175.37 C 1083.56 179.47 1086.12 185.82 1085.63 192.04 C 1085.25 202.14 1076.29 211.29 1066.06 211.30 C 1056.06 211.94 1046.39 203.99 1045.15 194.05 C 1043.29 183.81 1050.61 173.29 1060.56 170.79 M 1065.52 180.35 C 1063.22 184.37 1061.10 188.50 1058.79 192.51 C 1057.93 193.74 1058.18 195.27 1058.07 196.68 C 1060.73 196.78 1063.41 196.70 1066.08 196.92 C 1066.16 198.23 1066.20 199.54 1066.20 200.85 C 1067.18 200.85 1069.13 200.86 1070.10 200.86 C 1070.10 199.47 1070.13 198.09 1070.22 196.71 C 1070.70 196.75 1071.65 196.83 1072.13 196.86 C 1072.13 195.99 1072.14 194.24 1072.14 193.37 C 1071.64 193.41 1070.66 193.49 1070.16 193.54 C 1070.00 189.32 1070.22 185.09 1069.98 180.87 C 1068.67 180.16 1066.96 180.56 1065.52 180.35 Z" />
<path fill="#040303" opacity="1.00" d=" M 403.56 173.83 C 414.12 170.02 426.35 177.29 429.26 187.86 C 432.19 197.15 427.31 208.54 418.12 212.19 C 413.41 214.40 407.87 214.87 402.97 213.01 C 395.92 210.79 390.62 204.33 389.43 197.09 C 387.67 187.32 393.94 176.64 403.56 173.83 M 407.90 182.67 C 405.19 183.73 403.10 185.75 402.70 188.73 C 404.02 188.79 405.34 188.85 406.67 188.90 C 406.93 188.31 407.44 187.14 407.69 186.55 C 408.67 186.46 409.65 186.42 410.65 186.42 C 413.57 193.83 402.82 196.78 403.01 203.59 C 407.28 203.62 411.54 203.53 415.81 203.59 C 415.83 202.47 415.86 201.35 415.90 200.23 C 413.50 200.11 411.10 199.93 408.71 199.75 C 411.40 196.20 415.88 193.04 415.58 188.11 C 415.60 185.42 413.21 183.92 411.27 182.58 C 410.43 182.61 408.74 182.65 407.90 182.67 Z" />
<path fill="#040303" opacity="1.00" d=" M 714.96 277.94 C 717.30 270.78 723.42 264.71 730.97 263.44 C 741.82 260.87 753.02 269.36 755.05 280.03 C 755.49 283.36 755.39 286.79 754.19 289.97 C 751.43 297.63 744.29 303.32 736.18 304.20 C 734.53 304.16 732.90 304.07 731.27 303.91 C 724.34 303.04 718.11 298.02 715.70 291.47 C 713.80 287.22 714.02 282.39 714.96 277.94 M 728.13 278.33 C 729.06 278.37 730.93 278.46 731.86 278.50 C 732.42 276.97 733.50 276.32 735.10 276.54 C 737.09 277.12 736.72 279.57 736.06 281.02 C 734.67 281.73 732.88 281.48 731.75 282.65 C 731.25 285.26 735.03 284.69 736.61 285.65 C 736.60 287.00 736.71 288.35 736.55 289.70 C 735.71 290.96 734.00 290.58 732.74 290.75 C 732.46 290.11 731.90 288.82 731.63 288.17 C 730.21 288.26 728.81 288.31 727.42 288.46 C 727.59 288.80 727.92 289.47 728.08 289.80 C 729.36 295.84 740.35 295.26 740.76 288.97 C 741.18 286.54 740.25 284.23 738.16 282.92 C 740.79 281.21 741.45 277.06 739.12 274.86 C 735.86 271.19 728.41 273.15 728.13 278.33 Z" />
<path fill="#040303" opacity="1.00" d=" M 1004.46 788.35 C 1004.25 776.17 1017.30 765.98 1029.05 769.17 C 1036.92 771.05 1043.71 777.72 1044.67 785.93 C 1047.07 797.62 1036.83 809.68 1025.02 809.69 C 1014.48 810.25 1004.59 800.94 1004.53 790.39 C 1004.51 789.88 1004.47 788.86 1004.46 788.35 M 1021.01 781.06 C 1017.81 784.72 1017.67 790.06 1018.63 794.59 C 1019.54 798.36 1024.07 800.55 1027.56 798.76 C 1031.91 796.66 1032.39 789.95 1028.81 786.93 C 1026.86 785.41 1024.25 786.50 1022.10 786.70 C 1022.88 785.35 1023.38 783.77 1024.52 782.66 C 1025.76 781.35 1027.98 783.88 1029.12 782.06 C 1031.55 780.63 1028.45 778.93 1026.98 778.87 C 1024.75 778.22 1022.52 779.53 1021.01 781.06 Z" />
</g>
<g id="#fafbfaff">
<path fill="#fafbfa" opacity="1.00" d=" M 1065.52 180.35 C 1066.96 180.56 1068.67 180.16 1069.98 180.87 C 1070.22 185.09 1070.00 189.32 1070.16 193.54 C 1070.66 193.49 1071.64 193.41 1072.14 193.37 C 1072.14 194.24 1072.13 195.99 1072.13 196.86 C 1071.65 196.83 1070.70 196.75 1070.22 196.71 C 1070.13 198.09 1070.10 199.47 1070.10 200.86 C 1069.13 200.86 1067.18 200.85 1066.20 200.85 C 1066.20 199.54 1066.16 198.23 1066.08 196.92 C 1063.41 196.70 1060.73 196.78 1058.07 196.68 C 1058.18 195.27 1057.93 193.74 1058.79 192.51 C 1061.10 188.50 1063.22 184.37 1065.52 180.35 M 1065.86 186.19 C 1064.62 188.61 1063.34 191.00 1062.10 193.40 C 1063.45 193.43 1064.83 193.45 1066.22 193.48 C 1066.12 191.05 1066.14 188.61 1065.86 186.19 Z" />
</g>
<g id="#f9f9f9ff">
<path fill="#f9f9f9" opacity="1.00" d=" M 407.90 182.67 C 408.74 182.65 410.43 182.61 411.27 182.58 C 413.21 183.92 415.60 185.42 415.58 188.11 C 415.88 193.04 411.40 196.20 408.71 199.75 C 411.10 199.93 413.50 200.11 415.90 200.23 C 415.86 201.35 415.83 202.47 415.81 203.59 C 411.54 203.53 407.28 203.62 403.01 203.59 C 402.82 196.78 413.57 193.83 410.65 186.42 C 409.65 186.42 408.67 186.46 407.69 186.55 C 407.44 187.14 406.93 188.31 406.67 188.90 C 405.34 188.85 404.02 188.79 402.70 188.73 C 403.10 185.75 405.19 183.73 407.90 182.67 Z" />
</g>
<g id="#030202ff">
<path fill="#030202" opacity="1.00" d=" M 1065.86 186.19 C 1066.14 188.61 1066.12 191.05 1066.22 193.48 C 1064.83 193.45 1063.45 193.43 1062.10 193.40 C 1063.34 191.00 1064.62 188.61 1065.86 186.19 Z" />
<path fill="#030202" opacity="1.00" d=" M 18.82 299.81 C 23.68 292.05 34.06 288.33 42.71 291.45 C 50.67 294.23 56.74 302.28 56.41 310.84 C 56.46 322.09 46.14 331.92 34.95 331.49 C 28.14 330.91 21.53 326.90 18.19 320.88 C 14.57 314.40 14.85 306.06 18.82 299.81 M 30.28 303.75 C 30.40 304.81 30.51 305.88 30.63 306.96 C 31.93 306.45 33.23 305.96 34.51 305.44 C 34.63 310.71 34.53 315.98 34.56 321.25 C 35.58 321.26 37.60 321.28 38.62 321.30 C 39.04 314.39 38.67 307.46 38.86 300.55 C 38.15 300.59 36.73 300.67 36.02 300.71 C 34.20 301.88 32.27 302.88 30.28 303.75 Z" />
</g>
<g id="#0e2b9cff">
<path fill="#0e2b9c" opacity="1.00" d=" M 445.72 265.95 C 445.67 260.63 450.73 256.03 456.00 256.43 C 511.70 256.47 567.40 256.43 623.09 256.45 C 627.81 256.27 632.57 260.08 632.78 264.94 C 632.86 271.10 633.04 277.28 633.09 283.45 C 643.42 283.49 653.74 283.48 664.06 283.50 C 668.09 283.51 672.21 285.12 674.73 288.35 C 677.38 291.59 678.17 295.93 678.17 300.02 C 678.13 317.40 678.15 334.78 678.16 352.16 C 677.29 352.68 676.41 353.18 675.52 353.64 C 675.31 334.79 675.51 315.94 675.44 297.09 C 675.32 292.27 671.85 287.67 667.06 286.64 C 655.81 284.81 644.41 286.65 633.09 286.13 C 632.63 292.10 632.94 298.09 632.77 304.06 C 632.61 308.99 627.81 312.88 623.00 312.56 C 567.31 312.62 511.61 312.54 455.92 312.59 C 450.64 312.99 445.53 308.39 445.73 303.02 C 445.74 290.66 445.72 278.30 445.72 265.95 M 453.40 258.58 C 449.63 259.40 447.31 263.39 447.54 267.09 C 447.63 278.71 447.59 290.34 447.61 301.97 C 447.12 306.29 450.47 310.73 454.97 310.67 C 511.33 310.70 567.70 310.74 624.05 310.65 C 627.49 310.65 630.73 307.54 630.88 304.11 C 631.46 294.75 630.67 285.37 630.95 276.00 C 631.02 272.31 631.30 268.60 631.01 264.91 C 630.70 261.05 626.91 257.90 623.05 258.35 C 580.06 258.36 537.06 258.32 494.07 258.36 C 480.52 258.53 466.93 258.02 453.40 258.58 Z" />
</g>
<g id="#f9f9f8ff">
<path fill="#f9f9f8" opacity="1.00" d=" M 728.13 278.33 C 728.41 273.15 735.86 271.19 739.12 274.86 C 741.45 277.06 740.79 281.21 738.16 282.92 C 740.25 284.23 741.18 286.54 740.76 288.97 C 740.35 295.26 729.36 295.84 728.08 289.80 C 727.92 289.47 727.59 288.80 727.42 288.46 C 728.81 288.31 730.21 288.26 731.63 288.17 C 731.90 288.82 732.46 290.11 732.74 290.75 C 734.00 290.58 735.71 290.96 736.55 289.70 C 736.71 288.35 736.60 287.00 736.61 285.65 C 735.03 284.69 731.25 285.26 731.75 282.65 C 732.88 281.48 734.67 281.73 736.06 281.02 C 736.72 279.57 737.09 277.12 735.10 276.54 C 733.50 276.32 732.42 276.97 731.86 278.50 C 730.93 278.46 729.06 278.37 728.13 278.33 Z" />
</g>
<g id="#030303ff">
<path fill="#030303" opacity="1.00" d=" M 1382.22 284.14 C 1386.05 276.26 1395.53 271.83 1404.07 273.60 C 1412.36 274.93 1419.12 281.81 1420.45 290.09 C 1422.70 301.89 1412.46 314.01 1400.46 313.74 C 1400.02 313.73 1399.13 313.72 1398.69 313.71 C 1390.06 313.24 1382.00 306.62 1380.45 298.00 C 1378.94 293.36 1380.23 288.42 1382.22 284.14 M 1395.68 283.57 C 1395.45 287.21 1395.08 290.85 1394.58 294.47 C 1396.55 294.49 1398.61 294.47 1400.28 293.20 C 1402.74 294.58 1403.71 298.72 1401.04 300.36 C 1399.29 301.05 1398.36 299.67 1397.49 298.47 C 1396.31 298.47 1395.15 298.48 1394.00 298.50 C 1394.20 303.88 1401.75 305.56 1405.05 301.90 C 1407.42 298.72 1407.34 293.43 1403.95 290.98 C 1402.31 289.92 1400.23 290.61 1398.46 290.66 C 1398.52 289.75 1398.64 287.94 1398.70 287.03 C 1401.04 287.03 1403.39 287.12 1405.75 287.13 C 1405.77 285.94 1405.77 284.75 1405.75 283.57 C 1402.38 283.61 1399.03 283.55 1395.68 283.57 Z" />
</g>
<g id="#2a48b3ff">
<path fill="#2a48b3" opacity="1.00" d=" M 427.48 276.02 C 433.30 278.49 438.69 281.85 444.42 284.54 C 439.14 288.18 433.12 290.61 427.50 293.68 C 427.44 291.19 427.40 288.71 427.38 286.23 C 425.79 286.22 424.21 286.18 422.63 286.10 C 424.27 285.74 425.90 285.30 427.53 284.89 C 427.53 284.54 427.52 283.84 427.52 283.49 C 427.49 280.99 427.49 278.50 427.48 276.02 Z" />
</g>
<g id="#0f319fff">
<path fill="#0f319f" opacity="1.00" d=" M 413.94 283.84 C 418.41 283.01 423.00 283.68 427.52 283.49 C 427.52 283.84 427.53 284.54 427.53 284.89 C 425.90 285.30 424.27 285.74 422.63 286.10 C 418.99 286.46 415.02 285.71 411.73 287.72 C 408.59 289.30 406.91 292.59 406.01 295.85 C 405.25 299.16 405.25 302.57 405.29 305.96 C 405.45 318.29 405.23 330.62 405.33 342.96 C 405.61 348.46 403.10 354.38 406.30 359.44 C 405.55 364.93 405.88 370.48 405.83 376.00 C 405.80 390.82 405.91 405.65 405.77 420.47 C 407.07 419.31 408.38 418.17 409.76 417.10 C 409.31 418.53 408.88 419.98 408.37 421.39 C 407.03 423.74 405.59 426.22 405.70 429.03 C 405.62 443.32 405.80 457.62 405.64 471.92 C 405.60 476.48 402.83 480.26 399.79 483.40 C 409.02 483.28 418.25 483.28 427.48 483.24 C 427.49 484.06 427.51 484.89 427.50 485.73 C 418.27 485.72 409.05 485.74 399.82 485.69 C 402.94 489.05 405.65 493.16 405.52 497.94 C 405.52 511.94 405.53 525.95 405.51 539.95 C 405.37 544.29 409.45 547.60 413.38 548.48 C 418.04 548.97 422.75 548.54 427.44 548.67 C 427.47 546.31 427.50 543.95 427.55 541.61 C 428.11 541.87 429.23 542.40 429.79 542.66 C 428.78 547.53 428.08 553.05 430.90 557.48 C 429.77 557.99 428.65 558.51 427.52 559.02 C 427.46 556.51 427.45 554.02 427.44 551.52 C 419.97 551.34 411.44 552.90 405.44 547.28 C 405.49 567.18 405.49 587.08 405.49 606.98 C 405.28 611.79 409.59 615.22 413.84 616.43 L 412.92 618.72 C 410.17 617.86 407.71 616.37 405.32 614.81 C 405.65 634.82 405.30 654.84 405.52 674.84 C 405.65 680.02 409.90 684.50 414.98 685.23 C 419.15 685.75 423.37 685.42 427.57 685.54 C 427.53 683.03 427.45 680.52 427.42 678.02 C 428.62 678.53 429.80 679.07 430.98 679.66 C 429.29 681.67 428.59 684.18 427.57 686.54 C 423.28 687.18 418.91 686.96 414.62 687.64 C 419.24 688.11 423.89 687.98 428.52 688.23 C 429.04 690.26 429.53 692.31 430.06 694.35 C 429.17 694.59 428.30 694.85 427.43 695.12 C 427.42 692.92 427.47 690.72 427.39 688.54 C 420.32 688.76 411.59 689.39 406.44 683.56 C 403.76 680.77 402.82 676.82 402.77 673.07 C 402.81 614.73 402.84 556.38 402.79 498.04 C 403.07 492.44 398.96 487.12 393.40 486.18 L 393.28 485.68 C 393.14 485.09 392.87 483.90 392.73 483.31 C 395.17 482.34 397.85 481.55 399.65 479.52 C 402.68 476.54 403.00 471.98 403.12 467.98 C 403.16 411.32 403.30 354.65 403.34 297.99 C 403.00 291.54 407.57 285.21 413.94 283.84 Z" />
</g>
<g id="#fdfdfcff">
<path fill="#fdfdfc" opacity="1.00" d=" M 1395.68 283.57 C 1399.03 283.55 1402.38 283.61 1405.75 283.57 C 1405.77 284.75 1405.77 285.94 1405.75 287.13 C 1403.39 287.12 1401.04 287.03 1398.70 287.03 C 1398.64 287.94 1398.52 289.75 1398.46 290.66 C 1400.23 290.61 1402.31 289.92 1403.95 290.98 C 1407.34 293.43 1407.42 298.72 1405.05 301.90 C 1401.75 305.56 1394.20 303.88 1394.00 298.50 C 1395.15 298.48 1396.31 298.47 1397.49 298.47 C 1398.36 299.67 1399.29 301.05 1401.04 300.36 C 1403.71 298.72 1402.74 294.58 1400.28 293.20 C 1398.61 294.47 1396.55 294.49 1394.58 294.47 C 1395.08 290.85 1395.45 287.21 1395.68 283.57 Z" />
</g>
<g id="#4532b1ff">
<path fill="#4532b1" opacity="1.00" d=" M 736.18 304.20 C 744.29 303.32 751.43 297.63 754.19 289.97 C 838.82 289.87 923.46 289.93 1008.09 289.92 C 1012.40 289.82 1016.98 292.17 1018.74 296.22 C 1017.98 321.55 1018.75 346.92 1018.33 372.27 C 923.16 372.34 827.97 372.43 732.80 372.30 C 732.52 349.80 732.49 327.29 732.77 304.79 C 733.90 304.59 735.03 304.39 736.18 304.20 Z" />
<path fill="#4532b1" opacity="1.00" d=" M 1420.45 290.09 C 1493.63 289.67 1566.82 290.07 1640.00 289.90 C 1643.85 289.67 1647.82 291.14 1650.30 294.17 C 1652.10 301.64 1651.39 309.36 1651.51 316.96 C 1651.29 336.30 1651.92 355.66 1651.21 374.99 C 1645.14 375.42 1639.08 374.68 1633.01 374.82 C 1581.03 375.19 1529.04 375.51 1477.04 375.32 C 1451.46 375.16 1425.85 375.82 1400.31 374.86 C 1399.99 361.93 1400.26 349.00 1400.21 336.07 C 1400.41 328.62 1399.80 321.17 1400.46 313.74 C 1412.46 314.01 1422.70 301.89 1420.45 290.09 Z" />
</g>
<g id="#001d94ff">
<path fill="#001d94" opacity="1.00" d=" M 1650.30 294.17 C 1651.60 296.19 1652.90 298.41 1652.81 300.92 C 1652.94 326.25 1652.73 351.58 1652.89 376.92 C 1652.26 377.64 1651.64 378.37 1651.04 379.10 C 1651.08 378.37 1651.15 376.92 1651.18 376.20 C 1594.79 376.12 1538.39 376.15 1482.00 376.15 C 1458.68 376.02 1435.35 376.45 1412.05 375.86 C 1408.24 375.94 1404.44 376.19 1400.65 376.19 C 1400.59 455.80 1400.70 535.40 1400.62 615.00 C 1400.18 620.32 1404.15 625.30 1409.44 626.04 C 1408.93 626.39 1407.91 627.10 1407.40 627.45 C 1402.43 626.07 1399.02 621.12 1398.81 616.07 C 1398.73 515.29 1398.90 414.49 1398.69 313.71 C 1399.13 313.72 1400.02 313.73 1400.46 313.74 C 1399.80 321.17 1400.41 328.62 1400.21 336.07 C 1400.26 349.00 1399.99 361.93 1400.31 374.86 C 1425.85 375.82 1451.46 375.16 1477.04 375.32 C 1529.04 375.51 1581.03 375.19 1633.01 374.82 C 1639.08 374.68 1645.14 375.42 1651.21 374.99 C 1651.92 355.66 1651.29 336.30 1651.51 316.96 C 1651.39 309.36 1652.10 301.64 1650.30 294.17 Z" />
<path fill="#001d94" opacity="1.00" d=" M 1018.33 372.27 C 1018.75 346.92 1017.98 321.55 1018.74 296.22 C 1019.64 298.38 1019.79 300.72 1019.75 303.04 C 1019.58 362.85 1019.98 422.67 1019.67 482.49 C 1032.12 484.03 1044.69 482.06 1057.16 483.36 C 1044.75 485.06 1032.17 482.73 1019.75 484.46 C 1019.79 548.98 1019.77 613.50 1019.78 678.02 C 1019.99 681.82 1018.08 685.56 1015.06 687.82 C 1011.65 690.51 1007.07 690.14 1003.01 689.86 C 940.00 689.77 876.97 689.91 814.00 689.99 C 802.32 690.38 790.66 689.57 779.00 690.13 C 766.36 689.28 753.67 690.90 741.04 689.90 C 735.26 689.46 730.70 683.74 731.20 678.03 C 731.22 553.33 731.17 428.62 731.27 303.91 C 732.90 304.07 734.53 304.16 736.18 304.20 C 735.03 304.39 733.90 304.59 732.77 304.79 C 732.49 327.29 732.52 349.80 732.80 372.30 C 827.97 372.43 923.16 372.34 1018.33 372.27 M 732.98 373.41 C 732.47 421.92 732.89 470.45 732.75 518.97 C 732.74 571.99 732.75 625.02 732.73 678.04 C 732.56 683.21 736.66 688.19 741.97 688.32 C 830.66 688.37 919.35 688.32 1008.05 688.32 C 1013.60 688.56 1018.32 683.53 1018.13 678.04 C 1018.06 628.34 1018.14 578.65 1018.14 528.95 C 1017.71 509.99 1018.61 491.00 1017.89 472.04 C 1017.85 460.69 1018.41 449.35 1017.99 438.00 C 1017.80 422.67 1018.20 407.33 1018.05 391.99 C 1017.48 385.78 1018.45 379.55 1017.91 373.35 C 922.94 373.53 827.96 373.30 732.98 373.41 Z" />
<path fill="#001d94" opacity="1.00" d=" M 1079.79 340.80 C 1084.22 335.97 1091.19 337.42 1097.02 337.29 C 1174.04 337.30 1251.06 337.30 1328.08 337.30 C 1334.27 337.14 1340.29 342.67 1339.74 349.05 C 1339.71 393.21 1339.74 437.37 1339.70 481.53 C 1352.62 481.40 1365.54 481.58 1378.46 481.47 C 1378.42 479.02 1378.44 476.58 1378.40 474.14 C 1378.88 474.25 1379.84 474.48 1380.32 474.60 C 1379.83 477.32 1379.94 480.23 1378.73 482.79 C 1373.85 483.70 1368.88 482.80 1363.97 483.02 C 1356.08 483.28 1348.18 482.97 1340.30 483.36 L 1339.96 484.39 C 1339.43 525.89 1339.83 567.44 1339.72 608.96 C 1339.54 612.49 1340.27 616.31 1338.63 619.60 C 1336.62 623.54 1332.38 626.29 1327.93 626.32 C 1247.96 626.40 1167.99 626.36 1088.02 626.33 C 1081.60 626.29 1076.24 620.30 1076.32 614.01 C 1076.30 528.02 1076.33 442.03 1076.31 356.05 C 1076.29 350.85 1075.47 344.68 1079.79 340.80 M 1086.22 339.30 C 1081.22 340.03 1077.67 345.03 1078.16 349.98 C 1078.15 438.01 1078.16 526.05 1078.15 614.09 C 1077.68 620.82 1084.79 625.70 1091.07 624.57 C 1169.74 624.60 1248.41 624.58 1327.07 624.57 C 1332.50 625.13 1337.89 620.59 1337.75 615.04 C 1337.85 526.37 1337.73 437.69 1337.79 349.02 C 1338.29 344.06 1334.12 339.05 1329.03 339.21 C 1301.35 339.06 1273.68 339.23 1246.00 339.18 C 1192.74 339.27 1139.47 338.97 1086.22 339.30 Z" />
<path fill="#001d94" opacity="1.00" d=" M 427.44 342.16 C 427.98 342.27 429.06 342.49 429.60 342.60 L 429.57 342.79 C 429.16 345.50 428.78 348.22 428.43 350.94 C 422.99 351.09 417.31 352.03 412.09 350.02 C 417.17 348.97 422.38 349.41 427.52 349.48 C 427.50 347.04 427.47 344.60 427.44 342.16 Z" />
<path fill="#001d94" opacity="1.00" d=" M 427.50 408.09 C 427.90 408.26 428.71 408.60 429.11 408.77 C 428.78 411.59 428.60 414.43 428.28 417.25 C 423.24 417.14 418.10 417.48 413.21 415.97 C 417.92 415.05 422.74 415.45 427.51 415.51 C 427.51 413.03 427.49 410.56 427.50 408.09 Z" />
<path fill="#001d94" opacity="1.00" d=" M 445.76 464.95 C 445.67 459.58 450.69 455.13 455.96 455.44 C 511.63 455.42 567.30 455.37 622.97 455.45 C 627.77 455.31 632.49 459.13 632.75 464.04 C 633.03 470.44 632.72 476.85 632.71 483.25 C 632.68 484.06 632.68 484.88 632.71 485.70 C 632.79 491.46 633.01 497.23 632.75 502.99 C 632.67 506.73 629.94 509.95 626.45 511.10 C 626.74 510.66 627.33 509.78 627.62 509.33 C 629.21 507.15 631.22 504.93 631.01 502.02 C 631.26 490.00 631.16 477.98 631.09 465.96 C 631.33 462.56 629.62 458.98 626.35 457.69 C 623.62 456.95 620.75 457.31 617.97 457.24 C 563.98 457.27 509.98 457.22 455.99 457.26 C 451.20 456.71 447.01 461.25 447.49 465.94 C 447.54 477.98 447.54 490.03 447.52 502.07 C 447.39 504.52 448.91 506.58 450.28 508.47 C 449.86 508.68 449.03 509.09 448.61 509.30 C 446.95 507.24 445.69 504.76 445.77 502.05 C 445.68 489.69 445.69 477.31 445.76 464.95 Z" />
<path fill="#001d94" opacity="1.00" d=" M 445.68 530.20 C 446.15 530.03 447.09 529.68 447.56 529.50 C 447.44 542.33 447.57 555.15 447.51 567.98 C 447.34 570.73 448.56 573.53 450.87 575.10 C 454.06 577.46 458.27 576.44 461.96 576.64 C 516.28 576.51 570.61 576.61 624.93 576.65 L 625.12 578.27 C 570.41 578.28 515.70 578.40 461.00 578.30 C 457.35 578.23 453.36 578.74 450.14 576.66 C 447.02 575.00 445.60 571.34 445.73 567.95 C 445.72 555.37 445.72 542.78 445.68 530.20 Z" />
<path fill="#001d94" opacity="1.00" d=" M 447.68 592.73 C 450.06 589.53 454.26 588.74 458.01 588.83 C 512.67 588.84 567.33 588.82 621.99 588.81 C 626.93 588.47 632.14 591.96 632.67 597.09 C 632.96 603.51 632.78 609.96 632.79 616.39 C 632.76 617.17 632.75 617.96 632.76 618.75 C 632.70 624.52 632.98 630.30 632.77 636.08 C 632.68 641.09 628.09 645.42 623.10 645.31 C 567.41 645.19 511.72 645.32 456.03 645.25 C 450.84 645.54 445.75 641.28 445.73 635.98 C 445.60 625.33 445.92 614.67 445.62 604.02 C 445.65 600.21 445.12 595.90 447.68 592.73 M 451.45 591.56 C 449.18 592.88 447.63 595.44 447.60 598.08 C 447.46 610.71 447.52 623.35 447.57 635.99 C 447.51 640.35 451.81 643.77 456.01 643.53 C 511.68 643.51 567.36 643.54 623.04 643.53 C 627.09 643.79 631.19 640.24 630.90 636.06 C 631.34 625.06 631.06 614.05 631.20 603.05 C 631.15 600.06 631.47 596.81 629.83 594.16 C 628.25 591.45 624.93 590.29 621.93 590.55 C 568.30 590.53 514.67 590.58 461.03 590.53 C 457.84 590.69 454.34 589.82 451.45 591.56 Z" />
<path fill="#001d94" opacity="1.00" d=" M 34.74 600.42 L 36.42 599.35 C 37.21 604.43 41.57 608.92 46.95 608.50 C 146.99 608.56 247.03 608.46 347.07 608.54 C 351.51 608.98 355.33 605.97 357.03 602.04 C 357.26 602.64 357.71 603.82 357.93 604.42 C 355.48 607.97 351.46 610.61 347.01 610.32 C 246.68 610.34 146.36 610.34 46.04 610.33 C 40.47 610.21 35.96 605.67 34.74 600.42 Z" />
<path fill="#001d94" opacity="1.00" d=" M 537.48 736.52 C 538.23 736.52 538.99 736.52 539.75 736.53 C 539.76 749.70 539.67 762.87 539.75 776.05 C 540.16 777.38 540.49 778.76 540.75 780.15 C 541.94 782.21 543.04 784.49 545.13 785.81 C 548.25 788.12 552.32 787.77 555.99 787.79 C 704.00 787.77 852.02 787.78 1000.04 787.77 C 1001.53 787.72 1003.00 787.91 1004.46 788.35 C 1004.47 788.86 1004.51 789.88 1004.53 790.39 C 856.00 790.51 707.47 790.39 558.94 790.45 C 553.86 790.42 548.32 791.05 543.83 788.15 C 539.58 785.33 537.29 780.04 537.43 775.02 C 537.48 762.18 537.37 749.35 537.48 736.52 Z" />
</g>
<g id="#2a48b2ff">
<path fill="#2a48b2" opacity="1.00" d=" M 405.29 305.96 C 405.25 302.57 405.25 299.16 406.01 295.85 C 405.76 315.30 406.15 334.75 405.90 354.20 C 407.78 352.55 409.81 351.08 412.09 350.02 C 417.31 352.03 422.99 351.09 428.43 350.94 C 428.78 348.22 429.16 345.50 429.57 342.79 C 434.69 345.26 439.71 347.94 444.71 350.64 C 439.00 353.60 433.31 356.60 427.50 359.39 C 427.45 357.00 427.43 354.62 427.40 352.24 C 422.76 352.33 418.03 351.69 413.47 352.69 C 410.01 353.46 407.70 356.37 406.30 359.44 C 403.10 354.38 405.61 348.46 405.33 342.96 C 405.23 330.62 405.45 318.29 405.29 305.96 Z" />
</g>
<g id="#fafaf9ff">
<path fill="#fafaf9" opacity="1.00" d=" M 30.28 303.75 C 32.27 302.88 34.20 301.88 36.02 300.71 C 36.73 300.67 38.15 300.59 38.86 300.55 C 38.67 307.46 39.04 314.39 38.62 321.30 C 37.60 321.28 35.58 321.26 34.56 321.25 C 34.53 315.98 34.63 310.71 34.51 305.44 C 33.23 305.96 31.93 306.45 30.63 306.96 C 30.51 305.88 30.40 304.81 30.28 303.75 Z" />
</g>
<g id="#3341b5ff">
<path fill="#3341b5" opacity="1.00" d=" M 56.41 310.84 C 153.28 310.65 250.15 310.78 347.02 310.78 C 350.78 310.48 354.07 312.56 356.71 315.02 L 356.75 315.44 C 357.85 324.57 357.42 333.78 357.49 342.95 C 357.39 352.04 357.61 361.13 357.37 370.21 C 278.56 370.42 199.75 370.22 120.94 370.31 C 92.64 370.28 64.34 370.32 36.04 370.18 C 36.10 360.13 35.50 350.08 35.82 340.02 C 35.92 337.15 35.73 334.26 34.95 331.49 C 46.14 331.92 56.46 322.09 56.41 310.84 Z" />
</g>
<g id="#00229bff">
<path fill="#00229b" opacity="1.00" d=" M 357.49 342.95 C 357.42 333.78 357.85 324.57 356.75 315.44 C 358.51 317.93 359.65 320.91 359.44 324.01 C 359.34 339.96 359.56 355.92 359.31 371.87 L 357.55 371.58 C 338.05 371.13 318.53 371.53 299.02 371.40 C 218.03 371.41 137.05 371.41 56.06 371.41 C 49.49 371.53 42.91 371.23 36.35 371.59 L 34.70 371.95 C 34.39 362.28 34.69 352.62 34.61 342.95 C 34.66 339.13 34.32 335.28 34.95 331.49 C 35.73 334.26 35.92 337.15 35.82 340.02 C 35.50 350.08 36.10 360.13 36.04 370.18 C 64.34 370.32 92.64 370.28 120.94 370.31 C 199.75 370.22 278.56 370.42 357.37 370.21 C 357.61 361.13 357.39 352.04 357.49 342.95 Z" />
<path fill="#00229b" opacity="1.00" d=" M 357.47 483.11 L 359.29 483.28 C 370.43 483.33 381.58 483.27 392.73 483.31 C 392.87 483.90 393.14 485.09 393.28 485.68 C 381.94 485.74 370.59 485.81 359.26 485.66 C 358.82 485.45 357.94 485.03 357.50 484.82 C 357.50 484.39 357.48 483.54 357.47 483.11 Z" />
</g>
<g id="#11309dff">
<path fill="#11309d" opacity="1.00" d=" M 446.70 327.74 C 448.51 324.47 452.21 322.26 455.99 322.48 C 510.65 322.40 565.31 322.51 619.98 322.43 C 622.53 322.50 625.27 322.14 627.62 323.40 C 630.87 324.87 632.92 328.40 632.91 331.94 C 633.00 337.74 632.69 343.55 633.11 349.34 C 643.44 349.32 653.76 349.40 664.09 349.41 C 668.00 349.45 672.17 350.71 674.66 353.91 C 674.88 353.84 675.31 353.71 675.52 353.64 C 676.41 353.18 677.29 352.68 678.16 352.16 C 678.15 391.77 678.18 431.37 678.16 470.97 C 677.80 476.10 681.20 481.28 686.28 482.52 C 694.56 484.47 703.09 482.01 711.44 483.35 C 711.43 484.13 711.42 484.92 711.43 485.71 C 703.93 485.91 696.43 485.59 688.95 485.83 C 683.24 486.23 678.09 491.10 678.19 496.97 C 678.13 553.98 678.15 611.00 678.18 668.01 C 678.38 673.55 678.17 679.86 673.99 684.05 C 669.90 688.35 663.49 688.36 657.98 688.28 C 649.70 688.22 641.41 688.40 633.13 688.24 C 632.82 693.15 632.89 698.06 632.85 702.98 C 632.99 708.13 628.06 712.49 623.02 712.31 C 567.34 712.34 511.66 712.29 455.98 712.34 C 450.85 712.48 445.75 708.25 445.66 702.98 C 445.79 689.87 445.57 676.75 445.74 663.64 C 446.82 659.07 451.14 655.58 455.92 656.05 C 511.61 655.94 567.30 655.84 622.98 656.09 C 627.97 655.69 632.73 659.90 632.78 664.94 C 633.07 671.77 632.77 678.61 632.95 685.45 C 642.29 685.45 651.62 685.50 660.96 685.53 C 664.01 685.56 667.18 685.29 669.86 683.70 C 673.66 681.66 675.68 677.27 675.43 673.05 C 675.39 653.32 675.48 633.60 675.36 613.87 C 672.57 616.55 669.06 618.81 665.04 618.64 C 654.28 618.72 643.52 618.75 632.76 618.75 C 632.75 617.96 632.76 617.17 632.79 616.39 C 643.20 616.31 653.61 616.51 664.02 616.39 C 670.05 616.36 675.59 611.18 675.38 605.03 C 675.44 585.54 675.45 566.04 675.38 546.55 C 672.41 549.67 668.30 551.52 663.97 551.45 C 653.67 551.42 643.37 551.47 633.07 551.41 C 632.71 557.62 633.10 563.85 632.77 570.07 C 632.48 574.23 628.84 577.11 625.12 578.27 L 624.93 576.65 C 627.14 575.41 629.61 574.05 630.45 571.48 C 631.16 569.06 630.99 566.49 631.06 564.00 C 630.85 552.97 631.38 541.93 630.94 530.90 C 630.87 526.36 626.28 523.40 622.05 523.73 C 566.71 523.77 511.35 523.72 456.01 523.76 C 452.11 523.39 449.13 526.24 447.56 529.50 C 447.09 529.68 446.15 530.03 445.68 530.20 C 446.56 524.89 451.77 521.41 457.00 521.91 C 512.36 521.95 567.71 521.83 623.07 521.95 C 627.71 521.78 632.24 525.37 632.72 530.06 C 633.12 536.28 632.69 542.51 632.90 548.74 C 643.63 548.44 654.37 548.88 665.11 548.56 C 670.15 548.30 675.16 544.35 675.29 539.05 C 675.61 525.01 675.24 510.96 675.44 496.92 C 675.56 492.55 677.88 488.64 681.06 485.78 C 664.94 485.72 648.83 485.75 632.71 485.70 C 632.68 484.88 632.68 484.06 632.71 483.25 C 648.75 483.32 664.78 483.14 680.82 483.33 C 677.86 480.29 675.51 476.47 675.45 472.11 C 675.28 457.73 675.53 443.33 675.38 428.95 C 675.42 423.87 671.37 419.31 666.45 418.36 C 661.36 417.29 656.11 417.79 650.96 417.91 C 645.02 418.55 639.08 417.75 633.14 417.68 C 632.77 423.81 633.07 429.96 632.80 436.09 C 632.69 441.04 627.96 445.18 623.05 444.83 C 567.03 444.87 510.99 444.83 454.97 444.88 C 449.81 444.95 445.65 440.02 445.75 435.03 C 445.69 422.68 445.63 410.32 445.76 397.97 C 445.66 392.57 450.81 388.34 456.04 388.64 C 511.69 388.60 567.33 388.63 622.98 388.60 C 627.74 388.45 632.44 392.16 632.74 397.05 C 633.09 403.18 632.79 409.34 632.90 415.48 C 643.48 415.35 654.07 415.37 664.65 415.49 C 668.86 415.47 672.68 417.59 675.39 420.72 C 675.42 401.50 675.41 382.27 675.41 363.05 C 675.54 358.76 672.84 354.53 668.82 353.00 C 665.39 351.68 661.65 351.77 658.04 351.75 C 649.74 351.83 641.45 351.82 633.16 351.86 C 632.68 357.91 633.10 363.99 632.76 370.04 C 632.55 374.21 629.12 377.89 624.98 378.41 C 620.98 378.76 616.96 378.49 612.96 378.54 C 560.31 378.47 507.65 378.57 455.00 378.49 C 450.68 378.55 447.19 375.16 445.82 371.28 C 445.44 359.88 446.00 348.45 445.64 337.03 C 445.74 333.93 445.14 330.58 446.70 327.74 M 453.38 324.51 C 450.01 325.20 447.59 328.63 447.65 332.00 C 447.48 343.98 447.63 355.97 447.57 367.95 C 447.43 370.89 448.49 374.27 451.33 375.61 C 453.64 377.00 456.41 376.67 458.99 376.71 C 513.66 376.70 568.34 376.75 623.01 376.68 C 627.26 377.15 631.39 373.31 630.94 369.00 C 630.82 356.64 631.08 344.28 631.02 331.93 C 631.28 327.22 626.53 323.61 622.04 324.33 C 565.82 324.41 509.58 324.12 453.38 324.51 M 453.51 390.70 C 449.87 391.57 447.27 395.25 447.54 398.97 C 447.70 411.30 447.48 423.63 447.63 435.95 C 447.71 440.23 451.90 443.41 456.02 443.12 C 511.35 443.19 566.67 443.10 621.99 443.18 C 625.93 443.68 630.33 441.24 630.80 437.05 C 631.24 424.05 630.87 411.03 631.02 398.01 C 631.20 393.77 627.17 390.10 622.99 390.43 C 580.32 390.42 537.65 390.41 494.99 390.43 C 481.17 390.59 467.31 390.08 453.51 390.70 M 452.18 658.34 C 449.32 659.69 447.38 662.85 447.54 666.03 C 447.69 678.34 447.39 690.66 447.63 702.97 C 447.62 707.29 451.83 710.77 456.04 710.45 C 511.71 710.43 567.38 710.46 623.06 710.43 C 625.47 710.53 627.90 709.34 629.37 707.42 C 631.62 704.44 630.83 700.46 631.06 696.99 C 630.62 686.31 631.25 675.63 631.01 664.95 C 630.93 660.45 626.36 657.16 622.05 657.62 C 568.05 657.60 514.05 657.56 460.05 657.61 C 457.43 657.70 454.65 657.25 452.18 658.34 Z" />
</g>
<g id="#fefefeff">
<path fill="#fefefe" opacity="1.00" d=" M 1086.22 339.30 C 1139.47 338.97 1192.74 339.27 1246.00 339.18 C 1273.68 339.23 1301.35 339.06 1329.03 339.21 C 1334.12 339.05 1338.29 344.06 1337.79 349.02 C 1337.73 437.69 1337.85 526.37 1337.75 615.04 C 1337.89 620.59 1332.50 625.13 1327.07 624.57 C 1248.41 624.58 1169.74 624.60 1091.07 624.57 C 1084.79 625.70 1077.68 620.82 1078.15 614.09 C 1078.16 526.05 1078.15 438.01 1078.16 349.98 C 1077.67 345.03 1081.22 340.03 1086.22 339.30 M 1097.96 354.23 L 1098.34 354.67 C 1094.93 355.35 1092.54 358.64 1092.71 362.07 C 1092.62 372.44 1092.47 382.83 1092.80 393.20 C 1094.45 395.73 1096.61 398.58 1099.93 398.67 C 1172.27 398.60 1244.63 398.71 1316.98 398.60 C 1321.45 398.71 1325.18 394.40 1324.88 390.02 C 1324.90 381.68 1324.80 373.35 1324.85 365.01 C 1324.86 361.85 1324.75 358.14 1322.01 356.02 C 1318.77 353.03 1314.05 354.02 1310.06 353.88 C 1251.05 353.88 1192.05 353.88 1133.04 353.88 C 1121.35 354.03 1109.63 353.53 1097.96 354.23 M 1098.20 407.18 C 1094.94 408.32 1092.49 411.51 1092.69 415.03 C 1092.55 423.68 1092.69 432.34 1092.51 441.00 C 1092.39 443.83 1092.66 447.03 1095.03 448.97 C 1097.85 452.00 1102.29 451.19 1106.01 451.26 C 1176.01 451.32 1246.00 451.25 1316.00 451.27 C 1320.62 451.82 1325.01 447.68 1324.72 443.04 C 1324.85 435.05 1324.69 427.06 1324.86 419.07 C 1324.77 415.78 1325.24 411.89 1322.55 409.44 C 1319.45 405.72 1314.20 406.86 1309.97 406.69 C 1245.67 406.75 1181.37 406.66 1117.07 406.74 C 1110.79 406.99 1104.41 406.12 1098.20 407.18 M 1096.43 461.60 C 1094.24 462.95 1092.67 465.39 1092.77 468.02 C 1092.74 477.33 1092.84 486.65 1092.77 495.97 C 1092.60 500.27 1096.74 503.81 1100.94 503.42 C 1132.63 503.44 1164.31 503.40 1196.00 503.43 C 1200.25 504.01 1204.43 500.39 1204.08 496.04 C 1203.62 486.68 1203.94 477.30 1203.85 467.94 C 1204.14 464.46 1201.46 460.85 1197.97 460.46 C 1165.65 460.42 1133.32 460.45 1100.99 460.41 C 1099.38 460.36 1097.76 460.69 1096.43 461.60 M 1212.87 466.89 C 1212.67 476.59 1212.96 486.31 1212.78 496.01 C 1212.52 499.25 1214.81 502.43 1217.96 503.24 C 1220.28 503.50 1222.62 503.34 1224.96 503.35 C 1255.64 503.41 1286.32 503.36 1316.99 503.38 C 1320.13 503.70 1322.74 501.61 1324.06 498.92 C 1324.62 487.68 1324.58 476.37 1324.08 465.13 C 1322.78 462.44 1320.23 460.08 1317.04 460.46 C 1285.03 460.60 1253.02 460.40 1221.01 460.51 C 1217.17 460.17 1213.17 462.91 1212.87 466.89 M 1098.25 512.34 C 1094.87 513.25 1092.56 516.62 1092.64 520.09 C 1092.39 529.69 1092.42 539.31 1092.64 548.91 C 1092.58 552.89 1095.84 557.02 1100.00 557.00 C 1172.01 557.02 1244.02 556.97 1316.04 557.02 C 1320.96 557.60 1325.24 552.87 1324.79 548.07 C 1324.77 538.69 1324.93 529.31 1324.71 519.94 C 1324.91 515.33 1320.40 511.62 1315.95 511.99 C 1249.95 512.02 1183.95 511.99 1117.96 512.03 C 1111.39 512.26 1104.77 511.51 1098.25 512.34 M 1097.28 565.32 C 1094.38 566.72 1092.46 569.76 1092.61 573.00 C 1092.46 582.33 1092.72 591.67 1092.57 601.01 C 1092.36 605.97 1097.22 609.92 1102.02 609.37 C 1173.35 609.30 1244.68 609.41 1316.01 609.34 C 1320.64 609.76 1325.14 605.73 1324.70 600.99 C 1324.62 591.65 1324.73 582.30 1324.62 572.96 C 1324.94 568.75 1321.22 564.81 1317.05 564.74 C 1245.02 564.63 1172.98 564.80 1100.95 564.70 C 1099.65 564.63 1098.43 564.84 1097.28 565.32 Z" />
<path fill="#fefefe" opacity="1.00" d=" M 444.71 350.64 C 445.44 357.48 443.48 364.71 445.82 371.28 C 447.19 375.16 450.68 378.55 455.00 378.49 C 507.65 378.57 560.31 378.47 612.96 378.54 C 616.96 378.49 620.98 378.76 624.98 378.41 C 629.12 377.89 632.55 374.21 632.76 370.04 C 633.10 363.99 632.68 357.91 633.16 351.86 C 641.45 351.82 649.74 351.83 658.04 351.75 C 661.65 351.77 665.39 351.68 668.82 353.00 C 672.84 354.53 675.54 358.76 675.41 363.05 C 675.41 382.27 675.42 401.50 675.39 420.72 C 672.68 417.59 668.86 415.47 664.65 415.49 C 654.07 415.37 643.48 415.35 632.90 415.48 C 632.79 409.34 633.09 403.18 632.74 397.05 C 632.44 392.16 627.74 388.45 622.98 388.60 C 567.33 388.63 511.69 388.60 456.04 388.64 C 450.81 388.34 445.66 392.57 445.76 397.97 C 445.63 410.32 445.69 422.68 445.75 435.03 C 445.65 440.02 449.81 444.95 454.97 444.88 C 510.99 444.83 567.03 444.87 623.05 444.83 C 627.96 445.18 632.69 441.04 632.80 436.09 C 633.07 429.96 632.77 423.81 633.14 417.68 C 639.08 417.75 645.02 418.55 650.96 417.91 C 656.11 417.79 661.36 417.29 666.45 418.36 C 671.37 419.31 675.42 423.87 675.38 428.95 C 675.53 443.33 675.28 457.73 675.45 472.11 C 675.51 476.47 677.86 480.29 680.82 483.33 C 664.78 483.14 648.75 483.32 632.71 483.25 C 632.72 476.85 633.03 470.44 632.75 464.04 C 632.49 459.13 627.77 455.31 622.97 455.45 C 567.30 455.37 511.63 455.42 455.96 455.44 C 450.69 455.13 445.67 459.58 445.76 464.95 C 445.69 477.31 445.68 489.69 445.77 502.05 C 445.69 504.76 446.95 507.24 448.61 509.30 C 450.79 510.74 453.30 511.77 455.97 511.70 C 510.32 511.73 564.67 511.64 619.02 511.72 C 621.48 511.63 624.06 511.91 626.45 511.10 C 629.94 509.95 632.67 506.73 632.75 502.99 C 633.01 497.23 632.79 491.46 632.71 485.70 C 648.83 485.75 664.94 485.72 681.06 485.78 C 677.88 488.64 675.56 492.55 675.44 496.92 C 675.24 510.96 675.61 525.01 675.29 539.05 C 675.16 544.35 670.15 548.30 665.11 548.56 C 654.37 548.88 643.63 548.44 632.90 548.74 C 632.69 542.51 633.12 536.28 632.72 530.06 C 632.24 525.37 627.71 521.78 623.07 521.95 C 567.71 521.83 512.36 521.95 457.00 521.91 C 451.77 521.41 446.56 524.89 445.68 530.20 C 445.72 542.78 445.72 555.37 445.73 567.95 C 445.60 571.34 447.02 575.00 450.14 576.66 C 453.36 578.74 457.35 578.23 461.00 578.30 C 515.70 578.40 570.41 578.28 625.12 578.27 C 628.84 577.11 632.48 574.23 632.77 570.07 C 633.10 563.85 632.71 557.62 633.07 551.41 C 643.37 551.47 653.67 551.42 663.97 551.45 C 668.30 551.52 672.41 549.67 675.38 546.55 C 675.45 566.04 675.44 585.54 675.38 605.03 C 675.59 611.18 670.05 616.36 664.02 616.39 C 653.61 616.51 643.20 616.31 632.79 616.39 C 632.78 609.96 632.96 603.51 632.67 597.09 C 632.14 591.96 626.93 588.47 621.99 588.81 C 567.33 588.82 512.67 588.84 458.01 588.83 C 454.26 588.74 450.06 589.53 447.68 592.73 C 445.12 595.90 445.65 600.21 445.62 604.02 C 445.92 614.67 445.60 625.33 445.73 635.98 C 445.75 641.28 450.84 645.54 456.03 645.25 C 511.72 645.32 567.41 645.19 623.10 645.31 C 628.09 645.42 632.68 641.09 632.77 636.08 C 632.98 630.30 632.70 624.52 632.76 618.75 C 643.52 618.75 654.28 618.72 665.04 618.64 C 669.06 618.81 672.57 616.55 675.36 613.87 C 675.48 633.60 675.39 653.32 675.43 673.05 C 675.68 677.27 673.66 681.66 669.86 683.70 C 667.18 685.29 664.01 685.56 660.96 685.53 C 651.62 685.50 642.29 685.45 632.95 685.45 C 632.77 678.61 633.07 671.77 632.78 664.94 C 632.73 659.90 627.97 655.69 622.98 656.09 C 567.30 655.84 511.61 655.94 455.92 656.05 C 451.14 655.58 446.82 659.07 445.74 663.64 C 443.71 671.02 445.31 678.87 444.71 686.45 C 440.03 684.39 435.54 681.96 430.98 679.66 C 429.80 679.07 428.62 678.53 427.42 678.02 C 427.45 680.52 427.53 683.03 427.57 685.54 C 423.37 685.42 419.15 685.75 414.98 685.23 C 409.90 684.50 405.65 680.02 405.52 674.84 C 405.30 654.84 405.65 634.82 405.32 614.81 C 407.71 616.37 410.17 617.86 412.92 618.72 C 417.67 619.57 422.51 619.22 427.31 619.19 C 427.36 621.51 427.39 623.84 427.45 626.17 C 433.26 623.65 438.79 620.54 444.47 617.77 C 438.95 614.45 433.27 611.33 427.35 608.78 C 427.31 611.28 427.31 613.77 427.32 616.28 C 422.82 616.33 418.33 616.36 413.84 616.43 C 409.59 615.22 405.28 611.79 405.49 606.98 C 405.49 587.08 405.49 567.18 405.44 547.28 C 411.44 552.90 419.97 551.34 427.44 551.52 C 427.45 554.02 427.46 556.51 427.52 559.02 C 428.65 558.51 429.77 557.99 430.90 557.48 C 435.54 555.16 440.03 552.55 444.61 550.11 C 439.73 547.51 434.81 544.98 429.79 542.66 C 429.23 542.40 428.11 541.87 427.55 541.61 C 427.50 543.95 427.47 546.31 427.44 548.67 C 422.75 548.54 418.04 548.97 413.38 548.48 C 409.45 547.60 405.37 544.29 405.51 539.95 C 405.53 525.95 405.52 511.94 405.52 497.94 C 405.65 493.16 402.94 489.05 399.82 485.69 C 409.05 485.74 418.27 485.72 427.50 485.73 C 427.47 488.18 427.43 490.63 427.42 493.09 C 433.21 490.34 438.84 487.26 444.56 484.35 C 439.05 481.09 433.18 478.49 427.50 475.57 C 427.43 478.12 427.44 480.68 427.48 483.24 C 418.25 483.28 409.02 483.28 399.79 483.40 C 402.83 480.26 405.60 476.48 405.64 471.92 C 405.80 457.62 405.62 443.32 405.70 429.03 C 405.59 426.22 407.03 423.74 408.37 421.39 C 413.74 416.95 421.00 418.38 427.41 418.32 C 427.40 420.76 427.41 423.20 427.44 425.65 C 432.08 423.24 436.75 420.86 441.39 418.45 C 442.31 417.85 443.49 417.43 444.01 416.39 C 439.08 413.78 434.12 411.23 429.11 408.77 C 428.71 408.60 427.90 408.26 427.50 408.09 C 427.49 410.56 427.51 413.03 427.51 415.51 C 422.74 415.45 417.92 415.05 413.21 415.97 C 412.01 416.18 410.87 416.64 409.76 417.10 C 408.38 418.17 407.07 419.31 405.77 420.47 C 405.91 405.65 405.80 390.82 405.83 376.00 C 405.88 370.48 405.55 364.93 406.30 359.44 C 407.70 356.37 410.01 353.46 413.47 352.69 C 418.03 351.69 422.76 352.33 427.40 352.24 C 427.43 354.62 427.45 357.00 427.50 359.39 C 433.31 356.60 439.00 353.60 444.71 350.64 Z" />
<path fill="#fefefe" opacity="1.00" d=" M 732.98 373.41 C 827.96 373.30 922.94 373.53 1017.91 373.35 C 1018.45 379.55 1017.48 385.78 1018.05 391.99 C 1018.20 407.33 1017.80 422.67 1017.99 438.00 C 1018.41 449.35 1017.85 460.69 1017.89 472.04 C 1018.61 491.00 1017.71 509.99 1018.14 528.95 C 1018.14 578.65 1018.06 628.34 1018.13 678.04 C 1018.32 683.53 1013.60 688.56 1008.05 688.32 C 919.35 688.32 830.66 688.37 741.97 688.32 C 736.66 688.19 732.56 683.21 732.73 678.04 C 732.75 625.02 732.74 571.99 732.75 518.97 C 732.89 470.45 732.47 421.92 732.98 373.41 M 755.37 421.52 C 751.73 422.02 748.43 425.25 748.49 429.04 C 748.35 437.67 748.59 446.31 748.47 454.94 C 748.45 458.10 748.25 461.81 750.91 464.07 C 753.71 467.26 758.24 466.44 762.01 466.50 C 837.98 466.42 913.96 466.51 989.93 466.50 C 992.88 466.40 995.97 466.73 998.82 465.70 C 1002.41 464.01 1004.19 459.86 1003.93 456.02 C 1003.83 447.05 1004.15 438.05 1003.71 429.09 C 1003.53 424.63 999.47 421.03 995.04 421.35 C 960.68 421.35 926.32 421.29 891.97 421.27 C 846.44 421.55 800.88 421.04 755.37 421.52 M 754.56 473.75 C 752.81 475.19 751.18 476.75 749.60 478.38 C 748.90 484.90 749.32 491.45 749.23 498.00 C 749.26 502.93 748.84 507.91 749.57 512.83 C 749.96 514.94 751.81 516.31 753.47 517.48 C 758.63 518.04 763.82 517.79 769.01 517.85 C 817.01 517.93 865.01 517.77 913.01 517.86 C 923.01 517.58 933.00 518.58 942.98 517.85 C 955.97 517.95 968.97 517.78 981.96 517.86 C 987.80 518.31 993.69 518.48 999.46 517.29 C 1001.27 515.60 1003.14 513.57 1003.30 510.96 C 1003.45 502.67 1003.24 494.37 1003.35 486.07 C 1003.31 483.37 1003.66 480.53 1002.35 478.06 C 1001.49 475.84 999.20 474.83 997.29 473.74 C 916.38 473.80 835.47 473.78 754.56 473.75 M 749.64 530.39 C 748.95 542.44 748.97 554.57 749.65 566.62 C 751.54 568.68 753.85 570.90 756.93 570.41 C 836.63 570.40 916.34 570.43 996.05 570.42 C 999.48 570.71 1002.27 567.44 1003.21 564.46 C 1003.53 554.65 1003.23 544.82 1003.34 535.01 C 1003.63 530.62 999.67 525.67 994.99 526.57 C 915.30 526.57 835.60 526.56 755.91 526.57 C 753.14 526.24 751.37 528.67 749.64 530.39 M 754.32 578.36 C 750.66 579.48 748.20 583.20 748.47 587.00 C 748.43 596.34 748.50 605.68 748.51 615.03 C 748.31 619.53 752.47 623.72 757.04 623.16 C 836.36 623.15 915.68 623.18 995.01 623.14 C 999.27 623.61 1003.14 620.04 1003.74 615.95 C 1004.12 606.28 1003.85 596.59 1003.77 586.92 C 1003.92 582.14 999.89 577.62 994.97 577.96 C 915.65 577.97 836.32 577.96 757.01 577.96 C 756.33 578.06 754.99 578.26 754.32 578.36 M 754.34 630.51 C 750.69 631.50 748.27 635.27 748.49 639.00 C 748.43 648.32 748.46 657.65 748.51 666.98 C 748.12 671.59 752.40 675.79 756.99 675.38 C 836.31 675.39 915.64 675.36 994.96 675.36 C 999.67 675.81 1003.73 671.55 1003.84 666.99 C 1004.05 659.33 1003.81 651.66 1003.92 643.99 C 1003.83 640.74 1004.21 637.28 1002.61 634.31 C 1001.23 631.52 998.04 630.02 995.02 630.08 C 920.68 630.38 846.34 630.11 772.00 630.19 C 766.12 630.35 760.18 629.70 754.34 630.51 Z" />
<path fill="#fefefe" opacity="1.00" d=" M 1400.65 376.19 C 1404.44 376.19 1408.24 375.94 1412.05 375.86 C 1435.35 376.45 1458.68 376.02 1482.00 376.15 C 1538.39 376.15 1594.79 376.12 1651.18 376.20 C 1651.15 376.92 1651.08 378.37 1651.04 379.10 C 1650.78 458.08 1651.04 537.06 1650.89 616.05 C 1651.15 621.10 1647.06 625.07 1642.43 626.24 C 1632.29 625.46 1622.11 626.11 1611.95 625.84 C 1584.30 626.02 1556.65 625.46 1529.01 626.17 C 1499.35 625.54 1469.67 625.98 1440.00 625.85 C 1429.81 625.99 1419.62 625.57 1409.44 626.04 C 1404.15 625.30 1400.18 620.32 1400.62 615.00 C 1400.70 535.40 1400.59 455.80 1400.65 376.19 M 1413.40 407.10 C 1413.28 417.06 1413.33 427.03 1413.31 436.99 C 1413.16 440.18 1415.32 442.89 1418.10 444.22 C 1423.73 444.61 1429.38 444.38 1435.03 444.49 C 1492.34 444.45 1549.65 444.47 1606.96 444.49 C 1616.58 444.20 1626.28 445.01 1635.86 444.00 C 1638.22 442.38 1640.63 440.05 1640.34 436.91 C 1640.35 426.97 1640.42 417.03 1640.34 407.09 C 1640.18 402.41 1635.40 399.30 1631.00 399.76 C 1561.34 399.81 1491.67 399.73 1422.00 399.80 C 1417.84 399.60 1413.39 402.68 1413.40 407.10 M 1419.34 455.39 C 1415.52 456.27 1412.63 460.06 1412.77 463.98 C 1412.68 473.31 1412.83 482.64 1412.73 491.97 C 1412.37 496.94 1417.13 501.14 1421.99 500.70 C 1491.32 500.86 1560.65 500.59 1629.97 500.76 C 1633.14 500.87 1636.79 500.44 1638.86 497.71 C 1641.16 495.00 1640.80 491.26 1640.80 487.96 C 1640.59 479.95 1640.97 471.93 1640.75 463.93 C 1640.73 460.16 1638.20 456.56 1634.55 455.53 C 1631.76 454.83 1628.85 455.07 1626.03 455.05 C 1566.00 455.07 1505.98 455.12 1445.96 455.12 C 1437.09 455.40 1428.17 454.68 1419.34 455.39 M 1413.57 517.03 C 1413.11 527.79 1413.13 538.58 1413.68 549.34 C 1415.55 551.61 1417.64 554.59 1420.99 554.28 C 1492.07 554.25 1563.16 554.24 1634.25 554.28 C 1637.38 553.06 1640.07 550.42 1640.24 546.89 C 1640.35 537.59 1640.21 528.28 1640.30 518.97 C 1640.45 516.47 1639.59 513.90 1637.83 512.11 C 1635.73 510.17 1632.72 510.26 1630.08 510.20 C 1560.73 510.22 1491.39 510.19 1422.04 510.21 C 1417.94 509.66 1413.53 512.71 1413.57 517.03 M 1417.48 564.80 C 1415.93 565.80 1414.88 567.35 1413.70 568.71 C 1412.94 580.23 1413.32 591.80 1413.60 603.34 C 1414.81 605.83 1416.88 608.50 1419.97 608.38 C 1491.76 608.35 1563.54 608.36 1635.33 608.36 C 1637.54 606.46 1640.44 604.36 1640.26 601.08 C 1640.25 591.11 1640.33 581.13 1640.24 571.16 C 1640.02 566.97 1636.21 563.82 1632.06 564.24 C 1564.69 564.09 1497.32 564.23 1429.94 564.17 C 1425.78 564.13 1421.56 563.93 1417.48 564.80 Z" />
<path fill="#fefefe" opacity="1.00" d=" M 447.56 529.50 C 449.13 526.24 452.11 523.39 456.01 523.76 C 511.35 523.72 566.71 523.77 622.05 523.73 C 626.28 523.40 630.87 526.36 630.94 530.90 C 631.38 541.93 630.85 552.97 631.06 564.00 C 630.99 566.49 631.16 569.06 630.45 571.48 C 629.61 574.05 627.14 575.41 624.93 576.65 C 570.61 576.61 516.28 576.51 461.96 576.64 C 458.27 576.44 454.06 577.46 450.87 575.10 C 448.56 573.53 447.34 570.73 447.51 567.98 C 447.57 555.15 447.44 542.33 447.56 529.50 Z" />
</g>
<g id="#a4a8b6ff">
<path fill="#a4a8b6" opacity="1.00" d=" M 1097.96 354.23 C 1109.63 353.53 1121.35 354.03 1133.04 353.88 C 1192.05 353.88 1251.05 353.88 1310.06 353.88 C 1314.05 354.02 1318.77 353.03 1322.01 356.02 C 1324.75 358.14 1324.86 361.85 1324.85 365.01 C 1324.80 373.35 1324.90 381.68 1324.88 390.02 C 1325.18 394.40 1321.45 398.71 1316.98 398.60 C 1244.63 398.71 1172.27 398.60 1099.93 398.67 C 1096.61 398.58 1094.45 395.73 1092.80 393.20 L 1094.11 393.13 C 1096.20 394.58 1098.05 396.95 1100.88 396.76 C 1124.57 397.17 1148.26 396.87 1171.96 396.95 C 1201.63 396.88 1231.30 397.17 1260.97 396.74 C 1279.32 396.72 1297.67 396.86 1316.01 396.75 C 1319.37 397.05 1322.89 394.61 1322.91 391.05 C 1323.07 381.34 1323.05 371.61 1322.93 361.89 C 1323.03 358.74 1320.30 355.70 1317.06 355.99 C 1244.48 355.90 1171.90 356.12 1099.32 355.79 C 1099.07 355.51 1098.58 354.95 1098.34 354.67 L 1097.96 354.23 Z" />
</g>
<g id="#8a8fa1ff">
<path fill="#8a8fa1" opacity="1.00" d=" M 1092.71 362.07 C 1092.54 358.64 1094.93 355.35 1098.34 354.67 C 1098.58 354.95 1099.07 355.51 1099.32 355.79 C 1096.67 356.74 1094.11 358.87 1094.24 361.93 C 1093.98 372.32 1094.33 382.73 1094.11 393.13 L 1092.80 393.20 C 1092.47 382.83 1092.62 372.44 1092.71 362.07 Z" />
</g>
<g id="#f7f7f9ff">
<path fill="#f7f7f9" opacity="1.00" d=" M 1094.24 361.93 C 1094.11 358.87 1096.67 356.74 1099.32 355.79 C 1171.90 356.12 1244.48 355.90 1317.06 355.99 C 1320.30 355.70 1323.03 358.74 1322.93 361.89 C 1323.05 371.61 1323.07 381.34 1322.91 391.05 C 1322.89 394.61 1319.37 397.05 1316.01 396.75 C 1297.67 396.86 1279.32 396.72 1260.97 396.74 C 1231.30 397.17 1201.63 396.88 1171.96 396.95 C 1148.26 396.87 1124.57 397.17 1100.88 396.76 C 1098.05 396.95 1096.20 394.58 1094.11 393.13 C 1094.33 382.73 1093.98 372.32 1094.24 361.93 Z" />
</g>
<g id="#060f7dff">
<path fill="#060f7d" opacity="1.00" d=" M 34.70 371.95 L 36.35 371.59 C 36.63 387.74 36.33 403.90 36.50 420.05 C 36.36 479.82 36.56 539.58 36.42 599.35 L 34.74 600.42 C 34.42 541.94 34.78 483.45 34.56 424.96 C 34.62 407.29 34.59 389.62 34.70 371.95 Z" />
</g>
<g id="#0b1588ff">
<path fill="#0b1588" opacity="1.00" d=" M 357.55 371.58 L 359.31 371.87 C 359.39 409.00 359.41 446.14 359.29 483.28 L 357.47 483.11 C 357.44 445.93 357.33 408.75 357.55 371.58 Z" />
</g>
<g id="#1c36a3ff">
<path fill="#1c36a3" opacity="1.00" d=" M 1651.04 379.10 C 1651.64 378.37 1652.26 377.64 1652.89 376.92 C 1653.33 429.26 1652.94 481.61 1653.07 533.96 C 1653.08 561.31 1653.08 588.67 1653.04 616.02 C 1653.02 620.13 1650.66 624.02 1647.22 626.19 C 1646.06 626.65 1644.36 628.22 1643.30 627.00 L 1642.43 626.24 C 1647.06 625.07 1651.15 621.10 1650.89 616.05 C 1651.04 537.06 1650.78 458.08 1651.04 379.10 Z" />
<path fill="#1c36a3" opacity="1.00" d=" M 450.28 508.47 C 452.43 509.37 454.69 510.09 457.05 509.98 C 512.05 509.90 567.04 509.98 622.03 509.94 C 623.90 509.91 625.77 509.67 627.62 509.33 C 627.33 509.78 626.74 510.66 626.45 511.10 C 624.06 511.91 621.48 511.63 619.02 511.72 C 564.67 511.64 510.32 511.73 455.97 511.70 C 453.30 511.77 450.79 510.74 448.61 509.30 C 449.03 509.09 449.86 508.68 450.28 508.47 Z" />
<path fill="#1c36a3" opacity="1.00" d=" M 1326.53 789.18 C 1332.15 786.61 1337.50 783.41 1343.27 781.14 C 1343.22 783.45 1343.25 785.76 1343.25 788.08 C 1400.09 787.53 1456.95 788.23 1513.78 787.71 C 1514.24 788.18 1515.16 789.12 1515.62 789.59 C 1511.23 791.25 1506.49 790.54 1501.93 790.67 C 1449.03 790.73 1396.12 790.64 1343.22 790.75 C 1343.27 793.13 1343.24 795.52 1343.30 797.92 C 1337.64 795.14 1331.88 792.53 1326.53 789.18 Z" />
</g>
<g id="#298e41ff">
<path fill="#298e41" opacity="1.00" d=" M 1413.40 407.10 C 1413.39 402.68 1417.84 399.60 1422.00 399.80 C 1491.67 399.73 1561.34 399.81 1631.00 399.76 C 1635.40 399.30 1640.18 402.41 1640.34 407.09 C 1640.42 417.03 1640.35 426.97 1640.34 436.91 C 1640.63 440.05 1638.22 442.38 1635.86 444.00 C 1629.97 442.75 1623.95 443.51 1618.00 443.25 C 1605.02 442.75 1592.03 442.91 1579.06 443.23 C 1528.04 443.06 1477.02 443.07 1426.00 443.23 C 1423.32 443.20 1420.67 443.55 1418.10 444.22 C 1415.32 442.89 1413.16 440.18 1413.31 436.99 C 1413.33 427.03 1413.28 417.06 1413.40 407.10 Z" />
</g>
<g id="#989eadff">
<path fill="#989ead" opacity="1.00" d=" M 1098.20 407.18 C 1104.41 406.12 1110.79 406.99 1117.07 406.74 C 1181.37 406.66 1245.67 406.75 1309.97 406.69 C 1314.20 406.86 1319.45 405.72 1322.55 409.44 C 1325.24 411.89 1324.77 415.78 1324.86 419.07 C 1324.69 427.06 1324.85 435.05 1324.72 443.04 C 1325.01 447.68 1320.62 451.82 1316.00 451.27 C 1246.00 451.25 1176.01 451.32 1106.01 451.26 C 1102.29 451.19 1097.85 452.00 1095.03 448.97 C 1092.66 447.03 1092.39 443.83 1092.51 441.00 C 1092.69 432.34 1092.55 423.68 1092.69 415.03 C 1092.49 411.51 1094.94 408.32 1098.20 407.18 M 1097.44 409.48 C 1095.57 410.67 1094.17 412.70 1094.27 414.98 C 1094.07 423.64 1094.25 432.31 1094.15 440.98 C 1094.24 443.34 1093.90 446.24 1096.05 447.87 C 1097.85 449.80 1100.58 449.86 1103.05 449.85 C 1173.72 449.60 1244.39 449.79 1315.07 449.71 C 1318.63 450.14 1322.77 448.02 1322.97 444.09 C 1323.09 434.72 1322.95 425.34 1323.00 415.97 C 1323.33 412.48 1320.80 408.38 1316.95 408.71 C 1245.30 408.73 1173.65 408.61 1102.00 408.72 C 1100.46 408.84 1098.78 408.67 1097.44 409.48 Z" />
</g>
<g id="#2944aeff">
<path fill="#2944ae" opacity="1.00" d=" M 429.11 408.77 C 434.12 411.23 439.08 413.78 444.01 416.39 C 443.49 417.43 442.31 417.85 441.39 418.45 C 436.75 420.86 432.08 423.24 427.44 425.65 C 427.41 423.20 427.40 420.76 427.41 418.32 C 421.00 418.38 413.74 416.95 408.37 421.39 C 408.88 419.98 409.31 418.53 409.76 417.10 C 410.87 416.64 412.01 416.18 413.21 415.97 C 418.10 417.48 423.24 417.14 428.28 417.25 C 428.60 414.43 428.78 411.59 429.11 408.77 Z" />
</g>
<g id="#f7f7f8ff">
<path fill="#f7f7f8" opacity="1.00" d=" M 1097.44 409.48 C 1098.78 408.67 1100.46 408.84 1102.00 408.72 C 1173.65 408.61 1245.30 408.73 1316.95 408.71 C 1320.80 408.38 1323.33 412.48 1323.00 415.97 C 1322.95 425.34 1323.09 434.72 1322.97 444.09 C 1322.77 448.02 1318.63 450.14 1315.07 449.71 C 1244.39 449.79 1173.72 449.60 1103.05 449.85 C 1100.58 449.86 1097.85 449.80 1096.05 447.87 C 1093.90 446.24 1094.24 443.34 1094.15 440.98 C 1094.25 432.31 1094.07 423.64 1094.27 414.98 C 1094.17 412.70 1095.57 410.67 1097.44 409.48 Z" />
<path fill="#f7f7f8" opacity="1.00" d=" M 754.35 423.46 C 755.82 422.89 757.44 423.06 759.00 423.00 C 837.68 423.02 916.36 422.97 995.03 423.02 C 998.86 422.70 1002.34 426.16 1001.94 430.02 C 1002.01 439.33 1001.81 448.65 1001.96 457.96 C 1002.44 461.82 998.75 464.99 995.05 464.64 C 916.02 464.67 836.99 464.64 757.96 464.67 C 754.13 465.11 749.98 462.13 750.31 458.04 C 750.14 449.04 750.27 440.03 750.29 431.02 C 750.13 428.00 751.14 424.47 754.35 423.46 Z" />
<path fill="#f7f7f8" opacity="1.00" d=" M 750.51 478.45 C 752.18 476.51 754.05 473.73 757.01 474.41 C 836.35 474.38 915.69 474.39 995.04 474.39 C 999.24 473.87 1002.96 478.00 1002.63 482.09 C 1002.66 491.38 1002.60 500.66 1002.63 509.95 C 1002.92 513.28 1000.50 516.83 997.05 517.16 C 992.09 517.91 987.04 517.40 982.05 517.40 C 908.06 517.43 834.07 517.34 760.07 517.41 C 757.07 517.57 754.06 517.10 751.46 515.54 C 750.43 513.48 749.55 511.28 749.63 508.95 C 749.54 501.95 749.71 494.95 749.60 487.96 C 749.68 484.78 749.35 481.47 750.51 478.45 Z" />
<path fill="#f7f7f8" opacity="1.00" d=" M 1097.47 514.51 C 1103.18 513.50 1109.19 514.24 1115.02 513.90 C 1172.68 513.85 1230.34 513.96 1288.01 513.93 C 1297.66 513.93 1307.32 513.79 1316.97 514.06 C 1320.20 513.73 1322.98 516.77 1322.95 519.90 C 1323.04 529.60 1323.01 539.31 1322.97 549.01 C 1323.10 552.64 1319.49 555.61 1315.95 555.14 C 1267.95 555.19 1219.96 554.94 1171.96 555.17 C 1148.32 555.12 1124.68 555.30 1101.04 555.10 C 1097.62 555.39 1094.01 552.58 1094.19 549.01 C 1094.18 539.65 1094.21 530.30 1094.15 520.94 C 1093.91 518.34 1095.21 515.82 1097.47 514.51 Z" />
<path fill="#f7f7f8" opacity="1.00" d=" M 750.48 530.86 C 751.55 528.87 753.56 526.81 756.06 527.23 C 836.03 527.14 916.00 527.23 995.97 527.20 C 999.06 526.72 1001.10 529.69 1002.43 532.06 C 1002.92 543.10 1002.50 554.19 1002.62 565.26 C 1000.77 567.20 999.12 570.28 995.96 569.76 C 915.97 569.76 835.98 569.71 756.00 569.75 C 753.57 570.05 751.44 568.14 750.44 566.13 C 749.13 560.54 749.80 554.74 749.64 549.05 C 749.82 543.00 749.00 536.80 750.48 530.86 Z" />
<path fill="#f7f7f8" opacity="1.00" d=" M 1098.44 566.57 C 1106.23 565.54 1114.19 566.45 1122.05 566.17 C 1186.04 566.20 1250.03 566.18 1314.01 566.15 C 1316.42 566.17 1319.21 566.03 1321.04 567.95 C 1323.55 570.27 1323.08 573.92 1323.13 577.01 C 1322.97 585.39 1323.29 593.79 1322.95 602.17 C 1322.82 605.66 1319.28 608.01 1315.98 607.63 C 1244.31 607.61 1172.63 607.68 1100.95 607.66 C 1097.83 607.70 1094.33 605.41 1094.28 602.06 C 1093.97 592.38 1094.23 582.68 1094.14 573.00 C 1093.83 570.14 1095.83 567.53 1098.44 566.57 Z" />
<path fill="#f7f7f8" opacity="1.00" d=" M 753.41 580.54 C 755.10 579.66 757.13 579.94 758.99 579.80 C 834.31 579.85 909.63 579.68 984.96 579.86 C 989.30 580.00 993.71 579.51 998.03 580.27 C 1000.54 581.45 1002.15 584.21 1001.96 587.00 C 1001.91 596.34 1001.96 605.68 1001.93 615.02 C 1002.22 618.68 998.57 621.76 995.04 621.46 C 989.69 621.29 984.36 621.65 979.03 621.98 C 914.01 621.93 849.00 621.97 783.98 621.96 C 775.98 621.89 767.97 622.21 759.98 621.56 C 757.41 621.28 754.30 621.91 752.32 619.85 C 749.78 617.63 750.30 613.99 750.21 610.99 C 750.35 602.98 750.13 594.97 750.26 586.97 C 750.17 584.47 751.30 581.93 753.41 580.54 Z" />
<path fill="#f7f7f8" opacity="1.00" d=" M 754.18 632.26 C 764.07 631.60 774.04 632.16 783.97 631.99 C 854.67 632.03 925.37 631.88 996.07 632.04 C 999.58 632.05 1002.35 635.54 1001.92 638.97 C 1001.90 648.67 1002.06 658.37 1001.85 668.06 C 1001.83 671.51 998.29 673.73 995.10 673.59 C 918.73 673.71 842.36 673.64 765.99 673.66 C 762.02 673.55 757.91 674.23 754.04 673.19 C 751.45 672.32 750.12 669.61 750.28 667.01 C 750.20 657.67 750.26 648.33 750.31 639.00 C 750.13 636.23 751.52 633.32 754.18 632.26 Z" />
</g>
<g id="#9ca1b0ff">
<path fill="#9ca1b0" opacity="1.00" d=" M 755.37 421.52 C 800.88 421.04 846.44 421.55 891.97 421.27 C 926.32 421.29 960.68 421.35 995.04 421.35 C 999.47 421.03 1003.53 424.63 1003.71 429.09 C 1004.15 438.05 1003.83 447.05 1003.93 456.02 C 1004.19 459.86 1002.41 464.01 998.82 465.70 C 995.97 466.73 992.88 466.40 989.93 466.50 C 913.96 466.51 837.98 466.42 762.01 466.50 C 758.24 466.44 753.71 467.26 750.91 464.07 C 748.25 461.81 748.45 458.10 748.47 454.94 C 748.59 446.31 748.35 437.67 748.49 429.04 C 748.43 425.25 751.73 422.02 755.37 421.52 M 754.35 423.46 C 751.14 424.47 750.13 428.00 750.29 431.02 C 750.27 440.03 750.14 449.04 750.31 458.04 C 749.98 462.13 754.13 465.11 757.96 464.67 C 836.99 464.64 916.02 464.67 995.05 464.64 C 998.75 464.99 1002.44 461.82 1001.96 457.96 C 1001.81 448.65 1002.01 439.33 1001.94 430.02 C 1002.34 426.16 998.86 422.70 995.03 423.02 C 916.36 422.97 837.68 423.02 759.00 423.00 C 757.44 423.06 755.82 422.89 754.35 423.46 Z" />
</g>
<g id="#148031ff">
<path fill="#148031" opacity="1.00" d=" M 1418.10 444.22 C 1420.67 443.55 1423.32 443.20 1426.00 443.23 C 1477.02 443.07 1528.04 443.06 1579.06 443.23 C 1592.03 442.91 1605.02 442.75 1618.00 443.25 C 1623.95 443.51 1629.97 442.75 1635.86 444.00 C 1626.28 445.01 1616.58 444.20 1606.96 444.49 C 1549.65 444.47 1492.34 444.45 1435.03 444.49 C 1429.38 444.38 1423.73 444.61 1418.10 444.22 Z" />
</g>
<g id="#a2a7b5ff">
<path fill="#a2a7b5" opacity="1.00" d=" M 1419.34 455.39 C 1428.17 454.68 1437.09 455.40 1445.96 455.12 C 1505.98 455.12 1566.00 455.07 1626.03 455.05 C 1628.85 455.07 1631.76 454.83 1634.55 455.53 C 1638.20 456.56 1640.73 460.16 1640.75 463.93 C 1640.97 471.93 1640.59 479.95 1640.80 487.96 C 1640.80 491.26 1641.16 495.00 1638.86 497.71 C 1636.79 500.44 1633.14 500.87 1629.97 500.76 C 1560.65 500.59 1491.32 500.86 1421.99 500.70 C 1417.13 501.14 1412.37 496.94 1412.73 491.97 C 1412.83 482.64 1412.68 473.31 1412.77 463.98 C 1412.63 460.06 1415.52 456.27 1419.34 455.39 M 1418.50 457.61 C 1416.02 458.69 1414.35 461.21 1414.51 463.94 C 1414.51 473.29 1414.42 482.66 1414.53 492.01 C 1414.26 495.56 1417.19 499.16 1420.88 498.96 C 1491.24 498.97 1561.61 498.97 1631.97 498.98 C 1635.82 499.47 1639.54 495.93 1639.03 492.02 C 1638.88 482.65 1639.07 473.28 1638.92 463.91 C 1639.17 460.20 1635.79 456.75 1632.04 457.18 C 1568.35 457.09 1504.65 457.19 1440.97 457.13 C 1433.48 457.34 1425.92 456.76 1418.50 457.61 Z" />
</g>
<g id="#f6f6f7ff">
<path fill="#f6f6f7" opacity="1.00" d=" M 1418.50 457.61 C 1425.92 456.76 1433.48 457.34 1440.97 457.13 C 1504.65 457.19 1568.35 457.09 1632.04 457.18 C 1635.79 456.75 1639.17 460.20 1638.92 463.91 C 1639.07 473.28 1638.88 482.65 1639.03 492.02 C 1639.54 495.93 1635.82 499.47 1631.97 498.98 C 1561.61 498.97 1491.24 498.97 1420.88 498.96 C 1417.19 499.16 1414.26 495.56 1414.53 492.01 C 1414.42 482.66 1414.51 473.29 1414.51 463.94 C 1414.35 461.21 1416.02 458.69 1418.50 457.61 Z" />
<path fill="#f6f6f7" opacity="1.00" d=" M 1414.54 514.77 C 1416.02 511.55 1419.72 510.41 1423.05 510.65 C 1492.71 510.68 1562.37 510.62 1632.02 510.68 C 1635.77 510.42 1639.44 513.17 1639.64 517.04 C 1639.71 526.68 1639.62 536.32 1639.64 545.96 C 1639.99 550.07 1636.25 554.13 1632.06 553.63 C 1561.38 553.57 1490.70 553.65 1420.03 553.59 C 1417.42 553.66 1416.07 550.93 1414.34 549.42 C 1413.41 541.97 1413.71 534.46 1413.72 526.97 C 1413.74 522.90 1413.63 518.77 1414.54 514.77 Z" />
<path fill="#f6f6f7" opacity="1.00" d=" M 1417.14 565.54 C 1421.98 564.17 1427.04 564.63 1432.02 564.64 C 1498.35 564.59 1564.69 564.63 1631.03 564.63 C 1634.67 564.42 1638.77 566.05 1639.57 570.00 C 1639.82 579.99 1639.60 590.01 1639.68 600.01 C 1640.24 604.16 1636.19 608.48 1631.97 607.76 C 1578.65 607.78 1525.34 607.78 1472.03 607.78 C 1453.98 607.65 1435.94 608.00 1417.90 607.61 C 1416.56 606.33 1414.87 605.17 1414.43 603.29 C 1413.22 597.60 1413.87 591.76 1413.73 586.00 C 1413.88 580.71 1413.28 575.37 1414.13 570.13 C 1414.27 568.18 1416.03 566.98 1417.14 565.54 Z" />
</g>
<g id="#298f41ff">
<path fill="#298f41" opacity="1.00" d=" M 1096.43 461.60 C 1097.76 460.69 1099.38 460.36 1100.99 460.41 C 1133.32 460.45 1165.65 460.42 1197.97 460.46 C 1201.46 460.85 1204.14 464.46 1203.85 467.94 C 1203.94 477.30 1203.62 486.68 1204.08 496.04 C 1204.43 500.39 1200.25 504.01 1196.00 503.43 C 1164.31 503.40 1132.63 503.44 1100.94 503.42 C 1096.74 503.81 1092.60 500.27 1092.77 495.97 C 1092.84 486.65 1092.74 477.33 1092.77 468.02 C 1092.67 465.39 1094.24 462.95 1096.43 461.60 Z" />
</g>
<g id="#cd2d34ff">
<path fill="#cd2d34" opacity="1.00" d=" M 1212.87 466.89 C 1213.17 462.91 1217.17 460.17 1221.01 460.51 C 1253.02 460.40 1285.03 460.60 1317.04 460.46 C 1320.23 460.08 1322.78 462.44 1324.08 465.13 C 1322.49 476.29 1322.32 487.78 1324.06 498.92 C 1322.74 501.61 1320.13 503.70 1316.99 503.38 C 1286.32 503.36 1255.64 503.41 1224.96 503.35 C 1222.62 503.34 1220.28 503.50 1217.96 503.24 C 1214.81 502.43 1212.52 499.25 1212.78 496.01 C 1212.96 486.31 1212.67 476.59 1212.87 466.89 Z" />
</g>
<g id="#c21b20ff">
<path fill="#c21b20" opacity="1.00" d=" M 1324.06 498.92 C 1322.32 487.78 1322.49 476.29 1324.08 465.13 C 1324.58 476.37 1324.62 487.68 1324.06 498.92 Z" />
</g>
<g id="#080808ff">
<path fill="#080808" opacity="1.00" d=" M 754.56 473.75 C 835.47 473.78 916.38 473.80 997.29 473.74 C 999.20 474.83 1001.49 475.84 1002.35 478.06 C 1003.66 480.53 1003.31 483.37 1003.35 486.07 C 1003.24 494.37 1003.45 502.67 1003.30 510.96 C 1003.14 513.57 1001.27 515.60 999.46 517.29 C 993.69 518.48 987.80 518.31 981.96 517.86 C 968.97 517.78 955.97 517.95 942.98 517.85 C 933.00 518.58 923.01 517.58 913.01 517.86 C 865.01 517.77 817.01 517.93 769.01 517.85 C 763.82 517.79 758.63 518.04 753.47 517.48 C 751.81 516.31 749.96 514.94 749.57 512.83 C 748.84 507.91 749.26 502.93 749.23 498.00 C 749.32 491.45 748.90 484.90 749.60 478.38 C 751.18 476.75 752.81 475.19 754.56 473.75 M 750.51 478.45 C 749.35 481.47 749.68 484.78 749.60 487.96 C 749.71 494.95 749.54 501.95 749.63 508.95 C 749.55 511.28 750.43 513.48 751.46 515.54 C 754.06 517.10 757.07 517.57 760.07 517.41 C 834.07 517.34 908.06 517.43 982.05 517.40 C 987.04 517.40 992.09 517.91 997.05 517.16 C 1000.50 516.83 1002.92 513.28 1002.63 509.95 C 1002.60 500.66 1002.66 491.38 1002.63 482.09 C 1002.96 478.00 999.24 473.87 995.04 474.39 C 915.69 474.39 836.35 474.38 757.01 474.41 C 754.05 473.73 752.18 476.51 750.51 478.45 Z" />
<path fill="#080808" opacity="1.00" d=" M 1413.57 517.03 C 1413.53 512.71 1417.94 509.66 1422.04 510.21 C 1491.39 510.19 1560.73 510.22 1630.08 510.20 C 1632.72 510.26 1635.73 510.17 1637.83 512.11 C 1639.59 513.90 1640.45 516.47 1640.30 518.97 C 1640.21 528.28 1640.35 537.59 1640.24 546.89 C 1640.07 550.42 1637.38 553.06 1634.25 554.28 C 1563.16 554.24 1492.07 554.25 1420.99 554.28 C 1417.64 554.59 1415.55 551.61 1413.68 549.34 C 1413.13 538.58 1413.11 527.79 1413.57 517.03 M 1414.54 514.77 C 1413.63 518.77 1413.74 522.90 1413.72 526.97 C 1413.71 534.46 1413.41 541.97 1414.34 549.42 C 1416.07 550.93 1417.42 553.66 1420.03 553.59 C 1490.70 553.65 1561.38 553.57 1632.06 553.63 C 1636.25 554.13 1639.99 550.07 1639.64 545.96 C 1639.62 536.32 1639.71 526.68 1639.64 517.04 C 1639.44 513.17 1635.77 510.42 1632.02 510.68 C 1562.37 510.62 1492.71 510.68 1423.05 510.65 C 1419.72 510.41 1416.02 511.55 1414.54 514.77 Z" />
<path fill="#080808" opacity="1.00" d=" M 749.64 530.39 C 751.37 528.67 753.14 526.24 755.91 526.57 C 835.60 526.56 915.30 526.57 994.99 526.57 C 999.67 525.67 1003.63 530.62 1003.34 535.01 C 1003.23 544.82 1003.53 554.65 1003.21 564.46 C 1002.27 567.44 999.48 570.71 996.05 570.42 C 916.34 570.43 836.63 570.40 756.93 570.41 C 753.85 570.90 751.54 568.68 749.65 566.62 C 748.97 554.57 748.95 542.44 749.64 530.39 M 750.48 530.86 C 749.00 536.80 749.82 543.00 749.64 549.05 C 749.80 554.74 749.13 560.54 750.44 566.13 C 751.44 568.14 753.57 570.05 756.00 569.75 C 835.98 569.71 915.97 569.76 995.96 569.76 C 999.12 570.28 1000.77 567.20 1002.62 565.26 C 1002.50 554.19 1002.92 543.10 1002.43 532.06 C 1001.10 529.69 999.06 526.72 995.97 527.20 C 916.00 527.23 836.03 527.14 756.06 527.23 C 753.56 526.81 751.55 528.87 750.48 530.86 Z" />
<path fill="#080808" opacity="1.00" d=" M 1417.48 564.80 C 1421.56 563.93 1425.78 564.13 1429.94 564.17 C 1497.32 564.23 1564.69 564.09 1632.06 564.24 C 1636.21 563.82 1640.02 566.97 1640.24 571.16 C 1640.33 581.13 1640.25 591.11 1640.26 601.08 C 1640.44 604.36 1637.54 606.46 1635.33 608.36 C 1563.54 608.36 1491.76 608.35 1419.97 608.38 C 1416.88 608.50 1414.81 605.83 1413.60 603.34 C 1413.32 591.80 1412.94 580.23 1413.70 568.71 C 1414.88 567.35 1415.93 565.80 1417.48 564.80 M 1417.14 565.54 C 1416.03 566.98 1414.27 568.18 1414.13 570.13 C 1413.28 575.37 1413.88 580.71 1413.73 586.00 C 1413.87 591.76 1413.22 597.60 1414.43 603.29 C 1414.87 605.17 1416.56 606.33 1417.90 607.61 C 1435.94 608.00 1453.98 607.65 1472.03 607.78 C 1525.34 607.78 1578.65 607.78 1631.97 607.76 C 1636.19 608.48 1640.24 604.16 1639.68 600.01 C 1639.60 590.01 1639.82 579.99 1639.57 570.00 C 1638.77 566.05 1634.67 564.42 1631.03 564.63 C 1564.69 564.63 1498.35 564.59 1432.02 564.64 C 1427.04 564.63 1421.98 564.17 1417.14 565.54 Z" />
<path fill="#080808" opacity="1.00" d=" M 1024.21 789.08 C 1028.37 788.60 1028.17 796.90 1023.97 796.18 C 1021.94 794.53 1021.48 790.28 1024.21 789.08 Z" />
</g>
<g id="#2b47aeff">
<path fill="#2b47ae" opacity="1.00" d=" M 711.40 475.10 C 717.34 478.25 723.58 480.87 729.28 484.44 C 723.15 487.20 717.41 490.71 711.45 493.80 C 711.40 491.10 711.37 488.40 711.43 485.71 C 711.42 484.92 711.43 484.13 711.44 483.35 C 711.47 480.60 711.40 477.85 711.40 475.10 Z" />
</g>
<g id="#2e49afff">
<path fill="#2e49af" opacity="1.00" d=" M 1056.97 474.35 C 1062.90 477.25 1068.90 480.09 1074.56 483.51 C 1068.60 486.35 1062.84 489.57 1056.97 492.57 C 1056.94 489.94 1056.94 487.32 1056.96 484.70 C 1044.56 484.69 1032.13 485.07 1019.75 484.46 C 1032.17 482.73 1044.75 485.06 1057.16 483.36 C 1044.69 482.06 1032.12 484.03 1019.67 482.49 C 1021.71 481.85 1023.85 481.69 1026.00 481.75 C 1036.31 481.81 1046.64 481.62 1056.96 481.83 C 1056.98 479.33 1056.92 476.84 1056.97 474.35 Z" />
</g>
<g id="#2b45acff">
<path fill="#2b45ac" opacity="1.00" d=" M 1380.32 474.60 C 1385.58 477.51 1391.16 479.84 1396.27 483.04 C 1390.15 485.84 1384.31 489.17 1378.30 492.15 C 1378.28 489.58 1378.27 487.02 1378.36 484.46 C 1365.56 484.17 1352.76 484.42 1339.96 484.39 L 1340.30 483.36 C 1348.18 482.97 1356.08 483.28 1363.97 483.02 C 1368.88 482.80 1373.85 483.70 1378.73 482.79 C 1379.94 480.23 1379.83 477.32 1380.32 474.60 Z" />
</g>
<g id="#2946abff">
<path fill="#2946ab" opacity="1.00" d=" M 427.48 483.24 C 427.44 480.68 427.43 478.12 427.50 475.57 C 433.18 478.49 439.05 481.09 444.56 484.35 C 438.84 487.26 433.21 490.34 427.42 493.09 C 427.43 490.63 427.47 488.18 427.50 485.73 C 427.51 484.89 427.49 484.06 427.48 483.24 Z" />
</g>
<g id="#0e178bff">
<path fill="#0e178b" opacity="1.00" d=" M 357.50 484.82 C 357.94 485.03 358.82 485.45 359.26 485.66 C 359.49 522.77 359.27 559.91 359.36 597.03 C 359.52 599.58 358.86 602.06 357.93 604.42 C 357.71 603.82 357.26 602.64 357.03 602.04 C 357.95 592.72 357.20 583.30 357.45 573.94 C 357.48 544.23 357.29 514.53 357.50 484.82 Z" />
</g>
<g id="#9da2b0ff">
<path fill="#9da2b0" opacity="1.00" d=" M 1098.25 512.34 C 1104.77 511.51 1111.39 512.26 1117.96 512.03 C 1183.95 511.99 1249.95 512.02 1315.95 511.99 C 1320.40 511.62 1324.91 515.33 1324.71 519.94 C 1324.93 529.31 1324.77 538.69 1324.79 548.07 C 1325.24 552.87 1320.96 557.60 1316.04 557.02 C 1244.02 556.97 1172.01 557.02 1100.00 557.00 C 1095.84 557.02 1092.58 552.89 1092.64 548.91 C 1092.42 539.31 1092.39 529.69 1092.64 520.09 C 1092.56 516.62 1094.87 513.25 1098.25 512.34 M 1097.47 514.51 C 1095.21 515.82 1093.91 518.34 1094.15 520.94 C 1094.21 530.30 1094.18 539.65 1094.19 549.01 C 1094.01 552.58 1097.62 555.39 1101.04 555.10 C 1124.68 555.30 1148.32 555.12 1171.96 555.17 C 1219.96 554.94 1267.95 555.19 1315.95 555.14 C 1319.49 555.61 1323.10 552.64 1322.97 549.01 C 1323.01 539.31 1323.04 529.60 1322.95 519.90 C 1322.98 516.77 1320.20 513.73 1316.97 514.06 C 1307.32 513.79 1297.66 513.93 1288.01 513.93 C 1230.34 513.96 1172.68 513.85 1115.02 513.90 C 1109.19 514.24 1103.18 513.50 1097.47 514.51 Z" />
</g>
<g id="#2845b0ff">
<path fill="#2845b0" opacity="1.00" d=" M 429.79 542.66 C 434.81 544.98 439.73 547.51 444.61 550.11 C 440.03 552.55 435.54 555.16 430.90 557.48 C 428.08 553.05 428.78 547.53 429.79 542.66 Z" />
</g>
<g id="#8a90a0ff">
<path fill="#8a90a0" opacity="1.00" d=" M 1097.28 565.32 C 1098.43 564.84 1099.65 564.63 1100.95 564.70 C 1172.98 564.80 1245.02 564.63 1317.05 564.74 C 1321.22 564.81 1324.94 568.75 1324.62 572.96 C 1324.73 582.30 1324.62 591.65 1324.70 600.99 C 1325.14 605.73 1320.64 609.76 1316.01 609.34 C 1244.68 609.41 1173.35 609.30 1102.02 609.37 C 1097.22 609.92 1092.36 605.97 1092.57 601.01 C 1092.72 591.67 1092.46 582.33 1092.61 573.00 C 1092.46 569.76 1094.38 566.72 1097.28 565.32 M 1098.44 566.57 C 1095.83 567.53 1093.83 570.14 1094.14 573.00 C 1094.23 582.68 1093.97 592.38 1094.28 602.06 C 1094.33 605.41 1097.83 607.70 1100.95 607.66 C 1172.63 607.68 1244.31 607.61 1315.98 607.63 C 1319.28 608.01 1322.82 605.66 1322.95 602.17 C 1323.29 593.79 1322.97 585.39 1323.13 577.01 C 1323.08 573.92 1323.55 570.27 1321.04 567.95 C 1319.21 566.03 1316.42 566.17 1314.01 566.15 C 1250.03 566.18 1186.04 566.20 1122.05 566.17 C 1114.19 566.45 1106.23 565.54 1098.44 566.57 Z" />
</g>
<g id="#989eaeff">
<path fill="#989eae" opacity="1.00" d=" M 754.32 578.36 C 754.99 578.26 756.33 578.06 757.01 577.96 C 836.32 577.96 915.65 577.97 994.97 577.96 C 999.89 577.62 1003.92 582.14 1003.77 586.92 C 1003.85 596.59 1004.12 606.28 1003.74 615.95 C 1003.14 620.04 999.27 623.61 995.01 623.14 C 915.68 623.18 836.36 623.15 757.04 623.16 C 752.47 623.72 748.31 619.53 748.51 615.03 C 748.50 605.68 748.43 596.34 748.47 587.00 C 748.20 583.20 750.66 579.48 754.32 578.36 M 753.41 580.54 C 751.30 581.93 750.17 584.47 750.26 586.97 C 750.13 594.97 750.35 602.98 750.21 610.99 C 750.30 613.99 749.78 617.63 752.32 619.85 C 754.30 621.91 757.41 621.28 759.98 621.56 C 767.97 622.21 775.98 621.89 783.98 621.96 C 849.00 621.97 914.01 621.93 979.03 621.98 C 984.36 621.65 989.69 621.29 995.04 621.46 C 998.57 621.76 1002.22 618.68 1001.93 615.02 C 1001.96 605.68 1001.91 596.34 1001.96 587.00 C 1002.15 584.21 1000.54 581.45 998.03 580.27 C 993.71 579.51 989.30 580.00 984.96 579.86 C 909.63 579.68 834.31 579.85 758.99 579.80 C 757.13 579.94 755.10 579.66 753.41 580.54 Z" />
</g>
<g id="#2845a9ff">
<path fill="#2845a9" opacity="1.00" d=" M 427.35 608.78 C 433.27 611.33 438.95 614.45 444.47 617.77 C 438.79 620.54 433.26 623.65 427.45 626.17 C 427.39 623.84 427.36 621.51 427.31 619.19 C 422.51 619.22 417.67 619.57 412.92 618.72 L 413.84 616.43 C 418.33 616.36 422.82 616.33 427.32 616.28 C 427.31 613.77 427.31 611.28 427.35 608.78 Z" />
</g>
<g id="#102da2ff">
<path fill="#102da2" opacity="1.00" d=" M 1409.44 626.04 C 1419.62 625.57 1429.81 625.99 1440.00 625.85 C 1469.67 625.98 1499.35 625.54 1529.01 626.17 C 1556.65 625.46 1584.30 626.02 1611.95 625.84 C 1622.11 626.11 1632.29 625.46 1642.43 626.24 L 1643.30 627.00 L 1644.01 627.64 C 1616.66 628.31 1589.28 627.68 1561.93 628.01 C 1549.77 627.90 1537.59 627.61 1525.45 628.13 C 1525.62 677.09 1525.47 726.06 1525.53 775.02 C 1525.79 781.48 1521.59 787.21 1515.88 789.86 L 1515.62 789.59 C 1515.16 789.12 1514.24 788.18 1513.78 787.71 C 1518.70 785.89 1522.69 781.38 1522.74 775.97 C 1522.80 726.69 1522.63 677.41 1522.85 628.13 C 1490.91 627.58 1458.95 628.05 1427.01 627.87 C 1420.47 627.71 1413.89 628.33 1407.40 627.45 C 1407.91 627.10 1408.93 626.39 1409.44 626.04 Z" />
</g>
<g id="#9ba0afff">
<path fill="#9ba0af" opacity="1.00" d=" M 754.34 630.51 C 760.18 629.70 766.12 630.35 772.00 630.19 C 846.34 630.11 920.68 630.38 995.02 630.08 C 998.04 630.02 1001.23 631.52 1002.61 634.31 C 1004.21 637.28 1003.83 640.74 1003.92 643.99 C 1003.81 651.66 1004.05 659.33 1003.84 666.99 C 1003.73 671.55 999.67 675.81 994.96 675.36 C 915.64 675.36 836.31 675.39 756.99 675.38 C 752.40 675.79 748.12 671.59 748.51 666.98 C 748.46 657.65 748.43 648.32 748.49 639.00 C 748.27 635.27 750.69 631.50 754.34 630.51 M 754.18 632.26 C 751.52 633.32 750.13 636.23 750.31 639.00 C 750.26 648.33 750.20 657.67 750.28 667.01 C 750.12 669.61 751.45 672.32 754.04 673.19 C 757.91 674.23 762.02 673.55 765.99 673.66 C 842.36 673.64 918.73 673.71 995.10 673.59 C 998.29 673.73 1001.83 671.51 1001.85 668.06 C 1002.06 658.37 1001.90 648.67 1001.92 638.97 C 1002.35 635.54 999.58 632.05 996.07 632.04 C 925.37 631.88 854.67 632.03 783.97 631.99 C 774.04 632.16 764.07 631.60 754.18 632.26 Z" />
</g>
<g id="#2e4cb4ff">
<path fill="#2e4cb4" opacity="1.00" d=" M 430.98 679.66 C 435.54 681.96 440.03 684.39 444.71 686.45 C 439.97 689.32 434.79 691.44 430.06 694.35 C 429.53 692.31 429.04 690.26 428.52 688.23 C 423.89 687.98 419.24 688.11 414.62 687.64 C 418.91 686.96 423.28 687.18 427.57 686.54 C 428.59 684.18 429.29 681.67 430.98 679.66 Z" />
</g>
<g id="#2842a9ff">
<path fill="#2842a9" opacity="1.00" d=" M 530.23 736.43 C 533.10 730.57 535.45 724.44 538.94 718.92 C 541.62 724.72 544.39 730.49 547.11 736.28 C 544.65 736.41 542.20 736.44 539.75 736.53 C 538.99 736.52 538.23 736.52 537.48 736.52 C 535.06 736.52 532.64 736.41 530.23 736.43 Z" />
</g>
<g id="#fcfbfcff">
<path fill="#fcfbfc" opacity="1.00" d=" M 1021.01 781.06 C 1022.52 779.53 1024.75 778.22 1026.98 778.87 C 1028.45 778.93 1031.55 780.63 1029.12 782.06 C 1027.98 783.88 1025.76 781.35 1024.52 782.66 C 1023.38 783.77 1022.88 785.35 1022.10 786.70 C 1024.25 786.50 1026.86 785.41 1028.81 786.93 C 1032.39 789.95 1031.91 796.66 1027.56 798.76 C 1024.07 800.55 1019.54 798.36 1018.63 794.59 C 1017.67 790.06 1017.81 784.72 1021.01 781.06 M 1024.21 789.08 C 1021.48 790.28 1021.94 794.53 1023.97 796.18 C 1028.17 796.90 1028.37 788.60 1024.21 789.08 Z" />
</g>

<g id="Editable_Text_Layer" data-layer-name="Editable Text Layer">
  <text class="st10" transform="translate(38 54)"><tspan x="0" y="0">System validation architecture</tspan></text>
  <text class="st1" transform="translate(38 103)"><tspan x="0" y="0">How the end-to-end LLM flywheel assembly layer uses a check script to enforce engineering contracts,</tspan></text>
  <text class="st1" transform="translate(38 136)"><tspan x="0" y="0">validate multiple artifacts and produce structured system status outputs</tspan></text>
  <text class="st3" transform="translate(69 200)"><tspan x="0" y="0">Validation enforces an</tspan></text>
  <text class="st3" transform="translate(69 228)"><tspan x="0" y="0">engineering contract</tspan></text>
  <text class="st3" transform="translate(445 200)"><tspan x="0" y="0">Major assembly-layer</tspan></text>
  <text class="st3" transform="translate(445 228)"><tspan x="0" y="0">artifacts being checked</tspan></text>
  <text class="st3" transform="translate(758 200)"><tspan x="0" y="0">Multi-artifact consistency</tspan></text>
  <text class="st3" transform="translate(758 228)"><tspan x="0" y="0">— to system quality</tspan></text>
  <text class="st3" transform="translate(1093 195)"><tspan x="0" y="0">Structured check results.</tspan></text>
  <text class="st3" transform="translate(1093 223)"><tspan x="0" y="0">Both success and failure</tspan></text>
  <text class="st3" transform="translate(1093 251)"><tspan x="0" y="0">are recorded, system state</tspan></text>
  <text class="st3" transform="translate(1093 279)"><tspan x="0" y="0">is traceable and reviewable</tspan></text>
  <text class="st12" transform="translate(79 351)"><tspan x="0" y="0">run_p10_checks.py</tspan></text>
  <text class="st9" transform="translate(57 417)"><tspan x="0" y="0">run_command(command, name)</tspan></text>
  <text class="st2" transform="translate(106 457)"><tspan x="0" y="0">returncode</tspan></text>
  <text class="st2" transform="translate(106 496)"><tspan x="0" y="0">passed</tspan></text>
  <text class="st2" transform="translate(106 535)"><tspan x="0" y="0">stdout</tspan></text>
  <text class="st2" transform="translate(106 574)"><tspan x="0" y="0">stderr</tspan></text>
  <text class="st3" transform="translate(46 649)"><tspan x="0" y="0">Command execution is</tspan></text>
  <text class="st3" transform="translate(46 679)"><tspan x="0" y="0">recorded structurally and</tspan></text>
  <text class="st3" transform="translate(46 708)"><tspan x="0" y="0">validation. command is not</tspan></text>
  <text class="st3" transform="translate(46 737)"><tspan x="0" y="0">based on terminal output</tspan></text>
  <text class="st3" transform="translate(46 766)"><tspan x="0" y="0">alone.</tspan></text>
  <text class="st5" transform="translate(497.92 292)"><tspan x="0" y="0">registry</tspan></text>
  <text class="st5" transform="translate(473.62 358)"><tspan x="0" y="0">architecture</tspan></text>
  <text class="st5" transform="translate(478.87 424)"><tspan x="0" y="0">boundaries</tspan></text>
  <text class="st5" transform="translate(481.77 490)"><tspan x="0" y="0">stage_plan</tspan></text>
  <text class="st5" transform="translate(515.71 557)"><tspan x="0" y="0">runs</tspan></text>
  <text class="st5" transform="translate(499.86 623)"><tspan x="0" y="0">metrics</tspan></text>
  <text class="st5" transform="translate(481.75 689)"><tspan x="0" y="0">dashboard</tspan></text>
  <text class="st11" transform="translate(768.24 332.26)"><tspan x="0" y="0">Engineering Contract</tspan></text>
  <text class="st11" transform="translate(823.66 357.29)"><tspan x="0" y="0">Validation</tspan></text>
  <text class="st2" transform="translate(750 409)"><tspan x="0" y="0">Rules engine:</tspan></text>
  <text class="st2" transform="translate(765.49 448)"><tspan x="0" y="0">required artifacts exist</tspan></text>
  <text class="st2" transform="translate(769.04 500)"><tspan x="0" y="0">structural consistency</tspan></text>
  <text class="st2" transform="translate(794.69 552)"><tspan x="0" y="0">status alignment</tspan></text>
  <text class="st2" transform="translate(768.02 604)"><tspan x="0" y="0">report-data alignment</tspan></text>
  <text class="st2" transform="translate(775.77 656)"><tspan x="0" y="0">system completeness</tspan></text>
  <text class="st9" transform="translate(1107 384)"><tspan x="0" y="0">name</tspan></text>
  <text class="st9" transform="translate(1107 437)"><tspan x="0" y="0">command</tspan></text>
  <text class="st8" transform="translate(1103.24 491)"><tspan x="0" y="0">passed</tspan></text>
  <text class="st8" transform="translate(1230.38 491)"><tspan x="0" y="0">/ failed</tspan></text>
  <text class="st9" transform="translate(1107 545)"><tspan x="0" y="0">stdout</tspan></text>
  <text class="st9" transform="translate(1107 599)"><tspan x="0" y="0">stderr</tspan></text>
  <text class="st3" transform="translate(1085 666)"><tspan x="0" y="0">Both success and failure</tspan></text>
  <text class="st3" transform="translate(1085 695)"><tspan x="0" y="0">are recorded. Consequently,</tspan></text>
  <text class="st3" transform="translate(1085 724)"><tspan x="0" y="0">the system state is</tspan></text>
  <text class="st3" transform="translate(1085 753)"><tspan x="0" y="0">traceable and reviewable.</tspan></text>
  <text class="st11" transform="translate(1444.74 330)"><tspan x="0" y="0">System Status /</tspan></text>
  <text class="st11" transform="translate(1447.9 358)"><tspan x="0" y="0">Contract State</tspan></text>
  <text class="st6" transform="translate(1446.86 431)"><tspan x="0" y="0">overall pass / fail</tspan></text>
  <text class="st7" transform="translate(1440.16 492)"><tspan x="0" y="0">validation summary</tspan></text>
  <text class="st7" transform="translate(1458.41 545)"><tspan x="0" y="0">issues to resolve</tspan></text>
  <text class="st7" transform="translate(1435.25 599)"><tspan x="0" y="0">readiness for handoff</tspan></text>
  <text class="st3" transform="translate(1055 802)"><tspan x="0" y="0">(Optional Feedback Loop)</tspan></text>
  <text class="st9" transform="translate(1055 837)"><tspan x="0" y="0" xml:space="preserve">•  fix missing items</tspan></text>
  <text class="st9" transform="translate(1055 866)"><tspan x="0" y="0" xml:space="preserve">•  update architecture or registry</tspan></text>
  <text class="st9" transform="translate(1055 895)"><tspan x="0" y="0" xml:space="preserve">•  rerun validation</tspan></text>
</g>
</svg>
