<?xml version="1.0" encoding="UTF-8" ?>
<!DOCTYPE svg PUBLIC "-//W3C//DTD SVG 1.1//EN" "http://www.w3.org/Graphics/SVG/1.1/DTD/svg11.dtd">
<svg width="1672pt" height="941pt" viewBox="0 0 1672 941" version="1.1" xmlns="http://www.w3.org/2000/svg">
<g id="#fafcfeff">
<path fill="#fafcfe" opacity="1.00" d=" M 0.00 0.00 L 1672.00 0.00 L 1672.00 107.08 C 1670.05 112.53 1671.45 118.34 1670.96 123.97 C 1670.98 134.97 1670.97 145.97 1671.17 156.98 C 1670.56 184.32 1670.94 211.68 1670.88 239.03 C 1671.65 261.00 1670.68 282.98 1671.16 304.95 C 1671.49 319.97 1670.44 334.97 1671.06 349.99 C 1671.17 362.66 1671.37 375.33 1670.83 388.00 C 1670.83 411.67 1670.72 435.35 1671.18 459.02 C 1671.02 475.03 1670.44 491.04 1671.13 507.04 C 1671.54 518.70 1670.50 530.35 1671.08 542.01 C 1671.53 556.67 1670.36 571.33 1671.16 585.98 C 1670.91 599.32 1670.64 612.66 1671.18 626.00 C 1670.87 639.01 1670.73 652.03 1670.85 665.04 C 1670.71 677.37 1671.66 689.70 1670.91 702.03 C 1670.77 711.01 1671.24 720.00 1670.82 728.98 C 1670.99 745.31 1671.50 761.65 1670.95 777.99 C 1670.52 787.98 1671.43 797.99 1670.88 807.99 C 1671.07 814.40 1670.03 821.00 1672.00 827.24 L 1672.00 941.00 L 60.92 941.00 C 59.29 940.57 57.68 939.99 55.98 939.97 C 37.66 940.23 19.33 940.28 1.01 940.04 C 0.41 922.02 1.32 903.99 0.80 885.98 C 0.71 751.65 0.72 617.32 0.83 482.99 C 0.70 472.31 1.43 461.63 0.71 450.96 C 0.78 403.65 0.76 356.33 0.78 309.01 C 0.68 298.68 1.45 288.35 0.82 278.02 C 0.74 229.00 0.90 179.98 0.80 130.96 C 0.62 123.31 1.52 115.57 0.00 108.00 L 0.00 0.00 M 40.15 129.95 C 40.11 227.61 40.17 325.27 40.16 422.94 C 40.02 449.95 40.41 476.97 39.95 503.97 C 40.44 521.61 40.00 539.28 40.08 556.93 C 40.21 586.62 40.13 616.32 40.15 646.01 C 40.31 652.99 39.53 659.97 40.14 666.95 C 40.05 709.97 40.25 752.97 40.00 795.98 C 40.01 801.63 43.77 807.03 49.10 808.92 C 52.57 810.19 56.33 809.71 59.94 809.81 C 240.31 809.77 420.68 809.84 601.05 809.79 C 608.85 810.24 615.53 802.65 614.86 795.02 C 614.81 682.80 614.92 570.59 614.78 458.37 C 622.07 458.32 629.36 458.36 636.65 458.41 C 636.65 462.09 636.67 465.77 636.67 469.45 C 644.14 462.71 651.54 455.88 658.89 449.01 C 651.35 442.32 644.21 435.18 636.73 428.42 C 636.62 432.13 636.57 435.84 636.60 439.56 C 629.39 439.59 622.18 439.52 614.97 439.55 C 614.71 336.70 614.89 233.84 614.86 130.98 C 615.07 125.63 612.42 120.01 607.59 117.45 C 602.88 114.59 597.20 115.79 592.00 115.56 C 412.63 115.59 233.25 115.55 53.88 115.57 C 46.46 115.75 39.87 122.45 40.15 129.95 M 660.07 130.96 C 660.11 351.99 660.05 573.02 660.11 794.05 C 659.61 802.25 666.85 809.63 675.07 809.23 C 815.38 809.25 955.69 809.25 1096.00 809.25 C 1100.10 809.16 1104.35 809.63 1108.30 808.23 C 1113.72 806.34 1117.74 800.92 1117.50 795.11 C 1117.62 682.85 1117.46 570.60 1117.59 458.34 C 1122.82 458.32 1128.05 458.33 1133.28 458.45 C 1133.25 462.07 1133.18 465.70 1133.28 469.32 C 1140.79 462.65 1148.09 455.75 1155.50 448.97 C 1148.06 442.21 1140.72 435.34 1133.34 428.50 C 1133.31 432.16 1133.29 435.83 1133.26 439.50 C 1128.02 439.57 1122.79 439.60 1117.56 439.57 C 1117.49 336.68 1117.61 233.79 1117.52 130.90 C 1117.68 125.40 1114.81 119.69 1109.71 117.29 C 1105.18 114.82 1099.87 115.80 1094.95 115.62 C 954.63 115.65 814.32 115.60 674.01 115.63 C 666.04 115.64 659.59 123.14 660.07 130.96 M 1170.30 116.42 C 1164.75 117.19 1159.76 121.52 1158.50 127.03 C 1157.40 131.26 1157.84 135.66 1157.79 139.97 C 1157.84 357.98 1157.76 575.99 1157.80 794.01 C 1157.19 802.39 1164.57 810.20 1173.03 809.65 C 1320.01 809.74 1467.00 809.63 1613.99 809.64 C 1618.21 809.50 1622.71 810.36 1626.68 808.45 C 1631.66 806.01 1635.05 800.56 1634.93 794.99 C 1634.92 573.98 1634.92 352.97 1634.93 131.96 C 1635.30 124.76 1630.08 117.28 1622.67 116.44 C 1617.44 116.13 1612.20 116.42 1606.98 116.31 C 1461.42 116.40 1315.85 116.16 1170.30 116.42 Z" />
<path fill="#fafcfe" opacity="1.00" d=" M 49.90 117.76 C 52.86 116.94 55.96 117.22 58.99 117.12 C 78.31 116.93 97.66 117.43 117.00 117.10 C 124.66 117.28 132.32 117.17 139.99 117.15 C 152.97 116.53 165.96 117.49 178.96 117.19 C 187.64 117.56 196.31 116.35 204.98 117.12 C 240.30 116.91 275.68 117.63 311.00 116.86 C 319.32 117.33 327.67 117.10 336.01 117.10 C 365.02 117.22 394.01 117.15 423.01 117.09 C 429.35 117.55 435.68 116.42 442.00 117.12 C 448.67 117.20 455.35 117.24 462.02 117.07 C 483.69 117.49 505.36 116.78 527.00 117.14 C 529.33 117.18 531.67 117.17 534.01 117.08 C 548.34 117.01 562.67 117.26 577.02 117.13 C 585.03 116.43 593.07 117.08 601.08 117.00 C 607.80 117.31 613.67 123.16 613.48 129.98 C 613.47 233.18 613.51 336.39 613.48 439.59 C 612.14 439.56 610.81 439.54 609.48 439.52 C 609.42 445.77 609.27 452.02 609.55 458.26 C 610.88 458.28 612.22 458.31 613.56 458.36 C 613.38 567.57 613.57 676.78 613.46 786.00 C 613.29 790.86 614.15 795.91 612.54 800.62 C 610.73 805.67 605.28 808.76 600.02 808.43 C 420.02 808.41 240.03 808.39 60.03 808.45 C 55.62 808.40 50.72 809.01 46.95 806.21 C 42.91 803.57 41.08 798.64 41.28 793.96 C 41.36 572.62 41.18 351.27 41.38 129.92 C 41.58 124.69 44.98 119.64 49.90 117.76 M 66.74 239.92 C 66.74 257.93 66.69 275.94 66.74 293.95 C 66.73 300.89 73.22 306.61 80.03 306.29 C 174.02 306.25 268.01 306.27 361.99 306.28 C 365.52 306.16 369.22 306.77 372.60 305.43 C 377.43 303.45 380.82 298.27 380.48 293.02 C 380.39 283.84 380.49 274.66 380.43 265.48 C 395.96 265.50 411.50 265.44 427.04 265.54 C 430.15 265.62 433.58 265.89 436.05 268.02 C 438.92 270.44 439.73 274.39 439.76 277.98 C 439.73 315.45 439.78 352.93 439.75 390.41 C 441.40 390.39 443.06 390.36 444.72 390.34 C 444.68 392.85 444.66 395.36 444.71 397.89 C 449.41 395.47 453.49 392.05 458.21 389.69 C 454.68 385.70 449.26 383.90 444.87 380.95 C 444.80 383.27 444.96 385.61 444.59 387.91 C 443.57 389.62 441.27 387.54 441.76 386.10 C 441.79 350.75 441.86 315.39 441.79 280.03 C 441.76 275.71 441.40 270.95 438.35 267.60 C 435.25 264.21 430.36 263.48 425.99 263.51 C 410.83 263.54 395.67 263.49 380.50 263.51 C 380.40 255.67 380.40 247.83 380.49 239.99 C 380.62 234.75 377.02 229.75 372.10 228.04 C 369.19 227.05 366.06 227.37 363.05 227.31 C 268.69 227.33 174.32 227.29 79.96 227.30 C 73.00 226.77 66.55 232.94 66.74 239.92 M 66.78 332.96 C 66.70 350.98 66.70 369.00 66.72 387.02 C 66.56 393.66 72.14 399.96 78.93 399.77 C 175.30 399.71 271.66 399.78 368.03 399.75 C 374.94 400.38 380.76 393.66 380.47 387.01 C 380.45 378.49 380.46 369.97 380.45 361.45 C 393.36 361.58 406.27 361.47 419.17 361.52 C 418.77 383.22 418.74 404.94 419.50 426.63 C 427.91 427.37 436.35 427.21 444.78 427.16 C 444.76 429.66 444.76 432.15 444.79 434.65 C 449.31 431.85 453.82 429.02 458.37 426.26 C 453.97 423.11 449.14 420.63 444.74 417.48 C 444.72 419.94 444.73 422.40 444.75 424.87 C 437.39 424.83 430.01 425.06 422.66 424.46 C 420.69 420.94 421.20 416.83 421.13 412.97 C 421.16 397.31 421.16 381.66 421.19 366.00 C 421.23 363.80 420.96 361.61 420.56 359.46 C 407.21 359.04 393.84 359.26 380.49 359.35 C 380.22 350.58 380.56 341.80 380.43 333.03 C 380.45 328.09 377.15 323.50 372.63 321.63 C 368.63 320.04 364.25 320.85 360.06 320.71 C 266.38 320.65 172.69 320.75 79.01 320.66 C 72.55 320.71 66.62 326.40 66.78 332.96 M 472.52 369.69 C 467.94 370.43 463.79 373.83 462.57 378.36 C 461.34 383.49 462.01 388.79 462.14 394.00 C 461.97 437.31 462.22 480.65 461.97 523.94 C 461.77 526.70 461.73 529.56 462.76 532.19 C 464.49 537.19 469.70 540.68 474.96 540.55 C 510.33 540.61 545.70 540.53 581.06 540.60 C 587.38 540.86 593.31 535.38 593.35 529.01 C 593.40 480.03 593.38 431.03 593.32 382.04 C 593.67 375.32 587.74 369.38 581.06 369.51 C 544.88 369.65 508.68 369.21 472.52 369.69 M 66.80 425.88 C 66.66 444.26 66.72 462.65 66.74 481.03 C 66.61 487.62 72.52 493.32 79.03 493.30 C 175.35 493.38 271.67 493.31 367.98 493.35 C 374.66 493.69 380.42 487.54 380.45 481.03 C 380.45 472.42 380.44 463.80 380.49 455.19 C 401.92 455.24 423.35 455.11 444.78 455.21 C 444.75 457.64 444.74 460.07 444.76 462.51 C 449.31 460.03 453.54 457.01 458.17 454.69 C 457.62 453.62 456.77 452.78 455.70 452.24 C 452.06 450.05 448.45 447.82 444.78 445.70 C 444.73 448.06 444.72 450.43 444.74 452.80 C 433.82 452.70 422.91 453.13 412.00 452.82 C 401.50 453.02 390.98 452.36 380.51 453.30 C 380.29 444.20 380.53 435.10 380.37 426.00 C 380.32 419.59 374.40 414.04 368.01 414.37 C 272.00 414.22 175.98 414.39 79.97 414.32 C 73.29 413.70 66.92 419.09 66.80 425.88 M 444.77 474.77 C 444.74 477.05 444.75 479.35 444.77 481.65 C 437.98 482.06 430.97 480.80 424.33 482.48 C 424.15 500.69 424.46 518.92 424.12 537.13 C 424.31 541.87 420.57 545.65 416.01 546.27 C 404.20 546.40 392.39 546.19 380.58 546.36 C 380.26 537.25 380.56 528.13 380.35 519.02 C 380.04 512.78 374.14 507.61 367.99 507.67 C 272.00 507.66 176.00 507.69 80.01 507.69 C 73.18 507.41 66.64 513.03 66.73 520.05 C 66.75 538.03 66.65 556.02 66.74 574.01 C 66.51 580.69 72.47 586.38 79.06 586.30 C 175.36 586.32 271.66 586.31 367.96 586.30 C 374.68 586.74 380.53 580.64 380.44 574.05 C 380.49 565.50 380.38 556.95 380.58 548.41 C 392.06 548.32 403.55 548.50 415.04 548.33 C 419.44 548.37 423.99 545.93 425.30 541.52 C 427.08 534.85 426.12 527.86 426.29 521.04 C 426.46 508.59 426.00 496.12 426.53 483.67 C 428.67 483.76 430.83 483.84 432.97 484.12 C 436.89 484.28 440.82 484.24 444.75 484.17 C 444.72 486.66 444.73 489.15 444.78 491.65 C 449.28 488.83 453.73 485.92 458.22 483.07 C 453.80 480.20 449.41 477.27 444.77 474.77 M 444.81 511.39 C 444.74 513.82 444.72 516.25 444.71 518.69 C 443.26 518.65 441.82 518.61 440.38 518.56 C 440.04 520.35 439.78 522.16 439.80 523.99 C 439.65 558.66 439.87 593.34 439.73 628.01 C 439.98 633.43 435.60 638.70 430.04 638.79 C 413.55 638.96 397.05 638.86 380.56 638.84 C 380.30 630.55 380.50 622.26 380.47 613.96 C 380.90 607.07 374.94 600.56 367.98 600.64 C 271.99 600.51 175.98 600.70 79.99 600.58 C 73.21 600.32 66.65 605.99 66.76 612.96 C 66.65 629.63 66.83 646.30 66.69 662.97 C 66.68 665.55 66.60 668.19 67.41 670.69 C 68.90 676.07 74.47 679.83 80.00 679.50 C 176.01 679.47 272.03 679.53 368.04 679.49 C 374.77 679.79 380.54 673.58 380.43 666.99 C 380.39 658.42 380.41 649.84 380.45 641.26 C 395.31 641.19 410.16 641.14 425.02 641.25 C 429.43 641.26 434.30 640.83 437.77 637.80 C 440.88 635.17 441.83 630.94 441.81 627.04 C 441.73 591.82 441.91 556.60 441.75 521.38 C 442.74 521.26 443.75 521.16 444.76 521.08 C 444.80 523.51 444.81 525.95 444.85 528.39 C 449.04 525.65 453.44 523.23 457.63 520.48 C 457.70 520.22 457.85 519.71 457.93 519.45 C 453.62 516.65 449.09 514.22 444.81 511.39 M 79.52 707.80 C 73.36 709.58 67.82 715.40 68.23 722.11 C 67.04 733.68 68.11 745.31 68.45 756.90 C 69.93 763.35 76.32 768.70 83.03 768.63 C 126.03 768.67 169.03 768.68 212.04 768.61 C 220.01 768.51 226.56 760.80 226.51 753.04 C 226.49 743.01 226.51 732.98 226.49 722.96 C 226.51 714.79 219.41 707.00 211.02 707.41 C 168.69 707.34 126.36 707.42 84.04 707.37 C 82.52 707.40 80.99 707.40 79.52 707.80 M 251.48 707.84 C 244.95 709.70 240.25 716.14 240.44 722.92 C 240.59 732.95 240.46 742.98 240.47 753.01 C 240.32 758.83 243.91 764.37 248.98 767.09 C 253.25 769.58 258.39 768.44 263.07 768.64 C 306.39 768.68 349.71 768.62 393.03 768.65 C 401.41 769.09 408.83 761.25 408.54 752.99 C 408.46 742.64 408.75 732.29 408.50 721.96 C 408.28 713.99 401.03 707.05 393.04 707.41 C 350.03 707.36 307.02 707.34 264.01 707.36 C 259.84 707.47 255.58 706.93 251.48 707.84 M 436.31 707.46 C 429.02 707.97 422.95 714.73 423.19 722.02 C 423.31 732.67 423.14 743.33 423.19 754.00 C 423.00 759.61 426.67 764.90 431.67 767.27 C 435.18 769.06 439.23 768.56 443.03 768.65 C 485.37 768.63 527.70 768.63 570.03 768.63 C 577.77 768.93 584.73 761.68 584.61 754.04 C 584.54 743.34 584.73 732.63 584.60 721.93 C 584.63 713.93 577.00 706.76 569.00 707.37 C 524.77 707.39 480.53 707.25 436.31 707.46 Z" />
<path fill="#fafcfe" opacity="1.00" d=" M 667.44 119.46 C 672.09 116.47 677.84 117.52 683.06 117.34 C 823.07 117.41 963.09 117.34 1103.11 117.39 C 1110.96 116.89 1116.57 124.58 1116.17 131.92 C 1116.19 234.47 1116.20 337.01 1116.21 439.55 C 1112.23 439.50 1108.26 439.52 1104.30 439.56 C 1104.26 445.83 1104.19 452.10 1104.37 458.37 C 1108.29 458.35 1112.21 458.37 1116.14 458.35 C 1116.28 569.57 1116.13 680.80 1116.21 792.03 C 1116.26 796.82 1115.07 802.15 1111.03 805.18 C 1107.35 808.14 1102.37 807.57 1097.97 807.61 C 956.97 807.62 815.97 807.62 674.97 807.59 C 667.90 807.94 661.54 801.90 661.53 794.82 C 661.34 778.88 661.52 762.93 661.43 746.99 C 661.44 541.97 661.44 336.94 661.45 131.92 C 661.38 127.15 663.24 122.05 667.44 119.46 M 700.25 298.35 C 694.43 300.05 691.08 306.15 691.51 311.99 C 691.40 394.35 691.52 476.71 691.45 559.06 C 691.47 566.09 697.92 572.08 704.91 571.71 C 823.62 571.70 942.33 571.76 1061.04 571.71 C 1068.01 572.20 1074.80 566.16 1074.42 559.02 C 1074.47 476.35 1074.36 393.68 1074.43 311.01 C 1074.80 303.76 1068.40 297.09 1061.05 297.66 C 942.69 297.58 824.32 297.66 705.96 297.61 C 704.03 297.62 702.08 297.72 700.25 298.35 M 864.01 593.16 C 869.33 593.38 874.64 593.38 879.96 593.14 C 877.10 588.31 874.60 583.28 871.78 578.43 C 868.78 583.11 866.47 588.18 864.01 593.16 M 870.19 598.52 C 869.99 600.16 869.97 601.82 870.09 603.49 C 871.24 603.44 872.40 603.41 873.57 603.39 C 873.59 601.81 873.60 600.24 873.62 598.68 C 872.46 598.63 871.32 598.57 870.19 598.52 M 869.62 608.54 C 869.83 610.15 870.07 611.79 870.31 613.42 C 871.41 613.37 872.52 613.34 873.65 613.31 C 873.64 611.58 873.63 609.85 873.63 608.13 C 872.28 608.25 870.95 608.39 869.62 608.54 M 870.33 617.60 C 869.98 619.27 869.83 620.97 869.85 622.69 C 871.09 622.65 872.35 622.63 873.61 622.61 C 873.56 620.98 873.51 619.35 873.46 617.74 C 872.40 617.69 871.36 617.64 870.33 617.60 M 869.71 627.60 C 869.74 628.87 869.73 630.16 869.89 631.44 C 870.71 632.58 872.30 632.11 873.50 632.41 C 873.56 630.79 873.68 629.17 873.56 627.56 C 872.39 626.33 870.99 627.13 869.71 627.60 M 869.80 636.87 C 869.81 638.49 869.85 640.14 869.90 641.78 C 871.12 641.78 872.35 641.77 873.60 641.77 C 873.54 640.07 873.49 638.38 873.44 636.70 C 872.53 636.74 870.71 636.82 869.80 636.87 M 870.23 646.66 C 870.00 648.32 869.84 650.00 869.78 651.70 C 871.07 651.67 872.37 651.65 873.67 651.63 C 873.60 649.99 873.54 648.37 873.49 646.75 C 872.39 646.72 871.31 646.68 870.23 646.66 M 870.16 656.66 C 869.97 658.22 869.80 659.79 869.66 661.37 C 871.00 661.45 872.33 661.53 873.69 661.61 C 873.64 659.97 873.59 658.34 873.56 656.72 C 872.41 656.69 871.28 656.68 870.16 656.66 M 710.35 669.41 C 705.44 670.91 702.16 675.90 702.42 680.97 C 702.40 697.65 702.48 714.34 702.42 731.02 C 702.02 737.23 707.73 742.79 713.89 742.50 C 825.23 742.53 936.57 742.58 1047.91 742.51 C 1054.32 742.51 1059.47 736.33 1058.75 730.04 C 1058.69 713.34 1058.72 696.63 1058.68 679.94 C 1058.69 673.81 1053.08 668.45 1046.95 668.79 C 936.30 668.86 825.64 668.75 714.98 668.80 C 713.41 668.81 711.83 668.89 710.35 669.41 Z" />
<path fill="#fafcfe" opacity="1.00" d=" M 1168.39 118.56 C 1171.50 117.63 1174.79 117.82 1178.01 117.81 C 1325.36 117.90 1472.71 117.79 1620.06 117.86 C 1627.71 117.42 1633.94 124.50 1633.49 131.95 C 1633.56 350.29 1633.53 568.63 1633.53 786.97 C 1633.40 791.92 1634.21 797.26 1631.68 801.78 C 1629.24 806.25 1623.91 808.33 1619.00 808.10 C 1470.31 808.07 1321.63 808.08 1172.94 808.12 C 1167.98 808.26 1162.90 805.48 1160.88 800.86 C 1158.77 796.17 1159.70 790.91 1159.53 785.95 C 1159.53 570.98 1159.58 356.01 1159.53 141.03 C 1159.59 137.03 1159.26 133.00 1159.69 129.01 C 1160.37 124.28 1163.68 119.85 1168.39 118.56 M 1291.98 268.05 C 1292.09 379.03 1291.98 490.02 1292.01 601.00 C 1292.18 625.34 1291.53 649.71 1292.44 674.03 C 1292.83 673.90 1293.61 673.66 1294.00 673.53 C 1294.24 671.16 1294.15 668.79 1294.18 666.42 C 1313.76 666.40 1333.34 666.51 1352.93 666.45 C 1352.92 668.90 1352.90 671.36 1352.92 673.83 C 1353.36 673.83 1354.25 673.83 1354.70 673.83 C 1354.65 671.39 1354.64 668.96 1354.64 666.54 C 1374.03 666.38 1393.42 666.45 1412.82 666.49 C 1413.43 668.94 1411.30 673.38 1414.68 674.16 C 1414.76 671.58 1414.79 669.01 1414.91 666.45 C 1434.29 666.59 1453.67 666.29 1473.06 666.46 C 1473.12 669.03 1473.12 671.60 1473.18 674.18 C 1473.59 674.04 1474.40 673.75 1474.81 673.60 C 1475.03 671.23 1474.92 668.84 1474.98 666.47 C 1494.26 666.41 1513.54 666.43 1532.83 666.46 C 1532.84 668.93 1532.83 671.41 1532.85 673.89 L 1534.40 673.95 C 1534.44 671.43 1534.47 668.92 1534.56 666.41 C 1550.81 666.53 1567.06 666.30 1583.30 666.54 C 1583.27 668.96 1583.26 671.39 1583.25 673.81 C 1583.66 673.84 1584.47 673.88 1584.88 673.90 C 1584.91 671.40 1584.97 668.91 1585.08 666.43 C 1595.91 666.36 1606.74 666.45 1617.58 666.56 C 1617.56 669.10 1617.55 671.64 1617.64 674.18 L 1619.18 674.15 C 1619.22 671.00 1619.25 667.84 1619.26 664.70 C 1511.85 664.63 1404.45 664.70 1297.04 664.67 C 1295.89 664.48 1293.46 665.16 1293.81 663.18 C 1293.69 654.39 1293.79 645.59 1293.90 636.80 C 1332.77 636.73 1371.66 637.12 1410.52 636.59 C 1410.94 618.85 1410.70 601.09 1410.66 583.35 C 1371.74 582.98 1332.82 583.23 1293.90 583.21 C 1293.70 568.01 1293.77 552.81 1293.92 537.61 C 1332.80 537.63 1371.69 537.81 1410.57 537.54 C 1410.93 519.78 1410.71 502.02 1410.67 484.26 C 1405.09 484.30 1399.53 483.96 1393.97 483.79 C 1380.65 484.34 1367.29 484.42 1353.98 483.78 C 1340.65 483.83 1327.32 484.66 1314.00 483.82 C 1307.29 483.55 1300.60 484.45 1293.90 484.23 C 1293.72 469.07 1293.75 453.90 1293.92 438.73 C 1339.95 438.99 1385.99 438.67 1432.02 438.83 C 1443.11 438.57 1454.24 439.25 1465.30 438.46 C 1465.05 420.73 1465.58 402.99 1464.99 385.28 C 1429.00 384.90 1392.99 385.54 1357.01 384.97 C 1335.98 385.38 1314.91 385.07 1293.87 385.23 C 1293.70 370.03 1293.78 354.82 1293.90 339.61 C 1333.60 339.91 1373.31 339.66 1413.01 339.76 C 1462.52 339.62 1512.04 339.92 1561.55 339.60 C 1561.68 321.80 1561.57 304.00 1561.58 286.20 C 1472.36 286.05 1383.13 286.16 1293.90 286.13 C 1293.33 278.57 1294.57 270.81 1293.32 263.37 C 1290.96 263.63 1292.38 266.54 1291.98 268.05 Z" />
<path fill="#fafcfe" opacity="1.00" d=" M 77.11 228.97 C 79.05 228.59 81.04 228.65 83.01 228.61 C 177.68 228.70 272.36 228.69 367.03 228.64 C 372.01 228.38 377.45 231.47 378.51 236.60 C 379.88 246.71 378.37 256.92 379.14 267.07 C 378.46 276.95 379.58 286.87 378.61 296.75 C 377.32 301.76 372.15 305.05 367.08 304.74 C 271.36 304.75 175.63 304.76 79.91 304.72 C 73.94 305.07 68.18 300.12 68.32 294.00 C 68.26 275.98 68.29 257.96 68.31 239.94 C 68.00 234.72 72.01 229.89 77.11 228.97 M 90.50 248.43 C 89.31 249.70 87.93 251.08 88.24 253.01 C 88.29 262.97 88.32 272.94 88.37 282.91 C 88.06 284.66 89.79 285.46 90.83 286.50 C 104.22 286.27 117.62 286.55 131.02 286.41 C 133.35 286.59 135.90 284.47 135.58 282.01 C 135.54 271.64 135.73 261.27 135.46 250.91 C 134.71 250.09 133.96 249.28 133.21 248.48 C 118.98 248.38 104.74 248.39 90.50 248.43 Z" />
<path fill="#fafcfe" opacity="1.00" d=" M 90.02 251.80 C 93.13 250.24 96.65 250.69 100.01 250.65 C 110.74 250.64 121.47 250.48 132.20 250.69 C 132.44 251.27 132.91 252.41 133.14 252.98 C 126.31 258.80 119.12 264.18 112.06 269.71 C 107.07 266.14 102.32 262.25 97.34 258.66 C 94.77 256.53 91.85 254.66 90.02 251.80 Z" />
<path fill="#fafcfe" opacity="1.00" d=" M 90.54 256.76 C 96.05 260.37 101.10 264.64 106.38 268.59 C 108.51 270.30 111.22 273.09 114.13 271.25 C 120.46 266.62 126.58 261.70 132.70 256.80 C 133.84 265.64 133.06 274.63 133.33 283.53 C 125.89 284.18 118.41 283.48 110.97 284.16 C 104.14 284.03 97.31 283.73 90.47 283.65 C 90.38 274.69 90.37 265.72 90.54 256.76 Z" />
<path fill="#fafcfe" opacity="1.00" d=" M 725.50 311.75 C 733.51 309.42 742.63 309.81 749.91 314.16 C 752.12 315.71 754.63 317.97 754.34 320.95 C 754.11 328.63 754.24 336.32 754.33 344.01 C 754.59 347.76 751.35 350.63 748.28 352.17 C 740.96 355.43 732.43 355.58 724.83 353.23 C 721.13 352.03 717.20 349.87 715.85 345.99 C 715.43 341.02 715.71 336.01 716.13 331.05 C 716.52 327.07 715.26 323.09 715.90 319.13 C 717.29 315.04 721.60 312.88 725.50 311.75 M 718.30 321.01 C 721.36 325.41 726.86 327.00 731.95 327.38 C 737.55 327.73 743.42 327.12 748.41 324.38 C 750.10 323.31 752.51 321.10 750.80 319.01 C 747.65 314.22 741.17 313.79 736.00 313.38 C 729.61 313.39 721.09 314.21 718.30 321.01 M 718.72 326.06 C 718.70 328.55 718.69 331.05 718.60 333.54 C 723.69 339.05 731.77 340.29 738.90 339.53 C 743.34 338.91 748.11 337.52 751.08 333.93 C 751.55 331.32 751.28 328.65 751.34 326.02 C 741.62 332.29 728.52 332.02 718.72 326.06 M 718.77 338.21 C 718.97 341.28 717.94 345.08 720.41 347.50 C 724.23 351.19 729.93 351.69 734.98 351.77 C 740.89 351.71 747.84 350.65 751.42 345.36 C 751.33 342.91 751.31 340.46 751.34 338.02 C 741.53 343.72 728.57 344.14 718.77 338.21 Z" />
<path fill="#fafcfe" opacity="1.00" d=" M 76.34 322.60 C 78.87 322.19 81.44 322.37 83.99 322.34 C 178.32 322.38 272.64 322.35 366.96 322.35 C 371.06 321.97 375.27 323.90 377.42 327.45 C 379.60 330.88 378.67 335.12 378.86 338.96 C 378.63 345.99 379.38 353.00 379.10 360.03 C 378.55 369.69 379.09 379.37 378.78 389.03 C 378.37 394.79 372.52 398.89 366.97 398.43 C 271.33 398.42 175.70 398.44 80.06 398.43 C 73.77 398.88 68.02 393.39 68.30 387.09 C 68.28 369.05 68.25 351.02 68.30 332.99 C 67.96 328.13 71.69 323.66 76.34 322.60 M 89.65 345.42 C 88.26 352.65 91.84 359.61 95.70 365.47 C 101.90 374.30 111.21 381.62 122.06 383.37 C 126.22 384.19 130.14 381.68 132.64 378.56 C 134.31 376.72 134.20 373.41 132.15 371.90 C 129.51 369.55 126.52 367.14 122.93 366.56 C 120.14 367.21 118.69 369.86 117.04 371.93 C 109.83 368.56 104.31 362.53 100.28 355.79 C 102.40 353.70 105.08 352.00 106.37 349.21 C 105.43 345.47 104.05 341.39 101.06 338.79 C 96.30 337.05 91.24 341.07 89.65 345.42 Z" />
<path fill="#fafcfe" opacity="1.00" d=" M 693.23 367.07 C 749.48 366.83 805.73 367.14 861.98 366.92 C 922.67 367.25 983.36 366.74 1044.05 367.05 C 1053.65 366.98 1063.26 366.66 1072.87 367.14 C 1072.78 428.08 1072.87 489.03 1072.85 549.98 C 1072.73 554.02 1073.26 558.16 1072.30 562.13 C 1071.24 566.68 1066.80 570.18 1062.09 569.90 C 942.70 569.91 823.31 569.94 703.93 569.89 C 697.69 570.10 692.62 564.08 693.19 558.01 C 693.22 494.36 693.17 430.72 693.23 367.07 Z" />
<path fill="#fafcfe" opacity="1.00" d=" M 473.24 371.33 C 509.17 371.15 545.11 371.26 581.04 371.23 C 586.88 370.89 592.10 376.16 591.76 381.99 C 591.74 430.70 591.84 479.40 591.71 528.10 C 591.90 533.43 587.65 538.80 582.08 538.71 C 546.06 538.80 510.04 538.78 474.02 538.75 C 468.24 538.97 463.54 533.61 463.62 528.02 C 463.42 479.70 463.57 431.38 463.55 383.06 C 463.13 377.38 467.38 371.67 473.24 371.33 M 503.39 389.70 C 501.95 390.73 500.21 392.08 500.30 394.04 C 500.25 411.03 500.30 428.02 500.26 445.00 C 499.91 448.55 503.59 451.23 506.88 451.18 C 518.60 451.25 530.32 451.23 542.04 451.24 C 545.32 451.25 548.91 448.49 548.70 444.99 C 548.71 433.32 548.74 421.65 548.74 409.99 C 548.65 408.40 548.96 406.55 547.74 405.31 C 543.88 400.79 539.35 396.90 535.37 392.49 C 533.60 390.80 531.75 388.54 529.08 388.60 C 523.06 388.48 517.05 388.71 511.04 388.60 C 508.48 388.71 505.64 388.17 503.39 389.70 Z" />
<path fill="#fafcfe" opacity="1.00" d=" M 502.69 396.96 C 502.32 394.45 504.18 391.26 506.97 391.52 C 514.11 391.38 521.24 391.53 528.38 391.55 C 528.33 395.74 528.27 399.92 528.43 404.11 C 528.21 405.98 529.81 407.20 530.77 408.59 C 535.69 408.77 540.62 408.76 545.55 408.65 C 546.03 410.72 546.39 412.83 546.31 414.98 C 546.20 425.11 546.31 435.25 546.40 445.39 C 545.41 446.38 544.41 447.36 543.40 448.32 C 530.80 448.09 518.18 448.19 505.58 448.37 C 504.58 447.34 503.60 446.28 502.66 445.21 C 502.80 429.13 502.69 413.04 502.69 396.96 M 510.01 406.66 L 510.14 407.40 C 510.22 408.18 510.39 409.75 510.48 410.54 C 514.24 410.48 518.01 410.53 521.77 410.40 C 521.46 409.14 522.46 406.89 520.58 406.66 C 517.09 405.99 513.51 406.35 510.01 406.66 M 510.40 420.36 C 516.38 420.35 522.36 420.42 528.34 420.29 C 528.40 419.39 528.50 417.60 528.55 416.70 C 522.51 416.70 516.47 416.78 510.43 416.76 C 510.41 417.96 510.40 419.15 510.40 420.36 M 510.24 429.73 C 518.82 429.82 527.40 429.76 535.98 429.86 C 537.64 430.13 539.05 429.41 539.88 427.95 C 538.42 427.02 536.75 426.56 535.04 426.70 C 526.87 426.79 518.70 426.79 510.53 426.70 C 510.42 427.70 510.32 428.71 510.24 429.73 M 510.32 436.31 C 510.36 437.29 510.42 438.28 510.50 439.27 C 519.81 439.29 529.12 439.08 538.44 439.30 C 538.56 438.30 538.68 437.30 538.79 436.30 C 529.30 436.17 519.81 436.13 510.32 436.31 Z" />
<path fill="#fafcfe" opacity="1.00" d=" M 531.29 392.80 C 535.66 397.19 540.61 401.16 544.20 406.25 C 540.71 406.32 537.22 406.31 533.74 406.35 C 533.17 406.06 532.03 405.48 531.45 405.19 C 531.19 401.07 531.29 396.93 531.29 392.80 Z" />
<path fill="#fafcfe" opacity="1.00" d=" M 76.15 416.10 C 77.69 415.60 79.34 415.69 80.94 415.66 C 176.63 415.67 272.32 415.72 368.01 415.66 C 372.19 415.60 376.43 418.16 377.95 422.13 C 379.76 426.50 379.10 431.35 378.95 435.96 C 379.24 451.01 378.70 466.07 378.86 481.14 C 379.14 486.95 373.69 492.03 367.97 491.81 C 271.64 491.86 175.31 491.77 78.99 491.85 C 73.21 492.16 68.24 486.66 68.30 481.05 C 68.30 463.02 68.29 444.99 68.29 426.96 C 68.03 422.09 71.39 417.31 76.15 416.10 M 84.62 440.66 C 84.81 450.83 84.79 461.02 84.64 471.20 C 85.51 473.06 86.68 475.56 89.09 475.51 C 103.74 475.74 118.39 475.51 133.04 475.61 C 135.74 476.11 138.78 473.89 138.61 471.05 C 138.77 461.36 138.58 451.67 138.68 441.98 C 139.20 438.84 135.98 436.20 133.00 436.63 C 118.65 436.81 104.30 436.55 89.95 436.60 C 87.37 436.42 85.87 438.79 84.62 440.66 Z" />
<path fill="#fafcfe" opacity="1.00" d=" M 87.52 441.87 C 87.33 440.45 88.59 439.01 90.06 439.25 C 99.37 439.17 108.69 439.42 118.00 439.09 C 123.80 438.36 129.60 439.39 135.40 439.40 C 136.01 440.87 136.54 442.39 136.39 444.01 C 136.34 453.36 136.44 462.72 136.29 472.07 C 135.73 472.38 134.60 473.00 134.04 473.30 C 119.30 473.37 104.56 473.27 89.82 473.33 C 89.27 473.01 88.17 472.36 87.62 472.03 C 87.41 461.98 87.43 451.92 87.52 441.87 M 96.21 450.17 C 95.72 452.88 97.25 455.47 99.82 456.41 C 103.43 457.14 106.52 453.31 105.56 449.88 C 105.48 447.40 102.90 446.32 101.04 445.34 C 98.98 446.27 96.02 447.40 96.21 450.17 M 115.59 448.38 C 115.22 448.89 114.47 449.92 114.10 450.44 C 119.35 452.40 125.28 451.43 130.77 451.06 C 130.79 450.32 130.85 448.82 130.87 448.08 L 130.72 448.41 C 125.69 448.16 120.62 448.06 115.59 448.38 M 115.56 455.41 C 114.27 456.46 114.27 457.50 115.56 458.51 C 118.60 458.71 121.65 458.44 124.70 458.38 L 124.57 457.27 C 126.31 457.68 128.04 458.21 129.81 458.47 C 130.58 457.73 130.45 456.60 130.67 455.65 C 128.57 455.60 126.47 455.55 124.37 455.49 C 121.43 455.43 118.49 455.20 115.56 455.41 M 96.52 458.71 C 93.60 460.22 91.85 463.18 92.27 466.50 C 97.99 466.57 103.71 466.56 109.43 466.47 C 109.45 465.52 109.48 463.63 109.50 462.68 C 107.98 460.95 106.46 458.61 103.91 458.50 C 101.45 458.37 98.94 458.23 96.52 458.71 M 115.13 463.32 C 115.13 463.92 115.12 465.11 115.12 465.70 C 120.20 466.26 125.28 465.81 130.37 465.67 C 130.38 465.09 130.39 463.91 130.40 463.32 C 125.31 463.25 120.22 463.30 115.13 463.32 Z" />
<path fill="#fafcfe" opacity="1.00" d=" M 77.25 509.32 C 119.46 508.91 161.72 509.26 203.94 509.14 C 258.63 509.16 313.32 509.10 368.01 509.16 C 373.85 508.88 379.03 514.13 378.83 519.95 C 378.91 538.32 378.89 556.71 378.81 575.09 C 378.60 581.04 372.82 585.45 367.07 585.13 C 286.02 585.05 204.98 585.16 123.94 585.07 C 108.89 584.54 93.83 585.42 78.78 585.03 C 73.06 584.83 68.09 579.80 68.28 574.03 C 68.32 555.99 68.25 537.96 68.32 519.93 C 68.13 514.83 72.25 510.07 77.25 509.32 M 106.07 526.18 C 100.33 529.84 94.18 532.90 88.66 536.88 C 88.58 537.48 88.42 538.68 88.34 539.28 C 88.99 539.38 90.27 539.57 90.91 539.66 C 91.04 541.53 92.91 541.99 94.25 542.81 C 94.23 548.27 94.48 553.75 94.20 559.22 C 91.72 560.22 90.71 562.76 88.62 564.20 C 88.60 565.22 88.60 566.25 88.62 567.29 C 99.41 567.35 110.20 567.25 120.99 567.30 C 124.95 567.29 128.95 567.49 132.87 566.78 C 132.60 565.36 132.49 563.73 130.84 563.26 C 130.63 561.33 129.46 560.07 127.39 560.20 C 127.22 554.02 127.27 547.84 127.52 541.67 C 128.14 541.58 129.40 541.39 130.02 541.30 C 131.34 540.01 132.67 538.63 132.99 536.73 C 125.98 532.92 119.19 528.69 112.32 524.64 C 110.14 523.24 107.92 525.12 106.07 526.18 Z" />
<path fill="#fafcfe" opacity="1.00" d=" M 107.43 528.59 C 108.70 528.00 110.12 526.56 111.59 527.43 C 117.25 530.49 122.64 534.05 128.30 537.12 C 122.96 538.12 117.44 537.37 112.04 537.54 C 105.51 537.42 98.96 537.94 92.45 537.33 C 97.69 534.86 102.51 531.63 107.43 528.59 M 109.22 530.24 C 109.36 531.81 109.52 533.39 109.73 534.96 C 111.72 534.07 111.81 532.14 111.75 530.28 C 111.12 530.27 109.85 530.25 109.22 530.24 Z" />
<path fill="#fafcfe" opacity="1.00" d=" M 100.43 541.23 C 102.48 541.22 104.52 541.23 106.57 541.24 C 106.66 547.63 106.56 554.02 106.42 560.41 C 104.47 560.39 102.53 560.37 100.58 560.34 C 100.25 553.98 100.32 547.60 100.43 541.23 Z" />
<path fill="#fafcfe" opacity="1.00" d=" M 114.25 541.37 C 116.30 541.39 118.34 541.42 120.38 541.44 C 120.28 547.75 120.46 554.05 120.45 560.36 C 118.28 560.28 116.00 560.80 113.91 560.07 C 113.72 553.85 113.36 547.55 114.25 541.37 Z" />
<path fill="#fafcfe" opacity="1.00" d=" M 109.43 542.50 C 109.96 542.51 111.00 542.54 111.52 542.56 C 111.49 548.35 111.45 554.15 111.45 559.95 C 110.94 559.90 109.93 559.79 109.42 559.74 C 109.50 553.99 109.34 548.24 109.43 542.50 Z" />
<path fill="#fafcfe" opacity="1.00" d=" M 122.72 544.20 C 123.21 544.20 124.18 544.21 124.66 544.21 C 124.65 549.39 124.62 554.57 124.61 559.75 C 124.12 559.70 123.13 559.59 122.64 559.53 C 122.64 554.42 122.64 549.31 122.72 544.20 Z" />
<path fill="#fafcfe" opacity="1.00" d=" M 77.25 602.38 C 126.82 602.02 176.41 602.37 225.99 602.23 C 273.32 602.24 320.66 602.22 368.00 602.25 C 373.84 601.86 379.12 607.17 378.87 612.98 C 378.67 620.32 379.51 627.66 378.91 635.00 C 378.42 646.02 379.64 657.05 378.90 668.06 C 378.56 674.47 372.02 678.63 365.98 678.21 C 272.65 678.26 179.32 678.22 85.99 678.22 C 82.35 678.14 78.52 678.63 75.10 677.08 C 71.06 675.56 68.08 671.45 68.31 667.07 C 68.28 649.03 68.27 630.98 68.30 612.94 C 68.18 607.88 72.21 603.04 77.25 602.38 M 106.70 614.89 C 106.26 616.34 105.82 617.80 105.39 619.27 C 101.31 620.02 97.20 620.39 93.05 620.37 C 91.42 620.20 90.58 621.83 89.48 622.73 C 89.69 636.11 89.42 649.50 89.64 662.88 C 90.40 663.69 91.17 664.51 91.93 665.34 C 103.64 665.41 115.35 665.41 127.05 665.46 C 129.15 665.69 130.21 663.54 131.45 662.27 C 131.15 649.86 131.64 637.44 131.08 625.04 C 130.70 623.38 130.85 620.70 128.63 620.45 C 125.37 620.38 122.05 619.42 118.85 620.29 C 117.43 619.66 116.02 619.02 114.62 618.35 C 114.75 616.33 114.02 614.63 112.31 613.54 C 111.41 613.56 109.62 613.60 108.72 613.61 C 108.22 613.93 107.20 614.57 106.70 614.89 Z" />
<path fill="#fafcfe" opacity="1.00" d=" M 108.60 616.56 C 109.84 616.51 111.08 616.48 112.32 616.46 C 112.33 617.49 112.33 618.52 112.34 619.56 C 110.97 619.56 109.61 619.55 108.25 619.55 C 108.37 618.55 108.48 617.55 108.60 616.56 Z" />
<path fill="#fafcfe" opacity="1.00" d=" M 118.83 622.59 C 122.09 622.56 125.34 622.55 128.60 622.59 C 128.79 635.91 128.76 649.23 128.59 662.55 C 120.73 663.09 112.87 663.50 105.00 663.09 C 100.76 663.18 96.50 663.46 92.29 662.83 C 92.11 654.54 92.53 646.24 91.85 637.97 C 92.36 632.83 92.25 627.68 92.38 622.54 C 95.50 622.55 98.61 622.58 101.72 622.58 C 101.66 623.29 101.54 624.72 101.48 625.43 C 102.35 626.03 102.92 627.36 104.11 627.36 C 108.49 627.44 112.90 627.56 117.28 627.30 C 119.27 626.52 118.58 624.25 118.83 622.59 M 110.21 633.14 C 104.59 632.74 102.52 641.13 107.06 643.96 C 109.60 646.38 113.95 645.17 115.38 642.14 C 118.05 638.49 114.82 632.49 110.21 633.14 M 99.52 656.58 C 106.56 656.90 113.61 656.67 120.65 656.64 C 120.56 654.38 121.05 651.63 118.99 650.06 C 115.79 646.93 111.00 647.29 106.91 647.72 C 102.66 648.40 98.98 652.06 99.52 656.58 Z" />
<path fill="#fafcfe" opacity="1.00" d=" M 104.48 622.68 C 108.53 622.71 112.59 622.68 116.64 622.69 L 116.73 624.71 C 112.60 624.59 108.47 624.59 104.34 624.64 L 104.48 622.68 Z" />
<path fill="#fafcfe" opacity="1.00" d=" M 712.32 670.48 C 823.54 670.23 934.78 670.47 1046.01 670.36 C 1049.54 670.10 1053.39 671.39 1055.39 674.47 C 1057.75 677.85 1057.23 682.11 1057.27 686.00 C 1057.23 701.01 1057.32 716.02 1057.21 731.04 C 1057.32 735.52 1054.07 740.09 1049.49 740.72 C 1046.35 741.13 1043.17 740.90 1040.02 740.94 C 931.33 740.95 822.65 740.93 713.97 740.95 C 710.55 741.11 707.11 739.39 705.41 736.40 C 703.99 734.19 704.29 731.46 704.20 728.99 C 704.23 712.63 704.13 696.28 704.22 679.93 C 704.00 675.31 707.75 670.99 712.32 670.48 M 721.38 705.30 C 719.58 706.74 718.41 709.73 720.55 711.43 C 726.09 716.90 731.46 722.55 737.12 727.89 C 739.17 729.73 741.50 727.38 742.91 725.91 C 748.36 720.00 754.06 714.35 759.70 708.63 C 760.60 707.59 761.83 706.57 761.72 705.05 C 761.82 700.88 762.04 696.65 761.40 692.52 C 759.60 689.53 756.87 687.07 753.90 685.27 C 750.10 684.01 745.95 684.66 742.01 684.53 C 735.01 691.33 728.10 698.23 721.38 705.30 Z" />
<path fill="#fafcfe" opacity="1.00" d=" M 722.09 708.89 C 729.02 701.79 735.81 694.54 742.89 687.59 C 746.26 687.67 749.69 687.30 753.02 687.95 C 755.45 689.27 757.40 691.51 758.61 693.99 C 758.80 697.81 759.13 701.76 758.50 705.53 C 752.35 712.58 745.19 718.70 738.95 725.68 C 733.50 719.90 727.61 714.58 722.09 708.89 M 747.59 696.04 C 747.26 698.09 749.85 698.76 751.06 699.87 C 752.23 698.63 754.51 697.42 753.60 695.37 C 753.02 692.08 747.26 692.61 747.59 696.04 Z" />
<path fill="#fafcfe" opacity="1.00" d=" M 79.23 709.21 C 82.06 708.28 85.10 708.57 88.04 708.49 C 129.01 708.52 169.98 708.47 210.95 708.52 C 218.79 708.07 225.52 715.42 225.47 723.03 C 225.54 732.98 225.55 742.95 225.47 752.91 C 225.53 760.54 218.74 767.86 210.94 767.53 C 168.62 767.53 126.30 767.52 83.98 767.52 C 77.62 767.80 71.30 763.26 69.61 757.12 C 68.23 748.15 68.81 739.04 68.65 730.01 C 68.69 726.01 68.87 721.96 69.90 718.08 C 71.32 713.82 75.02 710.59 79.23 709.21 M 83.57 726.83 C 83.43 732.23 82.87 737.89 85.11 742.99 C 87.10 748.37 92.03 751.94 96.95 754.49 C 101.05 753.54 104.30 750.11 107.00 746.98 C 111.55 741.60 111.27 734.13 111.43 727.51 C 106.49 725.86 101.60 724.08 97.18 721.28 C 93.28 724.40 88.55 726.38 83.57 726.83 Z" />
<path fill="#fafcfe" opacity="1.00" d=" M 251.12 709.15 C 252.99 708.45 255.02 708.54 256.98 708.49 C 300.30 708.54 343.61 708.48 386.92 708.49 C 389.96 708.51 393.02 708.38 396.05 708.78 C 402.59 709.96 407.63 716.44 407.47 723.03 C 407.41 733.02 407.55 743.00 407.48 752.99 C 407.35 760.50 400.88 768.03 393.04 767.52 C 347.68 767.53 302.32 767.54 256.96 767.52 C 248.89 768.18 241.47 761.03 241.59 752.99 C 241.59 743.01 241.40 733.02 241.62 723.04 C 241.42 717.03 245.50 711.18 251.12 709.15 M 258.19 724.64 C 256.62 724.64 255.05 724.63 253.49 724.66 C 253.40 725.57 253.32 726.49 253.25 727.43 C 254.87 727.40 256.49 727.36 258.11 727.35 C 259.32 728.86 260.51 731.06 262.82 730.56 C 264.83 730.80 265.69 728.66 266.86 727.45 C 271.68 727.43 276.50 727.46 281.32 727.33 C 281.31 726.68 281.29 725.36 281.28 724.70 C 276.47 724.61 271.65 724.63 266.83 724.66 C 265.74 723.43 264.93 721.28 262.94 721.49 C 260.63 721.00 259.33 723.05 258.19 724.64 M 259.55 735.56 C 257.62 737.87 252.35 734.70 253.13 739.33 C 255.51 739.53 258.49 738.65 260.18 740.91 C 261.42 742.42 263.48 741.60 265.13 741.52 C 265.45 740.96 266.09 739.84 266.41 739.28 C 271.29 739.12 276.18 739.50 281.05 739.22 L 281.80 737.17 L 280.46 737.24 L 281.74 736.79 C 276.60 736.30 271.43 736.78 266.28 736.52 C 265.40 733.53 261.29 733.23 259.55 735.56 M 269.61 748.53 C 264.25 748.66 258.88 748.61 253.52 748.70 C 253.46 749.58 253.42 750.46 253.40 751.35 C 258.80 751.37 264.20 751.32 269.60 751.48 C 270.99 752.98 272.58 755.23 274.95 754.19 C 277.04 752.95 278.57 750.70 281.36 751.21 C 281.37 750.55 281.38 749.22 281.39 748.56 C 280.29 748.51 279.19 748.46 278.10 748.41 C 277.00 747.17 276.00 745.09 274.00 745.46 C 271.91 745.14 270.88 747.31 269.61 748.53 Z" />
<path fill="#fafcfe" opacity="1.00" d=" M 434.13 709.08 C 436.01 708.41 438.04 708.52 440.01 708.47 C 483.32 708.54 526.63 708.46 569.94 708.55 C 577.32 708.15 583.28 714.96 583.45 722.04 C 583.52 732.67 583.68 743.31 583.46 753.94 C 583.48 761.08 577.24 767.68 570.00 767.51 C 526.01 767.58 482.02 767.51 438.03 767.53 C 432.89 767.83 428.17 764.45 425.74 760.10 C 424.03 757.03 424.21 753.41 424.19 750.02 C 424.31 740.35 423.96 730.67 424.29 721.00 C 424.47 715.36 429.02 710.83 434.13 709.08 M 437.02 728.00 C 434.99 730.51 432.36 733.63 434.00 737.02 C 435.81 736.55 437.55 735.86 439.25 735.08 C 438.54 734.04 437.85 733.01 437.17 731.97 C 439.76 728.62 443.57 725.67 448.06 726.19 C 452.19 725.94 455.56 728.87 457.79 732.06 C 456.95 733.15 456.11 734.24 455.25 735.33 C 457.04 736.22 459.05 736.27 461.02 736.33 C 461.42 735.76 462.23 734.60 462.63 734.02 C 460.14 731.31 458.50 727.76 455.31 725.76 C 449.72 722.01 441.48 722.90 437.02 728.00 M 458.72 740.26 C 458.94 747.89 449.21 753.06 442.80 749.23 C 439.17 747.40 437.92 743.32 436.02 740.04 C 435.00 740.91 433.93 742.08 434.64 743.51 C 435.68 746.69 437.96 749.44 440.83 751.16 C 444.17 753.32 448.41 752.89 452.15 752.31 C 457.38 750.76 460.45 745.54 461.64 740.51 C 460.66 740.41 459.69 740.32 458.72 740.26 Z" />
<path fill="#fafcfe" opacity="1.00" d=" M 260.77 726.02 C 261.05 725.49 261.61 724.43 261.88 723.90 C 262.54 724.13 263.84 724.58 264.50 724.81 C 265.00 727.22 261.28 729.11 260.77 726.02 Z" />
<path fill="#fafcfe" opacity="1.00" d=" M 86.32 728.90 C 90.17 728.29 93.70 726.62 97.08 724.78 C 100.94 725.91 104.38 728.76 108.62 728.96 C 109.43 736.09 107.97 744.41 101.72 748.80 C 100.17 749.66 98.91 751.75 96.97 751.39 C 93.25 749.30 89.43 746.65 87.65 742.62 C 86.26 739.31 85.42 735.66 86.05 732.09 C 86.12 731.29 86.25 729.70 86.32 728.90 Z" />
<path fill="#fafcfe" opacity="1.00" d=" M 272.36 748.45 C 273.34 748.41 274.32 748.40 275.31 748.41 C 275.28 749.36 275.27 750.33 275.26 751.30 C 274.37 751.34 273.49 751.37 272.61 751.40 C 272.51 750.41 272.42 749.43 272.36 748.45 Z" />
</g>
<g id="#b3c4e5ff">
<path fill="#b3c4e5" opacity="1.00" d=" M 1670.96 123.97 C 1671.45 118.34 1670.05 112.53 1672.00 107.08 L 1672.00 827.24 C 1670.03 821.00 1671.07 814.40 1670.88 807.99 C 1671.43 797.99 1670.52 787.98 1670.95 777.99 C 1671.50 761.65 1670.99 745.31 1670.82 728.98 C 1671.24 720.00 1670.77 711.01 1670.91 702.03 C 1671.66 689.70 1670.71 677.37 1670.85 665.04 C 1670.73 652.03 1670.87 639.01 1671.18 626.00 C 1670.64 612.66 1670.91 599.32 1671.16 585.98 C 1670.36 571.33 1671.53 556.67 1671.08 542.01 C 1670.50 530.35 1671.54 518.70 1671.13 507.04 C 1670.44 491.04 1671.02 475.03 1671.18 459.02 C 1670.72 435.35 1670.83 411.67 1670.83 388.00 C 1671.37 375.33 1671.17 362.66 1671.06 349.99 C 1670.44 334.97 1671.49 319.97 1671.16 304.95 C 1670.68 282.98 1671.65 261.00 1670.88 239.03 C 1670.94 211.68 1670.56 184.32 1671.17 156.98 C 1670.97 145.97 1670.98 134.97 1670.96 123.97 Z" />
<path fill="#b3c4e5" opacity="1.00" d=" M 0.00 108.00 C 1.52 115.57 0.62 123.31 0.80 130.96 C 0.90 179.98 0.74 229.00 0.82 278.02 C 1.45 288.35 0.68 298.68 0.78 309.01 C 0.76 356.33 0.78 403.65 0.71 450.96 C 1.43 461.63 0.70 472.31 0.83 482.99 C 0.72 617.32 0.71 751.65 0.80 885.98 C 1.32 903.99 0.41 922.02 1.01 940.04 C 19.33 940.28 37.66 940.23 55.98 939.97 C 57.68 939.99 59.29 940.57 60.92 941.00 L 0.00 941.00 L 0.00 108.00 Z" />
<path fill="#b3c4e5" opacity="1.00" d=" M 510.01 406.66 C 513.51 406.35 517.09 405.99 520.58 406.66 C 522.46 406.89 521.46 409.14 521.77 410.40 C 521.50 409.68 520.96 408.25 520.69 407.54 C 517.21 406.89 513.65 407.26 510.14 407.40 L 510.01 406.66 Z" />
<path fill="#b3c4e5" opacity="1.00" d=" M 130.72 448.41 L 130.87 448.08 C 130.85 448.82 130.79 450.32 130.77 451.06 C 125.28 451.43 119.35 452.40 114.10 450.44 C 119.32 450.59 124.57 450.87 129.79 450.45 C 130.02 449.94 130.49 448.92 130.72 448.41 Z" />
<path fill="#b3c4e5" opacity="1.00" d=" M 124.37 455.49 C 126.47 455.55 128.57 455.60 130.67 455.65 C 130.45 456.60 130.58 457.73 129.81 458.47 C 128.04 458.21 126.31 457.68 124.57 457.27 C 124.50 456.67 124.44 456.08 124.37 455.49 Z" />
<path fill="#b3c4e5" opacity="1.00" d=" M 96.62 559.70 C 96.61 554.27 96.41 548.84 96.48 543.41 L 98.41 543.50 C 98.41 548.85 98.33 554.20 98.35 559.55 C 97.92 559.59 97.05 559.66 96.62 559.70 Z" />
<path fill="#b3c4e5" opacity="1.00" d=" M 93.02 564.82 C 93.13 564.29 93.36 563.24 93.47 562.71 C 103.65 562.71 113.83 562.78 124.01 562.69 C 125.84 562.56 127.64 562.93 129.02 564.24 C 124.84 565.66 120.39 564.87 116.07 565.05 C 108.39 564.96 100.69 565.33 93.02 564.82 Z" />
<path fill="#b3c4e5" opacity="1.00" d=" M 261.42 736.47 C 263.64 734.54 264.60 738.08 264.54 739.79 C 262.27 740.10 260.35 738.95 261.42 736.47 Z" />
</g>
<g id="#01358fff">
<path fill="#01358f" opacity="1.00" d=" M 40.15 129.95 C 39.87 122.45 46.46 115.75 53.88 115.57 C 233.25 115.55 412.63 115.59 592.00 115.56 C 597.20 115.79 602.88 114.59 607.59 117.45 C 612.42 120.01 615.07 125.63 614.86 130.98 C 614.89 233.84 614.71 336.70 614.97 439.55 C 622.18 439.52 629.39 439.59 636.60 439.56 C 636.57 435.84 636.62 432.13 636.73 428.42 C 644.21 435.18 651.35 442.32 658.89 449.01 C 651.54 455.88 644.14 462.71 636.67 469.45 C 636.67 465.77 636.65 462.09 636.65 458.41 C 629.36 458.36 622.07 458.32 614.78 458.37 C 614.92 570.59 614.81 682.80 614.86 795.02 C 615.53 802.65 608.85 810.24 601.05 809.79 C 420.68 809.84 240.31 809.77 59.94 809.81 C 56.33 809.71 52.57 810.19 49.10 808.92 C 43.77 807.03 40.01 801.63 40.00 795.98 C 40.25 752.97 40.05 709.97 40.14 666.95 C 39.53 659.97 40.31 652.99 40.15 646.01 C 40.13 616.32 40.21 586.62 40.08 556.93 C 40.00 539.28 40.44 521.61 39.95 503.97 C 40.41 476.97 40.02 449.95 40.16 422.94 C 40.17 325.27 40.11 227.61 40.15 129.95 M 49.90 117.76 C 44.98 119.64 41.58 124.69 41.38 129.92 C 41.18 351.27 41.36 572.62 41.28 793.96 C 41.08 798.64 42.91 803.57 46.95 806.21 C 50.72 809.01 55.62 808.40 60.03 808.45 C 240.03 808.39 420.02 808.41 600.02 808.43 C 605.28 808.76 610.73 805.67 612.54 800.62 C 614.15 795.91 613.29 790.86 613.46 786.00 C 613.57 676.78 613.38 567.57 613.56 458.36 C 612.22 458.31 610.88 458.28 609.55 458.26 C 609.27 452.02 609.42 445.77 609.48 439.52 C 610.81 439.54 612.14 439.56 613.48 439.59 C 613.51 336.39 613.47 233.18 613.48 129.98 C 613.67 123.16 607.80 117.31 601.08 117.00 C 593.07 117.08 585.03 116.43 577.02 117.13 C 562.67 117.26 548.34 117.01 534.01 117.08 C 531.67 117.17 529.33 117.18 527.00 117.14 C 505.36 116.78 483.69 117.49 462.02 117.07 C 455.35 117.24 448.67 117.20 442.00 117.12 C 435.68 116.42 429.35 117.55 423.01 117.09 C 394.01 117.15 365.02 117.22 336.01 117.10 C 327.67 117.10 319.32 117.33 311.00 116.86 C 275.68 117.63 240.30 116.91 204.98 117.12 C 196.31 116.35 187.64 117.56 178.96 117.19 C 165.96 117.49 152.97 116.53 139.99 117.15 C 132.32 117.17 124.66 117.28 117.00 117.10 C 97.66 117.43 78.31 116.93 58.99 117.12 C 55.96 117.22 52.86 116.94 49.90 117.76 Z" />
<path fill="#01358f" opacity="1.00" d=" M 66.74 239.92 C 66.55 232.94 73.00 226.77 79.96 227.30 C 174.32 227.29 268.69 227.33 363.05 227.31 C 366.06 227.37 369.19 227.05 372.10 228.04 C 377.02 229.75 380.62 234.75 380.49 239.99 C 380.40 247.83 380.40 255.67 380.50 263.51 C 395.67 263.49 410.83 263.54 425.99 263.51 C 430.36 263.48 435.25 264.21 438.35 267.60 C 441.40 270.95 441.76 275.71 441.79 280.03 C 441.86 315.39 441.79 350.75 441.76 386.10 C 441.27 387.54 443.57 389.62 444.59 387.91 C 444.96 385.61 444.80 383.27 444.87 380.95 C 449.26 383.90 454.68 385.70 458.21 389.69 C 453.49 392.05 449.41 395.47 444.71 397.89 C 444.66 395.36 444.68 392.85 444.72 390.34 C 443.06 390.36 441.40 390.39 439.75 390.41 C 439.78 352.93 439.73 315.45 439.76 277.98 C 439.73 274.39 438.92 270.44 436.05 268.02 C 433.58 265.89 430.15 265.62 427.04 265.54 C 411.50 265.44 395.96 265.50 380.43 265.48 C 380.49 274.66 380.39 283.84 380.48 293.02 C 380.82 298.27 377.43 303.45 372.60 305.43 C 369.22 306.77 365.52 306.16 361.99 306.28 C 268.01 306.27 174.02 306.25 80.03 306.29 C 73.22 306.61 66.73 300.89 66.74 293.95 C 66.69 275.94 66.74 257.93 66.74 239.92 M 77.11 228.97 C 72.01 229.89 68.00 234.72 68.31 239.94 C 68.29 257.96 68.26 275.98 68.32 294.00 C 68.18 300.12 73.94 305.07 79.91 304.72 C 175.63 304.76 271.36 304.75 367.08 304.74 C 372.15 305.05 377.32 301.76 378.61 296.75 C 379.58 286.87 378.46 276.95 379.14 267.07 C 378.37 256.92 379.88 246.71 378.51 236.60 C 377.45 231.47 372.01 228.38 367.03 228.64 C 272.36 228.69 177.68 228.70 83.01 228.61 C 81.04 228.65 79.05 228.59 77.11 228.97 Z" />
<path fill="#01358f" opacity="1.00" d=" M 90.50 248.43 C 104.74 248.39 118.98 248.38 133.21 248.48 C 133.96 249.28 134.71 250.09 135.46 250.91 C 135.73 261.27 135.54 271.64 135.58 282.01 C 135.90 284.47 133.35 286.59 131.02 286.41 C 117.62 286.55 104.22 286.27 90.83 286.50 C 89.79 285.46 88.06 284.66 88.37 282.91 C 88.32 272.94 88.29 262.97 88.24 253.01 C 87.93 251.08 89.31 249.70 90.50 248.43 M 90.02 251.80 C 91.85 254.66 94.77 256.53 97.34 258.66 C 102.32 262.25 107.07 266.14 112.06 269.71 C 119.12 264.18 126.31 258.80 133.14 252.98 C 132.91 252.41 132.44 251.27 132.20 250.69 C 121.47 250.48 110.74 250.64 100.01 250.65 C 96.65 250.69 93.13 250.24 90.02 251.80 M 90.54 256.76 C 90.37 265.72 90.38 274.69 90.47 283.65 C 97.31 283.73 104.14 284.03 110.97 284.16 C 118.41 283.48 125.89 284.18 133.33 283.53 C 133.06 274.63 133.84 265.64 132.70 256.80 C 126.58 261.70 120.46 266.62 114.13 271.25 C 111.22 273.09 108.51 270.30 106.38 268.59 C 101.10 264.64 96.05 260.37 90.54 256.76 Z" />
<path fill="#01358f" opacity="1.00" d=" M 1291.98 268.05 C 1292.38 266.54 1290.96 263.63 1293.32 263.37 C 1294.57 270.81 1293.33 278.57 1293.90 286.13 C 1294.12 303.95 1294.05 321.79 1293.90 339.61 C 1293.78 354.82 1293.70 370.03 1293.87 385.23 C 1294.11 403.06 1294.03 420.90 1293.92 438.73 C 1293.75 453.90 1293.72 469.07 1293.90 484.23 C 1294.09 502.02 1294.03 519.82 1293.92 537.61 C 1293.77 552.81 1293.70 568.01 1293.90 583.21 C 1294.07 601.07 1294.09 618.94 1293.90 636.80 C 1293.79 645.59 1293.69 654.39 1293.81 663.18 C 1293.46 665.16 1295.89 664.48 1297.04 664.67 C 1404.45 664.70 1511.85 664.63 1619.26 664.70 C 1619.25 667.84 1619.22 671.00 1619.18 674.15 L 1617.64 674.18 C 1617.55 671.64 1617.56 669.10 1617.58 666.56 C 1606.74 666.45 1595.91 666.36 1585.08 666.43 C 1584.97 668.91 1584.91 671.40 1584.88 673.90 C 1584.47 673.88 1583.66 673.84 1583.25 673.81 C 1583.26 671.39 1583.27 668.96 1583.30 666.54 C 1567.06 666.30 1550.81 666.53 1534.56 666.41 C 1534.47 668.92 1534.44 671.43 1534.40 673.95 L 1532.85 673.89 C 1532.83 671.41 1532.84 668.93 1532.83 666.46 C 1513.54 666.43 1494.26 666.41 1474.98 666.47 C 1474.92 668.84 1475.03 671.23 1474.81 673.60 C 1474.40 673.75 1473.59 674.04 1473.18 674.18 C 1473.12 671.60 1473.12 669.03 1473.06 666.46 C 1453.67 666.29 1434.29 666.59 1414.91 666.45 C 1414.79 669.01 1414.76 671.58 1414.68 674.16 C 1411.30 673.38 1413.43 668.94 1412.82 666.49 C 1393.42 666.45 1374.03 666.38 1354.64 666.54 C 1354.64 668.96 1354.65 671.39 1354.70 673.83 C 1354.25 673.83 1353.36 673.83 1352.92 673.83 C 1352.90 671.36 1352.92 668.90 1352.93 666.45 C 1333.34 666.51 1313.76 666.40 1294.18 666.42 C 1294.15 668.79 1294.24 671.16 1294.00 673.53 C 1293.61 673.66 1292.83 673.90 1292.44 674.03 C 1291.53 649.71 1292.18 625.34 1292.01 601.00 C 1291.98 490.02 1292.09 379.03 1291.98 268.05 Z" />
<path fill="#01358f" opacity="1.00" d=" M 66.78 332.96 C 66.62 326.40 72.55 320.71 79.01 320.66 C 172.69 320.75 266.38 320.65 360.06 320.71 C 364.25 320.85 368.63 320.04 372.63 321.63 C 377.15 323.50 380.45 328.09 380.43 333.03 C 380.56 341.80 380.22 350.58 380.49 359.35 C 393.84 359.26 407.21 359.04 420.56 359.46 C 420.96 361.61 421.23 363.80 421.19 366.00 C 421.16 381.66 421.16 397.31 421.13 412.97 C 421.20 416.83 420.69 420.94 422.66 424.46 C 430.01 425.06 437.39 424.83 444.75 424.87 C 444.73 422.40 444.72 419.94 444.74 417.48 C 449.14 420.63 453.97 423.11 458.37 426.26 C 453.82 429.02 449.31 431.85 444.79 434.65 C 444.76 432.15 444.76 429.66 444.78 427.16 C 436.35 427.21 427.91 427.37 419.50 426.63 C 418.74 404.94 418.77 383.22 419.17 361.52 C 406.27 361.47 393.36 361.58 380.45 361.45 C 380.46 369.97 380.45 378.49 380.47 387.01 C 380.76 393.66 374.94 400.38 368.03 399.75 C 271.66 399.78 175.30 399.71 78.93 399.77 C 72.14 399.96 66.56 393.66 66.72 387.02 C 66.70 369.00 66.70 350.98 66.78 332.96 M 76.34 322.60 C 71.69 323.66 67.96 328.13 68.30 332.99 C 68.25 351.02 68.28 369.05 68.30 387.09 C 68.02 393.39 73.77 398.88 80.06 398.43 C 175.70 398.44 271.33 398.42 366.97 398.43 C 372.52 398.89 378.37 394.79 378.78 389.03 C 379.09 379.37 378.55 369.69 379.10 360.03 C 379.38 353.00 378.63 345.99 378.86 338.96 C 378.67 335.12 379.60 330.88 377.42 327.45 C 375.27 323.90 371.06 321.97 366.96 322.35 C 272.64 322.35 178.32 322.38 83.99 322.34 C 81.44 322.37 78.87 322.19 76.34 322.60 Z" />
<path fill="#01358f" opacity="1.00" d=" M 89.65 345.42 C 91.24 341.07 96.30 337.05 101.06 338.79 C 104.05 341.39 105.43 345.47 106.37 349.21 C 105.08 352.00 102.40 353.70 100.28 355.79 C 104.31 362.53 109.83 368.56 117.04 371.93 C 118.69 369.86 120.14 367.21 122.93 366.56 C 126.52 367.14 129.51 369.55 132.15 371.90 C 134.20 373.41 134.31 376.72 132.64 378.56 C 130.14 381.68 126.22 384.19 122.06 383.37 C 111.21 381.62 101.90 374.30 95.70 365.47 C 91.84 359.61 88.26 352.65 89.65 345.42 Z" />
<path fill="#01358f" opacity="1.00" d=" M 472.52 369.69 C 508.68 369.21 544.88 369.65 581.06 369.51 C 587.74 369.38 593.67 375.32 593.32 382.04 C 593.38 431.03 593.40 480.03 593.35 529.01 C 593.31 535.38 587.38 540.86 581.06 540.60 C 545.70 540.53 510.33 540.61 474.96 540.55 C 469.70 540.68 464.49 537.19 462.76 532.19 C 461.73 529.56 461.77 526.70 461.97 523.94 C 462.22 480.65 461.97 437.31 462.14 394.00 C 462.01 388.79 461.34 383.49 462.57 378.36 C 463.79 373.83 467.94 370.43 472.52 369.69 M 473.24 371.33 C 467.38 371.67 463.13 377.38 463.55 383.06 C 463.57 431.38 463.42 479.70 463.62 528.02 C 463.54 533.61 468.24 538.97 474.02 538.75 C 510.04 538.78 546.06 538.80 582.08 538.71 C 587.65 538.80 591.90 533.43 591.71 528.10 C 591.84 479.40 591.74 430.70 591.76 381.99 C 592.10 376.16 586.88 370.89 581.04 371.23 C 545.11 371.26 509.17 371.15 473.24 371.33 Z" />
<path fill="#01358f" opacity="1.00" d=" M 503.39 389.70 C 505.64 388.17 508.48 388.71 511.04 388.60 C 517.05 388.71 523.06 388.48 529.08 388.60 C 531.75 388.54 533.60 390.80 535.37 392.49 C 539.35 396.90 543.88 400.79 547.74 405.31 C 548.96 406.55 548.65 408.40 548.74 409.99 C 548.74 421.65 548.71 433.32 548.70 444.99 C 548.91 448.49 545.32 451.25 542.04 451.24 C 530.32 451.23 518.60 451.25 506.88 451.18 C 503.59 451.23 499.91 448.55 500.26 445.00 C 500.30 428.02 500.25 411.03 500.30 394.04 C 500.21 392.08 501.95 390.73 503.39 389.70 M 502.69 396.96 C 502.69 413.04 502.80 429.13 502.66 445.21 C 503.60 446.28 504.58 447.34 505.58 448.37 C 518.18 448.19 530.80 448.09 543.40 448.32 C 544.41 447.36 545.41 446.38 546.40 445.39 C 546.31 435.25 546.20 425.11 546.31 414.98 C 546.39 412.83 546.03 410.72 545.55 408.65 C 540.62 408.76 535.69 408.77 530.77 408.59 C 529.81 407.20 528.21 405.98 528.43 404.11 C 528.27 399.92 528.33 395.74 528.38 391.55 C 521.24 391.53 514.11 391.38 506.97 391.52 C 504.18 391.26 502.32 394.45 502.69 396.96 M 531.29 392.80 C 531.29 396.93 531.19 401.07 531.45 405.19 C 532.03 405.48 533.17 406.06 533.74 406.35 C 537.22 406.31 540.71 406.32 544.20 406.25 C 540.61 401.16 535.66 397.19 531.29 392.80 Z" />
<path fill="#01358f" opacity="1.00" d=" M 66.80 425.88 C 66.92 419.09 73.29 413.70 79.97 414.32 C 175.98 414.39 272.00 414.22 368.01 414.37 C 374.40 414.04 380.32 419.59 380.37 426.00 C 380.53 435.10 380.29 444.20 380.51 453.30 C 390.98 452.36 401.50 453.02 412.00 452.82 C 422.91 453.13 433.82 452.70 444.74 452.80 C 444.72 450.43 444.73 448.06 444.78 445.70 C 448.45 447.82 452.06 450.05 455.70 452.24 C 456.77 452.78 457.62 453.62 458.17 454.69 C 453.54 457.01 449.31 460.03 444.76 462.51 C 444.74 460.07 444.75 457.64 444.78 455.21 C 423.35 455.11 401.92 455.24 380.49 455.19 C 380.44 463.80 380.45 472.42 380.45 481.03 C 380.42 487.54 374.66 493.69 367.98 493.35 C 271.67 493.31 175.35 493.38 79.03 493.30 C 72.52 493.32 66.61 487.62 66.74 481.03 C 66.72 462.65 66.66 444.26 66.80 425.88 M 76.15 416.10 C 71.39 417.31 68.03 422.09 68.29 426.96 C 68.29 444.99 68.30 463.02 68.30 481.05 C 68.24 486.66 73.21 492.16 78.99 491.85 C 175.31 491.77 271.64 491.86 367.97 491.81 C 373.69 492.03 379.14 486.95 378.86 481.14 C 378.70 466.07 379.24 451.01 378.95 435.96 C 379.10 431.35 379.76 426.50 377.95 422.13 C 376.43 418.16 372.19 415.60 368.01 415.66 C 272.32 415.72 176.63 415.67 80.94 415.66 C 79.34 415.69 77.69 415.60 76.15 416.10 Z" />
<path fill="#01358f" opacity="1.00" d=" M 510.40 420.36 C 510.40 419.15 510.41 417.96 510.43 416.76 C 516.47 416.78 522.51 416.70 528.55 416.70 C 528.50 417.60 528.40 419.39 528.34 420.29 C 522.36 420.42 516.38 420.35 510.40 420.36 Z" />
<path fill="#01358f" opacity="1.00" d=" M 510.24 429.73 C 510.32 428.71 510.42 427.70 510.53 426.70 C 518.70 426.79 526.87 426.79 535.04 426.70 C 536.75 426.56 538.42 427.02 539.88 427.95 C 539.05 429.41 537.64 430.13 535.98 429.86 C 527.40 429.76 518.82 429.82 510.24 429.73 Z" />
<path fill="#01358f" opacity="1.00" d=" M 1133.34 428.50 C 1140.72 435.34 1148.06 442.21 1155.50 448.97 C 1148.09 455.75 1140.79 462.65 1133.28 469.32 C 1133.18 465.70 1133.25 462.07 1133.28 458.45 C 1128.05 458.33 1122.82 458.32 1117.59 458.34 C 1117.23 458.34 1116.50 458.35 1116.14 458.35 C 1112.21 458.37 1108.29 458.35 1104.37 458.37 C 1104.19 452.10 1104.26 445.83 1104.30 439.56 C 1108.26 439.52 1112.23 439.50 1116.21 439.55 C 1116.55 439.56 1117.22 439.56 1117.56 439.57 C 1122.79 439.60 1128.02 439.57 1133.26 439.50 C 1133.29 435.83 1133.31 432.16 1133.34 428.50 Z" />
<path fill="#01358f" opacity="1.00" d=" M 510.32 436.31 C 519.81 436.13 529.30 436.17 538.79 436.30 C 538.68 437.30 538.56 438.30 538.44 439.30 C 529.12 439.08 519.81 439.29 510.50 439.27 C 510.42 438.28 510.36 437.29 510.32 436.31 Z" />
<path fill="#01358f" opacity="1.00" d=" M 84.62 440.66 C 85.87 438.79 87.37 436.42 89.95 436.60 C 104.30 436.55 118.65 436.81 133.00 436.63 C 135.98 436.20 139.20 438.84 138.68 441.98 C 138.58 451.67 138.77 461.36 138.61 471.05 C 138.78 473.89 135.74 476.11 133.04 475.61 C 118.39 475.51 103.74 475.74 89.09 475.51 C 86.68 475.56 85.51 473.06 84.64 471.20 C 84.79 461.02 84.81 450.83 84.62 440.66 M 87.52 441.87 C 87.43 451.92 87.41 461.98 87.62 472.03 C 88.17 472.36 89.27 473.01 89.82 473.33 C 104.56 473.27 119.30 473.37 134.04 473.30 C 134.60 473.00 135.73 472.38 136.29 472.07 C 136.44 462.72 136.34 453.36 136.39 444.01 C 136.54 442.39 136.01 440.87 135.40 439.40 C 129.60 439.39 123.80 438.36 118.00 439.09 C 108.69 439.42 99.37 439.17 90.06 439.25 C 88.59 439.01 87.33 440.45 87.52 441.87 Z" />
<path fill="#01358f" opacity="1.00" d=" M 96.21 450.17 C 96.02 447.40 98.98 446.27 101.04 445.34 C 102.90 446.32 105.48 447.40 105.56 449.88 C 106.52 453.31 103.43 457.14 99.82 456.41 C 97.25 455.47 95.72 452.88 96.21 450.17 Z" />
<path fill="#01358f" opacity="1.00" d=" M 115.59 448.38 C 120.62 448.06 125.69 448.16 130.72 448.41 C 130.49 448.92 130.02 449.94 129.79 450.45 C 124.57 450.87 119.32 450.59 114.10 450.44 C 114.47 449.92 115.22 448.89 115.59 448.38 Z" />
<path fill="#01358f" opacity="1.00" d=" M 115.56 455.41 C 118.49 455.20 121.43 455.43 124.37 455.49 C 124.44 456.08 124.50 456.67 124.57 457.27 L 124.70 458.38 C 121.65 458.44 118.60 458.71 115.56 458.51 C 114.27 457.50 114.27 456.46 115.56 455.41 Z" />
<path fill="#01358f" opacity="1.00" d=" M 96.52 458.71 C 98.94 458.23 101.45 458.37 103.91 458.50 C 106.46 458.61 107.98 460.95 109.50 462.68 C 109.48 463.63 109.45 465.52 109.43 466.47 C 103.71 466.56 97.99 466.57 92.27 466.50 C 91.85 463.18 93.60 460.22 96.52 458.71 Z" />
<path fill="#01358f" opacity="1.00" d=" M 115.13 463.32 C 120.22 463.30 125.31 463.25 130.40 463.32 C 130.39 463.91 130.38 465.09 130.37 465.67 C 125.28 465.81 120.20 466.26 115.12 465.70 C 115.12 465.11 115.13 463.92 115.13 463.32 Z" />
<path fill="#01358f" opacity="1.00" d=" M 444.77 474.77 C 449.41 477.27 453.80 480.20 458.22 483.07 C 453.73 485.92 449.28 488.83 444.78 491.65 C 444.73 489.15 444.72 486.66 444.75 484.17 C 440.82 484.24 436.89 484.28 432.97 484.12 C 430.83 483.84 428.67 483.76 426.53 483.67 C 426.00 496.12 426.46 508.59 426.29 521.04 C 426.12 527.86 427.08 534.85 425.30 541.52 C 423.99 545.93 419.44 548.37 415.04 548.33 C 403.55 548.50 392.06 548.32 380.58 548.41 C 380.38 556.95 380.49 565.50 380.44 574.05 C 380.53 580.64 374.68 586.74 367.96 586.30 C 271.66 586.31 175.36 586.32 79.06 586.30 C 72.47 586.38 66.51 580.69 66.74 574.01 C 66.65 556.02 66.75 538.03 66.73 520.05 C 66.64 513.03 73.18 507.41 80.01 507.69 C 176.00 507.69 272.00 507.66 367.99 507.67 C 374.14 507.61 380.04 512.78 380.35 519.02 C 380.56 528.13 380.26 537.25 380.58 546.36 C 392.39 546.19 404.20 546.40 416.01 546.27 C 420.57 545.65 424.31 541.87 424.12 537.13 C 424.46 518.92 424.15 500.69 424.33 482.48 C 430.97 480.80 437.98 482.06 444.77 481.65 C 444.75 479.35 444.74 477.05 444.77 474.77 M 77.25 509.32 C 72.25 510.07 68.13 514.83 68.32 519.93 C 68.25 537.96 68.32 555.99 68.28 574.03 C 68.09 579.80 73.06 584.83 78.78 585.03 C 93.83 585.42 108.89 584.54 123.94 585.07 C 204.98 585.16 286.02 585.05 367.07 585.13 C 372.82 585.45 378.60 581.04 378.81 575.09 C 378.89 556.71 378.91 538.32 378.83 519.95 C 379.03 514.13 373.85 508.88 368.01 509.16 C 313.32 509.10 258.63 509.16 203.94 509.14 C 161.72 509.26 119.46 508.91 77.25 509.32 Z" />
<path fill="#01358f" opacity="1.00" d=" M 444.81 511.39 C 449.09 514.22 453.62 516.65 457.93 519.45 C 457.85 519.71 457.70 520.22 457.63 520.48 C 453.44 523.23 449.04 525.65 444.85 528.39 C 444.81 525.95 444.80 523.51 444.76 521.08 C 443.75 521.16 442.74 521.26 441.75 521.38 C 441.91 556.60 441.73 591.82 441.81 627.04 C 441.83 630.94 440.88 635.17 437.77 637.80 C 434.30 640.83 429.43 641.26 425.02 641.25 C 410.16 641.14 395.31 641.19 380.45 641.26 C 380.41 649.84 380.39 658.42 380.43 666.99 C 380.54 673.58 374.77 679.79 368.04 679.49 C 272.03 679.53 176.01 679.47 80.00 679.50 C 74.47 679.83 68.90 676.07 67.41 670.69 C 66.60 668.19 66.68 665.55 66.69 662.97 C 66.83 646.30 66.65 629.63 66.76 612.96 C 66.65 605.99 73.21 600.32 79.99 600.58 C 175.98 600.70 271.99 600.51 367.98 600.64 C 374.94 600.56 380.90 607.07 380.47 613.96 C 380.50 622.26 380.30 630.55 380.56 638.84 C 397.05 638.86 413.55 638.96 430.04 638.79 C 435.60 638.70 439.98 633.43 439.73 628.01 C 439.87 593.34 439.65 558.66 439.80 523.99 C 439.78 522.16 440.04 520.35 440.38 518.56 C 441.82 518.61 443.26 518.65 444.71 518.69 C 444.72 516.25 444.74 513.82 444.81 511.39 M 77.25 602.38 C 72.21 603.04 68.18 607.88 68.30 612.94 C 68.27 630.98 68.28 649.03 68.31 667.07 C 68.08 671.45 71.06 675.56 75.10 677.08 C 78.52 678.63 82.35 678.14 85.99 678.22 C 179.32 678.22 272.65 678.26 365.98 678.21 C 372.02 678.63 378.56 674.47 378.90 668.06 C 379.64 657.05 378.42 646.02 378.91 635.00 C 379.51 627.66 378.67 620.32 378.87 612.98 C 379.12 607.17 373.84 601.86 368.00 602.25 C 320.66 602.22 273.32 602.24 225.99 602.23 C 176.41 602.37 126.82 602.02 77.25 602.38 Z" />
<path fill="#01358f" opacity="1.00" d=" M 106.07 526.18 C 107.92 525.12 110.14 523.24 112.32 524.64 C 119.19 528.69 125.98 532.92 132.99 536.73 C 132.67 538.63 131.34 540.01 130.02 541.30 C 129.40 541.39 128.14 541.58 127.52 541.67 C 127.27 547.84 127.22 554.02 127.39 560.20 C 129.46 560.07 130.63 561.33 130.84 563.26 C 132.49 563.73 132.60 565.36 132.87 566.78 C 128.95 567.49 124.95 567.29 120.99 567.30 C 110.20 567.25 99.41 567.35 88.62 567.29 C 88.60 566.25 88.60 565.22 88.62 564.20 C 90.71 562.76 91.72 560.22 94.20 559.22 C 94.48 553.75 94.23 548.27 94.25 542.81 C 92.91 541.99 91.04 541.53 90.91 539.66 C 90.27 539.57 88.99 539.38 88.34 539.28 C 88.42 538.68 88.58 537.48 88.66 536.88 C 94.18 532.90 100.33 529.84 106.07 526.18 M 107.43 528.59 C 102.51 531.63 97.69 534.86 92.45 537.33 C 98.96 537.94 105.51 537.42 112.04 537.54 C 117.44 537.37 122.96 538.12 128.30 537.12 C 122.64 534.05 117.25 530.49 111.59 527.43 C 110.12 526.56 108.70 528.00 107.43 528.59 M 100.43 541.23 C 100.32 547.60 100.25 553.98 100.58 560.34 C 102.53 560.37 104.47 560.39 106.42 560.41 C 106.56 554.02 106.66 547.63 106.57 541.24 C 104.52 541.23 102.48 541.22 100.43 541.23 M 114.25 541.37 C 113.36 547.55 113.72 553.85 113.91 560.07 C 116.00 560.80 118.28 560.28 120.45 560.36 C 120.46 554.05 120.28 547.75 120.38 541.44 C 118.34 541.42 116.30 541.39 114.25 541.37 M 109.43 542.50 C 109.34 548.24 109.50 553.99 109.42 559.74 C 109.93 559.79 110.94 559.90 111.45 559.95 C 111.45 554.15 111.49 548.35 111.52 542.56 C 111.00 542.54 109.96 542.51 109.43 542.50 M 96.62 559.70 C 97.05 559.66 97.92 559.59 98.35 559.55 C 98.33 554.20 98.41 548.85 98.41 543.50 L 96.48 543.41 C 96.41 548.84 96.61 554.27 96.62 559.70 M 122.72 544.20 C 122.64 549.31 122.64 554.42 122.64 559.53 C 123.13 559.59 124.12 559.70 124.61 559.75 C 124.62 554.57 124.65 549.39 124.66 544.21 C 124.18 544.21 123.21 544.20 122.72 544.20 M 93.02 564.82 C 100.69 565.33 108.39 564.96 116.07 565.05 C 120.39 564.87 124.84 565.66 129.02 564.24 C 127.64 562.93 125.84 562.56 124.01 562.69 C 113.83 562.78 103.65 562.71 93.47 562.71 C 93.36 563.24 93.13 564.29 93.02 564.82 Z" />
<path fill="#01358f" opacity="1.00" d=" M 106.70 614.89 C 107.20 614.57 108.22 613.93 108.72 613.61 C 109.62 613.60 111.41 613.56 112.31 613.54 C 114.02 614.63 114.75 616.33 114.62 618.35 C 116.02 619.02 117.43 619.66 118.85 620.29 C 122.05 619.42 125.37 620.38 128.63 620.45 C 130.85 620.70 130.70 623.38 131.08 625.04 C 131.64 637.44 131.15 649.86 131.45 662.27 C 130.21 663.54 129.15 665.69 127.05 665.46 C 115.35 665.41 103.64 665.41 91.93 665.34 C 91.17 664.51 90.40 663.69 89.64 662.88 C 89.42 649.50 89.69 636.11 89.48 622.73 C 90.58 621.83 91.42 620.20 93.05 620.37 C 97.20 620.39 101.31 620.02 105.39 619.27 C 105.82 617.80 106.26 616.34 106.70 614.89 M 108.60 616.56 C 108.48 617.55 108.37 618.55 108.25 619.55 C 109.61 619.55 110.97 619.56 112.34 619.56 C 112.33 618.52 112.33 617.49 112.32 616.46 C 111.08 616.48 109.84 616.51 108.60 616.56 M 118.83 622.59 C 118.58 624.25 119.27 626.52 117.28 627.30 C 112.90 627.56 108.49 627.44 104.11 627.36 C 102.92 627.36 102.35 626.03 101.48 625.43 C 101.54 624.72 101.66 623.29 101.72 622.58 C 98.61 622.58 95.50 622.55 92.38 622.54 C 92.25 627.68 92.36 632.83 91.85 637.97 C 92.53 646.24 92.11 654.54 92.29 662.83 C 96.50 663.46 100.76 663.18 105.00 663.09 C 112.87 663.50 120.73 663.09 128.59 662.55 C 128.76 649.23 128.79 635.91 128.60 622.59 C 125.34 622.55 122.09 622.56 118.83 622.59 M 104.48 622.68 L 104.34 624.64 C 108.47 624.59 112.60 624.59 116.73 624.71 L 116.64 622.69 C 112.59 622.68 108.53 622.71 104.48 622.68 Z" />
<path fill="#01358f" opacity="1.00" d=" M 110.21 633.14 C 114.82 632.49 118.05 638.49 115.38 642.14 C 113.95 645.17 109.60 646.38 107.06 643.96 C 102.52 641.13 104.59 632.74 110.21 633.14 Z" />
<path fill="#01358f" opacity="1.00" d=" M 99.52 656.58 C 98.98 652.06 102.66 648.40 106.91 647.72 C 111.00 647.29 115.79 646.93 118.99 650.06 C 121.05 651.63 120.56 654.38 120.65 656.64 C 113.61 656.67 106.56 656.90 99.52 656.58 Z" />
<path fill="#01358f" opacity="1.00" d=" M 83.57 726.83 C 88.55 726.38 93.28 724.40 97.18 721.28 C 101.60 724.08 106.49 725.86 111.43 727.51 C 111.27 734.13 111.55 741.60 107.00 746.98 C 104.30 750.11 101.05 753.54 96.95 754.49 C 92.03 751.94 87.10 748.37 85.11 742.99 C 82.87 737.89 83.43 732.23 83.57 726.83 M 86.32 728.90 C 86.25 729.70 86.12 731.29 86.05 732.09 C 85.42 735.66 86.26 739.31 87.65 742.62 C 89.43 746.65 93.25 749.30 96.97 751.39 C 98.91 751.75 100.17 749.66 101.72 748.80 C 107.97 744.41 109.43 736.09 108.62 728.96 C 104.38 728.76 100.94 725.91 97.08 724.78 C 93.70 726.62 90.17 728.29 86.32 728.90 Z" />
<path fill="#01358f" opacity="1.00" d=" M 258.19 724.64 C 259.33 723.05 260.63 721.00 262.94 721.49 C 264.93 721.28 265.74 723.43 266.83 724.66 C 271.65 724.63 276.47 724.61 281.28 724.70 C 281.29 725.36 281.31 726.68 281.32 727.33 C 276.50 727.46 271.68 727.43 266.86 727.45 C 265.69 728.66 264.83 730.80 262.82 730.56 C 260.51 731.06 259.32 728.86 258.11 727.35 C 256.49 727.36 254.87 727.40 253.25 727.43 C 253.32 726.49 253.40 725.57 253.49 724.66 C 255.05 724.63 256.62 724.64 258.19 724.64 M 260.77 726.02 C 261.28 729.11 265.00 727.22 264.50 724.81 C 263.84 724.58 262.54 724.13 261.88 723.90 C 261.61 724.43 261.05 725.49 260.77 726.02 Z" />
<path fill="#01358f" opacity="1.00" d=" M 437.02 728.00 C 441.48 722.90 449.72 722.01 455.31 725.76 C 458.50 727.76 460.14 731.31 462.63 734.02 C 462.23 734.60 461.42 735.76 461.02 736.33 C 459.05 736.27 457.04 736.22 455.25 735.33 C 456.11 734.24 456.95 733.15 457.79 732.06 C 455.56 728.87 452.19 725.94 448.06 726.19 C 443.57 725.67 439.76 728.62 437.17 731.97 C 437.85 733.01 438.54 734.04 439.25 735.08 C 437.55 735.86 435.81 736.55 434.00 737.02 C 432.36 733.63 434.99 730.51 437.02 728.00 Z" />
<path fill="#01358f" opacity="1.00" d=" M 259.55 735.56 C 261.29 733.23 265.40 733.53 266.28 736.52 C 266.42 736.71 266.70 737.07 266.84 737.26 C 271.37 737.56 275.93 737.51 280.46 737.24 L 281.80 737.17 L 281.05 739.22 C 276.18 739.50 271.29 739.12 266.41 739.28 C 266.09 739.84 265.45 740.96 265.13 741.52 C 263.48 741.60 261.42 742.42 260.18 740.91 C 258.49 738.65 255.51 739.53 253.13 739.33 C 252.35 734.70 257.62 737.87 259.55 735.56 M 261.42 736.47 C 260.35 738.95 262.27 740.10 264.54 739.79 C 264.60 738.08 263.64 734.54 261.42 736.47 Z" />
<path fill="#01358f" opacity="1.00" d=" M 458.72 740.26 C 459.69 740.32 460.66 740.41 461.64 740.51 C 460.45 745.54 457.38 750.76 452.15 752.31 C 448.41 752.89 444.17 753.32 440.83 751.16 C 437.96 749.44 435.68 746.69 434.64 743.51 C 433.93 742.08 435.00 740.91 436.02 740.04 C 437.92 743.32 439.17 747.40 442.80 749.23 C 449.21 753.06 458.94 747.89 458.72 740.26 Z" />
<path fill="#01358f" opacity="1.00" d=" M 269.61 748.53 C 270.88 747.31 271.91 745.14 274.00 745.46 C 276.00 745.09 277.00 747.17 278.10 748.41 C 279.19 748.46 280.29 748.51 281.39 748.56 C 281.38 749.22 281.37 750.55 281.36 751.21 C 278.57 750.70 277.04 752.95 274.95 754.19 C 272.58 755.23 270.99 752.98 269.60 751.48 C 264.20 751.32 258.80 751.37 253.40 751.35 C 253.42 750.46 253.46 749.58 253.52 748.70 C 258.88 748.61 264.25 748.66 269.61 748.53 M 272.36 748.45 C 272.42 749.43 272.51 750.41 272.61 751.40 C 273.49 751.37 274.37 751.34 275.26 751.30 C 275.27 750.33 275.28 749.36 275.31 748.41 C 274.32 748.40 273.34 748.41 272.36 748.45 Z" />
</g>
<g id="#4b2badff">
<path fill="#4b2bad" opacity="1.00" d=" M 660.07 130.96 C 659.59 123.14 666.04 115.64 674.01 115.63 C 814.32 115.60 954.63 115.65 1094.95 115.62 C 1099.87 115.80 1105.18 114.82 1109.71 117.29 C 1114.81 119.69 1117.68 125.40 1117.52 130.90 C 1117.61 233.79 1117.49 336.68 1117.56 439.57 C 1117.22 439.56 1116.55 439.56 1116.21 439.55 C 1116.20 337.01 1116.19 234.47 1116.17 131.92 C 1116.57 124.58 1110.96 116.89 1103.11 117.39 C 963.09 117.34 823.07 117.41 683.06 117.34 C 677.84 117.52 672.09 116.47 667.44 119.46 C 663.24 122.05 661.38 127.15 661.45 131.92 C 661.44 336.94 661.44 541.97 661.43 746.99 C 661.52 762.93 661.34 778.88 661.53 794.82 C 661.54 801.90 667.90 807.94 674.97 807.59 C 815.97 807.62 956.97 807.62 1097.97 807.61 C 1102.37 807.57 1107.35 808.14 1111.03 805.18 C 1115.07 802.15 1116.26 796.82 1116.21 792.03 C 1116.13 680.80 1116.28 569.57 1116.14 458.35 C 1116.50 458.35 1117.23 458.34 1117.59 458.34 C 1117.46 570.60 1117.62 682.85 1117.50 795.11 C 1117.74 800.92 1113.72 806.34 1108.30 808.23 C 1104.35 809.63 1100.10 809.16 1096.00 809.25 C 955.69 809.25 815.38 809.25 675.07 809.23 C 666.85 809.63 659.61 802.25 660.11 794.05 C 660.05 573.02 660.11 351.99 660.07 130.96 Z" />
<path fill="#4b2bad" opacity="1.00" d=" M 700.25 298.35 C 702.08 297.72 704.03 297.62 705.96 297.61 C 824.32 297.66 942.69 297.58 1061.05 297.66 C 1068.40 297.09 1074.80 303.76 1074.43 311.01 C 1074.36 393.68 1074.47 476.35 1074.42 559.02 C 1074.80 566.16 1068.01 572.20 1061.04 571.71 C 942.33 571.76 823.62 571.70 704.91 571.71 C 697.92 572.08 691.47 566.09 691.45 559.06 C 691.52 476.71 691.40 394.35 691.51 311.99 C 691.08 306.15 694.43 300.05 700.25 298.35 M 725.50 311.75 C 721.60 312.88 717.29 315.04 715.90 319.13 C 715.26 323.09 716.52 327.07 716.13 331.05 C 715.71 336.01 715.43 341.02 715.85 345.99 C 717.20 349.87 721.13 352.03 724.83 353.23 C 732.43 355.58 740.96 355.43 748.28 352.17 C 751.35 350.63 754.59 347.76 754.33 344.01 C 754.24 336.32 754.11 328.63 754.34 320.95 C 754.63 317.97 752.12 315.71 749.91 314.16 C 742.63 309.81 733.51 309.42 725.50 311.75 M 693.23 367.07 C 693.17 430.72 693.22 494.36 693.19 558.01 C 692.62 564.08 697.69 570.10 703.93 569.89 C 823.31 569.94 942.70 569.91 1062.09 569.90 C 1066.80 570.18 1071.24 566.68 1072.30 562.13 C 1073.26 558.16 1072.73 554.02 1072.85 549.98 C 1072.87 489.03 1072.78 428.08 1072.87 367.14 C 1063.26 366.66 1053.65 366.98 1044.05 367.05 C 983.36 366.74 922.67 367.25 861.98 366.92 C 805.73 367.14 749.48 366.83 693.23 367.07 Z" />
<path fill="#4b2bad" opacity="1.00" d=" M 718.30 321.01 C 721.09 314.21 729.61 313.39 736.00 313.38 C 741.17 313.79 747.65 314.22 750.80 319.01 C 752.51 321.10 750.10 323.31 748.41 324.38 C 743.42 327.12 737.55 327.73 731.95 327.38 C 726.86 327.00 721.36 325.41 718.30 321.01 Z" />
<path fill="#4b2bad" opacity="1.00" d=" M 718.72 326.06 C 728.52 332.02 741.62 332.29 751.34 326.02 C 751.28 328.65 751.55 331.32 751.08 333.93 C 748.11 337.52 743.34 338.91 738.90 339.53 C 731.77 340.29 723.69 339.05 718.60 333.54 C 718.69 331.05 718.70 328.55 718.72 326.06 Z" />
<path fill="#4b2bad" opacity="1.00" d=" M 718.77 338.21 C 728.57 344.14 741.53 343.72 751.34 338.02 C 751.31 340.46 751.33 342.91 751.42 345.36 C 747.84 350.65 740.89 351.71 734.98 351.77 C 729.93 351.69 724.23 351.19 720.41 347.50 C 717.94 345.08 718.97 341.28 718.77 338.21 Z" />
<path fill="#4b2bad" opacity="1.00" d=" M 864.01 593.16 C 866.47 588.18 868.78 583.11 871.78 578.43 C 874.60 583.28 877.10 588.31 879.96 593.14 C 874.64 593.38 869.33 593.38 864.01 593.16 Z" />
<path fill="#4b2bad" opacity="1.00" d=" M 870.19 598.52 C 871.32 598.57 872.46 598.63 873.62 598.68 C 873.60 600.24 873.59 601.81 873.57 603.39 C 872.40 603.41 871.24 603.44 870.09 603.49 C 869.97 601.82 869.99 600.16 870.19 598.52 Z" />
<path fill="#4b2bad" opacity="1.00" d=" M 869.62 608.54 C 870.95 608.39 872.28 608.25 873.63 608.13 C 873.63 609.85 873.64 611.58 873.65 613.31 C 872.52 613.34 871.41 613.37 870.31 613.42 C 870.07 611.79 869.83 610.15 869.62 608.54 Z" />
<path fill="#4b2bad" opacity="1.00" d=" M 870.33 617.60 C 871.36 617.64 872.40 617.69 873.46 617.74 C 873.51 619.35 873.56 620.98 873.61 622.61 C 872.35 622.63 871.09 622.65 869.85 622.69 C 869.83 620.97 869.98 619.27 870.33 617.60 Z" />
<path fill="#4b2bad" opacity="1.00" d=" M 869.71 627.60 C 870.99 627.13 872.39 626.33 873.56 627.56 C 873.68 629.17 873.56 630.79 873.50 632.41 C 872.30 632.11 870.71 632.58 869.89 631.44 C 869.73 630.16 869.74 628.87 869.71 627.60 Z" />
<path fill="#4b2bad" opacity="1.00" d=" M 869.80 636.87 C 870.71 636.82 872.53 636.74 873.44 636.70 C 873.49 638.38 873.54 640.07 873.60 641.77 C 872.35 641.77 871.12 641.78 869.90 641.78 C 869.85 640.14 869.81 638.49 869.80 636.87 Z" />
<path fill="#4b2bad" opacity="1.00" d=" M 870.23 646.66 C 871.31 646.68 872.39 646.72 873.49 646.75 C 873.54 648.37 873.60 649.99 873.67 651.63 C 872.37 651.65 871.07 651.67 869.78 651.70 C 869.84 650.00 870.00 648.32 870.23 646.66 Z" />
<path fill="#4b2bad" opacity="1.00" d=" M 870.16 656.66 C 871.28 656.68 872.41 656.69 873.56 656.72 C 873.59 658.34 873.64 659.97 873.69 661.61 C 872.33 661.53 871.00 661.45 869.66 661.37 C 869.80 659.79 869.97 658.22 870.16 656.66 Z" />
<path fill="#4b2bad" opacity="1.00" d=" M 710.35 669.41 C 711.83 668.89 713.41 668.81 714.98 668.80 C 825.64 668.75 936.30 668.86 1046.95 668.79 C 1053.08 668.45 1058.69 673.81 1058.68 679.94 C 1058.72 696.63 1058.69 713.34 1058.75 730.04 C 1059.47 736.33 1054.32 742.51 1047.91 742.51 C 936.57 742.58 825.23 742.53 713.89 742.50 C 707.73 742.79 702.02 737.23 702.42 731.02 C 702.48 714.34 702.40 697.65 702.42 680.97 C 702.16 675.90 705.44 670.91 710.35 669.41 M 712.32 670.48 C 707.75 670.99 704.00 675.31 704.22 679.93 C 704.13 696.28 704.23 712.63 704.20 728.99 C 704.29 731.46 703.99 734.19 705.41 736.40 C 707.11 739.39 710.55 741.11 713.97 740.95 C 822.65 740.93 931.33 740.95 1040.02 740.94 C 1043.17 740.90 1046.35 741.13 1049.49 740.72 C 1054.07 740.09 1057.32 735.52 1057.21 731.04 C 1057.32 716.02 1057.23 701.01 1057.27 686.00 C 1057.23 682.11 1057.75 677.85 1055.39 674.47 C 1053.39 671.39 1049.54 670.10 1046.01 670.36 C 934.78 670.47 823.54 670.23 712.32 670.48 Z" />
<path fill="#4b2bad" opacity="1.00" d=" M 721.38 705.30 C 728.10 698.23 735.01 691.33 742.01 684.53 C 745.95 684.66 750.10 684.01 753.90 685.27 C 756.87 687.07 759.60 689.53 761.40 692.52 C 762.04 696.65 761.82 700.88 761.72 705.05 C 761.83 706.57 760.60 707.59 759.70 708.63 C 754.06 714.35 748.36 720.00 742.91 725.91 C 741.50 727.38 739.17 729.73 737.12 727.89 C 731.46 722.55 726.09 716.90 720.55 711.43 C 718.41 709.73 719.58 706.74 721.38 705.30 M 722.09 708.89 C 727.61 714.58 733.50 719.90 738.95 725.68 C 745.19 718.70 752.35 712.58 758.50 705.53 C 759.13 701.76 758.80 697.81 758.61 693.99 C 757.40 691.51 755.45 689.27 753.02 687.95 C 749.69 687.30 746.26 687.67 742.89 687.59 C 735.81 694.54 729.02 701.79 722.09 708.89 Z" />
<path fill="#4b2bad" opacity="1.00" d=" M 747.59 696.04 C 747.26 692.61 753.02 692.08 753.60 695.37 C 754.51 697.42 752.23 698.63 751.06 699.87 C 749.85 698.76 747.26 698.09 747.59 696.04 Z" />
</g>
<g id="#019dbeff">
<path fill="#019dbe" opacity="1.00" d=" M 1170.30 116.42 C 1315.85 116.16 1461.42 116.40 1606.98 116.31 C 1612.20 116.42 1617.44 116.13 1622.67 116.44 C 1630.08 117.28 1635.30 124.76 1634.93 131.96 C 1634.92 352.97 1634.92 573.98 1634.93 794.99 C 1635.05 800.56 1631.66 806.01 1626.68 808.45 C 1622.71 810.36 1618.21 809.50 1613.99 809.64 C 1467.00 809.63 1320.01 809.74 1173.03 809.65 C 1164.57 810.20 1157.19 802.39 1157.80 794.01 C 1157.76 575.99 1157.84 357.98 1157.79 139.97 C 1157.84 135.66 1157.40 131.26 1158.50 127.03 C 1159.76 121.52 1164.75 117.19 1170.30 116.42 M 1168.39 118.56 C 1163.68 119.85 1160.37 124.28 1159.69 129.01 C 1159.26 133.00 1159.59 137.03 1159.53 141.03 C 1159.58 356.01 1159.53 570.98 1159.53 785.95 C 1159.70 790.91 1158.77 796.17 1160.88 800.86 C 1162.90 805.48 1167.98 808.26 1172.94 808.12 C 1321.63 808.08 1470.31 808.07 1619.00 808.10 C 1623.91 808.33 1629.24 806.25 1631.68 801.78 C 1634.21 797.26 1633.40 791.92 1633.53 786.97 C 1633.53 568.63 1633.56 350.29 1633.49 131.95 C 1633.94 124.50 1627.71 117.42 1620.06 117.86 C 1472.71 117.79 1325.36 117.90 1178.01 117.81 C 1174.79 117.82 1171.50 117.63 1168.39 118.56 Z" />
<path fill="#019dbe" opacity="1.00" d=" M 1293.90 286.13 C 1383.13 286.16 1472.36 286.05 1561.58 286.20 C 1561.57 304.00 1561.68 321.80 1561.55 339.60 C 1512.04 339.92 1462.52 339.62 1413.01 339.76 C 1373.31 339.66 1333.60 339.91 1293.90 339.61 C 1294.05 321.79 1294.12 303.95 1293.90 286.13 Z" />
<path fill="#019dbe" opacity="1.00" d=" M 1293.87 385.23 C 1314.91 385.07 1335.98 385.38 1357.01 384.97 C 1392.99 385.54 1429.00 384.90 1464.99 385.28 C 1465.58 402.99 1465.05 420.73 1465.30 438.46 C 1454.24 439.25 1443.11 438.57 1432.02 438.83 C 1385.99 438.67 1339.95 438.99 1293.92 438.73 C 1294.03 420.90 1294.11 403.06 1293.87 385.23 Z" />
<path fill="#019dbe" opacity="1.00" d=" M 510.14 407.40 C 513.65 407.26 517.21 406.89 520.69 407.54 C 520.96 408.25 521.50 409.68 521.77 410.40 C 518.01 410.53 514.24 410.48 510.48 410.54 C 510.39 409.75 510.22 408.18 510.14 407.40 Z" />
<path fill="#019dbe" opacity="1.00" d=" M 1293.90 484.23 C 1300.60 484.45 1307.29 483.55 1314.00 483.82 C 1327.32 484.66 1340.65 483.83 1353.98 483.78 C 1367.29 484.42 1380.65 484.34 1393.97 483.79 C 1399.53 483.96 1405.09 484.30 1410.67 484.26 C 1410.71 502.02 1410.93 519.78 1410.57 537.54 C 1371.69 537.81 1332.80 537.63 1293.92 537.61 C 1294.03 519.82 1294.09 502.02 1293.90 484.23 Z" />
<path fill="#019dbe" opacity="1.00" d=" M 109.22 530.24 C 109.85 530.25 111.12 530.27 111.75 530.28 C 111.81 532.14 111.72 534.07 109.73 534.96 C 109.52 533.39 109.36 531.81 109.22 530.24 Z" />
<path fill="#019dbe" opacity="1.00" d=" M 1293.90 583.21 C 1332.82 583.23 1371.74 582.98 1410.66 583.35 C 1410.70 601.09 1410.94 618.85 1410.52 636.59 C 1371.66 637.12 1332.77 636.73 1293.90 636.80 C 1294.09 618.94 1294.07 601.07 1293.90 583.21 Z" />
<path fill="#019dbe" opacity="1.00" d=" M 79.52 707.80 C 80.99 707.40 82.52 707.40 84.04 707.37 C 126.36 707.42 168.69 707.34 211.02 707.41 C 219.41 707.00 226.51 714.79 226.49 722.96 C 226.51 732.98 226.49 743.01 226.51 753.04 C 226.56 760.80 220.01 768.51 212.04 768.61 C 169.03 768.68 126.03 768.67 83.03 768.63 C 76.32 768.70 69.93 763.35 68.45 756.90 C 68.11 745.31 67.04 733.68 68.23 722.11 C 67.82 715.40 73.36 709.58 79.52 707.80 M 79.23 709.21 C 75.02 710.59 71.32 713.82 69.90 718.08 C 68.87 721.96 68.69 726.01 68.65 730.01 C 68.81 739.04 68.23 748.15 69.61 757.12 C 71.30 763.26 77.62 767.80 83.98 767.52 C 126.30 767.52 168.62 767.53 210.94 767.53 C 218.74 767.86 225.53 760.54 225.47 752.91 C 225.55 742.95 225.54 732.98 225.47 723.03 C 225.52 715.42 218.79 708.07 210.95 708.52 C 169.98 708.47 129.01 708.52 88.04 708.49 C 85.10 708.57 82.06 708.28 79.23 709.21 Z" />
<path fill="#019dbe" opacity="1.00" d=" M 251.48 707.84 C 255.58 706.93 259.84 707.47 264.01 707.36 C 307.02 707.34 350.03 707.36 393.04 707.41 C 401.03 707.05 408.28 713.99 408.50 721.96 C 408.75 732.29 408.46 742.64 408.54 752.99 C 408.83 761.25 401.41 769.09 393.03 768.65 C 349.71 768.62 306.39 768.68 263.07 768.64 C 258.39 768.44 253.25 769.58 248.98 767.09 C 243.91 764.37 240.32 758.83 240.47 753.01 C 240.46 742.98 240.59 732.95 240.44 722.92 C 240.25 716.14 244.95 709.70 251.48 707.84 M 251.12 709.15 C 245.50 711.18 241.42 717.03 241.62 723.04 C 241.40 733.02 241.59 743.01 241.59 752.99 C 241.47 761.03 248.89 768.18 256.96 767.52 C 302.32 767.54 347.68 767.53 393.04 767.52 C 400.88 768.03 407.35 760.50 407.48 752.99 C 407.55 743.00 407.41 733.02 407.47 723.03 C 407.63 716.44 402.59 709.96 396.05 708.78 C 393.02 708.38 389.96 708.51 386.92 708.49 C 343.61 708.48 300.30 708.54 256.98 708.49 C 255.02 708.54 252.99 708.45 251.12 709.15 Z" />
<path fill="#019dbe" opacity="1.00" d=" M 436.31 707.46 C 480.53 707.25 524.77 707.39 569.00 707.37 C 577.00 706.76 584.63 713.93 584.60 721.93 C 584.73 732.63 584.54 743.34 584.61 754.04 C 584.73 761.68 577.77 768.93 570.03 768.63 C 527.70 768.63 485.37 768.63 443.03 768.65 C 439.23 768.56 435.18 769.06 431.67 767.27 C 426.67 764.90 423.00 759.61 423.19 754.00 C 423.14 743.33 423.31 732.67 423.19 722.02 C 422.95 714.73 429.02 707.97 436.31 707.46 M 434.13 709.08 C 429.02 710.83 424.47 715.36 424.29 721.00 C 423.96 730.67 424.31 740.35 424.19 750.02 C 424.21 753.41 424.03 757.03 425.74 760.10 C 428.17 764.45 432.89 767.83 438.03 767.53 C 482.02 767.51 526.01 767.58 570.00 767.51 C 577.24 767.68 583.48 761.08 583.46 753.94 C 583.68 743.31 583.52 732.67 583.45 722.04 C 583.28 714.96 577.32 708.15 569.94 708.55 C 526.63 708.46 483.32 708.54 440.01 708.47 C 438.04 708.52 436.01 708.41 434.13 709.08 Z" />
<path fill="#019dbe" opacity="1.00" d=" M 266.28 736.52 C 271.43 736.78 276.60 736.30 281.74 736.79 L 280.46 737.24 C 275.93 737.51 271.37 737.56 266.84 737.26 C 266.70 737.07 266.42 736.71 266.28 736.52 Z" />
</g>

<g id="editable_text_layer" data-note="All labels are editable SVG text; font family is Times New Roman.">
<text x="836" y="78" font-family="Times New Roman, Times, serif" font-size="56" font-weight="700" fill="#071b4f" text-anchor="middle" xml:space="preserve" >PII Detection Distribution</text>
<text x="328" y="163" font-family="Times New Roman, Times, serif" font-size="30" font-weight="700" fill="#08398b" text-anchor="middle" xml:space="preserve" >Stage 1</text>
<text x="328" y="204" font-family="Times New Roman, Times, serif" font-size="34" font-weight="700" fill="#071f5d" text-anchor="middle" xml:space="preserve" >DETECTION RULES</text>
<text x="889" y="163" font-family="Times New Roman, Times, serif" font-size="30" font-weight="700" fill="#4f2dbc" text-anchor="middle" xml:space="preserve" >Stage 2</text>
<text x="889" y="204" font-family="Times New Roman, Times, serif" font-size="34" font-weight="700" fill="#21116e" text-anchor="middle" xml:space="preserve" >DETECTION OUTPUT</text>
<text x="1396" y="163" font-family="Times New Roman, Times, serif" font-size="30" font-weight="700" fill="#006c8d" text-anchor="middle" xml:space="preserve" >Stage 3</text>
<text x="1396" y="204" font-family="Times New Roman, Times, serif" font-size="34" font-weight="700" fill="#084475" text-anchor="middle" xml:space="preserve" >DISTRIBUTION METRICS</text>
<text x="159" y="268" font-family="Times New Roman, Times, serif" font-size="21" font-weight="700" fill="#061d59" text-anchor="start" xml:space="preserve" >email</text>
<text x="212" y="268" font-family="Times New Roman, Times, serif" font-size="19" font-weight="400" fill="#061d59" text-anchor="start" xml:space="preserve" > (regex pattern)</text>
<text x="159" y="362" font-family="Times New Roman, Times, serif" font-size="21" font-weight="700" fill="#061d59" text-anchor="start" xml:space="preserve" >phone</text>
<text x="216" y="362" font-family="Times New Roman, Times, serif" font-size="19" font-weight="400" fill="#061d59" text-anchor="start" xml:space="preserve" > (regex pattern)</text>
<text x="159" y="456" font-family="Times New Roman, Times, serif" font-size="21" font-weight="700" fill="#061d59" text-anchor="start" xml:space="preserve" >ssn</text>
<text x="192" y="456" font-family="Times New Roman, Times, serif" font-size="19" font-weight="400" fill="#061d59" text-anchor="start" xml:space="preserve" > (regex pattern)</text>
<text x="159" y="548" font-family="Times New Roman, Times, serif" font-size="19" font-weight="700" fill="#061d59" text-anchor="start" xml:space="preserve" >bank_account</text>
<text x="276" y="548" font-family="Times New Roman, Times, serif" font-size="17" font-weight="400" fill="#061d59" text-anchor="start" xml:space="preserve" > (regex pattern)</text>
<text x="159" y="643" font-family="Times New Roman, Times, serif" font-size="21" font-weight="700" fill="#061d59" text-anchor="start" xml:space="preserve" >patient_id</text>
<text x="252" y="643" font-family="Times New Roman, Times, serif" font-size="19" font-weight="400" fill="#061d59" text-anchor="start" xml:space="preserve" > (regex pattern)</text>
<text x="525" y="478" font-family="Times New Roman, Times, serif" font-size="27" font-weight="700" fill="#061d59" text-anchor="middle" xml:space="preserve" >raw text</text>
<text x="525" y="516" font-family="Times New Roman, Times, serif" font-size="27" font-weight="700" fill="#061d59" text-anchor="middle" xml:space="preserve" >payload</text>
<text x="121" y="744" font-family="Times New Roman, Times, serif" font-size="20" font-weight="700" fill="#0643a0" text-anchor="start" xml:space="preserve" >explainable</text>
<text x="294" y="744" font-family="Times New Roman, Times, serif" font-size="20" font-weight="700" fill="#0643a0" text-anchor="start" xml:space="preserve" >controllable</text>
<text x="467" y="744" font-family="Times New Roman, Times, serif" font-size="20" font-weight="700" fill="#0643a0" text-anchor="start" xml:space="preserve" >reproducible</text>
<text x="780" y="345" font-family="Times New Roman, Times, serif" font-size="34" font-weight="700" fill="#ffffff" text-anchor="start" xml:space="preserve" >pii_detections</text>
<text x="710" y="414" font-family="Times New Roman, Times, serif" font-size="20" font-weight="400" fill="#050505" text-anchor="start" xml:space="preserve" >{pattern_name: email, match: xxx}</text>
<text x="710" y="458" font-family="Times New Roman, Times, serif" font-size="20" font-weight="400" fill="#050505" text-anchor="start" xml:space="preserve" >{pattern_name: phone, match: xxx}</text>
<text x="710" y="502" font-family="Times New Roman, Times, serif" font-size="20" font-weight="400" fill="#050505" text-anchor="start" xml:space="preserve" >{pattern_name: ssn, match: xxx}</text>
<text x="710" y="548" font-family="Times New Roman, Times, serif" font-size="20" font-weight="400" fill="#050505" text-anchor="start" xml:space="preserve" >...</text>
<text x="780" y="710" font-family="Times New Roman, Times, serif" font-size="23" font-weight="700" fill="#4b2abb" text-anchor="start" xml:space="preserve" >detections as data assets</text>
<text x="1270" y="318" font-family="Times New Roman, Times, serif" font-size="17" font-weight="700" fill="#000000" text-anchor="end" xml:space="preserve" >email:</text>
<text x="1278" y="318" font-family="Times New Roman, Times, serif" font-size="17" font-weight="700" fill="#000000" text-anchor="start" xml:space="preserve" >5</text>
<text x="1575" y="318" font-family="Times New Roman, Times, serif" font-size="20" font-weight="700" fill="#000000" text-anchor="start" xml:space="preserve" >5</text>
<text x="1270" y="417" font-family="Times New Roman, Times, serif" font-size="17" font-weight="700" fill="#000000" text-anchor="end" xml:space="preserve" >phone:</text>
<text x="1278" y="417" font-family="Times New Roman, Times, serif" font-size="17" font-weight="700" fill="#000000" text-anchor="start" xml:space="preserve" >3</text>
<text x="1478" y="417" font-family="Times New Roman, Times, serif" font-size="20" font-weight="700" fill="#000000" text-anchor="start" xml:space="preserve" >3</text>
<text x="1270" y="516" font-family="Times New Roman, Times, serif" font-size="17" font-weight="700" fill="#000000" text-anchor="end" xml:space="preserve" >patient_id:</text>
<text x="1278" y="516" font-family="Times New Roman, Times, serif" font-size="17" font-weight="700" fill="#000000" text-anchor="start" xml:space="preserve" >2</text>
<text x="1422" y="516" font-family="Times New Roman, Times, serif" font-size="20" font-weight="700" fill="#000000" text-anchor="start" xml:space="preserve" >2</text>
<text x="1270" y="612" font-family="Times New Roman, Times, serif" font-size="17" font-weight="700" fill="#000000" text-anchor="end" xml:space="preserve" >bank_account:</text>
<text x="1278" y="612" font-family="Times New Roman, Times, serif" font-size="17" font-weight="700" fill="#000000" text-anchor="start" xml:space="preserve" >2</text>
<text x="1422" y="612" font-family="Times New Roman, Times, serif" font-size="20" font-weight="700" fill="#000000" text-anchor="start" xml:space="preserve" >2</text>
<text x="1293" y="697" font-family="Times New Roman, Times, serif" font-size="18" font-weight="400" fill="#000000" text-anchor="middle" xml:space="preserve" >0</text>
<text x="1354" y="697" font-family="Times New Roman, Times, serif" font-size="18" font-weight="400" fill="#000000" text-anchor="middle" xml:space="preserve" >1</text>
<text x="1414" y="697" font-family="Times New Roman, Times, serif" font-size="18" font-weight="400" fill="#000000" text-anchor="middle" xml:space="preserve" >2</text>
<text x="1476" y="697" font-family="Times New Roman, Times, serif" font-size="18" font-weight="400" fill="#000000" text-anchor="middle" xml:space="preserve" >3</text>
<text x="1536" y="697" font-family="Times New Roman, Times, serif" font-size="18" font-weight="400" fill="#000000" text-anchor="middle" xml:space="preserve" >4</text>
<text x="1586" y="697" font-family="Times New Roman, Times, serif" font-size="18" font-weight="400" fill="#000000" text-anchor="middle" xml:space="preserve" >5</text>
<text x="1619" y="697" font-family="Times New Roman, Times, serif" font-size="18" font-weight="400" fill="#000000" text-anchor="middle" xml:space="preserve" >6</text>
<text x="1446" y="730" font-family="Times New Roman, Times, serif" font-size="18" font-weight="400" fill="#000000" text-anchor="middle" xml:space="preserve" >Count</text>
<text x="291" y="882" font-family="Times New Roman, Times, serif" font-size="33" font-weight="700" fill="#071b4f" text-anchor="middle" xml:space="preserve" >DETECTION RULES</text>
<text x="838" y="882" font-family="Times New Roman, Times, serif" font-size="33" font-weight="700" fill="#071b4f" text-anchor="middle" xml:space="preserve" >DETECTION OUTPUT</text>
<text x="1376" y="882" font-family="Times New Roman, Times, serif" font-size="33" font-weight="700" fill="#071b4f" text-anchor="middle" xml:space="preserve" >DISTRIBUTION METRICS</text>
</g>
</svg>
