<?xml version="1.0" encoding="UTF-8" ?>
<!DOCTYPE svg PUBLIC "-//W3C//DTD SVG 1.1//EN" "http://www.w3.org/Graphics/SVG/1.1/DTD/svg11.dtd">
<svg width="1672pt" height="941pt" viewBox="0 0 1672 941" version="1.1" xmlns="http://www.w3.org/2000/svg">
<g id="#c60403ff">
<path fill="#c60403" opacity="1.00" d=" M 0.00 0.00 L 0.06 0.00 C 0.04 0.01 0.01 0.04 0.00 0.06 L 0.00 0.00 Z" />
<path fill="#c60403" opacity="1.00" d=" M 1317.93 263.17 C 1318.15 263.84 1318.38 264.52 1318.61 265.21 C 1318.53 442.46 1318.61 619.71 1318.57 796.96 C 1318.64 802.34 1317.77 808.33 1321.15 812.99 C 1322.98 815.98 1326.51 817.48 1329.96 817.27 C 1393.01 817.27 1456.05 817.31 1519.10 817.27 C 1526.00 817.56 1530.09 810.18 1529.58 804.01 C 1529.64 624.38 1529.63 444.75 1529.57 265.12 L 1530.79 265.51 L 1531.25 265.65 C 1531.19 443.08 1531.27 620.52 1531.23 797.96 C 1531.32 803.24 1531.52 808.92 1528.65 813.60 C 1527.15 816.38 1524.32 818.66 1521.07 818.73 C 1506.72 819.02 1492.33 818.40 1478.00 819.03 C 1453.37 818.48 1428.70 818.90 1404.05 818.79 C 1378.71 818.78 1353.37 818.79 1328.03 818.81 C 1322.10 819.10 1318.42 812.94 1317.52 807.81 C 1317.50 807.69 1317.48 807.46 1317.46 807.34 C 1317.15 702.88 1317.44 598.42 1317.33 493.96 C 1317.37 418.98 1317.32 343.99 1317.34 269.01 C 1317.47 267.68 1316.95 266.49 1316.51 265.30 C 1316.86 264.76 1317.57 263.70 1317.93 263.17 Z" />
<path fill="#c60403" opacity="1.00" d=" M 1427.62 343.32 C 1428.21 343.34 1429.39 343.37 1429.98 343.39 C 1428.01 352.70 1425.00 361.75 1422.52 370.93 C 1422.11 372.18 1421.20 372.62 1419.76 372.23 C 1422.13 362.52 1424.88 352.92 1427.62 343.32 Z" />
</g>
<g id="#ffffffff">
<path fill="#ffffff" opacity="1.00" d=" M 0.06 0.00 L 1672.00 0.00 L 1672.00 941.00 L 0.00 941.00 L 0.00 0.06 C 0.01 0.04 0.04 0.01 0.06 0.00 M 537.49 187.40 C 537.39 201.33 537.74 215.27 537.37 229.20 C 535.33 229.17 533.30 229.19 531.28 229.30 C 533.42 235.06 536.12 240.66 537.84 246.56 C 538.20 246.59 538.92 246.64 539.29 246.66 C 541.23 240.75 543.86 235.06 545.94 229.18 C 543.83 229.12 541.73 229.12 539.63 229.13 C 539.54 215.21 539.68 201.29 539.61 187.36 C 539.08 187.37 538.02 187.39 537.49 187.40 M 137.40 252.85 C 131.73 255.48 129.08 262.02 129.38 267.99 C 129.38 447.02 129.33 626.05 129.37 805.09 C 129.35 811.56 133.89 819.10 140.99 819.17 C 208.67 819.15 276.35 819.21 344.03 819.15 C 351.44 818.66 355.20 810.60 355.18 804.00 C 355.19 627.34 355.21 450.68 355.22 274.02 C 355.41 267.63 355.51 260.20 350.57 255.39 C 348.81 253.72 346.66 252.26 344.12 252.47 C 276.74 252.38 209.36 252.49 141.99 252.41 C 140.44 252.41 138.91 252.58 137.40 252.85 M 439.35 252.67 C 433.08 254.10 429.86 261.05 429.85 267.02 C 429.84 331.69 429.82 396.37 429.87 461.04 C 430.89 469.01 429.54 476.98 429.82 484.97 C 429.85 588.65 429.83 692.33 429.83 796.00 C 429.89 801.21 429.30 806.69 431.32 811.64 C 432.77 814.87 435.48 817.84 439.04 818.67 C 442.66 819.63 446.40 818.67 450.08 818.79 C 513.09 818.79 576.10 818.78 639.11 818.77 C 645.76 818.33 649.39 811.07 649.47 805.07 C 649.52 625.68 649.45 446.28 649.50 266.88 C 649.38 261.77 647.31 256.11 642.58 253.58 C 640.31 252.15 637.52 252.61 634.99 252.51 C 569.77 252.64 504.55 252.31 439.35 252.67 M 729.49 252.72 C 725.68 253.62 723.15 257.01 721.71 260.45 C 720.01 264.41 720.61 268.80 720.50 272.99 C 720.56 450.33 720.46 627.66 720.55 805.00 C 720.68 811.36 724.84 818.90 731.89 819.15 C 797.26 819.20 862.62 819.15 927.99 819.18 C 931.18 819.18 934.72 819.45 937.46 817.45 C 941.77 814.52 943.55 809.06 943.50 804.04 C 943.51 625.01 943.55 445.98 943.48 266.96 C 943.62 260.15 938.70 251.84 931.08 252.43 C 876.71 252.42 822.34 252.43 767.97 252.44 C 755.15 252.66 742.28 251.99 729.49 252.72 M 1317.73 262.61 L 1317.93 263.17 C 1317.57 263.70 1316.86 264.76 1316.51 265.30 C 1316.95 266.49 1317.47 267.68 1317.34 269.01 C 1317.32 343.99 1317.37 418.98 1317.33 493.96 C 1317.44 598.42 1317.15 702.88 1317.46 807.34 C 1317.48 807.46 1317.50 807.69 1317.52 807.81 C 1318.42 812.94 1322.10 819.10 1328.03 818.81 C 1353.37 818.79 1378.71 818.78 1404.05 818.79 C 1428.70 818.90 1453.37 818.48 1478.00 819.03 C 1492.33 818.40 1506.72 819.02 1521.07 818.73 C 1524.32 818.66 1527.15 816.38 1528.65 813.60 C 1531.52 808.92 1531.32 803.24 1531.23 797.96 C 1531.27 620.52 1531.19 443.08 1531.25 265.65 L 1530.79 265.51 C 1530.72 260.10 1527.50 253.90 1521.89 252.65 C 1512.61 252.36 1503.31 252.59 1494.02 252.53 C 1438.67 252.57 1383.31 252.48 1327.95 252.57 C 1322.51 252.67 1318.95 257.80 1317.73 262.61 M 1029.26 253.38 C 1024.33 255.92 1022.35 261.77 1022.35 267.01 C 1022.38 443.33 1022.37 619.65 1022.36 795.97 C 1022.53 801.31 1021.46 806.99 1023.90 811.99 C 1025.69 815.88 1029.41 819.27 1033.92 819.15 C 1086.30 819.18 1138.63 819.07 1191.02 819.19 C 1203.71 818.60 1216.41 819.52 1229.11 819.09 C 1236.63 818.88 1240.89 810.74 1240.70 803.99 C 1240.66 624.98 1240.76 445.97 1240.67 266.96 C 1240.73 260.40 1236.50 252.05 1228.98 252.48 C 1164.31 252.51 1099.65 252.45 1034.98 252.50 C 1033.05 252.59 1031.00 252.45 1029.26 253.38 M 407.54 488.44 C 407.51 490.66 407.52 492.89 407.52 495.12 C 392.03 495.33 376.54 495.07 361.05 495.26 C 361.07 495.84 361.11 497.00 361.13 497.58 C 376.58 497.65 392.03 497.49 407.49 497.66 C 407.41 499.89 407.42 502.14 407.54 504.39 C 413.24 501.51 419.43 499.55 424.83 496.13 C 419.01 493.68 413.28 491.04 407.54 488.44 M 104.29 495.23 C 76.90 495.17 49.50 495.18 22.10 495.26 C 22.11 495.85 22.14 497.01 22.15 497.60 C 49.53 497.61 76.90 497.47 104.27 497.67 C 104.24 499.81 104.24 501.96 104.26 504.11 C 109.66 502.09 114.83 499.51 120.11 497.21 C 120.40 496.91 120.98 496.33 121.28 496.03 C 115.64 493.63 109.99 491.22 104.58 488.34 C 104.23 490.62 104.30 492.93 104.29 495.23 M 697.35 495.15 C 683.31 495.32 669.27 494.98 655.23 495.30 C 655.23 495.86 655.24 496.96 655.25 497.52 C 669.26 497.78 683.28 497.42 697.30 497.68 C 697.31 499.88 697.31 502.09 697.30 504.30 C 703.18 501.84 708.93 499.09 714.79 496.57 C 709.26 493.46 703.23 491.33 697.59 488.43 C 697.31 490.65 697.30 492.90 697.35 495.15 M 998.18 488.61 C 998.19 490.80 998.21 492.99 998.20 495.19 C 982.07 495.30 965.94 495.09 949.81 495.27 C 949.70 495.84 949.48 496.99 949.36 497.56 C 965.63 497.62 981.90 497.54 998.18 497.60 C 998.11 499.86 998.14 502.13 998.37 504.40 C 1003.81 501.35 1010.23 499.85 1015.18 496.09 C 1009.48 493.67 1003.97 490.79 998.18 488.61 M 1294.50 495.14 C 1278.47 495.43 1262.44 495.02 1246.41 495.23 C 1246.40 495.82 1246.39 496.99 1246.38 497.57 C 1262.41 497.66 1278.44 497.46 1294.47 497.62 C 1294.43 499.82 1294.43 502.02 1294.43 504.23 C 1300.25 501.70 1306.38 499.52 1311.73 496.13 C 1305.91 493.80 1300.27 491.07 1294.61 488.40 C 1294.49 490.64 1294.48 492.89 1294.50 495.14 M 1634.68 488.35 C 1634.62 490.63 1634.60 492.92 1634.63 495.21 C 1602.21 495.16 1569.80 495.27 1537.39 495.17 C 1537.35 495.75 1537.27 496.93 1537.24 497.51 C 1569.70 497.69 1602.16 497.53 1634.63 497.57 C 1634.61 499.82 1634.60 502.08 1634.64 504.34 C 1640.48 501.57 1646.62 499.38 1652.26 496.20 C 1646.26 493.91 1640.64 490.75 1634.68 488.35 Z" />
</g>
<g id="#050a1bff">
<path fill="#050a1b" opacity="1.00" d=" M 537.49 187.40 C 538.02 187.39 539.08 187.37 539.61 187.36 C 539.68 201.29 539.54 215.21 539.63 229.13 C 541.73 229.12 543.83 229.12 545.94 229.18 C 543.86 235.06 541.23 240.75 539.29 246.66 C 538.92 246.64 538.20 246.59 537.84 246.56 C 536.12 240.66 533.42 235.06 531.28 229.30 C 533.30 229.19 535.33 229.17 537.37 229.20 C 537.74 215.27 537.39 201.33 537.49 187.40 Z" />
</g>
<g id="#034db8ff">
<path fill="#034db8" opacity="1.00" d=" M 137.40 252.85 C 138.91 252.58 140.44 252.41 141.99 252.41 C 209.36 252.49 276.74 252.38 344.12 252.47 C 346.66 252.26 348.81 253.72 350.57 255.39 C 350.15 255.53 349.29 255.82 348.86 255.96 C 346.72 254.95 344.45 254.18 342.06 254.35 C 274.49 254.38 206.91 254.34 139.34 254.35 C 138.86 253.97 137.88 253.22 137.40 252.85 Z" />
<path fill="#034db8" opacity="1.00" d=" M 217.35 309.42 C 224.87 308.48 232.42 309.37 239.97 309.19 C 243.50 309.38 247.13 308.82 250.61 309.52 C 253.27 311.86 255.15 314.92 257.29 317.72 C 260.33 321.67 263.72 325.32 266.70 329.31 C 267.53 330.33 267.87 331.64 267.84 332.94 C 267.96 338.15 267.63 343.36 267.86 348.57 C 267.32 348.88 266.23 349.51 265.69 349.82 C 265.75 344.12 265.85 338.42 265.51 332.73 C 260.80 332.73 256.10 332.67 251.39 332.58 C 250.68 331.78 249.97 330.99 249.27 330.20 C 249.37 324.23 248.91 318.28 248.79 312.32 C 238.37 312.23 227.93 312.09 217.52 312.47 C 217.36 313.98 217.22 315.48 217.19 317.01 C 217.14 338.35 217.23 359.69 217.14 381.04 C 217.11 382.53 217.38 384.01 217.75 385.47 C 219.05 386.12 220.48 386.48 221.95 386.43 C 231.38 386.42 240.87 385.89 250.25 387.21 C 249.45 387.70 248.64 388.18 247.83 388.65 C 238.22 388.83 228.61 388.68 219.00 388.74 C 215.42 389.17 213.76 384.98 214.08 382.03 C 214.13 360.34 214.16 338.64 214.13 316.95 C 213.99 314.16 214.60 310.80 217.35 309.42 M 251.63 315.83 C 251.42 320.39 251.49 324.97 251.62 329.53 C 255.34 329.59 259.07 329.65 262.79 329.49 C 258.91 325.07 255.80 320.00 251.63 315.83 Z" />
<path fill="#034db8" opacity="1.00" d=" M 230.83 349.73 C 231.78 348.45 233.12 349.99 233.44 350.96 C 231.46 353.31 229.09 355.31 227.15 357.70 C 229.36 359.61 231.52 361.60 233.35 363.89 C 233.01 364.43 232.33 365.51 231.99 366.05 C 229.07 363.12 225.45 360.78 223.29 357.17 C 225.87 354.76 228.20 352.09 230.83 349.73 Z" />
</g>
<g id="#472d9aff">
<path fill="#472d9a" opacity="1.00" d=" M 439.35 252.67 C 504.55 252.31 569.77 252.64 634.99 252.51 C 637.52 252.61 640.31 252.15 642.58 253.58 C 647.31 256.11 649.38 261.77 649.50 266.88 C 649.45 446.28 649.52 625.68 649.47 805.07 C 649.39 811.07 645.76 818.33 639.11 818.77 C 576.10 818.78 513.09 818.79 450.08 818.79 C 446.40 818.67 442.66 819.63 439.04 818.67 C 435.48 817.84 432.77 814.87 431.32 811.64 C 429.30 806.69 429.89 801.21 429.83 796.00 C 429.83 692.33 429.85 588.65 429.82 484.97 C 429.54 476.98 430.89 469.01 429.87 461.04 C 429.82 396.37 429.84 331.69 429.85 267.02 C 429.86 261.05 433.08 254.10 439.35 252.67 M 439.43 254.56 C 436.47 255.18 434.07 257.46 432.91 260.20 C 430.39 265.42 431.60 271.38 431.37 276.95 C 431.47 452.63 431.29 628.30 431.46 803.98 C 431.08 810.07 435.14 817.45 441.94 817.25 C 506.97 817.32 572.01 817.29 637.04 817.30 C 640.49 817.42 644.11 815.72 645.84 812.65 C 648.33 808.61 648.29 803.66 648.22 799.08 C 648.18 623.40 648.20 447.72 648.22 272.04 C 648.36 267.66 648.16 263.03 645.91 259.13 C 644.24 256.44 641.46 253.96 638.07 254.32 C 584.73 254.31 531.38 254.31 478.03 254.31 C 465.17 254.49 452.27 253.96 439.43 254.56 Z" />
<path fill="#472d9a" opacity="1.00" d=" M 511.65 316.98 C 511.41 313.70 512.92 308.85 517.00 309.25 C 527.25 309.20 537.52 309.16 547.77 309.39 C 549.65 310.75 550.82 312.86 552.32 314.62 C 556.18 319.71 560.56 324.39 564.29 329.58 C 566.03 331.66 565.29 334.49 565.43 336.96 C 565.61 351.49 565.19 366.03 565.52 380.56 L 564.54 380.49 C 564.04 382.72 566.15 387.85 562.49 387.57 L 562.47 388.52 C 546.99 388.40 531.50 388.85 516.02 388.68 C 513.28 388.61 511.64 385.48 511.70 383.02 C 511.59 361.00 511.79 338.99 511.65 316.98 M 514.56 314.89 C 514.54 337.62 514.52 360.35 514.56 383.07 C 514.48 386.07 517.97 385.68 520.00 385.64 C 533.95 385.25 547.78 386.09 561.66 386.56 L 561.55 385.22 C 562.03 385.36 563.00 385.64 563.49 385.78 C 563.52 368.45 563.52 351.11 563.33 333.78 C 563.07 333.53 562.54 333.03 562.28 332.78 C 557.87 332.59 553.46 332.82 549.06 332.46 C 548.27 331.47 547.49 330.49 546.71 329.51 C 546.74 323.84 546.62 318.16 546.70 312.49 C 537.15 311.81 527.54 312.41 517.96 312.21 C 516.26 311.87 514.27 312.94 514.56 314.89 M 549.18 315.93 C 549.17 320.50 549.29 325.07 549.42 329.64 C 553.03 329.60 556.64 329.62 560.25 329.63 C 556.67 324.98 553.36 320.08 549.18 315.93 Z" />
</g>
<g id="#006773ff">
<path fill="#006773" opacity="1.00" d=" M 729.49 252.72 C 742.28 251.99 755.15 252.66 767.97 252.44 C 822.34 252.43 876.71 252.42 931.08 252.43 C 938.70 251.84 943.62 260.15 943.48 266.96 C 943.55 445.98 943.51 625.01 943.50 804.04 C 943.55 809.06 941.77 814.52 937.46 817.45 C 934.72 819.45 931.18 819.18 927.99 819.18 C 862.62 819.15 797.26 819.20 731.89 819.15 C 724.84 818.90 720.68 811.36 720.55 805.00 C 720.46 627.66 720.56 450.33 720.50 272.99 C 720.61 268.80 720.01 264.41 721.71 260.45 C 723.15 257.01 725.68 253.62 729.49 252.72 M 730.39 254.59 C 725.05 255.88 722.23 261.77 722.33 266.90 C 722.34 445.95 722.30 625.00 722.33 804.04 C 721.74 810.26 726.17 817.46 732.99 817.15 C 798.68 817.16 864.38 817.13 930.07 817.16 C 933.04 817.31 936.26 816.65 938.24 814.23 C 942.46 809.94 941.80 803.50 941.77 798.00 C 941.76 621.33 941.78 444.65 941.76 267.98 C 942.09 262.14 938.84 254.32 932.05 254.40 C 877.38 254.35 822.71 254.35 768.03 254.37 C 755.49 254.47 742.92 254.12 730.39 254.59 Z" />
<path fill="#006773" opacity="1.00" d=" M 807.27 309.35 C 817.16 308.77 827.08 309.43 836.99 309.22 C 838.26 309.41 840.05 308.81 840.99 310.00 C 845.95 316.04 850.65 322.30 855.70 328.28 C 856.50 329.41 857.75 330.49 857.70 332.01 C 857.77 349.80 857.59 367.59 857.60 385.39 C 857.09 385.38 856.08 385.37 855.57 385.37 C 855.56 367.84 855.76 350.29 855.33 332.77 C 850.46 332.75 845.59 332.63 840.72 332.68 C 839.87 331.24 838.67 329.85 838.78 328.08 C 838.61 322.83 838.74 317.58 838.50 312.34 C 828.15 312.14 817.80 312.17 807.45 312.41 C 806.61 331.23 807.40 350.10 807.03 368.94 C 807.38 374.45 806.75 380.01 807.55 385.50 C 815.45 385.74 823.35 385.44 831.26 385.63 C 834.30 386.50 837.45 386.83 840.61 387.02 C 839.33 387.57 838.08 388.14 836.80 388.65 C 827.52 388.81 818.23 388.63 808.95 388.73 C 805.86 389.15 804.02 385.72 804.20 383.04 C 804.06 360.70 804.26 338.37 804.15 316.03 C 803.91 313.44 804.83 310.60 807.27 309.35 M 841.29 315.99 C 841.37 320.51 841.25 325.03 841.51 329.55 C 845.28 329.62 849.07 329.83 852.85 329.43 C 848.93 325.00 845.42 320.22 841.29 315.99 Z" />
</g>
<g id="#d00706ff">
<path fill="#d00706" opacity="1.00" d=" M 1317.73 262.61 C 1318.95 257.80 1322.51 252.67 1327.95 252.57 C 1383.31 252.48 1438.67 252.57 1494.02 252.53 C 1503.31 252.59 1512.61 252.36 1521.89 252.65 C 1527.50 253.90 1530.72 260.10 1530.79 265.51 L 1529.57 265.12 C 1528.85 260.14 1525.79 254.13 1519.98 254.33 C 1456.30 254.27 1392.61 254.28 1328.93 254.32 C 1323.01 254.06 1319.47 260.07 1318.61 265.21 C 1318.38 264.52 1318.15 263.84 1317.93 263.17 L 1317.73 262.61 Z" />
<path fill="#d00706" opacity="1.00" d=" M 1401.25 309.36 C 1410.47 308.32 1419.72 309.50 1428.98 309.18 C 1431.08 309.45 1434.00 308.39 1435.39 310.57 C 1440.25 317.01 1445.55 323.10 1450.41 329.55 C 1452.11 331.27 1451.34 333.83 1451.51 336.01 C 1451.56 352.37 1451.37 368.74 1451.43 385.11 C 1450.64 386.47 1449.54 387.58 1448.32 388.55 C 1432.87 388.37 1417.42 388.91 1401.98 388.72 C 1399.20 388.66 1397.43 385.53 1397.66 383.00 C 1397.61 360.66 1397.60 338.32 1397.66 315.98 C 1397.59 313.42 1398.57 310.22 1401.25 309.36 M 1400.49 313.55 C 1400.86 337.45 1400.39 361.37 1400.73 385.27 C 1411.28 385.98 1421.90 385.42 1432.48 385.61 L 1432.49 386.43 C 1438.14 386.00 1443.95 387.16 1449.45 385.36 C 1449.42 368.91 1449.33 352.46 1449.32 336.01 C 1449.31 334.82 1449.07 333.69 1448.60 332.62 C 1444.00 332.80 1439.40 332.55 1434.81 332.62 C 1433.82 331.24 1432.47 329.83 1432.62 328.02 C 1432.44 322.81 1432.60 317.60 1432.44 312.40 C 1423.97 311.93 1415.49 312.42 1407.01 312.25 C 1404.77 312.37 1402.17 311.66 1400.49 313.55 M 1434.96 315.83 C 1435.16 320.44 1435.09 325.07 1435.34 329.68 C 1439.09 329.68 1442.84 329.71 1446.60 329.66 C 1442.64 325.12 1439.52 319.82 1434.96 315.83 Z" />
<path fill="#d00706" opacity="1.00" d=" M 1433.40 351.58 C 1432.25 350.58 1434.03 349.60 1434.67 348.98 C 1437.27 351.79 1440.11 354.36 1442.79 357.10 C 1440.11 360.28 1437.13 363.20 1434.01 365.94 C 1431.54 362.24 1437.41 360.14 1439.06 357.35 C 1437.06 355.53 1435.02 353.73 1433.40 351.58 Z" />
<path fill="#d00706" opacity="1.00" d=" M 1331.37 736.40 C 1392.91 736.33 1454.45 736.44 1515.98 736.35 C 1515.96 736.64 1515.92 737.21 1515.90 737.49 C 1454.39 737.42 1392.88 737.42 1331.37 737.49 C 1331.37 737.21 1331.37 736.67 1331.37 736.40 Z" />
</g>
<g id="#0e54bbff">
<path fill="#0e54bb" opacity="1.00" d=" M 129.38 267.99 C 129.08 262.02 131.73 255.48 137.40 252.85 C 137.88 253.22 138.86 253.97 139.34 254.35 C 133.19 256.23 130.78 263.04 130.91 268.93 C 131.01 344.94 130.81 420.98 130.96 496.99 C 130.62 505.00 131.47 513.01 130.90 521.01 C 130.82 614.33 130.93 707.66 130.86 800.98 C 130.90 805.38 131.22 810.24 134.21 813.76 C 136.29 816.37 139.78 817.22 142.99 817.16 C 209.69 817.12 276.40 817.18 343.10 817.16 C 350.20 817.07 354.00 809.27 353.58 802.97 C 353.53 624.65 353.60 446.32 353.56 267.99 C 353.70 263.52 351.89 259.21 348.86 255.96 C 349.29 255.82 350.15 255.53 350.57 255.39 C 355.51 260.20 355.41 267.63 355.22 274.02 C 355.21 450.68 355.19 627.34 355.18 804.00 C 355.20 810.60 351.44 818.66 344.03 819.15 C 276.35 819.21 208.67 819.15 140.99 819.17 C 133.89 819.10 129.35 811.56 129.37 805.09 C 129.33 626.05 129.38 447.02 129.38 267.99 Z" />
<path fill="#0e54bb" opacity="1.00" d=" M 249.01 351.02 C 249.66 350.33 250.30 349.64 250.95 348.96 C 253.55 351.89 257.52 354.03 258.91 357.79 C 256.51 360.77 253.45 363.13 250.87 365.95 C 250.42 365.45 249.52 364.43 249.08 363.92 C 251.15 361.63 253.71 359.79 255.43 357.19 C 253.16 355.26 251.10 353.12 249.01 351.02 Z" />
</g>
<g id="#d46d0bff">
<path fill="#d46d0b" opacity="1.00" d=" M 1029.26 253.38 C 1031.00 252.45 1033.05 252.59 1034.98 252.50 C 1099.65 252.45 1164.31 252.51 1228.98 252.48 C 1236.50 252.05 1240.73 260.40 1240.67 266.96 C 1240.76 445.97 1240.66 624.98 1240.70 803.99 C 1240.89 810.74 1236.63 818.88 1229.11 819.09 C 1216.41 819.52 1203.71 818.60 1191.02 819.19 C 1138.63 819.07 1086.30 819.18 1033.92 819.15 C 1029.41 819.27 1025.69 815.88 1023.90 811.99 C 1021.46 806.99 1022.53 801.31 1022.36 795.97 C 1022.37 619.65 1022.38 443.33 1022.35 267.01 C 1022.35 261.77 1024.33 255.92 1029.26 253.38 M 1032.30 254.47 C 1029.37 254.82 1027.09 257.17 1025.68 259.61 C 1023.10 264.33 1023.95 269.84 1023.80 274.98 C 1023.83 450.64 1023.77 626.30 1023.82 801.96 C 1023.84 805.63 1024.16 809.51 1026.12 812.72 C 1027.70 815.46 1030.85 817.08 1033.97 817.20 C 1097.32 817.30 1160.66 817.19 1224.01 817.22 C 1227.52 817.24 1231.46 817.73 1234.40 815.36 C 1238.54 811.88 1239.39 806.08 1239.24 800.98 C 1239.31 623.31 1239.22 445.64 1239.27 267.97 C 1239.33 262.55 1236.71 255.81 1230.92 254.46 C 1218.62 254.16 1206.30 254.37 1194.00 254.29 C 1140.10 254.45 1086.19 254.07 1032.30 254.47 Z" />
<path fill="#d46d0b" opacity="1.00" d=" M 1113.74 357.10 C 1116.59 354.57 1119.07 351.65 1121.94 349.15 C 1122.44 349.64 1123.43 350.63 1123.92 351.13 C 1121.83 353.35 1119.21 355.17 1117.79 357.94 C 1119.98 359.84 1121.95 361.98 1123.99 364.06 C 1123.48 364.50 1122.47 365.39 1121.97 365.83 C 1119.25 362.91 1115.52 360.74 1113.74 357.10 Z" />
</g>
<g id="#f1f8fdff">
<path fill="#f1f8fd" opacity="1.00" d=" M 139.34 254.35 C 206.91 254.34 274.49 254.38 342.06 254.35 C 344.45 254.18 346.72 254.95 348.86 255.96 C 351.89 259.21 353.70 263.52 353.56 267.99 C 353.60 446.32 353.53 624.65 353.58 802.97 C 354.00 809.27 350.20 817.07 343.10 817.16 C 276.40 817.18 209.69 817.12 142.99 817.16 C 139.78 817.22 136.29 816.37 134.21 813.76 C 131.22 810.24 130.90 805.38 130.86 800.98 C 130.93 707.66 130.82 614.33 130.90 521.01 C 131.47 513.01 130.62 505.00 130.96 496.99 C 130.81 420.98 131.01 344.94 130.91 268.93 C 130.78 263.04 133.19 256.23 139.34 254.35 M 217.35 309.42 C 214.60 310.80 213.99 314.16 214.13 316.95 C 214.16 338.64 214.13 360.34 214.08 382.03 C 213.76 384.98 215.42 389.17 219.00 388.74 C 228.61 388.68 238.22 388.83 247.83 388.65 C 253.46 388.86 259.12 388.84 264.74 388.58 C 267.88 387.71 268.39 383.78 268.21 381.00 C 267.94 370.19 268.56 359.35 267.86 348.57 C 267.63 343.36 267.96 338.15 267.84 332.94 C 267.87 331.64 267.53 330.33 266.70 329.31 C 263.72 325.32 260.33 321.67 257.29 317.72 C 255.15 314.92 253.27 311.86 250.61 309.52 C 247.13 308.82 243.50 309.38 239.97 309.19 C 232.42 309.37 224.87 308.48 217.35 309.42 M 142.71 515.98 L 142.84 517.26 C 208.07 517.44 273.29 517.43 338.51 517.27 L 338.38 515.88 C 273.16 515.87 207.93 515.70 142.71 515.98 M 142.16 736.43 C 142.42 736.69 142.92 737.20 143.17 737.45 C 208.05 737.58 272.95 737.40 337.84 737.52 C 337.86 737.22 337.90 736.62 337.92 736.33 C 272.67 736.42 207.41 736.14 142.16 736.43 Z" />
</g>
<g id="#f6f5fdff">
<path fill="#f6f5fd" opacity="1.00" d=" M 439.43 254.56 C 452.27 253.96 465.17 254.49 478.03 254.31 C 531.38 254.31 584.73 254.31 638.07 254.32 C 641.46 253.96 644.24 256.44 645.91 259.13 C 648.16 263.03 648.36 267.66 648.22 272.04 C 648.20 447.72 648.18 623.40 648.22 799.08 C 648.29 803.66 648.33 808.61 645.84 812.65 C 644.11 815.72 640.49 817.42 637.04 817.30 C 572.01 817.29 506.97 817.32 441.94 817.25 C 435.14 817.45 431.08 810.07 431.46 803.98 C 431.29 628.30 431.47 452.63 431.37 276.95 C 431.60 271.38 430.39 265.42 432.91 260.20 C 434.07 257.46 436.47 255.18 439.43 254.56 M 511.65 316.98 C 511.79 338.99 511.59 361.00 511.70 383.02 C 511.64 385.48 513.28 388.61 516.02 388.68 C 531.50 388.85 546.99 388.40 562.47 388.52 L 562.49 387.57 C 566.15 387.85 564.04 382.72 564.54 380.49 L 565.52 380.56 C 565.19 366.03 565.61 351.49 565.43 336.96 C 565.29 334.49 566.03 331.66 564.29 329.58 C 560.56 324.39 556.18 319.71 552.32 314.62 C 550.82 312.86 549.65 310.75 547.77 309.39 C 537.52 309.16 527.25 309.20 517.00 309.25 C 512.92 308.85 511.41 313.70 511.65 316.98 M 442.81 515.97 L 443.30 517.25 C 507.03 517.59 570.79 517.29 634.53 517.34 L 634.57 515.88 C 570.65 515.93 506.73 515.73 442.81 515.97 M 442.82 736.04 C 442.93 736.47 443.15 737.34 443.25 737.78 C 507.13 737.76 571.02 738.08 634.89 737.69 C 634.96 735.47 632.41 736.13 630.98 735.98 C 568.26 736.05 505.54 735.94 442.82 736.04 Z" />
</g>
<g id="#ecf8faff">
<path fill="#ecf8fa" opacity="1.00" d=" M 730.39 254.59 C 742.92 254.12 755.49 254.47 768.03 254.37 C 822.71 254.35 877.38 254.35 932.05 254.40 C 938.84 254.32 942.09 262.14 941.76 267.98 C 941.78 444.65 941.76 621.33 941.77 798.00 C 941.80 803.50 942.46 809.94 938.24 814.23 C 936.26 816.65 933.04 817.31 930.07 817.16 C 864.38 817.13 798.68 817.16 732.99 817.15 C 726.17 817.46 721.74 810.26 722.33 804.04 C 722.30 625.00 722.34 445.95 722.33 266.90 C 722.23 261.77 725.05 255.88 730.39 254.59 M 807.27 309.35 C 804.83 310.60 803.91 313.44 804.15 316.03 C 804.26 338.37 804.06 360.70 804.20 383.04 C 804.02 385.72 805.86 389.15 808.95 388.73 C 818.23 388.63 827.52 388.81 836.80 388.65 C 842.53 389.15 848.29 388.54 854.04 388.61 C 856.04 388.92 856.82 386.77 857.60 385.39 C 857.59 367.59 857.77 349.80 857.70 332.01 C 857.75 330.49 856.50 329.41 855.70 328.28 C 850.65 322.30 845.95 316.04 840.99 310.00 C 840.05 308.81 838.26 309.41 836.99 309.22 C 827.08 309.43 817.16 308.77 807.27 309.35 M 733.51 515.90 C 733.80 518.20 736.48 517.03 737.98 517.38 C 801.06 517.24 864.15 517.45 927.22 517.27 C 927.44 516.95 927.87 516.33 928.08 516.01 C 914.73 515.60 901.37 515.98 888.02 515.85 C 836.52 515.87 785.01 515.79 733.51 515.90 M 733.88 736.27 C 734.02 736.58 734.32 737.20 734.46 737.51 C 798.30 737.73 862.15 737.60 926.00 737.62 C 927.12 737.85 927.79 737.41 928.02 736.30 C 922.67 736.10 917.33 736.18 911.99 736.14 C 852.62 736.18 793.25 736.04 733.88 736.27 Z" />
</g>
<g id="#fdf7edff">
<path fill="#fdf7ed" opacity="1.00" d=" M 1032.30 254.47 C 1086.19 254.07 1140.10 254.45 1194.00 254.29 C 1206.30 254.37 1218.62 254.16 1230.92 254.46 C 1236.71 255.81 1239.33 262.55 1239.27 267.97 C 1239.22 445.64 1239.31 623.31 1239.24 800.98 C 1239.39 806.08 1238.54 811.88 1234.40 815.36 C 1231.46 817.73 1227.52 817.24 1224.01 817.22 C 1160.66 817.19 1097.32 817.30 1033.97 817.20 C 1030.85 817.08 1027.70 815.46 1026.12 812.72 C 1024.16 809.51 1023.84 805.63 1023.82 801.96 C 1023.77 626.30 1023.83 450.64 1023.80 274.98 C 1023.95 269.84 1023.10 264.33 1025.68 259.61 C 1027.09 257.17 1029.37 254.82 1032.30 254.47 M 1107.52 309.48 C 1104.80 310.95 1104.10 314.17 1104.33 317.02 C 1104.43 339.03 1104.30 361.03 1104.35 383.03 C 1104.13 385.65 1106.03 388.89 1108.95 388.70 C 1124.54 388.82 1140.13 388.57 1155.72 388.48 C 1156.93 386.87 1158.50 385.24 1158.24 383.05 C 1158.30 366.35 1158.30 349.64 1158.29 332.94 C 1158.39 329.98 1155.79 328.00 1154.20 325.82 C 1149.50 320.52 1145.63 314.51 1140.79 309.35 C 1129.71 309.29 1118.57 308.24 1107.52 309.48 M 1036.68 515.89 L 1036.66 517.39 C 1092.43 517.30 1148.21 517.42 1203.98 517.36 C 1211.18 517.25 1218.44 517.68 1225.62 517.08 L 1226.16 515.94 C 1163.00 515.74 1099.84 515.91 1036.68 515.89 M 1036.50 736.00 C 1036.55 736.47 1036.65 737.41 1036.71 737.87 C 1099.69 737.62 1162.68 738.08 1225.66 737.68 C 1225.78 737.28 1226.03 736.47 1226.15 736.06 C 1162.93 735.92 1099.71 736.04 1036.50 736.00 Z" />
</g>
<g id="#fdf1f1ff">
<path fill="#fdf1f1" opacity="1.00" d=" M 1318.61 265.21 C 1319.47 260.07 1323.01 254.06 1328.93 254.32 C 1392.61 254.28 1456.30 254.27 1519.98 254.33 C 1525.79 254.13 1528.85 260.14 1529.57 265.12 C 1529.63 444.75 1529.64 624.38 1529.58 804.01 C 1530.09 810.18 1526.00 817.56 1519.10 817.27 C 1456.05 817.31 1393.01 817.27 1329.96 817.27 C 1326.51 817.48 1322.98 815.98 1321.15 812.99 C 1317.77 808.33 1318.64 802.34 1318.57 796.96 C 1318.61 619.71 1318.53 442.46 1318.61 265.21 M 1401.25 309.36 C 1398.57 310.22 1397.59 313.42 1397.66 315.98 C 1397.60 338.32 1397.61 360.66 1397.66 383.00 C 1397.43 385.53 1399.20 388.66 1401.98 388.72 C 1417.42 388.91 1432.87 388.37 1448.32 388.55 C 1449.54 387.58 1450.64 386.47 1451.43 385.11 C 1451.37 368.74 1451.56 352.37 1451.51 336.01 C 1451.34 333.83 1452.11 331.27 1450.41 329.55 C 1445.55 323.10 1440.25 317.01 1435.39 310.57 C 1434.00 308.39 1431.08 309.45 1428.98 309.18 C 1419.72 309.50 1410.47 308.32 1401.25 309.36 M 1331.40 515.91 L 1331.39 517.41 C 1392.97 517.28 1454.54 517.46 1516.11 517.32 L 1516.23 515.90 C 1454.62 515.90 1393.01 515.81 1331.40 515.91 M 1331.37 736.40 C 1331.37 736.67 1331.37 737.21 1331.37 737.49 C 1392.88 737.42 1454.39 737.42 1515.90 737.49 C 1515.92 737.21 1515.96 736.64 1515.98 736.35 C 1454.45 736.44 1392.91 736.33 1331.37 736.40 Z" />
<path fill="#fdf1f1" opacity="1.00" d=" M 1317.46 807.34 C 1317.48 807.46 1317.50 807.69 1317.52 807.81 C 1317.50 807.69 1317.48 807.46 1317.46 807.34 Z" />
</g>
<g id="#cf6a06ff">
<path fill="#cf6a06" opacity="1.00" d=" M 1107.52 309.48 C 1118.57 308.24 1129.71 309.29 1140.79 309.35 C 1145.63 314.51 1149.50 320.52 1154.20 325.82 C 1155.79 328.00 1158.39 329.98 1158.29 332.94 C 1158.30 349.64 1158.30 366.35 1158.24 383.05 C 1158.50 385.24 1156.93 386.87 1155.72 388.48 C 1140.13 388.57 1124.54 388.82 1108.95 388.70 C 1106.03 388.89 1104.13 385.65 1104.35 383.03 C 1104.30 361.03 1104.43 339.03 1104.33 317.02 C 1104.10 314.17 1104.80 310.95 1107.52 309.48 M 1107.90 312.84 C 1106.85 315.06 1107.49 317.63 1107.36 320.01 C 1107.39 340.98 1107.33 361.96 1107.41 382.93 C 1107.08 385.06 1109.34 385.85 1111.09 385.56 C 1125.89 385.43 1140.69 385.96 1155.48 385.53 C 1155.89 382.70 1156.37 379.86 1156.29 377.00 C 1156.11 365.35 1156.53 353.68 1156.02 342.04 C 1156.14 338.93 1156.70 335.68 1155.45 332.71 C 1150.92 332.74 1146.37 332.85 1141.86 332.49 C 1140.55 331.89 1139.40 330.58 1139.52 329.07 C 1139.39 323.53 1139.28 317.98 1139.36 312.43 C 1130.58 311.93 1121.79 312.45 1113.01 312.27 C 1111.29 312.34 1109.46 312.01 1107.90 312.84 M 1141.63 316.23 C 1142.60 320.58 1141.33 325.03 1141.72 329.44 C 1145.48 329.75 1149.26 329.66 1153.04 329.48 C 1150.35 325.99 1147.65 322.51 1144.87 319.10 C 1143.89 318.04 1143.23 316.41 1141.63 316.23 Z" />
</g>
<g id="#f6f9fdff">
<path fill="#f6f9fd" opacity="1.00" d=" M 217.52 312.47 C 227.93 312.09 238.37 312.23 248.79 312.32 C 248.91 318.28 249.37 324.23 249.27 330.20 C 249.97 330.99 250.68 331.78 251.39 332.58 C 256.10 332.67 260.80 332.73 265.51 332.73 C 265.85 338.42 265.75 344.12 265.69 349.82 C 265.37 361.68 266.09 373.58 265.30 385.42 C 249.45 385.74 233.60 385.17 217.75 385.47 C 217.38 384.01 217.11 382.53 217.14 381.04 C 217.23 359.69 217.14 338.35 217.19 317.01 C 217.22 315.48 217.36 313.98 217.52 312.47 M 243.64 344.84 C 241.26 354.03 238.25 363.06 236.25 372.35 C 238.73 373.65 238.96 370.97 239.49 369.55 C 241.76 360.81 244.34 352.15 246.59 343.39 C 245.38 343.44 243.71 343.07 243.64 344.84 M 230.83 349.73 C 228.20 352.09 225.87 354.76 223.29 357.17 C 225.45 360.78 229.07 363.12 231.99 366.05 C 232.33 365.51 233.01 364.43 233.35 363.89 C 231.52 361.60 229.36 359.61 227.15 357.70 C 229.09 355.31 231.46 353.31 233.44 350.96 C 233.12 349.99 231.78 348.45 230.83 349.73 M 249.01 351.02 C 251.10 353.12 253.16 355.26 255.43 357.19 C 253.71 359.79 251.15 361.63 249.08 363.92 C 249.52 364.43 250.42 365.45 250.87 365.95 C 253.45 363.13 256.51 360.77 258.91 357.79 C 257.52 354.03 253.55 351.89 250.95 348.96 C 250.30 349.64 249.66 350.33 249.01 351.02 Z" />
</g>
<g id="#f9f8fdff">
<path fill="#f9f8fd" opacity="1.00" d=" M 514.56 314.89 C 514.27 312.94 516.26 311.87 517.96 312.21 C 527.54 312.41 537.15 311.81 546.70 312.49 C 546.62 318.16 546.74 323.84 546.71 329.51 C 547.49 330.49 548.27 331.47 549.06 332.46 C 553.46 332.82 557.87 332.59 562.28 332.78 C 562.54 333.03 563.07 333.53 563.33 333.78 C 563.52 351.11 563.52 368.45 563.49 385.78 C 563.00 385.64 562.03 385.36 561.55 385.22 L 561.66 386.56 C 547.78 386.09 533.95 385.25 520.00 385.64 C 517.97 385.68 514.48 386.07 514.56 383.07 C 514.52 360.35 514.54 337.62 514.56 314.89 M 541.58 343.23 C 538.91 352.73 536.65 362.36 533.48 371.70 C 534.17 371.89 535.57 372.27 536.27 372.47 C 538.51 362.70 541.67 353.18 543.86 343.41 C 543.29 343.36 542.15 343.28 541.58 343.23 M 520.88 357.09 C 522.78 360.69 526.48 362.81 529.09 365.85 C 529.57 365.38 530.53 364.44 531.01 363.97 C 529.08 361.90 526.94 360.04 525.10 357.90 C 525.65 355.00 529.43 353.73 530.67 351.04 C 530.70 349.90 530.15 349.28 529.02 349.19 C 526.08 351.58 523.71 354.58 520.88 357.09 M 547.39 351.56 C 549.06 353.79 551.15 355.67 552.96 357.81 C 550.83 359.76 548.87 361.87 546.90 363.97 C 547.21 364.48 547.84 365.52 548.16 366.04 C 551.21 363.32 554.38 360.66 556.83 357.36 C 554.23 354.57 551.61 351.76 548.69 349.31 C 547.45 348.96 546.56 350.65 547.39 351.56 Z" />
</g>
<g id="#f7fbfcff">
<path fill="#f7fbfc" opacity="1.00" d=" M 807.45 312.41 C 817.80 312.17 828.15 312.14 838.50 312.34 C 838.74 317.58 838.61 322.83 838.78 328.08 C 838.67 329.85 839.87 331.24 840.72 332.68 C 845.59 332.63 850.46 332.75 855.33 332.77 C 855.76 350.29 855.56 367.84 855.57 385.37 C 847.47 386.03 839.36 385.11 831.26 385.63 C 823.35 385.44 815.45 385.74 807.55 385.50 C 806.75 380.01 807.38 374.45 807.03 368.94 C 807.40 350.10 806.61 331.23 807.45 312.41 M 833.76 343.39 C 831.49 353.12 827.92 362.55 826.18 372.40 C 826.77 372.38 827.95 372.34 828.54 372.33 C 831.29 362.79 833.84 353.20 836.43 343.63 C 835.53 343.54 834.64 343.46 833.76 343.39 M 820.71 349.69 C 818.03 352.28 815.09 354.67 813.02 357.79 C 815.96 360.58 818.97 363.30 821.90 366.10 C 822.17 365.59 822.69 364.57 822.96 364.06 C 821.55 361.50 819.01 359.79 816.98 357.75 C 818.90 355.28 821.29 353.23 823.37 350.89 C 822.85 350.19 821.64 348.36 820.71 349.69 M 839.09 351.00 C 841.16 353.24 843.32 355.40 845.48 357.57 C 843.32 359.60 841.10 361.58 839.21 363.87 C 839.60 364.41 840.38 365.51 840.77 366.06 C 843.40 362.94 846.99 360.65 849.13 357.14 C 846.39 354.43 843.65 351.72 840.95 348.98 C 840.48 349.49 839.55 350.50 839.09 351.00 Z" />
</g>
<g id="#fdfcfbff">
<path fill="#fdfcfb" opacity="1.00" d=" M 1107.90 312.84 C 1109.46 312.01 1111.29 312.34 1113.01 312.27 C 1121.79 312.45 1130.58 311.93 1139.36 312.43 C 1139.28 317.98 1139.39 323.53 1139.52 329.07 C 1139.40 330.58 1140.55 331.89 1141.86 332.49 C 1146.37 332.85 1150.92 332.74 1155.45 332.71 C 1156.70 335.68 1156.14 338.93 1156.02 342.04 C 1156.53 353.68 1156.11 365.35 1156.29 377.00 C 1156.37 379.86 1155.89 382.70 1155.48 385.53 C 1140.69 385.96 1125.89 385.43 1111.09 385.56 C 1109.34 385.85 1107.08 385.06 1107.41 382.93 C 1107.33 361.96 1107.39 340.98 1107.36 320.01 C 1107.49 317.63 1106.85 315.06 1107.90 312.84 M 1133.92 343.64 C 1133.21 347.47 1131.82 351.14 1131.16 354.99 C 1129.15 360.64 1127.85 366.52 1126.52 372.36 C 1127.14 372.31 1128.38 372.20 1129.00 372.15 C 1131.34 362.44 1134.61 352.97 1136.85 343.26 C 1135.86 343.37 1134.88 343.50 1133.92 343.64 M 1113.74 357.10 C 1115.52 360.74 1119.25 362.91 1121.97 365.83 C 1122.47 365.39 1123.48 364.50 1123.99 364.06 C 1121.95 361.98 1119.98 359.84 1117.79 357.94 C 1119.21 355.17 1121.83 353.35 1123.92 351.13 C 1123.43 350.63 1122.44 349.64 1121.94 349.15 C 1119.07 351.65 1116.59 354.57 1113.74 357.10 M 1139.22 350.92 C 1141.33 353.09 1143.44 355.27 1145.71 357.29 C 1143.75 359.73 1141.41 361.81 1139.23 364.04 C 1139.91 364.81 1140.99 366.60 1141.98 365.02 C 1144.25 362.41 1148.22 360.54 1148.94 357.01 C 1146.56 354.19 1143.90 351.56 1141.06 349.21 C 1140.60 349.64 1139.68 350.49 1139.22 350.92 Z" />
</g>
<g id="#fdfcfcff">
<path fill="#fdfcfc" opacity="1.00" d=" M 1400.49 313.55 C 1402.17 311.66 1404.77 312.37 1407.01 312.25 C 1415.49 312.42 1423.97 311.93 1432.44 312.40 C 1432.60 317.60 1432.44 322.81 1432.62 328.02 C 1432.47 329.83 1433.82 331.24 1434.81 332.62 C 1439.40 332.55 1444.00 332.80 1448.60 332.62 C 1449.07 333.69 1449.31 334.82 1449.32 336.01 C 1449.33 352.46 1449.42 368.91 1449.45 385.36 C 1443.95 387.16 1438.14 386.00 1432.49 386.43 L 1432.48 385.61 C 1421.90 385.42 1411.28 385.98 1400.73 385.27 C 1400.39 361.37 1400.86 337.45 1400.49 313.55 M 1427.62 343.32 C 1424.88 352.92 1422.13 362.52 1419.76 372.23 C 1421.20 372.62 1422.11 372.18 1422.52 370.93 C 1425.00 361.75 1428.01 352.70 1429.98 343.39 C 1429.39 343.37 1428.21 343.34 1427.62 343.32 M 1406.42 357.72 C 1409.36 360.42 1412.27 363.17 1415.16 365.94 C 1415.68 365.16 1417.56 363.94 1416.10 362.99 C 1414.51 361.19 1412.58 359.74 1411.04 357.91 C 1411.17 354.42 1418.47 352.85 1415.71 349.15 C 1412.10 351.25 1409.38 354.78 1406.42 357.72 M 1433.40 351.58 C 1435.02 353.73 1437.06 355.53 1439.06 357.35 C 1437.41 360.14 1431.54 362.24 1434.01 365.94 C 1437.13 363.20 1440.11 360.28 1442.79 357.10 C 1440.11 354.36 1437.27 351.79 1434.67 348.98 C 1434.03 349.60 1432.25 350.58 1433.40 351.58 Z" />
</g>
<g id="#f1eefcff">
<path fill="#f1eefc" opacity="1.00" d=" M 549.18 315.93 C 553.36 320.08 556.67 324.98 560.25 329.63 C 556.64 329.62 553.03 329.60 549.42 329.64 C 549.29 325.07 549.17 320.50 549.18 315.93 Z" />
</g>
<g id="#eef7f9ff">
<path fill="#eef7f9" opacity="1.00" d=" M 841.29 315.99 C 845.42 320.22 848.93 325.00 852.85 329.43 C 849.07 329.83 845.28 329.62 841.51 329.55 C 841.25 325.03 841.37 320.51 841.29 315.99 Z" />
</g>
<g id="#fdf5f4ff">
<path fill="#fdf5f4" opacity="1.00" d=" M 1434.96 315.83 C 1439.52 319.82 1442.64 325.12 1446.60 329.66 C 1442.84 329.71 1439.09 329.68 1435.34 329.68 C 1435.09 325.07 1435.16 320.44 1434.96 315.83 Z" />
</g>
<g id="#f4f7fdff">
<path fill="#f4f7fd" opacity="1.00" d=" M 251.63 315.83 C 255.80 320.00 258.91 325.07 262.79 329.49 C 259.07 329.65 255.34 329.59 251.62 329.53 C 251.49 324.97 251.42 320.39 251.63 315.83 Z" />
</g>
<g id="#fcf8f6ff">
<path fill="#fcf8f6" opacity="1.00" d=" M 1141.63 316.23 C 1143.23 316.41 1143.89 318.04 1144.87 319.10 C 1147.65 322.51 1150.35 325.99 1153.04 329.48 C 1149.26 329.66 1145.48 329.75 1141.72 329.44 C 1141.33 325.03 1142.60 320.58 1141.63 316.23 Z" />
</g>
<g id="#0042b9ff">
<path fill="#0042b9" opacity="1.00" d=" M 243.64 344.84 C 243.71 343.07 245.38 343.44 246.59 343.39 C 244.34 352.15 241.76 360.81 239.49 369.55 C 238.96 370.97 238.73 373.65 236.25 372.35 C 238.25 363.06 241.26 354.03 243.64 344.84 Z" />
</g>
<g id="#462a9cff">
<path fill="#462a9c" opacity="1.00" d=" M 541.58 343.23 C 542.15 343.28 543.29 343.36 543.86 343.41 C 541.67 353.18 538.51 362.70 536.27 372.47 C 535.57 372.27 534.17 371.89 533.48 371.70 C 536.65 362.36 538.91 352.73 541.58 343.23 Z" />
</g>
<g id="#036f7bff">
<path fill="#036f7b" opacity="1.00" d=" M 833.76 343.39 C 834.64 343.46 835.53 343.54 836.43 343.63 C 833.84 353.20 831.29 362.79 828.54 372.33 C 827.95 372.34 826.77 372.38 826.18 372.40 C 827.92 362.55 831.49 353.12 833.76 343.39 Z" />
<path fill="#036f7b" opacity="1.00" d=" M 820.71 349.69 C 821.64 348.36 822.85 350.19 823.37 350.89 C 821.29 353.23 818.90 355.28 816.98 357.75 C 819.01 359.79 821.55 361.50 822.96 364.06 C 822.69 364.57 822.17 365.59 821.90 366.10 C 818.97 363.30 815.96 360.58 813.02 357.79 C 815.09 354.67 818.03 352.28 820.71 349.69 Z" />
<path fill="#036f7b" opacity="1.00" d=" M 839.09 351.00 C 839.55 350.50 840.48 349.49 840.95 348.98 C 843.65 351.72 846.39 354.43 849.13 357.14 C 846.99 360.65 843.40 362.94 840.77 366.06 C 840.38 365.51 839.60 364.41 839.21 363.87 C 841.10 361.58 843.32 359.60 845.48 357.57 C 843.32 355.40 841.16 353.24 839.09 351.00 Z" />
</g>
<g id="#d06504ff">
<path fill="#d06504" opacity="1.00" d=" M 1133.92 343.64 C 1134.88 343.50 1135.86 343.37 1136.85 343.26 C 1134.61 352.97 1131.34 362.44 1129.00 372.15 C 1128.38 372.20 1127.14 372.31 1126.52 372.36 C 1127.85 366.52 1129.15 360.64 1131.16 354.99 C 1131.82 351.14 1133.21 347.47 1133.92 343.64 Z" />
</g>
<g id="#3e7eceff">
<path fill="#3e7ece" opacity="1.00" d=" M 265.69 349.82 C 266.23 349.51 267.32 348.88 267.86 348.57 C 268.56 359.35 267.94 370.19 268.21 381.00 C 268.39 383.78 267.88 387.71 264.74 388.58 C 259.12 388.84 253.46 388.86 247.83 388.65 C 248.64 388.18 249.45 387.70 250.25 387.21 C 240.87 385.89 231.38 386.42 221.95 386.43 C 220.48 386.48 219.05 386.12 217.75 385.47 C 233.60 385.17 249.45 385.74 265.30 385.42 C 266.09 373.58 265.37 361.68 265.69 349.82 Z" />
<path fill="#3e7ece" opacity="1.00" d=" M 142.16 736.43 C 207.41 736.14 272.67 736.42 337.92 736.33 C 337.90 736.62 337.86 737.22 337.84 737.52 C 272.95 737.40 208.05 737.58 143.17 737.45 C 142.92 737.20 142.42 736.69 142.16 736.43 Z" />
</g>
<g id="#4831a2ff">
<path fill="#4831a2" opacity="1.00" d=" M 520.88 357.09 C 523.71 354.58 526.08 351.58 529.02 349.19 C 530.15 349.28 530.70 349.90 530.67 351.04 C 529.43 353.73 525.65 355.00 525.10 357.90 C 526.94 360.04 529.08 361.90 531.01 363.97 C 530.53 364.44 529.57 365.38 529.09 365.85 C 526.48 362.81 522.78 360.69 520.88 357.09 Z" />
</g>
<g id="#513ba6ff">
<path fill="#513ba6" opacity="1.00" d=" M 547.39 351.56 C 546.56 350.65 547.45 348.96 548.69 349.31 C 551.61 351.76 554.23 354.57 556.83 357.36 C 554.38 360.66 551.21 363.32 548.16 366.04 C 547.84 365.52 547.21 364.48 546.90 363.97 C 548.87 361.87 550.83 359.76 552.96 357.81 C 551.15 355.67 549.06 353.79 547.39 351.56 Z" />
</g>
<g id="#d57215ff">
<path fill="#d57215" opacity="1.00" d=" M 1139.22 350.92 C 1139.68 350.49 1140.60 349.64 1141.06 349.21 C 1143.90 351.56 1146.56 354.19 1148.94 357.01 C 1148.22 360.54 1144.25 362.41 1141.98 365.02 C 1140.99 366.60 1139.91 364.81 1139.23 364.04 C 1141.41 361.81 1143.75 359.73 1145.71 357.29 C 1143.44 355.27 1141.33 353.09 1139.22 350.92 Z" />
</g>
<g id="#ca090eff">
<path fill="#ca090e" opacity="1.00" d=" M 1406.42 357.72 C 1409.38 354.78 1412.10 351.25 1415.71 349.15 C 1418.47 352.85 1411.17 354.42 1411.04 357.91 C 1412.58 359.74 1414.51 361.19 1416.10 362.99 C 1417.56 363.94 1415.68 365.16 1415.16 365.94 C 1412.27 363.17 1409.36 360.42 1406.42 357.72 Z" />
</g>
<g id="#42a1acff">
<path fill="#42a1ac" opacity="1.00" d=" M 831.26 385.63 C 839.36 385.11 847.47 386.03 855.57 385.37 C 856.08 385.37 857.09 385.38 857.60 385.39 C 856.82 386.77 856.04 388.92 854.04 388.61 C 848.29 388.54 842.53 389.15 836.80 388.65 C 838.08 388.14 839.33 387.57 840.61 387.02 C 837.45 386.83 834.30 386.50 831.26 385.63 Z" />
<path fill="#42a1ac" opacity="1.00" d=" M 733.88 736.27 C 793.25 736.04 852.62 736.18 911.99 736.14 C 917.33 736.18 922.67 736.10 928.02 736.30 C 927.79 737.41 927.12 737.85 926.00 737.62 C 862.15 737.60 798.30 737.73 734.46 737.51 C 734.32 737.20 734.02 736.58 733.88 736.27 Z" />
</g>
<g id="#050c29ff">
<path fill="#050c29" opacity="1.00" d=" M 407.54 488.44 C 413.28 491.04 419.01 493.68 424.83 496.13 C 419.43 499.55 413.24 501.51 407.54 504.39 C 407.42 502.14 407.41 499.89 407.49 497.66 C 407.50 496.81 407.51 495.96 407.52 495.12 C 407.52 492.89 407.51 490.66 407.54 488.44 Z" />
</g>
<g id="#030b2dff">
<path fill="#030b2d" opacity="1.00" d=" M 104.29 495.23 C 104.30 492.93 104.23 490.62 104.58 488.34 C 109.99 491.22 115.64 493.63 121.28 496.03 C 120.98 496.33 120.40 496.91 120.11 497.21 C 114.83 499.51 109.66 502.09 104.26 504.11 C 104.24 501.96 104.24 499.81 104.27 497.67 C 104.28 497.06 104.29 495.84 104.29 495.23 Z" />
</g>
<g id="#050a24ff">
<path fill="#050a24" opacity="1.00" d=" M 697.35 495.15 C 697.30 492.90 697.31 490.65 697.59 488.43 C 703.23 491.33 709.26 493.46 714.79 496.57 C 708.93 499.09 703.18 501.84 697.30 504.30 C 697.31 502.09 697.31 499.88 697.30 497.68 C 683.28 497.42 669.26 497.78 655.25 497.52 C 655.24 496.96 655.23 495.86 655.23 495.30 C 669.27 494.98 683.31 495.32 697.35 495.15 Z" />
</g>
<g id="#040b29ff">
<path fill="#040b29" opacity="1.00" d=" M 998.18 488.61 C 1003.97 490.79 1009.48 493.67 1015.18 496.09 C 1010.23 499.85 1003.81 501.35 998.37 504.40 C 998.14 502.13 998.11 499.86 998.18 497.60 C 998.18 496.99 998.20 495.79 998.20 495.19 C 998.21 492.99 998.19 490.80 998.18 488.61 Z" />
</g>
<g id="#040c2eff">
<path fill="#040c2e" opacity="1.00" d=" M 1294.50 495.14 C 1294.48 492.89 1294.49 490.64 1294.61 488.40 C 1300.27 491.07 1305.91 493.80 1311.73 496.13 C 1306.38 499.52 1300.25 501.70 1294.43 504.23 C 1294.43 502.02 1294.43 499.82 1294.47 497.62 C 1294.46 496.78 1294.48 495.96 1294.50 495.14 Z" />
</g>
<g id="#030c2eff">
<path fill="#030c2e" opacity="1.00" d=" M 1634.68 488.35 C 1640.64 490.75 1646.26 493.91 1652.26 496.20 C 1646.62 499.38 1640.48 501.57 1634.64 504.34 C 1634.60 502.08 1634.61 499.82 1634.63 497.57 C 1634.63 496.98 1634.63 495.80 1634.63 495.21 C 1634.60 492.92 1634.62 490.63 1634.68 488.35 Z" />
</g>
<g id="#060619ff">
<path fill="#060619" opacity="1.00" d=" M 22.10 495.26 C 49.50 495.18 76.90 495.17 104.29 495.23 C 104.29 495.84 104.28 497.06 104.27 497.67 C 76.90 497.47 49.53 497.61 22.15 497.60 C 22.14 497.01 22.11 495.85 22.10 495.26 Z" />
</g>
<g id="#050417ff">
<path fill="#050417" opacity="1.00" d=" M 361.05 495.26 C 376.54 495.07 392.03 495.33 407.52 495.12 C 407.51 495.96 407.50 496.81 407.49 497.66 C 392.03 497.49 376.58 497.65 361.13 497.58 C 361.11 497.00 361.07 495.84 361.05 495.26 Z" />
</g>
<g id="#070719ff">
<path fill="#070719" opacity="1.00" d=" M 949.81 495.27 C 965.94 495.09 982.07 495.30 998.20 495.19 C 998.20 495.79 998.18 496.99 998.18 497.60 C 981.90 497.54 965.63 497.62 949.36 497.56 C 949.48 496.99 949.70 495.84 949.81 495.27 Z" />
</g>
<g id="#07071cff">
<path fill="#07071c" opacity="1.00" d=" M 1246.41 495.23 C 1262.44 495.02 1278.47 495.43 1294.50 495.14 C 1294.48 495.96 1294.46 496.78 1294.47 497.62 C 1278.44 497.46 1262.41 497.66 1246.38 497.57 C 1246.39 496.99 1246.40 495.82 1246.41 495.23 Z" />
</g>
<g id="#060518ff">
<path fill="#060518" opacity="1.00" d=" M 1537.39 495.17 C 1569.80 495.27 1602.21 495.16 1634.63 495.21 C 1634.63 495.80 1634.63 496.98 1634.63 497.57 C 1602.16 497.53 1569.70 497.69 1537.24 497.51 C 1537.27 496.93 1537.35 495.75 1537.39 495.17 Z" />
</g>
<g id="#679dddff">
<path fill="#679ddd" opacity="1.00" d=" M 142.71 515.98 C 207.93 515.70 273.16 515.87 338.38 515.88 L 338.51 517.27 C 273.29 517.43 208.07 517.44 142.84 517.26 L 142.71 515.98 Z" />
</g>
<g id="#9385caff">
<path fill="#9385ca" opacity="1.00" d=" M 442.81 515.97 C 506.73 515.73 570.65 515.93 634.57 515.88 L 634.53 517.34 C 570.79 517.29 507.03 517.59 443.30 517.25 L 442.81 515.97 Z" />
</g>
<g id="#52a6abff">
<path fill="#52a6ab" opacity="1.00" d=" M 733.51 515.90 C 785.01 515.79 836.52 515.87 888.02 515.85 C 901.37 515.98 914.73 515.60 928.08 516.01 C 927.87 516.33 927.44 516.95 927.22 517.27 C 864.15 517.45 801.06 517.24 737.98 517.38 C 736.48 517.03 733.80 518.20 733.51 515.90 Z" />
</g>
<g id="#ec9c47ff">
<path fill="#ec9c47" opacity="1.00" d=" M 1036.68 515.89 C 1099.84 515.91 1163.00 515.74 1226.16 515.94 L 1225.62 517.08 C 1218.44 517.68 1211.18 517.25 1203.98 517.36 C 1148.21 517.42 1092.43 517.30 1036.66 517.39 L 1036.68 515.89 Z" />
</g>
<g id="#e04749ff">
<path fill="#e04749" opacity="1.00" d=" M 1331.40 515.91 C 1393.01 515.81 1454.62 515.90 1516.23 515.90 L 1516.11 517.32 C 1454.54 517.46 1392.97 517.28 1331.39 517.41 L 1331.40 515.91 Z" />
</g>
<g id="#aba0d7ff">
<path fill="#aba0d7" opacity="1.00" d=" M 442.82 736.04 C 505.54 735.94 568.26 736.05 630.98 735.98 C 632.41 736.13 634.96 735.47 634.89 737.69 C 571.02 738.08 507.13 737.76 443.25 737.78 C 443.15 737.34 442.93 736.47 442.82 736.04 Z" />
</g>
<g id="#f0b26fff">
<path fill="#f0b26f" opacity="1.00" d=" M 1036.50 736.00 C 1099.71 736.04 1162.93 735.92 1226.15 736.06 C 1226.03 736.47 1225.78 737.28 1225.66 737.68 C 1162.68 738.08 1099.69 737.62 1036.71 737.87 C 1036.65 737.41 1036.55 736.47 1036.50 736.00 Z" />
</g>

<g id="Editable_Text_Times_New_Roman">
  <desc>Editable text layer added with Times New Roman. Each line is an individual SVG text object for Adobe Illustrator editing.</desc>
  <text x="836.0" y="68.0" text-anchor="middle" font-family="Times New Roman, Times, serif" font-size="48" font-weight="bold" font-style="normal" fill="#050a1b" xml:space="preserve" >Linear privacy Data Pipeline Execution Diagram</text>
  <text x="836.0" y="121.0" text-anchor="middle" font-family="Times New Roman, Times, serif" font-size="32" font-weight="normal" font-style="italic" fill="#050a1b" xml:space="preserve" >minimal reproducible sequence</text>
  <text x="537.0" y="174.0" text-anchor="middle" font-family="Times New Roman, Times, serif" font-size="23" font-weight="bold" font-style="normal" fill="#050a1b" xml:space="preserve" >raw records</text>
  <text x="50.0" y="471.0" text-anchor="middle" font-family="Times New Roman, Times, serif" font-size="20" font-weight="normal" font-style="normal" fill="#050a1b" xml:space="preserve" >data</text>
  <text x="392.0" y="471.0" text-anchor="middle" font-family="Times New Roman, Times, serif" font-size="20" font-weight="normal" font-style="normal" fill="#050a1b" xml:space="preserve" >specs</text>
  <text x="682.0" y="471.0" text-anchor="middle" font-family="Times New Roman, Times, serif" font-size="20" font-weight="normal" font-style="normal" fill="#050a1b" xml:space="preserve" >data</text>
  <text x="981.0" y="471.0" text-anchor="middle" font-family="Times New Roman, Times, serif" font-size="20" font-weight="normal" font-style="normal" fill="#050a1b" xml:space="preserve" >ops</text>
  <text x="1278.0" y="471.0" text-anchor="middle" font-family="Times New Roman, Times, serif" font-size="20" font-weight="normal" font-style="normal" fill="#050a1b" xml:space="preserve" >metrics</text>
  <text x="1583.0" y="471.0" text-anchor="middle" font-family="Times New Roman, Times, serif" font-size="20" font-weight="normal" font-style="normal" fill="#050a1b" xml:space="preserve" >validation</text>
  <text x="242.0" y="290.0" text-anchor="middle" font-family="Times New Roman, Times, serif" font-size="25" font-weight="bold" font-style="normal" fill="#034db8" xml:space="preserve" >Step 1</text>
  <text x="242.0" y="431.0" text-anchor="middle" font-family="Times New Roman, Times, serif" font-size="23" font-weight="bold" font-style="normal" fill="#034db8" xml:space="preserve" >Build Privacy Specs</text>
  <text x="242.0" y="477.0" text-anchor="middle" font-family="Times New Roman, Times, serif" font-size="18" font-weight="normal" font-style="normal" fill="#034db8" xml:space="preserve" >build_privacy_specs.py</text>
  <text x="242.0" y="554.0" text-anchor="middle" font-family="Times New Roman, Times, serif" font-size="23" font-weight="bold" font-style="normal" fill="#034db8" xml:space="preserve" >Outputs</text>
  <text x="242.0" y="598.0" text-anchor="middle" font-family="Times New Roman, Times, serif" font-size="21" font-weight="normal" font-style="normal" fill="#050a1b" xml:space="preserve" >compliance_scope</text>
  <text x="242.0" y="628.0" text-anchor="middle" font-family="Times New Roman, Times, serif" font-size="21" font-weight="normal" font-style="normal" fill="#050a1b" xml:space="preserve" >classification_policy</text>
  <text x="242.0" y="658.0" text-anchor="middle" font-family="Times New Roman, Times, serif" font-size="21" font-weight="normal" font-style="normal" fill="#050a1b" xml:space="preserve" >access_policy</text>
  <text x="242.0" y="688.0" text-anchor="middle" font-family="Times New Roman, Times, serif" font-size="21" font-weight="normal" font-style="normal" fill="#050a1b" xml:space="preserve" >privacy_tech_options</text>
  <text x="242.0" y="775.0" text-anchor="middle" font-family="Times New Roman, Times, serif" font-size="21" font-weight="normal" font-style="italic" fill="#034db8" xml:space="preserve" >‘define rules’</text>
  <text x="539.0" y="290.0" text-anchor="middle" font-family="Times New Roman, Times, serif" font-size="25" font-weight="bold" font-style="normal" fill="#472d9a" xml:space="preserve" >Step 2</text>
  <text x="539.0" y="431.0" text-anchor="middle" font-family="Times New Roman, Times, serif" font-size="23" font-weight="bold" font-style="normal" fill="#472d9a" xml:space="preserve" >Run Privacy Pipeline</text>
  <text x="539.0" y="477.0" text-anchor="middle" font-family="Times New Roman, Times, serif" font-size="18" font-weight="normal" font-style="normal" fill="#472d9a" xml:space="preserve" >run_privacy_pipeline.py</text>
  <text x="539.0" y="554.0" text-anchor="middle" font-family="Times New Roman, Times, serif" font-size="23" font-weight="bold" font-style="normal" fill="#472d9a" xml:space="preserve" >Outputs</text>
  <text x="539.0" y="598.0" text-anchor="middle" font-family="Times New Roman, Times, serif" font-size="21" font-weight="normal" font-style="normal" fill="#050a1b" xml:space="preserve" >classified records</text>
  <text x="539.0" y="628.0" text-anchor="middle" font-family="Times New Roman, Times, serif" font-size="21" font-weight="normal" font-style="normal" fill="#050a1b" xml:space="preserve" >pii detections</text>
  <text x="539.0" y="658.0" text-anchor="middle" font-family="Times New Roman, Times, serif" font-size="21" font-weight="normal" font-style="normal" fill="#050a1b" xml:space="preserve" >redacted records</text>
  <text x="539.0" y="775.0" text-anchor="middle" font-family="Times New Roman, Times, serif" font-size="21" font-weight="normal" font-style="italic" fill="#472d9a" xml:space="preserve" >‘process data’</text>
  <text x="832.0" y="290.0" text-anchor="middle" font-family="Times New Roman, Times, serif" font-size="25" font-weight="bold" font-style="normal" fill="#006773" xml:space="preserve" >Step 3</text>
  <text x="832.0" y="424.0" text-anchor="middle" font-family="Times New Roman, Times, serif" font-size="24" font-weight="bold" font-style="normal" fill="#006773" xml:space="preserve" >Simulate Privacy</text>
  <text x="832.0" y="453.0" text-anchor="middle" font-family="Times New Roman, Times, serif" font-size="24" font-weight="bold" font-style="normal" fill="#006773" xml:space="preserve" >Operations</text>
  <text x="832.0" y="481.0" text-anchor="middle" font-family="Times New Roman, Times, serif" font-size="18" font-weight="normal" font-style="normal" fill="#006773" xml:space="preserve" >simulate_privacy_ops.py</text>
  <text x="832.0" y="554.0" text-anchor="middle" font-family="Times New Roman, Times, serif" font-size="23" font-weight="bold" font-style="normal" fill="#006773" xml:space="preserve" >Outputs</text>
  <text x="832.0" y="598.0" text-anchor="middle" font-family="Times New Roman, Times, serif" font-size="21" font-weight="normal" font-style="normal" fill="#050a1b" xml:space="preserve" >alerts</text>
  <text x="832.0" y="628.0" text-anchor="middle" font-family="Times New Roman, Times, serif" font-size="21" font-weight="normal" font-style="normal" fill="#050a1b" xml:space="preserve" >audit logs</text>
  <text x="832.0" y="658.0" text-anchor="middle" font-family="Times New Roman, Times, serif" font-size="21" font-weight="normal" font-style="normal" fill="#050a1b" xml:space="preserve" >incident reports</text>
  <text x="832.0" y="688.0" text-anchor="middle" font-family="Times New Roman, Times, serif" font-size="21" font-weight="normal" font-style="normal" fill="#050a1b" xml:space="preserve" >postmortem</text>
  <text x="832.0" y="775.0" text-anchor="middle" font-family="Times New Roman, Times, serif" font-size="21" font-weight="normal" font-style="italic" fill="#006773" xml:space="preserve" >‘simulate operations’</text>
  <text x="1132.0" y="290.0" text-anchor="middle" font-family="Times New Roman, Times, serif" font-size="25" font-weight="bold" font-style="normal" fill="#d46d0b" xml:space="preserve" >Step 4</text>
  <text x="1132.0" y="431.0" text-anchor="middle" font-family="Times New Roman, Times, serif" font-size="23" font-weight="bold" font-style="normal" fill="#d46d0b" xml:space="preserve" >Evaluate Pipeline</text>
  <text x="1132.0" y="477.0" text-anchor="middle" font-family="Times New Roman, Times, serif" font-size="17" font-weight="normal" font-style="normal" fill="#d46d0b" xml:space="preserve" >evaluate_privacy_pipeline.py</text>
  <text x="1132.0" y="554.0" text-anchor="middle" font-family="Times New Roman, Times, serif" font-size="23" font-weight="bold" font-style="normal" fill="#d46d0b" xml:space="preserve" >Outputs</text>
  <text x="1132.0" y="602.0" text-anchor="middle" font-family="Times New Roman, Times, serif" font-size="22" font-weight="normal" font-style="normal" fill="#050a1b" xml:space="preserve" >metrics</text>
  <text x="1132.0" y="632.0" text-anchor="middle" font-family="Times New Roman, Times, serif" font-size="22" font-weight="normal" font-style="normal" fill="#050a1b" xml:space="preserve" >distributions</text>
  <text x="1132.0" y="662.0" text-anchor="middle" font-family="Times New Roman, Times, serif" font-size="22" font-weight="normal" font-style="normal" fill="#050a1b" xml:space="preserve" >success rates</text>
  <text x="1132.0" y="775.0" text-anchor="middle" font-family="Times New Roman, Times, serif" font-size="21" font-weight="normal" font-style="italic" fill="#d46d0b" xml:space="preserve" >‘evaluate metrics’</text>
  <text x="1424.0" y="290.0" text-anchor="middle" font-family="Times New Roman, Times, serif" font-size="25" font-weight="bold" font-style="normal" fill="#d00706" xml:space="preserve" >Step 5</text>
  <text x="1424.0" y="431.0" text-anchor="middle" font-family="Times New Roman, Times, serif" font-size="23" font-weight="bold" font-style="normal" fill="#d00706" xml:space="preserve" >Run Checks</text>
  <text x="1424.0" y="477.0" text-anchor="middle" font-family="Times New Roman, Times, serif" font-size="18" font-weight="normal" font-style="normal" fill="#d00706" xml:space="preserve" >run_p9_checks.py</text>
  <text x="1424.0" y="554.0" text-anchor="middle" font-family="Times New Roman, Times, serif" font-size="23" font-weight="bold" font-style="normal" fill="#d00706" xml:space="preserve" >Outputs</text>
  <text x="1424.0" y="603.0" text-anchor="middle" font-family="Times New Roman, Times, serif" font-size="22" font-weight="normal" font-style="normal" fill="#050a1b" xml:space="preserve" >validation results</text>
  <text x="1424.0" y="634.0" text-anchor="middle" font-family="Times New Roman, Times, serif" font-size="22" font-weight="normal" font-style="normal" fill="#050a1b" xml:space="preserve" >PASS / FAIL</text>
  <text x="1424.0" y="775.0" text-anchor="middle" font-family="Times New Roman, Times, serif" font-size="21" font-weight="normal" font-style="italic" fill="#d00706" xml:space="preserve" >‘validate outputs’</text>
</g>

</svg>
