<?xml version="1.0" encoding="UTF-8"?>
<svg id="_图层_1" data-name="图层_1" xmlns="http://www.w3.org/2000/svg" version="1.1" viewBox="0 0 1672 941">
  <!-- Generator: Adobe Illustrator 29.6.0, SVG Export Plug-In . SVG Version: 2.1.1 Build 207)  -->
  <defs>
    <style>
      .st0 {
        fill: #1a55b2;
      }

      .st1 {
        fill: #007eb0;
      }

      .st2 {
        fill: #0c53ce;
      }

      .st3 {
        fill: #0184aa;
      }

      .st4 {
        fill: #f8f6fd;
      }

      .st5 {
        fill: #4a2dda;
      }

      .st6 {
        fill: #066f94;
      }

      .st7 {
        fill: #052a71;
      }

      .st8 {
        font-size: 27px;
      }

      .st8, .st9, .st10, .st11, .st12, .st13, .st14, .st15 {
        isolation: isolate;
      }

      .st8, .st14 {
        fill: #07122f;
        font-family: TimesNewRomanPSMT, 'Times New Roman';
      }

      .st16 {
        fill: #0a52d2;
      }

      .st17 {
        fill: #00299e;
      }

      .st18 {
        fill: #06286d;
      }

      .st19 {
        fill: #0b56c1;
      }

      .st20 {
        fill: #f8f8fc;
      }

      .st21 {
        fill: #0b8db5;
      }

      .st22 {
        fill: #4b31da;
      }

      .st23 {
        fill: #0b2b6e;
      }

      .st24 {
        fill: #3d1692;
      }

      .st9 {
        fill: #123f92;
      }

      .st9, .st10, .st11, .st12, .st13, .st15 {
        font-family: TimesNewRomanPS-BoldMT, 'Times New Roman';
        font-weight: 700;
      }

      .st9, .st12, .st13 {
        font-size: 35px;
      }

      .st25 {
        fill: #c1d5f6;
      }

      .st26 {
        fill: #562fa5;
      }

      .st27 {
        fill: #4e36d9;
      }

      .st28 {
        fill: #f2f9fd;
      }

      .st29 {
        fill: #125cd1;
      }

      .st30 {
        fill: #063a94;
      }

      .st31 {
        fill: #0051cd;
      }

      .st32 {
        fill: #232692;
      }

      .st33 {
        fill: #0581a7;
      }

      .st34 {
        fill: #0a3790;
      }

      .st35 {
        fill: #0e3890;
      }

      .st10 {
        fill: #06178a;
        font-size: 40px;
      }

      .st36 {
        fill: #563fdb;
      }

      .st37 {
        fill: #016b91;
      }

      .st38 {
        fill: #033890;
      }

      .st39 {
        fill: #36148c;
      }

      .st40 {
        fill: #2d91b6;
      }

      .st41 {
        fill: #0a46b5;
      }

      .st42 {
        fill: #105bcf;
      }

      .st43 {
        fill: #f2fafe;
      }

      .st44 {
        fill: #0081b3;
      }

      .st45 {
        fill: #622db9;
      }

      .st46 {
        fill: #fff;
      }

      .st47 {
        fill: #1154cf;
      }

      .st48 {
        fill: #1a5ec8;
      }

      .st49 {
        fill: #f7f3fd;
      }

      .st50 {
        fill: #0c57d0;
      }

      .st51 {
        fill: #056e96;
      }

      .st52 {
        fill: #f5f8fd;
      }

      .st53 {
        fill: #1c67d1;
      }

      .st54 {
        fill: #0e56ca;
      }

      .st55 {
        fill: #052a74;
      }

      .st56 {
        fill: #452edb;
      }

      .st57 {
        fill: #1088ac;
      }

      .st58 {
        fill: #0753bf;
      }

      .st59 {
        fill: #fcfbfd;
      }

      .st60 {
        fill: #6333b9;
      }

      .st61 {
        fill: #612cb5;
      }

      .st62 {
        fill: #5e25be;
      }

      .st63 {
        fill: #0754cd;
      }

      .st11 {
        fill: #153b90;
        font-size: 44px;
      }

      .st64 {
        fill: #007ba9;
      }

      .st65 {
        fill: #007199;
      }

      .st66 {
        fill: #f8f4fd;
      }

      .st67 {
        fill: #5328b4;
      }

      .st68 {
        fill: #542bc2;
      }

      .st69 {
        fill: #6343d4;
      }

      .st70 {
        fill: #6246b7;
      }

      .st71 {
        fill: #3e1194;
      }

      .st72 {
        fill: #0443ad;
      }

      .st73 {
        fill: #042972;
      }

      .st74 {
        fill: #072f83;
      }

      .st75 {
        fill: #e9f3fd;
      }

      .st76 {
        fill: #3f149a;
      }

      .st77 {
        fill: #7b62eb;
      }

      .st78 {
        fill: #4f3add;
      }

      .st79 {
        fill: #0547cf;
      }

      .st80 {
        fill: #0a86ae;
      }

      .st81 {
        fill: #5d3eb6;
      }

      .st82 {
        fill: #f8f7fd;
      }

      .st83 {
        fill: #f8f6fc;
      }

      .st84 {
        fill: #6631bb;
      }

      .st85 {
        fill: #4f35e0;
      }

      .st86 {
        fill: #0075a2;
      }

      .st87 {
        fill: #6445b8;
      }

      .st88 {
        fill: #5c32ba;
      }

      .st89 {
        fill: #622abb;
      }

      .st90 {
        fill: #003bac;
      }

      .st91 {
        fill: #5e27b9;
      }

      .st92 {
        fill: #5b36c3;
      }

      .st93 {
        fill: #5922b3;
      }

      .st94 {
        fill: #5e4ad0;
      }

      .st95 {
        fill: #4c22cf;
      }

      .st96 {
        fill: #eff6fd;
      }

      .st97 {
        fill: #3b129b;
      }

      .st98 {
        fill: #5a1fb5;
      }

      .st99 {
        fill: #4930d8;
      }

      .st100 {
        fill: #0e5bd5;
      }

      .st101 {
        fill: #053486;
      }

      .st102 {
        fill: #542cb3;
      }

      .st103 {
        fill: #5929bf;
      }

      .st104 {
        fill: #02256e;
      }

      .st105 {
        fill: #067ba2;
      }

      .st106 {
        fill: #f8f5fd;
      }

      .st107 {
        fill: #522ab5;
      }

      .st108 {
        fill: #07799c;
      }

      .st109 {
        fill: #0f2f82;
      }

      .st12 {
        fill: #00627f;
      }

      .st110 {
        fill: #533edc;
      }

      .st111 {
        fill: #0783ac;
      }

      .st112 {
        fill: #0e57cc;
      }

      .st113 {
        fill: #06328d;
      }

      .st114 {
        fill: #5861c4;
      }

      .st115 {
        fill: #0352cd;
      }

      .st116 {
        fill: #ebf7fc;
      }

      .st117 {
        fill: #f1fafd;
      }

      .st118 {
        fill: #391990;
      }

      .st119 {
        fill: #4f2aae;
      }

      .st120 {
        fill: #533ae0;
      }

      .st121 {
        fill: #644cd4;
      }

      .st122 {
        fill: #533dd8;
      }

      .st123 {
        fill: #5638e0;
      }

      .st124 {
        fill: #0d4dc7;
      }

      .st125 {
        fill: #0074a4;
      }

      .st126 {
        fill: #0c3184;
      }

      .st127 {
        fill: #052870;
      }

      .st128 {
        fill: #0080ac;
      }

      .st129 {
        fill: #103a96;
      }

      .st130 {
        fill: #0b4ab5;
      }

      .st131 {
        fill: #5135d4;
      }

      .st13 {
        fill: #38158d;
      }

      .st132 {
        fill: #3e1fa0;
      }

      .st133 {
        fill: #6937ba;
      }

      .st14 {
        font-size: 25px;
      }

      .st134 {
        fill: #0a89a8;
      }

      .st135 {
        fill: #027aa3;
      }

      .st136 {
        fill: #143e99;
      }

      .st137 {
        fill: #5a24b5;
      }

      .st138 {
        fill: #4f27ad;
      }

      .st139 {
        fill: #366ad1;
      }

      .st140 {
        fill: #5a40dd;
      }

      .st141 {
        fill: #0e5bd0;
      }

      .st142 {
        fill: #4f26aa;
      }

      .st143 {
        fill: #003eb3;
      }

      .st144 {
        fill: #094fc2;
      }

      .st145 {
        fill: #43369a;
      }

      .st146 {
        fill: #5927b0;
      }

      .st147 {
        fill: #0d4ccd;
      }

      .st148 {
        fill: #f1f7fd;
      }

      .st149 {
        fill: #fcfdfe;
      }

      .st150 {
        fill: #4e3bd7;
      }

      .st151 {
        fill: #5837af;
      }

      .st152 {
        fill: #5024a6;
      }

      .st153 {
        fill: #0a4bc1;
      }

      .st154 {
        fill: #0486af;
      }

      .st155 {
        fill: #e8f4fd;
      }

      .st156 {
        fill: #5b25b5;
      }

      .st157 {
        fill: #0a89b1;
      }

      .st158 {
        fill: #5c35b4;
      }

      .st159 {
        fill: #0a2f94;
      }

      .st160 {
        fill: #0a7fa6;
      }

      .st161 {
        fill: #0076a2;
      }

      .st162 {
        fill: #f0f7fe;
      }

      .st163 {
        fill: #634ee5;
      }

      .st15 {
        fill: #5e2cc6;
        font-size: 31px;
      }
    </style>
  </defs>
  <g id="_x23_fcfdfeff">
    <path class="st149" d="M0,0h1672v941H0V0M37.55,30.55c-5.52,4.4-8.83,11.42-8.78,18.47.17,76.19-.12,152.39.17,228.58.19,4.18,1.01,8.47,3.5,11.94,4,6.07,11.38,9.25,18.52,9.07,58.47-.11,116.95.05,175.42-.07-.2,3.3-.21,6.6-.2,9.91.75,0,2.25.04,3,.05,0-3.31,0-6.61,0-9.91,63.61-.04,127.21,0,190.82-.01,6.16,0,12.6-2.15,16.68-6.95,4.39-5.1,5.49-12.14,5.43-18.66-.11-7.78.15-15.57-.17-23.34.39-6.21.03-12.43.15-18.64-.12-22.25.24-44.51-.17-66.75,31.03-.14,62.07.03,93.11-.09,6.34-.3,11.31,5.84,11.22,11.9-.06,28.98-.02,57.96-.01,86.94-.07,3.13.4,6.37-.64,9.39-3.7-.16-7.4-.08-11.1-.06,4.96,7.5,9.62,15.19,14.39,22.82,12.88,0,25.76-.16,38.65.05-1.4,5.82-.66,11.86-.84,17.79.04,59.67.12,119.35.04,179.02.09,3.21-.41,6.52.63,9.63-12.77.25-25.54.16-38.3.17-4.64,7.63-9.61,15.05-14.13,22.75,3.77.02,7.55,0,11.34.02-.17,12.81.02,25.62-.08,38.43-.13,3.03-.23,6.11-.89,9.09-1.4,4.76-6.42,7.71-11.24,7.45-30.74,0-61.47.07-92.2.02.45-29.19-.07-58.37.26-87.55.22-9.34-3.65-19.59-12.32-24.1-5.69-3.36-12.46-2.58-18.77-2.63-117.99-.02-235.97.01-353.96,0-4.78.06-9.78-.47-14.3,1.43-8.17,3.12-13.85,11.57-14.01,20.27.03,68.04.03,136.07.05,204.1.15,5.59,1.47,11.5,5.33,15.75,4.25,4.6,10.62,7.01,16.85,6.82,44.63-.16,89.27.22,133.89-.2.17,1.72.21,3.47.37,5.21.63.01,1.9.01,2.53.01.28-1.77.54-3.53.85-5.27,11.69.61,23.41.02,35.12.24.96.04,2.87.12,3.82.16-1.66,3.45-1.43,7.32-1.28,11.05h2.62c.55-3.76.02-7.52-.61-11.22,63.56.05,127.13-.05,190.69,0,6.19.09,12.66-1.98,16.89-6.66,4.11-4.22,5.8-10.18,6.13-15.93-.21-21.33-.19-42.68.03-64.01-.48-13.81.14-27.64-.12-41.44,28.36-.23,56.73-.01,85.09-.11,5.24-.16,10.84.9,15.71-1.62,6.03-2.78,9.59-9.42,9.48-15.94-.02-14.47.08-28.95-.03-43.42,3.8.02,7.6.06,11.41-.1-3.87-5.64-7.21-11.61-11.08-17.25,11.79.09,23.59-.17,35.38.09-.15,1.44-.19,2.96.43,4.32-.11.38-.32,1.13-.43,1.5,1.34,10.62,12.16,17.27,22.13,17.78,63.33-.08,126.67-.04,190-.04,11.04.26,22.11-.63,33.14.41-.09,62.62-.01,125.24-.05,187.86-4.14.21-8.27.21-12.39.26,5.03,8.28,10.17,16.51,15.3,24.74,5.12-8.21,10.28-16.39,15.21-24.72-4.05-.08-8.09-.05-12.12-.23.04-62.78-.05-125.55.04-188.32,71.64-.04,143.28.06,214.92.01,5.4-.13,11.09.67,16.23-1.47,4.78-1.8,9.42-4.67,11.91-9.3,1.56-2.82,4.05-6.25,2.27-9.52.19-1.08.36-2.17.5-3.25,11.73-.2,23.46-.16,35.2-.04-3.67,5.73-7.03,11.68-10.99,17.22,3.77.14,7.55.16,11.34.1.08,11.13.03,22.27.05,33.4.11,7.12-1.06,14.88,3.27,21.11l.15-.06c1.85,2.19,4.08,4.13,6.81,5.15,4.8,2.1,10.13,1.24,15.21,1.38,28.27.03,56.54-.03,84.8.02.1,35.73-.16,71.48.16,107.2.43,5.23,2.25,10.5,5.98,14.3,4.04,4.42,10.19,6.32,16.04,6.5,53.01-.04,106.02.06,159.04-.01,10.17-.2,20.39.51,30.54-.4-.16,3.94-1.24,7.94.14,11.81,3.76-2.25,1.48-7.5,1.44-11.07.52-.14,1.56-.41,2.08-.54,8.8.56,17.64.12,26.47.16.03,3.03-.18,6.06.08,9.09.63.23,1.88.68,2.51.91-.1-3.34-.09-6.67.21-9.99,48.17.13,96.34.01,144.52.05,4.79.13,9.76-.9,13.7-3.78,5.23-3.4,8.23-9.26,9.68-15.18.61-10.16.04-20.36.24-30.53-.03-56.69.06-113.37.06-170.05-.08-3.08.42-6.31-.87-9.2-1.85-10.3-11.02-19.55-21.85-19.5-113.67-.02-227.34,0-341.01,0-10.36.22-20.76-.41-31.1.34-9.52,2.38-17.63,10.79-17.72,20.92-.79,1.18-.24,2.95-.41,4.36-.02,29.56.07,59.12.04,88.68-31.22-.18-62.44.04-93.65-.1-2.68-.05-5.03-1.45-7.22-2.84-2.14-2.76-3.54-6.12-3.37-9.65-.01-14.16.05-28.31.02-42.47,3.82-.09,7.63-.1,11.46-.1-4.68-7.57-9.56-15-14.11-22.63-12.82-.17-25.64,0-38.45-.05.21-42.27.02-84.55.11-126.83-.08-26.62.34-53.26-.21-79.87,12.86.08,25.71,0,38.57.04,4.66-7.67,9.59-15.16,14.27-22.81-3.86-.05-7.72,0-11.58-.02-.17-32.1-.02-64.2-.07-96.3-.33-6.26,5.09-12.28,11.51-11.82,30.9.1,61.81-.06,92.72.09.12,36.25.05,72.5-.09,108.75-.2,5.29,1.51,10.37,3.13,15.33,3.07,6.61,10.35,9.66,17.28,9.99,122.96.04,245.92.02,368.89.04,5.04-.1,10.44-.57,14.68-3.59,5.5-3.62,8.3-10.2,8.8-16.59.52-20.02.01-40.11.19-60.16.02-56.01.01-112.02.01-168.02.04-3.69-1.14-7.28-2.95-10.45-3.17-7.91-11.2-13.68-19.75-13.96-122.66-.03-245.32-.04-367.98.02-6.07.3-12.43,2.15-16.72,6.66-4.81,4.88-6.02,12.17-5.73,18.77-.06,23.65.07,47.3-.07,70.96.66,12.05.25,24.14.29,36.21-30.94-.16-61.88-.09-92.82-.05-6.6-.19-13.37,3.65-15.9,9.87-1.94,4.4-1.43,9.29-1.49,13.96.09,30.1.08,60.2-.02,90.3-3.78-.06-7.56-.1-11.32.1,3.85,5.72,7.39,11.64,11.25,17.35-12.11.11-24.24-.34-36.33.25-1.81-2.26-3.19-4.84-5.07-7.03-4.4-5.21-11.27-7.76-17.98-7.79-71.67-.19-143.36.18-215.03-.19-16.04.58-32.08-.39-48.11.13-56,.08-112-.06-167.98-.04-9.06.63-18.43-1.23-27.23,1.62-6.34,1.86-11.21,7.09-13.74,13.05-12.16-.15-24.32.01-36.48,0,3.68-5.77,7.3-11.57,10.86-17.41-3.67-.06-7.35-.09-11.02-.06-.33-28.43-.08-56.88-.13-85.32-.12-5.67.52-11.45-.91-17-1.25-4.81-5.1-8.61-9.55-10.58-3.71-1.71-7.87-1.2-11.82-1.26-29.34.04-58.68,0-88.02.02.36-17.37.08-34.76.2-52.14-.18-20.66.31-41.33-.22-61.98l-.36.19c-.53-5.23-3.19-10.23-7.33-13.48-5.28-4.45-12.54-5.36-19.2-5-119.35.02-238.7.06-358.06-.01-6.73-.4-13.88.71-19.4,4.83M1442.23,299.22c-.77,2.95-.2,6.08-.29,9.11.73.05,2.17.16,2.9.22.01-3.25.04-6.5-.03-9.74-.65.1-1.94.31-2.58.41M226.14,316.19c-.02,2.85,0,5.7.06,8.54,1.01-.11,2.03-.22,3.04-.33-.08-2.76-.12-5.52-.17-8.28-.73.02-2.2.06-2.93.07M1442.35,315.78c-.8,2.83-.45,5.8-.46,8.7.76-.01,2.26-.02,3.02-.03-.09-2.75.13-5.52-.22-8.26-.59-.1-1.76-.31-2.34-.41M1442.11,331.91c-.39,2.63-.23,5.3-.09,7.94.7-.01,2.11-.02,2.82-.03-.02-2.8-.04-5.6-.06-8.4-.92.13-1.8.29-2.67.49M226.17,331.66c-.02,2.73-.2,5.48.08,8.22.74.11,2.21.34,2.95.45.01-2.91-.03-5.82-.08-8.73-.74.02-2.21.04-2.95.06M226.16,346.95c-.04,2.81-.05,5.62-.06,8.43.76.01,2.28.02,3.04.03.02-2.86-.02-5.72-.2-8.56-.7.02-2.09.07-2.78.1M1442.15,346.75c-.34,2.83-.39,5.68-.34,8.52.98.09,1.99.18,3.01.27.07-2.86.05-5.73-.02-8.58-.66-.05-1.99-.16-2.65-.21M226.19,362.39c-.05,2.8-.09,5.61-.1,8.42.77.01,2.32.04,3.1.06-.01-2.86-.06-5.71-.19-8.56-.7.02-2.11.06-2.81.08M1442.04,362.33c-.2,2.82-.23,5.65-.13,8.48.73.01,2.2.03,2.93.04v-8.42c-.7-.03-2.1-.08-2.8-.1M226.18,377.8c0,2.82-.04,5.64-.15,8.47,1.04.02,2.07.07,3.11.09,0-2.87,0-5.74,0-8.61-.73.01-2.21.04-2.95.05M1441.87,377.6c-.04,2.91-.04,5.81-.02,8.72.76,0,2.28.03,3.04.04-.05-2.79.06-5.57-.15-8.34-.72-.1-2.15-.31-2.87-.42M226.16,393.32c0,2.77,0,5.55-.05,8.32.72.05,2.15.13,2.86.17.18-2.75.23-5.5.27-8.26-1.03-.08-2.06-.16-3.08-.23M1441.85,394.89c-.12,2.3.02,4.6.14,6.91.72,0,2.15-.03,2.86-.05-.01-2.84,0-5.68-.03-8.51-1.04.36-3.48-.27-2.97,1.65M226.16,408.75c-.04,2.87-.02,5.74.06,8.62.96-.04,1.93-.08,2.9-.1.03-2.84.04-5.67.02-8.5-.75,0-2.23,0-2.98-.02M1441.86,408.78c-.02,2.82-.01,5.65.05,8.49.73,0,2.21.01,2.94.01,0-2.84,0-5.68-.02-8.52-.74,0-2.23,0-2.97.02M226.15,424.23c0,2.78-.02,5.57.02,8.36,1.01-.06,2.03-.12,3.06-.17-.05-2.76-.09-5.52-.17-8.27-.73.02-2.18.06-2.91.08M1441.89,424.2c-.04,2.72-.07,5.45-.1,8.18,1,.07,2.03.14,3.07.22.02-2.82.01-5.64-.02-8.45-.73.01-2.21.03-2.95.05M226.2,439.34c-.07,2.81-.07,5.63-.05,8.46.72.01,2.14.04,2.86.06.14-2.87.12-5.73-.06-8.58-.69.01-2.06.04-2.75.06M1441.99,439.24c-.17,2.84-.15,5.7.04,8.56.69,0,2.09.01,2.78.02.02-2.86.04-5.71.03-8.56-.72-.01-2.14-.02-2.85-.02M226.25,454.39c-.1,2.92-.12,5.84-.07,8.77.75.01,2.25.04,3,.05.02-2.78.12-5.56-.1-8.33-.94-.2-1.89-.36-2.83-.49M1441.95,454.65c-.06,2.14-.14,4.28-.09,6.42-.61,1.98,1.55,2.26,2.91,2.25.09-2.92.09-5.83.1-8.75-.73.02-2.19.06-2.92.08M185.17,725.27c-.06,2.71-.12,5.41-.27,8.12.84.02,2.52.05,3.35.06,0-2.76-.07-5.51-.31-8.25-.7.02-2.08.05-2.77.07M1472.51,730.35c-.01,2.45-.11,4.91.08,7.37.9.61,1.84.63,2.8.06.19-2.53.09-5.06.11-7.57-1.01.03-2.01.08-2.99.14M226.27,731.09c-.02,2.49-.02,4.99-.05,7.5.74.19,2.23.58,2.97.77-.19-2.64.53-5.59-.47-8.04-.61-.05-1.84-.17-2.45-.23M1442.27,730.83c-.44,2.39-.4,4.84-.4,7.28.95.14,1.92.28,2.91.42,0-2.68.28-5.41-.39-8.02-.53.08-1.59.24-2.12.32M185.16,739.7c-.05,2.85-.03,5.71-.03,8.58h3.01c-.05-2.75.28-5.57-.39-8.26-.65-.08-1.94-.24-2.59-.32M1442.43,744.55c-.86,1.96-.58,4.05-.18,6.09l2.52-.04c-.03-2-.05-3.99-.09-5.98-.56-.01-1.69-.05-2.25-.07M226.26,749.34c.68.07,2.03.2,2.71.27.13-1.63.26-3.27.12-4.88-3.33-1.47-3.03,2.49-2.83,4.61M1472.53,745.52c0,2.4-.02,4.81-.04,7.23,1,.02,2.02.04,3.06.08-.07-2.52-.12-5.02-.15-7.52-.97.06-1.93.13-2.87.21M358.87,750.84c-6.29,3.73-10.16,10.88-10.2,18.16-.17,33-.09,66.01-.04,99.01.11,2.81.47,5.68,1.47,8.34-.84,1.72-1,3.69.08,5.37,1.79,3.39,4.57,6.27,7.77,8.37,3.11,1.4,6.66,1.2,10,1.39,195.36.06,390.72.08,586.07.07,106.65-.08,213.3.14,319.95-.11,5.13.3,9.35-3.25,12.35-7.03,1.81-2.29,3.19-5.51,1.32-8.2,1.05-2.95,1.32-6.12,1.47-9.22.02-26.33.04-52.66,0-78.99-.73-8.85,1.25-18.04-1.6-26.63-3.11-8.79-12.38-14.03-21.46-13.76-296.68-.04-593.36.01-890.03-.02-5.83-.14-12.02.18-17.15,3.25M185.19,754.57c-.08,2.9-.09,5.81-.05,8.72.68.03,2.02.07,2.7.1.1-2.85,1.03-6.02-.43-8.65-.55-.04-1.67-.13-2.22-.17M226.39,756.49c-.37,3.97-.16,7.96-.09,11.94.96-.03,1.91-.05,2.87-.06-.03-4.02.2-8.05-.38-12.03-.6.04-1.8.12-2.4.15M1442.21,758.28c-.38,2.82-.41,5.66-.03,8.49.65-.03,1.94-.08,2.59-.11.03-2.77,0-5.54-.08-8.3-.62-.02-1.86-.06-2.48-.08M1472.5,760.31c-.01,2.68,0,5.36.02,8.06.94.01,1.91.03,2.89.06.03-2.74.06-5.48.1-8.2-1.03,0-2.03.03-3.01.08M185.18,769.84c-.03,2.81-.04,5.63-.03,8.46.7.01,2.1.05,2.8.07.27-2.9.22-5.81-.13-8.69-.66.04-1.98.12-2.64.16M1442.36,774.08c-.31,2.72-.71,5.45-1.43,8.11,1.02.29,2.05.58,3.11.88.72-2.9.85-5.89.8-8.86-.62-.03-1.86-.1-2.48-.13M1472.79,774.97c1.59,4.06-1.29,8.07-.06,12.24.65.06,1.94.17,2.58.23.77-4.37-1.57-8.56-.41-12.86-.53.1-1.58.29-2.11.39M225.98,775.62c.22,3.48.63,7.06,2.67,10.01.56-.43,1.68-1.28,2.24-1.71-1.08-2.7-1.88-5.5-1.96-8.41-.74.02-2.21.08-2.95.11M329.19,781.52c.29,2.89.74,5.76,1.3,8.62-1.4.54-2.48,1.39-2.15,3.01.56.2,1.68.61,2.24.81-.61,2.8-1.11,5.64-1.4,8.5,3.32-1.69,6.53-3.59,9.7-5.54,2.75-1.53,5.48-3.12,8.14-4.8-5.96-3.51-11.97-6.93-17.83-10.6M1290.66,792.42c6.02,3.23,11.82,6.87,17.82,10.15-.51-3.52-1.43-6.99-1.37-10.56,0-3.6,1-7.09,1.36-10.64-5.77,3.96-12.27,6.81-17.81,11.05M185.18,785.16c-.03,2.77-.04,5.54-.03,8.33.7.02,2.09.08,2.79.1.25-2.78.27-5.57.15-8.34-.73-.02-2.18-.07-2.91-.09M1431.54,790.21c.45,1.02.91,2.05,1.4,3.09,2.27-1.38,6.14-2.1,6.81-4.97-2.44-3.06-5.27,2.01-8.21,1.88M233.58,790.76c3.39,1.8,7.05,3.21,10.98,2.79.06-.98.12-1.94.19-2.9-3.19,0-6.24-.96-9.04-2.41-.72.82-1.43,1.66-2.13,2.52M251.98,790.54c-.18,1.05-.15,2.07.09,3.09,2.77.16,5.56.01,8.34.03.02-1.05.05-2.09.08-3.12-2.84.04-5.67.04-8.51,0M267.46,790.52c0,1.03,0,2.08,0,3.14,2.74,0,5.49,0,8.24.04.03-1.05.06-2.1.1-3.12-2.78-.02-5.55-.05-8.33-.06M283.16,790.52c-.01,1.06-.01,2.13-.01,3.21,2.66-.12,5.38.13,8-.44.07-.65.23-1.95.3-2.6-2.76-.08-5.53-.13-8.29-.17M298.37,790.55c0,1.05.01,2.11.03,3.18,2.74-.05,5.48-.06,8.23-.05.05-1.05.1-2.08.16-3.11-2.81-.01-5.62-.02-8.42-.02M314.24,790.53c0,1.05.02,2.11.04,3.19,2.76-.09,5.52-.16,8.29-.24.05-.96.11-1.91.17-2.84-2.84-.06-5.67-.1-8.5-.11M1311.58,790.66c.1.76.29,2.29.39,3.05,2.6-.03,5.22.09,7.84-.13.68-1.06.64-2.05-.11-2.97-2.72-.21-5.43-.04-8.12.05M1327.12,790.47c-.15,1.03-.2,2.08-.14,3.14,2.59.18,5.22.19,7.82-.08.19-.71.57-2.12.76-2.83-2.82-.13-5.64-.17-8.44-.23M1342.34,790.57c-.01,1.04-.01,2.08.02,3.14,2.67-.07,5.36-.11,8.06-.1-.01-1.01,0-2,.03-2.98-2.71-.02-5.42-.04-8.11-.06M1357.57,790.64c-.04,1-.06,2.01-.06,3.03,2.7,0,5.4.01,8.12.05,0-1.06.03-2.1.08-3.13-2.72,0-5.44.03-8.14.05M1372.65,790.57c-.03.77-.09,2.31-.12,3.08,2.71.02,5.42.04,8.15.07,0-1.05.04-2.1.09-3.13-2.72-.02-5.42-.02-8.12-.02M1387.6,790.62c.04.73.13,2.18.18,2.9,2.67.27,5.37.18,8.08.26.3-1.11.23-2.17-.21-3.17-2.7-.16-5.38-.02-8.05.01M1402.6,790.52c.04.75.12,2.26.16,3.01,2.66.28,5.36.14,8.06.15-.02-1.04-.03-2.08,0-3.1-2.75-.02-5.49-.05-8.21-.06M1417.61,790.61c.04.77.11,2.32.15,3.09,2.69-.06,5.39-.05,8.1,0-.02-1.07-.02-2.13-.01-3.17-2.75.03-5.5.06-8.24.08M1472.52,794.32c.02,2.72,0,5.45-.04,8.18.98,0,1.99.02,3.02.05-.05-2.78-.08-5.55-.07-8.32-1,.01-1.96.05-2.91.09M185.17,800.36c-.03,2.74-.07,5.48-.15,8.23.73.02,2.2.06,2.93.09.22-2.8.18-5.61-.12-8.39-.66.02-1.99.05-2.66.07M1472.56,809.6c-.04,2.95-.06,5.9-.1,8.86,1,0,2.02.03,3.06.07-.05-3-.07-6-.11-8.99-.97.01-1.92.03-2.85.06M185.2,815.43c-.08,2.76-.12,5.53-.16,8.3.74.01,2.22.02,2.96.03.19-2.78.08-5.57-.23-8.33h-2.57M1471.46,834.17c.66.2,1.97.6,2.63.8,1.06-3.03,1.4-6.22,1.39-9.4-.69,0-2.08.01-2.78.01-.1,2.9-.53,5.77-1.24,8.59M185.3,830.35c-.59,2.95,1.18,5.82,2.42,8.42.6-.46,1.78-1.37,2.38-1.83-.95-2.51-1.38-5.24-2.81-7.54-.49.24-1.49.71-1.99.95M329.16,834.89c.39,3.77,1.54,7.4,1.74,11.2-.65,3.3-1.46,6.58-1.66,9.96,4.46-2.76,9.07-5.27,13.53-8.02,1.4-.82,2.74-1.74,4-2.75-5.93-3.36-11.74-6.93-17.61-10.39M1290.69,845.2c5.5,4.16,11.91,6.92,17.63,10.79.03-3.78-1.71-7.26-2.03-10.94.79-3.31,1.85-6.57,1.99-9.99-5.85,3.41-11.77,6.69-17.59,10.14M1467.77,839.48c-1.88,1.83-4.16,3.15-6.56,4.17.25.8.52,1.61.82,2.43,2.93-.76,5.63-2.2,7.83-4.32-.15-.52-.46-1.56-.61-2.08-.37-.05-1.11-.15-1.48-.2M192.65,843.87c2.56,1.33,5.19,2.89,8.17,2.89.92-.65.56-1.96.84-2.89-2.52-.36-4.88-1.34-7-2.73-.66.91-1.35,1.8-2.01,2.73M1324.63,843.73c-.33.65-.98,1.95-1.3,2.6,2.86,1.44,6.18,1.07,9.21.34-.12-.97-.23-1.93-.32-2.87-2.54-.02-5.07-.04-7.59-.07M1431.49,843.76c-.1.98-.17,1.96-.22,2.96,2.79.16,5.6.5,8.39,0-.16-.98-.31-1.96-.45-2.92-2.59,0-5.16-.02-7.72-.04M208.56,844.21c0,.64-.02,1.93-.03,2.57,2.8,0,5.6,0,8.41.02-.01-.64-.03-1.94-.04-2.59-2.78-.02-5.56-.03-8.34,0M224.1,844.29c-.01.62-.03,1.85-.04,2.47,2.79.01,5.57.03,8.36.05,0-1.38-.39-3.76-2.43-2.93-1.96.12-3.92.3-5.89.41M239.35,844.21c0,.63.03,1.87.04,2.49,2.3.06,4.6.24,6.9.35,1.74.15,1.29-1.73,1.53-2.81-2.82-.03-5.65-.03-8.47-.03M255.14,847.32c2.7-.13,5.42-.15,8.13-.12-.02-.85-.05-2.54-.06-3.39-2.47-.02-4.95-.15-7.41.1-1.88.17-.76,2.27-.66,3.41M270.27,844.18c0,.66,0,1.97,0,2.62,2.76-.03,5.52-.04,8.29-.02v-2.55c-2.76,0-5.52-.01-8.28-.05M285.65,844.36v2.36c3.02.1,6.06.14,9.08-.2-.67-4.76-5.98-1.7-9.08-2.16M301.13,844.35c.05.62.13,1.86.17,2.48,2.77-.02,5.54-.03,8.32-.03,0-.63.01-1.89.01-2.53-1.92-.05-3.83-.16-5.73-.39-.69.11-2.07.35-2.77.47M316.53,844.17c0,.66-.01,1.98-.01,2.64,2.7-.03,5.4-.03,8.1,0,.01-.65.04-1.96.05-2.61-2.71.01-5.43,0-8.14-.03M1309.13,844.2c0,.64.01,1.93.01,2.57,2.57-.01,5.16.01,7.75.04.02-.64.05-1.91.06-2.55-2.62-.01-5.22-.03-7.82-.06M1339.18,844.19v2.66c2.75-.06,5.52-.09,8.3-.09,0-.62.02-1.87.02-2.5-2.78-.03-5.56-.06-8.32-.07M1354.51,844.26c0,.62-.01,1.88-.01,2.5,2.72.02,5.46.04,8.21.07,0-.65,0-1.96-.01-2.61-2.74.03-5.47.05-8.19.04M1369.74,844.47c-.03.58-.11,1.73-.15,2.31,2.94,0,5.88,0,8.84-.03-.04-.57-.11-1.72-.15-2.3-2.83-.37-5.73-.42-8.54.02M1385.3,844.23c0,.63.02,1.9.03,2.53,2.71-.02,5.43-.01,8.16,0,0-.61.02-1.85.02-2.46-2.75-.03-5.49-.05-8.21-.07M1400.47,844.28c.03.61.08,1.84.1,2.45,2.71.01,5.43.04,8.15.08v-2.59c-2.76.01-5.51.01-8.25.06M1415.77,844.22c.01.64.04,1.91.06,2.55,2.72-.02,5.45.09,8.19-.1.11-.53.32-1.59.43-2.12-2.88-.47-5.8-.32-8.68-.33M1446.49,844.17c.01.66.04,1.97.05,2.63,2.72-.03,5.45-.04,8.19-.03-.02-.65-.05-1.94-.07-2.59-2.74,0-5.46-.01-8.17-.01Z"/>
    <path class="st149" d="M826.55,292.53c3.25-1.32,6.21-3.27,9.51-4.46,2.66.66,4.83,2.53,7.37,3.55,5.6,2.39,11.47,4.1,17.27,5.96.07,8.99,1.45,18.13-.42,27.02-2.37,10.2-11.08,17.34-20.13,21.66-1.68.69-3.55,2.12-5.38,1.07-6.29-2.52-12.21-6.25-16.78-11.29-4.11-4.66-6.59-10.81-6.59-17.05-.1-7.11.04-14.21.1-21.32,4.93-1.97,10.21-2.93,15.05-5.14M814.46,300.13c.14,7.36-.15,14.75.35,22.1,1.97,10.88,11.56,18.54,21.42,22.29,4.45-2.09,9-4.26,12.52-7.78,4.57-4.43,8.7-10.06,8.94-16.65.06-6.72.17-13.43.08-20.15-7.64-1.56-14.72-4.91-21.58-8.48-6.82,3.86-14.17,6.67-21.73,8.67Z"/>
  </g>
  <g id="_x23_00299eff">
    <path class="st17" d="M37.55,30.55c5.52-4.12,12.67-5.23,19.4-4.83,119.36.07,238.71.03,358.06.01,6.66-.36,13.92.55,19.2,5,4.14,3.25,6.8,8.25,7.33,13.48-.42.22-1.26.67-1.68.9-.54-4.54-2.34-9.12-5.95-12.07-4.05-3.6-9.56-5.08-14.9-4.85-122.7.04-245.41-.04-368.12.03-5.65-.09-11.06,2.67-14.91,6.69-4.09,4.21-5.65,10.28-5.61,16.01-.02,24.89.04,49.78,0,74.66,136.52-.08,273.03.08,409.54-.07v.93c-98.97-.11-197.95.03-296.93-.05-37.57.08-75.15-.11-112.72.1.33,50.52-.18,101.05.29,151.56l-1.61-.45c-.29-76.19,0-152.39-.17-228.58-.05-7.05,3.26-14.07,8.78-18.47Z"/>
  </g>
  <g id="_x23_3d1692ff">
    <path class="st24" d="M1236.27,32.28c4.29-4.51,10.65-6.36,16.72-6.66,122.66-.06,245.32-.05,367.98-.02,8.55.28,16.58,6.05,19.75,13.96-.2.51-.61,1.54-.82,2.05-2.69-6.76-8.73-12.42-16.12-13.3-11.57-.87-23.17-.34-34.75-.48-14.03.43-28.05-.17-42.08.34-17.35-.06-34.67-.33-52.02-.02-6.33.19-12.66-.66-18.98-.08-12.65.33-25.31-.71-37.95.08-20.31-.45-40.65-.45-60.97-.03-12.67-.77-25.34.47-38.01-.24-12.67.34-25.35.48-38.02.02-15.01-.14-30.01-.13-45.01.02-7.87-.83-16.81,1.97-21.03,9.05-2.87,4.47-2.59,9.96-2.55,15.03.17,24.48-.19,48.96.13,73.44,106.48.17,212.96.02,319.45.07,29.76-.1,59.52.15,89.28-.09,0,.25,0,.76.01,1.02-136.26.07-272.51-.07-408.77.05-.06,48.51,0,97.02-.08,145.53-.19,4.83.82,9.72,3.36,13.88-.67.81-1.33,1.63-1.97,2.44-1.62-4.96-3.33-10.04-3.13-15.33.14-36.25.21-72.5.09-108.75-.04-2.02-.04-4.03-.02-6.04-.04-12.07.37-24.16-.29-36.21.14-23.66.01-47.31.07-70.96-.29-6.6.92-13.89,5.73-18.77Z"/>
    <path class="st24" d="M1259.65,52.73c8.8-4.54,19.28-4.8,28.72-2.26,4.07,1.29,8.93,3.66,9.73,8.32.23,4.7-.51,9.4-.26,14.11-3.91,2.19-7.58,4.99-12.08,5.82-2.78.35-4.86,2.81-7.72,2.56-6.84-.13-14.22-.62-19.96-4.76.03,2.88.05,5.76.01,8.65,5.9,5.76,14.84,5.99,22.59,5.59.04,1.01.1,2.02.16,3.02-7.78.23-15.96-.47-22.77-4.56.31,3.43-1.18,8.05,2.42,10.2,6.55,4.11,14.77,4.21,22.28,3.84.39.73.8,1.46,1.22,2.19-7.73,1.59-15.99,1.03-23.21-2.27-2.37-1.36-5.18-3.26-5.46-6.21-.23-12.32.1-24.65-.09-36.97-.51-3.18,1.81-5.83,4.42-7.27M1260,55.97c-2.34,1.33-2.53,4.79-.17,6.2,5.44,3.96,12.64,4.14,19.12,4.14,5.97-.64,13.73-1.18,16.72-7.34-2.94-5.69-9.98-6.5-15.64-7.28-6.8-.34-14.32.21-20.03,4.28M1257.89,64.24c.05,2.79-.44,5.71.49,8.4,1.07,1.63,2.88,2.59,4.64,3.36,9.58,3.9,21.02,3.27,29.89-2.18,3.59-1.81,1.95-6.39,2.34-9.56-11.23,6.56-26.17,6.67-37.36-.02Z"/>
    <path class="st24" d="M1231.15,486.58c.35-.29,1.04-.87,1.39-1.16-.16,24.5.08,49.01-.09,73.51,0,.4,0,1.2-.01,1.6.03,28.83.04,57.65,0,86.48.13,15.37-.27,30.76.17,46.13l-1.63-.39c-.32-35.72-.06-71.47-.16-107.2-.02-1.98-.05-3.96-.03-5.93.03-29.56-.06-59.12-.04-88.68.17-1.41-.38-3.18.41-4.36Z"/>
  </g>
  <g id="_x23_eff6fdff">
    <path class="st96" d="M35.98,34.91c3.85-4.02,9.26-6.78,14.91-6.69,122.71-.07,245.42.01,368.12-.03,5.34-.23,10.85,1.25,14.9,4.85,3.61,2.95,5.41,7.53,5.95,12.07.1,26.8-.03,53.6.05,80.4-136.51.15-273.02-.01-409.54.07.04-24.88-.02-49.77,0-74.66-.04-5.73,1.52-11.8,5.61-16.01M99.99,54.01c-.56,2.56-.06,5.28-.23,7.9-4.04,3.75-7.58,8.03-11.77,11.62-2.3-.48-4.65-1.66-7-.7-5.64,1.41-8.49,9.17-4.6,13.67,3.08,4.19,10.22,4.6,13.29.19,2.7-2.99,2.35-7.55.44-10.84,4.18-3.9,7.44-8.78,12.06-12.19,2.44-.35,4.93.03,7.36-.34,2.96-2.61,5.31-5.83,8.21-8.51-1.82-2.19-4.86-1.24-7.31-1.54-.51-2.71-.83-5.46-1.23-8.19-3.33,2.69-6.4,5.72-9.22,8.93M64.99,58.95c-7.87,6.77-11.63,17.98-9.47,28.13,1.42,8.95,7.71,16.59,15.56,20.81,6.46,3.28,14.28,3.7,21.09,1.3,9.11-3.33,16.61-11.39,18.3-21.07,1.84-6.95.33-14.21-2.47-20.67-.7.21-2.12.63-2.82.84.44,2.31,1.64,4.38,2.25,6.65,4.11,13.25-4.88,29.1-18.46,32.14-7.53,1.54-15.83-.25-21.71-5.3-4.98-4.26-8.32-10.34-9.42-16.78-2.18-13.35,7.68-27.66,21.2-29.67,5.66-1.45,11.23.79,16.51,2.58.08-1.03.05-2.05-.12-3.05-9.76-4.76-22.26-3.1-30.44,4.09M69.67,68.61c-4.54,4.9-5.65,12.23-3.81,18.52,2.07,6.61,8.37,11.45,15.16,12.35,7.36,1.08,15.21-3.14,18.26-9.95,1.97-4.56,2.81-9.85,1-14.6-.59-.95-.68-3.2-2.27-2.82-1.91-.43-1.78,1.95-1.11,2.99,2.52,5.11,1.81,11.57-1.9,15.91-4.71,6.32-14.59,7.69-20.77,2.79-7.91-5.46-8.63-18.47-1.02-24.53,4.46-4.35,11.2-4.59,16.72-2.32.56-.5,1.68-1.49,2.24-1.99-7.21-4.25-16.83-2.22-22.5,3.65Z"/>
    <path class="st96" d="M432.37,805.55c7.71-3.4,17.2,2.41,18.66,10.47,2.04,8.53-5.4,17.55-14.09,17.45-5.8-.7-11.65-4.52-13.03-10.47-2.26-6.86,1.72-14.93,8.46-17.45Z"/>
  </g>
  <g id="_x23_f8f4fdff">
    <path class="st66" d="M1234.96,36.97c4.22-7.08,13.16-9.88,21.03-9.05,15-.15,30-.16,45.01-.02,12.67.46,25.35.32,38.02-.02,12.67.71,25.34-.53,38.01.24,20.32-.42,40.66-.42,60.97.03,12.64-.79,25.3.25,37.95-.08,6.32-.58,12.65.27,18.98.08,17.35-.31,34.67-.04,52.02.02,14.03-.51,28.05.09,42.08-.34,11.58.14,23.18-.39,34.75.48,7.39.88,13.43,6.54,16.12,13.3.69,3.08,1.38,6.2,1.35,9.38-.02,24.81-.04,49.62.02,74.43-29.76.24-59.52,0-89.28.09-106.49-.05-212.97.1-319.45-.07-.32-24.48.04-48.96-.13-73.44-.04-5.07-.32-10.56,2.55-15.03M1259.65,52.73c-2.61,1.44-4.93,4.09-4.42,7.27.19,12.32-.14,24.65.09,36.97.28,2.95,3.09,4.85,5.46,6.21,7.22,3.3,15.48,3.86,23.21,2.27-.42-.73-.83-1.46-1.22-2.19-7.51.37-15.73.27-22.28-3.84-3.6-2.15-2.11-6.77-2.42-10.2,6.81,4.09,14.99,4.79,22.77,4.56-.06-1-.12-2.01-.16-3.02-7.75.4-16.69.17-22.59-5.59.04-2.89.02-5.77-.01-8.65,5.74,4.14,13.12,4.63,19.96,4.76,2.86.25,4.94-2.21,7.72-2.56,4.5-.83,8.17-3.63,12.08-5.82-.25-4.71.49-9.41.26-14.11-.8-4.66-5.66-7.03-9.73-8.32-9.44-2.54-19.92-2.28-28.72,2.26M1298.32,77.06c-3.67,3.24-8.47,4.52-13.1,5.64-.7,7.21-1.65,15.67,3.54,21.56,2.73,2.9,5.99,6.11,10.14,6.58,5.15-1.94,9.81-5.98,11.85-11.18,2.18-5.5,1.12-11.44,1.02-17.17-4.84-.81-9.36-2.77-13.45-5.43Z"/>
  </g>
  <g id="_x23_36148cff">
    <path class="st39" d="M1639.9,41.61c.21-.51.62-1.54.82-2.05,1.81,3.17,2.99,6.76,2.95,10.45,0,56,.01,112.01-.01,168.02-.18,20.05.33,40.14-.19,60.16-1.11,1.05-2.29,2.02-3.37,3.06,1.66-6.28,1.03-12.82,1.12-19.24.05-45.19.02-90.38.06-135.57-.01-.26-.01-.77-.01-1.02-.06-24.81-.04-49.62-.02-74.43.03-3.18-.66-6.3-1.35-9.38Z"/>
  </g>
  <g id="_x23_1a55b2ff">
    <path class="st0" d="M441.54,44.21l.36-.19c.53,20.65.04,41.32.22,61.98-.12,17.38.16,34.77-.2,52.14-.11,2.03-.11,4.07-.01,6.1.41,22.24.05,44.5.17,66.75-.12,6.21.24,12.43-.15,18.64-1.84,8.89,1.13,18.24-1.94,26.91-.21-50.03-.02-100.07-.08-150.1v-.93c-.08-26.8.05-53.6-.05-80.4.42-.23,1.26-.68,1.68-.9Z"/>
  </g>
  <g id="_x23_0b4ab5ff">
    <path class="st130" d="M99.99,54.01c2.82-3.21,5.89-6.24,9.22-8.93.4,2.73.72,5.48,1.23,8.19,2.45.3,5.49-.65,7.31,1.54-2.9,2.68-5.25,5.9-8.21,8.51-2.43.37-4.92,0-7.36.34-4.62,3.41-7.88,8.29-12.06,12.19,1.91,3.29,2.26,7.85-.44,10.84-3.07,4.41-10.21,4-13.29-.19-3.89-4.5-1.04-12.26,4.6-13.67,2.35-.96,4.7.22,7,.7,4.19-3.59,7.73-7.87,11.77-11.62.17-2.62-.33-5.34.23-7.9M102.49,58.15c2.45-1.72,4.94-3.9,5.11-7.12-3.07.77-5.02,4.07-5.11,7.12M104.91,60.5c3.56.89,5.72-1.99,7.82-4.3-3.58-.94-5.9,1.78-7.82,4.3M77.75,82.13c.6,4.24,6.53,6.42,9.45,3.09,2.09-1.7,1.21-4.59,1.25-6.89-1.86,1.27-3.66,2.82-6.02,3.01.42-2.29,2.08-3.93,3.47-5.66-4.04-1.58-9.24,1.98-8.15,6.45Z"/>
  </g>
  <g id="_x23_f2f9fdff">
    <path class="st28" d="M102.49,58.15c.09-3.05,2.04-6.35,5.11-7.12-.17,3.22-2.66,5.4-5.11,7.12Z"/>
    <path class="st28" d="M68.27,492.26c5.79-2.9,12.99,2.42,12.57,8.71.74,6.76-7.65,12.37-13.49,8.66-6.82-3.44-6.17-14.62.92-17.37Z"/>
  </g>
  <g id="_x23_f7f3fdff">
    <path class="st49" d="M1260,55.97c5.71-4.07,13.23-4.62,20.03-4.28,5.66.78,12.7,1.59,15.64,7.28-2.99,6.16-10.75,6.7-16.72,7.34-6.48,0-13.68-.18-19.12-4.14-2.36-1.41-2.17-4.87.17-6.2Z"/>
  </g>
  <g id="_x23_003bacff">
    <path class="st90" d="M64.99,58.95c8.18-7.19,20.68-8.85,30.44-4.09.17,1,.2,2.02.12,3.05-5.28-1.79-10.85-4.03-16.51-2.58-13.52,2.01-23.38,16.32-21.2,29.67,1.1,6.44,4.44,12.52,9.42,16.78,5.88,5.05,14.18,6.84,21.71,5.3,13.58-3.04,22.57-18.89,18.46-32.14-.61-2.27-1.81-4.34-2.25-6.65.7-.21,2.12-.63,2.82-.84,2.8,6.46,4.31,13.72,2.47,20.67-1.69,9.68-9.19,17.74-18.3,21.07-6.81,2.4-14.63,1.98-21.09-1.3-7.85-4.22-14.14-11.86-15.56-20.81-2.16-10.15,1.6-21.36,9.47-28.13Z"/>
  </g>
  <g id="_x23_ffffffff">
    <path class="st46" d="M104.91,60.5c1.92-2.52,4.24-5.24,7.82-4.3-2.1,2.31-4.26,5.19-7.82,4.3Z"/>
    <path class="st46" d="M30.26,126.49c37.57-.21,75.15-.02,112.72-.1,98.98.08,197.96-.06,296.93.05.06,50.03-.13,100.07.08,150.1-.54,4.76-2.13,9.51-5.6,12.95-4.62,5.11-11.78,6.93-18.47,6.69-120.31.03-240.62.03-360.93,0-6.21.11-12.94-1.04-17.56-5.54-3.72-3.21-6.1-7.76-6.88-12.59-.47-50.51.04-101.04-.29-151.56Z"/>
    <path class="st46" d="M1232.51,126.49c136.26-.12,272.51.02,408.77-.05-.04,45.19-.01,90.38-.06,135.57-.09,6.42.54,12.96-1.12,19.24-1.85,4.09-4.22,8.19-8.14,10.61-5.64,3.47-12.48,4.13-18.96,3.86-118.67.04-237.33,0-355.99.04-8.08.35-16.71-2.88-21.22-9.86-2.54-4.16-3.55-9.05-3.36-13.88.08-48.51.02-97.02.08-145.53Z"/>
    <path class="st46" d="M589.47,356.25c85.26.08,170.51-.01,255.76.05,79.22.03,158.44.05,237.66-.02.21,45.9-.01,91.81.02,137.72-.04,6.28.71,12.9-2.12,18.75-3,7.92-11.45,12.75-19.7,12.83-150.4-.1-300.8.02-451.2-.05-7.15-.51-14.18-4.53-17.59-10.94-1.84-3.55-2.93-7.53-2.89-11.54.06-48.93-.09-97.87.06-146.8Z"/>
    <path class="st46" d="M30.36,560.17c89.91.22,179.82.05,269.73.11,46.57-.16,93.16.22,139.72-.19.24,10.61.63,21.24.14,31.86.28,31.66.24,63.35.06,95.01.33,5.57-.54,11.48-3.98,16.05-3.87,5.87-11.13,8.66-17.98,8.36-120.35.02-240.71.04-361.06.02-4.05-.03-8.19.28-12.12-.89-5.74-1.68-10.96-5.83-13.1-11.51-1.33-3.5-1.49-7.31-1.46-11.01.09-42.6-.03-85.2.05-127.81Z"/>
    <path class="st46" d="M1232.43,647.01c.05-28.83.04-57.65,0-86.48,136.29.06,272.58-.06,408.87.1-.15,43.79.05,87.59-.12,131.38-.36,10.51-9.59,19.61-20.18,19.37-122.34.1-244.67.03-367,.06-6.54-.05-13.31-2.75-17.26-8.1-2.27-2.97-3.5-6.57-4.15-10.2-.44-15.37-.04-30.76-.17-46.13Z"/>
  </g>
  <g id="_x23_0a46b5ff">
    <path class="st41" d="M69.67,68.61c5.67-5.87,15.29-7.9,22.5-3.65-.56.5-1.68,1.49-2.24,1.99-5.52-2.27-12.26-2.03-16.72,2.32-7.61,6.06-6.89,19.07,1.02,24.53,6.18,4.9,16.06,3.53,20.77-2.79,3.71-4.34,4.42-10.8,1.9-15.91-.67-1.04-.8-3.42,1.11-2.99,1.59-.38,1.68,1.87,2.27,2.82,1.81,4.75.97,10.04-1,14.6-3.05,6.81-10.9,11.03-18.26,9.95-6.79-.9-13.09-5.74-15.16-12.35-1.84-6.29-.73-13.62,3.81-18.52Z"/>
  </g>
  <g id="_x23_f8f6fdff">
    <path class="st4" d="M1257.89,64.24c11.19,6.69,26.13,6.58,37.36.02-.39,3.17,1.25,7.75-2.34,9.56-8.87,5.45-20.31,6.08-29.89,2.18-1.76-.77-3.57-1.73-4.64-3.36-.93-2.69-.44-5.61-.49-8.4Z"/>
  </g>
  <g id="_x23_e8f4fdff">
    <path class="st155" d="M77.75,82.13c-1.09-4.47,4.11-8.03,8.15-6.45-1.39,1.73-3.05,3.37-3.47,5.66,2.36-.19,4.16-1.74,6.02-3.01-.04,2.3.84,5.19-1.25,6.89-2.92,3.33-8.85,1.15-9.45-3.09Z"/>
  </g>
  <g id="_x23_3e1194ff">
    <path class="st71" d="M1298.32,77.06c4.09,2.66,8.61,4.62,13.45,5.43.1,5.73,1.16,11.67-1.02,17.17-2.04,5.2-6.7,9.24-11.85,11.18-4.15-.47-7.41-3.68-10.14-6.58-5.19-5.89-4.24-14.35-3.54-21.56,4.63-1.12,9.43-2.4,13.1-5.64M1287.73,84.95c.03,5.56-1.27,11.99,2.6,16.65,2.21,2.65,5.07,5.5,8.54,6.13,5.04-2.29,9.31-7.07,10.2-12.66.35-3.39.17-6.81.23-10.22-3.93-.63-7.59-2.22-11.05-4.12-3.21,2.07-6.7,3.77-10.52,4.22Z"/>
  </g>
  <g id="_x23_f8f6fcff">
    <path class="st83" d="M1287.73,84.95c3.82-.45,7.31-2.15,10.52-4.22,3.46,1.9,7.12,3.49,11.05,4.12-.06,3.41.12,6.83-.23,10.22-.89,5.59-5.16,10.37-10.2,12.66-3.47-.63-6.33-3.48-8.54-6.13-3.87-4.66-2.57-11.09-2.6-16.65M1296.91,92.76c-1.15-.05-2.29-.11-3.41-.16.05.9.12,1.81.21,2.71.69.02,2.08.05,2.77.07.34,1.16.69,2.31,1.06,3.47.5-.08,1.5-.24,2-.32.04-.73.11-2.2.15-2.94,1.21-.53,2.44-1.06,3.68-1.6-.53-1.48-1.91-1.71-3.24-1.88-.33-1.16-.73-2.28-1.22-3.37-2.1.19-1.56,2.59-2,4.02Z"/>
  </g>
  <g id="_x23_5024a6ff">
    <path class="st152" d="M1296.91,92.76c.44-1.43-.1-3.83,2-4.02.49,1.09.89,2.21,1.22,3.37,1.33.17,2.71.4,3.24,1.88-1.24.54-2.47,1.07-3.68,1.6-.04.74-.11,2.21-.15,2.94-.5.08-1.5.24-2,.32-.37-1.16-.72-2.31-1.06-3.47-.69-.02-2.08-.05-2.77-.07-.09-.9-.16-1.81-.21-2.71,1.12.05,2.26.11,3.41.16Z"/>
  </g>
  <g id="_x23_042972ff">
    <path class="st73" d="M441.92,158.14c29.34-.03,58.68.02,88.02-.02,3.95.06,8.11-.45,11.82,1.26,4.45,1.97,8.3,5.77,9.55,10.58,1.43,5.55.79,11.33.91,17,.05,28.44-.2,56.89.13,85.32,3.67-.03,7.35,0,11.02.06-3.56,5.84-7.18,11.64-10.86,17.41,12.16.01,24.32-.15,36.48,0-.55,1.79-1.03,3.61-1.46,5.44-12.89-.21-25.77-.05-38.65-.05-4.77-7.63-9.43-15.32-14.39-22.82,3.7-.02,7.4-.1,11.1.06,1.04-3.02.57-6.26.64-9.39-.01-28.98-.05-57.96.01-86.94.09-6.06-4.88-12.2-11.22-11.9-31.04.12-62.08-.05-93.11.09-.1-2.03-.1-4.07.01-6.1Z"/>
  </g>
  <g id="_x23_052870ff">
    <path class="st127" d="M1122.04,168.04c2.53-6.22,9.3-10.06,15.9-9.87,30.94-.04,61.88-.11,92.82.05-.02,2.01-.02,4.02.02,6.04-30.91-.15-61.82.01-92.72-.09-6.42-.46-11.84,5.56-11.51,11.82.05,32.1-.1,64.2.07,96.3,3.86.02,7.72-.03,11.58.02-4.68,7.65-9.61,15.14-14.27,22.81-12.86-.04-25.71.04-38.57-.04-.29-1.73-.68-3.43-1.23-5.08,12.09-.59,24.22-.14,36.33-.25-3.86-5.71-7.4-11.63-11.25-17.35,3.76-.2,7.54-.16,11.32-.1.1-30.1.11-60.2.02-90.3.06-4.67-.45-9.56,1.49-13.96Z"/>
  </g>
  <g id="_x23_003eb3ff">
    <path class="st143" d="M439.99,276.54c3.07-8.67.1-18.02,1.94-26.91.32,7.77.06,15.56.17,23.34.06,6.52-1.04,13.56-5.43,18.66-4.08,4.8-10.52,6.94-16.68,6.95-63.61.01-127.21-.03-190.82.01,0,3.3,0,6.6,0,9.91-.75-.01-2.25-.04-3-.05,0-3.31,0-6.61.2-9.91-58.47.12-116.95-.04-175.42.07-7.14.18-14.52-3-18.52-9.07-2.49-3.47-3.31-7.76-3.5-11.94l1.61.45c.78,4.83,3.16,9.38,6.88,12.59,4.62,4.5,11.35,5.65,17.56,5.54,120.31.03,240.62.03,360.93,0,6.69.24,13.85-1.58,18.47-6.69,3.47-3.44,5.06-8.19,5.6-12.95Z"/>
  </g>
  <g id="_x23_232692ff">
    <path class="st32" d="M602.73,276.7c8.8-2.85,18.17-.99,27.23-1.62,55.98-.02,111.98.12,167.98.04,16.03-.52,32.07.45,48.11-.13,71.67.37,143.36,0,215.03.19,6.71.03,13.58,2.58,17.98,7.79,1.88,2.19,3.26,4.77,5.07,7.03.55,1.65.94,3.35,1.23,5.08.55,26.61.13,53.25.21,79.87-.09,42.28.1,84.56-.11,126.83-.13,1.83-.31,3.66-.49,5.49-.14,1.08-.31,2.17-.5,3.25-2.28,6.39-6.56,12.47-12.97,15.19-5.79,2.75-12.33,2.08-18.54,2.12-71.28.03-142.56.04-213.83,0-2.01-.03-4.01-.03-5.99-.01-73.74.06-147.47-.01-221.21.04-6.06.02-12.24-1.9-16.84-5.92-3.16-2.78-5.08-6.61-6.78-10.38-.62-1.36-.58-2.88-.43-4.32.21-1.9.1-3.81-.52-5.61-1.04-3.11-.54-6.42-.63-9.63.08-59.67,0-119.35-.04-179.02.18-5.93-.56-11.97.84-17.79.43-1.83.91-3.65,1.46-5.44,2.53-5.96,7.4-11.19,13.74-13.05M595.02,284.11c-4.33,4.81-5.89,11.59-5.76,17.93.12,17.75-.09,35.51.22,53.26v.95c-.16,48.93-.01,97.87-.07,146.8-.04,4.01,1.05,7.99,2.89,11.54,3.41,6.41,10.44,10.43,17.59,10.94,150.4.07,300.8-.05,451.2.05,8.25-.08,16.7-4.91,19.7-12.83,2.83-5.85,2.08-12.47,2.12-18.75-.03-45.91.19-91.82-.02-137.72l.06-1.68c-.24-19.53.35-39.07-.17-58.6-.72-10.87-11.25-18.97-21.78-18.74-150.33.04-300.66.14-450.99-.06-5.62.32-10.92,3.11-14.99,6.91Z"/>
  </g>
  <g id="_x23_366ad1ff">
    <path class="st139" d="M595.02,284.11c4.07-3.8,9.37-6.59,14.99-6.91,150.33.2,300.66.1,450.99.06,10.53-.23,21.06,7.87,21.78,18.74.52,19.53-.07,39.07.17,58.6-71.96.12-143.93,0-215.89.17-7.56.06-15.13-.31-22.66.35-84.97.45-169.95.12-254.92.18-.31-17.75-.1-35.51-.22-53.26-.13-6.34,1.43-13.12,5.76-17.93M826.55,292.53c-4.84,2.21-10.12,3.17-15.05,5.14-.06,7.11-.2,14.21-.1,21.32,0,6.24,2.48,12.39,6.59,17.05,4.57,5.04,10.49,8.77,16.78,11.29,1.83,1.05,3.7-.38,5.38-1.07,9.05-4.32,17.76-11.46,20.13-21.66,1.87-8.89.49-18.03.42-27.02-5.8-1.86-11.67-3.57-17.27-5.96-2.54-1.02-4.71-2.89-7.37-3.55-3.3,1.19-6.26,3.14-9.51,4.46Z"/>
  </g>
  <g id="_x23_562fa5ff">
    <path class="st26" d="M1640.1,281.25c1.08-1.04,2.26-2.01,3.37-3.06-.5,6.39-3.3,12.97-8.8,16.59-4.24,3.02-9.64,3.49-14.68,3.59-122.97-.02-245.93,0-368.89-.04-6.93-.33-14.21-3.38-17.28-9.99.64-.81,1.3-1.63,1.97-2.44,4.51,6.98,13.14,10.21,21.22,9.86,118.66-.04,237.32,0,355.99-.04,6.48.27,13.32-.39,18.96-3.86,3.92-2.42,6.29-6.52,8.14-10.61Z"/>
  </g>
  <g id="_x23_5861c4ff">
    <path class="st114" d="M814.46,300.13c7.56-2,14.91-4.81,21.73-8.67,6.86,3.57,13.94,6.92,21.58,8.48.09,6.72-.02,13.43-.08,20.15-.24,6.59-4.37,12.22-8.94,16.65-3.52,3.52-8.07,5.69-12.52,7.78-9.86-3.75-19.45-11.41-21.42-22.29-.5-7.35-.21-14.74-.35-22.1M830.7,303.68c-2.41,2.02-2.27,5.31-2.52,8.14-.88.63-1.69,1.33-2.43,2.09-.45,4.35-.29,8.75-.2,13.11-.13,1.52.74,3.63,2.56,3.43,5.81.17,11.63-.06,17.44.07,2.24-5.24.67-11.26.88-16.81-.88-.57-1.76-1.15-2.62-1.72-.16-2.48.11-5.23-1.48-7.34-2.55-3.78-8.5-4.3-11.63-.97Z"/>
    <path class="st114" d="M831.78,307.81c.68-1.83,2.71-2.46,4.21-3.44,1.54.83,3.54,1.34,4.35,3.09.43,1.61.31,3.3.44,4.96-3.17,0-6.33,0-9.48,0,.12-1.55.13-3.1.48-4.61Z"/>
    <path class="st114" d="M833.43,319.86c.51-1.31.95-2.84,2.56-3.13,1.79-.09,2.41,1.85,3.3,3.02-.42.56-1.25,1.68-1.67,2.24-.03,1.25-.05,2.5-.06,3.76-.58.04-1.74.12-2.32.16-.08-2.16-.31-4.36-1.81-6.05Z"/>
  </g>
  <g id="_x23_5e25beff">
    <path class="st62" d="M1442.23,299.22c.64-.1,1.93-.31,2.58-.41.07,3.24.04,6.49.03,9.74-.73-.06-2.17-.17-2.9-.22.09-3.03-.48-6.16.29-9.11Z"/>
  </g>
  <g id="_x23_f8f8fcff">
    <path class="st20" d="M830.7,303.68c3.13-3.33,9.08-2.81,11.63.97,1.59,2.11,1.32,4.86,1.48,7.34.86.57,1.74,1.15,2.62,1.72-.21,5.55,1.36,11.57-.88,16.81-5.81-.13-11.63.1-17.44-.07-1.82.2-2.69-1.91-2.56-3.43-.09-4.36-.25-8.76.2-13.11.74-.76,1.55-1.46,2.43-2.09.25-2.83.11-6.12,2.52-8.14M831.78,307.81c-.35,1.51-.36,3.06-.48,4.61,3.15,0,6.31,0,9.48,0-.13-1.66-.01-3.35-.44-4.96-.81-1.75-2.81-2.26-4.35-3.09-1.5.98-3.53,1.61-4.21,3.44M833.43,319.86c1.5,1.69,1.73,3.89,1.81,6.05.58-.04,1.74-.12,2.32-.16.01-1.26.03-2.51.06-3.76.42-.56,1.25-1.68,1.67-2.24-.89-1.17-1.51-3.11-3.3-3.02-1.61.29-2.05,1.82-2.56,3.13Z"/>
  </g>
  <g id="_x23_0c53ceff">
    <path class="st2" d="M226.14,316.19c.73-.01,2.2-.05,2.93-.07.05,2.76.09,5.52.17,8.28-1.01.11-2.03.22-3.04.33-.07-2.84-.08-5.69-.06-8.54Z"/>
  </g>
  <g id="_x23_5922b3ff">
    <path class="st93" d="M1442.35,315.78c.58.1,1.75.31,2.34.41.35,2.74.13,5.51.22,8.26-.76,0-2.26.02-3.02.03.01-2.9-.34-5.87.46-8.7Z"/>
  </g>
  <g id="_x23_612cb5ff">
    <path class="st61" d="M1442.11,331.91c.87-.2,1.75-.36,2.67-.49.02,2.8.04,5.6.06,8.4-.71,0-2.12.02-2.82.03-.14-2.64-.3-5.31.09-7.94Z"/>
  </g>
  <g id="_x23_0754cdff">
    <path class="st63" d="M226.17,331.66c.74-.02,2.21-.04,2.95-.06.05,2.91.09,5.82.08,8.73-.74-.11-2.21-.34-2.95-.45-.28-2.74-.1-5.49-.08-8.22Z"/>
  </g>
  <g id="_x23_0e5bd0ff">
    <path class="st141" d="M226.16,346.95c.69-.03,2.08-.08,2.78-.1.18,2.84.22,5.7.2,8.56-.76-.01-2.28-.02-3.04-.03,0-2.81.02-5.62.06-8.43Z"/>
  </g>
  <g id="_x23_5a24b5ff">
    <path class="st137" d="M1442.15,346.75c.66.05,1.99.16,2.65.21.07,2.85.09,5.72.02,8.58-1.02-.09-2.03-.18-3.01-.27-.05-2.84,0-5.69.34-8.52Z"/>
  </g>
  <g id="_x23_0f2f82ff">
    <path class="st109" d="M589.48,355.3c84.97-.06,169.95.27,254.92-.18l.83,1.18c-85.25-.06-170.5.03-255.76-.05v-.95Z"/>
    <path class="st109" d="M491.51,815.5c2.3,0,4.61.01,6.92.01.04,1.43.09,2.85.14,4.3-2.36.39-4.77.45-7.13.09.01-1.48.04-2.95.07-4.4Z"/>
  </g>
  <g id="_x23_43369aff">
    <path class="st145" d="M844.4,355.12c7.53-.66,15.1-.29,22.66-.35,71.96-.17,143.93-.05,215.89-.17l-.06,1.68c-79.22.07-158.44.05-237.66.02l-.83-1.18Z"/>
  </g>
  <g id="_x23_105bcfff">
    <path class="st42" d="M226.19,362.39c.7-.02,2.11-.06,2.81-.08.13,2.85.18,5.7.19,8.56-.78-.02-2.33-.05-3.1-.06.01-2.81.05-5.62.1-8.42Z"/>
  </g>
  <g id="_x23_6631bbff">
    <path class="st84" d="M1442.04,362.33c.7.02,2.1.07,2.8.1v8.42c-.73-.01-2.2-.03-2.93-.04-.1-2.83-.07-5.66.13-8.48Z"/>
  </g>
  <g id="_x23_125cd1ff">
    <path class="st29" d="M226.18,377.8c.74,0,2.22-.04,2.95-.05.02,2.87,0,5.74,0,8.61-1.04-.02-2.07-.07-3.11-.09.11-2.83.14-5.65.15-8.47Z"/>
  </g>
  <g id="_x23_622db9ff">
    <path class="st45" d="M1441.87,377.6c.72.11,2.15.32,2.87.42.21,2.77.1,5.55.15,8.34-.76,0-2.28-.03-3.04-.04-.02-2.91-.02-5.81.02-8.72Z"/>
  </g>
  <g id="_x23_0e5bd5ff">
    <path class="st100" d="M226.16,393.32c1.02.07,2.05.15,3.08.23-.04,2.76-.09,5.51-.27,8.26-.71-.04-2.14-.12-2.86-.17.05-2.77.05-5.55.05-8.32Z"/>
  </g>
  <g id="_x23_622abbff">
    <path class="st89" d="M1441.85,394.89c-.51-1.92,1.93-1.29,2.97-1.65.03,2.83.02,5.67.03,8.51-.71.02-2.14.04-2.86.05-.12-2.31-.26-4.61-.14-6.91Z"/>
  </g>
  <g id="_x23_0c57d0ff">
    <path class="st50" d="M226.16,408.75c.75.01,2.23.01,2.98.02.02,2.83,0,5.66-.02,8.5-.97.02-1.94.06-2.9.1-.08-2.88-.1-5.75-.06-8.62Z"/>
  </g>
  <g id="_x23_5e27b9ff">
    <path class="st91" d="M1441.86,408.78c.74-.01,2.23-.02,2.97-.02.02,2.84.02,5.68.02,8.52-.73,0-2.21-.01-2.94-.01-.06-2.84-.07-5.67-.05-8.49Z"/>
  </g>
  <g id="_x23_0352cdff">
    <path class="st115" d="M226.15,424.23c.73-.02,2.18-.06,2.91-.08.08,2.75.12,5.51.17,8.27-1.03.05-2.05.11-3.06.17-.04-2.79-.03-5.58-.02-8.36Z"/>
  </g>
  <g id="_x23_5b25b5ff">
    <path class="st156" d="M1441.89,424.2c.74-.02,2.22-.04,2.95-.05.03,2.81.04,5.63.02,8.45-1.04-.08-2.07-.15-3.07-.22.03-2.73.06-5.46.1-8.18Z"/>
  </g>
  <g id="_x23_0e56caff">
    <path class="st54" d="M226.2,439.34c.69-.02,2.06-.05,2.75-.06.18,2.85.2,5.71.06,8.58-.72-.02-2.14-.05-2.86-.06-.02-2.83-.02-5.65.05-8.46Z"/>
  </g>
  <g id="_x23_5927b0ff">
    <path class="st146" d="M1441.99,439.24c.71,0,2.13.01,2.85.02.01,2.85-.01,5.7-.03,8.56-.69-.01-2.09-.02-2.78-.02-.19-2.86-.21-5.72-.04-8.56Z"/>
  </g>
  <g id="_x23_0051cdff">
    <path class="st31" d="M226.25,454.39c.94.13,1.89.29,2.83.49.22,2.77.12,5.55.1,8.33-.75,0-2.25-.04-3-.05-.05-2.93-.03-5.85.07-8.77Z"/>
  </g>
  <g id="_x23_5a1fb5ff">
    <path class="st98" d="M1441.95,454.65c.73-.02,2.19-.06,2.92-.08-.01,2.92-.01,5.83-.1,8.75-1.36,0-3.52-.27-2.91-2.25-.05-2.14.03-4.28.09-6.42Z"/>
  </g>
  <g id="_x23_007199ff">
    <path class="st65" d="M42.77,466.71c4.52-1.9,9.52-1.37,14.3-1.43,117.99.01,235.97-.02,353.96,0,6.31.05,13.08-.73,18.77,2.63,8.67,4.51,12.54,14.76,12.32,24.1-.33,29.18.19,58.36-.26,87.55,0,2,.01,4.01.06,6.03.26,13.8-.36,27.63.12,41.44-.22,21.33-.24,42.68-.03,64.01-.33,5.75-2.02,11.71-6.13,15.93-4.23,4.68-10.7,6.75-16.89,6.66-63.56-.05-127.13.05-190.69,0-1.52-.01-3.04-.01-4.55.01-11.71-.22-23.43.37-35.12-.24-1.26-.06-2.51-.03-3.75.05-44.62.42-89.26.04-133.89.2-6.23.19-12.6-2.22-16.85-6.82-3.86-4.25-5.18-10.16-5.33-15.75-.02-68.03-.02-136.06-.05-204.1.16-8.7,5.84-17.15,14.01-20.27M43.14,469.02c-6.7,2.41-11.51,8.63-12.61,15.62-.43,1.08-.66,2.19-.69,3.36-.05,24.05,0,48.1-.1,72.15l.62.02c-.08,42.61.04,85.21-.05,127.81-.03,3.7.13,7.51,1.46,11.01,2.14,5.68,7.36,9.83,13.1,11.51,3.93,1.17,8.07.86,12.12.89,120.35.02,240.71,0,361.06-.02,6.85.3,14.11-2.49,17.98-8.36,3.44-4.57,4.31-10.48,3.98-16.05.18-31.66.22-63.35-.06-95.01.49-10.62.1-21.25-.14-31.86l1.01-.32-1.02-.09c.42-19.89.45-39.8.14-59.69.15-7.22,1.1-14.96-2.32-21.63-3.17-6.61-10.41-10.76-17.63-10.91-121.66.02-243.31,0-364.97,0-4.01-.13-8.13-.04-11.88,1.56Z"/>
  </g>
  <g id="_x23_3b129bff">
    <path class="st97" d="M1248.87,465.66c10.34-.75,20.74-.12,31.1-.34,113.67,0,227.34-.02,341.01,0,10.83-.05,20,9.2,21.85,19.5-.52,1.14-1.01,2.29-1.48,3.45-.78-6.21-3.05-12.65-8.29-16.45-3.93-3.19-9.05-4.58-14.05-4.39-121.01.01-242.03-.03-363.04.01-4.41-.14-8.95.53-12.79,2.79-5.74,3.07-9.32,8.95-10.64,15.19-.35.29-1.04.87-1.39,1.16.09-10.13,8.2-18.54,17.72-20.92Z"/>
  </g>
  <g id="_x23_f2fafeff">
    <path class="st43" d="M43.14,469.02c3.75-1.6,7.87-1.69,11.88-1.56,121.66,0,243.31.01,364.97,0,7.22.15,14.46,4.3,17.63,10.91,3.42,6.67,2.47,14.41,2.32,21.63.31,19.89.28,39.8-.14,59.69-41.96-.41-83.93-.05-125.9-.16-94.45-.07-188.91.06-283.36-.03-.09-24.95-.17-49.9-.01-74.85,1.1-6.99,5.91-13.21,12.61-15.62M67.62,488.87c-4.23,1.68-7.53,5.62-8.15,10.18-1.36,7,4.11,14.55,11.37,14.72,8.56,1.05,15.83-8.87,12.68-16.76-1.75-6.6-9.56-10.3-15.9-8.14M94.35,494.54c-8.08,2.67-8.58,15.42-1.03,19.02,6.44,3.66,15.2-2.25,14.51-9.51.61-6.77-7.34-12.37-13.48-9.51M66.51,516.79c-4.54.87-9.01,3.02-11.87,6.75-3.21,4.03-4.35,9.53-3.49,14.56.15,1.53,1.56,2.43,2.88,2.9,11.62,1.77,23.52,1.89,35.14,0,1.43-.37,3.06-1.33,3.27-2.94.56-5.81-.67-12.28-5.13-16.38-5.58-4.98-13.63-6.19-20.8-4.89M89.89,518.2c.6.79,1.2,1.58,1.81,2.38,5.62-1.64,12.37-1.36,16.84,2.83,3.35,2.93,3.84,7.7,3.85,11.89-5.34.34-10.66,1.3-16.04.93-.18.78-.55,2.34-.73,3.13,5.86.26,11.71-.16,17.53-.87.78-.8,1.57-1.61,2.35-2.4.3-5.07-.48-10.61-4.21-14.37-5.58-5.42-14.34-6.26-21.4-3.52Z"/>
  </g>
  <g id="_x23_f8f5fdff">
    <path class="st106" d="M1243.18,470.23c3.84-2.26,8.38-2.93,12.79-2.79,121.01-.04,242.03,0,363.04-.01,5-.19,10.12,1.2,14.05,4.39,5.24,3.8,7.51,10.24,8.29,16.45-.17,23.5-.15,47.01-.06,70.52-102.76.11-205.52,0-308.28.04-33.52.03-67.04-.14-100.56.1.17-24.5-.07-49.01.09-73.51,1.32-6.24,4.9-12.12,10.64-15.19M1255.26,490.98c.03,15.7-.08,31.41.04,47.11-.13,1.9,1.72,3.71,3.64,3.56,6.41.11,12.83,0,19.25-.09-.5-1-1-1.99-1.46-2.97-6.08.16-12.14-.01-18.21.06-.75-5.19-.36-10.43-.37-15.64.26-11.15-.45-22.32.32-33.45,6.67.21,13.34-.08,20.02.04.05,3.42-.36,6.92.37,10.31,2.44,4.06,7.91,1.81,11.79,2.34-.01,2.3-.01,4.62.02,6.93.75-.04,2.26-.12,3.02-.16-.49-3.62,1.47-8.3-1.69-11.02-3.77-3.71-7.4-7.55-11.16-11.25-7.68-.05-15.36-.13-23.03-.12-1.2,1.22-2.9,2.39-2.55,4.35M1264.54,507.59c5.38-.05,10.76.21,16.14-.08.02-.44.04-1.3.06-1.74-5.29-.83-10.65-.7-15.97-.99-.1.93-.17,1.87-.23,2.81M1264.67,512.7c-.04.69-.12,2.08-.16,2.77,4.19-.18,8.4.13,12.59-.24.19-.63.57-1.9.75-2.53-4.4.03-8.79.07-13.18,0M1279.48,517.72c-.18,4.72-.58,9.49-.02,14.2,1.21,6.63,7.07,10.84,12.63,13.83,3.94-2.04,8.07-4.39,10.37-8.34,3.33-5.77,3.07-12.85,2.35-19.22-4.41-1.41-8.77-2.97-12.71-5.42-3.87,2.41-8.07,4.33-12.62,4.95M1264.58,521.3c.01.57.01,1.7.02,2.27,3.35-.02,6.72-.03,10.1-.04-.01-.55-.01-1.65-.01-2.19-3.38-.01-6.75-.04-10.11-.04Z"/>
  </g>
  <g id="_x23_2d91b6ff">
    <path class="st40" d="M29.84,488c.03-1.17.26-2.28.69-3.36-.16,24.95-.08,49.9.01,74.85,94.45.09,188.91-.04,283.36.03,41.97.11,83.94-.25,125.9.16l1.02.09-1.01.32c-46.56.41-93.15.03-139.72.19-89.91-.06-179.82.11-269.73-.11l-.62-.02c.1-24.05.05-48.1.1-72.15Z"/>
    <path class="st40" d="M255.14,847.32c-.1-1.14-1.22-3.24.66-3.41,2.46-.25,4.94-.12,7.41-.1.01.85.04,2.54.06,3.39-2.71-.03-5.43-.01-8.13.12Z"/>
  </g>
  <g id="_x23_391990ff">
    <path class="st118" d="M1641.35,488.27c.47-1.16.96-2.31,1.48-3.45,1.29,2.89.79,6.12.87,9.2,0,56.68-.09,113.36-.06,170.05-.2,10.17.37,20.37-.24,30.53-.76-.87-1.49-1.73-2.21-2.59.17-43.79-.03-87.59.12-131.38-.01-.46-.01-1.38-.02-1.84-.09-23.51-.11-47.02.06-70.52Z"/>
  </g>
  <g id="_x23_5837afff">
    <path class="st151" d="M1255.26,490.98c-.35-1.96,1.35-3.13,2.55-4.35,7.67-.01,15.35.07,23.03.12,3.76,3.7,7.39,7.54,11.16,11.25,3.16,2.72,1.2,7.4,1.69,11.02-.76.04-2.27.12-3.02.16-.03-2.31-.03-4.63-.02-6.93-3.88-.53-9.35,1.72-11.79-2.34-.73-3.39-.32-6.89-.37-10.31-6.68-.12-13.35.17-20.02-.04-.77,11.13-.06,22.3-.32,33.45.01,5.21-.38,10.45.37,15.64,6.07-.07,12.13.1,18.21-.06.46.98.96,1.97,1.46,2.97-6.42.09-12.84.2-19.25.09-1.92.15-3.77-1.66-3.64-3.56-.12-15.7-.01-31.41-.04-47.11M1281.25,491.09c-.1,2.77-.05,5.55.3,8.31,2.5-.03,4.99-.06,7.52-.08-2.57-2.79-5.18-5.52-7.82-8.23Z"/>
  </g>
  <g id="_x23_07799cff">
    <path class="st108" d="M67.62,488.87c6.34-2.16,14.15,1.54,15.9,8.14,3.15,7.89-4.12,17.81-12.68,16.76-7.26-.17-12.73-7.72-11.37-14.72.62-4.56,3.92-8.5,8.15-10.18M68.27,492.26c-7.09,2.75-7.74,13.93-.92,17.37,5.84,3.71,14.23-1.9,13.49-8.66.42-6.29-6.78-11.61-12.57-8.71Z"/>
  </g>
  <g id="_x23_fcfbfdff">
    <path class="st59" d="M1281.25,491.09c2.64,2.71,5.25,5.44,7.82,8.23-2.53.02-5.02.05-7.52.08-.35-2.76-.4-5.54-.3-8.31Z"/>
  </g>
  <g id="_x23_056e96ff">
    <path class="st51" d="M94.35,494.54c6.14-2.86,14.09,2.74,13.48,9.51.69,7.26-8.07,13.17-14.51,9.51-7.55-3.6-7.05-16.35,1.03-19.02M95.35,497.42c-5.1,2.12-5.6,10.28-.83,13.05,3.97,3.07,10.26-.72,10.08-5.53.81-4.82-4.62-9.84-9.25-7.52Z"/>
  </g>
  <g id="_x23_ebf7fcff">
    <path class="st116" d="M95.35,497.42c4.63-2.32,10.06,2.7,9.25,7.52.18,4.81-6.11,8.6-10.08,5.53-4.77-2.77-4.27-10.93.83-13.05Z"/>
  </g>
  <g id="_x23_052a71ff">
    <path class="st7" d="M549.06,501.8c12.76,0,25.53.08,38.3-.17.62,1.8.73,3.71.52,5.61-11.79-.26-23.59,0-35.38-.09,3.87,5.64,7.21,11.61,11.08,17.25-3.81.16-7.61.12-11.41.1.11,14.47.01,28.95.03,43.42.11,6.52-3.45,13.16-9.48,15.94-4.87,2.52-10.47,1.46-15.71,1.62-28.36.1-56.73-.12-85.09.11-.05-2.02-.06-4.03-.06-6.03,30.73.05,61.46-.03,92.2-.02,4.82.26,9.84-2.69,11.24-7.45.66-2.98.76-6.06.89-9.09.1-12.81-.09-25.62.08-38.43-3.79-.02-7.57,0-11.34-.02,4.52-7.7,9.49-15.12,14.13-22.75Z"/>
  </g>
  <g id="_x23_06286dff">
    <path class="st18" d="M1085.46,501.78c12.81.05,25.63-.12,38.45.05,4.55,7.63,9.43,15.06,14.11,22.63-3.83,0-7.64,0-11.46.1.03,14.16-.03,28.31-.02,42.47-.17,3.53,1.23,6.89,3.37,9.65-1.99.75-3.97,1.53-5.92,2.32l-.15.06c-4.33-6.23-3.16-13.99-3.27-21.11-.02-11.13.03-22.27-.05-33.4-3.79.06-7.57.04-11.34-.1,3.96-5.54,7.32-11.49,10.99-17.22-11.74-.12-23.47-.16-35.2.04.18-1.83.36-3.66.49-5.49Z"/>
  </g>
  <g id="_x23_6445b8ff">
    <path class="st87" d="M1264.54,507.59c.06-.94.13-1.88.23-2.81,5.32.29,10.68.16,15.97.99-.02.44-.04,1.3-.06,1.74-5.38.29-10.76.03-16.14.08Z"/>
  </g>
  <g id="_x23_6246b7ff">
    <path class="st70" d="M1264.67,512.7c4.39.07,8.78.03,13.18,0-.18.63-.56,1.9-.75,2.53-4.19.37-8.4.06-12.59.24.04-.69.12-2.08.16-2.77Z"/>
  </g>
  <g id="_x23_5c35b4ff">
    <path class="st158" d="M1279.48,517.72c4.55-.62,8.75-2.54,12.62-4.95,3.94,2.45,8.3,4.01,12.71,5.42.72,6.37.98,13.45-2.35,19.22-2.3,3.95-6.43,6.3-10.37,8.34-5.56-2.99-11.42-7.2-12.63-13.83-.56-4.71-.16-9.48.02-14.2M1282.29,519.99c.01,5.24-1.01,11.04,1.91,15.74,1.8,3.12,5.03,4.94,7.91,6.93,4.39-2.67,8.9-6.28,10.06-11.56.27-3.53-.02-7.07.13-10.59-3.5-1.17-6.77-3-10.26-4.11-3.26,1.19-6.29,3.01-9.75,3.59Z"/>
  </g>
  <g id="_x23_016b91ff">
    <path class="st37" d="M66.51,516.79c7.17-1.3,15.22-.09,20.8,4.89,4.46,4.1,5.69,10.57,5.13,16.38-.21,1.61-1.84,2.57-3.27,2.94-11.62,1.89-23.52,1.77-35.14,0-1.32-.47-2.73-1.37-2.88-2.9-.86-5.03.28-10.53,3.49-14.56,2.86-3.73,7.33-5.88,11.87-6.75M57.55,524.66c-3.22,3.41-3.39,8.42-3.26,12.85,11.5,2.58,23.59,2.42,35.11-.11-.11-2.79.11-5.68-.9-8.35-1.37-4.34-5.29-7.49-9.6-8.65-7.18-2.19-15.91-1.32-21.35,4.26Z"/>
  </g>
  <g id="_x23_066f94ff">
    <path class="st6" d="M89.89,518.2c7.06-2.74,15.82-1.9,21.4,3.52,3.73,3.76,4.51,9.3,4.21,14.37-.78.79-1.57,1.6-2.35,2.4-5.82.71-11.67,1.13-17.53.87.18-.79.55-2.35.73-3.13,5.38.37,10.7-.59,16.04-.93-.01-4.19-.5-8.96-3.85-11.89-4.47-4.19-11.22-4.47-16.84-2.83-.61-.8-1.21-1.59-1.81-2.38Z"/>
  </g>
  <g id="_x23_f8f7fdff">
    <path class="st82" d="M1282.29,519.99c3.46-.58,6.49-2.4,9.75-3.59,3.49,1.11,6.76,2.94,10.26,4.11-.15,3.52.14,7.06-.13,10.59-1.16,5.28-5.67,8.89-10.06,11.56-2.88-1.99-6.11-3.81-7.91-6.93-2.92-4.7-1.9-10.5-1.91-15.74M1287.23,529.01c1.79,1.31,3.52,2.74,4.62,4.72.37-.07,1.12-.22,1.5-.29.08-.65.25-1.95.33-2.6,1.24-.96,3.59-1.8,2.52-3.83-.99-.79-2.11-1.37-3.18-1.97-1.56,1.83-3.64,3.01-5.79,3.97Z"/>
  </g>
  <g id="_x23_f1fafdff">
    <path class="st117" d="M57.55,524.66c5.44-5.58,14.17-6.45,21.35-4.26,4.31,1.16,8.23,4.31,9.6,8.65,1.01,2.67.79,5.56.9,8.35-11.52,2.53-23.61,2.69-35.11.11-.13-4.43.04-9.44,3.26-12.85Z"/>
  </g>
  <g id="_x23_3e1fa0ff">
    <path class="st132" d="M1264.58,521.3c3.36,0,6.73.03,10.11.04,0,.54,0,1.64.01,2.19-3.38,0-6.75.02-10.1.04-.01-.57-.01-1.7-.02-2.27Z"/>
  </g>
  <g id="_x23_6937baff">
    <path class="st133" d="M1287.23,529.01c2.15-.96,4.23-2.14,5.79-3.97,1.07.6,2.19,1.18,3.18,1.97,1.07,2.03-1.28,2.87-2.52,3.83-.08.65-.25,1.95-.33,2.6-.38.07-1.13.22-1.5.29-1.1-1.98-2.83-3.41-4.62-4.72Z"/>
  </g>
  <g id="_x23_0b2b6eff">
    <path class="st23" d="M833.14,527.82c1.98-.02,3.98-.02,5.99.01,0,.74.01,2.23.01,2.97-.09,62.77,0,125.54-.04,188.32-2.01-.09-4.01-.14-6-.05.04-62.62-.04-125.24.05-187.86-.01-.85-.01-2.54-.01-3.39Z"/>
  </g>
  <g id="_x23_052a74ff">
    <path class="st55" d="M1123.99,579c1.95-.79,3.93-1.57,5.92-2.32,2.19,1.39,4.54,2.79,7.22,2.84,31.21.14,62.43-.08,93.65.1-.02,1.97.01,3.95.03,5.93-28.26-.05-56.53.01-84.8-.02-5.08-.14-10.41.72-15.21-1.38-2.73-1.02-4.96-2.96-6.81-5.15Z"/>
  </g>
  <g id="_x23_3f149aff">
    <path class="st76" d="M1641.19,692.01c.72.86,1.45,1.72,2.21,2.59-1.45,5.92-4.45,11.78-9.68,15.18-3.94,2.88-8.91,3.91-13.7,3.78-48.18-.04-96.35.08-144.52-.05-.96-.02-1.89-.02-2.8-.01-8.83-.04-17.67.4-26.47-.16-1.25-.14-2.44-.28-3.66-.2-10.15.91-20.37.2-30.54.4-53.02.07-106.03-.03-159.04.01-5.85-.18-12-2.08-16.04-6.5-3.73-3.8-5.55-9.07-5.98-14.3l1.63.39c.65,3.63,1.88,7.23,4.15,10.2,3.95,5.35,10.72,8.05,17.26,8.1,122.33-.03,244.66.04,367-.06,10.59.24,19.82-8.86,20.18-19.37Z"/>
  </g>
  <g id="_x23_0a89b1ff">
    <path class="st157" d="M184.88,713.45c1.24-.08,2.49-.11,3.75-.05-.31,1.74-.57,3.5-.85,5.27-.63,0-1.9,0-2.53-.01-.16-1.74-.2-3.49-.37-5.21Z"/>
  </g>
  <g id="_x23_0a52d2ff">
    <path class="st16" d="M223.75,713.64c1.51-.02,3.03-.02,4.55-.01.63,3.7,1.16,7.46.61,11.22h-2.62c-.15-3.73-.38-7.6,1.28-11.05-.95-.04-2.86-.12-3.82-.16Z"/>
  </g>
  <g id="_x23_4c22cfff">
    <path class="st95" d="M1442.57,713.14c1.22-.08,2.41.06,3.66.2-.52.13-1.56.4-2.08.54.04,3.57,2.32,8.82-1.44,11.07-1.38-3.87-.3-7.87-.14-11.81Z"/>
  </g>
  <g id="_x23_7b62ebff">
    <path class="st77" d="M1472.7,713.5c.91-.01,1.84-.01,2.8.01-.3,3.32-.31,6.65-.21,9.99-.63-.23-1.88-.68-2.51-.91-.26-3.03-.05-6.06-.08-9.09Z"/>
  </g>
  <g id="_x23_02256eff">
    <path class="st104" d="M833.1,719.07c1.99-.09,3.99-.04,6,.05,4.03.18,8.07.15,12.12.23-4.93,8.33-10.09,16.51-15.21,24.72-5.13-8.23-10.27-16.46-15.3-24.74,4.12-.05,8.25-.05,12.39-.26Z"/>
  </g>
  <g id="_x23_0a7fa6ff">
    <path class="st160" d="M185.17,725.27c.69-.02,2.07-.05,2.77-.07.24,2.74.3,5.49.31,8.25-.83-.01-2.51-.04-3.35-.06.15-2.71.21-5.41.27-8.12Z"/>
  </g>
  <g id="_x23_533edcff">
    <path class="st110" d="M1472.51,730.35c.98-.06,1.98-.11,2.99-.14-.02,2.51.08,5.04-.11,7.57-.96.57-1.9.55-2.8-.06-.19-2.46-.09-4.92-.08-7.37Z"/>
  </g>
  <g id="_x23_0547cfff">
    <path class="st79" d="M226.27,731.09c.61.06,1.84.18,2.45.23,1,2.45.28,5.4.47,8.04-.74-.19-2.23-.58-2.97-.77.03-2.51.03-5.01.05-7.5Z"/>
  </g>
  <g id="_x23_6343d4ff">
    <path class="st69" d="M1442.27,730.83c.53-.08,1.59-.24,2.12-.32.67,2.61.39,5.34.39,8.02-.99-.14-1.96-.28-2.91-.42,0-2.44-.04-4.89.4-7.28Z"/>
  </g>
  <g id="_x23_0a86aeff">
    <path class="st80" d="M185.16,739.7c.65.08,1.94.24,2.59.32.67,2.69.34,5.51.39,8.26h-3.01c0-2.87-.02-5.73.03-8.58Z"/>
  </g>
  <g id="_x23_542bc2ff">
    <path class="st68" d="M1442.43,744.55c.56.02,1.69.06,2.25.07.04,1.99.06,3.98.09,5.98l-2.52.04c-.4-2.04-.68-4.13.18-6.09Z"/>
  </g>
  <g id="_x23_1a5ec8ff">
    <path class="st48" d="M226.26,749.34c-.2-2.12-.5-6.08,2.83-4.61.14,1.61.01,3.25-.12,4.88-.68-.07-2.03-.2-2.71-.27Z"/>
  </g>
  <g id="_x23_644cd4ff">
    <path class="st121" d="M1472.53,745.52c.94-.08,1.9-.15,2.87-.21.03,2.5.08,5,.15,7.52-1.04-.04-2.06-.06-3.06-.08.02-2.42.04-4.83.04-7.23Z"/>
  </g>
  <g id="_x23_0a2f94ff">
    <path class="st159" d="M358.87,750.84c5.13-3.07,11.32-3.39,17.15-3.25,296.67.03,593.35-.02,890.03.02,9.08-.27,18.35,4.97,21.46,13.76,2.85,8.59.87,17.78,1.6,26.63.04,26.33.02,52.66,0,78.99-.15,3.1-.42,6.27-1.47,9.22-3.14,7.86-10.99,13.7-19.59,13.49-299.02.05-598.04-.01-897.06-.01-8.94.31-17.5-5.04-20.89-13.34-1-2.66-1.36-5.53-1.47-8.34-.05-33-.13-66.01.04-99.01.04-7.28,3.91-14.43,10.2-18.16M368.45,750.57c-9.36.71-17.03,9.09-16.98,18.46-.07,32.99-.01,65.97-.01,98.96-.35,7.87,5,15.52,12.48,17.97,5.15,1.85,10.7,1.12,16.06,1.25,295.67.05,591.34.02,887.01.02,10.05.41,19.21-8.19,19.45-18.21.09-31.01.01-62.01.04-93.01.17-5.67.12-11.69-2.95-16.68-3.23-5.9-10.09-8.86-16.6-8.92-198.98.02-397.97.01-596.95,0-100.52.08-201.04-.19-301.55.16Z"/>
  </g>
  <g id="_x23_f0f7feff">
    <path class="st162" d="M368.45,750.57c100.51-.35,201.03-.08,301.55-.16,198.98.01,397.97.02,596.95,0,6.51.06,13.37,3.02,16.6,8.92,3.07,4.99,3.12,11.01,2.95,16.68-.03,31,.05,62-.04,93.01-.24,10.02-9.4,18.62-19.45,18.21-295.67,0-591.34.03-887.01-.02-5.36-.13-10.91.6-16.06-1.25-7.48-2.45-12.83-10.1-12.48-17.97,0-32.99-.06-65.97.01-98.96-.05-9.37,7.62-17.75,16.98-18.46M427.96,788.22c-1.63.64-3.25,1.3-4.86,1.97-2.68-1.77-5.41-6.12-9-4.16-3.17,2.79-6.15,5.87-8.84,9.13-.9,3.48,2.77,5.89,4.36,8.59-.94,1.75-1.77,3.56-2.55,5.4-2.33.2-4.84-.18-7.03.77-3.36,2.19-1.97,6.72-2.3,10.07.27,2.34-.78,5.36,1.28,7.12,2.11,2.06,5.4,1.07,8.07,1.49.71,1.9,1.46,3.79,2.32,5.64-1.71,2.52-4.12,4.8-4.74,7.89,2.76,3.98,6.45,7.36,10.21,10.41,3.33.22,5.36-2.94,7.74-4.75,1.75.85,3.56,1.61,5.41,2.24.41,3.18-.73,8.18,3.29,9.41,4.04.22,8.12.27,12.16-.06,3.64-1.18,2.85-5.89,3.21-8.85,1.75-.87,3.53-1.69,5.31-2.52,2.45,1.73,4.59,5.07,7.94,4.59,3.51-2.88,6.69-6.25,9.65-9.68.87-3.58-2.79-5.99-4.44-8.72.91-1.86,1.75-3.75,2.58-5.64,2.98-.24,7.52.66,8.76-2.92.26-4.51.26-9.06.04-13.57-1.22-3.72-5.87-2.66-8.87-3-.84-1.77-1.7-3.53-2.62-5.25,1.52-2.86,6.03-5.49,4.29-9.09-2.9-3.19-5.91-6.37-9.28-9.07-3.5-.48-5.79,2.82-8.33,4.67-1.59-.75-3.25-1.35-4.75-2.26-.76-3.09.23-7.34-3.03-9.21-4.27-.56-8.66-.42-12.96-.19-3.22,2.02-2.49,6.33-3.02,9.55M550.42,806.19c-.11,3.11-.13,6.23-.12,9.36-3.97.01-7.94.02-11.91-.04-.02,1.44-.04,2.89-.04,4.35,3.97-.07,7.94-.11,11.91-.13.04,3.28.03,6.57.06,9.87,2.49-1.69,5-3.36,7.51-5.03,3.35-2.21,6.65-4.51,10.04-6.67-2.89-1.92-5.72-3.92-8.71-5.67l.08-.26c-3.05-1.76-5.94-3.78-8.82-5.78M1225.85,807.2c0,3.15-.01,6.32.02,9.48-4.01-.04-8.01-.01-12.01.03-.03,1.35-.05,2.71-.06,4.08,3.99.34,8,.45,12.01.4-.01,3.19,0,6.4.03,9.61,5.86-4.05,11.85-7.9,17.77-11.85-5.83-4.06-11.9-7.75-17.76-11.75M491.51,815.5c-.03,1.45-.06,2.92-.07,4.4,2.36.36,4.77.3,7.13-.09-.05-1.45-.1-2.87-.14-4.3-2.31,0-4.62-.01-6.92-.01M506.63,815.59c-.03,1.4-.06,2.8-.08,4.21,2.65,0,5.31-.01,7.97-.01-.02-1.43-.02-2.85-.02-4.26-2.63.03-5.25.04-7.87.06M522.38,815.53c.04,1.56.1,3.15.18,4.73,2.68-.03,5.37-.13,8.04-.45-.04-1.44-.07-2.87-.09-4.29-2.72,0-5.43,0-8.13.01M1181.73,816.62c.01,1.5.03,3.01.07,4.53,2.64,0,5.28,0,7.93.04.03-1.54.07-3.07.11-4.58-2.71-.01-5.41-.03-8.11.01M1197.77,816.69c.29,1.38-.79,3.59.66,4.43,2.46.21,4.93.04,7.41.04-.03-1.51-.04-3-.05-4.48-2.69-.01-5.36-.02-8.02.01M1166.55,816.65c-.01,1.51,0,3.03.03,4.56,2.35-.03,4.71-.05,7.1-.05,0-1.5.03-3,.06-4.49-2.41-.01-4.8-.02-7.19-.02Z"/>
  </g>
  <g id="_x23_0486afff">
    <path class="st154" d="M185.19,754.57c.55.04,1.67.13,2.22.17,1.46,2.63.53,5.8.43,8.65-.68-.03-2.02-.07-2.7-.1-.04-2.91-.03-5.82.05-8.72Z"/>
  </g>
  <g id="_x23_0e57ccff">
    <path class="st112" d="M226.39,756.49c.6-.03,1.8-.11,2.4-.15.58,3.98.35,8.01.38,12.03-.96.01-1.91.03-2.87.06-.07-3.98-.28-7.97.09-11.94Z"/>
  </g>
  <g id="_x23_5b36c3ff">
    <path class="st92" d="M1442.21,758.28c.62.02,1.86.06,2.48.08.08,2.76.11,5.53.08,8.3-.65.03-1.94.08-2.59.11-.38-2.83-.35-5.67.03-8.49Z"/>
  </g>
  <g id="_x23_4e3bd7ff">
    <path class="st150" d="M1472.5,760.31c.98-.05,1.98-.08,3.01-.08-.04,2.72-.07,5.46-.1,8.2-.98-.03-1.95-.05-2.89-.06-.02-2.7-.03-5.38-.02-8.06Z"/>
  </g>
  <g id="_x23_0783acff">
    <path class="st111" d="M185.18,769.84c.66-.04,1.98-.12,2.64-.16.35,2.88.4,5.79.13,8.69-.7-.02-2.1-.06-2.8-.07,0-2.83,0-5.65.03-8.46Z"/>
  </g>
  <g id="_x23_5929bfff">
    <path class="st103" d="M1442.36,774.08c.62.03,1.86.1,2.48.13.05,2.97-.08,5.96-.8,8.86-1.06-.3-2.09-.59-3.11-.88.72-2.66,1.12-5.39,1.43-8.11Z"/>
  </g>
  <g id="_x23_634ee5ff">
    <path class="st163" d="M1472.79,774.97c.53-.1,1.58-.29,2.11-.39-1.16,4.3,1.18,8.49.41,12.86-.64-.06-1.93-.17-2.58-.23-1.23-4.17,1.65-8.18.06-12.24Z"/>
  </g>
  <g id="_x23_1c67d1ff">
    <path class="st53" d="M225.98,775.62c.74-.03,2.21-.09,2.95-.11.08,2.91.88,5.71,1.96,8.41-.56.43-1.68,1.28-2.24,1.71-2.04-2.95-2.45-6.53-2.67-10.01Z"/>
  </g>
  <g id="_x23_06328dff">
    <path class="st113" d="M427.96,788.22c.53-3.22-.2-7.53,3.02-9.55,4.3-.23,8.69-.37,12.96.19,3.26,1.87,2.27,6.12,3.03,9.21,1.5.91,3.16,1.51,4.75,2.26,2.54-1.85,4.83-5.15,8.33-4.67,3.37,2.7,6.38,5.88,9.28,9.07,1.74,3.6-2.77,6.23-4.29,9.09.92,1.72,1.78,3.48,2.62,5.25,3,.34,7.65-.72,8.87,3,.22,4.51.22,9.06-.04,13.57-1.24,3.58-5.78,2.68-8.76,2.92-.83,1.89-1.67,3.78-2.58,5.64,1.65,2.73,5.31,5.14,4.44,8.72-2.96,3.43-6.14,6.8-9.65,9.68-3.35.48-5.49-2.86-7.94-4.59-1.78.83-3.56,1.65-5.31,2.52-.36,2.96.43,7.67-3.21,8.85-4.04.33-8.12.28-12.16.06-4.02-1.23-2.88-6.23-3.29-9.41-1.85-.63-3.66-1.39-5.41-2.24-2.38,1.81-4.41,4.97-7.74,4.75-3.76-3.05-7.45-6.43-10.21-10.41.62-3.09,3.03-5.37,4.74-7.89-.86-1.85-1.61-3.74-2.32-5.64-2.67-.42-5.96.57-8.07-1.49-2.06-1.76-1.01-4.78-1.28-7.12.33-3.35-1.06-7.88,2.3-10.07,2.19-.95,4.7-.57,7.03-.77.78-1.84,1.61-3.65,2.55-5.4-1.59-2.7-5.26-5.11-4.36-8.59,2.69-3.26,5.67-6.34,8.84-9.13,3.59-1.96,6.32,2.39,9,4.16,1.61-.67,3.23-1.33,4.86-1.97M432.39,782.36c-.42,2.84-.81,5.7-1.19,8.56-2.87.95-5.67,2.11-8.35,3.5-2.44-1.52-4.7-3.29-6.86-5.15-2.22,2.46-4.6,4.78-7.08,6.99,1.62,2.3,3.28,4.56,4.93,6.84-1.62,2.97-3.05,6.05-4.22,9.23-2.65.3-5.28.69-7.91,1.09-.04,3.64-.02,7.28.04,10.93,2.69.22,5.36.65,8.01,1.15,1.02,3.01,2.25,5.96,3.88,8.7-1.41,2.34-3.15,4.48-4.51,6.86-.13,1.45,1.65,2.23,2.38,3.35,1.53,1.41,3,2.9,4.44,4.41,2.22-1.86,4.34-3.95,7.03-5.1,2.63,1.6,5.5,2.73,8.35,3.87.23,2.69.56,5.38.9,8.07,3.42,0,6.83,0,10.25-.02.29-2.93.62-5.85,1.28-8.71,2.98-.66,5.84-1.83,8.45-3.42,2.31,1.67,4.57,3.41,6.68,5.34,2.28-2.65,4.93-4.95,7.15-7.65-1.75-2.1-3.38-4.3-5.05-6.44,1.28-3.09,2.67-6.13,3.81-9.26,2.63-.68,5.32-.96,8.02-1.09.06-3.69.03-7.37,0-11.05-2.63-.25-5.26-.6-7.87-.95-1.05-3.44-3.27-6.45-3.89-10.01l.78-.3c1.32-1.81,2.65-3.61,4.05-5.35-2.29-2.53-4.62-5.01-6.93-7.5-1.17.93-2.33,1.88-3.46,2.87-1.16.72-2.32,1.45-3.47,2.19-2.79-1.37-5.77-2.3-8.52-3.73-.61-2.72-.79-5.5-1.04-8.25-3.36.03-6.72.03-10.08.03Z"/>
  </g>
  <g id="_x23_0753bfff">
    <path class="st58" d="M329.19,781.52c5.86,3.67,11.87,7.09,17.83,10.6-2.66,1.68-5.39,3.27-8.14,4.8-1-.69-1.99-1.37-2.98-2.04-1.19.46-2.39.89-3.57,1.36-.58-.78-1.15-1.55-1.75-2.28-.56-.2-1.68-.61-2.24-.81-.33-1.62.75-2.47,2.15-3.01-.56-2.86-1.01-5.73-1.3-8.62Z"/>
  </g>
  <g id="_x23_f5f8fdff">
    <path class="st52" d="M432.39,782.36c3.36,0,6.72,0,10.08-.03.25,2.75.43,5.53,1.04,8.25,2.75,1.43,5.73,2.36,8.52,3.73,1.15-.74,2.31-1.47,3.47-2.19-.05,3.82-4.08,5.81-7.46,5.92-7.42.75-14.15-4.07-21.55-3.3-2.03.66-5.08,1.36-5.44,3.83,2.75,1.47,5.66,2.64,8.39,4.15-4.88,2.77-8.67,7.63-9.54,13.25-1.12,6.07,1.45,12.35,5.77,16.61-4.89,3.71-10.56,6.7-14.16,11.83-.73-1.12-2.51-1.9-2.38-3.35,1.36-2.38,3.1-4.52,4.51-6.86-1.63-2.74-2.86-5.69-3.88-8.7-2.65-.5-5.32-.93-8.01-1.15-.06-3.65-.08-7.29-.04-10.93,2.63-.4,5.26-.79,7.91-1.09,1.17-3.18,2.6-6.26,4.22-9.23-1.65-2.28-3.31-4.54-4.93-6.84,2.48-2.21,4.86-4.53,7.08-6.99,2.16,1.86,4.42,3.63,6.86,5.15,2.68-1.39,5.48-2.55,8.35-3.5.38-2.86.77-5.72,1.19-8.56Z"/>
  </g>
  <g id="_x23_5d3eb6ff">
    <path class="st81" d="M1290.66,792.42c5.54-4.24,12.04-7.09,17.81-11.05-.36,3.55-1.36,7.04-1.36,10.64-.06,3.57.86,7.04,1.37,10.56-6-3.28-11.8-6.92-17.82-10.15Z"/>
  </g>
  <g id="_x23_027aa3ff">
    <path class="st135" d="M185.18,785.16c.73.02,2.18.07,2.91.09.12,2.77.1,5.56-.15,8.34-.7-.02-2.09-.08-2.79-.1,0-2.79,0-5.56.03-8.33Z"/>
  </g>
  <g id="_x23_5328b4ff">
    <path class="st67" d="M1431.54,790.21c2.94.13,5.77-4.94,8.21-1.88-.67,2.87-4.54,3.59-6.81,4.97-.49-1.04-.95-2.07-1.4-3.09Z"/>
    <path class="st67" d="M1417.61,790.61c2.74-.02,5.49-.05,8.24-.08-.01,1.04-.01,2.1.01,3.17-2.71-.05-5.41-.06-8.1,0-.04-.77-.11-2.32-.15-3.09Z"/>
  </g>
  <g id="_x23_094fc2ff">
    <path class="st144" d="M233.58,790.76c.7-.86,1.41-1.7,2.13-2.52,2.8,1.45,5.85,2.42,9.04,2.41-.07.96-.13,1.92-.19,2.9-3.93.42-7.59-.99-10.98-2.79Z"/>
  </g>
  <g id="_x23_1154cfff">
    <path class="st47" d="M251.98,790.54c2.84.04,5.67.04,8.51,0-.03,1.03-.06,2.07-.08,3.12-2.78-.02-5.57.13-8.34-.03-.24-1.02-.27-2.04-.09-3.09Z"/>
  </g>
  <g id="_x23_0a4bc1ff">
    <path class="st153" d="M267.46,790.52c2.78.01,5.55.04,8.33.06-.04,1.02-.07,2.07-.1,3.12-2.75-.05-5.5-.05-8.24-.04,0-1.06,0-2.11,0-3.14Z"/>
  </g>
  <g id="_x23_0d4ccdff">
    <path class="st147" d="M283.16,790.52c2.76.04,5.53.09,8.29.17-.07.65-.23,1.95-.3,2.6-2.62.57-5.34.32-8,.44,0-1.08,0-2.15.01-3.21Z"/>
  </g>
  <g id="_x23_0d4dc7ff">
    <path class="st124" d="M298.37,790.55c2.8,0,5.61.01,8.42.02-.06,1.03-.11,2.06-.16,3.11-2.75-.01-5.49,0-8.23.05-.02-1.07-.03-2.13-.03-3.18Z"/>
  </g>
  <g id="_x23_0b56c1ff">
    <path class="st19" d="M314.24,790.53c2.83,0,5.66.05,8.5.11-.06.93-.12,1.88-.17,2.84-2.77.08-5.53.15-8.29.24-.02-1.08-.04-2.14-.04-3.19Z"/>
  </g>
  <g id="_x23_e9f3fdff">
    <path class="st75" d="M455.5,792.12c1.13-.99,2.29-1.94,3.46-2.87,2.31,2.49,4.64,4.97,6.93,7.5-1.4,1.74-2.73,3.54-4.05,5.35l-.78.3c-3.59,1.16-6.63,3.42-9.57,5.71-4.85-6.88-14.56-9.19-22.05-5.39-2.73-1.51-5.64-2.68-8.39-4.15.36-2.47,3.41-3.17,5.44-3.83,7.4-.77,14.13,4.05,21.55,3.3,3.38-.11,7.41-2.1,7.46-5.92Z"/>
    <path class="st75" d="M411.51,844.41c3.6-5.13,9.27-8.12,14.16-11.83,2.84,2.39,6.32,3.83,9.93,4.61-.37.39-1.09,1.15-1.46,1.54,1.32.31,2.65.63,3.98.95-5.51-.97-10.29,1.97-15.14,4.04-2.69,1.15-4.81,3.24-7.03,5.1-1.44-1.51-2.91-3-4.44-4.41Z"/>
  </g>
  <g id="_x23_6333b9ff">
    <path class="st60" d="M1311.58,790.66c2.69-.09,5.4-.26,8.12-.05.75.92.79,1.91.11,2.97-2.62.22-5.24.1-7.84.13-.1-.76-.29-2.29-.39-3.05Z"/>
  </g>
  <g id="_x23_4f26aaff">
    <path class="st142" d="M1327.12,790.47c2.8.06,5.62.1,8.44.23-.19.71-.57,2.12-.76,2.83-2.6.27-5.23.26-7.82.08-.06-1.06-.01-2.11.14-3.14Z"/>
  </g>
  <g id="_x23_5c32baff">
    <path class="st88" d="M1342.34,790.57c2.69.02,5.4.04,8.11.06-.03.98-.04,1.97-.03,2.98-2.7-.01-5.39.03-8.06.1-.03-1.06-.03-2.1-.02-3.14Z"/>
  </g>
  <g id="_x23_542cb3ff">
    <path class="st102" d="M1357.57,790.64c2.7-.02,5.42-.04,8.14-.05-.05,1.03-.08,2.07-.08,3.13-2.72-.04-5.42-.05-8.12-.05,0-1.02.02-2.03.06-3.03Z"/>
  </g>
  <g id="_x23_4f2aaeff">
    <path class="st119" d="M1372.65,790.57c2.7,0,5.4,0,8.12.02-.05,1.03-.08,2.08-.09,3.13-2.73-.03-5.44-.05-8.15-.07.03-.77.09-2.31.12-3.08Z"/>
  </g>
  <g id="_x23_4f27adff">
    <path class="st138" d="M1387.6,790.62c2.67-.03,5.35-.17,8.05-.01.44,1,.51,2.06.21,3.17-2.71-.08-5.41,0-8.08-.26-.05-.72-.14-2.17-.18-2.9Z"/>
  </g>
  <g id="_x23_522ab5ff">
    <path class="st107" d="M1402.6,790.52c2.72.01,5.46.04,8.21.06-.02,1.02-.01,2.06,0,3.1-2.7-.01-5.4.13-8.06-.15-.04-.75-.12-2.26-.16-3.01Z"/>
  </g>
  <g id="_x23_0443adff">
    <path class="st72" d="M330.58,793.96c.6.73,1.17,1.5,1.75,2.28,1.18-.47,2.38-.9,3.57-1.36.99.67,1.98,1.35,2.98,2.04-3.17,1.95-6.38,3.85-9.7,5.54.29-2.86.79-5.7,1.4-8.5Z"/>
  </g>
  <g id="_x23_533dd8ff">
    <path class="st122" d="M1472.52,794.32c.95-.04,1.91-.08,2.91-.09-.01,2.77.02,5.54.07,8.32-1.03-.03-2.04-.05-3.02-.05.04-2.73.06-5.46.04-8.18Z"/>
  </g>
  <g id="_x23_0581a7ff">
    <path class="st33" d="M185.17,800.36c.67-.02,2-.05,2.66-.07.3,2.78.34,5.59.12,8.39-.73-.03-2.2-.07-2.93-.09.08-2.75.12-5.49.15-8.23Z"/>
  </g>
  <g id="_x23_072f83ff">
    <path class="st74" d="M429.44,802.72c7.49-3.8,17.2-1.49,22.05,5.39,3.9,5.71,4.9,13.54,1.18,19.61-3.24,6.24-10.16,9.7-17.07,9.47-3.61-.78-7.09-2.22-9.93-4.61-4.32-4.26-6.89-10.54-5.77-16.61.87-5.62,4.66-10.48,9.54-13.25M432.37,805.55c-6.74,2.52-10.72,10.59-8.46,17.45,1.38,5.95,7.23,9.77,13.03,10.47,8.69.1,16.13-8.92,14.09-17.45-1.46-8.06-10.95-13.87-18.66-10.47Z"/>
  </g>
  <g id="_x23_f1f7fdff">
    <path class="st148" d="M451.49,808.11c2.94-2.29,5.98-4.55,9.57-5.71.62,3.56,2.84,6.57,3.89,10.01,2.61.35,5.24.7,7.87.95.03,3.68.06,7.36,0,11.05-2.7.13-5.39.41-8.02,1.09-1.14,3.13-2.53,6.17-3.81,9.26,1.67,2.14,3.3,4.34,5.05,6.44-2.22,2.7-4.87,5-7.15,7.65-2.11-1.93-4.37-3.67-6.68-5.34-2.61,1.59-5.47,2.76-8.45,3.42-.66,2.86-.99,5.78-1.28,8.71-3.42.02-6.83.02-10.25.02-.34-2.69-.67-5.38-.9-8.07-2.85-1.14-5.72-2.27-8.35-3.87,4.85-2.07,9.63-5.01,15.14-4.04-1.33-.32-2.66-.64-3.98-.95.37-.39,1.09-1.15,1.46-1.54,6.91.23,13.83-3.23,17.07-9.47,3.72-6.07,2.72-13.9-1.18-19.61Z"/>
  </g>
  <g id="_x23_063a94ff">
    <path class="st30" d="M550.42,806.19c2.88,2,5.77,4.02,8.82,5.78l-.08.26c-1.1,4.03-3.73,8.25-1.33,12.34-2.51,1.67-5.02,3.34-7.51,5.03-.03-3.3-.02-6.59-.06-9.87-3.97.02-7.94.06-11.91.13,0-1.46.02-2.91.04-4.35,3.97.06,7.94.05,11.91.04-.01-3.13.01-6.25.12-9.36Z"/>
  </g>
  <g id="_x23_033890ff">
    <path class="st38" d="M1225.85,807.2c5.86,4,11.93,7.69,17.76,11.75-5.92,3.95-11.91,7.8-17.77,11.85-.02-3.21-.04-6.42-.03-9.61-4.01.05-8.02-.06-12.01-.4.01-1.37.03-2.73.06-4.08,4-.04,8-.07,12.01-.03-.03-3.16-.02-6.33-.02-9.48Z"/>
  </g>
  <g id="_x23_563fdbff">
    <path class="st36" d="M1472.56,809.6c.93-.03,1.88-.05,2.85-.06.04,2.99.06,5.99.11,8.99-1.04-.04-2.06-.06-3.06-.07.04-2.96.06-5.91.1-8.86Z"/>
  </g>
  <g id="_x23_053486ff">
    <path class="st101" d="M557.83,824.57c-2.4-4.09.23-8.31,1.33-12.34,2.99,1.75,5.82,3.75,8.71,5.67-3.39,2.16-6.69,4.46-10.04,6.67Z"/>
  </g>
  <g id="_x23_1088acff">
    <path class="st57" d="M185.2,815.43h2.57c.31,2.76.42,5.55.23,8.33-.74-.01-2.22-.02-2.96-.03.04-2.77.08-5.54.16-8.3Z"/>
  </g>
  <g id="_x23_103a96ff">
    <path class="st129" d="M506.63,815.59c2.62-.02,5.24-.03,7.87-.06,0,1.41,0,2.83.02,4.26-2.66,0-5.32.01-7.97.01.02-1.41.05-2.81.08-4.21Z"/>
  </g>
  <g id="_x23_0c3184ff">
    <path class="st126" d="M522.38,815.53c2.7-.01,5.41-.01,8.13-.01.02,1.42.05,2.85.09,4.29-2.67.32-5.36.42-8.04.45-.08-1.58-.14-3.17-.18-4.73Z"/>
  </g>
  <g id="_x23_0e3890ff">
    <path class="st35" d="M1181.73,816.62c2.7-.04,5.4-.02,8.11-.01-.04,1.51-.08,3.04-.11,4.58-2.65-.03-5.29-.03-7.93-.04-.04-1.52-.06-3.03-.07-4.53Z"/>
  </g>
  <g id="_x23_143e99ff">
    <path class="st136" d="M1197.77,816.69c2.66-.03,5.33-.02,8.02-.01.01,1.48.02,2.97.05,4.48-2.48,0-4.95.17-7.41-.04-1.45-.84-.37-3.05-.66-4.43Z"/>
  </g>
  <g id="_x23_0a3790ff">
    <path class="st34" d="M1166.55,816.65c2.39,0,4.78,0,7.19.02-.03,1.49-.05,2.99-.06,4.49-2.39,0-4.75.02-7.1.05-.03-1.53-.04-3.05-.03-4.56Z"/>
  </g>
  <g id="_x23_5a40ddff">
    <path class="st140" d="M1471.46,834.17c.71-2.82,1.14-5.69,1.24-8.59.7,0,2.09-.01,2.78-.01.01,3.18-.33,6.37-1.39,9.4-.66-.2-1.97-.6-2.63-.8Z"/>
  </g>
  <g id="_x23_0a89a8ff">
    <path class="st134" d="M185.3,830.35c.5-.24,1.5-.71,1.99-.95,1.43,2.3,1.86,5.03,2.81,7.54-.6.46-1.78,1.37-2.38,1.83-1.24-2.6-3.01-5.47-2.42-8.42Z"/>
  </g>
  <g id="_x23_0b8db5ff">
    <path class="st21" d="M329.16,834.89c5.87,3.46,11.68,7.03,17.61,10.39-1.26,1.01-2.6,1.93-4,2.75-3.52-1.41-7.69-.97-10.81-3.32-.27.34-.8,1.03-1.06,1.38-.2-3.8-1.35-7.43-1.74-11.2Z"/>
  </g>
  <g id="_x23_5e4ad0ff">
    <path class="st94" d="M1290.69,845.2c5.82-3.45,11.74-6.73,17.59-10.14-.14,3.42-1.2,6.68-1.99,9.99.32,3.68,2.06,7.16,2.03,10.94-5.72-3.87-12.13-6.63-17.63-10.79Z"/>
  </g>
  <g id="_x23_5638e0ff">
    <path class="st123" d="M1467.77,839.48c.37.05,1.11.15,1.48.2.15.52.46,1.56.61,2.08-2.2,2.12-4.9,3.56-7.83,4.32-.3-.82-.57-1.63-.82-2.43,2.4-1.02,4.68-2.34,6.56-4.17Z"/>
    <path class="st123" d="M1431.49,843.76c2.56.02,5.13.04,7.72.04.14.96.29,1.94.45,2.92-2.79.5-5.6.16-8.39,0,.05-1,.12-1.98.22-2.96Z"/>
  </g>
  <g id="_x23_0184aaff">
    <path class="st3" d="M192.65,843.87c.66-.93,1.35-1.82,2.01-2.73,2.12,1.39,4.48,2.37,7,2.73-.28.93.08,2.24-.84,2.89-2.98,0-5.61-1.56-8.17-2.89Z"/>
  </g>
  <g id="_x23_452edbff">
    <path class="st56" d="M1324.63,843.73c2.52.03,5.05.05,7.59.07.09.94.2,1.9.32,2.87-3.03.73-6.35,1.1-9.21-.34.32-.65.97-1.95,1.3-2.6Z"/>
  </g>
  <g id="_x23_007ba9ff">
    <path class="st64" d="M208.56,844.21c2.78-.03,5.56-.02,8.34,0,.01.65.03,1.95.04,2.59-2.81-.01-5.61-.01-8.41-.02,0-.64.02-1.93.03-2.57Z"/>
  </g>
  <g id="_x23_0076a2ff">
    <path class="st161" d="M224.1,844.29c1.97-.11,3.93-.29,5.89-.41,2.04-.83,2.44,1.55,2.43,2.93-2.79-.02-5.57-.04-8.36-.05.01-.62.03-1.85.04-2.47Z"/>
  </g>
  <g id="_x23_0075a2ff">
    <path class="st86" d="M239.35,844.21c2.82,0,5.65,0,8.47.03-.24,1.08.21,2.96-1.53,2.81-2.3-.11-4.6-.29-6.9-.35,0-.62-.03-1.86-.04-2.49Z"/>
  </g>
  <g id="_x23_007eb0ff">
    <path class="st1" d="M270.27,844.18c2.76.04,5.52.05,8.28.05v2.55c-2.77-.02-5.53-.01-8.29.02,0-.65,0-1.96,0-2.62Z"/>
  </g>
  <g id="_x23_0081b3ff">
    <path class="st44" d="M285.65,844.36c3.1.46,8.41-2.6,9.08,2.16-3.02.34-6.06.3-9.08.2v-2.36Z"/>
  </g>
  <g id="_x23_0074a4ff">
    <path class="st125" d="M301.13,844.35c.7-.12,2.08-.36,2.77-.47,1.9.23,3.81.34,5.73.39,0,.64-.01,1.9-.01,2.53-2.78,0-5.55.01-8.32.03-.04-.62-.12-1.86-.17-2.48Z"/>
  </g>
  <g id="_x23_0080acff">
    <path class="st128" d="M316.53,844.17c2.71.03,5.43.04,8.14.03-.01.65-.04,1.96-.05,2.61-2.7-.03-5.4-.03-8.1,0,0-.66.01-1.98.01-2.64Z"/>
  </g>
  <g id="_x23_067ba2ff">
    <path class="st105" d="M331.96,844.71c3.12,2.35,7.29,1.91,10.81,3.32-4.46,2.75-9.07,5.26-13.53,8.02.2-3.38,1.01-6.66,1.66-9.96.26-.35.79-1.04,1.06-1.38Z"/>
  </g>
  <g id="_x23_5135d4ff">
    <path class="st131" d="M1309.13,844.2c2.6.03,5.2.05,7.82.06-.01.64-.04,1.91-.06,2.55-2.59-.03-5.18-.05-7.75-.04,0-.64-.01-1.93-.01-2.57Z"/>
  </g>
  <g id="_x23_4e36d9ff">
    <path class="st27" d="M1339.18,844.19c2.76.01,5.54.04,8.32.07,0,.63-.02,1.88-.02,2.5-2.78,0-5.55.03-8.3.09v-2.66Z"/>
  </g>
  <g id="_x23_4f3addff">
    <path class="st78" d="M1354.51,844.26c2.72.01,5.45-.01,8.19-.04.01.65.01,1.96.01,2.61-2.75-.03-5.49-.05-8.21-.07,0-.62.01-1.88.01-2.5Z"/>
  </g>
  <g id="_x23_4930d8ff">
    <path class="st99" d="M1369.74,844.47c2.81-.44,5.71-.39,8.54-.02.04.58.11,1.73.15,2.3-2.96.03-5.9.03-8.84.03.04-.58.12-1.73.15-2.31Z"/>
  </g>
  <g id="_x23_4b31daff">
    <path class="st22" d="M1385.3,844.23c2.72.02,5.46.04,8.21.07,0,.61-.02,1.85-.02,2.46-2.73-.01-5.45-.02-8.16,0-.01-.63-.03-1.9-.03-2.53Z"/>
  </g>
  <g id="_x23_4a2ddaff">
    <path class="st5" d="M1400.47,844.28c2.74-.05,5.49-.05,8.25-.06v2.59c-2.72-.04-5.44-.07-8.15-.08-.02-.61-.07-1.84-.1-2.45Z"/>
  </g>
  <g id="_x23_4f35e0ff">
    <path class="st85" d="M1415.77,844.22c2.88.01,5.8-.14,8.68.33-.11.53-.32,1.59-.43,2.12-2.74.19-5.47.08-8.19.1-.02-.64-.05-1.91-.06-2.55Z"/>
  </g>
  <g id="_x23_533ae0ff">
    <path class="st120" d="M1446.49,844.17c2.71,0,5.43.01,8.17.01.02.65.05,1.94.07,2.59-2.74-.01-5.47,0-8.19.03-.01-.66-.04-1.97-.05-2.63Z"/>
  </g>
  <g id="_x23_c1d5f6ff">
    <path class="st25" d="M350.1,876.35c3.39,8.3,11.95,13.65,20.89,13.34,299.02,0,598.04.06,897.06.01,8.6.21,16.45-5.63,19.59-13.49,1.87,2.69.49,5.91-1.32,8.2-3,3.78-7.22,7.33-12.35,7.03-106.65.25-213.3.03-319.95.11-195.35.01-390.71-.01-586.07-.07-3.34-.19-6.89.01-10-1.39-3.2-2.1-5.98-4.98-7.77-8.37-1.08-1.68-.92-3.65-.08-5.37Z"/>
  </g>
  <g id="editable_text_times_new_roman">
    <text class="st9" transform="translate(147 91)"><tspan x="0" y="0">Compliance Scope</tspan></text>
    <text class="st8" transform="translate(63 172)"><tspan x="0" y="0" xml:space="preserve">•  pipeline_goal</tspan></text>
    <text class="st8" transform="translate(63 216)"><tspan x="0" y="0" xml:space="preserve">•  compliance_targets</tspan></text>
    <text class="st8" transform="translate(63 259)"><tspan x="0" y="0" xml:space="preserve">•  risk_goals</tspan></text>
    <text class="st8" transform="translate(696.17 201)"><tspan x="0" y="0">forming unified rule layer</tspan></text>
    <text class="st13" transform="translate(1321.15 88.16)"><tspan x="0" y="0">Classification Policy</tspan></text>
    <text class="st8" transform="translate(1262 172)"><tspan x="0" y="0" xml:space="preserve">•  sensitivity_levels</tspan></text>
    <text class="st8" transform="translate(1262 216)"><tspan x="0" y="0" xml:space="preserve">•  source_types</tspan></text>
    <text class="st8" transform="translate(1262 259)"><tspan x="0" y="0" xml:space="preserve">•  pii_rules</tspan></text>
    <text class="st14" transform="translate(335.79 365)"><tspan x="0" y="0">control objectives</tspan></text>
    <text class="st14" transform="translate(342.73 397)"><tspan x="0" y="0">drive processing</tspan></text>
    <text class="st14" transform="translate(381.27 429)"><tspan x="0" y="0">behavior</tspan></text>
    <text class="st14" transform="translate(1119.1 365)"><tspan x="0" y="0">rules defined</tspan></text>
    <text class="st14" transform="translate(1128.13 397)"><tspan x="0" y="0">before data</tspan></text>
    <text class="st14" transform="translate(1130.54 429)"><tspan x="0" y="0">processing</tspan></text>
    <text class="st10" transform="translate(598.39 417)"><tspan x="0" y="0">Privacy Specification Layer</tspan></text>
    <text class="st10" transform="translate(679.84 478)"><tspan x="0" y="0">Rules Before Data</tspan></text>
    <text class="st12" transform="translate(147 532)"><tspan x="0" y="0">Access Policy</tspan></text>
    <text class="st8" transform="translate(63 598)"><tspan x="0" y="0" xml:space="preserve">•  roles</tspan></text>
    <text class="st8" transform="translate(63 641)"><tspan x="0" y="0" xml:space="preserve">•  permissions</tspan></text>
    <text class="st8" transform="translate(63 684)"><tspan x="0" y="0" xml:space="preserve">•  access_boundaries</tspan></text>
    <text class="st15" transform="translate(1307.01 529.34)"><tspan x="0" y="0">Privacy Rules (PII Rules)</tspan></text>
    <text class="st8" transform="translate(1262 591)"><tspan x="0" y="0" xml:space="preserve">•  mask</tspan></text>
    <text class="st8" transform="translate(1262 618)"><tspan x="0" y="0" xml:space="preserve">•  tokenize</tspan></text>
    <text class="st8" transform="translate(1262 645)"><tspan x="0" y="0" xml:space="preserve">•  remove</tspan></text>
    <text class="st8" transform="translate(1262 672)"><tspan x="0" y="0" xml:space="preserve">•  field patterns</tspan></text>
    <text class="st14" transform="translate(875 608)"><tspan x="0" y="0">rule definition</tspan></text>
    <text class="st14" transform="translate(875 643)"><tspan x="0" y="0">execution control</tspan></text>
    <text class="st11" transform="translate(625 835)"><tspan x="0" y="0">Data Processing Pipeline</tspan></text>
  </g>
</svg>