<svg width="1395" height="541" xmlns="http://www.w3.org/2000/svg" xmlns:xlink="http://www.w3.org/1999/xlink" overflow="hidden"><defs><filter id="fx0" x="-10%" y="-10%" width="120%" height="120%" filterUnits="userSpaceOnUse" primitiveUnits="userSpaceOnUse"><feComponentTransfer color-interpolation-filters="sRGB"><feFuncR type="discrete" tableValues="0 0"/><feFuncG type="discrete" tableValues="0 0"/><feFuncB type="discrete" tableValues="0 0"/><feFuncA type="linear" slope="0.141176" intercept="0"/></feComponentTransfer><feGaussianBlur stdDeviation="0.444444 0.444444"/></filter><filter id="fx1" x="-10%" y="-10%" width="120%" height="120%" filterUnits="userSpaceOnUse" primitiveUnits="userSpaceOnUse"><feComponentTransfer color-interpolation-filters="sRGB"><feFuncR type="discrete" tableValues="0 0"/><feFuncG type="discrete" tableValues="0 0"/><feFuncB type="discrete" tableValues="0 0"/><feFuncA type="linear" slope="0.141176" intercept="0"/></feComponentTransfer><feGaussianBlur stdDeviation="0.444444 0.444444"/></filter><filter id="fx2" x="-10%" y="-10%" width="120%" height="120%" filterUnits="userSpaceOnUse" primitiveUnits="userSpaceOnUse"><feComponentTransfer color-interpolation-filters="sRGB"><feFuncR type="discrete" tableValues="0 0"/><feFuncG type="discrete" tableValues="0 0"/><feFuncB type="discrete" tableValues="0 0"/><feFuncA type="linear" slope="0.141176" intercept="0"/></feComponentTransfer><feGaussianBlur stdDeviation="0.444444 0.444444"/></filter><filter id="fx3" x="-10%" y="-10%" width="120%" height="120%" filterUnits="userSpaceOnUse" primitiveUnits="userSpaceOnUse"><feComponentTransfer color-interpolation-filters="sRGB"><feFuncR type="discrete" tableValues="0 0"/><feFuncG type="discrete" tableValues="0 0"/><feFuncB type="discrete" tableValues="0 0"/><feFuncA type="linear" slope="0.141176" intercept="0"/></feComponentTransfer><feGaussianBlur stdDeviation="0.444444 0.444444"/></filter><filter id="fx4" x="-10%" y="-10%" width="120%" height="120%" filterUnits="userSpaceOnUse" primitiveUnits="userSpaceOnUse"><feComponentTransfer color-interpolation-filters="sRGB"><feFuncR type="discrete" tableValues="0 0"/><feFuncG type="discrete" tableValues="0 0"/><feFuncB type="discrete" tableValues="0 0"/><feFuncA type="linear" slope="0.141176" intercept="0"/></feComponentTransfer><feGaussianBlur stdDeviation="0.444444 0.444444"/></filter><filter id="fx5" x="-10%" y="-10%" width="120%" height="120%" filterUnits="userSpaceOnUse" primitiveUnits="userSpaceOnUse"><feComponentTransfer color-interpolation-filters="sRGB"><feFuncR type="discrete" tableValues="0 0"/><feFuncG type="discrete" tableValues="0 0"/><feFuncB type="discrete" tableValues="0 0"/><feFuncA type="linear" slope="0.141176" intercept="0"/></feComponentTransfer><feGaussianBlur stdDeviation="0.444444 0.444444"/></filter><clipPath id="clip6"><path d="M111.5 173.5C98.7975 173.5 88.5001 184.021 88.5001 197 88.5001 209.979 98.7975 220.5 111.5 220.5 124.203 220.5 134.5 209.979 134.5 197 134.5 184.021 124.203 173.5 111.5 173.5ZM18 155 1413 155 1413 696 18 696Z" fill-rule="evenodd" clip-rule="evenodd"/></clipPath><clipPath id="clip7"><rect x="1" y="1" width="50" height="51"/></clipPath><clipPath id="clip8"><path d="M349.5 173.5C336.798 173.5 326.5 184.021 326.5 197 326.5 209.979 336.798 220.5 349.5 220.5 362.203 220.5 372.5 209.979 372.5 197 372.5 184.021 362.203 173.5 349.5 173.5ZM18 155 1413 155 1413 696 18 696Z" fill-rule="evenodd" clip-rule="evenodd"/></clipPath><clipPath id="clip9"><rect x="1" y="1" width="50" height="51"/></clipPath><clipPath id="clip10"><path d="M588 173.5C575.021 173.5 564.5 184.021 564.5 197 564.5 209.979 575.021 220.5 588 220.5 600.979 220.5 611.5 209.979 611.5 197 611.5 184.021 600.979 173.5 588 173.5ZM18 155 1413 155 1413 696 18 696Z" fill-rule="evenodd" clip-rule="evenodd"/></clipPath><clipPath id="clip11"><rect x="1" y="1" width="51" height="51"/></clipPath><clipPath id="clip12"><path d="M826.5 173.5C813.797 173.5 803.5 184.021 803.5 197 803.5 209.979 813.797 220.5 826.5 220.5 839.203 220.5 849.5 209.979 849.5 197 849.5 184.021 839.203 173.5 826.5 173.5ZM18 155 1413 155 1413 696 18 696Z" fill-rule="evenodd" clip-rule="evenodd"/></clipPath><clipPath id="clip13"><rect x="1" y="1" width="50" height="51"/></clipPath><clipPath id="clip14"><path d="M1064.5 173.5C1051.8 173.5 1041.5 184.021 1041.5 197 1041.5 209.979 1051.8 220.5 1064.5 220.5 1077.2 220.5 1087.5 209.979 1087.5 197 1087.5 184.021 1077.2 173.5 1064.5 173.5ZM18 155 1413 155 1413 696 18 696Z" fill-rule="evenodd" clip-rule="evenodd"/></clipPath><clipPath id="clip15"><rect x="1" y="1" width="50" height="51"/></clipPath><clipPath id="clip16"><path d="M1302.5 173.5C1289.8 173.5 1279.5 184.021 1279.5 197 1279.5 209.979 1289.8 220.5 1302.5 220.5 1315.2 220.5 1325.5 209.979 1325.5 197 1325.5 184.021 1315.2 173.5 1302.5 173.5ZM18 155 1413 155 1413 696 18 696Z" fill-rule="evenodd" clip-rule="evenodd"/></clipPath><clipPath id="clip17"><rect x="1" y="1" width="50" height="51"/></clipPath></defs><g transform="translate(-18 -155)"><path d="M19 166.619C19 161.307 23.3067 157 28.6192 157L211.381 157C216.693 157 221 161.307 221 166.619L221 685.381C221 690.693 216.693 695 211.381 695L28.6192 695C23.3067 695 19 690.693 19 685.381Z" stroke="#0A56A8" stroke-width="1.6" stroke-linejoin="round" stroke-miterlimit="10" fill="#FFFFFF" fill-rule="evenodd" fill-opacity="0.980392"/><text font-family="Aptos,Aptos_MSFontService,sans-serif" font-weight="700" font-size="27" transform="translate(72.5166 279)">Prepare</text><text font-family="Aptos,Aptos_MSFontService,sans-serif" font-weight="700" font-size="27" transform="translate(62.4566 311)">Metadata</text><path d="M27.5001 353.209C27.5001 348.952 30.9516 345.5 35.2094 345.5L205.791 345.5C210.048 345.5 213.5 348.952 213.5 353.209L213.5 443.791C213.5 448.048 210.048 451.5 205.791 451.5L35.2094 451.5C30.9516 451.5 27.5001 448.048 27.5001 443.791Z" stroke="#9EC7F4" stroke-width="1.33333" stroke-linejoin="round" stroke-miterlimit="10" fill="#F7FBFF" fill-rule="evenodd" fill-opacity="0.980392"/><text font-family="Aptos,Aptos_MSFontService,sans-serif" font-weight="700" font-size="19" transform="translate(44.1733 374)">Owner:</text><text font-family="Aptos,Aptos_MSFontService,sans-serif" font-weight="700" font-size="19" transform="translate(44.1733 402)">Data Owner</text><path d="M27.5001 484.171C27.5001 479.934 30.9343 476.5 35.1706 476.5L205.829 476.5C210.066 476.5 213.5 479.934 213.5 484.171L213.5 660.829C213.5 665.066 210.066 668.5 205.829 668.5L35.1706 668.5C30.9343 668.5 27.5001 665.066 27.5001 660.829Z" stroke="#9EC7F4" stroke-width="1.33333" stroke-linejoin="round" stroke-miterlimit="10" fill="#F7FBFF" fill-rule="evenodd" fill-opacity="0.980392"/><text font-family="Aptos,Aptos_MSFontService,sans-serif" font-weight="700" font-size="19" transform="translate(44.1733 506)">Checks:</text><text font-family="Aptos,Aptos_MSFontService,sans-serif" font-weight="700" font-size="19" transform="translate(44.1733 534)">Name,</text><text font-family="Aptos,Aptos_MSFontService,sans-serif" font-weight="700" font-size="19" transform="translate(44.1733 557)">Description,</text><text font-family="Aptos,Aptos_MSFontService,sans-serif" font-weight="700" font-size="19" transform="translate(44.1733 579)">Source,</text><text font-family="Aptos,Aptos_MSFontService,sans-serif" font-weight="700" font-size="19" transform="translate(44.1733 601)">Category,</text><text font-family="Aptos,Aptos_MSFontService,sans-serif" font-weight="700" font-size="19" transform="translate(44.1733 624)">Tags</text><path d="M257 166.619C257 161.307 261.307 157 266.619 157L449.381 157C454.693 157 459 161.307 459 166.619L459 685.381C459 690.693 454.693 695 449.381 695L266.619 695C261.307 695 257 690.693 257 685.381Z" stroke="#0A56A8" stroke-width="1.6" stroke-linejoin="round" stroke-miterlimit="10" fill="#FFFFFF" fill-rule="evenodd" fill-opacity="0.980392"/><text font-family="Aptos,Aptos_MSFontService,sans-serif" font-weight="700" font-size="24" transform="translate(318.75 265)">Submit</text><text font-family="Aptos,Aptos_MSFontService,sans-serif" font-weight="700" font-size="24" transform="translate(292.197 294)">Registration</text><text font-family="Aptos,Aptos_MSFontService,sans-serif" font-weight="700" font-size="24" transform="translate(312.85 323)">Request</text><path d="M265.5 353.209C265.5 348.952 268.952 345.5 273.209 345.5L443.791 345.5C448.048 345.5 451.5 348.952 451.5 353.209L451.5 443.791C451.5 448.048 448.048 451.5 443.791 451.5L273.209 451.5C268.952 451.5 265.5 448.048 265.5 443.791Z" stroke="#9EC7F4" stroke-width="1.33333" stroke-linejoin="round" stroke-miterlimit="10" fill="#F7FBFF" fill-rule="evenodd" fill-opacity="0.980392"/><text font-family="Aptos,Aptos_MSFontService,sans-serif" font-weight="700" font-size="19" transform="translate(282.253 374)">Owner:</text><text font-family="Aptos,Aptos_MSFontService,sans-serif" font-weight="700" font-size="19" transform="translate(282.253 402)">Data Owner /</text><text font-family="Aptos,Aptos_MSFontService,sans-serif" font-weight="700" font-size="19" transform="translate(282.253 425)">Business Team</text><path d="M265.5 484.171C265.5 479.934 268.934 476.5 273.171 476.5L443.829 476.5C448.066 476.5 451.5 479.934 451.5 484.171L451.5 660.829C451.5 665.066 448.066 668.5 443.829 668.5L273.171 668.5C268.934 668.5 265.5 665.066 265.5 660.829Z" stroke="#9EC7F4" stroke-width="1.33333" stroke-linejoin="round" stroke-miterlimit="10" fill="#F7FBFF" fill-rule="evenodd" fill-opacity="0.980392"/><text font-family="Aptos,Aptos_MSFontService,sans-serif" font-weight="700" font-size="19" transform="translate(282.253 506)">Checks:</text><text font-family="Aptos,Aptos_MSFontService,sans-serif" font-weight="700" font-size="19" transform="translate(282.253 534)">Asset</text><text font-family="Aptos,Aptos_MSFontService,sans-serif" font-weight="700" font-size="19" transform="translate(282.253 557)">Information,</text><text font-family="Aptos,Aptos_MSFontService,sans-serif" font-weight="700" font-size="19" transform="translate(282.253 579)">Intended Use,</text><text font-family="Aptos,Aptos_MSFontService,sans-serif" font-weight="700" font-size="19" transform="translate(282.253 601)">Owning</text><text font-family="Aptos,Aptos_MSFontService,sans-serif" font-weight="700" font-size="19" transform="translate(282.253 624)">Department</text><path d="M495 166.619C495 161.307 499.307 157 504.619 157L687.381 157C692.693 157 697 161.307 697 166.619L697 685.381C697 690.693 692.693 695 687.381 695L504.619 695C499.307 695 495 690.693 495 685.381Z" stroke="#0A56A8" stroke-width="1.6" stroke-linejoin="round" stroke-miterlimit="10" fill="#FFFFFF" fill-rule="evenodd" fill-opacity="0.980392"/><text font-family="Aptos,Aptos_MSFontService,sans-serif" font-weight="700" font-size="21" transform="translate(527.91 268)">Quality Check</text><text font-family="Aptos,Aptos_MSFontService,sans-serif" font-weight="700" font-size="21" transform="translate(531.25 293)">(Automated +</text><text font-family="Aptos,Aptos_MSFontService,sans-serif" font-weight="700" font-size="21" transform="translate(556.91 319)">Manual)</text><path d="M503.5 353.209C503.5 348.952 506.952 345.5 511.209 345.5L681.791 345.5C686.048 345.5 689.5 348.952 689.5 353.209L689.5 443.791C689.5 448.048 686.048 451.5 681.791 451.5L511.209 451.5C506.952 451.5 503.5 448.048 503.5 443.791Z" stroke="#9EC7F4" stroke-width="1.33333" stroke-linejoin="round" stroke-miterlimit="10" fill="#F7FBFF" fill-rule="evenodd" fill-opacity="0.980392"/><text font-family="Aptos,Aptos_MSFontService,sans-serif" font-weight="700" font-size="19" transform="translate(520.333 374)">Owner:</text><text font-family="Aptos,Aptos_MSFontService,sans-serif" font-weight="700" font-size="19" transform="translate(520.333 402)">Data Governance</text><text font-family="Aptos,Aptos_MSFontService,sans-serif" font-weight="700" font-size="19" transform="translate(520.333 425)">Team</text><path d="M503.5 484.171C503.5 479.934 506.934 476.5 511.171 476.5L681.829 476.5C686.066 476.5 689.5 479.934 689.5 484.171L689.5 660.829C689.5 665.066 686.066 668.5 681.829 668.5L511.171 668.5C506.934 668.5 503.5 665.066 503.5 660.829Z" stroke="#9EC7F4" stroke-width="1.33333" stroke-linejoin="round" stroke-miterlimit="10" fill="#F7FBFF" fill-rule="evenodd" fill-opacity="0.980392"/><text font-family="Aptos,Aptos_MSFontService,sans-serif" font-weight="700" font-size="19" transform="translate(520.333 506)">Checks:</text><text font-family="Aptos,Aptos_MSFontService,sans-serif" font-weight="700" font-size="19" transform="translate(520.333 534)">Completeness,</text><text font-family="Aptos,Aptos_MSFontService,sans-serif" font-weight="700" font-size="19" transform="translate(520.333 557)">Accuracy,</text><text font-family="Aptos,Aptos_MSFontService,sans-serif" font-weight="700" font-size="19" transform="translate(520.333 579)">Consistency,</text><text font-family="Aptos,Aptos_MSFontService,sans-serif" font-weight="700" font-size="19" transform="translate(520.333 601)">Sample</text><text font-family="Aptos,Aptos_MSFontService,sans-serif" font-weight="700" font-size="19" transform="translate(520.333 624)">Inspection</text><path d="M733 166.619C733 161.307 737.307 157 742.619 157L925.381 157C930.693 157 935 161.307 935 166.619L935 685.381C935 690.693 930.693 695 925.381 695L742.619 695C737.307 695 733 690.693 733 685.381Z" stroke="#0A56A8" stroke-width="1.6" stroke-linejoin="round" stroke-miterlimit="10" fill="#FFFFFF" fill-rule="evenodd" fill-opacity="0.980392"/><text font-family="Aptos,Aptos_MSFontService,sans-serif" font-weight="700" font-size="27" transform="translate(783.907 279)">Security</text><text font-family="Aptos,Aptos_MSFontService,sans-serif" font-weight="700" font-size="27" transform="translate(790.747 311)">Review</text><path d="M741.5 353.209C741.5 348.952 744.952 345.5 749.209 345.5L919.791 345.5C924.048 345.5 927.5 348.952 927.5 353.209L927.5 443.791C927.5 448.048 924.048 451.5 919.791 451.5L749.209 451.5C744.952 451.5 741.5 448.048 741.5 443.791Z" stroke="#9EC7F4" stroke-width="1.33333" stroke-linejoin="round" stroke-miterlimit="10" fill="#F7FBFF" fill-rule="evenodd" fill-opacity="0.980392"/><text font-family="Aptos,Aptos_MSFontService,sans-serif" font-weight="700" font-size="19" transform="translate(758.413 374)">Owner:</text><text font-family="Aptos,Aptos_MSFontService,sans-serif" font-weight="700" font-size="19" transform="translate(758.413 402)">Security /</text><text font-family="Aptos,Aptos_MSFontService,sans-serif" font-weight="700" font-size="19" transform="translate(758.413 425)">Compliance Team</text><path d="M741.5 484.171C741.5 479.934 744.934 476.5 749.171 476.5L919.829 476.5C924.066 476.5 927.5 479.934 927.5 484.171L927.5 660.829C927.5 665.066 924.066 668.5 919.829 668.5L749.171 668.5C744.934 668.5 741.5 665.066 741.5 660.829Z" stroke="#9EC7F4" stroke-width="1.33333" stroke-linejoin="round" stroke-miterlimit="10" fill="#F7FBFF" fill-rule="evenodd" fill-opacity="0.980392"/><text font-family="Aptos,Aptos_MSFontService,sans-serif" font-weight="700" font-size="19" transform="translate(758.413 506)">Checks:</text><text font-family="Aptos,Aptos_MSFontService,sans-serif" font-weight="700" font-size="19" transform="translate(758.413 534)">Access Control,</text><text font-family="Aptos,Aptos_MSFontService,sans-serif" font-weight="700" font-size="19" transform="translate(758.413 557)">PII Inspection,</text><text font-family="Aptos,Aptos_MSFontService,sans-serif" font-weight="700" font-size="19" transform="translate(758.413 579)">Sensitivity Level,</text><text font-family="Aptos,Aptos_MSFontService,sans-serif" font-weight="700" font-size="19" transform="translate(758.413 601)">Access Scope</text><path d="M972 166.573C972 161.286 976.286 157 981.573 157L1163.46 157C1168.75 157 1173.04 161.286 1173.04 166.573L1173.04 685.427C1173.04 690.714 1168.75 695 1163.46 695L981.573 695C976.286 695 972 690.714 972 685.427Z" stroke="#0A56A8" stroke-width="1.6" stroke-linejoin="round" stroke-miterlimit="10" fill="#FFFFFF" fill-rule="evenodd" fill-opacity="0.980392"/><text font-family="Aptos,Aptos_MSFontService,sans-serif" font-weight="700" font-size="27" transform="translate(1022.23 279)">Approve</text><text font-family="Aptos,Aptos_MSFontService,sans-serif" font-weight="700" font-size="27" transform="translate(1023.49 311)">Release</text><path d="M979.5 353.209C979.5 348.952 982.952 345.5 987.209 345.5L1157.79 345.5C1162.05 345.5 1165.5 348.952 1165.5 353.209L1165.5 443.791C1165.5 448.048 1162.05 451.5 1157.79 451.5L987.209 451.5C982.952 451.5 979.5 448.048 979.5 443.791Z" stroke="#9EC7F4" stroke-width="1.33333" stroke-linejoin="round" stroke-miterlimit="10" fill="#F7FBFF" fill-rule="evenodd" fill-opacity="0.980392"/><text font-family="Aptos,Aptos_MSFontService,sans-serif" font-weight="700" font-size="19" transform="translate(996.493 374)">Owner:</text><text font-family="Aptos,Aptos_MSFontService,sans-serif" font-weight="700" font-size="19" transform="translate(996.493 402)">Governance</text><text font-family="Aptos,Aptos_MSFontService,sans-serif" font-weight="700" font-size="19" transform="translate(996.493 425)">Committee /</text><text font-family="Aptos,Aptos_MSFontService,sans-serif" font-weight="700" font-size="19" transform="translate(996.493 447)">Administrator</text><path d="M979.5 484.171C979.5 479.934 982.934 476.5 987.171 476.5L1157.83 476.5C1162.07 476.5 1165.5 479.934 1165.5 484.171L1165.5 660.829C1165.5 665.066 1162.07 668.5 1157.83 668.5L987.171 668.5C982.934 668.5 979.5 665.066 979.5 660.829Z" stroke="#9EC7F4" stroke-width="1.33333" stroke-linejoin="round" stroke-miterlimit="10" fill="#F7FBFF" fill-rule="evenodd" fill-opacity="0.980392"/><text font-family="Aptos,Aptos_MSFontService,sans-serif" font-weight="700" font-size="19" transform="translate(996.493 506)">Checks:</text><text font-family="Aptos,Aptos_MSFontService,sans-serif" font-weight="700" font-size="19" transform="translate(996.493 534)">Review Decision,</text><text font-family="Aptos,Aptos_MSFontService,sans-serif" font-weight="700" font-size="19" transform="translate(996.493 557)">Release</text><text font-family="Aptos,Aptos_MSFontService,sans-serif" font-weight="700" font-size="19" transform="translate(996.493 579)">Conditions,</text><text font-family="Aptos,Aptos_MSFontService,sans-serif" font-weight="700" font-size="19" transform="translate(996.493 601)">Version Record</text><path d="M1210 166.573C1210 161.286 1214.29 157 1219.57 157L1401.46 157C1406.75 157 1411.04 161.286 1411.04 166.573L1411.04 685.427C1411.04 690.714 1406.75 695 1401.46 695L1219.57 695C1214.29 695 1210 690.714 1210 685.427Z" stroke="#0A56A8" stroke-width="1.6" stroke-linejoin="round" stroke-miterlimit="10" fill="#FFFFFF" fill-rule="evenodd" fill-opacity="0.980392"/><g clip-path="url(#clip6)"><g clip-path="url(#clip7)" filter="url(#fx0)" transform="translate(89 174)"><g><path d="M3.27129 26.7713C3.27129 13.7926 13.5687 3.27129 26.2713 3.27129 38.9738 3.27129 49.2713 13.7926 49.2713 26.7713 49.2713 39.75 38.9738 50.2713 26.2713 50.2713 13.5687 50.2713 3.27129 39.75 3.27129 26.7713Z" stroke="#1D62B5" stroke-linejoin="round" stroke-miterlimit="10" fill="#1D62B5" fill-rule="evenodd"/></g></g></g><path d="M88.5001 197C88.5001 184.021 98.7975 173.5 111.5 173.5 124.203 173.5 134.5 184.021 134.5 197 134.5 209.979 124.203 220.5 111.5 220.5 98.7975 220.5 88.5001 209.979 88.5001 197Z" stroke="#1D62B5" stroke-width="1.33333" stroke-linejoin="round" stroke-miterlimit="10" fill="#1D62B5" fill-rule="evenodd"/><text fill="#FFFFFF" font-family="Aptos,Aptos_MSFontService,sans-serif" font-weight="700" font-size="37" transform="translate(101.36 208)">1</text><g clip-path="url(#clip8)"><g clip-path="url(#clip9)" filter="url(#fx1)" transform="translate(327 174)"><g><path d="M3.2713 26.7713C3.2713 13.7926 13.5688 3.27129 26.2713 3.27129 38.9738 3.27129 49.2713 13.7926 49.2713 26.7713 49.2713 39.75 38.9738 50.2713 26.2713 50.2713 13.5688 50.2713 3.2713 39.75 3.2713 26.7713Z" stroke="#1D62B5" stroke-linejoin="round" stroke-miterlimit="10" fill="#1D62B5" fill-rule="evenodd"/></g></g></g><path d="M326.5 197C326.5 184.021 336.798 173.5 349.5 173.5 362.203 173.5 372.5 184.021 372.5 197 372.5 209.979 362.203 220.5 349.5 220.5 336.798 220.5 326.5 209.979 326.5 197Z" stroke="#1D62B5" stroke-width="1.33333" stroke-linejoin="round" stroke-miterlimit="10" fill="#1D62B5" fill-rule="evenodd"/><text fill="#FFFFFF" font-family="Aptos,Aptos_MSFontService,sans-serif" font-weight="700" font-size="37" transform="translate(339.44 208)">2</text><g clip-path="url(#clip10)"><g clip-path="url(#clip11)" filter="url(#fx2)" transform="translate(565 174)"><g><path d="M3.2713 26.7713C3.2713 13.7926 13.7926 3.27129 26.7713 3.27129 39.75 3.27129 50.2713 13.7926 50.2713 26.7713 50.2713 39.75 39.75 50.2713 26.7713 50.2713 13.7926 50.2713 3.2713 39.75 3.2713 26.7713Z" stroke="#1D62B5" stroke-linejoin="round" stroke-miterlimit="10" fill="#1D62B5" fill-rule="evenodd"/></g></g></g><path d="M564.5 197C564.5 184.021 575.021 173.5 588 173.5 600.979 173.5 611.5 184.021 611.5 197 611.5 209.979 600.979 220.5 588 220.5 575.021 220.5 564.5 209.979 564.5 197Z" stroke="#1D62B5" stroke-width="1.33333" stroke-linejoin="round" stroke-miterlimit="10" fill="#1D62B5" fill-rule="evenodd"/><text fill="#FFFFFF" font-family="Aptos,Aptos_MSFontService,sans-serif" font-weight="700" font-size="37" transform="translate(577.52 208)">3</text><g clip-path="url(#clip12)"><g clip-path="url(#clip13)" filter="url(#fx3)" transform="translate(804 174)"><g><path d="M3.2713 26.7713C3.2713 13.7926 13.5688 3.27129 26.2713 3.27129 38.9738 3.27129 49.2713 13.7926 49.2713 26.7713 49.2713 39.75 38.9738 50.2713 26.2713 50.2713 13.5688 50.2713 3.2713 39.75 3.2713 26.7713Z" stroke="#1D62B5" stroke-linejoin="round" stroke-miterlimit="10" fill="#1D62B5" fill-rule="evenodd"/></g></g></g><path d="M803.5 197C803.5 184.021 813.797 173.5 826.5 173.5 839.203 173.5 849.5 184.021 849.5 197 849.5 209.979 839.203 220.5 826.5 220.5 813.797 220.5 803.5 209.979 803.5 197Z" stroke="#1D62B5" stroke-width="1.33333" stroke-linejoin="round" stroke-miterlimit="10" fill="#1D62B5" fill-rule="evenodd"/><text fill="#FFFFFF" font-family="Aptos,Aptos_MSFontService,sans-serif" font-weight="700" font-size="37" transform="translate(815.6 208)">4</text><g clip-path="url(#clip14)"><g clip-path="url(#clip15)" filter="url(#fx4)" transform="translate(1042 174)"><g><path d="M3.27124 26.7713C3.27124 13.7926 13.5687 3.27129 26.2712 3.27129 38.9738 3.27129 49.2712 13.7926 49.2712 26.7713 49.2712 39.75 38.9738 50.2713 26.2712 50.2713 13.5687 50.2713 3.27124 39.75 3.27124 26.7713Z" stroke="#1D62B5" stroke-linejoin="round" stroke-miterlimit="10" fill="#1D62B5" fill-rule="evenodd"/></g></g></g><path d="M1041.5 197C1041.5 184.021 1051.8 173.5 1064.5 173.5 1077.2 173.5 1087.5 184.021 1087.5 197 1087.5 209.979 1077.2 220.5 1064.5 220.5 1051.8 220.5 1041.5 209.979 1041.5 197Z" stroke="#1D62B5" stroke-width="1.33333" stroke-linejoin="round" stroke-miterlimit="10" fill="#1D62B5" fill-rule="evenodd"/><text fill="#FFFFFF" font-family="Aptos,Aptos_MSFontService,sans-serif" font-weight="700" font-size="37" transform="translate(1053.68 208)">5</text><g clip-path="url(#clip16)"><g clip-path="url(#clip17)" filter="url(#fx5)" transform="translate(1280 174)"><g><path d="M3.27124 26.7713C3.27124 13.7926 13.5687 3.27129 26.2712 3.27129 38.9738 3.27129 49.2712 13.7926 49.2712 26.7713 49.2712 39.75 38.9738 50.2713 26.2712 50.2713 13.5687 50.2713 3.27124 39.75 3.27124 26.7713Z" stroke="#1D62B5" stroke-linejoin="round" stroke-miterlimit="10" fill="#1D62B5" fill-rule="evenodd"/></g></g></g><path d="M1279.5 197C1279.5 184.021 1289.8 173.5 1302.5 173.5 1315.2 173.5 1325.5 184.021 1325.5 197 1325.5 209.979 1315.2 220.5 1302.5 220.5 1289.8 220.5 1279.5 209.979 1279.5 197Z" stroke="#1D62B5" stroke-width="1.33333" stroke-linejoin="round" stroke-miterlimit="10" fill="#1D62B5" fill-rule="evenodd"/><text fill="#FFFFFF" font-family="Aptos,Aptos_MSFontService,sans-serif" font-weight="700" font-size="37" transform="translate(1291.76 208)">6</text><text font-family="Aptos,Aptos_MSFontService,sans-serif" font-weight="700" font-size="21" transform="translate(1249.84 268)">Published to</text><text font-family="Aptos,Aptos_MSFontService,sans-serif" font-weight="700" font-size="21" transform="translate(1272.65 293)">Catalog</text><text font-family="Aptos,Aptos_MSFontService,sans-serif" font-weight="700" font-size="21" transform="translate(1226.26 319)">and Discoverable</text><path d="M1217.5 353.21C1217.5 348.952 1220.95 345.5 1225.21 345.5L1396.79 345.5C1401.05 345.5 1404.5 348.952 1404.5 353.21L1404.5 443.791C1404.5 448.048 1401.05 451.5 1396.79 451.5L1225.21 451.5C1220.95 451.5 1217.5 448.048 1217.5 443.791Z" stroke="#9EC7F4" stroke-width="1.33333" stroke-linejoin="round" stroke-miterlimit="10" fill="#F7FBFF" fill-rule="evenodd" fill-opacity="0.980392"/><text font-family="Aptos,Aptos_MSFontService,sans-serif" font-weight="700" font-size="19" transform="translate(1234.57 374)">Owner:</text><text font-family="Aptos,Aptos_MSFontService,sans-serif" font-weight="700" font-size="19" transform="translate(1234.57 402)">Data Catalog</text><text font-family="Aptos,Aptos_MSFontService,sans-serif" font-weight="700" font-size="19" transform="translate(1234.57 425)">Platform</text><path d="M1217.5 484.212C1217.5 479.953 1220.95 476.5 1225.21 476.5L1396.79 476.5C1401.05 476.5 1404.5 479.953 1404.5 484.212L1404.5 660.788C1404.5 665.047 1401.05 668.5 1396.79 668.5L1225.21 668.5C1220.95 668.5 1217.5 665.047 1217.5 660.788Z" stroke="#9EC7F4" stroke-width="1.33333" stroke-linejoin="round" stroke-miterlimit="10" fill="#F7FBFF" fill-rule="evenodd" fill-opacity="0.980392"/><text font-family="Aptos,Aptos_MSFontService,sans-serif" font-weight="700" font-size="19" transform="translate(1234.57 506)">Checks:</text><text font-family="Aptos,Aptos_MSFontService,sans-serif" font-weight="700" font-size="19" transform="translate(1234.57 534)">Listed in Catalog,</text><text font-family="Aptos,Aptos_MSFontService,sans-serif" font-weight="700" font-size="19" transform="translate(1234.57 557)">Searchable,</text><text font-family="Aptos,Aptos_MSFontService,sans-serif" font-weight="700" font-size="19" transform="translate(1234.57 579)">Metadata</text><text font-family="Aptos,Aptos_MSFontService,sans-serif" font-weight="700" font-size="19" transform="translate(1234.57 601)">Visible,</text><text font-family="Aptos,Aptos_MSFontService,sans-serif" font-weight="700" font-size="19" transform="translate(1234.57 624)">Access Request</text><text font-family="Aptos,Aptos_MSFontService,sans-serif" font-weight="700" font-size="19" transform="translate(1234.57 646)">Available</text><path d="M227.5 279.25 242.5 279.25 242.5 271.5 257.5 287 242.5 302.5 242.5 294.75 227.5 294.75Z" stroke="#1D62B5" stroke-width="1.33333" stroke-miterlimit="8" stroke-opacity="0" fill="#1D62B5" fill-rule="evenodd"/><path d="M465.5 279.25 480.5 279.25 480.5 271.5 495.5 287 480.5 302.5 480.5 294.75 465.5 294.75Z" stroke="#1D62B5" stroke-width="1.33333" stroke-miterlimit="8" stroke-opacity="0" fill="#1D62B5" fill-rule="evenodd"/><path d="M703.5 279.25 718.5 279.25 718.5 271.5 733.5 287 718.5 302.5 718.5 294.75 703.5 294.75Z" stroke="#1D62B5" stroke-width="1.33333" stroke-miterlimit="8" stroke-opacity="0" fill="#1D62B5" fill-rule="evenodd"/><path d="M941.5 279.25 957 279.25 957 271.5 972.5 287 957 302.5 957 294.75 941.5 294.75Z" stroke="#1D62B5" stroke-width="1.33333" stroke-miterlimit="8" stroke-opacity="0" fill="#1D62B5" fill-rule="evenodd"/><path d="M1179.5 279.25 1195 279.25 1195 271.5 1210.5 287 1195 302.5 1195 294.75 1179.5 294.75Z" stroke="#1D62B5" stroke-width="1.33333" stroke-miterlimit="8" stroke-opacity="0" fill="#1D62B5" fill-rule="evenodd"/></g></svg>