<?xml version="1.0" encoding="UTF-8"?>
<svg id="_图层_1" data-name="图层_1" xmlns="http://www.w3.org/2000/svg" version="1.1" viewBox="0 0 2752 1536">
  <!-- Generator: Adobe Illustrator 29.6.0, SVG Export Plug-In . SVG Version: 2.1.1 Build 207)  -->
  <defs>
    <style>
      .st0 {
        fill: #2698f5;
      }

      .st1 {
        fill: #2c99f4;
      }

      .st2 {
        fill: #2699f6;
      }

      .st3 {
        fill: #538ec3;
      }

      .st4 {
        fill: #2599f6;
      }

      .st5 {
        fill: #3d88c6;
      }

      .st6 {
        fill: #d0e5f8;
      }

      .st7 {
        fill: #508bc5;
      }

      .st8 {
        fill: #56a078;
      }

      .st9 {
        fill: #4195d7;
      }

      .st10 {
        fill: #cd4e35;
      }

      .st11 {
        fill: #d8593f;
      }

      .st12 {
        font-size: 34px;
      }

      .st12, .st13, .st14, .st15, .st16, .st17, .st18, .st19, .st20, .st21, .st22 {
        fill: #111;
        isolation: isolate;
      }

      .st12, .st13, .st14, .st16, .st19, .st22 {
        font-family: Arial-BoldMT, Arial;
        font-weight: 700;
      }

      .st23 {
        fill: #2f9df6;
      }

      .st24 {
        fill: #f4f8fd;
      }

      .st25 {
        fill: #d1e5f9;
      }

      .st26 {
        fill: #dc6045;
      }

      .st27 {
        fill: #d0d7df;
      }

      .st28 {
        fill: #db5f44;
      }

      .st29 {
        fill: #ccd3dd;
      }

      .st13 {
        font-size: 33px;
      }

      .st30 {
        fill: #dc462d;
      }

      .st31 {
        fill: #b46457;
      }

      .st32 {
        fill: #b9bcc0;
      }

      .st33 {
        fill: #509d73;
      }

      .st34 {
        fill: #509d74;
      }

      .st35 {
        fill: #707378;
      }

      .st36 {
        fill: #538dc9;
      }

      .st37 {
        fill: #319ff6;
      }

      .st38 {
        fill: #fbcfce;
      }

      .st39 {
        fill: #fbd5c9;
      }

      .st40 {
        fill: #fff;
      }

      .st41 {
        fill: #ccd3db;
      }

      .st42 {
        fill: #a84b39;
      }

      .st43 {
        fill: #d6eddd;
      }

      .st44 {
        fill: #fddfd9;
      }

      .st45 {
        fill: #b7534f;
      }

      .st46 {
        fill: #d54a43;
      }

      .st47 {
        fill: #5784ae;
      }

      .st14, .st18 {
        font-size: 31px;
      }

      .st48 {
        fill: #4e79a4;
      }

      .st49 {
        fill: #d33d3b;
      }

      .st50 {
        fill: #f6faff;
      }

      .st51 {
        fill: #4ea571;
      }

      .st52 {
        fill: #d14d32;
      }

      .st53 {
        fill: #fbd5c8;
      }

      .st54 {
        fill: #7786a2;
      }

      .st55 {
        fill: #fbdbce;
      }

      .st56 {
        fill: #e0e6ef;
      }

      .st57 {
        fill: #d13a38;
      }

      .st58 {
        fill: #ac513e;
      }

      .st15 {
        font-family: Consolas, Consolas;
      }

      .st15, .st16, .st20 {
        font-size: 29px;
      }

      .st59 {
        fill: #519f73;
      }

      .st60 {
        fill: #2498f8;
      }

      .st61 {
        fill: #f5f9fd;
      }

      .st62 {
        fill: #ca533b;
      }

      .st63 {
        fill: #578cc5;
      }

      .st64 {
        fill: #cfd8e0;
      }

      .st65 {
        fill: #dee2e9;
      }

      .st66 {
        fill: #5da97c;
      }

      .st67 {
        fill: #5a93ca;
      }

      .st68 {
        fill: #fbd2c5;
      }

      .st69 {
        fill: #3b89c6;
      }

      .st70 {
        fill: #c7442e;
      }

      .st71 {
        fill: #587fa6;
      }

      .st72 {
        fill: #5b91c9;
      }

      .st73 {
        fill: #ae543c;
      }

      .st74 {
        fill: #5e89b1;
      }

      .st75 {
        fill: #4091d2;
      }

      .st76 {
        fill: #b3695e;
      }

      .st77 {
        fill: #d34641;
      }

      .st78 {
        fill: #479e6c;
      }

      .st79 {
        fill: #6296c9;
      }

      .st80 {
        fill: #d1e6f9;
      }

      .st81 {
        fill: #d0e6f9;
      }

      .st82 {
        fill: #c9d2db;
      }

      .st83 {
        fill: #cbd4dc;
      }

      .st84 {
        fill: #fdfeff;
      }

      .st85 {
        fill: #b4dffb;
      }

      .st86 {
        fill: #499e6e;
      }

      .st87 {
        fill: #5190ce;
      }

      .st88 {
        fill: #4a9e6e;
      }

      .st89 {
        fill: #d1e5f8;
      }

      .st90 {
        fill: #f7fcfc;
      }

      .st91 {
        fill: #c94c33;
      }

      .st92 {
        fill: #f9fdfe;
      }

      .st93 {
        fill: #329df7;
      }

      .st94 {
        fill: #2f90e1;
      }

      .st95 {
        fill: #d43b39;
      }

      .st96 {
        fill: #5dab7d;
      }

      .st97 {
        fill: #a34b38;
      }

      .st17 {
        font-size: 26px;
      }

      .st17, .st18, .st20, .st21 {
        font-family: ArialMT, Arial;
      }

      .st98 {
        fill: #fcfefe;
      }

      .st99 {
        fill: #fefeff;
      }

      .st100 {
        fill: #588dc6;
      }

      .st101 {
        fill: #538cc8;
      }

      .st102 {
        fill: #f8fbfc;
      }

      .st103 {
        fill: #d0d8e0;
      }

      .st19 {
        font-size: 60px;
      }

      .st104 {
        fill: #509f73;
      }

      .st105 {
        fill: #508ac1;
      }

      .st106 {
        fill: #4d89c0;
      }

      .st107 {
        fill: #c44a35;
      }

      .st108 {
        fill: #2475bb;
      }

      .st109 {
        fill: #5dab7c;
      }

      .st110 {
        fill: #489e6e;
      }

      .st111 {
        fill: #cad2da;
      }

      .st21, .st22 {
        font-size: 30px;
      }

      .st112 {
        fill: #547a9e;
      }

      .st113 {
        fill: #ca553f;
      }

      .st114 {
        fill: #2897f3;
      }

      .st115 {
        fill: #f9fcfd;
      }

      .st116 {
        fill: #489f6f;
      }

      .st117 {
        fill: #56a87a;
      }

      .st118 {
        fill: #4d84be;
      }

      .st119 {
        fill: #359ff8;
      }

      .st120 {
        fill: #a14a37;
      }

      .st121 {
        fill: #cc553e;
      }

      .st122 {
        fill: #d25238;
      }

      .st123 {
        fill: #2f9efa;
      }

      .st124 {
        fill: #4fa673;
      }

      .st125 {
        fill: #c9593f;
      }

      .st126 {
        fill: #feffff;
      }

      .st127 {
        fill: #4ea572;
      }

      .st128 {
        fill: #ca583f;
      }

      .st129 {
        fill: #5d91c8;
      }

      .st130 {
        fill: #3294dc;
      }

      .st131 {
        fill: #4b9e71;
      }

      .st132 {
        fill: #af4f3b;
      }

      .st133 {
        fill: #4fa573;
      }

      .st134 {
        fill: #cb543c;
      }

      .st135 {
        fill: #cdd5de;
      }

      .st136 {
        fill: #339cf4;
      }

      .st137 {
        fill: #519d75;
      }

      .st138 {
        fill: #528cc2;
      }
    </style>
  </defs>
  <g id="_x23_f5f9fdff">
    <path class="st61" d="M0,0h2752v1453.74c-217-.17-434,.02-651.01-.08-363.32.13-726.65.07-1089.98.01-211-.07-422,.17-633.01.15-126,.04-252-.3-378-.03V0M492.31,211.26c-4.92,3.17-7.82,8.97-7.68,14.8-.14,16.64.08,33.29-.02,49.93-.08,4.02.42,8.24,2.74,11.63,3.44,4.99,9.57,7.84,15.58,7.68,103.35,0,206.69.01,310.03,0,9,.47,17.74-7.1,17.8-16.25.15-8.98-.05-17.96-.01-26.94,14.75.53,29.52.12,44.28.27,419.67-.03,839.33,0,1259,0,25.89.13,51.79-.25,77.67.24,5.67,2.44,11.31,6.11,13.67,12.1,3.13,6.32,2.12,13.5,2.21,20.3.06,84.67,0,169.34.03,254.01-.45,7.46-4.91,14.59-11.42,18.27-4.97,2.62-10.75,2.91-16.23,2.8-218-.2-436,.13-654-.08-260.29.11-520.57-.12-780.86.03-104.71-.13-209.43.19-314.14,0-12.03.67-22.88-10.05-22.43-22.05.09-40.4-.2-80.81.17-121.22,10.93.04,21.86,0,32.79-.09-.06.61-.2,1.84-.26,2.46-1.26,2.93-2.28,5.94-3.22,8.99,8.86-4.22,17.71-8.6,26.08-13.72-8.49-5.2-17.45-9.58-26.19-14.35,1,3.35,1.74,6.84,3.51,9.9-.13.48-.39,1.43-.52,1.9-.43.13-1.29.39-1.71.52-10.34-.25-20.69-.18-31.03-.11.59-12.06.04-24.15.2-36.21.04-31.37.08-62.74.02-94.11.04-4.58-.3-9.28,1.09-13.71,2.43-8.34,10.02-15.33,18.9-15.75,11.96-.44,23.94.16,35.91-.26-.13-1.31-.26-2.61-.38-3.91-10.97-.09-21.93.09-32.9.02-5.35-.13-10.74,1.34-15.11,4.46-7.41,4.99-11.55,13.74-11.38,22.6-.27,45.62.11,91.25-.17,136.87-57.77.02-115.53-.05-173.3.12-10.64-.3-22.13,6.59-24.36,17.46-1.08,5.67-.74,11.46-.86,17.19-.07,97.44-.11,194.88-.06,292.32-12.24-.55-24.5-.04-36.75-.21-30.34.04-60.69-.09-91.04.07-15.78-.12-30.38,13.82-30.12,29.76.05,34-.06,68,.06,101.99-.06,7.99,2.5,16.15,8.05,22.04,5.56,6.07,13.77,9.42,21.97,9.42,42.68.38,85.37-.15,128.04.37-.5,19.37-.06,38.77-.19,58.15-.05,84.32-.02,168.65,0,252.98-.02,6.32-.38,12.98,2.58,18.79,3.66,8.29,12.71,13.3,21.62,13.17,55.35.08,110.7-.09,166.06.04,15.26.58,30.53-.49,45.79.08-1.07,4.14-2.74,8.1-4,12.2,6.14-2.82,11.86-6.43,17.81-9.61,2.87-1.66,6.13-2.86,8.25-5.53-9.14-4.41-17.69-9.95-26.86-14.29,1.29,4.18,3.22,8.14,4.18,12.43-10.85.04-21.7-.06-32.54.04-.29-46.41-.02-92.81-.13-139.22-.04-5.67-.05-11.6,2.56-16.78,2.98-6.97,10.38-11.68,17.91-11.71,7.01-.11,14.01.05,21.02,0,4.78-.08,9.61.49,14.34-.5-.07,6.97.03,13.94.01,20.91.04,3.34-.07,6.77.91,10.02,1.91,6.75,8.6,11.82,15.62,11.83,9.7.26,19.41-.18,29.1.28,30.33-.45,60.67-.12,91.01-.22,56.33.04,112.66-.06,168.99-.01,3.73-.05,7.8.2,11.03-2.03,5.49-3.23,8.67-9.49,8.62-15.79.25-15.65-.02-31.32.2-46.97.14-6.25-.4-13.25-5.13-17.88-3.27-3.43-8.06-5.08-12.75-4.92-96.67.03-193.35.02-290.03.08-9.12-.35-16.92,7.64-17.49,16.53-.5,8.36-.12,16.74-.1,25.12-6.38-1.26-12.94-.34-19.39-.59-8.52.32-17.43-1.16-25.55,2.14-7.63,3.43-13.17,11.12-14.07,19.43-.86,7.31-.57,14.69-.61,22.04,0,32.32.03,64.64.02,96.97.3,10.42-.54,20.88.52,31.27-58.44-.03-116.89-.06-175.34-.05-6.49.06-13.05-3.17-16.48-8.76-2.8-4.28-3.16-9.53-3.06-14.49-.12-105.05.1-210.11-.15-315.17,42.93-.59,85.88.04,128.81-.33,11.66.07,22.93-7.4,27.29-18.22,2.78-6.38,2.27-13.47,2.33-20.25-.11-13.65.14-27.31-.17-40.96,2.35.02,4.71.11,7.07.1,9.62,1.27,19.42.59,29.11,1.28.11,40.53.01,81.06.1,121.59.15,7.21-.92,14.72,1.72,21.63,3.84,9.28,13.22,16.42,23.47,16.26,19.32.52,38.64-.12,57.96.06,422.03.03,844.08-.11,1266.11.02,77.64.04,155.29-.24,232.93.14,62.67-.17,125.33-.02,187.99-.06,6.03-.11,12.19.47,18.11-.98,8.37-2.91,15.21-10.08,17.41-18.72,1.26-5.35.77-10.88.87-16.31-.04-87.66.04-175.32-.05-262.97.05-12.48-9.94-24.03-22.27-25.82-7.02-.71-14.08-.23-21.1-.4-418.32,0-836.63-.02-1254.95.03-29.56.07-59.13-.37-88.68.37-.02,1.11-.03,2.24-.02,3.37,24.22.26,48.45.28,72.68.22,429.33-.06,858.66.04,1287.99,0,11.94-.37,22.75,10.3,22.64,22.23.07,88.3-.03,176.61.01,264.91-.13,5.05.68,10.4-1.6,15.12-2.77,7-8.59,13.29-16.29,14.5-8.57.81-17.18.2-25.76.38-176.98-.14-353.97.05-530.94-.06-56.01.23-112.01-.24-168.03.17-53.65-.54-107.3.33-160.94-.15-76.34.57-152.68-.31-229.01.2-110.69-.33-221.4-.05-332.09-.21-11.31.39-22.61-.02-33.91.09-91.34-.23-182.68.22-274.02.01-7.49.28-15.72-1.35-20.72-7.42-4.46-4.68-5.85-11.3-5.69-17.58.19-43.57-.16-87.13.22-130.7,8.08-.23,16.17-.05,24.24-.42,2.85,0,6.49-1,7.9,2.32-1.21,3.14-2.25,6.34-2.99,9.63,8.38-4.65,17.04-8.95,25.14-14.02l1.53-.65c0,16.93-.14,33.87-.02,50.81.06,11.56,6.85,23.05,17.57,27.75,7.7,3.77,16.47,2.74,24.75,2.91,90.36,0,180.72,0,271.09-.04,5.21.04,10.53-.22,15.43-2.2,6.69-2.62,12.27-7.84,15.55-14.22,3.19-5.86,3.48-12.69,3.35-19.21-.2-14.53.19-29.08-.32-43.6l.11-.2c17.86-.04,35.73.03,53.6-.03-.65,4.38-2.71,8.41-3.48,12.78,9-4.93,18.24-9.5,26.92-14.96-2.22-1.95-4.85-3.29-7.43-4.65-6.51-3.47-12.68-7.65-19.57-10.33,1.41,4.01,2.65,8.08,3.83,12.18-18.03.4-36.08-.28-54.1.24.93-13.4.08-26.92.4-40.36.08-7.71.49-15.9-3.49-22.83-4.76-8.68-13.86-15.12-23.85-15.8-5.31-.31-10.64-.15-15.95-.19-91.01.01-182.03-.08-273.04.02-13.45-.65-26.38,8.87-30.14,21.71-1.54,4.86-1.22,10.02-1.26,15.05.02,14.93-.08,29.85.05,44.78l-1.72-.63-.24-.63c-8.25-4.73-16.53-9.49-25.03-13.78.73,4.28,2.78,8.21,3.37,12.53-10.75-.11-21.5-.13-32.25-.09-.28-44.4-.01-88.8-.19-133.2-.17-11.14,9.1-21.7,20.41-22.13,11.54-.41,23.11-.12,34.67-.19,0-1.17,0-2.32,0-3.46-8.55-.11-17.09.03-25.63-.3-6.45-.13-13.3-.26-19.14,2.92-8.61,4.28-14.13,13.66-14.24,23.21.07,37.65.08,75.3.14,112.95.09,6.73-.53,13.49.21,20.21-11.4-.06-22.8.1-34.2.05-.59-.02-1.77-.07-2.36-.1.29-16.74.26-33.48.17-50.22-.04-15.53-14.31-28.67-29.6-28.7-26.01-.18-52.01-.07-78.02-.09-16.89.16-33.79-.37-50.66.2-.02-102.06-.09-204.14-.07-306.19,1.28-4.98,3.85-9.75,8.26-12.61,5.64-4.01,12.86-3.8,19.46-3.77,55.43.08,110.86-.03,166.28,0,.37,40.77-.06,81.54.2,122.3.62,8.38,5.11,16.66,12.53,20.88,4.52,2.7,9.78,4.02,15.05,3.74,584.3-.07,1168.6,0,1752.9-.03,9.75.36,19.36-5.44,23.52-14.29,2.55-4.71,2.95-10.17,2.88-15.43-.05-84.33-.02-168.67-.05-253.01.02-5.76.38-11.79-2.07-17.17-2.53-5.59-7.03-10.55-12.73-12.93-4.92-3.1-10.95-2.42-16.47-2.5-209.67.05-419.34-.02-629,.04-246.77-.11-493.53.11-740.29-.1.01-7.76.15-15.53-.01-23.28-.02-8.71-7.94-16.65-16.7-16.41-103.33.02-206.66-.03-309.99,0-4.04-.04-8.36.23-11.74,2.69M487.87,346.89c-3.85,8.17-3.02,17.43-3.12,26.19.04,28.98-.11,57.95-.04,86.92.09,6.36-.52,12.89,1.41,19.06,1.95,6.71,6.61,12.37,12.37,16.24,2.44,1.23,4.88,2.51,7.52,3.31,5.83,1.89,12.03.97,18.04,1.43,34.28.19,68.57.07,102.86.11,54.65-.09,109.3.2,163.94-.27-.07-1.54-.14-3.07-.21-4.59,1.23-8.54,4.04-17.16,9.89-23.69,6.85-7.7,16.58-13.34,27.02-13.85,1.55.05,3.11.09,4.68.13.2-13.67.1-27.34-.01-41,22.08-.33,44.17.2,66.24-.25-1.38,3.85-2.81,7.68-4.26,11.5,4.53-1.53,8.57-4.12,12.87-6.16,4.56-2.49,9.36-4.6,13.63-7.6-8.75-4.87-17.41-9.94-26.44-14.28,1.32,3.76,2.63,7.53,4.23,11.19-.76,1.78-2.99.79-4.43,1.06-20.58-.29-41.18.14-61.75-.24-.03-17.04.03-34.08-.02-51.11-.07-9.61-4.06-19.57-12.11-25.2-5.72-4.46-13.13-5.87-20.23-5.59-94.68.05-189.35-.09-284.03.08-11.45-.27-23.11,6.09-28.05,16.61M928.66,341.14l-.41-.16c-4.68,5.94-7,13.46-6.77,21-.07,36.01-.08,72.03-.02,108.05-.21,11.87,7.43,23.48,18.59,27.67,5.95,2.65,12.57,2.11,18.92,2.17,47.99.54,96.01.17,144.01.27,53.56-.16,107.14.31,160.69-.19-.03-1.56-.03-3.11-.02-4.66,1.62-8.43,3.78-17.3,9.98-23.64,6.67-7.96,16.46-13.01,26.8-13.98,1.6.08,3.21.14,4.85.22.16-13.64.15-27.28.02-40.92,19.57-.4,39.16-.04,58.74-.24,1.56.04,3.27-.33,4.75.48.16.43.5,1.29.66,1.72-1.48,3.06-2.51,6.31-3.5,9.56,8.98-3.97,17.51-8.93,26.07-13.74-3.49-3.04-7.85-4.73-11.8-7.04-4.76-2.4-9.27-5.34-14.26-7.23,1.01,3.26,2.1,6.51,3.5,9.63-.16.43-.48,1.28-.64,1.71-.38.14-1.16.42-1.54.56-20.59-.01-41.18-.25-61.77.06-.39-12.81-.02-25.63-.17-38.44-.17-7.59.77-15.41-1.7-22.74-2.41-8.2-8.66-15.05-16.42-18.53-6.01-2.82-12.77-2.51-19.23-2.52-104.34-.03-208.67-.05-313.01.01-9.74-.41-20.32,2.85-26.32,10.92M1415.93,331.04c-10.09,2.08-18.86,9.94-21.75,19.87-2.21,7.16-1.47,14.73-1.6,22.1.04,31.67,0,63.33-.04,95-.12,5.76.91,11.64,3.68,16.75,4.45,8.47,13.54,13.9,22.92,14.97v.1c36.24.59,72.51.2,108.78.31,55.85,0,111.72.1,167.56-.2-.01-1.58,0-3.15.01-4.72,1.08-9.59,5.55-18.58,12.25-25.5,6.57-7.36,16.3-11.52,26.1-11.96,1.55,0,3.14.03,4.73.04.12-13.68-.16-27.37.04-41.05,21.22.03,42.44.18,63.66-.05.38.12,1.14.37,1.51.5.15.41.45,1.23.6,1.64-1.65,2.9-2.52,6.13-3.51,9.28,8.72-3.92,17.11-8.59,25.41-13.31l1.18-.37c-.02,18.83-.16,37.67-.04,56.51.07,14.51,12.56,27.93,27.12,28.6,9.46.73,18.96.22,28.44.59,52.34-.03,104.67-.09,157-.01,30.98-.1,61.96.15,92.93-.24,10.49-.04,21,.52,31.48-.41,7.49-1.62,14.72-5.5,19.25-11.82,4.26-5.6,5.97-12.74,5.84-19.69-.03-35.34.04-70.68-.02-106.02.14-8.07-2.28-16.49-7.95-22.42-5.98-6.38-14.83-9.66-23.51-9.29-99.62-.1-199.25-.08-298.87.03-10.1-.35-20.46,4.25-26.24,12.66-3.93,5.49-5.57,12.34-5.45,19.02-.04,16.03-.02,32.05.01,48.07-.31,1.41.51,3.43-.72,4.45-8.27-5.41-17.28-9.57-25.88-14.41.95,3.55,1.86,7.18,3.8,10.36-1.46,3.04-5.07,1.71-7.69,1.89-19.49-.08-38.97-.01-58.46.05.07-17.14.06-34.28.07-51.41.2-10.7-5.37-21.54-14.87-26.75-5.87-3.61-12.9-4.24-19.63-4.01-91.35,0-182.7-.01-274.05.04-4.7.06-9.46-.2-14.09.81M822.46,463.68c-12.75,3.07-23.18,13.92-25.88,26.74-2.71,11.7,1.53,24.61,10.31,32.73,11.67,11.52,31.77,12.43,44.62,2.35,11.94-8.77,17.42-25.52,12.06-39.48-5.45-16.39-24.28-27.13-41.11-22.34M1296.2,463.37c-9.25,2.17-17.57,8.17-22.48,16.31-8.94,14.21-5.09,34.39,7.73,44.98,12.22,10.62,31.88,10.2,44.12-.17,11.7-9.29,16.21-26.55,10.16-40.28-6.07-15.06-23.54-24.89-39.53-20.84M1729.14,463.26c-12.83,2.69-24.18,12.71-27.13,25.68-4.03,14.94,3.19,32.15,16.98,39.33,11.2,6.23,25.71,5.19,36.21-2.02,12.74-8.35,18.56-25.59,13.38-39.94-5.21-15.87-22.98-26.62-39.44-23.05M497.4,617.6c-4.78.97-8.7,4.58-10.97,8.79-2.37,4.47-1.91,9.69-1.92,14.58.08,15.02-.06,30.04,0,45.06-.01,2.36.47,4.7.89,7.03,2.29,5.98,7.89,10.74,14.5,10.67,26.04.22,52.09-.07,78.13.27,15.3.6,30.6-.53,45.91-.05,34.71-.22,69.46-.12,104.16.02,28.96-.3,57.93-.13,86.9-.14,5.65-.07,11.45.82,16.98-.78,4.96-1.55,8.77-5.69,10.43-10.56,1.28-5.06.86-10.31.94-15.47.01-14,.29-28,.14-42,.11-6.3-3.17-12.66-8.76-15.71-3.82-2.28-8.4-2.05-12.67-2.08-105.01.01-210.02.03-315.04.04-3.21.03-6.44-.15-9.62.33M2316.29,627.38c-4.35.88-7.85,4.07-10.55,7.41-4.52,6.09-3.73,14.05-3.88,21.2.63,52.66.1,105.34.33,158.02.19,7.25-1.33,15.33,3.22,21.64,3.61,6.04,10.69,9.02,17.58,8.67,113,.02,226,.07,339-.05,9.11.64,18.1-6.21,19.6-15.26.7-5.99.44-12.04.49-18.05-.03-54.3-.02-108.6.03-162.89.23-6.85-2.18-14.26-8.15-18.13-3.66-2.97-8.55-2.99-12.99-3.05-107.66-.03-215.31.03-322.97-.03-7.24.18-14.52-.43-21.71.52M912.25,757c-2.18,4.66-2.72,9.86-2.66,14.95-.11,32.69.04,65.38-.01,98.07-.16,8.12,2.48,16.38,7.9,22.51,5.82,6.66,14.73,10.27,23.53,10.08,34.17.11,68.34-.03,102.51.06.08-.58.23-1.74.31-2.31,2.61-11.17,10.51-20.66,20.54-26.02,15.13-8.28,35.99-5.35,47.42,7.84,2.39,2.59,5.27,4.89,6.77,8.17,1.7,3.55,1.81,7.65,3.7,11.14.02.29.07.87.09,1.16,33.53-.04,67.06-.12,100.59-.06,3.23,0,6.53.12,9.67-.85,14.04-1.77,24.09-16.07,23.74-29.8.14-16.51-.11-33.03.11-49.54,10.67.35,22.32.52,31.61-5.55,7.22-4.84,10.41-13.34,13.13-21.21,1.5,2.02,2.62,4.28,3.62,6.59,5.82,12.55,11.66,25.09,17.34,37.71,2.48,5.17,4.48,10.6,7.43,15.54.63,1.55,2.45.95,3.78,1.18,3.68-8.46,4.92-18.16,10.73-25.58,6.1-6.88,16.07-7.6,24.67-7.84-1.01,4.25-2.52,8.37-3.51,12.63,8.8-5.12,17.89-9.73,26.63-14.95-8.47-5.86-17.74-10.44-26.86-15.18.91,4.25,2.46,8.33,3.5,12.56-8.51.51-17.78,1.17-24.88,6.4-6.99,5.34-9.48,14.18-12.02,22.19-.21-.1-.62-.29-.83-.39-8.83-18.4-17.27-37-25.81-55.54-.88-1.56-1.54-4.21-3.86-3.69-2.23.21-2.62,2.91-3.45,4.54-3.06,7.37-5.13,16.14-12.15,20.84-8.69,5.42-19.36,4.96-29.2,5.19.17-15.25-.08-30.5.08-45.75-.14-3.98.19-8.25-1.58-11.92-2.47-8.69-9.6-15.67-17.88-18.97-5.36-2.29-11.27-1.94-16.95-1.96-93.02,0-186.05-.08-279.07.03-11.96-.53-23.88,6.74-28.68,17.73M1412.92,740.73c-8.33,2.96-15.58,9.57-18.46,18-1.74,4.2-2.16,8.77-2.16,13.28.02,28.67-.07,57.35-.02,86.03.14,7.99-.88,16.27,1.96,23.93,3.2,9.72,11.64,17.46,21.61,19.79,6.94,1.54,14.11.74,21.17.93,86.66-.07,173.33-.03,259.99-.09,8.62-.11,17.83.96,25.69-3.43,9.58-5.03,16.09-15.33,16.38-26.17.39-16.73-.23-33.48.22-50.2,21.58.67,43.18.29,64.77.35-.83,4.33-2.34,8.48-3.67,12.67,9.17-4.41,17.98-9.59,26.7-14.81-8.43-5.81-17.64-10.51-26.81-15.05,1.21,4.08,2.96,8.05,3.6,12.29-21.66-.16-43.31-.09-64.96.03.24-16.75.53-33.52-.02-50.27-.23-15.5-14.48-29.11-29.95-28.74-92.65-.13-185.3,0-277.96-.06-6.04.12-12.29-.57-18.08,1.52M1828.21,764.79c-.85,1.14-.43,2.81-.59,4.17-.14,30,.08,59.99-.03,89.99.18,8.8-.99,18.05,2.92,26.29,3.32,6.67,8.92,12.3,15.91,15.07,5.53,2.42,11.66,2.36,17.59,2.34,43.99-.02,87.98-.03,131.97-.08,5.03.03,10.15-.44,15.09.89,15.58,3.54,31.16,7.09,46.84,10.21,35.37,7.12,70.61,14.9,105.97,22.09-1.65,4.33-4.72,7.88-6.77,11.99,10.05-2.88,19.99-6.19,30.04-9.11-1.38-2.81-4.14-4.47-6.39-6.49-5.77-4.66-11.34-9.59-17.23-14.1.03,4.31.29,8.62.7,12.93-12.66-2.31-25.1-5.62-37.69-8.23-31.79-6.72-63.66-13.03-95.38-20.08,41.94.08,83.87-.13,125.81-.04,8.51.25,17.77-2.25,23.43-8.99l.51-.06c3.26-3.6,5.87-7.83,7.2-12.53,1.74-5.52,1.22-11.37,1.29-17.07.02-31.64-.01-63.28.03-94.92-.03-9.87-5.42-19.14-13.37-24.79-6.76-4.72-15.14-5.4-23.12-5.01-98.33-.05-196.66-.12-295,0-14.24-.26-28.17,11.25-29.73,25.53M1056.78,885.79c-12.81,13.54-11.37,37.59,2.98,49.49,12.77,11.63,34.79,11.98,47.03-.6l.28-.06c2.07-2.01,3.9-4.27,5.47-6.7l.02-.35c10.2-15.12,5.24-37.4-9.55-47.66-13.93-10.18-35.2-7.27-46.23,5.88M810.9,1070.12c0,.75,0,2.26.02,3.01,22,.41,44.03.2,66.04.23,561.67.03,1123.33-.01,1685,0,5.61.2,11.67-.98,16.85,1.88,7.62,3.85,11.7,12.5,11.82,20.79.06,86.66.04,173.32.05,259.98-.01,10.04-8.25,18.2-17.41,21.06-41.4-.62-82.83-.17-124.23-.31-181.02.03-362.04-.05-543.06.06-18.99,0-37.99-.33-56.96.4-2.46-.23-4.21,1.54-5.42,3.43,28.44.33,56.9-.04,85.35.08,209.68.02,419.36-.11,629.04-.02,5.09-.25,10.34.76,15.33-.65,9.57-1.39,17.74-9.04,20.19-18.33,1.07-4.5.81-9.17.84-13.74.03-80.02.02-160.03.06-240.05-.11-7.68.73-15.69-2.2-22.99-2.6-7.13-8.77-12.98-16.23-14.66-5.28-1.12-10.7-.57-16.03-.67-559.3,0-1118.6.03-1677.9.01-23.71.21-47.45-.48-71.15.49M2089.96,1103.28c-33.94,3.48-67.75,9.68-100.17,20.47-14.36,5.14-28.99,10.46-41.43,19.5-6.78,4.77-12.42,11.41-14.55,19.56-35.26.07-70.52.6-105.78.21-12.35-.28-24.71-.26-37.04.27-9.82.43-19.39,5.69-24.54,14.14-3.71,5.76-4.64,12.78-4.52,19.5.13,31,.17,62.01.13,93.01.05,4.35-.21,8.81.97,13.06,2.42,9.49,9.72,17.73,19.13,20.72,6.67,2.36,13.84,1.66,20.79,1.74,42.37-.03,84.73-.09,127.1.1,1.23-.09,2.37.21,3.43.89-9.24,3.04-18.44,6.17-27.77,8.91,3.49,2.42,7.57,3.73,11.35,5.65-12.09,8.59-26.01,14.22-39.84,19.37-18.7,6.68-37.77,12.33-57.05,17.05-11.37-.69-22.75-.49-34.13-.58-157.37-.04-314.74-.02-472.1.01-29.62-.05-59.25.84-88.87,0-9.08-.46-18.16.15-27.23.47-18.39-4.38-36.61-9.55-54.46-15.79-15.56-5.52-31.2-11.56-44.91-20.91-5.1-4-11.4-8.24-12.45-15.13,46.31-.25,92.63.13,138.95-.12,8.52.17,17.07-3.2,22.93-9.44,5.28-5.62,8.27-13.27,8.34-20.97.16-16.34.01-32.67-.06-49.01,17.82-.23,35.65.01,53.48-.12-.79,4.54-2.9,8.69-3.94,13.17,8.84-4.62,17.78-9.43,25.45-15.86-8.54-4.94-17.04-10.02-25.99-14.18,1.22,4.13,3.14,8.04,4.05,12.29-17.7-.02-35.4.06-53.1-.14.15-11.04.16-22.08.18-33.12-.1-8.97.81-18.24-2.59-26.77l-.26-.06c-2.68-7.2-8.73-12.83-15.74-15.76-5.56-2.42-11.73-2.45-17.67-2.53-84.68-.01-169.38.02-254.04.11-9.87.03-19.78-.56-29.61.5-8.65,1-16.73,5.82-21.63,13.02-2.09,3.92-4.53,8.1-4.46,12.67-.94,4.22-.7,8.57-.72,12.87,0,28.33.08,56.66.03,84.99.06,4.17-.26,8.39.65,12.51.79,10.27,8.38,19.49,17.8,23.39,7.56,3.32,16,2.28,24.03,2.48,42.77.03,85.53-.01,128.3.05,2.01,9.62,10.51,15.78,18.17,20.97,23.85,15.07,51.36,22.65,78.17,30.6-2.45,1.23-5.19.37-7.76.34-26.33-.76-52.68-.58-79.02-.61-164.31.02-328.61-.03-492.91,0-49.05.14-98.11-.21-147.15.37-1.9-.13-3.03,1.57-3.98,2.93,1.32.31,2.67.53,4.04.67,241.33-.07,482.67.02,724-.09,4.06.08,8.01-1.2,12.09-1.06,24.69,6.38,49.7,11.53,74.91,15.43,52.35,8.13,105.1,13.75,158.01,16.53,52.28,3.35,104.7,3,157.04,1.36,41.37-1.72,82.71-4.62,123.83-9.63,41.03-5.01,81.95-11.4,122.14-21.17,16.88-3.66,33.31-9.13,49.68-14.59,17.08-6.06,34.17-12.74,49.2-23.05,2.39,3.32,3.58,7.82,6.35,10.61,1.55-4.25,2.34-8.72,3.72-13.01,1.39-5.47,3.47-10.82,3.96-16.47,48.03-.35,96.08-.11,144.12-.14,4.72.01,9.52-.66,13.88-2.6,10.41-4.55,17.75-15.43,17.81-26.83.21-16.65-.13-33.3.17-49.94,18.98-.3,37.97-.18,56.97-.22-.17,2-.91,3.9-1.52,5.81-.99,2.28-1.92,4.57-2.7,6.93,2.8-1.02,5.42-2.49,7.87-4.21,6.61-3.02,12.88-6.89,19.19-10.54-2.92-2.9-6.93-4.15-10.42-6.14-5.67-2.8-10.98-6.34-16.91-8.55,1.14,3.83,2.61,7.55,4.35,11.16-1.05,1.57-3.17.81-4.69,1.03-17.4-.07-34.8-.2-52.2-.1-.09-14.08-.01-28.16-.01-42.23.04-5.62-.17-11.38-2.26-16.66-3.65-10-13.2-17.39-23.68-18.85-7.6-.75-15.26-.5-22.88-.64-40.92.3-81.84-.25-122.76.08,1.64-6.96,7.23-11.95,12.66-16.15,11.38-8.32,24.77-13.22,37.94-17.92,48.24-16.35,99.36-22.58,150.12-23.56,37.52.22,75.17,3.14,111.98,10.67,25.55,5.47,51.09,12.49,74.34,24.69,3.74,2.13,7.82,3.85,10.99,6.87-3.59,2.44-7.5,4.39-10.84,7.17,9.89,1.37,19,5.85,28.78,7.68-2.01,1.24-4.88.32-7.18.52-36.69-.18-73.38.13-110.06-.03-8.65.09-17.42-.55-25.89,1.57-11.23,3.42-20.09,13.96-20.72,25.75-.75,4.23-.46,8.53-.5,12.82.01,15.63.06,31.26.05,46.9.21,14.9-.49,29.84.38,44.72-.74,10.1,4.96,20.17,13.34,25.68,5.64,3.86,12.61,5.22,19.36,5.11,87.98.03,175.95,0,263.93.01,4.37.01,8.83,0,13.08-1.26,10.04-2.76,18.06-11.32,20.7-21.33,1.19-4.54,1.04-9.27,1.06-13.91.05-27.2-.07-54.4-.02-81.59-1.42-.02-2.81.01-4.16.08-11.66-.07-23.46-4.98-30.72-14.28-5.96-6.85-8.7-15.95-9.09-24.89.01-1.81.06-3.59.12-5.37-40.81-.21-81.63.2-122.44-.14-.23-.42-.69-1.26-.93-1.68-3.6-9.34-5.97-19.12-9.93-28.32-2.06,3.26-3.31,6.93-4.64,10.52-14.58-8.63-30.05-15.71-46.16-20.95-30.02-9.94-61.33-15.51-92.73-18.71-37.23-3.77-74.84-4.11-112.08-.35M1474.35,1120.42c-10.14,13.23-12.23,32.85-3.4,47.26,8.25,17.89,30.53,26.88,49.24,21.68,8.28-1.67,15.74-6.55,21.42-12.72,2.76-3.29,5.88-6.74,6.99-10.95,4.56-8.43,5.24-18.86,3.2-28.04-.59-7.3-4.6-13.81-9.09-19.39-4.79-6.1-11.6-10.27-18.78-12.99-17.47-6.38-38.73-.02-49.58,15.15M2511.24,1133.4c-12.79,2.82-23.74,13.06-26.91,25.84-4.19,14.51,3.05,30.76,15.66,38.63,7.58,4.97,17.18,5.87,25.95,4.29,11.76-2.35,21.56-11.59,25.46-22.82,4.19-12.14,1.41-26.72-7.79-35.87-8.11-8.61-20.83-12.49-32.37-10.07M1349.61,1162.51c-10.73,5.08-17.58,16.71-17.82,28.45-.22,35.35-.21,70.71-.03,106.06.11,9.1,3.68,18.39,10.76,24.34,6.3,5.79,14.89,8.67,23.41,8.4,87.34.17,174.68.06,262.01.08,10.45-.21,20.96.51,31.37-.75,15.7-2.32,27.5-17.43,27.06-33.1.12-16.72-.02-33.44.01-50.15,17.54-.01,35.09.4,52.63.08-.28,1.46-.59,2.94-.73,4.44-1.19,2.56-2.22,5.19-2.9,7.93,1.5-.7,3.04-1.4,4.57-2.11,7.09-4.34,14.99-7.54,21.38-12.93-8.83-4.76-17.46-9.91-26.49-14.25,1.22,4.09,3,8,4.18,12.12-17.67.14-35.33-.06-52.99.02.79-15.01.08-30.13.28-45.18.25-8.18-.81-17.18-6.52-23.49-.96-2.37-3.12-3.96-4.86-5.71l-.27-.03c-5.55-5.09-13.2-7.49-20.64-7.56-4.35-.05-8.69-.38-13.03-.32-28,.2-56.01-.4-84,.34-1.33,3.32-2.88,6.57-4.06,9.95-7.75,16.94-26.34,27.85-44.88,26.77-18.17.23-36.41-11-43.01-28.17-.91-2.92-2.21-5.7-3.15-8.6-6.93-.59-13.89-.17-20.83-.3-20.36.18-40.7.34-61.06.03-10.15.26-21.01-1.13-30.39,3.64M489.61,1176.52c-2.27,3.8-4.39,8.15-4.25,12.67-1.08,8.9-.27,17.91-.54,26.86,0,18.96-.07,37.93,0,56.9.3,8.96-.63,17.99.56,26.9.46,8.95,6.73,16.98,14.2,21.56,8.89,5.34,19.59,3.85,29.46,4.05,86.33.02,172.67-.01,259-.02,9.54-.15,19.7,1.15,28.45-3.57l.02-.23c9.26-4.97,15.41-15.14,15.49-25.65.27-16.69-.11-33.38.14-50.07,18.03-.03,36.06-.11,54.1-.06,0,4.57-2.91,8.56-3.98,12.94,5.35-2.31,10.23-5.53,15.38-8.23,3.96-2.42,8.27-4.29,11.88-7.24-9.16-4.9-18.25-9.99-27.61-14.48,1.02,4.25,3.43,8.09,4.08,12.44-17.96-.01-35.92-.1-53.88-.14-.09-16.04.05-32.08-.06-48.11-.15-11.62-7.28-23.23-18.34-27.36l-.23-.35c-4.59-1.83-9.55-2.34-14.44-2.41-67.02-.12-134.04.03-201.06-.04-28.03.13-56.06-.26-84.09.35-9.54.39-19.17,5.03-24.29,13.29Z"/>
  </g>
  <g id="_x23_56a078ff">
    <path class="st8" d="M492.31,211.26c3.38-2.46,7.7-2.73,11.74-2.69,103.33-.02,206.66.03,309.99,0,8.76-.24,16.68,7.7,16.7,16.41.16,7.75.02,15.52.01,23.28-.01,1.27-.01,2.55,0,3.83-.04,8.98.16,17.96.01,26.94-.06,9.15-8.8,16.72-17.8,16.25-103.34.02-206.68,0-310.03,0-6.01.16-12.14-2.69-15.58-7.68-2.32-3.39-2.82-7.61-2.74-11.63.1-16.64-.12-33.29.02-49.93-.14-5.83,2.76-11.63,7.68-14.8M496.34,214.38c-4.39,2.02-7.18,6.73-7.04,11.54-.17,14.7.11,29.42-.46,44.11.17,5.4-.65,11.64,3.27,15.99,2.81,3.59,7.54,4.82,11.93,4.49,103,.11,206.01.09,309.02.03,6.83.34,13.51-5.51,13.1-12.55-.03-17.65.23-35.32-.21-52.96.03-6.71-6.24-12.35-12.91-11.66-103.32-.09-206.65-.02-309.97-.05-2.27.06-4.64.08-6.73,1.06Z"/>
  </g>
  <g id="_x23_d6edddff">
    <path class="st43" d="M496.34,214.38c2.09-.98,4.46-1,6.73-1.06,103.32.03,206.65-.04,309.97.05,6.67-.69,12.94,4.95,12.91,11.66.44,17.64.18,35.31.21,52.96.41,7.04-6.27,12.89-13.1,12.55-103.01.06-206.02.08-309.02-.03-4.39.33-9.12-.9-11.93-4.49-3.92-4.35-3.1-10.59-3.27-15.99.57-14.69.29-29.41.46-44.11-.14-4.81,2.65-9.52,7.04-11.54Z"/>
    <path class="st43" d="M492.39,348.39c4.38-8.64,14.11-13.85,23.68-13.67,92.3.1,184.61-.07,276.92.09,4.6.02,9.23-.16,13.8.47,7.91,1.11,15.12,6.49,18.29,13.86,1.98,4.33,2.61,9.15,2.53,13.88-.06,16.63-.05,33.26-.09,49.89-.06,14.95-.03,29.9.03,44.84-10.44.51-20.17,6.15-27.02,13.85-5.85,6.53-8.66,15.15-9.89,23.69-90.87.21-181.75.08-272.63.11-6.35.18-12.85-1.19-18.11-4.88-6.97-5.18-10.89-13.85-10.56-22.49.05-34.03-.07-68.06-.05-102.09-.09-5.95.25-12.18,3.1-17.55Z"/>
    <path class="st43" d="M933.11,342.84c4.71-4.79,11.22-7.69,17.94-7.94,7.65-.27,15.31-.05,22.97-.14,99.65.02,199.3-.08,298.95.04,9.87-.5,20.16,4.61,24.49,13.73,3.83,7.2,2.96,15.57,3.07,23.42-.08,28.57.1,57.15-.1,85.72-10.34.97-20.13,6.02-26.8,13.98-6.2,6.34-8.36,15.21-9.98,23.64-103.54.24-207.09-.01-310.64.14-9.48.45-19.13-4.48-23.54-13.02-4.52-7.71-3.1-16.92-3.38-25.43-.36-10.33-.22-20.67.02-31-.28-11.97-.4-23.94-.06-35.91.07-10.04-.57-20.09.1-30.11.38-6.27,2.72-12.44,6.96-17.12Z"/>
    <path class="st43" d="M1400.68,347.61c4.67-8.59,14.68-13.26,24.28-12.8,94.01-.04,188.04-.16,282.05.03,9.06-.32,18.43,4.01,23.13,11.94,3.64,6.06,4.15,13.33,4.03,20.24-.12,30.25.07,60.49-.33,90.74-9.8.44-19.53,4.6-26.1,11.96-6.7,6.92-11.17,15.91-12.25,25.5-84.5.3-169,.17-253.49.19-7.76-.09-15.52.26-23.26-.21-11.62-1.78-21.38-12.23-21.43-24.13-.24-35.37.03-70.74-.09-106.11-.14-5.93.4-12.12,3.46-17.35Z"/>
    <path class="st43" d="M1834.62,349.45c4.15-9.31,14.35-15.09,24.44-14.67,96.98-.06,193.96-.06,290.94-.01,7.54.02,15.69-.47,22.39,3.67,7.97,4.43,12.44,13.59,12.42,22.55-.07,34.99-.05,69.98-.05,104.98.07,4.89-.03,10-2.32,14.46-3.79,8.39-12.41,13.93-21.47,14.74-53.34.39-106.69,0-160.03.19-48.75-.07-97.5.06-146.24-.08-8.87-1.26-17.1-7.04-20.51-15.44-2.96-6.54-1.88-13.86-2.08-20.81-.17-28.68-.16-57.35-.01-86.03.17-7.87-1-16.2,2.52-23.55M2109.44,371.62c-8.12,1.5-15.69,5.51-21.65,11.2-11.88,10.94-16.58,28.83-11.71,44.21,5.38,17.31,22.26,31.35,40.86,30.51,16.94.59,33.12-10.32,39.77-25.76,5.91-13.09,4.36-29.12-3.52-41.07-9.16-14.16-27.05-22.5-43.75-19.09Z"/>
  </g>
  <g id="_x23_cbd4dcff">
    <path class="st83" d="M435.88,252.8c4.37-3.12,9.76-4.59,15.11-4.46,10.97.07,21.93-.11,32.9-.02.12,1.3.25,2.6.38,3.91-11.97.42-23.95-.18-35.91.26-8.88.42-16.47,7.41-18.9,15.75-1.39,4.43-1.05,9.13-1.09,13.71.06,31.37.02,62.74-.02,94.11-.16,12.06.39,24.15-.2,36.21h-3.82c.28-45.62-.1-91.25.17-136.87-.17-8.86,3.97-17.61,11.38-22.6Z"/>
  </g>
  <g id="_x23_cfd8e0ff">
    <path class="st64" d="M830.75,248.27c246.76.21,493.52-.01,740.29.1,209.66-.06,419.33.01,629-.04,5.52.08,11.55-.6,16.47,2.5-1.64.57-3.21,1.23-4.81,1.77-25.88-.49-51.78-.11-77.67-.24-419.67,0-839.33-.02-1259,0-14.76-.15-29.53.26-44.28-.27-.01-1.28-.01-2.56,0-3.83Z"/>
    <path class="st64" d="M445.92,1380.07c.95-1.36,2.08-3.06,3.98-2.93,49.04-.58,98.1-.23,147.15-.37,164.3-.03,328.6.02,492.91,0,26.34.03,52.69-.15,79.02.61,2.57.03,5.31.89,7.76-.34,3.09.84,6.19,1.73,9.31,2.55-4.08-.14-8.03,1.14-12.09,1.06-241.33.11-482.67.02-724,.09-1.37-.14-2.72-.36-4.04-.67Z"/>
  </g>
  <g id="_x23_c9d2dbff">
    <path class="st82" d="M2211.7,252.6c1.6-.54,3.17-1.2,4.81-1.77,5.7,2.38,10.2,7.34,12.73,12.93,2.45,5.38,2.09,11.41,2.07,17.17.03,84.34,0,168.68.05,253.01.07,5.26-.33,10.72-2.88,15.43-4.16,8.85-13.77,14.65-23.52,14.29-584.3.03-1168.6-.04-1752.9.03-5.27.28-10.53-1.04-15.05-3.74-7.42-4.22-11.91-12.5-12.53-20.88-.26-40.76.17-81.53-.2-122.3,1.47,0,2.94,0,4.42,0-.37,40.41-.08,80.82-.17,121.22-.45,12,10.4,22.72,22.43,22.05,104.71.18,209.43-.14,314.14,0,260.29-.15,520.57.08,780.86-.03,218,.21,436-.12,654,.08,5.48.11,11.26-.18,16.23-2.8,6.51-3.68,10.97-10.81,11.42-18.27-.03-84.67.03-169.34-.03-254.01-.09-6.8.92-13.98-2.21-20.3-2.36-5.99-8-9.66-13.67-12.1Z"/>
  </g>
  <g id="_x23_519f73ff">
    <path class="st59" d="M487.87,346.89c4.94-10.52,16.6-16.88,28.05-16.61,94.68-.17,189.35-.03,284.03-.08,7.1-.28,14.51,1.13,20.23,5.59,8.05,5.63,12.04,15.59,12.11,25.2.05,17.03,0,34.07.02,51.11-1.65-.2-3.26.29-4.79.81.04-16.63.03-33.26.09-49.89.08-4.73-.55-9.55-2.53-13.88-3.17-7.37-10.38-12.75-18.29-13.86-4.57-.63-9.2-.45-13.8-.47-92.31-.16-184.62.01-276.92-.09-9.57-.18-19.3,5.03-23.68,13.67-2.85,5.37-3.19,11.6-3.1,17.55-.02,34.03.1,68.06.05,102.09-.33,8.64,3.59,17.31,10.56,22.49-.47,1.59-.95,3.18-1.41,4.78-5.76-3.87-10.42-9.53-12.37-16.24-1.93-6.17-1.32-12.7-1.41-19.06-.07-28.97.08-57.94.04-86.92.1-8.76-.73-18.02,3.12-26.19Z"/>
  </g>
  <g id="_x23_509d74ff">
    <path class="st34" d="M928.66,341.14c6-8.07,16.58-11.33,26.32-10.92,104.34-.06,208.67-.04,313.01-.01,6.46.01,13.22-.3,19.23,2.52,7.76,3.48,14.01,10.33,16.42,18.53,2.47,7.33,1.53,15.15,1.7,22.74.15,12.81-.22,25.63.17,38.44,20.59-.31,41.18-.07,61.77-.06.38-.14,1.16-.42,1.54-.56.16-.43.48-1.28.64-1.71,2.15,2.73-1.76,3.27-3.6,4.26,1.7.99,5.36,1.93,3.59,4.56-.16-.43-.5-1.29-.66-1.72-1.48-.81-3.19-.44-4.75-.48-19.58.2-39.17-.16-58.74.24.13,13.64.14,27.28-.02,40.92-1.64-.08-3.25-.14-4.85-.22.2-28.57.02-57.15.1-85.72-.11-7.85.76-16.22-3.07-23.42-4.33-9.12-14.62-14.23-24.49-13.73-99.65-.12-199.3-.02-298.95-.04-7.66.09-15.32-.13-22.97.14-6.72.25-13.23,3.15-17.94,7.94-1.49-.57-2.98-1.14-4.45-1.7Z"/>
  </g>
  <g id="_x23_509d73ff">
    <path class="st33" d="M1415.93,331.04c4.63-1.01,9.39-.75,14.09-.81,91.35-.05,182.7-.04,274.05-.04,6.73-.23,13.76.4,19.63,4.01,9.5,5.21,15.07,16.05,14.87,26.75,0,17.13,0,34.27-.07,51.41,19.49-.06,38.97-.13,58.46-.05,2.62-.18,6.23,1.15,7.69-1.89.13.25.4.77.53,1.02-.45,1.09-.96,2.15-1.45,3.21.44.96.91,1.92,1.29,2.94-.16.32-.48.94-.64,1.25-.15-.41-.45-1.23-.6-1.64-.37-.13-1.13-.38-1.51-.5-21.22.23-42.44.08-63.66.05-.2,13.68.08,27.37-.04,41.05-1.59,0-3.18-.03-4.73-.04.4-30.25.21-60.49.33-90.74.12-6.91-.39-14.18-4.03-20.24-4.7-7.93-14.07-12.26-23.13-11.94-94.01-.19-188.04-.07-282.05-.03-9.6-.46-19.61,4.21-24.28,12.8-3.06,5.23-3.6,11.42-3.46,17.35.12,35.37-.15,70.74.09,106.11.05,11.9,9.81,22.35,21.43,24.13,2.01.56,3.98,1.26,5.96,1.97-1.74.02-3.48.02-5.19.02-.14.84-.26,1.69-.37,2.54-9.38-1.07-18.47-6.5-22.92-14.97-2.77-5.11-3.8-10.99-3.68-16.75.04-31.67.08-63.33.04-95,.13-7.37-.61-14.94,1.6-22.1,2.89-9.93,11.66-17.79,21.75-19.87Z"/>
  </g>
  <g id="_x23_509f73ff">
    <path class="st104" d="M1859.13,330.27c99.62-.11,199.25-.13,298.87-.03,8.68-.37,17.53,2.91,23.51,9.29,5.67,5.93,8.09,14.35,7.95,22.42.06,35.34-.01,70.68.02,106.02.13,6.95-1.58,14.09-5.84,19.69-4.53,6.32-11.76,10.2-19.25,11.82-1.16-1.44-2.29-2.88-3.42-4.31,9.06-.81,17.68-6.35,21.47-14.74,2.29-4.46,2.39-9.57,2.32-14.46,0-35-.02-69.99.05-104.98.02-8.96-4.45-18.12-12.42-22.55-6.7-4.14-14.85-3.65-22.39-3.67-96.98-.05-193.96-.05-290.94.01-10.09-.42-20.29,5.36-24.44,14.67-3.52,7.35-2.35,15.68-2.52,23.55-.15,28.68-.16,57.35.01,86.03.2,6.95-.88,14.27,2.08,20.81,3.41,8.4,11.64,14.18,20.51,15.44,4.35.86,8.65,2.36,13.14,2.17-.28.33-.85,1-1.13,1.34-4.08.02-8.14.26-12.17.76-14.56-.67-27.05-14.09-27.12-28.6-.12-18.84.02-37.68.04-56.51l-1.18.37.45-.34c1.23-1.02.41-3.04.72-4.45-.03-16.02-.05-32.04-.01-48.07-.12-6.68,1.52-13.53,5.45-19.02,5.78-8.41,16.14-13.01,26.24-12.66Z"/>
  </g>
  <g id="_x23_4a9e6eff">
    <path class="st88" d="M928.25,340.98l.41.16c1.47.56,2.96,1.13,4.45,1.7-4.24,4.68-6.58,10.85-6.96,17.12-.67,10.02-.03,20.07-.1,30.11-.34,11.97-.22,23.94.06,35.91-.24,10.33-.38,20.67-.02,31,.28,8.51-1.14,17.72,3.38,25.43,4.41,8.54,14.06,13.47,23.54,13.02,103.55-.15,207.1.1,310.64-.14-.01,1.55-.01,3.1.02,4.66-53.55.5-107.13.03-160.69.19-48-.1-96.02.27-144.01-.27-6.35-.06-12.97.48-18.92-2.17-11.16-4.19-18.8-15.8-18.59-27.67-.06-36.02-.05-72.04.02-108.05-.23-7.54,2.09-15.06,6.77-21Z"/>
  </g>
  <g id="_x23_4ea571ff">
    <path class="st51" d="M2109.44,371.62c16.7-3.41,34.59,4.93,43.75,19.09,7.88,11.95,9.43,27.98,3.52,41.07-6.65,15.44-22.83,26.35-39.77,25.76-18.6.84-35.48-13.2-40.86-30.51-4.87-15.38-.17-33.27,11.71-44.21,5.96-5.69,13.53-9.7,21.65-11.2M2131.43,401.43c-7.36,7.54-14.83,14.99-22.26,22.46-3.53-3.51-6.85-7.26-10.51-10.63-2.42-2.15-6.92-.56-7.07,2.81-.64,2.13,1.28,3.5,2.58,4.84,4.27,4.03,8.34,8.31,12.75,12.22,1.03.83,2.51,2.41,3.91,1.1,3.87-2.91,6.96-6.71,10.46-10.05,6.98-7.31,14.19-14.42,21.2-21.71,3.13-3.13-1.94-8.59-5.48-6.33-2.18,1.4-3.78,3.48-5.58,5.29Z"/>
  </g>
  <g id="_x23_ffffffff">
    <path class="st40" d="M2131.43,401.43c1.8-1.81,3.4-3.89,5.58-5.29,3.54-2.26,8.61,3.2,5.48,6.33-7.01,7.29-14.22,14.4-21.2,21.71-3.5,3.34-6.59,7.14-10.46,10.05-1.4,1.31-2.88-.27-3.91-1.1-4.41-3.91-8.48-8.19-12.75-12.22-1.3-1.34-3.22-2.71-2.58-4.84.15-3.37,4.65-4.96,7.07-2.81,3.66,3.37,6.98,7.12,10.51,10.63,7.43-7.47,14.9-14.92,22.26-22.46Z"/>
  </g>
  <g id="_x23_5dab7cff">
    <path class="st109" d="M457.9,400.06c8.74,4.77,17.7,9.15,26.19,14.35-8.37,5.12-17.22,9.5-26.08,13.72.94-3.05,1.96-6.06,3.22-8.99,2.27-2.97-2.27-3.6-4.22-4.7,1.9-.68,4.69-.51,5.23-2.96-.21-.38-.62-1.14-.83-1.52-1.77-3.06-2.51-6.55-3.51-9.9Z"/>
  </g>
  <g id="_x23_5dab7dff">
    <path class="st96" d="M1800.85,400.06c8.6,4.84,17.61,9,25.88,14.41l-.45.34c-8.3,4.72-16.69,9.39-25.41,13.31.99-3.15,1.86-6.38,3.51-9.28.16-.31.48-.93.64-1.25-.38-1.02-.85-1.98-1.29-2.94.49-1.06,1-2.12,1.45-3.21-.13-.25-.4-.77-.53-1.02-1.94-3.18-2.85-6.81-3.8-10.36Z"/>
  </g>
  <g id="_x23_56a87aff">
    <path class="st117" d="M894.26,400.09c9.03,4.34,17.69,9.41,26.44,14.28-4.27,3-9.07,5.11-13.63,7.6-4.3,2.04-8.34,4.63-12.87,6.16,1.45-3.82,2.88-7.65,4.26-11.5-2.9-.67-5.79-1.39-8.63-2.27,3.03-.64,6.08-1.2,9.11-1.93-.11-.29-.34-.86-.45-1.15-1.6-3.66-2.91-7.43-4.23-11.19Z"/>
  </g>
  <g id="_x23_5da97cff">
    <path class="st66" d="M1365.96,400.48c4.99,1.89,9.5,4.83,14.26,7.23,3.95,2.31,8.31,4,11.8,7.04-8.56,4.81-17.09,9.77-26.07,13.74.99-3.25,2.02-6.5,3.5-9.56,1.77-2.63-1.89-3.57-3.59-4.56,1.84-.99,5.75-1.53,3.6-4.26-1.4-3.12-2.49-6.37-3.5-9.63Z"/>
  </g>
  <g id="_x23_519d75ff">
    <path class="st137" d="M461.41,409.96c.21.38.62,1.14.83,1.52-.54,2.45-3.33,2.28-5.23,2.96,1.95,1.1,6.49,1.73,4.22,4.7.06-.62.2-1.85.26-2.46-10.93.08-21.86.13-32.79.09-1.48,0-2.95,0-4.42,0-55.42-.03-110.85.08-166.28,0-6.6-.03-13.82-.24-19.46,3.77-4.41,2.86-6.98,7.63-8.26,12.61-.14-.55-.43-1.64-.57-2.19-.87,1.72-1.69,3.47-2.51,5.22-.19-2.11-.39-4.22-.53-6.33,2.23-10.87,13.72-17.76,24.36-17.46,57.77-.17,115.53-.1,173.3-.12h3.82c10.34-.07,20.69-.14,31.03.11.42-.13,1.28-.39,1.71-.52.13-.47.39-1.42.52-1.9Z"/>
  </g>
  <g id="_x23_4b9e71ff">
    <path class="st131" d="M827.52,412.91c1.53-.52,3.14-1.01,4.79-.81,20.57.38,41.17-.05,61.75.24,1.44-.27,3.67.72,4.43-1.06.11.29.34.86.45,1.15-3.03.73-6.08,1.29-9.11,1.93,2.84.88,5.73,1.6,8.63,2.27-22.07.45-44.16-.08-66.24.25.11,13.66.21,27.33.01,41-1.57-.04-3.13-.08-4.68-.13-.06-14.94-.09-29.89-.03-44.84Z"/>
  </g>
  <g id="_x23_479e6cff">
    <path class="st78" d="M225.81,447.04c.12-5.73-.22-11.52.86-17.19.14,2.11.34,4.22.53,6.33.82-1.75,1.64-3.5,2.51-5.22.14.55.43,1.64.57,2.19-.02,102.05.05,204.13.07,306.19-1.54.08-3.07.09-4.6.02-.05-97.44,0-194.88.06-292.32Z"/>
  </g>
  <g id="_x23_4ea572ff">
    <path class="st127" d="M822.46,463.68c16.83-4.79,35.66,5.95,41.11,22.34,5.36,13.96-.12,30.71-12.06,39.48-12.85,10.08-32.95,9.17-44.62-2.35-8.78-8.12-13.02-21.03-10.31-32.73,2.7-12.82,13.13-23.67,25.88-26.74M846.35,482.4c-7.59,7.32-14.59,15.3-22.31,22.5-3.93-1.89-5.89-6.74-10.08-8.42-2.49-1.02-5.67,2.15-3.87,4.5,2.11,2.83,4.97,5,7.42,7.53,2.08,1.89,3.94,4.19,6.54,5.4,1.37-.46,2.39-1.54,3.42-2.5,7.8-7.88,15.5-15.87,23.35-23.7,2.98-2.33-1.93-7.07-4.47-5.31Z"/>
  </g>
  <g id="_x23_4fa573ff">
    <path class="st133" d="M1296.2,463.37c15.99-4.05,33.46,5.78,39.53,20.84,6.05,13.73,1.54,30.99-10.16,40.28-12.24,10.37-31.9,10.79-44.12.17-12.82-10.59-16.67-30.77-7.73-44.98,4.91-8.14,13.23-14.14,22.48-16.31M1319.02,482.89c-7.43,7.33-14.64,14.91-22.03,22.29-3.1-2.71-5.53-6.19-8.99-8.44-2.83-1.67-7.13,2.06-4.41,4.74,3.82,4.2,8.08,8.01,12.29,11.82,1.48,1.4,3.03-.27,4.12-1.32,7.95-8.08,15.75-16.32,23.82-24.28,3.05-2.42-2.31-7.44-4.8-4.81Z"/>
  </g>
  <g id="_x23_4fa673ff">
    <path class="st124" d="M1729.14,463.26c16.46-3.57,34.23,7.18,39.44,23.05,5.18,14.35-.64,31.59-13.38,39.94-10.5,7.21-25.01,8.25-36.21,2.02-13.79-7.18-21.01-24.39-16.98-39.33,2.95-12.97,14.3-22.99,27.13-25.68M1751.01,482.96c-7.47,7.29-14.42,15.1-21.95,22.32-3.13-2.8-5.65-6.3-9.15-8.65-2.78-1.3-6.26,2.03-4.32,4.7,3.01,3.67,6.84,6.56,10.19,9.91,1.41,1.21,3.32,3.78,5.19,1.77,8.86-8.62,17.21-17.78,26.15-26.33-.66-2.43-3.56-6.11-6.11-3.72Z"/>
  </g>
  <g id="_x23_f7fcfcff">
    <path class="st90" d="M846.35,482.4c2.54-1.76,7.45,2.98,4.47,5.31-7.85,7.83-15.55,15.82-23.35,23.7-1.03.96-2.05,2.04-3.42,2.5-2.6-1.21-4.46-3.51-6.54-5.4-2.45-2.53-5.31-4.7-7.42-7.53-1.8-2.35,1.38-5.52,3.87-4.5,4.19,1.68,6.15,6.53,10.08,8.42,7.72-7.2,14.72-15.18,22.31-22.5Z"/>
  </g>
  <g id="_x23_fdfeffff">
    <path class="st84" d="M1319.02,482.89c2.49-2.63,7.85,2.39,4.8,4.81-8.07,7.96-15.87,16.2-23.82,24.28-1.09,1.05-2.64,2.72-4.12,1.32-4.21-3.81-8.47-7.62-12.29-11.82-2.72-2.68,1.58-6.41,4.41-4.74,3.46,2.25,5.89,5.73,8.99,8.44,7.39-7.38,14.6-14.96,22.03-22.29Z"/>
  </g>
  <g id="_x23_f9fcfdff">
    <path class="st115" d="M1751.01,482.96c2.55-2.39,5.45,1.29,6.11,3.72-8.94,8.55-17.29,17.71-26.15,26.33-1.87,2.01-3.78-.56-5.19-1.77-3.35-3.35-7.18-6.24-10.19-9.91-1.94-2.67,1.54-6,4.32-4.7,3.5,2.35,6.02,5.85,9.15,8.65,7.53-7.22,14.48-15.03,21.95-22.32Z"/>
  </g>
  <g id="_x23_499e6eff">
    <path class="st86" d="M498.49,495.3c.46-1.6.94-3.19,1.41-4.78,5.26,3.69,11.76,5.06,18.11,4.88,90.88-.03,181.76.1,272.63-.11.07,1.52.14,3.05.21,4.59-54.64.47-109.29.18-163.94.27-34.29-.04-68.58.08-102.86-.11-6.01-.46-12.21.46-18.04-1.43-2.64-.8-5.08-2.08-7.52-3.31Z"/>
  </g>
  <g id="_x23_489e6eff">
    <path class="st110" d="M1418.74,495.2c7.74.47,15.5.12,23.26.21,84.49-.02,168.99.11,253.49-.19-.01,1.57-.02,3.14-.01,4.72-55.84.3-111.71.2-167.56.2-36.27-.11-72.54.28-108.79-.31v-.1c.12-.85.24-1.7.38-2.54,1.71,0,3.45,0,5.19-.02-1.98-.71-3.95-1.41-5.96-1.97Z"/>
  </g>
  <g id="_x23_489f6fff">
    <path class="st116" d="M1854.7,495.28c48.74.14,97.49.01,146.24.08,53.34-.19,106.69.2,160.03-.19,1.13,1.43,2.26,2.87,3.42,4.31-10.48.93-20.99.37-31.48.41-30.97.39-61.95.14-92.93.24-52.33-.08-104.66-.02-157,.01-9.48-.37-18.98.14-28.44-.59,4.03-.5,8.09-.74,12.17-.76.28-.34.85-1.01,1.13-1.34-4.49.19-8.79-1.31-13.14-2.17Z"/>
  </g>
  <g id="_x23_cc553eff">
    <path class="st121" d="M497.4,617.6c3.18-.48,6.41-.3,9.62-.33,105.02-.01,210.03-.03,315.04-.04,4.27.03,8.85-.2,12.67,2.08,5.59,3.05,8.87,9.41,8.76,15.71.15,14-.13,28-.14,42-.08,5.16.34,10.41-.94,15.47-3.7-4.32-3.21-10.24-3.28-15.53.07-11.66-.1-23.31.26-34.97.07-3.48.17-7.05-.93-10.4-1.33-3.96-4.15-7.75-8.34-8.9-3.93-1.07-8.07-.85-12.1-.91-102.34-.02-204.68,0-307.01-.02-4.31.08-8.69-.28-12.93.65-5.19,1.36-8.63,6.62-8.8,11.84-.5,17.65.26,35.32-.27,52.97-1.52,1.73-2.75,3.7-3.61,5.84-.42-2.33-.9-4.67-.89-7.03-.06-15.02.08-30.04,0-45.06,0-4.89-.45-10.11,1.92-14.58,2.27-4.21,6.19-7.82,10.97-8.79Z"/>
  </g>
  <g id="_x23_fbd2c5ff">
    <path class="st68" d="M489.28,634.25c.17-5.22,3.61-10.48,8.8-11.84,4.24-.93,8.62-.57,12.93-.65,102.33.02,204.67,0,307.01.02,4.03.06,8.17-.16,12.1.91,4.19,1.15,7.01,4.94,8.34,8.9.26,5.19.12,10.38.19,15.58-3.58,1.23-7.37,1.55-10.95,2.67-.98,1.46-.57,3.42-.73,5.1.19,8.05-.09,16.1.06,24.15.21,1.06-.22,2.91,1.26,3.22,3.32,1.1,6.87,1.27,10.34,1.12-.04,3.91-.01,8.31-2.84,11.39-3.02,3.83-8.14,4.77-12.75,4.65-75.37-.1-150.73-.08-226.1-.04-31.31.05-62.63.18-93.94-.11-3.56-.12-7.55-.44-10.21-3.11-2.57-2.26-3.37-5.75-3.78-8.99.53-17.65-.23-35.32.27-52.97Z"/>
  </g>
  <g id="_x23_cdd5deff">
    <path class="st135" d="M2316.29,627.38c7.19-.95,14.47-.34,21.71-.52,107.66.06,215.31,0,322.97.03,4.44.06,9.33.08,12.99,3.05,5.97,3.87,8.38,11.28,8.15,18.13-.05,54.29-.06,108.59-.03,162.89-.05,6.01.21,12.06-.49,18.05-1.5,9.05-10.49,15.9-19.6,15.26-113,.12-226,.07-339,.05-6.89.35-13.97-2.63-17.58-8.67-4.55-6.31-3.03-14.39-3.22-21.64-.23-52.68.3-105.36-.33-158.02.15-7.15-.64-15.11,3.88-21.2,2.7-3.34,6.2-6.53,10.55-7.41M2316.21,631.32c-5.94,1.62-9.33,7.83-10.06,13.59-.8,7.68-.26,15.42-.35,23.13.1,49.32.07,98.65.1,147.97.06,4.99-.67,10.22,1.25,14.98,2,5.22,7.03,9.63,12.87,9.39,115,.04,230.01-.01,345.01.01,7.8-.13,13.55-8.04,13.35-15.45-.07-59.32-.04-118.64-.03-177.96.26-6.66-3.53-14.2-10.45-15.75-5.58-.87-11.25-.25-16.85-.36-106.68-.03-213.36-.04-320.04-.06-4.94.11-9.95-.56-14.8.51Z"/>
    <path class="st135" d="M844.31,659.24c29.55-.74,59.12-.3,88.68-.37,418.32-.05,836.63-.02,1254.95-.03,7.02.17,14.08-.31,21.1.4,12.33,1.79,22.32,13.34,22.27,25.82.09,87.65.01,175.31.05,262.97-.1,5.43.39,10.96-.87,16.31-2.2,8.64-9.04,15.81-17.41,18.72-5.92,1.45-12.08.87-18.11.98-62.66.04-125.32-.11-187.99.06-77.64-.38-155.29-.1-232.93-.14-422.03-.13-844.08,0-1266.11-.02-19.32-.18-38.64.46-57.96-.06-10.25.16-19.63-6.98-23.47-16.26-2.64-6.91-1.57-14.42-1.72-21.63-.09-40.53,0-81.06-.1-121.59,1.38-.01,2.76-.05,4.14-.08-.38,43.57-.03,87.13-.22,130.7-.16,6.28,1.23,12.9,5.69,17.58,5,6.07,13.23,7.7,20.72,7.42,91.34.21,182.68-.24,274.02-.01,11.3-.11,22.6.3,33.91-.09,110.69.16,221.4-.12,332.09.21,76.33-.51,152.67.37,229.01-.2,53.64.48,107.29-.39,160.94.15,56.02-.41,112.02.06,168.03-.17,176.97.11,353.96-.08,530.94.06,8.58-.18,17.19.43,25.76-.38,7.7-1.21,13.52-7.5,16.29-14.5,2.28-4.72,1.47-10.07,1.6-15.12-.04-88.3.06-176.61-.01-264.91.11-11.93-10.7-22.6-22.64-22.23-429.33.04-858.66-.06-1287.99,0-24.23.06-48.46.04-72.68-.22,0-1.13,0-2.26.02-3.37Z"/>
  </g>
  <g id="_x23_f4f8fdff">
    <path class="st24" d="M2316.21,631.32c4.85-1.07,9.86-.4,14.8-.51,106.68.02,213.36.03,320.04.06,5.6.11,11.27-.51,16.85.36,6.92,1.55,10.71,9.09,10.45,15.75-.01,59.32-.04,118.64.03,177.96.2,7.41-5.55,15.32-13.35,15.45-115-.02-230.01.03-345.01-.01-5.84.24-10.87-4.17-12.87-9.39-1.92-4.76-1.19-9.99-1.25-14.98-.03-49.32,0-98.65-.1-147.97.09-7.71-.45-15.45.35-23.13.73-5.76,4.12-11.97,10.06-13.59Z"/>
  </g>
  <g id="_x23_c7442eff">
    <path class="st70" d="M838.46,631.59c1.1,3.35,1,6.92.93,10.4-.36,11.66-.19,23.31-.26,34.97.07,5.29-.42,11.21,3.28,15.53-1.66,4.87-5.47,9.01-10.43,10.56-5.53,1.6-11.33.71-16.98.78-28.97.01-57.94-.16-86.9.14-34.7-.14-69.45-.24-104.16-.02-15.31-.48-30.61.65-45.91.05-26.04-.34-52.09-.05-78.13-.27-6.61.07-12.21-4.69-14.5-10.67.86-2.14,2.09-4.11,3.61-5.84.41,3.24,1.21,6.73,3.78,8.99,2.66,2.67,6.65,2.99,10.21,3.11,31.31.29,62.63.16,93.94.11,75.37-.04,150.73-.06,226.1.04,4.61.12,9.73-.82,12.75-4.65,2.83-3.08,2.8-7.48,2.84-11.39.01-12.09.07-24.18.02-36.26-.07-5.2.07-10.39-.19-15.58Z"/>
  </g>
  <g id="_x23_fbdbceff">
    <path class="st55" d="M827.7,649.84c3.58-1.12,7.37-1.44,10.95-2.67.05,12.08-.01,24.17-.02,36.26-3.47.15-7.02-.02-10.34-1.12-1.48-.31-1.05-2.16-1.26-3.22-.15-8.05.13-16.1-.06-24.15.16-1.68-.25-3.64.73-5.1Z"/>
  </g>
  <g id="_x23_ccd3dbff">
    <path class="st41" d="M438.91,661.83c5.84-3.18,12.69-3.05,19.14-2.92,8.54.33,17.08.19,25.63.3,0,1.14,0,2.29,0,3.46-11.56.07-23.13-.22-34.67.19-11.31.43-20.58,10.99-20.41,22.13.18,44.4-.09,88.8.19,133.2-1.26,0-2.51,0-3.76.01-.74-6.72-.12-13.48-.21-20.21-.06-37.65-.07-75.3-.14-112.95.11-9.55,5.63-18.93,14.24-23.21Z"/>
  </g>
  <g id="_x23_7786a2ff">
    <path class="st54" d="M67.84,768.98c-.26-15.94,14.34-29.88,30.12-29.76,30.35-.16,60.7-.03,91.04-.07,12.25.17,24.51-.34,36.75.21,1.53.07,3.06.06,4.6-.02,16.87-.57,33.77-.04,50.66-.2,26.01.02,52.01-.09,78.02.09,15.29.03,29.56,13.17,29.6,28.7.09,16.74.12,33.48-.17,50.22-.03,1.61,0,3.24.05,4.87.31,13.65.06,27.31.17,40.96-.06,6.78.45,13.87-2.33,20.25-4.36,10.82-15.63,18.29-27.29,18.22-42.93.37-85.88-.26-128.81.33-1.43.04-2.86.05-4.29.02-42.67-.52-85.36.01-128.04-.37-8.2,0-16.41-3.35-21.97-9.42-5.55-5.89-8.11-14.05-8.05-22.04-.12-33.99-.01-67.99-.06-101.99M93.13,744.21c-8.38,1.85-15.63,8.06-18.78,16.03-1.99,4.65-1.77,9.82-1.81,14.78.07,29.68.02,59.37.02,89.05.04,5.66-.41,11.55,1.68,16.94,3.81,10.41,14.85,17.1,25.75,17.01,84.03.03,168.06-.1,252.09.04,6.33.24,12.99-.04,18.6-3.34,8.35-4.23,13.42-13.43,13.25-22.7.28-30.68.12-61.36.08-92.04.03-7.61.77-15.81-3.34-22.62-4.45-8.66-14.03-14.12-23.74-13.67-83.98-.13-167.95.01-251.93-.09-3.96.02-7.97-.17-11.87.61Z"/>
  </g>
  <g id="_x23_ca553fff">
    <path class="st113" d="M485.86,760.96c3.76-12.84,16.69-22.36,30.14-21.71,91.01-.1,182.03-.01,273.04-.02,5.31.04,10.64-.12,15.95.19,9.99.68,19.09,7.12,23.85,15.8,3.98,6.93,3.57,15.12,3.49,22.83-.32,13.44.53,26.96-.4,40.36-1.3-4.02-.84-8.29-.97-12.43-.29-11.99-.04-23.98-.1-35.97.01-2.29-.36-4.57-1.35-6.64-.96-.85-2.01-1.55-3.17-2.04-2.81-7.45-8.85-13.6-16.37-16.27-3.53-1.25-7.32-1.22-11.01-1.29-91.31-.04-182.63-.01-273.94-.01-6.5.17-13.37-.92-19.48,1.88-7.81,3.58-14.37,10.73-15.76,19.39-.91,5.94-.38,11.97-.49,17.95-.1,26.99,0,53.99.04,80.98-.05,6.67-.16,13.7,3,19.79,4.33,8.59,13.7,13.79,23.13,14.46,3.76,1.03,7.66,1.22,11.54,1.04,65.66,0,131.31-.1,196.97-.04,26.01.12,52.01.21,78.02-.1,2.18.04,4.33-.51,6.24-1.61.23-.1.68-.3.91-.39,1.53.97,2.94,2.12,4.33,3.3-4.9,1.98-10.22,2.24-15.43,2.2-90.37.04-180.73.05-271.09.04-8.28-.17-17.05.86-24.75-2.91-10.72-4.7-17.51-16.19-17.57-27.75-.12-16.94.01-33.88.02-50.81l-1.53.65c-.05-.42-.15-1.25-.19-1.67l1.72.63c-.13-14.93-.03-29.85-.05-44.78.04-5.03-.28-10.19,1.26-15.05Z"/>
  </g>
  <g id="_x23_ca533bff">
    <path class="st62" d="M912.25,757c4.8-10.99,16.72-18.26,28.68-17.73,93.02-.11,186.05-.03,279.07-.03,5.68.02,11.59-.33,16.95,1.96,8.28,3.3,15.41,10.28,17.88,18.97-1.3-1.14-2.62-2.22-3.94-3.3-.32.53-.97,1.61-1.3,2.14-2.92-6.23-8.36-11.09-14.68-13.68-4.41-1.8-9.26-1.55-13.91-1.56-93.36-.1-186.71-.03-280.07-.03-10.62-.41-20.8,6.6-24.82,16.32-2.26,5.71-1.58,11.98-1.71,17.99-.05,30.97-.04,61.94,0,92.91-.03,6.99,2.38,14.14,7.49,19.05,4.38,4.52,10.4,6.87,16.47,8.09,6.7,2.06,13.78.79,20.66,1.08,28.32.29,56.63-.01,84.95.05l-.14,1.13c-.08.57-.23,1.73-.31,2.31-34.17-.09-68.34.05-102.51-.06-8.8.19-17.71-3.42-23.53-10.08-5.42-6.13-8.06-14.39-7.9-22.51.05-32.69-.1-65.38.01-98.07-.06-5.09.48-10.29,2.66-14.95Z"/>
    <path class="st62" d="M1412.92,740.73c5.79-2.09,12.04-1.4,18.08-1.52,92.66.06,185.31-.07,277.96.06,15.47-.37,29.72,13.24,29.95,28.74.55,16.75.26,33.52.02,50.27,21.65-.12,43.3-.19,64.96-.03v.66c-.32.39-.98,1.18-1.31,1.57.4.54.82,1.08,1.27,1.64-21.49.64-43,.02-64.5.3l-.05.38c-.45,16.72.17,33.47-.22,50.2-.29,10.84-6.8,21.14-16.38,26.17-2.82-1.19-5.81-.76-8.7-.29.31-.43.92-1.28,1.22-1.71,10.75-3.36,19.27-13.67,19.31-25.11.25-30.35.06-60.7.08-91.05-.1-7.07.48-14.44-2.2-21.15-3.97-9.54-13.94-16.56-24.42-16.08-93-.07-186-.04-279-.02-5.88.03-12.11-.18-17.42,2.75-8.18,4.01-14.1,12.5-14.33,21.71-.24-1.41-.47-2.8-.71-4.18-.38,1.15-.73,2.3-1.04,3.47-.53-2.9-1.01-5.83-1.03-8.78,2.88-8.43,10.13-15.04,18.46-18Z"/>
  </g>
  <g id="_x23_cb543cff">
    <path class="st134" d="M1828.21,764.79c1.56-14.28,15.49-25.79,29.73-25.53,98.34-.12,196.67-.05,295,0,7.98-.39,16.36.29,23.12,5.01-.4,1.73-.8,3.45-1.16,5.19-3.52-2.63-7.49-4.94-11.92-5.44-5-.56-10.04-.25-15.04-.3-92.96.04-185.91-.05-278.86,0-5.74.13-11.58-.55-17.2.82-8.15,2.45-15.01,8.76-18.24,16.63-.31-.82-.92-2.46-1.23-3.27-.98,2.53-1.96,5.19-4.2,6.89Z"/>
  </g>
  <g id="_x23_e0e6efff">
    <path class="st56" d="M93.13,744.21c3.9-.78,7.91-.59,11.87-.61,83.98.1,167.95-.04,251.93.09,9.71-.45,19.29,5.01,23.74,13.67,4.11,6.81,3.37,15.01,3.34,22.62.04,30.68.2,61.36-.08,92.04.17,9.27-4.9,18.47-13.25,22.7-5.61,3.3-12.27,3.58-18.6,3.34-84.03-.14-168.06-.01-252.09-.04-10.9.09-21.94-6.6-25.75-17.01-2.09-5.39-1.64-11.28-1.68-16.94,0-29.68.05-59.37-.02-89.05.04-4.96-.18-10.13,1.81-14.78,3.15-7.97,10.4-14.18,18.78-16.03M102.99,835.94c.01.54.01,1.63.01,2.17,3.08-.04,6.12-.59,9.01-1.65-3-.31-6.01-.52-9.02-.52M103.26,857.36c.3,1.44,3.99,1.3,4.32-.05-1.28-.7-3.08-.74-4.32.05Z"/>
  </g>
  <g id="_x23_fbd5c8ff">
    <path class="st53" d="M505.54,745.64c6.11-2.8,12.98-1.71,19.48-1.88,91.31,0,182.63-.03,273.94.01,3.69.07,7.48.04,11.01,1.29,7.52,2.67,13.56,8.82,16.37,16.27,1.95,6.74,1.14,13.8,1.31,20.72-.07,26.65-.03,53.29.03,79.94-.18,6.9.76,14.17-2.18,20.64-3.04,6.94-9.43,11.8-16.36,14.48-.23.09-.68.29-.91.39-12.05,1.05-24.17.23-36.25.5-62.64-.02-125.28-.03-187.92-.02-22.87.15-45.74-.37-68.6.23-9.43-.67-18.8-5.87-23.13-14.46-3.16-6.09-3.05-13.12-3-19.79-.03-26.99-.14-53.99-.04-80.98.11-5.98-.42-12.01.49-17.95,1.39-8.66,7.95-15.81,15.76-19.39Z"/>
    <path class="st53" d="M916.11,760.06c4.02-9.72,14.2-16.73,24.82-16.32,93.36,0,186.71-.07,280.07.03,4.65.01,9.5-.24,13.91,1.56,6.32,2.59,11.76,7.45,14.68,13.68,1.49,3.8,2.24,7.88,2.18,11.97.07,34,.08,68-.01,102,.01,11.26-8.68,22.05-19.85,23.95-.15.19-.47.57-.62.76-36.42.7-72.85.1-109.27.3.06.88.18,2.62.24,3.5-1.89-3.49-2-7.59-3.7-11.14-1.5-3.28-4.38-5.58-6.77-8.17-11.43-13.19-32.29-16.12-47.42-7.84-10.03,5.36-17.93,14.85-20.54,26.02l.14-1.13.14-1.19c-35.25,0-70.5-.23-105.75.06-6.07-1.22-12.09-3.57-16.47-8.09-5.11-4.91-7.52-12.06-7.49-19.05-.04-30.97-.05-61.94,0-92.91.13-6.01-.55-12.28,1.71-17.99Z"/>
    <path class="st53" d="M1411.57,746.51c5.31-2.93,11.54-2.72,17.42-2.75,93-.02,186-.05,279,.02,10.48-.48,20.45,6.54,24.42,16.08,2.68,6.71,2.1,14.08,2.2,21.15-.02,30.35.17,60.7-.08,91.05-.04,11.44-8.56,21.75-19.31,25.11-4.98,1.19-10.13.8-15.19.83-86.35-.07-172.69.06-259.04-.05-8.24-.25-16.58.68-24.74-.84-9.89-3.19-17.6-12-18.96-22.37-.15-35.51-.17-71.01-.05-106.52.23-9.21,6.15-17.7,14.33-21.71Z"/>
  </g>
  <g id="_x23_fbd5c9ff">
    <path class="st39" d="M1851.88,744.54c5.62-1.37,11.46-.69,17.2-.82,92.95-.05,185.9.04,278.86,0,5,.05,10.04-.26,15.04.3,4.43.5,8.4,2.81,11.92,5.44,6.19,4.9,9.97,12.57,9.79,20.51.13,34.35.1,68.7.03,103.06.14,9.31-5.92,17.85-14.02,22.04-1.77.82-3.56,1.58-5.3,2.39-6.46.8-12.98.49-19.46.53-81.63.03-163.27-.01-244.9-.01-13.9.15-27.81-.29-41.69.25-10.26-.34-20.34-6.09-24.77-15.53-1.49-3.36-2.49-6.98-2.45-10.67.02-27.67-.68-55.34,0-83.01.43-9.27-1.19-18.83,1.51-27.85,3.23-7.87,10.09-14.18,18.24-16.63M2092.37,795.35c-10.89,13.59-11.37,33.99-1.66,48.34,3.22,4.54,7.22,8.54,12.01,11.43l.25-.07c5.57,3.77,12.33,5.46,18.98,5.96,16.74,1.05,33.41-9.32,39.75-24.87,4.07-11.39,3.62-24.51-2.22-35.21-3.14-5.18-7.13-9.88-12.17-13.27-16.64-11.85-42.37-8.65-54.94,7.69Z"/>
  </g>
  <g id="_x23_c94c33ff">
    <path class="st91" d="M2174.9,749.46c.36-1.74.76-3.46,1.16-5.19,7.95,5.65,13.34,14.92,13.37,24.79-.04,31.64-.01,63.28-.03,94.92-.07,5.7.45,11.55-1.29,17.07-1.33,4.7-3.94,8.93-7.2,12.53l-.51.06c-3.02.11-5.69,1.57-8.27,2.96-.36-.38-1.07-1.15-1.43-1.53,8.1-4.19,14.16-12.73,14.02-22.04.07-34.36.1-68.71-.03-103.06.18-7.94-3.6-15.61-9.79-20.51Z"/>
  </g>
  <g id="_x23_d25238ff">
    <path class="st122" d="M1249.59,759.01c.33-.53.98-1.61,1.3-2.14,1.32,1.08,2.64,2.16,3.94,3.3,1.77,3.67,1.44,7.94,1.58,11.92-.16,15.25.09,30.5-.08,45.75,9.84-.23,20.51.23,29.2-5.19,7.02-4.7,9.09-13.47,12.15-20.84.83-1.63,1.22-4.33,3.45-4.54,2.32-.52,2.98,2.13,3.86,3.69,8.54,18.54,16.98,37.14,25.81,55.54.21.1.62.29.83.39,2.54-8.01,5.03-16.85,12.02-22.19,7.1-5.23,16.37-5.89,24.88-6.4-1.04-4.23-2.59-8.31-3.5-12.56,9.12,4.74,18.39,9.32,26.86,15.18-8.74,5.22-17.83,9.83-26.63,14.95.99-4.26,2.5-8.38,3.51-12.63-8.6.24-18.57.96-24.67,7.84-5.81,7.42-7.05,17.12-10.73,25.58-1.33-.23-3.15.37-3.78-1.18-2.95-4.94-4.95-10.37-7.43-15.54-5.68-12.62-11.52-25.16-17.34-37.71-1-2.31-2.12-4.57-3.62-6.59-2.72,7.87-5.91,16.37-13.13,21.21-9.29,6.07-20.94,5.9-31.61,5.55-.22,16.51.03,33.03-.11,49.54.35,13.73-9.7,28.03-23.74,29.8-3.83-.82-7.73-1.17-11.63-1.01-28.66.33-57.32-.05-85.97-.02-3.71.07-7.41.05-11.09-.27,14.04-.74,28.12-.22,42.17-.64,13.94-.81,27.91-.28,41.87-.43,8.31-.2,16.65.47,24.93-.46-.4-.3-1.2-.91-1.6-1.22.15-.19.47-.57.62-.76,11.17-1.9,19.86-12.69,19.85-23.95.09-34,.08-68,.01-102,.06-4.09-.69-8.17-2.18-11.97Z"/>
  </g>
  <g id="_x23_d14d32ff">
    <path class="st52" d="M1828.21,764.79c2.24-1.7,3.22-4.36,4.2-6.89.31.81.92,2.45,1.23,3.27-2.7,9.02-1.08,18.58-1.51,27.85-.68,27.67.02,55.34,0,83.01-.04,3.69.96,7.31,2.45,10.67-1.37.84-2.74,1.68-4.07,2.54-3.91-8.24-2.74-17.49-2.92-26.29.11-30-.11-59.99.03-89.99.16-1.36-.26-3.03.59-4.17Z"/>
  </g>
  <g id="_x23_c9593fff">
    <path class="st125" d="M1392.3,772.01c0-4.51.42-9.08,2.16-13.28.02,2.95.5,5.88,1.03,8.78.75,28.81.01,57.66.32,86.48.12,7.7-.39,15.44.66,23.1.2-.58.61-1.76.82-2.35,1.36,10.37,9.07,19.18,18.96,22.37-.62.11-1.86.32-2.48.43,6.13,2.36,12.82,2.02,19.28,2.21,82.62-.14,165.25-.04,247.87-.01,11.03.14,22.07-.22,33.08-.86,2.89-.47,5.88-.9,8.7.29-7.86,4.39-17.07,3.32-25.69,3.43-86.66.06-173.33.02-259.99.09-7.06-.19-14.23.61-21.17-.93-9.97-2.33-18.41-10.07-21.61-19.79-2.84-7.66-1.82-15.94-1.96-23.93-.05-28.68.04-57.36.02-86.03Z"/>
  </g>
  <g id="_x23_cd4e35ff">
    <path class="st10" d="M826.34,761.33c1.16.49,2.21,1.19,3.17,2.04-.85,14.84-.05,29.72-.51,44.58-.46,13.34.44,26.68.16,40.02.07,10.02-.18,20.03.14,30.05.32-.33.97-.99,1.3-1.32.21-13.59.03-27.18.04-40.77.08-4.2-.61-8.68,1.41-12.55.51,14.52.12,29.07.32,43.6.13,6.52-.16,13.35-3.35,19.21-3.28,6.38-8.86,11.6-15.55,14.22-1.39-1.18-2.8-2.33-4.33-3.3,6.93-2.68,13.32-7.54,16.36-14.48,2.94-6.47,2-13.74,2.18-20.64-.06-26.65-.1-53.29-.03-79.94-.17-6.92.64-13.98-1.31-20.72Z"/>
  </g>
  <g id="_x23_dc462dff">
    <path class="st30" d="M829.51,763.37c.99,2.07,1.36,4.35,1.35,6.64.06,11.99-.19,23.98.1,35.97.13,4.14-.33,8.41.97,12.43,1.94.93,4,1.52,6.07,2.12-1.67.39-3.32.82-4.96,1.26-.22.35-.66,1.05-.88,1.39l-.11.2c-2.02,3.87-1.33,8.35-1.41,12.55-.01,13.59.17,27.18-.04,40.77-.33.33-.98.99-1.3,1.32-.32-10.02-.07-20.03-.14-30.05.28-13.34-.62-26.68-.16-40.02.46-14.86-.34-29.74.51-44.58Z"/>
  </g>
  <g id="_x23_ae543cff">
    <path class="st73" d="M1395.49,767.51c.31-1.17.66-2.32,1.04-3.47.24,1.38.47,2.77.71,4.18-.12,35.51-.1,71.01.05,106.52-.21.59-.62,1.77-.82,2.35-1.05-7.66-.54-15.4-.66-23.1-.31-28.82.43-57.67-.32-86.48Z"/>
  </g>
  <g id="_x23_d33d3bff">
    <path class="st49" d="M2092.37,795.35c12.57-16.34,38.3-19.54,54.94-7.69,5.04,3.39,9.03,8.09,12.17,13.27-.17.61-.49,1.83-.65,2.44-5.42-1.05-9.93,2.38-14.18,5.15-6.05,3.24-10.42,8.67-14.85,13.75-.34-.34-1.02-1.04-1.37-1.39,4.91-5.5,10.19-10.65,15.21-16.04-1.55-1.35-3.11-2.68-4.65-3.98-5.21,4.77-9.69,10.26-14.88,15.05-5.54-5.1-10.75-10.56-16.16-15.79-1.2,1.55-4.98,3.51-3.18,5.68,1.55,2.03,3.49,3.71,5.43,5.39,2.93,3.14,5.97,6.18,9.02,9.23-4.55,5.39-9.98,9.94-14.72,15.13-1.41,1.59,1.09,2.85,1.8,4.08-3.62,1.97-8.13.52-12.02,1.87-.61.61-1.2,1.24-1.75,1.87-.46.08-1.36.24-1.82.32-9.71-14.35-9.23-34.75,1.66-48.34Z"/>
  </g>
  <g id="_x23_feffffff">
    <path class="st126" d="M2104.77,805.8c-1.8-2.17,1.98-4.13,3.18-5.68,5.41,5.23,10.62,10.69,16.16,15.79,5.19-4.79,9.67-10.28,14.88-15.05,1.54,1.3,3.1,2.63,4.65,3.98-5.02,5.39-10.3,10.54-15.21,16.04.35.35,1.03,1.05,1.37,1.39,4.56,4.73,9.45,9.14,14.05,13.84-1.28,1.51-2.57,3.01-3.93,4.44-.36-.1-1.09-.31-1.46-.41-4.97-4.86-9.56-10.08-14.56-14.89-5.09,5.14-10.07,10.37-15.14,15.54-.86-.39-1.68-.77-2.46-1.16-.71-1.23-3.21-2.49-1.8-4.08,4.74-5.19,10.17-9.74,14.72-15.13-3.05-3.05-6.09-6.09-9.02-9.23-1.11-2.45-3.04-4.25-5.43-5.39Z"/>
    <path class="st126" d="M1065.99,895.08c.9-1.34,1.99-2.54,3.05-3.75,4.96,4.3,9.12,9.42,14.01,13.8,4.42-3.93,8-8.71,12.46-12.58,1.88-1.49,3.7,1.12,4.64,2.54-3.37,5.36-8.71,9.21-12.67,14.15,1.95,2.24,4.06,4.36,6.19,6.46,2.14,2.34,4.77,4.35,6.33,7.17-1.14,1.51-2.59,2.73-3.96,4.01-4.71-4.29-8.81-9.2-13.64-13.36-3.35,3.72-6.95,7.21-10.2,11.03-1.06.73-2.12,1.46-3.18,2.19-1.26-1.24-2.5-2.47-3.72-3.72,4.43-4.55,8.96-9.02,13.12-13.82-3.99-4.83-9.3-8.67-12.43-14.12Z"/>
    <path class="st126" d="M1484.88,1161.41c6.66-5.72,11.62-13.42,18.89-18.37,2.83,2.58,5.62,5.33,9.39,6.5-.52.99-1.03,1.99-1.56,2.99-3.25,3.41-6.4,6.91-9.57,10.38-3.45,3.36-6.2,8.06-11.03,9.5-5.86,1.11-9.71-6.56-6.12-11M1488.88,1163.87c-1.28,1.2-1.06,4.36,1.22,3.88,2.53.19,2.23-2.44,2.33-4.15-1.2.01-2.5-.38-3.55.27Z"/>
  </g>
  <g id="_x23_d54a43ff">
    <path class="st46" d="M2159.48,800.93c5.84,10.7,6.29,23.82,2.22,35.21-.24-.47-.71-1.41-.94-1.88-3.45,1.54-6.41,3.93-9.76,5.6-3.97,1.26-8.06,2.34-11.6,4.58-2.14,1.57-2.96,4.62-5.62,5.49-3.79,1.46-7.68,3.4-11.85,2.93-1.53-.15-3.04-.11-4.53.18-.19-.08-.58-.23-.77-.31-2.62.42-5.21,1-7.81,1.49-2-.02-3.99.18-5.85.83l-.25.07c-4.79-2.89-8.79-6.89-12.01-11.43.46-.08,1.36-.24,1.82-.32.55-.63,1.14-1.26,1.75-1.87,3.89-1.35,8.4.1,12.02-1.87.78.39,1.6.77,2.46,1.16,2.39-.02,3.94-2.06,5.56-3.54,3.14-3.27,6.28-6.56,9.69-9.56,3.41,3.02,6.47,6.39,9.62,9.68,1.26,1.43,2.94,2.36,4.83,2.77.37.1,1.1.31,1.46.41,1.36-1.43,2.65-2.93,3.93-4.44-4.6-4.7-9.49-9.11-14.05-13.84,4.43-5.08,8.8-10.51,14.85-13.75,4.25-2.77,8.76-6.2,14.18-5.15.16-.61.48-1.83.65-2.44Z"/>
  </g>
  <g id="_x23_db5f44ff">
    <path class="st28" d="M457.66,805.75c8.5,4.29,16.78,9.05,25.03,13.78l.24.63c.04.42.14,1.25.19,1.67-8.1,5.07-16.76,9.37-25.14,14.02.74-3.29,1.78-6.49,2.99-9.63.09-.3.27-.89.37-1.18.46-1.23.44-2.65-.82-3.37-.27-.33-.8-.98-1.07-1.31.53-.69,1.06-1.39,1.58-2.08-.59-4.32-2.64-8.25-3.37-12.53Z"/>
  </g>
  <g id="_x23_d8593fff">
    <path class="st11" d="M882.2,805.99c6.89,2.68,13.06,6.86,19.57,10.33,2.58,1.36,5.21,2.7,7.43,4.65-8.68,5.46-17.92,10.03-26.92,14.96.77-4.37,2.83-8.4,3.48-12.78l.09-.99c-17.56-1.17-35.22-.32-52.81-.37,1.64-.44,3.29-.87,4.96-1.26-2.07-.6-4.13-1.19-6.07-2.12,18.02-.52,36.07.16,54.1-.24-1.18-4.1-2.42-8.17-3.83-12.18Z"/>
  </g>
  <g id="_x23_dc6045ff">
    <path class="st26" d="M1800.29,805.96c9.17,4.54,18.38,9.24,26.81,15.05-8.72,5.22-17.53,10.4-26.7,14.81,1.33-4.19,2.84-8.34,3.67-12.67-21.59-.06-43.19.32-64.77-.35l.05-.38c21.5-.28,43.01.34,64.5-.3-.45-.56-.87-1.1-1.27-1.64.33-.39.99-1.18,1.32-1.57v-.66c-.65-4.24-2.4-8.21-3.61-12.29Z"/>
  </g>
  <g id="_x23_fbcfceff">
    <path class="st38" d="M2104.77,805.8c2.39,1.14,4.32,2.94,5.43,5.39-1.94-1.68-3.88-3.36-5.43-5.39Z"/>
  </g>
  <g id="_x23_b3695eff">
    <path class="st76" d="M388.51,823.02c-.05-1.63-.08-3.26-.05-4.87.59.03,1.77.08,2.36.1-.22,1.13-.44,2.25-.65,3.39,23.45.19,46.92,1.16,70.35.03,1.26.72,1.28,2.14.82,3.37-.1-.45-.29-1.35-.38-1.79-1.56-.64-3.27-.24-4.89-.29-20.16.26-40.33-.13-60.49.16-2.36.01-4.72-.08-7.07-.1Z"/>
  </g>
  <g id="_x23_c44a35ff">
    <path class="st107" d="M390.82,818.25c11.4.05,22.8-.11,34.2-.05,1.25-.01,2.5-.01,3.76-.01,10.75-.04,21.5-.02,32.25.09-.52.69-1.05,1.39-1.58,2.08.27.33.8.98,1.07,1.31-23.43,1.13-46.9.16-70.35-.03.21-1.14.43-2.26.65-3.39Z"/>
  </g>
  <g id="_x23_b46457ff">
    <path class="st31" d="M832.16,823.18c.22-.34.66-1.04.88-1.39,17.59.05,35.25-.8,52.81.37l-.09.99c-17.87.06-35.74-.01-53.6.03Z"/>
  </g>
  <g id="_x23_fddfd9ff">
    <path class="st44" d="M395.58,823.12c20.16-.29,40.33.1,60.49-.16,1.62.05,3.33-.35,4.89.29.09.44.28,1.34.38,1.79-.1.29-.28.88-.37,1.18-1.41-3.32-5.05-2.31-7.9-2.32-8.07.37-16.16.19-24.24.42-1.38.03-2.76.07-4.14.08-9.69-.69-19.49-.01-29.11-1.28Z"/>
  </g>
  <g id="_x23_b7534fff">
    <path class="st45" d="M2108.76,840.79c5.07-5.17,10.05-10.4,15.14-15.54,5,4.81,9.59,10.03,14.56,14.89-1.89-.41-3.57-1.34-4.83-2.77-3.15-3.29-6.21-6.66-9.62-9.68-3.41,3-6.55,6.29-9.69,9.56-1.62,1.48-3.17,3.52-5.56,3.54Z"/>
  </g>
  <g id="_x23_d43b39ff">
    <path class="st95" d="M2151,839.86c3.35-1.67,6.31-4.06,9.76-5.6.23.47.7,1.41.94,1.88-6.34,15.55-23.01,25.92-39.75,24.87-6.65-.5-13.41-2.19-18.98-5.96,1.86-.65,3.85-.85,5.85-.83,2.6-.49,5.19-1.07,7.81-1.49.19.08.58.23.77.31,1.49-.29,3-.33,4.53-.18,4.17.47,8.06-1.47,11.85-2.93,2.66-.87,3.48-3.92,5.62-5.49,3.54-2.24,7.63-3.32,11.6-4.58Z"/>
  </g>
  <g id="_x23_707378ff">
    <path class="st35" d="M102.99,835.94c3.01,0,6.02.21,9.02.52-2.89,1.06-5.93,1.61-9.01,1.65,0-.54,0-1.63-.01-2.17Z"/>
  </g>
  <g id="_x23_b9bcc0ff">
    <path class="st32" d="M103.26,857.36c1.24-.79,3.04-.75,4.32-.05-.33,1.35-4.02,1.49-4.32.05Z"/>
  </g>
  <g id="_x23_d13a38ff">
    <path class="st57" d="M1056.78,885.79c11.03-13.15,32.3-16.06,46.23-5.88,14.79,10.26,19.75,32.54,9.55,47.66-.01-3.33,1.7-6.32,2.08-9.57,0-2.44-2.92-3.04-4.5-4.26-4.08-2.78-9.07-3.35-13.8-4.2-1.5-.35-2.89.41-4.24.92.57,1.72,1.09,3.46,1.57,5.24-2.13-2.1-4.24-4.22-6.19-6.46,3.96-4.94,9.3-8.79,12.67-14.15-.94-1.42-2.76-4.03-4.64-2.54-4.46,3.87-8.04,8.65-12.46,12.58-4.89-4.38-9.05-9.5-14.01-13.8-1.06,1.21-2.15,2.41-3.05,3.75,3.13,5.45,8.44,9.29,12.43,14.12-4.16,4.8-8.69,9.27-13.12,13.82,1.22,1.25,2.46,2.48,3.72,3.72,1.06-.73,2.12-1.46,3.18-2.19-.84,1.26-1.07,4.07-3.23,3.6-2.81-.54-4.34-3.44-6.34-5.25-.26.6-.76,1.81-1.02,2.42-.66.03-1.31.08-1.94.14-.45,1.52-.89,3.05-1.33,4.59,6.04,1.87,12.41,4.68,18.83,3.63,1.36.83,2.7,1.77,3.88,2.88.91-.14,1.82-.28,2.76-.39.72.47,1.45.95,2.2,1.44,2.56-.54,5.18-.88,7.81-.73,4.46.06,8.71-1.03,12.97-2.2-12.24,12.58-34.26,12.23-47.03.6-14.35-11.9-15.79-35.95-2.98-49.49Z"/>
  </g>
  <g id="_x23_ca583fff">
    <path class="st128" d="M1830.51,885.24c1.33-.86,2.7-1.7,4.07-2.54,4.43,9.44,14.51,15.19,24.77,15.53,5.05,1.75,10.43,1.02,15.68,1.12,51.66,0,103.33-.1,154.99.05,20.97,1.62,41.98-.1,62.97.22,20.69-.05,41.38.09,62.07-.05,3.52-.11,7.21-.23,10.34-2.11,1.74-.81,3.53-1.57,5.3-2.39.36.38,1.07,1.15,1.43,1.53,2.58-1.39,5.25-2.85,8.27-2.96-5.66,6.74-14.92,9.24-23.43,8.99-41.94-.09-83.87.12-125.81.04,31.72,7.05,63.59,13.36,95.38,20.08,12.59,2.61,25.03,5.92,37.69,8.23-.41-4.31-.67-8.62-.7-12.93,5.89,4.51,11.46,9.44,17.23,14.1,2.25,2.02,5.01,3.68,6.39,6.49-10.05,2.92-19.99,6.23-30.04,9.11,2.05-4.11,5.12-7.66,6.77-11.99-35.36-7.19-70.6-14.97-105.97-22.09-15.68-3.12-31.26-6.67-46.84-10.21-4.94-1.33-10.06-.86-15.09-.89-43.99.05-87.98.06-131.97.08-5.93.02-12.06.08-17.59-2.34-6.99-2.77-12.59-8.4-15.91-15.07Z"/>
  </g>
  <g id="_x23_af4f3bff">
    <path class="st132" d="M1413.77,897.54c.62-.11,1.86-.32,2.48-.43,8.16,1.52,16.5.59,24.74.84,86.35.11,172.69-.02,259.04.05,5.06-.03,10.21.36,15.19-.83-.3.43-.91,1.28-1.22,1.71-11.01.64-22.05,1-33.08.86-82.62-.03-165.25-.13-247.87.01-6.46-.19-13.15.15-19.28-2.21Z"/>
  </g>
  <g id="_x23_a34b38ff">
    <path class="st97" d="M515.46,898.21c22.86-.6,45.73-.08,68.6-.23,62.64-.01,125.28,0,187.92.02,12.08-.27,24.2.55,36.25-.5-1.91,1.1-4.06,1.65-6.24,1.61-26.01.31-52.01.22-78.02.1-65.66-.06-131.31.04-196.97.04-3.88.18-7.78-.01-11.54-1.04Z"/>
  </g>
  <g id="_x23_a14a37ff">
    <path class="st120" d="M938.36,898.1c35.25-.29,70.5-.06,105.75-.06l-.14,1.19c-28.32-.06-56.63.24-84.95-.05-6.88-.29-13.96.98-20.66-1.08Z"/>
  </g>
  <g id="_x23_ac513eff">
    <path class="st58" d="M1122.02,897.99c36.42-.2,72.85.4,109.27-.3.4.31,1.2.92,1.6,1.22-8.28.93-16.62.26-24.93.46-13.96.15-27.93-.38-41.87.43-14.05.42-28.13-.1-42.17.64,3.68.32,7.38.34,11.09.27,28.65-.03,57.31.35,85.97.02,3.9-.16,7.8.19,11.63,1.01-3.14.97-6.44.85-9.67.85-33.53-.06-67.06.02-100.59.06-.02-.29-.07-.87-.09-1.16-.06-.88-.18-2.62-.24-3.5Z"/>
  </g>
  <g id="_x23_a84b39ff">
    <path class="st42" d="M1859.35,898.23c13.88-.54,27.79-.1,41.69-.25,81.63,0,163.27.04,244.9.01,6.48-.04,13,.27,19.46-.53-3.13,1.88-6.82,2-10.34,2.11-20.69.14-41.38,0-62.07.05-20.99-.32-42,1.4-62.97-.22-51.66-.15-103.33-.05-154.99-.05-5.25-.1-10.63.63-15.68-1.12Z"/>
  </g>
  <g id="_x23_4d89c0ff">
    <path class="st106" d="M225.96,902.8c1.43.03,2.86.02,4.29-.02.25,105.06.03,210.12.15,315.17-.1,4.96.26,10.21,3.06,14.49,3.43,5.59,9.99,8.82,16.48,8.76,58.45-.01,116.9.02,175.34.05,1.13-.01,2.26-.01,3.39,0,10.84-.1,21.69,0,32.54-.04-.96-4.29-2.89-8.25-4.18-12.43,9.17,4.34,17.72,9.88,26.86,14.29-2.12,2.67-5.38,3.87-8.25,5.53-5.95,3.18-11.67,6.79-17.81,9.61,1.26-4.1,2.93-8.06,4-12.2-15.26-.57-30.53.5-45.79-.08-55.36-.13-110.71.04-166.06-.04-8.91.13-17.96-4.88-21.62-13.17-2.96-5.81-2.6-12.47-2.58-18.79-.03-84.33-.06-168.66,0-252.98.13-19.38-.31-38.78.19-58.15Z"/>
    <path class="st106" d="M1509.37,1123.39c3.96-4.31,10.29-4.9,15.64-3.25l-.35.67c-5.45-.79-11.71-.09-15.42,4.43-6.48,6.56-4.23,18.55,3.51,23.12,3.74,1.56,7.91,1.13,11.86.85.53.26,1.61.77,2.15,1.02-5.08.49-10.56-.33-15.16,2.3.53-1,1.04-2,1.56-2.99-3.77-1.17-6.56-3.92-9.39-6.5-7.27,4.95-12.23,12.65-18.89,18.37,1.84-4.25,5.67-7.07,8.53-10.58,3.91-3.29,7.02-7.62,11.86-9.66-1.75-6.07-1.41-13.71,4.1-17.78Z"/>
  </g>
  <g id="_x23_d34641ff">
    <path class="st77" d="M1092.1,910.46c1.35-.51,2.74-1.27,4.24-.92,4.73.85,9.72,1.42,13.8,4.2,1.58,1.22,4.5,1.82,4.5,4.26-.38,3.25-2.09,6.24-2.08,9.57l-.02.35c-1.57,2.43-3.4,4.69-5.47,6.7l-.28.06c-4.26,1.17-8.51,2.26-12.97,2.2-2.63-.15-5.25.19-7.81.73-.75-.49-1.48-.97-2.2-1.44-.94.11-1.85.25-2.76.39-1.18-1.11-2.52-2.05-3.88-2.88-6.42,1.05-12.79-1.76-18.83-3.63.44-1.54.88-3.07,1.33-4.59.63-.06,1.28-.11,1.94-.14.26-.61.76-1.82,1.02-2.42,2,1.81,3.53,4.71,6.34,5.25,2.16.47,2.39-2.34,3.23-3.6,3.25-3.82,6.85-7.31,10.2-11.03,4.83,4.16,8.93,9.07,13.64,13.36,1.37-1.28,2.82-2.5,3.96-4.01-1.56-2.82-4.19-4.83-6.33-7.17-.48-1.78-1-3.52-1.57-5.24Z"/>
  </g>
  <g id="_x23_508ac1ff">
    <path class="st105" d="M484.46,1044.87c.57-8.89,8.37-16.88,17.49-16.53,96.68-.06,193.36-.05,290.03-.08,4.69-.16,9.48,1.49,12.75,4.92,4.73,4.63,5.27,11.63,5.13,17.88-.22,15.65.05,31.32-.2,46.97.05,6.3-3.13,12.56-8.62,15.79-3.23,2.23-7.3,1.98-11.03,2.03-56.33-.05-112.66.05-168.99.01-30.34.1-60.68-.23-91.01.22-9.69-.46-19.4-.02-29.1-.28-7.02-.01-13.71-5.08-15.62-11.83-.98-3.25-.87-6.68-.91-10.02.02-6.97-.08-13.94-.01-20.91-.01-.76-.01-2.29-.01-3.05-.02-8.38-.4-16.76.1-25.12M498.43,1033.55c-5.76,1.71-9.62,7.52-9.45,13.46-.19,15.99-.05,31.99-.14,47.98-.09,4.34.55,9.18,3.96,12.26,3.43,3.47,8.52,4.33,13.22,4.17,93.67.02,187.34.12,281.01-.02,4.97.08,10.66-.09,14.24-4.08,4.19-3.92,3.69-10.07,3.87-15.3-.03-13.02.16-26.04-.25-39.05-.12-5.32.76-11.44-3.05-15.77-3.35-4.08-8.94-4.53-13.84-4.39-93.01.06-186.03.06-279.05-.02-3.51.03-7.11-.22-10.52.76Z"/>
  </g>
  <g id="_x23_d0e6f9ff">
    <path class="st81" d="M498.43,1033.55c3.41-.98,7.01-.73,10.52-.76,93.02.08,186.04.08,279.05.02,4.9-.14,10.49.31,13.84,4.39,3.81,4.33,2.93,10.45,3.05,15.77.41,13.01.22,26.03.25,39.05-.18,5.23.32,11.38-3.87,15.3-3.58,3.99-9.27,4.16-14.24,4.08-93.67.14-187.34.04-281.01.02-4.7.16-9.79-.7-13.22-4.17-3.41-3.08-4.05-7.92-3.96-12.26.09-15.99-.05-31.99.14-47.98-.17-5.94,3.69-11.75,9.45-13.46Z"/>
  </g>
  <g id="_x23_cad2daff">
    <path class="st111" d="M439.42,1071.54c8.12-3.3,17.03-1.82,25.55-2.14,6.45.25,13.01-.67,19.39.59,0,.76,0,2.29.01,3.05-4.73.99-9.56.42-14.34.5-7.01.05-14.01-.11-21.02,0-7.53.03-14.93,4.74-17.91,11.71-2.61,5.18-2.6,11.11-2.56,16.78.11,46.41-.16,92.81.13,139.22-1.13-.01-2.26-.01-3.39,0-1.06-10.39-.22-20.85-.52-31.27,0-32.33-.03-64.65-.02-96.97.04-7.35-.25-14.73.61-22.04.9-8.31,6.44-16,14.07-19.43Z"/>
  </g>
  <g id="_x23_ccd3ddff">
    <path class="st29" d="M810.9,1070.12c23.7-.97,47.44-.28,71.15-.49,559.3.02,1118.6-.01,1677.9-.01,5.33.1,10.75-.45,16.03.67,7.46,1.68,13.63,7.53,16.23,14.66,2.93,7.3,2.09,15.31,2.2,22.99-.04,80.02-.03,160.03-.06,240.05-.03,4.57.23,9.24-.84,13.74-2.45,9.29-10.62,16.94-20.19,18.33-3.13-.1-6.23-.34-9.33-.48,3.16-.48,6.34-1.15,9.28-2.51,9.16-2.86,17.4-11.02,17.41-21.06-.01-86.66.01-173.32-.05-259.98-.12-8.29-4.2-16.94-11.82-20.79-5.18-2.86-11.24-1.68-16.85-1.88-561.67-.01-1123.33.03-1685,0-22.01-.03-44.04.18-66.04-.23-.01-.75-.01-2.26-.02-3.01Z"/>
  </g>
  <g id="_x23_508bc5ff">
    <path class="st7" d="M2089.96,1103.28c37.24-3.76,74.85-3.42,112.08.35,31.4,3.2,62.71,8.77,92.73,18.71,16.11,5.24,31.58,12.32,46.16,20.95,1.33-3.59,2.58-7.26,4.64-10.52,3.96,9.2,6.33,18.98,9.93,28.32l-.31,1.32c-9.78-1.83-18.89-6.31-28.78-7.68,3.34-2.78,7.25-4.73,10.84-7.17-3.17-3.02-7.25-4.74-10.99-6.87-23.25-12.2-48.79-19.22-74.34-24.69-36.81-7.53-74.46-10.45-111.98-10.67-50.76.98-101.88,7.21-150.12,23.56-13.17,4.7-26.56,9.6-37.94,17.92-5.43,4.2-11.02,9.19-12.66,16.15,40.92-.33,81.84.22,122.76-.08,7.62.14,15.28-.11,22.88.64,10.48,1.46,20.03,8.85,23.68,18.85,2.09,5.28,2.3,11.04,2.26,16.66,0,14.07-.08,28.15.01,42.23,17.4-.1,34.8.03,52.2.1,1.52-.22,3.64.54,4.69-1.03.12.29.37.86.49,1.15-7.54,2.29-15.51,1.51-23.26,1.57-6.31.08-12.64-.07-18.93.42,13.94,1.15,28.05-.76,41.89,1.78l-.05.62c-19,.04-37.99-.08-56.97.22-.3,16.64.04,33.29-.17,49.94-.06,11.4-7.4,22.28-17.81,26.83-4.36,1.94-9.16,2.61-13.88,2.6-48.04.03-96.09-.21-144.12.14-.49,5.65-2.57,11-3.96,16.47-1.38,4.29-2.17,8.76-3.72,13.01-2.77-2.79-3.96-7.29-6.35-10.61-15.03,10.31-32.12,16.99-49.2,23.05-16.37,5.46-32.8,10.93-49.68,14.59-40.19,9.77-81.11,16.16-122.14,21.17-41.12,5.01-82.46,7.91-123.83,9.63-52.34,1.64-104.76,1.99-157.04-1.36-52.91-2.78-105.66-8.4-158.01-16.53-25.21-3.9-50.22-9.05-74.91-15.43-3.12-.82-6.22-1.71-9.31-2.55-26.81-7.95-54.32-15.53-78.17-30.6-7.66-5.19-16.16-11.35-18.17-20.97-42.77-.06-85.53-.02-128.3-.05-8.03-.2-16.47.84-24.03-2.48-9.42-3.9-17.01-13.12-17.8-23.39,1.34-6.12.76-12.38.87-18.58.06-12,.07-23.99-.16-35.99.31-13.65.48-27.3.33-40.95-.11-4.97.68-10.07-1-14.85-.07-4.57,2.37-8.75,4.46-12.67,1.61.49,3.29,1,4.65,2.07-4.35,6.23-5.4,13.97-5.1,21.4.02,31.01-.07,62.03.03,93.04,0,6.85,1.89,13.97,6.71,19.04,5.21,5.94,13.2,8.75,21,8.43,93.64.08,187.28.11,280.92.12,3.58.03,7.16-.32,10.69-.98.28.18.85.53,1.14.71-1.18.69-2.35,1.39-3.5,2.12,8.94.18,16.27-7.14,19.81-14.8-.88-.24-1.74-.46-2.59-.66,4.2-8.05,2.76-17.34,2.99-26.04.2-28.31-.09-56.61.06-84.92.13-5.72-1.15-11.48-4.06-16.42,1.98.5,3.94,1.01,5.94,1.55l.26.06c3.4,8.53,2.49,17.8,2.59,26.77-.02,11.04-.03,22.08-.18,33.12,17.7.2,35.4.12,53.1.14-.91-4.25-2.83-8.16-4.05-12.29,8.95,4.16,17.45,9.24,25.99,14.18-7.67,6.43-16.61,11.24-25.45,15.86,1.04-4.48,3.15-8.63,3.94-13.17-17.83.13-35.66-.11-53.48.12.07,16.34.22,32.67.06,49.01-.07,7.7-3.06,15.35-8.34,20.97-5.86,6.24-14.41,9.61-22.93,9.44-46.32.25-92.64-.13-138.95.12,1.05,6.89,7.35,11.13,12.45,15.13,13.71,9.35,29.35,15.39,44.91,20.91,17.85,6.24,36.07,11.41,54.46,15.79,4.78,1.12,9.51,2.5,14.37,3.35,45.41,10.14,91.67,15.8,137.9,20.73,47.83,4.47,95.82,7.33,143.85,8.13,48.68.46,97.37-1.62,145.91-5.25,57.33-4.78,114.64-11.77,170.76-24.65,3.2-.58,6.38-1.37,9.54-2.21,19.28-4.72,38.35-10.37,57.05-17.05,13.83-5.15,27.75-10.78,39.84-19.37-3.78-1.92-7.86-3.23-11.35-5.65,9.33-2.74,18.53-5.87,27.77-8.91-1.06-.68-2.2-.98-3.43-.89-42.37-.19-84.73-.13-127.1-.1-6.95-.08-14.12.62-20.79-1.74-9.41-2.99-16.71-11.23-19.13-20.72-1.18-4.25-.92-8.71-.97-13.06.04-31,0-62.01-.13-93.01-.12-6.72.81-13.74,4.52-19.5,5.15-8.45,14.72-13.71,24.54-14.14,12.33-.53,24.69-.55,37.04-.27,35.26.39,70.52-.14,105.78-.21,2.13-8.15,7.77-14.79,14.55-19.56,12.44-9.04,27.07-14.36,41.43-19.5,32.42-10.79,66.23-16.99,100.17-20.47M1790.26,1168.29c-7.88.43-15.37,4.81-19.52,11.51-2.95,4.5-4.11,9.92-4.05,15.25-.02,30.33-.05,60.65.02,90.98.08,6.32-.52,12.98,2.15,18.91,3.56,8.63,12.15,14.94,21.52,15.44,10.19.46,20.39.23,30.6.3,83.68-.19,167.37-.04,251.06-.13,5.33-.16,10.78.37,16.01-1.03,9.14-2.72,16.31-11.09,17.58-20.56.75-5.97.37-12,.46-18,.04-28.31-.25-56.63.04-84.94.39-9.41-3.87-19.27-12.11-24.22-4.72-3.13-10.49-3.84-16.02-3.66-95.91.12-191.84-.18-287.74.15Z"/>
  </g>
  <g id="_x23_2f90e1ff">
    <path class="st94" d="M1474.35,1120.42c10.85-15.17,32.11-21.53,49.58-15.15,7.18,2.72,13.99,6.89,18.78,12.99,4.49,5.58,8.5,12.09,9.09,19.39-2.93-4.22-3.77-9.49-6.94-13.57-6.63-10.84-18.85-19.16-31.89-18.51-7.5-.08-15.34-.26-22.22,3.18-9.43,4.67-17.07,13.06-20.68,22.96-1.49,3.6-2.92,7.33-2.85,11.3-.06,5.68-.49,11.64,1.88,16.98,1.06,2.43,1.62,5.03,1.85,7.69-8.83-14.41-6.74-34.03,3.4-47.26Z"/>
  </g>
  <g id="_x23_2f9df6ff">
    <path class="st23" d="M1490.75,1108.75c6.88-3.44,14.72-3.26,22.22-3.18,13.04-.65,25.26,7.67,31.89,18.51.07,1.21.19,2.46.31,3.69-.49,1.2-.99,2.4-1.46,3.61-1.46.32-2.88.67-4.32,1.03-1.03-.7-2.05-1.4-3.05-2.08-.24,2.29-.46,4.61-1.03,6.87.26-2.5-.25-4.95-1.06-7.28-2.36,2.41-4.23,5.25-6.63,7.62-2.95.56-5.96-.08-8.9-.28-.33-2.72-1.18-5.51-.55-8.22,2.12-2.78,5.01-4.98,6.49-8.23l.35-.67c-5.35-1.65-11.68-1.06-15.64,3.25-5.51,4.07-5.85,11.71-4.1,17.78-4.84,2.04-7.95,6.37-11.86,9.66-3.09,1.27-5.8,3.22-8.58,5.02-2.04,1.59-4.19-.77-6.09-1.48-1.2.41-2.36.86-3.51,1.31-.56-1.66-.48-3.86-2.1-4.9-1.4-1.18-3.57-1.99-3.6-4.11-.61-4.98.19-10,.54-14.96,3.61-9.9,11.25-18.29,20.68-22.96Z"/>
  </g>
  <g id="_x23_fcfefeff">
    <path class="st98" d="M1509.24,1125.24c3.71-4.52,9.97-5.22,15.42-4.43-1.48,3.25-4.37,5.45-6.49,8.23-.63,2.71.22,5.5.55,8.22,2.94.2,5.95.84,8.9.28,2.4-2.37,4.27-5.21,6.63-7.62.81,2.33,1.32,4.78,1.06,7.28-1.63,5.35-5.42,9.95-10.7,12.01-3.95.28-8.12.71-11.86-.85-7.74-4.57-9.99-16.56-3.51-23.12Z"/>
  </g>
  <g id="_x23_2599f6ff">
    <path class="st4" d="M1545.17,1127.77c-.12-1.23-.24-2.48-.31-3.69,3.17,4.08,4.01,9.35,6.94,13.57,2.04,9.18,1.36,19.61-3.2,28.04-.31-3.46.7-6.96.12-10.36-.48-2.19-2.8-2.56-4.65-2.29-.29-.76-.55-1.5-.79-2.22-2.71-.63-5.33-1.69-8.1-2-2.79.6-5.51,1.75-8.42,1.41-.54-.25-1.62-.76-2.15-1.02,5.28-2.06,9.07-6.66,10.7-12.01.57-2.26.79-4.58,1.03-6.87,1,.68,2.02,1.38,3.05,2.08,1.44-.36,2.86-.71,4.32-1.03.47-1.21.97-2.41,1.46-3.61Z"/>
  </g>
  <g id="_x23_2699f6ff">
    <path class="st2" d="M1467.22,1143.01c-.07-3.97,1.36-7.7,2.85-11.3-.35,4.96-1.15,9.98-.54,14.96.03,2.12,2.2,2.93,3.6,4.11,1.62,1.04,1.54,3.24,2.1,4.9,1.15-.45,2.31-.9,3.51-1.31,1.9.71,4.05,3.07,6.09,1.48,2.78-1.8,5.49-3.75,8.58-5.02-2.86,3.51-6.69,6.33-8.53,10.58-3.59,4.44.26,12.11,6.12,11,4.83-1.44,7.58-6.14,11.03-9.5.87,1.7,1.51,3.61,2.92,4.99,1.44,1.22,3.4,1.45,5.16,2.02-.54,1.38-1.05,2.79-1.56,4.2-.24-.7-.73-2.12-.97-2.82-1.11.72-2.2,1.45-3.27,2.19.45.74.91,1.49,1.4,2.26-1.41,1.42-2.81,2.85-4.19,4.3.33,1.72.67,3.45,1.02,5.19,5.43,2.91,11.55,3.87,17.65,4.12-18.71,5.2-40.99-3.79-49.24-21.68-.23-2.66-.79-5.26-1.85-7.69-2.37-5.34-1.94-11.3-1.88-16.98Z"/>
  </g>
  <g id="_x23_5190ceff">
    <path class="st87" d="M2511.24,1133.4c11.54-2.42,24.26,1.46,32.37,10.07,9.2,9.15,11.98,23.73,7.79,35.87-3.9,11.23-13.7,20.47-25.46,22.82-8.77,1.58-18.37.68-25.95-4.29-12.61-7.87-19.85-24.12-15.66-38.63,3.17-12.78,14.12-23.02,26.91-25.84M2532.42,1154.38c-6.9,7.06-13.94,14-20.5,21.39-3.3-3.32-6.09-7.17-9.76-10.07-3.4-1.91-6.51,3.38-3.82,5.83,3.98,4.02,7.93,8.14,12.26,11.81,2.08,1.51,3.81-1.44,5.25-2.61,7.29-7.96,15.16-15.39,22.5-23.31,2-1.75,1.12-4.98-1.29-5.78-1.99-.19-3.31,1.59-4.64,2.74Z"/>
  </g>
  <g id="_x23_319ff6ff">
    <path class="st37" d="M1535.18,1148.82c2.77.31,5.39,1.37,8.1,2,.24.72.5,1.46.79,2.22,1.85-.27,4.17.1,4.65,2.29.58,3.4-.43,6.9-.12,10.36-1.11,4.21-4.23,7.66-6.99,10.95-5.68,6.17-13.14,11.05-21.42,12.72-6.1-.25-12.22-1.21-17.65-4.12-.35-1.74-.69-3.47-1.02-5.19,1.38-1.45,2.78-2.88,4.19-4.3-.49-.77-.95-1.52-1.4-2.26,1.07-.74,2.16-1.47,3.27-2.19.24.7.73,2.12.97,2.82.51-1.41,1.02-2.82,1.56-4.2-1.76-.57-3.72-.8-5.16-2.02-1.41-1.38-2.05-3.29-2.92-4.99,3.17-3.47,6.32-6.97,9.57-10.38,4.6-2.63,10.08-1.81,15.16-2.3,2.91.34,5.63-.81,8.42-1.41Z"/>
  </g>
  <g id="_x23_f9fdfeff">
    <path class="st92" d="M2532.42,1154.38c1.33-1.15,2.65-2.93,4.64-2.74,2.41.8,3.29,4.03,1.29,5.78-7.34,7.92-15.21,15.35-22.5,23.31-1.44,1.17-3.17,4.12-5.25,2.61-4.33-3.67-8.28-7.79-12.26-11.81-2.69-2.45.42-7.74,3.82-5.83,3.67,2.9,6.46,6.75,9.76,10.07,6.56-7.39,13.6-14.33,20.5-21.39Z"/>
  </g>
  <g id="_x23_4091d2ff">
    <path class="st75" d="M1349.61,1162.51c9.38-4.77,20.24-3.38,30.39-3.64,20.36.31,40.7.15,61.06-.03,6.94.13,13.9-.29,20.83.3.94,2.9,2.24,5.68,3.15,8.6.12.58.36,1.73.48,2.31-28.15.22-56.31-.07-84.46.06-8.09.15-16.28-.59-24.25,1.16,1.56-.96,3.21-1.98,5.13-1.92,33.81-.53,67.64.04,101.46-.24-.71-3.11-1.03-8.54-5.34-8.35-9-.17-18-.19-26.99.17-11-.38-22.01,0-33.02-.09-11.83.12-23.67-.42-35.49.13-9.56.12-19.21,5.13-24.17,13.43-3.77,6.15-5.57,13.39-5.3,20.59.29,24.14-.65,48.28.08,72.42-.01,9.42.14,18.85.16,28.28-.48,12.38,6.66,24.92,18.29,29.68,3,1.14,6.12,2.12,9.37,2.24,99.14.15,198.29-.03,297.43.05l.89,1.43c-10.41,1.26-20.92.54-31.37.75-87.33-.02-174.67.09-262.01-.08-8.52.27-17.11-2.61-23.41-8.4-7.08-5.95-10.65-15.24-10.76-24.34-.18-35.35-.19-70.71.03-106.06.24-11.74,7.09-23.37,17.82-28.45Z"/>
  </g>
  <g id="_x23_4195d7ff">
    <path class="st9" d="M1556.99,1159.19c27.99-.74,56-.14,84-.34,4.34-.06,8.68.27,13.03.32,7.44.07,15.09,2.47,20.64,7.56-3.04.02-5.39-2.12-8.05-3.23-8.76-4.08-18.71-2.49-28.04-2.35-10.14-.89-20.34-.25-30.5-.48-15.71.09-31.42-.04-47.12.23-4.44-.47-4.63,4.9-5.91,7.89,23.63.58,47.27.56,70.92.34,7.19-.03,14.41.21,21.6-.48,3.86.47,7.79.38,11.67.84.39.34,1.17,1,1.56,1.34-10.22-1.46-20.58-.52-30.86-.75-25.61.02-51.22.26-76.82-.14l-.18-.8c1.18-3.38,2.73-6.63,4.06-9.95Z"/>
  </g>
  <g id="_x23_2698f5ff">
    <path class="st0" d="M1338.39,1174.4c4.96-8.3,14.61-13.31,24.17-13.43-1.45.59-2.85,1.26-4.25,1.92-.44,1.18-.86,2.38-1.27,3.58,3.06-.47,6.23-.69,9.24.28,5.11,1.48,10.46.9,15.7,1.11,14.68-.01,29.35-.07,44.02-.03,3.11-.01,6.23-.31,9.32-.74-.34-1.46-.68-2.9-1.02-4.34-1.07-.6-2.19-1.25-3.23-1.82,8.99-.36,17.99-.34,26.99-.17,4.31-.19,4.63,5.24,5.34,8.35-33.82.28-67.65-.29-101.46.24-1.92-.06-3.57.96-5.13,1.92-3.17,1.91-6.45,3.87-8.72,6.87-2.96,3.6-4.44,8.14-5.31,12.65-1.19,5.21-.29,10.62-1.52,15.84-1.13-8.36.58-17-2.34-25.09-.25.9-.48,1.81-.68,2.73-.91.17-1.8.35-2.66.55-1.01,2.94-1.58,6.02-1.46,9.15.12,9.25-.14,18.51.16,27.76,1.7.74,3.41,1.49,5.13,2.24.49-1.48,1.01-2.95,1.48-4.43.39,14.88.11,29.77.12,44.65-.86-1.04-1.69-2.05-2.51-3.06-.24.6-.71,1.78-.94,2.38-.95.05-1.87.14-2.78.23-.56,1.2-1.12,2.41-1.61,3.67-.73-24.14.21-48.28-.08-72.42-.27-7.2,1.53-14.44,5.3-20.59Z"/>
  </g>
  <g id="_x23_339cf4ff">
    <path class="st136" d="M1362.56,1160.97c11.82-.55,23.66-.01,35.49-.13,11.01.09,22.02-.29,33.02.09,1.04.57,2.16,1.22,3.23,1.82.34,1.44.68,2.88,1.02,4.34-3.09.43-6.21.73-9.32.74-14.67-.04-29.34.02-44.02.03-5.24-.21-10.59.37-15.7-1.11-3.01-.97-6.18-.75-9.24-.28.41-1.2.83-2.4,1.27-3.58,1.4-.66,2.8-1.33,4.25-1.92Z"/>
    <path class="st136" d="M1638.57,1161.15c9.33-.14,19.28-1.73,28.04,2.35,2.66,1.11,5.01,3.25,8.05,3.23l.27.03c1.74,1.75,3.9,3.34,4.86,5.71,1.59,5.49,4.71,10.6,4.82,16.46.23,10.34-.04,20.7.04,31.05.12,7.51-.46,15.06.59,22.54-.1,1.08-.17,2.18-.22,3.3-.2,2.91-.38,5.84-.59,8.77-.71,3.69-.99,7.46-.78,11.23-1.81-2.63-4.34-5.61-2.37-8.85-1.25-.49-2.54-.99-3.74-1.44-1.25,5.06-.57,10.29-.72,15.44-.2,8.68.12,17.37-.28,26.05-.37-29.99-.22-59.98-.2-89.97-.14-5.5.75-11.13-.89-16.48-1.11-4.47-2.21-9.16-5.25-12.76-2.39-3.23-6-5.09-9.41-6.98-.39-.34-1.17-1-1.56-1.34-3.88-.46-7.81-.37-11.67-.84-6.01-1.7-12.28-.58-18.41-1.01.08-1.71-.35-4.01,1.65-4.82,2.52-.8,5.16-1.15,7.77-1.67Z"/>
  </g>
  <g id="_x23_2c99f4ff">
    <path class="st1" d="M1555.04,1168.79c1.28-2.99,1.47-8.36,5.91-7.89,15.7-.27,31.41-.14,47.12-.23,10.16.23,20.36-.41,30.5.48-2.61.52-5.25.87-7.77,1.67-2,.81-1.57,3.11-1.65,4.82,6.13.43,12.4-.69,18.41,1.01-7.19.69-14.41.45-21.6.48-23.65.22-47.29.24-70.92-.34Z"/>
  </g>
  <g id="_x23_5d91c8ff">
    <path class="st129" d="M2355.5,1161.09c.24.42.7,1.26.93,1.68,40.81.34,81.63-.07,122.44.14-.06,1.78-.11,3.56-.12,5.37l-.75-.02c-.09-1.42-.15-2.83-.18-4.22-24.28-.2-48.55.33-72.83.2-30.56-.05-61.14-.48-91.7-.02-.39.78-.74,1.57-1.07,2.38,2.42.36,4.86.85,7.29,1.42-32.68.18-65.37.07-98.05.04-3.14-1.22-6.24-2.5-9.4-3.59,8.47-2.12,17.24-1.48,25.89-1.57,36.68.16,73.37-.15,110.06.03,2.3-.2,5.17.72,7.18-.52l.31-1.32Z"/>
  </g>
  <g id="_x23_588dc6ff">
    <path class="st100" d="M489.61,1176.52c5.12-8.26,14.75-12.9,24.29-13.29,28.03-.61,56.06-.22,84.09-.35,67.02.07,134.04-.08,201.06.04,4.89.07,9.85.58,14.44,2.41l.23.35c1.01,1.76,2.46,3.21,3.98,4.57-.6.57-1.18,1.15-1.75,1.75-5.89-3.92-13.14-4.04-19.95-3.85-94.02.03-188.05-.03-282.07.02-12.44-.06-23.52,10.42-24.31,22.81-.38-.19-1.14-.57-1.52-.76-.11,3.24-.23,6.49-.44,9.74-.41-1.45-.82-2.87-1.15-4.31-.28-2.18-.69-4.33-1.15-6.46-.14-4.52,1.98-8.87,4.25-12.67Z"/>
  </g>
  <g id="_x23_578cc5ff">
    <path class="st63" d="M936.4,1163.49c9.83-1.06,19.74-.47,29.61-.5,84.66-.09,169.36-.12,254.04-.11,5.94.08,12.11.11,17.67,2.53,7.01,2.93,13.06,8.56,15.74,15.76-2-.54-3.96-1.05-5.94-1.55-4.55-7.29-12.99-11.75-21.57-11.42-94.99-.09-189.99-.07-284.99-.01-8.34-.24-16.69,3.5-21.54,10.39-1.36-1.07-3.04-1.58-4.65-2.07,4.9-7.2,12.98-12.02,21.63-13.02Z"/>
  </g>
  <g id="_x23_2475bbff">
    <path class="st108" d="M1488.88,1163.87c1.05-.65,2.35-.26,3.55-.27-.1,1.71.2,4.34-2.33,4.15-2.28.48-2.5-2.68-1.22-3.88Z"/>
  </g>
  <g id="_x23_538cc8ff">
    <path class="st101" d="M2313.29,1164.22c30.56-.46,61.14-.03,91.7.02,24.28.13,48.55-.4,72.83-.2.03,1.39.09,2.8.18,4.22-28.67-.17-57.34-.1-86-.16-24.17-.07-48.34.35-72.49-.08-2.43-.57-4.87-1.06-7.29-1.42.33-.81.68-1.6,1.07-2.38Z"/>
  </g>
  <g id="_x23_528cc2ff">
    <path class="st138" d="M2191.34,1190.22c.63-11.79,9.49-22.33,20.72-25.75,3.16,1.09,6.26,2.37,9.4,3.59-6.86.29-13.89,2.66-18.61,7.82-4.95,5.04-7.12,12.18-7.19,19.14-.21,29.66.21,59.33.01,89,0,6.7-.55,13.69,1.94,20.08,2.71,7.4,9.18,13.21,16.74,15.35,4.43,1.11,9.06,1.05,13.62,1.11,85.35-.03,170.7.05,256.06.04,5.5-.14,11.19.5,16.55-1.16,10.62-3.45,17.76-14.42,17.46-25.46.04-24.65,0-49.3.05-73.94.04-4.21-.36-8.45.47-12.59,1.35-.07,2.74-.1,4.16-.08-.05,27.19.07,54.39.02,81.59-.02,4.64.13,9.37-1.06,13.91-2.64,10.01-10.66,18.57-20.7,21.33-4.25,1.26-8.71,1.27-13.08,1.26-87.98-.01-175.95.02-263.93-.01-6.75.11-13.72-1.25-19.36-5.11-8.38-5.51-14.08-15.58-13.34-25.68,1.61-5.42.88-11.1,1.07-16.66.03-22.68-.1-45.36-.01-68.04-.17-6.59.69-13.29-.99-19.74Z"/>
  </g>
  <g id="_x23_4d84beff">
    <path class="st118" d="M813.72,1165.68c11.06,4.13,18.19,15.74,18.34,27.36.11,16.03-.03,32.07.06,48.11,17.96.04,35.92.13,53.88.14l-.14.68c-7.38.92-14.82.92-22.23,1.43,7.35,1.03,14.79.23,22.17.83.11.41.33,1.22.45,1.63-18.04-.05-36.07.03-54.1.06-.25,16.69.13,33.38-.14,50.07-.08,10.51-6.23,20.68-15.49,25.65.04-.37.11-1.11.15-1.48,3.72-3.13,7.86-6.18,9.35-11.07-.33-.61-.99-1.82-1.32-2.43,3.53-7.38,2.54-15.75,2.67-23.66.03-29.35-.16-58.69.04-88.04.29-8.93-3.89-18.03-11.46-22.96.57-.6,1.15-1.18,1.75-1.75-1.52-1.36-2.97-2.81-3.98-4.57Z"/>
  </g>
  <g id="_x23_d1e5f9ff">
    <path class="st25" d="M489.62,1190.98c.79-12.39,11.87-22.87,24.31-22.81,94.02-.05,188.05.01,282.07-.02,6.81-.19,14.06-.07,19.95,3.85,7.57,4.93,11.75,14.03,11.46,22.96-.2,29.35,0,58.69-.04,88.04-.13,7.91.86,16.28-2.67,23.66-4.22,7.92-12.58,13.86-21.75,13.75-21.34.38-42.69.12-64.03.17-70.99-.06-141.98.08-212.97.1-7.33-.21-15.12.73-21.91-2.67-8.73-4.14-14.35-13.52-14.53-23.1-.31-11.96-.1-23.94-.07-35.9.2-22.68-.45-45.37.18-68.03Z"/>
  </g>
  <g id="_x23_d1e5f8ff">
    <path class="st89" d="M919.42,1178.58c4.85-6.89,13.2-10.63,21.54-10.39,95-.06,190-.08,284.99.01,8.58-.33,17.02,4.13,21.57,11.42,2.91,4.94,4.19,10.7,4.06,16.42-.15,28.31.14,56.61-.06,84.92-.23,8.7,1.21,17.99-2.99,26.04-3.25,5.84-8.6,10.31-14.86,12.63-3.53.66-7.11,1.01-10.69.98-93.64-.01-187.28-.04-280.92-.12-7.8.32-15.79-2.49-21-8.43-4.82-5.07-6.72-12.19-6.71-19.04-.1-31.01,0-62.03-.03-93.04-.3-7.43.75-15.17,5.1-21.4Z"/>
  </g>
  <g id="_x23_b4dffbff">
    <path class="st85" d="M1465.04,1167.74c6.6,17.17,24.84,28.4,43.01,28.17,18.54,1.08,37.13-9.83,44.88-26.77l.18.8c25.6.4,51.21.16,76.82.14,10.28.23,20.64-.71,30.86.75,3.41,1.89,7.02,3.75,9.41,6.98,3.04,3.6,4.14,8.29,5.25,12.76.02,28.48.08,56.96-.07,85.45-.27,9.76.9,19.79-2.01,29.28-2.89,7.12-9.73,12.45-17.44,13.09-7.95.62-15.93.04-23.88.21-59.69.05-119.39.06-179.08.06-30.78-.09-61.55.23-92.32-.09-7.83-1.83-14.8-7.69-16.67-15.68-2.26-9.79-1.15-19.94-1.44-29.88.27-27.41-.33-54.82.24-82.22.87-4.51,2.35-9.05,5.31-12.65,2.27-3,5.55-4.96,8.72-6.87,7.97-1.75,16.16-1.01,24.25-1.16,28.15-.13,56.31.16,84.46-.06-.12-.58-.36-1.73-.48-2.31Z"/>
  </g>
  <g id="_x23_d1e6f9ff">
    <path class="st80" d="M1790.26,1168.29c95.9-.33,191.83-.03,287.74-.15,5.53-.18,11.3.53,16.02,3.66,8.24,4.95,12.5,14.81,12.11,24.22-.29,28.31,0,56.63-.04,84.94-.09,6,.29,12.03-.46,18-1.27,9.47-8.44,17.84-17.58,20.56-5.23,1.4-10.68.87-16.01,1.03-83.69.09-167.38-.06-251.06.13-10.21-.07-20.41.16-30.6-.3-9.37-.5-17.96-6.81-21.52-15.44-2.67-5.93-2.07-12.59-2.15-18.91-.07-30.33-.04-60.65-.02-90.98-.06-5.33,1.1-10.75,4.05-15.25,4.15-6.7,11.64-11.08,19.52-11.51Z"/>
  </g>
  <g id="_x23_d0e5f8ff">
    <path class="st6" d="M2202.85,1175.88c4.72-5.16,11.75-7.53,18.61-7.82,32.68.03,65.37.14,98.05-.04,24.15.43,48.32.01,72.49.08,28.66.06,57.33-.01,86,.16l.75.02c.39,8.94,3.13,18.04,9.09,24.89,7.26,9.3,19.06,14.21,30.72,14.28-.83,4.14-.43,8.38-.47,12.59-.05,24.64-.01,49.29-.05,73.94.3,11.04-6.84,22.01-17.46,25.46-5.36,1.66-11.05,1.02-16.55,1.16-85.36.01-170.71-.07-256.06-.04-4.56-.06-9.19,0-13.62-1.11-7.56-2.14-14.03-7.95-16.74-15.35-2.49-6.39-1.94-13.38-1.94-20.08.2-29.67-.22-59.34-.01-89,.07-6.96,2.24-14.1,7.19-19.14Z"/>
  </g>
  <g id="_x23_3b89c6ff">
    <path class="st69" d="M1679.79,1172.47c5.71,6.31,6.77,15.31,6.52,23.49-.2,15.05.51,30.17-.28,45.18-.2.35-.6,1.04-.79,1.38-1.05-7.48-.47-15.03-.59-22.54-.08-10.35.19-20.71-.04-31.05-.11-5.86-3.23-10.97-4.82-16.46Z"/>
  </g>
  <g id="_x23_329df7ff">
    <path class="st93" d="M1338.92,1181.54c2.92,8.09,1.21,16.73,2.34,25.09-.34,4.29-.36,8.6-.37,12.91-.47,1.48-.99,2.95-1.48,4.43-1.72-.75-3.43-1.5-5.13-2.24-.3-9.25-.04-18.51-.16-27.76-.12-3.13.45-6.21,1.46-9.15.86-.2,1.75-.38,2.66-.55.2-.92.43-1.83.68-2.73Z"/>
  </g>
  <g id="_x23_587fa6ff">
    <path class="st71" d="M485.36,1189.19c.46,2.13.87,4.28,1.15,6.46-.58,28.76.11,57.55-.25,86.32-.25,5.95.84,12.05-.87,17.88-1.19-8.91-.26-17.94-.56-26.9-.08-18.97,0-37.94,0-56.9.27-8.95-.54-17.96.54-26.86Z"/>
  </g>
  <g id="_x23_538ec3ff">
    <path class="st3" d="M488.1,1190.22c.38.19,1.14.57,1.52.76-.63,22.66.02,45.35-.18,68.03-.03,11.96-.24,23.94.07,35.9.18,9.58,5.8,18.96,14.53,23.1,6.79,3.4,14.58,2.46,21.91,2.67,70.99-.02,141.98-.16,212.97-.1,21.34-.05,42.69.21,64.03-.17,9.17.11,17.53-5.83,21.75-13.75.33.61.99,1.82,1.32,2.43-1.49,4.89-5.63,7.94-9.35,11.07-.04.37-.11,1.11-.15,1.48l-.02.23c-8.75,4.72-18.91,3.42-28.45,3.57-86.33.01-172.67.04-259,.02-9.87-.2-20.57,1.29-29.46-4.05-7.47-4.58-13.74-12.61-14.2-21.56,1.71-5.83.62-11.93.87-17.88.36-28.77-.33-57.56.25-86.32.33,1.44.74,2.86,1.15,4.31.21-3.25.33-6.5.44-9.74Z"/>
  </g>
  <g id="_x23_4e79a4ff">
    <path class="st48" d="M910.31,1189.18c1.68,4.78.89,9.88,1,14.85.15,13.65-.02,27.3-.33,40.95.23,12,.22,23.99.16,35.99-.11,6.2.47,12.46-.87,18.58-.91-4.12-.59-8.34-.65-12.51.05-28.33-.03-56.66-.03-84.99.02-4.3-.22-8.65.72-12.87Z"/>
  </g>
  <g id="_x23_2498f8ff">
    <path class="st60" d="M1341.26,1206.63c1.23-5.22.33-10.63,1.52-15.84-.57,27.4.03,54.81-.24,82.22.29,9.94-.82,20.09,1.44,29.88,1.87,7.99,8.84,13.85,16.67,15.68l1.38.63-1.34.9c-3.12.84-6.22,1.76-9.2,3,.03.57.09,1.71.13,2.27-11.63-4.76-18.77-17.3-18.29-29.68.57,1.69,1.25,3.36,1.93,5.04,1.51.04,3.04.1,4.58.17,1.72-6.5,1.06-13.25,1.14-19.89.06-5.61-.02-11.22.03-16.82-.01-14.88.27-29.77-.12-44.65.01-4.31.03-8.62.37-12.91Z"/>
  </g>
  <g id="_x23_2897f3ff">
    <path class="st114" d="M1675.45,1190.57c1.64,5.35.75,10.98.89,16.48-.02,29.99-.17,59.98.2,89.97.4-8.68.08-17.37.28-26.05.15-5.15-.53-10.38.72-15.44,1.2.45,2.49.95,3.74,1.44-1.97,3.24.56,6.22,2.37,8.85-.21-3.77.07-7.54.78-11.23.5,13.46.07,26.93.33,40.4.2,4.88-.87,9.7-2.74,14.19-.09-1.4-.17-2.79-.25-4.17-2.78-.89-5.65-.33-8.4.29,2.91-9.49,1.74-19.52,2.01-29.28.15-28.49.09-56.97.07-85.45Z"/>
  </g>
  <g id="_x23_547a9eff">
    <path class="st112" d="M2191.34,1190.22c1.68,6.45.82,13.15.99,19.74-.09,22.68.04,45.36.01,68.04-.19,5.56.54,11.24-1.07,16.66-.87-14.88-.17-29.82-.38-44.72.01-15.64-.04-31.27-.05-46.9.04-4.29-.25-8.59.5-12.82Z"/>
  </g>
  <g id="_x23_5b91c9ff">
    <path class="st72" d="M881.92,1228.85c9.36,4.49,18.45,9.58,27.61,14.48-3.61,2.95-7.92,4.82-11.88,7.24-5.15,2.7-10.03,5.92-15.38,8.23,1.07-4.38,3.98-8.37,3.98-12.94-.12-.41-.34-1.22-.45-1.63-7.38-.6-14.82.2-22.17-.83,7.41-.51,14.85-.51,22.23-1.43l.14-.68c-.65-4.35-3.06-8.19-4.08-12.44Z"/>
  </g>
  <g id="_x23_538dc9ff">
    <path class="st36" d="M1734.84,1229c9.03,4.34,17.66,9.49,26.49,14.25-6.39,5.39-14.29,8.59-21.38,12.93-1.16-1.73-1.79-3.75-1.67-5.82.14-1.5.45-2.98.73-4.44-17.54.32-35.09-.09-52.63-.08l-1.36-.02c.05-1.12.12-2.22.22-3.3.19-.34.59-1.03.79-1.38,17.66-.08,35.32.12,52.99-.02-1.18-4.12-2.96-8.03-4.18-12.12Z"/>
  </g>
  <g id="_x23_5a93caff">
    <path class="st67" d="M2163.35,1229.17c5.93,2.21,11.24,5.75,16.91,8.55,3.49,1.99,7.5,3.24,10.42,6.14-6.31,3.65-12.58,7.52-19.19,10.54-1.39.08-2.76.11-4.1.17-.39-.98-.74-1.94-1.07-2.89.61-1.91,1.35-3.81,1.52-5.81l.05-.62c-13.84-2.54-27.95-.63-41.89-1.78,6.29-.49,12.62-.34,18.93-.42,7.75-.06,15.72.72,23.26-1.57-.12-.29-.37-.86-.49-1.15-1.74-3.61-3.21-7.33-4.35-11.16Z"/>
  </g>
  <g id="_x23_3d88c6ff">
    <path class="st5" d="M1685.02,1245.82l1.36.02c-.03,16.71.11,33.43-.01,50.15.44,15.67-11.36,30.78-27.06,33.1l-.89-1.43c10.42-1.46,19.76-8.67,23.6-18.48,1.87-4.49,2.94-9.31,2.74-14.19-.26-13.47.17-26.94-.33-40.4.21-2.93.39-5.86.59-8.77Z"/>
  </g>
  <g id="_x23_5784aeff">
    <path class="st47" d="M1738.28,1250.36c-.12,2.07.51,4.09,1.67,5.82-1.53.71-3.07,1.41-4.57,2.11.68-2.74,1.71-5.37,2.9-7.93Z"/>
  </g>
  <g id="_x23_5e89b1ff">
    <path class="st74" d="M2166.32,1251.68c.33.95.68,1.91,1.07,2.89,1.34-.06,2.71-.09,4.1-.17-2.45,1.72-5.07,3.19-7.87,4.21.78-2.36,1.71-4.65,2.7-6.93Z"/>
  </g>
  <g id="_x23_359ff8ff">
    <path class="st119" d="M1338.5,1261.13c.82,1.01,1.65,2.02,2.51,3.06-.05,5.6.03,11.21-.03,16.82-.08,6.64.58,13.39-1.14,19.89-1.54-.07-3.07-.13-4.58-.17-.68-1.68-1.36-3.35-1.93-5.04-.02-9.43-.17-18.86-.16-28.28.49-1.26,1.05-2.47,1.61-3.67.91-.09,1.83-.18,2.78-.23.23-.6.7-1.78.94-2.38Z"/>
  </g>
  <g id="_x23_2f9efaff">
    <path class="st123" d="M1673.37,1305.3c2.75-.62,5.62-1.18,8.4-.29.08,1.38.16,2.77.25,4.17-3.84,9.81-13.18,17.02-23.6,18.48-99.14-.08-198.29.1-297.43-.05-3.25-.12-6.37-1.1-9.37-2.24-.04-.56-.1-1.7-.13-2.27,2.98-1.24,6.08-2.16,9.2-3,23.75.34,47.51-.14,71.26.06,70.35-.01,140.7-.05,211.05.11,4.79.05,9.61.11,14.37-.66-9.77-.72-19.59-.16-29.37-.31-88.66-.11-177.32.15-265.97-.1l-1.38-.63c30.77.32,61.54,0,92.32.09,59.69,0,119.39-.01,179.08-.06,7.95-.17,15.93.41,23.88-.21,7.71-.64,14.55-5.97,17.44-13.09Z"/>
  </g>
  <g id="_x23_6296c9ff">
    <path class="st79" d="M1233.67,1319.63c6.26-2.32,11.61-6.79,14.86-12.63.85.2,1.71.42,2.59.66-3.54,7.66-10.87,14.98-19.81,14.8,1.15-.73,2.32-1.43,3.5-2.12-.29-.18-.86-.53-1.14-.71Z"/>
  </g>
  <g id="_x23_3294dcff">
    <path class="st130" d="M1362.03,1319.2c88.65.25,177.31-.01,265.97.1,9.78.15,19.6-.41,29.37.31-4.76.77-9.58.71-14.37.66-70.35-.16-140.7-.12-211.05-.11-23.75-.2-47.51.28-71.26-.06l1.34-.9Z"/>
  </g>
  <g id="_x23_d0d7dfff">
    <path class="st27" d="M1197.84,1377.33c9.07-.32,18.15-.93,27.23-.47,29.62.84,59.25-.05,88.87,0,157.36-.03,314.73-.05,472.1-.01,11.38.09,22.76-.11,34.13.58-3.16.84-6.34,1.63-9.54,2.21-7.22-.86-14.36.89-21.56.96-19.69.33-39.38.19-59.06.16-108.69-.05-217.38.06-326.06-.03-52.32.11-104.65-.11-156.97.06-8.66-.2-17.33.01-25.97-.54-2.96-.21-5.89.07-8.8.43-4.86-.85-9.59-2.23-14.37-3.35Z"/>
  </g>
  <g id="_x23_d0d8e0ff">
    <path class="st103" d="M1843.6,1380.65c1.21-1.89,2.96-3.66,5.42-3.43,18.97-.73,37.97-.41,56.96-.4,181.02-.11,362.04-.03,543.06-.06,41.4.14,82.83-.31,124.23.31-2.94,1.36-6.12,2.03-9.28,2.51,3.1.14,6.2.38,9.33.48-4.99,1.41-10.24.4-15.33.65-209.68-.09-419.36.04-629.04.02-28.45-.12-56.91.25-85.35-.08Z"/>
  </g>
  <g id="_x23_f6faffff">
    <path class="st50" d="M1789.07,1380.6c7.2-.07,14.34-1.82,21.56-.96-56.12,12.88-113.43,19.87-170.76,24.65-48.54,3.63-97.23,5.71-145.91,5.25-48.03-.8-96.02-3.66-143.85-8.13-46.23-4.93-92.49-10.59-137.9-20.73,2.91-.36,5.84-.64,8.8-.43,8.64.55,17.31.34,25.97.54,52.32-.17,104.65.05,156.97-.06,108.68.09,217.37-.02,326.06.03,19.68.03,39.37.17,59.06-.16Z"/>
  </g>
  <g id="_x23_dee2e9ff">
    <path class="st65" d="M0,1453.79c126-.27,252,.07,378,.03,211.01.02,422.01-.22,633.01-.15,363.33.06,726.66.12,1089.98-.01,217.01.1,434.01-.09,651.01.08v76.9c-1.36,1.88-2.83,3.66-4.39,5.36H3.15c-1.08-1.83-2.17-3.64-3.15-5.5v-76.71Z"/>
  </g>
  <g id="_x23_f8fbfcff">
    <path class="st102" d="M0,1530.5c.98,1.86,2.07,3.67,3.15,5.5H0v-5.5Z"/>
  </g>
  <g id="_x23_fefeffff">
    <path class="st99" d="M2747.61,1536c1.56-1.7,3.03-3.48,4.39-5.36v5.36h-4.39Z"/>
  </g>
  <g id="fig04_text_fill">
    <text class="st19" transform="translate(899.74 100)"><tspan x="0" y="0">Three Types of Reasoning Traces</tspan></text>
    <text class="st12" transform="translate(543.66 268)"><tspan x="0" y="0">Positive Trace</tspan></text>
    <text class="st14" transform="translate(606.32 392)"><tspan x="0" y="0">Step 1:</tspan></text>
    <text class="st18" transform="translate(545.13 439)"><tspan x="0" y="0">Understand task</tspan></text>
    <text class="st14" transform="translate(1041.32 392)"><tspan x="0" y="0">Step 2:</tspan></text>
    <text class="st18" transform="translate(969.8 439)"><tspan x="0" y="0">Correct reasoning</tspan></text>
    <text class="st14" transform="translate(1514.32 392)"><tspan x="0" y="0">Step 3:</tspan></text>
    <text class="st18" transform="translate(1468.93 439)"><tspan x="0" y="0">Validate result</tspan></text>
    <text class="st21" transform="translate(1912.83 392)"><tspan x="0" y="0">Correct</tspan></text>
    <text class="st21" transform="translate(1911.98 439)"><tspan x="0" y="0">Answer</tspan></text>
    <text class="st12" transform="translate(543.99 676)"><tspan x="0" y="0">Negative Trace</tspan></text>
    <text class="st14" transform="translate(612.32 798)"><tspan x="0" y="0">Step 1:</tspan></text>
    <text class="st18" transform="translate(566.65 845)"><tspan x="0" y="0">Plausible start</tspan></text>
    <text class="st14" transform="translate(1031.32 798)"><tspan x="0" y="0">Step 2:</tspan></text>
    <text class="st18" transform="translate(1008.91 845)"><tspan x="0" y="0">Local error</tspan></text>
    <text class="st14" transform="translate(1514.32 798)"><tspan x="0" y="0">Step 3:</tspan></text>
    <text class="st18" transform="translate(1465.22 845)"><tspan x="0" y="0">Error amplified</tspan></text>
    <text class="st21" transform="translate(1929.15 798)"><tspan x="0" y="0">Failed</tspan></text>
    <text class="st21" transform="translate(1919.98 845)"><tspan x="0" y="0">Answer</tspan></text>
    <text class="st12" transform="translate(544.94 1084)"><tspan x="0" y="0">Repair Trace</tspan></text>
    <text class="st14" transform="translate(595.32 1210)"><tspan x="0" y="0">Step 1:</tspan></text>
    <text class="st18" transform="translate(549.65 1257)"><tspan x="0" y="0">Plausible start</tspan></text>
    <text class="st14" transform="translate(1031.32 1210)"><tspan x="0" y="0">Step 2:</tspan></text>
    <text class="st18" transform="translate(998.6 1257)"><tspan x="0" y="0">Error occurs</tspan></text>
    <text class="st16" transform="translate(1421.82 1225.41)"><tspan x="0" y="0">Repair Step:</tspan></text>
    <text class="st20" transform="translate(1403.95 1261.6)"><tspan x="0" y="0">Identify and fix</tspan></text>
    <text class="st14" transform="translate(1884.32 1210)"><tspan x="0" y="0">Step 4:</tspan></text>
    <text class="st18" transform="translate(1842.1 1257)"><tspan x="0" y="0">Back on track</tspan></text>
    <text class="st22" transform="translate(2267.88 1207.08)"><tspan x="0" y="0">Recovered</tspan></text>
    <text class="st21" transform="translate(2303.95 1244.79)"><tspan x="0" y="0">Answer</tspan></text>
    <text class="st13" transform="translate(147.59 828)"><tspan x="0" y="0">Seed Task</tspan></text>
    <text class="st15" transform="translate(2388.36 692)"><tspan x="0" y="0">positive = 36</tspan></text>
    <text class="st15" transform="translate(2388.36 742)"><tspan x="0" y="0">negative = 36</tspan></text>
    <text class="st15" transform="translate(2404.31 792)"><tspan x="0" y="0">repair = 36</tspan></text>
    <text class="st17" transform="translate(2379.28 886)"><tspan x="0" y="0">Parallel supervision</tspan></text>
    <text class="st17" transform="translate(2353.28 924)"><tspan x="0" y="0">objects for PRM training</tspan></text>
    <text class="st20" transform="translate(874.7 1492)"><tspan x="0" y="0">PRM learns process quality from correct, failed, and repaired reasoning paths.</tspan></text>
  </g>
</svg>