<?xml version="1.0" encoding="UTF-8"?>
<svg id="_图层_1" data-name="图层_1" xmlns="http://www.w3.org/2000/svg" version="1.1" viewBox="0 0 1672 941">
  <!-- Generator: Adobe Illustrator 29.6.0, SVG Export Plug-In . SVG Version: 2.1.1 Build 207)  -->
  <defs>
    <style>
      .st0 {
        fill: #0b3b7a;
      }

      .st1 {
        fill: #f18211;
      }

      .st2 {
        fill: #1653a7;
      }

      .st3 {
        fill: #1350a4;
      }

      .st4 {
        fill: #f28415;
      }

      .st5 {
        fill: #1754a2;
      }

      .st6 {
        fill: #114da9;
      }

      .st7 {
        fill: #024190;
      }

      .st8 {
        fill: #164d98;
      }

      .st9 {
        fill: #0e9396;
      }

      .st10 {
        fill: #9a9ca1;
      }

      .st11 {
        fill: #f8f8fc;
      }

      .st12 {
        fill: #134d9d;
      }

      .st13 {
        fill: #96979d;
      }

      .st14 {
        fill: #1454a9;
      }

      .st15 {
        fill: #fcfcfc;
      }

      .st16 {
        fill: #c92d29;
      }

      .st17 {
        fill: #429d9f;
      }

      .st18 {
        fill: #5271a5;
      }

      .st19 {
        fill: #1050a2;
      }

      .st20 {
        fill: #1652a8;
      }

      .st21 {
        fill: #0c50ac;
      }

      .st22 {
        fill: #999b9f;
      }

      .st23 {
        fill: #0d4d9d;
      }

      .st24 {
        fill: #7a4d86;
      }

      .st25 {
        fill: #c41f19;
      }

      .st26 {
        fill: #134894;
      }

      .st27 {
        fill: #f9fafc;
      }

      .st28 {
        fill: #06489b;
      }

      .st29 {
        fill: #114995;
      }

      .st30 {
        fill: #0f4690;
      }

      .st31 {
        fill: #1f5ab0;
      }

      .st32 {
        fill: #1459bd;
      }

      .st33 {
        fill: #763fa8;
      }

      .st34 {
        fill: #7e8084;
      }

      .st35 {
        fill: #4f6fa7;
      }

      .st36 {
        fill: #734278;
      }

      .st37 {
        fill: #fdf9f7;
      }

      .st38 {
        fill: #053989;
      }

      .st39 {
        fill: #085bc7;
      }

      .st40 {
        fill: #0a3770;
      }

      .st41 {
        fill: #0e4a9d;
      }

      .st42 {
        fill: #ec8016;
      }

      .st43 {
        fill: #0d4da2;
      }

      .st44 {
        fill: #11468f;
      }

      .st45 {
        fill: #2c66ad;
      }

      .st46 {
        fill: #1356b5;
      }

      .st47 {
        fill: #fbfdfd;
      }

      .st48 {
        fill: #1158ab;
      }

      .st49 {
        fill: #1451ae;
      }

      .st50 {
        fill: #134b9b;
      }

      .st51 {
        fill: #0c4b9b;
      }

      .st52 {
        fill: #038785;
      }

      .st53 {
        fill: #fdfaf8;
      }

      .st54 {
        fill: #0d509c;
      }

      .st55 {
        fill: #754481;
      }

      .st56 {
        fill: #ce352d;
      }

      .st57 {
        fill: #fffefe;
      }

      .st58 {
        fill: #0d4ea6;
      }

      .st59 {
        fill: #094eac;
      }

      .st60 {
        fill: #043371;
      }

      .st61 {
        fill: #0647a1;
      }

      .st62 {
        fill: #1653ac;
      }

      .st63 {
        fill: #169998;
      }

      .st64 {
        fill: #2f5b9c;
      }

      .st65 {
        fill: #1054ac;
      }

      .st66 {
        fill: #fefefd;
      }

      .st67 {
        fill: #063a8b;
      }

      .st68 {
        fill: #0e52ac;
      }

      .st69 {
        fill: #124993;
      }

      .st70 {
        fill: #1155b0;
      }

      .st71 {
        fill: #0f4c9b;
      }

      .st72 {
        fill: #0e4a9a;
      }

      .st73 {
        fill: #fcfcfd;
      }

      .st74 {
        fill: #0b8d8a;
      }

      .st75 {
        fill: #1657af;
      }

      .st76 {
        fill: #723b71;
      }

      .st77 {
        fill: #fefdfc;
      }

      .st78 {
        fill: #fefeff;
      }

      .st79 {
        fill: #134997;
      }

      .st80 {
        fill: #c7dcef;
      }

      .st81 {
        fill: #fafafc;
      }

      .st82 {
        fill: #fcfcfe;
      }

      .st83 {
        fill: #743a75;
      }

      .st84 {
        fill: #055dd4;
      }

      .st85 {
        fill: #f28617;
      }

      .st86 {
        fill: #0d4392;
      }

      .st87 {
        fill: #154a96;
      }

      .st88 {
        fill: #1350a8;
      }

      .st89 {
        fill: #fdfcfd;
      }

      .st90 {
        fill: #0b4c9e;
      }

      .st91 {
        fill: #0d8285;
      }

      .st92 {
        fill: #1657ad;
      }

      .st93 {
        fill: #fefefe;
      }

      .st94 {
        fill: #054190;
      }

      .st95 {
        fill: #f1f2f3;
      }

      .st96 {
        fill: #0961d3;
      }

      .st97 {
        fill: #01347e;
      }

      .st98 {
        fill: #f8fafc;
      }

      .st99 {
        fill: #fbfafc;
      }

      .st100 {
        fill: #086ce9;
      }

      .st101 {
        fill: #104fa0;
      }

      .st102 {
        fill: #0c4d9c;
      }

      .st103 {
        fill: #fdfcfc;
      }

      .st104 {
        fill: #fcfbfc;
      }

      .st105 {
        fill: #0f4893;
      }

      .st106 {
        fill: #0c4f9e;
      }

      .st107 {
        fill: #0f8b8a;
      }

      .st108 {
        fill: #0e8889;
      }

      .st109 {
        fill: #7e437c;
      }

      .st110 {
        fill: #774885;
      }

      .st111 {
        fill: #002e75;
      }

      .st112 {
        fill: #733f7a;
      }

      .st113 {
        fill: #134a93;
      }

      .st114 {
        fill: #0d5fd3;
      }
    </style>
  </defs>
  <g id="_x23_fcfcfcff">
    <path class="st15" d="M626.09,159.01c.56-2.63,3.87-1.98,5.86-2.17,8.33.23,16.67-.27,24.99.24.06,5.24.06,10.48.52,15.71-.94.51-1.88.99-2.83,1.46-14.73.06-29.47.1-44.2.03.51-1.66,1.72-2.69,3.52-2.49,3.96-.28,7.93.22,11.88.62.14-4.46-.31-8.95.26-13.4Z"/>
    <path class="st15" d="M595.24,233.49c.67-.01,2.01-.03,2.68-.04.22,1.06.42,2.1.66,3.16-1.1.06-2.19.08-3.28.06-.04-1.07-.05-2.12-.06-3.18Z"/>
    <path class="st15" d="M536.31,314.16c.6-.43,1.21-.86,1.84-1.27,3.89,5.2,10.64,6.94,16.86,6.47,38.99-.02,77.98.06,116.97-.04,6.11-.09,12.26.49,18.34-.36-1.03,3.31-1.31,6.79-.84,10.24l-.86-.24c-5.08-1.38-10.4-.86-15.59-.92-15.69,0-31.39.3-47.07-.21-.09-2.2-.16-4.4-.23-6.59-7.34-.04-14.69-.2-22.02.16,1.98.98,3.92,2.03,5.92,2.99-.35.34-1.05,1.02-1.4,1.36,5.52-.11,11.29-.56,16.4,1.99-12.2.77-24.41.01-36.61.32-11.69.22-23.38-.26-35.06.08-5.18-.08-9.86,4.64-9.36,9.89.1,8.41-.03,16.82.09,25.23-2.01-6-1.82-12.41-1.8-18.65-3.09-.03-7.33,1.94-9.54-.99-1.06-4.45-.36-9.09-.49-13.61.18-4.9-.58-9.88.39-14.72.9-1.35,2.68-.88,4.06-1.13Z"/>
    <path class="st15" d="M1377.47,614.56c7.34-.06,14.7.02,22.05-.05l-.16.69c-1.63,3.55-1.55,7.47-1.45,11.29-6.51-.94-13.18.35-19.6-.9-3.02-2.71-.61-7.45-.84-11.03Z"/>
    <path class="st15" d="M595.04,629.06c17.21-.29,34.43-.29,51.63-.03.34,1.13.69,2.27,1.05,3.41,8.41.57,16.84.4,25.26.29,2.45-.09,4.89.31,7.25,1-6.76-.09-13.52.16-20.27-.01-12-.39-24,.36-36-.08-3.73.1-8.18-.6-11.07,2.33-2.3,1.98-2.57,5.2-2.58,8.04-.05,6.53-.18,13.07.06,19.6l.06,1.37c-1.54-1.33-3.09-2.64-4.39-4.19.41-.94.88-1.84,1.37-2.74-3.69.04-7.46.5-11.07-.39-1.74-.89-1.32-3.11-1.5-4.69.1-7.98-.07-15.95.2-23.91Z"/>
  </g>
  <g id="_x23_054190ff">
    <path class="st94" d="M269.52,186.47c7.32-8.22,18.53-12.74,29.48-12.26,43.68-.04,87.36,0,131.04,0,6.97,0,14.22-.63,20.83,2.11,15.16,5.19,25.63,20.85,25.48,36.74-.02,10.85.12,21.7-.02,32.55l-.96-.11c-.39-3.6-.55-7.22-.91-10.82-.86,4.69-.9,9.46-.45,14.19,12.7.23,25.4.29,38.09.44-.15.31-.44.94-.59,1.25-.76.02-2.27.05-3.02.07-10.66-.34-21.33-.07-31.99-.14-.39,12.5.01,25.02-.17,37.53-.44,11.36-5.57,22.65-14.76,29.55-6.49,5.5-15.1,8.01-23.52,8.03-19.84.01-39.68-.12-59.52.03-.72-.01-2.14-.02-2.86-.02-12.42-.01-24.85-.06-37.27.03-3.63,0-7.26,0-10.89.01-10.17-.17-20.35-.01-30.52-.03-5.29.09-10.45-1.37-15.35-3.25-9.06-3.96-16.28-11.71-20-20.82-2.18-5.56-2.92-11.6-2.92-17.53.15-24.02.06-48.03.1-72.04.32-9.44,4.27-18.64,10.7-25.52M269.74,191.81c-5.34,6.8-7.42,15.67-7.23,24.2.21,23.99-.1,47.99.08,71.98.07,7.9,3.48,15.16,7.7,21.65,3.17,2.87,6.26,5.91,10.08,7.91,5.93,3.44,12.86,4.66,19.64,4.66,37-.04,74,.1,111-.02,10.29-.82,20.65.82,30.94-.37,10.87-1.26,21.03-7.91,26.23-17.59,2.79-5.27,4.41-11.22,4.45-17.2.01-24.35.02-48.7-.04-73.05.26-9.42-3.23-19.07-10.04-25.68-6.32-6.68-15.35-10.62-24.55-10.62-46.67-.03-93.35.01-140.02.01-10.98-.08-21.68,5.37-28.24,14.12Z"/>
  </g>
  <g id="_x23_06489bff">
    <path class="st28" d="M544.13,176.34c5.82-3.29,12.72-1.73,19.08-2.03,6.89.04,13.79.1,20.69-.04,8.84,0,17.69-.02,26.53,0,14.73.07,29.47.03,44.2-.03,10.46-.02,20.93.05,31.4.11,7.62.02,14.29,5.88,16.31,13.06-1.03.88-2.04,1.75-3.07,2.6-1.07-6.89-7.23-12.47-14.3-12.32-44.01.01-88.02-.11-132.03.02-7.7-.33-14.95,6.41-14.57,14.22.03,35.02.07,70.04,0,105.06-.03,4.65-.45,9.92,2.83,13.7,2.94,3.96,8.07,5.3,12.81,5.04,44.01-.15,88.04.08,132.05-.11,6.34.22,11.9-4.68,13.09-10.8,1.06.85,2.12,1.7,3.19,2.58-2.01,5.46-6.24,10.13-12.02,11.55-6.08.85-12.23.27-18.34.36-38.99.1-77.98.02-116.97.04-6.22.47-12.97-1.27-16.86-6.47-2.57-3.75-3.77-8.34-3.56-12.86.12-36.34-.06-72.67.07-109.01.26-6.09,3.91-12.03,9.47-14.68Z"/>
  </g>
  <g id="_x23_038785ff">
    <path class="st52" d="M1003.31,184.54c3.98-3.58,9.33-5.44,14.67-5.31,26.01-.09,52.02.05,78.02,0,8.34.15,16.67-.94,25-.1,14.98.27,29.97-.04,44.95.14,10.31.35,18.91,9.63,19.4,19.78.18,15.59.02,31.18.08,46.76,56.84-.1,113.68-.03,170.52-.04,6.22-.25,12.44.62,18.65,0l-.09,1.17c-6.59.57-13.22-.24-19.79.59,6.37,1.46,12.92.63,19.39.99-6.63.31-13.35-.42-19.85,1.27-50.09.28-100.19.08-150.28.11-6.19.09-12.37.15-18.55-.13,0,.24.02.72.02.96.03,15.44.02,30.87.01,46.31-.04,8.01-4.29,16.31-11.77,19.74-6.7,3.53-14.44,2.44-21.7,2.62-44.67.05-89.33-.02-134,.04-9.93.03-19.64-7.4-21.12-17.42-.91-6.51-.28-13.12-.41-19.67.02-10.12.05-20.23.02-30.34-.02-12.1-.03-24.19-.02-36.28.48-8.95-1.65-18.65,3.07-26.83,1.02-1.63,2.35-3.06,3.78-4.35M1011.58,183.84c-4.79,1.72-8.67,5.59-10.31,10.41-1.67,5.07-1.31,10.52-1.4,15.79.16,28.99-.07,57.94.09,86.93-.47,9.54,7.38,18.71,17.14,18.67,46.29.09,92.59-.01,138.88.04,4.95-.08,10.21.65,14.85-1.55,6.76-2.73,11.24-9.9,10.84-17.17-.04-32.67.16-65.34-.06-98.01-.11-9.19-8.71-16.33-17.59-16.34-46.99-.06-93.98-.04-140.97-.03-3.86-.06-7.83-.22-11.47,1.26Z"/>
  </g>
  <g id="_x23_0b3b7aff">
    <path class="st0" d="M836.45,188.87c2.93-3.49,7.24-5.08,11.75-4.57,2.77,1.44,5.05,3.6,7.2,5.82,6.55,6.54,13.21,12.98,19.73,19.56,4.69,4.41,9.21,9.01,13.74,13.59,7.09,6.92,14.3,13.74,21.09,20.95.14.37.43,1.1.57,1.46.15,1.6.26,3.2.34,4.81-1.19,2.44-2.86,4.59-4.77,6.49-8.85,8.54-17.45,17.32-26.18,25.98-1.28,1.24-2.53,2.5-3.75,3.79-6.15,6.32-12.66,12.27-18.72,18.67-2.56,2.42-4.89,5.15-7.87,7.06-.45.24-1.33.73-1.78.97-.29.13-.86.38-1.15.5-1.25-.16-2.51-.37-3.72-.56-1.25-.46-2.37-1.2-3.36-2.05-7.93-7.69-15.73-15.53-23.58-23.3-1.1-1.08-2.21-2.12-3.3-3.18-7.58-7.59-15.3-15.03-22.79-22.71-2.83-2.87-6-5.42-8.56-8.54-2.78-3.54-1.96-8.91,1.47-11.73,17.79-17.75,35.87-35.23,53.64-53.01M843.2,188.29c-4.6,3.25-8.29,7.66-12.49,11.41-15.21,15.16-30.66,30.09-45.81,45.32-1.51,1.49-2.24,4.04-.95,5.9,1.42,2,3.29,3.62,5.03,5.35,15.57,15.36,31.11,30.76,46.68,46.12,2.72,2.45,4.84,5.89,8.38,7.24,4.15,1.18,6.77-2.8,9.28-5.33,17.16-17.2,34.37-34.34,51.6-51.47,1.82-1.67,3.54-4.49,1.77-6.81-3.21-4.01-7.37-7.15-10.93-10.83-14.95-15.05-30.4-29.58-45.24-44.73-1.8-1.91-4.74-3.71-7.32-2.17Z"/>
  </g>
  <g id="_x23_024190ff">
    <path class="st7" d="M699.27,190.02c1.03-.85,2.04-1.72,3.07-2.6,1.08,14.5-.19,29.09.76,43.6-.19,4.89-.43,9.78-.39,14.67,13.77.36,27.56-.4,41.32.53,3.56.23,7.18-.92,10.69.08.01.35.05,1.06.07,1.42-13.28-.31-26.54.41-39.8.26-3.84-.08-7.75.33-11.51-.55-1.11-1.34-1.91-2.89-2.83-4.35.34,2.58.73,5.17,1.58,7.65.15.55.45,1.64.6,2.19-.1,15.04-.11,30.08-.05,45.13.05,3.12-.05,6.25-.44,9.36-1.07-.88-2.13-1.73-3.19-2.58.38-10.92.05-21.86.15-32.79-.05-27.34.14-54.68-.03-82.02Z"/>
  </g>
  <g id="_x23_fefeffff">
    <path class="st78" d="M843.2,188.29c2.58-1.54,5.52.26,7.32,2.17,14.84,15.15,30.29,29.68,45.24,44.73,3.56,3.68,7.72,6.82,10.93,10.83,1.77,2.32.05,5.14-1.77,6.81-17.23,17.13-34.44,34.27-51.6,51.47-2.51,2.53-5.13,6.51-9.28,5.33-3.54-1.35-5.66-4.79-8.38-7.24-15.57-15.36-31.11-30.76-46.68-46.12-1.74-1.73-3.61-3.35-5.03-5.35-1.29-1.86-.56-4.41.95-5.9,15.15-15.23,30.6-30.16,45.81-45.32,4.2-3.75,7.89-8.16,12.49-11.41Z"/>
  </g>
  <g id="_x23_114995ff">
    <path class="st29" d="M600.46,189.93c3.57,2.06,6.71,5.69,6.36,10.07.09,3.91-2.86,6.9-5.65,9.23-.21,9.24.26,18.5-.11,27.72-.55,2.96-3.8,3.58-6.31,3.7-1.35-1.64-2.99-3.33-2.85-5.63-.21-8.51.67-17.02-.12-25.53-2.93-2.3-5.85-5.39-5.63-9.4-.44-4.32,2.41-8.1,6.14-9.94.48,3.66-2.07,8.51,1.79,10.99,1.72.27,3.48.23,5.24.32,2.73-3.3.62-7.69,1.14-11.53M595.24,233.49c.01,1.06.02,2.11.06,3.18,1.09.02,2.18,0,3.28-.06-.24-1.06-.44-2.1-.66-3.16-.67.01-2.01.03-2.68.04Z"/>
  </g>
  <g id="_x23_063a8bff">
    <path class="st67" d="M609.85,194.75c10.72-.58,21.48.05,32.22-.27,3.18-.48,6.36,2.31,6.2,5.54.04,11.67.04,23.34-.02,35.01.15,1.98-1.65,3.19-2.78,4.53-1.38-.29-2.75-.57-4.12-.83,1.15-.73,2.32-1.44,3.48-2.18.77-1.34.43-3.03.58-4.51.02-8.55-.17-17.09-.02-25.64-12.09-.13-24.19.2-36.27-.21.33-.44.98-1.34,1.31-1.78,11.64-.93,23.36-.52,35.03-.57,0-2.56.16-5.3-1.76-7.28-8.88.1-17.76-.03-26.63.14-2.5,0-5.04.22-7.48-.4l.26-1.55Z"/>
  </g>
  <g id="_x23_0f4893ff">
    <path class="st105" d="M352.65,196.46c1.59-.09,3.18-.17,4.78-.23.29,2.73,1.82,4.7,4.56,5.34,1-.78,2.02-1.55,3.04-2.32,1.03,1.17,2.2,2.27,2.92,3.67-.58.88-1.2,1.73-1.84,2.56.52,1.28,1.07,2.57,1.63,3.85.72,0,2.15-.02,2.87-.03.03.36.08,1.07.1,1.42.08,1.12.16,2.25.24,3.37-1.79.86-4.16,1.54-4.51,3.84.39,1.39.92,2.73,1.44,4.08-.98.96-1.99,1.89-2.99,2.82-1.12-.92-2.27-1.8-3.45-2.62-2.28.98-3.55,2.83-3.79,5.3-1.62.05-3.24.09-4.84.23-.1-.94-.31-2.84-.41-3.78-1.1-.47-2.19-.95-3.28-1.42-1.05.76-2.11,1.52-3.16,2.29-1-.95-2.03-1.84-2.91-2.89,1.02-2.35,1.97-4.75.15-7-1.15-.19-2.3-.37-3.44-.55-.02-1.61-.03-3.23-.05-4.84,1.17-.14,2.34-.28,3.51-.4.55-1.1,1.12-2.19,1.72-3.26-.9-.98-1.79-1.96-2.67-2.95,1.19-1.25,2.42-2.47,3.66-3.67,1.04.79,2.07,1.6,3.1,2.42,1.2-.61,2.41-1.2,3.63-1.79,0-.86,0-2.58-.01-3.44M353.12,205.26c-4.5,1.55-6.57,8.03-2.78,11.38,3.39,4,10.28,2.19,11.74-2.7,2.22-5.2-3.97-10.81-8.96-8.68Z"/>
  </g>
  <g id="_x23_0b8d8aff">
    <path class="st74" d="M1087.02,196.99c12.49-2.31,25.43,8.3,25.52,21.01.74,11.91-9.58,23.15-21.51,23.32-11.5.22-22.78-9.5-22.68-21.31-.61-10.94,7.8-21.44,18.67-23.02M1084.43,201.59c-7.26,2.39-12.56,9.72-12.37,17.39-.35,8.04,5.43,15.74,13.18,17.82,10.81,3.56,23.39-5.41,23.52-16.77.51-5.33-1.75-10.58-5.41-14.36-4.91-4.67-12.52-6.43-18.92-4.08Z"/>
  </g>
  <g id="_x23_4f6fa7ff">
    <path class="st35" d="M614.56,202.7c-2.08.35-4.91-1.97-2.52-3.61,1.93-2.22,1.82,2.73,2.52,3.61Z"/>
  </g>
  <g id="_x23_5271a5ff">
    <path class="st18" d="M616.48,199.49c1.88-2.72,2.78,1.02,2.87,2.66-2.16.74-3.91-.44-2.87-2.66Z"/>
  </g>
  <g id="_x23_fbfdfdff">
    <path class="st47" d="M1084.43,201.59c6.4-2.35,14.01-.59,18.92,4.08,3.66,3.78,5.92,9.03,5.41,14.36-.13,11.36-12.71,20.33-23.52,16.77-7.75-2.08-13.53-9.78-13.18-17.82-.19-7.67,5.11-15,12.37-17.39M1087.72,223.15c-2.27-1.98-4.49-3.99-6.78-5.93-.7.89-1.34,1.8-1.94,2.74,2.71,2.85,5.25,6.14,8.73,8.07,3.05-2.37,5.34-5.53,8.04-8.27,2.03-2.21,4.39-4.15,6.09-6.66-.59-.98-1.2-1.93-1.84-2.86-4.51,3.9-8.27,8.54-12.3,12.91Z"/>
  </g>
  <g id="_x23_0a3770ff">
    <path class="st40" d="M62.93,206.45c4.17-1.77,8.59-2.92,13.09-3.35,26.63-.58,53.31-.12,79.96-.28,8.44.16,16.81,2.76,23.75,7.6-.93.83-1.86,1.66-2.79,2.49-5.95-3.77-12.89-6.17-19.98-6.26-24.98,0-49.96.1-74.94-.07-10.51-.38-21.22,3.56-28.76,10.93-1.17-.6-2.34-1.19-3.5-1.78,3.83-3.81,8.32-6.92,13.17-9.28Z"/>
  </g>
  <g id="_x23_086ce9ff">
    <path class="st100" d="M1417.92,210.87c5.45-4.18,12.08-6.36,18.75-7.68,10.05-.87,20.19-.16,30.29-.36,32.35-.03,64.7.04,97.05-.03,9.8.07,20-.77,29.31,2.96,14.21,5.67,24.27,19.7,25.8,34.86.25,7.45-.01,14.92.07,22.38.05,6.64-1.16,13.29-3.84,19.39-3.94,8.97-11.6,16.23-20.59,20.08-7.41,3.46-15.69,3.47-23.68,3.23-21.82-.02-43.64.08-65.46-.03-21.53.05-43.05.1-64.57-.03-9-.05-18.06-2.99-25.06-8.71-8.51-6.59-13.51-16.97-14.8-27.51-.69-8.8-.45-17.65-.25-26.46.52-12.53,6.99-24.57,16.98-32.09M1437.05,207.1c-10.93,1.23-20.95,7.92-26.57,17.33-4.48,6.96-5.93,15.4-5.72,23.56.3,8.69-.63,17.48,1.12,26.06,3.22,15.24,17.54,27.26,33.12,27.77,13.98.2,27.99-.28,41.97.31,20.02-.36,40.06-.52,60.08.01,8.98-.24,17.96-.39,26.95-.29,7.62-.14,15.51.74,22.83-1.91,8.62-3.19,16.26-9.4,20.31-17.75,3.6-6.78,4.64-14.58,4.26-22.16-.42-10.17,1.44-20.9-2.97-30.46-5.3-12.99-18.38-22.48-32.48-22.87-37.97,0-75.95,0-113.92.01-9.66.19-19.36-.4-28.98.39Z"/>
  </g>
  <g id="_x23_0f4690ff">
    <path class="st30" d="M371.42,203.65c5.06.49,10.42,2.29,13.38,6.71,2.4,3.01,2.45,6.99,3.43,10.54,1.24,2.79,2.96,5.34,4.17,8.16-1.44.79-2.9,1.55-4.37,2.27-.76,3.24.68,8.04-3.09,9.75-2.18.33-4.39.22-6.58.29-.05,1.69-.09,3.38-.12,5.07-6.9.11-13.79.17-20.69.09.71-5.03,1.84-10.57-1.46-14.98.1-1.71,1.69-1.74,3.05-1.81,2.62,4.14,2.11,9.28,2.16,13.96,4.43-.06,8.86-.04,13.3-.02,0-2.09,0-4.17.05-6.24,3.02-.12,6.05-.2,9.08-.21.32-3.1.56-6.2.7-9.31.74-.07,2.22-.22,2.96-.29-1.65-3.04-2.97-6.26-3.39-9.71-.58-4.42-3.53-8.44-7.79-9.94-2.55-.39-4.9-1.28-4.79-4.33M358.51,246.07c6.21.42,12.42-.13,18.6-.68-5.62-.45-11.25-.52-16.88-.6-.02-3.36-.16-6.73-.64-10.05-.54,3.76-.78,7.55-1.08,11.33Z"/>
  </g>
  <g id="_x23_f9fafcff">
    <path class="st27" d="M353.12,205.26c4.99-2.13,11.18,3.48,8.96,8.68-1.46,4.89-8.35,6.7-11.74,2.7-3.79-3.35-1.72-9.83,2.78-11.38Z"/>
  </g>
  <g id="_x23_fafafcff">
    <path class="st81" d="M376.21,207.98c4.26,1.5,7.21,5.52,7.79,9.94.42,3.45,1.74,6.67,3.39,9.71-.74.07-2.22.22-2.96.29-.14,3.11-.38,6.21-.7,9.31-3.03.01-6.06.09-9.08.21-.04,2.07-.05,4.15-.05,6.24-4.44-.02-8.87-.04-13.3.02-.05-4.68.46-9.82-2.16-13.96-1.36.07-2.95.1-3.05,1.81-.62-.69-1.24-1.38-1.86-2.05-.9-.04-1.78-.08-2.67-.13.31-.41.94-1.22,1.25-1.63,1.6-.14,3.22-.18,4.84-.23.24-2.47,1.51-4.32,3.79-5.3,1.18.82,2.33,1.7,3.45,2.62,1-.93,2.01-1.86,2.99-2.82-.52-1.35-1.05-2.69-1.44-4.08.35-2.3,2.72-2.98,4.51-3.84-.08-1.12-.16-2.25-.24-3.37,1.81-.96,3.64-1.87,5.5-2.74Z"/>
  </g>
  <g id="_x23_043371ff">
    <path class="st60" d="M179.73,210.42c2.27,1.56,4.35,3.37,6.31,5.3,1.57,1.59,3.07,3.27,4.37,5.1,5.07,7.32,7.89,16.07,8.16,24.98,12.41.06,24.83-.07,37.25-.03-.05.44-.13,1.31-.17,1.75-12.24.22-24.5-.16-36.71.96,12.38.9,24.78.6,37.17,1.05-7.8.55-15.64.03-23.42.91-4.75.22-9.51.12-14.26.1-.76,13.41-8.09,26.22-19.31,33.6-6.68,3.94-14.24,7-22.13,6.7-5.47.02-10.94-.09-16.41.09-15.52-.14-31.05,0-46.57-.06-10.49-.09-21.44,1.01-31.26-3.56-3.61-1.52-7.01-3.59-9.96-6.17-11.35-9.6-16.91-24.9-15.19-39.58,1.29-8.63,4.61-17.07,10.27-23.77.61-.71,1.24-1.4,1.89-2.06,1.16.59,2.33,1.18,3.5,1.78-11.37,11.12-15.18,29.17-9.49,44,3.61,10.58,12.02,19.44,22.57,23.25,7.83,3.1,16.39,2.28,24.62,2.34,20.35.06,40.7-.01,61.05.06,4.42.02,8.88-.09,13.22-1.01,9.31-2.13,17.53-8.23,22.83-16.1,6.43-9.19,8.05-21.15,5.9-32.01-1.88-10.26-8.49-19.3-17.02-25.13.93-.83,1.86-1.66,2.79-2.49Z"/>
  </g>
  <g id="_x23_053989ff">
    <path class="st38" d="M626.99,211.08c.51.58,2.31.7,1.73,1.81-2.15,6.27-4.13,12.73-7.46,18.49l-1.71-.38c2.03-6.79,4.65-13.41,7.44-19.92Z"/>
  </g>
  <g id="_x23_0f8b8aff">
    <path class="st107" d="M1087.72,223.15c4.03-4.37,7.79-9.01,12.3-12.91.64.93,1.25,1.88,1.84,2.86-1.7,2.51-4.06,4.45-6.09,6.66-2.7,2.74-4.99,5.9-8.04,8.27-3.48-1.93-6.02-5.22-8.73-8.07.6-.94,1.24-1.85,1.94-2.74,2.29,1.94,4.51,3.95,6.78,5.93Z"/>
  </g>
  <g id="_x23_0d4392ff">
    <path class="st86" d="M616.43,215.33c.78.3,1.56.63,2.32,1-1.77,1.9-3.64,3.69-5.52,5.47,1.41,1.84,7.44,4.78,3.7,6.7-3.06-1.61-5.33-4.32-7.94-6.52,2.38-2.31,4.7-4.75,7.44-6.65Z"/>
  </g>
  <g id="_x23_2f5b9cff">
    <path class="st64" d="M630.64,217.25c.31-.62.94-1.87,1.26-2.5,2.65,2.4,5.32,4.78,7.89,7.26-2.38,2.3-4.77,4.61-7.32,6.72-.83-.44-1.63-.92-2.39-1.44,1.91-1.78,3.87-3.51,5.81-5.26-1.81-1.54-3.74-2.95-5.25-4.78Z"/>
  </g>
  <g id="_x23_fefefeff">
    <path class="st93" d="M190.41,220.82c2.72-1.16,5.6-2.04,8.59-1.94,6.63.03,13.27.07,19.91.21.27,5.77-.24,11.57.66,17.3.38,2.18-.15,4.35-.67,6.46-6.33.48-12.71-.28-19.01.7,11.94,1.08,23.96-.18,35.91.52,0,.42,0,1.27.02,1.7-12.42-.04-24.84.09-37.25.03-.27-8.91-3.09-17.66-8.16-24.98Z"/>
    <path class="st93" d="M940.3,219.33c9.84-1.49,19.72.42,29.56.87.3,5.24-.77,11.02,2.52,15.56-.66.25-1.3.51-1.92.77.21.5.63,1.51.84,2.01.23,2.41.25,4.84.33,7.27-20.37-.07-40.74.04-61.1-.13,9.55-1.53,19.28-1.89,28.96-1.78-.85-6.61-.53-13.29-.63-19.94.16-1.58-.25-3.72,1.44-4.63Z"/>
  </g>
  <g id="_x23_fcfcfdff">
    <path class="st73" d="M888.87,223.27c1.16-1.53,1.76-4.28,4.11-4.24,4.58-.32,9.25-.49,13.82.17,1.26.84,1.18,2.46,1.33,3.8.31,5.01-.32,10.03.08,15.04.15,2.02,1.72,3.5,2.77,5.13-.26.26-.77.79-1.02,1.05-6.79-7.21-14-14.03-21.09-20.95Z"/>
    <path class="st73" d="M35.55,256.16c.59-5.54-.24-11.18,1.04-16.65.25.51.76,1.54,1.01,2.05-1.72,14.68,3.84,29.98,15.19,39.58-6.73,1.98-13.86.72-20.76.8-.25-8.32.05-16.64-.21-24.95.09-2.31-.64-5.69,2.4-6.32.39,1.84.8,3.68,1.33,5.49Z"/>
    <path class="st73" d="M1571.08,305.7c7.99.24,16.27.23,23.68-3.23.4.17,1.19.52,1.59.69.11,3.28-.37,6.55-.55,9.83-10.17.15-20.35.27-30.5-.13-.24-1.52-.45-3.03-.64-4.54-4.25-.09-8.47-.56-12.67-1.07-5.89-.75-11.71.8-17.56,1.14-.28,1.43-.55,2.87-.79,4.3-4.14.7-8.34,1.84-12.54,1.03-2.88-.55-5.82-.63-8.65.15-1.11-2.08-2.21-4.15-3.33-6.21-1.19-.66-2.36-1.33-3.5-1.99,21.82.11,43.64,0,65.46.03Z"/>
    <path class="st73" d="M1439.97,307.16c10.52-.32,21.06.03,31.6-.09-.29,1.94-.56,3.87-.81,5.81-10.24.26-20.49.43-30.72-.01-.04-1.9-.07-3.81-.07-5.71Z"/>
    <path class="st73" d="M1119.37,751.49c2.41.23,4.82.47,7.25.73.5,2.51,1.04,5.03,1.6,7.54,2.85.08,5.94-.25,8.38,1.58-2.45.05-4.88.09-7.3.23l-1.11.06c-1.7,6.96-.55,14.14-1.37,21.17-10.19.63-20.46.34-30.67.06-.32-5.52-.26-11.04-.29-16.56-4.89.69-9.88,1.44-14.79.62-2.54-.55-2.56-3.82-2.04-5.81.5-2.95,4.53-1.84,6.71-2.6,2.84-2.35,6.3-1.69,9.3-.03.43-2.13.91-4.25,1.35-6.37,4.12-.14,8.31-.72,12.42,0,.86.83,1.53,1.83,2.26,2.8-4.32,2.94-8.92,5.46-13.07,8.66,5.83,5.06,13.22,7.91,19.48,12.42-.54-3.46-1.04-6.91-1.41-10.37,2.08-.05,4.2-.06,6.31-.07-.06-1.27-.1-2.53-.13-3.77-2.12-.05-4.22-.09-6.31-.14.45-2.85.99-5.67,1.53-8.49.47-.42,1.42-1.25,1.9-1.66M1080.39,761.31c.02,1.31.08,2.64.12,3.97,4.25.04,8.5.12,12.76.22-.01-.95-.03-2.86-.03-3.82-4.29-.12-8.57-.25-12.85-.37Z"/>
  </g>
  <g id="_x23_0961d3ff">
    <path class="st96" d="M1501.07,223.25c1.59-1.88,3.01-4.96,5.98-4.55,2.58,0,3.6,2.64,4.76,4.48.64.12,1.93.35,2.57.47.05,1.53.11,3.07.19,4.6-5.26-.15-10.54.3-15.78-.21-.29-1.46-.38-2.94-.49-4.41.69-.1,2.08-.28,2.77-.38M1505.36,222.17c-1.25,1.53,1.52,2.84,2.5,1.51,1.21-1.53-1.57-2.88-2.5-1.51Z"/>
  </g>
  <g id="_x23_c7dcefff">
    <path class="st80" d="M1505.36,222.17c.93-1.37,3.71-.02,2.5,1.51-.98,1.33-3.75.02-2.5-1.51Z"/>
  </g>
  <g id="_x23_0d5fd3ff">
    <path class="st114" d="M1491,228.01c.15-2.94,3.41-2.88,5.58-3.16.3,1.81.09,3.85,1.34,5.37,5.81.57,11.67-.07,17.51.22.86-1.78,1.24-3.74,1.96-5.58,3.14-.7,6.17,1.88,5.76,5.12-.07,8.35.41,16.74-.43,25.06.05,2.97-3.51,3.25-5.7,3.22-7.36-.12-14.72.08-22.07.02-2.3.12-4.34-1.95-4.09-4.25-.07-8.67-.31-17.37.14-26.02M1504.88,245.9c-2.38-.58-3.71-3.23-5.53-4.74-.83.81-1.65,1.64-2.42,2.48,2.65,2.58,5.28,5.19,7.99,7.72,4.29-4.24,8.53-8.6,12.17-13.41-.32-1.06-1.01-1.69-2.06-1.88-3.98,2.62-6.54,6.8-10.15,9.83Z"/>
  </g>
  <g id="_x23_01347eff">
    <path class="st97" d="M358.51,246.07c.3-3.78.54-7.57,1.08-11.33.48,3.32.62,6.69.64,10.05,5.63.08,11.26.15,16.88.6-6.18.55-12.39,1.1-18.6.68Z"/>
  </g>
  <g id="_x23_134894ff">
    <path class="st26" d="M474.01,248.88c-.45-4.73-.41-9.5.45-14.19.36,3.6.52,7.22.91,10.82l.96.11c11.68.18,23.38.21,35.06.06-.09-3.02-.15-6.05-.18-9.07,6.58,3.72,13.36,7.11,19.68,11.29-.56,1.09-1.73,1.63-2.69,2.29-5.67,3.3-11.31,6.65-17.03,9.86.03-3.16-.28-6.37.34-9.48.15-.31.44-.94.59-1.25-12.69-.15-25.39-.21-38.09-.44Z"/>
  </g>
  <g id="_x23_0e8889ff">
    <path class="st108" d="M1374.57,234.98c.62.36,1.86,1.07,2.48,1.43,6.9,3.92,13.82,7.8,20.79,11.6-1.2.69-2.41,1.43-3.55,2.17-6.54,3.87-13.09,7.72-19.64,11.55.01-3.67.02-7.35-.01-11.02v-.51c-6.8.13-13.61.28-20.38-.42,6.5-1.69,13.22-.96,19.85-1.27-6.47-.36-13.02.47-19.39-.99,6.57-.83,13.2-.02,19.79-.59l.09-1.17c.16-3.59-.03-7.19-.03-10.78Z"/>
  </g>
  <g id="_x23_f8f8fcff">
    <path class="st11" d="M1504.88,245.9c3.61-3.03,6.17-7.21,10.15-9.83,1.05.19,1.74.82,2.06,1.88-3.64,4.81-7.88,9.17-12.17,13.41-2.71-2.53-5.34-5.14-7.99-7.72.77-.84,1.59-1.67,2.42-2.48,1.82,1.51,3.15,4.16,5.53,4.74Z"/>
  </g>
  <g id="_x23_134997ff">
    <path class="st79" d="M235.64,236.35c6.64,3.99,13.59,7.46,20.1,11.67-6.39,4.45-13.34,8.13-20.11,11.99,0-3.16.12-6.32.23-9.48-7.73-.08-15.45.13-23.17-.09,7.78-.88,15.62-.36,23.42-.91-12.39-.45-24.79-.15-37.17-1.05,12.21-1.12,24.47-.74,36.71-.96.04-.44.12-1.31.17-1.75-.01-.43-.01-1.28-.02-1.7-.06-2.57-.12-5.15-.16-7.72Z"/>
  </g>
  <g id="_x23_002e75ff">
    <path class="st111" d="M605.55,237.44c11.46-.47,22.96-.08,34.43-.2,1.63-.03,3.24-.4,4.85-.69-1.16.74-2.33,1.45-3.48,2.18,1.37.26,2.74.54,4.12.83-13.78-.16-27.56.34-41.33-.26.35-.47,1.06-1.39,1.41-1.86Z"/>
  </g>
  <g id="_x23_154a96ff">
    <path class="st87" d="M754.56,236.31c6.56,4.24,13.84,7.36,20.02,12.18-6.79,3.78-13.46,7.77-20.24,11.55.08-3.15.23-6.3.34-9.45-17.48-.11-34.98-.18-52.45.14-.85-2.48-1.24-5.07-1.58-7.65.92,1.46,1.72,3.01,2.83,4.35,3.76.88,7.67.47,11.51.55,13.26.15,26.52-.57,39.8-.26-.02-.36-.06-1.07-.07-1.42-.08-3.33-.07-6.66-.16-9.99Z"/>
  </g>
  <g id="_x23_0d8285ff">
    <path class="st91" d="M971.19,237.29c.51-.05,1.54-.16,2.05-.22l-.03.64c-.13,2.09-.23,4.18-.31,6.27,1.51.53,3.07.94,4.5,1.73,2.14,2.39,3.64,5.28,5.57,7.84-3.33,1.92-6.76,3.68-10.03,5.71l-1.52.93c-.04-3.2.03-6.4.1-9.6-2.32,0-4.63,0-6.94.01-17.9-.2-35.81.02-53.71-.11-.08-1.61-.19-3.21-.34-4.81,20.36.17,40.73.06,61.1.13-.08-2.43-.1-4.86-.33-7.27l-.11-1.25M925.97,248.48c6.94.93,13.96.54,20.94.55,6.08-.14,12.18.16,18.24-.59-6.03-.82-12.12-.61-18.17-.67-7.01,0-14.04-.15-21.01.71Z"/>
  </g>
  <g id="_x23_0e9396ff">
    <path class="st9" d="M973.21,237.71c6.58,3.01,12.69,6.93,19.07,10.33-.63.39-1.91,1.17-2.54,1.56-2.24,1.36-4.51,2.64-6.77,3.95-1.93-2.56-3.43-5.45-5.57-7.84-1.43-.79-2.99-1.2-4.5-1.73.08-2.09.18-4.18.31-6.27Z"/>
  </g>
  <g id="_x23_fcfcfeff">
    <path class="st82" d="M1619.12,240.62c1.65,2.97.57,6.56,1.65,9.64,2.23.88,4.73.72,7.11.98.46,8.24.12,16.5.32,24.76-.26,1.84.4,4.48-1.47,5.62-3.67,1.22-7.59.79-11.38.77,2.68-6.1,3.89-12.75,3.84-19.39-.08-7.46.18-14.93-.07-22.38Z"/>
  </g>
  <g id="_x23_169998ff">
    <path class="st63" d="M925.97,248.48c6.97-.86,14-.71,21.01-.71,6.05.06,12.14-.15,18.17.67-6.06.75-12.16.45-18.24.59-6.98,0-14,.38-20.94-.55Z"/>
  </g>
  <g id="_x23_429d9fff">
    <path class="st17" d="M1185.43,249.76c6.18.28,12.36.22,18.55.13,50.09-.03,100.19.17,150.28-.11,6.77.7,13.58.55,20.38.42v.51c-63.06-.04-126.13-.02-189.19,0,0-.24-.01-.72-.02-.96Z"/>
  </g>
  <g id="_x23_fefefdff">
    <path class="st66" d="M0,282.03c10.28-.12,20.57-.26,30.85.05.28,10.27.25,20.56.08,30.84-10.31.26-20.62.18-30.93,0v-30.89Z"/>
  </g>
  <g id="_x23_055dd4ff">
    <path class="st84" d="M1495.73,331.67c4.17-8.17,9.24-15.83,13.39-24.01,1.12,2.06,2.22,4.13,3.33,6.21,3.23,5.9,6.22,11.94,9.49,17.82-3.52,0-7.03-.01-10.53-.11-.6,24.12-.05,48.26-.22,72.39-.08,30.68.06,61.35-.04,92.03-.04,12.16.4,24.35-.35,36.49-.05.3-.17.91-.23,1.21-1.17,4.95-3.64,9.56-7.28,13.14-1.23-1.08-2.42-2.13-3.61-3.18,8.64-7.49,6.42-19.82,6.45-29.95.33-56.16.07-112.34.12-168.51-.02-4.49.13-8.98.1-13.47-3.55-.05-7.09-.09-10.62-.06Z"/>
  </g>
  <g id="_x23_763fa8ff">
    <path class="st33" d="M842.93,313.39c1.21.19,2.47.4,3.72.56.29-.12.86-.37,1.15-.5-.02,10.36.01,20.72.11,31.08-.02,7.2.34,14.62-2.25,21.49-4.91,15.66-20.24,27.3-36.63,27.76-38.68-.04-77.35.08-116.02.02-8.17-.34-16.7.32-24.1,4.08-8.45,4.51-15.14,12.67-17.04,22.15-1.7,8.38-.56,16.95-.69,25.42,3.36-.06,6.73-.07,10.09-.04-3.97,8.17-8.54,16.05-13.17,23.87-4.49-7.82-8.67-15.81-12.81-23.81,3.58.01,7.16.03,10.75.06.14-4.02.12-8.03.05-12.04.09-4.83-.28-9.73.82-14.48.84-4.04,2.79-7.73,4.78-11.31,6.37-10.85,18.46-18.62,31.23-18.42,41.69-.28,83.39.07,125.09-.13,9.85-.29,19.51-4.69,25.97-12.17,7.73-8.51,9.78-20.49,9.15-31.63-.28-10.65-.11-21.3-.2-31.96Z"/>
  </g>
  <g id="_x23_999b9fff">
    <path class="st22" d="M543.6,338.03c-.5-5.25,4.18-9.97,9.36-9.89,11.68-.34,23.37.14,35.06-.08,12.2-.31,24.41.45,36.61-.32.33.02,1,.06,1.33.09,15.68.51,31.38.21,47.07.21,5.19.06,10.51-.46,15.59.92,2.02,1.48,3.87,3.57,4.46,6.03l-1.22,1.76c-.83-3.64-3.65-7.1-7.74-6.64-41.7-.07-83.4.03-125.1-.07-3.72.19-8.09-.85-11.2,1.74-2.54,1.89-2.09,5.39-2.26,8.18.09,7.34-.2,14.7.3,22.03.02,2.53,2.25,4.07,3.74,5.82l1.11,1.26c-1.13-.25-2.24-.52-3.35-.81-1.41-1.52-2.71-3.17-3.67-5-.12-8.41.01-16.82-.09-25.23Z"/>
    <path class="st22" d="M981.55,676.1c.98-3.66,4.59-6.55,8.46-6.2,34.31-.11,68.63,0,102.94-.1,3.82-.31,6.57,2.91,8.3,5.91-.09,7.77.19,15.56-.12,23.33-.05,3.37-3.06,5.45-5.7,6.93-13.95.4-27.91-.07-41.86.2-2.05-.07-4.09-.06-6.12.02-15.6-.22-31.2.02-46.8-.05-4.2-.2-8.42.25-12.6-.24-3.68-.63-6.58-4.11-6.47-7.85-.26-7.31-.38-14.65-.03-21.95M986.45,672.58c-2.98,1.65-3.51,5.29-3.3,8.38.26,6-.35,12.03.18,18.02.49,3.6,4.27,5.6,7.66,5.32,33.32-.05,66.65.01,99.98.03,3.16.25,7.07-.83,7.91-4.32.93-6.95.27-14,.31-20.99.26-3.16-1.66-6.87-5.1-7.13-5.03-.41-10.08-.19-15.11-.3-29,.17-58.01,0-87.01.07-1.86.1-3.84.04-5.52.92Z"/>
  </g>
  <g id="_x23_7e8084ff">
    <path class="st34" d="M691.86,336.75l1.22-1.76c.62,8.31.1,16.66.31,24.99.38,4.12-2.48,7.74-6.07,9.39-41.78.11-83.57-.03-125.36.07-3.75.01-7.53.15-11.25-.37l-1.11-1.26c40.46.12,80.93.02,121.39.02,5-.04,10.01.4,15-.1,2.93-.3,5.41-2.92,5.52-5.87.5-8.36-.28-16.76.35-25.11Z"/>
  </g>
  <g id="_x23_f28415ff">
    <path class="st4" d="M963.45,469.95c-.02-8.69,8.07-15.76,16.54-15.71,41.35,0,82.72-.09,124.07.1,6.08-.13,11.92,3.66,14.35,9.22,2.61,5.07,1.8,10.92,1.95,16.41.01,23.01.08,46.03-.01,69.05-.07,1.41-.06,2.85-.04,4.29.13,14.21-.03,28.43.05,42.65.01,9.26.04,18.52.07,27.78-.15,6.76,0,13.52-.07,20.28.04,4.38-1.48,8.67-4.1,12.17-3.47,4.09-8.91,6.25-14.22,6.19-40,.06-79.99-.02-119.99,0-4.37.22-8.68-1.17-12.21-3.7-.2-.12-.59-.36-.78-.48-3.65-3.76-5.71-8.99-5.64-14.22-.05-26.66-.04-53.31.02-79.96.08-4.41.05-8.81-.03-13.21-.48.24-1.44.74-1.92.99l-.03-.7c-.04-.58-.04-1.16-.01-1.73.5-.07,1.51-.21,2.01-.29-.05-26.37-.17-52.75-.01-79.13M977.07,458.02c-6.21,1.47-10.32,7.77-10.32,13.97-.01,56.67-.01,113.34,0,170.01.1,4.78,1.12,10,4.9,13.29,3.04,2.82,7.29,3.74,11.33,3.47,40.02.05,80.04-.04,120.06.01,7.31.13,13.64-6.64,13.6-13.82-.02-58.29.02-116.58,0-174.87-.25-7.35-7.5-12.76-14.56-12.43-32.37-.06-64.74-.06-97.11-.04-9.29.19-18.65-.43-27.9.41Z"/>
  </g>
  <g id="_x23_733f7aff">
    <path class="st112" d="M771.33,468.94c-.01-7.79,7.06-14.21,14.69-14.26,44-.09,87.99-.07,131.99.01,7.7.1,14.62,6.91,14.51,14.7.14,26.34.01,52.69.1,79.03,3.66.04,7.33.09,11,.15-.01-3.18-.05-6.35-.06-9.52.56.34,1.69,1.03,2.25,1.37-.4,2.5-.73,5.02-1.1,7.54,2.27-.07,4.55-.13,6.83-.19,1.84,2.23,3.74,4.42,5.7,6.56-4.3,2.68-8.67,5.26-12.93,8l-.81.52c-.06-3.18-.06-6.36-.05-9.53-3.64-.06-7.29-.08-10.92-.03.03,22.04-.04,44.09.11,66.14-.26,6.88,0,13.77-.2,20.66-.25,6.59-6.03,11.5-12.08,13.01-23.94.32-47.9-.11-71.84.15h-.15c-21.41-.17-42.82.12-64.22-.22-7.46-.46-13.28-7.72-12.83-15.05.04-56.35-.06-112.7.01-169.04M783.39,458.51c-5.09,1.24-8.75,6.37-8.76,11.52.03,55.33-.04,110.66.02,165.99-.29,4.29,1.19,8.91,4.75,11.54,3.86,3.1,9.06,1.96,13.62,2.11,40.32-.03,80.64.05,120.96-.02,4.92.49,10.81-.55,13.24-5.42,3.3-6.87,1.65-14.83,1.63-22.16.58-9.68.27-19.37.37-29.06.14-6.33-.84-12.65-.1-18.96.11-9,.25-18.01-.3-27-.35-7,.88-13.99.13-20.98-.3-9.01-.23-18.05.25-27.05-.07-9.69.1-19.38-.01-29.06-.17-6.3-5.68-12.11-12.16-11.63-44.54.1-89.12-.27-133.64.18Z"/>
  </g>
  <g id="_x23_734278ff">
    <path class="st36" d="M826.52,483.62c3.22-7.68,11.04-13.38,19.47-13.39,10.12-.72,19.83,6.98,22,16.78,1.56,6.72-.35,13.83-4.2,19.43.73.71,1.45,1.46,2.16,2.23,3.67-.5,5.74,3.05,8.2,5.11,2.06,2.32,5.88,4.54,4.46,8.21-1.11,2.08-3.64,4.56-6.14,3.32-3.92-3.02-7.05-6.91-10.45-10.47.28-.85.58-1.7.88-2.54-.9-.88-1.78-1.75-2.65-2.61-5.97,4.44-14.05,6.31-21.13,3.49-11.65-3.73-17.84-18.59-12.6-29.56M844.99,474.88c-8.01,1.06-14.96,7.98-15.45,16.14-.75,8.99,6.41,17.73,15.38,18.75,10.68,1.41,20.67-9.37,18.84-19.91-.93-8.95-9.85-16.11-18.77-14.98Z"/>
  </g>
  <g id="_x23_c41f19ff">
    <path class="st25" d="M567.85,479.93c2.89-4.62,8.06-6.87,13.13-8.22,43.69-.32,87.38-.06,131.07-.16,7.26-.07,14.72,3.95,17.79,10.69,1.72,3.28,2.01,7.04,2.01,10.68-.18,18.46-.06,36.95.02,55.4-.1,1.65-.14,3.31-.15,4.97.22,8.56-.19,17.13.22,25.69.92,7.34-.81,14.7.03,22.06.85,7.02-.69,14.9-5.98,19.94-3.93,3.88-9.59,5.47-14.99,5.38-42.33.03-84.66-.06-126.99.03-7.04-.08-14.15-3.88-17.39-10.26-2.56-4.95-2.3-10.68-2.34-16.08.15-35.69-.09-71.38.04-107.06-.19-4.59.72-9.33,3.53-13.06M581.41,475.48c-8.13.82-13.58,8.65-13.61,16.46,0,36.69-.02,73.38-.03,110.07-.21,4.6.21,9.48,2.75,13.45,2.52,4.35,7.36,7.18,12.39,7.22,43.36.03,86.73,0,130.09.01,8.29.02,15.46-7.4,15.3-15.68.12-38.68.07-77.35.06-116.03.16-8.24-7.01-15.88-15.36-15.62-43.86.09-87.74-.15-131.59.12Z"/>
  </g>
  <g id="_x23_f28617ff">
    <path class="st85" d="M1020.18,476.92c-.08-2.12,2.16-4.69,4.4-3.52,3.07,1.42,7.91,3.71,6.08,7.94,2.77,3,5.73,5.82,8.64,8.69-.83.98-1.64,1.99-2.42,3.01-2.87-3.17-5.74-6.36-8.92-9.22-4.16.42-6.79-3.35-7.78-6.9Z"/>
  </g>
  <g id="_x23_ec8016ff">
    <path class="st42" d="M1047.61,476.6c2.76-3.67,7.61-4.51,11.92-3.78-1.35,3.13-4.42,5.06-5.8,8.13.92,2.62,3.26,5.55,6.26,5.46,2.34-1.99,4.39-4.33,7-6,.72,4.07.46,8.8-2.93,11.66-2.89,2.92-7.17,2.85-10.96,2.57-3.79,4.36-7.83,8.49-12.02,12.47-4.51,4.19-8.23,9.2-13.09,13.03-3.37,3.29-9.26-.91-8.62-5.13-.21-2.34,1.79-3.92,3.24-5.43,7.95-7.12,15.58-14.6,23.03-22.24-.5-3.65-.66-7.8,1.97-10.74M1023.23,513.5c.08,1.42.12,2.85.26,4.28,1.39-.43,2.77-.87,4.16-1.33-.29-.79-.86-2.35-1.15-3.14-1.1.06-2.19.12-3.27.19Z"/>
  </g>
  <g id="_x23_fbfafcff">
    <path class="st99" d="M844.99,474.88c8.92-1.13,17.84,6.03,18.77,14.98,1.83,10.54-8.16,21.32-18.84,19.91-8.97-1.02-16.13-9.76-15.38-18.75.49-8.16,7.44-15.08,15.45-16.14M844.22,483.45c-.02,6.39,0,12.79-.04,19.18,1.39-.04,2.79-.07,4.21-.09.02-6.31.14-12.63-.02-18.94-1.39-.06-2.78-.11-4.15-.15M851.89,489.64c-.07,4.26-.07,8.51-.03,12.77,1.45.06,2.91.12,4.38.19-.04-4.29-.04-8.59-.09-12.88-1.43-.04-2.85-.06-4.26-.08M836.22,491.23c0,3.72-.05,7.45-.26,11.18,1.48-.01,2.97,0,4.47,0,.11-3.83.1-7.66.09-11.49-1.44.15-2.88.14-4.3.31Z"/>
  </g>
  <g id="_x23_723b71ff">
    <path class="st76" d="M844.22,483.45c1.37.04,2.76.09,4.15.15.16,6.31.04,12.63.02,18.94-1.42.02-2.82.05-4.21.09.04-6.39.02-12.79.04-19.18Z"/>
  </g>
  <g id="_x23_0647a1ff">
    <path class="st61" d="M1164.16,487.1c3.32-1.78,7.07-2.8,10.87-2.76,30.01.04,60.02.05,90.02,0,9.17.14,17.13,7.6,19.06,16.36.88,8.45.19,16.98.42,25.47.11,7.41-.06,14.83.09,22.25-.62-.03-1.23-.05-1.81-.07-.57-15.48.38-30.99-.4-46.46-.45,14.04.18,28.1-.2,42.14.39,13-.48,26,.28,38.99.46-9.97-.06-19.94.37-29.91l1.74.04c-.02,3.07-.06,6.14-.08,9.22-.37,12.05.64,24.15-.47,36.16-.45,1.71-1.06,3.38-1.86,4.95-3.52,6.62-10.59,11.19-18.17,11.07-25.67-.06-51.34.07-77.01.01-6.48-.08-13.06.54-19.4-1.06-4.81-2.16-9.29-5.59-11.59-10.43-2.37-4.99-2.51-10.65-2.39-16.06.12-27.67-.1-55.34.07-83,.72-6.75,4.26-13.68,10.46-16.91M1172.53,487.91c-7.88,1.16-15,7.92-15.07,16.15-.1,29.67-.04,59.34-.08,89.01-.37,9.32,8.04,18.39,17.57,17.7,30.04-.07,60.08.05,90.12-.04,8.68-.18,15.7-8.2,15.76-16.71.02-29.34-.05-58.68,0-88.02.17-4.97-1.63-10.09-5.33-13.47-3.83-3.7-9.33-5.02-14.52-4.76-29.48.03-58.98-.19-88.45.14Z"/>
  </g>
  <g id="_x23_ce352dff">
    <path class="st56" d="M644.08,486.99c1.22-2.5,5.47-2.61,6.66-.02,5.01,8.41,9.55,17.08,14.33,25.62-4.14,1.24-8.43.38-12.45-.88-.33-1.42-.64-2.82-.94-4.21-.48.09-1.42.26-1.9.35.11-3.53.13-7.05.07-10.58-1.58-.02-3.14-.02-4.7,0-.06,3.08-.06,6.17,0,9.26-3.02-1.89-5.82-4.08-8.43-6.49,2.63-4.25,4.78-8.77,7.35-13.05Z"/>
  </g>
  <g id="_x23_1350a4ff">
    <path class="st3" d="M1325.81,497.57c4.29-7.91,13.42-12,22.19-11.71,27.99.1,55.98-.1,83.97-.02,7.49.1,15.07-.56,22.47,1-1.78.56-3.54,1.12-5.3,1.7,1.02.4,2.05.8,3.11,1.19-35.09-.29-70.19-.04-105.27-.16-7.6-.33-14.91,3.91-18.56,10.53-.88-.85-1.75-1.69-2.61-2.53Z"/>
  </g>
  <g id="_x23_094eacff">
    <path class="st59" d="M1454.44,486.84c6.75,1.68,12.43,6.57,15.44,12.8.58,1.31.98,2.7,1.32,4.11,1.18,9.62.22,19.38.55,29.05,0,5.24-.01,10.47-.04,15.71-.66.51-1.31,1.03-1.93,1.55.65,1.05,1.33,2.12,2.03,3.18-.61,14.57.68,29.22-.67,43.74-.47,1.86-1.13,3.69-2,5.41-4.05,7.51-12.52,12.53-21.08,12.21-11.86-.08-23.72-.07-35.57.04-.64-.01-1.9-.02-2.54-.03-2.2-.04-4.4-.07-6.58-.08.02,4.39-.14,8.8-.7,13.17-1.16-.04-2.3-.06-3.42-.07.24-4.14.17-8.29.11-12.43l.16-.69c-7.35.07-14.71-.01-22.05.05-4.3.03-8.59.05-12.87.08-6.54-.16-13.08-.03-19.61-.1-9.76.01-18.94-7.15-21.52-16.53-1.39-4.52-.93-9.31-.98-13.96-.01-25.82-.02-51.64.02-77.46l.48-2.36c.76-2.29,1.67-4.54,2.82-6.66.86.84,1.73,1.68,2.61,2.53-1.43,3.43-2.24,7.12-2.1,10.85.12,27.33-.09,54.66.08,82,.16,9.65,8.93,17.93,18.56,17.72,35.01.08,70.04.11,105.05.01,9.86.05,18-9.02,18.08-18.65.24-26.35-.05-52.7.12-79.05.1-5.8-.77-12.04-4.66-16.6-2.81-3.55-7.15-5.25-11.3-6.65-1.06-.39-2.09-.79-3.11-1.19,1.76-.58,3.52-1.14,5.3-1.7Z"/>
  </g>
  <g id="_x23_743a75ff">
    <path class="st83" d="M851.89,489.64c1.41.02,2.83.04,4.26.08.05,4.29.05,8.59.09,12.88-1.47-.07-2.93-.13-4.38-.19-.04-4.26-.04-8.51.03-12.77Z"/>
  </g>
  <g id="_x23_7e437cff">
    <path class="st109" d="M836.22,491.23c1.42-.17,2.86-.16,4.3-.31.01,3.83.02,7.66-.09,11.49-1.5,0-2.99-.01-4.47,0,.21-3.73.25-7.46.26-11.18Z"/>
  </g>
  <g id="_x23_fffefeff">
    <path class="st57" d="M645.15,497.27c1.56-.02,3.12-.02,4.7,0,.06,3.53.04,7.05-.07,10.58-.05,1.47-.1,2.96-.15,4.44-1.44,0-2.86,0-4.28,0-.08-1.92-.15-3.84-.19-5.75-.07-3.09-.07-6.18,0-9.26Z"/>
    <path class="st57" d="M646.38,515.41c1.15-.29,2.53-.17,3.24.92,2.37,2.16-.99,6.72-3.65,4.51-2.17-1.07-1.83-4.79.41-5.43Z"/>
  </g>
  <g id="_x23_c92d29ff">
    <path class="st16" d="M636.73,500.04c2.61,2.41,5.41,4.6,8.43,6.49.04,1.91.11,3.83.19,5.75,1.42,0,2.84,0,4.28,0,.05-1.48.1-2.97.15-4.44.48-.09,1.42-.26,1.9-.35.3,1.39.61,2.79.94,4.21,4.02,1.26,8.31,2.12,12.45.88l.13-.03c1.73,3.57,4.33,6.79,5.45,10.62,0,3.38-4.02,4.07-6.66,3.98-11.69-.02-23.39.06-35.08-.02-3.23.33-6.15-3.4-4.07-6.26,4.12-6.86,7.87-13.93,11.89-20.84M646.38,515.41c-2.24.64-2.58,4.36-.41,5.43,2.66,2.21,6.02-2.35,3.65-4.51-.71-1.09-2.09-1.21-3.24-.92Z"/>
  </g>
  <g id="_x23_f18211ff">
    <path class="st1" d="M1046.39,507.03c1.32-3.28,4.25-5.46,6.63-7.93,4.28,4.04,8.45,8.21,12.55,12.44,1.69,1.4,1.59,3.71,1.95,5.69-1.88,1.82-3.75,4.34-6.66,4.15-3.33-1.57-5.36-4.82-7.96-7.27-2.13-2.39-5-4.2-6.51-7.08Z"/>
  </g>
  <g id="_x23_11468fff">
    <path class="st44" d="M1208.41,502.36c6-3.37,13.71-3.94,19.9-.72,2.82,1.37,5.11,3.57,7.35,5.74,1.32-1.05,2.68-2.04,4.07-3.02-.13,4,2.05,9.63-1.68,12.51-3.46-.21-6.7-1.69-9.94-2.8,1.25-1.37,2.56-2.69,3.92-3.96-4.18-4.64-10.8-7.84-17.03-5.63-6.2,1.72-10.58,7.3-11.62,13.53-1.58-.1-3.46.61-4.65-.74.91-6.05,4.38-11.75,9.68-14.91Z"/>
  </g>
  <g id="_x23_1459bdff">
    <path class="st32" d="M1282.41,501.89c.78,15.47-.17,30.98.4,46.46.58.02,1.19.04,1.81.07,5.84.24,11.69-.08,17.55.02-.03-3.06-.03-6.12.03-9.17,2.63,1.54,5.3,3.05,7.95,4.6,3.91,2.28,7.81,4.58,11.65,7.01-.37.2-1.11.61-1.48.81-6.2,3.39-12.07,7.34-18.18,10.88,0-3.13.01-6.25.03-9.37-5.86-.02-11.72.05-17.57-.05l-1.74-.04c-.43,9.97.09,19.94-.37,29.91-.76-12.99.11-25.99-.28-38.99.38-14.04-.25-28.1.2-42.14Z"/>
  </g>
  <g id="_x23_134a93ff">
    <path class="st113" d="M1373.93,517.9c6.76-7.51,16.84-13.03,27.21-11.48,9.85,1.81,18.34,8.33,23.76,16.63-6.24,9.16-16.29,17.24-27.91,16.82-10.99,0-20.51-7.35-26.64-15.93-.46-2.64,2.12-4.25,3.58-6.04M1375.15,523.02c6.02,7.62,15.73,14.29,25.93,12.25,7.62-1.31,13.77-6.5,18.69-12.18-4.95-5.72-11.1-11.14-18.85-12.3-10.17-1.9-19.71,4.63-25.77,12.23Z"/>
  </g>
  <g id="_x23_f8fafcff">
    <path class="st98" d="M1375.15,523.02c6.06-7.6,15.6-14.13,25.77-12.23,7.75,1.16,13.9,6.58,18.85,12.3-4.92,5.68-11.07,10.87-18.69,12.18-10.2,2.04-19.91-4.63-25.93-12.25M1395.42,514.51c-5.79,1.1-9.3,8.68-5.58,13.52,3.61,5.58,13.2,5,15.74-1.31,3.57-6.34-3.29-14.5-10.16-12.21Z"/>
  </g>
  <g id="_x23_fefdfcff">
    <path class="st77" d="M1023.23,513.5c1.08-.07,2.17-.13,3.27-.19.29.79.86,2.35,1.15,3.14-1.39.46-2.77.9-4.16,1.33-.14-1.43-.18-2.86-.26-4.28Z"/>
  </g>
  <g id="_x23_164d98ff">
    <path class="st8" d="M1395.42,514.51c6.87-2.29,13.73,5.87,10.16,12.21-2.54,6.31-12.13,6.89-15.74,1.31-3.72-4.84-.21-12.42,5.58-13.52Z"/>
  </g>
  <g id="_x23_124993ff">
    <path class="st69" d="M1235.54,521.52c1.36.09,2.73.19,4.13.29-.8,8.48-7.35,15.81-15.67,17.58-7.73,2.43-15.93-1.49-20.99-7.33-1.41.93-2.76,1.93-4.19,2.83-.12-3.82-.08-7.64-.11-11.45,3.86-1.82,7.92.83,11.75,1.65-1.11,1.43-2.43,2.67-3.51,4.1,3.86,4.99,10.89,7.59,16.97,5.39,6.09-1.61,10.07-7.21,11.62-13.06Z"/>
  </g>
  <g id="_x23_754481ff">
    <path class="st55" d="M1133.34,539c6.54,4.06,13.37,7.64,19.8,11.88-6.59,3.97-13.17,7.97-19.8,11.87-.02-3.18.17-6.37-.22-9.53-4.25-.77-8.56-.19-12.81.09-.02-1.44-.03-2.88.04-4.29l.21-.47c4.23-.38,8.53.15,12.8.03-.04-3.2-.08-6.39-.02-9.58Z"/>
  </g>
  <g id="_x23_774885ff">
    <path class="st110" d="M750.56,539.11c6.31,4.01,13.02,7.35,19.42,11.19-.29,1.16-1.47,1.62-2.35,2.26-5.63,3.47-11.33,6.83-17.04,10.15-.05-3.15-.07-6.3-.05-9.44-6.28.05-12.55-.14-18.82.02.01-1.66.05-3.32.15-4.97,6.28.14,12.57.13,18.85.19-.07-3.14-.12-6.27-.16-9.4Z"/>
  </g>
  <g id="_x23_7a4d86ff">
    <path class="st24" d="M945.81,540.42c5.18,2.95,10.15,6.32,15.65,8.67v.28c-.04.57-.04,1.15,0,1.73l.03.7c-1.43.83-2.85,1.66-4.25,2.53-1.96-2.14-3.86-4.33-5.7-6.56-2.28.06-4.56.12-6.83.19.37-2.52.7-5.04,1.1-7.54Z"/>
  </g>
  <g id="_x23_085bc7ff">
    <path class="st39" d="M1471.71,548.51c9.39-.27,20.15,1.75,27.97-4.85,1.19,1.05,2.38,2.1,3.61,3.18-.4.37-.79.74-1.17,1.1-8.45,7-20.2,4.65-30.31,5.3-.7-1.06-1.38-2.13-2.03-3.18.62-.52,1.27-1.04,1.93-1.55Z"/>
  </g>
  <g id="_x23_fdfcfcff">
    <path class="st103" d="M957.24,554.33c1.4-.87,2.82-1.7,4.25-2.53.48-.25,1.44-.75,1.92-.99.08,4.4.11,8.8.03,13.21-.63.4-1.23.81-1.8,1.24-5.5-2.63-12.04.48-17.33-2.93,4.26-2.74,8.63-5.32,12.93-8Z"/>
  </g>
  <g id="_x23_f1f2f3ff">
    <path class="st95" d="M1302.14,562.57c6.11-3.54,11.98-7.49,18.18-10.88,1.08,7.72.56,15.52.72,23.29.12,6.94.22,13.89-.06,20.83-1.97-.68-3.93-1.36-5.88-2.03-.62-9.84.47-19.69-.29-29.52-10.11-.34-20.24-.57-30.29-1.89.02-3.08.06-6.15.08-9.22,5.85.1,11.71.03,17.57.05-.02,3.12-.03,6.24-.03,9.37Z"/>
  </g>
  <g id="_x23_fdf9f7ff">
    <path class="st37" d="M1120.31,553.31c4.25-.28,8.56-.86,12.81-.09.39,3.16.2,6.35.22,9.53-2.07.58-4.12,1.23-6.17,1.82.16,6.13-.15,12.26.07,18.4.08,3.85,1.4,8.05-.7,11.62-2,.7-4.11.98-6.18,1.37-.08-14.22.08-28.44-.05-42.65Z"/>
  </g>
  <g id="_x23_fdfcfdff">
    <path class="st89" d="M1282.19,603.48c1.35,2.29,2.16,4.86,2.01,7.55-.16,4.8.55,9.76-.79,14.45-9.76,1.29-19.75.38-29.59.31-1.97-2.24-4.67-3.87-7.75-3.54-17.02.2-34.04.01-51.06-.08-3.27.05-7-.15-9.48,2.37-2.79,2.31-2.75,6.19-2.8,9.49.05,5.32-.15,10.65.15,15.97.06,2.29,1.17,4.34,2.4,6.23-8.38,3.02-17.42,1.72-26.12,1.75-.4-10.65-.31-21.31-.07-31.97,5.96-.32,11.93-.11,17.9-.08,5.11.57,8.65-3.75,13.05-5.5-.23-1.29-.42-2.58-.72-3.83-7.81-1.93-16.71,2.77-23.78-2.63l2.07-.47c6.34,1.6,12.92.98,19.4,1.06,25.67.06,51.34-.07,77.01-.01,7.58.12,14.65-4.45,18.17-11.07Z"/>
  </g>
  <g id="_x23_fcfbfcff">
    <path class="st104" d="M932.64,619.43c1.17,1.76,1.51,3.84,1.83,5.9,1.39.65,3.24.72,4.31,1.96.89,5.86.11,11.83.33,17.74-.11,3.85.53,7.81-.45,11.58-1.1,2.04-3.76,1.4-5.65,1.62-6.69-.17-13.38.1-20.06,0-3.14.38-4.95-2.95-7.97-3.01-1.76-.3-3.52-.45-5.27-.7,6.84-1.16,13.96.74,20.65-1.42,6.05-1.51,11.83-6.42,12.08-13.01.2-6.89-.06-13.78.2-20.66Z"/>
  </g>
  <g id="_x23_96979dff">
    <path class="st13" d="M1185.53,624.54c2.48-2.52,6.21-2.32,9.48-2.37,17.02.09,34.04.28,51.06.08,3.08-.33,5.78,1.3,7.75,3.54,1.65,3.14,1.13,6.8,1.23,10.22-.16,5.02.21,10.04-.02,15.06-.08,1.89-1.11,3.56-2.22,5.01-4.31,3.11-9.85,2.24-14.82,2.36-16.27-.26-32.55.2-48.81-.3-1.44-.33-2.75-1.05-3.9-1.91-1.23-1.89-2.34-3.94-2.4-6.23-.3-5.32-.1-10.65-.15-15.97.05-3.3.01-7.18,2.8-9.49M1189.16,624.37c-2.4.74-4.51,3.03-4.29,5.67-.1,6.63-.06,13.26-.08,19.89-.41,3.52,2.59,6.94,6.18,6.76,18.36.1,36.73-.22,55.09.01,3.32.32,7.15-2.02,7.03-5.66.39-6,.22-12.01.31-18.01-.18-2.31.26-5.13-1.64-6.85-1.93-2.26-5.11-1.96-7.76-2.03-18.27.04-36.59-.36-54.84.22Z"/>
  </g>
  <g id="_x23_fdfaf8ff">
    <path class="st53" d="M1120.43,623.74c.76.9,1.54,1.82,2.31,2.76,1.38.29,2.77.59,4.17.91.41,8.53.2,17.07.3,25.6-.2,1.54.23,3.84-1.57,4.57-3.19.38-6.34-.57-9.38-1.39,2.62-3.5,4.14-7.79,4.1-12.17.07-6.76-.08-13.52.07-20.28Z"/>
  </g>
  <g id="_x23_9a9ca1ff">
    <path class="st10" d="M612.89,635.97c2.89-2.93,7.34-2.23,11.07-2.33,12,.44,24-.31,36,.08,6.75.17,13.51-.08,20.27.01,2.71,1.47,5.34,3.89,5.59,7.17.54,6.67.38,13.39.27,20.08.19,4.4-3.47,8.84-8.05,8.63-7.01.07-14.02.03-21.03.12-13.96-.37-27.94.36-41.88-.37-2.15-1.34-4.01-3.3-4.76-5.75-.24-6.53-.11-13.07-.06-19.6.01-2.84.28-6.06,2.58-8.04M615.37,636.33c-1.97,1.16-3.54,3.26-3.31,5.65-.08,6.7-.12,13.41.02,20.11-.05,3.52,3.53,6.13,6.88,5.81,19.35.03,38.7-.15,58.05.02,3.37.37,7.21-2.21,6.94-5.86.06-7.04.12-14.1-.03-21.14-.02-3.09-3-5.47-6.01-5.1-14.27-.49-28.56.16-42.84-.22-6.56.25-13.24-.53-19.7.73Z"/>
  </g>
  <g id="_x23_0d4ea6ff">
    <path class="st58" d="M1398.01,634.44c.87.1,2.62.32,3.49.43-.9,4.33-2.06,8.6-3.48,12.79-1.34-.25-2.65-.5-3.94-.75,1.2-4.2,2.8-8.26,3.93-12.47Z"/>
  </g>
  <g id="_x23_114da9ff">
    <path class="st6" d="M1391.31,653.17c1.19.44,2.31,1.02,3.49,1.59-.31.59-.93,1.79-1.24,2.39-1.68,3.24-3.58,6.36-5.54,9.44-1.04-.71-2.06-1.41-3.07-2.1,1.25-2.23,2.47-4.49,3.73-6.71.83-1.56,1.64-3.14,2.63-4.61Z"/>
  </g>
  <g id="_x23_1652a8ff">
    <path class="st20" d="M848.37,653.25h.15c4.91,6.22,11.04,11.25,16.64,16.81-2.84.67-5.67,1.37-8.51,2,.98,2.28,1.99,4.55,2.99,6.84-.77.48-2.31,1.44-3.08,1.92-1.55-2.25-2.84-4.68-4.54-6.82-2.02.39-3.91,1.2-5.79,2-1.46.57-2.91,1.18-4.34,1.82,2.07-8.22,4.15-16.43,6.48-24.57Z"/>
  </g>
  <g id="_x23_1f5ab0ff">
    <path class="st31" d="M1381.12,669.77c.96.77,1.95,1.53,2.95,2.32-2.28,3.19-4.54,6.42-7.26,9.26-1.75,1.27-2.66-1.22-3.74-2.09,1.93-2.16,3.86-4.32,5.68-6.57.78-.98,1.56-1.95,2.37-2.92Z"/>
  </g>
  <g id="_x23_1653acff">
    <path class="st62" d="M860.53,686.78c.87-.9,1.75-1.79,2.62-2.68,1.81,1.9,3.56,3.86,5.27,5.86.92,1.05,1.85,2.11,2.78,3.18-1,.85-1.99,1.71-2.96,2.58-2.3-2.49-4.55-5.03-6.67-7.67l-1.04-1.27Z"/>
  </g>
  <g id="_x23_1653a7ff">
    <path class="st2" d="M1361.51,690.73c2.45-2.29,4.95-4.53,7.54-6.67.74,1.54,2.86,3.68.35,4.85-2.47,2.34-4.99,4.64-7.47,6.98-.96-.98-1.9-1.95-2.82-2.91.6-.56,1.8-1.69,2.4-2.25Z"/>
  </g>
  <g id="_x23_134b9bff">
    <path class="st50" d="M875.39,698.74c.24-.3.71-.88.94-1.18,3.12,2.92,6.53,5.49,9.66,8.4-.9.88-1.77,1.79-2.62,2.72-2.21-1.71-4.45-3.37-6.56-5.18-1.04-.88-2.06-1.76-3.06-2.64.54-.71,1.08-1.42,1.64-2.12Z"/>
  </g>
  <g id="_x23_1356b5ff">
    <path class="st46" d="M1346.84,702.86c2.59-1.81,5.12-3.71,7.63-5.63.54,1.1,1.17,2.19,1.87,3.23-3.42,2.55-6.79,5.15-10.09,7.83-.7-1.08-2-1.91-2.09-3.25.79-.83,1.73-1.51,2.68-2.18Z"/>
  </g>
  <g id="_x23_1657afff">
    <path class="st75" d="M1327.35,715.75c3.68-2.57,7.64-4.72,11.4-7.19.5.71,1.51,2.12,2.01,2.83-3.55,2.8-7.44,5.12-11.33,7.4-.71-1.02-1.41-2.03-2.08-3.04Z"/>
  </g>
  <g id="_x23_1754a2ff">
    <path class="st5" d="M889.2,712.79c.73-1.21,1.5-2.38,2.27-3.55,3.48,2.43,7.07,4.7,10.7,6.91-.68,1.19-1.37,2.39-2.03,3.6-3.72-2.22-7.31-4.63-10.94-6.96Z"/>
  </g>
  <g id="_x23_1155b0ff">
    <path class="st70" d="M1310.94,724c3.59-2.13,7.44-3.77,11.21-5.55.2.47.58,1.4.77,1.87.15.36.43,1.09.58,1.46-3.04,1.76-6.19,3.3-9.32,4.86l-1.38.69c-.64-1.12-1.26-2.23-1.86-3.33Z"/>
  </g>
  <g id="_x23_1451aeff">
    <path class="st49" d="M905.98,722.75c.62-1.09,1.25-2.18,1.89-3.26,1.21.63,2.45,1.27,3.69,1.91,2.56,1.33,5.12,2.66,7.74,3.89-.61,1.19-1.21,2.39-1.82,3.58-2.52-1.32-5.05-2.58-7.54-3.92-1.34-.73-2.66-1.47-3.96-2.2Z"/>
  </g>
  <g id="_x23_0e52acff">
    <path class="st68" d="M1293.13,731.79c4.02-1.96,8.22-3.52,12.29-5.39.46,1.17.93,2.36,1.4,3.56-3.98,1.64-7.84,3.6-11.96,4.86-.43-.76-1.3-2.27-1.73-3.03Z"/>
  </g>
  <g id="_x23_1454a9ff">
    <path class="st14" d="M924.06,732.02c.26-1.3.53-2.59.82-3.86,4.15,1.31,8.09,3.17,12.07,4.92-.24,1.27-.48,2.56-.71,3.85-4.19-1.29-8.18-3.14-12.18-4.91Z"/>
  </g>
  <g id="_x23_0c50acff">
    <path class="st21" d="M1286.2,734.35c.46-.15,1.38-.44,1.84-.59.15,1.17.38,2.37.61,3.55-1.54.6-3.06,1.21-4.57,1.84-.76-.06-2.28-.19-3.05-.25.01-.67.02-2.01.03-2.68,1.7-.64,3.4-1.29,5.14-1.87Z"/>
  </g>
  <g id="_x23_1350a8ff">
    <path class="st88" d="M942.11,739.05c.52-1.2,1.05-2.4,1.59-3.59,4.07,1.55,8.23,2.81,12.32,4.3-.55,1.32-1.09,2.64-1.63,3.96-4.06-1.65-8.18-3.14-12.28-4.67Z"/>
  </g>
  <g id="_x23_2c66adff">
    <path class="st45" d="M1275.33,738.35c1.9-.71,3.81-1.43,5.73-2.13-.01.67-.02,2.01-.03,2.68.77.06,2.29.19,3.05.25l-.85.25c-2.22.64-4.41,1.34-6.59,2.07-.46-1.05-.89-2.08-1.31-3.12Z"/>
  </g>
  <g id="_x23_0d4d9dff">
    <path class="st23" d="M1262.67,741.84c2.46-.72,4.92-1.43,7.44-1.99.13.9.38,2.7.5,3.6-2.15.86-4.36,1.59-6.55,2.29-.48-1.31-.94-2.61-1.39-3.9Z"/>
  </g>
  <g id="_x23_1158abff">
    <path class="st48" d="M962.39,741.79c2.61.67,5.22,1.39,7.83,2.14,1.5.43,3,.89,4.53,1.35-.17,1.19-.35,2.39-.53,3.6-.46-.09-1.38-.25-1.84-.33-3.83-.79-7.55-1.98-11.25-3.17.31-.9.94-2.69,1.26-3.59Z"/>
  </g>
  <g id="_x23_1054acff">
    <path class="st65" d="M1251.53,745.03c2.36-.59,4.76-1.06,7.17-1.5-.61,5.37-7.07,5.12-11.03,6.35-.35-.82-1.06-2.45-1.41-3.26,1.72-.6,3.49-1.13,5.27-1.59Z"/>
  </g>
  <g id="_x23_0d4da2ff">
    <path class="st43" d="M981.55,747.21c4.4.93,8.86,1.78,13.1,3.35l-.64,1.39c-.23.46-.69,1.39-.92,1.85-4.2-.64-8.3-1.75-12.43-2.68.04-.32.14-.95.18-1.27.18-.66.53-1.98.71-2.64Z"/>
  </g>
  <g id="_x23_0e4a9dff">
    <path class="st41" d="M1227.39,750.71c4.3-.9,8.56-1.96,12.92-2.62.07,1.02.23,3.07.31,4.09-4.3.43-8.44,1.7-12.67,2.46-.1-.69-.29-2.08-.38-2.78-.05-.29-.13-.86-.18-1.15Z"/>
  </g>
  <g id="_x23_134d9dff">
    <path class="st12" d="M1111.07,754.91c2.2-1.46,4.48-2.79,6.79-4.07-.1.58-.29,1.73-.39,2.31-.54,2.82-1.08,5.64-1.53,8.49,2.09.05,4.19.09,6.31.14.03,1.24.07,2.5.13,3.77-2.11.01-4.23.02-6.31.07.37,3.46.87,6.91,1.41,10.37-6.26-4.51-13.65-7.36-19.48-12.42,4.15-3.2,8.75-5.72,13.07-8.66Z"/>
  </g>
  <g id="_x23_0c4b9bff">
    <path class="st51" d="M1000.71,752.2l.1-.77c.68.15,2.02.43,2.69.58,3.06.65,6.12,1.36,9.25,1.6l.98.09c-.08,1.39-.15,2.79-.21,4.2l-2-.28c-3.77-.61-7.51-1.38-11.23-2.17.13-1.09.27-2.18.42-3.25Z"/>
  </g>
  <g id="_x23_1050a2ff">
    <path class="st19" d="M1210.64,753.91c3.39-.59,6.77-1.19,10.16-1.77.13.63.39,1.89.52,2.52-.03.34-.09,1.02-.12,1.36-1.17.2-2.33.41-3.47.63-3.03.57-6.05,1.21-9.05,1.88-.19-1.39-.36-2.77-.51-4.14.62-.12,1.86-.36,2.47-.48Z"/>
  </g>
  <g id="_x23_0c4f9eff">
    <path class="st106" d="M1020.64,755.13c4.23.99,8.62,1.09,12.83,2.16.12,1.18.21,2.37.27,3.58-4.46-.21-8.87-.91-13.26-1.59.05-1.39.11-2.78.16-4.15Z"/>
  </g>
  <g id="_x23_0b4c9eff">
    <path class="st90" d="M1188.24,757.5c4.41-.84,8.92-1.2,13.33-2.14-.03.99-.07,2.98-.09,3.97-4.16.87-8.38,1.39-12.62,1.58-.22-1.14-.43-2.28-.62-3.41Z"/>
  </g>
  <g id="_x23_0c4d9cff">
    <path class="st102" d="M1040.63,758.17c4.36.28,8.71.75,13.05,1.35-.13,1.31-.24,2.64-.34,3.97-4.27-.7-8.56-1.14-12.86-1.36.05-1.33.05-2.65.15-3.96Z"/>
  </g>
  <g id="_x23_0d509cff">
    <path class="st54" d="M1168.4,759.64c4.39-.64,8.78-1.29,13.23-1.43.01.33.05.98.06,1.31.02.74.04,2.21.05,2.95-4.12-.15-8.24.25-12.3.87-.31-1.25-.67-2.49-1.04-3.7Z"/>
  </g>
  <g id="_x23_0e4a9aff">
    <path class="st72" d="M1060.59,760.24c4.29.03,8.58.27,12.88.44,0,1.37.01,2.73.06,4.12h-.18c-4.23-.37-8.47-.5-12.7-.69-.03-1.3-.06-2.6-.06-3.87Z"/>
  </g>
  <g id="_x23_104fa0ff">
    <path class="st101" d="M1149.22,760.65c4.15-.08,8.31-.27,12.48-.46.06,1.13.13,2.27.22,3.42-3.81.59-7.65.92-11.48,1.14-.33.02-.98.05-1.31.07.01-1.4.05-2.79.09-4.17Z"/>
  </g>
  <g id="_x23_1657adff">
    <path class="st92" d="M1080.39,761.31c4.28.12,8.56.25,12.85.37,0,.96.02,2.87.03,3.82-4.26-.1-8.51-.18-12.76-.22-.04-1.33-.1-2.66-.12-3.97Z"/>
  </g>
  <g id="_x23_0f4c9bff">
    <path class="st71" d="M1129.3,761.57c2.42-.14,4.85-.18,7.3-.23,1.73-.03,3.48-.01,5.24,0-.05,1.31-.08,2.63-.08,3.97-4.2.04-8.39.15-12.57.31-.07-1.36-.45-2.76.11-4.05Z"/>
  </g>

  <g id="editable_text_layer" data-name="Editable Times New Roman Text">
    <text id="txt_user_request_1" x="117.00" y="235.00" text-anchor="middle" dominant-baseline="middle" font-family="Times New Roman, Times, serif" font-size="22" font-weight="700" fill="#07183c" xml:space="preserve">USER</text>
    <text id="txt_user_request_2" x="117.00" y="263.00" text-anchor="middle" dominant-baseline="middle" font-family="Times New Roman, Times, serif" font-size="22" font-weight="700" fill="#07183c" xml:space="preserve">REQUEST</text>
    <text id="txt_planning_stage_1" x="367.00" y="270.00" text-anchor="middle" dominant-baseline="middle" font-family="Times New Roman, Times, serif" font-size="22" font-weight="700" fill="#07183c" xml:space="preserve">PLANNING STAGE</text>
    <text id="txt_planning_stage_2" x="367.00" y="296.00" text-anchor="middle" dominant-baseline="middle" font-family="Times New Roman, Times, serif" font-size="20" font-weight="400" fill="#07183c" xml:space="preserve">(assistant_plan)</text>
    <text id="txt_tool_call_1" x="618.00" y="265.00" text-anchor="middle" dominant-baseline="middle" font-family="Times New Roman, Times, serif" font-size="22" font-weight="700" fill="#07183c" xml:space="preserve">TOOL CALL</text>
    <text id="txt_tool_call_2" x="618.00" y="292.00" text-anchor="middle" dominant-baseline="middle" font-family="Times New Roman, Times, serif" font-size="20" font-weight="400" fill="#07183c" xml:space="preserve">(tool_call)</text>
    <text id="txt_initial_attempt" x="618.00" y="350.00" text-anchor="middle" dominant-baseline="middle" font-family="Times New Roman, Times, serif" font-size="19" font-weight="400" fill="#111111" xml:space="preserve">Initial Attempt</text>
    <text id="txt_result" x="845.00" y="251.00" text-anchor="middle" dominant-baseline="middle" font-family="Times New Roman, Times, serif" font-size="22" font-weight="700" fill="#07183c" xml:space="preserve">RESULT</text>
    <text id="txt_observation_1" x="1090.00" y="263.00" text-anchor="middle" dominant-baseline="middle" font-family="Times New Roman, Times, serif" font-size="22" font-weight="700" fill="#07183c" xml:space="preserve">OBSERVATION</text>
    <text id="txt_observation_2" x="1090.00" y="291.00" text-anchor="middle" dominant-baseline="middle" font-family="Times New Roman, Times, serif" font-size="19" font-weight="400" fill="#07183c" xml:space="preserve">(tool response)</text>
    <text id="txt_assistant_final" x="1510.00" y="282.00" text-anchor="middle" dominant-baseline="middle" font-family="Times New Roman, Times, serif" font-size="20" font-weight="700" fill="#07183c" xml:space="preserve">ASSISTANT_FINAL</text>
    <text id="txt_error_observation_1" x="647.00" y="552.00" text-anchor="middle" dominant-baseline="middle" font-family="Times New Roman, Times, serif" font-size="18" font-weight="700" fill="#07183c" xml:space="preserve">OBSERVATION</text>
    <text id="txt_error_observation_2" x="647.00" y="579.00" text-anchor="middle" dominant-baseline="middle" font-family="Times New Roman, Times, serif" font-size="18" font-weight="700" fill="#07183c" xml:space="preserve">WITH ERROR</text>
    <text id="txt_error_observation_3" x="647.00" y="606.00" text-anchor="middle" dominant-baseline="middle" font-family="Times New Roman, Times, serif" font-size="18" font-weight="700" fill="#07183c" xml:space="preserve">INDICATION</text>
    <text id="txt_failed" x="647.00" y="654.00" text-anchor="middle" dominant-baseline="middle" font-family="Times New Roman, Times, serif" font-size="19" font-weight="400" fill="#111111" xml:space="preserve">Failed</text>
    <text id="txt_analysis_stage_1" x="851.00" y="543.00" text-anchor="middle" dominant-baseline="middle" font-family="Times New Roman, Times, serif" font-size="17" font-weight="700" fill="#07183c" xml:space="preserve">ANALYSIS STAGE</text>
    <text id="txt_analysis_stage_2" x="851.00" y="568.00" text-anchor="middle" dominant-baseline="middle" font-family="Times New Roman, Times, serif" font-size="16" font-weight="400" fill="#07183c" xml:space="preserve">(assistant_plan)</text>
    <text id="txt_analysis_stage_3" x="851.00" y="597.00" text-anchor="middle" dominant-baseline="middle" font-family="Times New Roman, Times, serif" font-size="17" font-weight="400" fill="#111111" xml:space="preserve">Interpreting</text>
    <text id="txt_analysis_stage_4" x="851.00" y="624.00" text-anchor="middle" dominant-baseline="middle" font-family="Times New Roman, Times, serif" font-size="17" font-weight="400" fill="#111111" xml:space="preserve">the issue</text>
    <text id="txt_parameter_1" x="1040.00" y="544.00" text-anchor="middle" dominant-baseline="middle" font-family="Times New Roman, Times, serif" font-size="19" font-weight="700" fill="#07183c" xml:space="preserve">PARAMETER</text>
    <text id="txt_parameter_2" x="1040.00" y="570.00" text-anchor="middle" dominant-baseline="middle" font-family="Times New Roman, Times, serif" font-size="19" font-weight="700" fill="#07183c" xml:space="preserve">ADJUSTMENT</text>
    <text id="txt_parameter_3" x="1040.00" y="600.00" text-anchor="middle" dominant-baseline="middle" font-family="Times New Roman, Times, serif" font-size="18" font-weight="400" fill="#111111" xml:space="preserve">Modifying</text>
    <text id="txt_parameter_4" x="1040.00" y="626.00" text-anchor="middle" dominant-baseline="middle" font-family="Times New Roman, Times, serif" font-size="18" font-weight="400" fill="#111111" xml:space="preserve">arguments or</text>
    <text id="txt_parameter_5" x="1040.00" y="652.00" text-anchor="middle" dominant-baseline="middle" font-family="Times New Roman, Times, serif" font-size="18" font-weight="400" fill="#111111" xml:space="preserve">query</text>
    <text id="txt_adjustment" x="1040.00" y="691.00" text-anchor="middle" dominant-baseline="middle" font-family="Times New Roman, Times, serif" font-size="19" font-weight="400" fill="#111111" xml:space="preserve">Adjustment</text>
    <text id="txt_retry_1" x="1218.00" y="554.00" text-anchor="middle" dominant-baseline="middle" font-family="Times New Roman, Times, serif" font-size="18" font-weight="700" fill="#07183c" xml:space="preserve">RETRY</text>
    <text id="txt_retry_2" x="1218.00" y="581.00" text-anchor="middle" dominant-baseline="middle" font-family="Times New Roman, Times, serif" font-size="18" font-weight="700" fill="#07183c" xml:space="preserve">TOOL CALL</text>
    <text id="txt_retry_label" x="1218.00" y="641.00" text-anchor="middle" dominant-baseline="middle" font-family="Times New Roman, Times, serif" font-size="19" font-weight="400" fill="#111111" xml:space="preserve">Retry</text>
    <text id="txt_new_observation_1" x="1396.00" y="554.00" text-anchor="middle" dominant-baseline="middle" font-family="Times New Roman, Times, serif" font-size="18" font-weight="700" fill="#07183c" xml:space="preserve">NEW</text>
    <text id="txt_new_observation_2" x="1396.00" y="582.00" text-anchor="middle" dominant-baseline="middle" font-family="Times New Roman, Times, serif" font-size="18" font-weight="700" fill="#07183c" xml:space="preserve">OBSERVATION</text>
  </g>
</svg>