<svg width="1107" height="1076" xmlns="http://www.w3.org/2000/svg" xmlns:xlink="http://www.w3.org/1999/xlink" overflow="hidden"><g transform="translate(-11 -44)"><path d="M12.5001 288.5 1116.5 288.5" stroke="#C7D5EA" stroke-width="1.06667" stroke-linejoin="round" stroke-miterlimit="10" fill="none" fill-rule="evenodd"/><path d="M12.5001 523.5 1116.5 523.5" stroke="#C7D5EA" stroke-width="1.06667" stroke-linejoin="round" stroke-miterlimit="10" fill="none" fill-rule="evenodd"/><path d="M12.5001 751.5 1116.5 751.5" stroke="#C7D5EA" stroke-width="1.06667" stroke-linejoin="round" stroke-miterlimit="10" fill="none" fill-rule="evenodd"/><path d="M12.5001 105C12.5001 94.7828 20.7828 86.5001 31 86.5001 41.2173 86.5001 49.5 94.7828 49.5 105 49.5 115.217 41.2173 123.5 31 123.5 20.7828 123.5 12.5001 115.217 12.5001 105Z" stroke="#003B8E" stroke-width="1.33333" stroke-linejoin="round" stroke-miterlimit="10" fill="#003B8E" fill-rule="evenodd"/><text fill="#FFFFFF" font-family="Arial,Arial_MSFontService,sans-serif" font-weight="700" font-size="21" transform="translate(24.8033 113)">1</text><text fill="#003B8E" font-family="Arial,Arial_MSFontService,sans-serif" font-weight="700" font-size="18" transform="translate(55.7067 103)">Parsing /</text><text fill="#003B8E" font-family="Arial,Arial_MSFontService,sans-serif" font-weight="700" font-size="18" transform="translate(55.7067 125)">Understanding</text><text fill="#111111" font-family="Arial,Arial_MSFontService,sans-serif" font-weight="700" font-size="16" transform="translate(55.7067 176)">Convert raw</text><text fill="#111111" font-family="Arial,Arial_MSFontService,sans-serif" font-weight="700" font-size="16" transform="translate(55.7067 195)">documents into</text><text fill="#111111" font-family="Arial,Arial_MSFontService,sans-serif" font-weight="700" font-size="16" transform="translate(55.7067 214)">structured</text><text fill="#111111" font-family="Arial,Arial_MSFontService,sans-serif" font-weight="700" font-size="16" transform="translate(55.7067 233)">content</text><path d="M12.5001 348C12.5001 337.783 20.7828 329.5 31 329.5 41.2173 329.5 49.5 337.783 49.5 348 49.5 358.217 41.2173 366.5 31 366.5 20.7828 366.5 12.5001 358.217 12.5001 348Z" stroke="#003B8E" stroke-width="1.33333" stroke-linejoin="round" stroke-miterlimit="10" fill="#003B8E" fill-rule="evenodd"/><text fill="#FFFFFF" font-family="Arial,Arial_MSFontService,sans-serif" font-weight="700" font-size="21" transform="translate(24.8033 356)">2</text><text fill="#003B8E" font-family="Arial,Arial_MSFontService,sans-serif" font-weight="700" font-size="18" transform="translate(55.7067 346)">Retrieval</text><text fill="#111111" font-family="Arial,Arial_MSFontService,sans-serif" font-weight="700" font-size="16" transform="translate(55.7067 419)">Retrieve</text><text fill="#111111" font-family="Arial,Arial_MSFontService,sans-serif" font-weight="700" font-size="16" transform="translate(123.04 419)">relevant</text><text fill="#111111" font-family="Arial,Arial_MSFontService,sans-serif" font-weight="700" font-size="16" transform="translate(55.7067 438)">chunks /</text><text fill="#111111" font-family="Arial,Arial_MSFontService,sans-serif" font-weight="700" font-size="16" transform="translate(125.207 438)">regions</text><text fill="#111111" font-family="Arial,Arial_MSFontService,sans-serif" font-weight="700" font-size="16" transform="translate(55.7067 457)">from the</text><text fill="#111111" font-family="Arial,Arial_MSFontService,sans-serif" font-weight="700" font-size="16" transform="translate(124.207 457)">index</text><path d="M12.5001 578.5C12.5001 568.559 20.7828 560.5 31 560.5 41.2173 560.5 49.5 568.559 49.5 578.5 49.5 588.441 41.2173 596.5 31 596.5 20.7828 596.5 12.5001 588.441 12.5001 578.5Z" stroke="#003B8E" stroke-width="1.33333" stroke-linejoin="round" stroke-miterlimit="10" fill="#003B8E" fill-rule="evenodd"/><text fill="#FFFFFF" font-family="Arial,Arial_MSFontService,sans-serif" font-weight="700" font-size="21" transform="translate(24.8033 586)">3</text><text fill="#003B8E" font-family="Arial,Arial_MSFontService,sans-serif" font-weight="700" font-size="18" transform="translate(55.7067 577)">Grounding /</text><text fill="#003B8E" font-family="Arial,Arial_MSFontService,sans-serif" font-weight="700" font-size="18" transform="translate(55.7067 599)">Alignment</text><text fill="#111111" font-family="Arial,Arial_MSFontService,sans-serif" font-weight="700" font-size="16" transform="translate(55.7066 650)">Align retrieved</text><text fill="#111111" font-family="Arial,Arial_MSFontService,sans-serif" font-weight="700" font-size="16" transform="translate(172.207 650)">content</text><text fill="#111111" font-family="Arial,Arial_MSFontService,sans-serif" font-weight="700" font-size="16" transform="translate(55.7066 669)">with the query</text><text fill="#111111" font-family="Arial,Arial_MSFontService,sans-serif" font-weight="700" font-size="16" transform="translate(168.873 669)">and</text><text fill="#111111" font-family="Arial,Arial_MSFontService,sans-serif" font-weight="700" font-size="16" transform="translate(55.7066 688)">verify</text><text fill="#111111" font-family="Arial,Arial_MSFontService,sans-serif" font-weight="700" font-size="16" transform="translate(102.707 688)">evidence</text><path d="M12.5001 806C12.5001 795.783 20.7828 787.5 31 787.5 41.2173 787.5 49.5 795.783 49.5 806 49.5 816.217 41.2173 824.5 31 824.5 20.7828 824.5 12.5001 816.217 12.5001 806Z" stroke="#003B8E" stroke-width="1.33333" stroke-linejoin="round" stroke-miterlimit="10" fill="#003B8E" fill-rule="evenodd"/><text fill="#FFFFFF" font-family="Arial,Arial_MSFontService,sans-serif" font-weight="700" font-size="21" transform="translate(24.8033 814)">4</text><text fill="#003B8E" font-family="Arial,Arial_MSFontService,sans-serif" font-weight="700" font-size="18" transform="translate(55.7067 804)">Answer</text><text fill="#003B8E" font-family="Arial,Arial_MSFontService,sans-serif" font-weight="700" font-size="18" transform="translate(55.7067 826)">Generation</text><text fill="#111111" font-family="Arial,Arial_MSFontService,sans-serif" font-weight="700" font-size="16" transform="translate(55.7066 877)">Generate final</text><text fill="#111111" font-family="Arial,Arial_MSFontService,sans-serif" font-weight="700" font-size="16" transform="translate(166.873 877)">answer</text><text fill="#111111" font-family="Arial,Arial_MSFontService,sans-serif" font-weight="700" font-size="16" transform="translate(55.7066 896)">based on</text><text fill="#111111" font-family="Arial,Arial_MSFontService,sans-serif" font-weight="700" font-size="16" transform="translate(130.54 896)">grounded</text><text fill="#111111" font-family="Arial,Arial_MSFontService,sans-serif" font-weight="700" font-size="16" transform="translate(55.7066 915)">evidence</text><path d="M759 45 699.5 283 226.5 283 167 45Z" stroke="#0A3B8D" stroke-width="1.73333" stroke-linejoin="round" stroke-miterlimit="10" fill="#EEF5FF" fill-rule="evenodd"/><path d="M701 299 647 515 282 515 228 299Z" stroke="#0A3B8D" stroke-width="1.73333" stroke-linejoin="round" stroke-miterlimit="10" fill="#EEF5FF" fill-rule="evenodd"/><path d="M649 530 596.25 741 332.75 741 280 530Z" stroke="#0A3B8D" stroke-width="1.73333" stroke-linejoin="round" stroke-miterlimit="10" fill="#EEF5FF" fill-rule="evenodd"/><path d="M595 758 543.25 965 381.75 965 330 758Z" stroke="#0A3B8D" stroke-width="1.73333" stroke-linejoin="round" stroke-miterlimit="10" fill="#EEF5FF" fill-rule="evenodd"/><path d="M248.5 142C248.5 135.097 254.097 129.5 261 129.5L318 129.5C324.904 129.5 330.5 135.097 330.5 142L330.5 192C330.5 198.903 324.904 204.5 318 204.5L261 204.5C254.097 204.5 248.5 198.903 248.5 192Z" stroke="#6B8BC0" stroke-width="1.46667" stroke-linejoin="round" stroke-miterlimit="10" fill="#FFFFFF" fill-rule="evenodd"/><text fill="#111111" font-family="Arial,Arial_MSFontService,sans-serif" font-weight="700" font-size="16" transform="translate(268.463 163)">PDF /</text><text fill="#111111" font-family="Arial,Arial_MSFontService,sans-serif" font-weight="700" font-size="16" transform="translate(265.877 182)">Image</text><path d="M334 164 364.333 164 364.333 166 334 166ZM363 161 371 165 363 169Z" fill="#003B8E"/><path d="M372.5 125.501C372.5 112.245 383.245 101.5 396.501 101.5L556.5 101.5C569.755 101.5 580.5 112.245 580.5 125.501L580.5 221.5C580.5 234.755 569.755 245.5 556.5 245.5L396.501 245.5C383.245 245.5 372.5 234.755 372.5 221.5Z" stroke="#6B8BC0" stroke-width="1.46667" stroke-linejoin="round" stroke-miterlimit="10" fill="#FFFFFF" fill-rule="evenodd"/><text fill="#111111" font-family="Arial,Arial_MSFontService,sans-serif" font-weight="700" font-size="21" transform="translate(452.497 155)">OCR</text><text fill="#111111" font-family="Arial,Arial_MSFontService,sans-serif" font-weight="700" font-size="21" transform="translate(441.243 206)">Layout</text><path d="M583 164 605.333 164 605.333 166 583 166ZM604 161 612 165 604 169Z" fill="#003B8E"/><path d="M616.5 142C616.5 135.097 622.097 129.5 629 129.5L698 129.5C704.904 129.5 710.5 135.097 710.5 142L710.5 192C710.5 198.904 704.904 204.5 698 204.5L629 204.5C622.097 204.5 616.5 198.904 616.5 192Z" stroke="#6B8BC0" stroke-width="1.46667" stroke-linejoin="round" stroke-miterlimit="10" fill="#FFFFFF" fill-rule="evenodd"/><text fill="#111111" font-family="Arial,Arial_MSFontService,sans-serif" font-weight="700" font-size="16" transform="translate(636.777 163)">Parsed</text><text fill="#111111" font-family="Arial,Arial_MSFontService,sans-serif" font-weight="700" font-size="16" transform="translate(633.11 182)">Content</text><path d="M280.5 368C280.5 360.544 286.544 354.5 294 354.5L348 354.5C355.456 354.5 361.5 360.544 361.5 368L361.5 451C361.5 458.456 355.456 464.5 348 464.5L294 464.5C286.544 464.5 280.5 458.456 280.5 451Z" stroke="#6B8BC0" stroke-width="1.46667" stroke-linejoin="round" stroke-miterlimit="10" fill="#FFFFFF" fill-rule="evenodd"/><text fill="#111111" font-family="Arial,Arial_MSFontService,sans-serif" font-weight="700" font-size="16" transform="translate(299.413 387)">Index</text><text fill="#111111" font-family="Arial,Arial_MSFontService,sans-serif" font-weight="700" font-size="16" transform="translate(297.34 406)">(Text /</text><text fill="#111111" font-family="Arial,Arial_MSFontService,sans-serif" font-weight="700" font-size="16" transform="translate(292.746 425)">Image /</text><text fill="#111111" font-family="Arial,Arial_MSFontService,sans-serif" font-weight="700" font-size="16" transform="translate(297.34 444)">Table)</text><path d="M371 405 385.333 405 385.333 407 371 407ZM384 402 392 406 384 410Z" fill="#003B8E"/><path d="M403.5 364.667C403.5 353.529 412.529 344.5 423.667 344.5L504.333 344.5C515.471 344.5 524.5 353.529 524.5 364.667L524.5 472.333C524.5 483.471 515.471 492.5 504.333 492.5L423.667 492.5C412.529 492.5 403.5 483.471 403.5 472.333Z" stroke="#6B8BC0" stroke-width="1.46667" stroke-linejoin="round" stroke-miterlimit="10" fill="#FFFFFF" fill-rule="evenodd"/><text fill="#111111" font-family="Arial,Arial_MSFontService,sans-serif" font-weight="700" font-size="16" transform="translate(411.357 424)">Top</text><text fill="#111111" font-family="Arial,Arial_MSFontService,sans-serif" font-weight="700" font-size="16" transform="translate(439.67 424)">-</text><text fill="#111111" font-family="Arial,Arial_MSFontService,sans-serif" font-weight="700" font-size="16" transform="translate(445.003 424)">k Results</text><path d="M530 405 550.333 405 550.333 407 530 407ZM549 402 557 406 549 410Z" fill="#003B8E"/><path d="M562.5 370.5C562.5 363.873 567.873 358.5 574.5 358.5L622.5 358.5C629.127 358.5 634.5 363.873 634.5 370.5L634.5 445.5C634.5 452.127 629.127 457.5 622.5 457.5L574.5 457.5C567.873 457.5 562.5 452.127 562.5 445.5Z" stroke="#6B8BC0" stroke-width="1.46667" stroke-linejoin="round" stroke-miterlimit="10" fill="#FFFFFF" fill-rule="evenodd"/><text fill="#111111" font-family="Arial,Arial_MSFontService,sans-serif" font-weight="700" font-size="16" transform="translate(566.206 378)">Results:</text><text fill="#111111" font-family="Arial,Arial_MSFontService,sans-serif" font-weight="700" font-size="16" transform="translate(575.959 395)">chart,</text><text fill="#111111" font-family="Arial,Arial_MSFontService,sans-serif" font-weight="700" font-size="16" transform="translate(576.793 412)">table,</text><text fill="#111111" font-family="Arial,Arial_MSFontService,sans-serif" font-weight="700" font-size="16" transform="translate(572.373 429)">image,</text><text fill="#111111" font-family="Arial,Arial_MSFontService,sans-serif" font-weight="700" font-size="16" transform="translate(590.959 447)">...</text><path d="M317.5 617.167C317.5 611.828 321.828 607.5 327.167 607.5L365.833 607.5C371.172 607.5 375.5 611.828 375.5 617.167L375.5 656.833C375.5 662.172 371.172 666.5 365.833 666.5L327.167 666.5C321.828 666.5 317.5 662.172 317.5 656.833Z" stroke="#6B8BC0" stroke-width="1.46667" stroke-linejoin="round" stroke-miterlimit="10" fill="#FFFFFF" fill-rule="evenodd"/><text fill="#111111" font-family="Arial,Arial_MSFontService,sans-serif" font-weight="700" font-size="16" transform="translate(322.975 643)">Query</text><path d="M381 635 399.333 635 399.333 637 381 637ZM398 632 406 636 398 640Z" fill="#003B8E"/><path d="M409.5 607.167C409.5 599.619 415.619 593.5 423.167 593.5L477.833 593.5C485.381 593.5 491.5 599.619 491.5 607.167L491.5 665.833C491.5 673.381 485.381 679.5 477.833 679.5L423.167 679.5C415.619 679.5 409.5 673.381 409.5 665.833Z" stroke="#6B8BC0" stroke-width="1.46667" stroke-linejoin="round" stroke-miterlimit="10" fill="#FFFFFF" fill-rule="evenodd"/><text fill="#111111" font-family="Arial,Arial_MSFontService,sans-serif" font-weight="700" font-size="16" transform="translate(413.427 633)">Retrieved</text><text fill="#111111" font-family="Arial,Arial_MSFontService,sans-serif" font-weight="700" font-size="16" transform="translate(414.673 652)">Evidence</text><path d="M494 633 514.333 633 514.333 635 494 635ZM513 630 521 634 513 638Z" fill="#003B8E"/><path d="M523.5 587C523.5 579.544 529.544 573.5 537 573.5L591 573.5C598.456 573.5 604.5 579.544 604.5 587L604.5 688C604.5 695.456 598.456 701.5 591 701.5L537 701.5C529.544 701.5 523.5 695.456 523.5 688Z" stroke="#6B8BC0" stroke-width="1.46667" stroke-linejoin="round" stroke-miterlimit="10" fill="#FFFFFF" fill-rule="evenodd"/><text fill="#111111" font-family="Arial,Arial_MSFontService,sans-serif" font-weight="700" font-size="16" transform="translate(534.191 634)">Aligned</text><text fill="#111111" font-family="Arial,Arial_MSFontService,sans-serif" font-weight="700" font-size="16" transform="translate(528.524 653)">Evidence</text><path d="M371.5 785.834C371.5 779.022 377.022 773.5 383.834 773.5L438.167 773.5C444.978 773.5 450.5 779.022 450.5 785.834L450.5 835.167C450.5 841.978 444.978 847.5 438.167 847.5L383.834 847.5C377.022 847.5 371.5 841.978 371.5 835.167Z" stroke="#6B8BC0" stroke-width="1.46667" stroke-linejoin="round" stroke-miterlimit="10" fill="#FFFFFF" fill-rule="evenodd"/><text fill="#111111" font-family="Arial,Arial_MSFontService,sans-serif" font-weight="700" font-size="16" transform="translate(380.743 807)">Aligned</text><text fill="#111111" font-family="Arial,Arial_MSFontService,sans-serif" font-weight="700" font-size="16" transform="translate(375.077 826)">Evidence</text><path d="M411.654 857.243 428.608 871.886 427.301 873.399 410.346 858.757ZM429.56 868.744 433 877 424.331 874.798Z" fill="#003B8E"/><path d="M442.5 879.333C442.5 875.56 445.56 872.5 449.333 872.5L476.667 872.5C480.441 872.5 483.5 875.56 483.5 879.333L483.5 936.667C483.5 940.441 480.441 943.5 476.667 943.5L449.333 943.5C445.56 943.5 442.5 940.441 442.5 936.667Z" stroke="#6B8BC0" stroke-width="1.46667" stroke-linejoin="round" stroke-miterlimit="10" fill="#FFFFFF" fill-rule="evenodd"/><text fill="#111111" font-family="Arial,Arial_MSFontService,sans-serif" font-weight="700" font-size="16" transform="translate(446.078 914)">LLM</text><path d="M0.636881-0.770962 18.4971 13.9832 17.2234 15.5251-0.636881 0.770962ZM19.3798 10.8211 23 19 14.2848 16.9888Z" fill="#003B8E" transform="matrix(1 0 0 -1 490 877)"/><path d="M483.5 782.167C483.5 775.724 488.724 770.5 495.167 770.5L541.833 770.5C548.277 770.5 553.5 775.724 553.5 782.167L553.5 833.833C553.5 840.277 548.277 845.5 541.833 845.5L495.167 845.5C488.724 845.5 483.5 840.277 483.5 833.833Z" stroke="#6B8BC0" stroke-width="1.46667" stroke-linejoin="round" stroke-miterlimit="10" fill="#FFFFFF" fill-rule="evenodd"/><text fill="#111111" font-family="Arial,Arial_MSFontService,sans-serif" font-weight="700" font-size="16" transform="translate(488.91 814)">Answer</text><path d="M759.5 100.001C759.5 80.9465 774.947 65.5001 794.001 65.5001L943.999 65.5001C963.054 65.5001 978.5 80.9465 978.5 100.001L978.5 237.999C978.5 257.054 963.054 272.5 943.999 272.5L794.001 272.5C774.947 272.5 759.5 257.054 759.5 237.999Z" stroke="#879EC4" stroke-width="1.46667" stroke-linejoin="round" stroke-miterlimit="10" fill="#FFFFFF" fill-rule="evenodd"/><text fill="#003B8E" font-family="Arial,Arial_MSFontService,sans-serif" font-weight="700" font-size="19" transform="translate(768.987 103)">Metrics (Examples)</text><text fill="#111111" font-family="Arial,Arial_MSFontService,sans-serif" font-weight="700" font-size="17" transform="translate(768.987 152)">• OCR Accuracy</text><text fill="#111111" font-family="Arial,Arial_MSFontService,sans-serif" font-weight="700" font-size="17" transform="translate(768.987 172)">• Element Detection F1</text><text fill="#111111" font-family="Arial,Arial_MSFontService,sans-serif" font-weight="700" font-size="17" transform="translate(768.987 192)">• Table Structure F1</text><text fill="#111111" font-family="Arial,Arial_MSFontService,sans-serif" font-weight="700" font-size="17" transform="translate(768.987 212)">• Text</text><text fill="#111111" font-family="Arial,Arial_MSFontService,sans-serif" font-weight="700" font-size="17" transform="translate(821.913 212)">Normalization</text><text fill="#111111" font-family="Arial,Arial_MSFontService,sans-serif" font-weight="700" font-size="17" transform="translate(936.293 212)">Acc</text><text fill="#111111" font-family="Arial,Arial_MSFontService,sans-serif" font-weight="700" font-size="17" transform="translate(966.96 212)">.</text><path d="M754.5 340.167C754.5 321.021 770.021 305.5 789.167 305.5L937.833 305.5C956.979 305.5 972.5 321.021 972.5 340.167L972.5 478.833C972.5 497.979 956.979 513.5 937.833 513.5L789.167 513.5C770.021 513.5 754.5 497.979 754.5 478.833Z" stroke="#879EC4" stroke-width="1.46667" stroke-linejoin="round" stroke-miterlimit="10" fill="#FFFFFF" fill-rule="evenodd"/><text fill="#003B8E" font-family="Arial,Arial_MSFontService,sans-serif" font-weight="700" font-size="19" transform="translate(768.987 339)">Metrics (Examples)</text><text fill="#111111" font-family="Arial,Arial_MSFontService,sans-serif" font-weight="700" font-size="17" transform="translate(768.987 401)">• Hit@k (Chunk / Region)</text><text fill="#111111" font-family="Arial,Arial_MSFontService,sans-serif" font-weight="700" font-size="17" transform="translate(768.987 421)">• Recall@k</text><text fill="#111111" font-family="Arial,Arial_MSFontService,sans-serif" font-weight="700" font-size="17" transform="translate(768.987 441)">• MRR / nDCG</text><text fill="#111111" font-family="Arial,Arial_MSFontService,sans-serif" font-weight="700" font-size="17" transform="translate(768.987 461)">• Diversity (Intra</text><text fill="#111111" font-family="Arial,Arial_MSFontService,sans-serif" font-weight="700" font-size="17" transform="translate(901.153 461)">-</text><text fill="#111111" font-family="Arial,Arial_MSFontService,sans-serif" font-weight="700" font-size="17" transform="translate(906.653 461)">set)</text><path d="M754.5 571.001C754.5 551.947 769.947 536.5 789.001 536.5L937.999 536.5C957.054 536.5 972.5 551.947 972.5 571.001L972.5 708.999C972.5 728.054 957.054 743.5 937.999 743.5L789.001 743.5C769.947 743.5 754.5 728.054 754.5 708.999Z" stroke="#879EC4" stroke-width="1.46667" stroke-linejoin="round" stroke-miterlimit="10" fill="#FFFFFF" fill-rule="evenodd"/><text fill="#003B8E" font-family="Arial,Arial_MSFontService,sans-serif" font-weight="700" font-size="19" transform="translate(768.987 569)">Metrics (Examples)</text><text fill="#111111" font-family="Arial,Arial_MSFontService,sans-serif" font-weight="700" font-size="17" transform="translate(768.987 626)">• IoU (Region Overlap)</text><text fill="#111111" font-family="Arial,Arial_MSFontService,sans-serif" font-weight="700" font-size="17" transform="translate(768.987 646)">• Grounding Precision</text><text fill="#111111" font-family="Arial,Arial_MSFontService,sans-serif" font-weight="700" font-size="17" transform="translate(768.987 666)">• Evidence Sufficiency</text><text fill="#111111" font-family="Arial,Arial_MSFontService,sans-serif" font-weight="700" font-size="17" transform="translate(768.987 686)">• Alignment Score</text><path d="M754.5 801.001C754.5 781.947 769.947 766.5 789.001 766.5L937.999 766.5C957.054 766.5 972.5 781.947 972.5 801.001L972.5 938.999C972.5 958.054 957.054 973.5 937.999 973.5L789.001 973.5C769.947 973.5 754.5 958.054 754.5 938.999Z" stroke="#879EC4" stroke-width="1.46667" stroke-linejoin="round" stroke-miterlimit="10" fill="#FFFFFF" fill-rule="evenodd"/><text fill="#003B8E" font-family="Arial,Arial_MSFontService,sans-serif" font-weight="700" font-size="19" transform="translate(768.987 799)">Metrics (Examples)</text><text fill="#111111" font-family="Arial,Arial_MSFontService,sans-serif" font-weight="700" font-size="17" transform="translate(768.987 854)">• Answer Accuracy</text><text fill="#111111" font-family="Arial,Arial_MSFontService,sans-serif" font-weight="700" font-size="17" transform="translate(768.987 874)">• Faithfulness</text><text fill="#111111" font-family="Arial,Arial_MSFontService,sans-serif" font-weight="700" font-size="17" transform="translate(768.987 894)">• Hallucination Rate</text><text fill="#111111" font-family="Arial,Arial_MSFontService,sans-serif" font-weight="700" font-size="17" transform="translate(768.987 914)">• Completeness</text><text font-family="Arial,Arial_MSFontService,sans-serif" font-weight="700" font-size="19" transform="translate(1017.93 88)">Failure</text><text font-family="Arial,Arial_MSFontService,sans-serif" font-weight="700" font-size="19" transform="translate(1011.26 111)">Leakage</text><path d="M998.5 174.167 1020.83 174.167 1020.83 176.833 998.5 176.833ZM1019.5 171.5 1027.5 175.5 1019.5 179.5Z" fill="#003B8E"/><text font-family="Arial,Arial_MSFontService,sans-serif" font-weight="400" font-size="19" transform="translate(1036.83 183)">15~25%</text><path d="M998.5 404.167 1020.83 404.167 1020.83 406.833 998.5 406.833ZM1019.5 401.5 1027.5 405.5 1019.5 409.5Z" fill="#003B8E"/><text font-family="Arial,Arial_MSFontService,sans-serif" font-weight="400" font-size="19" transform="translate(1036.83 414)">20~35%</text><path d="M998.5 636.167 1020.83 636.167 1020.83 638.833 998.5 638.833ZM1019.5 633.5 1027.5 637.5 1019.5 641.5Z" fill="#003B8E"/><text font-family="Arial,Arial_MSFontService,sans-serif" font-weight="400" font-size="19" transform="translate(1036.83 646)">15~30%</text><path d="M998.5 868.167 1020.83 868.167 1020.83 870.833 998.5 870.833ZM1019.5 865.5 1027.5 869.5 1019.5 873.5Z" fill="#003B8E"/><text font-family="Arial,Arial_MSFontService,sans-serif" font-weight="400" font-size="19" transform="translate(1036.83 877)">10~20%</text><path d="M463.867 965 463.867 996.667 460.133 996.667 460.133 965ZM467.6 994.8 462 1006 456.4 994.8Z" fill="#003B8E"/><path d="M307.5 1023.33C307.5 1014.04 315.037 1006.5 324.334 1006.5L612.667 1006.5C621.963 1006.5 629.5 1014.04 629.5 1023.33L629.5 1090.67C629.5 1099.96 621.963 1107.5 612.667 1107.5L324.334 1107.5C315.037 1107.5 307.5 1099.96 307.5 1090.67Z" stroke="#6B8BC0" stroke-width="1.46667" stroke-linejoin="round" stroke-miterlimit="10" fill="#EEF5FF" fill-rule="evenodd"/><text fill="#003B8E" font-family="Arial,Arial_MSFontService,sans-serif" font-weight="700" font-size="19" transform="translate(376.347 1036)">Final Answer Quality</text><text fill="#003B8E" font-family="Segoe UI Symbol,Segoe UI Symbol_MSFontService,sans-serif" font-weight="700" font-size="27" transform="translate(385.17 1074)">★</text><text fill="#003B8E" font-family="Segoe UI Symbol,Segoe UI Symbol_MSFontService,sans-serif" font-weight="700" font-size="27" transform="translate(422.003 1074)">★</text><text fill="#003B8E" font-family="Segoe UI Symbol,Segoe UI Symbol_MSFontService,sans-serif" font-weight="700" font-size="27" transform="translate(458.837 1074)">★</text><text fill="#003B8E" font-family="Segoe UI Symbol,Segoe UI Symbol_MSFontService,sans-serif" font-weight="700" font-size="27" transform="translate(495.67 1074)">★</text><text fill="#003B8E" font-family="Segoe UI Symbol,Segoe UI Symbol_MSFontService,sans-serif" font-weight="700" font-size="27" transform="translate(532.503 1074)">☆</text><text fill="#003B8E" font-family="Arial,Arial_MSFontService,sans-serif" font-weight="700" font-size="19" transform="translate(397.607 1101)">(Overall Quality)</text><path d="M759.5 1016C759.5 1004.68 768.678 995.5 780 995.5L1048 995.5C1059.32 995.5 1068.5 1004.68 1068.5 1016L1068.5 1098C1068.5 1109.32 1059.32 1118.5 1048 1118.5L780 1118.5C768.678 1118.5 759.5 1109.32 759.5 1098Z" stroke="#6B8BC0" stroke-width="1.46667" stroke-linejoin="round" stroke-miterlimit="10" fill="#FFFFFF" fill-rule="evenodd"/><text fill="#111111" font-family="Arial,Arial_MSFontService,sans-serif" font-weight="700" font-size="17" transform="translate(785.554 1063)">Failures at any upstream stage</text><text fill="#111111" font-family="Arial,Arial_MSFontService,sans-serif" font-weight="700" font-size="17" transform="translate(795.221 1084)">will accumulate and limit the</text><text fill="#111111" font-family="Arial,Arial_MSFontService,sans-serif" font-weight="700" font-size="17" transform="translate(830.614 1105)">final answer quality.</text><text fill="#003B8E" font-family="Segoe UI Symbol,Segoe UI Symbol_MSFontService,sans-serif" font-weight="400" font-size="24" transform="translate(804.707 1031)">⚠</text><text fill="#003B8E" font-family="Arial,Arial_MSFontService,sans-serif" font-weight="700" font-size="20" transform="translate(835.227 1027)">Key Takeaway</text></g></svg>