<?xml version="1.0" encoding="UTF-8"?>
<svg id="_图层_1" data-name="图层_1" xmlns="http://www.w3.org/2000/svg" version="1.1" viewBox="0 0 1672 941">
  <!-- Generator: Adobe Illustrator 29.6.0, SVG Export Plug-In . SVG Version: 2.1.1 Build 207)  -->
  <defs>
    <style>
      .st0 {
        fill: #0d47a3;
      }

      .st1 {
        font-size: 25px;
      }

      .st1, .st2, .st3, .st4, .st5, .st6, .st7, .st8, .st9, .st10, .st11, .st12, .st13, .st14, .st15, .st16, .st17, .st18, .st19 {
        font-family: TimesNewRomanPS-BoldMT, 'Times New Roman';
        font-weight: 700;
        isolation: isolate;
      }

      .st1, .st2, .st20, .st10, .st17 {
        fill: #3c1bab;
      }

      .st21 {
        fill: #e1e4e6;
      }

      .st2 {
        font-size: 15px;
      }

      .st22 {
        fill: #fbfcfd;
      }

      .st23 {
        fill: #3a9449;
      }

      .st24 {
        fill: #a6aaa9;
      }

      .st25, .st6, .st12 {
        fill: #d70503;
      }

      .st26 {
        fill: #d94700;
      }

      .st27 {
        fill: #eb4f00;
      }

      .st3, .st4 {
        fill: #168a35;
      }

      .st3, .st7, .st11 {
        font-size: 27px;
      }

      .st28 {
        fill: #ac9ae2;
      }

      .st29 {
        fill: #4e2bb7;
      }

      .st30 {
        fill: #5433b3;
      }

      .st4, .st14, .st19 {
        font-size: 14px;
      }

      .st5 {
        font-size: 10px;
      }

      .st5, .st31, .st9 {
        fill: #fff;
      }

      .st32 {
        fill: #3d1ab1;
      }

      .st33 {
        fill: #fdfafb;
      }

      .st34 {
        fill: #1c8531;
      }

      .st35 {
        fill: #4b29b6;
      }

      .st36 {
        fill: #3b52c7;
      }

      .st37 {
        fill: #0f7d28;
      }

      .st6 {
        font-size: 21px;
      }

      .st7, .st18, .st19 {
        fill: #0b4ead;
      }

      .st38 {
        fill: #f9fcfe;
      }

      .st8 {
        fill: #05124a;
        font-size: 52px;
      }

      .st9 {
        font-size: 9.5px;
      }

      .st39 {
        fill: #fcfbfd;
      }

      .st40 {
        fill: #e85c08;
      }

      .st41 {
        fill: #f8f7fc;
      }

      .st42 {
        fill: #3a16af;
      }

      .st43 {
        fill: #d4d3d5;
      }

      .st44 {
        fill: #fdf9f7;
      }

      .st45 {
        fill: #e0540a;
      }

      .st46 {
        fill: #ca0809;
      }

      .st47 {
        fill: #db6006;
      }

      .st10 {
        font-size: 20px;
      }

      .st11, .st13 {
        fill: #d95f00;
      }

      .st48 {
        fill: #0549af;
      }

      .st49 {
        fill: #1a832f;
      }

      .st50 {
        fill: #e47526;
      }

      .st51 {
        fill: #fdfcfb;
      }

      .st52 {
        fill: #b4a9e2;
      }

      .st12 {
        font-size: 33px;
      }

      .st53 {
        fill: #3457c9;
      }

      .st54 {
        fill: #cdd1cf;
      }

      .st55 {
        fill: #4c29b6;
      }

      .st56 {
        fill: #492cb6;
      }

      .st57 {
        fill: #6540c8;
      }

      .st58 {
        fill: #17812b;
      }

      .st59 {
        fill: #3f17b2;
      }

      .st60 {
        fill: #fefefd;
      }

      .st61 {
        fill: #a8aaaa;
      }

      .st13 {
        font-size: 18px;
      }

      .st14, .st15 {
        fill: #111;
      }

      .st62 {
        fill: #c9cccd;
      }

      .st63 {
        fill: #c1c7cd;
      }

      .st15 {
        font-size: 13px;
      }

      .st64 {
        fill: #4b29b5;
      }

      .st65 {
        fill: #4c2fb3;
      }

      .st66 {
        fill: #5736bb;
      }

      .st16 {
        fill: #4a4a4a;
        font-size: 23px;
      }

      .st67 {
        fill: #ced3d2;
      }

      .st68 {
        fill: #fefeff;
      }

      .st69 {
        fill: #de630b;
      }

      .st70 {
        fill: #b80808;
      }

      .st71 {
        fill: #5e33c4;
      }

      .st72 {
        fill: #4b26b5;
      }

      .st73 {
        fill: #bd0806;
      }

      .st74 {
        fill: #634bcd;
      }

      .st17 {
        font-size: 19px;
      }

      .st75 {
        fill: #fbfbfd;
      }

      .st76 {
        fill: #208634;
      }

      .st77 {
        fill: #d6d6d9;
      }

      .st18 {
        font-size: 34px;
      }

      .st78 {
        fill: #034dae;
      }

      .st79 {
        fill: #074cac;
      }

      .st80 {
        fill: #fefefe;
      }

      .st81 {
        fill: #4423ae;
      }

      .st82 {
        fill: #db6203;
      }

      .st83 {
        fill: #2f48b9;
      }

      .st84 {
        fill: #bf0609;
      }

      .st85 {
        fill: #d0d0d4;
      }

      .st86 {
        fill: #431cb7;
      }
    </style>
  </defs>
  <g id="_x23_f9fcfeff">
    <path class="st38" d="M0,0h1672v941H0V0M652.24,195.32c-8.24.79-14.8,8.57-14.8,16.73-.02,46.33,0,92.66-.02,138.98.07,3.26,1.07,6.47,2.7,9.29-.07,1.15-.79,2.41-.02,3.5,3.08,6.88,10.33,11.7,17.92,11.48,118.67-.02,237.36-.07,356.03,0,8.05-.64,17.87-4.79,19.61-13.59,1.43-8.14,1.28-16.46,1.12-24.69.18-28.63.15-57.27-.35-85.9-.16-6.04.8-12.08-.01-18.1-.84-7.77,2.72-16.68-2.55-23.47l-.08-.8c-.77,1.17-1.52,2.35-2.15,3.59.2-4.71-2.21-8.97-5.04-12.54-3-2.44-6.53-4.56-10.52-4.52-13.36-.18-26.72-.04-40.09-.08-8.67.3-17.34-.69-26-.01-24.33.01-48.66.03-72.98.02-27.68.01-55.35,0-83.03-.02-38.66-.17-77.34.41-115.99-.39-7.89.92-15.85.01-23.75.53M579.48,227.47c.46,4.96,1.42,9.86,2.25,14.78-13.66,1.24-27.26,3.19-40.74,5.72-45.35,9.07-89.99,25.76-127.06,53.9-16.85,13.13-31.93,28.85-42.71,47.39,4.98-.03,9.97,0,14.95.04,16.94-24.51,41.29-42.8,67.23-56.88,39.73-20.87,84.03-32.35,128.61-36.11-.4,4.77-.74,9.55-.96,14.34,14.99-7.86,30.44-14.83,45.39-22.73-15.57-7.02-31.22-13.86-46.96-20.45M1042.53,235.49c-.02,4.3-.06,8.61-.05,12.91,40.75.05,81.76,6.63,119.79,21.58,17.04,7.06,33.55,15.66,48.21,26.93,3.87,2.97,7.64,6.09,11.44,9.15-3.82,3.26-8.1,6.16-11.62,9.64,16.56,6.16,32.27,14.27,48.51,21.2-5.3-18.02-10.78-35.99-16.74-53.8-3.48,4.01-6.6,8.32-9.89,12.48-2.87-2.29-5.71-4.6-8.61-6.84-17.63-12.97-36.84-23.94-57.39-31.58l.19-.17c-39.4-15.09-81.75-21.65-123.84-21.5M1076.39,349.39c-4.67,2.76-6.94,8.34-6.82,13.61.05,36.66,0,73.32-.03,109.99-.01,5.3,2.33,10.88,6.82,13.91l-1.74.86c3.22,2.78,6.76,6.09,11.38,5.73,36.67-.08,73.34-.06,110.01-.06,4.66-.15,9.32-1.4,13.99-.43,8.64,1.49,17.35-.94,26,.42,28.66.02,57.32-.02,85.98.04,9.97-.63,20.11-2.08,30.02-.15-4.38-.02-8.75.18-13.12.22.74,5.98.84,12.02.91,18.05-3.99-.25-7.96-.67-11.92-1.07,5.82,9.4,12.88,18.08,18.03,27.87-92.4.06-184.79.04-277.18.03-7.44,1.14-13.44,7.93-13.33,15.51-.13,39.01.04,78.02-.06,117.03-.16,4.45.03,9.29,2.86,12.99-.19.55-.58,1.65-.77,2.2,3.19,4.07,6.51,10.01,12.56,9.34,85.47-.09,170.96-.04,256.43-.04-5.45,24.7-17.75,48.13-36.28,65.51-2.31-3.43-4.74-6.76-7.2-10.06-5.01,11.79-9.56,23.78-14.96,35.41,12.96-2.3,25.88-4.83,38.79-7.41-2.96-2.99-6-5.89-8.99-8.83,20.28-19.19,34.45-44.75,40-72.12.69-.78,1.41-1.56,2.14-2.32,17.71-.52,35.43-.14,53.14-.26,23.88.14,47.77-.17,71.65.13,5.43.35,11.23-1.83,14.55-6.27,3.2-4.4,2.15-10.17,2.31-15.26.03-39-.04-78-.01-116.99.3-2.51-1.76-4.13-3.32-5.69-.91-5.98-5.72-11.23-11.71-12.33l.61-.34c-40.36-.44-80.73.01-121.09-.23,5.94-9.55,12.74-18.52,19.13-27.76-3.93.15-7.85.43-11.76.79-.9-5.99-.85-12.05-1.15-18.08,7.91.51,15.83-.06,23.75.06,22.67.13,45.34-.13,68.01.2,6.45.51,11.01-5.25,14.15-10.11.89-6.76.09-13.65.35-20.46-.05-32.35-.13-64.71-.04-97.06-.13-3.72-1.35-8.01-4.74-10.01-2.62-5.54-8.55-9.34-14.69-9.27-114.34.01-228.68.01-343.02-.02-6.56.28-13.88-1.31-19.64,2.73M211.2,361.22c-3.37,2.15-5.23,5.82-6.46,9.5-.21,44.76.03,89.53-.04,134.3,0,3.27.78,6.63,2.68,9.34-.78.1-1.54.22-2.31.34,3.49,4.64,7.39,10.88,13.95,10.72,12.64.02,25.29-.03,37.93-.05,7.96-1.04,16.04-1.36,24.03-.37,7.65.97,15.38.47,23.02-.35,7.69-.12,15.41-.33,23.07.54,4.31-.4,8.61-.43,12.92.06,10.63-1.03,21.39-1.02,32.02.08,7.3-1.06,14.59.5,21.92.06,7.04.5,14.01-1.17,21.03-.3,9.65-.83,19.35-.43,29.03-.48,10.62,1.02,21.36,1.26,31.98.2,4.03-.12,8.02.8,12.06.63,11.97-.22,23.98.43,35.91-.66,6,.81,12.03.71,18.05.19,9.2.82,18.43.22,27.65.51,3.02.04,6.25-.19,8.75-2.08,4-2.94,8.39-6.91,8.03-12.36.03-32.35-.08-64.72.03-97.08-.83-10.63.61-21.29-.23-31.93-.51-4.88-.41-10-2.82-14.42-.64-.11-1.94-.33-2.58-.44-2.24-4.98-7.35-8.58-12.87-8.58-113.31-.06-226.63.02-339.94-.05-5.64.11-11.94-.85-16.81,2.68M263.08,538.4c-5.25,8.98-9.87,18.31-14.84,27.44,4.4-.48,8.77-1.15,13.16-1.74,1.61,18.12,5.51,36.1,12.21,53.03,11.75,31.15,31.26,58.76,53.48,83.3,5.68-.03,11.37-.15,17.06-.12-9.57-10.99-19.2-21.96-27.64-33.85-21.74-30.28-38.47-65.48-40.98-103.12,4.54.49,9.07,1.11,13.63,1.45-5.08-9.34-11.01-18.17-16.29-27.4-1.43-2.76-3.06-5.4-4.81-7.97-1.68,2.98-3.35,5.97-4.98,8.98M258.95,711.98c-5.09,3.12-7.79,9.15-7.45,15.03.32,26.73-.33,53.51.34,80.21-.71,16.57-.04,33.2-.37,49.8-.3,5.36,1.75,10.87,5.95,14.32-.28,4.32,5.03,6.39,8.57,7.07,113,.06,226.01.01,339.02.02,12.47-.16,24.98.35,37.42-.23,8.57,2.14,17.78-4.51,19.01-13.1.13-45.05-.15-90.1.06-135.15.18-3.54-1.19-6.95-3.77-9.36v1.69c-1.29-6.89-7.63-12.58-14.68-12.76-122.01-.06-244.02.02-366.02-.07-6.04.23-12.78-1.17-18.08,2.53M846.06,723.05c-2.49,4.23-1.76,9.28-1.86,13.95.02,41-.01,81.99.02,122.98-.22,4.19,1.22,8.36,3.88,11.59.35,4.75,5.12,9.06,9.88,9.02,132,0,264.02-.1,396.03.02,4.46-.26,7.86-3.84,10.8-6.85,3.85-5.79,2.42-13.14,2.65-19.69-.09-31.38.04-62.76-.05-94.14.17-4.67-.91-9.33-.32-13.99.62-5.42.85-11.05-.7-16.33-.3-1.74-2.05-2.39-3.31-3.25-1.41-3.92-3.88-7.72-7.77-9.53-5.04-2.65-10.89-1.89-16.36-1.98-126,.02-252,.02-377.99.02-5.88.05-12.09,2.8-14.9,8.18M664.29,800.16c13.22,9.41,26.3,19.02,39.28,28.76.69-4.95.73-9.95.75-14.93,10.26,1.4,20.36,3.85,30.7,4.8,28.16,3.64,56.78,3.49,84.88-.63,5.56-.9,11.04-2.32,16.64-3.04.1-4.74.03-9.47,0-14.19-12.44,2.13-24.86,4.62-37.48,5.33-31.03,2.75-62.27-.65-92.74-6.59,1.11-4.89,2.3-9.76,3.12-14.71-15.12,4.87-30.13,10.05-45.15,15.2Z"/>
  </g>
  <g id="_x23_d70503ff">
    <path class="st25" d="M652.24,195.32c7.9-.52,15.86.39,23.75-.53,38.65.8,77.33.22,115.99.39,27.68.02,55.35.03,83.03.02,24.32.01,48.65,0,72.98-.02,8.66-.68,17.33.31,26,.01,13.37.04,26.73-.1,40.09.08,3.99-.04,7.52,2.08,10.52,4.52-.39.61-1.17,1.84-1.56,2.46-3.36-2.81-7.58-4.74-12.02-4.64-118.35.03-236.69-.02-355.04.03-5.93-.13-12.05,3.17-14.45,8.73-2,4.27-1.34,9.1-1.42,13.67.08,43.32.01,86.64.05,129.96-.08,4.65,1.78,9.47,5.63,12.27,3.12,2.52,7.23,3.23,11.15,3.22,113.03-.04,226.06.04,339.09-.02,6.6-.06,13.23.35,19.83-.3.79.73,1.6,1.47,2.42,2.21-3.7.82-7.51.89-11.27.84-116.7.02-233.39-.02-350.08.01-2.47-.02-4.93-.26-7.35-.65-3.86-1.31-7.17-3.91-9.46-7.26-1.63-2.82-2.63-6.03-2.7-9.29.02-46.32,0-92.65.02-138.98,0-8.16,6.56-15.94,14.8-16.73Z"/>
  </g>
  <g id="_x23_ffffffff">
    <path class="st31" d="M641.53,206.37c2.4-5.56,8.52-8.86,14.45-8.73,118.35-.05,236.69,0,355.04-.03,4.44-.1,8.66,1.83,12.02,4.64,2.36,3.06,3.88,6.8,3.86,10.71.09,45.71-.01,91.42,0,137.13.35,6.85-4.52,13.21-11.04,15.08-6.6.65-13.23.24-19.83.3-113.03.06-226.06-.02-339.09.02-3.92.01-8.03-.7-11.15-3.22-3.85-2.8-5.71-7.62-5.63-12.27-.04-43.32.03-86.64-.05-129.96.08-4.57-.58-9.4,1.42-13.67M711.33,210.38c-1.67.53-2.25,2.46-3.17,3.77-8.14,14.64-16.06,29.4-24.1,44.09-1.79,2.16.06,5.89,2.88,5.51,16.69-.08,33.39.07,50.09-.02,1.47-.17,3.48.34,4.38-1.23,1.04-2,.01-4.21-.97-5.98-8.27-14.75-16.45-29.54-24.66-44.32-.75-1.67-2.76-2.45-4.45-1.82M650.84,274.9c2.39,1.72,5.39,1.15,8.14,1.06,7.99-.46,15.97.38,23.97.18,18.37.09,36.73-.55,55.1-.2,13.65.67,27.31-.47,40.96.16,12.31-.55,24.64.12,36.96-.23,58.01.26,115.98-.13,174,.24,7.33-.21,14.67-.42,22.01-.03,1.48.27,2.8-.22,3.51-1.61-19.17-.3-38.35-.09-57.52-.14-99.64.07-199.27,0-298.91,0-2.75-.06-5.54-.17-8.22.57Z"/>
    <path class="st31" d="M207.51,372.32c.72-6.16,6.22-11.12,12.45-11,113.68-.04,227.36,0,341.03-.03,4.24.09,8.88-.44,12.63,2,4.03,2.35,6.17,7.08,6.03,11.66-.01,43.01.07,86.03.04,129.05-.07,1.91-.24,3.83-.65,5.71-2.3,5.06-7.26,9.06-13.06,8.62-114.97.18-229.95.02-344.92.09-5.28.16-10.54-3.06-12.57-7.97-1.28-2.99-1.09-6.31-1.1-9.48.14-42.88-.13-85.77.12-128.65M253.79,388.71c-2.73,1.29-5.54,2.38-8.2,3.81-2.47-1.71-4.92-3.44-7.39-5.15-2.42,2.5-4.78,5.06-7.09,7.68,1.51,2.46,3.17,4.84,4.49,7.41-1.31,3.2-2.91,6.28-3.71,9.67-2.74.53-5.46,1.14-8.19,1.73-.09,3.57-.1,7.14-.09,10.72,2.75.64,5.52,1.21,8.28,1.8.93,3.39,2.12,6.72,3.79,9.83-1.54,2.43-3.5,4.68-4.47,7.43,2.06,2.77,4.64,5.08,7.03,7.56,2.3-1.73,4.57-3.5,6.82-5.3,3,1.67,6.14,3.12,9.39,4.27.37,3.09,1.09,6.12,1.94,9.11,3.07-.06,6.13-.06,9.2,0,.83-3.07,1.36-6.22,2.16-9.29,2.97-1.4,6.05-2.55,8.97-4.07,2.16,1.84,4.34,3.64,6.52,5.46,2.61-2.6,5.08-5.33,7.43-8.17-1.53-2.28-3.37-4.41-4.44-6.96,1.17-3.22,2.63-6.34,3.52-9.66,2.63-.66,5.26-1.31,7.9-1.91.17-3.66.18-7.32.11-10.98-2.65-.64-5.31-1.21-8-1.64-1.09-3.35-2.76-6.5-3.59-9.93,1.2-2.54,2.92-4.78,4.44-7.12-2.36-2.65-4.82-5.21-7.41-7.64-2.1,1.58-4.12,3.28-6.44,4.53-3.2-.55-6.07-2.21-9.12-3.26-.54-2.95-1.15-5.89-1.62-8.86-3.11-.12-6.23-.3-9.34-.01-1.97,2.49-1.44,6.14-2.89,8.94M311.62,415.82c.31.36.92,1.07,1.23,1.43,4.72.36,9.46.04,14.19.17,58.97-.02,117.95,0,176.93,0,21.98-.19,43.98.31,65.94-.3-.42-.31-1.27-.94-1.69-1.25-4.39-.51-8.82-.13-13.22-.26-81.13.21-162.26-.25-243.38.21Z"/>
    <path class="st31" d="M263.11,712.98c3.51-1.13,7.25-.68,10.87-.74,6.68.27,13.34-.79,20.01-.16,10.01.37,20.03,0,30.05.14,56.99-.06,113.98.04,170.97-.05,6.32-.43,12.65-.36,18.97.02,24.01-.13,48.02.42,72.01-.4,19,.81,38.04.16,57.06.5,6.21.1,11.55,5.61,12.12,11.69.36,3.64.15,7.32.18,10.99-.08,41.01.2,82.02.05,123.04.05,4.32-2.1,8.37-5.21,11.29-2.84,1.45-5.91,2.64-9.15,2.59-80.69-.07-161.37.09-242.06-.04-23,.79-46-.53-69,.26-20.67-.51-41.35-.09-62.02-.28-4.6.03-9.29-2.2-11.65-6.24-1.81-2.85-2.16-6.32-2.11-9.61,0-6.51.15-13.02-.1-19.52.25-36.85.04-73.71.13-110.56-.09-5.56,3.49-11.2,8.88-12.92M290.74,723.56c-.32.96-.64,1.93-.97,2.9-1.47.25-3.09.08-4.41.84-.31,2.36-.08,4.74,0,7.12,5.99.15,11.98.33,17.96-.01.04-2.35.06-4.7.06-7.05-1.45-.29-2.9-.56-4.32-.9-.78-1.47-1.24-3.61-3.12-4.01-1.84-.57-3.59.34-5.2,1.11M305.46,727.8c-.1,1.29-.18,2.6-.26,3.91,2.08.16,4.15.3,6.24.41-.01,7.81-.08,15.62-.04,23.43,1.02.07,3.05.2,4.07.27-.15-8.6.28-17.21-.2-25.79-2.06-3.42-6.56-1.87-9.81-2.23M273.6,729.77c-.7,3-.32,6.14-.41,9.21.15,12.04.01,24.08.08,36.13-.3,2.54,2.3,4.36,4.66,4.11,7.9.09,15.8-.06,23.7-.1-.83-1.49-1.61-2.99-2.42-4.48-7.32.24-14.64.06-21.96.15.01-14.36-.19-28.71.2-43.06,1.98-.02,3.97.05,5.96.05v-3.67c-3.19.42-7.48-1.22-9.81,1.66M281.72,741.28c.02,1.02.04,2.04.06,3.08,1.52.01,3.05.02,4.58.04.07-1.08.13-2.15.2-3.22-1.61.05-3.23.01-4.84.1M289.41,741.33c.03.99.06,2,.08,3.01,5.69.07,11.39-.03,17.09-.02.04-1,.07-2,.08-2.98-5.75-.07-11.5-.06-17.25-.01M281.83,749.77c-.15.94-.28,1.89-.38,2.86,1.77.44,3.57.51,5.38.21-.12-1.09-.29-2.16-.52-3.21-1.5.03-2.99.07-4.48.14M288.19,752.51c6.13.47,12.28.12,18.42.11-.08-.97-.16-1.93-.22-2.88-5.16.09-10.32-.12-15.47.06-1.59-.25-2.27,1.54-2.73,2.71M286.28,757.77c-.89-.02-2.68-.06-3.57-.08-.34.69-1.03,2.07-1.37,2.76,1.77.67,3.63.95,5.53,1.04l-.33-1.53c3.74,2.79,8.7,1.22,13.02,1.45.01-1.12.11-2.21.3-3.29-4.42-1.04-9.07-.17-13.58-.35M306.4,760.35c-6.34,3.8-7.05,13.92-1.08,18.38,3.44,3.24,8.63,2.33,12.58.64,1.7,1.94,3.45,3.83,5.23,5.71.86-1.03,1.74-2.03,2.64-3-.81-2.48-3.52-3.73-4.53-6.01.89-2.97,1.94-6.02,1.25-9.16-1.26-6.91-10.34-11.01-16.09-6.56M335.85,762.67c2.02,2.43,5.39,1.27,8.1,1.53,98.67.06,197.34-.02,296.01.03,1.78-.22,4.22.54,5.17-1.61-16.67-.65-33.38-.09-50.06-.28-82.68.02-165.37-.05-248.05.03-3.73-.03-7.47-.17-11.17.3M281.28,768.49c5.04.14,10.08-.06,15.12-.06.12-.49.36-1.46.48-1.95-4.61-.59-9.29-1.23-13.93-.65-.42.66-1.25,1.99-1.67,2.66M389.9,778.78c-.1,22.73.02,45.47-.03,68.2.01,4.43-.22,8.88.39,13.29,1.55-1.73,1.15-4.15,1.22-6.26-.18-25.08.05-50.16,0-75.24h-1.58M524.21,779.07c-.13,24.3.11,48.61-.07,72.91.03,2.84-.31,5.78.98,8.43.71-3.44.57-6.95.57-10.43-.1-23.61-.01-47.22-.04-70.83-.36-.02-1.08-.06-1.44-.08Z"/>
  </g>
  <g id="_x23_ca0809ff">
    <path class="st46" d="M1024.6,199.79c2.83,3.57,5.24,7.83,5.04,12.54-.19,46.22.1,92.45-.09,138.67.04,7.17-4.6,13.83-11.27,16.38-.82-.74-1.63-1.48-2.42-2.21,6.52-1.87,11.39-8.23,11.04-15.08-.01-45.71.09-91.42,0-137.13.02-3.91-1.5-7.65-3.86-10.71.39-.62,1.17-1.85,1.56-2.46Z"/>
    <path class="st46" d="M650.84,274.9c2.68-.74,5.47-.63,8.22-.57,99.64,0,199.27.07,298.91,0,19.17.05,38.35-.16,57.52.14-.71,1.39-2.03,1.88-3.51,1.61-7.34-.39-14.68-.18-22.01.03-58.02-.37-115.99.02-174-.24-12.32.35-24.65-.32-36.96.23-13.65-.63-27.31.51-40.96-.16-18.37-.35-36.73.29-55.1.2-8,.2-15.98-.64-23.97-.18-2.75.09-5.75.66-8.14-1.06Z"/>
  </g>
  <g id="_x23_ced3d2ff">
    <path class="st67" d="M1029.64,212.33c.63-1.24,1.38-2.42,2.15-3.59l.08.8c1.25,9.1.34,18.27.61,27.41-.05,33.01.22,66.04.07,99.06-.14,8.34.53,16.76-.95,25.02-.48,2.85-1.59,5.75-3.97,7.54-4.88,4.08-11.67,3.68-17.62,3.48-6.98-.49-13.96.12-20.94.21-44.03-.21-88.07.13-132.09-.32-22.65.46-45.31.06-67.97.13-16.33.17-32.67.32-49-.12-25.66.27-51.33.51-76.98.06-4.61.24-9.3-.01-13.55-1.98.03-.61.08-1.84.1-2.45,2.42.39,4.88.63,7.35.65,116.69-.03,233.38,0,350.08-.01,3.76.05,7.57-.02,11.27-.84,6.67-2.55,11.31-9.21,11.27-16.38.19-46.22-.1-92.45.09-138.67Z"/>
  </g>
  <g id="_x23_b80808ff">
    <path class="st70" d="M711.33,210.38c1.69-.63,3.7.15,4.45,1.82,8.21,14.78,16.39,29.57,24.66,44.32.98,1.77,2.01,3.98.97,5.98-.9,1.57-2.91,1.06-4.38,1.23-16.7.09-33.4-.06-50.09.02-2.82.38-4.67-3.35-2.88-5.51,8.04-14.69,15.96-29.45,24.1-44.09.92-1.31,1.5-3.24,3.17-3.77M690,258.29c14.99.13,30,.24,45-.05-6.92-14-15.04-27.35-22.29-41.17-7.76,13.64-15.27,27.41-22.71,41.22Z"/>
  </g>
  <g id="_x23_e1e4e6ff">
    <path class="st21" d="M1031.87,209.54c5.27,6.79,1.71,15.7,2.55,23.47.81,6.02-.15,12.06.01,18.1.5,28.63.53,57.27.35,85.9.16,8.23.31,16.55-1.12,24.69-1.74,8.8-11.56,12.95-19.61,13.59-118.67-.06-237.36-.01-356.03,0-7.59.22-14.84-4.6-17.92-11.48-.77-1.09-.05-2.35.02-3.5,2.29,3.35,5.6,5.95,9.46,7.26-.02.61-.07,1.84-.1,2.45,4.25,1.97,8.94,2.22,13.55,1.98,25.65.45,51.32.21,76.98-.06,16.33.44,32.67.29,49,.12,22.66-.07,45.32.33,67.97-.13,44.02.45,88.06.11,132.09.32,6.98-.09,13.96-.7,20.94-.21,5.95.2,12.74.6,17.62-3.48,2.38-1.79,3.49-4.69,3.97-7.54,1.48-8.26.81-16.68.95-25.02.15-33.02-.12-66.05-.07-99.06-.27-9.14.64-18.31-.61-27.41Z"/>
  </g>
  <g id="_x23_fdfafbff">
    <path class="st33" d="M690,258.29c7.44-13.81,14.95-27.58,22.71-41.22,7.25,13.82,15.37,27.17,22.29,41.17-15,.29-30.01.18-45,.05M709.35,228.37c.08,5.79,1.11,11.51,1.14,17.31,1.28-.02,2.57-.03,3.87-.05.23-5.82,1.23-11.59,1.2-17.42-2.06-.61-4.19-.47-6.21.16M710.68,248.37c-.63,1.6-1.84,3.66-.1,5.05,1.27,2.19,3.54.32,4.82-.8.02-.58.07-1.74.09-2.32-1.21-1.56-2.88-2.12-4.81-1.93Z"/>
  </g>
  <g id="_x23_3b52c7ff">
    <path class="st36" d="M579.48,227.47c15.74,6.59,31.39,13.43,46.96,20.45-14.95,7.9-30.4,14.87-45.39,22.73.22-4.79.56-9.57.96-14.34-44.58,3.76-88.88,15.24-128.61,36.11-25.94,14.08-50.29,32.37-67.23,56.88-4.98-.04-9.97-.07-14.95-.04,10.78-18.54,25.86-34.26,42.71-47.39,37.07-28.14,81.71-44.83,127.06-53.9,13.48-2.53,27.08-4.48,40.74-5.72-.83-4.92-1.79-9.82-2.25-14.78Z"/>
    <path class="st36" d="M1042.53,235.49c42.09-.15,84.44,6.41,123.84,21.5l-.19.17c-1.59,1.43-3.17,2.87-4.76,4.29,2.65,1.92,5.26,3.9,7.79,6-2.14,1.24-4.42,2.38-6.94,2.53-38.03-14.95-79.04-21.53-119.79-21.58-.01-4.3.03-8.61.05-12.91Z"/>
    <path class="st36" d="M1232.18,295.58c3.29-4.16,6.41-8.47,9.89-12.48,5.96,17.81,11.44,35.78,16.74,53.8-16.24-6.93-31.95-15.04-48.51-21.2,3.52-3.48,7.8-6.38,11.62-9.64-3.8-3.06-7.57-6.18-11.44-9.15,2.38-5.11,8.7-5.54,13.09-8.17,2.9,2.24,5.74,4.55,8.61,6.84Z"/>
    <path class="st36" d="M1338.88,493.53c4.37-.04,8.74-.24,13.12-.22l.26.02c.3,6.03.25,12.09,1.15,18.08,3.91-.36,7.83-.64,11.76-.79-6.39,9.24-13.19,18.21-19.13,27.76h-.14c-5.15-9.79-12.21-18.47-18.03-27.87,3.96.4,7.93.82,11.92,1.07-.07-6.03-.17-12.07-.91-18.05Z"/>
    <path class="st36" d="M263.08,538.4c3.29,0,6.58-.29,9.79-1.01,5.28,9.23,11.21,18.06,16.29,27.4-4.56-.34-9.09-.96-13.63-1.45,2.51,37.64,19.24,72.84,40.98,103.12,8.44,11.89,18.07,22.86,27.64,33.85-5.69-.03-11.38.09-17.06.12-22.22-24.54-41.73-52.15-53.48-83.3-6.7-16.93-10.6-34.91-12.21-53.03-4.39.59-8.76,1.26-13.16,1.74,4.97-9.13,9.59-18.46,14.84-27.44Z"/>
    <path class="st36" d="M1326.41,695.44c3.95.15,7.91.1,11.88.03-.13.62-.39,1.85-.52,2.47-5.55,27.37-19.72,52.93-40,72.12,2.99,2.94,6.03,5.84,8.99,8.83-12.91,2.58-25.83,5.11-38.79,7.41,5.4-11.63,9.95-23.62,14.96-35.41,2.46,3.3,4.89,6.63,7.2,10.06,18.53-17.38,30.83-40.81,36.28-65.51Z"/>
    <path class="st36" d="M664.29,800.16c15.02-5.15,30.03-10.33,45.15-15.2-.82,4.95-2.01,9.82-3.12,14.71,30.47,5.94,61.71,9.34,92.74,6.59,12.62-.71,25.04-3.2,37.48-5.33.03,4.72.1,9.45,0,14.19-5.6.72-11.08,2.14-16.64,3.04-28.1,4.12-56.72,4.27-84.88.63-10.34-.95-20.44-3.4-30.7-4.8-.02,4.98-.06,9.98-.75,14.93-12.98-9.74-26.06-19.35-39.28-28.76Z"/>
  </g>
  <g id="_x23_bd0806ff">
    <path class="st73" d="M709.35,228.37c2.02-.63,4.15-.77,6.21-.16.03,5.83-.97,11.6-1.2,17.42-1.3.02-2.59.03-3.87.05-.03-5.8-1.06-11.52-1.14-17.31Z"/>
  </g>
  <g id="_x23_bf0609ff">
    <path class="st84" d="M710.68,248.37c1.93-.19,3.6.37,4.81,1.93-.02.58-.07,1.74-.09,2.32-1.28,1.12-3.55,2.99-4.82.8-1.74-1.39-.53-3.45.1-5.05Z"/>
  </g>
  <g id="_x23_3457c9ff">
    <path class="st53" d="M1161.42,261.45c1.59-1.42,3.17-2.86,4.76-4.29,20.55,7.64,39.76,18.61,57.39,31.58-4.39,2.63-10.71,3.06-13.09,8.17-14.66-11.27-31.17-19.87-48.21-26.93,2.52-.15,4.8-1.29,6.94-2.53-2.53-2.1-5.14-4.08-7.79-6Z"/>
  </g>
  <g id="_x23_0549afff">
    <path class="st48" d="M1076.39,349.39c5.76-4.04,13.08-2.45,19.64-2.73,114.34.03,228.68.03,343.02.02,6.14-.07,12.07,3.73,14.69,9.27,1.37,4.92,1.08,10.07,1.09,15.12-.03,31.97-.04,63.95.03,95.92-.07,4.05.28,8.19-.7,12.16-1.14,4.36-4.86,7.33-8.65,9.37-1.96-.56-3.87-1.13-5.82-1.59,7.1-.25,12.82-6.95,12.63-13.91.04-36.68.08-73.37,0-110.05.07-4.99-2.77-9.9-7.26-12.12-3.07-1.7-6.67-1.4-10.03-1.45-116.64.01-233.27-.07-349.9.01-7.19-.21-13,6.57-12.87,13.52-.06,36.03.01,72.05-.04,108.08-.62,5.8,2.1,11.64,7.25,14.52-.71.38-2.11,1.13-2.81,1.5l-.3-.13c-4.49-3.03-6.83-8.61-6.82-13.91.03-36.67.08-73.33.03-109.99-.12-5.27,2.15-10.85,6.82-13.61Z"/>
    <path class="st48" d="M1106.49,379.03c2.15,4.22,3.07,8.88,4.39,13.4,1.19-4.08,2-8.29,3.56-12.25.23.01.67.05.9.06,1.19,2.56,1.83,5.33,2.52,8.06,3.17.04,6.36.02,9.53.32-2.89,2.62-7.16,1.21-10.7,1.77-.64-1.77-1.23-3.54-1.85-5.3-1.48,4.5-1.7,9.56-4.07,13.67-1.75-4.33-2.54-8.96-4.13-13.34-.6,1.59-1.11,3.22-1.61,4.85-2.85-.05-5.7-.09-8.53-.09l-.09-1.8c2.37-.05,4.77-.07,7.17-.06,1.03-3.08,1.95-6.19,2.91-9.29Z"/>
  </g>
  <g id="_x23_fefefeff">
    <path class="st80" d="M1072.26,362.93c-.13-6.95,5.68-13.73,12.87-13.52,116.63-.08,233.26,0,349.9-.01,3.36.05,6.96-.25,10.03,1.45,4.49,2.22,7.33,7.13,7.26,12.12.08,36.68.04,73.37,0,110.05.19,6.96-5.53,13.66-12.63,13.91-117.93-.25-235.87.01-353.8-.12-2.21-.03-4.37-.54-6.42-1.28-5.15-2.88-7.87-8.72-7.25-14.52.05-36.03-.02-72.05.04-108.08M1102.34,365.33c-12.34,5.27-17.55,21.5-12.1,33.42,3.38,8.28,11.76,14.35,20.75,14.61,5.27.19,10.33-1.84,14.63-4.75,1.65-.99,2.68,1.49,3.91,2.21-.14,1.63-.61,3.51.9,4.68,4.24,4.42,8.26,9.08,12.64,13.37,4.26,3.68,11.04-3.21,7.34-7.43-4.61-5.16-9.25-10.33-14.21-15.16-.78.17-2.35.52-3.13.69-.84-1.07-1.68-2.14-2.49-3.2,2.81-4.78,4.92-10.18,4.82-15.81-.21-7.53-3.37-15.2-9.42-19.89-6.5-5.37-16.07-6.39-23.64-2.74M1163.27,407.51c.06.44.19,1.32.26,1.76,57.28-.08,114.55,0,171.83-.03l.13-1.69c-57.41-.13-114.82-.07-172.22-.04M1347.68,408.39c.06,7.87.15,15.74.09,23.6-.36,6.35.99,12.66.32,19-.65,5.65.49,11.31.14,16.98.17,2.47-.69,5.31.95,7.45.45-6.46.11-12.94.23-19.41-.13-16.34.19-32.69-.14-49.03-.4.35-1.19,1.06-1.59,1.41M1365.3,424.34c-2.25.84-3.58,3.23-3.52,5.57-.02,5.39-.11,10.79,0,16.18-.17,3.33,2.69,6.66,6.18,6.21,22.67.03,45.35-.08,68.02.03,2.53.02,5.58.2,7.33-2.06,1.64-1.65,1.18-4.14,1.31-6.24-.11-4.96-.01-9.93-.14-14.89.04-3.29-3.33-5.69-6.44-5.32-18.35,0-36.7,0-55.04,0-5.89.29-11.91-.66-17.7.52Z"/>
    <path class="st80" d="M857.44,717.74c23.82-.56,47.69-.07,71.53-.2,106-.1,212.01.03,318.01-.03,4.55-.13,9.07,2.19,11.71,5.89,2.29,3.38,2.47,7.63,2.47,11.58,0,41.33.04,82.67-.03,124-.11,3.76-.87,7.8-3.58,10.61-2.86,3.31-7.34,4.73-11.61,4.67-124.66.12-249.33.02-373.99.05-6.3-.37-13.29,1.4-18.92-2.27-4.42-2.71-6.62-8.02-6.42-13.08.07-42.29-.01-84.59-.01-126.88-.32-6.56,4.38-12.95,10.84-14.34M888.47,733.62c-14.15,2.14-24.71,15.42-25.5,29.39-1.85,16.8,11.65,34.16,28.94,34.66,17.43,1.05,32.77-15.48,31.61-32.64.53-17.98-16.84-34.91-35.05-31.41M937.25,769.79c66.9-.15,133.8.05,200.69-.08,2-.44-.58-2.5-1.81-1.85-66.17-.09-132.34-.03-198.51-.04-.09.5-.28,1.48-.37,1.97M1151.45,768.35c.25,31.36-.23,62.72.22,94.07,2.13-.6,1.43-2.81,1.64-4.35-.04-29.91-.03-59.82,0-89.73h-1.86M1168.84,800.77c-.12,5.78-.11,11.57-.09,17.36-.18,1.87,1.1,3.35,1.91,4.93,5.89,2.06,12.23.8,18.33,1.1,13.33-.73,26.69-.32,40.02.04,4.66-.04,9.34,0,13.99-.5,2.8-.02,4.71-3.02,4.49-5.63.02-5.71.1-11.43-.06-17.14.13-1.96-1.42-3.33-2.46-4.77-4.95-.88-9.99-.42-14.97-.51-18.33.09-36.66,0-54.99.03-3.01-.32-6.04,1.99-6.17,5.09Z"/>
  </g>
  <g id="_x23_c1c7cdff">
    <path class="st63" d="M1453.74,355.95c3.39,2,4.61,6.29,4.74,10.01-.09,32.35-.01,64.71.04,97.06-.26,6.81.54,13.7-.35,20.46-3.14,4.86-7.7,10.62-14.15,10.11-22.67-.33-45.34-.07-68.01-.2-7.92-.12-15.84.45-23.75-.06l-.26-.02c-9.91-1.93-20.05-.48-30.02.15-28.66-.06-57.32-.02-85.98-.04-8.65-1.36-17.36,1.07-26-.42-4.67-.97-9.33.28-13.99.43-36.67,0-73.34-.02-110.01.06-4.62.36-8.16-2.95-11.38-5.73l1.74-.86.3.13c5.55,3.4,12.15,2.51,18.33,2.51,112.02.04,224.03-.07,336.04.02,4.82-.05,9.79.44,14.48-1.04,3.79-2.04,7.51-5.01,8.65-9.37.98-3.97.63-8.11.7-12.16-.07-31.97-.06-63.95-.03-95.92-.01-5.05.28-10.2-1.09-15.12Z"/>
  </g>
  <g id="_x23_3c1babff">
    <path class="st20" d="M211.2,361.22c4.87-3.53,11.17-2.57,16.81-2.68,113.31.07,226.63-.01,339.94.05,5.52,0,10.63,3.6,12.87,8.58,1.89,5.05,1.42,10.52,1.47,15.81.04,40.02-.1,80.04.02,120.06-.06,3.54-.51,7.09-1.46,10.51-.61-1.29-1.21-2.57-1.81-3.84.41-1.88.58-3.8.65-5.71.03-43.02-.05-86.04-.04-129.05.14-4.58-2-9.31-6.03-11.66-3.75-2.44-8.39-1.91-12.63-2-113.67.03-227.35-.01-341.03.03-6.23-.12-11.73,4.84-12.45,11-.7-.4-2.08-1.2-2.77-1.6,1.23-3.68,3.09-7.35,6.46-9.5Z"/>
    <path class="st20" d="M281.34,760.45c.34-.69,1.03-2.07,1.37-2.76.89.02,2.68.06,3.57.08.07.72.15,1.45.26,2.19l.33,1.53c-1.9-.09-3.76-.37-5.53-1.04Z"/>
  </g>
  <g id="_x23_074cacff">
    <path class="st79" d="M1102.34,365.33c7.57-3.65,17.14-2.63,23.64,2.74,6.05,4.69,9.21,12.36,9.42,19.89.1,5.63-2.01,11.03-4.82,15.81.81,1.06,1.65,2.13,2.49,3.2.78-.17,2.35-.52,3.13-.69,4.96,4.83,9.6,10,14.21,15.16,3.7,4.22-3.08,11.11-7.34,7.43-4.38-4.29-8.4-8.95-12.64-13.37-1.51-1.17-1.04-3.05-.9-4.68-1.23-.72-2.26-3.2-3.91-2.21-4.3,2.91-9.36,4.94-14.63,4.75-8.99-.26-17.37-6.33-20.75-14.61-5.45-11.92-.24-28.15,12.1-33.42M1105.4,369.63c-4.86,1.99-8.92,5.92-10.89,10.81-3.55,8.63-.52,19.54,7.45,24.63,6.84,4.51,17.11,3.76,22.68-2.49,6.99-7.11,7.61-19.02,1.71-26.97-4.76-6.09-13.68-9.07-20.95-5.98Z"/>
    <path class="st79" d="M1163.27,407.51c57.4-.03,114.81-.09,172.22.04l-.13,1.69c-57.28.03-114.55-.05-171.83.03-.07-.44-.2-1.32-.26-1.76Z"/>
    <path class="st79" d="M1347.68,408.39c.4-.35,1.19-1.06,1.59-1.41.33,16.34.01,32.69.14,49.03-.12,6.47.22,12.95-.23,19.41-1.64-2.14-.78-4.98-.95-7.45.35-5.67-.79-11.33-.14-16.98.67-6.34-.68-12.65-.32-19,.06-7.86-.03-15.73-.09-23.6Z"/>
  </g>
  <g id="_x23_c9cccdff">
    <path class="st62" d="M580.82,367.17c.64.11,1.94.33,2.58.44,2.41,4.42,2.31,9.54,2.82,14.42.84,10.64-.6,21.3.23,31.93-.11,32.36,0,64.73-.03,97.08.36,5.45-4.03,9.42-8.03,12.36-2.5,1.89-5.73,2.12-8.75,2.08-9.22-.29-18.45.31-27.65-.51-6.02.52-12.05.62-18.05-.19-11.93,1.09-23.94.44-35.91.66-4.04.17-8.03-.75-12.06-.63-10.62,1.06-21.36.82-31.98-.2-9.68.05-19.38-.35-29.03.48-7.02-.87-13.99.8-21.03.3-7.33.44-14.62-1.12-21.92-.06-10.63-1.1-21.39-1.11-32.02-.08-4.31-.49-8.61-.46-12.92-.06-7.66-.87-15.38-.66-23.07-.54-7.64.82-15.37,1.32-23.02.35-7.99-.99-16.07-.67-24.03.37-12.64.02-25.29.07-37.93.05-6.56.16-10.46-6.08-13.95-10.72.77-.12,1.53-.24,2.31-.34,3.3,4.7,8.98,6.87,14.59,6.81,13.33.11,26.68.24,40.01-.42,13.01.17,26.03.85,39.04.27,31.32.3,62.64.15,93.95.19,8.69.18,17.37-.56,26.06-.01,48.7-.03,97.41.09,146.11-.01,5.53-.03,10.66-3.11,13.71-7.64.95-3.42,1.4-6.97,1.46-10.51-.12-40.02.02-80.04-.02-120.06-.05-5.29.42-10.76-1.47-15.81Z"/>
  </g>
  <g id="_x23_fbfbfdff">
    <path class="st75" d="M1105.4,369.63c7.27-3.09,16.19-.11,20.95,5.98,5.9,7.95,5.28,19.86-1.71,26.97-5.57,6.25-15.84,7-22.68,2.49-7.97-5.09-11-16-7.45-24.63,1.97-4.89,6.03-8.82,10.89-10.81M1106.49,379.03c-.96,3.1-1.88,6.21-2.91,9.29-2.4-.01-4.8,0-7.17.06l.09,1.8c2.83,0,5.68.04,8.53.09.5-1.63,1.01-3.26,1.61-4.85,1.59,4.38,2.38,9.01,4.13,13.34,2.37-4.11,2.59-9.17,4.07-13.67.62,1.76,1.21,3.53,1.85,5.3,3.54-.56,7.81.85,10.7-1.77-3.17-.3-6.36-.28-9.53-.32-.69-2.73-1.33-5.5-2.52-8.06-.23,0-.67-.05-.9-.06-1.56,3.96-2.37,8.17-3.56,12.25-1.32-4.52-2.24-9.18-4.39-13.4Z"/>
  </g>
  <g id="_x23_492cb6ff">
    <path class="st56" d="M204.74,370.72c.69.4,2.07,1.2,2.77,1.6-.25,42.88.02,85.77-.12,128.65,0,3.17-.18,6.49,1.1,9.48,2.03,4.91,7.29,8.13,12.57,7.97,114.97-.07,229.95.09,344.92-.09,5.8.44,10.76-3.56,13.06-8.62.6,1.27,1.2,2.55,1.81,3.84-3.05,4.53-8.18,7.61-13.71,7.64-48.7.1-97.41-.02-146.11.01-8.69-.55-17.37.19-26.06.01-31.31-.04-62.63.11-93.95-.19-13.01.58-26.03-.1-39.04-.27-13.33.66-26.68.53-40.01.42-5.61.06-11.29-2.11-14.59-6.81-1.9-2.71-2.69-6.07-2.68-9.34.07-44.77-.17-89.54.04-134.3Z"/>
  </g>
  <g id="_x23_4b29b6ff">
    <path class="st35" d="M253.79,388.71c1.45-2.8.92-6.45,2.89-8.94,3.11-.29,6.23-.11,9.34.01.47,2.97,1.08,5.91,1.62,8.86,3.05,1.05,5.92,2.71,9.12,3.26,2.32-1.25,4.34-2.95,6.44-4.53,2.59,2.43,5.05,4.99,7.41,7.64-1.52,2.34-3.24,4.58-4.44,7.12.83,3.43,2.5,6.58,3.59,9.93,2.69.43,5.35,1,8,1.64.07,3.66.06,7.32-.11,10.98-2.64.6-5.27,1.25-7.9,1.91-.89,3.32-2.35,6.44-3.52,9.66,1.07,2.55,2.91,4.68,4.44,6.96-2.35,2.84-4.82,5.57-7.43,8.17-2.18-1.82-4.36-3.62-6.52-5.46-2.92,1.52-6,2.67-8.97,4.07-.8,3.07-1.33,6.22-2.16,9.29-3.07-.06-6.13-.06-9.2,0-.85-2.99-1.57-6.02-1.94-9.11-3.25-1.15-6.39-2.6-9.39-4.27-2.25,1.8-4.52,3.57-6.82,5.3-2.39-2.48-4.97-4.79-7.03-7.56.97-2.75,2.93-5,4.47-7.43-1.67-3.11-2.86-6.44-3.79-9.83-2.76-.59-5.53-1.16-8.28-1.8,0-3.58,0-7.15.09-10.72,2.73-.59,5.45-1.2,8.19-1.73.8-3.39,2.4-6.47,3.71-9.67-1.32-2.57-2.98-4.95-4.49-7.41,2.31-2.62,4.67-5.18,7.09-7.68,2.47,1.71,4.92,3.44,7.39,5.15,2.66-1.43,5.47-2.52,8.2-3.81M258.69,394.96c-14.84,1.22-24.9,18.43-19.58,32.11,3.37,12.54,18.77,20.75,30.76,14.79,14.85-6.19,18.74-28.08,7.79-39.5-4.66-5.28-11.95-8.32-18.97-7.4Z"/>
  </g>
  <g id="_x23_fcfbfdff">
    <path class="st39" d="M258.69,394.96c7.02-.92,14.31,2.12,18.97,7.4,10.95,11.42,7.06,33.31-7.79,39.5-11.99,5.96-27.39-2.25-30.76-14.79-5.32-13.68,4.74-30.89,19.58-32.11M267.11,408.52c.02.97.13,1.93.33,2.89.64.22,1.9.67,2.53.89-2.51,3.19-5.21,6.23-8.02,9.17-1.95-2.25-3.97-4.43-6.02-6.58-4.07,4.04-7.77,8.42-11.93,12.37.88,1.1,1.85,2.12,2.76,3.22,2.9-3.27,5.9-6.44,9.06-9.46,2.1,2.24,4.19,4.51,6.27,6.79,3.56-4.03,7.12-8.06,10.89-11.9,1.02.99,1.49,3.12,3.4,2.58.63-3.34.42-6.74.48-10.11-3.25.02-6.5.06-9.75.14Z"/>
  </g>
  <g id="_x23_4e2bb7ff">
    <path class="st29" d="M267.11,408.52c3.25-.08,6.5-.12,9.75-.14-.06,3.37.15,6.77-.48,10.11-1.91.54-2.38-1.59-3.4-2.58-3.77,3.84-7.33,7.87-10.89,11.9-2.08-2.28-4.17-4.55-6.27-6.79-3.16,3.02-6.16,6.19-9.06,9.46-.91-1.1-1.88-2.12-2.76-3.22,4.16-3.95,7.86-8.33,11.93-12.37,2.05,2.15,4.07,4.33,6.02,6.58,2.81-2.94,5.51-5.98,8.02-9.17-.63-.22-1.89-.67-2.53-.89-.2-.96-.31-1.92-.33-2.89Z"/>
  </g>
  <g id="_x23_3f17b2ff">
    <path class="st59" d="M311.62,415.82c81.12-.46,162.25,0,243.38-.21,4.4.13,8.83-.25,13.22.26.42.31,1.27.94,1.69,1.25-21.96.61-43.96.11-65.94.3-58.98,0-117.96-.02-176.93,0-4.73-.13-9.47.19-14.19-.17-.31-.36-.92-1.07-1.23-1.43Z"/>
  </g>
  <g id="_x23_034daeff">
    <path class="st78" d="M1365.3,424.34c5.79-1.18,11.81-.23,17.7-.52,18.34,0,36.69,0,55.04,0,3.11-.37,6.48,2.03,6.44,5.32.13,4.96.03,9.93.14,14.89-.13,2.1.33,4.59-1.31,6.24-1.75,2.26-4.8,2.08-7.33,2.06-22.67-.11-45.35,0-68.02-.03-3.49.45-6.35-2.88-6.18-6.21-.11-5.39-.02-10.79,0-16.18-.06-2.34,1.27-4.73,3.52-5.57Z"/>
  </g>
  <g id="_x23_0d47a3ff">
    <path class="st0" d="M1076.66,487.03c.7-.37,2.1-1.12,2.81-1.5,2.05.74,4.21,1.25,6.42,1.28,117.93.13,235.87-.13,353.8.12,1.95.46,3.86,1.03,5.82,1.59-4.69,1.48-9.66.99-14.48,1.04-112.01-.09-224.02.02-336.04-.02-6.18,0-12.78.89-18.33-2.51Z"/>
  </g>
  <g id="_x23_2f48b9ff">
    <path class="st83" d="M263.08,538.4c1.63-3.01,3.3-6,4.98-8.98,1.75,2.57,3.38,5.21,4.81,7.97-3.21.72-6.5,1.01-9.79,1.01Z"/>
  </g>
  <g id="_x23_d94700ff">
    <path class="st26" d="M1068.72,538.41c92.39.01,184.78.03,277.18-.03h.14c40.36.24,80.73-.21,121.09.23l-.61.34c-1.07.6-2.15,1.17-3.2,1.73-130.97.19-261.94-.06-392.91.13-.42-.6-1.27-1.8-1.69-2.4Z"/>
  </g>
  <g id="_x23_e0540aff">
    <path class="st45" d="M1055.39,553.92c-.11-7.58,5.89-14.37,13.33-15.51.42.6,1.27,1.8,1.69,2.4-5.81.98-11.39,5.26-12.13,11.4-.82,9.56-.03,19.18-.39,28.76.14,30.7-.17,61.39.2,92.08-.02,3.05.29,6.26,1.99,8.91,1.5,2.41,3.96,3.96,6.24,5.56l-.68,2.18c-1.63-.76-3.19-1.66-4.7-2.6-1.03-.97-1.91-2.06-2.75-3.16-2.83-3.7-3.02-8.54-2.86-12.99.1-39.01-.07-78.02.06-117.03Z"/>
  </g>
  <g id="_x23_e85c08ff">
    <path class="st40" d="M1463.32,540.68c1.05-.56,2.13-1.13,3.2-1.73,5.99,1.1,10.8,6.35,11.71,12.33.31,30.9.05,61.81.15,92.72-.26,12.03.47,24.09-.56,36.1-2.24,4.66-5.93,8.63-10.94,10.27-.58-.62-1.14-1.23-1.69-1.83.82-.47,1.65-.92,2.5-1.38,5.04-2.33,8.26-7.65,7.96-13.21.1-39.65-.03-79.31.02-118.97.38-7.2-5.56-13.05-12.35-14.3Z"/>
  </g>
  <g id="_x23_fefeffff">
    <path class="st68" d="M1058.28,552.21c.74-6.14,6.32-10.42,12.13-11.4,130.97-.19,261.94.06,392.91-.13,6.79,1.25,12.73,7.1,12.35,14.3-.05,39.66.08,79.32-.02,118.97.3,5.56-2.92,10.88-7.96,13.21-4.39,1.63-9.11,1.2-13.68,1.24-121.32-.06-242.64.06-363.95-.04-7.92-.33-15.93.76-23.74-.84-2.28-1.6-4.74-3.15-6.24-5.56-1.7-2.65-2.01-5.86-1.99-8.91-.37-30.69-.06-61.38-.2-92.08.36-9.58-.43-19.2.39-28.76M1079.97,569.93c-2.16.54-4.61.35-6.47,1.72-1.09,16.05-.41,33.41,8.66,47.32,5.67,8.78,14.26,15.48,23.67,19.83,4.87-2.15,9.22-5.33,13.48-8.48,7.87-6.47,13.64-15.52,16.25-25.36,3.17-11.06,2.44-22.72,2.01-34.07-11.52-1.41-22.89-5.47-31.8-13.07-7.55,5.88-16.26,10.59-25.8,12.11M1149.95,587.35c-.39,1.68,1.95,1.64,3.01,1.76,70.35-.05,140.69,0,211.04.02,1.44.14,2.9-.01,3.34-1.64-15.77-.31-31.54-.06-47.3-.17-56.7.06-113.39,0-170.09.03M1380.61,587.36c.02,29.66-.04,59.32.01,88.98l1.6-.1c.25-29.58.03-59.15.12-88.73l-1.73-.15M1391.35,624.97c-.11,6.29-.24,12.61.01,18.9.13,3.31,3.8,4.56,6.63,4.23,22.03-.47,44.06.17,66.09-.21,1.77.12,3.74-.56,4.53-2.29,2.11-4.95,1.23-10.45,1.45-15.67.23-3.52-1.15-6.94-3.53-9.48-23.18-.27-46.36-.02-69.54-.1-2.75-.41-5.86,1.65-5.64,4.62Z"/>
  </g>
  <g id="_x23_d6d6d9ff">
    <path class="st77" d="M1478.23,551.28c1.56,1.56,3.62,3.18,3.32,5.69-.03,38.99.04,77.99.01,116.99-.16,5.09.89,10.86-2.31,15.26-3.32,4.44-9.12,6.62-14.55,6.27-23.88-.3-47.77.01-71.65-.13-17.71.12-35.43-.26-53.14.26-.73.76-1.45,1.54-2.14,2.32.13-.62.39-1.85.52-2.47-3.97.07-7.93.12-11.88-.03-85.47,0-170.96-.05-256.43.04-6.05.67-9.37-5.27-12.56-9.34.19-.55.58-1.65.77-2.2.84,1.1,1.72,2.19,2.75,3.16,3.89,3.92,9.58,5.59,15.01,5.24,12.31-1.18,24.69-.6,37.04-.74,57.66-.02,115.33.03,172.99.02,18,.22,36.02-.43,54.01.55,12.65-.9,25.33-.51,38-.49,25.34-.08,50.68.16,76.02-.09,7.06-.23,15.27,3.06,21.28-2.2,3.1-2.12,3.18-5.96,2.53-9.29,1.03-12.01.3-24.07.56-36.1-.1-30.91.16-61.82-.15-92.72Z"/>
  </g>
  <g id="_x23_de630bff">
    <path class="st69" d="M1079.97,569.93c9.54-1.52,18.25-6.23,25.8-12.11,8.91,7.6,20.28,11.66,31.8,13.07.43,11.35,1.16,23.01-2.01,34.07-2.61,9.84-8.38,18.89-16.25,25.36-4.26,3.15-8.61,6.33-13.48,8.48-9.41-4.35-18-11.05-23.67-19.83-9.07-13.91-9.75-31.27-8.66-47.32,1.86-1.37,4.31-1.18,6.47-1.72M1077.87,575.24c.06,5.94.2,11.89.4,17.83,1.2,12.53,6.78,24.93,16.65,33.02,3.39,2.64,6.8,5.93,11.11,6.83,9.94-4.73,18.61-12.89,22.77-23.22,4.9-10.75,4.54-22.87,4.6-34.43-10.02-1.21-19.25-5.65-27.57-11.16-8.34,5.73-17.89,9.79-27.96,11.13Z"/>
    <path class="st69" d="M1149.95,587.35c56.7-.03,113.39.03,170.09-.03,15.76.11,31.53-.14,47.3.17-.44,1.63-1.9,1.78-3.34,1.64-70.35-.02-140.69-.07-211.04-.02-1.06-.12-3.4-.08-3.01-1.76Z"/>
  </g>
  <g id="_x23_fdfcfbff">
    <path class="st51" d="M1077.87,575.24c10.07-1.34,19.62-5.4,27.96-11.13,8.32,5.51,17.55,9.95,27.57,11.16-.06,11.56.3,23.68-4.6,34.43-4.16,10.33-12.83,18.49-22.77,23.22-4.31-.9-7.72-4.19-11.11-6.83-9.87-8.09-15.45-20.49-16.65-33.02-.2-5.94-.34-11.89-.4-17.83M1099.05,580.08c-3.1,2.78-3.05,7.19-3.45,11-1.1.96-3.26,1.19-3.26,3-.41,5.63-.15,11.29-.17,16.94-.08,1.29.19,3.46,1.9,3.51,7.31.33,14.66.06,22,.04,1.61.22,3.41-.82,3.37-2.6.29-6.12.05-12.26-.02-18.38-.37-.43-1.1-1.28-1.46-1.71-.59-.11-1.76-.32-2.34-.43-.11-3.44.17-7.21-1.94-10.16-3.16-4.76-10.67-5.19-14.63-1.21Z"/>
  </g>
  <g id="_x23_db6203ff">
    <path class="st82" d="M1099.05,580.08c3.96-3.98,11.47-3.55,14.63,1.21,2.11,2.95,1.83,6.72,1.94,10.16.58.11,1.75.32,2.34.43.36.43,1.09,1.28,1.46,1.71.07,6.12.31,12.26.02,18.38.04,1.78-1.76,2.82-3.37,2.6-7.34.02-14.69.29-22-.04-1.71-.05-1.98-2.22-1.9-3.51.02-5.65-.24-11.31.17-16.94,0-1.81,2.16-2.04,3.26-3,.4-3.81.35-8.22,3.45-11M1101.88,582.88c-2.59,2.12-1.74,5.84-1.74,8.76,3.88-.03,7.76-.03,11.65-.07-.15-2.24.01-4.54-.58-6.71-1.55-3.36-6.6-4.72-9.33-1.98M1102.54,601.86c.95,2.35,1.15,4.87.94,7.4,1.4.01,2.81.02,4.25.05-.28-3.02.14-6,1.85-8.55-.85-1.05-1.69-2.1-2.67-2.99-2.32-1.28-5.53,1.66-4.37,4.09Z"/>
  </g>
  <g id="_x23_fdf9f7ff">
    <path class="st44" d="M1101.88,582.88c2.73-2.74,7.78-1.38,9.33,1.98.59,2.17.43,4.47.58,6.71-3.89.04-7.77.04-11.65.07,0-2.92-.85-6.64,1.74-8.76Z"/>
    <path class="st44" d="M293.62,724.94c1.07.83,2.24,1.43,3.45,2.06-1.28.53-2.49,1.21-3.73,1.81.06-1.3.16-2.59.28-3.87Z"/>
  </g>
  <g id="_x23_e47526ff">
    <path class="st50" d="M1380.61,587.36l1.73.15c-.09,29.58.13,59.15-.12,88.73l-1.6.1c-.05-29.66.01-59.32-.01-88.98Z"/>
  </g>
  <g id="_x23_fefefdff">
    <path class="st60" d="M1102.54,601.86c-1.16-2.43,2.05-5.37,4.37-4.09.98.89,1.82,1.94,2.67,2.99-1.71,2.55-2.13,5.53-1.85,8.55-1.44-.03-2.85-.04-4.25-.05.21-2.53.01-5.05-.94-7.4Z"/>
  </g>
  <g id="_x23_db6006ff">
    <path class="st47" d="M1391.35,624.97c-.22-2.97,2.89-5.03,5.64-4.62,23.18.08,46.36-.17,69.54.1,2.38,2.54,3.76,5.96,3.53,9.48-.22,5.22.66,10.72-1.45,15.67-.79,1.73-2.76,2.41-4.53,2.29-22.03.38-44.06-.26-66.09.21-2.83.33-6.5-.92-6.63-4.23-.25-6.29-.12-12.61-.01-18.9Z"/>
  </g>
  <g id="_x23_a6aaa9ff">
    <path class="st24" d="M1466.88,690.37c5.01-1.64,8.7-5.61,10.94-10.27.65,3.33.57,7.17-2.53,9.29-6.01,5.26-14.22,1.97-21.28,2.2-25.34.25-50.68,0-76.02.09-12.67-.02-25.35-.41-38,.49-17.99-.98-36.01-.33-54.01-.55-57.66.01-115.33-.04-172.99-.02-12.35.14-24.73-.44-37.04.74-5.43.35-11.12-1.32-15.01-5.24,1.51.94,3.07,1.84,4.7,2.6,5.65,1.57,11.57.76,17.36.91,109.68-.04,219.35.01,329.03,0,18.28-.18,36.58.3,54.85-.24Z"/>
  </g>
  <g id="_x23_eb4f00ff">
    <path class="st27" d="M1454.01,688.4c4.57-.04,9.29.39,13.68-1.24-.85.46-1.68.91-2.5,1.38.55.6,1.11,1.21,1.69,1.83-18.27.54-36.57.06-54.85.24-109.68.01-219.35-.04-329.03,0-5.79-.15-11.71.66-17.36-.91l.68-2.18c7.81,1.6,15.82.51,23.74.84,121.31.1,242.63-.02,363.95.04Z"/>
  </g>
  <g id="_x23_431cb7ff">
    <path class="st86" d="M258.95,711.98c5.3-3.7,12.04-2.3,18.08-2.53,122,.09,244.01.01,366.02.07,7.05.18,13.39,5.87,14.68,12.76.19,45.8-.28,91.6.11,137.39-.88,4.97-3.11,9.82-7.39,12.72-.1-1.04-.19-2.07-.26-3.09,3.11-2.92,5.26-6.97,5.21-11.29.15-41.02-.13-82.03-.05-123.04-.03-3.67.18-7.35-.18-10.99-.57-6.08-5.91-11.59-12.12-11.69-19.02-.34-38.06.31-57.06-.5-23.99.82-48,.27-72.01.4-6.32-.38-12.65-.45-18.97-.02-56.99.09-113.98-.01-170.97.05-10.02-.14-20.04.23-30.05-.14-6.67-.63-13.33.43-20.01.16-3.62.06-7.36-.39-10.87.74-5.39,1.72-8.97,7.36-8.88,12.92-.09,36.85.12,73.71-.13,110.56-2.08-9.66.7-19.74-2.26-29.24-.67-26.7-.02-53.48-.34-80.21-.34-5.88,2.36-11.91,7.45-15.03Z"/>
  </g>
  <g id="_x23_0f7d28ff">
    <path class="st37" d="M846.06,723.05c2.81-5.38,9.02-8.13,14.9-8.18,125.99,0,251.99,0,377.99-.02,5.47.09,11.32-.67,16.36,1.98,3.89,1.81,6.36,5.61,7.77,9.53.93,10.18.14,20.44.41,30.66.11,32.01-.02,64.03.04,96.04-.04,5.66.71,11.81-2.54,16.83-2.68,5.01-8.58,7.08-13.99,6.76-128.69,0-257.38.02-386.06,0-4.85.39-9.32-1.96-12.84-5.09-2.66-3.23-4.1-7.4-3.88-11.59-.03-40.99,0-81.98-.02-122.98.1-4.67-.63-9.72,1.86-13.95M857.44,717.74c-6.46,1.39-11.16,7.78-10.84,14.34,0,42.29.08,84.59.01,126.88-.2,5.06,2,10.37,6.42,13.08,5.63,3.67,12.62,1.9,18.92,2.27,124.66-.03,249.33.07,373.99-.05,4.27.06,8.75-1.36,11.61-4.67,2.71-2.81,3.47-6.85,3.58-10.61.07-41.33.03-82.67.03-124,0-3.95-.18-8.2-2.47-11.58-2.64-3.7-7.16-6.02-11.71-5.89-106,.06-212.01-.07-318.01.03-23.84.13-47.71-.36-71.53.2Z"/>
  </g>
  <g id="_x23_d0d0d4ff">
    <path class="st85" d="M657.73,720.59c2.58,2.41,3.95,5.82,3.77,9.36-.21,45.05.07,90.1-.06,135.15-1.23,8.59-10.44,15.24-19.01,13.1,1.9-.63,3.78-1.34,5.67-2.01,3.4-1.21,7.27-2.45,9.14-5.81,2.2-3.21,1.01-7.18.6-10.71-.39-45.79.08-91.59-.11-137.39v-1.69Z"/>
  </g>
  <g id="_x23_4c2fb3ff">
    <path class="st65" d="M290.74,723.56c1.61-.77,3.36-1.68,5.2-1.11,1.88.4,2.34,2.54,3.12,4.01,1.42.34,2.87.61,4.32.9,0,2.35-.02,4.7-.06,7.05-5.98.34-11.97.16-17.96.01-.08-2.38-.31-4.76,0-7.12,1.32-.76,2.94-.59,4.41-.84.33-.97.65-1.94.97-2.9M293.62,724.94c-.12,1.28-.22,2.57-.28,3.87,1.24-.6,2.45-1.28,3.73-1.81-1.21-.63-2.38-1.23-3.45-2.06Z"/>
  </g>
  <g id="_x23_4c29b6ff">
    <path class="st55" d="M305.46,727.8c3.25.36,7.75-1.19,9.81,2.23.48,8.58.05,17.19.2,25.79-1.02-.07-3.05-.2-4.07-.27-.04-7.81.03-15.62.04-23.43-2.09-.11-4.16-.25-6.24-.41.08-1.31.16-2.62.26-3.91Z"/>
  </g>
  <g id="_x23_d4d3d5ff">
    <path class="st43" d="M1263.08,726.36c1.26.86,3.01,1.51,3.31,3.25,1.55,5.28,1.32,10.91.7,16.33-.59,4.66.49,9.32.32,13.99.09,31.38-.04,62.76.05,94.14-.23,6.55,1.2,13.9-2.65,19.69-2.94,3.01-6.34,6.59-10.8,6.85-132.01-.12-264.03-.02-396.03-.02-4.76.04-9.53-4.27-9.88-9.02,3.52,3.13,7.99,5.48,12.84,5.09,128.68.01,257.37,0,386.06,0,5.41.32,11.31-1.75,13.99-6.76,3.25-5.02,2.5-11.17,2.54-16.83-.06-32.01.07-64.03-.04-96.04-.27-10.22.52-20.48-.41-30.66Z"/>
  </g>
  <g id="_x23_4b29b5ff">
    <path class="st64" d="M273.6,729.77c2.33-2.88,6.62-1.24,9.81-1.66v3.67c-1.99,0-3.98-.07-5.96-.05-.39,14.35-.19,28.7-.2,43.06,7.32-.09,14.64.09,21.96-.15.81,1.49,1.59,2.99,2.42,4.48-7.9.04-15.8.19-23.7.1-2.36.25-4.96-1.57-4.66-4.11-.07-12.05.07-24.09-.08-36.13.09-3.07-.29-6.21.41-9.21Z"/>
  </g>
  <g id="_x23_1a832fff">
    <path class="st49" d="M888.47,733.62c18.21-3.5,35.58,13.43,35.05,31.41,1.16,17.16-14.18,33.69-31.61,32.64-17.29-.5-30.79-17.86-28.94-34.66.79-13.97,11.35-27.25,25.5-29.39M885.43,739.59c-4.79,1.66-8.91,4.92-12.01,8.89-8.13,10.15-7.54,26.15,1.4,35.61,4.97,5.65,12.56,8.96,20.1,8.48,7.48-.64,14.6-4.74,18.81-10.97,7.99-11.16,6.08-27.96-4.28-37-6.39-5.66-15.9-7.85-24.02-5.01Z"/>
  </g>
  <g id="_x23_fbfcfdff">
    <path class="st22" d="M885.43,739.59c8.12-2.84,17.63-.65,24.02,5.01,10.36,9.04,12.27,25.84,4.28,37-4.21,6.23-11.33,10.33-18.81,10.97-7.54.48-15.13-2.83-20.1-8.48-8.94-9.46-9.53-25.46-1.4-35.61,3.1-3.97,7.22-7.23,12.01-8.89M904.87,753.77c-5.3,5.53-10.36,11.28-15.5,16.96-2.48-2.45-4.69-5.21-7.43-7.38-2.15-.49-2.97,2.04-4.25,3.25,3.94,3.93,7.73,8,11.48,12.11,7.14-7.3,13.98-14.92,20.54-22.75-1.29-1.07-3.08-4.26-4.84-2.19Z"/>
  </g>
  <g id="_x23_5433b3ff">
    <path class="st30" d="M281.72,741.28c1.61-.09,3.23-.05,4.84-.1-.07,1.07-.13,2.14-.2,3.22-1.53-.02-3.06-.03-4.58-.04-.02-1.04-.04-2.06-.06-3.08Z"/>
  </g>
  <g id="_x23_4423aeff">
    <path class="st81" d="M289.41,741.33c5.75-.05,11.5-.06,17.25.01-.01.98-.04,1.98-.08,2.98-5.7-.01-11.4.09-17.09.02-.02-1.01-.05-2.02-.08-3.01Z"/>
  </g>
  <g id="_x23_5736bbff">
    <path class="st66" d="M281.83,749.77c1.49-.07,2.98-.11,4.48-.14.23,1.05.4,2.12.52,3.21-1.81.3-3.61.23-5.38-.21.1-.97.23-1.92.38-2.86Z"/>
    <path class="st66" d="M335.85,762.67c3.7-.47,7.44-.33,11.17-.3,82.68-.08,165.37-.01,248.05-.03,16.68.19,33.39-.37,50.06.28-.95,2.15-3.39,1.39-5.17,1.61-98.67-.05-197.34.03-296.01-.03-2.71-.26-6.08.9-8.1-1.53Z"/>
  </g>
  <g id="_x23_3a16afff">
    <path class="st42" d="M288.19,752.51c.46-1.17,1.14-2.96,2.73-2.71,5.15-.18,10.31.03,15.47-.06.06.95.14,1.91.22,2.88-6.14.01-12.29.36-18.42-.11Z"/>
  </g>
  <g id="_x23_17812bff">
    <path class="st58" d="M904.87,753.77c1.76-2.07,3.55,1.12,4.84,2.19-6.56,7.83-13.4,15.45-20.54,22.75-3.75-4.11-7.54-8.18-11.48-12.11,1.28-1.21,2.1-3.74,4.25-3.25,2.74,2.17,4.95,4.93,7.43,7.38,5.14-5.68,10.2-11.43,15.5-16.96Z"/>
  </g>
  <g id="_x23_ac9ae2ff">
    <path class="st28" d="M286.28,757.77c4.51.18,9.16-.69,13.58.35-.19,1.08-.29,2.17-.3,3.29-4.32-.23-9.28,1.34-13.02-1.45-.11-.74-.19-1.47-.26-2.19M287.57,758.76c1.34,2.53,4.94,1.65,7.4,1.85,1.7-.36,4.51.59,4.81-2.03-4.08-.08-8.14.03-12.21.18Z"/>
  </g>
  <g id="_x23_3d1ab1ff">
    <path class="st32" d="M287.57,758.76c4.07-.15,8.13-.26,12.21-.18-.3,2.62-3.11,1.67-4.81,2.03-2.46-.2-6.06.68-7.4-1.85Z"/>
  </g>
  <g id="_x23_4b26b5ff">
    <path class="st72" d="M306.4,760.35c5.75-4.45,14.83-.35,16.09,6.56.69,3.14-.36,6.19-1.25,9.16,1.01,2.28,3.72,3.53,4.53,6.01-.9.97-1.78,1.97-2.64,3-1.78-1.88-3.53-3.77-5.23-5.71-3.95,1.69-9.14,2.6-12.58-.64-5.97-4.46-5.26-14.58,1.08-18.38M309.41,762.47c-2.1.67-3.55,2.61-4.34,4.6-2,4.87,2.45,11.63,7.97,10.49,4.93-1.05,8.44-7.53,5.27-11.92-1.7-3.18-5.62-4.14-8.9-3.17Z"/>
  </g>
  <g id="_x23_f8f7fcff">
    <path class="st41" d="M309.41,762.47c3.28-.97,7.2,0,8.9,3.17,3.17,4.39-.34,10.87-5.27,11.92-5.52,1.14-9.97-5.62-7.97-10.49.79-1.99,2.24-3.93,4.34-4.6Z"/>
  </g>
  <g id="_x23_b4a9e2ff">
    <path class="st52" d="M281.28,768.49c.42-.67,1.25-2,1.67-2.66,4.64-.58,9.32.06,13.93.65-.12.49-.36,1.46-.48,1.95-5.04,0-10.08.2-15.12.06Z"/>
  </g>
  <g id="_x23_208634ff">
    <path class="st76" d="M937.25,769.79c.09-.49.28-1.47.37-1.97,66.17.01,132.34-.05,198.51.04,1.23-.65,3.81,1.41,1.81,1.85-66.89.13-133.79-.07-200.69.08Z"/>
    <path class="st76" d="M1168.84,800.77c.13-3.1,3.16-5.41,6.17-5.09,18.33-.03,36.66.06,54.99-.03,4.98.09,10.02-.37,14.97.51-3.66,2.35-7.86,3.59-12.05,4.61,3.59.15,7.18.33,10.78.51.38,5.63.98,11.29.15,16.92-4.23,1.32-8.27,3.79-12.83,3.66-12.99.02-25.98.04-38.97-.07-7.14.22-14.44-.83-21.39,1.27-.81-1.58-2.09-3.06-1.91-4.93-.02-5.79-.03-11.58.09-17.36Z"/>
  </g>
  <g id="_x23_3a9449ff">
    <path class="st23" d="M1151.45,768.35h1.86c-.03,29.9-.04,59.81,0,89.72-.21,1.54.49,3.75-1.64,4.35-.45-31.35.03-62.71-.22-94.07Z"/>
  </g>
  <g id="_x23_634bcdff">
    <path class="st74" d="M389.9,778.78h1.58c.05,25.07-.18,50.15,0,75.23-.07,2.11.33,4.53-1.22,6.26-.61-4.41-.38-8.86-.39-13.29.05-22.73-.07-45.47.03-68.2Z"/>
  </g>
  <g id="_x23_6540c8ff">
    <path class="st57" d="M524.21,779.07c.36.02,1.08.06,1.44.08.03,23.61-.06,47.22.04,70.83,0,3.48.14,6.99-.57,10.43-1.29-2.65-.95-5.59-.98-8.43.18-24.3-.06-48.61.07-72.91Z"/>
  </g>
  <g id="_x23_1c8531ff">
    <path class="st34" d="M1244.97,796.16c1.04,1.44,2.59,2.81,2.46,4.77.16,5.71.08,11.43.06,17.14.22,2.61-1.69,5.61-4.49,5.63-4.65.5-9.33.46-13.99.5-13.33-.36-26.69-.77-40.02-.04-6.1-.3-12.44.96-18.33-1.1,6.95-2.1,14.25-1.05,21.39-1.27,12.99.11,25.98.09,38.97.07,4.56.13,8.6-2.34,12.83-3.66.83-5.63.23-11.29-.15-16.92-3.6-.18-7.19-.36-10.78-.51,4.19-1.02,8.39-2.26,12.05-4.61Z"/>
  </g>
  <g id="_x23_5e33c4ff">
    <path class="st71" d="M251.84,807.22c2.96,9.5.18,19.58,2.26,29.24.25,6.5.09,13.01.1,19.52-.05,3.29.3,6.76,2.11,9.61,2.36,4.04,7.05,6.27,11.65,6.24,20.67.19,41.35-.23,62.02.28,23-.79,46,.53,69-.26,80.69.13,161.37-.03,242.06.04,3.24.05,6.31-1.14,9.15-2.59.07,1.02.16,2.05.26,3.09-2.59,1.07-5.3,1.82-8.06,2.3-121.13-.21-242.27-.01-363.41-.09-7.25-.14-15.29,1.4-21.56-3.26-4.2-3.45-6.25-8.96-5.95-14.32.33-16.6-.34-33.23.37-49.8Z"/>
  </g>
  <g id="_x23_a8aaaaff">
    <path class="st61" d="M650.45,872.39c4.28-2.9,6.51-7.75,7.39-12.72.41,3.53,1.6,7.5-.6,10.71-1.87,3.36-5.74,4.6-9.14,5.81-1.92-.48-3.8-1.04-5.71-1.5,2.76-.48,5.47-1.23,8.06-2.3Z"/>
  </g>
  <g id="_x23_cdd1cfff">
    <path class="st54" d="M257.42,871.34c6.27,4.66,14.31,3.12,21.56,3.26,121.14.08,242.28-.12,363.41.09,1.91.46,3.79,1.02,5.71,1.5-1.89.67-3.77,1.38-5.67,2.01-12.44.58-24.95.07-37.42.23-113.01-.01-226.02.04-339.02-.02-3.54-.68-8.85-2.75-8.57-7.07Z"/>
  </g>
  <g id="editable_text_layer_times_new_roman">
    <text id="text_01_INCIDENT_HANDLING_AS_CORE_CAPABILITY" class="st8" transform="translate(269.19 66)"><tspan x="0" y="0">INCIDENT HANDLING AS CORE CAPABILITY</tspan></text>
    <text id="text_02_TRACEABLE_AND_AUDITABLE_LIFECYCLE" class="st18" transform="translate(483.49 113)"><tspan x="0" y="0">TRACEABLE AND AUDITABLE LIFECYCLE</tspan></text>
    <text id="text_03_POSTMORTEM_AS_SYSTEM_COMPONENT" class="st16" transform="translate(606.06 151)"><tspan x="0" y="0">POSTMORTEM AS SYSTEM COMPONENT</tspan></text>
    <text id="text_04_CONTINUOUS_IMPROVEMENT_LOOP" class="st16" transform="translate(629.84 176)"><tspan x="0" y="0">CONTINUOUS IMPROVEMENT LOOP</tspan></text>
    <text id="text_05_RISK_EVENT" class="st12" transform="translate(768 252)"><tspan x="0" y="0">RISK EVENT</tspan></text>
    <text id="text_06_UNAUTHORIZED_EXPORT_OF" class="st6" transform="translate(685.05 312)"><tspan x="0" y="0">UNAUTHORIZED EXPORT OF</tspan></text>
    <text id="text_07_RESTRICTED_RAW_DATA" class="st6" transform="translate(708.97 337)"><tspan x="0" y="0">RESTRICTED RAW DATA</tspan></text>
    <text id="text_08_DETECTION" class="st7" transform="translate(1174 392)"><tspan x="0" y="0">DETECTION</tspan></text>
    <text id="text_09_HIGH_SEVERITY_ALERT" class="st19" transform="translate(1165 437)"><tspan x="0" y="0">HIGH SEVERITY ALERT</tspan></text>
    <text id="text_10_SOURCE_ACCESS_ALERTS" class="st19" transform="translate(1165 466)"><tspan x="0" y="0">SOURCE: ACCESS_ALERTS</tspan></text>
    <text id="text_11_DETECTABLE" class="st5" transform="translate(1370.22 442.12)"><tspan x="0" y="0">DETECTABLE</tspan></text>
    <text id="text_12_CONTAINMENT" class="st11" transform="translate(1164 579)"><tspan x="0" y="0">CONTAINMENT</tspan></text>
    <text id="text_13" class="st13" transform="translate(1155 623)"><tspan x="0" y="0">•</tspan></text>
    <text id="text_14_QUARANTINE_EXPORT_REQUEST" class="st15" transform="translate(1172 623)"><tspan x="0" y="0">QUARANTINE EXPORT REQUEST</tspan></text>
    <text id="text_15" class="st13" transform="translate(1155 650)"><tspan x="0" y="0">•</tspan></text>
    <text id="text_16_LOCK_USER_SESSION" class="st15" transform="translate(1172 650)"><tspan x="0" y="0">LOCK USER SESSION</tspan></text>
    <text id="text_17" class="st13" transform="translate(1155 677)"><tspan x="0" y="0">•</tspan></text>
    <text id="text_18_REQUIRE_ADMIN_REVIEW" class="st15" transform="translate(1172 677)"><tspan x="0" y="0">REQUIRE ADMIN REVIEW</tspan></text>
    <text id="text_19_CONTAINABLE" class="st9" transform="translate(1395.65 640.27)"><tspan x="0" y="0">CONTAINABLE</tspan></text>
    <text id="text_20_OUTCOME" class="st3" transform="translate(937 759)"><tspan x="0" y="0">OUTCOME</tspan></text>
    <text id="text_21_NO_EXTERNAL_DATA_LEAK" class="st14" transform="translate(948 806)"><tspan x="0" y="0">NO EXTERNAL DATA LEAK</tspan></text>
    <text id="text_22_RESOLVED" class="st14" transform="translate(948 832)"><tspan x="0" y="0">RESOLVED</tspan></text>
    <text id="text_23_RESPONSE_TIME_24_MINUTES" class="st4" transform="translate(942 860)"><tspan x="0" y="0">RESPONSE TIME (24 MINUTES)</tspan></text>
    <text id="text_24_AUDITABLE" class="st5" transform="translate(1180.98 812.62)"><tspan x="0" y="0">AUDITABLE</tspan></text>
    <text id="text_25_POSTMORTEM_ANALYSIS" class="st10" transform="translate(368 752)"><tspan x="0" y="0">POSTMORTEM ANALYSIS</tspan></text>
    <text id="text_26_CAUSE" class="st2" transform="translate(303.58 810)"><tspan x="0" y="0">CAUSE</tspan></text>
    <text id="text_27_WORKED" class="st2" transform="translate(424 810)"><tspan x="0" y="0">WORKED</tspan></text>
    <text id="text_28_UPS" class="st2" transform="translate(572.83 810)"><tspan x="0" y="0">UPS</tspan></text>
    <text id="text_29_ROOT_CAUSE" class="st15" transform="translate(286.32 843)"><tspan x="0" y="0">ROOT CAUSE</tspan></text>
    <text id="text_30_WHAT_WORKED" class="st15" transform="translate(407.17 843)"><tspan x="0" y="0">WHAT WORKED</tspan></text>
    <text id="text_31_FOLLOW_UPS" class="st15" transform="translate(543.54 843)"><tspan x="0" y="0">FOLLOW-UPS</tspan></text>
    <text id="text_32_SYSTEM_IMPROVEMENT" class="st10" transform="translate(323 402)"><tspan x="0" y="0">SYSTEM IMPROVEMENT</tspan></text>
    <text id="text_33" class="st17" transform="translate(321 445)"><tspan x="0" y="0">•</tspan></text>
    <text id="text_34_POLICY_UPDATES" class="st14" transform="translate(342 444)"><tspan x="0" y="0">POLICY UPDATES</tspan></text>
    <text id="text_35" class="st17" transform="translate(321 474)"><tspan x="0" y="0">•</tspan></text>
    <text id="text_36_DETECTION_IMPROVEMENTS" class="st14" transform="translate(342 473)"><tspan x="0" y="0">DETECTION IMPROVEMENTS</tspan></text>
    <text id="text_37" class="st17" transform="translate(321 503)"><tspan x="0" y="0">•</tspan></text>
    <text id="text_38_CONTROL_REFINEMENT" class="st14" transform="translate(342 502)"><tspan x="0" y="0">CONTROL REFINEMENT</tspan></text>
    <text id="text_39_FEEDBACK_LOOP" class="st1" transform="translate(178 698) rotate(-90)"><tspan x="0" y="0">FEEDBACK LOOP</tspan></text>
  </g>
</svg>