<?xml version="1.0" encoding="UTF-8" ?>
<!DOCTYPE svg PUBLIC "-//W3C//DTD SVG 1.1//EN" "http://www.w3.org/Graphics/SVG/1.1/DTD/svg11.dtd">
<svg width="1672pt" height="941pt" viewBox="0 0 1672 941" version="1.1" xmlns="http://www.w3.org/2000/svg">
<g id="#ffffffff">
<path fill="#ffffff" opacity="1.00" d=" M 0.00 0.00 L 1672.00 0.00 L 1672.00 941.00 L 0.00 941.00 L 0.00 0.00 M 1060.53 170.80 C 1050.94 173.23 1043.76 183.11 1045.01 193.04 C 1045.79 203.36 1055.61 211.91 1065.94 211.31 C 1075.81 211.35 1084.64 202.85 1085.53 193.13 C 1086.40 186.58 1083.85 179.68 1078.83 175.36 C 1074.08 170.73 1066.86 169.33 1060.53 170.80 M 403.60 173.80 C 392.91 176.90 386.43 189.70 390.22 200.16 C 392.26 206.64 397.78 211.80 404.37 213.45 C 410.60 215.34 417.42 213.37 422.56 209.63 C 429.00 204.35 431.93 194.82 428.95 186.94 C 425.68 176.83 413.82 170.20 403.60 173.80 M 445.72 265.97 C 445.73 278.32 445.74 290.66 445.73 303.00 C 445.51 308.40 450.69 313.02 455.99 312.59 C 511.67 312.54 567.34 312.62 623.01 312.55 C 627.82 312.88 632.61 308.98 632.77 304.07 C 632.93 298.10 632.67 292.12 633.03 286.16 C 644.35 286.59 655.74 284.84 667.00 286.63 C 671.81 287.63 675.32 292.25 675.44 297.09 C 675.50 315.94 675.32 334.80 675.52 353.65 C 675.29 353.72 674.84 353.87 674.61 353.94 C 672.20 350.63 667.91 349.46 664.00 349.41 C 653.70 349.40 643.40 349.34 633.10 349.33 C 632.64 343.21 633.09 337.08 632.85 330.96 C 632.53 326.09 627.93 322.13 623.08 322.45 C 567.38 322.49 511.67 322.42 455.97 322.48 C 450.34 322.10 445.00 327.28 445.63 333.00 C 445.92 345.76 445.54 358.53 445.79 371.28 C 445.15 369.97 444.68 368.56 444.75 367.09 C 444.73 361.66 444.88 356.22 444.81 350.78 L 444.61 350.88 C 439.93 347.64 434.61 345.51 429.67 342.73 C 428.91 342.54 428.17 342.34 427.44 342.14 C 427.48 344.59 427.50 347.04 427.52 349.49 C 422.41 349.40 417.24 348.98 412.19 349.99 C 409.88 351.03 407.81 352.50 405.92 354.18 C 406.01 334.72 405.86 315.26 405.96 295.81 C 406.94 292.87 408.26 289.78 411.05 288.13 C 414.47 285.68 418.81 286.42 422.74 286.10 C 424.28 286.16 425.82 286.21 427.36 286.25 C 427.40 288.73 427.44 291.22 427.51 293.71 C 432.90 290.93 438.27 288.11 443.69 285.38 C 443.75 285.13 443.87 284.62 443.93 284.36 C 438.43 281.58 433.10 278.44 427.44 276.01 C 427.46 278.51 427.59 281.02 427.71 283.53 C 423.60 283.54 419.49 283.29 415.40 283.57 C 408.75 284.26 403.33 290.41 403.37 297.08 C 403.22 354.71 403.27 412.35 403.05 469.98 C 403.36 476.38 398.96 482.07 392.67 483.32 C 381.54 483.26 370.41 483.34 359.28 483.27 C 359.43 446.17 359.38 409.07 359.31 371.98 C 359.56 355.97 359.34 339.96 359.44 323.95 C 359.65 320.89 358.53 317.95 356.77 315.50 L 356.73 315.03 C 354.10 312.56 350.81 310.50 347.06 310.79 C 250.17 310.77 153.29 310.66 56.40 310.84 C 56.80 300.97 48.65 291.75 38.92 290.57 C 29.01 288.97 18.45 295.89 16.32 305.78 C 14.97 310.35 15.66 315.29 17.54 319.62 C 20.64 326.32 27.67 330.90 34.97 331.48 C 34.31 334.96 34.65 338.51 34.61 342.03 C 34.69 352.03 34.39 362.03 34.70 372.02 C 34.59 389.35 34.62 406.68 34.56 424.01 C 34.77 482.79 34.45 541.58 34.71 600.36 C 35.93 605.62 40.42 610.19 46.00 610.33 C 146.33 610.34 246.66 610.34 346.98 610.33 C 351.11 610.46 355.65 608.34 357.53 604.59 C 359.03 602.35 359.50 599.67 359.36 597.03 C 359.28 559.91 359.48 522.78 359.26 485.67 C 370.57 485.82 381.88 485.70 393.19 485.71 C 395.51 487.08 398.36 487.72 400.03 490.02 C 403.52 493.82 402.74 499.29 402.81 504.01 C 402.81 560.35 402.82 616.70 402.77 673.04 C 402.58 678.55 405.40 684.17 410.41 686.70 C 415.48 689.37 421.49 687.53 426.77 689.21 C 428.17 690.96 427.28 693.39 427.56 695.46 C 428.16 695.18 429.34 694.61 429.94 694.32 C 433.35 692.57 436.64 690.58 440.13 688.97 C 441.70 688.17 443.54 687.65 444.61 686.12 L 444.72 686.16 C 445.28 678.70 443.67 670.93 445.72 663.67 C 445.59 676.78 445.78 689.90 445.66 703.02 C 445.77 708.28 450.87 712.49 455.99 712.34 C 511.66 712.29 567.34 712.34 623.01 712.31 C 628.01 712.50 632.94 708.19 632.85 703.07 C 632.89 698.13 632.81 693.18 633.11 688.25 C 642.39 688.39 651.66 688.22 660.94 688.27 C 665.54 688.24 670.70 687.59 674.00 684.02 C 678.19 679.85 678.36 673.51 678.18 667.98 C 678.15 610.95 678.13 553.92 678.19 496.89 C 678.13 491.04 683.28 486.24 688.96 485.83 C 696.44 485.61 703.94 485.90 711.44 485.72 C 711.38 488.40 711.39 491.09 711.45 493.79 C 717.30 490.73 722.99 487.38 728.96 484.55 C 728.83 484.35 728.58 483.95 728.46 483.75 C 722.81 480.78 717.09 477.97 711.39 475.10 C 711.41 477.84 711.47 480.58 711.47 483.33 C 703.13 482.22 694.61 484.39 686.34 482.53 C 681.63 481.41 678.16 476.81 678.19 472.00 C 678.09 431.97 678.25 391.94 678.10 351.90 C 678.19 333.93 678.19 315.95 678.10 297.98 C 678.09 291.12 673.16 284.18 665.99 283.64 C 655.04 283.30 644.06 283.60 633.10 283.44 C 632.98 277.25 632.88 271.07 632.77 264.89 C 632.54 260.04 627.76 256.24 623.04 256.45 C 567.02 256.46 510.99 256.41 454.97 256.47 C 450.06 256.55 445.67 261.05 445.72 265.97 M 717.22 273.07 C 713.74 278.72 713.22 286.15 716.00 292.18 C 718.54 298.40 724.62 303.05 731.28 303.93 C 731.19 428.95 731.18 553.98 731.24 679.01 C 731.09 684.79 736.25 689.94 741.99 690.05 C 750.66 690.41 759.35 690.09 768.02 689.93 C 777.35 690.66 786.69 689.26 796.03 690.06 C 803.02 690.14 810.02 690.34 817.01 689.90 C 877.35 689.84 937.67 689.92 998.02 689.83 C 1002.99 689.72 1008.17 690.72 1012.98 689.07 C 1017.13 687.13 1020.06 682.65 1019.78 678.02 C 1019.75 613.50 1019.83 548.97 1019.72 484.44 C 1032.11 485.08 1044.55 484.69 1056.97 484.70 C 1056.93 487.30 1056.94 489.90 1056.98 492.51 C 1062.86 489.61 1068.56 486.37 1074.47 483.53 C 1068.93 479.98 1062.88 477.29 1056.99 474.38 C 1056.94 476.87 1056.95 479.36 1056.93 481.86 C 1044.59 481.61 1032.24 481.76 1019.90 481.84 C 1019.58 458.23 1019.88 434.58 1019.79 410.95 C 1019.70 376.30 1019.72 341.64 1019.72 306.98 C 1019.66 303.42 1020.13 299.73 1018.82 296.33 L 1018.86 295.96 C 1016.35 291.91 1011.76 289.48 1006.98 289.90 C 922.74 290.02 838.50 289.74 754.27 290.06 C 755.45 286.19 755.75 281.99 754.46 278.11 C 752.09 269.24 743.17 262.64 734.02 262.95 C 727.19 263.36 720.73 267.20 717.22 273.07 M 1384.12 281.04 C 1380.74 285.91 1378.66 292.28 1380.48 298.13 C 1382.09 306.68 1390.11 313.25 1398.71 313.71 C 1398.88 414.47 1398.75 515.24 1398.80 616.01 C 1398.99 621.11 1402.47 626.16 1407.53 627.47 C 1414.96 628.58 1422.50 627.55 1429.99 627.87 C 1460.95 628.01 1491.91 627.63 1522.86 628.13 C 1522.62 677.42 1522.80 726.72 1522.74 776.01 C 1522.65 781.26 1518.88 785.83 1514.03 787.55 C 1512.01 787.70 1510.01 787.86 1508.03 787.89 C 1453.09 787.92 1398.15 787.80 1343.22 787.96 C 1343.23 785.71 1343.25 783.47 1343.29 781.24 C 1337.53 783.47 1331.97 786.34 1326.65 789.47 C 1332.12 792.39 1337.61 795.29 1343.26 797.85 C 1343.23 795.42 1343.29 793.01 1343.41 790.60 C 1398.25 790.85 1453.10 790.61 1507.94 790.68 C 1510.25 790.56 1512.80 790.93 1514.90 789.67 L 1515.17 789.14 L 1515.75 789.39 C 1521.80 787.83 1525.66 781.17 1525.53 775.07 C 1525.47 726.09 1525.61 677.10 1525.46 628.12 C 1564.89 627.44 1604.34 628.58 1643.79 627.69 L 1643.37 626.94 C 1644.21 628.38 1646.06 626.61 1647.18 626.21 C 1650.66 624.03 1653.05 620.10 1653.04 615.95 C 1653.08 589.64 1653.07 563.33 1653.08 537.03 C 1652.94 483.63 1653.32 430.23 1652.90 376.84 C 1652.72 351.52 1652.94 326.20 1652.81 300.88 C 1652.92 298.48 1651.63 296.40 1650.50 294.41 C 1648.23 291.55 1644.62 289.85 1640.98 289.93 C 1576.97 289.92 1512.95 289.91 1448.94 289.92 C 1439.61 290.19 1430.24 289.36 1420.96 290.32 L 1420.41 289.94 C 1419.03 281.38 1411.72 274.42 1403.12 273.46 C 1396.00 272.29 1388.54 275.43 1384.12 281.04 M 1077.67 343.61 C 1075.59 347.40 1076.45 351.87 1076.31 356.00 C 1076.33 442.01 1076.30 528.01 1076.32 614.02 C 1076.24 620.32 1081.62 626.30 1088.04 626.34 C 1168.03 626.36 1248.02 626.41 1328.01 626.31 C 1333.99 626.27 1339.81 621.10 1339.68 614.94 C 1339.74 577.98 1339.68 541.02 1339.73 504.06 C 1339.89 497.49 1339.35 490.86 1340.08 484.34 C 1352.84 484.51 1365.61 484.09 1378.37 484.49 C 1378.28 487.04 1378.26 489.59 1378.31 492.14 C 1384.32 489.15 1390.18 485.87 1396.26 483.01 C 1391.08 479.83 1385.48 477.44 1380.16 474.53 C 1379.72 474.44 1378.85 474.24 1378.41 474.14 C 1378.43 476.58 1378.44 479.02 1378.45 481.46 C 1365.54 481.59 1352.62 481.40 1339.71 481.53 C 1339.71 436.99 1339.77 392.46 1339.70 347.92 C 1339.66 341.96 1333.80 337.15 1328.04 337.30 C 1248.00 337.29 1167.96 337.32 1087.92 337.28 C 1083.67 337.27 1079.69 339.95 1077.67 343.61 M 530.25 736.41 C 532.65 736.45 535.05 736.49 537.46 736.54 C 537.40 749.37 537.46 762.20 537.44 775.03 C 537.24 779.18 538.92 783.26 541.64 786.36 C 544.78 789.64 549.54 790.62 553.93 790.47 C 704.12 790.29 854.32 790.66 1004.50 790.29 C 1004.54 800.86 1014.43 810.26 1025.01 809.69 C 1036.80 809.69 1047.03 797.67 1044.68 786.01 C 1043.35 773.80 1029.24 765.39 1017.82 769.73 C 1010.56 772.75 1004.45 779.65 1004.57 787.84 C 853.69 787.67 702.81 787.85 551.94 787.76 C 545.19 788.26 540.47 782.13 539.73 775.97 C 539.70 762.83 539.76 749.69 539.74 736.55 C 542.19 736.50 544.63 736.36 547.09 736.26 C 544.39 730.47 541.66 724.70 538.91 718.93 C 535.47 724.47 533.07 730.55 530.25 736.41 Z" />
<path fill="#ffffff" opacity="1.00" d=" M 453.44 258.57 C 467.27 258.04 481.14 258.52 494.99 258.35 C 537.70 258.32 580.41 258.36 623.12 258.35 C 626.96 257.92 630.70 261.09 631.02 264.91 C 631.35 269.95 630.85 275.00 630.90 280.05 C 630.78 288.38 631.48 296.73 630.77 305.05 C 630.03 308.45 626.53 311.09 623.01 310.69 C 566.98 310.68 510.95 310.73 454.92 310.67 C 450.88 310.68 447.52 307.00 447.64 303.01 C 447.55 291.01 447.65 279.02 447.54 267.03 C 447.33 263.34 449.67 259.37 453.44 258.57 Z" />
<path fill="#ffffff" opacity="1.00" d=" M 453.33 324.52 C 466.88 324.07 480.47 324.47 494.04 324.33 C 537.03 324.37 580.02 324.26 623.02 324.36 C 627.25 323.92 631.30 327.74 631.01 332.02 C 631.09 344.36 630.81 356.70 630.94 369.05 C 631.36 373.33 627.25 377.14 623.04 376.68 C 567.37 376.74 511.69 376.71 456.02 376.70 C 451.66 377.09 447.37 373.56 447.60 369.04 C 447.58 356.71 447.51 344.38 447.64 332.05 C 447.57 328.68 449.97 325.24 453.33 324.52 Z" />
<path fill="#ffffff" opacity="1.00" d=" M 36.38 371.60 C 38.57 371.40 40.77 371.43 42.97 371.42 C 131.66 371.39 220.35 371.41 309.04 371.41 C 325.21 371.51 341.40 371.12 357.56 371.59 C 357.32 408.76 357.45 445.93 357.47 483.10 C 357.48 483.53 357.49 484.38 357.50 484.81 C 357.14 523.82 357.78 562.84 357.25 601.85 C 355.45 605.39 352.27 608.74 347.99 608.51 C 247.65 608.50 147.31 608.54 46.97 608.50 C 41.62 608.93 37.25 604.50 36.44 599.44 C 36.44 523.49 36.55 447.55 36.38 371.60 Z" />
<path fill="#ffffff" opacity="1.00" d=" M 453.50 390.69 C 466.31 390.08 479.18 390.59 492.01 390.43 C 535.68 390.42 579.36 390.42 623.03 390.43 C 627.19 390.11 631.18 393.78 631.02 397.98 C 630.89 410.67 631.17 423.36 630.91 436.05 C 630.94 440.16 627.08 443.48 623.05 443.16 C 567.36 443.13 511.67 443.17 455.98 443.11 C 451.88 443.40 447.73 440.22 447.63 435.97 C 447.48 423.64 447.70 411.30 447.54 398.96 C 447.27 395.24 449.87 391.58 453.50 390.69 Z" />
<path fill="#ffffff" opacity="1.00" d=" M 447.53 465.01 C 447.47 460.65 451.56 456.77 455.95 457.26 C 511.64 457.23 567.33 457.25 623.02 457.25 C 627.36 456.73 631.22 460.68 631.05 464.96 C 631.19 477.32 631.27 489.69 630.97 502.06 C 631.24 505.00 629.18 507.17 627.55 509.34 C 625.74 509.68 623.91 509.91 622.07 509.95 C 569.03 509.96 515.99 509.91 462.95 509.97 C 458.55 509.87 453.76 510.70 449.88 508.11 C 448.53 505.95 447.18 503.64 447.48 500.99 C 447.63 489.00 447.45 477.00 447.53 465.01 Z" />
<path fill="#ffffff" opacity="1.00" d=" M 451.43 591.57 C 452.52 590.88 453.71 590.53 455.01 590.52 C 510.99 590.61 566.98 590.50 622.97 590.57 C 627.57 590.21 631.35 594.51 631.15 598.98 C 631.15 611.32 631.29 623.66 630.90 636.00 C 631.22 640.23 627.06 643.83 622.96 643.54 C 567.32 643.54 511.67 643.51 456.03 643.53 C 453.10 643.63 450.05 642.15 448.58 639.57 C 446.97 636.99 447.70 633.84 447.56 630.99 C 447.46 620.01 447.51 609.03 447.60 598.06 C 447.63 595.42 449.19 592.90 451.43 591.57 Z" />
<path fill="#ffffff" opacity="1.00" d=" M 452.27 658.30 C 454.68 657.26 457.39 657.70 459.95 657.61 C 513.99 657.55 568.03 657.60 622.06 657.62 C 626.35 657.17 630.91 660.44 631.01 664.92 C 631.29 671.96 630.83 679.00 630.91 686.05 C 630.81 692.07 631.37 698.11 630.77 704.12 C 630.28 707.81 626.63 710.66 622.95 710.43 C 567.31 710.46 511.67 710.43 456.04 710.45 C 451.80 710.78 447.59 707.25 447.62 702.91 C 447.40 690.60 447.69 678.29 447.54 665.98 C 447.39 662.79 449.38 659.63 452.27 658.30 Z" />
</g>
<g id="#040303ff">
<path fill="#040303" opacity="1.00" d=" M 1060.53 170.80 C 1066.86 169.33 1074.08 170.73 1078.83 175.36 C 1083.85 179.68 1086.40 186.58 1085.53 193.13 C 1084.64 202.85 1075.81 211.35 1065.94 211.31 C 1055.61 211.91 1045.79 203.36 1045.01 193.04 C 1043.76 183.11 1050.94 173.23 1060.53 170.80 M 1065.49 180.41 C 1063.18 184.42 1061.09 188.55 1058.77 192.55 C 1057.91 193.77 1058.17 195.29 1058.10 196.69 C 1060.75 196.80 1063.44 196.61 1066.09 196.99 C 1066.16 198.27 1066.19 199.56 1066.19 200.86 C 1067.15 200.86 1069.07 200.86 1070.03 200.87 C 1070.38 199.23 1069.21 196.03 1072.13 196.62 C 1072.13 195.81 1072.13 194.19 1072.14 193.37 C 1071.64 193.41 1070.66 193.49 1070.16 193.53 C 1070.05 189.18 1070.17 184.83 1069.92 180.49 C 1068.43 180.47 1066.95 180.44 1065.49 180.41 Z" />
<path fill="#040303" opacity="1.00" d=" M 403.60 173.80 C 413.82 170.20 425.68 176.83 428.95 186.94 C 431.93 194.82 429.00 204.35 422.56 209.63 C 417.42 213.37 410.60 215.34 404.37 213.45 C 397.78 211.80 392.26 206.64 390.22 200.16 C 386.43 189.70 392.91 176.90 403.60 173.80 M 403.15 187.13 C 402.04 189.23 405.14 189.02 406.27 189.53 C 406.75 188.53 407.24 187.54 407.72 186.54 C 408.66 186.51 409.61 186.45 410.56 186.36 C 412.33 189.51 410.07 192.74 408.05 195.11 C 406.01 197.74 402.55 199.81 403.06 203.62 C 407.30 203.60 411.54 203.52 415.79 203.60 C 415.82 202.47 415.87 201.35 415.92 200.23 C 413.51 200.11 411.12 199.91 408.73 199.75 C 411.76 195.84 417.36 191.68 415.06 186.08 C 412.86 180.89 404.53 181.94 403.15 187.13 Z" />
<path fill="#040303" opacity="1.00" d=" M 717.22 273.07 C 720.73 267.20 727.19 263.36 734.02 262.95 C 743.17 262.64 752.09 269.24 754.46 278.11 C 755.75 281.99 755.45 286.19 754.27 290.06 C 754.13 290.36 753.84 290.96 753.70 291.26 C 750.59 298.33 743.76 303.39 736.07 304.22 C 734.46 304.18 732.86 304.09 731.28 303.93 C 724.62 303.05 718.54 298.40 716.00 292.18 C 713.22 286.15 713.74 278.72 717.22 273.07 M 728.16 278.43 C 731.46 280.12 733.14 275.04 736.16 277.03 C 737.77 280.03 735.25 282.33 732.25 281.77 C 730.38 284.82 734.71 284.67 736.43 285.80 C 736.74 287.06 736.81 288.40 736.55 289.68 C 735.70 290.96 734.01 290.64 732.72 290.70 C 732.45 290.08 731.91 288.82 731.64 288.20 C 730.25 288.25 728.86 288.32 727.49 288.41 C 728.10 294.62 737.30 295.97 740.30 290.91 C 741.36 288.08 740.94 284.57 738.18 282.93 C 740.09 281.50 740.96 279.28 740.37 276.93 C 738.72 271.08 728.22 272.10 728.16 278.43 Z" />
<path fill="#040303" opacity="1.00" d=" M 1017.82 769.73 C 1029.24 765.39 1043.35 773.80 1044.68 786.01 C 1047.03 797.67 1036.80 809.69 1025.01 809.69 C 1014.43 810.26 1004.54 800.86 1004.50 790.29 C 1004.52 789.68 1004.55 788.45 1004.57 787.84 C 1004.45 779.65 1010.56 772.75 1017.82 769.73 M 1022.15 780.04 C 1017.86 783.40 1017.57 789.61 1018.62 794.54 C 1019.50 798.32 1024.03 800.55 1027.54 798.77 C 1032.05 796.62 1032.43 789.49 1028.45 786.68 C 1026.47 785.52 1024.16 786.51 1022.11 786.72 C 1023.01 785.25 1023.46 783.30 1024.98 782.29 C 1026.82 782.40 1029.05 783.48 1030.00 781.04 C 1028.83 778.09 1024.38 778.21 1022.15 780.04 Z" />
</g>
<g id="#fafbfaff">
<path fill="#fafbfa" opacity="1.00" d=" M 1065.49 180.41 C 1066.95 180.44 1068.43 180.47 1069.92 180.49 C 1070.17 184.83 1070.05 189.18 1070.16 193.53 C 1070.66 193.49 1071.64 193.41 1072.14 193.37 C 1072.13 194.19 1072.13 195.81 1072.13 196.62 C 1069.21 196.03 1070.38 199.23 1070.03 200.87 C 1069.07 200.86 1067.15 200.86 1066.19 200.86 C 1066.19 199.56 1066.16 198.27 1066.09 196.99 C 1063.44 196.61 1060.75 196.80 1058.10 196.69 C 1058.17 195.29 1057.91 193.77 1058.77 192.55 C 1061.09 188.55 1063.18 184.42 1065.49 180.41 M 1065.84 186.19 C 1064.60 188.60 1063.37 191.02 1062.09 193.41 C 1063.45 193.43 1064.84 193.45 1066.24 193.47 C 1066.17 191.04 1066.10 188.61 1065.84 186.19 Z" />
</g>
<g id="#f9f9f9ff">
<path fill="#f9f9f9" opacity="1.00" d=" M 403.15 187.13 C 404.53 181.94 412.86 180.89 415.06 186.08 C 417.36 191.68 411.76 195.84 408.73 199.75 C 411.12 199.91 413.51 200.11 415.92 200.23 C 415.87 201.35 415.82 202.47 415.79 203.60 C 411.54 203.52 407.30 203.60 403.06 203.62 C 402.55 199.81 406.01 197.74 408.05 195.11 C 410.07 192.74 412.33 189.51 410.56 186.36 C 409.61 186.45 408.66 186.51 407.72 186.54 C 407.24 187.54 406.75 188.53 406.27 189.53 C 405.14 189.02 402.04 189.23 403.15 187.13 Z" />
</g>
<g id="#030202ff">
<path fill="#030202" opacity="1.00" d=" M 1065.84 186.19 C 1066.10 188.61 1066.17 191.04 1066.24 193.47 C 1064.84 193.45 1063.45 193.43 1062.09 193.41 C 1063.37 191.02 1064.60 188.60 1065.84 186.19 Z" />
<path fill="#030202" opacity="1.00" d=" M 16.32 305.78 C 18.45 295.89 29.01 288.97 38.92 290.57 C 48.65 291.75 56.80 300.97 56.40 310.84 C 56.43 322.06 46.18 331.97 34.97 331.48 C 27.67 330.90 20.64 326.32 17.54 319.62 C 15.66 315.29 14.97 310.35 16.32 305.78 M 30.31 303.73 C 30.40 304.79 30.50 305.86 30.60 306.93 C 31.93 306.49 33.23 305.98 34.51 305.41 C 34.63 310.71 34.53 316.02 34.56 321.33 C 35.83 320.89 38.77 322.12 38.77 319.97 C 38.89 313.46 38.74 306.94 38.84 300.43 C 35.66 300.47 33.14 302.57 30.31 303.73 Z" />
</g>
<g id="#0e2b9cff">
<path fill="#0e2b9c" opacity="1.00" d=" M 445.72 265.97 C 445.67 261.05 450.06 256.55 454.97 256.47 C 510.99 256.41 567.02 256.46 623.04 256.45 C 627.76 256.24 632.54 260.04 632.77 264.89 C 632.88 271.07 632.98 277.25 633.10 283.44 C 644.06 283.60 655.04 283.30 665.99 283.64 C 673.16 284.18 678.09 291.12 678.10 297.98 C 678.19 315.95 678.19 333.93 678.10 351.90 C 677.71 352.26 676.91 352.96 676.51 353.32 L 675.52 353.65 C 675.32 334.80 675.50 315.94 675.44 297.09 C 675.32 292.25 671.81 287.63 667.00 286.63 C 655.74 284.84 644.35 286.59 633.03 286.16 C 632.67 292.12 632.93 298.10 632.77 304.07 C 632.61 308.98 627.82 312.88 623.01 312.55 C 567.34 312.62 511.67 312.54 455.99 312.59 C 450.69 313.02 445.51 308.40 445.73 303.00 C 445.74 290.66 445.73 278.32 445.72 265.97 M 453.44 258.57 C 449.67 259.37 447.33 263.34 447.54 267.03 C 447.65 279.02 447.55 291.01 447.64 303.01 C 447.52 307.00 450.88 310.68 454.92 310.67 C 510.95 310.73 566.98 310.68 623.01 310.69 C 626.53 311.09 630.03 308.45 630.77 305.05 C 631.48 296.73 630.78 288.38 630.90 280.05 C 630.85 275.00 631.35 269.95 631.02 264.91 C 630.70 261.09 626.96 257.92 623.12 258.35 C 580.41 258.36 537.70 258.32 494.99 258.35 C 481.14 258.52 467.27 258.04 453.44 258.57 Z" />
</g>
<g id="#f9f9f8ff">
<path fill="#f9f9f8" opacity="1.00" d=" M 728.16 278.43 C 728.22 272.10 738.72 271.08 740.37 276.93 C 740.96 279.28 740.09 281.50 738.18 282.93 C 740.94 284.57 741.36 288.08 740.30 290.91 C 737.30 295.97 728.10 294.62 727.49 288.41 C 728.86 288.32 730.25 288.25 731.64 288.20 C 731.91 288.82 732.45 290.08 732.72 290.70 C 734.01 290.64 735.70 290.96 736.55 289.68 C 736.81 288.40 736.74 287.06 736.43 285.80 C 734.71 284.67 730.38 284.82 732.25 281.77 C 735.25 282.33 737.77 280.03 736.16 277.03 C 733.14 275.04 731.46 280.12 728.16 278.43 Z" />
</g>
<g id="#030303ff">
<path fill="#030303" opacity="1.00" d=" M 1384.12 281.04 C 1388.54 275.43 1396.00 272.29 1403.12 273.46 C 1411.72 274.42 1419.03 281.38 1420.41 289.94 C 1422.82 301.76 1412.53 313.96 1400.52 313.74 C 1400.07 313.73 1399.16 313.72 1398.71 313.71 C 1390.11 313.25 1382.09 306.68 1380.48 298.13 C 1378.66 292.28 1380.74 285.91 1384.12 281.04 M 1395.67 283.58 C 1395.45 287.21 1395.09 290.83 1394.57 294.43 C 1396.54 294.47 1398.60 294.55 1400.23 293.18 C 1403.65 294.85 1403.47 300.94 1398.95 300.67 C 1398.64 300.12 1398.02 299.01 1397.71 298.46 C 1396.47 298.46 1395.25 298.47 1394.05 298.48 C 1394.14 302.02 1397.64 304.37 1401.02 303.75 C 1406.94 303.64 1408.47 294.90 1404.50 291.42 C 1402.91 289.80 1400.40 290.54 1398.45 290.68 C 1398.52 289.75 1398.66 287.89 1398.73 286.96 C 1401.07 287.05 1403.43 287.09 1405.81 287.09 C 1405.76 285.91 1405.74 284.73 1405.74 283.56 C 1402.37 283.61 1399.02 283.55 1395.67 283.58 Z" />
</g>
<g id="#2a48b3ff">
<path fill="#2a48b3" opacity="1.00" d=" M 427.44 276.01 C 433.10 278.44 438.43 281.58 443.93 284.36 C 443.87 284.62 443.75 285.13 443.69 285.38 C 438.27 288.11 432.90 290.93 427.51 293.71 C 427.44 291.22 427.40 288.73 427.36 286.25 C 425.82 286.21 424.28 286.16 422.74 286.10 C 424.43 285.47 427.26 285.74 427.71 283.53 C 427.59 281.02 427.46 278.51 427.44 276.01 Z" />
</g>
<g id="#0f319fff">
<path fill="#0f319f" opacity="1.00" d=" M 415.40 283.57 C 419.49 283.29 423.60 283.54 427.71 283.53 C 427.26 285.74 424.43 285.47 422.74 286.10 C 418.81 286.42 414.47 285.68 411.05 288.13 C 408.26 289.78 406.94 292.87 405.96 295.81 C 405.54 297.50 405.32 299.24 405.30 300.99 C 405.39 315.31 405.31 329.63 405.32 343.94 C 405.55 349.10 403.22 354.69 406.32 359.40 C 405.57 364.56 405.86 369.78 405.83 374.98 C 405.82 390.10 405.88 405.22 405.79 420.34 C 407.09 419.25 408.39 418.15 409.76 417.15 C 409.33 418.55 408.93 419.97 408.44 421.35 C 407.05 423.71 405.55 426.19 405.70 429.05 C 405.66 440.72 405.71 452.39 405.70 464.06 C 405.62 467.99 406.12 472.05 404.91 475.88 C 404.01 478.84 401.80 481.11 399.82 483.40 C 409.04 483.27 418.27 483.29 427.50 483.24 C 427.49 484.07 427.50 484.91 427.51 485.74 C 418.29 485.71 409.07 485.71 399.86 485.73 C 402.96 489.09 405.67 493.19 405.52 497.96 C 405.47 512.70 405.63 527.44 405.44 542.18 C 407.36 545.01 409.78 547.91 413.38 548.48 C 418.04 548.97 422.75 548.54 427.44 548.67 C 427.44 546.33 427.54 544.00 427.57 541.68 C 428.12 541.93 429.23 542.43 429.79 542.68 C 428.77 547.54 428.12 553.07 430.90 557.49 C 429.77 558.00 428.63 558.48 427.49 558.97 C 427.46 556.49 427.45 554.01 427.46 551.54 C 423.30 551.46 419.13 551.63 414.98 551.43 C 411.41 551.31 408.33 549.34 405.45 547.44 C 405.48 567.28 405.50 587.12 405.48 606.96 C 405.23 611.90 409.75 615.16 413.97 616.54 L 412.77 618.60 C 410.04 617.90 407.67 616.32 405.31 614.85 C 405.66 634.87 405.29 654.91 405.52 674.93 C 405.69 680.09 409.96 684.49 414.99 685.24 C 419.16 685.73 423.37 685.43 427.57 685.55 C 427.52 683.02 427.46 680.50 427.43 677.99 C 428.73 678.61 430.04 679.22 431.36 679.87 C 430.81 680.20 429.71 680.87 429.16 681.21 C 428.73 683.03 428.32 684.86 427.91 686.68 C 423.47 686.87 419.02 687.02 414.62 687.63 C 419.28 688.36 423.99 688.03 428.69 688.06 C 429.06 690.15 429.50 692.23 429.94 694.32 C 429.34 694.61 428.16 695.18 427.56 695.46 C 427.28 693.39 428.17 690.96 426.77 689.21 C 421.49 687.53 415.48 689.37 410.41 686.70 C 405.40 684.17 402.58 678.55 402.77 673.04 C 402.82 616.70 402.81 560.35 402.81 504.01 C 402.74 499.29 403.52 493.82 400.03 490.02 C 398.36 487.72 395.51 487.08 393.19 485.71 C 393.06 485.11 392.80 483.92 392.67 483.32 C 398.96 482.07 403.36 476.38 403.05 469.98 C 403.27 412.35 403.22 354.71 403.37 297.08 C 403.33 290.41 408.75 284.26 415.40 283.57 Z" />
</g>
<g id="#fdfdfcff">
<path fill="#fdfdfc" opacity="1.00" d=" M 1395.67 283.58 C 1399.02 283.55 1402.37 283.61 1405.74 283.56 C 1405.74 284.73 1405.76 285.91 1405.81 287.09 C 1403.43 287.09 1401.07 287.05 1398.73 286.96 C 1398.66 287.89 1398.52 289.75 1398.45 290.68 C 1400.40 290.54 1402.91 289.80 1404.50 291.42 C 1408.47 294.90 1406.94 303.64 1401.02 303.75 C 1397.64 304.37 1394.14 302.02 1394.05 298.48 C 1395.25 298.47 1396.47 298.46 1397.71 298.46 C 1398.02 299.01 1398.64 300.12 1398.95 300.67 C 1403.47 300.94 1403.65 294.85 1400.23 293.18 C 1398.60 294.55 1396.54 294.47 1394.57 294.43 C 1395.09 290.83 1395.45 287.21 1395.67 283.58 Z" />
</g>
<g id="#3b35b2ff">
<path fill="#3b35b2" opacity="1.00" d=" M 753.70 291.26 C 753.84 290.96 754.13 290.36 754.27 290.06 C 838.50 289.74 922.74 290.02 1006.98 289.90 C 1011.76 289.48 1016.35 291.91 1018.86 295.96 L 1018.82 296.33 C 1018.05 302.19 1018.49 308.09 1018.43 313.98 C 1018.35 333.41 1018.49 352.85 1018.36 372.29 C 1012.42 372.38 1006.45 372.57 1000.53 371.99 C 997.42 371.12 994.21 370.85 991.00 371.05 C 958.02 371.19 925.03 370.93 892.04 371.02 C 885.32 370.84 878.56 371.45 871.89 370.49 C 878.27 368.02 885.13 369.21 891.78 368.94 C 891.46 368.63 890.84 368.01 890.52 367.69 C 890.92 367.16 891.33 366.63 891.75 366.11 C 848.54 365.90 805.31 366.12 762.10 365.93 C 761.91 349.29 762.03 332.65 762.02 316.00 C 762.04 311.77 761.62 307.50 762.27 303.30 C 765.84 302.72 769.47 302.98 773.08 303.00 C 817.37 303.04 861.66 302.97 905.95 303.01 C 908.71 302.93 911.67 303.22 914.18 301.80 C 912.73 301.50 911.48 300.62 910.05 300.32 C 911.60 300.15 913.14 299.94 914.71 299.74 C 914.23 298.97 913.76 298.21 913.31 297.45 C 918.37 295.45 923.80 294.34 929.23 295.26 C 927.25 296.57 925.21 297.79 923.16 298.95 C 925.62 298.93 928.10 298.96 930.58 298.99 C 930.87 297.91 931.17 296.82 931.48 295.75 C 932.49 294.78 934.82 294.20 933.80 292.41 C 917.53 291.83 901.24 292.39 884.96 292.14 C 843.31 292.21 801.65 292.05 760.00 292.15 C 757.86 292.04 755.78 291.65 753.70 291.26 Z" />
</g>
<g id="#4532b0ff">
<path fill="#4532b0" opacity="1.00" d=" M 1420.41 289.94 L 1420.96 290.32 C 1422.59 291.88 1424.79 292.32 1427.01 292.22 C 1461.35 292.03 1495.70 292.37 1530.04 292.18 C 1533.50 292.10 1536.73 293.43 1539.91 294.66 C 1537.18 295.10 1534.04 294.79 1531.83 296.71 C 1531.46 298.39 1531.52 300.14 1531.50 301.86 C 1500.70 302.07 1469.90 301.84 1439.11 302.09 C 1438.94 322.34 1438.84 342.61 1439.12 362.86 C 1451.07 363.19 1463.03 363.01 1474.99 362.97 C 1478.87 362.76 1481.43 366.13 1484.29 368.21 C 1486.04 367.46 1487.88 366.97 1489.79 366.70 C 1489.61 367.89 1489.47 369.08 1489.31 370.28 C 1488.53 369.53 1487.76 368.79 1487.01 368.06 C 1486.28 368.69 1485.57 369.34 1484.88 369.98 C 1482.78 370.08 1480.69 370.22 1478.63 370.48 C 1484.62 372.47 1491.10 371.21 1497.24 372.54 C 1474.58 374.85 1451.78 373.78 1429.04 374.02 C 1419.48 374.25 1409.90 373.65 1400.37 374.50 C 1399.76 362.68 1400.34 350.84 1400.17 339.01 C 1400.51 330.59 1399.58 322.14 1400.52 313.74 C 1412.53 313.96 1422.82 301.76 1420.41 289.94 Z" />
</g>
<g id="#3935b1ff">
<path fill="#3935b1" opacity="1.00" d=" M 1420.96 290.32 C 1430.24 289.36 1439.61 290.19 1448.94 289.92 C 1512.95 289.91 1576.97 289.92 1640.98 289.93 C 1644.62 289.85 1648.23 291.55 1650.50 294.41 C 1651.29 298.54 1651.54 302.75 1651.48 306.95 C 1651.27 329.70 1651.75 352.45 1651.25 375.20 C 1571.52 375.44 1491.76 375.41 1412.02 375.39 C 1408.13 375.33 1404.07 376.00 1400.37 374.50 C 1409.90 373.65 1419.48 374.25 1429.04 374.02 C 1451.78 373.78 1474.58 374.85 1497.24 372.54 C 1491.10 371.21 1484.62 372.47 1478.63 370.48 C 1480.69 370.22 1482.78 370.08 1484.88 369.98 C 1485.57 369.34 1486.28 368.69 1487.01 368.06 C 1487.76 368.79 1488.53 369.53 1489.31 370.28 C 1489.47 369.08 1489.61 367.89 1489.79 366.70 C 1487.88 366.97 1486.04 367.46 1484.29 368.21 C 1481.43 366.13 1478.87 362.76 1474.99 362.97 C 1463.03 363.01 1451.07 363.19 1439.12 362.86 C 1438.84 342.61 1438.94 322.34 1439.11 302.09 C 1469.90 301.84 1500.70 302.07 1531.50 301.86 C 1531.52 300.14 1531.46 298.39 1531.83 296.71 C 1534.04 294.79 1537.18 295.10 1539.91 294.66 C 1536.73 293.43 1533.50 292.10 1530.04 292.18 C 1495.70 292.37 1461.35 292.03 1427.01 292.22 C 1424.79 292.32 1422.59 291.88 1420.96 290.32 Z" />
</g>
<g id="#4532b1ff">
<path fill="#4532b1" opacity="1.00" d=" M 753.70 291.26 C 755.78 291.65 757.86 292.04 760.00 292.15 C 801.65 292.05 843.31 292.21 884.96 292.14 C 901.24 292.39 917.53 291.83 933.80 292.41 C 934.82 294.20 932.49 294.78 931.48 295.75 C 931.17 296.82 930.87 297.91 930.58 298.99 C 928.10 298.96 925.62 298.93 923.16 298.95 C 925.21 297.79 927.25 296.57 929.23 295.26 C 923.80 294.34 918.37 295.45 913.31 297.45 C 913.76 298.21 914.23 298.97 914.71 299.74 C 913.14 299.94 911.60 300.15 910.05 300.32 C 911.48 300.62 912.73 301.50 914.18 301.80 C 911.67 303.22 908.71 302.93 905.95 303.01 C 861.66 302.97 817.37 303.04 773.08 303.00 C 769.47 302.98 765.84 302.72 762.27 303.30 C 761.62 307.50 762.04 311.77 762.02 316.00 C 762.03 332.65 761.91 349.29 762.10 365.93 C 805.31 366.12 848.54 365.90 891.75 366.11 C 891.33 366.63 890.92 367.16 890.52 367.69 C 890.84 368.01 891.46 368.63 891.78 368.94 C 885.13 369.21 878.27 368.02 871.89 370.49 C 878.56 371.45 885.32 370.84 892.04 371.02 C 925.03 370.93 958.02 371.19 991.00 371.05 C 994.21 370.85 997.42 371.12 1000.53 371.99 C 982.36 372.78 964.17 372.05 945.99 372.35 C 874.93 372.28 803.86 372.47 732.81 372.27 C 732.58 349.78 732.50 327.28 732.76 304.80 C 733.86 304.60 734.96 304.41 736.07 304.22 C 743.76 303.39 750.59 298.33 753.70 291.26 Z" />
</g>
<g id="#001d94ff">
<path fill="#001d94" opacity="1.00" d=" M 1650.50 294.41 C 1651.63 296.40 1652.92 298.48 1652.81 300.88 C 1652.94 326.20 1652.72 351.52 1652.90 376.84 C 1652.26 377.59 1651.63 378.35 1651.03 379.11 C 1651.06 378.37 1651.11 376.91 1651.14 376.18 C 1567.65 376.14 1484.14 376.13 1400.66 376.15 C 1400.57 455.76 1400.71 535.36 1400.62 614.96 C 1400.17 620.30 1404.16 625.34 1409.49 626.03 C 1409.00 626.39 1408.02 627.11 1407.53 627.47 C 1402.47 626.16 1398.99 621.11 1398.80 616.01 C 1398.75 515.24 1398.88 414.47 1398.71 313.71 C 1399.16 313.72 1400.07 313.73 1400.52 313.74 C 1399.58 322.14 1400.51 330.59 1400.17 339.01 C 1400.34 350.84 1399.76 362.68 1400.37 374.50 C 1404.07 376.00 1408.13 375.33 1412.02 375.39 C 1491.76 375.41 1571.52 375.44 1651.25 375.20 C 1651.75 352.45 1651.27 329.70 1651.48 306.95 C 1651.54 302.75 1651.29 298.54 1650.50 294.41 Z" />
<path fill="#001d94" opacity="1.00" d=" M 1018.43 313.98 C 1018.49 308.09 1018.05 302.19 1018.82 296.33 C 1020.13 299.73 1019.66 303.42 1019.72 306.98 C 1019.72 341.64 1019.70 376.30 1019.79 410.95 C 1019.88 434.58 1019.58 458.23 1019.90 481.84 L 1020.10 482.77 C 1032.45 483.75 1044.88 481.96 1057.18 483.51 C 1044.73 484.83 1032.16 482.95 1019.72 484.44 C 1019.83 548.97 1019.75 613.50 1019.78 678.02 C 1020.06 682.65 1017.13 687.13 1012.98 689.07 C 1008.17 690.72 1002.99 689.72 998.02 689.83 C 937.67 689.92 877.35 689.84 817.01 689.90 C 810.02 690.34 803.02 690.14 796.03 690.06 C 786.69 689.26 777.35 690.66 768.02 689.93 C 759.35 690.09 750.66 690.41 741.99 690.05 C 736.25 689.94 731.09 684.79 731.24 679.01 C 731.18 553.98 731.19 428.95 731.28 303.93 C 732.86 304.09 734.46 304.18 736.07 304.22 C 734.96 304.41 733.86 304.60 732.76 304.80 C 732.50 327.28 732.58 349.78 732.81 372.27 C 803.86 372.47 874.93 372.28 945.99 372.35 C 964.17 372.05 982.36 372.78 1000.53 371.99 C 1006.45 372.57 1012.42 372.38 1018.36 372.29 C 1018.49 352.85 1018.35 333.41 1018.43 313.98 M 733.05 373.39 C 732.85 375.57 732.75 377.76 732.76 379.96 C 732.74 479.33 732.76 578.70 732.74 678.07 C 732.55 683.24 736.69 688.21 741.99 688.33 C 830.30 688.38 918.61 688.28 1006.92 688.35 C 1010.65 688.57 1014.71 687.01 1016.60 683.63 C 1018.22 681.04 1018.18 677.87 1018.18 674.93 C 1017.91 622.97 1018.28 571.00 1018.08 519.03 C 1018.35 493.32 1017.74 467.63 1018.13 441.93 C 1017.49 423.29 1018.47 404.63 1017.87 385.99 C 1017.77 381.77 1018.36 377.56 1017.96 373.35 C 922.99 373.51 828.02 373.33 733.05 373.39 Z" />
<path fill="#001d94" opacity="1.00" d=" M 1077.67 343.61 C 1079.69 339.95 1083.67 337.27 1087.92 337.28 C 1167.96 337.32 1248.00 337.29 1328.04 337.30 C 1333.80 337.15 1339.66 341.96 1339.70 347.92 C 1339.77 392.46 1339.71 436.99 1339.71 481.53 C 1352.62 481.40 1365.54 481.59 1378.45 481.46 C 1378.44 479.02 1378.43 476.58 1378.41 474.14 C 1378.85 474.24 1379.72 474.44 1380.16 474.53 C 1379.88 477.08 1379.82 479.69 1379.11 482.18 C 1378.08 483.39 1376.36 483.10 1374.99 483.24 C 1363.46 482.97 1351.93 483.23 1340.40 483.36 L 1340.08 484.34 C 1339.35 490.86 1339.89 497.49 1339.73 504.06 C 1339.68 541.02 1339.74 577.98 1339.68 614.94 C 1339.81 621.10 1333.99 626.27 1328.01 626.31 C 1248.02 626.41 1168.03 626.36 1088.04 626.34 C 1081.62 626.30 1076.24 620.32 1076.32 614.02 C 1076.30 528.01 1076.33 442.01 1076.31 356.00 C 1076.45 351.87 1075.59 347.40 1077.67 343.61 M 1086.14 339.31 C 1081.15 340.08 1077.65 345.11 1078.16 350.06 C 1078.15 438.04 1078.17 526.03 1078.15 614.01 C 1077.69 619.82 1083.29 624.98 1089.00 624.55 C 1168.33 624.63 1247.67 624.56 1327.00 624.57 C 1332.44 625.16 1337.89 620.63 1337.76 615.05 C 1337.85 526.37 1337.72 437.69 1337.80 349.00 C 1338.28 344.06 1334.13 339.07 1329.06 339.21 C 1300.70 339.01 1272.34 339.26 1243.98 339.18 C 1191.37 339.28 1138.74 338.96 1086.14 339.31 Z" />
<path fill="#001d94" opacity="1.00" d=" M 427.44 342.14 C 428.17 342.34 428.91 342.54 429.67 342.73 C 429.14 345.44 428.75 348.18 428.48 350.93 C 423.07 351.06 417.32 352.28 412.19 349.99 C 417.24 348.98 422.41 349.40 427.52 349.49 C 427.50 347.04 427.48 344.59 427.44 342.14 Z" />
<path fill="#001d94" opacity="1.00" d=" M 427.53 408.08 C 427.90 408.24 428.65 408.58 429.03 408.74 C 428.86 411.51 428.71 414.27 428.57 417.04 C 423.48 417.14 418.11 417.99 413.29 415.86 C 417.99 415.12 422.76 415.42 427.49 415.52 C 427.51 413.03 427.50 410.55 427.53 408.08 Z" />
<path fill="#001d94" opacity="1.00" d=" M 445.76 464.97 C 445.66 459.62 450.64 455.16 455.90 455.44 C 511.61 455.42 567.32 455.37 623.03 455.45 C 627.80 455.32 632.47 459.15 632.75 464.03 C 633.02 470.43 632.74 476.84 632.71 483.25 C 632.69 484.07 632.68 484.89 632.70 485.71 C 632.80 491.47 633.00 497.24 632.76 503.00 C 632.67 506.72 629.94 509.95 626.47 511.10 C 626.74 510.66 627.28 509.78 627.55 509.34 C 629.18 507.17 631.24 505.00 630.97 502.06 C 631.27 489.69 631.19 477.32 631.05 464.96 C 631.22 460.68 627.36 456.73 623.02 457.25 C 567.33 457.25 511.64 457.23 455.95 457.26 C 451.56 456.77 447.47 460.65 447.53 465.01 C 447.45 477.00 447.63 489.00 447.48 500.99 C 447.18 503.64 448.53 505.95 449.88 508.11 C 449.71 508.52 449.36 509.34 449.18 509.76 C 447.16 507.69 445.63 505.01 445.77 502.03 C 445.68 489.68 445.70 477.32 445.76 464.97 Z" />
<path fill="#001d94" opacity="1.00" d=" M 445.68 530.15 C 446.14 530.01 447.08 529.72 447.55 529.58 C 447.48 542.71 447.51 555.85 447.55 568.99 C 447.55 573.28 451.67 576.86 455.89 576.63 C 512.32 576.47 568.75 576.71 625.18 576.56 L 624.87 578.28 C 570.25 578.27 515.64 578.41 461.03 578.30 C 457.38 578.23 453.39 578.77 450.16 576.67 C 447.06 575.02 445.60 571.39 445.73 568.01 C 445.72 555.39 445.72 542.77 445.68 530.15 Z" />
<path fill="#001d94" opacity="1.00" d=" M 448.14 592.19 C 450.58 589.38 454.48 588.79 458.01 588.83 C 507.69 588.86 557.36 588.79 607.04 588.83 C 612.72 588.91 618.41 588.53 624.08 588.96 C 628.63 589.32 632.71 593.33 632.75 597.97 C 632.87 604.11 632.83 610.26 632.79 616.40 C 632.77 617.18 632.75 617.96 632.76 618.75 C 632.69 624.51 632.97 630.27 632.77 636.04 C 632.71 641.09 628.04 645.46 623.01 645.32 C 569.01 645.19 515.01 645.31 461.01 645.26 C 457.61 645.18 453.95 645.72 450.83 644.05 C 447.55 642.34 445.45 638.68 445.68 634.97 C 445.69 624.31 445.87 613.65 445.61 603.00 C 445.55 599.30 445.37 595.05 448.14 592.19 M 451.43 591.57 C 449.19 592.90 447.63 595.42 447.60 598.06 C 447.51 609.03 447.46 620.01 447.56 630.99 C 447.70 633.84 446.97 636.99 448.58 639.57 C 450.05 642.15 453.10 643.63 456.03 643.53 C 511.67 643.51 567.32 643.54 622.96 643.54 C 627.06 643.83 631.22 640.23 630.90 636.00 C 631.29 623.66 631.15 611.32 631.15 598.98 C 631.35 594.51 627.57 590.21 622.97 590.57 C 566.98 590.50 510.99 590.61 455.01 590.52 C 453.71 590.53 452.52 590.88 451.43 591.57 Z" />
<path fill="#001d94" opacity="1.00" d=" M 34.71 600.36 L 36.44 599.44 C 37.25 604.50 41.62 608.93 46.97 608.50 C 147.31 608.54 247.65 608.50 347.99 608.51 C 352.27 608.74 355.45 605.39 357.25 601.85 C 357.32 602.54 357.46 603.90 357.53 604.59 C 355.65 608.34 351.11 610.46 346.98 610.33 C 246.66 610.34 146.33 610.34 46.00 610.33 C 40.42 610.19 35.93 605.62 34.71 600.36 Z" />
<path fill="#001d94" opacity="1.00" d=" M 537.46 736.54 C 538.21 736.54 538.97 736.54 539.74 736.55 C 539.76 749.69 539.70 762.83 539.73 775.97 C 540.47 782.13 545.19 788.26 551.94 787.76 C 702.81 787.85 853.69 787.67 1004.57 787.84 C 1004.55 788.45 1004.52 789.68 1004.50 790.29 C 854.32 790.66 704.12 790.29 553.93 790.47 C 549.54 790.62 544.78 789.64 541.64 786.36 C 538.92 783.26 537.24 779.18 537.44 775.03 C 537.46 762.20 537.40 749.37 537.46 736.54 Z" />
</g>
<g id="#2a48b2ff">
<path fill="#2a48b2" opacity="1.00" d=" M 405.30 300.99 C 405.32 299.24 405.54 297.50 405.96 295.81 C 405.86 315.26 406.01 334.72 405.92 354.18 C 407.81 352.50 409.88 351.03 412.19 349.99 C 417.32 352.28 423.07 351.06 428.48 350.93 C 428.75 348.18 429.14 345.44 429.67 342.73 C 434.61 345.51 439.93 347.64 444.61 350.88 C 438.80 353.49 433.30 356.71 427.51 359.36 C 427.48 356.99 427.42 354.63 427.41 352.26 C 422.32 352.44 416.95 351.35 412.07 353.19 C 409.25 354.20 407.60 356.85 406.32 359.40 C 403.22 354.69 405.55 349.10 405.32 343.94 C 405.31 329.63 405.39 315.31 405.30 300.99 Z" />
</g>
<g id="#fafaf9ff">
<path fill="#fafaf9" opacity="1.00" d=" M 30.31 303.73 C 33.14 302.57 35.66 300.47 38.84 300.43 C 38.74 306.94 38.89 313.46 38.77 319.97 C 38.77 322.12 35.83 320.89 34.56 321.33 C 34.53 316.02 34.63 310.71 34.51 305.41 C 33.23 305.98 31.93 306.49 30.60 306.93 C 30.50 305.86 30.40 304.79 30.31 303.73 Z" />
</g>
<g id="#3341b5ff">
<path fill="#3341b5" opacity="1.00" d=" M 56.40 310.84 C 153.29 310.66 250.17 310.77 347.06 310.79 C 350.81 310.50 354.10 312.56 356.73 315.03 L 356.77 315.50 C 357.17 319.66 357.57 323.84 357.49 328.03 C 357.36 342.08 357.60 356.13 357.29 370.18 C 279.20 370.50 201.10 370.22 123.01 370.31 C 94.04 370.33 65.06 370.29 36.09 370.21 C 36.14 361.80 35.66 353.41 35.76 345.00 C 35.67 340.49 36.39 335.86 34.97 331.48 C 46.18 331.97 56.43 322.06 56.40 310.84 Z" />
</g>
<g id="#00229bff">
<path fill="#00229b" opacity="1.00" d=" M 357.49 328.03 C 357.57 323.84 357.17 319.66 356.77 315.50 C 358.53 317.95 359.65 320.89 359.44 323.95 C 359.34 339.96 359.56 355.97 359.31 371.98 L 357.56 371.59 C 341.40 371.12 325.21 371.51 309.04 371.41 C 220.35 371.41 131.66 371.39 42.97 371.42 C 40.77 371.43 38.57 371.40 36.38 371.60 L 34.70 372.02 C 34.39 362.03 34.69 352.03 34.61 342.03 C 34.65 338.51 34.31 334.96 34.97 331.48 C 36.39 335.86 35.67 340.49 35.76 345.00 C 35.66 353.41 36.14 361.80 36.09 370.21 C 65.06 370.29 94.04 370.33 123.01 370.31 C 201.10 370.22 279.20 370.50 357.29 370.18 C 357.60 356.13 357.36 342.08 357.49 328.03 Z" />
<path fill="#00229b" opacity="1.00" d=" M 357.47 483.10 L 359.28 483.27 C 370.41 483.34 381.54 483.26 392.67 483.32 C 392.80 483.92 393.06 485.11 393.19 485.71 C 381.88 485.70 370.57 485.82 359.26 485.67 C 358.82 485.45 357.94 485.03 357.50 484.81 C 357.49 484.38 357.48 483.53 357.47 483.10 Z" />
</g>
<g id="#11309dff">
<path fill="#11309d" opacity="1.00" d=" M 445.63 333.00 C 445.00 327.28 450.34 322.10 455.97 322.48 C 511.67 322.42 567.38 322.49 623.08 322.45 C 627.93 322.13 632.53 326.09 632.85 330.96 C 633.09 337.08 632.64 343.21 633.10 349.33 C 643.40 349.34 653.70 349.40 664.00 349.41 C 667.91 349.46 672.20 350.63 674.61 353.94 C 674.84 353.87 675.29 353.72 675.52 353.65 L 676.51 353.32 C 676.91 352.96 677.71 352.26 678.10 351.90 C 678.25 391.94 678.09 431.97 678.19 472.00 C 678.16 476.81 681.63 481.41 686.34 482.53 C 694.61 484.39 703.13 482.22 711.47 483.33 C 711.46 484.12 711.44 484.91 711.44 485.72 C 703.94 485.90 696.44 485.61 688.96 485.83 C 683.28 486.24 678.13 491.04 678.19 496.89 C 678.13 553.92 678.15 610.95 678.18 667.98 C 678.36 673.51 678.19 679.85 674.00 684.02 C 670.70 687.59 665.54 688.24 660.94 688.27 C 651.66 688.22 642.39 688.39 633.11 688.25 C 632.81 693.18 632.89 698.13 632.85 703.07 C 632.94 708.19 628.01 712.50 623.01 712.31 C 567.34 712.34 511.66 712.29 455.99 712.34 C 450.87 712.49 445.77 708.28 445.66 703.02 C 445.78 689.90 445.59 676.78 445.72 663.67 C 446.78 659.49 450.47 655.93 454.96 656.08 C 489.30 655.78 523.66 656.02 558.00 656.01 C 579.68 655.68 601.37 656.17 623.05 656.09 C 627.99 655.72 632.70 659.89 632.78 664.88 C 633.07 671.73 632.77 678.59 632.95 685.44 C 643.30 685.39 653.67 685.66 664.02 685.42 C 670.04 685.29 675.69 680.20 675.40 673.98 C 675.41 653.97 675.48 633.95 675.34 613.94 C 672.51 616.56 669.02 618.85 665.00 618.64 C 654.25 618.72 643.51 618.75 632.76 618.75 C 632.75 617.96 632.77 617.18 632.79 616.40 C 643.20 616.31 653.62 616.50 664.03 616.39 C 670.08 616.37 675.61 611.13 675.39 604.98 C 675.41 585.55 675.49 566.11 675.36 546.68 C 672.33 549.64 668.33 551.52 664.05 551.45 C 653.72 551.41 643.40 551.48 633.08 551.40 C 632.71 557.61 633.10 563.84 632.77 570.05 C 632.47 574.28 628.73 577.28 624.87 578.28 L 625.18 576.56 C 627.30 575.30 629.65 573.95 630.47 571.46 C 631.15 569.03 630.94 566.46 631.04 563.97 C 630.90 552.95 631.35 541.93 630.95 530.92 C 630.88 527.22 627.65 524.16 624.04 523.88 C 619.36 523.47 614.65 523.78 609.96 523.72 C 559.97 523.77 509.98 523.75 459.99 523.72 C 457.25 523.81 454.33 523.40 451.79 524.64 C 449.70 525.58 448.72 527.76 447.55 529.58 C 447.08 529.72 446.14 530.01 445.68 530.15 C 446.58 524.91 451.73 521.43 456.92 521.91 C 512.30 521.95 567.68 521.82 623.05 521.96 C 628.03 521.71 632.78 525.91 632.80 530.96 C 633.03 536.88 632.73 542.81 632.90 548.74 C 643.63 548.44 654.37 548.88 665.10 548.56 C 670.19 548.32 675.21 544.29 675.30 538.95 C 675.59 524.95 675.25 510.93 675.44 496.93 C 675.53 492.61 677.87 488.81 680.84 485.84 C 664.80 485.63 648.75 485.78 632.70 485.71 C 632.68 484.89 632.69 484.07 632.71 483.25 C 648.68 483.29 664.65 483.19 680.63 483.29 C 677.86 480.16 675.47 476.40 675.46 472.08 C 675.28 457.74 675.52 443.38 675.39 429.03 C 675.46 423.90 671.38 419.31 666.41 418.35 C 658.02 416.71 649.47 418.68 641.02 417.96 C 638.39 417.78 635.75 417.75 633.12 417.73 C 632.80 423.86 633.07 430.00 632.80 436.13 C 632.67 441.09 627.90 445.21 622.99 444.83 C 566.98 444.86 510.95 444.83 454.94 444.88 C 449.79 444.95 445.63 439.99 445.75 435.00 C 445.69 422.66 445.63 410.31 445.75 397.97 C 445.67 392.61 450.75 388.37 455.95 388.64 C 509.30 388.60 562.65 388.63 616.00 388.60 C 620.03 388.75 624.42 387.84 628.11 389.93 C 631.01 391.48 632.81 394.70 632.81 397.97 C 633.01 403.80 632.82 409.64 632.90 415.48 C 643.23 415.33 653.56 415.42 663.89 415.45 C 668.29 415.30 672.34 417.36 675.35 420.47 C 675.47 401.32 675.39 382.17 675.41 363.02 C 675.68 357.24 670.66 352.35 665.03 352.06 C 654.42 351.40 643.77 352.00 633.15 351.87 C 632.68 357.92 633.10 363.98 632.76 370.03 C 632.56 374.21 629.11 377.89 624.97 378.42 C 620.99 378.76 617.00 378.49 613.02 378.54 C 560.33 378.47 507.64 378.57 454.96 378.49 C 450.63 378.55 447.22 375.12 445.79 371.28 C 445.54 358.53 445.92 345.76 445.63 333.00 M 453.33 324.52 C 449.97 325.24 447.57 328.68 447.64 332.05 C 447.51 344.38 447.58 356.71 447.60 369.04 C 447.37 373.56 451.66 377.09 456.02 376.70 C 511.69 376.71 567.37 376.74 623.04 376.68 C 627.25 377.14 631.36 373.33 630.94 369.05 C 630.81 356.70 631.09 344.36 631.01 332.02 C 631.30 327.74 627.25 323.92 623.02 324.36 C 580.02 324.26 537.03 324.37 494.04 324.33 C 480.47 324.47 466.88 324.07 453.33 324.52 M 453.50 390.69 C 449.87 391.58 447.27 395.24 447.54 398.96 C 447.70 411.30 447.48 423.64 447.63 435.97 C 447.73 440.22 451.88 443.40 455.98 443.11 C 511.67 443.17 567.36 443.13 623.05 443.16 C 627.08 443.48 630.94 440.16 630.91 436.05 C 631.17 423.36 630.89 410.67 631.02 397.98 C 631.18 393.78 627.19 390.11 623.03 390.43 C 579.36 390.42 535.68 390.42 492.01 390.43 C 479.18 390.59 466.31 390.08 453.50 390.69 M 452.27 658.30 C 449.38 659.63 447.39 662.79 447.54 665.98 C 447.69 678.29 447.40 690.60 447.62 702.91 C 447.59 707.25 451.80 710.78 456.04 710.45 C 511.67 710.43 567.31 710.46 622.95 710.43 C 626.63 710.66 630.28 707.81 630.77 704.12 C 631.37 698.11 630.81 692.07 630.91 686.05 C 630.83 679.00 631.29 671.96 631.01 664.92 C 630.91 660.44 626.35 657.17 622.06 657.62 C 568.03 657.60 513.99 657.55 459.95 657.61 C 457.39 657.70 454.68 657.26 452.27 658.30 Z" />
</g>
<g id="#fefefeff">
<path fill="#fefefe" opacity="1.00" d=" M 1086.14 339.31 C 1138.74 338.96 1191.37 339.28 1243.98 339.18 C 1272.34 339.26 1300.70 339.01 1329.06 339.21 C 1334.13 339.07 1338.28 344.06 1337.80 349.00 C 1337.72 437.69 1337.85 526.37 1337.76 615.05 C 1337.89 620.63 1332.44 625.16 1327.00 624.57 C 1247.67 624.56 1168.33 624.63 1089.00 624.55 C 1083.29 624.98 1077.69 619.82 1078.15 614.01 C 1078.17 526.03 1078.15 438.04 1078.16 350.06 C 1077.65 345.11 1081.15 340.08 1086.14 339.31 M 1098.02 354.26 L 1098.33 354.60 C 1094.97 355.41 1092.52 358.55 1092.71 362.02 C 1092.63 372.42 1092.46 382.83 1092.82 393.22 C 1094.43 395.75 1096.63 398.59 1099.92 398.69 C 1172.28 398.60 1244.65 398.71 1317.01 398.62 C 1321.50 398.70 1325.22 394.34 1324.88 389.94 C 1324.83 380.61 1324.92 371.28 1324.73 361.95 C 1324.84 357.39 1320.52 353.67 1316.08 353.87 C 1254.74 353.86 1193.40 353.87 1132.05 353.86 C 1120.71 354.04 1109.34 353.47 1098.02 354.26 M 1098.18 407.19 C 1094.94 408.31 1092.54 411.51 1092.69 415.00 C 1092.60 424.34 1092.62 433.68 1092.55 443.03 C 1092.26 447.53 1096.53 451.61 1101.00 451.28 C 1172.64 451.30 1244.29 451.27 1315.94 451.28 C 1320.55 451.87 1325.04 447.71 1324.72 443.05 C 1324.72 433.66 1324.88 424.26 1324.76 414.87 C 1324.90 410.30 1320.44 406.39 1315.96 406.72 C 1249.62 406.70 1183.28 406.69 1116.94 406.73 C 1110.69 406.99 1104.35 406.11 1098.18 407.19 M 1096.42 461.61 C 1094.27 462.95 1092.69 465.33 1092.77 467.93 C 1092.74 477.30 1092.84 486.68 1092.77 496.05 C 1092.66 499.95 1096.18 503.41 1100.06 503.39 C 1132.03 503.48 1164.00 503.37 1195.97 503.43 C 1200.24 504.03 1204.44 500.40 1204.09 496.03 C 1203.56 486.33 1204.03 476.62 1203.79 466.92 C 1203.80 464.84 1202.57 462.97 1200.98 461.74 C 1198.49 459.57 1194.96 460.64 1191.98 460.44 C 1161.64 460.44 1131.30 460.44 1100.97 460.41 C 1099.35 460.36 1097.74 460.68 1096.42 461.61 M 1212.86 466.97 C 1212.69 476.65 1212.95 486.33 1212.78 496.01 C 1212.47 499.56 1215.37 503.21 1219.00 503.34 C 1251.67 503.41 1284.35 503.37 1317.03 503.38 C 1320.12 503.66 1322.81 501.64 1324.01 498.90 C 1324.73 492.62 1324.25 486.28 1324.42 479.98 C 1324.16 475.08 1324.91 470.10 1323.81 465.28 C 1323.35 462.20 1319.94 460.21 1317.00 460.45 C 1285.02 460.61 1253.03 460.40 1221.05 460.51 C 1217.17 460.14 1213.12 462.95 1212.86 466.97 M 1098.24 512.33 C 1094.86 513.23 1092.61 516.64 1092.64 520.07 C 1092.43 529.67 1092.47 539.30 1092.65 548.90 C 1092.59 552.85 1095.79 556.99 1099.93 556.99 C 1171.95 557.03 1243.99 556.97 1316.02 557.02 C 1320.53 557.55 1324.81 553.50 1324.73 549.00 C 1324.89 540.33 1324.74 531.66 1324.81 522.99 C 1324.80 519.85 1324.88 516.09 1322.02 514.06 C 1319.05 511.25 1314.74 512.08 1311.05 511.99 C 1246.70 512.02 1182.35 511.99 1118.00 512.03 C 1111.42 512.26 1104.78 511.52 1098.24 512.33 M 1097.27 565.32 C 1094.73 566.64 1092.68 569.16 1092.69 572.14 C 1092.28 580.42 1092.88 588.73 1092.55 597.02 C 1092.56 600.20 1092.14 603.93 1094.56 606.43 C 1096.37 608.61 1099.21 609.52 1102.00 609.37 C 1173.32 609.30 1244.66 609.40 1315.99 609.34 C 1320.18 609.69 1324.59 606.44 1324.65 602.07 C 1324.70 592.38 1324.67 582.68 1324.63 572.99 C 1324.97 568.75 1321.19 564.74 1316.98 564.73 C 1244.97 564.63 1172.95 564.79 1100.94 564.70 C 1099.64 564.62 1098.42 564.82 1097.27 565.32 Z" />
<path fill="#fefefe" opacity="1.00" d=" M 444.61 350.88 L 444.81 350.78 C 444.88 356.22 444.73 361.66 444.75 367.09 C 444.68 368.56 445.15 369.97 445.79 371.28 C 447.22 375.12 450.63 378.55 454.96 378.49 C 507.64 378.57 560.33 378.47 613.02 378.54 C 617.00 378.49 620.99 378.76 624.97 378.42 C 629.11 377.89 632.56 374.21 632.76 370.03 C 633.10 363.98 632.68 357.92 633.15 351.87 C 643.77 352.00 654.42 351.40 665.03 352.06 C 670.66 352.35 675.68 357.24 675.41 363.02 C 675.39 382.17 675.47 401.32 675.35 420.47 C 672.34 417.36 668.29 415.30 663.89 415.45 C 653.56 415.42 643.23 415.33 632.90 415.48 C 632.82 409.64 633.01 403.80 632.81 397.97 C 632.81 394.70 631.01 391.48 628.11 389.93 C 624.42 387.84 620.03 388.75 616.00 388.60 C 562.65 388.63 509.30 388.60 455.95 388.64 C 450.75 388.37 445.67 392.61 445.75 397.97 C 445.63 410.31 445.69 422.66 445.75 435.00 C 445.63 439.99 449.79 444.95 454.94 444.88 C 510.95 444.83 566.98 444.86 622.99 444.83 C 627.90 445.21 632.67 441.09 632.80 436.13 C 633.07 430.00 632.80 423.86 633.12 417.73 C 635.75 417.75 638.39 417.78 641.02 417.96 C 649.47 418.68 658.02 416.71 666.41 418.35 C 671.38 419.31 675.46 423.90 675.39 429.03 C 675.52 443.38 675.28 457.74 675.46 472.08 C 675.47 476.40 677.86 480.16 680.63 483.29 C 664.65 483.19 648.68 483.29 632.71 483.25 C 632.74 476.84 633.02 470.43 632.75 464.03 C 632.47 459.15 627.80 455.32 623.03 455.45 C 567.32 455.37 511.61 455.42 455.90 455.44 C 450.64 455.16 445.66 459.62 445.76 464.97 C 445.70 477.32 445.68 489.68 445.77 502.03 C 445.63 505.01 447.16 507.69 449.18 509.76 C 451.27 510.88 453.55 511.77 455.96 511.70 C 511.00 511.72 566.03 511.66 621.07 511.71 C 622.86 511.62 624.75 511.76 626.47 511.10 C 629.94 509.95 632.67 506.72 632.76 503.00 C 633.00 497.24 632.80 491.47 632.70 485.71 C 648.75 485.78 664.80 485.63 680.84 485.84 C 677.87 488.81 675.53 492.61 675.44 496.93 C 675.25 510.93 675.59 524.95 675.30 538.95 C 675.21 544.29 670.19 548.32 665.10 548.56 C 654.37 548.88 643.63 548.44 632.90 548.74 C 632.73 542.81 633.03 536.88 632.80 530.96 C 632.78 525.91 628.03 521.71 623.05 521.96 C 567.68 521.82 512.30 521.95 456.92 521.91 C 451.73 521.43 446.58 524.91 445.68 530.15 C 445.72 542.77 445.72 555.39 445.73 568.01 C 445.60 571.39 447.06 575.02 450.16 576.67 C 453.39 578.77 457.38 578.23 461.03 578.30 C 515.64 578.41 570.25 578.27 624.87 578.28 C 628.73 577.28 632.47 574.28 632.77 570.05 C 633.10 563.84 632.71 557.61 633.08 551.40 C 643.40 551.48 653.72 551.41 664.05 551.45 C 668.33 551.52 672.33 549.64 675.36 546.68 C 675.49 566.11 675.41 585.55 675.39 604.98 C 675.61 611.13 670.08 616.37 664.03 616.39 C 653.62 616.50 643.20 616.31 632.79 616.40 C 632.83 610.26 632.87 604.11 632.75 597.97 C 632.71 593.33 628.63 589.32 624.08 588.96 C 618.41 588.53 612.72 588.91 607.04 588.83 C 557.36 588.79 507.69 588.86 458.01 588.83 C 454.48 588.79 450.58 589.38 448.14 592.19 C 445.37 595.05 445.55 599.30 445.61 603.00 C 445.87 613.65 445.69 624.31 445.68 634.97 C 445.45 638.68 447.55 642.34 450.83 644.05 C 453.95 645.72 457.61 645.18 461.01 645.26 C 515.01 645.31 569.01 645.19 623.01 645.32 C 628.04 645.46 632.71 641.09 632.77 636.04 C 632.97 630.27 632.69 624.51 632.76 618.75 C 643.51 618.75 654.25 618.72 665.00 618.64 C 669.02 618.85 672.51 616.56 675.34 613.94 C 675.48 633.95 675.41 653.97 675.40 673.98 C 675.69 680.20 670.04 685.29 664.02 685.42 C 653.67 685.66 643.30 685.39 632.95 685.44 C 632.77 678.59 633.07 671.73 632.78 664.88 C 632.70 659.89 627.99 655.72 623.05 656.09 C 601.37 656.17 579.68 655.68 558.00 656.01 C 523.66 656.02 489.30 655.78 454.96 656.08 C 450.47 655.93 446.78 659.49 445.72 663.67 C 443.67 670.93 445.28 678.70 444.72 686.16 L 444.61 686.12 C 439.94 684.58 435.74 682.03 431.36 679.87 C 430.04 679.22 428.73 678.61 427.43 677.99 C 427.46 680.50 427.52 683.02 427.57 685.55 C 423.37 685.43 419.16 685.73 414.99 685.24 C 409.96 684.49 405.69 680.09 405.52 674.93 C 405.29 654.91 405.66 634.87 405.31 614.85 C 407.67 616.32 410.04 617.90 412.77 618.60 C 417.53 619.65 422.45 619.20 427.29 619.18 C 427.28 621.50 427.43 623.82 427.46 626.14 C 433.27 623.67 438.76 620.54 444.45 617.79 C 438.96 614.44 433.31 611.32 427.39 608.82 C 427.32 611.25 427.37 613.69 427.16 616.12 C 422.78 616.63 418.35 616.10 413.97 616.54 C 409.75 615.16 405.23 611.90 405.48 606.96 C 405.50 587.12 405.48 567.28 405.45 547.44 C 408.33 549.34 411.41 551.31 414.98 551.43 C 419.13 551.63 423.30 551.46 427.46 551.54 C 427.45 554.01 427.46 556.49 427.49 558.97 C 428.63 558.48 429.77 558.00 430.90 557.49 C 435.53 555.14 440.03 552.56 444.60 550.11 C 439.72 547.52 434.82 544.95 429.79 542.68 C 429.23 542.43 428.12 541.93 427.57 541.68 C 427.54 544.00 427.44 546.33 427.44 548.67 C 422.75 548.54 418.04 548.97 413.38 548.48 C 409.78 547.91 407.36 545.01 405.44 542.18 C 405.63 527.44 405.47 512.70 405.52 497.96 C 405.67 493.19 402.96 489.09 399.86 485.73 C 409.07 485.71 418.29 485.71 427.51 485.74 C 427.46 488.22 427.48 490.69 427.52 493.18 C 433.17 490.22 438.86 487.32 444.52 484.37 C 439.01 481.13 433.27 478.28 427.39 475.78 C 427.38 478.26 427.47 480.75 427.50 483.24 C 418.27 483.29 409.04 483.27 399.82 483.40 C 401.80 481.11 404.01 478.84 404.91 475.88 C 406.12 472.05 405.62 467.99 405.70 464.06 C 405.71 452.39 405.66 440.72 405.70 429.05 C 405.55 426.19 407.05 423.71 408.44 421.35 C 413.79 416.93 421.03 418.40 427.41 418.33 C 427.40 420.75 427.43 423.17 427.44 425.60 C 433.01 422.56 439.01 420.21 444.20 416.53 C 439.19 413.85 434.14 411.21 429.03 408.74 C 428.65 408.58 427.90 408.24 427.53 408.08 C 427.50 410.55 427.51 413.03 427.49 415.52 C 422.76 415.42 417.99 415.12 413.29 415.86 C 412.09 416.21 410.91 416.64 409.76 417.15 C 408.39 418.15 407.09 419.25 405.79 420.34 C 405.88 405.22 405.82 390.10 405.83 374.98 C 405.86 369.78 405.57 364.56 406.32 359.40 C 407.60 356.85 409.25 354.20 412.07 353.19 C 416.95 351.35 422.32 352.44 427.41 352.26 C 427.42 354.63 427.48 356.99 427.51 359.36 C 433.30 356.71 438.80 353.49 444.61 350.88 Z" />
<path fill="#fefefe" opacity="1.00" d=" M 733.05 373.39 C 828.02 373.33 922.99 373.51 1017.96 373.35 C 1018.36 377.56 1017.77 381.77 1017.87 385.99 C 1018.47 404.63 1017.49 423.29 1018.13 441.93 C 1017.74 467.63 1018.35 493.32 1018.08 519.03 C 1018.28 571.00 1017.91 622.97 1018.18 674.93 C 1018.18 677.87 1018.22 681.04 1016.60 683.63 C 1014.71 687.01 1010.65 688.57 1006.92 688.35 C 918.61 688.28 830.30 688.38 741.99 688.33 C 736.69 688.21 732.55 683.24 732.74 678.07 C 732.76 578.70 732.74 479.33 732.76 379.96 C 732.75 377.76 732.85 375.57 733.05 373.39 M 755.40 421.50 C 751.75 422.00 748.47 425.18 748.52 428.99 C 748.44 438.64 748.55 448.29 748.53 457.95 C 748.08 462.55 752.45 466.82 757.02 466.48 C 836.35 466.36 915.69 466.59 995.03 466.40 C 1000.10 466.81 1004.11 461.90 1003.88 457.07 C 1004.01 449.04 1003.87 441.01 1003.90 432.99 C 1003.87 429.54 1003.73 425.34 1000.64 423.13 C 997.37 420.45 992.88 421.52 989.01 421.35 C 958.03 421.32 927.04 421.33 896.06 421.27 C 849.18 421.54 802.27 421.06 755.40 421.50 M 754.59 473.74 C 752.83 475.18 751.18 476.74 749.61 478.37 C 748.95 490.07 748.99 501.84 749.54 513.54 C 750.59 515.12 751.95 516.45 753.53 517.51 C 773.02 518.27 792.56 517.67 812.07 517.83 C 837.38 517.94 862.70 517.77 888.01 517.82 C 906.00 518.09 924.01 517.46 941.99 518.18 C 957.99 517.66 974.03 517.70 990.03 518.20 C 993.11 518.13 996.23 517.92 999.24 517.18 C 1001.71 515.79 1003.37 512.95 1003.34 510.11 C 1003.41 502.09 1003.26 494.07 1003.35 486.05 C 1003.32 483.35 1003.66 480.52 1002.34 478.04 C 1001.49 475.82 999.18 474.81 997.24 473.76 C 916.36 473.77 835.47 473.80 754.59 473.74 M 749.65 530.37 C 748.91 542.40 748.89 554.53 749.64 566.56 C 751.50 568.72 753.92 570.91 757.03 570.41 C 836.34 570.41 915.65 570.40 994.97 570.45 C 999.61 571.21 1003.81 566.45 1003.36 561.97 C 1003.27 552.36 1003.45 542.75 1003.24 533.15 C 1002.50 529.93 999.73 526.21 996.09 526.58 C 916.02 526.55 835.95 526.58 755.89 526.57 C 753.15 526.27 751.37 528.65 749.65 530.37 M 754.29 578.35 C 750.19 579.57 748.02 583.94 748.46 588.03 C 748.51 597.02 748.50 606.01 748.54 615.01 C 748.28 619.52 752.48 623.71 757.05 623.17 C 836.37 623.17 915.69 623.19 995.01 623.15 C 999.55 623.60 1003.70 619.54 1003.82 615.08 C 1004.05 606.39 1003.79 597.69 1003.84 588.99 C 1003.90 585.63 1003.31 581.74 1000.36 579.67 C 997.14 577.12 992.81 578.12 989.04 577.96 C 914.35 577.96 839.66 577.96 764.97 577.96 C 761.41 578.05 757.78 577.54 754.29 578.35 M 754.33 630.51 C 750.69 631.51 748.26 635.22 748.52 638.96 C 748.47 648.28 748.49 657.61 748.53 666.94 C 748.04 671.57 752.38 675.77 756.96 675.37 C 836.30 675.39 915.63 675.34 994.96 675.37 C 999.64 675.82 1003.70 671.60 1003.82 667.07 C 1004.04 659.37 1003.81 651.66 1003.91 643.96 C 1003.82 640.75 1004.18 637.32 1002.64 634.37 C 1001.28 631.56 998.08 630.01 995.04 630.11 C 920.36 630.32 845.68 630.14 771.00 630.17 C 765.45 630.32 759.84 629.70 754.33 630.51 Z" />
<path fill="#fefefe" opacity="1.00" d=" M 1400.66 376.15 C 1484.14 376.13 1567.65 376.14 1651.14 376.18 C 1651.11 376.91 1651.06 378.37 1651.03 379.11 C 1650.80 458.07 1651.02 537.04 1650.91 615.99 C 1651.09 620.85 1647.38 625.12 1642.67 625.97 C 1602.78 625.81 1562.86 625.66 1522.97 626.07 C 1517.65 625.67 1512.31 625.95 1507.00 626.13 C 1477.35 625.55 1447.68 626.00 1418.03 625.82 C 1415.17 625.79 1412.32 625.80 1409.49 626.03 C 1404.16 625.34 1400.17 620.30 1400.62 614.96 C 1400.71 535.36 1400.57 455.76 1400.66 376.15 M 1413.40 407.08 C 1413.29 417.06 1413.33 427.04 1413.31 437.02 C 1413.18 440.23 1415.36 443.05 1418.27 444.24 C 1429.17 444.66 1440.08 444.43 1450.99 444.49 C 1509.67 444.42 1568.34 444.52 1627.02 444.47 C 1629.94 444.49 1632.91 444.61 1635.81 443.98 C 1638.20 442.44 1640.59 440.11 1640.34 437.01 C 1640.39 427.33 1640.35 417.65 1640.39 407.98 C 1640.69 403.41 1636.46 399.60 1632.02 399.79 C 1562.02 399.77 1492.02 399.74 1422.02 399.81 C 1417.86 399.60 1413.41 402.66 1413.40 407.08 M 1419.36 455.39 C 1415.54 456.28 1412.63 460.05 1412.75 463.98 C 1412.67 473.33 1412.78 482.67 1412.72 492.02 C 1412.43 496.93 1417.13 501.15 1421.97 500.70 C 1491.62 500.81 1561.28 500.62 1630.94 500.73 C 1634.07 500.92 1637.55 499.93 1639.28 497.10 C 1641.24 494.43 1640.72 490.98 1640.77 487.89 C 1640.53 479.62 1641.06 471.33 1640.66 463.07 C 1640.36 458.30 1635.75 454.72 1631.10 455.08 C 1568.73 455.04 1506.36 455.14 1444.00 455.13 C 1435.79 455.43 1427.54 454.67 1419.36 455.39 M 1418.42 510.59 C 1414.90 511.64 1413.13 515.54 1413.36 519.01 C 1413.39 527.98 1413.16 536.96 1413.46 545.93 C 1413.20 550.02 1416.69 554.33 1420.91 554.28 C 1491.29 554.25 1561.68 554.25 1632.07 554.27 C 1636.22 554.56 1640.02 551.03 1640.24 546.90 C 1640.34 537.59 1640.22 528.27 1640.30 518.96 C 1640.62 515.11 1638.15 510.78 1634.03 510.39 C 1629.03 509.93 1624.01 510.41 1619.01 510.22 C 1560.67 510.19 1502.33 510.21 1444.00 510.19 C 1435.47 510.42 1426.89 509.64 1418.42 510.59 M 1413.42 572.04 C 1413.23 582.46 1413.18 592.89 1413.60 603.31 C 1414.57 605.59 1416.33 607.33 1418.57 608.40 C 1490.05 608.33 1561.54 608.36 1633.02 608.38 C 1636.39 608.59 1639.27 605.40 1640.16 602.40 C 1640.43 592.58 1640.18 582.74 1640.30 572.91 C 1640.48 570.42 1639.56 567.88 1637.87 566.07 C 1634.86 563.54 1630.64 564.28 1627.02 564.15 C 1558.68 564.24 1490.34 564.12 1422.00 564.21 C 1417.37 563.45 1413.17 567.44 1413.42 572.04 Z" />
<path fill="#fefefe" opacity="1.00" d=" M 451.79 524.64 C 454.33 523.40 457.25 523.81 459.99 523.72 C 509.98 523.75 559.97 523.77 609.96 523.72 C 614.65 523.78 619.36 523.47 624.04 523.88 C 627.65 524.16 630.88 527.22 630.95 530.92 C 631.35 541.93 630.90 552.95 631.04 563.97 C 630.94 566.46 631.15 569.03 630.47 571.46 C 629.65 573.95 627.30 575.30 625.18 576.56 C 568.75 576.71 512.32 576.47 455.89 576.63 C 451.67 576.86 447.55 573.28 447.55 568.99 C 447.51 555.85 447.48 542.71 447.55 529.58 C 448.72 527.76 449.70 525.58 451.79 524.64 Z" />
</g>
<g id="#a4a8b6ff">
<path fill="#a4a8b6" opacity="1.00" d=" M 1098.02 354.26 C 1109.34 353.47 1120.71 354.04 1132.05 353.86 C 1193.40 353.87 1254.74 353.86 1316.08 353.87 C 1320.52 353.67 1324.84 357.39 1324.73 361.95 C 1324.92 371.28 1324.83 380.61 1324.88 389.94 C 1325.22 394.34 1321.50 398.70 1317.01 398.62 C 1244.65 398.71 1172.28 398.60 1099.92 398.69 C 1096.63 398.59 1094.43 395.75 1092.82 393.22 L 1094.10 393.05 C 1096.20 394.60 1098.05 397.10 1100.98 396.75 C 1123.32 397.15 1145.66 396.86 1168.00 396.95 C 1199.01 396.85 1230.01 397.18 1261.01 396.72 C 1279.37 396.70 1297.74 396.83 1316.10 396.73 C 1319.44 397.04 1322.88 394.60 1322.91 391.08 C 1323.08 381.35 1323.03 371.61 1322.94 361.89 C 1323.10 358.20 1319.55 355.36 1315.99 355.93 C 1243.79 355.94 1171.59 356.08 1099.39 355.77 C 1099.13 355.48 1098.59 354.89 1098.33 354.60 L 1098.02 354.26 Z" />
</g>
<g id="#8a8fa1ff">
<path fill="#8a8fa1" opacity="1.00" d=" M 1092.71 362.02 C 1092.52 358.55 1094.97 355.41 1098.33 354.60 C 1098.59 354.89 1099.13 355.48 1099.39 355.77 C 1096.71 356.67 1094.14 358.84 1094.26 361.91 C 1094.01 372.28 1094.33 382.67 1094.10 393.05 L 1092.82 393.22 C 1092.46 382.83 1092.63 372.42 1092.71 362.02 Z" />
</g>
<g id="#f7f7f9ff">
<path fill="#f7f7f9" opacity="1.00" d=" M 1094.26 361.91 C 1094.14 358.84 1096.71 356.67 1099.39 355.77 C 1171.59 356.08 1243.79 355.94 1315.99 355.93 C 1319.55 355.36 1323.10 358.20 1322.94 361.89 C 1323.03 371.61 1323.08 381.35 1322.91 391.08 C 1322.88 394.60 1319.44 397.04 1316.10 396.73 C 1297.74 396.83 1279.37 396.70 1261.01 396.72 C 1230.01 397.18 1199.01 396.85 1168.00 396.95 C 1145.66 396.86 1123.32 397.15 1100.98 396.75 C 1098.05 397.10 1096.20 394.60 1094.10 393.05 C 1094.33 382.67 1094.01 372.28 1094.26 361.91 Z" />
</g>
<g id="#060f7dff">
<path fill="#060f7d" opacity="1.00" d=" M 34.70 372.02 L 36.38 371.60 C 36.55 447.55 36.44 523.49 36.44 599.44 L 34.71 600.36 C 34.45 541.58 34.77 482.79 34.56 424.01 C 34.62 406.68 34.59 389.35 34.70 372.02 Z" />
</g>
<g id="#0b1588ff">
<path fill="#0b1588" opacity="1.00" d=" M 357.56 371.59 L 359.31 371.98 C 359.38 409.07 359.43 446.17 359.28 483.27 L 357.47 483.10 C 357.45 445.93 357.32 408.76 357.56 371.59 Z" />
</g>
<g id="#1c36a3ff">
<path fill="#1c36a3" opacity="1.00" d=" M 1651.03 379.11 C 1651.63 378.35 1652.26 377.59 1652.90 376.84 C 1653.32 430.23 1652.94 483.63 1653.08 537.03 C 1653.07 563.33 1653.08 589.64 1653.04 615.95 C 1653.05 620.10 1650.66 624.03 1647.18 626.21 C 1646.06 626.61 1644.21 628.38 1643.37 626.94 L 1642.67 625.97 C 1647.38 625.12 1651.09 620.85 1650.91 615.99 C 1651.02 537.04 1650.80 458.07 1651.03 379.11 Z" />
<path fill="#1c36a3" opacity="1.00" d=" M 449.88 508.11 C 453.76 510.70 458.55 509.87 462.95 509.97 C 515.99 509.91 569.03 509.96 622.07 509.95 C 623.91 509.91 625.74 509.68 627.55 509.34 C 627.28 509.78 626.74 510.66 626.47 511.10 C 624.75 511.76 622.86 511.62 621.07 511.71 C 566.03 511.66 511.00 511.72 455.96 511.70 C 453.55 511.77 451.27 510.88 449.18 509.76 C 449.36 509.34 449.71 508.52 449.88 508.11 Z" />
<path fill="#1c36a3" opacity="1.00" d=" M 1326.65 789.47 C 1331.97 786.34 1337.53 783.47 1343.29 781.24 C 1343.25 783.47 1343.23 785.71 1343.22 787.96 C 1398.15 787.80 1453.09 787.92 1508.03 787.89 C 1510.01 787.86 1512.01 787.70 1514.03 787.55 C 1514.31 787.94 1514.88 788.74 1515.17 789.14 L 1514.90 789.67 C 1512.80 790.93 1510.25 790.56 1507.94 790.68 C 1453.10 790.61 1398.25 790.85 1343.41 790.60 C 1343.29 793.01 1343.23 795.42 1343.26 797.85 C 1337.61 795.29 1332.12 792.39 1326.65 789.47 Z" />
</g>
<g id="#298e41ff">
<path fill="#298e41" opacity="1.00" d=" M 1413.40 407.08 C 1413.41 402.66 1417.86 399.60 1422.02 399.81 C 1492.02 399.74 1562.02 399.77 1632.02 399.79 C 1636.46 399.60 1640.69 403.41 1640.39 407.98 C 1640.35 417.65 1640.39 427.33 1640.34 437.01 C 1640.59 440.11 1638.20 442.44 1635.81 443.98 C 1630.29 442.82 1624.65 443.52 1619.08 443.31 C 1605.73 442.80 1592.36 442.85 1579.01 443.24 C 1527.66 443.05 1476.32 443.04 1424.97 443.25 C 1422.68 443.17 1420.44 443.59 1418.27 444.24 C 1415.36 443.05 1413.18 440.23 1413.31 437.02 C 1413.33 427.04 1413.29 417.06 1413.40 407.08 Z" />
</g>
<g id="#989eadff">
<path fill="#989ead" opacity="1.00" d=" M 1098.18 407.19 C 1104.35 406.11 1110.69 406.99 1116.94 406.73 C 1183.28 406.69 1249.62 406.70 1315.96 406.72 C 1320.44 406.39 1324.90 410.30 1324.76 414.87 C 1324.88 424.26 1324.72 433.66 1324.72 443.05 C 1325.04 447.71 1320.55 451.87 1315.94 451.28 C 1244.29 451.27 1172.64 451.30 1101.00 451.28 C 1096.53 451.61 1092.26 447.53 1092.55 443.03 C 1092.62 433.68 1092.60 424.34 1092.69 415.00 C 1092.54 411.51 1094.94 408.31 1098.18 407.19 M 1097.40 409.50 C 1095.54 410.67 1094.19 412.72 1094.29 414.97 C 1094.12 424.33 1094.19 433.69 1094.23 443.06 C 1093.71 447.25 1098.09 450.38 1102.00 449.81 C 1173.34 449.60 1244.68 449.80 1316.02 449.68 C 1319.74 450.07 1323.35 446.90 1323.03 443.08 C 1322.98 433.73 1323.05 424.38 1322.96 415.03 C 1322.98 411.84 1320.40 408.40 1316.97 408.72 C 1247.32 408.72 1177.67 408.60 1108.02 408.72 C 1104.49 408.89 1100.72 408.12 1097.40 409.50 Z" />
</g>
<g id="#2944aeff">
<path fill="#2944ae" opacity="1.00" d=" M 429.03 408.74 C 434.14 411.21 439.19 413.85 444.20 416.53 C 439.01 420.21 433.01 422.56 427.44 425.60 C 427.43 423.17 427.40 420.75 427.41 418.33 C 421.03 418.40 413.79 416.93 408.44 421.35 C 408.93 419.97 409.33 418.55 409.76 417.15 C 410.91 416.64 412.09 416.21 413.29 415.86 C 418.11 417.99 423.48 417.14 428.57 417.04 C 428.71 414.27 428.86 411.51 429.03 408.74 Z" />
</g>
<g id="#f7f7f8ff">
<path fill="#f7f7f8" opacity="1.00" d=" M 1097.40 409.50 C 1100.72 408.12 1104.49 408.89 1108.02 408.72 C 1177.67 408.60 1247.32 408.72 1316.97 408.72 C 1320.40 408.40 1322.98 411.84 1322.96 415.03 C 1323.05 424.38 1322.98 433.73 1323.03 443.08 C 1323.35 446.90 1319.74 450.07 1316.02 449.68 C 1244.68 449.80 1173.34 449.60 1102.00 449.81 C 1098.09 450.38 1093.71 447.25 1094.23 443.06 C 1094.19 433.69 1094.12 424.33 1094.29 414.97 C 1094.19 412.72 1095.54 410.67 1097.40 409.50 Z" />
<path fill="#f7f7f8" opacity="1.00" d=" M 754.33 423.47 C 755.79 422.90 757.41 423.05 758.97 423.00 C 837.66 423.03 916.36 422.96 995.05 423.02 C 998.39 422.79 1001.82 425.45 1001.86 428.92 C 1002.16 437.61 1001.68 446.31 1001.96 455.00 C 1001.81 457.32 1002.44 460.01 1000.89 461.99 C 999.58 463.83 997.32 464.78 995.09 464.65 C 916.06 464.67 837.02 464.65 757.98 464.67 C 754.16 465.13 749.93 462.14 750.30 458.04 C 750.22 448.66 750.21 439.27 750.33 429.89 C 750.21 427.17 751.60 424.32 754.33 423.47 Z" />
<path fill="#f7f7f8" opacity="1.00" d=" M 749.74 481.96 C 749.74 477.84 753.62 473.54 757.92 474.41 C 836.95 474.38 915.98 474.38 995.01 474.40 C 999.17 473.90 1002.93 477.92 1002.62 482.00 C 1002.67 491.31 1002.59 500.62 1002.63 509.93 C 1002.91 513.26 1000.50 516.85 997.03 517.16 C 991.70 517.83 986.31 517.44 980.97 517.42 C 907.00 517.39 833.02 517.34 759.05 517.40 C 756.37 517.55 753.78 516.89 751.49 515.53 C 750.18 513.22 749.48 510.63 749.62 507.97 C 749.69 499.30 749.44 490.62 749.74 481.96 Z" />
<path fill="#f7f7f8" opacity="1.00" d=" M 1097.39 514.52 C 1103.11 513.51 1109.15 514.22 1115.00 513.89 C 1172.99 513.84 1230.98 513.96 1288.97 513.92 C 1298.32 513.93 1307.67 513.76 1317.02 514.06 C 1320.25 513.77 1322.96 516.76 1322.94 519.88 C 1323.06 529.60 1323.00 539.34 1322.98 549.06 C 1323.06 552.65 1319.51 555.61 1315.98 555.14 C 1263.65 555.20 1211.32 554.95 1158.99 555.22 C 1139.64 555.10 1120.30 555.35 1100.96 555.11 C 1097.57 555.37 1094.00 552.52 1094.22 548.98 C 1094.20 539.64 1094.23 530.30 1094.17 520.97 C 1093.89 518.37 1095.22 515.89 1097.39 514.52 Z" />
<path fill="#f7f7f8" opacity="1.00" d=" M 753.10 527.88 C 753.59 527.73 754.59 527.43 755.09 527.28 C 833.03 527.08 910.97 527.26 988.92 527.20 C 991.97 527.22 995.04 527.06 998.10 527.33 C 1000.72 528.90 1003.10 531.71 1002.63 534.98 C 1002.56 545.02 1002.82 555.07 1002.50 565.10 C 1001.04 567.36 999.03 570.18 995.96 569.77 C 916.01 569.76 836.06 569.71 756.10 569.75 C 752.44 570.07 749.72 566.42 749.82 563.00 C 749.34 555.01 749.71 547.00 749.60 539.01 C 749.71 535.12 749.27 530.23 753.10 527.88 Z" />
<path fill="#f7f7f8" opacity="1.00" d=" M 1098.49 566.53 C 1106.58 565.61 1114.80 566.44 1122.95 566.18 C 1186.62 566.22 1250.30 566.19 1313.97 566.17 C 1316.38 566.19 1319.16 565.99 1320.99 567.91 C 1323.30 569.97 1323.15 573.24 1323.14 576.07 C 1322.98 584.74 1323.29 593.43 1322.96 602.10 C 1322.85 605.57 1319.35 608.05 1316.03 607.64 C 1244.35 607.61 1172.66 607.68 1100.98 607.67 C 1097.88 607.71 1094.36 605.44 1094.29 602.12 C 1093.98 592.40 1094.25 582.68 1094.15 572.97 C 1093.78 570.07 1095.93 567.55 1098.49 566.53 Z" />
<path fill="#f7f7f8" opacity="1.00" d=" M 753.38 580.56 C 755.07 579.66 757.12 579.94 758.98 579.79 C 833.63 579.81 908.28 579.68 982.93 579.82 C 987.96 580.03 993.06 579.46 998.06 580.27 C 1000.97 581.60 1002.30 584.93 1001.98 588.00 C 1001.73 597.69 1002.26 607.40 1001.72 617.07 C 999.68 622.85 992.74 621.27 988.00 621.43 C 978.68 622.27 969.33 621.89 959.99 621.94 C 908.98 621.96 857.98 621.94 806.98 621.95 C 789.98 621.72 772.95 622.49 755.97 621.33 C 752.70 621.43 750.24 618.20 750.31 615.11 C 750.18 606.07 750.32 597.02 750.23 587.98 C 750.01 585.17 750.92 582.15 753.38 580.56 Z" />
<path fill="#f7f7f8" opacity="1.00" d=" M 754.18 632.25 C 762.76 631.64 771.42 632.10 780.03 631.98 C 850.36 631.99 920.69 631.93 991.02 631.98 C 994.12 632.09 997.87 631.30 1000.22 633.91 C 1002.18 635.73 1001.86 638.59 1001.94 641.02 C 1001.83 650.02 1002.07 659.03 1001.84 668.04 C 1001.84 670.83 999.29 673.17 996.61 673.45 C 992.09 673.90 987.54 673.56 983.01 673.64 C 907.65 673.69 832.29 673.63 756.94 673.69 C 753.71 673.93 750.26 671.48 750.34 668.06 C 750.16 658.37 750.31 648.66 750.31 638.97 C 750.12 636.21 751.53 633.30 754.18 632.25 Z" />
</g>
<g id="#9ca1b0ff">
<path fill="#9ca1b0" opacity="1.00" d=" M 755.40 421.50 C 802.27 421.06 849.18 421.54 896.06 421.27 C 927.04 421.33 958.03 421.32 989.01 421.35 C 992.88 421.52 997.37 420.45 1000.64 423.13 C 1003.73 425.34 1003.87 429.54 1003.90 432.99 C 1003.87 441.01 1004.01 449.04 1003.88 457.07 C 1004.11 461.90 1000.10 466.81 995.03 466.40 C 915.69 466.59 836.35 466.36 757.02 466.48 C 752.45 466.82 748.08 462.55 748.53 457.95 C 748.55 448.29 748.44 438.64 748.52 428.99 C 748.47 425.18 751.75 422.00 755.40 421.50 M 754.33 423.47 C 751.60 424.32 750.21 427.17 750.33 429.89 C 750.21 439.27 750.22 448.66 750.30 458.04 C 749.93 462.14 754.16 465.13 757.98 464.67 C 837.02 464.65 916.06 464.67 995.09 464.65 C 997.32 464.78 999.58 463.83 1000.89 461.99 C 1002.44 460.01 1001.81 457.32 1001.96 455.00 C 1001.68 446.31 1002.16 437.61 1001.86 428.92 C 1001.82 425.45 998.39 422.79 995.05 423.02 C 916.36 422.96 837.66 423.03 758.97 423.00 C 757.41 423.05 755.79 422.90 754.33 423.47 Z" />
</g>
<g id="#148031ff">
<path fill="#148031" opacity="1.00" d=" M 1418.27 444.24 C 1420.44 443.59 1422.68 443.17 1424.97 443.25 C 1476.32 443.04 1527.66 443.05 1579.01 443.24 C 1592.36 442.85 1605.73 442.80 1619.08 443.31 C 1624.65 443.52 1630.29 442.82 1635.81 443.98 C 1632.91 444.61 1629.94 444.49 1627.02 444.47 C 1568.34 444.52 1509.67 444.42 1450.99 444.49 C 1440.08 444.43 1429.17 444.66 1418.27 444.24 Z" />
</g>
<g id="#a2a7b5ff">
<path fill="#a2a7b5" opacity="1.00" d=" M 1419.36 455.39 C 1427.54 454.67 1435.79 455.43 1444.00 455.13 C 1506.36 455.14 1568.73 455.04 1631.10 455.08 C 1635.75 454.72 1640.36 458.30 1640.66 463.07 C 1641.06 471.33 1640.53 479.62 1640.77 487.89 C 1640.72 490.98 1641.24 494.43 1639.28 497.10 C 1637.55 499.93 1634.07 500.92 1630.94 500.73 C 1561.28 500.62 1491.62 500.81 1421.97 500.70 C 1417.13 501.15 1412.43 496.93 1412.72 492.02 C 1412.78 482.67 1412.67 473.33 1412.75 463.98 C 1412.63 460.05 1415.54 456.28 1419.36 455.39 M 1418.54 457.55 C 1415.61 458.80 1414.12 461.93 1414.44 465.01 C 1414.61 474.30 1414.26 483.60 1414.56 492.88 C 1414.60 496.16 1417.64 499.20 1420.97 498.97 C 1491.32 498.93 1561.67 498.98 1632.03 498.97 C 1635.87 499.44 1639.51 495.92 1639.03 492.03 C 1638.90 482.68 1639.04 473.32 1638.91 463.96 C 1639.20 460.23 1635.79 456.72 1632.02 457.20 C 1582.32 457.13 1532.63 457.18 1482.93 457.17 C 1461.47 457.37 1439.96 456.70 1418.54 457.55 Z" />
</g>
<g id="#f6f6f7ff">
<path fill="#f6f6f7" opacity="1.00" d=" M 1418.54 457.55 C 1439.96 456.70 1461.47 457.37 1482.93 457.17 C 1532.63 457.18 1582.32 457.13 1632.02 457.20 C 1635.79 456.72 1639.20 460.23 1638.91 463.96 C 1639.04 473.32 1638.90 482.68 1639.03 492.03 C 1639.51 495.92 1635.87 499.44 1632.03 498.97 C 1561.67 498.98 1491.32 498.93 1420.97 498.97 C 1417.64 499.20 1414.60 496.16 1414.56 492.88 C 1414.26 483.60 1414.61 474.30 1414.44 465.01 C 1414.12 461.93 1415.61 458.80 1418.54 457.55 Z" />
<path fill="#f6f6f7" opacity="1.00" d=" M 1414.18 516.25 C 1414.71 512.60 1418.54 510.42 1422.03 510.66 C 1487.69 510.64 1553.36 510.65 1619.02 510.67 C 1624.02 510.85 1629.04 510.31 1634.04 510.83 C 1637.43 511.33 1639.87 514.71 1639.68 518.06 C 1639.64 527.36 1639.66 536.67 1639.64 545.97 C 1639.94 549.69 1636.88 553.53 1633.08 553.60 C 1561.64 553.66 1490.20 553.55 1418.76 553.65 C 1416.96 551.98 1414.38 550.51 1414.18 547.81 C 1413.23 542.23 1413.91 536.56 1413.76 530.94 C 1413.94 526.05 1413.28 521.09 1414.18 516.25 Z" />
<path fill="#f6f6f7" opacity="1.00" d=" M 1417.07 565.57 C 1421.91 564.12 1426.99 564.69 1431.97 564.62 C 1498.66 564.64 1565.35 564.59 1632.04 564.65 C 1635.75 564.44 1639.58 567.16 1639.66 571.06 C 1639.69 581.77 1639.69 592.48 1639.64 603.20 C 1638.29 604.78 1636.84 606.27 1635.33 607.68 C 1564.53 607.90 1493.74 607.71 1422.94 607.78 C 1420.86 607.64 1418.48 608.05 1416.77 606.61 C 1414.02 604.69 1413.92 601.03 1413.75 598.02 C 1413.69 589.35 1413.60 580.68 1413.83 572.01 C 1413.69 569.37 1415.42 567.39 1417.07 565.57 Z" />
</g>
<g id="#298f41ff">
<path fill="#298f41" opacity="1.00" d=" M 1096.42 461.61 C 1097.74 460.68 1099.35 460.36 1100.97 460.41 C 1131.30 460.44 1161.64 460.44 1191.98 460.44 C 1194.96 460.64 1198.49 459.57 1200.98 461.74 C 1202.57 462.97 1203.80 464.84 1203.79 466.92 C 1204.03 476.62 1203.56 486.33 1204.09 496.03 C 1204.44 500.40 1200.24 504.03 1195.97 503.43 C 1164.00 503.37 1132.03 503.48 1100.06 503.39 C 1096.18 503.41 1092.66 499.95 1092.77 496.05 C 1092.84 486.68 1092.74 477.30 1092.77 467.93 C 1092.69 465.33 1094.27 462.95 1096.42 461.61 Z" />
</g>
<g id="#cd2d34ff">
<path fill="#cd2d34" opacity="1.00" d=" M 1212.86 466.97 C 1213.12 462.95 1217.17 460.14 1221.05 460.51 C 1253.03 460.40 1285.02 460.61 1317.00 460.45 C 1319.94 460.21 1323.35 462.20 1323.81 465.28 C 1322.73 476.44 1322.21 487.80 1324.01 498.90 C 1322.81 501.64 1320.12 503.66 1317.03 503.38 C 1284.35 503.37 1251.67 503.41 1219.00 503.34 C 1215.37 503.21 1212.47 499.56 1212.78 496.01 C 1212.95 486.33 1212.69 476.65 1212.86 466.97 Z" />
</g>
<g id="#c21b20ff">
<path fill="#c21b20" opacity="1.00" d=" M 1324.01 498.90 C 1322.21 487.80 1322.73 476.44 1323.81 465.28 C 1324.91 470.10 1324.16 475.08 1324.42 479.98 C 1324.25 486.28 1324.73 492.62 1324.01 498.90 Z" />
</g>
<g id="#080808ff">
<path fill="#080808" opacity="1.00" d=" M 754.59 473.74 C 835.47 473.80 916.36 473.77 997.24 473.76 C 999.18 474.81 1001.49 475.82 1002.34 478.04 C 1003.66 480.52 1003.32 483.35 1003.35 486.05 C 1003.26 494.07 1003.41 502.09 1003.34 510.11 C 1003.37 512.95 1001.71 515.79 999.24 517.18 C 996.23 517.92 993.11 518.13 990.03 518.20 C 974.03 517.70 957.99 517.66 941.99 518.18 C 924.01 517.46 906.00 518.09 888.01 517.82 C 862.70 517.77 837.38 517.94 812.07 517.83 C 792.56 517.67 773.02 518.27 753.53 517.51 C 751.95 516.45 750.59 515.12 749.54 513.54 C 748.99 501.84 748.95 490.07 749.61 478.37 C 751.18 476.74 752.83 475.18 754.59 473.74 M 749.74 481.96 C 749.44 490.62 749.69 499.30 749.62 507.97 C 749.48 510.63 750.18 513.22 751.49 515.53 C 753.78 516.89 756.37 517.55 759.05 517.40 C 833.02 517.34 907.00 517.39 980.97 517.42 C 986.31 517.44 991.70 517.83 997.03 517.16 C 1000.50 516.85 1002.91 513.26 1002.63 509.93 C 1002.59 500.62 1002.67 491.31 1002.62 482.00 C 1002.93 477.92 999.17 473.90 995.01 474.40 C 915.98 474.38 836.95 474.38 757.92 474.41 C 753.62 473.54 749.74 477.84 749.74 481.96 Z" />
<path fill="#080808" opacity="1.00" d=" M 1418.42 510.59 C 1426.89 509.64 1435.47 510.42 1444.00 510.19 C 1502.33 510.21 1560.67 510.19 1619.01 510.22 C 1624.01 510.41 1629.03 509.93 1634.03 510.39 C 1638.15 510.78 1640.62 515.11 1640.30 518.96 C 1640.22 528.27 1640.34 537.59 1640.24 546.90 C 1640.02 551.03 1636.22 554.56 1632.07 554.27 C 1561.68 554.25 1491.29 554.25 1420.91 554.28 C 1416.69 554.33 1413.20 550.02 1413.46 545.93 C 1413.16 536.96 1413.39 527.98 1413.36 519.01 C 1413.13 515.54 1414.90 511.64 1418.42 510.59 M 1414.18 516.25 C 1413.28 521.09 1413.94 526.05 1413.76 530.94 C 1413.91 536.56 1413.23 542.23 1414.18 547.81 C 1414.38 550.51 1416.96 551.98 1418.76 553.65 C 1490.20 553.55 1561.64 553.66 1633.08 553.60 C 1636.88 553.53 1639.94 549.69 1639.64 545.97 C 1639.66 536.67 1639.64 527.36 1639.68 518.06 C 1639.87 514.71 1637.43 511.33 1634.04 510.83 C 1629.04 510.31 1624.02 510.85 1619.02 510.67 C 1553.36 510.65 1487.69 510.64 1422.03 510.66 C 1418.54 510.42 1414.71 512.60 1414.18 516.25 Z" />
<path fill="#080808" opacity="1.00" d=" M 749.65 530.37 C 751.37 528.65 753.15 526.27 755.89 526.57 C 835.95 526.58 916.02 526.55 996.09 526.58 C 999.73 526.21 1002.50 529.93 1003.24 533.15 C 1003.45 542.75 1003.27 552.36 1003.36 561.97 C 1003.81 566.45 999.61 571.21 994.97 570.45 C 915.65 570.40 836.34 570.41 757.03 570.41 C 753.92 570.91 751.50 568.72 749.64 566.56 C 748.89 554.53 748.91 542.40 749.65 530.37 M 753.10 527.88 C 749.27 530.23 749.71 535.12 749.60 539.01 C 749.71 547.00 749.34 555.01 749.82 563.00 C 749.72 566.42 752.44 570.07 756.10 569.75 C 836.06 569.71 916.01 569.76 995.96 569.77 C 999.03 570.18 1001.04 567.36 1002.50 565.10 C 1002.82 555.07 1002.56 545.02 1002.63 534.98 C 1003.10 531.71 1000.72 528.90 998.10 527.33 C 995.04 527.06 991.97 527.22 988.92 527.20 C 910.97 527.26 833.03 527.08 755.09 527.28 C 754.59 527.43 753.59 527.73 753.10 527.88 Z" />
<path fill="#080808" opacity="1.00" d=" M 1413.42 572.04 C 1413.17 567.44 1417.37 563.45 1422.00 564.21 C 1490.34 564.12 1558.68 564.24 1627.02 564.15 C 1630.64 564.28 1634.86 563.54 1637.87 566.07 C 1639.56 567.88 1640.48 570.42 1640.30 572.91 C 1640.18 582.74 1640.43 592.58 1640.16 602.40 C 1639.27 605.40 1636.39 608.59 1633.02 608.38 C 1561.54 608.36 1490.05 608.33 1418.57 608.40 C 1416.33 607.33 1414.57 605.59 1413.60 603.31 C 1413.18 592.89 1413.23 582.46 1413.42 572.04 M 1417.07 565.57 C 1415.42 567.39 1413.69 569.37 1413.83 572.01 C 1413.60 580.68 1413.69 589.35 1413.75 598.02 C 1413.92 601.03 1414.02 604.69 1416.77 606.61 C 1418.48 608.05 1420.86 607.64 1422.94 607.78 C 1493.74 607.71 1564.53 607.90 1635.33 607.68 C 1636.84 606.27 1638.29 604.78 1639.64 603.20 C 1639.69 592.48 1639.69 581.77 1639.66 571.06 C 1639.58 567.16 1635.75 564.44 1632.04 564.65 C 1565.35 564.59 1498.66 564.64 1431.97 564.62 C 1426.99 564.69 1421.91 564.12 1417.07 565.57 Z" />
<path fill="#080808" opacity="1.00" d=" M 1024.94 796.70 C 1021.83 795.55 1021.07 789.45 1024.93 789.04 C 1028.31 789.99 1027.56 795.14 1024.94 796.70 Z" />
</g>
<g id="#2b47aeff">
<path fill="#2b47ae" opacity="1.00" d=" M 711.39 475.10 C 717.09 477.97 722.81 480.78 728.46 483.75 C 728.58 483.95 728.83 484.35 728.96 484.55 C 722.99 487.38 717.30 490.73 711.45 493.79 C 711.39 491.09 711.38 488.40 711.44 485.72 C 711.44 484.91 711.46 484.12 711.47 483.33 C 711.47 480.58 711.41 477.84 711.39 475.10 Z" />
</g>
<g id="#2e49afff">
<path fill="#2e49af" opacity="1.00" d=" M 1056.99 474.38 C 1062.88 477.29 1068.93 479.98 1074.47 483.53 C 1068.56 486.37 1062.86 489.61 1056.98 492.51 C 1056.94 489.90 1056.93 487.30 1056.97 484.70 C 1044.55 484.69 1032.11 485.08 1019.72 484.44 C 1032.16 482.95 1044.73 484.83 1057.18 483.51 C 1044.88 481.96 1032.45 483.75 1020.10 482.77 L 1019.90 481.84 C 1032.24 481.76 1044.59 481.61 1056.93 481.86 C 1056.95 479.36 1056.94 476.87 1056.99 474.38 Z" />
</g>
<g id="#2b45acff">
<path fill="#2b45ac" opacity="1.00" d=" M 1380.16 474.53 C 1385.48 477.44 1391.08 479.83 1396.26 483.01 C 1390.18 485.87 1384.32 489.15 1378.31 492.14 C 1378.26 489.59 1378.28 487.04 1378.37 484.49 C 1365.61 484.09 1352.84 484.51 1340.08 484.34 L 1340.40 483.36 C 1351.93 483.23 1363.46 482.97 1374.99 483.24 C 1376.36 483.10 1378.08 483.39 1379.11 482.18 C 1379.82 479.69 1379.88 477.08 1380.16 474.53 Z" />
</g>
<g id="#2946abff">
<path fill="#2946ab" opacity="1.00" d=" M 427.39 475.78 C 433.27 478.28 439.01 481.13 444.52 484.37 C 438.86 487.32 433.17 490.22 427.52 493.18 C 427.48 490.69 427.46 488.22 427.51 485.74 C 427.50 484.91 427.49 484.07 427.50 483.24 C 427.47 480.75 427.38 478.26 427.39 475.78 Z" />
</g>
<g id="#0e178bff">
<path fill="#0e178b" opacity="1.00" d=" M 357.50 484.81 C 357.94 485.03 358.82 485.45 359.26 485.67 C 359.48 522.78 359.28 559.91 359.36 597.03 C 359.50 599.67 359.03 602.35 357.53 604.59 C 357.46 603.90 357.32 602.54 357.25 601.85 C 357.78 562.84 357.14 523.82 357.50 484.81 Z" />
</g>
<g id="#9da2b0ff">
<path fill="#9da2b0" opacity="1.00" d=" M 1098.24 512.33 C 1104.78 511.52 1111.42 512.26 1118.00 512.03 C 1182.35 511.99 1246.70 512.02 1311.05 511.99 C 1314.74 512.08 1319.05 511.25 1322.02 514.06 C 1324.88 516.09 1324.80 519.85 1324.81 522.99 C 1324.74 531.66 1324.89 540.33 1324.73 549.00 C 1324.81 553.50 1320.53 557.55 1316.02 557.02 C 1243.99 556.97 1171.95 557.03 1099.93 556.99 C 1095.79 556.99 1092.59 552.85 1092.65 548.90 C 1092.47 539.30 1092.43 529.67 1092.64 520.07 C 1092.61 516.64 1094.86 513.23 1098.24 512.33 M 1097.39 514.52 C 1095.22 515.89 1093.89 518.37 1094.17 520.97 C 1094.23 530.30 1094.20 539.64 1094.22 548.98 C 1094.00 552.52 1097.57 555.37 1100.96 555.11 C 1120.30 555.35 1139.64 555.10 1158.99 555.22 C 1211.32 554.95 1263.65 555.20 1315.98 555.14 C 1319.51 555.61 1323.06 552.65 1322.98 549.06 C 1323.00 539.34 1323.06 529.60 1322.94 519.88 C 1322.96 516.76 1320.25 513.77 1317.02 514.06 C 1307.67 513.76 1298.32 513.93 1288.97 513.92 C 1230.98 513.96 1172.99 513.84 1115.00 513.89 C 1109.15 514.22 1103.11 513.51 1097.39 514.52 Z" />
</g>
<g id="#2845b0ff">
<path fill="#2845b0" opacity="1.00" d=" M 429.79 542.68 C 434.82 544.95 439.72 547.52 444.60 550.11 C 440.03 552.56 435.53 555.14 430.90 557.49 C 428.12 553.07 428.77 547.54 429.79 542.68 Z" />
</g>
<g id="#8a90a0ff">
<path fill="#8a90a0" opacity="1.00" d=" M 1097.27 565.32 C 1098.42 564.82 1099.64 564.62 1100.94 564.70 C 1172.95 564.79 1244.97 564.63 1316.98 564.73 C 1321.19 564.74 1324.97 568.75 1324.63 572.99 C 1324.67 582.68 1324.70 592.38 1324.65 602.07 C 1324.59 606.44 1320.18 609.69 1315.99 609.34 C 1244.66 609.40 1173.32 609.30 1102.00 609.37 C 1099.21 609.52 1096.37 608.61 1094.56 606.43 C 1092.14 603.93 1092.56 600.20 1092.55 597.02 C 1092.88 588.73 1092.28 580.42 1092.69 572.14 C 1092.68 569.16 1094.73 566.64 1097.27 565.32 M 1098.49 566.53 C 1095.93 567.55 1093.78 570.07 1094.15 572.97 C 1094.25 582.68 1093.98 592.40 1094.29 602.12 C 1094.36 605.44 1097.88 607.71 1100.98 607.67 C 1172.66 607.68 1244.35 607.61 1316.03 607.64 C 1319.35 608.05 1322.85 605.57 1322.96 602.10 C 1323.29 593.43 1322.98 584.74 1323.14 576.07 C 1323.15 573.24 1323.30 569.97 1320.99 567.91 C 1319.16 565.99 1316.38 566.19 1313.97 566.17 C 1250.30 566.19 1186.62 566.22 1122.95 566.18 C 1114.80 566.44 1106.58 565.61 1098.49 566.53 Z" />
</g>
<g id="#989eaeff">
<path fill="#989eae" opacity="1.00" d=" M 754.29 578.35 C 757.78 577.54 761.41 578.05 764.97 577.96 C 839.66 577.96 914.35 577.96 989.04 577.96 C 992.81 578.12 997.14 577.12 1000.36 579.67 C 1003.31 581.74 1003.90 585.63 1003.84 588.99 C 1003.79 597.69 1004.05 606.39 1003.82 615.08 C 1003.70 619.54 999.55 623.60 995.01 623.15 C 915.69 623.19 836.37 623.17 757.05 623.17 C 752.48 623.71 748.28 619.52 748.54 615.01 C 748.50 606.01 748.51 597.02 748.46 588.03 C 748.02 583.94 750.19 579.57 754.29 578.35 M 753.38 580.56 C 750.92 582.15 750.01 585.17 750.23 587.98 C 750.32 597.02 750.18 606.07 750.31 615.11 C 750.24 618.20 752.70 621.43 755.97 621.33 C 772.95 622.49 789.98 621.72 806.98 621.95 C 857.98 621.94 908.98 621.96 959.99 621.94 C 969.33 621.89 978.68 622.27 988.00 621.43 C 992.74 621.27 999.68 622.85 1001.72 617.07 C 1002.26 607.40 1001.73 597.69 1001.98 588.00 C 1002.30 584.93 1000.97 581.60 998.06 580.27 C 993.06 579.46 987.96 580.03 982.93 579.82 C 908.28 579.68 833.63 579.81 758.98 579.79 C 757.12 579.94 755.07 579.66 753.38 580.56 Z" />
</g>
<g id="#2845a9ff">
<path fill="#2845a9" opacity="1.00" d=" M 427.39 608.82 C 433.31 611.32 438.96 614.44 444.45 617.79 C 438.76 620.54 433.27 623.67 427.46 626.14 C 427.43 623.82 427.28 621.50 427.29 619.18 C 422.45 619.20 417.53 619.65 412.77 618.60 L 413.97 616.54 C 418.35 616.10 422.78 616.63 427.16 616.12 C 427.37 613.69 427.32 611.25 427.39 608.82 Z" />
</g>
<g id="#102da2ff">
<path fill="#102da2" opacity="1.00" d=" M 1409.49 626.03 C 1412.32 625.80 1415.17 625.79 1418.03 625.82 C 1447.68 626.00 1477.35 625.55 1507.00 626.13 C 1512.31 625.95 1517.65 625.67 1522.97 626.07 C 1562.86 625.66 1602.78 625.81 1642.67 625.97 L 1643.37 626.94 L 1643.79 627.69 C 1604.34 628.58 1564.89 627.44 1525.46 628.12 C 1525.61 677.10 1525.47 726.09 1525.53 775.07 C 1525.66 781.17 1521.80 787.83 1515.75 789.39 L 1515.17 789.14 C 1514.88 788.74 1514.31 787.94 1514.03 787.55 C 1518.88 785.83 1522.65 781.26 1522.74 776.01 C 1522.80 726.72 1522.62 677.42 1522.86 628.13 C 1491.91 627.63 1460.95 628.01 1429.99 627.87 C 1422.50 627.55 1414.96 628.58 1407.53 627.47 C 1408.02 627.11 1409.00 626.39 1409.49 626.03 Z" />
</g>
<g id="#9ba0afff">
<path fill="#9ba0af" opacity="1.00" d=" M 754.33 630.51 C 759.84 629.70 765.45 630.32 771.00 630.17 C 845.68 630.14 920.36 630.32 995.04 630.11 C 998.08 630.01 1001.28 631.56 1002.64 634.37 C 1004.18 637.32 1003.82 640.75 1003.91 643.96 C 1003.81 651.66 1004.04 659.37 1003.82 667.07 C 1003.70 671.60 999.64 675.82 994.96 675.37 C 915.63 675.34 836.30 675.39 756.96 675.37 C 752.38 675.77 748.04 671.57 748.53 666.94 C 748.49 657.61 748.47 648.28 748.52 638.96 C 748.26 635.22 750.69 631.51 754.33 630.51 M 754.18 632.25 C 751.53 633.30 750.12 636.21 750.31 638.97 C 750.31 648.66 750.16 658.37 750.34 668.06 C 750.26 671.48 753.71 673.93 756.94 673.69 C 832.29 673.63 907.65 673.69 983.01 673.64 C 987.54 673.56 992.09 673.90 996.61 673.45 C 999.29 673.17 1001.84 670.83 1001.84 668.04 C 1002.07 659.03 1001.83 650.02 1001.94 641.02 C 1001.86 638.59 1002.18 635.73 1000.22 633.91 C 997.87 631.30 994.12 632.09 991.02 631.98 C 920.69 631.93 850.36 631.99 780.03 631.98 C 771.42 632.10 762.76 631.64 754.18 632.25 Z" />
</g>
<g id="#2e4cb4ff">
<path fill="#2e4cb4" opacity="1.00" d=" M 431.36 679.87 C 435.74 682.03 439.94 684.58 444.61 686.12 C 443.54 687.65 441.70 688.17 440.13 688.97 C 436.64 690.58 433.35 692.57 429.94 694.32 C 429.50 692.23 429.06 690.15 428.69 688.06 C 423.99 688.03 419.28 688.36 414.62 687.63 C 419.02 687.02 423.47 686.87 427.91 686.68 C 428.32 684.86 428.73 683.03 429.16 681.21 C 429.71 680.87 430.81 680.20 431.36 679.87 Z" />
</g>
<g id="#2842a9ff">
<path fill="#2842a9" opacity="1.00" d=" M 530.25 736.41 C 533.07 730.55 535.47 724.47 538.91 718.93 C 541.66 724.70 544.39 730.47 547.09 736.26 C 544.63 736.36 542.19 736.50 539.74 736.55 C 538.97 736.54 538.21 736.54 537.46 736.54 C 535.05 736.49 532.65 736.45 530.25 736.41 Z" />
</g>
<g id="#fcfbfcff">
<path fill="#fcfbfc" opacity="1.00" d=" M 1022.15 780.04 C 1024.38 778.21 1028.83 778.09 1030.00 781.04 C 1029.05 783.48 1026.82 782.40 1024.98 782.29 C 1023.46 783.30 1023.01 785.25 1022.11 786.72 C 1024.16 786.51 1026.47 785.52 1028.45 786.68 C 1032.43 789.49 1032.05 796.62 1027.54 798.77 C 1024.03 800.55 1019.50 798.32 1018.62 794.54 C 1017.57 789.61 1017.86 783.40 1022.15 780.04 M 1024.94 796.70 C 1027.56 795.14 1028.31 789.99 1024.93 789.04 C 1021.07 789.45 1021.83 795.55 1024.94 796.70 Z" />
</g>

<g id="editable_text_Times_New_Roman" data-editable="true">
<text x="38" y="54" text-anchor="start" style="font-family:'Times New Roman', Times, serif;font-size:46px;font-weight:700;fill:#000000;" xml:space="preserve">System validation architecture</text>
<text x="38" y="103" text-anchor="start" style="font-family:'Times New Roman', Times, serif;font-size:27px;font-weight:700;fill:#000000;" xml:space="preserve">How the end-to-end LLM flywheel assembly layer uses a check script to enforce engineering contracts,</text>
<text x="38" y="136" text-anchor="start" style="font-family:'Times New Roman', Times, serif;font-size:27px;font-weight:700;fill:#000000;" xml:space="preserve">validate multiple artifacts and produce structured system status outputs</text>
<text x="69" y="200" text-anchor="start" style="font-family:'Times New Roman', Times, serif;font-size:23px;font-weight:700;fill:#000000;" xml:space="preserve">Validation enforces an</text>
<text x="69" y="228" text-anchor="start" style="font-family:'Times New Roman', Times, serif;font-size:23px;font-weight:700;fill:#000000;" xml:space="preserve">engineering contract</text>
<text x="445" y="200" text-anchor="start" style="font-family:'Times New Roman', Times, serif;font-size:23px;font-weight:700;fill:#000000;" xml:space="preserve">Major assembly-layer</text>
<text x="445" y="228" text-anchor="start" style="font-family:'Times New Roman', Times, serif;font-size:23px;font-weight:700;fill:#000000;" xml:space="preserve">artifacts being checked</text>
<text x="758" y="200" text-anchor="start" style="font-family:'Times New Roman', Times, serif;font-size:23px;font-weight:700;fill:#000000;" xml:space="preserve">Multi-artifact consistency</text>
<text x="758" y="228" text-anchor="start" style="font-family:'Times New Roman', Times, serif;font-size:23px;font-weight:700;fill:#000000;" xml:space="preserve">— to system quality</text>
<text x="1093" y="195" text-anchor="start" style="font-family:'Times New Roman', Times, serif;font-size:23px;font-weight:700;fill:#000000;" xml:space="preserve">Structured check results.</text>
<text x="1093" y="223" text-anchor="start" style="font-family:'Times New Roman', Times, serif;font-size:23px;font-weight:700;fill:#000000;" xml:space="preserve">Both success and failure</text>
<text x="1093" y="251" text-anchor="start" style="font-family:'Times New Roman', Times, serif;font-size:23px;font-weight:700;fill:#000000;" xml:space="preserve">are recorded, system state</text>
<text x="1093" y="279" text-anchor="start" style="font-family:'Times New Roman', Times, serif;font-size:23px;font-weight:700;fill:#000000;" xml:space="preserve">is traceable and reviewable</text>
<text x="79" y="351" text-anchor="start" style="font-family:'Times New Roman', Times, serif;font-size:26px;font-weight:700;fill:#ffffff;" xml:space="preserve">run_p10_checks.py</text>
<text x="57" y="417" text-anchor="start" style="font-family:'Times New Roman', Times, serif;font-size:21px;font-weight:700;fill:#000000;" xml:space="preserve">run_command(command, name)</text>
<line x1="73" y1="431" x2="73" y2="568" style="stroke:#000000;stroke-width:2;stroke-linecap:square;" />
<line x1="73" y1="451" x2="101" y2="451" style="stroke:#000000;stroke-width:2;stroke-linecap:square;" />
<line x1="73" y1="489" x2="101" y2="489" style="stroke:#000000;stroke-width:2;stroke-linecap:square;" />
<line x1="73" y1="528" x2="101" y2="528" style="stroke:#000000;stroke-width:2;stroke-linecap:square;" />
<line x1="73" y1="567" x2="101" y2="567" style="stroke:#000000;stroke-width:2;stroke-linecap:square;" />
<text x="106" y="457" text-anchor="start" style="font-family:'Times New Roman', Times, serif;font-size:22px;font-weight:700;fill:#000000;" xml:space="preserve">returncode</text>
<text x="106" y="496" text-anchor="start" style="font-family:'Times New Roman', Times, serif;font-size:22px;font-weight:700;fill:#000000;" xml:space="preserve">passed</text>
<text x="106" y="535" text-anchor="start" style="font-family:'Times New Roman', Times, serif;font-size:22px;font-weight:700;fill:#000000;" xml:space="preserve">stdout</text>
<text x="106" y="574" text-anchor="start" style="font-family:'Times New Roman', Times, serif;font-size:22px;font-weight:700;fill:#000000;" xml:space="preserve">stderr</text>
<text x="46" y="649" text-anchor="start" style="font-family:'Times New Roman', Times, serif;font-size:23px;font-weight:700;fill:#000000;" xml:space="preserve">Command execution is</text>
<text x="46" y="679" text-anchor="start" style="font-family:'Times New Roman', Times, serif;font-size:23px;font-weight:700;fill:#000000;" xml:space="preserve">recorded structurally and</text>
<text x="46" y="708" text-anchor="start" style="font-family:'Times New Roman', Times, serif;font-size:23px;font-weight:700;fill:#000000;" xml:space="preserve">validation. command is not</text>
<text x="46" y="737" text-anchor="start" style="font-family:'Times New Roman', Times, serif;font-size:23px;font-weight:700;fill:#000000;" xml:space="preserve">based on terminal output</text>
<text x="46" y="766" text-anchor="start" style="font-family:'Times New Roman', Times, serif;font-size:23px;font-weight:700;fill:#000000;" xml:space="preserve">alone.</text>
<text x="541" y="292" text-anchor="middle" style="font-family:'Times New Roman', Times, serif;font-size:26px;font-weight:700;fill:#000000;" xml:space="preserve">registry</text>
<text x="541" y="358" text-anchor="middle" style="font-family:'Times New Roman', Times, serif;font-size:26px;font-weight:700;fill:#000000;" xml:space="preserve">architecture</text>
<text x="541" y="424" text-anchor="middle" style="font-family:'Times New Roman', Times, serif;font-size:26px;font-weight:700;fill:#000000;" xml:space="preserve">boundaries</text>
<text x="541" y="490" text-anchor="middle" style="font-family:'Times New Roman', Times, serif;font-size:26px;font-weight:700;fill:#000000;" xml:space="preserve">stage_plan</text>
<text x="541" y="557" text-anchor="middle" style="font-family:'Times New Roman', Times, serif;font-size:26px;font-weight:700;fill:#000000;" xml:space="preserve">runs</text>
<text x="541" y="623" text-anchor="middle" style="font-family:'Times New Roman', Times, serif;font-size:26px;font-weight:700;fill:#000000;" xml:space="preserve">metrics</text>
<text x="541" y="689" text-anchor="middle" style="font-family:'Times New Roman', Times, serif;font-size:26px;font-weight:700;fill:#000000;" xml:space="preserve">dashboard</text>
<text x="872" y="329" text-anchor="middle" style="font-family:'Times New Roman', Times, serif;font-size:25px;font-weight:700;fill:#ffffff;" xml:space="preserve">Engineering Contract</text>
<text x="872" y="355" text-anchor="middle" style="font-family:'Times New Roman', Times, serif;font-size:25px;font-weight:700;fill:#ffffff;" xml:space="preserve">Validation</text>
<text x="750" y="409" text-anchor="start" style="font-family:'Times New Roman', Times, serif;font-size:22px;font-weight:700;fill:#000000;" xml:space="preserve">Rules engine:</text>
<text x="872" y="448" text-anchor="middle" style="font-family:'Times New Roman', Times, serif;font-size:22px;font-weight:700;fill:#000000;" xml:space="preserve">required artifacts exist</text>
<text x="872" y="500" text-anchor="middle" style="font-family:'Times New Roman', Times, serif;font-size:22px;font-weight:700;fill:#000000;" xml:space="preserve">structural consistency</text>
<text x="872" y="552" text-anchor="middle" style="font-family:'Times New Roman', Times, serif;font-size:22px;font-weight:700;fill:#000000;" xml:space="preserve">status alignment</text>
<text x="872" y="604" text-anchor="middle" style="font-family:'Times New Roman', Times, serif;font-size:22px;font-weight:700;fill:#000000;" xml:space="preserve">report-data alignment</text>
<text x="872" y="656" text-anchor="middle" style="font-family:'Times New Roman', Times, serif;font-size:22px;font-weight:700;fill:#000000;" xml:space="preserve">system completeness</text>
<text x="1107" y="384" text-anchor="start" style="font-family:'Times New Roman', Times, serif;font-size:21px;font-weight:700;fill:#000000;" xml:space="preserve">name</text>
<text x="1107" y="437" text-anchor="start" style="font-family:'Times New Roman', Times, serif;font-size:21px;font-weight:700;fill:#000000;" xml:space="preserve">command</text>
<text x="1133" y="491" text-anchor="middle" style="font-family:'Times New Roman', Times, serif;font-size:21px;font-weight:700;fill:#ffffff;" xml:space="preserve">passed</text>
<text x="1261" y="491" text-anchor="middle" style="font-family:'Times New Roman', Times, serif;font-size:21px;font-weight:700;fill:#ffffff;" xml:space="preserve">/ failed</text>
<text x="1107" y="545" text-anchor="start" style="font-family:'Times New Roman', Times, serif;font-size:21px;font-weight:700;fill:#000000;" xml:space="preserve">stdout</text>
<text x="1107" y="599" text-anchor="start" style="font-family:'Times New Roman', Times, serif;font-size:21px;font-weight:700;fill:#000000;" xml:space="preserve">stderr</text>
<text x="1085" y="666" text-anchor="start" style="font-family:'Times New Roman', Times, serif;font-size:23px;font-weight:700;fill:#000000;" xml:space="preserve">Both success and failure</text>
<text x="1085" y="695" text-anchor="start" style="font-family:'Times New Roman', Times, serif;font-size:23px;font-weight:700;fill:#000000;" xml:space="preserve">are recorded. Consequently,</text>
<text x="1085" y="724" text-anchor="start" style="font-family:'Times New Roman', Times, serif;font-size:23px;font-weight:700;fill:#000000;" xml:space="preserve">the system state is</text>
<text x="1085" y="753" text-anchor="start" style="font-family:'Times New Roman', Times, serif;font-size:23px;font-weight:700;fill:#000000;" xml:space="preserve">traceable and reviewable.</text>
<text x="1526" y="330" text-anchor="middle" style="font-family:'Times New Roman', Times, serif;font-size:25px;font-weight:700;fill:#ffffff;" xml:space="preserve">System Status /</text>
<text x="1526" y="358" text-anchor="middle" style="font-family:'Times New Roman', Times, serif;font-size:25px;font-weight:700;fill:#ffffff;" xml:space="preserve">Contract State</text>
<text x="1526" y="431" text-anchor="middle" style="font-family:'Times New Roman', Times, serif;font-size:22px;font-weight:700;fill:#ffffff;" xml:space="preserve">overall pass / fail</text>
<text x="1526" y="492" text-anchor="middle" style="font-family:'Times New Roman', Times, serif;font-size:20px;font-weight:700;fill:#000000;" xml:space="preserve">validation summary</text>
<text x="1526" y="545" text-anchor="middle" style="font-family:'Times New Roman', Times, serif;font-size:20px;font-weight:700;fill:#000000;" xml:space="preserve">issues to resolve</text>
<text x="1526" y="599" text-anchor="middle" style="font-family:'Times New Roman', Times, serif;font-size:20px;font-weight:700;fill:#000000;" xml:space="preserve">readiness for handoff</text>
<text x="1055" y="802" text-anchor="start" style="font-family:'Times New Roman', Times, serif;font-size:23px;font-weight:700;fill:#000000;" xml:space="preserve">(Optional Feedback Loop)</text>
<text x="1055" y="837" text-anchor="start" style="font-family:'Times New Roman', Times, serif;font-size:21px;font-weight:700;fill:#000000;" xml:space="preserve">•  fix missing items</text>
<text x="1055" y="866" text-anchor="start" style="font-family:'Times New Roman', Times, serif;font-size:21px;font-weight:700;fill:#000000;" xml:space="preserve">•  update architecture or registry</text>
<text x="1055" y="895" text-anchor="start" style="font-family:'Times New Roman', Times, serif;font-size:21px;font-weight:700;fill:#000000;" xml:space="preserve">•  rerun validation</text>
</g>
</svg>
