<?xml version="1.0" encoding="UTF-8"?>
<svg id="_图层_1" data-name="图层_1" xmlns="http://www.w3.org/2000/svg" version="1.1" xmlns:inkscape="http://www.inkscape.org/namespaces/inkscape" viewBox="0 0 1672 941">
  <!-- Generator: Adobe Illustrator 29.6.0, SVG Export Plug-In . SVG Version: 2.1.1 Build 207)  -->
  <defs>
    <style>
      .st0 {
        fill: #d47c47;
      }

      .st1 {
        fill: #3e208b;
      }

      .st2 {
        fill: #5a22b3;
      }

      .st3 {
        fill: #829ed4;
      }

      .st4 {
        fill: #0d3fb7;
      }

      .st5 {
        fill: #8559b1;
      }

      .st6 {
        fill: #9da2ba;
      }

      .st7 {
        fill: #3b1476;
      }

      .st8 {
        fill: #051c5a;
      }

      .st9 {
        font-size: 20px;
      }

      .st9, .st10, .st11, .st12, .st13, .st14, .st15, .st16, .st17, .st18, .st19, .st20, .st21, .st22, .st23, .st24, .st25 {
        isolation: isolate;
      }

      .st9, .st10, .st13, .st14, .st15, .st16, .st17, .st18, .st20, .st21, .st22, .st23, .st24 {
        font-family: TimesNewRomanPS-BoldMT, 'Times New Roman';
        font-weight: 700;
      }

      .st9, .st15 {
        fill: #071a52;
      }

      .st26 {
        fill: #633a9c;
      }

      .st27 {
        fill: #ae589f;
      }

      .st28 {
        fill: #e7e9f6;
      }

      .st29 {
        fill: #d98b5a;
      }

      .st10 {
        font-size: 28px;
      }

      .st10, .st23 {
        fill: #082068;
      }

      .st30 {
        fill: #5314ca;
      }

      .st11 {
        fill: #075a1c;
      }

      .st11, .st19, .st25 {
        font-family: TimesNewRomanPSMT, 'Times New Roman';
      }

      .st11, .st24, .st25 {
        font-size: 14.5px;
      }

      .st31 {
        fill: #9f4596;
      }

      .st32 {
        fill: #f8f9fc;
      }

      .st12 {
        fill: #333;
        font-family: TimesNewRomanPS-ItalicMT, 'Times New Roman';
        font-size: 25px;
        font-style: italic;
      }

      .st33 {
        fill: #593590;
      }

      .st34 {
        fill: #0b6d7d;
      }

      .st35 {
        fill: #076675;
      }

      .st13 {
        fill: #0b1320;
        font-size: 39px;
      }

      .st36 {
        fill: #cb621c;
      }

      .st37 {
        fill: #007484;
      }

      .st38 {
        fill: #581ece;
      }

      .st39 {
        fill: #061e63;
      }

      .st40 {
        fill: #652fd3;
      }

      .st41 {
        fill: #54288d;
      }

      .st42 {
        fill: #6d35c3;
      }

      .st14 {
        font-size: 16.2px;
      }

      .st14, .st16, .st17, .st18, .st19, .st20 {
        fill: #111;
      }

      .st43 {
        fill: #8966b9;
      }

      .st44 {
        fill: #157a93;
      }

      .st45 {
        fill: #061b57;
      }

      .st46 {
        fill: #f7fafa;
      }

      .st47 {
        fill: #0d8799;
      }

      .st48 {
        fill: #fff;
      }

      .st49 {
        fill: #b4a8c8;
      }

      .st15 {
        font-size: 21px;
      }

      .st16 {
        font-size: 18.2px;
      }

      .st50 {
        fill: #c65116;
      }

      .st51 {
        fill: #103fbe;
      }

      .st52 {
        fill: #1450c1;
      }

      .st17 {
        font-size: 24px;
      }

      .st53 {
        fill: #fbf5fb;
      }

      .st54 {
        fill: #103ac4;
      }

      .st55 {
        fill: #066a7a;
      }

      .st56 {
        fill: #a64699;
      }

      .st18 {
        font-size: 18px;
      }

      .st57 {
        fill: #6224cc;
      }

      .st58 {
        fill: #0c36bb;
      }

      .st59 {
        fill: #4b1f87;
      }

      .st60 {
        fill: #d46b2c;
      }

      .st61 {
        fill: #fcfbfd;
      }

      .st62 {
        fill: #9d109c;
      }

      .st63 {
        fill: #00004d;
      }

      .st64 {
        fill: #210878;
      }

      .st65 {
        fill: #7248c2;
      }

      .st66 {
        fill: #a82f9d;
      }

      .st67 {
        fill: #9fa5c1;
      }

      .st68 {
        fill: #a93ba5;
      }

      .st69 {
        fill: #05979d;
      }

      .st70 {
        fill: #35549c;
      }

      .st71 {
        fill: #5515ca;
      }

      .st72 {
        fill: #c9651e;
      }

      .st73 {
        fill: #e18c51;
      }

      .st74 {
        fill: #5e23c5;
      }

      .st75 {
        fill: #d7692e;
      }

      .st76 {
        fill: #754ea7;
      }

      .st77 {
        fill: #754ab9;
      }

      .st78 {
        fill: #6210b4;
      }

      .st79 {
        fill: #da844c;
      }

      .st80 {
        fill: #fafbfb;
      }

      .st81 {
        fill: #f5f3fb;
      }

      .st82 {
        fill: #6f3dc7;
      }

      .st83 {
        fill: #981c8e;
      }

      .st19, .st21, .st22 {
        font-size: 14px;
      }

      .st84 {
        fill: #f9fcfc;
      }

      .st85 {
        fill: #f7fafe;
      }

      .st86 {
        fill: #08cd38;
      }

      .st87 {
        fill: #000641;
      }

      .st88 {
        fill: #91208d;
      }

      .st89 {
        fill: #981e8d;
      }

      .st90 {
        fill: #da753b;
      }

      .st91 {
        fill: #2f57c9;
      }

      .st92 {
        fill: #6a48a0;
      }

      .st93 {
        fill: #6aafbd;
      }

      .st94 {
        fill: #f8fbfb;
      }

      .st95 {
        fill: #00748a;
      }

      .st96 {
        fill: #6f3dc6;
      }

      .st97 {
        fill: #531aa9;
      }

      .st98 {
        fill: #f6f3fc;
      }

      .st99 {
        fill: #5b3a93;
      }

      .st100 {
        fill: #4711a6;
      }

      .st101 {
        fill: #febc31;
      }

      .st102 {
        fill: #051c5f;
      }

      .st103 {
        fill: #208995;
      }

      .st104 {
        fill: #a252a1;
      }

      .st105 {
        fill: #551f9a;
      }

      .st106 {
        fill: #a04797;
      }

      .st107 {
        fill: #fffeff;
      }

      .st108 {
        fill: #046878;
      }

      .st109 {
        fill: #942c84;
      }

      .st110 {
        fill: #f6f8f9;
      }

      .st111 {
        fill: #f9fbfb;
      }

      .st112 {
        fill: #0427bd;
      }

      .st113 {
        fill: #cd5617;
      }

      .st20 {
        font-size: 15.8px;
      }

      .st114 {
        fill: #fcfcfd;
      }

      .st115 {
        fill: #fefdfd;
      }

      .st116 {
        fill: #f4f2fb;
      }

      .st117 {
        fill: #818bae;
      }

      .st118 {
        fill: #a954a2;
      }

      .st119 {
        fill: #f6f9fa;
      }

      .st120 {
        fill: #fb4e52;
      }

      .st121 {
        fill: #fafcfc;
      }

      .st122 {
        fill: #d26319;
      }

      .st123 {
        fill: #0035ba;
      }

      .st124 {
        fill: #051b58;
      }

      .st125 {
        fill: #930c95;
      }

      .st126 {
        fill: #1f56bd;
      }

      .st127 {
        fill: #ddddde;
      }

      .st128 {
        fill: #0e3cc0;
      }

      .st129 {
        fill: #ad509d;
      }

      .st130 {
        fill: #008e96;
      }

      .st131 {
        fill: #1252be;
      }

      .st132 {
        fill: #066979;
      }

      .st133 {
        fill: #cd6632;
      }

      .st134 {
        fill: #0c5e70;
      }

      .st135 {
        fill: #f6f7f8;
      }

      .st136 {
        fill: #058394;
      }

      .st137 {
        fill: #0f5d69;
      }

      .st138 {
        fill: #5e388e;
      }

      .st139 {
        fill: #8d1a82;
      }

      .st140 {
        fill: #f9f7fa;
      }

      .st141 {
        fill: #f0f5f7;
      }

      .st142 {
        fill: #a54b93;
      }

      .st21 {
        fill: #027983;
      }

      .st143 {
        fill: #a84694;
      }

      .st144 {
        fill: #fdfcfd;
      }

      .st145 {
        fill: #f5fbfd;
      }

      .st146 {
        fill: #4f278a;
      }

      .st147 {
        fill: #e6ecfa;
      }

      .st148 {
        fill: #fbfbfc;
      }

      .st149 {
        fill: #0439b4;
      }

      .st150 {
        fill: #950b8e;
      }

      .st22 {
        fill: #1f55c8;
      }

      .st151 {
        fill: #fefefe;
      }

      .st152 {
        fill: #051c58;
      }

      .st153 {
        fill: #178a94;
      }

      .st154 {
        fill: #018d99;
      }

      .st155 {
        fill: #fbfafc;
      }

      .st156 {
        fill: #f5fbfe;
      }

      .st157 {
        fill: #8fbdc6;
      }

      .st158 {
        fill: #a0499a;
      }

      .st159 {
        fill: #0a717e;
      }

      .st23 {
        font-size: 23px;
      }

      .st160 {
        fill: #7037c9;
      }

      .st161 {
        fill: #642bc4;
      }

      .st162 {
        fill: #aa2fa6;
      }

      .st24, .st25 {
        fill: #111827;
      }

      .st163 {
        fill: #fcfdfd;
      }

      .st164 {
        fill: #da874d;
      }

      .st165 {
        fill: #fdfdfd;
      }

      .st166 {
        fill: #000957;
      }

      .st167 {
        fill: #54298d;
      }

      .st168 {
        fill: #99179b;
      }
    </style>
  </defs>
  <g id="_x23_633a9cff">
    <path class="st26" d="M0,0h.14s-.11.09-.14.11v-.11Z"/>
    <path class="st26" d="M720.45,181.11c14.8-.64,29.68-.09,44.52-.26,104.35-.02,208.7,0,313.05,0,4.73.1,9.97-.77,14.19,1.94,4.14,2.5,6.1,7.5,5.98,12.2-.08,22.67,0,45.35-.07,68.02.07,4.21-1.25,8.82-4.9,11.3-4.44,3.13-10.14,2.18-15.24,2.31-82.67.01-165.34-.01-248.01.03-36.47-.16-72.96.27-109.4-.14l-1.19-1.26c12.21.21,24.41-.38,36.62-.17,12.98-.84,25.96.74,38.93-.19,34.35.35,68.73.62,103.07.02,12.33.63,24.69.09,37.03.3,9.98-.51,19.98-.4,29.96.02,21.03-.21,42.06-.48,63.09-.35,14.99-.28,29.97.98,44.95.05,5.22-.4,10.53,1.05,15.71-.19,4.36-1.04,7.79-5.24,7.56-9.78-.06-23.97.02-47.95-.07-71.92.24-5.16-4.07-9.84-9.19-10.14-6.36-.42-12.74-.04-19.11-.13-116.2-.01-232.4-.03-348.6-.01.28-.41.84-1.24,1.12-1.65Z"/>
    <path class="st26" d="M1535.07,274.81c.62-.89,1.26-1.78,1.93-2.65,3.79,2.15.14,5.75-1.82,7.68-1.95-.74-3.78-1.84-3.8-4.12,1.21-.31,2.44-.62,3.69-.91Z"/>
  </g>
  <g id="_x23_ffffffff">
    <path class="st48" d="M.14,0h1671.86v941H0V.11s.1-.08.14-.11M688.63,149.95c.07,26.07-.03,52.14.03,78.21-2.45.03-4.9-.05-7.33.24-.05.35-.14,1.05-.19,1.41,2.41.66,4.93.45,7.39.16.24,26.37.05,52.73.12,79.1-.11,9.9.33,19.81-.27,29.7-2.36-.1-4.71-.13-7.06-.17-.05.5-.16,1.48-.21,1.98,2.41-.07,4.87.13,7.27-.39.59,4.9.19,9.83.28,14.74-.04,29.83.08,59.65-.03,89.47-2.5-.11-5-.16-7.49-.2-.01.49-.02,1.47-.02,1.96,2.45.02,4.91.02,7.37.01.13,35.36.1,70.72.06,106.08-2.56,0-5.24-.45-7.64.69,1.96,2.14,5.01,1.16,7.53,1.14.27,7.17.32,14.37.08,21.54-2.67.03-5.42-.51-8.01.28l.06,1.35c2.65.46,5.36.11,8.04.13.05,34.63.1,69.26-.03,103.88-2.96-.01-6.08-.63-8.86.67,2.59,1.6,5.71.62,8.56.76.14,13.43.1,26.86.13,40.29.06,3.78-.32,7.75,1.22,11.33,2.27,5.22,7.67,9.12,13.45,9.08,130.98-.01,261.96.02,392.94,0,4.59-.08,9.5.68,13.74-1.57,3.41-1.57,6.69-4.71,7.29-8.47.95-4.74.39-9.59.52-14.38,0-189.65,0-379.31.01-568.96.76-8.08-6.64-15.34-14.55-15.33-133.02-.05-266.04.03-399.06-.03-8.2-.15-15.52,7.07-15.34,15.3M1197.37,147.3c-.02,106.19.2,212.39-.17,318.59.49,0,1.46.03,1.94.03.02-14.34.07-28.69.04-43.04.37-.01,1.11-.01,1.48-.02,1.91,1.2,4.2,1.37,6.4,1.73-2,.2-3.97.46-5.93.67-.6,17.24.06,34.51-.24,51.75-.21,3.01-.93,5.96-.93,8.99.1,16.66-.04,33.31.05,49.97-.07,5.35.5,10.69-.06,16.03-.09,54.99.05,109.97-.09,164.96-.02,4.8.45,9.67-.7,14.39l-.26-1.5c.24-34.95-.11-69.9.07-104.86-.08-52.33.08-104.67-.09-157-.2-.4-.6-1.21-.8-1.61l-.98.48c-.61,19.01-.1,38.07-.26,57.11,0,58.68-.02,117.37,0,176.05.2,10.41-.4,20.84.28,31.23,1.3,4.35,3.97,8.47,8.2,10.45,4.5,2.46,9.78,1.53,14.69,1.67,135.99.02,271.99.02,407.99.02,6.57.26,13.02-4.44,14.79-10.77,1-5.14.42-10.4.58-15.6.08-188.67.01-377.34.01-566.01.18-4.57-1.32-9.35-4.83-12.41-2.76-2.74-6.6-4.24-10.46-4.16-138.73.08-277.45-.01-416.18.05-7.12-.03-13.89,5.59-14.54,12.81M25.93,143.33c-1.49,3-.83,6.42-.94,9.64.01,176.67,0,353.34.01,530.01.13,17.36-.27,34.74.2,52.09l.41-.34c.86,5.27,6.25,8.76,11.38,8.63,186.65.01,373.31-.03,559.97.02,2.84-.09,6.39-.44,7.74-3.44-3.12,1.1-6.33,2.1-9.68,1.87-178.68,0-357.36,0-536.04.02-7.35.35-14.69-.02-22.04-.02-4.77.09-9.22-3.33-10.22-8.02.55-8.92.18-17.86.16-26.79-.03-15.68.02-31.36.21-47.04-.32-32.99-.27-65.98,0-98.97-.47-33.34.13-66.67-.13-100,0-23.02-.08-46.03.04-69.05.25-47.32-.42-94.65.05-141.98-.52-22.28.16-44.57-.09-66.85,46.03-.13,92.06-.08,138.09-.08,146.31.06,292.63.02,438.94.04.93-.1,2.79-.3,3.72-.41.78,7.74.37,15.53.48,23.29-.01,26.69.13,53.39-.02,80.08.11,1.51-.27,3.16.44,4.57-2.92.23-5.83.43-8.74.55.12.43.37,1.3.49,1.74,2.55.31,5.13.36,7.71.36-1.13,5.18.08,10.51.06,15.75-.11,19.69.13,39.38-.07,59.06-.65,6.64-.53,13.32.05,19.96-.1,3.84-.56,7.67-.54,11.51-2.68-.13-5.36-.15-8.04-.1.05.48.15,1.44.2,1.92,2.63-.01,5.26-.01,7.91-.02.08,27.87.02,55.75.04,83.63-.17,12.92.37,25.88-.32,38.77-2.36.08-4.75-.13-7.09.2-.08.46-.23,1.38-.31,1.83,2.84-.06,5.78-.38,8.5.72-.48,1.43-.26,2.97-.32,4.46.01,24.35,0,48.71,0,73.06-.09,15.86.2,31.72-.49,47.55-2.77-.07-5.53-.06-8.28-.05,0,.48.02,1.45.02,1.94,2.76-.02,5.52-.01,8.29-.06-.02,25.52.03,51.04.05,76.57-.01,2.48-.3,4.95-.45,7.44.7-1.36,1.3-2.8,1.25-4.35.06-69.05.23-138.11.19-207.17.24-.5.71-1.5.94-2h-.83c-.55-25.61-.04-51.24-.22-76.86.19-15.62-.44-31.27.4-46.87-.82-5.68-.1-11.42-.4-17.12.16-29.95.08-59.9.04-89.84l1.48-.18c-.33-.51-.99-1.54-1.32-2.05-.14-48.61,0-97.23-.39-145.83-.43-3.71-3.49-6.98-7.09-7.86-1.38-1.48-3.48-1.19-5.29-1.32-46.02,0-92.05-.04-138.07,0-17.33-.18-34.65.49-51.97-.03-74.35.02-148.69.11-223.04,0-11,.41-22,.13-33-.02-37.68.02-75.36.03-113.04,0-4.57-.09-10.19,2.63-10.99,7.43M636.33,228.36c-2.35,2.42-3.02,6.35-1.51,9.32,1.99-1.53.57-4.99,1.05-7.27,1.81-.12,3.63-.16,5.46-.22.1-.46.32-1.4.43-1.86-1.82.02-3.63,0-5.43.03M646.2,228.29c.05.49.14,1.47.19,1.96,2.76-.62,7.2,1.51,8.6-1.81-2.93-.2-5.87-.17-8.79-.15M659.24,228.32c.06.47.18,1.41.24,1.89,2.68-.04,5.38-.02,8.07.05.01-.48.04-1.46.06-1.94-2.8-.02-5.59-.01-8.37,0M671.02,228.49c1.28,3.05,4.93,1.36,7.27.79-2.13-1.5-4.86-.93-7.27-.79M633.96,248.05c.16,1.15-.38,3.84,1.54,3.54.91-3.16.32-6.51.09-9.73-2.44.96-1.3,4.17-1.63,6.19M634.43,256.32c-.73,3.21-.37,6.53-.18,9.78.34-.17,1.02-.52,1.36-.7.85-2.86.69-6.12-.01-9.02-.29-.02-.88-.05-1.17-.06M634.23,271.42c-.48,3.08-.41,6.25.03,9.34.35-.04,1.05-.13,1.4-.17.94-3.13.26-6.5.24-9.71-.42.13-1.25.4-1.67.54M634.06,285.73c-.09,1.64-.02,3.32-.39,4.94-1.64.24-3.29.32-4.92.51-1.01,3.23,3.4,1.43,5.21,1.92,2.12-2.16,2.53-5.05,1.83-7.92-.43.14-1.3.41-1.73.55M559.37,291.3c.04.46.12,1.4.16,1.87,2.48-.06,4.97.04,7.45-.21.1-.48.32-1.43.43-1.91-2.68,0-5.43-.47-8.04.25M572.01,291.07c-.11.49-.32,1.49-.43,1.98,2.83,0,5.67.1,8.49-.2.03-.42.09-1.25.12-1.67-2.72-.27-5.46-.32-8.18-.11M585.78,291.02c0,.5.04,1.5.05,2,2.99.01,6,.21,8.98-.21.02-.41.05-1.23.07-1.64-3.02-.34-6.07-.17-9.1-.15M613.78,291.92c2.78,2.14,6.56.83,9.79,1.13-.1-.5-.3-1.51-.4-2.01-3.13-.1-6.51-.65-9.39.88M525.86,321.07c3.09,2.22,7.16.73,10.69,1.26.09-.54.27-1.62.35-2.16-3.67.25-7.63-.83-11.04.9M542.23,320.22c.04.53.13,1.57.17,2.09,2.74-.09,5.49.04,8.24-.11.15-.49.45-1.48.61-1.98-3.02,0-6.02.01-9.02,0M556.21,320.28c.11.5.33,1.51.44,2.01,2.68-.05,5.35-.05,8.04,0,.05-.52.17-1.56.22-2.08-2.9.02-5.8.03-8.7.06M570.25,320.18c.04.55.14,1.64.18,2.19.77-.06,2.3-.18,3.06-.24.48,2.05.77,4.14.98,6.23,1.9-2.02.51-5.19.77-7.69-1.66-.2-3.34-.32-4.99-.49M573.73,334.35c.06,2.78.04,5.56-.04,8.34.48.02,1.44.05,1.92.07-.09-2.85-.13-5.71-.12-8.56-.44.04-1.32.11-1.76.15M643.66,338.75c-.76.85-1.52,1.7-2.26,2.55,0,1.9,0,3.81.04,5.72,3.07-.34.92-4.5,2.53-6.24,1.28-.16,2.57-.26,3.87-.32-.04-.45-.13-1.35-.17-1.8-1.35.03-2.68.06-4.01.09M652.76,338.65c-.09.47-.25,1.41-.34,1.88,2.78.01,5.56.02,8.35.06-.02-.48-.06-1.45-.08-1.93-2.65.02-5.3.01-7.93-.01M666.43,338.67c-.03.47-.09,1.41-.12,1.88,2.94-.03,5.88-.02,8.83.01-.12-.44-.36-1.34-.48-1.79-2.75-.19-5.49-.07-8.23-.1M573.71,349.35c.09,2.8.07,5.6-.04,8.4.48.05,1.44.14,1.93.18-.07-2.91-.09-5.83-.05-8.74-.46.04-1.38.12-1.84.16M641.41,351.25c0,2.8,0,5.61-.03,8.42.47,0,1.42,0,1.89,0-.07-2.77-.08-5.54-.04-8.31-.46-.03-1.36-.09-1.82-.12M528.43,360.1c-.42,1.39.08,1.87,1.49,1.45.41-1.4-.09-1.88-1.49-1.45M573.76,363.8c.23,2.51-.68,5.43.9,7.63,1.71.7,3.59.2,5.25-.42-1.07-1.28-2.74-1.39-4.25-1.54-.04-2.06-.12-4.11-.15-6.15-.44.12-1.31.36-1.75.48M641.4,364.18c-.04,1.73-.08,3.45-.11,5.19-.65.1-1.96.29-2.61.39-.11.45-.31,1.34-.42,1.78,1.18,0,2.37.02,3.56.04,1.82-2.06,1.44-4.84,1.51-7.38-.48,0-1.45-.02-1.93-.02M584.77,369.83c-.12.45-.35,1.37-.47,1.83,2.8.04,5.61.06,8.42.08-.03-.49-.09-1.47-.13-1.95-2.61.04-5.21.06-7.82.04M626.23,369.73c-.05.47-.16,1.41-.21,1.88,2.63.02,5.26.07,7.9.14-.05-.5-.16-1.51-.22-2.01-2.49.03-4.98.04-7.47,0M598.09,369.96c.05.45.14,1.35.19,1.8,2.91-.01,5.84-.06,8.75-.4-1.96-2.76-6.04-1.04-8.94-1.4M612.51,369.91c.16.43.47,1.3.63,1.74,2.64.16,5.29.01,7.95-.07-.23-.42-.67-1.25-.89-1.67-2.57-.18-5.13-.06-7.69,0M559.47,399.51c.06.46.16,1.4.22,1.87,2.43-.58,6.48,1.42,7.68-1.38-2.43-1.17-5.3-.33-7.9-.49M571.19,399.91c1.87,2.69,5.69,1.09,8.45,1.37.13-.46.4-1.38.53-1.85-3,0-6.04-.19-8.98.48M585.45,399.48c.07.46.2,1.38.27,1.85,2.84,0,5.68-.02,8.53-.04.05-.45.16-1.35.22-1.8-3.01-.06-6.02-.05-9.02,0M614.06,399.51c-.08.41-.23,1.22-.31,1.63,2.64.31,5.31.21,7.98.24.02-.48.08-1.46.11-1.95-2.6.03-5.19-.08-7.78.08M627.15,399.43c0,.48.04,1.46.05,1.94,2.49-.03,4.98-.02,7.48.02.03-.48.09-1.46.12-1.94-2.56.03-5.11.03-7.65-.02M639.44,399.53c-.04.42-.12,1.27-.16,1.69,3.39-.01,1.59,3.99,3.29,5.88.71-2.48.88-5.1-.05-7.54-1.04,0-2.06-.01-3.08-.03M1158.61,399.97c-.05,4.81.12,9.63-.03,14.45-8.12.06-16.24-.01-24.36-.05.15,7.77-.33,15.55.23,23.31,8.04-.34,16.09-.06,24.14-.18.05,4.75-.1,9.51.12,14.26,8.89-8.21,17.41-16.86,25.68-25.7-5.84-6.3-11.94-12.34-17.92-18.5-2.58-2.58-4.82-5.54-7.86-7.59M641.51,412.28c.59,2.57-1.35,6.53,1.41,8.07.35-3.08.32-6.2-.18-9.26-.31.3-.92.89-1.23,1.19M641.53,425.28c.03,2.71-.14,5.44.06,8.16.36.22,1.09.66,1.45.88.1-2.84.09-5.68.1-8.51-.4-.13-1.2-.4-1.61-.53M641.59,439.03c.02,2.11.09,4.23.12,6.34,1.89.56,3.85.81,5.83.88.15-2.64-2.41-1.98-4.11-2.2-.46-1.65.59-4.71-1.84-5.02M652.2,444.31c.03.48.09,1.43.13,1.91,2.76-.05,5.52-.05,8.29,0,.04-.48.11-1.43.15-1.9-2.86-.01-5.72-.01-8.57-.01M666.05,444.28c.09.41.27,1.22.36,1.63,2.7.39,5.48.4,8.19.02.12-.41.37-1.23.49-1.63-3.02-.06-6.03-.07-9.04-.02M559.32,523.72c-.04.5-.13,1.51-.18,2.01,2.54-.01,5.08-.01,7.63.02-.04-.5-.11-1.49-.14-1.99-2.44.03-4.88.01-7.31-.04M571.81,523.81c-.07.46-.23,1.38-.31,1.84,3.18.06,6.44.38,9.54-.54-2.39-2.54-6.19-.97-9.23-1.3M584.88,525.11c3.14,1.07,6.5.6,9.75.49-.11-.46-.32-1.38-.43-1.84-3.08.34-6.93-1.24-9.32,1.35M615.36,523.79c-.14.48-.44,1.45-.59,1.93,2.95,0,5.9,0,8.86,0-.04-.5-.11-1.5-.15-2-2.71.05-5.42-.08-8.12.07M629.31,523.72c-.03.52-.1,1.55-.13,2.07,2.94-.05,5.89-.08,8.85-.08-.08-.5-.22-1.49-.29-1.99-2.81.11-5.63.1-8.43,0M643.83,523.81c-.12.46-.36,1.39-.47,1.86,2.81.05,5.64.05,8.46.03-.03-.5-.11-1.49-.14-1.99-2.63.1-5.24.12-7.85.1M656.36,524.44c-.24,1.49,1.77,1.01,2.62,1.55.27,1.62.27,3.28.61,4.91,2.4-1.19,1.75-4.32.83-6.3-1.18-.85-2.78-.49-4.06-.16M659.42,534.03c-.17,3.07-.39,6.22.48,9.21.88-1.27,1.49-2.68,1.33-4.25-.12-1.83.5-4.39-1.81-4.96M659.45,546.36c0,2.01-.34,4.09.2,6.06,1.09,1.71,3.34,1.2,5.06,1.44-.13-.5-.39-1.49-.51-1.98-.72-.04-2.15-.13-2.87-.17-.06-1.69-.08-3.35-.11-5.02-.44-.08-1.33-.24-1.77-.33M571.58,549.92c-.14.49-.41,1.45-.55,1.93,2.92.28,5.86.27,8.79.07-.07-.54-.21-1.6-.28-2.14-2.65.05-5.32-.1-7.96.14M584.32,550.97c2.17,2.53,6.24.83,9.2.93-.09-.52-.26-1.56-.35-2.08-2.87.47-6.7-1.28-8.85,1.15M558.59,551.01c2.13,2.08,5.82.66,8.57.74-.51-1.44-1.47-2.39-3.1-2.03-1.75.25-4.65-.77-5.47,1.29M597.99,550.12v1.88c2.85.25,5.72.15,8.58.12-.68-3.87-5.83-2.05-8.58-2M611.47,552c2.88.08,5.77.07,8.66-.04-.12-.46-.37-1.39-.49-1.85-2.64-.09-7.29-1.58-8.17,1.89M624.58,550.31c-.04.46-.11,1.39-.14,1.85,2.82.34,2.06,3.44,2.32,5.48.39-.09,1.18-.27,1.57-.36-.06-1.76.11-3.56-.27-5.28-.69-1.31-2.27-1.31-3.48-1.69M669.23,552.32c.04.5.12,1.49.16,1.99,2.38-.04,4.76-.04,7.15,0,.08-.5.22-1.49.29-1.99-2.54.01-5.07,0-7.6,0M626.57,561.47c0,2.37.02,4.74.05,7.12.41-.01,1.23-.02,1.64-.02.02-2.41.04-4.81.08-7.21-.44.03-1.33.09-1.77.11M626.99,571.82c-.11,1.37-.63,2.83-.12,4.18,1.12,2.14,3.86,1.05,5.8,1.39.01-.48.03-1.43.04-1.91-1.24-.05-2.47-.11-3.69-.16-.41-1.33-.91-2.63-2.03-3.5M637.8,575.54c.1.44.31,1.32.41,1.77,2.71.14,5.43.01,8.15.02.06-.44.17-1.31.23-1.75-2.93.03-5.86.02-8.79-.04M652.21,575.55c0,.45-.01,1.37-.01,1.82,2.77-.09,5.55-.08,8.34,0,.03-.45.11-1.34.15-1.79-2.83.09-5.66.08-8.48-.03M666.24,575.55c.02.47.05,1.4.06,1.87,2.8-.08,5.6-.08,8.4-.01.01-.47.04-1.4.05-1.86-2.84.04-5.68.04-8.51,0M559.22,651.49c.02.48.06,1.45.07,1.94,2.44-.05,4.88-.06,7.33-.05.01-.47.03-1.4.04-1.87-2.48.02-4.96.01-7.44-.02M571.46,651.48c.05.48.15,1.44.2,1.92,2.7-.05,5.41-.04,8.11.05.03-.5.08-1.5.1-2-2.81.06-5.61.06-8.41.03M585.32,651.48c-.01.47-.03,1.43-.05,1.91,2.82-.02,5.65,0,8.48.07-.01-.51-.02-1.52-.03-2.02-2.81.07-5.61.09-8.4.04M613.26,651.51c.02.46.05,1.39.06,1.86,2.84-.49,6.64,1.25,8.65-1.46-2.88-.47-5.81-.38-8.71-.4M626.08,651.91c1.86,2.71,5.58,1.07,8.33,1.46.07-.47.2-1.42.27-1.89-2.87-.02-5.77-.16-8.6.43M638.31,652.94c.7.25,2.09.73,2.79.97.47,1.56-.49,4.68,2.15,4.58-.03-1.83.04-3.65-.21-5.46-.86-1.8-3.86-2-4.73-.09M641.41,663.14c-.28,2.51-.12,5.05-.1,7.58.48-.04,1.44-.14,1.92-.18-.23-2.67.58-5.57-.54-8.06-.32.16-.96.49-1.28.66M641.33,674.92c0,1.88.04,3.77.09,5.67.62.7,1.25,1.41,1.88,2.13,1.56-.11,3.12-.2,4.67-.43-1-1.74-3.06-1.49-4.69-1.94-.48-1.83,1.05-5.49-1.95-5.43M666.15,680.86c.06.59.2,1.77.27,2.36,2.76-.05,5.53-.04,8.3.06.02-.87.02-1.73,0-2.58-2.87.07-5.72.11-8.57.16M651.88,682.72c2.98.25,5.98.25,8.98.03-.17-.48-.51-1.44-.67-1.92-2.72.61-7.27-1.65-8.31,1.89M41.46,775.1c-.3,13.94-.02,27.9-.15,41.85.1,5.98-.25,12,.44,17.96,1.11,4.47,4.87,8.05,9.28,9.24,4.28.66,8.63.44,12.94.47,154.04,0,308.07-.01,462.11.01,7.28-.09,14.58.21,21.86-.15,5.62.1,10.73-4.27,12.29-9.52.83-9.63.19-19.32.41-28.97-.2-11.78.33-23.59-.26-35.35.29-2.69-2-4.44-4.1-5.56-1.83-2.4-5.22-3.53-8.2-3.45-164.35-.02-328.7-.01-493.05-.01-7.17-.57-14.24,6.22-13.57,13.48M610.68,762.65c-4.36,2.43-7.11,7.35-6.97,12.34,0,19.01-.04,38.02.03,57.02-.17,7.52,6.96,13.4,14.21,13.14,160.69.09,321.39.03,482.08.04,1.24.09,2.42-.14,3.54-.69,6.97.12,13.04-6.62,12.72-13.47-.04-18.67-.01-37.35-.02-56.02.13-6.98-5.99-14.06-13.23-13.47-162.81.04-325.62-.1-488.43.08-1.4-.56-2.75.41-3.93,1.03M1166.67,768.66c-1.92,3.8-1.33,8.17-1.42,12.28.06,16.69-.07,33.39-.01,50.08-.24,5.09,2.73,10.12,7.29,12.4,3.81,2.12,8.3,1.68,12.5,1.73,141.34-.01,282.68.04,424.01-.02,3.21-.01,6.53.31,9.61-.89,5.92-1.15,10.57-7.13,10.1-13.24.11-18.66.07-37.33-.04-55.99.27-4.32-1.87-8.61-5.42-11.05-3.99-3.26-9.6-2.81-14.38-2.43-3.46-1.48-7.24-.75-10.85-.88-139.36-.01-278.71-.01-418.07,0-5.44-.08-11.1,2.88-13.32,8M1589.83,849.01c0,3.79.02,7.58-.04,11.37-210.94-.03-421.87.04-632.81-.02-310.54.11-621.07-.13-931.6.09-.03,1.17-.44,2.53.7,3.36,8.22,8.82,16.52,17.57,24.91,26.23-7.67,7.61-14.82,15.72-22.41,23.43-1.64,1.8-4.1,3.48-3.48,6.27,307.62.05,615.25,0,922.88.01,213.84-.03,427.68.11,641.52-.05,1.93,4.63-.72,9.76,1.33,14.29,4.72-2.5,8.34-6.58,12.58-9.77,13.44-11.51,27.43-22.4,40.59-34.22-2.6-2.76-5.71-4.94-8.56-7.38-14.5-11.79-28.72-23.94-43.45-35.43-.54.46-1.62,1.37-2.16,1.82Z"/>
    <path class="st48" d="M711.64,193.01c-.14-4.84,3.42-8.59,7.69-10.25,116.2-.02,232.4,0,348.6.01,6.37.09,12.75-.29,19.11.13,5.12.3,9.43,4.98,9.19,10.14.09,23.97.01,47.95.07,71.92.23,4.54-3.2,8.74-7.56,9.78-5.18,1.24-10.49-.21-15.71.19-14.98.93-29.96-.33-44.95-.05-21.03-.13-42.06.14-63.09.35-9.98-.42-19.98-.53-29.96-.02-12.34-.21-24.7.33-37.03-.3-34.34.6-68.72.33-103.07-.02-12.97.93-25.95-.65-38.93.19-12.21-.21-24.41.38-36.62.17-4.27-1.63-8.04-5.34-7.83-10.21.12-24.01-.12-48.02.09-72.03M753.53,196.75c-.86.97-2.35,1.74-2.22,3.25.13,5.19-1.29,10.52.22,15.6,1.97,3.1,6.31,1.59,9.38,1.89.38,2.99.41,6,.44,9.01-5.45.37-10.9-.08-16.34.18-2.26-.1-4.25,1.43-5.25,3.36-.54,2.86-.3,5.8-.29,8.7-3.22.28-7.51-.85-9.62,2.31-.77,4.59-.17,9.31-.36,13.95-.4,2.1,1.06,4.72,3.41,4.56,5.66.13,11.34.09,17.01.02,1.62.22,2.77-1.19,3.37-2.53.38-5.06-.07-10.14.13-15.21-1.87-3.96-6.59-2.37-10.04-2.63-.07-2.86-.07-5.72-.01-8.58,6.54-.93,13.18.25,19.73-.74,6.45.9,12.99.18,19.49.53.14,2.77.32,5.57.04,8.34-2.7,1.08-5.95-.32-8.54,1.09-2.65,2.64-1.07,6.8-1.48,10.13.32,3.19-1.27,8.19,2.75,9.52,5.86.32,11.76.07,17.63.05,2.3.16,3.76-2.43,3.55-4.5-.01-4.51.36-9.06-.22-13.53-1.73-3.71-6.5-2.48-9.74-2.72-.4-4.01,1.41-10.31-3.7-11.94-6.07-.59-12.17,0-18.24-.22.12-3,.14-6.01.09-9.01,2.74-.15,5.5-.05,8.23-.42,3.62-2.18,1.78-6.85,2.23-10.26-.26-3.35,1.14-8.41-2.92-9.97-6.22-.5-12.49-.04-18.73-.23Z"/>
    <path class="st48" d="M1480.14,218.01c-.49-6.95,6.01-12.99,12.83-12.67,37.71-.04,75.42.07,113.13.01,6.21-.35,11.21,4.71,12.44,10.52-.05,48.91.05,97.82-.06,146.73-1.49,5.56-6.47,10.09-12.4,9.92-37.71.1-75.42,0-113.12.03-5.74.21-10.93-3.78-12.67-9.16-.35-48.45-.04-96.92-.15-145.38M1541.23,224.31c-2.32.51-1.78,3.19-2,4.92-3.49,2.82-7.97,2.56-12.17,2.51-2.92-.31-6.14,2.03-5.77,5.15.02,16.74-.02,33.49.07,50.23-.19,2.88,2.77,5.22,5.57,4.76,13.7-.13,27.41.08,41.11-.02,3.11.27,5.73-2.89,5.32-5.9-.02-15.98-.04-31.96-.03-47.94.33-2.68-1.44-5.72-4.22-6.13-3.03-.26-6.07-.14-9.08-.26-1.29-.95-2.64-1.81-3.78-2.89-.83-1.73-.85-4.47-3.23-4.82-3.92-.16-7.97-.55-11.79.39Z"/>
    <path class="st48" d="M718.28,296.43c2.15-.73,4.46-.63,6.71-.66,120.02.09,240.04-.03,360.06.04,5.74-.46,11.54,4.18,11.19,10.18,0,22.32-.06,44.64-.04,66.96-.11,3.3.58,6.99-1.37,9.91-1.98,3.36-6.05,4.83-9.79,4.69-121.02,0-242.05.02-363.07-.02-3.72.01-7.58-1.98-9.16-5.44-1.51-2.78-1.14-6.03-1.15-9.06.08-22.33-.08-44.67.03-67-.01-4.16,2.67-8.16,6.59-9.6M743.41,313.59c-1.78,1.18-3.13,3.16-2.84,5.39,0,15.66-.02,31.33.01,47-.15,2.33,1.95,4.77,4.36,4.73,11.67.22,23.35.08,35.03.06,1.81-.06,3.98.12,5.2-1.53,1.79-1.58,1.34-4.15,1.46-6.26-.18-10.01-.08-20.01-.06-30.01.29-2.35-1.78-3.82-3.17-5.36-4.9-4.71-9.37-9.99-14.75-14.13-8.39-.33-16.86-.33-25.24.11Z"/>
    <path class="st48" d="M720.25,408.45c91.25-.38,182.53-.04,273.79-.19,30.68.1,61.35-.05,92.02.11,5.28-.16,10.14,4.32,10.22,9.64.09,24.01-.09,48.02.03,72.03.4,6.06-5.52,10.82-11.33,10.26-121.28-.06-242.57.1-363.86-.05-3.88-.22-7.48-2.85-8.87-6.48-1.12-2.43-.64-5.16-.72-7.74.04-22.65-.04-45.31.06-67.97.06-4.77,3.96-9,8.66-9.61M758.22,424.17c-9.92,2.19-18.6,9.46-22.14,19.03-4.78,12.19-.63,27.04,9.8,34.97,7.79,5.83,18.59,8.05,27.74,4.23,13.5-4.85,22.24-20.23,19.06-34.29-2.6-15.39-18.98-27.41-34.46-23.94Z"/>
    <path class="st48" d="M719.22,521.24c1.86-.51,3.81-.52,5.74-.55,120.02-.06,240.04,0,360.06.03,5.79-.48,11.59,4.28,11.33,10.28-.09,24,.05,48-.06,72,.12,4.47-3.34,8.59-7.66,9.51-2.52.36-5.07.21-7.6.24-30,.09-60-.01-90,.03-16.04.15-32.1-.43-48.11.44-13.96-.91-27.97-.23-41.95-.47-6.99-.24-13.97.59-20.95.09-53-.17-106.01.11-159-.12-5.06-.06-9.51-4.66-9.43-9.72-.04-23.97,0-47.95-.02-71.92-.1-4.52,3.23-8.84,7.65-9.84M761.72,535.79c-6.66,4.03-13.85,7.39-21.61,8.55-2.38.06-3.75,2.46-3.38,4.65.48,8.97-1.18,18.22,1.71,26.93,3.37,11.41,12.47,20.78,23.66,24.73,1.28.46,2.61-.11,3.81-.54,11.63-4.76,20.88-15.43,23.04-27.93,1.48-8.35.25-16.88.64-25.3-.36-.52-1.08-1.57-1.45-2.09-7.47-1.21-14.74-3.75-21.17-7.78-1.58-.87-3.44-2.54-5.25-1.22Z"/>
    <path class="st48" d="M718.31,634.36c2.46-.94,5.16-.72,7.75-.78,119.64.03,239.28-.08,358.91.04,5.88-.58,11.54,4.39,11.35,10.36-.05,25.57.21,51.14-.15,76.7-2.46,3.23-6.93,5.51-11.15,5.28-54.67.38-109.34.18-164.01.24-64-.06-128-.02-192-.18-4.17-.04-8.7.71-12.48-1.49-3.36-1.83-5.17-5.72-5.02-9.47.07-23.66.04-47.33.08-70.99-.12-4.25,2.73-8.3,6.72-9.71M733.67,658.03c.01,6.51-.13,13.02-.27,19.54-.22,7.14.29,14.28.23,21.43-.36,3.46,2.69,7.11,6.32,6.76,15.7-.06,31.41.01,47.12-.07,2.64.23,4.42-2.03,5.31-4.24l.36.21c-.47-9.9.92-19.76.51-29.65.14-2.04-1.54-3.42-2.67-4.85.33-3.01-.37-7.05-3.94-7.61-8.61-.15-17.22-.07-25.82-.02-1.72-2.68-3.11-6.6-6.82-6.83-4.67-.25-9.35-.08-14.01-.13-3.18-.45-6.28,2.3-6.32,5.46Z"/>
  </g>
  <g id="_x23_1f56bdff">
    <path class="st126" d="M688.63,149.95c-.18-8.23,7.14-15.45,15.34-15.3,133.02.06,266.04-.02,399.06.03,7.91,0,15.31,7.25,14.55,15.33-.01,189.65-.02,379.31-.01,568.96-.13,4.79.43,9.64-.52,14.38-.09-.47-.28-1.39-.38-1.85.09-193.83-.03-387.65.03-581.48.77-7.6-6.14-14.65-13.67-14.42-131-.05-262-.01-393-.01-3.03.02-6.07-.15-9.07.15-6.47,1.34-11.6,7.53-11.41,14.19-.03,26.07.07,52.15-.07,78.23h-.82c-.06-26.07.04-52.14-.03-78.21Z"/>
    <path class="st126" d="M688.44,554.08c.34-.02,1.01-.04,1.35-.05-.23,7.19-.37,14.41-.14,21.61-.28-.01-.85-.01-1.13-.02.24-7.17.19-14.37-.08-21.54Z"/>
    <path class="st126" d="M688.61,577.38c.23,0,.68-.01.9-.01.15,34.64-.08,69.29.08,103.93-.26-.01-.76-.03-1.01-.04.13-34.62.08-69.25.03-103.88Z"/>
    <path class="st126" d="M709.97,644.03c-.11-6.79,6.33-12.44,13.02-11.83,120.68.01,241.37-.08,362.05.01,4.56-.25,9.12,2.21,11.39,6.19,1.52,2.59,1.46,5.7,1.71,8.61-.54,19.66.49,39.34-.21,59.01.02,5.74.33,11.56-1.33,17.13-3.39.96-5.76,4.47-9.62,4.24-121.62-.07-243.26-.02-364.89.03-6.67.27-12.66-5.68-12.19-12.39-.01-23.67-.1-47.34.07-71M718.31,634.36c-3.99,1.41-6.84,5.46-6.72,9.71-.04,23.66-.01,47.33-.08,70.99-.15,3.75,1.66,7.64,5.02,9.47,3.78,2.2,8.31,1.45,12.48,1.49,64,.16,128,.12,192,.18,54.67-.06,109.34.14,164.01-.24,4.22.23,8.69-2.05,11.15-5.28.36-25.56.1-51.13.15-76.7.19-5.97-5.47-10.94-11.35-10.36-119.63-.12-239.27-.01-358.91-.04-2.59.06-5.29-.16-7.75.78Z"/>
    <path class="st126" d="M733.67,658.03c.04-3.16,3.14-5.91,6.32-5.46,4.66.05,9.34-.12,14.01.13,3.71.23,5.1,4.15,6.82,6.83,8.6-.05,17.21-.13,25.82.02,3.57.56,4.27,4.6,3.94,7.61,1.13,1.43,2.81,2.81,2.67,4.85.41,9.89-.98,19.75-.51,29.65l-.36-.21c-1.04-.59-2.08-1.2-3.1-1.78-.16-9.67.87-19.35.14-29.02-15.13-.31-30.27-.04-45.4-.25-2.47.09-5.27-.35-7.27,1.44-.96,1.99-2.01,3.95-3.35,5.73.14-6.52.28-13.03.27-19.54M737.57,656.44c-.15,3.63-.13,7.26-.05,10.89,16.45-.35,32.9-.23,49.35-.23-.05-1.27-.1-2.54-.16-3.8-7.9-.42-15.81.03-23.71-.21-1.45-.15-3.02-.01-4.32-.71-1.59-1.83-2.52-4.14-4.18-5.9-5.61-.56-11.31-.33-16.93-.04Z"/>
  </g>
  <g id="_x23_157a93ff">
    <path class="st44" d="M1197.37,147.3c.65-7.22,7.42-12.84,14.54-12.81,138.73-.06,277.45.03,416.18-.05,3.86-.08,7.7,1.42,10.46,4.16-.42-.01-1.27-.04-1.69-.05-2.8-1.36-5.72-2.76-8.91-2.58-136.33-.07-272.65-.02-408.98-.05-4.9.08-10.33-.67-14.58,2.3-3.02,1.91-4.48,5.29-5.77,8.46-.31.15-.93.46-1.25.62Z"/>
    <path class="st44" d="M688.38,340.19c.26.17.77.49,1.03.65.3,34.56,0,69.13.14,103.69l1.8.09c.01-2.23.05-4.44.09-6.65,5.26,2.22,10.29,4.91,15.52,7.21-5.27,2.43-10.27,5.4-15.55,7.79,0-2.28-.09-4.56-.07-6.83l-1.56.02c-.32,0-.97.01-1.29.01-2.46,0-4.92,0-7.37-.01,0-.49.01-1.47.02-1.96,2.49.04,4.99.09,7.49.2.11-29.82-.01-59.64.03-89.47-.09-4.91.31-9.84-.28-14.74Z"/>
  </g>
  <g id="_x23_9fa5c1ff">
    <path class="st67" d="M25.93,143.33c.8-4.8,6.42-7.52,10.99-7.43,37.68.03,75.36.02,113.04,0,11,.15,22,.43,33,.02,74.35.1,148.69,0,223.04,0,17.32.52,34.64-.15,51.97.03,46.02-.04,92.05,0,138.07,0,1.81.13,3.91-.16,5.29,1.32-.67.09-2.03.27-2.71.36-4.2.53-8.43.39-12.65.38-180.67,0-361.34,0-542,0-3.61.06-7.23-.26-10.82.2-3.49.69-5.29,4.1-6.46,7.11-.19-.49-.57-1.49-.76-1.98Z"/>
  </g>
  <g id="_x23_f7fafeff">
    <path class="st85" d="M689.55,149.93c-.19-6.66,4.94-12.85,11.41-14.19,3-.3,6.04-.13,9.07-.15,131,0,262-.04,393,.01,7.53-.23,14.44,6.82,13.67,14.42-.06,193.83.06,387.65-.03,581.48-2.03,4.99-6.08,9.63-11.77,10.09-8.61.52-17.26.12-25.87.22-124.34.03-248.68.01-373.02.03-4.94.22-10.42-1.16-13.39-5.41-3.17-4.12-2.36-9.56-2.45-14.4-.09-13.12.21-26.24-.11-39.35l1.15.03c.24,2.3.11,4.63.29,6.95,4.68-2.61,9.59-4.77,14.34-7.26-.05-.2-.14-.6-.19-.81-4.74-2.41-9.41-5-14.38-6.93,0,2.23-.04,4.46-.02,6.7l-1.66-.06c-.16-34.64.07-69.29-.08-103.93l1.58-.03c.06,2.15.09,4.31.32,6.46,5.21-2.01,10.17-4.65,15.03-7.4-4.92-2.63-9.89-5.15-15-7.37-.14,2.19-.24,4.4-.51,6.59l-1.28.02c-.23-7.2-.09-14.42.14-21.61,2.62,1.04,1.25,4.48,1.74,6.69,4.78-2.44,9.68-4.65,14.4-7.22-.25-1.2-1.63-1.46-2.5-2.01-4.02-1.9-7.89-4.15-12.06-5.7,0,2.17-.02,4.34,0,6.52l-1.65-.1c-.04-35.35-.1-70.7.06-106.05l1.56-.02c-.02,2.27.06,4.55.07,6.83,5.28-2.39,10.28-5.36,15.55-7.79-5.23-2.3-10.26-4.99-15.52-7.21-.04,2.21-.08,4.42-.09,6.65l-1.8-.09c-.15-34.56.16-69.13-.14-103.69l1.22.68c.14,1.91.19,3.82.25,5.73,4.35-1.58,8.3-4.03,12.48-5.97.76-.61,2.21-.7,2.44-1.82-4.87-2.57-9.83-4.99-14.89-7.16-.12,2.18-.2,4.38-.38,6.56l-.93-.03c-.17-34.6.09-69.2-.1-103.8-.09-1.8.32-3.56.89-5.26.1,2.33.2,4.67.27,7.01,5.42-2.18,10.54-5,15.78-7.57-5.28-2.4-10.26-5.39-15.65-7.54-.03,2.16-.05,4.32-.06,6.48h-1.25c.14-26.07.04-52.15.07-78.22M709.92,192.97c-.15,23.66-.02,47.33-.08,70.99-.28,6.18,4.42,12.1,10.73,12.55,36.44.41,72.93-.02,109.4.14,82.67-.04,165.34-.02,248.01-.03,5.1-.13,10.8.82,15.24-2.31,3.65-2.48,4.97-7.09,4.9-11.3.07-22.67-.01-45.35.07-68.02.12-4.7-1.84-9.7-5.98-12.2-4.22-2.71-9.46-1.84-14.19-1.94-104.35,0-208.7-.02-313.05,0-14.84.17-29.72-.38-44.52.26-5.76.79-10.56,5.99-10.53,11.86M718.44,294.61c-4.9,1.48-8.64,6.24-8.53,11.43-.13,23.66-.07,47.33-.11,70.99-.23,6.93,6.33,12.82,13.15,12.27,120.66-.05,241.32.03,361.97-.04,6.87.52,13.56-5.22,13.25-12.27-.01-22-.01-44,.02-66,.07-3.74.02-7.72-2.03-11-2.14-3.98-6.77-6.11-11.18-5.99-120.98.09-241.96-.05-362.95.03-1.23.02-2.43.21-3.59.58M717.39,407.5c-4.94,1.95-7.9,7.29-7.59,12.5.01,23.33.02,46.66,0,69.99-.04,6.84,6.48,12.36,13.17,11.84,120.68.02,241.36,0,362.04,0,6.69.51,13.13-5.03,12.99-11.88.33-21.28.02-42.58.16-63.86-.09-4.01.35-8.2-1.15-12.01-1.89-4.71-6.91-7.88-11.99-7.49-120.34-.07-240.69-.05-361.03-.05-2.23.01-4.55-.01-6.6.97M719.42,519.52c-5.68,1.22-9.72,6.76-9.53,12.52-.08,23.31-.03,46.64-.07,69.96-.34,6.29,4.85,12.16,11.15,12.49,121.32-.02,242.65-.06,363.98.01,6.9.54,13.46-5.58,13.21-12.54-.07-22,.02-43.99,0-65.99.12-4.86-.32-10.46-4.34-13.8-4.38-3.8-10.5-2.81-15.82-2.9-107.33-.02-214.66-.01-321.99,0-12.19.14-24.43-.4-36.59.25M709.97,644.03c-.17,23.66-.08,47.33-.07,71-.47,6.71,5.52,12.66,12.19,12.39,121.63-.05,243.27-.1,364.89-.03,3.86.23,6.23-3.28,9.62-4.24,1.66-5.57,1.35-11.39,1.33-17.13.7-19.67-.33-39.35.21-59.01-.25-2.91-.19-6.02-1.71-8.61-2.27-3.98-6.83-6.44-11.39-6.19-120.68-.09-241.37,0-362.05-.01-6.69-.61-13.13,5.04-13.02,11.83Z"/>
  </g>
  <g id="_x23_f5fbfeff">
    <path class="st156" d="M1204.39,138.22c4.25-2.97,9.68-2.22,14.58-2.3,136.33.03,272.65-.02,408.98.05,3.19-.18,6.11,1.22,8.91,2.58,2.75,2.79,5.09,6.33,4.97,10.42.1,193.84-.09,387.7.11,581.54-1.06,3.38-2.61,6.86-5.71,8.82-4.7,3.46-10.8,2.34-16.22,2.51-135.38-.04-270.75.03-406.12-.01-6.48.41-13.88-3.55-14.73-10.48,1.15-4.72.68-9.59.7-14.39.14-54.99,0-109.97.09-164.96.56-5.34-.01-10.68.06-16.03-.09-16.66.05-33.31-.05-49.97,0-3.03.72-5.98.93-8.99.3-17.24-.36-34.51.24-51.75,1.96-.21,3.93-.47,5.93-.67-2.2-.36-4.49-.53-6.4-1.73,11.71-.04,23.42-.19,35.14.02-.03,2.48.06,4.96.06,7.44,5.19-2.42,10.17-5.27,15.38-7.64.47.06,1.41.17,1.89.23-.72,25.7-.02,51.43-.35,77.14-.07,4.28.02,8.91,2.52,12.59,2.9,4.56,8.41,6.93,13.73,6.73,39.65-.09,79.3,0,118.95-.04,7.66.01,14.56-6.65,14.57-14.36.03-18.15.08-36.31-.05-54.45,6.46,1.1,13.02.21,19.51.88,7.9,1.14,13.71,8.74,13.72,16.57.12,23.99-.02,48,.06,71.99-.04,7.28,3.95,14.7,10.72,17.75,4.59,2.41,9.9,1.81,14.9,1.99.01,2.44.03,4.88.07,7.33,5.57-2.54,11-5.43,16.3-8.52.94,4.08.47,8.28.5,12.43.02,22.03.03,44.07.06,66.1,0,4.79,2.58,9.55,6.9,11.78,4.47,2.58,9.81,1.7,14.74,1.8,35.66.01,71.32.02,106.98-.08,6.48.08,12.02-5.04,13.29-11.26.39-44.43,0-88.87.14-133.3.05-4.16.12-8.62-2.14-12.29-2.34-4.02-6.85-6.19-11.31-6.84-35.65-.17-71.31-.05-106.96-.08-5.04.01-10.46-.52-14.97,2.17-4.64,2.48-6.82,7.98-6.69,13.04-.03,14.69.01,29.37.03,44.05-.02,4.11.2,8.24-.37,12.33-5.3-3.09-10.93-5.54-16.39-8.28-.06,2.38-.08,4.77-.1,7.16-4.83.04-9.99.34-14.33-2.15-5.24-2.64-8.68-8.29-8.76-14.13-.08-24.64.12-49.28-.03-73.92-.11-9.23-7.74-17.32-16.82-18.43-6.29-.5-12.61-.18-18.91-.19-.13-14.87-.05-29.75-.08-44.63-.63-1.62,1.29-2.11,2.42-2,5.98-.07,11.98.22,17.97-.15,8.79-1.46,15.55-9.74,15.46-18.62.02-27.36-.02-54.71.02-82.07-.17-6.33,3.26-12.61,8.85-15.66,4.26-2.53,9.39-1.93,14.14-1.97.01,2.37.06,4.74.1,7.12,5.19-2.62,10.35-5.33,15.54-7.96l1.14.09c.11,25.49.01,50.97.07,76.46.01,1.77.15,3.56.45,5.31,1.22,3.41,3.35,6.67,6.69,8.3,3.84,2.16,8.36,1.88,12.61,1.84,35.97-.06,71.95.08,107.92-.04,6.71.1,12.9-4.84,14.34-11.38.21-48.95.05-97.91.05-146.86-.56-7.18-7.08-13.04-14.28-12.83-37.7-.04-75.39-.06-113.09.01-5.31-.15-10.67,2.7-13.07,7.51-1.99,3.74-1.61,8.08-1.63,12.17.02,16,.04,32,.06,48,0,3.54.09,7.1-.43,10.62-5.39-2.89-10.95-5.4-16.31-8.31-.06,2.42-.12,4.84-.14,7.27-6.14-.26-12.67.24-17.79,3.98-5.33,3.58-7.85,10.14-7.86,16.38-.12,27.36.07,54.71-.1,82.06.04,7.83-5.96,14.48-13.38,16.31-6.57.35-13.16.12-19.73.16-.05-16.18.02-32.35-.04-48.52.22-7.74-6.92-14.39-14.49-14.49-40.04-.07-80.09-.02-120.14-.04-6.19-.1-12.4,3.95-14.19,9.98-1.5,5.39-.72,11.04-.88,16.55-.17,19.44.26,38.88-.13,58.31-5.59-2.85-11.23-5.61-16.9-8.27-.01,2.44.02,4.89.07,7.34-12.42.37-24.84-.21-37.25.08-.29-54.48.02-108.97-.11-163.46.06-36.78-.14-73.56.1-110.33,1.29-3.17,2.75-6.55,5.77-8.46Z"/>
  </g>
  <g id="_x23_061b57ff">
    <path class="st45" d="M598.62,137.62c.68-.09,2.04-.27,2.71-.36,3.6.88,6.66,4.15,7.09,7.86.39,48.6.25,97.22.39,145.83l-.2-.35c-.71-1.41-.33-3.06-.44-4.57.15-26.69.01-53.39.02-80.08-.11-7.76.3-15.55-.48-23.29,0-.4,0-1.2,0-1.6.03-10.34,0-20.68.09-31.02-.05-2.31.04-4.66-.5-6.93-1.59-3.28-4.88-5.88-8.69-5.49Z"/>
    <path class="st45" d="M1291.33,385.91c4.97,5.54,12.48,7.38,19.43,9.1,11.27,1.89,22.99,2.44,34.2-.16,7.05-1.46,14.16-3.93,19.44-9.03.02,5.48-.17,10.97.01,16.46-1.25,2.4-2.95,4.6-5.41,5.83-11.73,6.71-25.76,7.26-38.92,6.54-8.94-.73-18.25-2.57-25.56-8.08-2.02-1.56-3.52-3.87-3.14-6.51-.08-4.72-.03-9.43-.05-14.15Z"/>
  </g>
  <g id="_x23_e7e9f6ff">
    <path class="st28" d="M26.69,145.31c1.17-3.01,2.97-6.42,6.46-7.11,3.59-.46,7.21-.14,10.82-.2,180.66,0,361.33,0,542,0,4.22,0,8.45.15,12.65-.38,3.81-.39,7.1,2.21,8.69,5.49.54,2.27.45,4.62.5,6.93-.09,10.34-.06,20.68-.09,31.02-193.57-.1-387.15.01-580.72-.02-.33-11.91.32-23.83-.31-35.73M48.23,154.24c-4.04,1.6-5.28,7.53-1.85,10.38,3.4,4.05,10.98,1.74,11.36-3.58.99-5-5.15-9.17-9.51-6.8M72.21,154.04c-4.24,1.89-5.3,8.32-1.4,11.09,3.62,3.64,10.43.93,10.85-4.08,1.1-5.02-4.98-9.44-9.45-7.01M96.21,154.21c-2.13,1.09-4.24,3.13-3.9,5.74-.26,3.56,3.27,6.82,6.75,6.63,3.42.21,6.73-3.15,6.52-6.56.25-4.48-5.45-8.02-9.37-5.81Z"/>
  </g>
  <g id="_x23_0a717eff">
    <path class="st159" d="M1638.55,138.6c3.51,3.06,5.01,7.84,4.83,12.41,0,188.67.07,377.34-.01,566.01-.16,5.2.42,10.46-.58,15.6-.22-.53-.64-1.58-.85-2.11-.2-193.84,0-387.7-.11-581.54.12-4.09-2.22-7.63-4.97-10.42.42,0,1.27.04,1.69.05Z"/>
    <path class="st159" d="M717.39,407.5c2.05-.98,4.37-.96,6.6-.97,120.34,0,240.69-.02,361.03.05,5.08-.39,10.1,2.78,11.99,7.49,1.5,3.81,1.06,8,1.15,12.01-.14,21.28.17,42.58-.16,63.86.14,6.85-6.3,12.39-12.99,11.88-120.68,0-241.36.03-362.04,0-6.69.52-13.21-5-13.17-11.84.02-23.33.01-46.66,0-69.99-.31-5.21,2.65-10.55,7.59-12.5M720.25,408.45c-4.7.61-8.6,4.84-8.66,9.61-.1,22.66-.02,45.32-.06,67.97.08,2.58-.4,5.31.72,7.74,1.39,3.63,4.99,6.26,8.87,6.48,121.29.15,242.58-.01,363.86.05,5.81.56,11.73-4.2,11.33-10.26-.12-24.01.06-48.02-.03-72.03-.08-5.32-4.94-9.8-10.22-9.64-30.67-.16-61.34-.01-92.02-.11-91.26.15-182.54-.19-273.79.19Z"/>
    <path class="st159" d="M1608.91,761.53c4.78-.38,10.39-.83,14.38,2.43,3.55,2.44,5.69,6.73,5.42,11.05.11,18.66.15,37.33.04,55.99.47,6.11-4.18,12.09-10.1,13.24-.5-.1-1.48-.3-1.97-.4,5.06.05,9.52-3.84,10.81-8.62.94-3.66.74-7.48.76-11.21-.08-15.66.06-31.32-.01-46.98-.03-4.07-.7-8.5-3.84-11.4-4.32-4.42-11.02-3.98-16.68-3.79l1.19-.31Z"/>
    <path class="st159" d="M1220.39,801.39c3.35-3.2,6.58-7.29,11.48-7.98,5.41-1.09,11.25,3.06,11.86,8.59-1.37,1-2.76,1.98-4.11,2.99-.19-1.59-.06-3.23-.62-4.74-2.06-3.35-7.19-4.11-10.08-1.46-3.12,2.57-5.83,5.57-8.72,8.38-1.83,1.89-4.21,3.91-3.9,6.84-.45,6.08,5.73,11.69,11.78,10.12,4.26-1.86,6.97-5.88,10.19-9.05.65,1.22,1.32,2.46,1.99,3.71-3.68,3.37-6.74,8.06-11.91,9.22-8.11,1.82-16.82-5.55-15.94-13.94-.24-5.57,4.51-9.1,7.98-12.68Z"/>
  </g>
  <g id="_x23_9da2baff">
    <path class="st6" d="M24.99,152.97c.11-3.22-.55-6.64.94-9.64.19.49.57,1.49.76,1.98.63,11.9-.02,23.82.31,35.73,193.57.03,387.15-.08,580.72.02,0,.4,0,1.2,0,1.6-.93.11-2.79.31-3.72.41-146.31-.02-292.63.02-438.94-.04-46.03,0-92.06-.05-138.09.08.25,22.28-.43,44.57.09,66.85-.47,47.33.2,94.66-.05,141.98-.12,23.02-.05,46.03-.04,69.05.26,33.33-.34,66.66.13,100-.27,32.99-.32,65.98,0,98.97-.19,15.68-.24,31.36-.21,47.04.02,8.93.39,17.87-.16,26.79-.28.23-.83.7-1.11.94l-.41.34c-.47-17.35-.07-34.73-.2-52.09-.01-176.67,0-353.34-.01-530.01Z"/>
  </g>
  <g id="_x23_046878ff">
    <path class="st108" d="M1197.37,147.3c.32-.16.94-.47,1.25-.62-.24,36.77-.04,73.55-.1,110.33.13,54.49-.18,108.98.11,163.46,12.41-.29,24.83.29,37.25-.08-.05-2.45-.08-4.9-.07-7.34,5.67,2.66,11.31,5.42,16.9,8.27-.52.44-1.01.89-1.47,1.36-5.21,2.37-10.19,5.22-15.38,7.64,0-2.48-.09-4.96-.06-7.44-11.72-.21-23.43-.06-35.14-.02-.37.01-1.11.01-1.48.02.03,14.35-.02,28.7-.04,43.04-.48,0-1.45-.02-1.94-.03.37-106.2.15-212.4.17-318.59Z"/>
    <path class="st108" d="M1485.01,488.94c4.51-2.69,9.93-2.16,14.97-2.17,35.65.03,71.31-.09,106.96.08.32.47.95,1.41,1.27,1.88-38.07-.3-76.15,0-114.22-.14-7.43-.66-14.77,5.75-13.9,13.44.07,45-.06,90.01.06,135.02-.14,6.29,5.59,11.82,11.83,11.76,37.01.1,74.02-.03,111.03.05,3.38-.01,7.07.12,9.99-1.92,3.04-1.86,4.73-5.19,5.54-8.56l1.71.9c-1.27,6.22-6.81,11.34-13.29,11.26-35.66.1-71.32.09-106.98.08-4.93-.1-10.27.78-14.74-1.8-4.32-2.23-6.9-6.99-6.9-11.78-.03-22.03-.04-44.07-.06-66.1-.03-4.15.44-8.35-.5-12.43l.2-.15c.57-4.09.35-8.22.37-12.33-.02-14.68-.06-29.36-.03-44.05-.13-5.06,2.05-10.56,6.69-13.04Z"/>
  </g>
  <g id="_x23_fb4e52ff">
    <path class="st120" d="M48.23,154.24c4.36-2.37,10.5,1.8,9.51,6.8-.38,5.32-7.96,7.63-11.36,3.58-3.43-2.85-2.19-8.78,1.85-10.38Z"/>
  </g>
  <g id="_x23_febc31ff">
    <path class="st101" d="M72.21,154.04c4.47-2.43,10.55,1.99,9.45,7.01-.42,5.01-7.23,7.72-10.85,4.08-3.9-2.77-2.84-9.2,1.4-11.09Z"/>
  </g>
  <g id="_x23_08cd38ff">
    <path class="st86" d="M96.21,154.21c3.92-2.21,9.62,1.33,9.37,5.81.21,3.41-3.1,6.77-6.52,6.56-3.48.19-7.01-3.07-6.75-6.63-.34-2.61,1.77-4.65,3.9-5.74Z"/>
  </g>
  <g id="_x23_4f278aff">
    <path class="st146" d="M709.92,192.97c-.03-5.87,4.77-11.07,10.53-11.86-.28.41-.84,1.24-1.12,1.65-4.27,1.66-7.83,5.41-7.69,10.25-.21,24.01.03,48.02-.09,72.03-.21,4.87,3.56,8.58,7.83,10.21l1.19,1.26c-6.31-.45-11.01-6.37-10.73-12.55.06-23.66-.07-47.33.08-70.99Z"/>
    <path class="st146" d="M1541.23,224.31c3.82-.94,7.87-.55,11.79-.39,2.38.35,2.4,3.09,3.23,4.82,1.14,1.08,2.49,1.94,3.78,2.89,3.01.12,6.05,0,9.08.26,2.78.41,4.55,3.45,4.22,6.13-.01,15.98.01,31.96.03,47.94.41,3.01-2.21,6.17-5.32,5.9-13.7.1-27.41-.11-41.11.02-2.8.46-5.76-1.88-5.57-4.76-.09-16.74-.05-33.49-.07-50.23-.37-3.12,2.85-5.46,5.77-5.15,4.2.05,8.68.31,12.17-2.51.22-1.73-.32-4.41,2-4.92M1542.37,227.53c.05,1.43.12,2.86.21,4.29-1.46.22-2.91.32-4.31.55-.24,1.33-.46,2.67-.64,4.01,6.31.06,12.62-.08,18.93-.04-.33-1.19-.63-2.38-.92-3.57-3.33.27-3.75-2.75-3.88-5.32-3.14-.13-6.28-.16-9.39.08M1525.33,236.05c-.01,17.25.06,34.5-.02,51.74,13.2.81,26.47.19,39.69.13,1.41-.03,2.94.08,4.28-.61,2.6-1.85,2.35-5.7,2.34-8.58-1.12-6.18-1.15-12.48-.78-18.73.25-4.21,1.63-8.4.72-12.62-.73-3.59-.48-7.25-.84-10.86-.34-.2-1.03-.61-1.37-.81-2.88,0-5.76-.09-8.62-.06-.67,2.15-1.95,5.03-4.69,4.7-6.36-.02-12.73.2-19.07-.2-2.25-.31-2.76-2.54-3.04-4.39-2.88-.1-5.76-.04-8.6.29Z"/>
  </g>
  <g id="_x23_54298dff">
    <path class="st167" d="M753.53,196.75c6.24.19,12.51-.27,18.73.23,4.06,1.56,2.66,6.62,2.92,9.97-.45,3.41,1.39,8.08-2.23,10.26-2.73.37-5.49.27-8.23.42.05,3,.03,6.01-.09,9.01,6.07.23,12.17-.37,18.24.22,5.11,1.63,3.3,7.93,3.7,11.94,3.24.24,8.01-.99,9.74,2.72.58,4.47.21,9.02.22,13.53.21,2.07-1.25,4.66-3.55,4.5-5.87.02-11.77.27-17.63-.05-4.02-1.33-2.43-6.33-2.75-9.52.41-3.33-1.17-7.49,1.48-10.13,2.59-1.41,5.84-.01,8.54-1.09.28-2.77.1-5.57-.04-8.34-6.5-.35-13.04.37-19.49-.53-6.55.99-13.19-.19-19.73.74-.06,2.86-.06,5.72.01,8.58,3.45.26,8.17-1.33,10.04,2.63-.2,5.07.25,10.15-.13,15.21-.6,1.34-1.75,2.75-3.37,2.53-5.67.07-11.35.11-17.01-.02-2.35.16-3.81-2.46-3.41-4.56.19-4.64-.41-9.36.36-13.95,2.11-3.16,6.4-2.03,9.62-2.31,0-2.9-.25-5.84.29-8.7,1-1.93,2.99-3.46,5.25-3.36,5.44-.26,10.89.19,16.34-.18-.03-3.01-.06-6.02-.44-9.01-3.07-.3-7.41,1.21-9.38-1.89-1.51-5.08-.09-10.41-.22-15.6-.13-1.51,1.36-2.28,2.22-3.25M754.78,200.74c-.06,4.3,0,8.6-.02,12.9,5.5.15,11.01.12,16.52-.03-.01-4.29-.03-8.58-.01-12.87-5.5-.04-11-.05-16.49,0M733.59,242.68c-.35,4.34-.18,8.7-.2,13.04,5.36-.08,10.73.09,16.08-.2-.35-4.2.49-8.53-.39-12.65-5.15-.42-10.33-.02-15.49-.19M776.62,243.29c.03,4.13.01,8.27-.02,12.41,5.35.06,10.71.05,16.06.05-.48-4.26.58-8.87-.55-12.92-5.17-.07-10.37-.29-15.49.46Z"/>
  </g>
  <g id="_x23_fdfdfdff">
    <path class="st165" d="M754.78,200.74c5.49-.05,10.99-.04,16.49,0-.02,4.29,0,8.58.01,12.87-5.51.15-11.02.18-16.52.03.03-4.3-.04-8.6.02-12.9Z"/>
    <path class="st165" d="M1538.04,514.13c1.95-1.04,3.75-2.43,5.9-3.07,6.95,4.53,14.74,7.42,22.85,9.08-.26,5.94.62,11.86-.01,17.79.62,7.34-2.61,14.29-6.65,20.2-4.03,5.66-10.05,9.41-16.21,12.36-9.06-3.52-17.12-10.42-20.73-19.58-4.35-9.77-2.37-20.71-2.58-31.05,6.1-.81,12.11-2.61,17.43-5.73M1548.74,535.79c-2.83,3.04-5.58,6.14-8.28,9.29-2.73-2.1-5.02-4.68-7.55-6.98-1.18,1.05-2.24,2.19-3.13,3.48,3.71,3.32,6.71,7.49,11.06,10.06,3.56-4.32,7.47-8.34,11.15-12.56,1.9-2.1,4.13-3.93,5.78-6.26.79-1.68-1.19-2.84-1.93-4.06-2.82,1.86-4.84,4.59-7.1,7.03Z"/>
  </g>
  <g id="_x23_4b1f87ff">
    <path class="st59" d="M1479.89,210.89c2.4-4.81,7.76-7.66,13.07-7.51,37.7-.07,75.39-.05,113.09-.01,7.2-.21,13.72,5.65,14.28,12.83l-1.79-.33c-1.23-5.81-6.23-10.87-12.44-10.52-37.71.06-75.42-.05-113.13-.01-6.82-.32-13.32,5.72-12.83,12.67.11,48.46-.2,96.93.15,145.38l-1.57.95c-.3-1.75-.44-3.54-.45-5.31-.06-25.49.04-50.97-.07-76.46l-1.14-.09c.21-.2.62-.6.83-.8.52-3.52.43-7.08.43-10.62-.02-16-.04-32-.06-48,.02-4.09-.36-8.43,1.63-12.17Z"/>
    <path class="st59" d="M1531.59,253.02c1.91-1.24,3.42-4.26,6.05-3.54,2.37,2.56-1.34,4.99-2.59,7.08-1.63-.77-4.07-1.15-3.46-3.54Z"/>
  </g>
  <g id="_x23_210878ff">
    <path class="st64" d="M1618.54,215.87l1.79.33c0,48.95.16,97.91-.05,146.86l-1.8-.46c.11-48.91.01-97.82.06-146.73Z"/>
  </g>
  <g id="_x23_754ea7ff">
    <path class="st76" d="M690.79,221.67c5.39,2.15,10.37,5.14,15.65,7.54-5.24,2.57-10.36,5.39-15.78,7.57-.07-2.34-.17-4.68-.27-7.01v-.03c-.46.06-1.4.17-1.86.23-2.46.29-4.98.5-7.39-.16.05-.36.14-1.06.19-1.41,2.43-.29,4.88-.21,7.33-.24h2.07c.01-2.17.03-4.33.06-6.49Z"/>
    <path class="st76" d="M633.96,248.05c.33-2.02-.81-5.23,1.63-6.19.23,3.22.82,6.57-.09,9.73-1.92.3-1.38-2.39-1.54-3.54Z"/>
    <path class="st76" d="M634.43,256.32c.29,0,.88.04,1.17.06.7,2.9.86,6.16.01,9.02-.34.18-1.02.53-1.36.7-.19-3.25-.55-6.57.18-9.78Z"/>
  </g>
  <g id="_x23_f9f7faff">
    <path class="st140" d="M1542.37,227.53c3.11-.24,6.25-.21,9.39-.08.13,2.57.55,5.59,3.88,5.32.29,1.19.59,2.38.92,3.57-6.31-.04-12.62.1-18.93.04.18-1.34.4-2.68.64-4.01,1.4-.23,2.85-.33,4.31-.55-.09-1.43-.16-2.86-.21-4.29Z"/>
  </g>
  <g id="_x23_551f9aff">
    <path class="st105" d="M636.33,228.36c1.8-.03,3.61,0,5.43-.03-.11.46-.33,1.4-.43,1.86-1.83.06-3.65.1-5.46.22-.48,2.28.94,5.74-1.05,7.27-1.51-2.97-.84-6.9,1.51-9.32Z"/>
  </g>
  <g id="_x23_4711a6ff">
    <path class="st100" d="M646.2,228.29c2.92-.02,5.86-.05,8.79.15-1.4,3.32-5.84,1.19-8.6,1.81-.05-.49-.14-1.47-.19-1.96Z"/>
  </g>
  <g id="_x23_531aa9ff">
    <path class="st97" d="M659.24,228.32c2.78-.01,5.57-.02,8.37,0-.02.48-.05,1.46-.06,1.94-2.69-.07-5.39-.09-8.07-.05-.06-.48-.18-1.42-.24-1.89Z"/>
  </g>
  <g id="_x23_5314caff">
    <path class="st30" d="M671.02,228.49c2.41-.14,5.14-.71,7.27.79-2.34.57-5.99,2.26-7.27-.79Z"/>
    <path class="st30" d="M615.36,523.79c2.7-.15,5.41-.02,8.12-.07.04.5.11,1.5.15,2-2.96,0-5.91,0-8.86,0,.15-.48.45-1.45.59-1.93Z"/>
    <path class="st30" d="M656.36,524.44c1.28-.33,2.88-.69,4.06.16.92,1.98,1.57,5.11-.83,6.3-.34-1.63-.34-3.29-.61-4.91-.85-.54-2.86-.06-2.62-1.55Z"/>
    <path class="st30" d="M659.42,534.03c2.31.57,1.69,3.13,1.81,4.96.16,1.57-.45,2.98-1.33,4.25-.87-2.99-.65-6.14-.48-9.21Z"/>
  </g>
  <g id="_x23_35549cff">
    <path class="st70" d="M688.53,229.97c.46-.06,1.4-.17,1.86-.23v.03c-.57,1.7-.98,3.46-.89,5.26.19,34.6-.07,69.2.1,103.8-.3-.02-.91-.04-1.22-.06.6-9.89.16-19.8.27-29.7-.07-26.37.12-52.73-.12-79.1Z"/>
    <path class="st70" d="M1158.61,399.97c3.04,2.05,5.28,5.01,7.86,7.59,5.98,6.16,12.08,12.2,17.92,18.5-8.27,8.84-16.79,17.49-25.68,25.7-.22-4.75-.07-9.51-.12-14.26-8.05.12-16.1-.16-24.14.18-.56-7.76-.08-15.54-.23-23.31,8.12.04,16.24.11,24.36.05.15-4.82-.02-9.64.03-14.45Z"/>
  </g>
  <g id="_x23_fbfafcff">
    <path class="st155" d="M1525.33,236.05c2.84-.33,5.72-.39,8.6-.29.28,1.85.79,4.08,3.04,4.39,6.34.4,12.71.18,19.07.2,2.74.33,4.02-2.55,4.69-4.7,2.86-.03,5.74.06,8.62.06-.07,17.2-.03,34.4-.07,51.6-1.34.69-2.87.58-4.28.61-13.22.06-26.49.68-39.69-.13.08-17.24,0-34.49.02-51.74M1531.59,253.02c-.61,2.39,1.83,2.77,3.46,3.54,1.25-2.09,4.96-4.52,2.59-7.08-2.63-.72-4.14,2.3-6.05,3.54M1543.36,251.63c-.1,1.03-.14,2.06-.13,3.09,6.53-.09,13.08.35,19.6-.23-.21-.65-.62-1.93-.83-2.57-6.16-.71-12.44.02-18.64-.29M1531.48,263.84c-.55,2.8,1.83,4.02,4.27,4.07.93-1.63,2.02-3.19,2.74-4.94.12-1.09-.36-1.64-1.44-1.64-1.8.99-3.59,2-5.57,2.51M1543.26,263.32c.05,1.07.13,2.15.24,3.23,6.03-.13,12.09.11,18.13-.15.26-.71.78-2.14,1.03-2.85-6.45-.54-12.94-.17-19.4-.23M1535.07,274.81c-1.25.29-2.48.6-3.69.91.02,2.28,1.85,3.38,3.8,4.12,1.96-1.93,5.61-5.53,1.82-7.68-.67.87-1.31,1.76-1.93,2.65M1543.16,274.87c.04.71.13,2.13.18,2.84,6.25,1.05,12.6-.32,18.91.17.03-.79.1-2.38.13-3.18-6.41.11-12.83-.21-19.22.17Z"/>
  </g>
  <g id="_x23_3b1476ff">
    <path class="st7" d="M1569.35,235.71c.34.2,1.03.61,1.37.81.36,3.61.11,7.27.84,10.86.91,4.22-.47,8.41-.72,12.62-.37,6.25-.34,12.55.78,18.73.01,2.88.26,6.73-2.34,8.58.04-17.2,0-34.4.07-51.6Z"/>
  </g>
  <g id="_x23_fcfcfdff">
    <path class="st114" d="M733.59,242.68c5.16.17,10.34-.23,15.49.19.88,4.12.04,8.45.39,12.65-5.35.29-10.72.12-16.08.2.02-4.34-.15-8.7.2-13.04Z"/>
  </g>
  <g id="_x23_fcfbfdff">
    <path class="st61" d="M776.62,243.29c5.12-.75,10.32-.53,15.49-.46,1.13,4.05.07,8.66.55,12.92-5.35,0-10.71,0-16.06-.05.03-4.14.05-8.28.02-12.41Z"/>
  </g>
  <g id="_x23_5b3a93ff">
    <path class="st99" d="M1543.36,251.63c6.2.31,12.48-.42,18.64.29.21.64.62,1.92.83,2.57-6.52.58-13.07.14-19.6.23-.01-1.03.03-2.06.13-3.09Z"/>
  </g>
  <g id="_x23_593590ff">
    <path class="st33" d="M1531.48,263.84c1.98-.51,3.77-1.52,5.57-2.51,1.08,0,1.56.55,1.44,1.64-.72,1.75-1.81,3.31-2.74,4.94-2.44-.05-4.82-1.27-4.27-4.07Z"/>
  </g>
  <g id="_x23_54288dff">
    <path class="st41" d="M1543.26,263.32c6.46.06,12.95-.31,19.4.23-.25.71-.77,2.14-1.03,2.85-6.04.26-12.1.02-18.13.15-.11-1.08-.19-2.16-.24-3.23Z"/>
  </g>
  <g id="_x23_8966b9ff">
    <path class="st43" d="M634.23,271.42c.42-.14,1.25-.41,1.67-.54.02,3.21.7,6.58-.24,9.71-.35.04-1.05.13-1.4.17-.44-3.09-.51-6.26-.03-9.34Z"/>
  </g>
  <g id="_x23_061e63ff">
    <path class="st39" d="M1461.58,273.37c5.36,2.91,10.92,5.42,16.31,8.31-.21.2-.62.6-.83.8-5.19,2.63-10.35,5.34-15.54,7.96-.04-2.38-.09-4.75-.1-7.12-4.75.04-9.88-.56-14.14,1.97-5.59,3.05-9.02,9.33-8.85,15.66-.04,27.36,0,54.71-.02,82.07.09,8.88-6.67,17.16-15.46,18.62l-.64-2.27c7.42-1.83,13.42-8.48,13.38-16.31.17-27.35-.02-54.7.1-82.06.01-6.24,2.53-12.8,7.86-16.38,5.12-3.74,11.65-4.24,17.79-3.98.02-2.43.08-4.85.14-7.27Z"/>
    <path class="st39" d="M41.46,775.1c-.67-7.26,6.4-14.05,13.57-13.48,164.35,0,328.7-.01,493.05.01,2.98-.08,6.37,1.05,8.2,3.45l.18.3c-2.62-1.58-5.25-3.55-8.49-3.2-164.32-.05-328.64,0-492.96-.02-5.43-.68-10.12,3.37-12.34,7.98-.84,3.21-.84,6.56-.92,9.86.03,16.01-.05,32.02,0,48.03.06,4.16.19,8.81,3.31,11.99,2.89,3.48,7.62,4.26,11.9,4.25,159.68-.01,319.37-.01,479.06.02,5.32-.12,10.78.49,15.97-.96,3.92-1.63,7.42-5.21,7.81-9.59.81-6.22.27-12.51.4-18.75.12-14.78-.18-29.57.17-44.35.59,11.76.06,23.57.26,35.35-.22,9.65.42,19.34-.41,28.97-1.56,5.25-6.67,9.62-12.29,9.52-7.28.36-14.58.06-21.86.15-154.04-.02-308.07-.01-462.11-.01-4.31-.03-8.66.19-12.94-.47-4.41-1.19-8.17-4.77-9.28-9.24-.69-5.96-.34-11.98-.44-17.96.13-13.95-.15-27.91.15-41.85Z"/>
  </g>
  <g id="_x23_5e388eff">
    <path class="st138" d="M1543.16,274.87c6.39-.38,12.81-.06,19.22-.17-.03.8-.1,2.39-.13,3.18-6.31-.49-12.66.88-18.91-.17-.05-.71-.14-2.13-.18-2.84Z"/>
    <path class="st138" d="M614.61,761.62c162.81-.18,325.62-.04,488.43-.08,7.24-.59,13.36,6.49,13.23,13.47.01,18.67-.02,37.35.02,56.02.32,6.85-5.75,13.59-12.72,13.47l1.17-.57c6.1-.69,11.54-6.72,10.87-12.98-.13-18.67-.07-37.35-.04-56.02.46-6.71-5.74-13.41-12.6-12.71-120,0-239.99,0-359.99,0-42.17-.05-84.33.13-126.5-.08-.47-.13-1.4-.39-1.87-.51Z"/>
  </g>
  <g id="_x23_754ab9ff">
    <path class="st77" d="M634.06,285.73c.43-.14,1.3-.41,1.73-.55.7,2.87.29,5.76-1.83,7.92-1.81-.49-6.22,1.31-5.21-1.92,1.63-.19,3.28-.27,4.92-.51.37-1.62.3-3.3.39-4.94Z"/>
  </g>
  <g id="_x23_6d35c3ff">
    <path class="st42" d="M559.37,291.3c2.61-.72,5.36-.26,8.04-.25-.11.48-.33,1.43-.43,1.91-2.48.25-4.97.15-7.45.21-.04-.47-.12-1.41-.16-1.87Z"/>
  </g>
  <g id="_x23_7037c9ff">
    <path class="st160" d="M572.01,291.07c2.72-.21,5.46-.16,8.18.11-.03.42-.09,1.25-.12,1.67-2.82.3-5.66.2-8.49.2.11-.49.32-1.49.43-1.98Z"/>
  </g>
  <g id="_x23_6f3dc6ff">
    <path class="st96" d="M585.78,291.02c3.03-.02,6.08-.19,9.1.15-.02.41-.05,1.23-.07,1.64-2.98.42-5.99.22-8.98.21-.01-.5-.04-1.5-.05-2Z"/>
  </g>
  <g id="_x23_7248c2ff">
    <path class="st65" d="M599.87,291.15c2.91-.12,5.82-.32,8.74-.55l.2.35c.33.51.99,1.54,1.32,2.05l-1.48.18-.58.07c-2.58,0-5.16-.05-7.71-.36-.12-.44-.37-1.31-.49-1.74Z"/>
  </g>
  <g id="_x23_6f3dc7ff">
    <path class="st82" d="M613.78,291.92c2.88-1.53,6.26-.98,9.39-.88.1.5.3,1.51.4,2.01-3.23-.3-7.01,1.01-9.79-1.13Z"/>
  </g>
  <g id="_x23_007484ff">
    <path class="st37" d="M608.07,293.25l.58-.07c.04,29.94.12,59.89-.04,89.84.3,5.7-.42,11.44.4,17.12-.84,15.6-.21,31.25-.4,46.87.18,25.62-.33,51.25.22,76.86-.37-.03-1.1-.1-1.47-.14.69-12.89.15-25.85.32-38.77-.02-27.88.04-55.76-.04-83.63-2.65.01-5.28.01-7.91.02-.05-.48-.15-1.44-.2-1.92,2.68-.05,5.36-.03,8.04.1-.02-3.84.44-7.67.54-11.51-.58-6.64-.7-13.32-.05-19.96.2-19.68-.04-39.37.07-59.06.02-5.24-1.19-10.57-.06-15.75Z"/>
  </g>
  <g id="_x23_9f4596ff">
    <path class="st31" d="M718.44,294.61c1.16-.37,2.36-.56,3.59-.58,120.99-.08,241.97.06,362.95-.03,4.41-.12,9.04,2.01,11.18,5.99,2.05,3.28,2.1,7.26,2.03,11-.03,22-.03,44-.02,66,.31,7.05-6.38,12.79-13.25,12.27-120.65.07-241.31-.01-361.97.04-6.82.55-13.38-5.34-13.15-12.27.04-23.66-.02-47.33.11-70.99-.11-5.19,3.63-9.95,8.53-11.43M718.28,296.43c-3.92,1.44-6.6,5.44-6.59,9.6-.11,22.33.05,44.67-.03,67,.01,3.03-.36,6.28,1.15,9.06,1.58,3.46,5.44,5.45,9.16,5.44,121.02.04,242.05.02,363.07.02,3.74.14,7.81-1.33,9.79-4.69,1.95-2.92,1.26-6.61,1.37-9.91-.02-22.32.04-44.64.04-66.96.35-6-5.45-10.64-11.19-10.18-120.02-.07-240.04.05-360.06-.04-2.25.03-4.56-.07-6.71.66Z"/>
    <path class="st31" d="M743.41,313.59c8.38-.44,16.85-.44,25.24-.11,5.38,4.14,9.85,9.42,14.75,14.13,1.39,1.54,3.46,3.01,3.17,5.36-.02,10-.12,20,.06,30.01-.12,2.11.33,4.68-1.46,6.26-1.22,1.65-3.39,1.47-5.2,1.53-11.68.02-23.36.16-35.03-.06-2.41.04-4.51-2.4-4.36-4.73-.03-15.67-.01-31.34-.01-47-.29-2.23,1.06-4.21,2.84-5.39M744.37,323.06c.16,14.77-.34,29.55.19,44.32,12.37-.27,24.75.13,37.12-.11.23-.11.71-.35.95-.46.31-10.27.15-20.56.1-30.84.32-4.22-3.21-7.15-5.92-9.83-3.42-3.01-6.27-6.6-9.74-9.55-7.36.26-14.73-.16-22.07.21-1.2,1.74-.37,4.23-.63,6.26Z"/>
  </g>
  <g id="_x23_fdfcfdff">
    <path class="st144" d="M744.37,323.06c.26-2.03-.57-4.52.63-6.26,7.34-.37,14.71.05,22.07-.21,3.47,2.95,6.32,6.54,9.74,9.55,2.71,2.68,6.24,5.61,5.92,9.83.05,10.28.21,20.57-.1,30.84-.24.11-.72.35-.95.46-12.37.24-24.75-.16-37.12.11-.53-14.77-.03-29.55-.19-44.32M765.92,330.97c2.45,4.59,8.48,2.24,12.65,2.61.02-.96.03-1.93.02-2.88-3,.04-6,0-8.99-.02-.64-3.05,1.18-7.83-2.59-9.18-2.7,2.24-1.21,6.41-1.09,9.47M753,345.79c7.48.1,14.97-.09,22.46-.13.02-.59.06-1.79.09-2.39-7.48-.97-15.07-.43-22.59-.43-1.8-.03-1.87,3.56.04,2.95M753.02,356.73c7.44.19,14.89.04,22.34.19.05-.8.13-2.4.18-3.2-7.5.1-15.01-.13-22.49.31-1.97-.49-1.72,3.22-.03,2.7Z"/>
  </g>
  <g id="_x23_a82f9dff">
    <path class="st66" d="M525.86,321.07c3.41-1.73,7.37-.65,11.04-.9-.08.54-.26,1.62-.35,2.16-3.53-.53-7.6.96-10.69-1.26Z"/>
  </g>
  <g id="_x23_aa2fa6ff">
    <path class="st162" d="M542.23,320.22c3,.01,6,0,9.02,0-.16.5-.46,1.49-.61,1.98-2.75.15-5.5.02-8.24.11-.04-.52-.13-1.56-.17-2.09Z"/>
  </g>
  <g id="_x23_a93ba5ff">
    <path class="st68" d="M556.21,320.28c2.9-.03,5.8-.04,8.7-.06-.05.52-.17,1.56-.22,2.08-2.69-.06-5.36-.06-8.04,0-.11-.5-.33-1.51-.44-2.01Z"/>
  </g>
  <g id="_x23_8d1a82ff">
    <path class="st139" d="M570.25,320.18c1.65.17,3.33.29,4.99.49-.26,2.5,1.13,5.67-.77,7.69-.21-2.09-.5-4.18-.98-6.23-.76.06-2.29.18-3.06.24-.04-.55-.14-1.64-.18-2.19Z"/>
  </g>
  <g id="_x23_a54b93ff">
    <path class="st142" d="M765.92,330.97c-.12-3.06-1.61-7.23,1.09-9.47,3.77,1.35,1.95,6.13,2.59,9.18,2.99.03,5.99.06,8.99.02,0,.95,0,1.92-.02,2.88-4.17-.37-10.2,1.98-12.65-2.61Z"/>
  </g>
  <g id="_x23_a64699ff">
    <path class="st56" d="M690.91,332.3c5.06,2.17,10.02,4.59,14.89,7.16-.23,1.12-1.68,1.21-2.44,1.82-4.18,1.94-8.13,4.39-12.48,5.97-.06-1.91-.11-3.82-.25-5.73l-1.22-.68c-.26-.16-.77-.48-1.03-.65.68-.18,1.37-.37,2.06-.57l.09-.76c.18-2.18.26-4.38.38-6.56Z"/>
  </g>
  <g id="_x23_a252a1ff">
    <path class="st104" d="M573.73,334.35c.44-.04,1.32-.11,1.76-.15-.01,2.85.03,5.71.12,8.56-.48-.02-1.44-.05-1.92-.07.08-2.78.1-5.56.04-8.34Z"/>
  </g>
  <g id="_x23_00004dff">
    <path class="st63" d="M1253.72,346.46c1.79-6.03,8-10.08,14.19-9.98,40.05.02,80.1-.03,120.14.04,7.57.1,14.71,6.75,14.49,14.49.06,16.17-.01,32.34.04,48.52,6.57-.04,13.16.19,19.73-.16l.64,2.27c-5.99.37-11.99.08-17.97.15-1.13-.11-3.05.38-2.42,2,.03,14.88-.05,29.76.08,44.63,6.3,0,12.62-.31,18.91.19-5.97,3.01-12.82.04-19.05,1.91.13,18.14.08,36.3.05,54.45-.01,7.71-6.91,14.37-14.57,14.36-39.65.04-79.3-.05-118.95.04-5.32.2-10.83-2.17-13.73-6.73-2.5-3.68-2.59-8.31-2.52-12.59.33-25.71-.37-51.44.35-77.14-.48-.06-1.42-.17-1.89-.23.46-.47.95-.92,1.47-1.36.39-19.43-.04-38.87.13-58.31.16-5.51-.62-11.16.88-16.55M1255.2,350.98c.05,51,0,102.01.03,153.02-.32,4.58,2.19,9.14,6.22,11.34,4.08,2.55,9.01,1.22,13.53,1.46,15.33.45,30.68-.39,46.02.32,13.3-.74,26.64.67,39.95-.21,6.99.38,14.01.39,21.01-.05,4.52-.15,9.69.71,13.47-2.44,3.66-2.51,5.08-7.11,4.88-11.38-.05-50.7.04-101.41-.02-152.11-.08-6.22-5.26-11.24-11.21-12.24-41.05.05-82.09,0-123.14.02-5.79,1.16-10.85,6.15-10.74,12.27Z"/>
  </g>
  <g id="_x23_950b8eff">
    <path class="st150" d="M643.66,338.75c1.33-.03,2.66-.06,4.01-.09.04.45.13,1.35.17,1.8-1.3.06-2.59.16-3.87.32-1.61,1.74.54,5.9-2.53,6.24-.03-1.91-.03-3.82-.04-5.72.74-.85,1.5-1.7,2.26-2.55Z"/>
  </g>
  <g id="_x23_9d109cff">
    <path class="st62" d="M652.76,338.65c2.63.02,5.28.03,7.93.01.02.48.06,1.45.08,1.93-2.79-.04-5.57-.05-8.35-.06.09-.47.25-1.41.34-1.88Z"/>
  </g>
  <g id="_x23_930c95ff">
    <path class="st125" d="M666.43,338.67c2.74.03,5.48-.09,8.23.1.12.45.36,1.35.48,1.79-2.95-.03-5.89-.04-8.83-.01.03-.47.09-1.41.12-1.88Z"/>
    <path class="st125" d="M612.51,369.91c2.56-.06,5.12-.18,7.69,0,.22.42.66,1.25.89,1.67-2.66.08-5.31.23-7.95.07-.16-.44-.47-1.31-.63-1.74Z"/>
  </g>
  <g id="_x23_91208dff">
    <path class="st88" d="M681.32,338.6c2.35.04,4.7.07,7.06.17.31.02.92.04,1.22.06l.93.03-.09.76c-.69.2-1.38.39-2.06.57-2.4.52-4.86.32-7.27.39.05-.5.16-1.48.21-1.98Z"/>
  </g>
  <g id="_x23_fefefeff">
    <path class="st151" d="M1255.2,350.98c-.11-6.12,4.95-11.11,10.74-12.27,41.05-.02,82.09.03,123.14-.02,5.95,1,11.13,6.02,11.21,12.24.06,50.7-.03,101.41.02,152.11.2,4.27-1.22,8.87-4.88,11.38-3.78,3.15-8.95,2.29-13.47,2.44-7,.44-14.02.43-21.01.05-13.31.88-26.65-.53-39.95.21-15.34-.71-30.69.13-46.02-.32-4.52-.24-9.45,1.09-13.53-1.46-4.03-2.2-6.54-6.76-6.22-11.34-.03-51.01.02-102.02-.03-153.02M1315.09,365.22c-6.52.93-13.14,2.52-18.77,6.07-3.23,2-6.01,5.76-4.73,9.73,2.06,3.52,5.96,5.39,9.57,6.96,9.51,3.41,19.75,4.74,29.84,4.28,9.73-.7,19.93-1.65,28.45-6.85,2.74-1.79,6.05-4.85,4.63-8.48-2.16-4.86-7.34-7.46-12.11-9.11-11.85-3.87-24.61-4.24-36.88-2.6M1291.33,385.91c.02,4.72-.03,9.43.05,14.15-.38,2.64,1.12,4.95,3.14,6.51,7.31,5.51,16.62,7.35,25.56,8.08,13.16.72,27.19.17,38.92-6.54,2.46-1.23,4.16-3.43,5.41-5.83-.18-5.49.01-10.98-.01-16.46-5.28,5.1-12.39,7.57-19.44,9.03-11.21,2.6-22.93,2.05-34.2.16-6.95-1.72-14.46-3.56-19.43-9.1M1291.39,408.83c.04,4.73-.12,9.46,0,14.2-.26,2.91,2.04,5.13,4.1,6.83-.94.83-1.86,1.67-2.77,2.52-.35-.3-1.06-.9-1.41-1.19.07,4.59.02,9.19.04,13.79-.46,2.91,1.24,5.51,3.52,7.16,6.75,4.66,15.06,6.44,23.11,7.25,12.93.92,26.38.57,38.44-4.71,3.24-1.64,6.85-3.79,7.89-7.53.17-5.28-.05-10.57.02-15.86-1.06.86-2.02,1.79-3.09,2.6-.39-1.34-.74-2.67-1.1-4,2.05-1.71,4.28-3.96,4.2-6.84.04-4.7-.13-9.4-.01-14.09-8.7,7.42-20.48,9.45-31.52,10.38l.5.2c-4.37-.16-8.74,0-13.1-.2l-.3-.35c-10.05-.9-20.92-3.06-28.52-10.16Z"/>
    <path class="st151" d="M736.75,671.84c2-1.79,4.8-1.35,7.27-1.44,15.13.21,30.27-.06,45.4.25.73,9.67-.3,19.35-.14,29.02-.75,1.19-1.48,2.98-3.23,2.69-14.36.14-28.73-.03-43.09.02-1.88,0-3.7-.4-5.51-.8-.16-9.92-1.25-19.82-.7-29.74Z"/>
  </g>
  <g id="_x23_a84694ff">
    <path class="st143" d="M753,345.79c-1.91.61-1.84-2.98-.04-2.95,7.52,0,15.11-.54,22.59.43-.03.6-.07,1.8-.09,2.39-7.49.04-14.98.23-22.46.13Z"/>
  </g>
  <g id="_x23_a954a2ff">
    <path class="st118" d="M573.71,349.35c.46-.04,1.38-.12,1.84-.16-.04,2.91-.02,5.83.05,8.74-.49-.04-1.45-.13-1.93-.18.11-2.8.13-5.6.04-8.4Z"/>
  </g>
  <g id="_x23_99179bff">
    <path class="st168" d="M641.41,351.25c.46.03,1.36.09,1.82.12-.04,2.77-.03,5.54.04,8.31-.47,0-1.42,0-1.89,0,.02-2.81.03-5.62.03-8.42Z"/>
  </g>
  <g id="_x23_ad509dff">
    <path class="st129" d="M753.02,356.73c-1.69.52-1.94-3.19.03-2.7,7.48-.44,14.99-.21,22.49-.31-.05.8-.13,2.4-.18,3.2-7.45-.15-14.9,0-22.34-.19Z"/>
  </g>
  <g id="_x23_dddddeff">
    <path class="st127" d="M528.43,360.1c1.4-.43,1.9.05,1.49,1.45-1.41.42-1.91-.06-1.49-1.45Z"/>
  </g>
  <g id="_x23_ae589fff">
    <path class="st27" d="M573.76,363.8c.44-.12,1.31-.36,1.75-.48.03,2.04.11,4.09.15,6.15,1.51.15,3.18.26,4.25,1.54-1.66.62-3.54,1.12-5.25.42-1.58-2.2-.67-5.12-.9-7.63Z"/>
  </g>
  <g id="_x23_3e208bff">
    <path class="st1" d="M1606.08,372.52c5.93.17,10.91-4.36,12.4-9.92l1.8.46c-1.44,6.54-7.63,11.48-14.34,11.38-35.97.12-71.95-.02-107.92.04-4.25.04-8.77.32-12.61-1.84-3.34-1.63-5.47-4.89-6.69-8.3l1.57-.95c1.74,5.38,6.93,9.37,12.67,9.16,37.7-.03,75.41.07,113.12-.03Z"/>
  </g>
  <g id="_x23_981c8eff">
    <path class="st83" d="M641.4,364.18c.48,0,1.45.02,1.93.02-.07,2.54.31,5.32-1.51,7.38-1.19-.02-2.38-.04-3.56-.04.11-.44.31-1.33.42-1.78.65-.1,1.96-.29,2.61-.39.03-1.74.07-3.46.11-5.19Z"/>
  </g>
  <g id="_x23_051b58ff">
    <path class="st124" d="M1315.09,365.22c12.27-1.64,25.03-1.27,36.88,2.6,4.77,1.65,9.95,4.25,12.11,9.11,1.42,3.63-1.89,6.69-4.63,8.48-8.52,5.2-18.72,6.15-28.45,6.85-10.09.46-20.33-.87-29.84-4.28-3.61-1.57-7.51-3.44-9.57-6.96-1.28-3.97,1.5-7.73,4.73-9.73,5.63-3.55,12.25-5.14,18.77-6.07Z"/>
  </g>
  <g id="_x23_942c84ff">
    <path class="st109" d="M584.77,369.83c2.61.02,5.21,0,7.82-.04.04.48.1,1.46.13,1.95-2.81-.02-5.62-.04-8.42-.08.12-.46.35-1.38.47-1.83Z"/>
  </g>
  <g id="_x23_981e8dff">
    <path class="st89" d="M626.23,369.73c2.49.05,4.98.04,7.47,0,.06.5.17,1.51.22,2.01-2.64-.07-5.27-.12-7.9-.14.05-.47.16-1.41.21-1.88Z"/>
  </g>
  <g id="_x23_a04797ff">
    <path class="st106" d="M598.09,369.96c2.9.36,6.98-1.36,8.94,1.4-2.91.34-5.84.39-8.75.4-.05-.45-.14-1.35-.19-1.8Z"/>
    <path class="st106" d="M709.56,804.94c1.22-.4,3.83-1.33,3.58,1.01-.91,12.45-13.89,22.75-26.23,19.92-5.48-.82-10.13-4.13-13.84-8.09-.12,2.25.12,8.55-3.68,5.87-.34-4.19.01-8.4-.06-12.59,3.53-.56,7.13-.57,10.69-.26,1.4-.27,2.1,1.53,1.52,2.59-1.63,1.23-3.77.82-5.66,1.03.8,2.89,3.67,4.33,6.04,5.79,6.72,3.97,16.06,2.9,21.62-2.61,3.45-3.33,5.37-7.97,6.02-12.66Z"/>
  </g>
  <g id="_x23_00748aff">
    <path class="st95" d="M559.47,399.51c2.6.16,5.47-.68,7.9.49-1.2,2.8-5.25.8-7.68,1.38-.06-.47-.16-1.41-.22-1.87Z"/>
  </g>
  <g id="_x23_0d8799ff">
    <path class="st47" d="M571.19,399.91c2.94-.67,5.98-.49,8.98-.48-.13.47-.4,1.39-.53,1.85-2.76-.28-6.58,1.32-8.45-1.37Z"/>
  </g>
  <g id="_x23_058394ff">
    <path class="st136" d="M585.45,399.48c3-.04,6.01-.05,9.02,0-.06.45-.17,1.35-.22,1.8-2.85.02-5.69.03-8.53.04-.07-.47-.2-1.39-.27-1.85Z"/>
  </g>
  <g id="_x23_008e96ff">
    <path class="st130" d="M614.06,399.51c2.59-.16,5.18-.05,7.78-.08-.03.49-.09,1.47-.11,1.95-2.67-.03-5.34.07-7.98-.24.08-.41.23-1.22.31-1.63Z"/>
  </g>
  <g id="_x23_018d99ff">
    <path class="st154" d="M627.15,399.43c2.54.05,5.09.05,7.65.02-.03.48-.09,1.46-.12,1.94-2.5-.04-4.99-.05-7.48-.02-.01-.48-.04-1.46-.05-1.94Z"/>
  </g>
  <g id="_x23_05979dff">
    <path class="st69" d="M639.44,399.53c1.02.02,2.04.03,3.08.03.93,2.44.76,5.06.05,7.54-1.7-1.89.1-5.89-3.29-5.88.04-.42.12-1.27.16-1.69Z"/>
    <path class="st69" d="M641.51,412.28c.31-.3.92-.89,1.23-1.19.5,3.06.53,6.18.18,9.26-2.76-1.54-.82-5.5-1.41-8.07Z"/>
    <path class="st69" d="M641.53,425.28c.41.13,1.21.4,1.61.53-.01,2.83,0,5.67-.1,8.51-.36-.22-1.09-.66-1.45-.88-.2-2.72-.03-5.45-.06-8.16Z"/>
    <path class="st69" d="M652.2,444.31c2.85,0,5.71,0,8.57.01-.04.47-.11,1.42-.15,1.9-2.77-.05-5.53-.05-8.29,0-.04-.48-.1-1.43-.13-1.91Z"/>
    <path class="st69" d="M666.05,444.28c3.01-.05,6.02-.04,9.04.02-.12.4-.37,1.22-.49,1.63-2.71.38-5.49.37-8.19-.02-.09-.41-.27-1.22-.36-1.63Z"/>
  </g>
  <g id="_x23_051c58ff">
    <path class="st152" d="M1291.39,408.83c7.6,7.1,18.47,9.26,28.52,10.16l.3.35c.28.32.85.94,1.13,1.26,4.82,1.01,9.85.28,14.74.04-.94-.37-1.86-.74-2.77-1.1l-.5-.2c11.04-.93,22.82-2.96,31.52-10.38-.12,4.69.05,9.39.01,14.09.08,2.88-2.15,5.13-4.2,6.84-7.65,5.2-17.12,6.74-26.14,7.6-13.08.58-27.25-.27-38.51-7.63-2.06-1.7-4.36-3.92-4.1-6.83-.12-4.74.04-9.47,0-14.2Z"/>
  </g>
  <g id="_x23_000641ff">
    <path class="st87" d="M1320.21,419.34c4.36.2,8.73.04,13.1.2.91.36,1.83.73,2.77,1.1-4.89.24-9.92.97-14.74-.04-.28-.32-.85-.94-1.13-1.26Z"/>
  </g>
  <g id="_x23_066a7aff">
    <path class="st55" d="M758.22,424.17c15.48-3.47,31.86,8.55,34.46,23.94,3.18,14.06-5.56,29.44-19.06,34.29-9.15,3.82-19.95,1.6-27.74-4.23-10.43-7.93-14.58-22.78-9.8-34.97,3.54-9.57,12.22-16.84,22.14-19.03M753.35,441.56c2.8.27,5.62.54,8.45.59-.39-4.79,1.05-9.61-.02-14.35-4.75,3.05-6.72,8.66-8.43,13.76M765.37,427.76c.07,4.86-.07,9.72.17,14.58,2.85-.25,5.7-.52,8.57-.65-1.56-5.25-3.69-11.1-8.74-13.93M741.95,440.61c2.54.07,5.12.44,7.67.11,1.54-3.73,3.01-7.52,5.22-10.94-5.93,1.02-9.9,6.02-12.89,10.83M772.83,429.53c2.14,3.66,3.88,7.53,5.11,11.59,2.61-.33,5.24-.47,7.87-.46-3.13-4.86-7.34-9.31-12.98-11.13M739.82,463.98c2.99-.26,6-.51,9-.81-.67-6.25-.66-12.55-.06-18.8-2.73-.09-5.44-.23-8.11-.77-3.81,6.1-3.33,13.88-.83,20.38M778.51,444.51c.85,6.21.94,12.47.15,18.69,2.82.25,5.61.78,8.44,1.08,3.25-6.35,2.89-14.03.16-20.5-2.91.34-5.83.58-8.75.73M752.62,445.17c-.19,2.28-.49,4.56-.79,6.83-.55,3.59.71,7.11.93,10.68,2.72-.17,5.44-.32,8.17-.52,1.01-.64,2.02-2.56,3.4-1.55,2.95,2.2,6.75,1.73,10.21,2.2,1.65-5.75,1.22-11.82.3-17.65-2.58.12-5.17.18-7.72.53-4.8,1.33-9.63-.7-14.5-.52M765.45,465.41c-.07,4.9-.27,9.8-.01,14.69,4.81-2.93,7.15-8.36,8.58-13.58-2.85-.49-5.7-.88-8.57-1.11M753.34,466.56c1.64,5.04,4.18,9.82,8.09,13.48,1.74-4.58.35-9.69.78-14.49-2.99.02-6.05-.12-8.87,1.01M777.89,466.62c-1.16,4.01-2.72,7.89-4.95,11.44,5.55-1.53,9.52-6.01,12.8-10.48-2.62-.36-5.22-.74-7.85-.96M741.88,467.53c2.87,5.39,7.84,9.56,13.73,11.24-3.09-3.57-4.53-8.09-6.19-12.41-2.52.41-5.03.83-7.54,1.17Z"/>
  </g>
  <g id="_x23_f9fcfcff">
    <path class="st84" d="M753.35,441.56c1.71-5.1,3.68-10.71,8.43-13.76,1.07,4.74-.37,9.56.02,14.35-2.83-.05-5.65-.32-8.45-.59Z"/>
  </g>
  <g id="_x23_fafcfcff">
    <path class="st121" d="M765.37,427.76c5.05,2.83,7.18,8.68,8.74,13.93-2.87.13-5.72.4-8.57.65-.24-4.86-.1-9.72-.17-14.58Z"/>
  </g>
  <g id="_x23_f6f8f9ff">
    <path class="st110" d="M741.95,440.61c2.99-4.81,6.96-9.81,12.89-10.83-2.21,3.42-3.68,7.21-5.22,10.94-2.55.33-5.13-.04-7.67-.11Z"/>
  </g>
  <g id="_x23_f0f5f7ff">
    <path class="st141" d="M772.83,429.53c5.64,1.82,9.85,6.27,12.98,11.13-2.63-.01-5.26.13-7.87.46-1.23-4.06-2.97-7.93-5.11-11.59Z"/>
  </g>
  <g id="_x23_f6f7f8ff">
    <path class="st135" d="M1295.49,429.86c11.26,7.36,25.43,8.21,38.51,7.63,9.02-.86,18.49-2.4,26.14-7.6.36,1.33.71,2.66,1.1,4-7.05,5.07-15.9,6.53-24.31,7.64-9.45,1.28-19.07.4-28.32-1.73-5.73-1.34-11.41-3.52-15.89-7.42.91-.85,1.83-1.69,2.77-2.52Z"/>
  </g>
  <g id="_x23_051c5aff">
    <path class="st8" d="M1291.31,431.19c.35.29,1.06.89,1.41,1.19,4.48,3.9,10.16,6.08,15.89,7.42,9.25,2.13,18.87,3.01,28.32,1.73,8.41-1.11,17.26-2.57,24.31-7.64,1.07-.81,2.03-1.74,3.09-2.6-.07,5.29.15,10.58-.02,15.86-1.04,3.74-4.65,5.89-7.89,7.53-12.06,5.28-25.51,5.63-38.44,4.71-8.05-.81-16.36-2.59-23.11-7.25-2.28-1.65-3.98-4.25-3.52-7.16-.02-4.6.03-9.2-.04-13.79Z"/>
  </g>
  <g id="_x23_178a94ff">
    <path class="st153" d="M641.59,439.03c2.43.31,1.38,3.37,1.84,5.02,1.7.22,4.26-.44,4.11,2.2-1.98-.07-3.94-.32-5.83-.88-.03-2.11-.1-4.23-.12-6.34Z"/>
  </g>
  <g id="_x23_f9fbfbff">
    <path class="st111" d="M739.82,463.98c-2.5-6.5-2.98-14.28.83-20.38,2.67.54,5.38.68,8.11.77-.6,6.25-.61,12.55.06,18.8-3,.3-6.01.55-9,.81Z"/>
  </g>
  <g id="_x23_f7fafaff">
    <path class="st46" d="M778.51,444.51c2.92-.15,5.84-.39,8.75-.73,2.73,6.47,3.09,14.15-.16,20.5-2.83-.3-5.62-.83-8.44-1.08.79-6.22.7-12.48-.15-18.69Z"/>
  </g>
  <g id="_x23_fcfdfdff">
    <path class="st163" d="M752.62,445.17c4.87-.18,9.7,1.85,14.5.52,2.55-.35,5.14-.41,7.72-.53.92,5.83,1.35,11.9-.3,17.65-3.46-.47-7.26,0-10.21-2.2-1.38-1.01-2.39.91-3.4,1.55-2.73.2-5.45.35-8.17.52-.22-3.57-1.48-7.09-.93-10.68.3-2.27.6-4.55.79-6.83Z"/>
  </g>
  <g id="_x23_8559b1ff">
    <path class="st5" d="M688.49,446.17c.32,0,.97-.01,1.29-.01-.16,35.35-.1,70.7-.06,106.05l1.65.1c-.02-2.18,0-4.35,0-6.52,4.17,1.55,8.04,3.8,12.06,5.7.87.55,2.25.81,2.5,2.01-4.72,2.57-9.62,4.78-14.4,7.22-.49-2.21.88-5.65-1.74-6.69-.34,0-1.01.03-1.35.05-2.52.02-5.57,1-7.53-1.14,2.4-1.14,5.08-.69,7.64-.69.04-35.36.07-70.72-.06-106.08Z"/>
  </g>
  <g id="_x23_051c5fff">
    <path class="st102" d="M1421.55,448.61c9.08,1.11,16.71,9.2,16.82,18.43.15,24.64-.05,49.28.03,73.92.08,5.84,3.52,11.49,8.76,14.13,4.34,2.49,9.5,2.19,14.33,2.15.02-2.39.04-4.78.1-7.16,5.46,2.74,11.09,5.19,16.39,8.28l-.2.15c-5.3,3.09-10.73,5.98-16.3,8.52-.04-2.45-.06-4.89-.07-7.33-5-.18-10.31.42-14.9-1.99-6.77-3.05-10.76-10.47-10.72-17.75-.08-23.99.06-48-.06-71.99-.01-7.83-5.82-15.43-13.72-16.57-6.49-.67-13.05.22-19.51-.88,6.23-1.87,13.08,1.1,19.05-1.91Z"/>
  </g>
  <g id="_x23_f8fbfbff">
    <path class="st94" d="M765.45,465.41c2.87.23,5.72.62,8.57,1.11-1.43,5.22-3.77,10.65-8.58,13.58-.26-4.89-.06-9.79.01-14.69Z"/>
  </g>
  <g id="_x23_fafbfbff">
    <path class="st80" d="M753.34,466.56c2.82-1.13,5.88-.99,8.87-1.01-.43,4.8.96,9.91-.78,14.49-3.91-3.66-6.45-8.44-8.09-13.48Z"/>
  </g>
  <g id="_x23_f6f9faff">
    <path class="st119" d="M777.89,466.62c2.63.22,5.23.6,7.85.96-3.28,4.47-7.25,8.95-12.8,10.48,2.23-3.55,3.79-7.43,4.95-11.44Z"/>
  </g>
  <g id="_x23_fbfbfcff">
    <path class="st148" d="M741.88,467.53c2.51-.34,5.02-.76,7.54-1.17,1.66,4.32,3.1,8.84,6.19,12.41-5.89-1.68-10.86-5.85-13.73-11.24Z"/>
  </g>
  <g id="_x23_6aafbdff">
    <path class="st93" d="M1197.1,466.86l.98-.48c.2.4.6,1.21.8,1.61.17,52.33.01,104.67.09,157-.18,34.96.17,69.91-.07,104.86-.44.35-1.33,1.05-1.78,1.4-.68-10.39-.08-20.82-.28-31.23-.02-58.68,0-117.37,0-176.05.16-19.04-.35-38.1.26-57.11Z"/>
  </g>
  <g id="_x23_0c5e70ff">
    <path class="st134" d="M1606.94,486.85c4.46.65,8.97,2.82,11.31,6.84,2.26,3.67,2.19,8.13,2.14,12.29-.14,44.43.25,88.87-.14,133.3l-1.71-.9c-.06-45.79-.01-91.59-.02-137.38.01-5.91-4.47-11.29-10.31-12.27-.32-.47-.95-1.41-1.27-1.88Z"/>
  </g>
  <g id="_x23_fffeffff">
    <path class="st107" d="M1480.09,502.03c-.87-7.69,6.47-14.1,13.9-13.44,38.07.15,76.15-.16,114.22.14,5.84.98,10.32,6.36,10.31,12.27.01,45.79-.04,91.59.02,137.38-.81,3.37-2.5,6.7-5.54,8.56-2.92,2.04-6.61,1.91-9.99,1.92-37.01-.08-74.02.05-111.03-.05-6.24.06-11.97-5.47-11.83-11.76-.12-45.01.01-90.02-.06-135.02M1542.5,506.71c-6,3.85-12.52,7.04-19.56,8.42-2.17.56-5,.49-6.21,2.75-.48,4-.12,8.06-.24,12.09.14,5.67-.65,11.48,1,17.01,3.1,12.79,13.19,23.44,25.62,27.61,1.76.35,3.38-.83,4.97-1.47,10.28-4.86,18.49-14.07,21.73-25,2.41-8.18,1-16.77,1.49-25.15-.03-2.33.55-6-2.38-6.77-5.49-1.13-10.98-2.46-15.97-5.08-3.21-1.34-5.84-3.81-9.11-4.96-.33.14-1.01.41-1.34.55Z"/>
  </g>
  <g id="_x23_076675ff">
    <path class="st35" d="M1542.5,506.71c.33-.14,1.01-.41,1.34-.55,3.27,1.15,5.9,3.62,9.11,4.96,4.99,2.62,10.48,3.95,15.97,5.08,2.93.77,2.35,4.44,2.38,6.77-.49,8.38.92,16.97-1.49,25.15-3.24,10.93-11.45,20.14-21.73,25-1.59.64-3.21,1.82-4.97,1.47-12.43-4.17-22.52-14.82-25.62-27.61-1.65-5.53-.86-11.34-1-17.01.12-4.03-.24-8.09.24-12.09,1.21-2.26,4.04-2.19,6.21-2.75,7.04-1.38,13.56-4.57,19.56-8.42M1538.04,514.13c-5.32,3.12-11.33,4.92-17.43,5.73.21,10.34-1.77,21.28,2.58,31.05,3.61,9.16,11.67,16.06,20.73,19.58,6.16-2.95,12.18-6.7,16.21-12.36,4.04-5.91,7.27-12.86,6.65-20.2.63-5.93-.25-11.85.01-17.79-8.11-1.66-15.9-4.55-22.85-9.08-2.15.64-3.95,2.03-5.9,3.07Z"/>
  </g>
  <g id="_x23_c9651eff">
    <path class="st72" d="M719.42,519.52c12.16-.65,24.4-.11,36.59-.25,107.33-.01,214.66-.02,321.99,0,5.32.09,11.44-.9,15.82,2.9,4.02,3.34,4.46,8.94,4.34,13.8.02,22-.07,43.99,0,65.99.25,6.96-6.31,13.08-13.21,12.54-121.33-.07-242.66-.03-363.98-.01-6.3-.33-11.49-6.2-11.15-12.49.04-23.32-.01-46.65.07-69.96-.19-5.76,3.85-11.3,9.53-12.52M719.22,521.24c-4.42,1-7.75,5.32-7.65,9.84.02,23.97-.02,47.95.02,71.92-.08,5.06,4.37,9.66,9.43,9.72,52.99.23,106-.05,159,.12,6.98.5,13.96-.33,20.95-.09,13.98.24,27.99-.44,41.95.47,16.01-.87,32.07-.29,48.11-.44,30-.04,60,.06,90-.03,2.53-.03,5.08.12,7.6-.24,4.32-.92,7.78-5.04,7.66-9.51.11-24-.03-48,.06-72,.26-6-5.54-10.76-11.33-10.28-120.02-.03-240.04-.09-360.06-.03-1.93.03-3.88.04-5.74.55Z"/>
    <path class="st72" d="M760,572.07c4.97-4.61,9.08-10.08,14.02-14.72,1.71-.4,2.34,1.76,3.46,2.62-5.76,6.34-11.24,12.98-17.39,18.96-3.32-3.27-7.06-6.19-9.9-9.89.16-1.57,1.7-2.21,2.75-3.13,2.3,2.1,4.47,4.38,7.06,6.16Z"/>
  </g>
  <g id="_x23_581eceff">
    <path class="st38" d="M559.32,523.72c2.43.05,4.87.07,7.31.04.03.5.1,1.49.14,1.99-2.55-.03-5.09-.03-7.63-.02.05-.5.14-1.51.18-2.01Z"/>
  </g>
  <g id="_x23_652fd3ff">
    <path class="st40" d="M571.81,523.81c3.04.33,6.84-1.24,9.23,1.3-3.1.92-6.36.6-9.54.54.08-.46.24-1.38.31-1.84Z"/>
  </g>
  <g id="_x23_5515caff">
    <path class="st71" d="M584.88,525.11c2.39-2.59,6.24-1.01,9.32-1.35.11.46.32,1.38.43,1.84-3.25.11-6.61.58-9.75-.49Z"/>
  </g>
  <g id="_x23_642bc4ff">
    <path class="st161" d="M600.27,523.93c2.34-.33,4.73-.12,7.09-.2.37.04,1.1.11,1.47.14h.83c-.23.5-.7,1.5-.94,2l-.26.61c-2.72-1.1-5.66-.78-8.5-.72.08-.45.23-1.37.31-1.83Z"/>
  </g>
  <g id="_x23_6224ccff">
    <path class="st57" d="M629.31,523.72c2.8.1,5.62.11,8.43,0,.07.5.21,1.49.29,1.99-2.96,0-5.91.03-8.85.08.03-.52.1-1.55.13-2.07Z"/>
  </g>
  <g id="_x23_5e23c5ff">
    <path class="st74" d="M643.83,523.81c2.61.02,5.22,0,7.85-.1.03.5.11,1.49.14,1.99-2.82.02-5.65.02-8.46-.03.11-.47.35-1.4.47-1.86Z"/>
  </g>
  <g id="_x23_0035baff">
    <path class="st123" d="M608.46,526.48l.26-.61c.04,69.06-.13,138.12-.19,207.17.05,1.55-.55,2.99-1.25,4.35.15-2.49.44-4.96.45-7.44-.02-25.53-.07-51.05-.05-76.57-2.77.05-5.53.04-8.29.06,0-.49-.02-1.46-.02-1.94,2.75-.01,5.51-.02,8.28.05.69-15.83.4-31.69.49-47.55,0-24.35.01-48.71,0-73.06.06-1.49-.16-3.03.32-4.46Z"/>
  </g>
  <g id="_x23_0f5d69ff">
    <path class="st137" d="M1548.74,535.79c2.26-2.44,4.28-5.17,7.1-7.03.74,1.22,2.72,2.38,1.93,4.06-1.65,2.33-3.88,4.16-5.78,6.26-1.1-1.1-2.19-2.2-3.25-3.29Z"/>
  </g>
  <g id="_x23_cb621cff">
    <path class="st36" d="M761.72,535.79c1.81-1.32,3.67.35,5.25,1.22,6.43,4.03,13.7,6.57,21.17,7.78.37.52,1.09,1.57,1.45,2.09-.39,8.42.84,16.95-.64,25.3-2.16,12.5-11.41,23.17-23.04,27.93-1.2.43-2.53,1-3.81.54-11.19-3.95-20.29-13.32-23.66-24.73-2.89-8.71-1.23-17.96-1.71-26.93-.37-2.19,1-4.59,3.38-4.65,7.76-1.16,14.95-4.52,21.61-8.55M740.68,548.54c.03,5.83-.03,11.67.03,17.5.42,12.25,8.05,23.74,18.89,29.31,1.49.66,3.2,1.95,4.86.99,8.15-3.58,15.27-10.09,18.55-18.47,4.31-9.2,1.86-19.56,2.52-29.32-7.86-1.82-15.57-4.57-22.35-9-6.82,4.45-14.58,7.23-22.5,8.99Z"/>
  </g>
  <g id="_x23_0b6d7dff">
    <path class="st34" d="M1540.46,545.08c2.7-3.15,5.45-6.25,8.28-9.29,1.06,1.09,2.15,2.19,3.25,3.29-3.68,4.22-7.59,8.24-11.15,12.56-4.35-2.57-7.35-6.74-11.06-10.06.89-1.29,1.95-2.43,3.13-3.48,2.53,2.3,4.82,4.88,7.55,6.98Z"/>
  </g>
  <g id="_x23_fefdfdff">
    <path class="st115" d="M740.68,548.54c7.92-1.76,15.68-4.54,22.5-8.99,6.78,4.43,14.49,7.18,22.35,9-.66,9.76,1.79,20.12-2.52,29.32-3.28,8.38-10.4,14.89-18.55,18.47-1.66.96-3.37-.33-4.86-.99-10.84-5.57-18.47-17.06-18.89-29.31-.06-5.83,0-11.67-.03-17.5M760,572.07c-2.59-1.78-4.76-4.06-7.06-6.16-1.05.92-2.59,1.56-2.75,3.13,2.84,3.7,6.58,6.62,9.9,9.89,6.15-5.98,11.63-12.62,17.39-18.96-1.12-.86-1.75-3.02-3.46-2.62-4.94,4.64-9.05,10.11-14.02,14.72Z"/>
  </g>
  <g id="_x23_6210b4ff">
    <path class="st78" d="M659.45,546.36c.44.09,1.33.25,1.77.33.03,1.67.05,3.33.11,5.02.72.04,2.15.13,2.87.17.12.49.38,1.48.51,1.98-1.72-.24-3.97.27-5.06-1.44-.54-1.97-.2-4.05-.2-6.06Z"/>
  </g>
  <g id="_x23_da874dff">
    <path class="st164" d="M571.58,549.92c2.64-.24,5.31-.09,7.96-.14.07.54.21,1.6.28,2.14-2.93.2-5.87.21-8.79-.07.14-.48.41-1.44.55-1.93Z"/>
  </g>
  <g id="_x23_da753bff">
    <path class="st90" d="M584.32,550.97c2.15-2.43,5.98-.68,8.85-1.15.09.52.26,1.56.35,2.08-2.96-.1-7.03,1.6-9.2-.93Z"/>
  </g>
  <g id="_x23_e18c51ff">
    <path class="st73" d="M558.59,551.01c.82-2.06,3.72-1.04,5.47-1.29,1.63-.36,2.59.59,3.1,2.03-2.75-.08-6.44,1.34-8.57-.74Z"/>
  </g>
  <g id="_x23_da844cff">
    <path class="st79" d="M597.99,550.12c2.75-.05,7.9-1.87,8.58,2-2.86.03-5.73.13-8.58-.12v-1.88Z"/>
  </g>
  <g id="_x23_d98b5aff">
    <path class="st29" d="M611.47,552c.88-3.47,5.53-1.98,8.17-1.89.12.46.37,1.39.49,1.85-2.89.11-5.78.12-8.66.04Z"/>
  </g>
  <g id="_x23_cd6632ff">
    <path class="st133" d="M624.58,550.31c1.21.38,2.79.38,3.48,1.69.38,1.72.21,3.52.27,5.28-.39.09-1.18.27-1.57.36-.26-2.04.5-5.14-2.32-5.48.03-.46.1-1.39.14-1.85Z"/>
  </g>
  <g id="_x23_5a22b3ff">
    <path class="st2" d="M669.23,552.32c2.53,0,5.06.01,7.6,0-.07.5-.21,1.49-.29,1.99-2.39-.04-4.77-.04-7.15,0-.04-.5-.12-1.49-.16-1.99Z"/>
  </g>
  <g id="_x23_c65116ff">
    <path class="st50" d="M626.57,561.47c.44-.02,1.33-.08,1.77-.11-.04,2.4-.06,4.8-.08,7.21-.41,0-1.23.01-1.64.02-.03-2.38-.05-4.75-.05-7.12Z"/>
  </g>
  <g id="_x23_d47c47ff">
    <path class="st0" d="M691.44,569.03c5.11,2.22,10.08,4.74,15,7.37-4.86,2.75-9.82,5.39-15.03,7.4-.23-2.15-.26-4.31-.32-6.46l-1.58.03c-.22,0-.67.01-.9.01-2.68-.02-5.39.33-8.04-.13l-.06-1.35c2.59-.79,5.34-.25,8.01-.28.28.01.85.01,1.13.02l1.28-.02c.27-2.19.37-4.4.51-6.59Z"/>
  </g>
  <g id="_x23_d7692eff">
    <path class="st75" d="M626.99,571.82c1.12.87,1.62,2.17,2.03,3.5,1.22.05,2.45.11,3.69.16-.01.48-.03,1.43-.04,1.91-1.94-.34-4.68.75-5.8-1.39-.51-1.35.01-2.81.12-4.18Z"/>
  </g>
  <g id="_x23_d26319ff">
    <path class="st122" d="M637.8,575.54c2.93.06,5.86.07,8.79.04-.06.44-.17,1.31-.23,1.75-2.72-.01-5.44.12-8.15-.02-.1-.45-.31-1.33-.41-1.77Z"/>
  </g>
  <g id="_x23_d46b2cff">
    <path class="st60" d="M652.21,575.55c2.82.11,5.65.12,8.48.03-.04.45-.12,1.34-.15,1.79-2.79-.08-5.57-.09-8.34,0,0-.45.01-1.37.01-1.82Z"/>
  </g>
  <g id="_x23_cd5617ff">
    <path class="st113" d="M666.24,575.55c2.83.04,5.67.04,8.51,0-.01.46-.04,1.39-.05,1.86-2.8-.07-5.6-.07-8.4.01-.01-.47-.04-1.4-.06-1.87Z"/>
  </g>
  <g id="_x23_0427bdff">
    <path class="st112" d="M559.22,651.49c2.48.03,4.96.04,7.44.02,0,.47-.03,1.4-.04,1.87-2.45-.01-4.89,0-7.33.05,0-.49-.05-1.46-.07-1.94Z"/>
  </g>
  <g id="_x23_103ac4ff">
    <path class="st54" d="M571.46,651.48c2.8.03,5.6.03,8.41-.03-.02.5-.07,1.5-.1,2-2.7-.09-5.41-.1-8.11-.05-.05-.48-.15-1.44-.2-1.92Z"/>
  </g>
  <g id="_x23_0c36bbff">
    <path class="st58" d="M585.32,651.48c2.79.05,5.59.03,8.4-.04.01.5.02,1.51.03,2.02-2.83-.07-5.66-.09-8.48-.07.02-.48.04-1.44.05-1.91Z"/>
  </g>
  <g id="_x23_0e3cc0ff">
    <path class="st128" d="M613.26,651.51c2.9.02,5.83-.07,8.71.4-2.01,2.71-5.81.97-8.65,1.46-.01-.47-.04-1.4-.06-1.86Z"/>
  </g>
  <g id="_x23_103fbeff">
    <path class="st51" d="M626.08,651.91c2.83-.59,5.73-.45,8.6-.43-.07.47-.2,1.42-.27,1.89-2.75-.39-6.47,1.25-8.33-1.46Z"/>
  </g>
  <g id="_x23_1450c1ff">
    <path class="st52" d="M638.31,652.94c.87-1.91,3.87-1.71,4.73.09.25,1.81.18,3.63.21,5.46-2.64.1-1.68-3.02-2.15-4.58-.7-.24-2.09-.72-2.79-.97Z"/>
    <path class="st52" d="M691.27,674.66c4.97,1.93,9.64,4.52,14.38,6.93.05.21.14.61.19.81-4.75,2.49-9.66,4.65-14.34,7.26-.18-2.32-.05-4.65-.29-6.95l-1.15-.03c-.44,0-1.33.01-1.78.01-2.85-.14-5.97.84-8.56-.76,2.78-1.3,5.9-.68,8.86-.67.25.01.75.03,1.01.04l1.66.06c-.02-2.24.02-4.47.02-6.7Z"/>
  </g>
  <g id="_x23_f8f9fcff">
    <path class="st32" d="M737.57,656.44c5.62-.29,11.32-.52,16.93.04,1.66,1.76,2.59,4.07,4.18,5.9,1.3.7,2.87.56,4.32.71,7.9.24,15.81-.21,23.71.21.06,1.26.11,2.53.16,3.8-16.45,0-32.9-.12-49.35.23-.08-3.63-.1-7.26.05-10.89Z"/>
  </g>
  <g id="_x23_0439b4ff">
    <path class="st149" d="M641.41,663.14c.32-.17.96-.5,1.28-.66,1.12,2.49.31,5.39.54,8.06-.48.04-1.44.14-1.92.18-.02-2.53-.18-5.07.1-7.58Z"/>
  </g>
  <g id="_x23_1252beff">
    <path class="st131" d="M733.4,677.57c1.34-1.78,2.39-3.74,3.35-5.73-.55,9.92.54,19.82.7,29.74,1.81.4,3.63.8,5.51.8,14.36-.05,28.73.12,43.09-.02,1.75.29,2.48-1.5,3.23-2.69,1.02.58,2.06,1.19,3.1,1.78-.89,2.21-2.67,4.47-5.31,4.24-15.71.08-31.42.01-47.12.07-3.63.35-6.68-3.3-6.32-6.76.06-7.15-.45-14.29-.23-21.43Z"/>
  </g>
  <g id="_x23_0d3fb7ff">
    <path class="st4" d="M641.33,674.92c3-.06,1.47,3.6,1.95,5.43,1.63.45,3.69.2,4.69,1.94-1.55.23-3.11.32-4.67.43-.63-.72-1.26-1.43-1.88-2.13-.05-1.9-.09-3.79-.09-5.67Z"/>
  </g>
  <g id="_x23_2f57c9ff">
    <path class="st91" d="M666.15,680.86c2.85-.05,5.7-.09,8.57-.16.02.85.02,1.71,0,2.58-2.77-.1-5.54-.11-8.3-.06-.07-.59-.21-1.77-.27-2.36Z"/>
    <path class="st91" d="M651.88,682.72c1.04-3.54,5.59-1.28,8.31-1.89.16.48.5,1.44.67,1.92-3,.22-6,.22-8.98-.03Z"/>
  </g>
  <g id="_x23_829ed4ff">
    <path class="st3" d="M688.28,682.69c.45,0,1.34-.01,1.78-.01.32,13.11.02,26.23.11,39.35.09,4.84-.72,10.28,2.45,14.4,2.97,4.25,8.45,5.63,13.39,5.41,124.34-.02,248.68,0,373.02-.03,8.61-.1,17.26.3,25.87-.22,5.69-.46,9.74-5.1,11.77-10.09.1.46.29,1.38.38,1.85-.6,3.76-3.88,6.9-7.29,8.47-4.24,2.25-9.15,1.49-13.74,1.57-130.98.02-261.96-.01-392.94,0-5.78.04-11.18-3.86-13.45-9.08-1.54-3.58-1.16-7.55-1.22-11.33-.03-13.43.01-26.86-.13-40.29Z"/>
  </g>
  <g id="_x23_208995ff">
    <path class="st103" d="M1197.12,731.25c.45-.35,1.34-1.05,1.78-1.4l.26,1.5c.85,6.93,8.25,10.89,14.73,10.48,135.37.04,270.74-.03,406.12.01,5.42-.17,11.52.95,16.22-2.51,3.1-1.96,4.65-5.44,5.71-8.82.21.53.63,1.58.85,2.11-1.77,6.33-8.22,11.03-14.79,10.77-136,0-272,0-407.99-.02-4.91-.14-10.19.79-14.69-1.67-4.23-1.98-6.9-6.1-8.2-10.45Z"/>
  </g>
  <g id="_x23_818baeff">
    <path class="st117" d="M25.61,734.73c.28-.24.83-.71,1.11-.94,1,4.69,5.45,8.11,10.22,8.02,7.35,0,14.69.37,22.04.02,178.68-.02,357.36-.02,536.04-.02,3.35.23,6.56-.77,9.68-1.87-1.35,3-4.9,3.35-7.74,3.44-186.66-.05-373.32-.01-559.97-.02-5.13.13-10.52-3.36-11.38-8.63Z"/>
  </g>
  <g id="_x23_b4a8c8ff">
    <path class="st49" d="M610.68,762.65c1.18-.62,2.53-1.59,3.93-1.03.47.12,1.4.38,1.87.51-3.48,1.23-7.38,2.62-9.31,6.03-2.63,4.13-1.79,9.23-1.89,13.87-.01,16.02,0,32.04-.03,48.06-.14,4.35,1.49,9.06,5.39,11.4,4.55,3.02,10.25,1.9,15.39,2.07,143.66,0,287.32,0,430.99-.02,15.9.2,31.83-.48,47.72.39l-1.17.57c-1.12.55-2.3.78-3.54.69-160.69-.01-321.39.05-482.08-.04-7.25.26-14.38-5.62-14.21-13.14-.07-19-.03-38.01-.03-57.02-.14-4.99,2.61-9.91,6.97-12.34Z"/>
  </g>
  <g id="_x23_8fbdc6ff">
    <path class="st157" d="M1166.67,768.66c2.22-5.12,7.88-8.08,13.32-8,139.36-.02,278.71-.02,418.07,0,3.61.13,7.39-.6,10.85.88l-1.19.31c-3.19.7-6.46.72-9.68.64-139.38,0-278.75-.03-418.13-.01-4.25-.08-8.6,1.83-10.92,5.49-2.06,2.93-2.03,6.63-2.05,10.06.09,15.33-.02,30.66.04,46,.04,5.29-.9,11.55,3.28,15.65,3.94,4.51,10.37,3.94,15.77,3.87,139.33,0,278.66.01,417.98,0,4.22-.03,8.46-.2,12.67.31.49.1,1.47.3,1.97.4-3.08,1.2-6.4.88-9.61.89-141.33.06-282.67.01-424.01.02-4.2-.05-8.69.39-12.5-1.73-4.56-2.28-7.53-7.31-7.29-12.4-.06-16.69.07-33.39.01-50.08.09-4.11-.5-8.48,1.42-12.28Z"/>
  </g>
  <g id="_x23_f5fbfdff">
    <path class="st145" d="M1168.99,767.96c2.32-3.66,6.67-5.57,10.92-5.49,139.38-.02,278.75.01,418.13.01,3.22.08,6.49.06,9.68-.64,5.66-.19,12.36-.63,16.68,3.79,3.14,2.9,3.81,7.33,3.84,11.4.07,15.66-.07,31.32.01,46.98-.02,3.73.18,7.55-.76,11.21-1.29,4.78-5.75,8.67-10.81,8.62-4.21-.51-8.45-.34-12.67-.31-139.32.02-278.65,0-417.98,0-5.4.07-11.83.64-15.77-3.87-4.18-4.1-3.24-10.36-3.28-15.65-.06-15.34.05-30.67-.04-46,.02-3.43,0-7.13,2.05-10.06M1232.77,786.79c-1.81,1.49,1.25,5.55,2.76,2.9,3.14-3.24,6.34-7.92,11.47-7.46,6.59-.23,11.27,8.18,8.04,13.8-1.99,2.95-4.83,5.17-7.24,7.76-2.42,2.45-4.91,5.99-8.89,5.05-4.04.14-6.52-3.43-7.51-6.9-1.32.97-3.59,2-2.98,4.02,2.55,6.01,10.53,9.21,16.32,5.84,3.17-2.1,5.67-5.02,8.32-7.71,2.97-3.11,6.74-6.3,6.76-10.99,1.19-8.38-7.48-16.38-15.73-14.48-4.73,1.01-8.1,4.85-11.32,8.17M1220.39,801.39c-3.47,3.58-8.22,7.11-7.98,12.68-.88,8.39,7.83,15.76,15.94,13.94,5.17-1.16,8.23-5.85,11.91-9.22-.67-1.25-1.34-2.49-1.99-3.71-3.22,3.17-5.93,7.19-10.19,9.05-6.05,1.57-12.23-4.04-11.78-10.12-.31-2.93,2.07-4.95,3.9-6.84,2.89-2.81,5.6-5.81,8.72-8.38,2.89-2.65,8.02-1.89,10.08,1.46.56,1.51.43,3.15.62,4.74,1.35-1.01,2.74-1.99,4.11-2.99-.61-5.53-6.45-9.68-11.86-8.59-4.9.69-8.13,4.78-11.48,7.98Z"/>
  </g>
  <g id="_x23_f5f3fbff">
    <path class="st81" d="M42.67,770.14c2.22-4.61,6.91-8.66,12.34-7.98,164.32.02,328.64-.03,492.96.02,3.24-.35,5.87,1.62,8.49,3.2l-.18-.3c2.1,1.12,4.39,2.87,4.1,5.56-.35,14.78-.05,29.57-.17,44.35-.13,6.24.41,12.53-.4,18.75-.39,4.38-3.89,7.96-7.81,9.59-5.19,1.45-10.65.84-15.97.96-159.69-.03-319.38-.03-479.06-.02-4.28.01-9.01-.77-11.9-4.25-3.12-3.18-3.25-7.83-3.31-11.99-.06-16.01.02-32.02,0-48.03.08-3.3.08-6.65.92-9.86M92.6,781.95c-1.58.67-3.33,2.07-3.18,3.98-.06,12.68-.1,25.37.02,38.05-.11,2.27,2.55,3.35,4.47,3.25,14.36.13,28.72-.03,43.08,0,1.98.11,4.43-1.13,4.52-3.33.22-6.93-.05-13.88.07-20.82.1-3.94-.2-7.91-1.15-11.74-.32-1.61-1.83-2.93-3.49-2.83-7.67-.25-15.37.14-23.04-.18-2.64-1.55-3.06-5.94-6.56-6.38-4.9-.21-9.84-.22-14.74,0Z"/>
  </g>
  <g id="_x23_fbf5fbff">
    <path class="st53" d="M607.17,768.16c1.93-3.41,5.83-4.8,9.31-6.03,42.17.21,84.33.03,126.5.08,120,0,239.99,0,359.99,0,6.86-.7,13.06,6,12.6,12.71-.03,18.67-.09,37.35.04,56.02.67,6.26-4.77,12.29-10.87,12.98-15.89-.87-31.82-.19-47.72-.39-143.67.02-287.33.02-430.99.02-5.14-.17-10.84.95-15.39-2.07-3.9-2.34-5.53-7.05-5.39-11.4.03-16.02.02-32.04.03-48.06.1-4.64-.74-9.74,1.89-13.87M679.97,782.83c-6.76,3.7-11.42,10.8-12.26,18.46,1.12-.07,2.68,1.15,3.56.05.94-2.72,1.31-5.67,2.89-8.14,3.06-5.74,9.5-9.13,15.88-9.41,6.08.03,12.02,3.27,15.45,8.28-2.58.25-7.05-.31-6.35,3.67,4.13.2,8.28.29,12.41,0,0-4.19.04-8.37.03-12.55-3.49-1.45-4.05,2.59-3.94,5.05-3.16-2.49-6.26-5.24-10.1-6.62-5.69-2.04-12.2-1.54-17.57,1.21M709.56,804.94c-.65,4.69-2.57,9.33-6.02,12.66-5.56,5.51-14.9,6.58-21.62,2.61-2.37-1.46-5.24-2.9-6.04-5.79,1.89-.21,4.03.2,5.66-1.03.58-1.06-.12-2.86-1.52-2.59-3.56-.31-7.16-.3-10.69.26.07,4.19-.28,8.4.06,12.59,3.8,2.68,3.56-3.62,3.68-5.87,3.71,3.96,8.36,7.27,13.84,8.09,12.34,2.83,25.32-7.47,26.23-19.92.25-2.34-2.36-1.41-3.58-1.01Z"/>
  </g>
  <g id="_x23_066979ff">
    <path class="st132" d="M1232.77,786.79c3.22-3.32,6.59-7.16,11.32-8.17,8.25-1.9,16.92,6.1,15.73,14.48-.02,4.69-3.79,7.88-6.76,10.99-2.65,2.69-5.15,5.61-8.32,7.71-5.79,3.37-13.77.17-16.32-5.84-.61-2.02,1.66-3.05,2.98-4.02.99,3.47,3.47,7.04,7.51,6.9,3.98.94,6.47-2.6,8.89-5.05,2.41-2.59,5.25-4.81,7.24-7.76,3.23-5.62-1.45-14.03-8.04-13.8-5.13-.46-8.33,4.22-11.47,7.46-1.51,2.65-4.57-1.41-2.76-2.9Z"/>
  </g>
  <g id="_x23_6a48a0ff">
    <path class="st92" d="M92.6,781.95c4.9-.22,9.84-.21,14.74,0,3.5.44,3.92,4.83,6.56,6.38,7.67.32,15.37-.07,23.04.18,1.66-.1,3.17,1.22,3.49,2.83.95,3.83,1.25,7.8,1.15,11.74-.12,6.94.15,13.89-.07,20.82-.09,2.2-2.54,3.44-4.52,3.33-14.36-.03-28.72.13-43.08,0-1.92.1-4.58-.98-4.47-3.25-.12-12.68-.08-25.37-.02-38.05-.15-1.91,1.6-3.31,3.18-3.98M92.43,784.73c-.3,3.52-.31,7.06-.22,10.6,15.22-.23,30.45-.02,45.66-.33-.1-1.22-.2-2.44-.32-3.65-7.83-.23-15.66-.02-23.49-.18-4.68.45-4.32-7.36-9.07-6.5-4.19-.04-8.37.03-12.56.06M92.19,797.98c.02,8.82.02,17.65-.04,26.48,15.44,0,30.89.09,46.33.08.71-8.86.13-17.77.35-26.64-15.54-.02-31.1-.39-46.64.08Z"/>
  </g>
  <g id="_x23_a0499aff">
    <path class="st158" d="M679.97,782.83c5.37-2.75,11.88-3.25,17.57-1.21,3.84,1.38,6.94,4.13,10.1,6.62-.11-2.46.45-6.5,3.94-5.05.01,4.18-.03,8.36-.03,12.55-4.13.29-8.28.2-12.41,0-.7-3.98,3.77-3.42,6.35-3.67-3.43-5.01-9.37-8.25-15.45-8.28-6.38.28-12.82,3.67-15.88,9.41-1.58,2.47-1.95,5.42-2.89,8.14-.88,1.1-2.44-.12-3.56-.05.84-7.66,5.5-14.76,12.26-18.46Z"/>
  </g>
  <g id="_x23_f6f3fcff">
    <path class="st98" d="M92.43,784.73c4.19-.03,8.37-.1,12.56-.06,4.75-.86,4.39,6.95,9.07,6.5,7.83.16,15.66-.05,23.49.18.12,1.21.22,2.43.32,3.65-15.21.31-30.44.1-45.66.33-.09-3.54-.08-7.08.22-10.6Z"/>
  </g>
  <g id="_x23_f4f2fbff">
    <path class="st116" d="M92.19,797.98c15.54-.47,31.1-.1,46.64-.08-.22,8.87.36,17.78-.35,26.64-15.44.01-30.89-.08-46.33-.08.06-8.83.06-17.66.04-26.48Z"/>
  </g>
  <g id="_x23_000957ff">
    <path class="st166" d="M1589.83,849.01c.54-.45,1.62-1.36,2.16-1.82,14.73,11.49,28.95,23.64,43.45,35.43,2.85,2.44,5.96,4.62,8.56,7.38-13.16,11.82-27.15,22.71-40.59,34.22-4.24,3.19-7.86,7.27-12.58,9.77-2.05-4.53.6-9.66-1.33-14.29-213.84.16-427.68.02-641.52.05-307.63-.01-615.26.04-922.88-.01-.62-2.79,1.84-4.47,3.48-6.27,7.59-7.71,14.74-15.82,22.41-23.43-8.39-8.66-16.69-17.41-24.91-26.23-1.14-.83-.73-2.19-.7-3.36,310.53-.22,621.06.02,931.6-.09,210.94.06,421.87-.01,632.81.02.06-3.79.04-7.58.04-11.37M1592.5,850.99c-.03,3.94.08,7.9-.14,11.85-325.11-.16-650.22-.02-975.33-.09-196.07.1-392.15-.13-588.23.1,7.86,8.25,15.64,16.59,23.56,24.78.9.83,1.35,1.99,1.85,3.1-8.58,8.78-17.44,17.36-25.34,26.76,521.21-.01,1042.41-.01,1563.62,0,.04,4.07-.03,8.14.14,12.22,15.9-13.17,31.75-26.41,47.55-39.7-15.84-13.06-31.53-26.35-47.68-39.02Z"/>
  </g>
  <g id="_x23_e6ecfaff">
    <path class="st147" d="M1592.5,850.99c16.15,12.67,31.84,25.96,47.68,39.02-15.8,13.29-31.65,26.53-47.55,39.7-.17-4.08-.1-8.15-.14-12.22-521.21-.01-1042.41-.01-1563.62,0,7.9-9.4,16.76-17.98,25.34-26.76-.5-1.11-.95-2.27-1.85-3.1-7.92-8.19-15.7-16.53-23.56-24.78,196.08-.23,392.16,0,588.23-.1,325.11.07,650.22-.07,975.33.09.22-3.95.11-7.91.14-11.85Z"/>
  </g>
  <g id="editable_text_fill_Times_New_Roman" inkscape:groupmode="layer" inkscape:label="Editable Times New Roman Text">
    <text class="st13" transform="translate(152.67 44)"><tspan x="0" y="0">CODE CONFIGURATION OBJECT TO STRUCTURED SYSTEM METADATA</tspan></text>
    <text class="st12" transform="translate(567.42 78)"><tspan x="0" y="0">From project specification to registry-ready metadata</tspan></text>
    <text class="st23" transform="translate(118.56 120)"><tspan x="0" y="0">CODE CONFIGURATION OBJECT</tspan></text>
    <text class="st23" transform="translate(795.6 120)"><tspan x="0" y="0">FIELD SEMANTICS</tspan></text>
    <text class="st23" transform="translate(1279.3 120)"><tspan x="0" y="0">SYSTEM CONSUMPTION</tspan></text>
    <text class="st15" transform="translate(140.29 166)"><tspan x="0" y="0">PROJECT SPEC CONFIGURATION</tspan></text>
    <text class="st24" transform="translate(39 203)"><tspan x="0" y="0">PROJECT_SPECS = [</tspan></text>
    <text class="st25" transform="translate(39 223.5)"><tspan x="0" y="0">{</tspan></text>
    <text class="st11" transform="translate(39 244)"><tspan x="0" y="0" xml:space="preserve">    &quot;project_id&quot;:  &quot;proj-001-alpha&quot;,</tspan></text>
    <text class="st11" transform="translate(39 264.5)"><tspan x="0" y="0" xml:space="preserve">    &quot;title&quot;:  &quot;Q1 LLM Pre-training Data Pipeline&quot;,</tspan></text>
    <text class="st11" transform="translate(39 285)"><tspan x="0" y="0" xml:space="preserve">    &quot;project_dir&quot;:  &quot;/data/projects/llm_pretrain_q1&quot;,</tspan></text>
    <text class="st11" transform="translate(39 305.5)"><tspan x="0" y="0" xml:space="preserve">    &quot;metrics_file&quot;:  &quot;metrics/pretrain_stats.json&quot;,</tspan></text>
    <text class="st11" transform="translate(39 326)"><tspan x="0" y="0" xml:space="preserve">    &quot;test_file&quot;:  &quot;tests/data_quality_checks.py&quot;,</tspan></text>
    <text class="st11" transform="translate(39 346.5)"><tspan x="0" y="0" xml:space="preserve">    &quot;phase&quot;:  &quot;Data Ingestion &amp; Cleaning&quot;,</tspan></text>
    <text class="st11" transform="translate(39 367)"><tspan x="0" y="0" xml:space="preserve">    &quot;deliverables&quot;:  [&quot;raw_text_corpus_v1.parquet&quot;,</tspan></text>
    <text class="st11" transform="translate(39 387.5)"><tspan x="0" y="0" xml:space="preserve">                       &quot;cleaning_report.pdf&quot;],</tspan></text>
    <text class="st11" transform="translate(39 408)"><tspan x="0" y="0" xml:space="preserve">    &quot;interfaces_out&quot;:  [&quot;s3://data-lake/clean/q1-corpus&quot;,</tspan></text>
    <text class="st11" transform="translate(39 428.5)"><tspan x="0" y="0" xml:space="preserve">                       &quot;kafka://topic/data-events&quot;]</tspan></text>
    <text class="st25" transform="translate(39 449)"><tspan x="0" y="0">},</tspan></text>
    <text class="st25" transform="translate(39 469.5)"><tspan x="0" y="0">{</tspan></text>
    <text class="st11" transform="translate(39 490)"><tspan x="0" y="0" xml:space="preserve">    &quot;project_id&quot;:  &quot;proj-002-beta&quot;,</tspan></text>
    <text class="st11" transform="translate(39 510.5)"><tspan x="0" y="0" xml:space="preserve">    &quot;title&quot;:  &quot;Fine-tuning Dataset Generation&quot;,</tspan></text>
    <text class="st11" transform="translate(39 531)"><tspan x="0" y="0" xml:space="preserve">    &quot;project_dir&quot;:  &quot;/data/projects/finetune_gen_beta&quot;,</tspan></text>
    <text class="st11" transform="translate(39 551.5)"><tspan x="0" y="0" xml:space="preserve">    &quot;metrics_file&quot;:  &quot;metrics/finetune_metrics.json&quot;,</tspan></text>
    <text class="st11" transform="translate(39 572)"><tspan x="0" y="0" xml:space="preserve">    &quot;test_file&quot;:  &quot;tests/format_validation.py&quot;,</tspan></text>
    <text class="st11" transform="translate(39 592.5)"><tspan x="0" y="0" xml:space="preserve">    &quot;phase&quot;:  &quot;Dataset Curation &amp; Formatting&quot;,</tspan></text>
    <text class="st11" transform="translate(39 613)"><tspan x="0" y="0" xml:space="preserve">    &quot;deliverables&quot;:  [&quot;instruct_dataset_v2.jsonl&quot;,</tspan></text>
    <text class="st11" transform="translate(39 633.5)"><tspan x="0" y="0" xml:space="preserve">                       &quot;curation_log.txt&quot;],</tspan></text>
    <text class="st11" transform="translate(39 654)"><tspan x="0" y="0" xml:space="preserve">    &quot;interfaces_out&quot;:  [&quot;s3://model-repo/datasets/finetune-v2&quot;]</tspan></text>
    <text class="st25" transform="translate(39 674.5)"><tspan x="0" y="0">}</tspan></text>
    <text class="st25" transform="translate(39 695)"><tspan x="0" y="0">]</tspan></text>
    <text class="st15" transform="translate(773.28 164)"><tspan x="0" y="0">SEMANTIC FIELD LAYER</tspan></text>
    <text class="st16" transform="translate(820 224)"><tspan x="0" y="0">STAGE ASSIGNMENT</tspan></text>
    <text class="st19" transform="translate(820 253)"><tspan x="0" y="0">phase -&gt; STAGE ASSIGNMENT</tspan></text>
    <text class="st16" transform="translate(820 337)"><tspan x="0" y="0">OUTPUT ASSETS</tspan></text>
    <text class="st19" transform="translate(820 366)"><tspan x="0" y="0">deliverables -&gt; OUTPUT ASSETS</tspan></text>
    <text class="st14" transform="translate(820 445)"><tspan x="0" y="0">DOWNSTREAM INTERFACES</tspan></text>
    <text class="st19" transform="translate(820 474)"><tspan x="0" y="0">interfaces_out -&gt;</tspan></text>
    <text class="st19" transform="translate(820 492)"><tspan x="0" y="0">DOWNSTREAM INTERFACES</tspan></text>
    <text class="st16" transform="translate(820 557)"><tspan x="0" y="0">VALIDATION EVIDENCE</tspan></text>
    <text class="st19" transform="translate(820 586)"><tspan x="0" y="0">metrics_file + test_file -&gt;</tspan></text>
    <text class="st19" transform="translate(820 604)"><tspan x="0" y="0">VALIDATION EVIDENCE</tspan></text>
    <text class="st20" transform="translate(820 670)"><tspan x="0" y="0">PROJECT LOCATION REFERENCE</tspan></text>
    <text class="st22" transform="translate(820 699)"><tspan x="0" y="0">project_dir -&gt;</tspan></text>
    <text class="st19" transform="translate(820 717)"><tspan x="0" y="0">PROJECT LOCATION REFERENCE</tspan></text>
    <text class="st21" transform="translate(1124.69 478.77)"><tspan x="0" y="0">SEMANTIC</tspan></text>
    <text class="st21" transform="translate(1124.22 506.34)"><tspan x="0" y="0">METADATA</tspan></text>
    <text class="st21" transform="translate(1136.47 525.89)"><tspan x="0" y="0">INGEST</tspan></text>
    <text class="st17" transform="translate(1247.74 493)"><tspan x="0" y="0">REGISTRY</tspan></text>
    <text class="st18" transform="translate(1515.99 321)"><tspan x="0" y="0">PHASE</tspan></text>
    <text class="st18" transform="translate(1491.47 349)"><tspan x="0" y="0">INVENTORY</tspan></text>
    <text class="st18" transform="translate(1489.32 594)"><tspan x="0" y="0">VALIDATION</tspan></text>
    <text class="st18" transform="translate(1512.32 622)"><tspan x="0" y="0">STATUS</tspan></text>
    <text class="st9" transform="translate(178 796)"><tspan x="0" y="0">PROJECT DIRECTORY BECOMES</tspan></text>
    <text class="st9" transform="translate(178 823)"><tspan x="0" y="0">STRUCTURED ASSET ENTRY</tspan></text>
    <text class="st9" transform="translate(750 810)"><tspan x="0" y="0">METADATA ENABLES REUSE</tspan></text>
    <text class="st9" transform="translate(1306 796)"><tspan x="0" y="0">CONFIGURATION DRIVES</tspan></text>
    <text class="st9" transform="translate(1306 823)"><tspan x="0" y="0">SYSTEM INTEGRATION</tspan></text>
    <text class="st10" transform="translate(286.09 900)"><tspan x="0" y="0">left: project spec configuration → center: field semantics → right: system-level consumption</tspan></text>
  </g>
</svg>