<?xml version="1.0" encoding="UTF-8"?>
<svg xmlns="http://www.w3.org/2000/svg" width="1672pt" height="941pt" viewBox="0 0 1672 941" version="1.1">
<title>Editable Times New Roman text reconstruction</title>
<desc>All visible labels are editable SVG text objects using Times New Roman.</desc>
<rect x="0" y="0" width="1672" height="941" fill="#FFFFFF"/>
<text x="35" y="48" font-family="Times New Roman, Times, serif" font-size="24" font-weight="bold" font-style="normal" fill="#00266F" text-anchor="start" >Section 1 (Left): Input Sources</text>
<line x1="56" y1="79" x2="293" y2="79" stroke="#003CB5" stroke-width="3" stroke-linecap="butt"/>
<text x="600" y="37" font-family="Times New Roman, Times, serif" font-size="24" font-weight="bold" font-style="normal" fill="#00266F" text-anchor="middle" >Section 2 (Center): Aggregation &amp;</text>
<text x="600" y="68" font-family="Times New Roman, Times, serif" font-size="24" font-weight="bold" font-style="normal" fill="#00266F" text-anchor="middle" >Evaluation Engine</text>
<line x1="386" y1="82" x2="818" y2="82" stroke="#4A1DAC" stroke-width="3" stroke-linecap="butt"/>
<text x="1082" y="48" font-family="Times New Roman, Times, serif" font-size="24" font-weight="bold" font-style="normal" fill="#00266F" text-anchor="middle" >Section 3 (Right): System Metrics</text>
<line x1="899" y1="80" x2="1266" y2="80" stroke="#0097A7" stroke-width="3" stroke-linecap="butt"/>
<text x="1494" y="48" font-family="Times New Roman, Times, serif" font-size="23" font-weight="bold" font-style="normal" fill="#00266F" text-anchor="middle" >Section 4 (Far Right): Structured Conclusions</text>
<line x1="1326" y1="80" x2="1660" y2="80" stroke="#0052C8" stroke-width="3" stroke-linecap="butt"/>
<rect x="14" y="126" width="263" height="213" rx="10" ry="10" fill="#FFFFFF" stroke="#003CB5" stroke-width="2" />
<rect x="14" y="377" width="263" height="213" rx="10" ry="10" fill="#FFFFFF" stroke="#003CB5" stroke-width="2" />
<rect x="14" y="629" width="263" height="213" rx="10" ry="10" fill="#FFFFFF" stroke="#003CB5" stroke-width="2" />
<line x1="277" y1="223" x2="338" y2="223" stroke="#0052C8" stroke-width="4" stroke-linecap="round"/>
<path d="M 338 210 L 353 223 L 338 236 Z" fill="#0052C8" stroke="#0052C8" stroke-width="1" stroke-linecap="round" stroke-linejoin="round" />
<line x1="277" y1="475" x2="338" y2="475" stroke="#0052C8" stroke-width="4" stroke-linecap="round"/>
<path d="M 338 462 L 353 475 L 338 488 Z" fill="#0052C8" stroke="#0052C8" stroke-width="1" stroke-linecap="round" stroke-linejoin="round" />
<line x1="277" y1="727" x2="338" y2="727" stroke="#0052C8" stroke-width="4" stroke-linecap="round"/>
<path d="M 338 714 L 353 727 L 338 740 Z" fill="#0052C8" stroke="#0052C8" stroke-width="1" stroke-linecap="round" stroke-linejoin="round" />
<rect x="31" y="151" width="75" height="105" rx="12" ry="12" fill="#E8F2FF" stroke="none" stroke-width="1" />
<rect x="31" y="402" width="75" height="105" rx="12" ry="12" fill="#E8F2FF" stroke="none" stroke-width="1" />
<rect x="31" y="654" width="75" height="105" rx="12" ry="12" fill="#E8F2FF" stroke="none" stroke-width="1" />
<ellipse cx="68" cy="181" rx="24" ry="12" fill="none" stroke="#003CB5" stroke-width="3" />
<path d="M44 181 L44 234 C44 250 92 250 92 234 L92 181" fill="none" stroke="#003CB5" stroke-width="3" stroke-linecap="round" stroke-linejoin="round" />
<path d="M44 204 C44 220 92 220 92 204" fill="none" stroke="#003CB5" stroke-width="3" stroke-linecap="round" stroke-linejoin="round" />
<path d="M44 222 C44 238 92 238 92 222" fill="none" stroke="#003CB5" stroke-width="3" stroke-linecap="round" stroke-linejoin="round" />
<circle cx="68" cy="455" r="33" fill="none" stroke="#003CB5" stroke-width="3" />
<polygon points="61,437 61,473 88,455" fill="none" stroke="#003CB5" stroke-width="3" stroke-linejoin="round" />
<polygon points="68,658 100,698 68,738 36,698" fill="none" stroke="#003CB5" stroke-width="3" stroke-linejoin="round" />
<line x1="68" y1="678" x2="68" y2="708" stroke="#003CB5" stroke-width="4" stroke-linecap="round"/>
<circle cx="68" cy="721" r="2.5" fill="#003CB5" stroke="#003CB5" stroke-width="0" />
<text x="121" y="180" font-family="Times New Roman, Times, serif" font-size="24" font-weight="bold" font-style="normal" fill="#003CB5" text-anchor="start" >Registry</text>
<circle cx="121" cy="219" r="3.3" fill="#003CB5" stroke="#003CB5" stroke-width="0" />
<text x="138" y="224" font-family="Times New Roman, Times, serif" font-size="16" font-weight="normal" font-style="normal" fill="#111111" text-anchor="start" >manual review hours</text>
<circle cx="121" cy="258" r="3.3" fill="#003CB5" stroke="#003CB5" stroke-width="0" />
<text x="138" y="263" font-family="Times New Roman, Times, serif" font-size="16" font-weight="normal" font-style="normal" fill="#111111" text-anchor="start" >manual review cost</text>
<circle cx="121" cy="298" r="3.3" fill="#003CB5" stroke="#003CB5" stroke-width="0" />
<text x="138" y="303" font-family="Times New Roman, Times, serif" font-size="16" font-weight="normal" font-style="normal" fill="#111111" text-anchor="start" >project metadata</text>
<text x="121" y="430" font-family="Times New Roman, Times, serif" font-size="24" font-weight="bold" font-style="normal" fill="#003CB5" text-anchor="start" >Runs</text>
<circle cx="121" cy="469" r="3.3" fill="#003CB5" stroke="#003CB5" stroke-width="0" />
<text x="138" y="474" font-family="Times New Roman, Times, serif" font-size="17" font-weight="normal" font-style="normal" fill="#111111" text-anchor="start" >status</text>
<circle cx="121" cy="508" r="3.3" fill="#003CB5" stroke="#003CB5" stroke-width="0" />
<text x="138" y="513" font-family="Times New Roman, Times, serif" font-size="17" font-weight="normal" font-style="normal" fill="#111111" text-anchor="start" >score</text>
<circle cx="121" cy="548" r="3.3" fill="#003CB5" stroke="#003CB5" stroke-width="0" />
<text x="138" y="553" font-family="Times New Roman, Times, serif" font-size="17" font-weight="normal" font-style="normal" fill="#111111" text-anchor="start" >stage progression</text>
<text x="121" y="683" font-family="Times New Roman, Times, serif" font-size="24" font-weight="bold" font-style="normal" fill="#003CB5" text-anchor="start" >Bottlenecks</text>
<circle cx="121" cy="722" r="3.3" fill="#003CB5" stroke="#003CB5" stroke-width="0" />
<text x="138" y="727" font-family="Times New Roman, Times, serif" font-size="17" font-weight="normal" font-style="normal" fill="#111111" text-anchor="start" >name</text>
<circle cx="121" cy="761" r="3.3" fill="#003CB5" stroke="#003CB5" stroke-width="0" />
<text x="138" y="766" font-family="Times New Roman, Times, serif" font-size="17" font-weight="normal" font-style="normal" fill="#111111" text-anchor="start" >severity</text>
<circle cx="121" cy="801" r="3.3" fill="#003CB5" stroke="#003CB5" stroke-width="0" />
<text x="138" y="806" font-family="Times New Roman, Times, serif" font-size="17" font-weight="normal" font-style="normal" fill="#111111" text-anchor="start" >reason</text>
<rect x="361" y="111" width="482" height="772" rx="11" ry="11" fill="#FBFAFF" stroke="#4A1DAC" stroke-width="2" />
<polygon points="446.0,173.0 437.0600331314817,182.55177847183265 436.62741699796953,195.62741699796953 423.5517784718326,196.0600331314817 414.0,205.0 404.4482215281674,196.0600331314817 391.37258300203047,195.62741699796953 390.9399668685183,182.55177847183265 382.0,173.0 390.9399668685183,163.44822152816735 391.37258300203047,150.37258300203047 404.4482215281673,149.9399668685183 414.0,141.0 423.5517784718326,149.9399668685183 436.62741699796953,150.37258300203047 437.0600331314817,163.44822152816735" fill="none" stroke="#4A1DAC" stroke-width="4" stroke-linejoin="round" />
<circle cx="414" cy="173" r="12.16" fill="none" stroke="#4A1DAC" stroke-width="4" />
<text x="469" y="178" font-family="Times New Roman, Times, serif" font-size="34" font-weight="bold" font-style="normal" fill="#4A1DAC" text-anchor="start" >evaluate_flywheel.py</text>
<text x="469" y="219" font-family="Times New Roman, Times, serif" font-size="20" font-weight="normal" font-style="italic" fill="#222222" text-anchor="start" >Metrics are computed, not guessed</text>
<rect x="374" y="247" width="450" height="151" rx="8" ry="8" fill="#FFFFFF" stroke="#A98BD5" stroke-width="1.5" />
<rect x="374" y="247" width="450" height="52" rx="8" ry="8" fill="#F7F3FF" stroke="#A98BD5" stroke-width="1.2" />
<line x1="374" y1="299" x2="824" y2="299" stroke="#CDBCEB" stroke-width="1" stroke-linecap="butt"/>
<rect x="374" y="420" width="450" height="119" rx="8" ry="8" fill="#FFFFFF" stroke="#A98BD5" stroke-width="1.5" />
<rect x="374" y="420" width="450" height="52" rx="8" ry="8" fill="#F7F3FF" stroke="#A98BD5" stroke-width="1.2" />
<line x1="374" y1="472" x2="824" y2="472" stroke="#CDBCEB" stroke-width="1" stroke-linecap="butt"/>
<rect x="374" y="560" width="450" height="119" rx="8" ry="8" fill="#FFFFFF" stroke="#A98BD5" stroke-width="1.5" />
<rect x="374" y="560" width="450" height="52" rx="8" ry="8" fill="#F7F3FF" stroke="#A98BD5" stroke-width="1.2" />
<line x1="374" y1="612" x2="824" y2="612" stroke="#CDBCEB" stroke-width="1" stroke-linecap="butt"/>
<rect x="374" y="698" width="450" height="149" rx="8" ry="8" fill="#FFFFFF" stroke="#A98BD5" stroke-width="1.5" />
<rect x="374" y="698" width="450" height="52" rx="8" ry="8" fill="#F7F3FF" stroke="#A98BD5" stroke-width="1.2" />
<line x1="374" y1="750" x2="824" y2="750" stroke="#CDBCEB" stroke-width="1" stroke-linecap="butt"/>
<text x="390" y="281" font-family="Times New Roman, Times, serif" font-size="36" font-weight="normal" font-style="normal" fill="#4A1DAC" text-anchor="start" >∑</text>
<text x="426" y="280" font-family="Times New Roman, Times, serif" font-size="21" font-weight="bold" font-style="normal" fill="#4A1DAC" text-anchor="start" >sum(...)</text>
<text x="386" y="458" font-family="Times New Roman, Times, serif" font-size="27" font-weight="bold" font-style="normal" fill="#4A1DAC" text-anchor="start" >▥</text>
<text x="426" y="456" font-family="Times New Roman, Times, serif" font-size="21" font-weight="bold" font-style="normal" fill="#4A1DAC" text-anchor="start" >average(...)</text>
<text x="387" y="598" font-family="Times New Roman, Times, serif" font-size="22" font-weight="bold" font-style="normal" fill="#4A1DAC" text-anchor="start" >%</text>
<circle cx="398" cy="592" r="15" fill="none" stroke="#4A1DAC" stroke-width="2" />
<text x="426" y="596" font-family="Times New Roman, Times, serif" font-size="21" font-weight="bold" font-style="normal" fill="#4A1DAC" text-anchor="start" >rate calculation</text>
<path d="M 389 714 L 411 714 L 401 730 L 401 751" fill="none" stroke="#4A1DAC" stroke-width="2.5" stroke-linecap="round" stroke-linejoin="round" />
<text x="426" y="734" font-family="Times New Roman, Times, serif" font-size="21" font-weight="bold" font-style="normal" fill="#4A1DAC" text-anchor="start" >bottleneck summary</text>
<text x="386" y="333" font-family="Times New Roman, Times, serif" font-size="15.5" font-weight="normal" font-style="normal" fill="#111111" text-anchor="start" >total_manual_review_hours = sum(registry[</text>
<text x="651" y="333" font-family="Times New Roman, Times, serif" font-size="15.5" font-weight="normal" font-style="normal" fill="#D00000" text-anchor="start" >'manual review hours'</text>
<text x="785" y="333" font-family="Times New Roman, Times, serif" font-size="15.5" font-weight="normal" font-style="normal" fill="#111111" text-anchor="start" >])</text>
<text x="386" y="365" font-family="Times New Roman, Times, serif" font-size="15.5" font-weight="normal" font-style="normal" fill="#111111" text-anchor="start" >total_manual_review_cost_rmb = sum(registry[</text>
<text x="679" y="365" font-family="Times New Roman, Times, serif" font-size="15.5" font-weight="normal" font-style="normal" fill="#D00000" text-anchor="start" >'manual review cost'</text>
<text x="809" y="365" font-family="Times New Roman, Times, serif" font-size="15.5" font-weight="normal" font-style="normal" fill="#111111" text-anchor="start" >])</text>
<text x="386" y="509" font-family="Times New Roman, Times, serif" font-size="15.5" font-weight="normal" font-style="normal" fill="#111111" text-anchor="start" >avg_stage_score = average(runs[</text>
<text x="609" y="509" font-family="Times New Roman, Times, serif" font-size="15.5" font-weight="normal" font-style="normal" fill="#D00000" text-anchor="start" >'score'</text>
<text x="664" y="509" font-family="Times New Roman, Times, serif" font-size="15.5" font-weight="normal" font-style="normal" fill="#111111" text-anchor="start" >])</text>
<text x="386" y="649" font-family="Times New Roman, Times, serif" font-size="15.5" font-weight="normal" font-style="normal" fill="#111111" text-anchor="start" >stage_completion_rate = count(runs[</text>
<text x="624" y="649" font-family="Times New Roman, Times, serif" font-size="15.5" font-weight="normal" font-style="normal" fill="#D00000" text-anchor="start" >'status'</text>
<text x="685" y="649" font-family="Times New Roman, Times, serif" font-size="15.5" font-weight="normal" font-style="normal" fill="#111111" text-anchor="start" >] == </text>
<text x="728" y="649" font-family="Times New Roman, Times, serif" font-size="15.5" font-weight="normal" font-style="normal" fill="#D00000" text-anchor="start" >'completed'</text>
<text x="816" y="649" font-family="Times New Roman, Times, serif" font-size="15.5" font-weight="normal" font-style="normal" fill="#111111" text-anchor="start" >) / total_runs</text>
<text x="386" y="781" font-family="Times New Roman, Times, serif" font-size="15.5" font-weight="normal" font-style="normal" fill="#111111" text-anchor="start" >bottleneck_summary = aggregate(bottlenecks[</text>
<text x="681" y="781" font-family="Times New Roman, Times, serif" font-size="15.5" font-weight="normal" font-style="normal" fill="#D00000" text-anchor="start" >'severity'</text>
<text x="754" y="781" font-family="Times New Roman, Times, serif" font-size="15.5" font-weight="normal" font-style="normal" fill="#111111" text-anchor="start" >],</text>
<text x="592" y="811" font-family="Times New Roman, Times, serif" font-size="15.5" font-weight="normal" font-style="normal" fill="#111111" text-anchor="start" >bottlenecks[</text>
<text x="684" y="811" font-family="Times New Roman, Times, serif" font-size="15.5" font-weight="normal" font-style="normal" fill="#D00000" text-anchor="start" >'reason'</text>
<text x="743" y="811" font-family="Times New Roman, Times, serif" font-size="15.5" font-weight="normal" font-style="normal" fill="#111111" text-anchor="start" >])</text>
<line x1="846" y1="471" x2="876" y2="471" stroke="#4A1DAC" stroke-width="5" stroke-linecap="round"/>
<path d="M 876 458 L 891 471 L 876 484 Z" fill="#4A1DAC" stroke="#4A1DAC" stroke-width="1" stroke-linecap="round" stroke-linejoin="round" />
<line x1="1261" y1="471" x2="1286" y2="471" stroke="#0097A7" stroke-width="5" stroke-linecap="round"/>
<path d="M 1286 458 L 1301 471 L 1286 484 Z" fill="#0097A7" stroke="#0097A7" stroke-width="1" stroke-linecap="round" stroke-linejoin="round" />
<rect x="900" y="137" width="168" height="312" rx="10" ry="10" fill="#FFFFFF" stroke="#0097A7" stroke-width="2" />
<rect x="1085" y="137" width="168" height="312" rx="10" ry="10" fill="#FFFFFF" stroke="#008C77" stroke-width="2" />
<rect x="900" y="476" width="168" height="318" rx="10" ry="10" fill="#FFFFFF" stroke="#0052C8" stroke-width="2" />
<rect x="1085" y="476" width="168" height="318" rx="10" ry="10" fill="#FFFFFF" stroke="#4A1DAC" stroke-width="2" />
<circle cx="984" cy="207" r="34" fill="none" stroke="#0097A7" stroke-width="4" />
<line x1="984" y1="207" x2="984" y2="184" stroke="#0097A7" stroke-width="3" stroke-linecap="round"/>
<line x1="984" y1="207" x2="999" y2="220" stroke="#0097A7" stroke-width="3" stroke-linecap="round"/>
<path d="M 1147 180 C 1160 169 1178 169 1191 180 C 1211 212 1199 248 1169 248 C 1139 248 1127 212 1147 180" fill="none" stroke="#008C77" stroke-width="4" stroke-linecap="round" stroke-linejoin="round" />
<path d="M 1159 177 L 1153 158 L 1165 163 L 1173 158 L 1185 163 L 1179 177" fill="none" stroke="#008C77" stroke-width="4" stroke-linecap="round" stroke-linejoin="round" />
<text x="1169" y="221" font-family="Times New Roman, Times, serif" font-size="42" font-weight="bold" font-style="normal" fill="#008C77" text-anchor="middle" >¥</text>
<rect x="948" y="651" width="12" height="35" rx="0" ry="0" fill="#0052C8" stroke="#0052C8" stroke-width="0" />
<rect x="972" y="634" width="12" height="52" rx="0" ry="0" fill="#0052C8" stroke="#0052C8" stroke-width="0" />
<rect x="996" y="611" width="12" height="75" rx="0" ry="0" fill="#0052C8" stroke="#0052C8" stroke-width="0" />
<path d="M 949 611 L 979 581 L 1006 553" fill="none" stroke="#0052C8" stroke-width="5" stroke-linecap="round" stroke-linejoin="round" />
<path d="M 1006 553 L 1004 573 L 1022 559" fill="none" stroke="#0052C8" stroke-width="5" stroke-linecap="round" stroke-linejoin="round" />
<polygon points="1169.0,561.0 1179.5801345412644,588.4376941012509 1208.9443736843964,590.0212862362522 1186.1190172933127,608.5623058987491 1193.6869805962838,636.9787137637478 1169.0,621.0 1144.3130194037162,636.9787137637478 1151.8809827066873,608.5623058987491 1129.0556263156036,590.0212862362522 1158.4198654587356,588.4376941012509" fill="none" stroke="#4A1DAC" stroke-width="4" stroke-linejoin="round" />
<text x="984" y="284" font-family="Times New Roman, Times, serif" font-size="13.5" font-weight="bold" font-style="normal" fill="#0097A7" text-anchor="middle" >total_manual_review_hours</text>
<line x1="912" y1="333" x2="1055" y2="333" stroke="#0097A7" stroke-width="2" stroke-linecap="butt"/>
<text x="984" y="397" font-family="Times New Roman, Times, serif" font-size="34" font-weight="bold" font-style="normal" fill="#0097A7" text-anchor="middle" >1,250 hours</text>
<text x="1169" y="284" font-family="Times New Roman, Times, serif" font-size="13.5" font-weight="bold" font-style="normal" fill="#008C77" text-anchor="middle" >total_manual_review_cost_rmb</text>
<line x1="1098" y1="333" x2="1240" y2="333" stroke="#008C77" stroke-width="2" stroke-linecap="butt"/>
<text x="1169" y="397" font-family="Times New Roman, Times, serif" font-size="34" font-weight="bold" font-style="normal" fill="#008C77" text-anchor="middle" >¥ 85,000</text>
<text x="984" y="625" font-family="Times New Roman, Times, serif" font-size="16" font-weight="bold" font-style="normal" fill="#0052C8" text-anchor="middle" >stage_completion_rate</text>
<line x1="912" y1="676" x2="1055" y2="676" stroke="#0052C8" stroke-width="2" stroke-linecap="butt"/>
<text x="984" y="742" font-family="Times New Roman, Times, serif" font-size="34" font-weight="bold" font-style="normal" fill="#0052C8" text-anchor="middle" >92.5 %</text>
<text x="1169" y="625" font-family="Times New Roman, Times, serif" font-size="16" font-weight="bold" font-style="normal" fill="#4A1DAC" text-anchor="middle" >avg_stage_score</text>
<line x1="1098" y1="676" x2="1240" y2="676" stroke="#4A1DAC" stroke-width="2" stroke-linecap="butt"/>
<text x="1169" y="742" font-family="Times New Roman, Times, serif" font-size="34" font-weight="bold" font-style="normal" fill="#4A1DAC" text-anchor="middle" >4.3 / 5.0</text>
<rect x="1312" y="104" width="348" height="805" rx="13" ry="13" fill="#FFFFFF" stroke="#0052C8" stroke-width="2" />
<path d="M 1350 126 L 1381 126 L 1401 146 L 1401 196 L 1350 196 Z" fill="none" stroke="#0052C8" stroke-width="4" stroke-linecap="round" stroke-linejoin="round" />
<path d="M 1381 126 L 1381 148 L 1401 148" fill="none" stroke="#0052C8" stroke-width="4" stroke-linecap="round" stroke-linejoin="round" />
<line x1="1362" y1="161" x2="1390" y2="161" stroke="#0052C8" stroke-width="3" stroke-linecap="butt"/>
<line x1="1362" y1="174" x2="1390" y2="174" stroke="#0052C8" stroke-width="3" stroke-linecap="butt"/>
<text x="1424" y="147" font-family="Times New Roman, Times, serif" font-size="24" font-weight="bold" font-style="normal" fill="#003CB5" text-anchor="start" >System Summary /</text>
<text x="1424" y="178" font-family="Times New Roman, Times, serif" font-size="24" font-weight="bold" font-style="normal" fill="#003CB5" text-anchor="start" >Report Conclusions</text>
<line x1="1324" y1="201" x2="1650" y2="201" stroke="#003CB5" stroke-width="2" stroke-linecap="butt"/>
<line x1="1325" y1="341" x2="1649" y2="341" stroke="#8D6CDA" stroke-width="1.4" stroke-linecap="butt"/>
<line x1="1325" y1="459" x2="1649" y2="459" stroke="#5BA8E8" stroke-width="1.4" stroke-linecap="butt"/>
<line x1="1325" y1="610" x2="1649" y2="610" stroke="#5BA8E8" stroke-width="1.4" stroke-linecap="butt"/>
<line x1="1325" y1="748" x2="1649" y2="748" stroke="#0052C8" stroke-width="2" stroke-linecap="butt" stroke-dasharray="6 6"/>
<polygon points="1350,208 1323,262 1377,262" fill="none" stroke="#4A1DAC" stroke-width="3" stroke-linejoin="round" />
<line x1="1350" y1="228" x2="1350" y2="247" stroke="#4A1DAC" stroke-width="3" stroke-linecap="round"/>
<circle cx="1350" cy="256" r="2.5" fill="#4A1DAC" stroke="#4A1DAC" stroke-width="0" />
<text x="1383" y="238" font-family="Times New Roman, Times, serif" font-size="19" font-weight="bold" font-style="normal" fill="#4A1DAC" text-anchor="start" >Bottleneck Summary:</text>
<circle cx="1385" cy="262" r="3.3" fill="#003CB5" stroke="#003CB5" stroke-width="0" />
<text x="1402" y="267" font-family="Times New Roman, Times, serif" font-size="15.5" font-weight="normal" font-style="normal" fill="#111111" text-anchor="start" >High severity in data preprocessing</text>
<text x="1402" y="291" font-family="Times New Roman, Times, serif" font-size="15.5" font-weight="normal" font-style="normal" fill="#111111" text-anchor="start" >due to low quality input</text>
<circle cx="1385" cy="314" r="3.3" fill="#003CB5" stroke="#003CB5" stroke-width="0" />
<text x="1402" y="319" font-family="Times New Roman, Times, serif" font-size="15.5" font-weight="normal" font-style="normal" fill="#111111" text-anchor="start" >High severity closure process</text>
<circle cx="1350" cy="386" r="27" fill="none" stroke="#0097A7" stroke-width="3" />
<circle cx="1350" cy="386" r="14" fill="none" stroke="#0097A7" stroke-width="3" />
<line x1="1348" y1="388" x2="1372" y2="363" stroke="#0097A7" stroke-width="3" stroke-linecap="round"/>
<path d="M 1372 363 L 1374 348 L 1384 358 Z" fill="none" stroke="#0097A7" stroke-width="3" stroke-linecap="round" stroke-linejoin="round" />
<text x="1383" y="385" font-family="Times New Roman, Times, serif" font-size="19" font-weight="bold" font-style="normal" fill="#0097A7" text-anchor="start" >Flywheel Readiness:</text>
<circle cx="1385" cy="409" r="3.3" fill="#0097A7" stroke="#0097A7" stroke-width="0" />
<text x="1402" y="414" font-family="Times New Roman, Times, serif" font-size="15.5" font-weight="normal" font-style="normal" fill="#111111" text-anchor="start" >High readiness, with strong stage</text>
<text x="1402" y="438" font-family="Times New Roman, Times, serif" font-size="15.5" font-weight="normal" font-style="normal" fill="#111111" text-anchor="start" >completion rates, ready for scaling</text>
<path d="M 1350 478 L 1378 490 L 1374 524 C 1368 540 1350 552 1350 552 C 1350 552 1332 540 1326 524 L 1322 490 Z" fill="none" stroke="#0052C8" stroke-width="3" stroke-linecap="round" stroke-linejoin="round" />
<path d="M 1340 520 L 1340 502 L 1360 502 L 1360 520" fill="none" stroke="#0052C8" stroke-width="3" stroke-linecap="round" stroke-linejoin="round" />
<path d="M 1336 502 L 1350 490 L 1364 502" fill="none" stroke="#0052C8" stroke-width="3" stroke-linecap="round" stroke-linejoin="round" />
<text x="1383" y="508" font-family="Times New Roman, Times, serif" font-size="19" font-weight="bold" font-style="normal" fill="#0052C8" text-anchor="start" >Governance Implications:</text>
<circle cx="1385" cy="532" r="3.3" fill="#003CB5" stroke="#003CB5" stroke-width="0" />
<text x="1402" y="537" font-family="Times New Roman, Times, serif" font-size="15.3" font-weight="normal" font-style="normal" fill="#111111" text-anchor="start" >Manual review cost requires budget</text>
<text x="1402" y="561" font-family="Times New Roman, Times, serif" font-size="15.3" font-weight="normal" font-style="normal" fill="#111111" text-anchor="start" >reassessment; data quality needs</text>
<text x="1402" y="585" font-family="Times New Roman, Times, serif" font-size="15.3" font-weight="normal" font-style="normal" fill="#111111" text-anchor="start" >stricter protocols</text>
<rect x="1326" y="622" width="48" height="62" rx="3" ry="3" fill="none" stroke="#4A1DAC" stroke-width="3" />
<path d="M 1340 619 L 1360 619 L 1364 628 L 1336 628 Z" fill="white" stroke="#4A1DAC" stroke-width="3" stroke-linecap="round" stroke-linejoin="round" />
<path d="M 1340 651 L 1348 660 L 1363 642" fill="none" stroke="#4A1DAC" stroke-width="3" stroke-linecap="round" stroke-linejoin="round" />
<line x1="1340" y1="671" x2="1361" y2="671" stroke="#4A1DAC" stroke-width="3" stroke-linecap="butt"/>
<text x="1383" y="648" font-family="Times New Roman, Times, serif" font-size="19" font-weight="bold" font-style="normal" fill="#4A1DAC" text-anchor="start" >Next-Step Priorities:</text>
<circle cx="1385" cy="672" r="3.3" fill="#003CB5" stroke="#003CB5" stroke-width="0" />
<text x="1402" y="677" font-family="Times New Roman, Times, serif" font-size="15.5" font-weight="normal" font-style="normal" fill="#111111" text-anchor="start" >Focus on resolving data</text>
<text x="1402" y="701" font-family="Times New Roman, Times, serif" font-size="15.5" font-weight="normal" font-style="normal" fill="#111111" text-anchor="start" >preprocessing bottlenecks;</text>
<text x="1402" y="725" font-family="Times New Roman, Times, serif" font-size="15.5" font-weight="normal" font-style="normal" fill="#111111" text-anchor="start" >optimize manual review process</text>
<text x="1485" y="787" font-family="Times New Roman, Times, serif" font-size="20" font-weight="bold" font-style="normal" fill="#0052C8" text-anchor="middle" >Structured outputs support</text>
<text x="1485" y="814" font-family="Times New Roman, Times, serif" font-size="20" font-weight="bold" font-style="normal" fill="#0052C8" text-anchor="middle" >system-level judgments.</text>
<rect x="1313" y="830" width="346" height="78" rx="0" ry="0" fill="#E8F3FF" stroke="#79B2F0" stroke-width="1" />
<line x1="1352" y1="837" x2="1352" y2="900" stroke="#0052C8" stroke-width="3" stroke-linecap="butt"/>
<line x1="1321" y1="851" x2="1383" y2="851" stroke="#0052C8" stroke-width="3" stroke-linecap="butt"/>
<line x1="1321" y1="851" x2="1307" y2="884" stroke="#0052C8" stroke-width="3" stroke-linecap="butt"/>
<line x1="1321" y1="851" x2="1335" y2="884" stroke="#0052C8" stroke-width="3" stroke-linecap="butt"/>
<path d="M 1305 884 C 1309 900 1333 900 1337 884" fill="none" stroke="#0052C8" stroke-width="3" stroke-linecap="round" stroke-linejoin="round" />
<line x1="1383" y1="851" x2="1369" y2="884" stroke="#0052C8" stroke-width="3" stroke-linecap="butt"/>
<line x1="1383" y1="851" x2="1397" y2="884" stroke="#0052C8" stroke-width="3" stroke-linecap="butt"/>
<path d="M 1367 884 C 1371 900 1395 900 1399 884" fill="none" stroke="#0052C8" stroke-width="3" stroke-linecap="round" stroke-linejoin="round" />
<line x1="1334" y1="903" x2="1370" y2="903" stroke="#0052C8" stroke-width="4" stroke-linecap="butt"/>
<text x="1396" y="858" font-family="Times New Roman, Times, serif" font-size="16.5" font-weight="bold" font-style="normal" fill="#00266F" text-anchor="start" >Subjective summary is grounded</text>
<text x="1396" y="887" font-family="Times New Roman, Times, serif" font-size="16.5" font-weight="bold" font-style="normal" fill="#00266F" text-anchor="start" >in structured computation.</text>
</svg>