<?xml version="1.0" encoding="UTF-8"?>
<svg id="_图层_1" data-name="图层_1" xmlns="http://www.w3.org/2000/svg" version="1.1" viewBox="0 0 1774 887">
  <!-- Generator: Adobe Illustrator 29.6.0, SVG Export Plug-In . SVG Version: 2.1.1 Build 207)  -->
  <defs>
    <style>
      .st0 {
        fill: #d8e6f6;
      }

      .st1 {
        fill: #b9dbfc;
      }

      .st2 {
        fill: #d1e0f2;
      }

      .st3, .st4, .st5, .st6, .st7, .st8, .st9, .st10, .st11, .st12 {
        fill: #111;
        isolation: isolate;
      }

      .st3, .st5, .st8, .st9 {
        font-family: TimesNewRomanPS-BoldMT, 'Times New Roman';
        font-weight: 700;
      }

      .st3, .st11 {
        font-size: 15px;
      }

      .st13 {
        fill: #42464b;
      }

      .st14 {
        fill: #fdfffc;
      }

      .st15 {
        fill: #c5e9ce;
      }

      .st16 {
        fill: #a9c8d6;
      }

      .st17 {
        fill: #93b7df;
      }

      .st18 {
        fill: #d3f0de;
      }

      .st4, .st5 {
        font-size: 18px;
      }

      .st4, .st6, .st7, .st10, .st11, .st12 {
        font-family: TimesNewRomanPSMT, 'Times New Roman';
      }

      .st19 {
        fill: #21242c;
      }

      .st20 {
        fill: #9ebfe4;
      }

      .st21 {
        fill: #b7d7fc;
      }

      .st22 {
        fill: #aad0f7;
      }

      .st23 {
        fill: #080808;
      }

      .st24 {
        fill: #354448;
      }

      .st25 {
        fill: #96b9e0;
      }

      .st26 {
        fill: #def0dd;
      }

      .st27 {
        fill: #394a41;
      }

      .st28 {
        fill: #151514;
      }

      .st29 {
        fill: #93b6df;
      }

      .st30 {
        fill: #5f5e5f;
      }

      .st31 {
        fill: #bbdafc;
      }

      .st32 {
        fill: #fff;
      }

      .st33 {
        fill: #1d1d1e;
      }

      .st34 {
        fill: #b0d5b7;
      }

      .st35 {
        fill: #b7d7fb;
      }

      .st36 {
        fill: #aacec5;
      }

      .st37 {
        fill: #c0dfc4;
      }

      .st38 {
        fill: #cce6ce;
      }

      .st39 {
        fill: #b3d6bf;
      }

      .st40 {
        fill: #d3e1f3;
      }

      .st41 {
        fill: #dbe8f6;
      }

      .st42 {
        fill: #add3b2;
      }

      .st43 {
        fill: #a9cec9;
      }

      .st44 {
        fill: #e4f3fc;
      }

      .st45 {
        fill: #d0e8d0;
      }

      .st46 {
        fill: #e1f1e0;
      }

      .st47 {
        fill: #b6d7c9;
      }

      .st48 {
        fill: #1c1b1c;
      }

      .st49 {
        fill: #bbdac0;
      }

      .st50 {
        fill: #dbe8f5;
      }

      .st51 {
        fill: #5d5e5e;
      }

      .st6 {
        font-size: 14px;
      }

      .st52 {
        fill: #fcffff;
      }

      .st53 {
        fill: #f1f1f1;
      }

      .st54 {
        fill: #a4cadd;
      }

      .st55 {
        fill: #bddffa;
      }

      .st7 {
        font-size: 17px;
      }

      .st56 {
        fill: #f1feff;
      }

      .st57 {
        fill: #a6c6d6;
      }

      .st58 {
        fill: #d2e1f3;
      }

      .st59 {
        fill: #f2feff;
      }

      .st60 {
        fill: #161a1e;
      }

      .st61 {
        fill: #caede7;
      }

      .st62 {
        fill: #96bcdc;
      }

      .st63 {
        fill: #d1e0f3;
      }

      .st64 {
        fill: #e0ebf8;
      }

      .st65 {
        fill: #8aafda;
      }

      .st8 {
        font-size: 20px;
      }

      .st66 {
        fill: #e0f1e0;
      }

      .st67 {
        fill: #fffeff;
      }

      .st68 {
        fill: #a5c5de;
      }

      .st69 {
        fill: #edfcff;
      }

      .st70 {
        fill: #bbdbea;
      }

      .st71 {
        fill: #efefef;
      }

      .st9, .st10 {
        font-size: 19px;
      }

      .st72 {
        fill: #93b7de;
      }

      .st73 {
        fill: #fefeff;
      }

      .st74 {
        fill: #dae7f7;
      }

      .st75 {
        fill: #dce8f7;
      }

      .st76 {
        fill: #9cbdd9;
      }

      .st77 {
        fill: #87acdb;
      }

      .st78 {
        fill: #a2cbad;
      }

      .st79 {
        fill: #accbcf;
      }

      .st80 {
        fill: #c4e2c7;
      }

      .st81 {
        fill: #aad2b3;
      }

      .st82 {
        fill: #cbe0ea;
      }

      .st83 {
        fill: #afd1c9;
      }

      .st84 {
        fill: #dae8f6;
      }

      .st85 {
        fill: #dcfbde;
      }

      .st86 {
        fill: #c6eccc;
      }

      .st87 {
        fill: #313e4e;
      }

      .st88 {
        fill: #9ebee2;
      }

      .st89 {
        fill: #f4fcf3;
      }

      .st12 {
        font-size: 16px;
      }

      .st90 {
        fill: #0f0e0f;
      }

      .st91 {
        fill: #e5f4fc;
      }

      .st92 {
        fill: #131312;
      }

      .st93 {
        fill: #b1d6b9;
      }

      .st94 {
        fill: #fefefe;
      }

      .st95 {
        fill: #a1c0e5;
      }

      .st96 {
        fill: #0b0c0c;
      }

      .st97 {
        fill: #f5fcf3;
      }

      .st98 {
        fill: #accdcf;
      }

      .st99 {
        fill: #010103;
      }

      .st100 {
        fill: #b0d4bd;
      }

      .st101 {
        fill: #2f3a40;
      }

      .st102 {
        fill: #feffff;
      }

      .st103 {
        fill: #080706;
      }

      .st104 {
        fill: #b9d1ea;
      }

      .st105 {
        fill: #dbe7f6;
      }

      .st106 {
        fill: #f3f3f3;
      }

      .st107 {
        fill: #e0f1df;
      }
    </style>
  </defs>
  <g id="_x23_f1f1f1ff">
    <path class="st53" d="M0,0h.34c-.08.08-.25.25-.34.33v-.33Z"/>
    <path class="st53" d="M233.89,323.88c131.92-.07,263.84-.15,395.75.07-.29,11.21.23,22.44-.25,33.63-.29,4.15-4.55,6.22-8.28,5.93-126.38-.11-252.75,0-379.12-.05-3.53.22-7.41-1.68-8.03-5.46,0-11.37.15-22.75-.07-34.12Z"/>
    <path class="st53" d="M690.77,324.03c52.71-.38,105.44-.03,158.17-.17,79.36-.02,158.73.05,238.09.02,18.92.07,37.85-.16,56.77.1-.01,11.04.09,22.08.03,33.13-.33,3.89-3.97,6.67-7.79,6.33-146.06.03-292.12.03-438.18,0-4.07.22-7.13-3.57-7.05-7.45-.11-10.65,0-21.3-.04-31.96Z"/>
    <path class="st53" d="M1212,327.01c10.99-.58,22.01-.13,33.01-.3,55.67.18,111.35-.18,167.02.12,27.65-.32,55.32.09,82.98-.1,55.02.22,110.05-.23,165.07.19.15,6.69-.02,13.39-.01,20.09.06,4.51-.61,9.14.75,13.55-.36,2.9-2.98,4.69-5.53,5.6-145.82.21-291.66.08-437.49.1-2.4-.5-5.07-1.32-6.13-3.78.73-11.81-.32-23.65.33-35.47Z"/>
    <path class="st53" d="M1210.5,733.9c149.87.06,299.73.02,449.59.03-.08,11.71.14,23.43-.18,35.13-.29,4.49-4.92,6.64-8.92,6.52-73.3.15-146.6-.14-219.9.05-68.38-.03-136.76,0-205.13.03-3.79-.12-7.78.48-11.36-1.04-1.93-.71-2.8-2.67-3.88-4.22-.47-12.16-.15-24.33-.22-36.5Z"/>
    <path class="st53" d="M228.65,735.03c122.69.06,245.4-.05,368.1.08,0,11.29.14,22.58-.08,33.86-.15,3.59-3.41,5.89-6.72,6.32-115.32.13-230.64.09-345.96.11-3.81-.15-7.86.62-11.46-.97-2.82-1.31-3.91-4.61-3.83-7.51-.09-10.63.02-21.26-.05-31.89Z"/>
    <path class="st53" d="M699.85,734.86c132.34.12,264.68-.07,397.02.07-.14,11.03.02,22.05-.08,33.08.11,3.04-2.01,6.39-5.17,6.74-1.87-.33-3.75-.69-5.64-.66-41.32.19-82.65-.12-123.97.18-26.35-.42-52.7.1-79.05-.13-51.99.16-103.99-.1-155.98.03-7.19.19-14.46-.65-21.57.66-4.08-.56-5.52-5.25-5.55-8.83-.04-10.38-.01-20.76-.01-31.14Z"/>
  </g>
  <g id="_x23_fefefeff">
    <path class="st94" d="M.34,0h1773.66v887H0V.33c.09-.08.26-.25.34-.33M239.49,14.58c-4.09.4-7.37,4.33-7.18,8.4.06,18.42.01,36.85-.03,55.27-.77,1.44-.25,3.2-.4,4.77,0,31.23.08,62.47.02,93.69-6.28-4.18-11.57-9.92-18.2-13.5.05,2.68.05,5.36,0,8.05-10.36,0-20.72-.17-31.08.01-.47-14.09,0-28.21-.27-42.31-1.02-3.49-4.65-5.19-7.69-6.63-10.71-4.33-22.27-5.84-33.67-7.18-25.58-2.44-51.42-2.51-76.99.09-10.66,1.22-21.43,2.66-31.57,6.33-3.13,1.22-6.51,2.54-8.56,5.34-1.51,2.04-.83,4.7-.96,7.05-.01,28.37,0,56.75.01,85.12-.03,5.29,5.68,7.58,9.77,9.34,14.57,4.98,30.03,6.49,45.3,7.57,19.65,1.31,39.39.96,59-.86,11.88-1.37,23.94-2.7,35.28-6.73,4.02-1.62,8.99-3.71,10.07-8.38.34-12.46-.21-24.94.28-37.39,10.35.13,20.71.03,31.06.06.09,2.71.09,5.43.06,8.15,6.45-3.94,12.01-9.24,18.16-13.64.03,50.6-.03,101.2.04,151.79.19,9.61-.5,19.34.31,28.88.92,4,4.5,7.3,8.74,7.11,61.76-.07,123.53-.1,185.29-.03-.1,17.37-.07,34.74-.03,52.1-.1,12.63,11.08,23.96,23.77,23.76,136.66.01,273.32,0,409.98.02,6.13-.15,11.67,4.97,11.82,11.13.08,9.8-.02,19.6.04,29.4-2.88.19-5.77.12-8.64.2,4.28,7.89,9.2,15.44,13.29,23.46-56.17-.1-112.34-.04-168.51-.07-4.91-.22-9.79,3.97-9.48,9.04.04,43.84.04,87.67,0,131.5-26.76.18-53.53-.06-80.29.09-.14-2.5.2-5.04-.2-7.5l-.74.07c-6.28,4.03-12.49,8.19-18.92,11.98.05-26.42.06-52.84-.06-79.25.04-19.28.01-38.56.03-57.83.1-1.96-.59-3.82-1.72-5.37l.08-.4c-1.84-1.73-4.02-3.43-6.68-3.39-118-.02-236.01.03-354.01-.01-3.67-.04-7.13,2.33-8.31,5.82-.56,3.4-.3,6.85-.35,10.28.08,82.68-.09,165.36.03,248.04-.05,4.54,3.9,8.89,8.57,8.68,60.65.11,121.32-.13,181.98.1-3.52,6.7-7.8,12.97-11.73,19.42.01.26.03.77.03,1.02,2.62.11,5.24.03,7.87.06.18,9.58-.02,19.17.12,28.75.03,11.39,10.44,21.43,21.8,21.29,45.96,0,91.91-.02,137.87,0,98.38.1,196.77.06,295.16.04,179.97-.08,359.94.01,539.91-.02,4.83-.13,9.77-1.57,13.49-4.75,5.8-4.24,8.79-11.47,8.81-18.53-.08-15.76.03-31.52-.05-47.27,23.54.89,47.17-.32,70.74.23,49.35.04,98.72.07,148.09.05,3.38-.03,7.26-.59,9.46-3.5,2.56-2.92,2.02-7.04,2.07-10.62,0-49.3-.02-98.59.05-147.88,7.04,3.04,14.04,6.21,20.94,9.58-.16-3.06-.4-6.11-.43-9.17,11.73-3.11,21.03-11.78,28.02-21.36,10.1-13.9,16.3-30.16,21.33-46.47,6.42-21.1,10.42-42.84,13.56-64.64,3.97-28.52,6.21-57.25,6.85-86.03.47-47.09-4.19-94.38-15.87-140.06-5.54-19.65-11.62-39.39-21.77-57.23-7.34-13.05-17.07-25.72-30.99-32.12-6.38-3.26-13.73-3.47-20.73-3.41.16-46.76-.05-93.53.02-140.3.18-2.3-.52-4.56-1.99-6.33-2.22-3-6.18-3.33-9.6-3.08-143.63-.04-287.27-.04-430.91-.02-4.59-.56-9.93,1.84-10.72,6.78-.38,31.16.04,62.34-.16,93.5-6.86-3.4-12.66-8.8-19.67-11.84-.02,2.5-.02,5-.13,7.5-14.71-.21-29.43.07-44.13-.16-.07-27.76-.02-55.52-.06-83.28-.12-2.75.48-5.74-.95-8.25-1.33-2.65-4.26-4.29-7.18-4.23-146.35-.02-292.7-.03-439.04-.02-3.7-.2-6.9,2.3-8.51,5.48-.3,16.2-.35,32.47.02,48.67-.12,35.65-.06,71.3,0,106.95l-.51.57c-2.28.57-3.66-1.87-5.5-2.74-5.01-2.96-9.24-7.3-14.61-9.58-.1,2.48-.11,4.97,0,7.45-12.67.17-25.34.08-38.01.08,0-50.11.12-100.24-.22-150.33-.82-4.94-6.11-7.39-10.71-6.51-126.81.09-253.64-.08-380.46.08Z"/>
    <path class="st94" d="M690.73,76.82c17.75.42,35.52.06,53.28.18,133.29,0,266.57-.01,399.86,0,.02,81.75-.01,163.51.02,245.26-151.03.08-302.07.1-453.1-.04-.07-81.8.06-163.6-.06-245.4M967.48,91.24c-.04.3-.14.89-.19,1.19,3.72.66,7.36,3.56,7.43,7.58.91,10.96.25,21.98.64,32.96-.15,3.52,1.97,6.94,5.21,8.35-2,1.48-4.12,3.1-4.82,5.62-2.5,11.15,1.07,22.61-1.12,33.79-.39,2.51-2.28,4.61-4.59,5.57-1.08.68-2.99.78-2.75,2.45,3.56-.92,7.21-2.98,8.28-6.76,2.39-11.75-1.87-23.97,1.68-35.58,1-2.39,3.23-3.79,5.59-4.6.23-1.65-2.54-1.18-3.26-2.39-2.97-2.16-3.34-5.98-3.29-9.36.14-10.01-.67-20-.54-30.01.41-4.66-4.01-8.19-8.27-8.81M822.36,98.43c-2.98,1.29-4.51,4.57-4.58,7.67-.22,7.31,0,14.62.06,21.93.03,4.39,3.76,8.41,8.24,8.29,39.98.04,79.97,0,119.95-.01,4.45.2,8.67-3.84,8.47-8.33-.11-7.63.17-15.27-.13-22.9-.32-4.19-4.21-7.66-8.42-7.41-39.31-.13-78.63-.04-117.94-.05-1.91.07-3.95-.19-5.65.81M800.08,111.15c.19,1.81.77,3.52,1.6,5.14-3.02,1.73-6.18,3.33-8.63,5.87-5.73,5.67-8.45,13.46-10.66,21.03-2.41,8.16-5.03,16.27-7.85,24.3-2.52,5.79-5.96,12.37-12.45,14.34-.36,5.09-.21,10.2-.17,15.29,5.71,1.7,9.66,6.67,11.78,12.04,3.87,9.7,6.61,19.81,9.66,29.79,1.84,5.88,3.91,11.93,8.13,16.57,2.69,3.22,6.24,5.5,9.8,7.64-.96,1.77-1.88,3.56-2.76,5.37,6.16.11,12.32-.29,18.47-.65-1.4-3.64-4.12-6.53-6.02-9.89-1.57-2.05-2.45-4.82-4.75-6.19-.82,1.31-.62,3.76-2.3,4.23-6.5-3.15-10.16-9.77-12.49-16.31-3.22-9.68-5.78-19.58-9.2-29.2-2.49-6.1-5.25-12.47-10.45-16.77,1.92-1.31,4.38-1.44,6.42-2.56,5.33-2.67,9.85-6.89,15.72-8.44,2.09-.19,4.19-.3,6.3-.31-.02,2.05-.04,4.1-.04,6.15,5.51-3.1,10.7-6.76,16.23-9.82-1.17-1.94-3.35-2.78-5.16-3.96-3.72-2.2-7.22-4.74-10.98-6.86-.1,2.05-.07,4.11-.2,6.17-1.1.93-2.82.38-4.12.76-5.2.48-10.12,2.61-14.42,5.47-2.89,1.84-5.66,4.02-9.07,4.77,12.67-14.02,13.4-34,20.98-50.57,2.13-4.8,6.04-8.54,10.68-10.92.72,1.71,1.31,3.47,1.73,5.27,4.18-4.44,7.83-9.38,11.38-14.34-5.51-1.9-11.45-2.3-17.16-3.41M824.52,158.69c-3.88.74-6.85,4.38-6.77,8.33,0,7.32.04,14.64.04,21.97-.12,4.4,3.67,8.77,8.19,8.63,40.04-.05,80.09.03,120.13-.04,4.47,0,8.56-4.06,8.37-8.58.03-7.34-.05-14.67.02-22.01.17-4.52-3.92-8.62-8.43-8.44-40.52.04-81.05-.2-121.55.14M978.07,201.08c-3.17,1.77-5.61,5.21-5.49,8.95.02,28.99-.02,57.99.01,86.99,0,1.99.04,4.02.75,5.92,1.12,4.66,6.09,7.43,10.67,7.29,44.99-.02,89.98,0,134.97.02,3.95.05,8.41.15,11.64-2.54,2.7-2,3.98-5.44,3.88-8.73.03-29.69.07-59.39-.03-89.08-.01-4.61-3.57-9.45-8.4-9.64-7.69-.26-15.41.41-23.07-.46-3.36-.25-6.67.61-10.01.46-14.98-.21-29.98.37-44.93-.37-2.01.52-4.05.35-6.04,0-2.34.8-4.71-.3-7.06,0-6.62.89-13.31-.12-19.95.36-8.34-.24-16.74.48-25.04-.39-3.97-.07-8.22-.64-11.9,1.22M884.14,213.96c-.18,2.21,2.29,1.86,3.75,1.77.71-1.5.5-3-.46-4.34-1.53.02-3.53.61-3.29,2.57M885.28,222.33c-1.45.42-.8,2.18-.93,3.26,1.18,0,3.16.95,3.73-.65,1.07-1.63-1.18-3.82-2.8-2.61M885.31,232.45c-2.54.89-.57,5.18,1.83,3.86,2.54-1.17.73-5.3-1.83-3.86M823.51,249.67c-3.53,1.1-5.85,4.7-5.77,8.34.01,7.01-.06,14.02.03,21.04.04,2.89.91,6.08,3.54,7.68,2.75,2.12,6.38,1.59,9.63,1.65,38.33-.04,76.67-.01,115,0,4.59.34,8.55-3.93,8.52-8.4,0-7.33-.02-14.66-.03-22,.26-4.57-3.78-9.06-8.46-8.72-38.97.03-77.94.01-116.9.01-1.86.06-3.79-.23-5.56.4Z"/>
    <path class="st94" d="M1189.57,127.84c6.58-4.04,12.92-8.48,19.51-12.54.28,13.56.06,27.12.12,40.68-.19,1.69.42,3.73-.85,5.11-6.18-4.14-12.36-8.37-18.8-12.06-.08,2.48-.08,4.95-.01,7.43-14.75.17-29.52.14-44.28.13-.09-12.12-.08-24.24-.02-36.36,14.72-.27,29.45.08,44.17-.17.09,2.59.11,5.18.16,7.78Z"/>
    <path class="st94" d="M1189.57,174.07c6.8-3.6,12.7-8.71,19.5-12.34.36,11.41,0,22.83.16,34.24.22,6-.78,11.98-.05,17.96,0,46.35.03,92.7.02,139.05.04,2.86-.21,5.77.36,8.6,1.13,3.63,4.77,6.06,8.52,6.16,67.59-.15,135.19-.07,202.78-.09-.09,10.85-.04,21.7-.07,32.55-2.69.04-5.37.06-8.03.12,3.77,6.43,8.25,12.41,12.01,18.85-67.26.05-134.52.03-201.78.03-3.5.17-7.44-.74-10.46,1.48-1.88,1.26-2.92,3.41-3.22,5.59-.29,21.58-.01,43.19-.1,64.78.2,13.33-.73,26.64.02,39.96-.64,7.01.37,14.02-.43,21.03,1.02,22.52-.14,45.12.65,67.64-29.98.44-59.98.13-89.96.19-.01-2.57-.06-5.13-.14-7.68-6.56,4.39-13.33,8.45-19.87,12.85,6.5,4.48,13.33,8.46,19.89,12.87.06-2.61.11-5.21.17-7.81,29.98.35,59.96-.23,89.94.3-.74,10.84.25,21.76-.64,32.61.56,8.3.3,16.62.39,24.94.08,27.29-.17,54.59.07,81.88.86,3.91,4.53,7.1,8.62,6.96,67.75.1,135.51-.14,203.27.04.16,16.38.04,32.76.02,49.14-.77,5.63-5.21,10.21-10.82,11.12-30.45-.07-60.89-.04-91.33-.16-24.37.4-48.74-.32-73.1.14-103.65-.12-207.3-.12-310.95.01-57.99-.14-115.97-.07-173.96,0-66.66,0-133.32-.12-199.98.02-41.79-.25-83.58-.17-125.36.02-4.78-.53-8.79-3.61-10.94-7.83-1.22-10.58-.24-21.3-.51-31.94,2.77-.03,5.55-.06,8.33-.14-4.31-6.75-8.69-13.47-12.75-20.37,57.09-.38,114.18.09,171.27-.21,2.18-.63,4.42-1.64,5.63-3.68,2.25-3.2,1.51-7.29,1.63-10.95.04-36.97-.02-73.95.09-110.92,6.55,4.18,13.08,8.4,19.64,12.57.05-2.66.06-5.32.05-7.96,26.73-.22,53.47.1,80.2-.12.37,37.44.02,74.91.17,112.35-.16,5.97,6.03,9.78,11.52,8.88,126-.13,252-.01,378-.06,4.82.53,9.88-2.78,10.25-7.84.34-5.62,0-11.26.12-16.89.08-79.01-.03-158.01.01-237.02.58-5.32-4.09-10.22-9.39-10.01-57.27-.07-114.53,0-171.79-.04-.02-38.63,0-77.25-.01-115.88,2.86-.16,5.74-.23,8.62-.36-4.26-7.93-8.87-15.67-12.98-23.68,72.72-.04,145.45-.02,218.17,0,3.51-.15,7.43.65,10.56-1.4,2.59-1.57,3.82-4.66,3.63-7.61-.08-47.73.02-95.47-.07-143.2,14.75-.08,29.51-.18,44.27-.01-.02,2.61.02,5.22.24,7.82,6.16-4.65,13.32-8.01,19.02-13.23-6.46-3.99-12.61-8.46-19.15-12.28-.07,2.56-.12,5.11-.24,7.66-14.7-.25-29.41.08-44.12-.07.06-12.06-.09-24.12.09-36.19,14.73.09,29.47-.19,44.2.09-.02,2.49,0,4.99.1,7.48Z"/>
    <path class="st94" d="M1662.53,358.96c.16-61.17-.16-122.35.13-183.52,7.55-.43,15.54.58,21.91,4.98,9.02,5.95,15.51,14.94,20.76,24.24,9.2,16.16,14.86,34,20.17,51.73,5.02,18.28,8.78,36.91,11.32,55.7,7.3,50.29,6.8,101.5.73,151.89-2.63,22.85-6.47,45.58-12.02,67.91-5.77,20.36-12.2,41.25-25.39,58.18-4.99,6.62-11.8,11.84-19.65,14.59-.38-2.98-.75-5.95-1.15-8.91-6.32,5.84-11.44,12.86-17.72,18.75-.16-62.18.02-124.36-.11-186.54.33-4.67-3.62-9.14-8.38-8.89-75.54.16-151.1-.3-226.63.2-.58-.94-1.1-1.89-1.5-2.88.4-.05,1.2-.16,1.61-.22.32.31.98.91,1.31,1.22,2.95-6.04,7.38-11.22,10.98-16.88-2.69-.41-5.4-.42-8.09-.37-.1-10.83-.24-21.65-.04-32.48,74.69-.07,149.37.16,224.05-.08,4.34-.35,7.79-4.29,7.71-8.62Z"/>
    <path class="st94" d="M228.61,570.61c122.74-.05,245.48-.18,368.22.08-.23,54.34,0,108.68-.11,163.02-122.53-.09-245.07.03-367.6-.05l-.47-.6c.09-54.15.14-108.3-.04-162.45M246.54,611.43c-.39,28.17,0,56.37-.14,84.56-.58,5.97,4.5,11.61,10.54,11.43,103.7.03,207.4,0,311.09.01,4.8.43,9.68-2.47,11.22-7.11.56-2.74.31-5.56.35-8.33.02-26.69-.03-53.37.02-80.05-.04-4.99-4.82-9-9.61-9.19-104.31.01-208.63.01-312.94,0-5.08-.32-9.88,3.62-10.53,8.68Z"/>
    <path class="st94" d="M699.73,570.68c82.44-.21,164.88-.02,247.32-.12,50.07.18,100.13-.19,150.19.2-.62,5.04-.64,10.15-.2,15.22-.67,6.32.03,12.68.06,19.02.5,3.65-.78,7.29,0,10.94.33,5.67.13,11.38-.33,17.04-.33,4.69.99,9.34.29,14.03.62,6.35-.68,12.67-.26,19.03-.44,14.36,1.17,28.63-.04,42.97-.1,8.17.31,16.37-.22,24.52-130.17-.33-260.34.12-390.51-.16-2.02-.44-5.21,1.18-6.24-1.22-.06-3.72.01-7.43.15-11.14-.33-32.34.1-64.65-.13-96.97-.22-17.8.31-35.58-.08-53.36M716.78,598.97c-.09,16.69.02,33.38-.05,50.07-.14,5.49,4.82,10.28,10.28,10.13,114.66-.07,229.33.03,343.99-.03,4.89.01,9.93-3.98,9.69-9.14-.04-17.01,0-34.03-.02-51.04.02-2.97-1.76-5.72-4.13-7.38-2.74-2.07-6.39-1.17-9.56-1.34-114,.08-228,0-342,.05-4.58.08-7.67,4.47-8.2,8.68M716.76,679.96c.02,10.67-.04,21.34-.02,32.01-.08,5.32,4.87,10.11,10.23,9.65,114.7-.09,229.4.03,344.1-.03,4.38.19,8.72-3.07,9.55-7.4.19-11.05-.02-22.11.05-33.16.28-4.78-3.97-9.29-8.78-9.26-115.28,0-230.57.05-345.85-.07-4.7-.1-8.53,3.79-9.28,8.26Z"/>
  </g>
  <g id="_x23_21242cff">
    <path class="st19" d="M239.49,14.58c126.82-.16,253.65.01,380.46-.08,4.6-.88,9.89,1.57,10.71,6.51.34,50.09.22,100.22.22,150.33,12.67,0,25.34.09,38.01-.08-.11-2.48-.1-4.97,0-7.45,5.37,2.28,9.6,6.62,14.61,9.58,1.84.87,3.22,3.31,5.5,2.74l.51-.57c-.06-35.65-.12-71.3,0-106.95.49,2.52.79,5.07,1.13,7.61.02.15.07.45.09.6.12,81.8-.01,163.6.06,245.4,151.03.14,302.07.12,453.1.04-.03-81.75,0-163.51-.02-245.26-.01-.5-.01-1.5-.02-2,.01-17.01,0-34.03.01-51.04.24-3.32-1.59-7.04-5.08-7.74-4.56-.59-9.18-.2-13.75-.26-142.01-.04-284.02-.03-426.03,0-3.87-.56-7.74,2.02-8.06,6.04-.36-.52-1.09-1.54-1.45-2.06,1.61-3.18,4.81-5.68,8.51-5.48,146.34-.01,292.69,0,439.04.02,2.92-.06,5.85,1.58,7.18,4.23,1.43,2.51.83,5.5.95,8.25.04,27.76-.01,55.52.06,83.28,14.7.23,29.42-.05,44.13.16.11-2.5.11-5,.13-7.5,7.01,3.04,12.81,8.44,19.67,11.84.2-31.16-.22-62.34.16-93.5.4-.26,1.2-.79,1.6-1.05-.44,15.88-.11,31.79-.19,47.69,110.75-.14,221.51,0,332.26-.06,39.33.09,78.67-.13,118.01.07.03-14.64,0-29.28.02-43.91-.02-1.54-.4-3.04-.69-4.53l.05-.46c.04-.36.13-1.07.17-1.43,1.47,1.77,2.17,4.03,1.99,6.33-.07,46.77.14,93.54-.02,140.3,7-.06,14.35.15,20.73,3.41,13.92,6.4,23.65,19.07,30.99,32.12,10.15,17.84,16.23,37.58,21.77,57.23,11.68,45.68,16.34,92.97,15.87,140.06-.64,28.78-2.88,57.51-6.85,86.03-3.14,21.8-7.14,43.54-13.56,64.64-5.03,16.31-11.23,32.57-21.33,46.47-6.99,9.58-16.29,18.25-28.02,21.36.03,3.06.27,6.11.43,9.17-6.9-3.37-13.9-6.54-20.94-9.58-.07,49.29-.05,98.58-.05,147.88-.05,3.58.49,7.7-2.07,10.62-2.2,2.91-6.08,3.47-9.46,3.5-49.37.02-98.74,0-148.09-.05-23.57-.55-47.2.66-70.74-.23l-.11-1.19c73.3-.19,146.6.1,219.9-.05,4,.12,8.63-2.03,8.92-6.52.32-11.7.1-23.42.18-35.13-149.86-.01-299.72.03-449.59-.03.07,12.17-.25,24.34.22,36.5-.36-.15-1.06-.43-1.42-.57-.24-27.29.01-54.59-.07-81.88-.09-8.32.17-16.64-.39-24.94.89-10.85-.1-21.77.64-32.61.83-3.53.89-7.2-.03-10.72-.79-22.52.37-45.12-.65-67.64.8-7.01-.21-14.02.43-21.03-.75-13.32.18-26.63-.02-39.96.09-21.59-.19-43.2.1-64.78.36-.3,1.08-.9,1.44-1.2-.32,17.69-.29,35.39-.06,53.08l1.25.03c56.03-.11,112.05-.03,168.08-.02,35.98-.13,71.96.26,107.94-.25,27.01.46,54.03.02,81.05.21,30.33.05,60.66-.06,91,.03.03.42.08,1.27.11,1.69-149.87.09-299.74-.03-449.61.02,0,84.23-.09,168.45.1,252.68,149.8-.05,299.61-.13,449.42,0,.15-84.23-.07-168.46.09-252.69,1.45-.64,1.41-1.2-.11-1.69l-.09-.75c.2-17.24.28-34.5-.06-51.73-1.07-3.84-5.14-5.37-8.78-5.19-74.62-.04-149.25.11-223.86-.07l-.72-1.14c75.53-.5,151.09-.04,226.63-.2,4.76-.25,8.71,4.22,8.38,8.89.13,62.18-.05,124.36.11,186.54,6.28-5.89,11.4-12.91,17.72-18.75.4,2.96.77,5.93,1.15,8.91,7.85-2.75,14.66-7.97,19.65-14.59,13.19-16.93,19.62-37.82,25.39-58.18,5.55-22.33,9.39-45.06,12.02-67.91,6.07-50.39,6.57-101.6-.73-151.89-2.54-18.79-6.3-37.42-11.32-55.7-5.31-17.73-10.97-35.57-20.17-51.73-5.25-9.3-11.74-18.29-20.76-24.24-6.37-4.4-14.36-5.41-21.91-4.98-.29,61.17.03,122.35-.13,183.52.08,4.33-3.37,8.27-7.71,8.62.12-.36.35-1.07.47-1.42,2.55-.91,5.17-2.7,5.53-5.6.45-11.64.06-23.29.17-34.94-150.1.12-300.21-.27-450.32-.05.08,10.81.01,21.62.05,32.42-.07,1.55.32,3.07.95,4.49,1.06,2.46,3.73,3.28,6.13,3.78.07.37.21,1.11.28,1.48-3.75-.1-7.39-2.53-8.52-6.16-.57-2.83-.32-5.74-.36-8.6.01-46.35-.02-92.7-.02-139.05-.73-5.98.27-11.96.05-17.96-.16-11.41.2-22.83-.16-34.24-6.8,3.63-12.7,8.74-19.5,12.34-.1-2.49-.12-4.99-.1-7.48-14.73-.28-29.47,0-44.2-.09-.18,12.07-.03,24.13-.09,36.19,14.71.15,29.42-.18,44.12.07.12-2.55.17-5.1.24-7.66,6.54,3.82,12.69,8.29,19.15,12.28-5.7,5.22-12.86,8.58-19.02,13.23-.22-2.6-.26-5.21-.24-7.82-14.76-.17-29.52-.07-44.27.01.09,47.73-.01,95.47.07,143.2.19,2.95-1.04,6.04-3.63,7.61-3.13,2.05-7.05,1.25-10.56,1.4-72.72-.01-145.45-.03-218.17,0,4.11,8.01,8.72,15.75,12.98,23.68-2.88.13-5.76.2-8.62.36.01,38.63-.01,77.25.01,115.88,57.26.05,114.52-.03,171.79.04,5.3-.21,9.97,4.69,9.39,10.01-.04,79.01.07,158.01-.01,237.02-.12,5.63.22,11.27-.12,16.89-.37,5.06-5.43,8.37-10.25,7.84-126,.05-252-.07-378,.06-5.49.9-11.68-2.91-11.52-8.88-.15-37.44.2-74.91-.17-112.35-26.73.22-53.47-.1-80.2.12,0,2.64,0,5.3-.05,7.96-6.56-4.17-13.09-8.39-19.64-12.57-.11,36.97-.05,73.95-.09,110.92-.12,3.66.62,7.75-1.63,10.95-1.21,2.04-3.45,3.05-5.63,3.68-.29-.34-.87-1-1.16-1.34,3.31-.43,6.57-2.73,6.72-6.32.22-11.28.08-22.57.08-33.86-122.7-.13-245.41-.02-368.1-.08,0-.67,0-1.32,0-1.97l.47.6c122.53.08,245.07-.04,367.6.05.11-54.34-.12-108.68.11-163.02l1.47.19c.12,26.41.11,52.83.06,79.25,6.43-3.79,12.64-7.95,18.92-11.98l.74-.07c.4,2.46.06,5,.2,7.5,26.76-.15,53.53.09,80.29-.09.04-43.83.04-87.66,0-131.5-.31-5.07,4.57-9.26,9.48-9.04,56.17.03,112.34-.03,168.51.07-4.09-8.02-9.01-15.57-13.29-23.46,2.87-.08,5.76-.01,8.64-.2-.06-9.8.04-19.6-.04-29.4-.15-6.16-5.69-11.28-11.82-11.13-136.66-.02-273.32,0-409.98-.02-12.69.2-23.87-11.13-23.77-23.76-.04-17.36-.07-34.73.03-52.1-61.76-.07-123.53-.04-185.29.03-4.24.19-7.82-3.11-8.74-7.11.43.03,1.29.1,1.72.13.62,3.78,4.5,5.68,8.03,5.46,126.37.06,252.74-.06,379.12.05,3.73.29,7.99-1.78,8.28-5.93.48-11.19-.04-22.42.25-33.63-131.91-.22-263.83-.14-395.75-.07,0-.39.04-1.17.05-1.56,131.85.25,263.71-.05,395.56.14.14-81.83-.1-163.67.14-245.5-130.88-.24-261.77-.03-392.65-.11-.82-.07-2.46-.21-3.28-.28h-.05c-.04.05-.12.16-.16.21-.31.37-.91,1.1-1.22,1.47.04-18.42.09-36.85.03-55.27-.19-4.07,3.09-8,7.18-8.4M234.26,20.5c-.45,1.79-.53,3.63-.48,5.47.22,16.42-.11,32.84.15,49.26l1.13-.09c131.47.04,262.95.03,394.42-.02-.03-17.67-.03-35.34-.01-53-.19-4.24-4.6-6.68-8.48-6.21-126.32-.04-252.64.01-378.96-.02-3.2-.25-6.9,1.31-7.77,4.61M1210.66,69.64c.03,84.75-.09,169.49.08,254.23,58.41-.28,116.82.02,175.23-.09,14.32.71,28.7.51,43.02.16,20.01-.24,40.02.7,60.02-.12,4.68.21,9.35.38,14.04.11,27.62-.12,55.25-.09,82.88-.09,24.99.13,49.99-.29,74.98.22.3-29.34.04-58.69.12-88.04.09-55.46.01-110.92,0-166.39-150.12,0-300.25-.04-450.37.01M1191.18,105.01c-.1,2.35.61,4.98-.87,7.04-15.03-.41-30.09-.17-45.13-.05.14,2.23.12,4.47.14,6.7,14.55.03,29.11-.03,43.67.05,3.49-.28,1.83,4.34,2.23,6.3,3.83-2.27,7.58-4.7,11.3-7.16,1.25-.89,2.71-1.61,3.68-2.86-3.82-3.09-8.26-5.38-12.3-8.19-.93-.62-1.82-1.22-2.72-1.83M1189.57,127.84c-.05-2.6-.07-5.19-.16-7.78-14.72.25-29.45-.1-44.17.17-.06,12.12-.07,24.24.02,36.36,14.76.01,29.53.04,44.28-.13-.07-2.48-.07-4.95.01-7.43,6.44,3.69,12.62,7.92,18.8,12.06,1.27-1.38.66-3.42.85-5.11-.06-13.56.16-27.12-.12-40.68-6.59,4.06-12.93,8.5-19.51,12.54M1191.14,151.5c.01,2.15-.04,4.3-.24,6.44-15.22.6-30.46-.02-45.68.29.02,2.22.02,4.43.01,6.65,14.61.22,29.23.1,43.84.07,3.44-.17,1.73,4.41,2.11,6.46,5.2-2.96,10.04-6.51,15.08-9.75-4.81-3.71-10-6.92-15.12-10.16M670.17,165.9c.06,2.32.03,4.65-.23,6.97-13.02-.27-26.05.15-39.07-.24-.07,2.96-.03,5.93.09,8.89,12.93-.12,25.86.16,38.79-.06.59,2.28.49,4.64.44,6.97,5.8-3.02,10.57-7.65,16.27-10.82-4.81-4.61-10.89-7.8-16.29-11.71M1662.63,165.69c-.04,2.69-.05,5.38-.04,8.08,4.81,0,9.74-.07,14.38,1.48,7.98,2.34,14.5,7.94,19.73,14.22,7.25,8.51,12.5,18.49,17.09,28.62,7.84,18.27,13.51,37.41,17.89,56.79,5.29,23.71,8.78,47.83,10.42,72.05l.23.17c.23,4.42.49,8.85.84,13.28-.32,1.5-.1,3.04-.01,4.57l.27.17c.53,15.65.33,31.32.03,46.97l-.29-.17c-.08,1.54-.32,3.12.02,4.66-.45,4.9-.5,9.82-.83,14.73l-.25-.27c.04.62.11,1.85.15,2.47-.42,3.11-.67,6.24-.88,9.37-1.18,12.24-2.63,24.48-4.08,36.69-.75,4.02-1.14,8.09-1.9,12.11-.61,4.28-2.05,8.49-2.15,12.83-2.14,11.3-4.92,22.47-7.62,33.64l-.25-.16c-5.3,19-12.21,38.13-24.64,53.72-5.4,6.85-12.66,12.17-21.03,14.72-1.29-2.24-1.05-4.93-1.46-7.37-5.15,4.82-9.72,10.23-14.35,15.54,5.88,2.04,11.31,5.14,17.07,7.49-.36-2.42-.68-4.83-1.02-7.23,5.85-1.96,11.72-4.23,16.48-8.29,13.42-10.86,21.61-26.66,27.8-42.46,7.88-21.04,13.11-42.97,16.76-65.11,8.09-49.17,11.32-99.21,8.16-148.96-3.5-45.76-10.98-91.82-28.64-134.42-7.53-16.29-16.39-33.28-31.83-43.4-7.58-5.25-17.03-6.62-26.05-6.53M685.22,180.09c-5.31,3.63-10.48,7.49-15.96,10.83-1.08-2.34-.24-5.18-.42-7.72-12.63.02-25.26.02-37.89,0-.15,56.26-.05,112.54-.05,168.81-.07,2.92.57,6.13-1.15,8.73-1.4,2.86-4.67,4.33-7.75,4.19-61.77.13-123.54-.13-185.31.08-.05,16.68-.09,33.37,0,50.05.42,3.93,1.36,8.14,4.32,10.98,2.96,2.7,7.06,3.83,11.01,3.63,133.98.07,267.97-.02,401.95,0,5.45,0,11.32-.48,16.27,2.28,7.47,3.71,12.25,11.83,12.54,20.07.04,9.83-.2,19.66.1,29.48,2.89-.04,5.82-.32,8.69.23-5.1,7.43-9.19,15.49-13.67,23.3,9.84-.07,19.69-.16,29.54-.02.21-38.59-.22-77.17,0-115.76-2.92-.24-5.84-.33-8.74-.47,4.06-7.96,8.21-15.89,12.44-23.77-71.04-.01-142.08,0-213.12.01-4.38.19-8.63-3.45-8.55-7.94,0-59.09.01-118.17-.03-177.26-.13-.48-.37-1.43-.5-1.91-1.56-.1-2.48,1.52-3.72,2.19M1191.16,197.86c-.13,2.16.51,4.61-.92,6.5-14.98.02-29.96.08-44.94.04,0,2.18-.01,4.37-.03,6.56,15.2.45,30.42,0,45.63.28.25,2.08.29,4.18.24,6.29,5.26-2.86,10.05-6.55,15.11-9.76-4.83-3.6-9.95-6.8-15.09-9.91M690.77,324.03c.04,10.66-.07,21.31.04,31.96-.08,3.88,2.98,7.67,7.05,7.45,146.06.03,292.12.03,438.18,0,3.82.34,7.46-2.44,7.79-6.33.06-11.05-.04-22.09-.03-33.13-18.92-.26-37.85-.03-56.77-.1-79.36.03-158.73-.04-238.09-.02-52.73.14-105.46-.21-158.17.17M427.67,364.98v1.1c.03,14.31-.04,28.61,0,42.91.04,4.67-.4,9.46,1.05,13.98,1.82,6.86,7.14,13.16,14.26,14.71,1.66.96,3.78,1.41,5.71,1.21,5.09.56,10.23.21,15.34.34,104.65-.02,209.3-.04,313.95-.04,28.23-.02,56.48.03,84.71-.03,5.64,1.8,10.5,6.74,10.46,12.94-.03,10.23.26,20.47-.23,30.69-2.44.1-4.88.15-7.3.2,4.18,6.6,7.56,13.69,11.9,20.18,3.25-7,7.65-13.38,11.26-20.2-2.51-.05-5-.12-7.48-.26-.19-10.91-.01-21.82-.22-32.73-.75-7.18-5.41-14.4-12.41-16.82l-.07-.29c-1.41-.36-2.83-1.14-4.29-.89-2.06-.51-4.17-.6-6.27-.58-135.34.03-270.68-.13-406.03-.03-3.53.26-6.79-1.16-9.98-2.43-2.96-2.39-4.88-5.59-6.5-8.95-.42-18.32-.01-36.66-.25-54.99-2.55-.03-5.09-.05-7.62-.02M911.51,366.78c-3.1,7.08-7.03,13.74-10.4,20.69,2.45.03,4.93.06,7.4.05.15,1.05.35,2.1.61,3.15-.45,13.63-.28,27.35.13,40.98-.42,24.44-.04,48.9-.16,73.35,1.33-.02,2.67-.05,4.02-.09l1.13.44c.37-.16,1.11-.49,1.49-.65-.04-28.57-.01-57.15-.06-85.71.35-10.35-.61-20.78.37-31.07,2.25-.86,4.89-.28,7.3-.55-2.63-5.21-5.53-10.28-8.31-15.4-1.09-1.79-1.87-3.84-3.52-5.19M701.11,510.1c-2.45,5.35-.38,11.28-1.11,16.89-.08,13.94-.26,27.88.11,41.83,132.24.02,264.47-.07,396.71.02-.08-18.3.15-36.6-.06-54.9.05-2.96-1.92-6.49-5.04-6.77-3.19-.95-6.52-.51-9.77-.57-31.64-.02-63.28.02-94.92.04-30.79.16-61.6-.34-92.39.16l-.63-.24-.61.24c-10.8-.44-21.62-.13-32.43-.24-50.31.04-100.62.03-150.92.04-1.56,0-3.09.19-4.59.53-1.83-.13-3.48,1.47-4.35,2.97M699.73,570.68c.39,17.78-.14,35.56.08,53.36.23,32.32-.2,64.63.13,96.97-.14,3.71-.21,7.42-.15,11.14,1.03,2.4,4.22.78,6.24,1.22,130.17.28,260.34-.17,390.51.16.53-8.15.12-16.35.22-24.52,1.21-14.34-.4-28.61.04-42.97-.42-6.36.88-12.68.26-19.03.7-4.69-.62-9.34-.29-14.03.46-5.66.66-11.37.33-17.04-.78-3.65.5-7.29,0-10.94-.03-6.34-.73-12.7-.06-19.02-.44-5.07-.42-10.18.2-15.22-50.06-.39-100.12-.02-150.19-.2-82.44.1-164.88-.09-247.32.12M600.39,650.46c5.13,3.82,10.76,6.95,16.24,10.26.02-2.2.07-4.38.24-6.56,27.18-.27,54.36,0,81.54-.13.01-2.36.02-4.71-.02-7.06-27.16-.25-54.33.11-81.5-.07-.17-2.18-.24-4.37-.26-6.55-5.4,3.4-10.75,6.86-16.24,10.11M699.85,734.86c0,10.38-.03,20.76.01,31.14.03,3.58,1.47,8.27,5.55,8.83,4.15.87,8.41.37,12.61.49,120.33.01,240.65.03,360.98-.06,4.2-.15,8.48.46,12.62-.51,3.16-.35,5.28-3.7,5.17-6.74.1-11.03-.06-22.05.08-33.08-132.34-.14-264.68.05-397.02-.07Z"/>
    <path class="st19" d="M822.36,98.43c1.7-1,3.74-.74,5.65-.81,39.31,0,78.63-.08,117.94.05,4.21-.25,8.1,3.22,8.42,7.41.3,7.63.02,15.27.13,22.9.2,4.49-4.02,8.53-8.47,8.33-39.98.02-79.97.05-119.95.01-4.48.12-8.21-3.9-8.24-8.29-.06-7.31-.28-14.62-.06-21.93.07-3.1,1.6-6.38,4.58-7.67M824.14,99.35c-2.9.73-4.91,3.64-4.76,6.59-.08,7.35-.04,14.71.01,22.06-.13,3.27,2.41,6.21,5.57,6.85,2.67.36,5.38.13,8.07.15,37.34.11,74.67,0,112.01.08,2.86.12,6.17-1.18,7.18-4.09,1.77-4.42.76-9.32,1-13.96-.27-4.94.83-10.2-1.36-14.84-1.49-2.74-4.99-3.4-7.84-3.35-38.67.16-77.35.02-116.02.08-1.32-.03-2.6.12-3.86.43Z"/>
    <path class="st19" d="M824.52,158.69c40.5-.34,81.03-.1,121.55-.14,4.51-.18,8.6,3.92,8.43,8.44-.07,7.34.01,14.67-.02,22.01.19,4.52-3.9,8.59-8.37,8.58-40.04.07-80.09,0-120.13.04-4.52.14-8.31-4.23-8.19-8.63,0-7.33-.04-14.65-.04-21.97-.08-3.95,2.89-7.59,6.77-8.33M824.18,160.34c-2.84.79-4.81,3.68-4.81,6.58-.12,7.69-.08,15.38.06,23.07.22,3.76,3.94,6.48,7.6,6.15,39.32.05,78.64.04,117.96.07,3.41.17,6.98-1.95,7.69-5.45,1.13-4.83.28-9.87.57-14.8-.2-4.66.85-9.99-2.21-13.96-2.13-2-5.27-2.26-8.05-2.2-35.32,0-70.65.04-105.98-.01-4.28.18-8.63-.37-12.83.55Z"/>
    <path class="st19" d="M978.07,201.08c3.68-1.86,7.93-1.29,11.9-1.22,8.3.87,16.7.15,25.04.39,6.64-.48,13.33.53,19.95-.36,2.35-.31,4.72.79,7.06,0,1.99.36,4.03.53,6.04,0,14.95.74,29.95.16,44.93.37,3.34.15,6.65-.71,10.01-.46,7.66.87,15.38.2,23.07.46,4.83.19,8.39,5.03,8.4,9.64.1,29.69.06,59.39.03,89.08.1,3.29-1.18,6.73-3.88,8.73-3.23,2.69-7.69,2.59-11.64,2.54-44.99-.02-89.98-.04-134.97-.02-4.58.14-9.55-2.63-10.67-7.29-.71-1.9-.75-3.93-.75-5.92-.03-29,0-58-.01-86.99-.12-3.74,2.32-7.18,5.49-8.95M973.83,211.01c.02,29.34.06,58.68,0,88.01.12,3.56,1.96,7.74,5.66,8.71,1.65.91,3.6.76,5.43.8,43.7-.01,87.39-.02,131.09.01,3.91-.08,7.91.44,11.76-.62,3.49-1.5,5.6-5.18,5.44-8.94.14-29.34,0-58.67-.04-88,.37-3.86-1.91-7.56-5.42-9.09-5.57-.81-11.2-.31-16.79-.43-39.99-.05-79.98-.01-119.97-.03-3.91.07-7.85-.24-11.71.49-3.43,1.67-5.52,5.31-5.45,9.09Z"/>
    <path class="st19" d="M716.78,598.97c.53-4.21,3.62-8.6,8.2-8.68,114-.05,228,.03,342-.05,3.17.17,6.82-.73,9.56,1.34,2.37,1.66,4.15,4.41,4.13,7.38.02,17.01-.02,34.03.02,51.04.24,5.16-4.8,9.15-9.69,9.14-114.66.06-229.33-.04-343.99.03-5.46.15-10.42-4.64-10.28-10.13.07-16.69-.04-33.38.05-50.07M718.3,598.97c-.13,16-.08,32.01-.08,48.01-.03,2.65.04,5.6,1.91,7.7,2.1,2.63,5.68,3.21,8.86,3.12,113.68-.1,227.36-.05,341.04-.02,4.07.28,7.87-2.18,9.2-6.05.46-7.58.13-15.18.23-22.77-.19-10.57.31-21.17-.25-31.73-.89-1.53-1.61-3.28-3.14-4.24-3.27-2.21-7.4-1.52-11.11-1.61-111.33.02-222.66.01-334,0-2.31.01-4.65-.13-6.9.42-3.24.72-5.7,3.88-5.76,7.17Z"/>
    <path class="st19" d="M716.76,679.96c.75-4.47,4.58-8.36,9.28-8.26,115.28.12,230.57.07,345.85.07,4.81-.03,9.06,4.48,8.78,9.26-.07,11.05.14,22.11-.05,33.16-.83,4.33-5.17,7.59-9.55,7.4-114.7.06-229.4-.06-344.1.03-5.36.46-10.31-4.33-10.23-9.65-.02-10.67.04-21.34.02-32.01M720.5,675.07l-.15,1.13.08-.71c-1.24,1.55-2.3,3.37-2.17,5.43-.1,10.01.06,20.03-.08,30.04-.1,1.92.35,3.8,1.17,5.55l.1-.82-.04,1.25c2.19,1.75,4.65,3.56,7.62,3.39,114.33.06,228.67-.02,343,.04,4.7.31,9.69-3.36,9.52-8.33-.13-10.36,0-20.72-.03-31.08.07-4.4-4.15-8.2-8.54-7.72-114.99.08-229.98-.02-344.97-.02-2.04-.19-3.78.97-5.51,1.85Z"/>
    <path class="st19" d="M1407.96,845.8c4.55.15,8.96-1.29,12.89-3.51.4.08,1.2.25,1.59.33-3.72,3.18-8.66,4.62-13.49,4.75-179.97.03-359.94-.06-539.91.02l.07-1.72c8.4.05,16.8.02,25.21,0,59.54.31,119.1.04,178.65.14,111.66-.02,223.33-.04,334.99-.01Z"/>
  </g>
  <g id="_x23_151514ff">
    <path class="st28" d="M1209.32,21.24c.79-4.94,6.13-7.34,10.72-6.78,143.64-.02,287.28-.02,430.91.02,3.42-.25,7.38.08,9.6,3.08-.04.36-.13,1.07-.17,1.43-2-1.88-4.48-3.3-7.31-3.06-145.05.23-290.11,0-435.16.06-3.07-.26-5.31,1.94-6.99,4.2-.4.26-1.2.79-1.6,1.05Z"/>
    <path class="st28" d="M1224.9,97.01c.39-5.28,4.71-10.12,10.13-10.32,35.96-.02,71.93-.01,107.89-.01,5.41.64,9.66,5.88,9.6,11.29.07,48.01-.02,96.03.04,144.04-.08,4.18-2.79,8.18-6.59,9.9-2.49,1.3-5.37,1.01-8.05,1.07-33.98-.09-67.96,0-101.94-.04-5.59.3-10.47-4.43-10.86-9.92-.65-6.64-.39-13.37.08-20.01-.57-7.65-.69-15.38.04-23.03-.01-3.67-.89-7.32-.22-10.99-.1-6.63-.55-13.3.19-19.93-.55-12.31-.68-24.7,0-37.02-.41-5-.75-10.05-.11-15.04-.34-1.65-.33-3.33-.03-4.98-.49-4.98-.33-10.01-.17-15.01M1227.06,94.27c-1.05,4.51-.36,9.15-.57,13.72.02,42.33-.01,84.65.01,126.98.12,3.56-.52,7.27.84,10.68,1.12,4.06,5.7,6.03,9.64,5.87,34.66-.1,69.32-.03,103.98-.02,3.23.03,6.64-1.39,8.32-4.28,2.32-3.27,1.23-7.45,1.7-11.17.74-6.67-.62-13.35.12-20.02.39-4.69-.23-9.38-.29-14.07.84-31.66.03-63.36.35-95.01-.06-4.28.35-8.7-.9-12.86-1.45-4.19-5.99-6.39-10.22-6.22-34.35-.06-68.7,0-103.04-.05-4.23-.03-8.55,2.3-9.94,6.45Z"/>
    <path class="st28" d="M1380.21,87.32c2.11-1.07,4.55-.56,6.84-.66,35.3.02,70.6,0,105.9.02,3.96-.03,7.48,2.79,9.21,6.22,1.27,2.48,1.08,5.36,1.13,8.07.04,46.98.03,93.97-.03,140.95.16,5.95-5.29,11.28-11.22,11.03-36.04.03-72.09.04-108.13,0-6.68.03-11.32-6.62-10.86-12.92.24-42.34-.34-84.68.07-127.01.1-5.6-.47-11.23.17-16.81.53-3.93,3.15-7.5,6.92-8.88M1375.25,94.55c-.86,2.75-.57,5.64-.58,8.47.05,43.64.05,87.27.01,130.91.1,4.64-.78,9.66,1.85,13.82,1.32,1.31,2.84,3,4.82,3.08,4.75,1.24,9.73.37,14.6.62,30.34-.04,60.68,0,91.02.01,2.88-.04,5.85.28,8.64-.74,4.23-.87,6.48-5.68,6.25-9.72-.03-47.7-.02-95.41-.01-143.11.06-3.47-1.76-7.11-4.97-8.63-4.05-1.9-8.62-1.35-12.93-1.41-32.66.01-65.31-.03-97.96.02-4.47-.15-9.57,1.99-10.74,6.68Z"/>
    <path class="st28" d="M1529.47,87.75c1.39-.73,2.94-1.19,4.57-1.11,33.98-.01,67.97.01,101.95.02,5.85-.02,10.57,5.76,10.32,11.44-.05,47.94-.03,95.88-.04,143.83.18,5.98-5.22,11.34-11.2,11.02-33.7.03-67.4.06-101.1,0-6.11-.09-10.94-5.93-10.61-11.9.01-47.33-.04-94.67,0-142.01-.25-4.48,1.86-9.36,6.11-11.28M1524.81,97.99c.02,47.98.03,95.96,0,143.94-.1,4.07,2.7,7.72,6.47,9.08,4.53.84,9.16.31,13.75.43,28.66.03,57.32-.04,85.99.02,2.52-.05,5.14.27,7.57-.71,3.86-.77,6.17-5,6.39-8.72-.06-48.35.04-96.7-.08-145.05-.27-3.89-3.06-7.6-6.93-8.51-4.27-1.01-8.68-.42-13-.37-30.36.05-60.72-.09-91.07.06-5.13-.02-9.41,4.78-9.1,9.83Z"/>
    <path class="st28" d="M967.48,91.24c4.26.62,8.68,4.15,8.27,8.81-.13,10.01.68,20,.54,30.01-.05,3.38.32,7.2,3.29,9.36.72,1.21,3.49.74,3.26,2.39-2.36.81-4.59,2.21-5.59,4.6-3.55,11.61.71,23.83-1.68,35.58-1.07,3.78-4.72,5.84-8.28,6.76-.24-1.67,1.67-1.77,2.75-2.45,2.31-.96,4.2-3.06,4.59-5.57,2.19-11.18-1.38-22.64,1.12-33.79.7-2.52,2.82-4.14,4.82-5.62-3.24-1.41-5.36-4.83-5.21-8.35-.39-10.98.27-22-.64-32.96-.07-4.02-3.71-6.92-7.43-7.58.05-.3.15-.89.19-1.19Z"/>
    <path class="st28" d="M1217.8,366.26c145.83-.02,291.67.11,437.49-.1-.12.35-.35,1.06-.47,1.42-74.68.24-149.36.01-224.05.08-.55-.01-1.08-.02-1.6-.02-2.46-.03-4.9-.01-7.34,0h-.97c-67.59.02-135.19-.06-202.78.09-.07-.37-.21-1.11-.28-1.48Z"/>
    <path class="st28" d="M596.35,509.05c.06-.35.2-1.03.26-1.37,1.13,1.55,1.82,3.41,1.72,5.37-.02,19.27.01,38.55-.03,57.83l-1.47-.19c-122.74-.26-245.48-.13-368.22-.08.18,54.15.13,108.3.04,162.45,0,.65,0,1.3,0,1.97.07,10.63-.04,21.26.05,31.89-.08,2.9,1.01,6.2,3.83,7.51,3.6,1.59,7.65.82,11.46.97,115.32-.02,230.64.02,345.96-.11.29.34.87,1,1.16,1.34-57.09.3-114.18-.17-171.27.21,4.06,6.9,8.44,13.62,12.75,20.37-2.78.08-5.56.11-8.33.14.27,10.64-.71,21.36.51,31.94-.39-.18-1.16-.53-1.55-.7-.14-.39-.42-1.16-.55-1.54-.28-10.28-.06-20.56-.12-30.84,2.45-.43,4.95-.42,7.44-.37-3.81-5.91-7.35-11.98-11.14-17.89-3.19,6.18-7.34,11.79-10.65,17.9,2.44,0,4.87.09,7.3.31-.02,8.94.03,17.88-.03,26.82-.1,3.45.47,6.9,1.61,10.17,1.57,4.05,4.6,7.37,8.29,9.62,1.91,1.15,4,2.01,6.19,2.52,3.75.63,7.57.41,11.36.43,43.64-.05,87.28.02,130.92-.04l.04,1.67c-45.96-.03-91.91,0-137.87,0-11.36.14-21.77-9.9-21.8-21.29-.14-9.58.06-19.17-.12-28.75-2.63-.03-5.25.05-7.87-.06,0-.25-.02-.76-.03-1.02,3.93-6.45,8.21-12.72,11.73-19.42-60.66-.23-121.33.01-181.98-.1-4.67.21-8.62-4.14-8.57-8.68-.12-82.68.05-165.36-.03-248.04.05-3.43-.21-6.88.35-10.28.22.24.66.73.88.97.32,19.41.07,38.83.16,58.25,19.08-.22,38.17-.05,57.26-.12,103.6.08,207.21-.09,310.81.09-.13-14.62-.05-29.24-.07-43.87-.06-5.33.27-10.67-.38-15.97Z"/>
    <path class="st28" d="M246.54,611.43c.65-5.06,5.45-9,10.53-8.68,104.31.01,208.63.01,312.94,0,4.79.19,9.57,4.2,9.61,9.19-.05,26.68,0,53.36-.02,80.05-.04,2.77.21,5.59-.35,8.33-.2-.37-.58-1.12-.77-1.5-.23-28.6.02-57.22-.13-85.82.21-4.97-4.34-9.19-9.26-8.77-104.03.05-208.07,0-312.1.05-4.23-.3-7.66,2.59-9.18,6.35-.32.2-.95.6-1.27.8Z"/>
  </g>
  <g id="_x23_d1e0f3ff">
    <path class="st63" d="M234.26,20.5c.87-3.3,4.57-4.86,7.77-4.61,126.32.03,252.64-.02,378.96.02,3.88-.47,8.29,1.97,8.48,6.21-.02,17.66-.02,35.33.01,53-131.47.05-262.95.06-394.42.02-.4-12.04-.13-24.09-.27-36.13-.06-6.17.61-12.4-.53-18.51Z"/>
    <path class="st63" d="M1737.3,479.57c.91,4.42-.15,8.83-.74,13.21-.29-.28-.87-.83-1.16-1.1.76-4.02,1.15-8.09,1.9-12.11Z"/>
    <path class="st63" d="M1733.25,504.51c.14,1.16.24,2.33.29,3.51-1.62,10.4-4.51,20.54-6.98,30.76-.23-.16-.7-.47-.93-.63,2.7-11.17,5.48-22.34,7.62-33.64Z"/>
  </g>
  <g id="_x23_d1e0f2ff">
    <path class="st2" d="M690.94,22c.32-4.02,4.19-6.6,8.06-6.04,142.01-.03,284.02-.04,426.03,0,4.57.06,9.19-.33,13.75.26,3.49.7,5.32,4.42,5.08,7.74-.01,17.01,0,34.03-.01,51.04-150.91-.06-301.82.01-452.72-.03.02-17.66-.38-35.31-.19-52.97Z"/>
  </g>
  <g id="_x23_cce6ceff">
    <path class="st38" d="M1210.92,20.19c1.68-2.26,3.92-4.46,6.99-4.2,145.05-.05,290.11.17,435.16-.06,2.83-.24,5.31,1.18,7.31,3.06l-.05.46c-.89,6.16.26,12.38-.17,18.57-.58,9.35.5,18.7-.01,28.05-16.04.62-32.09.04-48.13.05-21.02.34-42.04-.29-63.05.14-30.68-.02-61.35-.22-92.03.02-55.33-.4-110.65.31-165.98-.28-18.66.53-37.34-.1-56,0-7.53.45-15.07.31-22.58-.35-.45-14.22.05-28.46-.19-42.68-.32-.7-.95-2.09-1.27-2.78Z"/>
  </g>
  <g id="_x23_42464bff">
    <path class="st13" d="M689.51,68.61c-.37-16.2-.32-32.47-.02-48.67.36.52,1.09,1.54,1.45,2.06-.19,17.66.21,35.31.19,52.97,150.9.04,301.81-.03,452.72.03.01.5.01,1.5.02,2-133.29-.01-266.57,0-399.86,0-17.76-.12-35.53.24-53.28-.18-.02-.15-.07-.45-.09-.6-.34-2.54-.64-5.09-1.13-7.61Z"/>
  </g>
  <g id="_x23_e1f1e0ff">
    <path class="st46" d="M1660.33,19.45c.29,1.49.67,2.99.69,4.53-.02,14.63.01,29.27-.02,43.91-39.34-.2-78.68.02-118.01-.07-110.75.05-221.51-.08-332.26.06.08-15.9-.25-31.81.19-47.69.32.69.95,2.08,1.27,2.78.24,14.22-.26,28.46.19,42.68,7.51.66,15.05.8,22.58.35,18.66-.1,37.34.53,56,0,55.33.59,110.65-.12,165.98.28,30.68-.24,61.35-.04,92.03-.02,21.01-.43,42.03.2,63.05-.14,16.04-.01,32.09.57,48.13-.05.51-9.35-.57-18.7.01-28.05.43-6.19-.72-12.41.17-18.57Z"/>
    <path class="st46" d="M1524.81,97.99c-.31-5.05,3.97-9.85,9.1-9.83,30.35-.15,60.71-.01,91.07-.06,4.32-.05,8.73-.64,13,.37,3.87.91,6.66,4.62,6.93,8.51.12,48.35.02,96.7.08,145.05-.22,3.72-2.53,7.95-6.39,8.72-8.13-1.44-16.45-.47-24.65-.65-26.32-.24-52.66.3-78.97-.33-1.36.02-2.59.44-3.69,1.24-3.77-1.36-6.57-5.01-6.47-9.08.02-47.98.01-95.96,0-143.94Z"/>
    <path class="st46" d="M594.16,508.01l.84-.4c.34.36,1.01,1.08,1.35,1.44.65,5.3.32,10.64.38,15.97.02,14.63-.06,29.25.07,43.87-103.6-.18-207.21-.01-310.81-.09-19.09.07-38.18-.1-57.26.12-.09-19.42.16-38.84-.16-58.25l1.33.65c.74,3.5.12,7.12.19,10.67.02,15.22-.14,30.44.01,45.67,12.92-1.51,25.93-.59,38.89-.79,26,.03,52.01-.03,78.01-.03,11.35.47,22.7-.24,34.05.08,21.99.13,43.99-.4,65.98.13,10.32-.2,20.63-.66,30.95-.2,31.66-.23,63.31.05,94.97-.04,7.35-.15,14.68,1.12,22.02.29.41-11.36.08-22.73.3-34.09-.41-8.33.53-16.77-1.11-25Z"/>
    <path class="st46" d="M247.81,610.63c1.52-3.76,4.95-6.65,9.18-6.35,104.03-.05,208.07,0,312.1-.05,4.92-.42,9.47,3.8,9.26,8.77.15,28.6-.1,57.22.13,85.82-1.08,2.42-2.57,4.73-4.84,6.19-1.19-.35-2.4-.57-3.61-.67-101.35,0-202.7,0-304.05,0-4.2.19-8.62-.81-12.62.84-3.78-1.34-5.87-5.39-5.6-9.26,0-28.43-.08-56.87.05-85.3Z"/>
  </g>
  <g id="_x23_f2feffff">
    <path class="st59" d="M234.26,20.5c1.14,6.11.47,12.34.53,18.51.14,12.04-.13,24.09.27,36.13l-1.13.09c-.26-16.42.07-32.84-.15-49.26-.05-1.84.03-3.68.48-5.47Z"/>
  </g>
  <g id="_x23_fefeffff">
    <path class="st73" d="M1210.66,69.64c150.12-.05,300.25-.01,450.37-.01.01,55.47.09,110.93,0,166.39-.08,29.35.18,58.7-.12,88.04-24.99-.51-49.99-.09-74.98-.22-27.63,0-55.26-.03-82.88.09-4.69.27-9.36.1-14.04-.11-20,.82-40.01-.12-60.02.12-14.32.35-28.7.55-43.02-.16-58.41.11-116.82-.19-175.23.09-.17-84.74-.05-169.48-.08-254.23M1224.9,97.01c-.16,5-.32,10.03.17,15.01-.3,1.65-.31,3.33.03,4.98-.64,4.99-.3,10.04.11,15.04-.68,12.32-.55,24.71,0,37.02-.74,6.63-.29,13.3-.19,19.93-.67,3.67.21,7.32.22,10.99-.73,7.65-.61,15.38-.04,23.03-.47,6.64-.73,13.37-.08,20.01.39,5.49,5.27,10.22,10.86,9.92,33.98.04,67.96-.05,101.94.04,2.68-.06,5.56.23,8.05-1.07,3.8-1.72,6.51-5.72,6.59-9.9-.06-48.01.03-96.03-.04-144.04.06-5.41-4.19-10.65-9.6-11.29-35.96,0-71.93-.01-107.89.01-5.42.2-9.74,5.04-10.13,10.32M1380.21,87.32c-3.77,1.38-6.39,4.95-6.92,8.88-.64,5.58-.07,11.21-.17,16.81-.41,42.33.17,84.67-.07,127.01-.46,6.3,4.18,12.95,10.86,12.92,36.04.05,72.09.04,108.13,0,5.93.25,11.38-5.08,11.22-11.03.06-46.98.07-93.97.03-140.95-.05-2.71.14-5.59-1.13-8.07-1.73-3.43-5.25-6.25-9.21-6.22-35.3-.01-70.6,0-105.9-.02-2.29.1-4.73-.41-6.84.66M1529.47,87.75c-4.25,1.92-6.36,6.8-6.11,11.28-.04,47.34.01,94.68,0,142.01-.33,5.97,4.5,11.81,10.61,11.9,33.7.07,67.4.04,101.1,0,5.98.32,11.38-5.04,11.2-11.02.01-47.95-.01-95.89.04-143.83.25-5.68-4.47-11.46-10.32-11.44-33.98-.01-67.97-.03-101.95-.02-1.63-.08-3.18.38-4.57,1.11Z"/>
  </g>
  <g id="_x23_131312ff">
    <path class="st92" d="M233.5,76.78s.12-.16.16-.21h.05l-.21.21Z"/>
  </g>
  <g id="_x23_1c1b1cff">
    <path class="st48" d="M690.64,76.22c.02.15.07.45.09.6-.02-.15-.07-.45-.09-.6Z"/>
  </g>
  <g id="_x23_5f5e5fff">
    <path class="st30" d="M233.5,76.78l.21-.21c.25,1.8.31,3.61.31,5.42-.09,80.11.07,160.22-.08,240.33-1.62.45-1.63.97-.05,1.56.22,11.37.08,22.75.07,34.12-.43-.03-1.29-.1-1.72-.13-.81-9.54-.12-19.27-.31-28.88-.07-50.59,0-101.19-.04-151.79,0-.12,0-.36,0-.49.06-31.22-.02-62.46-.02-93.69.15-1.57-.37-3.33.4-4.77.31-.37.91-1.1,1.22-1.47Z"/>
  </g>
  <g id="_x23_ffffffff">
    <path class="st32" d="M233.71,76.57c.82.07,2.46.21,3.28.28,130.88.08,261.77-.13,392.65.11-.24,81.83,0,163.67-.14,245.5-131.85-.19-263.71.11-395.56-.14.15-80.11-.01-160.22.08-240.33,0-1.81-.06-3.62-.31-5.42M264.36,103.63c-3.5,1.63-5.37,5.64-5.18,9.38.04,10.68-.05,21.36.01,32.04-.13,4.74,3.94,9.43,8.81,9.27,107.34.04,214.67.03,322.01,0,5.06.32,9.67-4.31,9.45-9.36-.08-10.99.04-22-.11-32.99.01-4.59-3.6-9.15-8.35-9.24-105.67-.02-211.33-.01-316.99-.01-3.22.16-6.65-.6-9.65.91Z"/>
    <path class="st32" d="M1375.25,94.55c.16,1.8.37,3.6.45,5.41-.07,43.03.06,86.06-.02,129.08-.3,6.26.28,12.48.85,18.71-2.63-4.16-1.75-9.18-1.85-13.82.04-43.64.04-87.27-.01-130.91.01-2.83-.28-5.72.58-8.47Z"/>
    <path class="st32" d="M820.14,254.46c1.38,6.1.34,12.35.59,18.53.06,3.3.5,6.75-.94,9.85-.9-5.91-.17-11.91-.44-17.86.23-3.5-.63-7.2.79-10.52Z"/>
    <path class="st32" d="M1210.67,325.57c150.11-.22,300.22.17,450.32.05-.11,11.65.28,23.3-.17,34.94-1.36-4.41-.69-9.04-.75-13.55,0-6.7.16-13.4.01-20.09-55.02-.42-110.05.03-165.07-.19-27.66.19-55.33-.22-82.98.1-55.67-.3-111.35.06-167.02-.12-11,.17-22.02-.28-33.01.3-.65,11.82.4,23.66-.33,35.47-.63-1.42-1.02-2.94-.95-4.49-.04-10.8.03-21.61-.05-32.42Z"/>
    <path class="st32" d="M1659.42,456.99c.24-10.44-.62-20.93.44-31.32.34,17.23.26,34.49.06,51.73-1.21-6.74-.22-13.61-.5-20.41Z"/>
    <path class="st32" d="M1210.51,479.86c149.87-.05,299.74.07,449.61-.02-.16,84.23.06,168.46-.09,252.69-149.81-.12-299.62-.04-449.42,0-.19-84.23-.1-168.45-.1-252.68M1267.97,520.52c-7.69,1.51-15.88,2.51-22.57,6.86-3.03,1.67-2.63,5.71-.7,8.09,20.4,30.08,40.14,60.61,60.05,91.02.6,1.16,1.76,2.17,1.62,3.61.05,13.24.07,26.48.05,39.72,10.27,1,20.68.05,31,.51.26-1.42.39-2.87.38-4.3-.06-12.37-.08-24.75-.03-37.13,20.89-31.56,41.49-63.33,61.89-95.2.94-1.76.8-4.24-.82-5.54-2.48-2.22-5.69-3.32-8.78-4.31-14.95-4.38-30.56-5.48-46.01-6.58-25.38-1.06-50.95-.75-76.08,3.25M1385.9,572.26c3.28,1.33,6.57,2.68,9.68,4.39.07-1.33.15-2.66.25-3.97,13.29-.13,26.59.04,39.89-.08-.01-.33-.02-1-.02-1.33-13.29-.13-26.58.02-39.87-.07-.07-1.32-.12-2.63-.17-3.94-3.08,1.98-7.06,2.54-9.76,5M1317.43,677.39c-.42,8.32.1,16.66-.27,24.98-2.45-.03-4.88-.04-7.31,0,2.63,4.8,6.18,9.04,9.2,13.61,1.46,1.85,2.44,4.36,4.79,5.29,4.22-6.42,9.12-12.39,13.17-18.92-2.48-.09-4.95-.08-7.4-.04-.34-8.35-.12-16.71-.1-25.06-3.89-.6-8.49-1.03-12.08.14Z"/>
    <path class="st32" d="M1335.36,628.99c-.19-1.32.59-3.22,2.29-2.41-1.13,1.21-1.44,2.76-1.28,4.35.15,12.53-.08,25.05.12,37.58-7.82.16-15.64.07-23.45.11-1.88-.08-3.83.25-5.56-.56,9.13-1.57,18.49-.19,27.71-.84.01-.79.02-2.35.02-3.14.33-11.69,0-23.4.15-35.09Z"/>
    <path class="st32" d="M253.36,705.19c4-1.65,8.42-.65,12.62-.84,101.35,0,202.7,0,304.05,0,1.21.1,2.42.32,3.61.67-5.78,1.25-11.77,1.3-17.63.75-98.66-.04-197.31-.02-295.97,0-2.24,0-4.49-.08-6.68-.57Z"/>
    <path class="st32" d="M705.41,774.83c7.11-1.31,14.38-.47,21.57-.66,51.99-.13,103.99.13,155.98-.03,26.35.23,52.7-.29,79.05.13,41.32-.3,82.65.01,123.97-.18,1.89-.03,3.77.33,5.64.66-4.14.97-8.42.36-12.62.51-120.33.09-240.65.07-360.98.06-4.2-.12-8.46.38-12.61-.49Z"/>
  </g>
  <g id="_x23_e0f1dfff">
    <path class="st107" d="M1227.06,94.27c1.39-4.15,5.71-6.48,9.94-6.45,34.34.06,68.69-.01,103.04.05,4.23-.17,8.77,2.03,10.22,6.22,1.25,4.16.84,8.58.9,12.86-.32,31.65.49,63.35-.35,95.01.06,4.69.68,9.38.29,14.07-.74,6.67.62,13.35-.12,20.02-.47,3.72.62,7.9-1.7,11.17-1.68,2.89-5.09,4.31-8.32,4.28-34.66,0-69.32-.08-103.98.02-3.94.16-8.52-1.81-9.64-5.87,1.11-14.52-.14-29.14.59-43.69.14-3.65-.19-7.3-.24-10.96.37-26.98-.08-53.98.19-80.96-.54-5.24.72-10.66-.82-15.77Z"/>
  </g>
  <g id="_x23_e0f1e0ff">
    <path class="st66" d="M1375.25,94.55c1.17-4.69,6.27-6.83,10.74-6.68,32.65-.05,65.3-.01,97.96-.02,4.31.06,8.88-.49,12.93,1.41,3.21,1.52,5.03,5.16,4.97,8.63-.01,47.7-.02,95.41.01,143.11.23,4.04-2.02,8.85-6.25,9.72-5.16-1.1-10.45-.41-15.66-.66-25.34.09-50.68-.26-76.01.01-7.53.17-15.2-1.05-22.59.76-1.98-.08-3.5-1.77-4.82-3.08-.57-6.23-1.15-12.45-.85-18.71.08-43.02-.05-86.05.02-129.08-.08-1.81-.29-3.61-.45-5.41Z"/>
    <path class="st66" d="M440.51,429.06l1.53-.12c3.19,1.27,6.45,2.69,9.98,2.43,135.35-.1,270.69.06,406.03.03,2.1-.02,4.21.07,6.27.58-3.77.81-7.63.65-11.44.66-17.12.03-34.26-.34-51.37.21-18.97-.42-38-.37-56.98.05-19.16-.47-38.36-.15-57.53-.26-20.48.31-40.97-.42-61.43.35-5.51-.61-11.05-.33-16.56-.17-53.9-.25-107.8-.05-161.7-.13-2.49-.76-4.81-1.97-6.8-3.63Z"/>
  </g>
  <g id="_x23_fdfffcff">
    <path class="st14" d="M1227.06,94.27c1.54,5.11.28,10.53.82,15.77-.27,26.98.18,53.98-.19,80.96.05,3.66.38,7.31.24,10.96-.73,14.55.52,29.17-.59,43.69-1.36-3.41-.72-7.12-.84-10.68-.02-42.33.01-84.65-.01-126.98.21-4.57-.48-9.21.57-13.72Z"/>
  </g>
  <g id="_x23_dae8f6ff">
    <path class="st84" d="M824.14,99.35c1.26-.31,2.54-.46,3.86-.43,38.67-.06,77.35.08,116.02-.08,2.85-.05,6.35.61,7.84,3.35,2.19,4.64,1.09,9.9,1.36,14.84-.24,4.64.77,9.54-1,13.96-1.01,2.91-4.32,4.21-7.18,4.09-37.34-.08-74.67.03-112.01-.08-2.69-.02-5.4.21-8.07-.15-3.16-.64-5.7-3.58-5.57-6.85-.05-7.35-.09-14.71-.01-22.06-.15-2.95,1.86-5.86,4.76-6.59Z"/>
  </g>
  <g id="_x23_080808ff">
    <path class="st23" d="M264.36,103.63c3-1.51,6.43-.75,9.65-.91,105.66,0,211.32-.01,316.99.01,4.75.09,8.36,4.65,8.35,9.24.15,10.99.03,22,.11,32.99.22,5.05-4.39,9.68-9.45,9.36-107.34.03-214.67.04-322.01,0-4.87.16-8.94-4.53-8.81-9.27-.06-10.68.03-21.36-.01-32.04-.19-3.74,1.68-7.75,5.18-9.38M267,104.18c-3.74.5-6.66,4.09-6.4,7.84.02,11.32-.08,22.64.05,33.95.14,4.77,5.03,7.41,9.35,7.08,106.34-.08,212.66-.03,318.99,0,4.29.31,8.66-2.55,9.05-7.04.33-10.36.06-20.73.18-31.09.11-3.43-.46-7.56-3.56-9.62-3.63-1.83-7.82-1.3-11.73-1.26-66.3.03-132.61.07-198.92.06-34.99.1-69.98-.38-104.98-.21-4.01.1-8.05-.29-12.03.28Z"/>
    <path class="st23" d="M800.08,111.15c5.71,1.11,11.65,1.51,17.16,3.41-3.55,4.96-7.2,9.9-11.38,14.34-.42-1.8-1.01-3.56-1.73-5.27-4.64,2.38-8.55,6.12-10.68,10.92-7.58,16.57-8.31,36.55-20.98,50.57,3.41-.75,6.18-2.93,9.07-4.77,4.3-2.86,9.22-4.99,14.42-5.47,1.3-.38,3.02.17,4.12-.76.13-2.06.1-4.12.2-6.17,3.76,2.12,7.26,4.66,10.98,6.86,1.81,1.18,3.99,2.02,5.16,3.96-5.53,3.06-10.72,6.72-16.23,9.82,0-2.05.02-4.1.04-6.15-2.11,0-4.21.12-6.3.31-5.87,1.55-10.39,5.77-15.72,8.44-2.04,1.12-4.5,1.25-6.42,2.56,5.2,4.3,7.96,10.67,10.45,16.77,3.42,9.62,5.98,19.52,9.2,29.2,2.33,6.54,5.99,13.16,12.49,16.31,1.68-.47,1.48-2.92,2.3-4.23,2.3,1.37,3.18,4.14,4.75,6.19,1.9,3.36,4.62,6.25,6.02,9.89-6.15.36-12.31.76-18.47.65.88-1.81,1.8-3.6,2.76-5.37-3.56-2.14-7.11-4.42-9.8-7.64-4.22-4.64-6.29-10.69-8.13-16.57-3.05-9.98-5.79-20.09-9.66-29.79-2.12-5.37-6.07-10.34-11.78-12.04-.04-5.09-.19-10.2.17-15.29,6.49-1.97,9.93-8.55,12.45-14.34,2.82-8.03,5.44-16.14,7.85-24.3,2.21-7.57,4.93-15.36,10.66-21.03,2.45-2.54,5.61-4.14,8.63-5.87-.83-1.62-1.41-3.33-1.6-5.14M801.89,112.82c.52,1.49.96,3.02.94,4.62-9.42,3.3-15.22,12.33-17.73,21.59-4.17,12.02-6.39,24.9-12.99,35.94-2.07,3.69-5.51,6.33-9.33,8.01-.05,4.35-.12,8.71.23,13.05,5.8,2.12,9.54,7.42,11.88,12.89,4.01,9.41,6.45,19.37,9.65,29.06,1.77,6.61,4.31,13.27,9.21,18.22,2.59,2.89,6.25,4.39,9.23,6.79-.74,1.41-1.47,2.84-2.16,4.28,4.74-.1,9.47-.54,14.21-.58-2.58-4.37-5.48-8.56-8.26-12.81-.62,1.39-1.21,2.78-1.8,4.17-5.45-2.96-10.53-7.2-12.83-13.14-3.86-9.65-6.38-19.78-9.52-29.68-2.96-8.43-6.46-17.63-14.42-22.58,8.54-.42,14.88-6.63,22.31-9.95,3.28-1.72,7.02-1.48,10.61-1.5.2,1.62.23,3.25.31,4.89,4.6-1.94,8.61-5.03,12.68-7.89-4.26-2.45-8.22-5.37-12.51-7.77-.08,1.72-.11,3.45-.12,5.18-2.86.3-5.7.61-8.53,1-8.99,1.5-14.97,10.54-24.46,10.28,1.28-1.83,3.28-2.96,4.73-4.65,4.33-4.94,6.87-11.11,8.89-17.28,3.14-9.65,5.7-19.48,9.32-28.96,2.36-6.12,7.37-11.97,13.82-13.69.47,1.29.97,2.57,1.48,3.85,2.87-3.73,5.85-7.39,8.74-11.11-4.53-.76-9.01-1.82-13.58-2.23Z"/>
    <path class="st23" d="M1385.9,572.26c2.7-2.46,6.68-3.02,9.76-5,.05,1.31.1,2.62.17,3.94,13.29.09,26.58-.06,39.87.07,0,.33.01,1,.02,1.33-13.3.12-26.6-.05-39.89.08-.1,1.31-.18,2.64-.25,3.97-3.11-1.71-6.4-3.06-9.68-4.39Z"/>
    <path class="st23" d="M1099.48,625.04c6.54-4.4,13.31-8.46,19.87-12.85.08,2.55.13,5.11.14,7.68,29.98-.06,59.98.25,89.96-.19.92,3.52.86,7.19.03,10.72-29.98-.53-59.96.05-89.94-.3-.06,2.6-.11,5.2-.17,7.81-6.56-4.41-13.39-8.39-19.89-12.87M1101.74,625.05c5.58,3.35,10.9,7.14,16.52,10.43-.03-2.18-.06-4.35-.08-6.52,20.6-.04,41.21-.11,61.82-.07,9.63-.16,19.29.7,28.92-.17.77-2.14.29-4.57.27-6.81-.84-1.37-2.82-.53-4.11-.77-28.99-.01-57.99.13-86.97-.07.03-2.13.06-4.26.06-6.37-5.62,3.21-11.01,6.82-16.43,10.35Z"/>
  </g>
  <g id="_x23_dae7f7ff">
    <path class="st74" d="M267,104.18c3.98-.57,8.02-.18,12.03-.28,35-.17,69.99.31,104.98.21,66.31.01,132.62-.03,198.92-.06,3.91-.04,8.1-.57,11.73,1.26,3.1,2.06,3.67,6.19,3.56,9.62-.12,10.36.15,20.73-.18,31.09-.39,4.49-4.76,7.35-9.05,7.04-106.33-.04-212.65-.09-318.99,0-4.32.33-9.21-2.31-9.35-7.08-.13-11.31-.03-22.63-.05-33.95-.26-3.75,2.66-7.34,6.4-7.84Z"/>
  </g>
  <g id="_x23_96b9e0ff">
    <path class="st25" d="M1191.18,105.01c.9.61,1.79,1.21,2.72,1.83-.58,2.21-1.31,4.91.47,6.8,2.7,1.47,6.1,1.67,8.15,4.25-3.72,2.46-7.47,4.89-11.3,7.16-.4-1.96,1.26-6.58-2.23-6.3-14.56-.08-29.12-.02-43.67-.05-.02-2.23,0-4.47-.14-6.7.46.22,1.36.65,1.81.86,11,.25,22.01-.56,33,.06,3.44.07,7.04.44,10.32-.87,1.48-2.06.77-4.69.87-7.04Z"/>
  </g>
  <g id="_x23_87acdbff">
    <path class="st77" d="M1193.9,106.84c4.04,2.81,8.48,5.1,12.3,8.19-.97,1.25-2.43,1.97-3.68,2.86-2.05-2.58-5.45-2.78-8.15-4.25-1.78-1.89-1.05-4.59-.47-6.8Z"/>
  </g>
  <g id="_x23_aad0f7ff">
    <path class="st22" d="M1145.18,112c15.04-.12,30.1-.36,45.13.05-3.28,1.31-6.88.94-10.32.87-10.99-.62-22,.19-33-.06-.45-.21-1.35-.64-1.81-.86Z"/>
  </g>
  <g id="_x23_0f0e0fff">
    <path class="st90" d="M63.99,115.24c25.57-2.6,51.41-2.53,76.99-.09,11.4,1.34,22.96,2.85,33.67,7.18,3.04,1.44,6.67,3.14,7.69,6.63.27,14.1-.2,28.22.27,42.31,10.36-.18,20.72-.01,31.08-.01.06-2.69.06-5.37,0-8.05,6.63,3.58,11.92,9.32,18.2,13.5,0,.13,0,.37,0,.49-6.15,4.4-11.71,9.7-18.16,13.64.03-2.72.03-5.44-.06-8.15-10.35-.03-20.71.07-31.06-.06-.49,12.45.06,24.93-.28,37.39-1.08,4.67-6.05,6.76-10.07,8.38-11.34,4.03-23.4,5.36-35.28,6.73-19.61,1.82-39.35,2.17-59,.86-15.27-1.08-30.73-2.59-45.3-7.57-4.09-1.76-9.8-4.05-9.77-9.34-.01-28.37-.02-56.75-.01-85.12.13-2.35-.55-5.01.96-7.05,2.05-2.8,5.43-4.12,8.56-5.34,10.14-3.67,20.91-5.11,31.57-6.33M76.45,115.61c-12.91.93-25.87,2.31-38.41,5.64-4.03,1.21-8.24,2.34-11.62,4.95-1.39,1.11-2.9,3.15-1.6,4.89,2.24,3.11,6.21,4.21,9.64,5.5,15.72,4.65,32.17,5.99,48.46,6.95,14.01.74,28.07.83,42.06-.17,14.13-.63,28.31-2.18,42.03-5.74,4.68-1.47,9.89-2.65,13.39-6.32,1.64-3.7-2.69-6.04-5.45-7.32-11.77-4.8-24.54-6.32-37.08-7.68-20.41-1.91-40.98-1.94-61.42-.7M24.26,132.96c.08,28.7.03,57.4.01,86.1-.26,3.42,3.24,5.45,5.89,6.77,10.08,4.36,21.1,5.79,31.88,7.34,20.25,2.08,40.67,2.74,61,1.53,16.46-.97,33.14-2.45,48.86-7.72,3.64-1.38,8.74-3.33,8.87-7.92,0-28.68.05-57.37-.01-86.05-4.6,3.36-10.14,5.07-15.58,6.55-11.51,2.66-23.27,4.2-35.05,4.94-26.37,1.7-52.99,1.25-79.13-2.77-9.21-1.65-18.98-3.15-26.74-8.77M214.95,165.6c-.62,2.31,1.28,5.99-1.31,7.32-9.84-.72-19.74-.11-29.61-.28l-1.49.03c0,2.88-.03,5.76-.09,8.64,10.58-.09,21.17.05,31.75-.12.28.32.83.96,1.1,1.27-.06,1.95-.1,3.9-.11,5.85,5.05-3.63,10.05-7.34,14.83-11.33-5.19-3.58-9.58-8.28-15.07-11.38Z"/>
    <path class="st90" d="M1209.3,769.83c.36.14,1.06.42,1.42.57,1.08,1.55,1.95,3.51,3.88,4.22,3.58,1.52,7.57.92,11.36,1.04,68.37-.03,136.75-.06,205.13-.03l.11,1.19c.08,15.75-.03,31.51.05,47.27-.02,7.06-3.01,14.29-8.81,18.53-.39-.08-1.19-.25-1.59-.33,3.85-3.01,7.01-7.06,8.09-11.91,1.39-6.69.33-13.58.65-20.35-.28-11.11.52-22.29-.44-33.35-2.19.13-4.36.2-6.52.27.03,16.7-.03,33.4-.1,50.1-.33-.27-.99-.81-1.32-1.08.02-16.38.14-32.76-.02-49.14-67.76-.18-135.52.06-203.27-.04-4.09.14-7.76-3.05-8.62-6.96Z"/>
  </g>
  <g id="_x23_8aafdaff">
    <path class="st65" d="M801.89,112.82c4.57.41,9.05,1.47,13.58,2.23-2.89,3.72-5.87,7.38-8.74,11.11-.51-1.28-1.01-2.56-1.48-3.85-6.45,1.72-11.46,7.57-13.82,13.69-3.62,9.48-6.18,19.31-9.32,28.96-2.02,6.17-4.56,12.34-8.89,17.28-1.45,1.69-3.45,2.82-4.73,4.65,9.49.26,15.47-8.78,24.46-10.28,2.83-.39,5.67-.7,8.53-1,.01-1.73.04-3.46.12-5.18,4.29,2.4,8.25,5.32,12.51,7.77-4.07,2.86-8.08,5.95-12.68,7.89-.08-1.64-.11-3.27-.31-4.89-3.59.02-7.33-.22-10.61,1.5-7.43,3.32-13.77,9.53-22.31,9.95,7.96,4.95,11.46,14.15,14.42,22.58,3.14,9.9,5.66,20.03,9.52,29.68,2.3,5.94,7.38,10.18,12.83,13.14.59-1.39,1.18-2.78,1.8-4.17,2.78,4.25,5.68,8.44,8.26,12.81-4.74.04-9.47.48-14.21.58.69-1.44,1.42-2.87,2.16-4.28-2.98-2.4-6.64-3.9-9.23-6.79-4.9-4.95-7.44-11.61-9.21-18.22-3.2-9.69-5.64-19.65-9.65-29.06-2.34-5.47-6.08-10.77-11.88-12.89-.35-4.34-.28-8.7-.23-13.05,3.82-1.68,7.26-4.32,9.33-8.01,6.6-11.04,8.82-23.92,12.99-35.94,2.51-9.26,8.31-18.29,17.73-21.59.02-1.6-.42-3.13-.94-4.62Z"/>
  </g>
  <g id="_x23_f3f3f3ff">
    <path class="st106" d="M76.45,115.61c20.44-1.24,41.01-1.21,61.42.7,12.54,1.36,25.31,2.88,37.08,7.68,2.76,1.28,7.09,3.62,5.45,7.32-3.5,3.67-8.71,4.85-13.39,6.32-13.72,3.56-27.9,5.11-42.03,5.74-13.99,1-28.05.91-42.06.17-16.29-.96-32.74-2.3-48.46-6.95-3.43-1.29-7.4-2.39-9.64-5.5-1.3-1.74.21-3.78,1.6-4.89,3.38-2.61,7.59-3.74,11.62-4.95,12.54-3.33,25.5-4.71,38.41-5.64Z"/>
  </g>
  <g id="_x23_efefefff">
    <path class="st71" d="M24.26,132.96c7.76,5.62,17.53,7.12,26.74,8.77,26.14,4.02,52.76,4.47,79.13,2.77,11.78-.74,23.54-2.28,35.05-4.94,5.44-1.48,10.98-3.19,15.58-6.55.06,28.68.02,57.37.01,86.05-.13,4.59-5.23,6.54-8.87,7.92-15.72,5.27-32.4,6.75-48.86,7.72-20.33,1.21-40.75.55-61-1.53-10.78-1.55-21.8-2.98-31.88-7.34-2.65-1.32-6.15-3.35-5.89-6.77.02-28.7.07-57.4-.01-86.1Z"/>
  </g>
  <g id="_x23_93b6dfff">
    <path class="st29" d="M1191.14,151.5c5.12,3.24,10.31,6.45,15.12,10.16-5.04,3.24-9.88,6.79-15.08,9.75-.38-2.05,1.33-6.63-2.11-6.46-14.61.03-29.23.15-43.84-.07.01-2.22.01-4.43-.01-6.65,15.22-.31,30.46.31,45.68-.29.2-2.14.25-4.29.24-6.44Z"/>
  </g>
  <g id="_x23_dbe8f6ff">
    <path class="st41" d="M824.18,160.34c4.2-.92,8.55-.37,12.83-.55,35.33.05,70.66.02,105.98.01,2.78-.06,5.92.2,8.05,2.2,3.06,3.97,2.01,9.3,2.21,13.96-.29,4.93.56,9.97-.57,14.8-.71,3.5-4.28,5.62-7.69,5.45-39.32-.03-78.64-.02-117.96-.07-3.66.33-7.38-2.39-7.6-6.15-.14-7.69-.18-15.38-.06-23.07,0-2.9,1.97-5.79,4.81-6.58Z"/>
  </g>
  <g id="_x23_a2cbadff">
    <path class="st78" d="M214.95,165.6c5.49,3.1,9.88,7.8,15.07,11.38-4.78,3.99-9.78,7.7-14.83,11.33,0-1.95.05-3.9.11-5.85-.27-.31-.82-.95-1.1-1.27l-.65-.69c-4.96-.3-9.94-.2-14.9-.66,2.8-.83,6.79-.92,7.21-4.56,2.72-.29,5.57-.57,7.78-2.36,2.59-1.33.69-5.01,1.31-7.32Z"/>
  </g>
  <g id="_x23_aacec5ff">
    <path class="st36" d="M670.17,165.9c5.4,3.91,11.48,7.1,16.29,11.71-5.7,3.17-10.47,7.8-16.27,10.82.05-2.33.15-4.69-.44-6.97-12.93.22-25.86-.06-38.79.06-.12-2.96-.16-5.93-.09-8.89,13.02.39,26.05-.03,39.07.24.26-2.32.29-4.65.23-6.97Z"/>
  </g>
  <g id="_x23_a1c0e5ff">
    <path class="st95" d="M1662.63,165.69c9.02-.09,18.47,1.28,26.05,6.53,15.44,10.12,24.3,27.11,31.83,43.4,17.66,42.6,25.14,88.66,28.64,134.42,3.16,49.75-.07,99.79-8.16,148.96-3.65,22.14-8.88,44.07-16.76,65.11-6.19,15.8-14.38,31.6-27.8,42.46-4.76,4.06-10.63,6.33-16.48,8.29.34,2.4.66,4.81,1.02,7.23-5.76-2.35-11.19-5.45-17.07-7.49,4.63-5.31,9.2-10.72,14.35-15.54.41,2.44.17,5.13,1.46,7.37,8.37-2.55,15.63-7.87,21.03-14.72,12.43-15.59,19.34-34.72,24.64-53.72l.25.16c.23.16.7.47.93.63,2.47-10.22,5.36-20.36,6.98-30.76-.05-1.18-.15-2.35-.29-3.51.1-4.34,1.54-8.55,2.15-12.83.29.27.87.82,1.16,1.1.59-4.38,1.65-8.79.74-13.21,1.45-12.21,2.9-24.45,4.08-36.69.33.26,1,.8,1.33,1.06.3-3.48.54-7.03-.45-10.43-.04-.62-.11-1.85-.15-2.47l.25.27c.36.4,1.07,1.2,1.43,1.6.16-5.44.86-11.01-.6-16.33-.34-1.54-.1-3.12-.02-4.66l.29.17c.29.18.88.54,1.17.72.5-14.61.51-29.23.12-43.85-.32-1.29.47-3.39-1.32-3.84l-.27-.17c-.09-1.53-.31-3.07.01-4.57.98-3.98,1.27-8.18.43-12.21-.32-.27-.95-.81-1.27-1.07l-.23-.17c-1.64-24.22-5.13-48.34-10.42-72.05-4.38-19.38-10.05-38.52-17.89-56.79-4.59-10.13-9.84-20.11-17.09-28.62-5.23-6.28-11.75-11.88-19.73-14.22-4.64-1.55-9.57-1.48-14.38-1.48-.01-2.7,0-5.39.04-8.08Z"/>
    <path class="st95" d="M1421.83,367.65c2.44-.02,4.88-.04,7.34,0,.44,11.29-.15,22.6.28,33.89,2.32.01,4.63.04,6.97.08-3.28,4.85-6.37,9.84-9.81,14.56-.41.06-1.21.17-1.61.22-4.04-4.33-6.47-10.05-9.98-14.85,2.36-.03,4.77-.05,7.16-.14-.26-11.25-.48-22.5-.35-33.75Z"/>
  </g>
  <g id="_x23_c5e9ceff">
    <path class="st15" d="M182.54,172.67l1.49-.03c-.05,2.44-.09,4.89-.12,7.34,4.91-.07,9.84.31,14.74-.14,4.96.46,9.94.36,14.9.66l.65.69c-10.58.17-21.17.03-31.75.12.06-2.88.08-5.76.09-8.64Z"/>
  </g>
  <g id="_x23_b1d6b9ff">
    <path class="st93" d="M184.03,172.64c9.87.17,19.77-.44,29.61.28-2.21,1.79-5.06,2.07-7.78,2.36-.42,3.64-4.41,3.73-7.21,4.56-4.9.45-9.83.07-14.74.14.03-2.45.07-4.9.12-7.34Z"/>
  </g>
  <g id="_x23_fffeffff">
    <path class="st67" d="M685.22,180.09c1.24-.67,2.16-2.29,3.72-2.19.13.48.37,1.43.5,1.91.04,59.09.02,118.17.03,177.26-.08,4.49,4.17,8.13,8.55,7.94,71.04-.01,142.08-.02,213.12-.01-4.23,7.88-8.38,15.81-12.44,23.77,2.9.14,5.82.23,8.74.47-.22,38.59.21,77.17,0,115.76-9.85-.14-19.7-.05-29.54.02,4.48-7.81,8.57-15.87,13.67-23.3-2.87-.55-5.8-.27-8.69-.23-.3-9.82-.06-19.65-.1-29.48-.29-8.24-5.07-16.36-12.54-20.07-4.95-2.76-10.82-2.28-16.27-2.28-133.98-.02-267.97.07-401.95,0-3.95.2-8.05-.93-11.01-3.63-2.96-2.84-3.9-7.05-4.32-10.98-.09-16.68-.05-33.37,0-50.05,61.77-.21,123.54.05,185.31-.08,3.08.14,6.35-1.33,7.75-4.19,1.72-2.6,1.08-5.81,1.15-8.73,0-56.27-.1-112.55.05-168.81,12.63.03,25.26.03,37.89,0,.18,2.54-.66,5.38.42,7.72,5.48-3.34,10.65-7.2,15.96-10.83Z"/>
  </g>
  <g id="_x23_93b7deff">
    <path class="st72" d="M1191.16,197.86c5.14,3.11,10.26,6.31,15.09,9.91-5.06,3.21-9.85,6.9-15.11,9.76.05-2.11.01-4.21-.24-6.29-15.21-.27-30.43.17-45.63-.28.02-2.19.03-4.38.03-6.56,14.98.04,29.96-.02,44.94-.04,1.43-1.89.79-4.34.92-6.5Z"/>
  </g>
  <g id="_x23_e0ebf8ff">
    <path class="st64" d="M973.83,211.01c-.07-3.78,2.02-7.42,5.45-9.09,2.61,1.61,5.81.59,8.71.81,15.32.51,30.64-.2,45.97-.03,27.03.25,54.06-.05,81.1.08,4.19-.24,8.8,1.21,12.69-.89,3.51,1.53,5.79,5.23,5.42,9.09.04,29.33.18,58.66.04,88,.16,3.76-1.95,7.44-5.44,8.94-1.47-.81-3.14-1.03-4.77-.92-13.64.66-27.3-.06-40.95.23-16.01-.13-32.02.13-48.03.08-18.17-.33-36.38-.5-54.53.42-3.7-.97-5.54-5.15-5.66-8.71.06-29.33.02-58.67,0-88.01Z"/>
  </g>
  <g id="_x23_feffffff">
    <path class="st102" d="M979.28,201.92c3.86-.73,7.8-.42,11.71-.49,39.99.02,79.98-.02,119.97.03,5.59.12,11.22-.38,16.79.43-3.89,2.1-8.5.65-12.69.89-27.04-.13-54.07.17-81.1-.08-15.33-.17-30.65.54-45.97.03-2.9-.22-6.1.8-8.71-.81Z"/>
  </g>
  <g id="_x23_000000ff">
    <path d="M884.14,213.96c-.24-1.96,1.76-2.55,3.29-2.57.96,1.34,1.17,2.84.46,4.34-1.46.09-3.93.44-3.75-1.77Z"/>
    <path d="M227.69,509.7c1.18-3.49,4.64-5.86,8.31-5.82,118,.04,236.01-.01,354.01.01,2.66-.04,4.84,1.66,6.68,3.39l-.08.4c-.06.34-.2,1.02-.26,1.37-.34-.36-1.01-1.08-1.35-1.44-1.83-1.86-4.48-2.43-7-2.33-117.01-.02-234.03-.04-351.05-.02-3.79-.42-7,2-8.38,5.41-.22-.24-.66-.73-.88-.97Z"/>
  </g>
  <g id="_x23_080706ff">
    <path class="st103" d="M885.28,222.33c1.62-1.21,3.87.98,2.8,2.61-.57,1.6-2.55.64-3.73.65.13-1.08-.52-2.84.93-3.26Z"/>
  </g>
  <g id="_x23_010103ff">
    <path class="st99" d="M885.31,232.45c2.56-1.44,4.37,2.69,1.83,3.86-2.4,1.32-4.37-2.97-1.83-3.86Z"/>
    <path class="st99" d="M1420.86,367.65h.97c-.13,11.25.09,22.5.35,33.75-2.39.09-4.8.11-7.16.14,3.51,4.8,5.94,10.52,9.98,14.85.4.99.92,1.94,1.5,2.88l.72,1.14c-69.39.02-138.78-.06-208.16.01-3.5-.25-6.81,1.43-8.31,4.65-.36.3-1.08.9-1.44,1.2.3-2.18,1.34-4.33,3.22-5.59,3.02-2.22,6.96-1.31,10.46-1.48,67.26,0,134.52.02,201.78-.03-3.76-6.44-8.24-12.42-12.01-18.85,2.66-.06,5.34-.08,8.03-.12.03-10.85-.02-21.7.07-32.55Z"/>
  </g>
  <g id="_x23_161a1eff">
    <path class="st60" d="M823.51,249.67c1.77-.63,3.7-.34,5.56-.4,38.96,0,77.93.02,116.9-.01,4.68-.34,8.72,4.15,8.46,8.72.01,7.34.04,14.67.03,22,.03,4.47-3.93,8.74-8.52,8.4-38.33-.01-76.67-.04-115,0-3.25-.06-6.88.47-9.63-1.65-2.63-1.6-3.5-4.79-3.54-7.68-.09-7.02-.02-14.03-.03-21.04-.08-3.64,2.24-7.24,5.77-8.34M820.06,254l.08.46c-1.42,3.32-.56,7.02-.79,10.52.27,5.95-.46,11.95.44,17.86,1.37,2.63,4.17,4.25,7.15,4.03,39.34.07,78.68,0,118.03.05,2.53.1,5.55-.68,6.82-3.1,2.43-4.21,1.15-9.26,1.48-13.87-.37-5.51,1.23-11.53-1.66-16.57-1.78-2.95-5.61-2.98-8.64-2.96-38.32.06-76.65-.05-114.98.03-3.1-.16-6.19.87-7.93,3.55Z"/>
    <path class="st60" d="M1429.17,367.64c.52,0,1.05,0,1.6.02-.2,10.83-.06,21.65.04,32.48,2.69-.05,5.4-.04,8.09.37-3.6,5.66-8.03,10.84-10.98,16.88-.33-.31-.99-.91-1.31-1.22,3.44-4.72,6.53-9.71,9.81-14.56-2.34-.04-4.65-.07-6.97-.08-.43-11.29.16-22.6-.28-33.89Z"/>
    <path class="st60" d="M1267.97,520.52c25.13-4,50.7-4.31,76.08-3.25,15.45,1.1,31.06,2.2,46.01,6.58,3.09.99,6.3,2.09,8.78,4.31,1.62,1.3,1.76,3.78.82,5.54-20.4,31.87-41,63.64-61.89,95.2-.05,12.38-.03,24.76.03,37.13.01,1.43-.12,2.88-.38,4.3-10.32-.46-20.73.49-31-.51.02-13.24,0-26.48-.05-39.72.14-1.44-1.02-2.45-1.62-3.61-19.91-30.41-39.65-60.94-60.05-91.02-1.93-2.38-2.33-6.42.7-8.09,6.69-4.35,14.88-5.35,22.57-6.86M1286.1,519.67c-10.97,1.13-22.02,2.39-32.6,5.61-3.47,1.2-7.41,2.33-9.39,5.72,1.71,3.34,5.55,4.31,8.82,5.44,9.72,3.37,20,4.49,30.15,5.79,13.6,1.44,27.28,1.99,40.96,1.91,20.94-.24,42.08-1.42,62.48-6.47,4.29-1.35,9.49-2.09,12.37-5.91.46-2.36-2.48-3.51-4.14-4.5-10.32-4.55-21.74-5.5-32.79-7.05-25.19-2.72-50.63-2.53-75.86-.54M1246.69,535.66c10.49,16.2,21.29,32.21,31.93,48.32,9.24,14.41,18.76,28.63,28.07,43,1.23,1.39.95,3.29,1.02,5.02-.05,10.78-.07,21.56.01,32.35-.08,1.23-.16,2.46-.24,3.71,1.73.81,3.68.48,5.56.56,7.81-.04,15.63.05,23.45-.11-.2-12.53.03-25.05-.12-37.58-.16-1.59.15-3.14,1.28-4.35,9.28-14.16,18.6-28.3,27.85-42.48,10.5-16.09,20.98-32.21,31.21-48.46-12.5,5.41-26.27,6.82-39.67,8.46-26.23,2.33-52.74,2.16-78.91-.86-10.66-1.56-21.54-3.12-31.44-7.58Z"/>
    <path class="st60" d="M246.54,611.43c.32-.2.95-.6,1.27-.8-.13,28.43-.05,56.87-.05,85.3-.27,3.87,1.82,7.92,5.6,9.26,2.19.49,4.44.57,6.68.57,98.66-.02,197.31-.04,295.97,0,5.86.55,11.85.5,17.63-.75,2.27-1.46,3.76-3.77,4.84-6.19.19.38.57,1.13.77,1.5-1.54,4.64-6.42,7.54-11.22,7.11-103.69-.01-207.39.02-311.09-.01-6.04.18-11.12-5.46-10.54-11.43.14-28.19-.25-56.39.14-84.56Z"/>
    <path class="st60" d="M1317.43,677.39c3.59-1.17,8.19-.74,12.08-.14-.02,8.35-.24,16.71.1,25.06,2.45-.04,4.92-.05,7.4.04-4.05,6.53-8.95,12.5-13.17,18.92-2.35-.93-3.33-3.44-4.79-5.29-3.02-4.57-6.57-8.81-9.2-13.61,2.43-.04,4.86-.03,7.31,0,.37-8.32-.15-16.66.27-24.98M1318.7,678.9c-.21,8.21.14,16.43-.18,24.63-2.06.07-4.13.12-6.16.21,3.58,5.27,6.92,10.81,11.24,15.51,3.45-5.26,7.37-10.19,10.73-15.52-2.03-.05-4.04-.07-6.04-.09-.86-8.41.57-16.95-.39-25.39-3,.4-6.61-.79-9.2.65Z"/>
  </g>
  <g id="_x23_f5fcf3ff">
    <path class="st97" d="M1381.35,250.83c7.39-1.81,15.06-.59,22.59-.76,25.33-.27,50.67.08,76.01-.01,5.21.25,10.5-.44,15.66.66-2.79,1.02-5.76.7-8.64.74-30.34-.02-60.68-.05-91.02-.01-4.87-.25-9.85.62-14.6-.62Z"/>
  </g>
  <g id="_x23_f4fcf3ff">
    <path class="st89" d="M1531.29,251.01c1.1-.8,2.33-1.22,3.69-1.24,26.31.63,52.65.09,78.97.33,8.2.18,16.52-.79,24.65.65-2.43.98-5.05.66-7.57.71-28.67-.06-57.33,0-85.99-.02-4.59-.12-9.22.41-13.75-.43Z"/>
  </g>
  <g id="_x23_dbe8f5ff">
    <path class="st50" d="M820.06,254c1.74-2.68,4.83-3.71,7.93-3.55,38.33-.08,76.66.03,114.98-.03,3.03-.02,6.86,0,8.64,2.96,2.89,5.04,1.29,11.06,1.66,16.57-.33,4.61.95,9.66-1.48,13.87-1.27,2.42-4.29,3.2-6.82,3.1-39.35-.05-78.69.02-118.03-.05-2.98.22-5.78-1.4-7.15-4.03,1.44-3.1,1-6.55.94-9.85-.25-6.18.79-12.43-.59-18.53l-.08-.46Z"/>
  </g>
  <g id="_x23_fcffffff">
    <path class="st52" d="M979.49,307.73c18.15-.92,36.36-.75,54.53-.42,16.01.05,32.02-.21,48.03-.08,13.65-.29,27.31.43,40.95-.23,1.63-.11,3.3.11,4.77.92-3.85,1.06-7.85.54-11.76.62-43.7-.03-87.39-.02-131.09-.01-1.83-.04-3.78.11-5.43-.8Z"/>
  </g>
  <g id="_x23_1d1d1eff">
    <path class="st33" d="M233.89,323.88c-1.58-.59-1.57-1.11.05-1.56-.01.39-.04,1.17-.05,1.56Z"/>
  </g>
  <g id="_x23_b7d7fbff">
    <path class="st35" d="M1742.33,347.1c.32.26.95.8,1.27,1.07.84,4.03.55,8.23-.43,12.21-.35-4.43-.61-8.86-.84-13.28Z"/>
  </g>
  <g id="_x23_dcfbdeff">
    <path class="st85" d="M427.67,364.98c2.53-.03,5.07-.01,7.62.02.24,18.33-.17,36.67.25,54.99-1.66-1.15-1.34-3.29-1.45-5.02.06-10.32.1-20.63-.09-30.94-.18-6.11.62-12.22.07-18.32-2.13.11-4.26.24-6.39.37v-1.1Z"/>
  </g>
  <g id="_x23_b9dbfcff">
    <path class="st1" d="M1743.43,365.12c1.79.45,1,2.55,1.32,3.84.39,14.62.38,29.24-.12,43.85-.29-.18-.88-.54-1.17-.72.3-15.65.5-31.32-.03-46.97Z"/>
  </g>
  <g id="_x23_c4e2c7ff">
    <path class="st80" d="M427.68,366.08c2.13-.13,4.26-.26,6.39-.37.55,6.1-.25,12.21-.07,18.32.19,10.31.15,20.62.09,30.94.11,1.73-.21,3.87,1.45,5.02,1.62,3.36,3.54,6.56,6.5,8.95l-1.53.12c1.99,1.66,4.31,2.87,6.8,3.63-1.15.81-2.29,1.62-3.42,2.43-2.69-1.89-5.6-3.58-8.9-4.02,2.22,2.77,6.19,3.44,8,6.58-7.12-1.55-12.44-7.85-14.26-14.71-1.45-4.52-1.01-9.31-1.05-13.98-.05-14.3.02-28.6,0-42.91Z"/>
  </g>
  <g id="_x23_b0d4bdff">
    <path class="st100" d="M911.51,366.78c1.65,1.35,2.43,3.4,3.52,5.19,2.78,5.12,5.68,10.19,8.31,15.4-2.41.27-5.05-.31-7.3.55-.98,10.29-.02,20.72-.37,31.07.05,28.56.02,57.14.06,85.71-.38.16-1.12.49-1.49.65.4-15.46.06-30.94.08-46.41.38-21.64-.4-43.26-.31-64.89-.06-1.71-.21-3.41-.37-5.11-.23.61-.68,1.81-.91,2.42-.4.07-1.19.21-1.59.29-.17,4.14.16,8.35-.74,12.43-.73-4.45.16-9.07-1.28-13.41-.26-1.05-.46-2.1-.61-3.15-2.47.01-4.95-.02-7.4-.05,3.37-6.95,7.3-13.61,10.4-20.69Z"/>
  </g>
  <g id="_x23_a9cec9ff">
    <path class="st43" d="M913.64,388.94c.16,1.7.31,3.4.37,5.11-.09,21.63.69,43.25.31,64.89l-1.4-.08c.24-5.59.01-11.18-.08-16.77-.68,1.12-1.38,2.24-2.06,3.36-1.29-4.51-.14-9.3-1.53-13.8-.41-13.63-.58-27.35-.13-40.98,1.44,4.34.55,8.96,1.28,13.41.9-4.08.57-8.29.74-12.43.4-.08,1.19-.22,1.59-.29.23-.61.68-1.81.91-2.42Z"/>
  </g>
  <g id="_x23_bbdafcff">
    <path class="st31" d="M1743.19,416.58c1.46,5.32.76,10.89.6,16.33-.36-.4-1.07-1.2-1.43-1.6.33-4.91.38-9.83.83-14.73Z"/>
  </g>
  <g id="_x23_d2e1f3ff">
    <path class="st58" d="M1210.75,425.07c1.5-3.22,4.81-4.9,8.31-4.65,69.38-.07,138.77,0,208.16-.01,74.61.18,149.24.03,223.86.07,3.64-.18,7.71,1.35,8.78,5.19-1.06,10.39-.2,20.88-.44,31.32.28,6.8-.71,13.67.5,20.41l.09.75c-30.34-.09-60.67.02-91-.03-27.02-.19-54.04.25-81.05-.21-35.98.51-71.96.12-107.94.25-56.03-.01-112.05-.09-168.08.02-.23-14.39-.14-28.78-.12-43.17-.09-3.33.4-6.83-1.07-9.94Z"/>
  </g>
  <g id="_x23_f1feffff">
    <path class="st56" d="M1210.75,425.07c1.47,3.11.98,6.61,1.07,9.94-.02,14.39-.11,28.78.12,43.17l-1.25-.03c-.23-17.69-.26-35.39.06-53.08Z"/>
  </g>
  <g id="_x23_c0dfc4ff">
    <path class="st37" d="M434.99,431.1c3.3.44,6.21,2.13,8.9,4.02,1.13-.81,2.27-1.62,3.42-2.43,53.9.08,107.8-.12,161.7.13,5.51-.16,11.05-.44,16.56.17,1.44.44,2.89.99,4.43.98,11.37.22,22.76-.37,34.12.35-1.84,1.03-3.83,1.69-5.86,2.17.63.51,1.27,1.04,1.91,1.57-9.39.16-18.78-.17-28.17.07-15.66.28-31.32-.49-46.97-.41-12.02.54-24.04.16-36.06.24-25.66-.14-51.33.16-76.99-.2-7.74.87-15.61-.21-23.28,1.13-1.93.2-4.05-.25-5.71-1.21-1.81-3.14-5.78-3.81-8-6.58Z"/>
  </g>
  <g id="_x23_9cbdd9ff">
    <path class="st76" d="M864.32,431.98c1.46-.25,2.88.53,4.29.89l.07.29c.21.82.44,1.64.69,2.46-.9.54-1.8,1.08-2.68,1.63-.08.33-.24.99-.33,1.31-.67-.06-1.33-.12-1.98-.16-5.92-.66-11.87.34-17.78-.47,2.53-1.58,5.48-2.16,8.33-2.87-.69-.81-1.38-1.62-2.05-2.42,3.81-.01,7.67.15,11.44-.66Z"/>
  </g>
  <g id="_x23_a4caddff">
    <path class="st54" d="M909.25,431.65c1.39,4.5.24,9.29,1.53,13.8.68-1.12,1.38-2.24,2.06-3.36.09,5.59.32,11.18.08,16.77-.71,11.17.09,22.36-.13,33.53-.42.05-1.26.14-1.68.18-.29,4.14-1.38,9.11,2,12.34-1.35.04-2.69.07-4.02.09.12-24.45-.26-48.91.16-73.35Z"/>
  </g>
  <g id="_x23_b6d7c9ff">
    <path class="st47" d="M625.57,432.99c20.46-.77,40.95-.04,61.43-.35,19.17.11,38.37-.21,57.53.26,1.42.6,2.87,1.28,4.47,1.18,6.39.01,12.79-.15,19.17.27-.62,1.62-2.51,1.52-3.89,1.98.59.61,1.2,1.23,1.81,1.86-35.31.12-70.61-.19-105.92-.13-.64-.53-1.28-1.06-1.91-1.57,2.03-.48,4.02-1.14,5.86-2.17-11.36-.72-22.75-.13-34.12-.35-1.54.01-2.99-.54-4.43-.98Z"/>
  </g>
  <g id="_x23_accbcfff">
    <path class="st79" d="M744.53,432.9c18.98-.42,38.01-.47,56.98-.05,4.48,1.74,9.38,1.61,14.08,2.34-.23.31-.7.93-.93,1.24.04.38.11,1.14.15,1.52-12.32.05-24.64-.09-36.94.17-3.93.25-7.86.1-11.78.07-.61-.63-1.22-1.25-1.81-1.86,1.38-.46,3.27-.36,3.89-1.98-6.38-.42-12.78-.26-19.17-.27-1.6.1-3.05-.58-4.47-1.18Z"/>
  </g>
  <g id="_x23_a6c6d6ff">
    <path class="st57" d="M801.51,432.85c17.11-.55,34.25-.18,51.37-.21.67.8,1.36,1.61,2.05,2.42-2.85.71-5.8,1.29-8.33,2.87-10.6-.02-21.2.17-31.79.02-.04-.38-.11-1.14-.15-1.52.23-.31.7-.93.93-1.24-4.7-.73-9.6-.6-14.08-2.34Z"/>
  </g>
  <g id="_x23_9ebee2ff">
    <path class="st88" d="M869.37,435.62c-.25-.82-.48-1.64-.69-2.46,7,2.42,11.66,9.64,12.41,16.82.21,10.91.03,21.82.22,32.73,2.48.14,4.97.21,7.48.26-3.61,6.82-8.01,13.2-11.26,20.2-4.34-6.49-7.72-13.58-11.9-20.18,2.42-.05,4.86-.1,7.3-.2.49-10.22.2-20.46.23-30.69.04-6.2-4.82-11.14-10.46-12.94.42-.19,1.26-.57,1.68-.76.65.04,1.31.1,1.98.16.09-.32.25-.98.33-1.31.88-.55,1.78-1.09,2.68-1.63Z"/>
  </g>
  <g id="_x23_b7d7fcff">
    <path class="st21" d="M1742.26,433.51c.99,3.4.75,6.95.45,10.43-.33-.26-1-.8-1.33-1.06.21-3.13.46-6.26.88-9.37Z"/>
  </g>
  <g id="_x23_d3f0deff">
    <path class="st18" d="M448.7,438.89c7.67-1.34,15.54-.26,23.28-1.13,25.66.36,51.33.06,76.99.2,12.02-.08,24.04.3,36.06-.24,15.65-.08,31.31.69,46.97.41,9.39-.24,18.78.09,28.17-.07,35.31-.06,70.61.25,105.92.13,3.92.03,7.85.18,11.78-.07l.12,1.07c-104.65,0-209.3.02-313.95.04-5.11-.13-10.25.22-15.34-.34Z"/>
  </g>
  <g id="_x23_bbdbeaff">
    <path class="st70" d="M777.87,438.12c12.3-.26,24.62-.12,36.94-.17,10.59.15,21.19-.04,31.79-.02,5.91.81,11.86-.19,17.78.47-.42.19-1.26.57-1.68.76-28.23.06-56.48.01-84.71.03l-.12-1.07Z"/>
  </g>
  <g id="_x23_96bcdcff">
    <path class="st62" d="M912.92,458.86l1.4.08c-.02,15.47.32,30.95-.08,46.41l-1.13-.44c-3.38-3.23-2.29-8.2-2-12.34.42-.04,1.26-.13,1.68-.18.22-11.17-.58-22.36.13-33.53Z"/>
  </g>
  <g id="_x23_0b0c0cff">
    <path class="st96" d="M1660.01,478.15c1.52.49,1.56,1.05.11,1.69-.03-.42-.08-1.27-.11-1.69Z"/>
  </g>
  <g id="_x23_d0e8d0ff">
    <path class="st45" d="M228.57,510.67c1.38-3.41,4.59-5.83,8.38-5.41,117.02-.02,234.04,0,351.05.02,2.52-.1,5.17.47,7,2.33l-.84.4c1.64,8.23.7,16.67,1.11,25-.22,11.36.11,22.73-.3,34.09-7.34.83-14.67-.44-22.02-.29-31.66.09-63.31-.19-94.97.04-10.32-.46-20.63,0-30.95.2-21.99-.53-43.99,0-65.98-.13-11.35-.32-22.7.39-34.05-.08-26,0-52.01.06-78.01.03-12.96.2-25.97-.72-38.89.79-.15-15.23,0-30.45-.01-45.67-.07-3.55.55-7.17-.19-10.67l-1.33-.65Z"/>
  </g>
  <g id="_x23_d3e1f3ff">
    <path class="st40" d="M701.11,510.1c.87-1.5,2.52-3.1,4.35-2.97,1.81.37,3.64.78,5.52.79,14.65-.48,29.31.22,43.97.1,26.66-.26,53.32.17,79.99-.2,9.36-.04,18.72.47,28.09-.02,10.08-.41,20.55,1.87,30.37-1l.61-.24.63.24c3.25,1.45,6.9.72,10.35,1.08,7.65.59,15.31-.45,22.97.22,8.02.61,16.03-.47,24.05-.45,21,.38,42.01.67,63,.06,11.01-.07,22.02.46,33.04.26,12.3.58,24.61-.9,36.91,0,2.27.21,4.57-.09,6.76-.8,3.12.28,5.09,3.81,5.04,6.77.21,18.3-.02,36.6.06,54.9-132.24-.09-264.47,0-396.71-.02-.37-13.95-.19-27.89-.11-41.83.73-5.61-1.34-11.54,1.11-16.89Z"/>
    <path class="st40" d="M718.3,598.97c.06-3.29,2.52-6.45,5.76-7.17,2.25-.55,4.59-.41,6.9-.42,111.34.01,222.67.02,334,0,3.71.09,7.84-.6,11.11,1.61,1.53.96,2.25,2.71,3.14,4.24-2.13,2.04-1.33,5.14-1.41,7.76.77,12.66-.43,25.33.07,38,.26,2.91-.99,6.41,1.36,8.74-1.33,3.87-5.13,6.33-9.2,6.05-113.68-.03-227.36-.08-341.04.02-3.18.09-6.76-.49-8.86-3.12-1.87-2.1-1.94-5.05-1.91-7.7,0-16-.05-32.01.08-48.01Z"/>
    <path class="st40" d="M720.43,675.49l-.08.71c-1.62,13.09-.15,26.34-.9,39.49l-.1.82c-.82-1.75-1.27-3.63-1.17-5.55.14-10.01-.02-20.03.08-30.04-.13-2.06.93-3.88,2.17-5.43Z"/>
  </g>
  <g id="_x23_e5f4fcff">
    <path class="st91" d="M705.46,507.13c1.5-.34,3.03-.52,4.59-.53,50.3-.01,100.61,0,150.92-.04,10.81.11,21.63-.2,32.43.24-9.82,2.87-20.29.59-30.37,1-9.37.49-18.73-.02-28.09.02-26.67.37-53.33-.06-79.99.2-14.66.12-29.32-.58-43.97-.1-1.88-.01-3.71-.42-5.52-.79Z"/>
  </g>
  <g id="_x23_e4f3fcff">
    <path class="st44" d="M894.64,506.8c30.79-.5,61.6,0,92.39-.16,31.64-.02,63.28-.06,94.92-.04,3.25.06,6.58-.38,9.77.57-2.19.71-4.49,1.01-6.76.8-12.3-.9-24.61.58-36.91,0-11.02.2-22.03-.33-33.04-.26-20.99.61-42,.32-63-.06-8.02-.02-16.03,1.06-24.05.45-7.66-.67-15.32.37-22.97-.22-3.45-.36-7.1.37-10.35-1.08Z"/>
  </g>
  <g id="_x23_dbe7f6ff">
    <path class="st105" d="M1286.1,519.67c25.23-1.99,50.67-2.18,75.86.54,11.05,1.55,22.47,2.5,32.79,7.05,1.66.99,4.6,2.14,4.14,4.5-2.88,3.82-8.08,4.56-12.37,5.91-20.4,5.05-41.54,6.23-62.48,6.47-13.68.08-27.36-.47-40.96-1.91-10.15-1.3-20.43-2.42-30.15-5.79-3.27-1.13-7.11-2.1-8.82-5.44,1.98-3.39,5.92-4.52,9.39-5.72,10.58-3.22,21.63-4.48,32.6-5.61Z"/>
  </g>
  <g id="_x23_d8e6f6ff">
    <path class="st0" d="M1246.69,535.66c9.9,4.46,20.78,6.02,31.44,7.58,26.17,3.02,52.68,3.19,78.91.86,13.4-1.64,27.17-3.05,39.67-8.46-10.23,16.25-20.71,32.37-31.21,48.46-3.61-1.62-7.6-1.22-11.42-1.21-18.36,0-36.71,0-55.06-.04-6.81.12-13.74-.55-20.4,1.13-10.64-16.11-21.44-32.12-31.93-48.32Z"/>
  </g>
  <g id="_x23_def0ddff">
    <path class="st26" d="M1278.62,583.98c6.66-1.68,13.59-1.01,20.4-1.13,18.35.04,36.7.04,55.06.04,3.82-.01,7.81-.41,11.42,1.21-9.25,14.18-18.57,28.32-27.85,42.48-1.7-.81-2.48,1.09-2.29,2.41-.15,11.69.18,23.4-.15,35.09-9.15.59-18.33-.28-27.49.27-.08-10.79-.06-21.57-.01-32.35-.07-1.73.21-3.63-1.02-5.02-9.31-14.37-18.83-28.59-28.07-43Z"/>
  </g>
  <g id="_x23_edfcffff">
    <path class="st69" d="M1077.8,604.99c.08-2.62-.72-5.72,1.41-7.76.56,10.56.06,21.16.25,31.73-.1,7.59.23,15.19-.23,22.77-2.35-2.33-1.1-5.83-1.36-8.74-.5-12.67.7-25.34-.07-38Z"/>
  </g>
  <g id="_x23_aad2b3ff">
    <path class="st81" d="M1101.74,625.05c5.42-3.53,10.81-7.14,16.43-10.35,0,2.11-.03,4.24-.06,6.37,28.98.2,57.98.06,86.97.07,1.29.24,3.27-.6,4.11.77.02,2.24.5,4.67-.27,6.81-9.63.87-19.29.01-28.92.17-20.61-.04-41.22.03-61.82.07.02,2.17.05,4.34.08,6.52-5.62-3.29-10.94-7.08-16.52-10.43Z"/>
  </g>
  <g id="_x23_add3b2ff">
    <path class="st42" d="M600.39,650.46c5.49-3.25,10.84-6.71,16.24-10.11.02,2.18.09,4.37.26,6.55,27.17.18,54.34-.18,81.5.07.04,2.35.03,4.7.02,7.06-27.18.12-54.36-.14-81.54.13-.17,2.18-.22,4.36-.24,6.56-5.48-3.31-11.11-6.44-16.24-10.26Z"/>
  </g>
  <g id="_x23_cbe0eaff">
    <path class="st82" d="M1307.72,664.35c9.16-.55,18.34.32,27.49-.27,0,.79-.01,2.35-.02,3.14-9.22.65-18.58-.73-27.71.84.08-1.25.16-2.48.24-3.71Z"/>
    <path class="st82" d="M431.56,845.29c1.08-.54,2.22-.85,3.41-.95,29.2-.14,58.42.39,87.61-.23,17.16.58,34.34.06,51.51.26,20.77-.17,41.55.28,62.31-.26,22.52.58,45.06.09,67.59.22,14.12-.07,28.25.31,42.36-.17,16.53.42,33.07.06,49.61.2,30.59-.09,61.18.13,91.77-.1,2.23.26,4.4.85,6.59,1.41-8.41.02-16.81.05-25.21,0-98.42-.03-196.85-.05-295.27.01-43.64.06-87.28-.01-130.92.04-3.79-.02-7.61.2-11.36-.43Z"/>
  </g>
  <g id="_x23_dce8f7ff">
    <path class="st75" d="M720.5,675.07c1.73-.88,3.47-2.04,5.51-1.85,114.99,0,229.98.1,344.97.02,4.39-.48,8.61,3.32,8.54,7.72.03,10.36-.1,20.72.03,31.08.17,4.97-4.82,8.64-9.52,8.33-114.33-.06-228.67.02-343-.04-2.97.17-5.43-1.64-7.62-3.39l.04-1.25c.75-13.15-.72-26.4.9-39.49l.15-1.13Z"/>
  </g>
  <g id="_x23_93b7dfff">
    <path class="st17" d="M1318.7,678.9c2.59-1.44,6.2-.25,9.2-.65.96,8.44-.47,16.98.39,25.39,2,.02,4.01.04,6.04.09-3.36,5.33-7.28,10.26-10.73,15.52-4.32-4.7-7.66-10.24-11.24-15.51,2.03-.09,4.1-.14,6.16-.21.32-8.2-.03-16.42.18-24.63Z"/>
  </g>
  <g id="_x23_9ebfe4ff">
    <path class="st20" d="M1422.63,776.95c2.16-.07,4.33-.14,6.52-.27-1.39,3.62-.79,7.56-.85,11.35,0,11.99.12,23.98-.05,35.96-.06,2.14.22,4.29.69,6.39-1.08,4.85-4.24,8.9-8.09,11.91-3.93,2.22-8.34,3.66-12.89,3.51-111.66-.03-223.33-.01-334.99.01-59.55-.1-119.11.17-178.65-.14-2.19-.56-4.36-1.15-6.59-1.41,2.25-.19,4.5-.46,6.77-.56,5.09,1.06,10.32.39,15.48.61,29.68-.1,59.36-.06,89.05-.11,9.38-.18,18.79.32,28.17-.32-.63-.9-.7-2.9-2.21-2.68-2.81-.21-5.62-.37-8.36-.95,6.09-.78,12.24-.3,18.37-.32,52.68.04,105.37.06,158.06-.13,67.95-.08,135.9.13,203.85-.09,5.12-.12,10.3.54,15.4-.3.29-.3.89-.92,1.19-1.23,4.49-2.15,8.2-6.08,9.03-11.13.07-16.7.13-33.4.1-50.1Z"/>
  </g>
  <g id="_x23_b9d1eaff">
    <path class="st104" d="M1429.15,776.68c.96,11.06.16,22.24.44,33.35-.32,6.77.74,13.66-.65,20.35-.47-2.1-.75-4.25-.69-6.39.17-11.98.05-23.97.05-35.96.06-3.79-.54-7.73.85-11.35Z"/>
  </g>
  <g id="_x23_b0d5b7ff">
    <path class="st34" d="M408.2,795.85c3.31-6.11,7.46-11.72,10.65-17.9,3.79,5.91,7.33,11.98,11.14,17.89-2.49-.05-4.99-.06-7.44.37l-1.06.31c-.44,6.14-.14,12.29-.3,18.44-.07,3.8-.46,7.64.21,11.43l1.27.66c.13.38.41,1.15.55,1.54.16.51.49,1.54.65,2.05-1.15,1.66-2.28,3.35-3.39,5.04-.57-1.11-1.13-2.22-1.69-3.31-.43.19-1.28.58-1.71.78-1.14-3.27-1.71-6.72-1.61-10.17.06-8.94.01-17.88.03-26.82-2.43-.22-4.86-.32-7.3-.31Z"/>
  </g>
  <g id="_x23_c6ecccff">
    <path class="st86" d="M421.49,796.52l1.06-.31c.06,10.28-.16,20.56.12,30.84l-1.27-.66c-.67-3.79-.28-7.63-.21-11.43.16-6.15-.14-12.3.3-18.44Z"/>
  </g>
  <g id="_x23_313e4eff">
    <path class="st87" d="M1421.21,825.97c.33.27.99.81,1.32,1.08-.83,5.05-4.54,8.98-9.03,11.13-3.13.8-6.37.87-9.57.8-158.65.05-317.3,0-475.94.02l.04-1.25c156.33-.04,312.67-.11,469.01,0,4.44-.17,9.02.69,13.35-.66,5.61-.91,10.05-5.49,10.82-11.12Z"/>
  </g>
  <g id="_x23_394a41ff">
    <path class="st27" d="M423.22,828.59c.39.17,1.16.52,1.55.7,2.15,4.22,6.16,7.3,10.94,7.83,1.39.28,2.79.5,4.22.6,67.02-.03,134.04-.08,201.06,0l-.04,1.29c-31.35.01-62.7-.03-94.04,0-36.31.01-72.62-.01-108.92-.01-5.77.15-11.59-3.09-14.12-8.35-.16-.51-.49-1.54-.65-2.05Z"/>
  </g>
  <g id="_x23_bbdac0ff">
    <path class="st49" d="M420.48,835.68c1.11-1.69,2.24-3.38,3.39-5.04,2.53,5.26,8.35,8.5,14.12,8.35,36.3,0,72.61.02,108.92.01v1.02c-8.44.42-16.89-.36-25.3.26-28.21-.29-56.42.22-84.62-.16-4.3.23-8.24-2.67-12.56-1.34.37,1.3.71,2.63.94,3.99-3.69-2.25-6.72-5.57-8.29-9.62.43-.2,1.28-.59,1.71-.78.56,1.09,1.12,2.2,1.69,3.31Z"/>
  </g>
  <g id="_x23_5d5e5eff">
    <path class="st51" d="M435.71,837.12c41.78-.19,83.57-.27,125.36-.02,66.66-.14,133.32-.02,199.98-.02,57.99-.07,115.97-.14,173.96,0,103.65-.13,207.3-.13,310.95-.01,24.36-.46,48.73.26,73.1-.14,30.44.12,60.88.09,91.33.16-4.33,1.35-8.91.49-13.35.66-156.34-.11-312.68-.04-469.01,0-95.68-.12-191.36-.06-287.04-.04-67.02-.07-134.04-.02-201.06,0-1.43-.1-2.83-.32-4.22-.6Z"/>
  </g>
  <g id="_x23_b3d6bfff">
    <path class="st39" d="M424.43,838.78c4.32-1.33,8.26,1.57,12.56,1.34,28.2.38,56.41-.13,84.62.16,2.22.46,4.39,1.17,6.48,2.08-1.87.5-3.7,1.09-5.51,1.75-29.19.62-58.41.09-87.61.23-1.19.1-2.33.41-3.41.95-2.19-.51-4.28-1.37-6.19-2.52-.23-1.36-.57-2.69-.94-3.99Z"/>
  </g>
  <g id="_x23_354448ff">
    <path class="st24" d="M640.99,837.71c95.68-.02,191.36-.08,287.04.04l-.04,1.25c-79.49.06-158.98-.14-238.47.09-16.19-.22-32.38-.03-48.57-.09l.04-1.29Z"/>
  </g>
  <g id="_x23_bddffaff">
    <path class="st55" d="M1403.93,838.98c3.2.07,6.44,0,9.57-.8-.3.31-.9.93-1.19,1.23-5.1.84-10.28.18-15.4.3-67.95.22-135.9,0-203.85.09-52.69.19-105.38.17-158.06.13-6.13.02-12.28-.46-18.37.32-9.53-.62-19.09-.08-28.63-.25-32.39-.2-64.78-.17-97.16-.01-42.97-.14-85.93-.14-128.89-.07-12.43.3-24.87-.76-37.28.15-11.35-.47-22.73.16-34.08-.45l-1.07-.53c79.49-.23,158.98-.03,238.47-.09,158.64-.02,317.29.03,475.94-.02Z"/>
  </g>
  <g id="_x23_caede7ff">
    <path class="st61" d="M546.91,839c31.34-.03,62.69.01,94.04,0,16.19.06,32.38-.13,48.57.09l1.07.53c-15.51.47-31.02.01-46.53.36-8.46.06-16.92-.48-25.37.13-11.57-.43-23.15-.24-34.72-.16-12.36-.33-24.72,0-37.07.07v-1.02Z"/>
  </g>
  <g id="_x23_afd1c9ff">
    <path class="st83" d="M521.61,840.28c8.41-.62,16.86.16,25.29-.26,12.35-.07,24.71-.4,37.07-.07,11.57-.08,23.15-.27,34.72.16,1.92.6,3.83,1.68,5.93,1.36,4.13-.7,7.82,1.85,11.78,2.64-20.76.54-41.54.09-62.31.26-17.17-.2-34.35.32-51.51-.26,1.81-.66,3.64-1.25,5.51-1.75-2.09-.91-4.26-1.62-6.48-2.08Z"/>
  </g>
  <g id="_x23_accdcfff">
    <path class="st98" d="M618.69,840.11c8.45-.61,16.91-.07,25.37-.13,15.51-.35,31.02.11,46.53-.36,11.35.61,22.73-.02,34.08.45,2.57,1.05,5.32,1.75,8.11,1.29,4.21-.6,8.41.57,12.61-.01,1.26-.15,2.63-.41,3.67.56-.99.63-1.91,1.38-2.71,2.25-14.11.48-28.24.1-42.36.17-22.53-.13-45.07.36-67.59-.22-3.96-.79-7.65-3.34-11.78-2.64-2.1.32-4.01-.76-5.93-1.36Z"/>
  </g>
  <g id="_x23_a9c8d6ff">
    <path class="st16" d="M724.67,840.07c12.41-.91,24.85.15,37.28-.15,42.96-.07,85.92-.07,128.89.07.1.54.31,1.63.41,2.18,1.08.51,2.15,1.02,3.25,1.53-2.27.1-4.52.37-6.77.56-30.59.23-61.18.01-91.77.1-16.54-.14-33.08.22-49.61-.2.8-.87,1.72-1.62,2.71-2.25-1.04-.97-2.41-.71-3.67-.56-4.2.58-8.4-.59-12.61.01-2.79.46-5.54-.24-8.11-1.29Z"/>
  </g>
  <g id="_x23_a5c5deff">
    <path class="st68" d="M890.84,839.99c32.38-.16,64.77-.19,97.16.01,9.54.17,19.1-.37,28.63.25,2.74.58,5.55.74,8.36.95,1.51-.22,1.58,1.78,2.21,2.68-9.38.64-18.79.14-28.17.32-29.69.05-59.37.01-89.05.11-5.16-.22-10.39.45-15.48-.61-1.1-.51-2.17-1.02-3.25-1.53-.1-.55-.31-1.64-.41-2.18Z"/>
  </g>
  <g id="_x23_2f3a40ff">
    <path class="st101" d="M573.84,845.68c98.42-.06,196.85-.04,295.27-.01l-.07,1.72c-98.39.02-196.78.06-295.16-.04l-.04-1.67Z"/>
  </g>
  <g id="editable_text_times_new_roman">
    <text class="st10" transform="translate(35.5 181)"><tspan x="0" y="0">Raw Problem Set</tspan></text>
    <text class="st10" transform="translate(33.91 207)"><tspan x="0" y="0">(MATH/GSM8K)</tspan></text>
    <text class="st8" transform="translate(251.51 42)"><tspan x="0" y="0">Component 1: Cold-Start Data Extraction</tspan></text>
    <text class="st8" transform="translate(364.01 66)"><tspan x="0" y="0">(Seed Injection)</tspan></text>
    <text class="st9" transform="translate(306 136)"><tspan x="0" y="0">Output:</tspan></text>
    <text class="st4" transform="translate(380 136)"><tspan x="0" y="0">messages-formatted data</tspan></text>
    <text class="st9" transform="translate(267 203)"><tspan x="0" y="0">Key point:</tspan></text>
    <text class="st10" transform="translate(360 203)"><tspan x="0" y="0">emphasize formatting</tspan></text>
    <text class="st10" transform="translate(267 230)"><tspan x="0" y="0">(Reasoning + Final Answer) to provide</tspan></text>
    <text class="st10" transform="translate(267 257)"><tspan x="0" y="0">the flywheel with an initial reasoning</tspan></text>
    <text class="st10" transform="translate(267 284)"><tspan x="0" y="0">template and language style.</tspan></text>
    <text class="st5" transform="translate(312 350)"><tspan x="0" y="0">Core script:</tspan></text>
    <text class="st4" transform="translate(420 350)"><tspan x="0" y="0">sample_traces.py</tspan></text>
    <text class="st8" transform="translate(716.42 42)"><tspan x="0" y="0">Component 2: Multi-Path Reasoning Sampling</tspan></text>
    <text class="st8" transform="translate(833.39 66)"><tspan x="0" y="0">(Exploration Stage)</tspan></text>
    <text class="st4" transform="translate(698.73 191.38)"><tspan x="0" y="0">Prompt</tspan></text>
    <text class="st12" transform="translate(833.79 123)"><tspan x="0" y="0">Candidate Trace</tspan></text>
    <text class="st12" transform="translate(833.79 183)"><tspan x="0" y="0">Candidate Trace</tspan></text>
    <text class="st12" transform="translate(833.79 276)"><tspan x="0" y="0">Candidate Trace</tspan></text>
    <text/>
    <text/>
    <text/>
    <text class="st12" transform="translate(998 119)"><tspan x="0" y="0">Backend support:</tspan></text>
    <text class="st12" transform="translate(998 142)"><tspan x="0" y="0">supports vLLM or</tspan></text>
    <text class="st12" transform="translate(998 165)"><tspan x="0" y="0">OpenAI API</tspan></text>
    <text class="st3" transform="translate(979 226)"><tspan x="0" y="0">Recorded information:</tspan></text>
    <text class="st6" transform="translate(979 251)"><tspan x="0" y="0">• sampling parameters</tspan></text>
    <text class="st6" transform="translate(979 274)"><tspan x="0" y="0">• trace ID</tspan></text>
    <text class="st6" transform="translate(979 297)"><tspan x="0" y="0">• raw output</tspan></text>
    <text class="st5" transform="translate(781 350)"><tspan x="0" y="0">Core script:</tspan></text>
    <text class="st4" transform="translate(890 350)"><tspan x="0" y="0">batch_infer.py</tspan></text>
    <text class="st8" transform="translate(1224.8 52)"><tspan x="0" y="0">Component 3: Verifier Pool (Automated Judging)</tspan></text>
    <text class="st9" transform="translate(1267.84 118)"><tspan x="0" y="0">Math</tspan></text>
    <text class="st9" transform="translate(1255.54 141)"><tspan x="0" y="0">Verifier:</tspan></text>
    <text class="st4" transform="translate(1257 165)"><tspan x="0" y="0">symbolic</tspan></text>
    <text class="st4" transform="translate(1248.01 188)"><tspan x="0" y="0">comparison</tspan></text>
    <text class="st4" transform="translate(1238.77 211)"><tspan x="0" y="0">and numerical</tspan></text>
    <text class="st4" transform="translate(1263.51 235)"><tspan x="0" y="0">parsing</tspan></text>
    <text class="st9" transform="translate(1418.89 118)"><tspan x="0" y="0">Code</tspan></text>
    <text class="st9" transform="translate(1405.54 141)"><tspan x="0" y="0">Verifier:</tspan></text>
    <text class="st7" transform="translate(1394.91 165)"><tspan x="0" y="0">unit tests in a</tspan></text>
    <text class="st7" transform="translate(1411.67 189)"><tspan x="0" y="0">sandbox</tspan></text>
    <text class="st7" transform="translate(1397.04 213)"><tspan x="0" y="0">environment</tspan></text>
    <text class="st9" transform="translate(1552.45 120.18)"><tspan x="0" y="0">Format</tspan></text>
    <text class="st9" transform="translate(1551.42 145.34)"><tspan x="0" y="0">Verifier:</tspan></text>
    <text class="st7" transform="translate(1555.17 175.42)"><tspan x="0" y="0">structural</tspan></text>
    <text class="st7" transform="translate(1556.49 198.36)"><tspan x="0" y="0">integrity</tspan></text>
    <text class="st7" transform="translate(1558.15 219.06)"><tspan x="0" y="0">checks</tspan></text>
    <text class="st9" transform="translate(1234 290)"><tspan x="0" y="0">Feature:</tspan></text>
    <text class="st10" transform="translate(1312 290)"><tspan x="0" y="0">emphasizes the stability of</tspan></text>
    <text class="st10" transform="translate(1234 316)"><tspan x="0" y="0">rule-based evaluation.</tspan></text>
    <text class="st5" transform="translate(1302 351)"><tspan x="0" y="0">Core script:</tspan></text>
    <text class="st4" transform="translate(1412 351)"><tspan x="0" y="0">verifier_pool.py</tspan></text>
    <text class="st9" transform="translate(1296.4 442)"><tspan x="0" y="0">Component 4: Rejection Sampling</tspan></text>
    <text class="st9" transform="translate(1356.6 466)"><tspan x="0" y="0">(Selective Filtering)</tspan></text>
    <text class="st4" transform="translate(1320.71 505)"><tspan x="0" y="0">Large volume of sampled traces</tspan></text>
    <text class="st4" transform="translate(1449 563)"><tspan x="0" y="0">Ranking logic: based on</tspan></text>
    <text class="st4" transform="translate(1449 587)"><tspan x="0" y="0">verifier_pass and</tspan></text>
    <text class="st4" transform="translate(1449 611)"><tspan x="0" y="0">reward score</tspan></text>
    <text class="st8" transform="translate(1388 663)"><tspan x="0" y="0">Output:</tspan></text>
    <text class="st10" transform="translate(1470 663)"><tspan x="0" y="0">rejection_selected.jsonl</tspan></text>
    <text class="st10" transform="translate(1354 716)"><tspan x="0" y="0">Filtered curated data</tspan></text>
    <text class="st5" transform="translate(1302 756)"><tspan x="0" y="0">Core script:</tspan></text>
    <text class="st4" transform="translate(1412 756)"><tspan x="0" y="0">rejection_filter.py</tspan></text>
    <text class="st5" transform="translate(710.9 530)"><tspan x="0" y="0">Component 5: Second-Round SFT Data Merging</tspan></text>
    <text class="st5" transform="translate(846.25 555)"><tspan x="0" y="0">(Data Fusion)</tspan></text>
    <text class="st5" transform="translate(737 630)"><tspan x="0" y="0">Content:</tspan></text>
    <text class="st7" transform="translate(819 630)"><tspan x="0" y="0">mix cold-start data and selected</tspan></text>
    <text class="st4" transform="translate(828.52 657)"><tspan x="0" y="0">traces in proportion</tspan></text>
    <text class="st5" transform="translate(728 700)"><tspan x="0" y="0">Output:</tspan></text>
    <text class="st7" transform="translate(807 700)"><tspan x="0" y="0">generate the final training manifest</tspan></text>
    <text class="st5" transform="translate(781 756)"><tspan x="0" y="0">Core script:</tspan></text>
    <text class="st4" transform="translate(890 756)"><tspan x="0" y="0">data_merge.py</tspan></text>
    <text class="st8" transform="translate(246 529)"><tspan x="0" y="0">Component 6: Training and Evaluation</tspan></text>
    <text class="st8" transform="translate(341.5 554)"><tspan x="0" y="0">(Feedback Loop)</tspan></text>
    <text class="st5" transform="translate(260 632)"><tspan x="0" y="0">Operation:</tspan></text>
    <text class="st4" transform="translate(358 632)"><tspan x="0" y="0">run lightweight LoRA training</tspan></text>
    <text class="st4" transform="translate(314.28 661)"><tspan x="0" y="0">and immediately connect to</tspan></text>
    <text class="st4" transform="translate(315.76 690)"><tspan x="0" y="0">GSM8K/MATH evaluation</tspan></text>
    <text class="st5" transform="translate(280 756)"><tspan x="0" y="0">Core script:</tspan></text>
    <text class="st4" transform="translate(388 756)"><tspan x="0" y="0">train_and_eval.py</tspan></text>
    <text class="st4" transform="translate(466.06 413)"><tspan x="0" y="0">Human / strong-model extraction of cold-start data</tspan></text>
    <text class="st7" transform="translate(936 415)"><tspan x="0" y="0">Closed-loop</tspan></text>
    <text class="st7" transform="translate(936 438)"><tspan x="0" y="0">feedback</tspan></text>
    <text class="st7" transform="translate(607 600)"><tspan x="0" y="0">Closed-loop</tspan></text>
    <text class="st7" transform="translate(607 623)"><tspan x="0" y="0">feedback</tspan></text>
    <text class="st11" transform="translate(1105 652)"><tspan x="0" y="0">Successful traces</tspan></text>
    <text class="st11" transform="translate(1105 676)"><tspan x="0" y="0">discovered by</tspan></text>
    <text class="st11" transform="translate(1105 700)"><tspan x="0" y="0">self-exploration</tspan></text>
  </g>
</svg>