<?xml version="1.0" encoding="UTF-8"?>
<svg id="_图层_1" data-name="图层_1" xmlns="http://www.w3.org/2000/svg" version="1.1" viewBox="0 0 900 491">
  <!-- Generator: Adobe Illustrator 29.6.0, SVG Export Plug-In . SVG Version: 2.1.1 Build 207)  -->
  <defs>
    <style>
      .st0 {
        fill: #ccdceb;
      }

      .st1 {
        fill: #d4e5ee;
      }

      .st2 {
        fill: #3a3837;
      }

      .st3, .st4, .st5, .st6, .st7, .st8, .st9, .st10 {
        isolation: isolate;
      }

      .st3, .st5 {
        font-size: 13px;
      }

      .st3, .st6, .st9, .st11 {
        font-family: TimesNewRomanPSMT, 'Times New Roman';
      }

      .st12 {
        fill: #fbedda;
      }

      .st13 {
        fill: #f9dbb3;
      }

      .st14 {
        fill: #4b7eaa;
      }

      .st4, .st8, .st10, .st15 {
        font-family: TimesNewRomanPS-BoldMT, 'Times New Roman';
        font-weight: 700;
      }

      .st4, .st9 {
        font-size: 27px;
      }

      .st16 {
        fill: #fbcb8f;
      }

      .st17 {
        fill: #474643;
      }

      .st18 {
        fill: #caeff2;
      }

      .st19 {
        fill: #c1e9ee;
      }

      .st20 {
        fill: #93cf99;
      }

      .st21 {
        fill: #be84d1;
      }

      .st22 {
        fill: #f8c180;
      }

      .st23 {
        fill: #62a56d;
      }

      .st24 {
        fill: #e2f0df;
      }

      .st25 {
        fill: #9867ab;
      }

      .st26 {
        fill: #9260a6;
      }

      .st27 {
        fill: #65526f;
      }

      .st28 {
        fill: #d3e5ee;
      }

      .st29 {
        fill: #c6816e;
      }

      .st30 {
        fill: #facb90;
      }

      .st31 {
        fill: #e7dae3;
      }

      .st32 {
        fill: #b9d0e9;
      }

      .st33 {
        fill: #4f7fb7;
      }

      .st34 {
        fill: #6dac76;
      }

      .st35 {
        fill: #cbf0f3;
      }

      .st36 {
        fill: #40b2c2;
      }

      .st37 {
        fill: #9575a2;
      }

      .st38 {
        fill: #fbe3c3;
      }

      .st39 {
        fill: #54a8c3;
      }

      .st40 {
        fill: #eaa257;
      }

      .st41 {
        fill: #6097dc;
      }

      .st42 {
        fill: #e5f1e2;
      }

      .st43 {
        fill: #5684b3;
      }

      .st44 {
        fill: #5c85b0;
      }

      .st45 {
        fill: #bbdebc;
      }

      .st46 {
        fill: #63a26d;
      }

      .st47 {
        fill: #f9d4a5;
      }

      .st48 {
        fill: #3e6795;
      }

      .st49 {
        fill: #e4d6e0;
      }

      .st50 {
        fill: #f9d5a8;
      }

      .st51 {
        fill: #609ce4;
      }

      .st6, .st10 {
        font-size: 15px;
      }

      .st52 {
        fill: #fce9d0;
      }

      .st53 {
        fill: #9ad29d;
      }

      .st54 {
        fill: #f9f4eb;
      }

      .st55 {
        fill: #678cb6;
      }

      .st56 {
        fill: #8bb3e3;
      }

      .st57 {
        fill: #e2e9f5;
      }

      .st58 {
        fill: #a66950;
      }

      .st59 {
        fill: #ddece9;
      }

      .st60 {
        fill: #fcf2e4;
      }

      .st61 {
        fill: #77c586;
      }

      .st62 {
        fill: #333130;
      }

      .st63 {
        fill: #afc9e2;
      }

      .st64 {
        fill: #7ad2dd;
      }

      .st65 {
        fill: #f1f3f8;
      }

      .st66 {
        fill: #e2dde0;
      }

      .st67 {
        fill: #c38ad7;
      }

      .st68 {
        fill: #a3dee5;
      }

      .st69 {
        fill: #f5a44f;
      }

      .st70 {
        fill: #faa953;
      }

      .st71 {
        fill: #cfa8df;
      }

      .st72 {
        fill: #fcead2;
      }

      .st73 {
        fill: #fbe4c5;
      }

      .st74 {
        fill: #60b3c7;
      }

      .st75 {
        fill: #f2faf0;
      }

      .st76 {
        fill: #8bc192;
      }

      .st77 {
        fill: #d5ead3;
      }

      .st78 {
        fill: #f3746c;
      }

      .st79 {
        fill: #4dacc1;
      }

      .st80 {
        fill: #5183ae;
      }

      .st81 {
        fill: #5294b7;
      }

      .st82 {
        fill: #bd95c9;
      }

      .st83 {
        fill: #eba458;
      }

      .st84 {
        fill: #b48ac3;
      }

      .st85 {
        fill: #cfe8cd;
      }

      .st86 {
        fill: #f8b971;
      }

      .st87 {
        fill: #dec4e6;
      }

      .st88 {
        fill: #a7c4e4;
      }

      .st89 {
        fill: #f9d5a9;
      }

      .st90 {
        fill: #6ec6d2;
      }

      .st91 {
        fill: #4dcbdf;
      }

      .st92 {
        fill: #5080b8;
      }

      .st93 {
        fill: #fbfefb;
      }

      .st94 {
        fill: #dcecea;
      }

      .st95 {
        fill: #eff2f8;
      }

      .st96 {
        fill: #6ba1c1;
      }

      .st97 {
        fill: #6e92b7;
      }

      .st98 {
        fill: #74afc9;
      }

      .st99 {
        fill: #85b0e4;
      }

      .st100 {
        fill: #4472a3;
      }

      .st101 {
        fill: #84837f;
      }

      .st102 {
        fill: #83d5df;
      }

      .st103 {
        fill: #5da168;
      }

      .st104 {
        fill: #a4a29e;
      }

      .st105 {
        fill: #d7f4f8;
      }

      .st8 {
        font-size: 17px;
      }

      .st106 {
        fill: #fce3c0;
      }

      .st107 {
        fill: #4c82ad;
      }

      .st108 {
        fill: #ddbbec;
      }

      .st109 {
        fill: #d3aede;
      }

      .st110 {
        fill: #f8f0fa;
      }

      .st111 {
        fill: #453d45;
      }

      .st112 {
        fill: #77b180;
      }

      .st113 {
        fill: #cfa8db;
      }

      .st114 {
        fill: #73a8c5;
      }

      .st115 {
        fill: #aecced;
      }

      .st116 {
        fill: #6ba775;
      }

      .st117 {
        fill: #facc94;
      }

      .st118 {
        fill: #56c9dc;
      }

      .st119 {
        fill: #bfad96;
      }

      .st120 {
        fill: #f1e2f4;
      }

      .st121 {
        fill: #d77556;
      }

      .st122 {
        fill: #65a56f;
      }

      .st123 {
        fill: #e5d8e2;
      }

      .st124 {
        fill: #f9d2a1;
      }

      .st125 {
        fill: #cdaf8d;
      }

      .st126 {
        fill: #85ca8d;
      }

      .st127 {
        fill: #63b6ca;
      }

      .st128 {
        fill: #b2dcb5;
      }

      .st129 {
        fill: #d8ebd5;
      }

      .st130 {
        fill: #eefbfc;
      }

      .st131 {
        fill: #72aec8;
      }

      .st132 {
        fill: #f8bc79;
      }

      .st133 {
        fill: #a475b6;
      }

      .st134 {
        fill: #bed4ea;
      }

      .st135 {
        fill: #e1cae8;
      }

      .st136 {
        fill: #a6c3e3;
      }

      .st137 {
        fill: #527dab;
      }

      .st138 {
        fill: #eddcf1;
      }

      .st139 {
        fill: #a8dfe5;
      }

      .st140 {
        fill: #cce6ca;
      }

      .st141 {
        fill: #f9b56a;
      }

      .st142 {
        fill: #dee9f2;
      }

      .st143 {
        fill: #5abfcc;
      }

      .st144 {
        fill: #9fdee5;
      }

      .st145 {
        fill: #dce2e9;
      }

      .st146 {
        fill: #baddbb;
      }

      .st147 {
        fill: #b3e3e8;
      }

      .st148 {
        fill: #c498d1;
      }

      .st149 {
        fill: #90b6e4;
      }

      .st150 {
        fill: #e9d5ed;
      }

      .st151 {
        fill: #9dd2a0;
      }
    </style>
  </defs>
  <g id="_x23_f9f4ebff">
    <path class="st54" d="M0,0h900v491H0V0M388.22,100.57c-3.89.9-7.43,2.96-11.13,4.44-1.15,1.54-2.49,2.89-4.04,4.01-2.93,4.37-4.68,9.47-4.58,14.76-1.26,6.1-.64,12.32-1.01,18.49-.26,4.9.29,9.81-.04,14.71-.71,5.45.24,10.91.08,16.38-.22,9.7-.15,19.42.15,29.1.48,1.48,1.26,2.91,1.17,4.52,0,15.03-.11,30.07.02,45.1,1.49,5.91-.31,11.85-.31,17.81-.82,3.53,1.3,7.11-.21,10.52-1.99-1.15-4.01-2.24-6.03-3.33-.05,1.53-.14,3.07-.22,4.61-2.63.44-5.37.67-7.77,1.93-.69-8.63,0-17.27-.57-25.9.56-3.66.44-7.33-.03-10.99.51-8.56.47-17.14.35-25.7-.84-4,.15-8.01-.03-12.02-.78-7.31.45-14.64-.24-21.95.24-21.26.76-42.56-.39-63.81-.71-3.24-.8-7.93-4.29-9.42-1.43-3.07-4.72-5.12-8.12-4.88-44.01.03-88.01-.02-132.02.02-3.83-.07-7.25,3.14-7.82,6.86-.42.16-1.26.48-1.68.64-1.24,2.67-2.16,5.57-2.31,8.53-.2,33.01-.47,66.03.03,99.03.01,8-1.4,16.03-.17,24,.67,6.99-.69,14-.07,20.99.89,4.57-.38,9.16-.81,13.71-3.33-1.93-6.69-3.8-10.06-5.67-.1,1.55-.21,3.1-.29,4.66-1.59.25-3.18.49-4.73.9-.41-.27-1.22-.8-1.63-1.06-1.45-4.04-2.2-8.31-1.75-12.59-.7-3.47-.18-6.88.74-10.25-.94-4.52-1.01-9.17-1.26-13.74,2.19-8.61-.42-17.45.54-26.17.68-7.6-.4-15.22.25-22.81-.09-16.3-.12-32.62-.19-48.92.05-7.79.65-15.64-.32-23.39-.88-3.4-.78-7.9-4.38-9.7-1.61-2.45-3.85-5.03-7.03-5.03-44.36-.06-88.72,0-133.08-.03-3.87-.21-7.66,2.94-8.12,6.77-1.76,1.99-1.1,4.87-1.9,7.25-1.28,4.21-1.44,8.64-1.29,13.02-.07,32.34.04,64.69,0,97.04,1.47,11.16-1.23,22.46.61,33.64-1.43,9.18.5,18.38.11,27.59-.49,5.93.77,11.91-.69,17.76,1.11,8.28,1,16.74.09,25.04.09,1.4.61,2.79.43,4.2-1.04,4.31.98,8.62.02,12.96-1.55,7.87.63,15.75.23,23.65-.07,5.11.28,10.21-.12,15.31.22,5.95-1.01,11.83-.6,17.79.39,5.98,2.06,12.63,7.36,16.15,6.59,2.43,13.69.86,20.51,1.44,3.6,1.51,5.2,5.52,8.52,7.45,2.8,1.62,5.04,4.64,8.55,4.56,5.05.87,10.25,1.37,15.33.43,2.35-.6,4.67.5,7.04.44,11.97-.12,23.95-.06,35.92-.09,4.67-.61,9.78-.72,13.57-3.9,3.01-2.84,5.36-6.43,8.83-8.74,5.53-.72,11.13.14,16.68-.24,3.53-.01,6.09-2.74,8.66-4.77,2.49-1.86,1.64-5.41,2.91-7.98-.25-32.66-.14-65.43-.09-98.13-.12-2.24.49-4.41.75-6.6-1.11-5.69,1.21-11.48-.34-17.19,1.23-1.02,3.28-1.3,3.97-2.79,1.97-.39,3.94-.76,5.92-1.08.03,1.78.07,3.56.11,5.35,3.61-2.1,7.18-4.27,10.69-6.53.55,28.4.06,56.86.47,85.26-.53,10.67,1.07,21.36-.14,32.02.31,6.82-.71,14.85,4.58,20.15,2.11.9,3.49,3.04,5.82,3.52,6.58,1.78,13.57.4,20.22,1.73,3.01,1.65,3.9,5.48,6.86,7.23,3.23,1.92,6.73,3.72,10.51,4.13,5.14.05,10.28-.69,15.43-.19,8.66.03,17.32-.3,25.99-.05,8.85-.63,17.98,1.43,26.54-1.75,5.91-1.68,7.36-9.44,13.72-10.25,5.12-.23,10.28-.02,15.4-.51,3.78-.86,7.58-2.98,9.36-6.58,3.05-5.73,2.25-12.45,2.94-18.69-1.36-4.74-.19-9.64-.8-14.45.36-13.84.5-27.73.2-41.59.28-7.69.15-15.38-.01-23.06.57-5.66-.72-11.29-.13-16.95-.66-5.32,1.68-10.77-.46-15.89,2.78-1.5,5.81-2.52,8.97-2.8.04,1.72.1,3.43.15,5.15.91-.49,1.82-1,2.71-1.53.2,4.23.39,8.46.41,12.7-.65,15.44.38,30.93-.58,46.36,1.03,8.07-.26,16.17.08,24.25-1.44,6.9,1.92,14.02-.27,20.8.64,3.06-.07,6.17.39,9.25.55,4.32-.42,9.08,2.1,12.96,1.14,1.63,1.1,3.66,1.28,5.56.7-.1,1.4-.19,2.1-.28-.05.83-.11,1.68-.15,2.52,2.23,1.18,3.85,3.07,4.61,5.49.65.1,1.3.22,1.96.35.59.59,1.18,1.18,1.78,1.78,2.02.21,3.78,1.25,5.62,2.03,1.9.62,4.5-.77,5.71,1.33-5.43.54-10.91-.04-16.32.78-10.07-.38-20.44-.73-30.23,2.11-4.51,1.48-7.11,5.44-9.69,9.11-.97,3.1-.96,6.45-2.38,9.44.49,6.79,4.48,13.38,10.32,17.12,4.66,1.2,9.36,2.98,14.25,2.45,7.04-.56,14.15.84,21.13-.61,4.33-.3,8.67.62,13.02.07,5.94,1.26,11.98.13,17.98.63,3.02.31,5.94-.93,8.96-.71,6.33.8,12.67-.57,19.02-.14,13.02-.46,26.04,1.03,39.04.04,11.41-.38,22.78.82,34.18.54,12.91.55,25.82-.1,38.73.26,6.64-1.02,15.2-1.44,18.72-8.19,3.82-5.37,5.41-12.39,3.43-18.76-2.08-5.23-6.78-9.57-12.35-10.7-.39-.04-1.18-.12-1.57-.16-.88-.87-1.92-1.28-3.13-1.22-19.32.12-38.64-.17-57.95-.22.33-2.82,3.07-4.64,5.28-6.05,7.04-.59,14.37.68,21.18-1.82,1.09-1.05,2.13-2.25,3.73-2.48,1.16-3.63,5.57-4.81,6.47-8.56,2.74-10.3,2.99-21.06,2.64-31.65-.1-2.32,1.12-4.57.55-6.88-1.59-7.34.15-14.85-.51-22.27.01-19.92-.2-39.86-.06-59.79-.44-3.43-.85-6.85-.22-10.29,1.14-.32,2.31-.55,3.49-.77.2,1.7.36,3.4.53,5.11,3-1.65,5.9-3.5,8.85-5.25.61,10.38.42,20.81.95,31.16-.81,3.66.52,7.3.12,10.97-1.18,10.95-.29,21.98-.66,32.96.81,8.05-.06,16.12.26,24.18-.06,10.7-1.35,21.58,1.07,32.13,1.91,6.24,8.14,9.66,14.26,10.49,4.87.14,9.85-.72,14.64.5,3.19,1.23,5.5,3.97,6.98,6.98,3.63,1.83,7.36,3.52,11.22,4.84,8.34.69,16.74-.65,25.11-.31,11.33.12,22.68-.28,34.01.15,4.58,1.27,8.82-1.46,12.95-3.06,3.7-2.9,5.85-7.95,10.71-9.28,5.55-.5,11.19.86,16.7-.24,4.78-1.89,9.03-5.47,10.97-10.33.14-3.36,1.26-6.71.54-10.07-.31-2.07.88-4.09.39-6.16-.9-4.9-.41-9.89-.53-14.83.29-32.63-.24-65.27.07-97.9,2.06-.9,4.26-1.43,6.42-2.08l1.17.25c-.02,1.57.03,3.15.04,4.73,3.38-1.68,6.52-3.8,9.75-5.75.29,1.26.49,2.54.62,3.83,0,24.96-.12,49.93-.04,74.89.03,15.83-.18,31.68.71,47.49.18,5.59,3.4,11.08,8.56,13.42,5.18,1.41,10.64,1.64,15.96,1.1,3.96-.4,7.8,1.97,9.9,5.25,2.3,3.54,6.47,4.97,10.1,6.74,8.95.82,17.97.27,26.95.25,12.01.43,24.03.32,36.04.06,5.81.17,11.06-3.22,14.76-7.46,1.96-2.12,4.12-4.51,7.21-4.72,3.71-.84,7.4.88,11.12.31,5.88-.83,12.41-3.44,14.63-9.44,1.72-6.18.21-12.59.63-18.86.81-9.78-.55-19.58.31-29.36-.05-11.01.45-22.04-.09-33.05.08-26.78.29-53.54-.08-80.3.58-11.46-.12-22.93.34-34.38-.32-9.23.56-18.46-.19-27.66.73-16.11-.16-32.22.2-48.34-.46-8.6.33-17.21-.14-25.81-.51-2.97-.94-6.68-3.92-8.22-.3-.67-.9-2-1.2-2.67-1.09-1.2-2.33-2.22-3.68-3.09l-.27.08c-3.85-.65-7.75-.28-11.63-.38-40.98.01-81.97,0-122.96.02-4.46-.37-8.77,3.37-8.78,7.89-3.54,1.92-4.04,6.58-4.41,10.19-.19,27.69-.05,55.38-.09,83.07-.01,3.21,1.16,6.37.66,9.6-1.02,6.02-1.3,12.21-.32,18.26.56,4.02-.05,8.06-.41,12.07,0,10.84.34,21.7-.31,32.51-3.32-1.83-6.52-3.93-10.04-5.37.03,1.48.07,2.97.12,4.46-2.04.42-4.08.8-6.13,1.05-2.1.55-4.09,1.39-6.01,2.35.15-7.13.34-14.29-.19-21.4.05-.41.16-1.23.22-1.64-.02-30,.02-60,0-90-.19-12.28.46-24.62-.44-36.87,1.03-6.41-.3-12.82-.48-19.23-.48-4.43-5.09-7.53-9.41-6.97-43.36.02-86.71,0-130.06,0-1.26-.01-2.48.17-3.66.54-.66.06-1.98.17-2.64.23-4.08,3.63-7.29,8.75-7.41,14.35-1.69,9.98-.38,20.12-.86,30.17-.48,5.93.36,11.85.11,17.79-.56,15,.36,30.02-.48,45-.85,3.3,1.1,6.41.81,9.74-.28,7.73-1.55,15.6.12,23.27.77,3.84.2,7.75-1.24,11.35.72,6.94,1.64,13.94.86,20.93-3.09-1.82-6.16-3.67-9.32-5.35-.02.89-.04,2.67-.05,3.56-1.36-.32-3.2-.43-3.67-2.03-1.25-3.32-.77-6.96-.84-10.43.15-27.68.03-55.36.03-83.04.98-9.27,1.64-18.57,1.45-27.91.22-6.94-.93-13.84-.63-20.78-.02-3.78.98-7.53.47-11.31-1.03-5.65-2.73-11.24-5.7-16.19-2.38-1.98-5.11-3.53-7.31-5.75-4.16-1.81-8.71-2.68-13.24-2.44-9.25-.55-18.54.06-27.78-.59-7.49.74-15.04.34-22.56.36-3.8-.3-7.61.42-11.4-.19-3.38-.57-6.74.32-10.13.11-7.94-.22-15.93.66-23.84-.35-8.23,1.14-16.56.02-24.82.66Z"/>
  </g>
  <g id="_x23_fbe4c5ff">
    <path class="st73" d="M388.22,100.57c8.26-.64,16.59.48,24.82-.66,7.91,1.01,15.9.13,23.84.35,3.39.21,6.75-.68,10.13-.11,3.79.61,7.6-.11,11.4.19,7.52-.02,15.07.38,22.56-.36,9.24.65,18.53.04,27.78.59,4.53-.24,9.08.63,13.24,2.44,2.2,2.22,4.93,3.77,7.31,5.75,2.97,4.95,4.67,10.54,5.7,16.19.51,3.78-.49,7.53-.47,11.31-.3,6.94.85,13.84.63,20.78.19,9.34-.47,18.64-1.45,27.91,0,27.68.12,55.36-.03,83.04.07,3.47-.41,7.11.84,10.43.47,1.6,2.31,1.71,3.67,2.03-.04.32-.11.96-.14,1.28-1.77.32-3.54.6-5.3.9-.61.1-1.82.31-2.43.41-.94-2.85-.62-5.87-.64-8.81,0-4.36-.96-8.72-.35-13.08.59-4.41.88-8.92-.1-13.3-1.77-6.55,1.72-13.1.52-19.69-1.09-5.69-.18-11.44-.09-17.16.61-16.33-.72-32.68.1-49.01-.37-5.96.71-11.92-.05-17.87-.71-6.3.17-12.64-.1-18.96-.12-3.26-2.04-6-3.75-8.63-.58-3.91-3.43-7.32-7.49-7.78-4.03-1.28-7.98-3.19-12.31-3.02-11.35.04-22.71-.09-34.06.16-4.67.79-9.34-.44-14.01.04-4.65.59-9.29-.34-13.94-.21-9.04-.21-18.06.18-27.09.02-11.1.27-22.65-.96-33.25,3.09-2.53.71-4.88,2.18-5.96,4.67-.2.33-.6.99-.79,1.33-1.08,1.68-2.48,3.25-2.86,5.26-1.32,6.2-1.49,12.57-1.38,18.89-.46,24.02.11,48.03-.16,72.05-.42,5.03,1.45,9.98.39,14.99-.44,9.28-.61,18.64,0,27.92,1.46,6.68-.58,13.4-.3,20.13.04,3,.15,6,.27,9-1.56-.85-3.07-1.78-4.61-2.66,1.51-3.41-.61-6.99.21-10.52,0-5.96,1.8-11.9.31-17.81-.13-15.03-.01-30.07-.02-45.1.09-1.61-.69-3.04-1.17-4.52-.3-9.68-.37-19.4-.15-29.1.16-5.47-.79-10.93-.08-16.38.33-4.9-.22-9.81.04-14.71.37-6.17-.25-12.39,1.01-18.49-.1-5.29,1.65-10.39,4.58-14.76,1.55-1.12,2.89-2.47,4.04-4.01,3.7-1.48,7.24-3.54,11.13-4.44Z"/>
    <path class="st73" d="M378.75,154.34c48.4-.07,96.81.03,145.21-.03.25,44.04-.05,88.08.08,132.11-1.51.96-3.1,1.77-4.69,2.57-.21-37.32-.03-74.65-.07-111.98.19-2.39-.96-4.49-2.02-6.53-.05-4.9-4.13-9.55-9.19-9.32-38.01.18-76.03-.09-114.05.13-2.96.05-5.71,2.02-7.3,4.41-.59,2.83-.64,5.74-.86,8.61-.35-1.82-.82-3.62-1.29-5.4-2.49,3.84-1.63,8.59-1.86,12.92.2,49.71.16,99.42.17,149.12-.12,4.05.55,8.09.32,12.14-.77,6.69,1.08,13.38.05,20.07.02,15.6-.37,31.22.67,46.81.51,5.28,5.85,7.54,9.63,10.26-3.09.1-6.19.12-9.28.35-4.02-.75-6.04-4.71-5.59-8.53-.06-85.9-.2-171.82.07-257.71Z"/>
  </g>
  <g id="_x23_f9d4a5ff">
    <path class="st47" d="M416.96,105.74c9.03.16,18.05-.23,27.09-.02,4.65-.13,9.29.8,13.94.21,4.67-.48,9.34.75,14.01-.04,11.35-.25,22.71-.12,34.06-.16,4.33-.17,8.28,1.74,12.31,3.02-44.88.2-89.78.01-134.66.08,10.6-4.05,22.15-2.82,33.25-3.09Z"/>
  </g>
  <g id="_x23_5684b3ff">
    <path class="st43" d="M24.82,115.7c.46-3.83,4.25-6.98,8.12-6.77,44.36.03,88.72-.03,133.08.03,3.18,0,5.42,2.58,7.03,5.03l-1.09.21c-1.54-1.19-2.85-2.72-4.62-3.57-3.04-.77-6.22-.4-9.32-.46-41.36.04-82.72.04-124.09,0-3.88-.36-7.85,2.79-7.79,6.81-.17,12.42.08,24.84-.11,37.26,0,85.94.02,171.88.01,257.82-.44,3.51,1.45,7.12,4.81,8.4,8.09,1.19,16.35.16,24.51.49.53-2.38,1.06-4.76,1.6-7.13-3.65-.18-7.37.16-10.95-.71,3.77.08,7.54.05,11.31.24,2.35-2.04,4.66-4.41,7.74-5.27,2.6-.68,5.31-.62,7.97-.65,18.34.13,36.67.09,55.01.03,4.65-.26,9.07,1.94,12.03,5.47.67,1.1,1.29,2.22,1.85,3.39.33,1.51.57,3.05.83,4.6,8.16-.34,16.42.7,24.5-.54,2.3-.67,3.63-2.78,4.82-4.68.14.39.41,1.17.54,1.56-1.06,3.05-4.19,4.7-7.26,5-7.53-.52-15.09-.03-22.62-.28-.34,1.61-.73,3.21-1.12,4.81-1.4,3.3-4.27,5.57-7.26,7.37-4.74.69-9.54.66-14.32.6-13.33.04-26.67.02-40,0-5.47-.04-10.98.22-16.4-.71-1.88-1.3-3.81-2.52-5.55-4.01-1.31-2.47-2.11-5.17-2.64-7.9-7.99-.18-16-.3-23.99.1-2.65-1-5.44-2.58-6.23-5.52-.76-3.51-.32-7.15-.4-10.71.04-96.77,0-193.55,0-290.32M66.21,409.32c-5.55,1.39-9.95,6.92-9.21,12.75.17,6.17,5.85,11.36,12,11.2,19.96.08,39.93.05,59.9-.02,3.02.07,6.02-.94,8.27-2.98,3.9-3.24,4.84-8.91,3.31-13.56-1.81-4.54-6.57-7.79-11.48-7.7-19.31-.03-38.62,0-57.94-.02-1.62.03-3.27-.09-4.85.33Z"/>
  </g>
  <g id="_x23_9575a2ff">
    <path class="st37" d="M201.14,115.83c.57-3.72,3.99-6.93,7.82-6.86,44.01-.04,88.01.01,132.02-.02,3.4-.24,6.69,1.81,8.12,4.88.38,2.38.49,4.78.49,7.18.08,54.63-.09,109.26.01,163.89-.35.33-1.05.99-1.4,1.32.02-43.97.11-87.94.1-131.9.34-10.78.1-21.56.11-32.33-.21-3.19.26-6.84-1.86-9.51-1.53-1.97-4.2-2.36-6.54-2.37-43.01.02-86.03.05-129.04-.02-2.36-.02-4.93.39-6.6,2.24-2.13,1.94-1.83,5.09-1.94,7.71.11,11.42,0,22.85.09,34.28-.03,38.9-.03,77.79,0,116.68.06,5.07.08,10.15-.25,15.22-.32-.16-.96-.48-1.28-.64.31-56.58-.14-113.17.15-169.75Z"/>
    <path class="st37" d="M250.59,345.83c.36-2.92,3.59-2.96,5.81-2.28.73,1.3,1.47,2.61,2.69,3.53.93-.46,1.86-.91,2.8-1.36,1.2,1.11,2.39,2.23,3.58,3.37-.7,1.57-1.74,3.95.55,4.74,2.81.78,1.9,3.9,1.87,6.07-1.26.57-2.44,1.28-3.46,2.21.31.76.93,2.27,1.23,3.03-1.13,1.37-2.35,2.68-3.64,3.91-2.13-1.98-4.89-.86-5.18,2-1.68.11-3.37.32-5.04.09-.91-.85-.86-2.35-1.91-3.07-1.32-.39-2.52.51-3.76.83-1.09-.93-2.21-1.83-3.16-2.91-.45-1.61,1.15-3.36-.07-4.8-.89-.54-1.79-1.03-2.72-1.47-.15-1.75-.05-3.5.13-5.23.63-.2,1.9-.6,2.53-.8.22-.48.67-1.43.89-1.91-.41-.93-.82-1.85-1.23-2.77,1.14-1.16,2.34-2.28,3.6-3.32.89.41,1.79.83,2.69,1.25.45-.27,1.35-.83,1.8-1.11M252.56,345.1c-.47,3.64-4.55,3.1-7.24,3.27-1.26,1.44.43,3.69-.7,5.27-.59,1.45-3.06,1.57-2.97,3.31-.42,2.45,3.38,2.63,3.38,5.07-.16,1.78-.45,3.68,1.07,5,.97-.3,1.94-.58,2.92-.86.85.37,1.71.75,2.58,1.14.41,2.07,2,2.98,4.04,2.67.21-.64.65-1.91.86-2.55,1.7-.94,3.57-1.05,5.44-.63,1.99-.15,1.06-2.67,1.1-3.9-.79-3.15,4.41-3.64,3.17-6.88-3.33-.71-3.93-4.15-2.5-6.83-2.46-2.29-7.85.52-8.2-4.26-.99.05-1.97.11-2.95.18Z"/>
    <path class="st37" d="M285.22,347.18c7.93-.31,15.89-.07,23.83-.23.89,1.1.97,2.51.89,3.87-8.2-.16-16.4-.14-24.6-.13-.04-1.17-.08-2.34-.12-3.51M288.98,349.55c2.5,2.07,2.61-3.43-.04-1.62-2.75-1.73-2.48,3.55.04,1.62M292.16,348.03c-.52,1.39-.07,1.87,1.35,1.43.52-1.39.06-1.87-1.35-1.43Z"/>
  </g>
  <g id="_x23_eaa257ff">
    <path class="st40" d="M377.75,113.5c1.08-2.49,3.43-3.96,5.96-4.67,44.88-.07,89.78.12,134.66-.08,4.06.46,6.91,3.87,7.49,7.78-.33,39.5.01,79.01-.11,118.51-.29,16.77.39,33.58-.29,50.33-.36.26-1.07.79-1.42,1.05-.13-44.03.17-88.07-.08-132.11-.02-12.43.06-24.87-.02-37.3.21-4.09-4.04-7.08-7.87-6.75-39.68.11-79.38-.05-119.06.04-4.21.07-8.45-.45-12.63.16-2.69.4-4.39,2.62-5.74,4.76-.22-.43-.67-1.29-.89-1.72Z"/>
  </g>
  <g id="_x23_ddece9ff">
    <path class="st59" d="M555.65,109.64c.66-.06,1.98-.17,2.64-.23-.53.32-1.58.95-2.11,1.27-1.08.69-1.69,1.86-2.39,2.89-1.34,4-.74,8.3-.93,12.45-.03,53.1-.04,106.19.03,159.29-1.78-1.03-3.56-2.05-5.33-3.07.78-6.99-.14-13.99-.86-20.93,1.44-3.6,2.01-7.51,1.24-11.35-1.67-7.67-.4-15.54-.12-23.27.29-3.33-1.66-6.44-.81-9.74.84-14.98-.08-30,.48-45,.25-5.94-.59-11.86-.11-17.79.48-10.05-.83-20.19.86-30.17.12-5.6,3.33-10.72,7.41-14.35Z"/>
  </g>
  <g id="_x23_40b2c2ff">
    <path class="st36" d="M558.29,109.41c1.18-.37,2.4-.55,3.66-.54,43.35,0,86.7.02,130.06,0,4.32-.56,8.93,2.54,9.41,6.97-.67,11.71-.28,23.44-.37,35.16-.15,1.18-.43,2.32-.84,3.44-.23-12.51-.05-25.03-.14-37.54.26-4.25-4.12-6.93-7.97-6.65-37.04-.09-74.08.04-111.12-.04-8.27,0-16.56-.26-24.8.47.53-.32,1.58-.95,2.11-1.27Z"/>
  </g>
  <g id="_x23_62a56dff">
    <path class="st23" d="M729.26,116.79c.01-4.52,4.32-8.26,8.78-7.89,40.99-.02,81.98-.01,122.96-.02,3.88.1,7.78-.27,11.63.38-4.35,1.67-9.08.88-13.61,1-40.02-.02-80.04-.03-120.07-.02-3.45-.22-7.77,1.88-7.85,5.76-.71,12.77.35,25.57-.35,38.35-.01,1.62.06,3.25.15,4.87-.6-.8-1.19-1.59-1.78-2.39.01-13.35.18-26.69.14-40.04Z"/>
  </g>
  <g id="_x23_77c586ff">
    <path class="st61" d="M872.63,109.26l.27-.08c1.35.87,2.59,1.89,3.68,3.09-1.38,2.37.18,5.2.01,7.77.07,11.41-.04,22.82.03,34.24-48.62.19-97.25.04-145.87.07.7-12.78-.36-25.58.35-38.35.08-3.88,4.4-5.98,7.85-5.76,40.03,0,80.05,0,120.07.02,4.53-.12,9.26.67,13.61-1Z"/>
  </g>
  <g id="_x23_609ce4ff">
    <path class="st51" d="M26.14,116.98c-.06-4.02,3.91-7.17,7.79-6.81,41.37.04,82.73.04,124.09,0,3.1.06,6.28-.31,9.32.46,1.77.85,3.08,2.38,4.62,3.57.12,13.35-.04,26.69.02,40.04-48.65.04-97.3.09-145.95,0,.19-12.42-.06-24.84.11-37.26Z"/>
  </g>
  <g id="_x23_c38ad7ff">
    <path class="st67" d="M204.37,112.33c1.67-1.85,4.24-2.26,6.6-2.24,43.01.07,86.03.04,129.04.02,2.34.01,5.01.4,6.54,2.37,2.12,2.67,1.65,6.32,1.86,9.51-.01,10.77.23,21.55-.11,32.33-48.59.15-97.19.14-145.78,0-.09-11.43.02-22.86-.09-34.28.11-2.62-.19-5.77,1.94-7.71Z"/>
  </g>
  <g id="_x23_faa953ff">
    <path class="st70" d="M384.38,110.46c4.18-.61,8.42-.09,12.63-.16,39.68-.09,79.38.07,119.06-.04,3.83-.33,8.08,2.66,7.87,6.75.08,12.43,0,24.87.02,37.3-48.4.06-96.81-.04-145.21.03.64-8.76.08-17.54.36-26.31-.09-4.27.21-8.57-.47-12.81,1.35-2.14,3.05-4.36,5.74-4.76Z"/>
  </g>
  <g id="_x23_4dcbdfff">
    <path class="st91" d="M556.18,110.68c8.24-.73,16.53-.47,24.8-.47,37.04.08,74.08-.05,111.12.04,3.85-.28,8.23,2.4,7.97,6.65.09,12.51-.09,25.03.14,37.54-48.49-.19-96.98-.01-145.47-.09-1.13-13.57.34-27.24-.95-40.78.7-1.03,1.31-2.2,2.39-2.89Z"/>
    <path class="st91" d="M598.42,349.01c-.32-1.74,1.17-2.82,2.18-3.97-.06,6.19.46,12.43-.07,18.6-.13,1.4-1.93,1.39-2.03.04-.26-4.88-.03-9.78-.08-14.67Z"/>
  </g>
  <g id="_x23_6dac76ff">
    <path class="st34" d="M876.59,120.04c.17-2.57-1.39-5.4-.01-7.77.3.67.9,2,1.2,2.67.55,16.34.15,32.7.27,49.06-.02,83.02.02,166.04-.02,249.05.07,2.39-.99,4.56-2.01,6.65-2.16,1.27-4.45,2.55-7.04,2.45-7.17.24-14.35.09-21.52.12-.99,3.58-2.15,7.49-5.37,9.73-3.92,3.28-9.3,2.84-14.07,2.8-17.34.06-34.69.07-52.03.07-3.78-.01-7.91-.39-10.86-3.02-3.11-2.3-4.51-6.02-5.65-9.56-7.49-.14-15,.23-22.48-.2-2.44-.04-4.32-1.76-6.2-3.09-.43-.91-.81-1.84-1.14-2.77.3-.41.89-1.24,1.18-1.65.22,2.77,2.32,5.09,4.97,5.82,7.92,1.15,15.99.18,23.97.48.38-1.71.77-3.41,1.24-5.08.4-.95.84-1.87,1.33-2.77,3.07-3.17,7.09-5.75,11.69-5.47,19.98.01,39.97-.05,59.95.03,4.24-.07,8.11,2.19,10.79,5.36.72,1.34,1.39,2.72,1.96,4.16.18,1.25.34,2.52.5,3.79,6.64.16,13.29.1,19.94-.07,4.39.63,9.34-2.14,9.34-6.98.14-86.52.08-173.05.1-259.57-.07-11.42.04-22.83-.03-34.24M770.34,409.45c-5.49,1.84-9.71,7.52-8.67,13.42.61,5.98,6.34,10.78,12.34,10.32,19.95.11,39.91-.07,59.86.12,7.12.19,13.24-7.28,11.81-14.19-1.07-5.87-6.68-10.58-12.71-10.12-19.33-.01-38.67.02-58-.02-1.56.05-3.16-.08-4.63.47Z"/>
  </g>
  <g id="_x23_5080b8ff">
    <path class="st92" d="M171.96,114.2l1.09-.21c.21,3.34.35,6.68.32,10.02.03,49.33.03,98.65.05,147.98,0,4.56.24,9.14-.35,13.68l-.95.76c-.3-44.06,0-88.13-.14-132.19-.06-13.35.1-26.69-.02-40.04Z"/>
  </g>
  <g id="_x23_dce2e9ff">
    <path class="st145" d="M173.05,113.99c3.6,1.8,3.5,6.3,4.38,9.7.97,7.75.37,15.6.32,23.39.07,16.3.1,32.62.19,48.92-.65,7.59.43,15.21-.25,22.81-.96,8.72,1.65,17.56-.54,26.17.25,4.57.32,9.22,1.26,13.74-.92,3.37-1.44,6.78-.74,10.25-.45,4.28.3,8.55,1.75,12.59.41.26,1.22.79,1.63,1.06-.58.16-1.75.49-2.34.66-1.92.69-3.8,1.51-5.64,2.39.59-4.54.36-9.12.35-13.68-.02-49.33-.02-98.65-.05-147.98.03-3.34-.11-6.68-.32-10.02Z"/>
  </g>
  <g id="_x23_e7dae3ff">
    <path class="st31" d="M349.1,113.83c3.49,1.49,3.58,6.18,4.29,9.42,1.15,21.25.63,42.55.39,63.81.69,7.31-.54,14.64.24,21.95.18,4.01-.81,8.02.03,12.02.12,8.56.16,17.14-.35,25.7.47,3.66.59,7.33.03,10.99.57,8.63-.12,17.27.57,25.9-.79.38-1.6.76-2.4,1.13-.57.03-1.72.11-2.3.15-.1-54.63.07-109.26-.01-163.89,0-2.4-.11-4.8-.49-7.18Z"/>
  </g>
  <g id="_x23_f5a44fff">
    <path class="st69" d="M376.96,114.83c.19-.34.59-1,.79-1.33.22.43.67,1.29.89,1.72.68,4.24.38,8.54.47,12.81-.28,8.77.28,17.55-.36,26.31-.27,85.89-.13,171.81-.07,257.71-.45,3.82,1.57,7.78,5.59,8.53l-.46.33c-.29.22-.88.66-1.17.88-3.91-1.5-5.93-5.74-5.76-9.76-.24-56.68-.04-113.35-.13-170.03.12-42.39-.25-84.78.21-127.17Z"/>
    <path class="st69" d="M538.24,276.89c3.16,1.68,6.23,3.53,9.32,5.35,1.77,1.02,3.55,2.04,5.33,3.07l-.02.81c-1.85,1.38-3.83,2.57-5.81,3.75-2.95,1.75-5.85,3.6-8.85,5.25-.17-1.71-.33-3.41-.53-5.11-2.37-1.92-3.61-4.73-4.93-7.38,1.76-.3,3.53-.58,5.3-.9.03-.32.1-.96.14-1.28.01-.89.03-2.67.05-3.56Z"/>
  </g>
  <g id="_x23_5abfccff">
    <path class="st143" d="M552.86,126.02c.19-4.15-.41-8.45.93-12.45,1.29,13.54-.18,27.21.95,40.78-.26,85.91-.13,171.82-.19,257.73-.34,3.58,1.48,7.46,5.21,8.36,7.86,1.05,15.86.42,23.77.23.17-1.03.37-2.05.59-3.06.6-1.58,1.31-3.12,2.11-4.6,2.79-3.06,6.51-5.57,10.81-5.44,19.99-.29,39.98-.05,59.97-.1,4.65-.22,8.97,2.15,11.94,5.6.55,1.18,1.05,2.39,1.49,3.63.29,1.41.57,2.82.83,4.25,7.94-.17,15.97.64,23.85-.57,3.2-.82,5.47-4.11,4.97-7.4-.01-38.48.18-76.97-.12-115.45v-.43l.97.46c.61,12.44.04,24.94.15,37.41-.01,27.08-.25,54.16.27,81.24-.68,2.59-2.94,4.24-4.85,5.92-8.33-.01-16.67.23-25.01.2-.59,1.94-1.19,3.88-1.93,5.76-.39.66-.78,1.32-1.18,1.97-3.35,3.18-7.69,5.24-12.38,5.02-19.34.02-38.69.13-58.03,0-7.2.02-13.41-5.7-14.57-12.7-8.49-.02-16.98-.09-25.46-.35-2.81-2.23-5.22-5.26-5.06-9.05-.05-42.28-.05-84.58-.02-126.86l.02-.81c-.07-53.1-.06-106.19-.03-159.29M594.3,409.51c-4.13,1.33-7.7,4.65-8.68,8.96-1.91,6.95,4.08,15.09,11.41,14.68,20.3.08,40.6.2,60.9-.05,5.61.33,10.42-4.32,11.5-9.6,1.8-7.29-4.99-15.09-12.4-14.52-19.33.03-38.65.03-57.98,0-1.6.02-3.24-.07-4.75.52Z"/>
  </g>
  <g id="_x23_f9d5a8ff">
    <path class="st50" d="M374.1,120.09c.38-2.01,1.78-3.58,2.86-5.26-.46,42.39-.09,84.78-.21,127.17.09,56.68-.11,113.35.13,170.03-.17,4.02,1.85,8.26,5.76,9.76.52.14,1.55.4,2.07.54,4.09,1.06,7.93,3.37,12.3,3.07,4.14-.19,8.13,1,11.97,2.43,2.56,4.59,7.69,7.66,12.98,7.54,19.7-.01,39.42.04,59.12-.04,5.53.02,10.6-3.47,13.01-8.36,2.9-.82,5.86-1.5,8.89-1.55,5.26-.11,10.26-1.87,15.35-2.99,1.31-.36,2.56-.89,3.75-1.58,2.91-1.91,4.46-5.37,4.28-8.81-.04-38.04.03-76.09-.04-114.13-.22-1.77.77-3.24,1.9-4.48,1.11-.67,2.26-1.3,3.44-1.87-1.6,9.09-.95,18.34-1.06,27.52.14,7.75-.2,15.51.5,23.24-.99,10.2-.3,20.45-.43,30.67.13,7.77-.3,15.55.37,23.3-.72,8.6.63,17.62-3.04,25.74-2.05,2.58-4.58,4.79-7.3,6.63-5.52,2.66-11.85,1.67-17.75,2.04-4.91.24-8.42,4.01-11.86,7.06-3.86.34-7.18,2.86-11.09,2.86-18.65.81-37.33.18-55.99.93-4.82.32-9.59-1.31-13.24-4.47-3.89-2.69-7.66-6.37-12.72-6.32-6.57-.12-13.92.05-19.19-4.55-6.45-5.34-7.2-14.43-6.63-22.21.58-4.01-.58-7.97-.59-11.97-.02-15.02.07-30.03.07-45.05.44-4.66.92-9.33.06-13.98-.21-14.5-.02-29.01-.17-43.51,1.35-.83,2.81-1.47,4.32-1.97.03-1.03.07-2.06.1-3.09-1.05-.43-2.07-.88-3.09-1.36-.12-3-.23-6-.27-9-.28-6.73,1.76-13.45.3-20.13-.62-9.28-.45-18.64,0-27.92,1.06-5.01-.81-9.96-.39-14.99.27-24.02-.3-48.03.16-72.05-.11-6.32.06-12.69,1.38-18.89Z"/>
  </g>
  <g id="_x23_d5ead3ff">
    <path class="st77" d="M877.78,114.94c2.98,1.54,3.41,5.25,3.92,8.22.47,8.6-.32,17.21.14,25.81-.36,16.12.53,32.23-.2,48.34.75,9.2-.13,18.43.19,27.66-.46,11.45.24,22.92-.34,34.38.37,26.76.16,53.52.08,80.3.54,11.01.04,22.04.09,33.05-.86,9.78.5,19.58-.31,29.36-.42,6.27,1.09,12.68-.63,18.86-2.22,6-8.75,8.61-14.63,9.44-3.72.57-7.41-1.15-11.12-.31-3.09.21-5.25,2.6-7.21,4.72-3.7,4.24-8.95,7.63-14.76,7.46-12.01.26-24.03.37-36.04-.06-8.98.02-18,.57-26.95-.25-3.63-1.77-7.8-3.2-10.1-6.74-2.1-3.28-5.94-5.65-9.9-5.25-5.32.54-10.78.31-15.96-1.1-5.16-2.34-8.38-7.83-8.56-13.42-.89-15.81-.68-31.66-.71-47.49-.08-24.96.04-49.93.04-74.89-.13-1.29-.33-2.57-.62-3.83,1.56-.96,3.16-1.87,4.73-2.84-.03,40.53.05,81.06-.03,121.6.04,2.75-.23,5.62.76,8.27.33.93.71,1.86,1.14,2.77,1.06,4.62,6.03,6.39,10.25,6.82,5.08.69,10.3-.21,15.34.86,5.8,3.32,9.01,10.85,16.23,11.78,9.11.8,18.28.19,27.42.25,9.32.38,18.66.15,27.99.08,4.86.04,10.01-.7,13.94-3.8,3.3-2.38,5.24-6.16,8.45-8.6,6.99-1.09,14.44.92,21.23-1.65,2.34-.73,3.44-2.98,4.37-5.04,1.02-2.09,2.08-4.26,2.01-6.65.04-83.01,0-166.03.02-249.05-.12-16.36.28-32.72-.27-49.06Z"/>
    <path class="st77" d="M724.85,126.98c.37-3.61.87-8.27,4.41-10.19.04,13.35-.13,26.69-.14,40.04-.47,42.8-.04,85.61-.19,128.41-1.5-.96-3.03-1.85-4.55-2.75.65-10.81.31-21.67.31-32.51.36-4.01.97-8.05.41-12.07-.98-6.05-.7-12.24.32-18.26.5-3.23-.67-6.39-.66-9.6.04-27.69-.1-55.38.09-83.07Z"/>
  </g>
  <g id="_x23_ccdcebff">
    <path class="st0" d="M22.92,122.95c.8-2.38.14-5.26,1.9-7.25,0,96.77.04,193.55,0,290.32.08,3.56-.36,7.2.4,10.71.79,2.94,3.58,4.52,6.23,5.52,6.25,4.16,13.97,1.09,20.84,2.49,2.2,1.44,3.72,3.7,5.79,5.31,1.74,1.49,3.67,2.71,5.55,4.01,2.29,2.55,5.56,3.76,8.97,3.55,14.46-.19,28.92-.03,43.39-.18,6.18-.15,13.38,1.41,18.36-3.27,2.99-1.8,5.86-4.07,7.26-7.37,7.28-4.62,16.4-.2,23.74-4.53,3.07-.3,6.2-1.95,7.26-5,.85-2.68.78-5.51.79-8.27-.07-37.64.08-75.28-.14-112.92.83-.82,1.72-1.59,2.65-2.29,1.55,5.71-.77,11.5.34,17.19-.26,2.19-.87,4.36-.75,6.6-.05,32.7-.16,65.47.09,98.13-1.27,2.57-.42,6.12-2.91,7.98-2.57,2.03-5.13,4.76-8.66,4.77-5.55.38-11.15-.48-16.68.24-3.47,2.31-5.82,5.9-8.83,8.74-3.79,3.18-8.9,3.29-13.57,3.9-11.97.03-23.95-.03-35.92.09-2.37.06-4.69-1.04-7.04-.44-5.08.94-10.28.44-15.33-.43-3.51.08-5.75-2.94-8.55-4.56-3.32-1.93-4.92-5.94-8.52-7.45-6.82-.58-13.92.99-20.51-1.44-5.3-3.52-6.97-10.17-7.36-16.15-.41-5.96.82-11.84.6-17.79.4-5.1.05-10.2.12-15.31.4-7.9-1.78-15.78-.23-23.65.96-4.34-1.06-8.65-.02-12.96.18-1.41-.34-2.8-.43-4.2.91-8.3,1.02-16.76-.09-25.04,1.46-5.85.2-11.83.69-17.76.39-9.21-1.54-18.41-.11-27.59-1.84-11.18.86-22.48-.61-33.64.04-32.35-.07-64.7,0-97.04-.15-4.38.01-8.81,1.29-13.02Z"/>
    <path class="st0" d="M150.91,337.42c3.18-.93,5.78,1.77,7.57,4.04,2.29,3.12,2.17,7.12,2.1,10.8.66,11.57.06,23.16.44,34.74.28,8.12-1.15,16.34.49,24.38-.46.57-.93,1.14-1.41,1.71-2.65-.23-5.32-.37-7.98-.22,2.42-1.96,5-4.41,4.62-7.84-.11-20,.04-40-.02-60,.04-3.59-2.78-6.2-5.81-7.61Z"/>
  </g>
  <g id="_x23_e4d6e0ff">
    <path class="st49" d="M199.46,116.47c.42-.16,1.26-.48,1.68-.64-.29,56.58.16,113.17-.15,169.75l-.79-.39c-1.35-.84-2.7-1.65-4.07-2.46.43-4.55,1.7-9.14.81-13.71-.62-6.99.74-14,.07-20.99-1.23-7.97.18-16,.17-24-.5-33-.23-66.02-.03-99.03.15-2.96,1.07-5.86,2.31-8.53Z"/>
  </g>
  <g id="_x23_6ec6d2ff">
    <path class="st90" d="M701.42,115.84c.18,6.41,1.51,12.82.48,19.23.9,12.25.25,24.59.44,36.87.03,30-.01,60,0,90-.06.41-.17,1.23-.22,1.64-2.29,7.49.94,15.64-1.93,22.99-.47-29.85-.07-59.71-.2-89.57.14-14.18-.28-28.39.21-42.56.41-1.12.69-2.26.84-3.44.09-11.72-.3-23.45.37-35.16Z"/>
  </g>
  <g id="_x23_f9d2a1ff">
    <path class="st124" d="M525.86,116.53c1.71,2.63,3.63,5.37,3.75,8.63.27,6.32-.61,12.66.1,18.96.76,5.95-.32,11.91.05,17.87-.82,16.33.51,32.68-.1,49.01-.09,5.72-1,11.47.09,17.16,1.2,6.59-2.29,13.14-.52,19.69.98,4.38.69,8.89.1,13.3-.61,4.36.35,8.72.35,13.08.02,2.94-.3,5.96.64,8.81,1.19,3.82-2.93,6.81-2.1,10.39-1.13,1.24-2.12,2.71-1.9,4.48.07,38.04,0,76.09.04,114.13.18,3.44-1.37,6.9-4.28,8.81-.48-.19-1.43-.57-1.9-.76,1.51-1.74,3.74-3.37,3.57-5.95.36-19.71-.07-39.43.13-59.14-.19-19.03.23-38.07-.24-57.09-2.26,2.13-4.06,4.88-4.15,8.09-.32,6.66-.41,13.33-.33,20.01,0,26.99.08,53.97,0,80.97.06,3.71-1.22,7.58-4.18,9.98-2.06,1.45-4.62,1.88-6.97,2.67,3.69.55,7.43.86,11.16.63-7.82,1.5-15.82-.01-23.73.42-.16-.72-.48-2.16-.64-2.88,5.93-.92,12.91-.43,17.66-4.68.76-.81,1.51-1.63,2.22-2.49,1.99-2.02,2.6-4.81,2.47-7.56-.35-26.36.17-52.72.02-79.08-.34-39.68.23-79.37-.12-119.05.18-11.48-.18-22.98.22-34.46,1.06,2.04,2.21,4.14,2.02,6.53.04,37.33-.14,74.66.07,111.98,1.59-.8,3.18-1.61,4.69-2.57.35-.26,1.06-.79,1.42-1.05.68-16.75,0-33.56.29-50.33.12-39.5-.22-79.01.11-118.51Z"/>
  </g>
  <g id="_x23_d4e5eeff">
    <path class="st1" d="M26.03,154.24c48.65.09,97.3.04,145.95,0,.14,44.06-.16,88.13.14,132.19-.69.64-1.35,1.31-1.98,2.01-.56.04-1.67.11-2.22.15-1.45-4.35-.35-8.9-.22-13.34.12-7.42-.44-14.85.2-22.26.49-5.44-.66-10.85-.42-16.29.39-8.62.45-17.26.15-25.88.89-8.6-.31-17.21.12-25.82-.05-5.76.77-12.25-2.81-17.22-1.62-2.19-2.83-5.54-5.99-5.72-3.65-.41-7.32-.18-10.98-.21-35.65.03-71.3-.06-106.95,0-5.24-.91-7.51,4.85-6.98,9.13.11,73.99-.03,147.99.06,221.98.17,4.47.08,8.95-.47,13.4-.33-1.43-.53-2.9-.57-4.36.08-74.99.04-149.98.02-224.97-.03-2.75-.22-5.49-.56-8.21-3.15,6.79-1.31,14.39-1.85,21.57-.18,10.9.36,21.8.06,32.71.81,23.98-.87,47.97.13,71.95.21,16-.4,32,.2,47.99-.39,19.63-.18,39.27.06,58.91.17,3.76-.03,7.78,1.7,11.25,2.41,2.96,5.93,4.66,9.11,6.66-3.69.25-7.38.51-11.08.6-3.36-1.28-5.25-4.89-4.81-8.4,0-85.94-.01-171.88-.01-257.82Z"/>
  </g>
  <g id="_x23_eddcf1ff">
    <path class="st138" d="M202.52,271c-.03-38.89-.03-77.78,0-116.68,48.59.14,97.19.15,145.78,0,.01,43.96-.08,87.93-.1,131.9-1.8,1.85-3.91,3.35-6.06,4.75-.13-6.36,2.07-12.64.61-18.97-.32-11.56.09-23.15-.29-34.72.51-11.86-.47-23.75.65-35.57-1.76-10.62.95-21.6-1.72-32.07-.97-3.24-2.66-6.89-6.25-7.78-5.04-.99-10.23-.48-15.33-.36-7.28-.13-14.56.19-21.84.25-11.19-1.15-22.46-.15-33.68-.11-9.29-1.05-18.62.21-27.94-.09-5.52-.28-11.05.57-16.55-.18-5.24-1.02-10.26,3.82-9.99,9.04-1.46,1.52-2.39,3.43-2.22,5.58.13,7.15-1.23,14.24-.47,21.38-1.13,5.55,1.05,11.09-.19,16.62-1.12,5.62.59,11.24.25,16.89.78,15.34-.09,30.7-.08,46.05.5,6.04,1.02,12.15-.03,18.17-.79,4.3.63,8.58.44,12.9-.22,8-.4,16-.82,23.99,1.31,20.3.56,40.68.86,61.02.28,6.68-1.31,13.97,2.17,20.07,1.66,3.28,5.17,4.81,8.13,6.68-3.37.32-6.75.64-10.13.75-4.3-1.02-5.27-5.69-5.06-9.48-.05-40.01-.06-80.03,0-120.04-.2-1.57.48-3.87-1.49-4.59l-.23-.18c-.19-.26-.55-.77-.74-1.03l.79.39c.32.16.96.48,1.28.64.33-5.07.31-10.15.25-15.22Z"/>
  </g>
  <g id="_x23_cbf0f3ff">
    <path class="st35" d="M554.74,154.35c48.49.08,96.98-.1,145.47.09-.49,14.17-.07,28.38-.21,42.56.13,29.86-.27,59.72.2,89.57l-.15.43c-1.72,1-3.43,2.03-5.15,3.02-.51-15.67.04-31.37-.15-47.05-.13-23.28.04-46.55-.08-69.82.05-1.91-.49-3.77-1.45-5.4-1.79-3.01-4.31-6.47-8.19-6.46-36.01-.24-72.03-.02-108.04-.1-2.89.02-5.8-.26-8.65.26-3.45.85-5.01,4.3-6.72,7.05-2.61,3.27-2.36,7.58-2.75,11.5-.53,6.01.44,12.03-.07,18.03-.49,4.99.23,9.98.01,14.98-.25,13.32-.38,26.65.08,39.97-.53,6.01.43,12.02.05,18.03-.74,6.16,1.23,12.31.02,18.46.32,22.83-.15,45.7.36,68.54-.17,11.95.57,23.9.05,35.85.26,6.44-.73,13.11,1.48,19.32,1.56,4.27,6.72,4.53,10.14,6.64-3.74.31-7.48.52-11.23.62-3.73-.9-5.55-4.78-5.21-8.36.06-85.91-.07-171.82.19-257.73Z"/>
  </g>
  <g id="_x23_d8ebd5ff">
    <path class="st129" d="M730.75,154.35c48.62-.03,97.25.12,145.87-.07-.02,86.52.04,173.05-.1,259.57,0,4.84-4.95,7.61-9.34,6.98-5.71-.8-11.48-.93-17.22-1.2,6.47-.3,13.23-1.94,17.88-6.76,1.74-1.47,1.94-3.83,2.4-5.91-1.62,1.8-2.96,3.95-5.03,5.28-1.82.72-3.84.48-5.73.62-.64,0-1.91.01-2.54.02,2.53-2.26,5.02-5.12,4.72-8.77-.03-19.72,0-39.46-.03-59.18.17-3.53-2.76-6-5.71-7.28.36-.31,1.07-.93,1.43-1.24,3.46,1.54,6.54,3.83,8.9,6.82,3.26-1.92,2.5-5.96,2.61-9.16-.03-51.38-.01-102.77.03-154.15-.09-4.54.44-9.12-.26-13.62-1.01-3.14-4.45-5.06-7.65-5.05-12.1-.16-24.21-.13-36.31.15-10.89-.62-21.79.43-32.67-.2-13.55.04-27.09.03-40.62.11-3.63.28-7.97-.65-10.72,2.36-2.62,2.24-2.33,5.97-2.97,9.04-2,6.29-.31,12.86-.71,19.27-.49,4.78-.16,9.58-.24,14.36.04,10.3-.13,20.59-.01,30.88.09,3.41-.45,6.88.44,10.23v.23c-.73,13.44-.37,26.93-.19,40.37-.6,8.99.28,18,.08,26.99-.48,3.41.09,6.81.77,10.15.2,1.75.22,3.52.16,5.29-2.25,2.16-1.52,5.4-1.6,8.17.33,10.58.05,21.15.1,31.73.38,11.24-.55,22.47-.09,33.71.14,4.56,1.42,9.44,4.94,12.58,1.53,1.62,3.82,1.99,5.76,2.95-3.74.55-7.52.71-11.29.78-2.65-.73-4.75-3.05-4.97-5.82.34-22.2.06-44.41.08-66.6.09-62.92.17-125.84-.02-188.76-.09-1.62-.16-3.25-.15-4.87Z"/>
  </g>
  <g id="_x23_8bc192ff">
    <path class="st76" d="M729.12,156.83c.59.8,1.18,1.59,1.78,2.39.19,62.92.11,125.84.02,188.76-.02,22.19.26,44.4-.08,66.6-.29.41-.88,1.24-1.18,1.65-.99-2.65-.72-5.52-.76-8.27.08-40.54,0-81.07.03-121.6v-1.12c.15-42.8-.28-85.61.19-128.41Z"/>
  </g>
  <g id="_x23_f1e2f4ff">
    <path class="st120" d="M209.81,170.41c-.27-5.22,4.75-10.06,9.99-9.04,5.5.75,11.03-.1,16.55.18,9.32.3,18.65-.96,27.94.09,11.22-.04,22.49-1.04,33.68.11,7.28-.06,14.56-.38,21.84-.25,5.1-.12,10.29-.63,15.33.36,3.59.89,5.28,4.54,6.25,7.78-.28,39.79.11,79.57-.08,119.36-.01,3.29-.21,6.58-.37,9.87-.66,35.68.02,71.4-.3,107.08-.09,2.02-1.33,3.69-2.16,5.46-.51.25-1.51.77-2.01,1.02-.38-10.8-.51-21.61-.65-32.42-.28-6.14,1.39-12.24.42-18.37-.86-5.73.81-12.19-2.72-17.24-1.34-2.19-2.46-4.87-4.94-5.97-1.82-.56-3.75-.5-5.63-.55-31.97.1-63.94.1-95.91.03-3.07-.06-7.09.38-8.3,3.74-.84,3.51-.64,7.17-1.1,10.74-.43-2.46-.84-4.92-1.1-7.39-2.62,7.43-1.83,15.31-2.01,23.03.08,4.99-.04,9.99.51,14.97.89,9.99-1.22,20.27,1.74,30.04-4.05-1.1-7.37-4.6-6.82-9.02-.23-77.88.51-155.75-.15-233.61Z"/>
  </g>
  <g id="_x23_fcead2ff">
    <path class="st72" d="M386.72,165.7c1.59-2.39,4.34-4.36,7.3-4.41,38.02-.22,76.04.05,114.05-.13,5.06-.23,9.14,4.42,9.19,9.32-.4,11.48-.04,22.98-.22,34.46.35,39.68-.22,79.37.12,119.05.15,26.36-.37,52.72-.02,79.08.13,2.75-.48,5.54-2.47,7.56-2.4-5.3-.54-11.1-1.55-16.63-1.19-6.44,1.24-12.87.18-19.31-.82-4.21.08-8.45-.21-12.67-.75-7.17,1.23-15.31-4.01-21.26-.29-.1-.88-.32-1.17-.42-2.22-1.02-4.29-2.64-6.87-2.34-33.03,0-66.06-.05-99.09-.02-3-.12-6.55,1.22-7.47,4.35-.53,3.29-.54,6.65-.85,9.98-.34-3.1-.71-6.2-1.04-9.29-.98,1.06-2.21,2.14-2.16,3.72-.32,9.08.06,18.18-.74,27.24.82,10.33.36,20.7.52,31.06.2,2.16-.84,4.02-2.12,5.66-.45-.49-1.37-1.48-1.83-1.97-.19-2.25-.44-4.49-.5-6.75.15-49.67-.07-99.36.11-149.03.11-26.21-.32-52.43-.01-78.64.22-2.87.27-5.78.86-8.61Z"/>
  </g>
  <g id="_x23_d7f4f8ff">
    <path class="st105" d="M568.34,161.45c2.85-.52,5.76-.24,8.65-.26,36.01.08,72.03-.14,108.04.1,3.88,0,6.4,3.45,8.19,6.46.14,78.75-.09,157.49.05,236.24.3,3.56-1.62,7.16-5.11,8.33,1.58-10.6.51-21.31,1.21-31.96.16-4.11-.43-8.2-.3-12.31.07-7.32,1.3-14.89-1.06-22-.49-1.67-1.72-2.95-2.87-4.18-2.17-2.25-4.82-4.36-8.14-4.08-33.01.04-66.02.02-99.02-.02-3.6-.07-8.28,2.04-7.98,6.28-.3,21.07.38,42.16-.29,63.23-.59-2.04-.69-4.17-.66-6.27.2-10.67.07-21.33.03-31.99-.04-8.37.3-16.76-.55-25.1-.86.66-1.99,1.25-1.99,2.5-.84,6.46.25,13-.53,19.47-.04,6.98.11,13.97-.32,20.94.69,7.98,1.21,16.13-.01,24.09-1.3-.46-2.59-1.2-2.99-2.62-1.32-3.95-.7-8.21-.81-12.29-.03-55.02-.01-110.04-.01-165.06-.18-20.82.33-41.65-.25-62.45,1.71-2.75,3.27-6.2,6.72-7.05Z"/>
  </g>
  <g id="_x23_e5f1e2ff">
    <path class="st42" d="M740.66,163.67c2.75-3.01,7.09-2.08,10.72-2.36,13.53-.08,27.07-.07,40.62-.11,10.88.63,21.78-.42,32.67.2,12.1-.28,24.21-.31,36.31-.15,3.2,0,6.64,1.91,7.65,5.05.7,4.5.17,9.08.26,13.62-.04,51.38-.06,102.77-.03,154.15-.11,3.2.65,7.24-2.61,9.16-2.36-2.99-5.44-5.28-8.9-6.82-.36.31-1.07.93-1.43,1.24-14.95.69-29.94.18-44.91.31-17.67.04-35.33.02-53,0-3.11.2-6.76-.46-9.26,1.85-3.01,2.09-2.53,6.13-2.8,9.32-.44-1.18-1.11-2.24-1.82-3.25-1.18,5.36-1.17,10.89-1.09,16.35-.65,8.24-.2,16.5-.35,24.75-.19,4.82.89,9.6.46,14.41-.33,3.74.78,7.44.26,11.17-3.83-1.55-5.96-5.49-5.57-9.54.24-24.18-.28-48.36.15-72.53.06-1.77.04-3.54-.16-5.29-.6-4.37-.47-8.77-.35-13.16-.4-21.45.18-42.91-.31-64.35v-.23c.82-24.89-.25-49.84.52-74.74.64-3.07.35-6.8,2.97-9.04Z"/>
    <path class="st42" d="M776.31,366.74c.86-2.25,2.64-3.57,5.14-3.4.08,1.87-.01,3.77-.55,5.58-2.05.48-3.75-.23-4.59-2.18Z"/>
  </g>
  <g id="_x23_e2e9f5ff">
    <path class="st57" d="M34.04,170.98c-.53-4.28,1.74-10.04,6.98-9.13,35.65-.06,71.3.03,106.95,0,3.66.03,7.33-.2,10.98.21,3.16.18,4.37,3.53,5.99,5.72-.56,31.4-.05,62.82-.25,94.23.06,44.67-.02,89.33-.01,133.99-.05,5.26,1.16,11.36-3.17,15.38-1.64-8.04-.21-16.26-.49-24.38-.38-11.58.22-23.17-.44-34.74.07-3.68.19-7.68-2.1-10.8-1.79-2.27-4.39-4.97-7.57-4.04-4.93.93-9.95.46-14.92.49-26.66-.05-53.32.08-79.99,0-3.43.1-6.97-.23-10.32.71-2.9,1.14-4.14,4.27-4.96,7.04-2.33,9.26-.43,18.94-.74,28.35-.56,4.65.35,9.29.24,13.94.06,5.33-.83,10.64-.51,15.97.15,3.23,1.64,6.45.58,9.67-2.86-1.66-6.06-3.69-6.66-7.23.55-4.45.64-8.93.47-13.4-.09-73.99.05-147.99-.06-221.98Z"/>
  </g>
  <g id="_x23_bed4eaff">
    <path class="st134" d="M164.94,167.78c3.58,4.97,2.76,11.46,2.81,17.22-.43,8.61.77,17.22-.12,25.82.3,8.62.24,17.26-.15,25.88-.24,5.44.91,10.85.42,16.29-.64,7.41-.08,14.84-.2,22.26-.13,4.44-1.23,8.99.22,13.34.55-.04,1.66-.11,2.22-.15-2.68,3.4-1.83,7.82-1.24,11.75-.55,1.9-1.2,3.78-1.45,5.75-.08,14.42-.84,28.88,0,43.31-.2,17.84-.66,35.69-.08,53.53-.15,3.81-.78,7.69-2.34,11.18-1.83,2.43-4.62,3.89-6.93,5.81,3.05.2,6.1.45,9.15.61-8.08,1.24-16.34.2-24.5.54-.26-1.55-.5-3.09-.83-4.6,6.12.2,13.01.72,18.18-3.23.48-.57.95-1.14,1.41-1.71,4.33-4.02,3.12-10.12,3.17-15.38,0-44.66.07-89.32.01-133.99.2-31.41-.31-62.83.25-94.23Z"/>
  </g>
  <g id="_x23_9fdee5ff">
    <path class="st144" d="M693.22,167.75c.96,1.63,1.5,3.49,1.45,5.4.12,23.27-.05,46.54.08,69.82.19,15.68-.36,31.38.15,47.05,1.72-.99,3.43-2.02,5.15-3.02.4.09,1.21.26,1.61.35-1.22,2.96-2.44,5.93-3.37,9,.42.19,1.26.57,1.68.75v.43c-3.32,3.31-5.63,7.7-5.35,12.51.11,29.66-.18,59.32-.01,88.98-.04,3.53.29,7.11-.24,10.62-2.01,5.48-7.27,8.64-12.61,10.23,4.42.62,8.9.66,13.36.51-7.88,1.21-15.91.4-23.85.57-.26-1.43-.54-2.84-.83-4.25,2.77-.93,5.7-.7,8.59-.76,2.44.02,4.45-1.59,6.54-2.64.86-.32,1.73-.65,2.59-.98,3.49-1.17,5.41-4.77,5.11-8.33-.14-78.75.09-157.49-.05-236.24Z"/>
    <path class="st144" d="M594.3,409.51c1.51-.59,3.15-.5,4.75-.52,19.33.02,38.65.02,57.98,0,7.41-.57,14.2,7.23,12.4,14.52-1.08,5.28-5.89,9.93-11.5,9.6-20.3.25-40.6.13-60.9.05-7.33.41-13.32-7.73-11.41-14.68.98-4.31,4.55-7.63,8.68-8.96Z"/>
  </g>
  <g id="_x23_b9d0e9ff">
    <path class="st32" d="M30.67,190.39c.54-7.18-1.3-14.78,1.85-21.57.34,2.72.53,5.46.56,8.21.02,74.99.06,149.98-.02,224.97.04,1.46.24,2.93.57,4.36.6,3.54,3.8,5.57,6.66,7.23,4.28,2.87,9.42,3.75,14.48,3.98.19,1.12.39,2.25.59,3.38-8.16-.33-16.42.7-24.51-.49,3.7-.09,7.39-.35,11.08-.6-3.18-2-6.7-3.7-9.11-6.66-1.73-3.47-1.53-7.49-1.7-11.25-.24-19.64-.45-39.28-.06-58.91-.6-15.99.01-31.99-.2-47.99-1-23.98.68-47.97-.13-71.95.3-10.91-.24-21.81-.06-32.71Z"/>
  </g>
  <g id="_x23_f9d5a9ff">
    <path class="st89" d="M382.71,181.83c.23-4.33-.63-9.08,1.86-12.92.47,1.78.94,3.58,1.29,5.4-.31,26.21.12,52.43.01,78.64-.18,49.67.04,99.36-.11,149.03.06,2.26.31,4.5.5,6.75-.21,2.51.53,4.97,2.89,6.24,3.04,2.26,6.92,2.84,10.13,4.82-1.91.21-3.82.37-5.73.44-3.78-2.72-9.12-4.98-9.63-10.26-1.04-15.59-.65-31.21-.67-46.81,1.03-6.69-.82-13.38-.05-20.07.23-4.05-.44-8.09-.32-12.14-.01-49.7.03-99.41-.17-149.12Z"/>
  </g>
  <g id="_x23_b3e3e8ff">
    <path class="st147" d="M558.87,180c.39-3.92.14-8.23,2.75-11.5.58,20.8.07,41.63.25,62.45,0,55.02-.02,110.04.01,165.06.11,4.08-.51,8.34.81,12.29.4,1.42,1.69,2.16,2.99,2.62,1.22-7.96.7-16.11.01-24.09.43-6.97.28-13.96.32-20.94.78-6.47-.31-13.01.53-19.47,0-1.25,1.13-1.84,1.99-2.5.85,8.34.51,16.73.55,25.1.04,10.66.17,21.32-.03,31.99-.03,2.1.07,4.23.66,6.27.9,1.84,2.16,3.48,3.31,5.19-2.14.15-4.23.65-6.3,1.13,5.41,2.71,11.49,3.26,17.4,4.01-.22,1.01-.42,2.03-.59,3.06-7.91.19-15.91.82-23.77-.23,3.75-.1,7.49-.31,11.23-.62-3.42-2.11-8.58-2.37-10.14-6.64-2.21-6.21-1.22-12.88-1.48-19.32.52-11.95-.22-23.9-.05-35.85-.51-22.84-.04-45.71-.36-68.54,1.21-6.15-.76-12.3-.02-18.46.38-6.01-.58-12.02-.05-18.03-.46-13.32-.33-26.65-.08-39.97.22-5-.5-9.99-.01-14.98.51-6-.46-12.02.07-18.03Z"/>
  </g>
  <g id="_x23_d3aedeff">
    <path class="st109" d="M341.39,169.64c2.67,10.47-.04,21.45,1.72,32.07-1.12,11.82-.14,23.71-.65,35.57.38,11.57-.03,23.16.29,34.72,1.46,6.33-.74,12.61-.61,18.97,2.15-1.4,4.26-2.9,6.06-4.75.35-.33,1.05-.99,1.4-1.32.58-.04,1.73-.12,2.3-.15-.23,3.06-.45,6.13-.8,9.19-.32.44-.97,1.32-1.3,1.76-.6.62-1.2,1.23-1.8,1.84-1.66,1.62-2.99,3.54-4.49,5.3-1.74-.44-1.88-2.6-2.57-3.97.16-3.29.36-6.58.37-9.87.19-39.79-.2-79.57.08-119.36Z"/>
    <path class="st109" d="M252.56,345.1c.98-.07,1.96-.13,2.95-.18.35,4.78,5.74,1.97,8.2,4.26-1.43,2.68-.83,6.12,2.5,6.83,1.24,3.24-3.96,3.73-3.17,6.88-.04,1.23.89,3.75-1.1,3.9-1.87-.42-3.74-.31-5.44.63-.21.64-.65,1.91-.86,2.55-2.04.31-3.63-.6-4.04-2.67-.87-.39-1.73-.77-2.58-1.14-.98.28-1.95.56-2.92.86-1.52-1.32-1.23-3.22-1.07-5,0-2.44-3.8-2.62-3.38-5.07-.09-1.74,2.38-1.86,2.97-3.31,1.13-1.58-.56-3.83.7-5.27,2.69-.17,6.77.37,7.24-3.27M251.31,352.07c-1.38,3.36-3.12,6.65-3.59,10.29,1.69-.48,2.31-2.88,4.26-2.66,2.08-.45,2.23,2.54,4.24,2.58-.43-3.56-1.85-6.9-3.43-10.08-.37-.03-1.11-.09-1.48-.13M258.01,351.73c-.25,3.51-.3,7.05-.1,10.58.43-.17,1.29-.49,1.72-.66.2-3,.27-6.04-.18-9.01-.36-.23-1.08-.69-1.44-.91Z"/>
    <path class="st109" d="M203.61,420.26c2.06.84,4.13,1.86,6.41,1.86,7.12.26,14.25-.12,21.37.27,1.15,3.52,2.55,7.24,5.67,9.5,3.53,3.06,8.47,3.1,12.89,3.14,17.68-.07,35.35.04,53.03-.01,4.06.02,8.42-.74,11.5-3.6,2.87-2.25,3.84-5.9,4.93-9.21,7.21-.11,14.43.15,21.64-.15,2.2-.02,4.22-.98,6.15-1.95-1.71,2.41-3.97,4.68-6.94,5.37-5.66.83-11.46-.39-17.1.69-2.89,1.2-4.67,4.02-7.1,5.89-3.31,2.53-6.53,6.07-11.04,6.04-7.23.24-14.47.38-21.71.35-8.43-.3-16.87.49-25.29-.13-6.55-.51-13.93,1.35-19.69-2.71-3.08-1.9-4.47-5.5-7.28-7.66-6.73-3.1-14.34-1.49-21.43-2.55-2.86-.42-4.65-2.83-6.01-5.14Z"/>
  </g>
  <g id="_x23_dec4e6ff">
    <path class="st87" d="M207.59,175.99c-.17-2.15.76-4.06,2.22-5.58.66,77.86-.08,155.73.15,233.61-.55,4.42,2.77,7.92,6.82,9.02-2.96-9.77-.85-20.05-1.74-30.04-.55-4.98-.43-9.98-.51-14.97.18-7.72-.61-15.6,2.01-23.03.26,2.47.67,4.93,1.1,7.39.07,17.54-.09,35.09.03,52.63-.37,3.37,2.2,5.73,4.34,7.91-.81.1-2.42.3-3.23.4,3.5,3.74,9.03,2.95,13.67,3.5-.28,1.31-.54,2.64-.77,3.97-7.98-.31-16.03.84-23.96-.29,3.38-.11,6.76-.43,10.13-.75-2.96-1.87-6.47-3.4-8.13-6.68-3.48-6.1-1.89-13.39-2.17-20.07-.3-20.34.45-40.72-.86-61.02.42-7.99.6-15.99.82-23.99.19-4.32-1.23-8.6-.44-12.9,1.05-6.02.53-12.13.03-18.17-.01-15.35.86-30.71.08-46.05.34-5.65-1.37-11.27-.25-16.89,1.24-5.53-.94-11.07.19-16.62-.76-7.14.6-14.23.47-21.38Z"/>
  </g>
  <g id="_x23_93cf99ff">
    <path class="st20" d="M736.98,191.98c.4-6.41-1.29-12.98.71-19.27-.77,24.9.3,49.85-.52,74.74-.89-3.35-.35-6.82-.44-10.23-.12-10.29.05-20.58.01-30.88.08-4.78-.25-9.58.24-14.36Z"/>
    <path class="st20" d="M816.29,348.26c4.58-2.86,10.53-2.95,15.45-.93,1.16.33,1.94,1.3,2.39,2.39-4.61,3.62-11.13,3.46-16.38,1.47-1.36-.44-2.45-1.5-1.46-2.93Z"/>
  </g>
  <g id="_x23_85ca8dff">
    <path class="st126" d="M736.98,288.05c-.18-13.44-.54-26.93.19-40.37.49,21.44-.09,42.9.31,64.35-.12,4.39-.25,8.79.35,13.16-.68-3.34-1.25-6.74-.77-10.15.2-8.99-.68-18-.08-26.99Z"/>
    <path class="st126" d="M453.35,347.48c4.94-1.35,10.75,1.61,12.25,6.58.36,3.15,1.02,6.86-1.26,9.47-3.43,4.94-11.11,5.82-15.4,1.49-5.96-4.97-3.12-15.91,4.41-17.54M452.14,352.01c-.21,3.7-.16,7.41-.1,11.12,3.72.19,6.64-2.75,9.52-4.73.88-1.82-1.34-2.66-2.49-3.47-2.2-1.17-4.24-3.35-6.93-2.92Z"/>
  </g>
  <g id="_x23_83d5dfff">
    <path class="st102" d="M700.2,286.57c2.87-7.35-.36-15.5,1.93-22.99.53,7.11.34,14.27.19,21.4,1.92-.96,3.91-1.8,6.01-2.35.49,2.21,1.01,4.41,1.56,6.61,1.11.24,2.22.49,3.35.73-2.16.65-4.36,1.18-6.42,2.08-1.89,1.19-5.04,2.19-4.61,4.97-.07,35.66-.06,71.32-.04,106.98-.02,4.07.32,8.24-.81,12.21-.52-27.08-.28-54.16-.27-81.24-.11-12.47.46-24.97-.15-37.41l-.97-.46c-.42-.18-1.26-.56-1.68-.75.93-3.07,2.15-6.04,3.37-9-.4-.09-1.21-.26-1.61-.35l.15-.43Z"/>
    <path class="st102" d="M566.72,413.6c2.07-.48,4.16-.98,6.3-1.13,4.36.84,8.8.63,13.21.54-.8,1.48-1.51,3.02-2.11,4.6-5.91-.75-11.99-1.3-17.4-4.01Z"/>
    <path class="st102" d="M668.95,413.07c3.71-.03,7.42-.02,11.13-.26,1.83.01,3.65.26,5.49.49-2.09,1.05-4.1,2.66-6.54,2.64-2.89.06-5.82-.17-8.59.76-.44-1.24-.94-2.45-1.49-3.63Z"/>
  </g>
  <g id="_x23_6097dcff">
    <path class="st41" d="M186.07,277.06c3.37,1.87,6.73,3.74,10.06,5.67,1.37.81,2.72,1.62,4.07,2.46.19.26.55.77.74,1.03-1.48.79-2.92,1.63-4.34,2.51-3.51,2.26-7.08,4.43-10.69,6.53-.04-1.79-.08-3.57-.11-5.35-1.98.32-3.95.69-5.92,1.08-.44-2.57-.9-5.13-1.17-7.71.59-.17,1.76-.5,2.34-.66,1.55-.41,3.14-.65,4.73-.9.08-1.56.19-3.11.29-4.66Z"/>
  </g>
  <g id="_x23_be84d1ff">
    <path class="st21" d="M362.29,277.08c2.02,1.09,4.04,2.18,6.03,3.33,1.54.88,3.05,1.81,4.61,2.66,1.02.48,2.04.93,3.09,1.36-.03,1.03-.07,2.06-.1,3.09-1.51.5-2.97,1.14-4.32,1.97-2.25,1.35-4.45,2.76-6.67,4.14-.89.53-1.8,1.04-2.71,1.53-.05-1.72-.11-3.43-.15-5.15-3.16.28-6.19,1.3-8.97,2.8-.5.28-1.5.85-2,1.13.35-3.06.57-6.13.8-9.19.8-.37,1.61-.75,2.4-1.13,2.4-1.26,5.14-1.49,7.77-1.93.08-1.54.17-3.08.22-4.61Z"/>
  </g>
  <g id="_x23_56c9dcff">
    <path class="st118" d="M714.34,277.12c3.52,1.44,6.72,3.54,10.04,5.37,1.52.9,3.05,1.79,4.55,2.75v1.12c-1.57.97-3.17,1.88-4.73,2.84-3.23,1.95-6.37,4.07-9.75,5.75-.01-1.58-.06-3.16-.04-4.73l-1.17-.25c-1.13-.24-2.24-.49-3.35-.73-.55-2.2-1.07-4.4-1.56-6.61,2.05-.25,4.09-.63,6.13-1.05-.05-1.49-.09-2.98-.12-4.46Z"/>
  </g>
  <g id="_x23_90b6e4ff">
    <path class="st149" d="M173.07,285.67c1.84-.88,3.72-1.7,5.64-2.39.27,2.58.73,5.14,1.17,7.71-.69,1.49-2.74,1.77-3.97,2.79-.93.7-1.82,1.47-2.65,2.29-.31.32-.93.95-1.24,1.26-1.03.97-2.09,1.9-3.12,2.86-.59-3.93-1.44-8.35,1.24-11.75.63-.7,1.29-1.37,1.98-2.01l.95-.76Z"/>
    <path class="st149" d="M39.98,374.01c.31-9.41-1.59-19.09.74-28.35-.71,18.77.21,37.58-.32,56.36-.4,4.33,1.31,9.33,5.61,11.09,3.58.87,7.3.53,10.95.71-.54,2.37-1.07,4.75-1.6,7.13-.2-1.13-.4-2.26-.59-3.38-5.06-.23-10.2-1.11-14.48-3.98,1.06-3.22-.43-6.44-.58-9.67-.32-5.33.57-10.64.51-15.97.11-4.65-.8-9.29-.24-13.94Z"/>
    <path class="st149" d="M124.03,350.24c1.87-.84,3.76-1.64,5.71-2.3-.03,5.53.09,11.07-.09,16.6-1.9.82-3.8,1.65-5.69,2.49-.03-5.6-.18-11.2.07-16.79Z"/>
    <path class="st149" d="M72.26,350.14c3.19-.12,6.37-.11,9.56.03-.02,1.25-.05,2.5-.07,3.76-3.17.29-6.36.33-9.54.11.02-1.3.03-2.6.05-3.9Z"/>
    <path class="st149" d="M140.07,412.93c4.01.21,8.04.19,12.05-.06,2.66-.15,5.33-.01,7.98.22-5.17,3.95-12.06,3.43-18.18,3.23-.56-1.17-1.18-2.29-1.85-3.39Z"/>
  </g>
  <g id="_x23_f9b56aff">
    <path class="st141" d="M530.32,283.04c.61-.1,1.82-.31,2.43-.41,1.32,2.65,2.56,5.46,4.93,7.38-1.18.22-2.35.45-3.49.77-.64.19-1.9.58-2.53.78-1.18.57-2.33,1.2-3.44,1.87-.83-3.58,3.29-6.57,2.1-10.39Z"/>
  </g>
  <g id="_x23_dceceaff">
    <path class="st94" d="M547.06,289.87c1.98-1.18,3.96-2.37,5.81-3.75-.03,42.28-.03,84.58.02,126.86-.16,3.79,2.25,6.82,5.06,9.05,1.66,1.66,3.66,3.09,6.07,3.35,5.46.54,10.96.77,16.41,1.39,6.46,3.25,10.42,11.11,18.13,11.79,19.48-.06,38.98.16,58.45-.16,5.19-.03,9.34-3.83,11.38-8.34.4-.65.79-1.31,1.18-1.97,3.54-.96,6.99-2.74,10.75-2.46,5.51-.02,11.97.87,16.19-3.5,1.91-1.68,4.17-3.33,4.85-5.92,1.13-3.97.79-8.14.81-12.21-.02-35.66-.03-71.32.04-106.98-.43-2.78,2.72-3.78,4.61-4.97-.31,32.63.22,65.27-.07,97.9.12,4.94-.37,9.93.53,14.83.49,2.07-.7,4.09-.39,6.16.72,3.36-.4,6.71-.54,10.07-1.94,4.86-6.19,8.44-10.97,10.33-5.51,1.1-11.15-.26-16.7.24-4.86,1.33-7.01,6.38-10.71,9.28-4.13,1.6-8.37,4.33-12.95,3.06-11.33-.43-22.68-.03-34.01-.15-8.37-.34-16.77,1-25.11.31-3.86-1.32-7.59-3.01-11.22-4.84-1.48-3.01-3.79-5.75-6.98-6.98-4.79-1.22-9.77-.36-14.64-.5-6.12-.83-12.35-4.25-14.26-10.49-2.42-10.55-1.13-21.43-1.07-32.13-.32-8.06.55-16.13-.26-24.18.37-10.98-.52-22.01.66-32.96.4-3.67-.93-7.31-.12-10.97-.53-10.35-.34-20.78-.95-31.16Z"/>
  </g>
  <g id="_x23_e5d8e2ff">
    <path class="st123" d="M196.6,288.73c1.42-.88,2.86-1.72,4.34-2.51l.23.18c-.49,41.19-.03,82.4-.23,123.59-.21,3.63.59,7.26,2.67,10.27,1.36,2.31,3.15,4.72,6.01,5.14,7.09,1.06,14.7-.55,21.43,2.55,2.81,2.16,4.2,5.76,7.28,7.66,5.76,4.06,13.14,2.2,19.69,2.71,8.42.62,16.86-.17,25.29.13,7.24.03,14.48-.11,21.71-.35,4.51.03,7.73-3.51,11.04-6.04,2.43-1.87,4.21-4.69,7.1-5.89,5.64-1.08,11.44.14,17.1-.69,2.97-.69,5.23-2.96,6.94-5.37,1.06-1.48,1.78-3.16,2.42-4.85.55-15.74.09-31.51.24-47.25-.03-24.1.07-48.21-.06-72.31.33-.44.98-1.32,1.3-1.76.5-.28,1.5-.85,2-1.13,2.14,5.12-.2,10.57.46,15.89-.59,5.66.7,11.29.13,16.95.16,7.68.29,15.37.01,23.06.3,13.86.16,27.75-.2,41.59.61,4.81-.56,9.71.8,14.45-.69,6.24.11,12.96-2.94,18.69-1.78,3.6-5.58,5.72-9.36,6.58-5.12.49-10.28.28-15.4.51-6.36.81-7.81,8.57-13.72,10.25-8.56,3.18-17.69,1.12-26.54,1.75-8.67-.25-17.33.08-25.99.05-5.15-.5-10.29.24-15.43.19-3.78-.41-7.28-2.21-10.51-4.13-2.96-1.75-3.85-5.58-6.86-7.23-6.65-1.33-13.64.05-20.22-1.73-2.33-.48-3.71-2.62-5.82-3.52-5.29-5.3-4.27-13.33-4.58-20.15,1.21-10.66-.39-21.35.14-32.02-.41-28.4.08-56.86-.47-85.26Z"/>
  </g>
  <g id="_x23_a475b6ff">
    <path class="st133" d="M201.17,286.4c1.97.72,1.29,3.02,1.49,4.59-.06,40.01-.05,80.03,0,120.04-.21,3.79.76,8.46,5.06,9.48,7.93,1.13,15.98-.02,23.96.29.23-1.33.49-2.66.77-3.97.49-1.26,1.08-2.47,1.72-3.65,2.92-3.47,7.14-5.96,11.79-5.74,19.67,0,39.35-.14,59.02.08,4.62-.19,8.84,2.12,11.84,5.51.85,1.73,1.55,3.55,2.08,5.41.12.58.35,1.73.47,2.31,7.24-.16,14.48.41,21.72.04,3.33-.14,6.16-2.53,7.01-5.73l1.52.2c-.64,1.69-1.36,3.37-2.42,4.85-1.93.97-3.95,1.93-6.15,1.95-7.21.3-14.43.04-21.64.15-1.09,3.31-2.06,6.96-4.93,9.21-3.08,2.86-7.44,3.62-11.5,3.6-17.68.05-35.35-.06-53.03.01-4.42-.04-9.36-.08-12.89-3.14-3.12-2.26-4.52-5.98-5.67-9.5-7.12-.39-14.25-.01-21.37-.27-2.28,0-4.35-1.02-6.41-1.86-2.08-3.01-2.88-6.64-2.67-10.27.2-41.19-.26-82.4.23-123.59M242.35,409.38c-4.34,1.37-8.27,5.08-8.74,9.78-1.25,6.88,4.1,14.1,11.29,13.98,20.03.38,40.07-.03,60.1.11,6.67.53,12.79-5.66,12.48-12.27.09-6.13-5.24-11.97-11.45-11.97-19.65-.03-39.3.02-58.96-.02-1.57.04-3.2-.09-4.72.39Z"/>
  </g>
  <g id="_x23_fbeddaff">
    <path class="st12" d="M364.93,293.63c2.22-1.38,4.42-2.79,6.67-4.14.15,14.5-.04,29.01.17,43.51.86,4.65.38,9.32-.06,13.98,0,15.02-.09,30.03-.07,45.05,0,4,1.17,7.96.59,11.97-.57,7.78.18,16.87,6.63,22.21,5.27,4.6,12.62,4.43,19.19,4.55,5.06-.05,8.83,3.63,12.72,6.32.81,1.32,1.33,2.8,1.76,4.3-18.17.74-36.37.15-54.56.46-4.75.2-9.96-.8-14.25,1.79-3.43,1.55-5.06,5.66-4.67,9.25-3.02,2.4-3.85,6.77-2.45,10.28,1.47,4.14,3.9,8.35,8.03,10.31,4.74,2.43,10.22,1.81,15.36,1.9,63.33-.07,126.66.02,189.99-.04,6.12.57,11.76-3.42,15.05-8.27,4.88-8.67.17-19.35-7.25-24.89,5.57,1.13,10.27,5.47,12.35,10.7,1.98,6.37.39,13.39-3.43,18.76-3.52,6.75-12.08,7.17-18.72,8.19-12.91-.36-25.82.29-38.73-.26-11.4.28-22.77-.92-34.18-.54-13,.99-26.02-.5-39.04-.04-6.35-.43-12.69.94-19.02.14-3.02-.22-5.94,1.02-8.96.71-6-.5-12.04.63-17.98-.63-4.35.55-8.69-.37-13.02-.07-6.98,1.45-14.09.05-21.13.61-4.89.53-9.59-1.25-14.25-2.45-5.84-3.74-9.83-10.33-10.32-17.12,1.42-2.99,1.41-6.34,2.38-9.44,2.58-3.67,5.18-7.63,9.69-9.11,9.79-2.84,20.16-2.49,30.23-2.11,5.41-.82,10.89-.24,16.32-.78-1.21-2.1-3.81-.71-5.71-1.33-1.84-.78-3.6-1.82-5.62-2.03-.6-.6-1.19-1.19-1.78-1.78-.66-.13-1.31-.25-1.96-.35-.76-2.42-2.38-4.31-4.61-5.49.04-.84.1-1.69.15-2.52-.7.09-1.4.18-2.1.28-.18-1.9-.14-3.93-1.28-5.56-2.52-3.88-1.55-8.64-2.1-12.96-.46-3.08.25-6.19-.39-9.25,2.19-6.78-1.17-13.9.27-20.8-.34-8.08.95-16.18-.08-24.25.96-15.43-.07-30.92.58-46.36-.02-4.24-.21-8.47-.41-12.7Z"/>
  </g>
  <g id="_x23_fce9d0ff">
    <path class="st52" d="M531.66,291.56c.63-.2,1.89-.59,2.53-.78-.63,3.44-.22,6.86.22,10.29-.14,19.93.07,39.87.06,59.79.66,7.42-1.08,14.93.51,22.27.57,2.31-.65,4.56-.55,6.88.35,10.59.1,21.35-2.64,31.65-.9,3.75-5.31,4.93-6.47,8.56-1.6.23-2.64,1.43-3.73,2.48-6.81,2.5-14.14,1.23-21.18,1.82-2.21,1.41-4.95,3.23-5.28,6.05,19.31.05,38.63.34,57.95.22,1.21-.06,2.25.35,3.13,1.22-17.74.18-35.49-.04-53.24.03-4.64-.09-9.37.19-13.91-.97.66-1.12,1.32-2.23,2.03-3.31,3.44-3.05,6.95-6.82,11.86-7.06,5.9-.37,12.23.62,17.75-2.04,2.72-1.84,5.25-4.05,7.3-6.63,3.67-8.12,2.32-17.14,3.04-25.74-.67-7.75-.24-15.53-.37-23.3.13-10.22-.56-20.47.43-30.67-.7-7.73-.36-15.49-.5-23.24.11-9.18-.54-18.43,1.06-27.52Z"/>
  </g>
  <g id="_x23_b48ac3ff">
    <path class="st84" d="M348,297.54c.6-.61,1.2-1.22,1.8-1.84.13,24.1.03,48.21.06,72.31-.15,15.74.31,31.51-.24,47.25l-1.52-.2c-.23-39.17-.04-78.34-.1-117.52Z"/>
  </g>
  <g id="_x23_4f7fb7ff">
    <path class="st33" d="M172.02,297.33c.31-.31.93-.94,1.24-1.26.22,37.64.07,75.28.14,112.92,0,2.76.06,5.59-.79,8.27-.13-.39-.4-1.17-.54-1.56-.15-39.46-.02-78.91-.05-118.37Z"/>
  </g>
  <g id="_x23_d3e5eeff">
    <path class="st28" d="M168.9,300.19c1.03-.96,2.09-1.89,3.12-2.86.03,39.46-.1,78.91.05,118.37-1.19,1.9-2.52,4.01-4.82,4.68-3.05-.16-6.1-.41-9.15-.61,2.31-1.92,5.1-3.38,6.93-5.81,1.56-3.49,2.19-7.37,2.34-11.18-.58-17.84-.12-35.69.08-53.53-.84-14.43-.08-28.89,0-43.31.25-1.97.9-3.85,1.45-5.75Z"/>
  </g>
  <g id="_x23_e9d5edff">
    <path class="st150" d="M343.51,302.84c1.5-1.76,2.83-3.68,4.49-5.3.06,39.18-.13,78.35.1,117.52-.85,3.2-3.68,5.59-7.01,5.73-7.24.37-14.48-.2-21.72-.04-.12-.58-.35-1.73-.47-2.31,6.87.33,14.24-.9,19.76-5.26-.05-.44-.14-1.33-.18-1.77.83-1.77,2.07-3.44,2.16-5.46.32-35.68-.36-71.4.3-107.08.69,1.37.83,3.53,2.57,3.97Z"/>
  </g>
  <g id="_x23_fbe3c3ff">
    <path class="st38" d="M519.49,306c.09-3.21,1.89-5.96,4.15-8.09.47,19.02.05,38.06.24,57.09-.2,19.71.23,39.43-.13,59.14.17,2.58-2.06,4.21-3.57,5.95l-1.02.17c-3.73.23-7.47-.08-11.16-.63,2.35-.79,4.91-1.22,6.97-2.67,2.96-2.4,4.24-6.27,4.18-9.98.09-27,0-53.98,0-80.97-.08-6.68.01-13.35.33-20.01Z"/>
  </g>
  <g id="_x23_caeff2ff">
    <path class="st18" d="M694.62,310.04c-.28-4.81,2.03-9.2,5.35-12.51.3,38.48.11,76.97.12,115.45.5,3.29-1.77,6.58-4.97,7.4-4.46.15-8.94.11-13.36-.51,5.34-1.59,10.6-4.75,12.61-10.23.53-3.51.2-7.09.24-10.62-.17-29.66.12-59.32.01-88.98Z"/>
  </g>
  <g id="_x23_bbdebcff">
    <path class="st45" d="M736.39,338.65c.08-2.77-.65-6.01,1.6-8.17-.43,24.17.09,48.35-.15,72.53-.39,4.05,1.74,7.99,5.57,9.54.28.16.84.47,1.12.63,4.85,3.48,10.91,2.54,16.49,2.62-.47,1.67-.86,3.37-1.24,5.08-7.98-.3-16.05.67-23.97-.48,3.77-.07,7.55-.23,11.29-.78-1.94-.96-4.23-1.33-5.76-2.95-3.52-3.14-4.8-8.02-4.94-12.58-.46-11.24.47-22.47.09-33.71-.05-10.58.23-21.15-.1-31.73Z"/>
  </g>
  <g id="_x23_f1f3f8ff">
    <path class="st65" d="M45.68,338.62c3.35-.94,6.89-.61,10.32-.71,26.67.08,53.33-.05,79.99,0,4.97-.03,9.99.44,14.92-.49,3.03,1.41,5.85,4.02,5.81,7.61.06,20-.09,40,.02,60,.38,3.43-2.2,5.88-4.62,7.84-4.01.25-8.04.27-12.05.06-2.96-3.53-7.38-5.73-12.03-5.47-18.34.06-36.67.1-55.01-.03-2.66.03-5.37-.03-7.97.65-3.08.86-5.39,3.23-7.74,5.27-3.77-.19-7.54-.16-11.31-.24-4.3-1.76-6.01-6.76-5.61-11.09.53-18.78-.39-37.59.32-56.36.82-2.77,2.06-5.9,4.96-7.04M67.01,345.04c-.19,6.96-.18,13.95-.01,20.92-.12,1.54,1.78,1.78,2.79,2.37.52,1.42,1.37,3.16,3.22,2.9,5.29.13,10.59.17,15.88.03.32-.33.98-.99,1.3-1.32.29-6.96.12-13.95.1-20.91.32-1.82-1.62-2.32-2.9-2.82-.38-.59-1.14-1.76-1.52-2.34-4.23-.8-8.61-.03-12.89-.3-2.01.14-4.71-.62-5.97,1.47M107.71,349.15c-.34,6.66-.65,13.46.21,20.08,2.42-1.03,4.84-2.06,7.29-3.02,2.6.93,5.2,1.88,7.75,2.95,2.68-1.09,5.32-2.3,8-3.39.06-6.27.17-12.54,0-18.79-2-2.38-5.4,1.5-7.89,1.98-1.65-.68-3.3-1.38-4.97-2-3.6-2.07-6.93,1.43-10.39,2.19M98.41,354.11c-.02.71-.08,2.11-.11,2.81-.56.07-1.68.21-2.24.27l-.69,1.19c.71.12,2.12.35,2.83.47.08,1.16-.08,2.77,1.47,3,.1-.79.31-2.35.42-3.13.69-.04,2.09-.11,2.78-.14-.1-1.51-1.54-1.67-2.76-1.59-.11-1.2.03-3.03-1.7-2.88Z"/>
  </g>
  <g id="_x23_f8f0faff">
    <path class="st110" d="M218.74,341.65c1.21-3.36,5.23-3.8,8.3-3.74,31.97.07,63.94.07,95.91-.03,1.88.05,3.81-.01,5.63.55,2.48,1.1,3.6,3.78,4.94,5.97-.62,18.52-.23,37.05-.25,55.58-.05,2.63.17,5.33-.51,7.9-.73,2.3-2.93,3.59-4.7,5.03-3.75.06-7.5.1-11.24.12-3-3.39-7.22-5.7-11.84-5.51-19.67-.22-39.35-.08-59.02-.08-4.65-.22-8.87,2.27-11.79,5.74-4.06.01-8.11-.16-12.16-.25-2.14-2.18-4.71-4.54-4.34-7.91-.12-17.54.04-35.09-.03-52.63.46-3.57.26-7.23,1.1-10.74M250.59,345.83c-.45.28-1.35.84-1.8,1.11-.9-.42-1.8-.84-2.69-1.25-1.26,1.04-2.46,2.16-3.6,3.32.41.92.82,1.84,1.23,2.77-.22.48-.67,1.43-.89,1.91-.63.2-1.9.6-2.53.8-.18,1.73-.28,3.48-.13,5.23.93.44,1.83.93,2.72,1.47,1.22,1.44-.38,3.19.07,4.8.95,1.08,2.07,1.98,3.16,2.91,1.24-.32,2.44-1.22,3.76-.83,1.05.72,1,2.22,1.91,3.07,1.67.23,3.36.02,5.04-.09.29-2.86,3.05-3.98,5.18-2,1.29-1.23,2.51-2.54,3.64-3.91-.3-.76-.92-2.27-1.23-3.03,1.02-.93,2.2-1.64,3.46-2.21.03-2.17.94-5.29-1.87-6.07-2.29-.79-1.25-3.17-.55-4.74-1.19-1.14-2.38-2.26-3.58-3.37-.94.45-1.87.9-2.8,1.36-1.22-.92-1.96-2.23-2.69-3.53-2.22-.68-5.45-.64-5.81,2.28M283.88,348.98c.07,6.28-.32,12.59.25,18.86l-.17.41.63-.03c.36.25,1.09.74,1.46.99,6.3.29,12.62.01,18.93.13,1.91-.06,4.01.31,5.6-1.01l.52.05-.2-.47c.52-6.28.15-12.6.16-18.89.2-1.72-1.35-3.53-3.09-3.42-6.96-.08-13.92-.05-20.88-.01-1.88-.26-3.47,1.58-3.21,3.39M275.17,353.88c-.07.76-.2,2.29-.27,3.05-.73.07-2.2.22-2.94.3-.09,1.81,1.76,1.3,2.95,1.51.03.63.09,1.9.13,2.53l1.26.45c.06-.72.19-2.18.25-2.91.62-.05,1.85-.15,2.47-.19,1.36-1.48-1.4-2.07-2.53-1.72-.14-1.16.25-2.74-1.32-3.02Z"/>
  </g>
  <g id="_x23_fcf2e4ff">
    <path class="st60" d="M394.48,342.33c.92-3.13,4.47-4.47,7.47-4.35,33.03-.03,66.06.02,99.09.02,2.58-.3,4.65,1.32,6.87,2.34.72,2.14,1.52,4.33,1.42,6.64-.23,19.35.02,38.7-.15,58.05.24,3.28-2.21,5.62-4.27,7.79-4.01.21-8.03.2-12.04.17-3.04-3.33-7.24-5.65-11.85-5.53-19.68-.28-39.37-.09-59.06-.06-4.63-.17-8.94,2.12-11.84,5.65-4.05.1-8.09-.02-12.13-.1-2.18-2.18-4.52-4.65-4.31-7.99-.19-17.55.21-35.1-.05-52.65.31-3.33.32-6.69.85-9.98M400.76,351.95c.29,5.25-.45,10.55.37,15.76l-.26.39.64-.06c.78,1.71,2.99,1.2,4.49,1.38,6.68-.08,13.37.11,20.05-.16,1.71,0,2.67-1.79,2.64-3.3.01-5.63.08-11.26-.03-16.88.09-1.98-1.63-3.75-3.65-3.48-7.3,0-14.62-.19-21.91.12-2.98.58-2.25,4.01-2.34,6.23M451.31,346.39c-5.16,2.07-8.12,8.03-7.16,13.41,1,5.87,6.84,10.21,12.74,9.59,7.7-.17,13.53-9.34,10.2-16.36-2.2-6.16-9.85-9.25-15.78-6.64M489.33,347.41c-5.9,2.36-8.37,10.14-5.24,15.56,2.37,4.45,8.08,6.8,12.88,5.17,6.58-1.81,9.92-10.4,6.22-16.17-2.56-4.84-8.95-6.7-13.86-4.56M436.18,353.81c-.08.78-.24,2.35-.32,3.14-.77.08-2.31.26-3.07.35.13,1.67,1.79,1.31,2.99,1.51-.19,1.34.22,2.42,1.23,3.23.12-1.08.23-2.15.33-3.22,1.75.37,2.69-.2,2.82-1.69-.7-.04-2.1-.13-2.79-.18-.25-1.11.15-2.6-1.19-3.14M474.41,356.97c-.64.02-1.92.07-2.56.09.02.4.04,1.2.06,1.6.64.03,1.92.07,2.56.09.03.73.08,2.19.11,2.92l1.33-.47c.06-.62.16-1.87.22-2.49,1.24-.1,3.02.38,2.97-1.48-.75-.07-2.26-.22-3.01-.29-.1-.75-.3-2.24-.4-2.99-1.43.38-1.06,1.92-1.28,3.02Z"/>
  </g>
  <g id="_x23_eefbfcff">
    <path class="st130" d="M570,344.05c-.3-4.24,4.38-6.35,7.98-6.28,33,.04,66.01.06,99.02.02,3.32-.28,5.97,1.83,8.14,4.08.15,21.03-.01,42.06.02,63.09.48,3.61-2.22,6.22-5.08,7.85-3.71.24-7.42.23-11.13.26-2.97-3.45-7.29-5.82-11.94-5.6-19.99.05-39.98-.19-59.97.1-4.3-.13-8.02,2.38-10.81,5.44-4.41.09-8.85.3-13.21-.54-1.15-1.71-2.41-3.35-3.31-5.19.67-21.07-.01-42.16.29-63.23M599.08,343.9c-.66.75-1.33,1.5-1.99,2.24-.06,7.3-.08,14.6-.04,21.9.06,1.64,1.75,2.39,2.91,3.21,5.99-.22,12.01.15,17.99-.22.26-.22.79-.67,1.05-.89-6.37-.88-12.86-.26-19.28-.38-.27-1.17-.56-2.34-.7-3.53,6.5-.92,13.15.1,19.61-.85-.37-7.2.23-14.42-.38-21.6-6.38-.35-12.8-.38-19.17.12M636.32,346.46c-1.27.9-.53,2.48-.33,3.68,1.43.05,3.31.44,3.96-1.28.74-1.91-2.23-4.08-3.63-2.4M641.34,347.9l-.06,1.13c5.95-.03,11.92.24,17.88-.14-.97-2.57-4.14-1.28-6.18-1.57-3.85.37-7.98-.66-11.64.58M635.02,353.95c.57,1.16,1.18,2.78,2.79,2.68,1.73-.07,3.07-2.71,1.45-3.83-1.4-1.77-3.23,0-4.24,1.15M625.91,356.94c-1.39-.23-2.44.14-2.68,1.58.67.07,2.01.23,2.69.3-.13,1.29.04,2.68,1.55,2.89.1-.7.31-2.09.41-2.79.7-.13,2.09-.4,2.78-.53-.36-1.36-1.63-1.51-2.86-1.51-.07-.67-.21-2.02-.28-2.7-1.57.02-1.7,1.51-1.61,2.76M640.91,354.64c5.93.79,12.07.65,18.02.04-.24-.24-.71-.74-.95-.99-3.64-.36-7.31.04-10.96-.11-2.07.1-4.48-.59-6.11,1.06M635.46,361.14c.92,2.64,3.87,1.94,4.9-.2-.35-3.04-5.54-3.48-4.9.2M641.57,359.92l.06,1.58c4.79-.03,9.59-.02,14.39-.04,1.29.17,2.35-.23,3.16-1.23-5.85-.59-11.74-.11-17.61-.31M635.95,364.83c-1.11,2.25.18,4.88,2.93,4.33.3-.55.88-1.65,1.18-2.2-.05-2.18-2.45-2.45-4.11-2.13M641.87,366.12l-.83,1c2.15,1.11,4.66.54,6.99.69,3.67-.18,7.44.48,11.03-.54l-.82-1.22c-5.45-.17-10.93-.19-16.37.07M600.57,366.91l.14,1.56c5.74.13,11.49.15,17.23-.17l.4-1.33c-5.92-.06-11.85-.06-17.77-.06Z"/>
  </g>
  <g id="_x23_f2faf0ff">
    <path class="st75" d="M748.75,339.8c2.5-2.31,6.15-1.65,9.26-1.85,17.67.03,35.33.05,53,0,14.97-.13,29.96.38,44.91-.31,2.95,1.28,5.88,3.75,5.71,7.28.03,19.72,0,39.46.03,59.18.3,3.65-2.19,6.51-4.72,8.77-4.06.03-8.12.05-12.16.07-2.68-3.17-6.55-5.43-10.79-5.36-19.98-.08-39.97-.02-59.95-.03-4.6-.28-8.62,2.3-11.69,5.47-3.81-.1-7.62.01-11.42-.1-3.3-1.73-5.26-5.2-4.97-8.93-.13-18.29-.09-36.59-.01-54.88.27-3.19-.21-7.23,2.8-9.32M773.84,348.18c-.04.6-.1,1.8-.13,2.4-2,1.19-2.88,3.39-3.6,5.48-1.15,3.63,2.36,6.19,3.34,9.4.82,2.71,3.16,4.51,5.72,5.49,2.08-.6,3.55-2.1,4.38-4.08.47,2.24,2.46,4.57,4.96,3.64,3.45-1.74,6.95-4.79,6.74-9.05,1.85-1.74,2.55-4.63,1.09-6.84-2.22-3.91-3.95-8.83-8.49-10.58-1.72.68-3.83,1.62-3.9,3.77-.15,5.93.14,11.87-.09,17.79l-.73.6c-.08-6.08.01-12.16-.15-18.24.01-2.1-2.05-3.55-3.98-3.68-2.31.27-3.55,2.51-5.16,3.9M818.36,345.44c-1.64.67-3.88,1.53-3.96,3.62-.24,4.98-.08,9.97-.07,14.96-.02,1.72.12,3.93,2.03,4.67,4.46,2.35,9.87,2.27,14.66,1.09,1.84-.61,4.51-1.43,4.4-3.84.25-5-.02-10.01.09-15.01-.07-1.44.17-3.32-1.3-4.16-4.62-3.05-10.73-2.9-15.85-1.33M804.37,354.07c-.04.73-.12,2.19-.16,2.92-.65.01-1.95.04-2.59.05.12,1.42.97,2,2.54,1.73.12.74.34,2.23.45,2.98,1.38-.43,1.43-1.74,1.45-3.01.69-.06,2.05-.16,2.73-.22-.16-1.44-1.44-1.71-2.66-1.62-.23-1.21-.04-2.98-1.76-2.83Z"/>
    <path class="st75" d="M489.82,353.29c1.39,1.03,2.67,2.22,3.89,3.46,1.19-1.19,2.2-2.79,3.98-3.15-.9,1.52-2,2.9-3.08,4.3,1.37,1.13,2.71,2.35,3.57,3.94-1.96-.17-3.1-1.88-4.3-3.19-1.38,1-2.68,2.11-4.14,2.99.49-1.61,1.74-2.73,2.89-3.86-.98-1.46-2.58-2.65-2.81-4.49Z"/>
    <path class="st75" d="M289.04,355.01c2.42.44,3.75,2.74,5.47,4.27-1.66,1.48-2.87,3.78-5.16,4.33.98-1.55,2.21-2.93,3.47-4.26-1.4-1.33-2.71-2.74-3.78-4.34Z"/>
    <path class="st75" d="M405.72,354.74c2.29.61,3.59,2.73,5.25,4.24-1.51,1.67-3.02,3.41-4.99,4.56.5-1.86,2.05-3.07,3.26-4.45-1.27-1.37-2.53-2.76-3.52-4.35Z"/>
  </g>
  <g id="_x23_f9dbb3ff">
    <path class="st13" d="M507.91,340.34c.29.1.88.32,1.17.42,5.24,5.95,3.26,14.09,4.01,21.26.29,4.22-.61,8.46.21,12.67,1.06,6.44-1.37,12.87-.18,19.31,1.01,5.53-.85,11.33,1.55,16.63-.71.86-1.46,1.68-2.22,2.49-2.51-.23-5.03-.4-7.54-.3,2.06-2.17,4.51-4.51,4.27-7.79.17-19.35-.08-38.7.15-58.05.1-2.31-.7-4.5-1.42-6.64Z"/>
    <path class="st13" d="M390.43,346.74c-.05-1.58,1.18-2.66,2.16-3.72.33,3.09.7,6.19,1.04,9.29.26,17.55-.14,35.1.05,52.65-.21,3.34,2.13,5.81,4.31,7.99-1.44.05-2.87.11-4.3.18-2.03-.37-4-1.11-5.6-2.43,1.28-1.64,2.32-3.5,2.12-5.66-.16-10.36.3-20.73-.52-31.06.8-9.06.42-18.16.74-27.24Z"/>
  </g>
  <g id="_x23_c1e9eeff">
    <path class="st19" d="M685.14,341.87c1.15,1.23,2.38,2.51,2.87,4.18,2.36,7.11,1.13,14.68,1.06,22-.13,4.11.46,8.2.3,12.31-.7,10.65.37,21.36-1.21,31.96-.86.33-1.73.66-2.59.98-1.84-.23-3.66-.48-5.49-.49,2.86-1.63,5.56-4.24,5.08-7.85-.03-21.03.13-42.06-.02-63.09Z"/>
  </g>
  <g id="_x23_3e6795ff">
    <path class="st48" d="M67.01,345.04c1.26-2.09,3.96-1.33,5.97-1.47,4.28.27,8.66-.5,12.89.3.38.58,1.14,1.75,1.52,2.34,1.28.5,3.22,1,2.9,2.82.02,6.96.19,13.95-.1,20.91-.32.33-.98.99-1.3,1.32-5.29.14-10.59.1-15.88-.03-1.85.26-2.7-1.48-3.22-2.9-1.01-.59-2.91-.83-2.79-2.37-.17-6.97-.18-13.96.01-20.92M68.31,345.13c-.04,7.14-.24,14.3.17,21.44,5.69.16,11.39.29,17.08-.06.17-7.16.3-14.35-.13-21.5-5.71.08-11.42-.13-17.12.12M86.96,347.77c-.14,6.09.15,12.19-.1,18.28,0,1.37-1.55,2.11-2.75,1.98-4.22.05-8.45-.08-12.67-.02.1.47.3,1.41.39,1.88,5.67.2,11.36.21,17.02-.13.17-7.15.34-14.33-.05-21.46-.46-.13-1.38-.4-1.84-.53Z"/>
  </g>
  <g id="_x23_5294b7ff">
    <path class="st81" d="M599.08,343.9c6.37-.5,12.79-.47,19.17-.12.61,7.18.01,14.4.38,21.6-6.46.95-13.11-.07-19.61.85.14,1.19.43,2.36.7,3.53l.24,1.49c-1.16-.82-2.85-1.57-2.91-3.21-.04-7.3-.02-14.6.04-21.9.66-.74,1.33-1.49,1.99-2.24M598.42,349.01c.05,4.89-.18,9.79.08,14.67.1,1.35,1.9,1.36,2.03-.04.53-6.17,0-12.41.07-18.6-1.01,1.15-2.5,2.23-2.18,3.97M602.25,345.18c.15,6.29-.41,12.57-.09,18.86,4.91.28,9.83.23,14.74.07-.14-6.35.1-12.69-.03-19.03-4.88,0-9.75.01-14.62.1Z"/>
  </g>
  <g id="_x23_6ba775ff">
    <path class="st116" d="M773.84,348.18c1.61-1.39,2.85-3.63,5.16-3.9,1.93.13,3.99,1.58,3.98,3.68.16,6.08.07,12.16.15,18.24l.73-.6c.23-5.92-.06-11.86.09-17.79.07-2.15,2.18-3.09,3.9-3.77,4.54,1.75,6.27,6.67,8.49,10.58,1.46,2.21.76,5.1-1.09,6.84.21,4.26-3.29,7.31-6.74,9.05-2.5.93-4.49-1.4-4.96-3.64-.83,1.98-2.3,3.48-4.38,4.08-2.56-.98-4.9-2.78-5.72-5.49-.98-3.21-4.49-5.77-3.34-9.4.72-2.09,1.6-4.29,3.6-5.48.03-.6.09-1.8.13-2.4M778.21,345.92c-.78,1.36-1.7,2.63-2.94,3.61.11.58.31,1.73.42,2.31-.68.27-2.03.81-2.7,1.09.22.43.68,1.29.9,1.72-1.32.86-3.56,2.45-2.11,4.23,1.05,2.52,3.84,1.83,5.75.81.15,2.28-2.02,2.28-3.64,2.7.58.98.75,2.41,2.03,2.8.48-.99.97-1.97,1.46-2.96,1.39-.29,2.78-.57,4.2-.84-.75-3.05,1.49-7.52-2.51-8.8-.82.14-2.47.42-3.29.55.08-2.09,2.79-2.45,4.16-3.6.09.66.29,1.98.39,2.63.32-.12.98-.36,1.31-.49.14-2.4-.13-6.13-3.43-5.76M785.38,349.15c1.98,1.73,5.38,2.37,6.11,5.17-2.21.19-3.92-1.12-5.57-2.34.08,1.2.16,2.4.26,3.61,2.17.06,5.6-.52,6.02,2.47.71,2.97-3.12,1.15-2.86-.68-1.04-.05-2.06-.1-3.08-.15-.07,2.26-.08,4.53-.1,6.81.87-1.3,1.79-2.56,2.76-3.78,1.19.96,2.49,1.99,2.46,3.7-.52-.07-1.55-.23-2.06-.31-1.22.75-2.43,1.5-3.64,2.25.13.79.38,2.36.5,3.15,3.67.06,5.49-3.55,7.6-5.93-.65-1.03-1.32-2.04-1.98-3.04.73-.13,2.21-.39,2.95-.52,1.89-2.47-.54-4.65-2.73-5.62,1.1-3-1.21-5.8-3.35-7.62-2-1.08-2.74,1.48-3.29,2.83M776.31,366.74c.84,1.95,2.54,2.66,4.59,2.18.54-1.81.63-3.71.55-5.58-2.5-.17-4.28,1.15-5.14,3.4Z"/>
  </g>
  <g id="_x23_dee9f2ff">
    <path class="st142" d="M68.31,345.13c5.7-.25,11.41-.04,17.12-.12.43,7.15.3,14.34.13,21.5-5.69.35-11.39.22-17.08.06-.41-7.14-.21-14.3-.17-21.44M70.91,348.81c.17,2.23-.51,4.72.44,6.8,3.75.83,7.72.33,11.53.13.21-2.33.26-4.66.24-6.99-4.04-.47-8.19-.58-12.21.06M71.28,358.38c-.14.41-.42,1.22-.56,1.63,4.17-.02,8.34,0,12.51-.04-.16-.4-.47-1.2-.63-1.61-3.76-.28-7.56-.23-11.32.02M70.99,361.01c-.02.5-.07,1.5-.1,2,2.34-.02,4.68.08,7.01-.13.07-.44.21-1.31.28-1.75-2.4-.07-4.79-.12-7.19-.12Z"/>
  </g>
  <g id="_x23_e1cae8ff">
    <path class="st135" d="M333.52,344.4c3.53,5.05,1.86,11.51,2.72,17.24.97,6.13-.7,12.23-.42,18.37.14,10.81.27,21.62.65,32.42-2.78.45-5.61.41-8.41.48,1.77-1.44,3.97-2.73,4.7-5.03.68-2.57.46-5.27.51-7.9.02-18.53-.37-37.06.25-55.58Z"/>
  </g>
  <g id="_x23_7ad2ddff">
    <path class="st64" d="M602.25,345.18c4.87-.09,9.74-.11,14.62-.1.13,6.34-.11,12.68.03,19.03-4.91.16-9.83.21-14.74-.07-.32-6.29.24-12.57.09-18.86M604.19,350.24c.02.38.06,1.15.07,1.53,3.41.54,6.88.2,10.32.22l-.25-1.13c-3.06-1.29-6.82-.27-10.14-.62M605.58,355.02c2.42.07,4.84.03,7.26-.1-.21-.47-.63-1.41-.85-1.88-2.07.44-6.2-1.16-6.41,1.98Z"/>
  </g>
  <g id="_x23_65a56fff">
    <path class="st122" d="M818.36,345.44c5.12-1.57,11.23-1.72,15.85,1.33,1.47.84,1.23,2.72,1.3,4.16-.11,5,.16,10.01-.09,15.01.11,2.41-2.56,3.23-4.4,3.84-4.79,1.18-10.2,1.26-14.66-1.09-1.91-.74-2.05-2.95-2.03-4.67-.01-4.99-.17-9.98.07-14.96.08-2.09,2.32-2.95,3.96-3.62M816.29,348.26c-.99,1.43.1,2.49,1.46,2.93,5.25,1.99,11.77,2.15,16.38-1.47-.45-1.09-1.23-2.06-2.39-2.39-4.92-2.02-10.87-1.93-15.45.93M815.92,352.14c-.04,1.22.11,2.41.45,3.57,5.3,3.1,12.15,3.02,17.52.11.05-1.27.11-2.53.18-3.79-5.59,2.85-12.49,2.69-18.15.11M816,357.47c-.01.87-.01,2.63-.02,3.51,5.27,3.14,12.87,3.39,18.03-.1,0-.83-.01-2.5-.01-3.34-5.61,2.43-12.47,2.72-18-.07M815.97,363.19c.21,1.26-.37,3.01.91,3.86,5.09,3.14,11.73,2.3,16.84-.41.07-1.13.15-2.25.25-3.38-5.67,2.65-12.31,2.36-18-.07Z"/>
  </g>
  <g id="_x23_527dabff">
    <path class="st137" d="M107.71,349.15c3.46-.76,6.79-4.26,10.39-2.19,1.67.62,3.32,1.32,4.97,2,2.49-.48,5.89-4.36,7.89-1.98.17,6.25.06,12.52,0,18.79-2.68,1.09-5.32,2.3-8,3.39-2.55-1.07-5.15-2.02-7.75-2.95-2.45.96-4.87,1.99-7.29,3.02-.86-6.62-.55-13.42-.21-20.08M109.02,350.22c-.03,5.63-.03,11.26,0,16.89,1.91-.77,3.81-1.58,5.68-2.43.02-5.57.2-11.15.12-16.72-1.95.7-3.88,1.45-5.79,2.26M116.02,347.94c.02,5.62.22,11.25-.02,16.88,2.07.84,4.17,1.63,6.29,2.37-.03-5.65.15-11.3-.11-16.94-2.07-.75-4.12-1.53-6.16-2.31M124.03,350.24c-.25,5.59-.1,11.19-.07,16.79,1.89-.84,3.79-1.67,5.69-2.49.18-5.53.06-11.07.09-16.6-1.95.66-3.84,1.46-5.71,2.3Z"/>
  </g>
  <g id="_x23_453d45ff">
    <path class="st111" d="M283.88,348.98c-.26-1.81,1.33-3.65,3.21-3.39,6.96-.04,13.92-.07,20.88.01,1.74-.11,3.29,1.7,3.09,3.42-.01,6.29.36,12.61-.16,18.89-2.1-5.08-.47-10.82-.9-16.18-8.1-.25-16.22-.28-24.31,0-.51,5.35.74,11.06-1.56,16.11-.57-6.27-.18-12.58-.25-18.86M285.22,347.18c.04,1.17.08,2.34.12,3.51,8.2-.01,16.4-.03,24.6.13.08-1.36,0-2.77-.89-3.87-7.94.16-15.9-.08-23.83.23Z"/>
  </g>
  <g id="_x23_3a3837ff">
    <path class="st2" d="M400.76,351.95c.09-2.22-.64-5.65,2.34-6.23,7.29-.31,14.61-.11,21.91-.12,2.02-.27,3.74,1.5,3.65,3.48.11,5.62.04,11.25.03,16.88.03,1.51-.93,3.31-2.64,3.3-6.68.27-13.37.08-20.05.16-1.5-.18-3.71.33-4.49-1.38,8.51-.83,17.07-.17,25.6-.12.09-5.31.07-10.62-.09-15.92-8.24-.41-16.53-.55-24.76.05-.88,5.15,1.45,10.94-1.13,15.66-.82-5.21-.08-10.51-.37-15.76M403.13,347.21c-1.63.14-.82,2.28-1.04,3.35,8.27-.17,16.54.05,24.8.03.28-1.18.3-2.37.06-3.55-7.94-.08-15.88,0-23.82.17Z"/>
  </g>
  <g id="_x23_63a26dff">
    <path class="st46" d="M451.31,346.39c5.93-2.61,13.58.48,15.78,6.64,3.33,7.02-2.5,16.19-10.2,16.36-5.9.62-11.74-3.72-12.74-9.59-.96-5.38,2-11.34,7.16-13.41M453.35,347.48c-7.53,1.63-10.37,12.57-4.41,17.54,4.29,4.33,11.97,3.45,15.4-1.49,2.28-2.61,1.62-6.32,1.26-9.47-1.5-4.97-7.31-7.93-12.25-6.58Z"/>
  </g>
  <g id="_x23_72aec8ff">
    <path class="st131" d="M636.32,346.46c1.4-1.68,4.37.49,3.63,2.4-.65,1.72-2.53,1.33-3.96,1.28-.2-1.2-.94-2.78.33-3.68Z"/>
  </g>
  <g id="_x23_cfe8cdff">
    <path class="st85" d="M744.13,345.87c.71,1.01,1.38,2.07,1.82,3.25-.08,18.29-.12,36.59.01,54.88-.29,3.73,1.67,7.2,4.97,8.93-2.14-.03-4.28.09-6.4.25-.28-.16-.84-.47-1.12-.63.52-3.73-.59-7.43-.26-11.17.43-4.81-.65-9.59-.46-14.41.15-8.25-.3-16.51.35-24.75-.08-5.46-.09-10.99,1.09-16.35Z"/>
  </g>
  <g id="_x23_e2f0dfff">
    <path class="st24" d="M778.21,345.92c3.3-.37,3.57,3.36,3.43,5.76-.33.13-.99.37-1.31.49-.1-.65-.3-1.97-.39-2.63-1.37,1.15-4.08,1.51-4.16,3.6.82-.13,2.47-.41,3.29-.55,4,1.28,1.76,5.75,2.51,8.8-1.42.27-2.81.55-4.2.84-.49.99-.98,1.97-1.46,2.96-1.28-.39-1.45-1.82-2.03-2.8,1.62-.42,3.79-.42,3.64-2.7-1.91,1.02-4.7,1.71-5.75-.81-1.45-1.78.79-3.37,2.11-4.23-.22-.43-.68-1.29-.9-1.72.67-.28,2.02-.82,2.7-1.09-.11-.58-.31-1.73-.42-2.31,1.24-.98,2.16-2.25,2.94-3.61M774.84,354c-1.24,3.05,2.9,5.9,5.45,3.84-.97-.57-1.97-1.04-3.01-1.41-.71-.94-.61-3.29-2.44-2.43Z"/>
  </g>
  <g id="_x23_9ad29dff">
    <path class="st53" d="M785.38,349.15c.55-1.35,1.29-3.91,3.29-2.83,2.14,1.82,4.45,4.62,3.35,7.62,2.19.97,4.62,3.15,2.73,5.62-.74.13-2.22.39-2.95.52.66,1,1.33,2.01,1.98,3.04-2.11,2.38-3.93,5.99-7.6,5.93-.12-.79-.37-2.36-.5-3.15,1.21-.75,2.42-1.5,3.64-2.25.51.08,1.54.24,2.06.31.03-1.71-1.27-2.74-2.46-3.7-.97,1.22-1.89,2.48-2.76,3.78.02-2.28.03-4.55.1-6.81,1.02.05,2.04.1,3.08.15-.26,1.83,3.57,3.65,2.86.68-.42-2.99-3.85-2.41-6.02-2.47-.1-1.21-.18-2.41-.26-3.61,1.65,1.22,3.36,2.53,5.57,2.34-.73-2.8-4.13-3.44-6.11-5.17Z"/>
    <path class="st53" d="M815.97,363.19c5.69,2.43,12.33,2.72,18,.07-.1,1.13-.18,2.25-.25,3.38-5.11,2.71-11.75,3.55-16.84.41-1.28-.85-.7-2.6-.91-3.86Z"/>
    <path class="st53" d="M844.78,412.95c4.04-.02,8.1-.04,12.16-.07.63-.01,1.9-.02,2.54-.02-.87.91-1.33,2.53-2.77,2.67-3.3.66-6.66.95-9.97,1.58-.57-1.44-1.24-2.82-1.96-4.16Z"/>
  </g>
  <g id="_x23_84837fff">
    <path class="st101" d="M403.13,347.21c7.94-.17,15.88-.25,23.82-.17.24,1.18.22,2.37-.06,3.55-8.26.02-16.53-.2-24.8-.03.22-1.07-.59-3.21,1.04-3.35M404.13,348.09c-1.61,2.92,3.37.24,0,0M406.21,348.05c.27,3.27,2.98-1.62,0,0Z"/>
  </g>
  <g id="_x23_a66950ff">
    <path class="st58" d="M489.33,347.41c4.91-2.14,11.3-.28,13.86,4.56,3.7,5.77.36,14.36-6.22,16.17-4.8,1.63-10.51-.72-12.88-5.17-3.13-5.42-.66-13.2,5.24-15.56M492.14,348.25c-6.36,1.07-9.45,8.67-6.59,14.18,1.6,2.53,4.43,4.13,7.37,4.54,5.39.51,10.72-4.45,10.12-9.96,0-5.48-5.73-9.58-10.9-8.76Z"/>
  </g>
  <g id="_x23_73a8c5ff">
    <path class="st114" d="M641.34,347.9c3.66-1.24,7.79-.21,11.64-.58,2.04.29,5.21-1,6.18,1.57-5.96.38-11.93.11-17.88.14l.06-1.13Z"/>
  </g>
  <g id="_x23_5c85b0ff">
    <path class="st44" d="M70.91,348.81c4.02-.64,8.17-.53,12.21-.06.02,2.33-.03,4.66-.24,6.99-3.81.2-7.78.7-11.53-.13-.95-2.08-.27-4.57-.44-6.8M72.26,350.14c-.02,1.3-.03,2.6-.05,3.9,3.18.22,6.37.18,9.54-.11.02-1.26.05-2.51.07-3.76-3.19-.14-6.37-.15-9.56-.03Z"/>
  </g>
  <g id="_x23_8bb3e3ff">
    <path class="st56" d="M86.96,347.77c.46.13,1.38.4,1.84.53.39,7.13.22,14.31.05,21.46-5.66.34-11.35.33-17.02.13-.09-.47-.29-1.41-.39-1.88,4.22-.06,8.45.07,12.67.02,1.2.13,2.75-.61,2.75-1.98.25-6.09-.04-12.19.1-18.28Z"/>
  </g>
  <g id="_x23_85b0e4ff">
    <path class="st99" d="M109.02,350.22c1.91-.81,3.84-1.56,5.79-2.26.08,5.57-.1,11.15-.12,16.72-1.87.85-3.77,1.66-5.68,2.43-.02-5.63-.02-11.26,0-16.89Z"/>
  </g>
  <g id="_x23_eff2f8ff">
    <path class="st95" d="M116.02,347.94c2.04.78,4.09,1.56,6.16,2.31.26,5.64.08,11.29.11,16.94-2.12-.74-4.22-1.53-6.29-2.37.24-5.63.04-11.26.02-16.88Z"/>
  </g>
  <g id="_x23_c6816eff">
    <path class="st29" d="M288.98,349.55c-2.52,1.93-2.79-3.35-.04-1.62.01.4.03,1.22.04,1.62Z"/>
  </g>
  <g id="_x23_bd95c9ff">
    <path class="st82" d="M288.94,347.93c2.65-1.81,2.54,3.69.04,1.62-.01-.4-.03-1.22-.04-1.62Z"/>
  </g>
  <g id="_x23_bfad96ff">
    <path class="st119" d="M292.16,348.03c1.41-.44,1.87.04,1.35,1.43-1.42.44-1.87-.04-1.35-1.43Z"/>
  </g>
  <g id="_x23_d77556ff">
    <path class="st121" d="M404.13,348.09c3.37.24-1.61,2.92,0,0Z"/>
  </g>
  <g id="_x23_cdaf8dff">
    <path class="st125" d="M406.21,348.05c2.98-1.62.27,3.27,0,0Z"/>
  </g>
  <g id="_x23_f3746cff">
    <path class="st78" d="M492.14,348.25c5.17-.82,10.91,3.28,10.9,8.76.6,5.51-4.73,10.47-10.12,9.96-2.94-.41-5.77-2.01-7.37-4.54-2.86-5.51.23-13.11,6.59-14.18M489.82,353.29c.23,1.84,1.83,3.03,2.81,4.49-1.15,1.13-2.4,2.25-2.89,3.86,1.46-.88,2.76-1.99,4.14-2.99,1.2,1.31,2.34,3.02,4.3,3.19-.86-1.59-2.2-2.81-3.57-3.94,1.08-1.4,2.18-2.78,3.08-4.3-1.78.36-2.79,1.96-3.98,3.15-1.22-1.24-2.5-2.43-3.89-3.46Z"/>
  </g>
  <g id="_x23_4dacc1ff">
    <path class="st79" d="M604.19,350.24c3.32.35,7.08-.67,10.14.62l.25,1.13c-3.44-.02-6.91.32-10.32-.22-.01-.38-.05-1.15-.07-1.53Z"/>
  </g>
  <g id="_x23_9260a6ff">
    <path class="st26" d="M251.31,352.07c.37.04,1.11.1,1.48.13,1.58,3.18,3,6.52,3.43,10.08-2.01-.04-2.16-3.03-4.24-2.58-1.95-.22-2.57,2.18-4.26,2.66.47-3.64,2.21-6.93,3.59-10.29M251.22,356.09c-.54,1.69-.02,2.28,1.56,1.76.51-1.71,0-2.29-1.56-1.76Z"/>
  </g>
  <g id="_x23_9867abff">
    <path class="st25" d="M258.01,351.73c.36.22,1.08.68,1.44.91.45,2.97.38,6.01.18,9.01-.43.17-1.29.49-1.72.66-.2-3.53-.15-7.07.1-10.58Z"/>
  </g>
  <g id="_x23_65526fff">
    <path class="st27" d="M285.69,351.73c8.09-.28,16.21-.25,24.31,0,.43,5.36-1.2,11.1.9,16.18l.2.47-.52-.05c-8.65-.62-17.34-.37-25.99-.11l-.63.03.17-.41c2.3-5.05,1.05-10.76,1.56-16.11M289.04,355.01c1.07,1.6,2.38,3.01,3.78,4.34-1.26,1.33-2.49,2.71-3.47,4.26,2.29-.55,3.5-2.85,5.16-4.33-1.72-1.53-3.05-3.83-5.47-4.27M296.04,363.31c1.26,1.23,5.53,1.18,6.83,0-2.1-.68-4.73-.69-6.83,0Z"/>
  </g>
  <g id="_x23_474643ff">
    <path class="st17" d="M402.26,352.05c8.23-.6,16.52-.46,24.76-.05.16,5.3.18,10.61.09,15.92-8.53-.05-17.09-.71-25.6.12l-.64.06.26-.39c2.58-4.72.25-10.51,1.13-15.66M405.72,354.74c.99,1.59,2.25,2.98,3.52,4.35-1.21,1.38-2.76,2.59-3.26,4.45,1.97-1.15,3.48-2.89,4.99-4.56-1.66-1.51-2.96-3.63-5.25-4.24M411.94,363.62c2.39.61,4.87.39,7.32.39v-2.05c-2.39.4-6.05-1.13-7.32,1.66Z"/>
    <path class="st17" d="M98.41,354.11c1.73-.15,1.59,1.68,1.7,2.88,1.22-.08,2.66.08,2.76,1.59-.69.03-2.09.1-2.78.14-.11.78-.32,2.34-.42,3.13-1.55-.23-1.39-1.84-1.47-3-.71-.12-2.12-.35-2.83-.47l.69-1.19c.56-.06,1.68-.2,2.24-.27.03-.7.09-2.1.11-2.81Z"/>
    <path class="st17" d="M275.17,353.88c1.57.28,1.18,1.86,1.32,3.02,1.13-.35,3.89.24,2.53,1.72-.62.04-1.85.14-2.47.19-.06.73-.19,2.19-.25,2.91l-1.26-.45c-.04-.63-.1-1.9-.13-2.53-1.19-.21-3.04.3-2.95-1.51.74-.08,2.21-.23,2.94-.3.07-.76.2-2.29.27-3.05Z"/>
    <path class="st17" d="M436.18,353.81c1.34.54.94,2.03,1.19,3.14.69.05,2.09.14,2.79.18-.13,1.49-1.07,2.06-2.82,1.69-.1,1.07-.21,2.14-.33,3.22-1.01-.81-1.42-1.89-1.23-3.23-1.2-.2-2.86.16-2.99-1.51.76-.09,2.3-.27,3.07-.35.08-.79.24-2.36.32-3.14Z"/>
    <path class="st17" d="M474.41,356.97c.22-1.1-.15-2.64,1.28-3.02.1.75.3,2.24.4,2.99.75.07,2.26.22,3.01.29.05,1.86-1.73,1.38-2.97,1.48-.06.62-.16,1.87-.22,2.49l-1.33.47c-.03-.73-.08-2.19-.11-2.92-.64-.02-1.92-.06-2.56-.09-.02-.4-.04-1.2-.06-1.6.64-.02,1.92-.07,2.56-.09Z"/>
    <path class="st17" d="M625.91,356.94c-.09-1.25.04-2.74,1.61-2.76.07.68.21,2.03.28,2.7,1.23,0,2.5.15,2.86,1.51-.69.13-2.08.4-2.78.53-.1.7-.31,2.09-.41,2.79-1.51-.21-1.68-1.6-1.55-2.89-.68-.07-2.02-.23-2.69-.3.24-1.44,1.29-1.81,2.68-1.58Z"/>
    <path class="st17" d="M804.37,354.07c1.72-.15,1.53,1.62,1.76,2.83,1.22-.09,2.5.18,2.66,1.62-.68.06-2.04.16-2.73.22-.02,1.27-.07,2.58-1.45,3.01-.11-.75-.33-2.24-.45-2.98-1.57.27-2.42-.31-2.54-1.73.64-.01,1.94-.04,2.59-.05.04-.73.12-2.19.16-2.92Z"/>
  </g>
  <g id="_x23_5da168ff">
    <path class="st103" d="M452.14,352.01c2.69-.43,4.73,1.75,6.93,2.92,1.15.81,3.37,1.65,2.49,3.47-2.88,1.98-5.8,4.92-9.52,4.73-.06-3.71-.11-7.42.1-11.12M453.46,353.83c.03,2.65.03,5.31-.09,7.96,2.26-1.42,4.54-2.82,6.83-4.19-2.16-1.41-4.22-3.09-6.74-3.77Z"/>
  </g>
  <g id="_x23_63b6caff">
    <path class="st127" d="M635.02,353.95c1.01-1.16,2.84-2.92,4.24-1.15,1.62,1.12.28,3.76-1.45,3.83-1.61.1-2.22-1.52-2.79-2.68Z"/>
  </g>
  <g id="_x23_cce6caff">
    <path class="st140" d="M815.92,352.14c5.66,2.58,12.56,2.74,18.15-.11-.07,1.26-.13,2.52-.18,3.79-5.37,2.91-12.22,2.99-17.52-.11-.34-1.16-.49-2.35-.45-3.57Z"/>
    <path class="st140" d="M816,357.47c5.53,2.79,12.39,2.5,18,.07,0,.84.01,2.51.01,3.34-5.16,3.49-12.76,3.24-18.03.1.01-.88.01-2.64.02-3.51Z"/>
  </g>
  <g id="_x23_54a8c3ff">
    <path class="st39" d="M605.58,355.02c.21-3.14,4.34-1.54,6.41-1.98.22.47.64,1.41.85,1.88-2.42.13-4.84.17-7.26.1Z"/>
  </g>
  <g id="_x23_fbfefbff">
    <path class="st93" d="M453.46,353.83c2.52.68,4.58,2.36,6.74,3.77-2.29,1.37-4.57,2.77-6.83,4.19.12-2.65.12-5.31.09-7.96Z"/>
  </g>
  <g id="_x23_5183aeff">
    <path class="st80" d="M640.91,354.64c1.63-1.65,4.04-.96,6.11-1.06,3.65.15,7.32-.25,10.96.11.24.25.71.75.95.99-5.95.61-12.09.75-18.02-.04Z"/>
  </g>
  <g id="_x23_77b180ff">
    <path class="st112" d="M774.84,354c1.83-.86,1.73,1.49,2.44,2.43,1.04.37,2.04.84,3.01,1.41-2.55,2.06-6.69-.79-5.45-3.84Z"/>
  </g>
  <g id="_x23_cfa8dfff">
    <path class="st71" d="M251.22,356.09c1.55-.53,2.07.05,1.56,1.76-1.58.52-2.1-.07-1.56-1.76Z"/>
  </g>
  <g id="_x23_6e92b7ff">
    <path class="st97" d="M71.28,358.38c3.76-.25,7.56-.3,11.32-.02.16.41.47,1.21.63,1.61-4.17.05-8.34.02-12.51.04.14-.41.42-1.22.56-1.63Z"/>
  </g>
  <g id="_x23_60b3c7ff">
    <path class="st74" d="M635.46,361.14c-.64-3.68,4.55-3.24,4.9-.2-1.03,2.14-3.98,2.84-4.9.2Z"/>
  </g>
  <g id="_x23_4b7eaaff">
    <path class="st14" d="M641.57,359.92c5.87.2,11.76-.28,17.61.31-.81,1-1.87,1.4-3.16,1.23-4.8.02-9.6.01-14.39.04l-.06-1.58Z"/>
  </g>
  <g id="_x23_678cb6ff">
    <path class="st55" d="M70.99,361.01c2.4,0,4.79.05,7.19.12-.07.44-.21,1.31-.28,1.75-2.33.21-4.67.11-7.01.13.03-.5.08-1.5.1-2Z"/>
  </g>
  <g id="_x23_a4a29eff">
    <path class="st104" d="M411.94,363.62c1.27-2.79,4.93-1.26,7.32-1.66v2.05c-2.45,0-4.93.22-7.32-.39Z"/>
  </g>
  <g id="_x23_e2dde0ff">
    <path class="st66" d="M296.04,363.31c2.1-.69,4.73-.68,6.83,0-1.3,1.18-5.57,1.23-6.83,0Z"/>
  </g>
  <g id="_x23_74afc9ff">
    <path class="st98" d="M635.95,364.83c1.66-.32,4.06-.05,4.11,2.13-.3.55-.88,1.65-1.18,2.2-2.75.55-4.04-2.08-2.93-4.33Z"/>
  </g>
  <g id="_x23_6ba1c1ff">
    <path class="st96" d="M641.87,366.12c5.44-.26,10.92-.24,16.37-.07l.82,1.22c-3.59,1.02-7.36.36-11.03.54-2.33-.15-4.84.42-6.99-.69l.83-1Z"/>
  </g>
  <g id="_x23_4c82adff">
    <path class="st107" d="M600.57,366.91c5.92,0,11.85,0,17.77.06l-.4,1.33c-5.74.32-11.49.3-17.23.17l-.14-1.56Z"/>
  </g>
  <g id="_x23_333130ff">
    <path class="st62" d="M284.59,368.22c8.65-.26,17.34-.51,25.99.11-1.59,1.32-3.69.95-5.6,1.01-6.31-.12-12.63.16-18.93-.13-.37-.25-1.1-.74-1.46-.99Z"/>
  </g>
  <g id="_x23_4472a3ff">
    <path class="st100" d="M599.72,369.76c6.42.12,12.91-.5,19.28.38-.26.22-.79.67-1.05.89-5.98.37-12,0-17.99.22l-.24-1.49Z"/>
  </g>
  <g id="_x23_eba458ff">
    <path class="st83" d="M410.12,413.05c2.9-3.53,7.21-5.82,11.84-5.65,19.69-.03,39.38-.22,59.06.06,4.61-.12,8.81,2.2,11.85,5.53.79,1.53,1.43,3.14,1.92,4.81.16.72.48,2.16.64,2.88,7.91-.43,15.91,1.08,23.73-.42l1.02-.17c.47.19,1.42.57,1.9.76-1.19.69-2.44,1.22-3.75,1.58-7.63-.4-15.25.13-22.88.01-.44,1.51-.86,3.03-1.36,4.53-2.41,4.89-7.48,8.38-13.01,8.36-19.7.08-39.42.03-59.12.04-5.29.12-10.42-2.95-12.98-7.54-.61-1.78-1.12-3.59-1.65-5.39-7.54.07-15.08-.37-22.62-.11-.52-.14-1.55-.4-2.07-.54.29-.22.88-.66,1.17-.88,7.83-.13,15.67.2,23.48-.42.26-1.08.53-2.16.83-3.22.57-1.46,1.23-2.87,2-4.22M418.4,409.6c-5,1.4-9.35,5.98-9.02,11.4-.36,6.33,5.3,12.13,11.61,12.05,14.67.33,29.35-.3,44.03.04,6.37-.04,12.75.29,19.11-.26,5.05-1.03,9.14-5.74,9.29-10.94.72-7.26-6.39-13.52-13.44-12.89-18.68.26-37.37-.06-56.06.08-1.85.04-3.73,0-5.52.52Z"/>
  </g>
  <g id="_x23_b2dcb5ff">
    <path class="st128" d="M865.21,412.24c2.07-1.33,3.41-3.48,5.03-5.28-.46,2.08-.66,4.44-2.4,5.91-4.65,4.82-11.41,6.46-17.88,6.76,5.74.27,11.51.4,17.22,1.2-6.65.17-13.3.23-19.94.07-.16-1.27-.32-2.54-.5-3.79,3.31-.63,6.67-.92,9.97-1.58,1.44-.14,1.9-1.76,2.77-2.67,1.89-.14,3.91.1,5.73-.62Z"/>
    <path class="st128" d="M770.34,409.45c1.47-.55,3.07-.42,4.63-.47,19.33.04,38.67,0,58,.02,6.03-.46,11.64,4.25,12.71,10.12,1.43,6.91-4.69,14.38-11.81,14.19-19.95-.19-39.91-.01-59.86-.12-6,.46-11.73-4.34-12.34-10.32-1.04-5.9,3.18-11.58,8.67-13.42Z"/>
  </g>
  <g id="_x23_aeccedff">
    <path class="st115" d="M66.21,409.32c1.58-.42,3.23-.3,4.85-.33,19.32.03,38.63,0,57.94.02,4.91-.09,9.67,3.16,11.48,7.7,1.53,4.65.59,10.32-3.31,13.56-2.25,2.04-5.25,3.05-8.27,2.98-19.97.07-39.94.1-59.9.02-6.15.16-11.83-5.03-12-11.2-.74-5.83,3.66-11.36,9.21-12.75Z"/>
  </g>
  <g id="_x23_ddbbecff">
    <path class="st108" d="M242.35,409.38c1.52-.48,3.15-.35,4.72-.39,19.66.04,39.31,0,58.96.02,6.21,0,11.54,5.84,11.45,11.97.31,6.61-5.81,12.8-12.48,12.27-20.03-.14-40.07.27-60.1-.11-7.19.12-12.54-7.1-11.29-13.98.47-4.7,4.4-8.41,8.74-9.78Z"/>
  </g>
  <g id="_x23_facb90ff">
    <path class="st30" d="M389.15,414.97c-2.36-1.27-3.1-3.73-2.89-6.24.46.49,1.38,1.48,1.83,1.97,1.6,1.32,3.57,2.06,5.6,2.43.27.57.79,1.7,1.05,2.27,4.31,1.46,8.87,1.69,13.38,1.87-.3,1.06-.57,2.14-.83,3.22-7.81.62-15.65.29-23.48.42l.46-.33c3.09-.23,6.19-.25,9.28-.35,1.91-.07,3.82-.23,5.73-.44-3.21-1.98-7.09-2.56-10.13-4.82Z"/>
  </g>
  <g id="_x23_fbcb8fff">
    <path class="st16" d="M418.4,409.6c1.79-.52,3.67-.48,5.52-.52,18.69-.14,37.38.18,56.06-.08,7.05-.63,14.16,5.63,13.44,12.89-.15,5.2-4.24,9.91-9.29,10.94-6.36.55-12.74.22-19.11.26-14.68-.34-29.36.29-44.03-.04-6.31.08-11.97-5.72-11.61-12.05-.33-5.42,4.02-10,9.02-11.4Z"/>
  </g>
  <g id="_x23_cfa8dbff">
    <path class="st113" d="M336.47,412.43c.5-.25,1.5-.77,2.01-1.02.04.44.13,1.33.18,1.77-5.52,4.36-12.89,5.59-19.76,5.26-.53-1.86-1.23-3.68-2.08-5.41,3.74-.02,7.49-.06,11.24-.12,2.8-.07,5.63-.03,8.41-.48Z"/>
  </g>
  <g id="_x23_c498d1ff">
    <path class="st148" d="M218.78,413.33c.81-.1,2.42-.3,3.23-.4,4.05.09,8.1.26,12.16.25-.64,1.18-1.23,2.39-1.72,3.65-4.64-.55-10.17.24-13.67-3.5Z"/>
  </g>
  <g id="_x23_f8b971ff">
    <path class="st86" d="M393.69,413.13c1.43-.07,2.86-.13,4.3-.18,4.04.08,8.08.2,12.13.1-.77,1.35-1.43,2.76-2,4.22-4.51-.18-9.07-.41-13.38-1.87-.26-.57-.78-1.7-1.05-2.27Z"/>
  </g>
  <g id="_x23_f8bc79ff">
    <path class="st132" d="M492.87,412.99c4.01.03,8.03.04,12.04-.17,2.51-.1,5.03.07,7.54.3-4.75,4.25-11.73,3.76-17.66,4.68-.49-1.67-1.13-3.28-1.92-4.81Z"/>
  </g>
  <g id="_x23_9dd2a0ff">
    <path class="st151" d="M744.53,413.18c2.12-.16,4.26-.28,6.4-.25,3.8.11,7.61,0,11.42.1-.49.9-.93,1.82-1.33,2.77-5.58-.08-11.64.86-16.49-2.62Z"/>
  </g>
  <g id="_x23_baddbbff">
    <path class="st146" d="M730.8,419c1.88,1.33,3.76,3.05,6.2,3.09,7.48.43,14.99.06,22.48.2,1.14,3.54,2.54,7.26,5.65,9.56,2.95,2.63,7.08,3.01,10.86,3.02,17.34,0,34.69-.01,52.03-.07,4.77.04,10.15.48,14.07-2.8,3.22-2.24,4.38-6.15,5.37-9.73,7.17-.03,14.35.12,21.52-.12,2.59.1,4.88-1.18,7.04-2.45-.93,2.06-2.03,4.31-4.37,5.04-6.79,2.57-14.24.56-21.23,1.65-3.21,2.44-5.15,6.22-8.45,8.6-3.93,3.1-9.08,3.84-13.94,3.8-9.33.07-18.67.3-27.99-.08-9.14-.06-18.31.55-27.42-.25-7.22-.93-10.43-8.46-16.23-11.78-5.04-1.07-10.26-.17-15.34-.86-4.22-.43-9.19-2.2-10.25-6.82Z"/>
  </g>
  <g id="_x23_a6c3e3ff">
    <path class="st136" d="M31.45,422.25c7.99-.4,16-.28,23.99-.1.53,2.73,1.33,5.43,2.64,7.9-2.07-1.61-3.59-3.87-5.79-5.31-6.87-1.4-14.59,1.67-20.84-2.49Z"/>
  </g>
  <g id="_x23_a7c4e4ff">
    <path class="st88" d="M142.73,421.98c7.53.25,15.09-.24,22.62.28-7.34,4.33-16.46-.09-23.74,4.53.39-1.6.78-3.2,1.12-4.81Z"/>
  </g>
  <g id="_x23_f8c180ff">
    <path class="st22" d="M384.71,422.33c7.54-.26,15.08.18,22.62.11.53,1.8,1.04,3.61,1.65,5.39-3.84-1.43-7.83-2.62-11.97-2.43-4.37.3-8.21-2.01-12.3-3.07Z"/>
    <path class="st22" d="M495.45,422.44c7.63.12,15.25-.41,22.88-.01-5.09,1.12-10.09,2.88-15.35,2.99-3.03.05-5.99.73-8.89,1.55.5-1.5.92-3.02,1.36-4.53Z"/>
  </g>
  <g id="_x23_a8dfe5ff">
    <path class="st139" d="M557.95,422.03c8.48.26,16.97.33,25.46.35,1.16,7,7.37,12.72,14.57,12.7,19.34.13,38.69.02,58.03,0,4.69.22,9.03-1.84,12.38-5.02-2.04,4.51-6.19,8.31-11.38,8.34-19.47.32-38.97.1-58.45.16-7.71-.68-11.67-8.54-18.13-11.79-5.45-.62-10.95-.85-16.41-1.39-2.41-.26-4.41-1.69-6.07-3.35Z"/>
  </g>
  <g id="_x23_a3dee5ff">
    <path class="st68" d="M671.5,422.33c8.34.03,16.68-.21,25.01-.2-4.22,4.37-10.68,3.48-16.19,3.5-3.76-.28-7.21,1.5-10.75,2.46.74-1.88,1.34-3.82,1.93-5.76Z"/>
  </g>
  <g id="_x23_afc9e2ff">
    <path class="st63" d="M63.63,434.06c5.42.93,10.93.67,16.4.71,13.33.01,26.67.03,40,0,4.78.06,9.58.09,14.32-.6-4.98,4.68-12.18,3.12-18.36,3.27-14.47.15-28.93,0-43.39.18-3.41.21-6.68-1-8.97-3.55Z"/>
  </g>
  <g id="_x23_fce3c0ff">
    <path class="st106" d="M410.77,437.08c3.65,3.16,8.42,4.79,13.24,4.47,18.66-.75,37.34-.12,55.99-.93,3.91,0,7.23-2.52,11.09-2.86-.71,1.08-1.37,2.19-2.03,3.31,4.54,1.16,9.27.88,13.91.97,17.75-.07,35.5.15,53.24-.03.39.04,1.18.12,1.57.16,7.42,5.54,12.13,16.22,7.25,24.89-3.29,4.85-8.93,8.84-15.05,8.27-63.33.06-126.66-.03-189.99.04-5.14-.09-10.62.53-15.36-1.9-4.13-1.96-6.56-6.17-8.03-10.31-1.4-3.51-.57-7.88,2.45-10.28-.39-3.59,1.24-7.7,4.67-9.25,4.29-2.59,9.5-1.59,14.25-1.79,18.19-.31,36.39.28,54.56-.46-.43-1.5-.95-2.98-1.76-4.3M338.1,460.16c.07,5.02,3.22,9.73,7.65,11.97,6.44,1.89,13.18,1.38,19.79,1.34,60.76-.05,121.51.09,182.27,0,3.81-.3,7.83-.72,11.2-2.65,3.13-2.62,6.32-6.1,5.65-10.52-2.38,4.23-6.57,8.12-11.71,8.02-66.65.03-133.31-.07-199.96.04-3.2-.06-6.65-.21-9.38-2.09-2.32-1.55-3.92-3.88-5.51-6.11Z"/>
  </g>
  <g id="_x23_facc94ff">
    <path class="st117" d="M338.1,460.16c1.59,2.23,3.19,4.56,5.51,6.11,2.73,1.88,6.18,2.03,9.38,2.09,66.65-.11,133.31,0,199.96-.04,5.14.1,9.33-3.79,11.71-8.02.67,4.42-2.52,7.9-5.65,10.52-3.37,1.93-7.39,2.35-11.2,2.65-60.76.09-121.51-.05-182.27,0-6.61.04-13.35.55-19.79-1.34-4.43-2.24-7.58-6.95-7.65-11.97Z"/>
  </g>
  <g class="st7">
    <g class="st7">
      <g class="st7">
        <text class="st5" transform="translate(75.27 171.6)"><tspan class="st15"><tspan x="0" y="0">Inputs: </tspan></tspan><tspan class="st11"><tspan x="-5.23" y="15.6">GSM8K / </tspan></tspan><tspan class="st11"><tspan x="-35.74" y="31.2">MBPP-style problems</tspan></tspan></text>
      </g>
    </g>
  </g>
  <g class="st7">
    <g class="st7">
      <g class="st7">
        <text class="st10" transform="translate(41.13 127.4)"><tspan x="0" y="0">Layer 1: Seed &amp; </tspan><tspan x="-14.81" y="18">Curriculum Planning</tspan></text>
      </g>
    </g>
  </g>
  <g class="st7">
    <g class="st7">
      <g class="st7">
        <text class="st5" transform="translate(73.48 222.98)"><tspan class="st15"><tspan x="0" y="0">Processes: </tspan></tspan><tspan class="st11"><tspan x="-15.18" y="15.6">task distribution, </tspan></tspan><tspan class="st11"><tspan x="-24.19" y="31.2">difficulty balancing, </tspan></tspan><tspan class="st11"><tspan x="-16.97" y="46.8">curriculum design</tspan></tspan></text>
      </g>
    </g>
  </g>
  <g class="st7">
    <g class="st7">
      <g class="st7">
        <text class="st5" transform="translate(75.47 294.51)"><tspan class="st15"><tspan x="0" y="0">Outputs:</tspan></tspan><tspan class="st15" x="-32.3" y="15.6"> </tspan><tspan class="st11" x="-29.05" y="15.6">structured seed pool, </tspan><tspan class="st11"><tspan x="-10.1" y="31.2">JSONL, code</tspan></tspan></text>
      </g>
    </g>
  </g>
  <g class="st7">
    <g class="st7">
      <g class="st7">
        <text class="st6" transform="translate(51.41 385.84)"><tspan x="0" y="0">problem cards + </tspan><tspan x="2.98" y="18">curriculum map</tspan></text>
      </g>
    </g>
  </g>
  <g class="st7">
    <g class="st7">
      <g class="st7">
        <text class="st6" transform="translate(80.79 424.39)"><tspan x="0" y="0">Seed</tspan></text>
      </g>
    </g>
  </g>
  <g class="st7">
    <g class="st7">
      <g class="st7">
        <text class="st6" transform="translate(255.55 426.79)"><tspan x="0" y="0">PoT</tspan></text>
      </g>
    </g>
  </g>
  <g class="st7">
    <g class="st7">
      <g class="st7">
        <text class="st6" transform="translate(224.32 386.47)"><tspan x="0" y="0">AI generation +</tspan><tspan x="12.97" y="18" xml:space="preserve"> code block</tspan></text>
      </g>
    </g>
  </g>
  <g class="st7">
    <g class="st7">
      <g class="st7">
        <text class="st10" transform="translate(212.52 131.75)"><tspan x="0" y="0">Layer 2: Generation </tspan><tspan x="1.86" y="18">&amp; PoT Construction</tspan></text>
      </g>
    </g>
  </g>
  <g class="st7">
    <g class="st7">
      <g class="st7">
        <text class="st3" transform="translate(212.21 191.49)"><tspan x="0" y="0">Evol-Instruct rewriting</tspan><tspan x="-.54" y="31.2">scenario augmentation,</tspan><tspan x="4.87" y="46.8" xml:space="preserve"> multi-step reasoning</tspan><tspan x="14.6" y="78">Python solutions </tspan><tspan x="2.34" y="93.6">(Program of Thought)</tspan><tspan x="5.79" y="124.8">standardized schema</tspan></text>
      </g>
    </g>
  </g>
  <g class="st7">
    <g class="st7">
      <g class="st7">
        <text class="st10" transform="translate(388.37 140.46)"><tspan x="0" y="0">Layer 3: Verification</tspan></text>
      </g>
    </g>
  </g>
  <g class="st7">
    <g class="st7">
      <g class="st7">
        <text class="st4" transform="translate(77.04 33.72)"><tspan x="0" y="0">From Problem Generation to Verifiable Curriculum Pipeline</tspan></text>
      </g>
    </g>
  </g>
  <g class="st7">
    <g class="st7">
      <g class="st7">
        <text class="st9" transform="translate(174.76 67.43)"><tspan x="0" y="0">Synthetic Math &amp; Code Textbook Factory (P04)</tspan></text>
      </g>
    </g>
  </g>
  <g class="st7">
    <g class="st7">
      <g class="st7">
        <text class="st3" transform="translate(399.97 179.91)"><tspan x="0" y="0">extract code blocks</tspan><tspan x="1.62" y="31.2">sandbox execution</tspan><tspan x="12.64" y="62.4">capture errors </tspan><tspan x="1.43" y="78">(runtime, timeout, </tspan><tspan x="6.32" y="93.6">incorrect results)</tspan><tspan x="4.32" y="124.8">filter low-quality </tspan><tspan x="29.23" y="140.4">samples</tspan></text>
      </g>
    </g>
  </g>
  <g class="st7">
    <g class="st7">
      <g class="st7">
        <text class="st6" transform="translate(426.11 425.11)"><tspan x="0" y="0">Sandbox</tspan></text>
      </g>
    </g>
  </g>
  <g class="st7">
    <g class="st7">
      <g class="st7">
        <text class="st6" transform="translate(395.1 389.65)"><tspan x="0" y="0">terminal+run button</tspan><tspan x="17.3" y="18" xml:space="preserve"> + check/cross</tspan></text>
      </g>
    </g>
  </g>
  <g class="st7">
    <g class="st7">
      <g class="st7">
        <text class="st6" transform="translate(603.06 384.31)"><tspan x="0" y="0">books + </tspan><tspan x="-26.8" y="18">structured outline</tspan></text>
      </g>
    </g>
  </g>
  <g class="st7">
    <g class="st7">
      <g class="st7">
        <text class="st6" transform="translate(601.96 425.04)"><tspan x="0" y="0">Package</tspan></text>
      </g>
    </g>
  </g>
  <g class="st7">
    <g class="st7">
      <g class="st7">
        <text class="st8" transform="translate(334.8 460.16)"><tspan x="0" y="0">Generate → Execute → Verify</tspan></text>
      </g>
    </g>
  </g>
  <g class="st7">
    <g class="st7">
      <g class="st7">
        <text class="st3" transform="translate(578.47 201.56)"><tspan x="0" y="0">textbook volumes</tspan><tspan x="24.74" y="31.2">chapters</tspan><tspan x="5.07" y="62.4">curriculum map</tspan><tspan x="9.04" y="93.6">teacher guides</tspan></text>
      </g>
    </g>
  </g>
  <g class="st7">
    <g class="st7">
      <g class="st7">
        <text class="st10" transform="translate(567.66 138.81)"><tspan x="0" y="0">Layer 4: Packaging</tspan></text>
      </g>
    </g>
  </g>
  <g class="st7">
    <g class="st7">
      <g class="st7">
        <text class="st6" transform="translate(754.07 389)"><tspan x="0" y="0">model + dataset</tspan></text>
      </g>
    </g>
  </g>
  <g class="st7">
    <g class="st7">
      <g class="st7">
        <text class="st6" transform="translate(787.63 428.32)"><tspan x="0" y="0">Train</tspan></text>
      </g>
    </g>
  </g>
  <g class="st7">
    <g class="st7">
      <g class="st7">
        <text class="st6" transform="translate(737.71 191.49)"><tspan x="0" y="0">train.jsonl / val.jsonl / </tspan><tspan x="17.29" y="18">smoke_test.jsonl</tspan><tspan x=".22" y="54">training_manifest.json</tspan><tspan x="5.42" y="90">small model training</tspan></text>
      </g>
    </g>
  </g>
  <g class="st7">
    <g class="st7">
      <g class="st7">
        <text class="st10" transform="translate(774.58 131.01)"><tspan x="0" y="0">Layer 5: </tspan><tspan x="-28.13" y="18">Training Delivery</tspan></text>
      </g>
    </g>
  </g>
</svg>