<?xml version="1.0" encoding="UTF-8"?>
<svg id="_图层_1" data-name="图层_1" xmlns="http://www.w3.org/2000/svg" version="1.1" viewBox="0 0 900 503">
  <!-- Generator: Adobe Illustrator 29.6.0, SVG Export Plug-In . SVG Version: 2.1.1 Build 207)  -->
  <defs>
    <style>
      .st0 {
        fill: #393635;
      }

      .st1, .st2, .st3, .st4, .st5, .st6, .st7, .st8, .st9, .st10, .st11, .st12, .st13, .st14, .st15 {
        isolation: isolate;
      }

      .st1, .st2, .st6, .st7, .st8, .st9, .st10, .st13, .st14 {
        font-family: TimesNewRomanPSMT, 'Times New Roman';
      }

      .st1, .st7, .st8, .st10, .st13 {
        font-size: 10px;
      }

      .st1, .st16 {
        fill: #d67f2f;
      }

      .st17 {
        fill: #665f5f;
      }

      .st18 {
        fill: #4a9561;
      }

      .st2 {
        font-size: 10.4px;
      }

      .st2, .st3, .st4, .st6, .st9, .st11, .st12, .st14, .st15 {
        fill: #111;
      }

      .st19, .st7 {
        fill: #cd4b86;
      }

      .st20 {
        fill: #514e4c;
      }

      .st3 {
        font-size: 15.5px;
      }

      .st3, .st4, .st11, .st12, .st15 {
        font-family: TimesNewRomanPS-BoldMT, 'Times New Roman';
        font-weight: 700;
      }

      .st21 {
        fill: #e9dcec;
      }

      .st22 {
        fill: #77ad88;
      }

      .st23 {
        fill: #cb6290;
      }

      .st24 {
        fill: #686364;
      }

      .st25 {
        fill: #5a5a56;
      }

      .st26 {
        fill: #d4e9d7;
      }

      .st27 {
        fill: #66a7df;
      }

      .st28 {
        fill: #f2c5d6;
      }

      .st4 {
        font-size: 11.5px;
      }

      .st29 {
        fill: #205d8d;
      }

      .st30 {
        fill: #d5e8d8;
      }

      .st31 {
        fill: #565252;
      }

      .st32 {
        fill: #f9d3e0;
      }

      .st33 {
        fill: #ece0ee;
      }

      .st34 {
        fill: #d5ead8;
      }

      .st35 {
        fill: #e8dbec;
      }

      .st36 {
        fill: #489a60;
      }

      .st37 {
        fill: #363432;
      }

      .st38 {
        fill: #f8d7df;
      }

      .st39 {
        fill: #f9dae0;
      }

      .st40 {
        fill: #fad7e1;
      }

      .st6 {
        font-size: 17px;
      }

      .st41 {
        fill: #b6afb2;
      }

      .st42 {
        fill: #7b4392;
      }

      .st43 {
        fill: #fde5cd;
      }

      .st44 {
        fill: #63645f;
      }

      .st45 {
        fill: #5e5858;
      }

      .st46 {
        fill: #d5ead9;
      }

      .st47 {
        fill: #f7ce18;
      }

      .st48 {
        fill: #635e56;
      }

      .st49 {
        fill: #635d54;
      }

      .st8 {
        fill: #3f965e;
      }

      .st50 {
        fill: #d7e9da;
      }

      .st51 {
        fill: #51504d;
      }

      .st52 {
        fill: #d6e8d9;
      }

      .st9 {
        font-size: 10.6px;
      }

      .st53 {
        fill: #7b4293;
      }

      .st10 {
        fill: #7b3a97;
      }

      .st54 {
        fill: #312f2d;
      }

      .st55 {
        fill: #635c5c;
      }

      .st56 {
        fill: #ebdfed;
      }

      .st57 {
        fill: #deecf6;
      }

      .st58 {
        fill: #4f4c4b;
      }

      .st59 {
        fill: #5b5b58;
      }

      .st60 {
        fill: #d4ead8;
      }

      .st11 {
        font-size: 12.5px;
      }

      .st61 {
        fill: #da924f;
      }

      .st62 {
        fill: #fae1c6;
      }

      .st63 {
        fill: #fce2c6;
      }

      .st12 {
        font-size: 18.5px;
      }

      .st64 {
        fill: #fefefe;
      }

      .st13 {
        fill: #1f5f8a;
      }

      .st65 {
        fill: #464542;
      }

      .st66 {
        fill: #fef0c2;
      }

      .st14 {
        font-size: 10.8px;
      }

      .st67 {
        fill: #3c3a39;
      }

      .st68 {
        fill: #6b6667;
      }

      .st15 {
        font-size: 27px;
      }

      .st69 {
        fill: #534f49;
      }

      .st70 {
        fill: #e6d4eb;
      }

      .st71 {
        fill: #d88537;
      }

      .st72 {
        fill: #fde4cb;
      }

      .st73 {
        fill: #343231;
      }

      .st74 {
        fill: #d3e8d6;
      }

      .st75 {
        fill: #54504a;
      }

      .st76 {
        fill: #d4e9d8;
      }

      .st77 {
        fill: #f9d6e1;
      }
    </style>
  </defs>
  <g id="_x23_fefefeff">
    <path class="st64" d="M0,0h900v503H0V0M108.4,91.44c-2.66,3.57-1.73,8.3-1.77,12.44-21.54.01-43.08.56-64.62.05-4.78-.15-10.02,1.12-13.1,5.04-2.94,3.27-3.48,7.85-3.37,12.07.06,90.3.04,180.59.05,270.89.07,4-.28,8.03.24,12.02,1.01,6.71,7.41,12.12,14.2,11.91,17.82,0,35.65,0,53.47,0-.47,2.43-.94,4.86-1.37,7.3,6.74-3.19,13.01-7.25,19.49-10.91-.11,10.9.07,21.81-.07,32.71,0,3.19-.12,6.82,2.23,9.32,1.96,2.38,5.14,3.28,8.14,3.16,43.04,0,86.08,0,129.12,0,4.8.48,9.51-3.48,9.53-8.36.1-15.11.03-30.23.02-45.35,6.56,3.95,13.23,7.73,20.05,11.25-.56-2.54-1.12-5.06-1.63-7.6,41.99.1,83.98.04,125.97.05,7.88.57,14.82-6.65,14.55-14.4-.03-24.8.03-49.59-.03-74.39,20.38.18,40.77.14,61.15.03-.19,24.46.01,48.92-.1,73.38-.18,4.39,1.37,8.95,4.87,11.77,3.09,2.93,7.48,3.7,11.6,3.58,42-.04,84,.02,126-.04-.46,2.43-.96,4.86-1.43,7.3,6.7-3.29,13.05-7.24,19.49-11-.11,11.45.07,22.92.03,34.38-.33,4.77,4.03,9.17,8.81,8.87,50.37-.03,100.73.07,151.1-.02,4.77.31,8.9-4.15,8.69-8.83.17-9.3-.08-18.62,0-27.93,6.75,3.54,13.13,7.77,20.01,11.07-.62-2.54-1.24-5.06-1.88-7.59,11.08-.1,22.16.01,33.24-.06,5.03.11,10.29-2.2,12.86-6.69,2.9-4.75,1.95-10.54,1.96-15.81-.02-91.04-.01-182.08-.04-273.11.15-6.98-5.66-13.65-12.79-13.73-23.21-.19-46.44-.03-69.66-.12-.17-4.59,1.15-10.32-2.77-13.74-2.81-2.84-7.05-2.08-10.63-2.16-49.03,0-98.06,0-147.08,0-3.07-.12-6.21,1.37-7.79,4.05-1.64,2.62-1.27,5.84-1.34,8.79.15,8.33-.18,16.65-.02,24.98-6.44-3.67-12.76-7.59-19.41-10.88.58,2.55,1.22,5.08,1.85,7.62-34.09-.09-68.18,0-102.26-.03-3.15,0-6.5.18-9.19,1.99-4.56,2.71-7.1,8.05-6.89,13.29,0,22.82,0,45.64.01,68.46-25.22.12-50.46.18-75.68-.01.13-23.13.07-46.25-.07-69.38.37-7.64-6.41-14.67-14.1-14.37-35.66.01-71.32-.05-106.98.05.69-2.51,1.38-5.02,1.91-7.58-6.49,3.49-12.95,7.01-19.29,10.75-.02-9.66.05-19.32,0-28.98.21-4.71-3.93-8.99-8.68-8.76-49.68-.01-99.37,0-149.05,0-2.85-.12-5.87.86-7.55,3.28M290.19,422.14c-4.07.69-6.78,4.88-6.43,8.88,0,13.65.05,27.31-.04,40.96-.31,3.96,2.76,7.87,6.7,8.4,2.84.29,5.7.12,8.56.15,105.37-.04,210.74.03,316.11-.04,4.6.24,8.65-3.89,8.41-8.48.03-13.68.03-27.37.01-41.05.12-3.23-1.5-6.59-4.45-8.06-3.45-1.6-7.37-1.02-11.04-1.12-104.68.02-209.35.02-314.02,0-1.29,0-2.56.12-3.81.36Z"/>
    <path class="st64" d="M35.49,115.54c1.13-2.56,4.23-2.34,6.55-2.39,21.54.12,43.09,0,64.63.06-.11,4.98-.07,9.97-.05,14.95-13.85.25-27.7.09-41.56.11-4.39.09-9.14-.58-13.15,1.68-4.65,2.5-7.03,7.92-7.01,13.05-.03,52.01.02,104.02-.01,156.03.06,4.15-.28,8.35.49,12.44,1.19,5.77,6.71,10.11,12.52,10.31,5.9.27,11.8.02,17.7-.01-.7,2.62-1.4,5.25-2.08,7.88,6.77-3.49,13.27-7.47,19.9-11.21.01,8.5.07,17.01-.02,25.52.08,3.01-.13,6.35,1.72,8.94,1.73,2.51,4.81,3.78,7.81,3.69,55.71-.11,111.43-.04,167.14-.05,2.77.07,5.6-.99,7.32-3.23,1.97-2.3,1.91-5.5,1.96-8.35-.09-13.56-.04-27.11-.04-40.67,18.3-.03,36.61.08,54.92-.05-.62,2.53-1.23,5.06-1.81,7.6,6.75-3.49,13.23-7.47,19.81-11.27-.11,4.87-.87,10.57,2.77,14.45,2.6,3.3,7.07,3.78,10.97,3.74,14.77-.12,29.54.08,44.31-.06.06,23.09-.07,46.19.07,69.29-.06,2.56.15,5.22-.7,7.68-.87,2.22-3.51,2.7-5.63,2.64-41.68-.02-83.36,0-125.05-.02.54-2.57,1.11-5.13,1.65-7.7-6.85,3.49-13.49,7.37-20.06,11.35-.01-6.98.18-13.97.02-20.95.14-4.6-3.89-8.95-8.55-8.81-43.01-.11-86.02.04-129.02-.07-2.99,0-6.35.07-8.61,2.32-2.73,2.36-2.79,6.25-2.82,9.57.05,8.71,0,17.41.05,26.12-6.51-3.77-12.94-7.69-19.61-11.2.48,2.56.99,5.11,1.52,7.66-17.19,0-34.38-.04-51.57.03-1.79-.11-3.84.07-5.29-1.2-1.92-1.51-1.71-4.2-1.85-6.38.05-90.35.02-180.71.02-271.07.11-4.13-.48-8.39.64-12.42Z"/>
    <path class="st64" d="M793.34,113.1c22.22.07,44.44.05,66.66,0,1.84.15,4.1-.13,5.48,1.41,1.39,1.44,1.18,3.62,1.34,5.46-.05,92.7-.01,185.39-.03,278.08-.07,2-.25,4.44-2.18,5.58-2.06.92-4.4.68-6.58.77-10.08-.13-20.16-.06-30.24,0,.66-2.54,1.31-5.09,1.95-7.63-6.92,3.22-13.3,7.43-19.97,11.11-.01-7.97-.1-15.94-.02-23.9-.05-2.97.08-6.31-2.03-8.68-1.76-2.39-4.8-3.22-7.64-3.14-49.71.02-99.41,0-149.12.01-4.67-.48-9.61,2.88-9.78,7.8-.34,7.2.06,14.42-.09,21.63-6.55-3.68-12.93-7.69-19.66-11.05.52,2.57,1.07,5.14,1.61,7.71-42.03.05-84.07-.03-126.1.04-2.41.02-5.42-.17-6.61-2.64-.77-2.12-.64-4.42-.72-6.63.02-23.45-.02-46.9.02-70.36,14.81.23,29.62-.08,44.43.12,3.93.08,8.39-.45,11.04-3.71,3.86-4.59,2.49-11.06,2.69-16.57,6.56,3.71,13.03,7.59,19.79,10.94-.64-2.54-1.28-5.06-1.95-7.58,21.51.16,43.03-.01,64.54.1-.01,15.02-.02,30.05-.09,45.07-.55,5.89,5.25,10.42,10.87,9.54,55.02-.07,110.06,0,165.08-.02,4.74.3,9.25-3.75,9.22-8.55.21-10.1-.02-20.2.06-30.3,6.59,3.61,12.97,7.59,19.69,10.98-.59-2.6-1.18-5.2-1.76-7.79,6.15-.37,13.4,1.35,18.46-3.16,3.51-2.81,4.65-7.45,4.55-11.76-.12-55.32.04-110.64.02-165.96-.04-5.41.69-11.67-3.37-15.94-3.34-4.14-8.99-4.65-13.92-4.47-15.2.11-30.4.01-45.59.03-.01-2.18-.04-4.36-.05-6.54Z"/>
    <path class="st64" d="M273.67,128.62c6.53,3.53,12.86,7.44,19.45,10.86-.69-2.43-1.4-4.86-2.11-7.28,33.31-.22,66.61-.11,99.92-.13,3.16.07,6.42-.39,9.52.43,2.55,1.09,2.43,4.18,2.47,6.5-.06,22.48-.09,44.96-.02,67.44-12.96.18-25.92.03-38.88.08-3.29-.09-6.75.85-8.92,3.48-4.07,4.4-2.7,10.86-2.94,16.31-6.57-3.71-13.04-7.57-19.68-11.13.68,2.67,1.36,5.35,2.06,8.03-18.41-.16-36.82.08-55.23-.12.16-10.7.26-21.41-.1-32.11-.11-5.14-5.38-8.59-10.21-8.1-52.01.12-104.03-.05-156.05.02-4.53.11-9.16-.46-13.61.58-4.03,1.23-5.98,5.61-5.87,9.57-.11,9.39-.01,18.79,0,28.19-6.59-3.9-13.19-7.8-19.99-11.34.57,2.72,1.16,5.44,1.71,8.16-1.9-.46-3.95-.6-5.65-1.63-1.38-1.41-1.09-3.57-1.22-5.37.19-17.35,0-34.71-.01-52.07.13-1.84-.12-4.03,1.3-5.48,1.1-1.19,2.92-.88,4.37-1.04,10.81-.02,21.61.09,32.42.02.21,4.12-.61,9.15,2.92,12.16,2.82,2.78,7.04,2.22,10.65,2.3,26.01-.17,52.03.25,78.04.02,21.68.35,43.37-.24,65.05.07,2.93.02,6.11-.5,8.19-2.77,2.81-2.64,2.53-6.79,2.56-10.31-.17-8.44-.1-16.89-.14-25.34Z"/>
    <path class="st64" d="M604.3,139.43c6.52-3.48,12.85-7.29,19.38-10.74.18,8.77.17,17.55.09,26.33.01,3.3.1,7.1,2.76,9.48,2.18,2.3,5.53,2.45,8.49,2.44,16.37-.03,32.75-.11,49.13.03-.01,16.7.08,33.41-.04,50.1.32,2.95-2.08,5.62-5.1,5.26-37.82.1-75.64-.09-113.46.06.66-2.61,1.32-5.22,1.97-7.83-6.66,3.41-12.94,7.49-19.5,11.07.04-4.19.08-8.51-1.13-12.56-1.54-4.44-6.41-6.74-10.9-6.55-12.94-.07-25.88.15-38.81-.11,0-22.81,0-45.63,0-68.44-.04-2.18.49-5.13,2.99-5.7,4.57-.7,9.21-.02,13.82-.17,30.81-.16,61.62.3,92.43-.22-.71,2.51-1.44,5.02-2.12,7.55Z"/>
    <path class="st64" d="M793.39,128.85c15.87-.23,31.76-.08,47.64-.14,2.09.02,4.99.13,5.74,2.56.96,4.84.26,9.82.41,14.73.04,52.67-.07,105.34.03,158.02-.12,2.56.22,6.35-2.87,7.29-3.61.85-7.37.41-11.03.48.61-2.51,1.22-5.02,1.81-7.53-6.85,3.31-13.36,7.26-19.82,11.26-.02-8.84,0-17.68.04-26.52,0-3.06-.13-6.54-2.51-8.8-1.97-2.19-5.04-2.69-7.83-2.67-53.65.03-107.31.06-160.96-.01-3.79.1-8.28-.6-11.22,2.38-3.51,3.26-2.53,8.48-2.79,12.77-21.41.07-42.81-.11-64.22-.01.62-2.54,1.25-5.08,1.86-7.62-6.85,3.37-13.32,7.43-19.9,11.28.07-10.48.17-20.97.02-31.45,6.56,3.56,12.96,7.41,19.56,10.9-.63-2.54-1.28-5.06-1.96-7.58,86.86.13,173.73.03,260.6.1,4.15.1,8.56-.67,11.77-3.5,3.58-2.78,4.62-7.51,4.52-11.81,0-34.65-.03-69.3.02-103.95.73-7.25-4.93-14.5-12.32-14.89-12.19-.59-24.4.03-36.6-.09-.01-1.74-.01-3.47.01-5.2Z"/>
    <path class="st64" d="M54.71,139.74c1.08-2.42,4.09-2.12,6.29-2.24,15.15,0,30.3-.06,45.44.03.09,1.86.17,3.72.25,5.59-11.59.17-23.19-.16-34.77.09-7.17-.06-13.24,6.66-12.8,13.74.18,18.7-.02,37.39.07,56.09-.04,4.1,1.41,8.43,4.86,10.89,3.21,2.67,7.55,2.68,11.49,2.92-.68,2.57-1.34,5.14-1.96,7.73,6.7-3.56,13.24-7.43,19.88-11.13.07,9.86-.19,19.73.08,29.59-.04,4,2.61,8.05,6.72,8.73,5.21.73,10.48-.05,15.72.17,25,.39,50.01-.2,75.01.16,26.35-.35,52.7.18,79.04-.14,4.2.23,8.57-2.62,9.06-6.99.72-7.52,0-15.11.2-22.66,18.39.01,36.79-.1,55.18.06-.7,2.52-1.38,5.05-2.04,7.59,6.66-3.62,13.17-7.5,19.75-11.28.12,23.23-.06,46.47.09,69.71-6.61-3.84-13.26-7.6-19.97-11.25.7,2.67,1.42,5.34,2.14,8-18.39-.07-36.77.08-55.16-.19-.26-4.9,1.22-10.79-2.45-14.77-2.98-3.34-7.8-2.58-11.79-2.67-50.7.09-101.4,0-152.1.05-4.31.08-8.67-.37-12.94.36-4.13.83-6.53,5.13-6.49,9.12-.25,9.7.04,19.41-.08,29.12-6.6-3.93-13.28-7.75-20.09-11.31.61,2.6,1.24,5.2,1.84,7.81-5.9-.19-11.85.38-17.71-.38-2.88-.58-3.35-3.87-3.22-6.3.13-51.65,0-103.29,0-154.93.12-3.76-.45-7.62.46-11.31Z"/>
    <path class="st64" d="M793.39,143.38c11.55-.27,23.12-.02,34.68-.15,2.65-.32,5.19,1.96,4.81,4.7.06,35.39,0,70.78-.02,106.16.35,2.75-2.08,5.23-4.85,4.82-87.41.04-174.83-.08-262.25.03,1.31-2.96,1.75-6.42-.23-9.21,82.83.27,165.67.06,248.5.11,7.53.44,14.48-6.32,14.08-13.89-.03-24.66.03-49.32-.06-73.97.22-6.53-4.81-12.85-11.42-13.49-7.69-.47-15.4-.05-23.1-.26-.05-1.62-.1-3.23-.14-4.85Z"/>
    <path class="st64" d="M793.71,157.48c7.06.01,14.12-.21,21.18.03,2.83.01,4.21,2.98,3.94,5.48.02,24.03.02,48.06,0,72.09.18,2.26-.87,4.89-3.34,5.33-3.48.54-7.02.16-10.52.24-79.68.06-159.36-.09-239.04.04,1.28-3,1.5-6.27.07-9.27,37.99.14,75.98.06,113.97.06,7.17.18,13.69-6.33,13.38-13.54-.03-16.96,0-33.91-.02-50.87,28.54-.35,57.1-.09,85.66-.15,3.92-.14,8.56.84,11.67-2.25,2.2-1.74,2.58-4.62,3.05-7.19Z"/>
    <path class="st64" d="M547.89,244.06c-.08-5.37-.25-10.75.51-16.08,4.1,3.09,8.71,5.41,13.09,8.08-4.52,2.69-9.05,5.37-13.6,8Z"/>
    <path class="st64" d="M547.89,246.45c4.63,2.55,9.27,5.09,13.72,7.95-4.6,2.69-9.17,5.44-13.82,8.03.07-5.33.08-10.65.1-15.98Z"/>
  </g>
  <g id="_x23_4a9561ff">
    <path class="st18" d="M108.4,91.44c1.68-2.42,4.7-3.4,7.55-3.28,49.68,0,99.37-.01,149.05,0,4.75-.23,8.89,4.05,8.68,8.76.05,9.66-.02,19.32,0,28.98,6.34-3.74,12.8-7.26,19.29-10.75-.53,2.56-1.22,5.07-1.91,7.58,35.66-.1,71.32-.04,106.98-.05,7.69-.3,14.47,6.73,14.1,14.37.14,23.13.2,46.25.07,69.38-.55-.02-1.65-.06-2.2-.08.15-21.79.04-43.58.12-65.36-.05-3.97-.1-8.32-2.66-11.6-2.38-3.24-6.52-4.49-10.39-4.39-36.17-.06-72.34.1-108.5-.08.4-1.92.8-3.84,1.21-5.75-4.69,2.67-9.38,5.33-14,8.12,4.48,2.58,9,5.09,13.5,7.64-.27-1.71-.53-3.41-.79-5.12,35.84.04,71.67.05,107.51,0,2.48.07,5.36.04,7.17,2.05,2.45,2.35,1.85,6.06,2.02,9.13-.2,21.79.2,43.58-.2,65.36-.52.03-1.57.07-2.1.1-.07-22.48-.04-44.96.02-67.44-.04-2.32.08-5.41-2.47-6.5-3.1-.82-6.36-.36-9.52-.43-33.31.02-66.61-.09-99.92.13.71,2.42,1.42,4.85,2.11,7.28-6.59-3.42-12.92-7.33-19.45-10.86.04,8.45-.03,16.9.14,25.34-.03,3.52.25,7.67-2.56,10.31-2.08,2.27-5.26,2.79-8.19,2.77-21.68-.31-43.37.28-65.05-.07-26.01.23-52.03-.19-78.04-.02-3.61-.08-7.83.48-10.65-2.3-3.53-3.01-2.71-8.04-2.92-12.16-10.81.07-21.61-.04-32.42-.02-1.45.16-3.27-.15-4.37,1.04-1.42,1.45-1.17,3.64-1.3,5.48.01,17.36.2,34.72.01,52.07.13,1.8-.16,3.96,1.22,5.37,1.7,1.03,3.75,1.17,5.65,1.63-.55-2.72-1.14-5.44-1.71-8.16,6.8,3.54,13.4,7.44,19.99,11.34,0,.74-.01,1.47-.01,2.21-6.64,3.7-13.18,7.57-19.88,11.13.62-2.59,1.28-5.16,1.96-7.73-3.94-.24-8.28-.25-11.49-2.92-3.45-2.46-4.9-6.79-4.86-10.89-.09-18.7.11-37.39-.07-56.09-.44-7.08,5.63-13.8,12.8-13.74,11.58-.25,23.18.08,34.77-.09-.08-1.87-.16-3.73-.25-5.59-15.14-.09-30.29-.04-45.44-.03-2.2.12-5.21-.18-6.29,2.24-.91,3.69-.34,7.55-.46,11.31,0,51.64.13,103.28,0,154.93-.13,2.43.34,5.72,3.22,6.3,5.86.76,11.81.19,17.71.38-.6-2.61-1.23-5.21-1.84-7.81,6.81,3.56,13.49,7.38,20.09,11.31,0,.76,0,1.51-.01,2.28-6.63,3.74-13.13,7.72-19.9,11.21.68-2.63,1.38-5.26,2.08-7.88-5.9.03-11.8.28-17.7.01-5.81-.2-11.33-4.54-12.52-10.31-.77-4.09-.43-8.29-.49-12.44.03-52.01-.02-104.02.01-156.03-.02-5.13,2.36-10.55,7.01-13.05,4.01-2.26,8.76-1.59,13.15-1.68,13.86-.02,27.71.14,41.56-.11-.02-4.98-.06-9.97.05-14.95.09-3.11.09-6.22-.04-9.33.04-4.14-.89-8.87,1.77-12.44M112.2,91.24c-2.52,1.22-3.45,4.19-3.33,6.8.06,19.01-.03,38.02.03,57.03.15,2.49-.29,5.44,1.68,7.37,1.75,2.25,4.86,2.08,7.41,2.16,48.69-.02,97.37,0,146.05-.09,3.7.35,7.53-2.62,7.21-6.53.08-19.66-.03-39.34.06-59.01-.01-2.29-.07-4.86-1.8-6.59-1.58-1.91-4.31-1.69-6.53-1.82-46.98.02-93.96-.05-140.94,0-3.27.12-6.72-.5-9.84.68M51.82,132.7c-3.16,2.38-4.71,6.36-4.59,10.25.01,55.05-.02,110.1.01,165.14-.32,5.77,4.45,10.85,10.09,11.45,6.89.65,13.82.05,20.73.22-.38,1.84-.77,3.68-1.15,5.53,4.75-2.62,9.4-5.41,14.07-8.17-4.71-2.63-9.38-5.34-14.15-7.84.37,1.84.75,3.69,1.13,5.54-5.31.02-10.63.02-15.94.13-2.52-.05-5.34.16-7.43-1.54-2.34-1.67-2.52-4.81-2.52-7.42,0-51.98.03-103.96,0-155.94.07-3.39-.27-6.84.44-10.17.7-3.36,4.34-4.98,7.49-4.77,15.22-.08,30.45.21,45.67-.15-.07-1.5-.13-3-.19-4.5-14.5-.09-29-.08-43.5-.1-3.46.05-7.35-.04-10.16,2.34M65.63,147.67c-2.87,2.17-4.39,5.76-4.31,9.32,0,18.33.02,36.67.01,55-.11,3.83,1.02,8.02,4.26,10.38,3.51,2.82,8.24,2.36,12.44,2.49-.34,1.77-.68,3.54-1.02,5.32,4.73-2.53,9.3-5.34,13.98-7.93-4.69-2.79-9.46-5.44-14.16-8.23.32,1.9.66,3.79.98,5.69-3.25-.23-7.2.82-9.79-1.71-2.75-2.6-1.8-6.69-1.91-10.05.09-16.67.11-33.34-.03-50.01-.03-2.15.21-4.54,1.91-6.07,1.89-1.76,4.67-1.45,7.05-1.59,10.16,0,20.31-.05,30.46.06.05-1.67.1-3.34.15-5-9.86-.02-19.72.14-29.58.04-3.55.04-7.55-.14-10.44,2.29Z"/>
    <path class="st18" d="M124.95,96.08c2.77-.11,5.54-.13,8.31-.12.06,2.11.11,4.22.13,6.33-.81.02-2.43.06-3.24.08-.11,1.19-.21,2.39-.31,3.58,2.5-.03,4.99-.07,7.49-.09.32,1.83.64,3.66.96,5.49,2.67.87,1.51,4.02,1.88,6.11-1.97-.06-3.95-.13-5.92-.22,0-1.62.02-3.23.04-4.85.59-.27,1.76-.81,2.35-1.08-.24-1.31-.48-2.62-.72-3.93-2.02-.02-4.03-.04-6.04-.05-.28,3.67,2.96,6.25,2.32,10-1.73.08-3.46.22-5.2.14-1.28-1.33-.69-3.47-1.04-5.15.65-.26,1.95-.78,2.6-1.05-.05-.96-.16-2.88-.22-3.84-2.28,0-4.56.02-6.83.04.23,1.99-.11,4.5,2.41,5.06.02,1.58.02,3.16.02,4.74-1.9.03-4,.73-5.76-.27-.21-1.48-.25-2.97-.32-4.46,3.16-.77,1.67-4.45,3.31-6.41,2.39-.31,4.8-.2,7.21-.21.04-.8.13-2.39.17-3.18-1.24-.23-2.47-.46-3.71-.69.03-1.99.06-3.98.11-5.97M126.25,97.38c-.02,1.24-.04,2.49-.06,3.74,1.97.02,3.94,0,5.92.02-.08-1.29-.15-2.57-.22-3.85-1.88.03-3.76.06-5.64.09M119.46,113.19c-.04.69-.12,2.06-.15,2.75,1.07-.06,2.14-.12,3.21-.17,0-.63-.02-1.91-.02-2.55-1.02-.01-2.03-.02-3.04-.03M127.77,112.93c.02.79.06,2.35.08,3.13.66-.09,1.98-.29,2.64-.38.04-.59.1-1.76.14-2.34-.72-.1-2.15-.31-2.86-.41M135.81,113.05c0,.75-.03,2.25-.03,2.99.75-.05,2.25-.16,3.01-.22,0-.66,0-1.97.01-2.62-.75-.04-2.25-.12-2.99-.15Z"/>
    <path class="st18" d="M636.66,97.74c.96-1.96,2.93-1.95,4.83-1.85,3.31,4.06,8.68.6,13,.54,1.52,5.5.49,11.24.7,16.85-3.44.19-6.83.81-10.13,1.76-3.23-1.29-6.6-2.2-10.08-2.3,0-4.8-.41-9.61.11-14.39.39-.16,1.18-.46,1.57-.61M638.49,101.15c.63.2,1.89.61,2.52.81-.09-1.78-.2-3.57-.33-5.35-1.94.72-1.82,2.85-2.19,4.54M646,99.22c-.02,4.66.04,9.32.02,13.98,2.43-.53,4.86-1.04,7.31-1.48.09-4.6.09-9.21.01-13.82-2.46.41-4.9.86-7.34,1.32M636.24,99.26c-.25,3.97-.03,7.95-.07,11.93,2.79.53,5.57,1.18,8.34,1.86.01-4.6.07-9.2.09-13.8-.6-.08-1.8-.25-2.4-.33-.05,2.14-.1,4.29-.16,6.43-.7-.76-1.4-1.52-2.08-2.29-.83.67-1.63,1.34-2.43,2.01-.07-1.96-.12-3.93-.3-5.88-.25.02-.75.05-.99.07Z"/>
    <path class="st18" d="M655.5,114.71c.7-5.55-.54-11.29,1.07-16.71.66,6.14.32,12.33.03,18.48-5.02-.53-10.01,1.45-14.96.15-2.39-.66-5.39.38-7.25-1.66,4.85-.51,9.66.99,14.49.28,2.2-.22,4.4-.38,6.62-.54Z"/>
    <path class="st18" d="M646.52,105.16c1.74-.61,3.49-1.17,5.27-1.72-.85,1.44-.27,2.97.05,4.44-1.67.02-3.32.08-4.96.18,1.07-.59,1.97-1.37,2.7-2.35l-3.06-.55Z"/>
  </g>
  <g id="_x23_489a60ff">
    <path class="st36" d="M625.14,92.22c1.58-2.68,4.72-4.17,7.79-4.05,49.02,0,98.05,0,147.08,0,3.58.08,7.82-.68,10.63,2.16,3.92,3.42,2.6,9.15,2.77,13.74-.08,3.01-.1,6.02-.07,9.03,0,2.18.04,4.36.05,6.54-.01,3.07-.02,6.14,0,9.21-.02,1.73-.02,3.46-.01,5.2,12.2.12,24.41-.5,36.6.09,7.39.39,13.05,7.64,12.32,14.89-.05,34.65-.02,69.3-.02,103.95.1,4.3-.94,9.03-4.52,11.81-3.21,2.83-7.62,3.6-11.77,3.5-86.87-.07-173.74.03-260.6-.1.68,2.52,1.33,5.04,1.96,7.58-6.6-3.49-13-7.34-19.56-10.9-.02-.82-.02-1.63,0-2.44,4.65-2.59,9.22-5.34,13.82-8.03-4.45-2.86-9.09-5.4-13.72-7.95v-2.39c4.55-2.63,9.08-5.31,13.6-8-4.38-2.67-8.99-4.99-13.09-8.08-.14-.1-.41-.29-.55-.39.04-.49.13-1.47.17-1.96,6.56-3.58,12.84-7.66,19.5-11.07-.65,2.61-1.31,5.22-1.97,7.83,37.82-.15,75.64.04,113.46-.06,3.02.36,5.42-2.31,5.1-5.26.12-16.69.03-33.4.04-50.1-16.38-.14-32.76-.06-49.13-.03-2.96,0-6.31-.14-8.49-2.44-2.66-2.38-2.75-6.18-2.76-9.48.08-8.78.09-17.56-.09-26.33-6.53,3.45-12.86,7.26-19.38,10.74.68-2.53,1.41-5.04,2.12-7.55-30.81.52-61.62.06-92.43.22-4.61.15-9.25-.53-13.82.17-2.5.57-3.03,3.52-2.99,5.7,0,22.81,0,45.63,0,68.44-.57-.01-1.71-.04-2.28-.06.07-22.44.07-44.88.02-67.32.1-2.47.03-5.32,1.95-7.19,1.75-2.06,4.66-2,7.13-2.06,34.96.15,69.91-.04,104.87.1-.41,1.78-.81,3.56-1.19,5.34,4.58-2.63,9.12-5.32,13.73-7.9-4.38-2.84-8.94-5.38-13.5-7.92.39,1.84.8,3.67,1.21,5.51-35.36.14-70.73.06-106.09.1-3.7-.12-7.59,1.03-9.99,3.99-2.99,3.24-2.99,7.9-3,12.04.04,21.77-.04,43.55.05,65.32-.55.02-1.65.06-2.2.08-.01-22.82-.01-45.64-.01-68.46-.21-5.24,2.33-10.58,6.89-13.29,2.69-1.81,6.04-1.99,9.19-1.99,34.08.03,68.17-.06,102.26.03-.63-2.54-1.27-5.07-1.85-7.62,6.65,3.29,12.97,7.21,19.41,10.88-.16-8.33.17-16.65.02-24.98.07-2.95-.3-6.17,1.34-8.79M631.45,90.65c-3.57.32-5.6,4.05-5.38,7.35-.04,19.01.03,38.01-.04,57.02.04,2.7-.06,5.83,2.1,7.83,2.07,2.04,5.21,1.62,7.86,1.74,49.38-.12,98.77.01,148.14-.03,3.62.26,7.22-2.78,6.9-6.55.11-20.34,0-40.7.05-61.04.19-3.84-3.31-6.89-7.06-6.44-50.85.13-101.73-.11-152.57.12M794.82,136.12c-.07,1.67-.12,3.33-.17,5,11.48.17,22.96-.48,34.43-.02,3.57.04,6.4,3.46,6.07,6.96.05,35.3.04,70.6,0,105.89.34,3.24-1.77,6.67-5.14,7.06-4.65.48-9.34.11-13.99.22-84.33-.08-168.66.13-252.99-.1.38-1.83.76-3.65,1.15-5.47-4.69,2.53-9.24,5.31-13.88,7.92,4.42,2.9,9.06,5.45,13.71,7.97-.39-1.8-.78-3.6-1.15-5.4,88.7-.19,177.4.04,266.1-.13,5.74-.07,11.15-5.02,10.94-10.92-.03-31.03.4-62.06.07-93.09-.03-5.65.35-11.34-.32-16.97-.82-5-5.55-8.83-10.58-8.82-11.42-.15-22.84.06-34.26-.1M793.39,143.38c.04,1.62.09,3.23.14,4.85,7.7.21,15.41-.21,23.1.26,6.61.64,11.64,6.96,11.42,13.49.09,24.65.03,49.31.06,73.97.4,7.57-6.55,14.33-14.08,13.89-82.83-.05-165.67.16-248.5-.11,1.98,2.79,1.54,6.25.23,9.21,87.42-.11,174.84.01,262.25-.03,2.77.41,5.2-2.07,4.85-4.82.02-35.38.08-70.77.02-106.16.38-2.74-2.16-5.02-4.81-4.7-11.56.13-23.13-.12-34.68.15M794.89,150.87c-.17,1.46-.28,2.92-.34,4.39,6.84.05,13.69-.24,20.53.09,3.88.05,6.37,4.05,5.95,7.67,0,24.32.03,48.65-.03,72.97.3,4.25-3.87,7.43-7.91,6.87-83.37.05-166.75-.04-250.12.02.41-1.89.82-3.79,1.25-5.68-4.6,2.73-9.38,5.17-13.78,8.22,4.6,2.54,9.09,5.27,13.71,7.77-.39-1.82-.8-3.64-1.19-5.46,83.7-.25,167.41-.06,251.1-.11,5.95.31,11.59-4.53,11.7-10.58.24-24.34-.13-48.68.07-73.02.15-4.16-.89-8.81-4.46-11.36-4.12-3.11-9.58-2.05-14.37-2.17-4.03.24-8.16-.47-12.11.38M793.71,157.48c-.47,2.57-.85,5.45-3.05,7.19-3.11,3.09-7.75,2.11-11.67,2.25-28.56.06-57.12-.2-85.66.15.01,16.96-.01,33.91.02,50.87.31,7.21-6.21,13.72-13.38,13.54-37.99,0-75.98.08-113.97-.06,1.43,3,1.21,6.27-.07,9.27,79.68-.13,159.36.02,239.04-.04,3.5-.08,7.04.3,10.52-.24,2.47-.44,3.52-3.07,3.34-5.33.02-24.03.02-48.06,0-72.09.27-2.5-1.11-5.47-3.94-5.48-7.06-.24-14.12-.02-21.18-.03M686.47,167.98c-.11,12.01.01,24.02-.06,36.02-.11,4.99.46,10-.16,14.96-.49,3.43-3.86,5.84-7.25,5.52-38.58.03-77.17-.05-115.75.01.28-1.87.57-3.74.87-5.61-4.6,2.79-9.38,5.26-13.9,8.17,4.54,2.73,9.23,5.2,13.77,7.93-.34-1.9-.67-3.79-.98-5.69,38.99-.21,77.98,0,116.97-.1,6.03.26,11.28-5.28,11.18-11.22.16-16.75.02-33.5-.04-50.24-1.56.08-3.11.16-4.65.25Z"/>
  </g>
  <g id="_x23_d7e9daff">
    <path class="st50" d="M631.45,90.65c50.84-.23,101.72.01,152.57-.12,3.75-.45,7.25,2.6,7.06,6.44-.04,20.34.06,40.7-.05,61.04.32,3.77-3.28,6.81-6.9,6.55-49.37.04-98.76-.09-148.14.03-2.65-.12-5.79.3-7.86-1.74-2.16-2-2.06-5.13-2.1-7.83.07-19.01,0-38.01.04-57.02-.22-3.3,1.81-7.03,5.38-7.35M636.66,97.74c-.39.15-1.18.45-1.57.61-.52,4.78-.11,9.59-.11,14.39,3.48.1,6.85,1.01,10.08,2.3,3.3-.95,6.69-1.57,10.13-1.76-.21-5.61.82-11.35-.7-16.85-4.32.06-9.69,3.52-13-.54-1.9-.1-3.87-.11-4.83,1.85M655.5,114.71c-2.22.16-4.42.32-6.62.54-4.83.71-9.64-.79-14.49-.28,1.86,2.04,4.86,1,7.25,1.66,4.95,1.3,9.94-.68,14.96-.15.29-6.15.63-12.34-.03-18.48-1.61,5.42-.37,11.16-1.07,16.71M654.36,127.21c-1.88.44-1.94,3.09-.13,3.65,2.39.04,2.47-3.46.13-3.65M654.51,139.07c-2.05.53-2.16,3.32-.07,3.88,2.14-.43,2.29-3.46.07-3.88M654.31,151.23c-2.2.35-1.57,3.81.48,3.32,2.13-.29,1.6-3.53-.48-3.32Z"/>
    <path class="st50" d="M112.2,91.24c3.12-1.18,6.57-.56,9.84-.68,46.98-.05,93.96.02,140.94,0,2.22.13,4.95-.09,6.53,1.82,1.73,1.73,1.79,4.3,1.8,6.59-.09,19.67.02,39.35-.06,59.01.32,3.91-3.51,6.88-7.21,6.53-48.68.1-97.36.07-146.05.09-2.55-.08-5.66.09-7.41-2.16-1.97-1.93-1.53-4.88-1.68-7.37-.06-19.01.03-38.02-.03-57.03-.12-2.61.81-5.58,3.33-6.8M124.95,96.08c-.05,1.99-.08,3.98-.11,5.97,1.24.23,2.47.46,3.71.69-.04.79-.13,2.38-.17,3.18-2.41.01-4.82-.1-7.21.21-1.64,1.96-.15,5.64-3.31,6.41.07,1.49.11,2.98.32,4.46,1.76,1,3.86.3,5.76.27,0-1.58,0-3.16-.02-4.74-2.52-.56-2.18-3.07-2.41-5.06,2.27-.02,4.55-.04,6.83-.04.06.96.17,2.88.22,3.84-.65.27-1.95.79-2.6,1.05.35,1.68-.24,3.82,1.04,5.15,1.74.08,3.47-.06,5.2-.14.64-3.75-2.6-6.33-2.32-10,2.01,0,4.02.03,6.04.05.24,1.31.48,2.62.72,3.93-.59.27-1.76.81-2.35,1.08-.02,1.62-.03,3.23-.04,4.85,1.97.09,3.95.16,5.92.22-.37-2.09.79-5.24-1.88-6.11-.32-1.83-.64-3.66-.96-5.49-2.5.02-4.99.06-7.49.09.1-1.19.2-2.39.31-3.58.81-.02,2.43-.06,3.24-.08-.02-2.11-.07-4.22-.13-6.33-2.77-.01-5.54.01-8.31.12M134.57,126.69c-.35.57-1.04,1.7-1.39,2.27-.83,1.08,1.64,2.91,2.5,1.63,1.98-1.27-.14-2.87-1.11-3.9M133.01,140.29c-.51,1.44,1.25,3.51,2.61,2.22,1.47-.8.37-2.5.36-3.72-1.01.46-2,.96-2.97,1.5M133.73,154.31c.99,1.96,2.28-1,3.31-1.57-.56-.52-1.67-1.57-2.23-2.1-.97.95-2.77,2.4-1.08,3.67Z"/>
    <path class="st50" d="M638.49,101.15c.37-1.69.25-3.82,2.19-4.54.13,1.78.24,3.57.33,5.35-.63-.2-1.89-.61-2.52-.81Z"/>
  </g>
  <g id="_x23_d6e8d9ff">
    <path class="st52" d="M126.25,97.38c1.88-.03,3.76-.06,5.64-.09.07,1.28.14,2.56.22,3.85-1.98-.01-3.95,0-5.92-.02.02-1.25.04-2.5.06-3.74Z"/>
  </g>
  <g id="_x23_d3e8d6ff">
    <path class="st74" d="M646,99.22c2.44-.46,4.88-.91,7.34-1.32.08,4.61.08,9.22-.01,13.82-2.45.44-4.88.95-7.31,1.48.02-4.66-.04-9.32-.02-13.98M649.34,101.13c-.82-.06-3.1,1.32-1.37,1.87,1.33.24,2.55-.01,3.66-.77,1.16-1.34-1.58-1.49-2.29-1.1M646.52,105.16l3.06.55c-.73.98-1.63,1.76-2.7,2.35,1.64-.1,3.29-.16,4.96-.18-.32-1.47-.9-3-.05-4.44-1.78.55-3.53,1.11-5.27,1.72Z"/>
    <path class="st74" d="M636.24,99.26c.24-.02.74-.05.99-.07.18,1.95.23,3.92.3,5.88.8-.67,1.6-1.34,2.43-2.01.68.77,1.38,1.53,2.08,2.29.06-2.14.11-4.29.16-6.43.6.08,1.8.25,2.4.33-.02,4.6-.08,9.2-.09,13.8-2.77-.68-5.55-1.33-8.34-1.86.04-3.98-.18-7.96.07-11.93Z"/>
    <path class="st74" d="M119.46,113.19c1.01,0,2.02.02,3.04.03,0,.64.02,1.92.02,2.55-1.07.05-2.14.11-3.21.17.03-.69.11-2.06.15-2.75Z"/>
    <path class="st74" d="M127.77,112.93c.71.1,2.14.31,2.86.41-.04.58-.1,1.75-.14,2.34-.66.09-1.98.29-2.64.38-.02-.78-.06-2.34-.08-3.13Z"/>
  </g>
  <g id="_x23_77ad88ff">
    <path class="st22" d="M649.34,101.13c.71-.39,3.45-.24,2.29,1.1-1.11.76-2.33,1.01-3.66.77-1.73-.55.55-1.93,1.37-1.87Z"/>
  </g>
  <g id="_x23_d67f2fff">
    <path class="st16" d="M28.91,108.97c3.08-3.92,8.32-5.19,13.1-5.04,21.54.51,43.08-.04,64.62-.05.13,3.11.13,6.22.04,9.33-21.54-.06-43.09.06-64.63-.06-2.32.05-5.42-.17-6.55,2.39-1.12,4.03-.53,8.29-.64,12.42,0,90.36.03,180.72-.02,271.07.14,2.18-.07,4.87,1.85,6.38,1.45,1.27,3.5,1.09,5.29,1.2,17.19-.07,34.38-.03,51.57-.03-.53-2.55-1.04-5.1-1.52-7.66,6.67,3.51,13.1,7.43,19.61,11.2-.05-8.71,0-17.41-.05-26.12.03-3.32.09-7.21,2.82-9.57,2.26-2.25,5.62-2.33,8.61-2.32,43,.11,86.01-.04,129.02.07,4.66-.14,8.69,4.21,8.55,8.81.16,6.98-.03,13.97-.02,20.95,6.57-3.98,13.21-7.86,20.06-11.35-.54,2.57-1.11,5.13-1.65,7.7,41.69.02,83.37,0,125.05.02,2.12.06,4.76-.42,5.63-2.64.85-2.46.64-5.12.7-7.68-.14-23.1-.01-46.2-.07-69.29.55-.01,1.65-.02,2.2-.03.07,23.43.06,46.87.15,70.3-.13,3.19.25,6.98-2.26,9.42-1.63,1.73-4.16,1.89-6.38,2-42.49-.12-84.98,0-127.47,0,.31-1.93.62-3.86.94-5.78-4.75,2.75-9.48,5.52-14.25,8.2,4.81,2.74,9.6,5.52,14.45,8.21-.53-1.9-1.06-3.8-1.58-5.69,42.63-.31,85.26-.06,127.89-.13,3.52-.09,7.48-.52,9.98-3.3,2.87-2.84,3.3-7.09,3.27-10.91-.08-24.13-.03-48.25-.03-72.38h2.31c.06,24.8,0,49.59.03,74.39.27,7.75-6.67,14.97-14.55,14.4-41.99-.01-83.98.05-125.97-.05.51,2.54,1.07,5.06,1.63,7.6-6.82-3.52-13.49-7.3-20.05-11.25.01,15.12.08,30.24-.02,45.35-.02,4.88-4.73,8.84-9.53,8.36-43.04,0-86.08,0-129.12,0-3,.12-6.18-.78-8.14-3.16-2.35-2.5-2.22-6.13-2.23-9.32.14-10.9-.04-21.81.07-32.71-6.48,3.66-12.75,7.72-19.49,10.91.43-2.44.9-4.87,1.37-7.3-17.82,0-35.65,0-53.47,0-6.79.21-13.19-5.2-14.2-11.91-.52-3.99-.17-8.02-.24-12.02-.01-90.3.01-180.59-.05-270.89-.11-4.22.43-8.8,3.37-12.07M30.13,111.1c-2.92,4-2.28,9.2-2.34,13.85.06,92.03-.02,184.06.04,276.08-.3,6.68,5.36,12.9,12.15,12.67,18.72.02,37.45.06,56.18-.04-.36,1.89-.72,3.77-1.08,5.67,4.65-2.76,9.36-5.39,13.93-8.28-4.58-2.7-9.21-5.32-13.81-8,.32,1.92.66,3.85.98,5.78-18.39-.08-36.79,0-55.19-.04-3.27.18-6.82-1.6-7.87-4.84-.74-3.28-.35-6.67-.41-10,.06-91.97-.05-183.95.03-275.93-.35-4,3.27-7.45,7.23-7.04,21.71-.17,43.43.08,65.14-.11.01-1.54.01-3.07,0-4.6-21.69.05-43.39,0-65.08.02-3.81-.06-7.79,1.53-9.9,4.81M119.38,374.64c-2.95.44-5.41,3.2-5.25,6.23-.11,22.37-.09,44.74-.05,67.11-.32,3.09,1.75,6.31,4.89,6.86,2.99.46,6.02.27,9.03.29,41.01-.08,82.02.06,123.03-.07,3.57.38,7.18-2.35,7.11-6.08.12-21.98-.02-43.96.07-65.93-.07-2.25.07-4.88-1.74-6.54-1.87-2.12-4.87-2.14-7.45-2.13-38.32.24-76.65-.02-114.97.17-4.89.09-9.81-.5-14.67.09Z"/>
    <path class="st16" d="M126.01,380.14c5.83,0,11.83-.99,17.56.26.55,4.5.44,9.08.22,13.6.22,1.68-1.6,1.69-2.74,1.81-2.19,0-5.01.71-6.49-1.4,2.58-.21,5.17-.26,7.77-.3.1-4.22.2-8.43.33-12.65-4.97-.27-9.95-.21-14.92-.27-.54,1.1-1.09,2.2-1.65,3.3-.03-1.45-.06-2.9-.08-4.35Z"/>
    <path class="st16" d="M130.65,384.31c3.35-.46,7.26-1.58,10.26.57-3.4.46-7.05.96-10.26-.57Z"/>
    <path class="st16" d="M131.93,393.86c1.2-1.21,2.5-2.35,4.12-2.96-1.6,2.68-3.94,5.08-4.11,8.37-3.76.07-7.52.05-11.28-.04.25-1.74-.26-3.95,1.3-5.2,2.83-2.44,6.81-1.12,9.97-.17M121.68,397.84c3.23.11,6.46.11,9.68-.02-.46-5.19-9.2-5.19-9.68.02Z"/>
  </g>
  <g id="_x23_cd4b86ff">
    <path class="st19" d="M793.41,104.07c23.22.09,46.45-.07,69.66.12,7.13.08,12.94,6.75,12.79,13.73.03,91.03.02,182.07.04,273.11-.01,5.27.94,11.06-1.96,15.81-2.57,4.49-7.83,6.8-12.86,6.69-11.08.07-22.16-.04-33.24.06.64,2.53,1.26,5.05,1.88,7.59-6.88-3.3-13.26-7.53-20.01-11.07-.08,9.31.17,18.63,0,27.93.21,4.68-3.92,9.14-8.69,8.83-50.37.09-100.73-.01-151.1.02-4.78.3-9.14-4.1-8.81-8.87.04-11.46-.14-22.93-.03-34.38-6.44,3.76-12.79,7.71-19.49,11,.47-2.44.97-4.87,1.43-7.3-42,.06-84,0-126,.04-4.12.12-8.51-.65-11.6-3.58-3.5-2.82-5.05-7.38-4.87-11.77.11-24.46-.09-48.92.1-73.38.5,0,1.5,0,2-.02.22,23.8.1,47.61.09,71.42-.03,4.08.26,8.72,3.48,11.68,2.49,2.68,6.27,3.39,9.79,3.41,43.29.1,86.6-.18,129.89.14-.48,1.84-.96,3.69-1.43,5.54,4.69-2.69,9.38-5.4,13.94-8.31-4.64-2.61-9.24-5.25-13.79-8,.36,1.99.73,3.99,1.11,5.99-39.25-.31-78.49-.07-117.74-.13-4.96-.07-9.97.45-14.9-.27-3.77-.62-5.95-4.53-5.63-8.13.07-24.44.13-48.88.16-73.33.5,0,1.5.03,2.01.03-.04,23.46,0,46.91-.02,70.36.08,2.21-.05,4.51.72,6.63,1.19,2.47,4.2,2.66,6.61,2.64,42.03-.07,84.07.01,126.1-.04-.54-2.57-1.09-5.14-1.61-7.71,6.73,3.36,13.11,7.37,19.66,11.05.15-7.21-.25-14.43.09-21.63.17-4.92,5.11-8.28,9.78-7.8,49.71-.01,99.41,0,149.12-.01,2.84-.08,5.88.75,7.64,3.14,2.11,2.37,1.98,5.71,2.03,8.68-.08,7.96.01,15.93.02,23.9,6.67-3.68,13.05-7.89,19.97-11.11-.64,2.54-1.29,5.09-1.95,7.63,10.08-.06,20.16-.13,30.24,0,2.18-.09,4.52.15,6.58-.77,1.93-1.14,2.11-3.58,2.18-5.58.02-92.69-.02-185.38.03-278.08-.16-1.84.05-4.02-1.34-5.46-1.38-1.54-3.64-1.26-5.48-1.41-22.22.05-44.44.07-66.66,0-.03-3.01-.01-6.02.07-9.03M795.08,106.25c-.04,1.54-.06,3.08-.08,4.63,22.01.01,44.02.02,66.03-.02,2.33-.01,4.97.56,6.37,2.62,1.66,2.15,1.45,5,1.53,7.56-.21,92.64.09,185.29.01,277.93.5,4.01-3,7.6-6.99,7.44-12.19.17-24.39-.06-36.58.09.38-1.88.78-3.74,1.17-5.62-4.6,2.33-8.99,5.05-13.35,7.8.05.19.13.57.17.76,4.12,2.76,8.55,5.03,12.83,7.55-.29-1.87-.59-3.73-.88-5.59,11.24.13,22.49-.02,33.73.05,4.14.11,8.89-.34,11.68-3.82,3.92-4.21,3.14-10.31,3.19-15.58.06-91.38-.07-182.75-.2-274.13.15-6.24-5.31-11.81-11.58-11.63-22.35-.14-44.7.06-67.05-.04M648.47,374.7c-3.87.59-5.37,4.82-5.06,8.28.08,18.64,0,37.29.24,55.93,0,3.72,3.9,6.05,7.32,5.69,49.69-.05,99.39.02,149.08-.02,3.77.36,7.59-2.58,7.22-6.59.14-17.66-.1-35.34.02-53.01-.19-2.85.5-6.32-1.77-8.52-2.47-2.59-6.33-1.91-9.53-2-36.34.1-72.68,0-109.02.03-12.83.26-25.69-.37-38.5.21Z"/>
    <path class="st19" d="M793.39,119.64c15.19-.02,30.39.08,45.59-.03,4.93-.18,10.58.33,13.92,4.47,4.06,4.27,3.33,10.53,3.37,15.94.02,55.32-.14,110.64-.02,165.96.1,4.31-1.04,8.95-4.55,11.76-5.06,4.51-12.31,2.79-18.46,3.16.58,2.59,1.17,5.19,1.76,7.79-6.72-3.39-13.1-7.37-19.69-10.98,0-.55-.01-1.64-.01-2.19,6.46-4,12.97-7.95,19.82-11.26-.59,2.51-1.2,5.02-1.81,7.53,3.66-.07,7.42.37,11.03-.48,3.09-.94,2.75-4.73,2.87-7.29-.1-52.68,0-105.35-.03-158.02-.15-4.91.55-9.89-.41-14.73-.75-2.43-3.65-2.54-5.74-2.56-15.88.06-31.77-.09-47.64.14-.02-3.07-.01-6.14,0-9.21M795.06,121.9c.04,1.58.09,3.16.14,4.75,15.91-.02,31.83-.06,47.74,0,3.95-.17,6.61,3.7,6.42,7.37.13,57.31-.06,114.64-.01,171.96.19,3.18-1.18,6.84-4.58,7.67-4.6.64-9.28.05-13.91.21.3-1.76.62-3.51.93-5.27-4.8,2.37-9.42,5.09-14.03,7.79,4.38,2.83,9.03,5.22,13.59,7.74-.14-1.73-.28-3.45-.41-5.17,4.91-.17,9.87.36,14.74-.46,5.5-1.34,8.89-7.01,8.45-12.5.06-57.01.01-114.03.05-171.04.04-3.53-.6-7.37-3.3-9.89-2.51-2.68-6.31-3.35-9.81-3.31-15.34-.03-30.67-.05-46.01.15Z"/>
    <path class="st19" d="M650.25,382.17c3.15-.93,6.49-.38,9.72-.41l.02,1.24c-2.84.1-5.68.21-8.5.39,0,4.9-.05,9.81-.05,14.71,5.12.39,10.27.34,15.41.15-.03-3.29-.03-6.58.42-9.84,1.7,3.31,1.71,7.82.25,11.13-5.38.44-10.86.59-16.23.1-.28-.21-.84-.65-1.11-.87-.21-5.52-.48-11.11.07-16.6Z"/>
  </g>
  <g id="_x23_fce2c6ff">
    <path class="st63" d="M30.13,111.1c2.11-3.28,6.09-4.87,9.9-4.81,21.69-.02,43.39.03,65.08-.02.01,1.53.01,3.06,0,4.6-21.71.19-43.43-.06-65.14.11-3.96-.41-7.58,3.04-7.23,7.04-.08,91.98.03,183.96-.03,275.93.06,3.33-.33,6.72.41,10,1.05,3.24,4.6,5.02,7.87,4.84,18.4.04,36.8-.04,55.19.04-.32-1.93-.66-3.86-.98-5.78,4.6,2.68,9.23,5.3,13.81,8-4.57,2.89-9.28,5.52-13.93,8.28.36-1.9.72-3.78,1.08-5.67-18.73.1-37.46.06-56.18.04-6.79.23-12.45-5.99-12.15-12.67-.06-92.02.02-184.05-.04-276.08.06-4.65-.58-9.85,2.34-13.85Z"/>
    <path class="st63" d="M121.68,397.84c.48-5.21,9.22-5.21,9.68-.02-3.22.13-6.45.13-9.68.02Z"/>
  </g>
  <g id="_x23_f9d6e1ff">
    <path class="st77" d="M795.08,106.25c22.35.1,44.7-.1,67.05.04,6.27-.18,11.73,5.39,11.58,11.63.13,91.38.26,182.75.2,274.13-.05,5.27.73,11.37-3.19,15.58-2.79,3.48-7.54,3.93-11.68,3.82-11.24-.07-22.49.08-33.73-.05.29,1.86.59,3.72.88,5.59-4.28-2.52-8.71-4.79-12.83-7.55-.04-.19-.12-.57-.17-.76,4.36-2.75,8.75-5.47,13.35-7.8-.39,1.88-.79,3.74-1.17,5.62,12.19-.15,24.39.08,36.58-.09,3.99.16,7.49-3.43,6.99-7.44.08-92.64-.22-185.29-.01-277.93-.08-2.56.13-5.41-1.53-7.56-1.4-2.06-4.04-2.63-6.37-2.62-22.01.04-44.02.03-66.03.02.02-1.55.04-3.09.08-4.63Z"/>
  </g>
  <g id="_x23_d5ead9ff">
    <path class="st46" d="M135.81,113.05c.74.03,2.24.11,2.99.15-.01.65-.01,1.96-.01,2.62-.76.06-2.26.17-3.01.22,0-.74.02-2.24.03-2.99Z"/>
    <path class="st46" d="M794.82,136.12c11.42.16,22.84-.05,34.26.1,5.03,0,9.76,3.82,10.58,8.82.67,5.63.29,11.32.32,16.97.33,31.03-.1,62.06-.07,93.09.21,5.9-5.2,10.85-10.94,10.92-88.7.17-177.4-.06-266.1.13.37,1.8.76,3.6,1.15,5.4-4.65-2.52-9.29-5.07-13.71-7.97,4.64-2.61,9.19-5.39,13.88-7.92-.39,1.82-.77,3.64-1.15,5.47,84.33.23,168.66.02,252.99.1,4.65-.11,9.34.26,13.99-.22,3.37-.39,5.48-3.82,5.14-7.06.03-35.29.04-70.59,0-105.89.33-3.5-2.5-6.92-6.07-6.96-11.47-.46-22.95.19-34.43.02.05-1.67.1-3.33.17-5Z"/>
  </g>
  <g id="_x23_d4ead8ff">
    <path class="st60" d="M275.79,127.29c4.62-2.79,9.31-5.45,14-8.12-.41,1.91-.81,3.83-1.21,5.75,36.16.18,72.33.02,108.5.08,3.87-.1,8.01,1.15,10.39,4.39,2.56,3.28,2.61,7.63,2.66,11.6-.08,21.78.03,43.57-.12,65.36-1.67-.04-3.34-.05-5.01-.01.4-21.78,0-43.57.2-65.36-.17-3.07.43-6.78-2.02-9.13-1.81-2.01-4.69-1.98-7.17-2.05-35.84.06-71.67.05-107.51,0,.26,1.71.52,3.41.79,5.12-4.5-2.55-9.02-5.06-13.5-7.64Z"/>
  </g>
  <g id="_x23_d5ead8ff">
    <path class="st34" d="M607.91,119.4c4.56,2.54,9.12,5.08,13.5,7.92-4.61,2.58-9.15,5.27-13.73,7.9.38-1.78.78-3.56,1.19-5.34-34.96-.14-69.91.05-104.87-.1-2.47.06-5.38,0-7.13,2.06-1.92,1.87-1.85,4.72-1.95,7.19.05,22.44.05,44.88-.02,67.32-1.61-.03-3.21-.03-4.81,0-.09-21.77-.01-43.55-.05-65.32,0-4.14,0-8.8,3-12.04,2.4-2.96,6.29-4.11,9.99-3.99,35.36-.04,70.73.04,106.09-.1-.41-1.84-.82-3.67-1.21-5.51Z"/>
    <path class="st34" d="M794.89,150.87c3.95-.85,8.08-.14,12.11-.38,4.79.12,10.25-.94,14.37,2.17,3.57,2.55,4.61,7.2,4.46,11.36-.2,24.34.17,48.68-.07,73.02-.11,6.05-5.75,10.89-11.7,10.58-83.69.05-167.4-.14-251.1.11.39,1.82.8,3.64,1.19,5.46-4.62-2.5-9.11-5.23-13.71-7.77,4.4-3.05,9.18-5.49,13.78-8.22-.43,1.89-.84,3.79-1.25,5.68,83.37-.06,166.75.03,250.12-.02,4.04.56,8.21-2.62,7.91-6.87.06-24.32.04-48.65.03-72.97.42-3.62-2.07-7.62-5.95-7.67-6.84-.33-13.69-.04-20.53-.09.06-1.47.17-2.93.34-4.39Z"/>
  </g>
  <g id="_x23_fad7e1ff">
    <path class="st40" d="M795.06,121.9c15.34-.2,30.67-.18,46.01-.15,3.5-.04,7.3.63,9.81,3.31,2.7,2.52,3.34,6.36,3.3,9.89-.04,57.01.01,114.03-.05,171.04.44,5.49-2.95,11.16-8.45,12.5-4.87.82-9.83.29-14.74.46.13,1.72.27,3.44.41,5.17-4.56-2.52-9.21-4.91-13.59-7.74,4.61-2.7,9.23-5.42,14.03-7.79-.31,1.76-.63,3.51-.93,5.27,4.63-.16,9.31.43,13.91-.21,3.4-.83,4.77-4.49,4.58-7.67-.05-57.32.14-114.65.01-171.96.19-3.67-2.47-7.54-6.42-7.37-15.91-.06-31.83-.02-47.74,0-.05-1.59-.1-3.17-.14-4.75Z"/>
  </g>
  <g id="_x23_63645fff">
    <path class="st44" d="M134.57,126.69c.97,1.03,3.09,2.63,1.11,3.9-.86,1.28-3.33-.55-2.5-1.63.35-.57,1.04-1.7,1.39-2.27Z"/>
  </g>
  <g id="_x23_51504dff">
    <path class="st51" d="M654.36,127.21c2.34.19,2.26,3.69-.13,3.65-1.81-.56-1.75-3.21.13-3.65Z"/>
  </g>
  <g id="_x23_d4e9d8ff">
    <path class="st76" d="M51.82,132.7c2.81-2.38,6.7-2.29,10.16-2.34,14.5.02,29,0,43.5.1.06,1.5.12,3,.19,4.5-15.22.36-30.45.07-45.67.15-3.15-.21-6.79,1.41-7.49,4.77-.71,3.33-.37,6.78-.44,10.17.03,51.98,0,103.96,0,155.94,0,2.61.18,5.75,2.52,7.42,2.09,1.7,4.91,1.49,7.43,1.54,5.31-.11,10.63-.11,15.94-.13-.38-1.85-.76-3.7-1.13-5.54,4.77,2.5,9.44,5.21,14.15,7.84-4.67,2.76-9.32,5.55-14.07,8.17.38-1.85.77-3.69,1.15-5.53-6.91-.17-13.84.43-20.73-.22-5.64-.6-10.41-5.68-10.09-11.45-.03-55.04,0-110.09-.01-165.14-.12-3.89,1.43-7.87,4.59-10.25Z"/>
  </g>
  <g id="_x23_5a5a56ff">
    <path class="st25" d="M133.01,140.29c.97-.54,1.96-1.04,2.97-1.5.01,1.22,1.11,2.92-.36,3.72-1.36,1.29-3.12-.78-2.61-2.22Z"/>
  </g>
  <g id="_x23_464542ff">
    <path class="st65" d="M654.51,139.07c2.22.42,2.07,3.45-.07,3.88-2.09-.56-1.98-3.35.07-3.88Z"/>
  </g>
  <g id="_x23_d4e9d7ff">
    <path class="st26" d="M65.63,147.67c2.89-2.43,6.89-2.25,10.44-2.29,9.86.1,19.72-.06,29.58-.04-.05,1.66-.1,3.33-.15,5-10.15-.11-20.3-.05-30.46-.06-2.38.14-5.16-.17-7.05,1.59-1.7,1.53-1.94,3.92-1.91,6.07.14,16.67.12,33.34.03,50.01.11,3.36-.84,7.45,1.91,10.05,2.59,2.53,6.54,1.48,9.79,1.71-.32-1.9-.66-3.79-.98-5.69,4.7,2.79,9.47,5.44,14.16,8.23-4.68,2.59-9.25,5.4-13.98,7.93.34-1.78.68-3.55,1.02-5.32-4.2-.13-8.93.33-12.44-2.49-3.24-2.36-4.37-6.55-4.26-10.38,0-18.33-.01-36.67-.01-55-.08-3.56,1.44-7.15,4.31-9.32Z"/>
  </g>
  <g id="_x23_5b5b58ff">
    <path class="st59" d="M133.73,154.31c-1.69-1.27.11-2.72,1.08-3.67.56.53,1.67,1.58,2.23,2.1-1.03.57-2.32,3.53-3.31,1.57Z"/>
  </g>
  <g id="_x23_312f2dff">
    <path class="st54" d="M654.31,151.23c2.08-.21,2.61,3.03.48,3.32-2.05.49-2.68-2.97-.48-3.32Z"/>
  </g>
  <g id="_x23_d5e8d8ff">
    <path class="st30" d="M686.47,167.98c1.54-.09,3.09-.17,4.65-.25.06,16.74.2,33.49.04,50.24.1,5.94-5.15,11.48-11.18,11.22-38.99.1-77.98-.11-116.97.1.31,1.9.64,3.79.98,5.69-4.54-2.73-9.23-5.2-13.77-7.93,4.52-2.91,9.3-5.38,13.9-8.17-.3,1.87-.59,3.74-.87,5.61,38.58-.06,77.17.02,115.75-.01,3.39.32,6.76-2.09,7.25-5.52.62-4.96.05-9.97.16-14.96.07-12-.05-24.01.06-36.02Z"/>
  </g>
  <g id="_x23_7b4293ff">
    <path class="st53" d="M99.34,183.48c4.45-1.04,9.08-.47,13.61-.58,52.02-.07,104.04.1,156.05-.02,4.83-.49,10.1,2.96,10.21,8.1.36,10.7.26,21.41.1,32.11,18.41.2,36.82-.04,55.23.12-.7-2.68-1.38-5.36-2.06-8.03,6.64,3.56,13.11,7.42,19.68,11.13,0,.59.01,1.78.02,2.37-6.58,3.78-13.09,7.66-19.75,11.28.66-2.54,1.34-5.07,2.04-7.59-18.39-.16-36.79-.05-55.18-.06-.2,7.55.52,15.14-.2,22.66-.49,4.37-4.86,7.22-9.06,6.99-26.34.32-52.69-.21-79.04.14-25-.36-50.01.23-75.01-.16-5.24-.22-10.51.56-15.72-.17-4.11-.68-6.76-4.73-6.72-8.73-.27-9.86-.01-19.73-.08-29.59,0-.74.01-1.47.01-2.21-.01-9.4-.11-18.8,0-28.19-.11-3.96,1.84-8.34,5.87-9.57M101.37,185.47c-3.6.44-5.9,4.07-5.54,7.54.21,20.01.04,40.03.12,60.04-.23,3.74,3.35,6.82,6.99,6.53,53.71.08,107.42-.02,161.13.04,2.62-.01,5.25.14,7.85-.18,2.99-.49,5.18-3.43,5.01-6.42.12-19.69.01-39.38.09-59.07-.05-2.4-.2-5.1-2.15-6.81-2.01-2.22-5.23-1.83-7.91-1.91-55.2.2-110.41-.16-165.59.24M335.8,219.66c.35,1.82.73,3.65,1.1,5.48-19.17.4-38.34.22-57.51.17-.02,1.54-.04,3.08-.05,4.63,19.16.46,38.33.05,57.5.27-.32,1.76-.65,3.52-.95,5.28,4.67-2.66,9.36-5.28,13.93-8.12-4.71-2.5-9.3-5.23-14.02-7.71Z"/>
  </g>
  <g id="_x23_e9dcecff">
    <path class="st21" d="M101.37,185.47c55.18-.4,110.39-.04,165.59-.24,2.68.08,5.9-.31,7.91,1.91,1.95,1.71,2.1,4.41,2.15,6.81-.08,19.69.03,39.38-.09,59.07.17,2.99-2.02,5.93-5.01,6.42-2.6.32-5.23.17-7.85.18-53.71-.06-107.42.04-161.13-.04-3.64.29-7.22-2.79-6.99-6.53-.08-20.01.09-40.03-.12-60.04-.36-3.47,1.94-7.1,5.54-7.54M105.13,195.96c-.27,5.38-.18,10.77-.08,16.15-.17,1.58,1.37,2.69,2.83,2.63,5.02.3,10.07-.02,15.1.13-.49-7.19.61-14.42-.04-21.64-4.95.07-9.91-.23-14.84.09-1.41.04-2.99,1.12-2.97,2.64M113.38,225.2c-1.78.23-2.19,3.3-.1,3.29,2.41.43,2.37-3.21.1-3.29M112.1,236.97c-1.41,2.16,1.9,4.58,2.91,1.98.69-2.31-1.26-2.2-2.91-1.98M113.31,248.15c-1.94.53-1.9,3.34.13,3.69,2.36-.2,2.16-3.5-.13-3.69Z"/>
    <path class="st21" d="M106.84,194.94c1.84-.2,3.69-.2,5.53-.25-.01,2.75-.05,5.51-.03,8.27.73-.53,2.2-1.57,2.94-2.1,1.2.72,2.4,1.44,3.61,2.15-.14-2.75-.26-5.49-.33-8.24.77.06,2.3.17,3.07.23.06,4.6.1,9.19,0,13.79-5.12.07-10.24.09-15.36.14.28-4.65-.45-9.42.57-13.99Z"/>
    <path class="st21" d="M335.8,219.66c4.72,2.48,9.31,5.21,14.02,7.71-4.57,2.84-9.26,5.46-13.93,8.12.3-1.76.63-3.52.95-5.28-19.17-.22-38.34.19-57.5-.27.01-1.55.03-3.09.05-4.63,19.17.05,38.34.23,57.51-.17-.37-1.83-.75-3.66-1.1-5.48Z"/>
    <path class="st21" d="M100.28,280.33c2.84-.7,5.8-.4,8.69-.45,53.67.07,107.34-.02,161,.04,3.08-.22,6.29,1.91,6.79,5.05.73,5.33.05,10.72.16,16.08.21,14.64-.11,29.29.15,43.93-.06,2.48.08,5.39-1.89,7.25-2.64,2.78-6.8,1.84-10.22,1.97-53.97-.12-107.93-.01-161.89-.09-3.99.47-7.59-3.12-7.12-7.1.03-20.03-.08-40.05-.03-60.07-.17-2.85,1.56-5.77,4.36-6.61M112.3,289.7c-.03,2.58-.06,5.17-.07,7.76,1.01-.61,2.01-1.23,3.02-1.84,1.19.63,2.37,1.27,3.56,1.91-.11-2.64-.21-5.28-.3-7.92,1.05-.09,2.09-.18,3.13-.25.13,4.74.16,9.48-.05,14.23-5.09.02-10.17-.02-15.25.06-.46-4.78,1.42-10.25-1.34-14.5.22,5.94-.12,11.88.05,17.82-.05,1.54,1.57,2.49,2.97,2.4,5.21.23,10.44.09,15.66,0-.62-1.27-1.24-2.5-1.87-3.75-.15.58-.44,1.74-.59,2.32-4.74-.14-9.5.25-14.24-.19-.37-.86-.42-1.81-.55-2.72,5.54.08,11.08.07,16.61.12,0-5.74.03-11.47.03-17.2-5.64-.12-11.27.18-16.91.06,1.75,1.41,4.01,1.47,6.14,1.69M112.18,320.03c-2.73,1.4.96,5.13,2.5,2.43-.15-1.49-.59-3.24-2.5-2.43M112.5,331.67c-2.49.45-.99,4.33,1.27,3.29,2.11-.85.56-4.04-1.27-3.29M111.39,346.25c1.06.01,2.12.02,3.18.03-.33-1.08.34-3.8-1.57-3.3-1.85-.44-1.35,2.18-1.61,3.27M137.23,350.26q.52.49,0,0Z"/>
    <path class="st21" d="M637.18,280.22c2.89-.56,5.87-.3,8.8-.33,53.34.05,106.69-.04,160.03.04,3.86-.36,7.14,3.16,6.93,6.95.13,19.03-.1,38.06.08,57.1-.11,2.77.34,6.08-1.87,8.21-1.52,1.79-4.01,1.94-6.17,1.98-55.35,0-110.7-.05-166.03-.04-3.39.15-6.45-2.8-6.34-6.19-.38-20.31-.08-40.63-.17-60.94-.1-3,1.78-5.97,4.74-6.78M642.21,289.96c-.31,4.68-.12,9.39-.11,14.09.01,1.51.08,3.86,2.03,4.13,5.39.65,10.85.14,16.27.25-.1-.88-.3-2.63-.4-3.5-.95.65-1.57,2.04-2.88,1.93-4.29.15-8.61.24-12.88-.18-.19-.67-.58-2.02-.78-2.7,5.58-.13,11.17-.09,16.75-.04.22-5.73.23-11.47.09-17.2-5.1.19-10.21-.12-15.3.27-1.56-.02-2.76,1.47-2.79,2.95M649.46,317.93c-1.99.78-2,3.37.03,4.12,2.26-.68,2.23-3.46-.03-4.12M648.37,330.34c-2.2,2.02,2.79,4.33,2.65,1.58,1.04-1.97-1.56-3-2.65-1.58M649.38,340.89c-1.88.83-1.95,3.42.14,4.03,2.22-.39,2.12-3.78-.14-4.03Z"/>
    <path class="st21" d="M643.7,288.72c1.8-.2,3.6-.38,5.41-.54.11,2.88.18,5.77.31,8.66,1.09-.86,2.2-1.73,3.3-2.59,1.02.9,2.07,1.8,3.11,2.7.07-2.91.14-5.81.26-8.71.69,0,2.06.01,2.75.01.07,4.7.07,9.39.1,14.09-5.14.09-10.28.03-15.41.13.03-4.59.04-9.17.17-13.75Z"/>
    <path class="st21" d="M550.17,297.46c4.64-2.84,9.38-5.5,14.11-8.19-.4,1.88-.79,3.76-1.18,5.64,22.32-.02,44.65-.06,66.98.03-.06,1.56-.12,3.13-.17,4.7-22.29-.04-44.59-.15-66.88.07.39,1.83.78,3.67,1.18,5.51-4.7-2.56-9.32-5.24-14.04-7.76Z"/>
  </g>
  <g id="_x23_7b4392ff">
    <path class="st42" d="M105.13,195.96c-.02-1.52,1.56-2.6,2.97-2.64,4.93-.32,9.89-.02,14.84-.09.65,7.22-.45,14.45.04,21.64-5.03-.15-10.08.17-15.1-.13-1.46.06-3-1.05-2.83-2.63-.1-5.38-.19-10.77.08-16.15M106.84,194.94c-1.02,4.57-.29,9.34-.57,13.99,5.12-.05,10.24-.07,15.36-.14.1-4.6.06-9.19,0-13.79-.77-.06-2.3-.17-3.07-.23.07,2.75.19,5.49.33,8.24-1.21-.71-2.41-1.43-3.61-2.15-.74.53-2.21,1.57-2.94,2.1-.02-2.76.02-5.52.03-8.27-1.84.05-3.69.05-5.53.25M113.75,194.79c-.11,1.59-.22,3.17-.33,4.76.97-.07,2.92-.22,3.89-.3-.05-1.44-.1-2.88-.15-4.32-.85-.04-2.56-.1-3.41-.14M106.07,210.67c.22.62.67,1.88.89,2.51,4.81.07,9.63.08,14.44.05.08-.72.24-2.18.32-2.91-5.21.17-10.45-.33-15.65.35Z"/>
    <path class="st42" d="M93.51,287.04c-.04-3.99,2.36-8.29,6.49-9.12,4.27-.73,8.63-.28,12.94-.36,50.7-.04,101.4.04,152.1-.05,3.99.09,8.81-.67,11.79,2.67,3.67,3.98,2.19,9.87,2.45,14.77,18.39.27,36.77.12,55.16.19-.72-2.66-1.44-5.33-2.14-8,6.71,3.65,13.36,7.41,19.97,11.25v.92c0,.31-.03.95-.04,1.26-6.58,3.8-13.06,7.78-19.81,11.27.58-2.54,1.19-5.07,1.81-7.6-18.31.13-36.62.02-54.92.05,0,13.56-.05,27.11.04,40.67-.05,2.85,0,6.05-1.96,8.35-1.72,2.24-4.55,3.3-7.32,3.23-55.71,0-111.43-.06-167.14.05-3,.09-6.08-1.18-7.81-3.69-1.85-2.59-1.64-5.93-1.72-8.94.09-8.51.03-17.02.02-25.52.01-.77.01-1.52.01-2.28.12-9.71-.17-19.42.08-29.12M100.28,280.33c-2.8.84-4.53,3.76-4.36,6.61-.05,20.02.06,40.04.03,60.07-.47,3.98,3.13,7.57,7.12,7.1,53.96.08,107.92-.03,161.89.09,3.42-.13,7.58.81,10.22-1.97,1.97-1.86,1.83-4.77,1.89-7.25-.26-14.64.06-29.29-.15-43.93-.11-5.36.57-10.75-.16-16.08-.5-3.14-3.71-5.27-6.79-5.05-53.66-.06-107.33.03-161-.04-2.89.05-5.85-.25-8.69.45M335.77,291.65c.35,1.82.7,3.65,1.04,5.48-19.16.3-38.33.02-57.5.14-.01,1.58-.02,3.16-.03,4.74,19.16.15,38.33.1,57.49.03-.3,1.84-.62,3.68-.92,5.53,4.63-2.69,9.26-5.4,13.87-8.14-4.66-2.58-9.24-5.29-13.95-7.78Z"/>
    <path class="st42" d="M632.82,279.9c2.94-2.98,7.43-2.28,11.22-2.38,53.65.07,107.31.04,160.96.01,2.79-.02,5.86.48,7.83,2.67,2.38,2.26,2.51,5.74,2.51,8.8-.04,8.84-.06,17.68-.04,26.52,0,.55.01,1.64.01,2.19-.08,10.1.15,20.2-.06,30.3.03,4.8-4.48,8.85-9.22,8.55-55.02.01-110.06-.05-165.08.02-5.62.88-11.42-3.65-10.87-9.54.07-15.02.08-30.05.09-45.07-21.51-.11-43.03.06-64.54-.1.67,2.52,1.31,5.04,1.95,7.58-6.76-3.35-13.23-7.23-19.79-10.94-.02-.73-.03-1.46-.02-2.19,6.58-3.85,13.05-7.91,19.9-11.28-.61,2.54-1.24,5.08-1.86,7.62,21.41-.1,42.81.08,64.22.01.26-4.29-.72-9.51,2.79-12.77M637.18,280.22c-2.96.81-4.84,3.78-4.74,6.78.09,20.31-.21,40.63.17,60.94-.11,3.39,2.95,6.34,6.34,6.19,55.33-.01,110.68.04,166.03.04,2.16-.04,4.65-.19,6.17-1.98,2.21-2.13,1.76-5.44,1.87-8.21-.18-19.04.05-38.07-.08-57.1.21-3.79-3.07-7.31-6.93-6.95-53.34-.08-106.69.01-160.03-.04-2.93.03-5.91-.23-8.8.33M550.17,297.46c4.72,2.52,9.34,5.2,14.04,7.76-.4-1.84-.79-3.68-1.18-5.51,22.29-.22,44.59-.11,66.88-.07.05-1.57.11-3.14.17-4.7-22.33-.09-44.66-.05-66.98-.03.39-1.88.78-3.76,1.18-5.64-4.73,2.69-9.47,5.35-14.11,8.19Z"/>
    <path class="st42" d="M642.21,289.96c.03-1.48,1.23-2.97,2.79-2.95,5.09-.39,10.2-.08,15.3-.27.14,5.73.13,11.47-.09,17.2-5.58-.05-11.17-.09-16.75.04.2.68.59,2.03.78,2.7,4.27.42,8.59.33,12.88.18,1.31.11,1.93-1.28,2.88-1.93.1.87.3,2.62.4,3.5-5.42-.11-10.88.4-16.27-.25-1.95-.27-2.02-2.62-2.03-4.13,0-4.7-.2-9.41.11-14.09M643.7,288.72c-.13,4.58-.14,9.16-.17,13.75,5.13-.1,10.27-.04,15.41-.13-.03-4.7-.03-9.39-.1-14.09-.69,0-2.06-.01-2.75-.01-.12,2.9-.19,5.8-.26,8.71-1.04-.9-2.09-1.8-3.11-2.7-1.1.86-2.21,1.73-3.3,2.59-.13-2.89-.2-5.78-.31-8.66-1.81.16-3.61.34-5.41.54M651.02,288.02c-.14,1.67-.25,3.35-.35,5.04,1.28-.16,2.57-.32,3.86-.49-.08-1.24-.18-2.48-.3-3.7-1.07-.34-2.13-.63-3.21-.85Z"/>
    <path class="st42" d="M112.3,289.7c-2.13-.22-4.39-.28-6.14-1.69,5.64.12,11.27-.18,16.91-.06,0,5.73-.03,11.46-.03,17.2-5.53-.05-11.07-.04-16.61-.12.13.91.18,1.86.55,2.72,4.74.44,9.5.05,14.24.19.15-.58.44-1.74.59-2.32.63,1.25,1.25,2.48,1.87,3.75-5.22.09-10.45.23-15.66,0-1.4.09-3.02-.86-2.97-2.4-.17-5.94.17-11.88-.05-17.82,2.76,4.25.88,9.72,1.34,14.5,5.08-.08,10.16-.04,15.25-.06.21-4.75.18-9.49.05-14.23-1.04.07-2.08.16-3.13.25.09,2.64.19,5.28.3,7.92-1.19-.64-2.37-1.28-3.56-1.91-1.01.61-2.01,1.23-3.02,1.84,0-2.59.04-5.18.07-7.76M113.56,289.55c0,1.59-.02,3.18-.04,4.78,1.26-.29,2.55-.41,3.84-.29-.14-1.58-.27-3.15-.41-4.71-1.13.07-2.27.14-3.39.22Z"/>
  </g>
  <g id="_x23_ece0eeff">
    <path class="st33" d="M113.75,194.79c.85.04,2.56.1,3.41.14.05,1.44.1,2.88.15,4.32-.97.08-2.92.23-3.89.3.11-1.59.22-3.17.33-4.76Z"/>
  </g>
  <g id="_x23_66a7dfff">
    <path class="st27" d="M402.9,206.44c.53-.03,1.58-.07,2.1-.1,1.67-.04,3.34-.03,5.01.01.55.02,1.65.06,2.2.08,25.22.19,50.46.13,75.68.01.55-.02,1.65-.06,2.2-.08,1.6-.04,3.2-.04,4.81,0,.57.02,1.71.05,2.28.06,12.93.26,25.87.04,38.81.11,4.49-.19,9.36,2.11,10.9,6.55,1.21,4.05,1.17,8.37,1.13,12.56-.04.49-.13,1.47-.17,1.96.14.1.41.29.55.39-.76,5.33-.59,10.71-.51,16.08v2.39c-.02,5.33-.03,10.65-.1,15.98-.02.81-.02,1.62,0,2.44.15,10.48.05,20.97-.02,31.45-.01.73,0,1.46.02,2.19-.2,5.51,1.17,11.98-2.69,16.57-2.65,3.26-7.11,3.79-11.04,3.71-14.81-.2-29.62.11-44.43-.12-.51,0-1.51-.02-2.01-.03-1.66-.02-3.32-.02-4.97-.01-.5.01-1.5.01-2,.02-20.38.11-40.77.15-61.15-.03h-2.31c-1.57.01-3.14.03-4.71.05-.55,0-1.65.02-2.2.03-14.77.14-29.54-.06-44.31.06-3.9.04-8.37-.44-10.97-3.74-3.64-3.88-2.88-9.58-2.77-14.45,0-.31.03-.95.04-1.26v-.92c-.15-23.24.03-46.48-.09-69.71,0-.59-.02-1.78-.02-2.37.24-5.45-1.13-11.91,2.94-16.31,2.17-2.63,5.63-3.57,8.92-3.48,12.96-.05,25.92.1,38.88-.08M360.27,211.28c-2.94,1.32-4.3,4.62-4.04,7.71.04,29,0,58,.02,87.01-.07,2.79.55,6.07,3.19,7.57,3.26,1.71,7.08,1.05,10.62,1.19,54.97-.11,109.95.02,164.93-.06,4.07.36,8.8-2.15,8.72-6.71.12-28-.02-56.01.06-84.02-.04-2.76.22-5.56-.34-8.28-.82-3.25-4.16-5.35-7.44-4.99-56.34-.07-112.69,0-169.03-.02-2.23.07-4.56-.15-6.69.6Z"/>
  </g>
  <g id="_x23_e6d4ebff">
    <path class="st70" d="M106.07,210.67c5.2-.68,10.44-.18,15.65-.35-.08.73-.24,2.19-.32,2.91-4.81.03-9.63.02-14.44-.05-.22-.63-.67-1.89-.89-2.51Z"/>
  </g>
  <g id="_x23_deecf6ff">
    <path class="st57" d="M360.27,211.28c2.13-.75,4.46-.53,6.69-.6,56.34.02,112.69-.05,169.03.02,3.28-.36,6.62,1.74,7.44,4.99.56,2.72.3,5.52.34,8.28-.08,28.01.06,56.02-.06,84.02.08,4.56-4.65,7.07-8.72,6.71-54.98.08-109.96-.05-164.93.06-3.54-.14-7.36.52-10.62-1.19-2.64-1.5-3.26-4.78-3.19-7.57-.01-29.01.02-58.01-.02-87.01-.26-3.09,1.1-6.39,4.04-7.71M442.37,216.56c-2.59.28-3.78,3.09-3.45,5.43.24,6.66-.46,13.38.34,20.01,1.85,4.14,7.15,2.34,10.69,2.75,3.56-.46,9.08,1.48,10.86-2.79.51-5.62.31-11.31.16-16.94-2.18-3.1-4.9-5.85-7.74-8.35-3.58-.56-7.27-.39-10.86-.11Z"/>
    <path class="st57" d="M440.85,226.02c.24-2.37-.6-5.32,1.17-7.22,3.03-.47,6.1-.3,9.15-.35.32,2.46-.75,5.49,1.04,7.55,2.18.77,4.57.4,6.84.49-.06,5.12.49,10.29-.25,15.37-2.81,1.91-6.58.59-9.77.95-2.52-.35-5.71.85-7.75-1.03-.93-5.17-.14-10.52-.43-15.76Z"/>
    <path class="st57" d="M453.06,219.69c1.68,1.57,3.32,3.17,4.94,4.8-1.62-.12-3.23-.24-4.83-.38-.05-1.48-.08-2.95-.11-4.42Z"/>
  </g>
  <g id="_x23_205d8dff">
    <path class="st29" d="M442.37,216.56c3.59-.28,7.28-.45,10.86.11,2.84,2.5,5.56,5.25,7.74,8.35.15,5.63.35,11.32-.16,16.94-1.78,4.27-7.3,2.33-10.86,2.79-3.54-.41-8.84,1.39-10.69-2.75-.8-6.63-.1-13.35-.34-20.01-.33-2.34.86-5.15,3.45-5.43M440.85,226.02c.29,5.24-.5,10.59.43,15.76,2.04,1.88,5.23.68,7.75,1.03,3.19-.36,6.96.96,9.77-.95.74-5.08.19-10.25.25-15.37-2.27-.09-4.66.28-6.84-.49-1.79-2.06-.72-5.09-1.04-7.55-3.05.05-6.12-.12-9.15.35-1.77,1.9-.93,4.85-1.17,7.22M453.06,219.69c.03,1.47.06,2.94.11,4.42,1.6.14,3.21.26,4.83.38-1.62-1.63-3.26-3.23-4.94-4.8Z"/>
  </g>
  <g id="_x23_393635ff">
    <path class="st0" d="M113.38,225.2c2.27.08,2.31,3.72-.1,3.29-2.09,0-1.68-3.06.1-3.29Z"/>
  </g>
  <g id="_x23_363432ff">
    <path class="st37" d="M112.1,236.97c1.65-.22,3.6-.33,2.91,1.98-1.01,2.6-4.32.18-2.91-1.98Z"/>
  </g>
  <g id="_x23_3c3a39ff">
    <path class="st67" d="M113.31,248.15c2.29.19,2.49,3.49.13,3.69-2.03-.35-2.07-3.16-.13-3.69Z"/>
  </g>
  <g id="_x23_e8dbecff">
    <path class="st35" d="M651.02,288.02c1.08.22,2.14.51,3.21.85.12,1.22.22,2.46.3,3.7-1.29.17-2.58.33-3.86.49.1-1.69.21-3.37.35-5.04Z"/>
    <path class="st35" d="M335.77,291.65c4.71,2.49,9.29,5.2,13.95,7.78-4.61,2.74-9.24,5.45-13.87,8.14.3-1.85.62-3.69.92-5.53-19.16.07-38.33.12-57.49-.03.01-1.58.02-3.16.03-4.74,19.17-.12,38.34.16,57.5-.14-.34-1.83-.69-3.66-1.04-5.48Z"/>
  </g>
  <g id="_x23_ebdfedff">
    <path class="st56" d="M113.56,289.55c1.12-.08,2.26-.15,3.39-.22.14,1.56.27,3.13.41,4.71-1.29-.12-2.58,0-3.84.29.02-1.6.03-3.19.04-4.78Z"/>
  </g>
  <g id="_x23_514e4cff">
    <path class="st20" d="M649.46,317.93c2.26.66,2.29,3.44.03,4.12-2.03-.75-2.02-3.34-.03-4.12Z"/>
  </g>
  <g id="_x23_fde4cbff">
    <path class="st72" d="M412.48,318.67c1.57-.02,3.14-.04,4.71-.05,0,24.13-.05,48.25.03,72.38.03,3.82-.4,8.07-3.27,10.91-2.5,2.78-6.46,3.21-9.98,3.3-42.63.07-85.26-.18-127.89.13.52,1.89,1.05,3.79,1.58,5.69-4.85-2.69-9.64-5.47-14.45-8.21,4.77-2.68,9.5-5.45,14.25-8.2-.32,1.92-.63,3.85-.94,5.78,42.49,0,84.98-.13,127.47,0,2.22-.11,4.75-.27,6.38-2,2.51-2.44,2.13-6.23,2.26-9.42-.09-23.43-.08-46.87-.15-70.3Z"/>
  </g>
  <g id="_x23_f8d7dfff">
    <path class="st38" d="M482.65,318.63c1.65-.01,3.31-.01,4.97.01-.03,24.45-.09,48.89-.16,73.33-.32,3.6,1.86,7.51,5.63,8.13,4.93.72,9.94.2,14.9.27,39.25.06,78.49-.18,117.74.13-.38-2-.75-4-1.11-5.99,4.55,2.75,9.15,5.39,13.79,8-4.56,2.91-9.25,5.62-13.94,8.31.47-1.85.95-3.7,1.43-5.54-43.29-.32-86.6-.04-129.89-.14-3.52-.02-7.3-.73-9.79-3.41-3.22-2.96-3.51-7.6-3.48-11.68.01-23.81.13-47.62-.09-71.42Z"/>
  </g>
  <g id="_x23_565252ff">
    <path class="st31" d="M112.18,320.03c1.91-.81,2.35.94,2.5,2.43-1.54,2.7-5.23-1.03-2.5-2.43Z"/>
  </g>
  <g id="_x23_343231ff">
    <path class="st73" d="M648.37,330.34c1.09-1.42,3.69-.39,2.65,1.58.14,2.75-4.85.44-2.65-1.58Z"/>
  </g>
  <g id="_x23_686364ff">
    <path class="st24" d="M112.5,331.67c1.83-.75,3.38,2.44,1.27,3.29-2.26,1.04-3.76-2.84-1.27-3.29Z"/>
  </g>
  <g id="_x23_4f4c4bff">
    <path class="st58" d="M649.38,340.89c2.26.25,2.36,3.64.14,4.03-2.09-.61-2.02-3.2-.14-4.03Z"/>
  </g>
  <g id="_x23_6b6667ff">
    <path class="st68" d="M111.39,346.25c.26-1.09-.24-3.71,1.61-3.27,1.91-.5,1.24,2.22,1.57,3.3-1.06-.01-2.12-.02-3.18-.03Z"/>
  </g>
  <g id="_x23_b6afb2ff">
    <path class="st41" d="M137.23,350.26q.52.49,0,0Z"/>
  </g>
  <g id="_x23_fde5cdff">
    <path class="st43" d="M119.38,374.64c4.86-.59,9.78,0,14.67-.09,38.32-.19,76.65.07,114.97-.17,2.58-.01,5.58.01,7.45,2.13,1.81,1.66,1.67,4.29,1.74,6.54-.09,21.97.05,43.95-.07,65.93.07,3.73-3.54,6.46-7.11,6.08-41.01.13-82.02-.01-123.03.07-3.01-.02-6.04.17-9.03-.29-3.14-.55-5.21-3.77-4.89-6.86-.04-22.37-.06-44.74.05-67.11-.16-3.03,2.3-5.79,5.25-6.23M126.01,380.14c.02,1.45.05,2.9.08,4.35.56-1.1,1.11-2.2,1.65-3.3,4.97.06,9.95,0,14.92.27-.13,4.22-.23,8.43-.33,12.65-2.6.04-5.19.09-7.77.3,1.48,2.11,4.3,1.4,6.49,1.4,1.14-.12,2.96-.13,2.74-1.81.22-4.52.33-9.1-.22-13.6-5.73-1.25-11.73-.25-17.56-.26M130.65,384.31c3.21,1.53,6.86,1.03,10.26.57-3-2.15-6.91-1.03-10.26-.57M125.27,385.24c-2.41,1.03-3.19,4.79-.66,6.17,1.75,1.62,4.19.14,5.34-1.45,1.08-2.74-1.87-6.11-4.68-4.72M132.39,387.2c.34,1.47,3.1,1.13,4.13.41-.37-1.47-3.11-1.19-4.13-.41M131.93,393.86c-3.16-.95-7.14-2.27-9.97.17-1.56,1.25-1.05,3.46-1.3,5.2,3.76.09,7.52.11,11.28.04.17-3.29,2.51-5.69,4.11-8.37-1.62.61-2.92,1.75-4.12,2.96M132.36,407.44c-.97.5-1.71,1.89-.7,2.79.67,1.83,2.78.31,3.41-.71-.39-1.1-1.35-2.54-2.71-2.08M132.1,419c-2.32,1.45.78,4.76,2.27,2.47,1.63-1.25-.85-3.13-2.27-2.47M132.42,430.55c-1.55.53-1.55,2.49-.17,3.26,1.48,1.01,2.28-.83,2.83-1.87-.68-.66-1.56-2.36-2.66-1.39M131.63,442.76c-1.01.9.34,2.51,1.37,2.58.87-.59,1.71-1.21,2.52-1.87-.94-.59-3.24-2.79-3.89-.71Z"/>
  </g>
  <g id="_x23_f9dae0ff">
    <path class="st39" d="M648.47,374.7c12.81-.58,25.67.05,38.5-.21,36.34-.03,72.68.07,109.02-.03,3.2.09,7.06-.59,9.53,2,2.27,2.2,1.58,5.67,1.77,8.52-.12,17.67.12,35.35-.02,53.01.37,4.01-3.45,6.95-7.22,6.59-49.69.04-99.39-.03-149.08.02-3.42.36-7.31-1.97-7.32-5.69-.24-18.64-.16-37.29-.24-55.93-.31-3.46,1.19-7.69,5.06-8.28M667.3,379.36c-3.54,2.69-6.45,6.11-9.64,9.2-2.05,1.83-2.75,4.53-3.33,7.1,5.05.22,7.82-4.15,11.02-7.25,1.75-1.83,3.64-3.54,5.15-5.59.33-1.81-1.55-3.3-3.2-3.46M650.25,382.17c-.55,5.49-.28,11.08-.07,16.6.27.22.83.66,1.11.87,5.37.49,10.85.34,16.23-.1,1.46-3.31,1.45-7.82-.25-11.13-.45,3.26-.45,6.55-.42,9.84-5.14.19-10.29.24-15.41-.15,0-4.9.05-9.81.05-14.71,2.82-.18,5.66-.29,8.5-.39l-.02-1.24c-3.23.03-6.57-.52-9.72.41M673.4,409.78c.94,1.85,3.57,3.53,4.56.69-.49-2.58-3.04-1.93-4.56-.69M675.25,420c-3.21,1.19.7,5.38,2.13,2.6,1.37-1.23-.72-3.11-2.13-2.6M675.45,431.52c-2.54.81-.92,4.36,1.37,3.47,1.98-.91.36-4.2-1.37-3.47Z"/>
  </g>
  <g id="_x23_cb6290ff">
    <path class="st23" d="M667.3,379.36c1.65.16,3.53,1.65,3.2,3.46-1.51,2.05-3.4,3.76-5.15,5.59-3.2,3.1-5.97,7.47-11.02,7.25.58-2.57,1.28-5.27,3.33-7.1,3.19-3.09,6.1-6.51,9.64-9.2M667.1,381.4c-.46,1.38.02,1.88,1.44,1.49.44-1.39-.05-1.89-1.44-1.49M665.17,383.5c-3.01,2.25-5.31,5.29-7.99,7.9.44.53.9,1.08,1.36,1.63,2.79-2.94,5.69-5.76,8.53-8.64-.63-.32-1.27-.62-1.9-.89Z"/>
  </g>
  <g id="_x23_f9d3e0ff">
    <path class="st32" d="M667.1,381.4c1.39-.4,1.88.1,1.44,1.49-1.42.39-1.9-.11-1.44-1.49Z"/>
  </g>
  <g id="_x23_f2c5d6ff">
    <path class="st28" d="M665.17,383.5c.63.27,1.27.57,1.9.89-2.84,2.88-5.74,5.7-8.53,8.64-.46-.55-.92-1.1-1.36-1.63,2.68-2.61,4.98-5.65,7.99-7.9Z"/>
  </g>
  <g id="_x23_da924fff">
    <path class="st61" d="M125.27,385.24c2.81-1.39,5.76,1.98,4.68,4.72-1.15,1.59-3.59,3.07-5.34,1.45-2.53-1.38-1.75-5.14.66-6.17M124.98,386.99c-.5,1.58-.14,2.6,1.07,3.06,2.39.86,2.47-1.34,1.93-3.03-.75,0-2.25-.02-3-.03Z"/>
  </g>
  <g id="_x23_fae1c6ff">
    <path class="st62" d="M124.98,386.99c.75.01,2.25.02,3,.03.54,1.69.46,3.89-1.93,3.03-1.21-.46-1.57-1.48-1.07-3.06Z"/>
  </g>
  <g id="_x23_d88537ff">
    <path class="st71" d="M132.39,387.2c1.02-.78,3.76-1.06,4.13.41-1.03.72-3.79,1.06-4.13-.41Z"/>
  </g>
  <g id="_x23_635e56ff">
    <path class="st48" d="M132.36,407.44c1.36-.46,2.32.98,2.71,2.08-.63,1.02-2.74,2.54-3.41.71-1.01-.9-.27-2.29.7-2.79Z"/>
  </g>
  <g id="_x23_5e5858ff">
    <path class="st45" d="M673.4,409.78c1.52-1.24,4.07-1.89,4.56.69-.99,2.84-3.62,1.16-4.56-.69Z"/>
  </g>
  <g id="_x23_534f49ff">
    <path class="st69" d="M132.1,419c1.42-.66,3.9,1.22,2.27,2.47-1.49,2.29-4.59-1.02-2.27-2.47Z"/>
  </g>
  <g id="_x23_665f5fff">
    <path class="st17" d="M675.25,420c1.41-.51,3.5,1.37,2.13,2.6-1.43,2.78-5.34-1.41-2.13-2.6Z"/>
  </g>
  <g id="_x23_f7ce18ff">
    <path class="st47" d="M290.19,422.14c1.25-.24,2.52-.36,3.81-.36,104.67.02,209.34.02,314.02,0,3.67.1,7.59-.48,11.04,1.12,2.95,1.47,4.57,4.83,4.45,8.06.02,13.68.02,27.37-.01,41.05.24,4.59-3.81,8.72-8.41,8.48-105.37.07-210.74,0-316.11.04-2.86-.03-5.72.14-8.56-.15-3.94-.53-7.01-4.44-6.7-8.4.09-13.65.04-27.31.04-40.96-.35-4,2.36-8.19,6.43-8.88M288.48,425.68c-2.2,1.73-2.01,4.83-2.05,7.34.12,13.02-.04,26.05.07,39.06-.24,3.01,2.36,5.91,5.46,5.56,107.01.02,214.02,0,321.03,0,2.29-.16,5.26.27,6.71-1.99,1.91-2.83,1.57-6.45,1.63-9.69-.27-10.67-.02-21.34-.19-32-.2-3.31-.47-7.89-4.24-9.09-2.9-.69-5.91-.35-8.85-.4-104.69.02-209.38.02-314.07,0-1.88.05-3.88.11-5.5,1.19Z"/>
  </g>
  <g id="_x23_fef0c2ff">
    <path class="st66" d="M288.48,425.68c1.62-1.08,3.62-1.14,5.5-1.19,104.69.01,209.38.01,314.07,0,2.94.05,5.95-.29,8.85.4,3.77,1.2,4.04,5.78,4.24,9.09.17,10.66-.08,21.33.19,32-.06,3.24.28,6.86-1.63,9.69-1.45,2.26-4.42,1.83-6.71,1.99-107.01,0-214.02.01-321.03,0-3.1.35-5.7-2.55-5.46-5.56-.11-13.01.05-26.04-.07-39.06.04-2.51-.15-5.61,2.05-7.34Z"/>
  </g>
  <g id="_x23_635d54ff">
    <path class="st49" d="M132.42,430.55c1.1-.97,1.98.73,2.66,1.39-.55,1.04-1.35,2.88-2.83,1.87-1.38-.77-1.38-2.73.17-3.26Z"/>
  </g>
  <g id="_x23_635c5cff">
    <path class="st55" d="M675.45,431.52c1.73-.73,3.35,2.56,1.37,3.47-2.29.89-3.91-2.66-1.37-3.47Z"/>
  </g>
  <g id="_x23_54504aff">
    <path class="st75" d="M131.63,442.76c.65-2.08,2.95.12,3.89.71-.81.66-1.65,1.28-2.52,1.87-1.03-.07-2.38-1.68-1.37-2.58Z"/>
  </g>
  <g id="fig10_text_fill">
    <text class="st15" transform="translate(242.62 44)"><tspan x="0" y="0">Curriculum Packaging Asset Graph</tspan></text>
    <text class="st6" transform="translate(271.22 72)"><tspan x="0" y="0">From Verified Data to Structured Educational Assets</tspan></text>
    <text class="st11" transform="translate(146 112)"><tspan x="0" y="0">curriculum_map.json</tspan></text>
    <text class="st14" transform="translate(142 133)"><tspan x="0" y="0">Chapter dependencies</tspan></text>
    <text class="st14" transform="translate(142 145)"><tspan x="0" y="0">Difficulty progression</tspan></text>
    <text class="st14" transform="translate(142 157)"><tspan x="0" y="0">Topic distribution</tspan></text>
    <text class="st4" transform="translate(130 200)"><tspan x="0" y="0">foundations_of_</tspan></text>
    <text class="st4" transform="translate(130 214)"><tspan x="0" y="0">quantitative_reasoning.md</tspan></text>
    <text class="st9" transform="translate(130 232)"><tspan x="0" y="0">Chapter-based organization</tspan></text>
    <text class="st9" transform="translate(130 244)"><tspan x="0" y="0">Math vs code separation</tspan></text>
    <text class="st9" transform="translate(130 256)"><tspan x="0" y="0">Progressive difficulty</tspan></text>
    <text class="st4" transform="translate(130 296)"><tspan x="0" y="0">python_problem_solving_</tspan></text>
    <text class="st4" transform="translate(130 310)"><tspan x="0" y="0">workbook.md</tspan></text>
    <text class="st9" transform="translate(130 327)"><tspan x="0" y="0">Chapter-based organization</tspan></text>
    <text class="st9" transform="translate(130 339)"><tspan x="0" y="0">Math vs code separation</tspan></text>
    <text class="st9" transform="translate(130 351)"><tspan x="0" y="0">Progressive difficulty</tspan></text>
    <text class="st4" transform="translate(150 393)"><tspan x="0" y="0">teacher_guide.md</tspan></text>
    <text class="st2" transform="translate(142 414)"><tspan x="0" y="0">Usage instructions</tspan></text>
    <text class="st2" transform="translate(142 426)"><tspan x="0" y="0">Teaching guidance</tspan></text>
    <text class="st2" transform="translate(142 438)"><tspan x="0" y="0">Target audience</tspan></text>
    <text class="st2" transform="translate(142 450)"><tspan x="0" y="0">QA / annotation reference</tspan></text>
    <text class="st3" transform="translate(374.01 265)"><tspan x="0" y="0">verified_textbook.jsonl</tspan></text>
    <text class="st3" transform="translate(388.65 282)"><tspan x="0" y="0">(validated dataset)</tspan></text>
    <g class="st5">
      <text/>
      <text/>
    </g>
    <text class="st11" transform="translate(664 112)"><tspan x="0" y="0">textbook_catalog.json</tspan></text>
    <text class="st14" transform="translate(664 133)"><tspan x="0" y="0">Volume structure</tspan></text>
    <text class="st14" transform="translate(664 145)"><tspan x="0" y="0">Chapter indexing</tspan></text>
    <text class="st14" transform="translate(664 157)"><tspan x="0" y="0">Content organization</tspan></text>
    <text class="st4" transform="translate(651 298)"><tspan x="0" y="0" xml:space="preserve">    python_problem_solving.md</tspan></text>
    <text class="st9" transform="translate(674 324)"><tspan x="0" y="0">Chapter-based organization</tspan></text>
    <text class="st9" transform="translate(674 336)"><tspan x="0" y="0">Math vs code separation</tspan></text>
    <text class="st9" transform="translate(674 348)"><tspan x="0" y="0">Progressive difficulty</tspan></text>
    <text class="st4" transform="translate(674 393)"><tspan x="0" y="0">editorial_style_guide.md</tspan></text>
    <text class="st9" transform="translate(688 414)"><tspan x="0" y="0">Writing standards</tspan></text>
    <text class="st9" transform="translate(688 426)"><tspan x="0" y="0">Formatting rules</tspan></text>
    <text class="st9" transform="translate(688 438)"><tspan x="0" y="0">Style consistency</tspan></text>
    <text class="st12" transform="translate(310.73 449)"><tspan x="0" y="0">A curriculum is not a dataset, but a</tspan></text>
    <text class="st12" transform="translate(310.15 471)"><tspan x="0" y="0">structured educational asset system</tspan></text>
    <g class="st5">
      <text class="st13" transform="translate(176.51 498)"><tspan x="0" y="0">[Blue: Data Source]</tspan></text>
      <text class="st8" transform="translate(256.48 498)"><tspan x="0" y="0">[Green: Curriculum Structure]</tspan></text>
      <text class="st10" transform="translate(378.11 498)"><tspan x="0" y="0">[Purple: Textbook Content]</tspan></text>
      <text class="st1" transform="translate(487.77 498)"><tspan x="0" y="0">[Orange: Teacher Documentation]</tspan></text>
      <text class="st7" transform="translate(624.6 498)"><tspan x="0" y="0">[Pink: Style Constraints]</tspan></text>
    </g>
  </g>
</svg>