<?xml version="1.0" encoding="UTF-8"?>
<svg id="_图层_1" data-name="图层_1" xmlns="http://www.w3.org/2000/svg" version="1.1" viewBox="0 0 900 491">
  <!-- Generator: Adobe Illustrator 29.6.0, SVG Export Plug-In . SVG Version: 2.1.1 Build 207)  -->
  <defs>
    <style>
      .st0 {
        font-size: 13px;
      }

      .st0, .st1, .st2, .st3, .st4, .st5 {
        isolation: isolate;
      }

      .st0, .st1, .st3 {
        font-family: TimesNewRomanPSMT, 'Times New Roman';
      }

      .st1 {
        font-size: 19px;
      }

      .st6 {
        fill: #6f8a9d;
      }

      .st2 {
        font-size: 27px;
      }

      .st2, .st5 {
        font-family: TimesNewRomanPS-BoldMT, 'Times New Roman';
        font-weight: 700;
      }

      .st7 {
        fill: #57768c;
      }

      .st8 {
        fill: #1a72ab;
      }

      .st9 {
        fill: #757d81;
      }

      .st10 {
        fill: #5d7c92;
      }

      .st11 {
        fill: #1c75b0;
      }

      .st12 {
        fill: #adbec9;
      }

      .st13 {
        fill: #b5bcc0;
      }

      .st14 {
        fill: #bbc6cf;
      }

      .st15 {
        fill: #a1b1bc;
      }

      .st16 {
        fill: #a3b3be;
      }

      .st17 {
        fill: #c7d2da;
      }

      .st18 {
        fill: #8da0ae;
      }

      .st19 {
        fill: #f1f4f5;
      }

      .st3 {
        font-size: 15px;
      }

      .st20 {
        fill: #abbdc8;
      }

      .st21 {
        fill: #c7d1d8;
      }

      .st22 {
        fill: #bec7cc;
      }

      .st23 {
        fill: #a8b5bf;
      }

      .st24 {
        fill: #758e9f;
      }

      .st25 {
        fill: #b7c3ca;
      }

      .st5 {
        fill: #fff;
        font-size: 11px;
      }

      .st26 {
        fill: #c0c8cd;
      }

      .st27 {
        fill: #9dadb8;
      }

      .st28 {
        fill: #9db2c1;
      }

      .st29 {
        fill: #c6d1d8;
      }

      .st30 {
        fill: #fefefe;
      }

      .st31 {
        fill: #9cb1c1;
      }

      .st32 {
        fill: #59788f;
      }

      .st33 {
        fill: #8ea1af;
      }

      .st34 {
        fill: #5c7b91;
      }

      .st35 {
        fill: #9fadb6;
      }

      .st36 {
        fill: #c2ccd4;
      }

      .st37 {
        fill: #58788e;
      }

      .st38 {
        fill: #5a7486;
      }

      .st39 {
        fill: #58788f;
      }
    </style>
  </defs>
  <g id="_x23_fefefeff">
    <path class="st30" d="M0,0h900v491H0V0M123.77,123.01c-.12,9.23,0,18.46-.02,27.69-2.04-.02-4.07-.03-6.1-.04,2.33,4.05,4.67,8.11,6.88,12.23-25.54.24-51.09,0-76.63.12-3.93-.05-7.33,2.79-8.92,6.24-.28,2.24-.45,4.49-.42,6.75.13,44.66.14,89.33.1,134,.2,30.06-.23,60.12.22,90.18,1.78,4,5.44,7.43,10.06,7.34,24.02.11,48.06.05,72.09.02,1.29-.13,2.47.15,3.55.86-2.79,3.51-4.45,7.75-6.73,11.6,1.94.02,3.89.06,5.83.1,0,10.61-.04,21.23,0,31.85-.24,6.96,6.55,12.6,13.3,11.99,213.67-.01,427.34.01,641.01,0,6.41.68,12.65-4.46,13.01-10.93.48-15.16-.3-30.35.19-45.5,19.93.17,39.88.05,59.81,0,5.62.23,10.76-4.84,10.36-10.51.06-74.65-.05-149.3.05-223.94.38-5.23-4.1-10.16-9.37-10.03-25.27-.09-50.54.03-75.8-.05.14-13.34.07-26.67-.02-40,.05-6.44-5.98-11.64-12.24-11.56-209.32-.06-418.65-.02-627.98-.02-6.3-.09-12.28,5.16-12.23,11.61Z"/>
    <path class="st30" d="M126.17,123.03c-.02-5.56,5.52-9.58,10.82-9.08,206.67-.07,413.34,0,620.02-.04,4.76.14,10.58-1.07,14.21,2.89,3.22,3.16,2.46,7.97,2.69,12.05-2.6-2.69-6.06-4.6-9.89-4.47-64.58-.07-129.16.06-193.74-.07-.01.6-.03,1.81-.04,2.42,63.94-.03,127.89.02,191.84-.03,3.24,0,6.95.38,9.19,3.05,2.98,3.16,2.56,7.77,2.73,11.78-.8.13-2.4.38-3.19.51.94,1.12,1.91,2.24,2.89,3.35.25,5.86.16,11.73.19,17.6-24.97.05-49.93-.01-74.9-.02-3.68-.21-7.37,1.71-9.07,5.01-1.26,2.48-1.09,5.35-1.16,8.04.05,36.43.05,72.85.11,109.28-6.66-5.45-13.22-11.03-19.96-16.36-.04,3.25-.04,6.5-.04,9.75-8.11-.04-16.21-.01-24.32-.01.2-34.21.04-68.42.2-102.62.02-3.51-.03-7.47-2.67-10.14-2-2.32-5.13-3.09-8.08-2.97-25.09.07-50.19.06-75.29,0,2.25-4.1,4.59-8.16,6.86-12.25-4.74-.12-9.48-.11-14.21-.02,2.33,4.07,4.38,8.29,6.88,12.26-25.42.09-50.85.03-76.26.07-4.99-.31-9.66,3.97-9.67,8.99-.36,37.74.33,75.5-.2,113.24-6.63-5.4-13.15-10.92-19.76-16.33,0,3.29,0,6.57.03,9.86-8.16-.32-16.34-.08-24.5-.15-.16-35.22,0-70.44-.05-105.66.42-5.37-4.35-10.35-9.76-9.97-25.42-.11-50.84.1-76.26-.05,2.5-3.99,4.59-8.22,6.95-12.29-1.97.01-3.93.03-5.89.04.09-5.48-.48-11.02.35-16.47.8-4.52,5.28-7.78,9.81-7.5,32.37-.08,64.75.15,97.11-.11.23-.53.69-1.59.93-2.12-32.69-.31-65.39-.04-98.08-.14-5.82-.33-11.43,4.02-12.31,9.82-.68,5.47-.17,11.01-.33,16.51-2,0-3.99-.03-5.97-.05,2.31,4.11,4.66,8.19,6.94,12.32-25.46.06-50.92.01-76.38.06-5.28-.21-9.86,4.61-9.63,9.84-.12,31.73.1,63.46.02,95.19-.09,5.65.27,11.33-.29,16.97-6.27-5.06-12.4-10.3-18.69-15.35-.19-.15-.56-.46-.75-.61,0,3.18.02,6.37,0,9.56-8.15,0-16.3.03-24.45,0,.26-35.2-.04-70.4.06-105.59.39-5.13-3.98-10.04-9.16-9.98-25.64-.18-51.28.14-76.91-.16,2.39-3.99,4.62-8.08,6.8-12.18-1.94,0-3.89,0-5.83.02.05-9.23-.09-18.46.05-27.68M565.34,137.49c.03.51.09,1.53.12,2.04,1.01-.03,2.03-.06,3.06-.1.02-.54.07-1.63.09-2.18-1.1.08-2.19.16-3.27.24M571.4,137.32c.07.47.22,1.42.29,1.89.95,0,1.9.02,2.86.04.05-.51.15-1.51.2-2.01-1.12.02-2.24.05-3.35.08M577.37,137.33c.1.48.3,1.44.4,1.91.96,0,1.91,0,2.88.02.08-.51.25-1.54.33-2.06-1.21.04-2.41.08-3.61.13M583,137.88c.88,1.24,2.32,1.45,3.69,1.66.07-.63.21-1.89.28-2.52-1.35.18-2.67.47-3.97.86M589.5,137.31c.09.47.25,1.42.33,1.89.96.05,1.93.11,2.9.17.07-.57.22-1.71.29-2.28-1.18.07-2.35.14-3.52.22M595.65,137.06c-.26,2.13,1.41,2.36,3.07,2.45.09-.56.28-1.7.38-2.26-.86-.05-2.59-.15-3.45-.19M601.78,137.06c.12.61.37,1.82.5,2.43,1.52-.12,3.12-.29,2.96-2.28-.87-.04-2.6-.11-3.46-.15M724,137.98c.95,1.09,2.33,1.29,3.66,1.5.07-.59.21-1.79.28-2.38-1.37.06-2.69.36-3.94.88M730.02,137.86c.9,1.18,2.28,1.48,3.66,1.65.08-.62.25-1.86.33-2.48-1.35.21-2.68.48-3.99.83M736.6,137.21c.12,1.8,1.5,2.27,3.07,2.28.11-.56.35-1.68.46-2.24-.88,0-2.64-.03-3.53-.04M742.7,137.05c-.44,2.29,1.41,2.35,3.1,2.42.05-.57.14-1.72.19-2.3-.83-.03-2.47-.09-3.29-.12M748.64,137.18c-.45,2.94,4.11,3.01,3.76.02-.94,0-2.82,0-3.76-.02M754.67,137.14c-.79,2.97,4.43,2.96,3.64-.02-.91.01-2.73.02-3.64.02M760.85,137.2c.13.57.39,1.71.53,2.28,1.53-.09,3.11-.28,3.01-2.26-.89,0-2.66-.02-3.54-.02M766.28,139.52c1.47.67,3.9,2.31,4.08-.49-1.36-1.48-3-.93-4.08.49M559.64,141.54c1.45,1.88,2.86.64,4.15-.57-1.12-2.89-2.91-.81-4.15.57M558.34,143.93c-.35,1.13-.68,2.27-.99,3.41,1.27-.04,2.84.23,2.99-1.57-.56-.73-1.23-1.34-2-1.84M646.06,155.09c.02,3.31,3.05-1.43,0,0M667.28,155.25q.54.55,0,0Z"/>
    <path class="st30" d="M699.34,181.08c1.81-9.77,14.44-14.5,22.43-8.74.56-.45,1.68-1.35,2.24-1.8.24,1.78.5,3.56.76,5.34-1.91-.21-3.8-.45-5.68-.76.48-.49,1.42-1.48,1.9-1.97-2.23-.86-4.44-1.95-6.86-2.03-6.45-.46-12.69,4.63-13.6,11.02-.58,2.79.32,5.57.73,8.31-3.07-1.97-2.11-6.31-1.92-9.37Z"/>
    <path class="st30" d="M264.66,174.06c3.79-3.72,9.57-3.67,14.46-2.88,2.2.27,4.09,1.46,5.75,2.87-3.4,3.86-9.11,3.72-13.8,3.19-2.5-.15-4.73-1.35-6.41-3.18Z"/>
    <path class="st30" d="M286.03,173.72c1.2-1.06,2.4-2.12,3.63-3.15-.06.55-.18,1.64-.24,2.19,2.07.1,3.67,1.32,4.86,2.91-1.23-.42-2.45-.86-3.66-1.3-.43.48-1.28,1.44-1.7,1.91-.97-.85-1.93-1.71-2.89-2.56Z"/>
    <path class="st30" d="M705.74,178.99c2.5-1.12,4.99-2.24,7.47-3.43,2.66,1.06,5.31,2.2,7.94,3.36-.01,3.52.57,7.52-1.76,10.5-1.55,1.97-3.61,3.93-6.14,4.42-6.12-2.07-8.25-8.95-7.51-14.85M712.61,185.78c-.96-.71-1.92-1.41-2.89-2.09.03,1.94,1.56,3.17,2.73,4.52,2.04-1.97,4-4.03,5.65-6.35-2.57-.28-3.81,2.47-5.49,3.92Z"/>
    <path class="st30" d="M265.02,176.42c5.89,3.23,13.41,3.09,19.35.04-.09,1.47-.18,2.93-.27,4.4-2.19.71-4.14,1.93-6.12,3.06-4.26.76-8.78.08-12.65-1.88-.1-1.88-.2-3.75-.31-5.62Z"/>
    <path class="st30" d="M725.62,178.64c.28-.14.84-.41,1.12-.54,2.26,5.08,1.92,11.44-2.08,15.56-4.73,5.73-13.51,6.8-19.64,2.71-.45.48-1.35,1.43-1.8,1.91-.34-1.99-.66-3.98-.97-5.97,1.84.43,3.69.88,5.54,1.33-.44.75-.89,1.5-1.32,2.25,4.21,1.68,9.16,2.44,13.29.09,6.19-3.06,8.67-11.14,5.86-17.34Z"/>
    <path class="st30" d="M265.01,183.15c3.8,2.2,8.22,2.66,12.53,2.34-.18,1.8-.3,3.61-.36,5.43-3.97-.03-8.38.23-11.74-2.28-.44-1.8-.32-3.67-.43-5.49Z"/>
    <path class="st30" d="M278.55,189.94c-1.38-4.62,4.2-9.28,8.43-6.7,3.49,1.5,3.64,5.99,2.1,8.97,1.99,1.15,3.95,2.5,5.3,4.42.87,1.12-.78,2.33-1.87,1.94-1.92-1.32-3.33-3.22-4.65-5.1-3.43,2.02-8.35.5-9.31-3.53M282.21,184.25c-3.07,1.43-3.51,6.36-.51,8.1,2.65,2.07,7.16.07,7.16-3.36.54-3.43-3.57-6.52-6.65-4.74Z"/>
    <path class="st30" d="M491.33,185.33c1.83-.02,3.66-.05,5.51-.07-.02,1.87-.03,3.74-.03,5.61-1.85,0-3.7,0-5.54-.02.01-1.84.03-3.68.06-5.52Z"/>
    <path class="st30" d="M264.98,190.08c3.97,2.21,8.55,2.32,12.97,2.16,1.62,1.8,3.74,2.93,5.96,3.82-5.44,2.06-11.81,2.74-17.21.2-2.41-1.05-1.2-4.2-1.72-6.18Z"/>
    <path class="st30" d="M40.86,205.27c2.04-.08,4.08-.14,6.12-.16,53.87-.02,107.74.02,161.61.04.12,63.28-.02,126.56.08,189.84,0,2.63-.12,5.59-2.13,7.56-1.91,2.07-4.85,2.5-7.52,2.49-49.67-.01-99.35.04-149.03-.03-4.03.36-7.58-2.46-8.68-6.24-.3-59.58.07-119.16-.13-178.73-.13-4.92.44-9.88-.32-14.77M50.08,218.95c-.08,7.36-.06,14.73,0,22.1-.27,3.25,2.72,6,5.93,5.64,22.63-.04,45.27.11,67.9-.07-.01,2.67-.04,5.34-.06,8.01-.96-.03-2.87-.09-3.82-.13,1.45,2.79,2.97,5.55,4.43,8.34-22.47.66-44.98.12-67.47.26-2.82-.39-6.3.76-6.78,3.95-.4,7.64-.06,15.32-.16,22.98-.32,2.83,1.88,5.91,4.86,5.86,23.05.21,46.1-.11,69.14.19-1.82,2.62,3.53,2.58,1.64,0,22.79-.28,45.58-.06,68.37-.15,2.86.34,5.51-2.12,5.58-4.95.35-6.33.04-12.68.17-19.02-.1-2.44.2-5.26-1.56-7.22-1.29-1.53-3.4-1.62-5.24-1.62-20.32.04-40.64-.03-60.96.03-2.3.02-4.58-.27-6.87-.36,1.74-2.62,3.15-5.44,4.63-8.21-.97.02-2.9.06-3.86.09-.08-2.69-.12-5.37-.14-8.06,23.07.12,46.16.13,69.23.02,3.37.06,4.89-3.68,4.71-6.56,0-6.99.2-14-.14-20.99.05-3.01-2.6-5.64-5.67-5.22-45.99,0-91.99-.02-137.99,0-2.92-.34-6,2.03-5.87,5.09M124.1,300.43c0,.83-.01,2.49-.01,3.32-.98.01-2.93.03-3.91.04,1.39,2.68,2.82,5.34,4.18,8.03-5.09.73-10.23.27-15.34.37-17.69.08-35.38-.03-53.07.06-2.81-.3-5.68,1.77-5.81,4.67-.23,7.39-.04,14.79-.1,22.18-.36,3.3,2.51,6.62,5.95,6.08,22.73-.1,45.46.15,68.19-.14-.91,1.3-.65,2.25.77,2.86,1.42-.62,1.7-1.57.83-2.86,22.75.28,45.51.02,68.27.12,3.33.39,6.03-2.96,5.71-6.14.06-7.03.06-14.07-.11-21.1.13-3.03-2.51-5.93-5.61-5.71-19.68-.03-39.36.05-59.04,0-3.22.03-6.48.21-9.66-.5,1.5-2.62,2.95-5.27,4.35-7.94-1.33-.02-2.66-.03-3.99-.03.01-.84.03-2.52.05-3.36l-1.65.06M123.72,352.74c-.88,0-2.64-.04-3.52-.05,1.48,2.96,2.96,5.94,4.66,8.79,1.68-2.87,3.25-5.81,4.82-8.74-1.32-.04-2.64-.07-3.95-.09-.01-.82-.05-2.46-.06-3.28-1.31.61-1.96,1.73-1.95,3.37M52.32,362.37c-1.98,1.12-2.35,3.53-2.27,5.59.03,7.04-.05,14.08.03,21.11-.2,2.42,1.4,5.09,3.94,5.4,2.63.35,5.3.17,7.95.19,44.04-.05,88.09-.01,132.13.01,3.11.26,5.79-2.55,5.63-5.61.06-7.38.12-14.77-.03-22.15.04-2.96-2.61-5.73-5.66-5.32-45.68,0-91.36.04-137.04-.02-1.56.1-3.3-.1-4.68.8Z"/>
    <path class="st30" d="M257.88,205.13c55.83-.05,111.66,0,167.49-.05,0,63.61,0,127.21-.01,190.82.64,4.76-3.46,9.36-8.27,9.11-49.68.09-99.35-.01-149.03.05-2.97.11-6.28-.38-8.26-2.85-2.28-2.51-1.82-6.1-1.87-9.21.12-62.63-.07-125.24-.05-187.87M270.16,214.26c-1.98.67-3.39,2.59-3.23,4.71-.16,4.71-.15,9.43-.02,14.14-.22,3.23,3.11,5.44,6.09,5.04,45.65,0,91.3.01,136.94,0,2.74.33,5.94-1.19,6.26-4.18.43-4.96.23-9.96.09-14.93.24-2.91-2.41-5.43-5.29-5.16-44.32-.08-88.65,0-132.97-.05-2.62.06-5.31-.24-7.87.43M269.37,246.5c-1.58.88-2.58,2.63-2.51,4.44-.16,4.01.03,8.02-.04,12.03.05,1.96-.17,4.33,1.58,5.68,1.45,1.5,3.65,1.37,5.57,1.44,45.69-.03,91.39.01,137.08-.04,2.32.12,5.04-1.47,5.13-3.99.28-4.99.21-10,.12-14.99.27-2.92-2.43-5.48-5.31-5.16-45.67.05-91.34-.05-137-.08-1.55.08-3.21-.06-4.62.67M269.29,278.35c-1.69.92-2.5,2.81-2.41,4.69-.08,4.64-.1,9.3.02,13.95-.19,3.17,3.16,5.37,6.09,5.01,45.67,0,91.35-.02,137.02.01,2.6.24,5.86-1.09,6.17-4.01.43-4.99.18-10.02.12-15.03.3-2.93-2.39-5.59-5.32-5.2-45.67-.03-91.35.04-137.02-.04-1.55.12-3.26-.16-4.67.62M269.26,310.21c-1.69.96-2.41,2.95-2.36,4.82-.1,4.65-.16,9.32.04,13.97.01,3.04,3.13,5.14,5.99,4.83,45.04.03,90.08-.02,135.12.03,2.21-.12,4.79.25,6.55-1.41,2.02-1.48,1.71-4.22,1.83-6.42-.11-4.34.25-8.7-.25-13.01-.72-2.68-3.66-3.76-6.2-3.53-45.33-.04-90.67-.02-136.01.03-1.57.12-3.29-.13-4.71.69M270.38,341.44c-1.9.63-3.47,2.46-3.45,4.53-.19,4.68-.1,9.38-.06,14.07-.37,3.31,2.97,5.87,6.1,5.5,46.02,0,92.05.07,138.07-.05,2.6.19,5.09-1.89,5.22-4.52.29-4.97.23-9.96.04-14.93-.04-2.66-2.56-5.06-5.24-4.81-30.35-.09-60.7.04-91.05-.03-16.54.21-33.12-.36-49.63.24M270.13,373.25c-3.97,1.52-3.27,6.35-3.3,9.75.26,3.85-.62,7.93.69,11.63,1.81,3.43,6.18,2.76,9.42,2.75,44.35-.05,88.69,0,133.04-.07,3.1.41,6.52-1.92,6.31-5.26.06-5.02.21-10.06-.11-15.07-.26-3.02-3.57-4.34-6.23-4.04-43.65-.01-87.31.01-130.97-.01-2.95.06-5.95-.29-8.85.32Z"/>
    <path class="st30" d="M474.84,205.15c55.77-.07,111.55-.04,167.33-.06-.07,62.96-.08,125.93-.01,188.89-.08,3.01.08,6.58-2.41,8.76-2,2.11-5.01,2.38-7.74,2.32-49.69-.05-99.38.01-149.07-.03-4.33.18-8.34-3.68-8.09-8.07,0-63.93-.02-127.87-.01-191.81M486.38,214.48c-1.77.79-2.84,2.59-2.69,4.53-.14,4.97-.31,9.98.11,14.95.25,2.97,3.49,4.49,6.17,4.21,46.03-.07,92.05.04,138.08-.04,2.72.11,5.21-2.38,5.05-5.11.13-4.7.12-9.41-.02-14.1.18-3.22-3.08-5.46-6.07-5.07-44-.01-88.01.02-132.01-.01-2.86.12-5.9-.43-8.62.64M486.24,245.28c-1.75.93-2.68,2.84-2.58,4.79-.16,6.3.01,12.6-.01,18.91-.32,2.95,2.22,5.85,5.24,5.67,46.04.07,92.09.14,138.14.03,3.19.4,6.49-2.27,6.1-5.62.02-6.36.1-12.73-.08-19.09.22-2.81-2.17-5.67-5.1-5.38-44.97-.1-89.95.01-134.92-.07-2.26.14-4.69-.22-6.79.76M486.36,281.53c-1.69.84-2.66,2.67-2.63,4.52-.24,4.64-.23,9.29-.07,13.93-.19,2.88,2.52,5.51,5.39,5.22,46,.09,92.01,0,138.01.05,2.65.32,5.84-1.33,6.02-4.24.22-5,.08-10.01.03-15.01.13-2.34-1.72-4.66-4.07-4.87-3.35-.31-6.71-.15-10.06-.18-41.67.03-83.33,0-125-.03-2.53.1-5.22-.35-7.62.61M486.2,312.23c-1.73.95-2.62,2.88-2.55,4.8-.13,4.66-.12,9.33.02,13.98-.1,3.26,3.39,5.33,6.36,5,45.32-.03,90.64.06,135.96-.04,2.8.28,6.45-.75,7.03-3.92.35-5.03.11-10.08.12-15.11.34-2.88-2.35-5.53-5.2-5.23-45.97-.15-91.95.07-137.92-.09-1.34-.06-2.61.14-3.82.61M487.3,342.45c-1.99.57-3.55,2.45-3.53,4.56-.21,4.98-.16,9.97-.06,14.96.07,3.08,3.38,5,6.23,4.72,45.35,0,90.71.03,136.07-.03,2.74.2,6.04-.69,6.91-3.64.47-5.33.22-10.71.18-16.06.09-3.15-3.27-5.03-6.09-4.73-46.56.26-93.17-.17-139.71.22M487.17,373.25c-2.48.7-3.65,3.34-3.53,5.75-.07,4.65-.22,9.33.1,13.98.28,2.96,3.4,4.73,6.19,4.34,45.67.05,91.34.07,137.01-.02,2.71.32,5.79-1.31,6.13-4.22.27-5.01.07-10.05.06-15.07.2-3.21-3.08-5.48-6.06-5.09-43.02.06-86.04,0-129.06.02-3.62.08-7.27-.31-10.84.31Z"/>
    <path class="st30" d="M691.36,205.15c55.82-.07,111.64-.1,167.46,0,.02,63.6-.03,127.2.04,190.81.15,2.87-.73,6.04-3.31,7.65-2.17,1.69-5.04,1.34-7.6,1.45-49.32-.03-98.63.02-147.95-.02-3.91.29-7.78-2.57-8.38-6.47-.42-3.51-.13-7.05-.2-10.57-.03-60.95.07-121.89-.06-182.84M703.32,214.32c-1.72.86-3.03,2.57-3.05,4.54-.23,4.73-.17,9.47.05,14.2-.04,2.92,2.71,5.4,5.62,5.11,46.02-.05,92.05,0,138.08-.02,2.92.34,5.87-1.98,5.82-5.01.16-4.76.17-9.53-.02-14.28.09-3.05-2.97-5.22-5.84-4.98-45.34-.09-90.69.04-136.03-.06-1.55.1-3.2-.18-4.63.5M703.16,245.13c-2.17,1.03-3.12,3.52-2.94,5.81.03,6.03-.08,12.07.06,18.1-.12,3.06,2.5,5.96,5.65,5.7,46.02-.04,92.05.04,138.07-.06,2.7.22,5.74-1.64,5.83-4.55.25-6.75.12-13.51.05-20.26.15-3.14-2.81-5.67-5.87-5.35-44.69-.02-89.38-.09-134.07.03-2.26.1-4.63-.23-6.78.58M703.4,281.4c-1.76.78-3.06,2.58-3,4.54-.22,4.71-.33,9.44-.07,14.15.03,2.93,2.71,5.43,5.68,5.12,46,.06,92,.01,138,.03,2.96.37,5.97-2.06,5.88-5.11.15-4.74.05-9.49-.07-14.23.17-3.07-2.93-5.36-5.84-4.94-44,0-88,.07-132,0-2.86.07-5.8-.31-8.58.44M703.16,312.15c-2.27.93-2.97,3.55-2.9,5.79-.04,4.35-.11,8.7.1,13.05.09,2.38,2.03,4.77,4.52,4.85,3.02.3,6.07.16,9.11.16,43-.01,86,.03,129.01-.02,1.88-.03,4.04-.1,5.44-1.59,2-1.9,1.55-4.89,1.65-7.38-.14-3.93.06-7.9-.48-11.8-.54-2.51-3.22-3.83-5.62-3.59-44,.01-88.01-.01-132.02.05-2.93.12-5.99-.43-8.81.48M704.33,342.44c-2.54.39-4.29,2.96-4.1,5.46-.01,4.68-.15,9.38.11,14.06.21,3.27,3.68,5.02,6.66,4.71,45.35.03,90.7.02,136.05,0,2.68.19,5.95-.84,6.66-3.76.48-4.28.31-8.61.33-12.91-.16-2.17.17-4.78-1.69-6.35-1.95-1.93-4.96-1.29-7.43-1.46-45.52.26-91.08-.16-136.59.24M703.34,373.38c-1.73.81-3.15,2.52-3.06,4.51-.12,4.75-.14,9.51.05,14.26.05,2.92,2.64,5.58,5.66,5.21,46-.02,92,.02,137.99-.05,3.03.39,6.24-2.11,5.93-5.29.01-4.69.09-9.39,0-14.07.16-3.1-2.95-5.45-5.9-5.02-45.66.01-91.33.04-137,0-1.26-.07-2.49.08-3.66.46Z"/>
    <path class="st30" d="M688.85,285.74c-.06,36.4.07,72.81,0,109.22-.12,3.76.84,7.92,3.99,10.31,2.83,2.39,6.72,2.34,10.22,2.34,21.25-.14,42.5.16,63.75-.13-.21,7.81.09,15.62-.14,23.42-.17,5.43-5.3,9.82-10.68,9.36-62.01,0-124.02,0-186.02,0-5.18.37-10.11-4.05-10.26-9.23-.22-3.66-.05-7.33-.03-10.98,1.91-.02,3.82-.03,5.75-.04-2.15-4.21-4.46-8.32-6.77-12.44,25.13.03,50.26.06,75.39-.05,5.74.42,10.76-4.83,10.6-10.48.01-34.8.11-69.62-.05-104.42,8.09-.08,16.18.09,24.27-.04,0,3.18.02,6.36.08,9.54,6.81-5.23,13.4-10.78,19.91-16.38Z"/>
    <path class="st30" d="M254.94,286.22c.75,5.22.29,10.51.35,15.76.08,31.37.02,62.73.04,94.1-.34,5.53,3.91,11.28,9.7,11.37,25.42.42,50.87-.22,76.28.36-2.1,4.06-4.33,8.06-6.49,12.09,1.88.03,3.76.05,5.65.09.26,5.79-1.28,12.29,2.16,17.43,2.34,3.81,6.98,5.47,11.3,5.28,33.35-.13,66.7.06,100.05-.08,0-.58-.01-1.73-.01-2.31-33.66-.12-67.33.03-100.98-.07-4.68.15-9.22-3.48-9.84-8.16-.43-3.99-.17-8.02-.19-12.03,1.89-.02,3.78-.04,5.68-.06-2-3.82-4.09-7.59-6.1-11.4l-.53-.99c24.33-.06,48.66-.01,73,0,3.39.06,7.15-.33,9.64-2.92,2.75-2.4,3.4-6.18,3.25-9.65-.19-34.15.1-68.3-.17-102.45,8.2.03,16.4.05,24.6.06.02,3.17.05,6.35.08,9.53,6.66-5.16,12.96-10.77,19.65-15.89.53,37.21.03,74.45.31,111.66.1,5.46,5.2,9.88,10.58,9.59,25.12.13,50.25.06,75.37.05-2.43,4.04-4.56,8.25-6.87,12.36,1.92.04,3.86.08,5.81.12.07,4.49-.42,9.03.33,13.48.81,4.04,4.22,6.62,7.25,9.04,64.05.17,128.11.07,192.16.05,6.37.27,12.03-5.29,12.12-11.6.28-7.85.02-15.71.09-23.55,6.47.07,12.95.11,19.43.02.07,14.17.01,28.35.04,42.52.09,3.33-.75,6.96-3.52,9.11-2.18,2.05-5.28,2.43-8.14,2.41-210.33-.01-420.65,0-630.98-.02-3.84-.04-7.7.18-11.52-.2-4.92-.55-8.77-5.36-8.44-10.27,0-10.34.05-20.67.03-31,1.89-.02,3.77-.05,5.66-.07-2.14-4.09-4.36-8.14-6.52-12.21,24.92-.5,49.88,0,74.81-.24,3.28.04,6.7-1.06,8.77-3.72,2.64-2.94,2.42-7.12,2.44-10.8-.17-33.46.17-66.92-.18-100.37,8.19.02,16.38,0,24.57,0,0,3.18.02,6.36.07,9.54,6.42-5.3,12.89-10.54,19.21-15.96M456.97,440.28c.03.64.08,1.92.11,2.55,1.1-.12,2.19-.3,3.29-.52.52-2.51-1.96-1.89-3.4-2.03M463.21,440.3v2.37c1.14-.04,2.27-.08,3.42-.12-.03-.55-.07-1.66-.1-2.21-1.11-.02-2.22-.04-3.32-.04M469.43,440.36c0,.55-.02,1.65-.02,2.21,1.1.03,2.22.08,3.34.12-.01-.58-.03-1.75-.04-2.34-1.1-.01-2.19,0-3.28,0M475.74,440.32c0,.57,0,1.72,0,2.29,1.07.04,2.16.08,3.25.13v-2.45c-1.09,0-2.16,0-3.24.03M482.08,440.32c-.02.58-.05,1.74-.07,2.32,1.12,0,2.24,0,3.37.03-.03-.57-.09-1.7-.12-2.27-1.06-.03-2.13-.06-3.18-.08M488.36,440.29c0,.59-.03,1.77-.05,2.36,1.1-.02,2.2-.03,3.31-.04v-2.21c-1.1-.05-2.18-.08-3.26-.11M494.56,440.32c.02.57.05,1.71.07,2.29,1.09.02,2.17.04,3.27.08-.02-.61-.05-1.81-.06-2.42-1.1.01-2.2.03-3.28.05M500.84,440.18c.05.67.15,1.99.21,2.66,1.1-.14,2.2-.3,3.3-.5.64-2.65-1.94-1.94-3.51-2.16M507.11,440.32c.04.58.12,1.74.16,2.32,1.08-.02,2.17-.03,3.27-.03-.01-.56-.03-1.68-.04-2.24-1.13-.03-2.26-.04-3.39-.05M513.41,440.39c0,.54.02,1.61.02,2.14l3.39.18c0-.61-.02-1.83-.03-2.44-1.14.03-2.26.07-3.38.12M519.7,440.36v2.27c1.15.03,2.3.07,3.46.12-.07-.63-.21-1.89-.29-2.52-1.06.04-2.12.08-3.17.13M525.93,440.32c.04.59.13,1.77.18,2.36,1.05-.03,2.11-.05,3.18-.06,0-.57-.04-1.69-.05-2.26-1.11-.02-2.21-.03-3.31-.04M532.31,440.24c.02.6.07,1.8.09,2.39,1.08,0,2.16-.01,3.25,0-.02-.57-.06-1.71-.07-2.27-1.1-.05-2.19-.08-3.27-.12M538.57,440.34c0,.57-.01,1.72-.01,2.29,1.11.02,2.22.04,3.35.07-.02-.58-.07-1.75-.09-2.34-1.09,0-2.17-.02-3.25-.02M544.78,440.25c.05.66.15,1.96.2,2.62,1.68-.1,3.88-.17,3.2-2.54-.85-.02-2.55-.06-3.4-.08M551.05,440.3c.03.6.1,1.79.13,2.39,1.05-.04,2.1-.06,3.17-.09-.02-.54-.04-1.63-.06-2.17-1.09-.05-2.17-.09-3.24-.13M557.25,440.38c.02.56.07,1.68.09,2.24,1.09,0,2.19,0,3.3.02-.01-.57-.03-1.69-.04-2.25-1.12-.01-2.24-.01-3.35-.01Z"/>
  </g>
  <g id="_x23_1a72abff">
    <path class="st8" d="M123.77,123.01c-.05-6.45,5.93-11.7,12.23-11.61,209.33,0,418.66-.04,627.98.02,6.26-.08,12.29,5.12,12.24,11.56.09,13.33.16,26.66.02,40-.59,0-1.76,0-2.35.01-.03-5.87.06-11.74-.19-17.6-.98-1.11-1.95-2.23-2.89-3.35.79-.13,2.39-.38,3.19-.51-.17-4.01.25-8.62-2.73-11.78-2.24-2.67-5.95-3.05-9.19-3.05-63.95.05-127.9,0-191.84.03.01-.61.03-1.82.04-2.42,64.58.13,129.16,0,193.74.07,3.83-.13,7.29,1.78,9.89,4.47-.23-4.08.53-8.89-2.69-12.05-3.63-3.96-9.45-2.75-14.21-2.89-206.68.04-413.35-.03-620.02.04-5.3-.5-10.84,3.52-10.82,9.08-.14,9.22,0,18.45-.05,27.68,1.94-.02,3.89-.02,5.83-.02-2.18,4.1-4.41,8.19-6.8,12.18-.16,0-.46.01-.62.02-2.21-4.12-4.55-8.18-6.88-12.23,2.03,0,4.06.02,6.1.04.02-9.23-.1-18.46.02-27.69Z"/>
    <path class="st8" d="M340.68,134.17c.88-5.8,6.49-10.15,12.31-9.82,32.69.1,65.39-.17,98.08.14-.24.53-.7,1.59-.93,2.12-32.36.26-64.74.03-97.11.11-4.53-.28-9.01,2.98-9.81,7.5-.83,5.45-.26,10.99-.35,16.47,1.96-.01,3.92-.03,5.89-.04-2.36,4.07-4.45,8.3-6.95,12.29h-.49c-2.28-4.12-4.63-8.2-6.94-12.31,1.98.02,3.97.04,5.97.05.16-5.5-.35-11.04.33-16.51Z"/>
    <path class="st8" d="M565.34,137.49c1.08-.08,2.17-.16,3.27-.24-.02.55-.07,1.64-.09,2.18-1.03.04-2.05.07-3.06.1-.03-.51-.09-1.53-.12-2.04Z"/>
    <path class="st8" d="M571.4,137.32c1.11-.03,2.23-.06,3.35-.08-.05.5-.15,1.5-.2,2.01-.96-.02-1.91-.03-2.86-.04-.07-.47-.22-1.42-.29-1.89Z"/>
    <path class="st8" d="M577.37,137.33c1.2-.05,2.4-.09,3.61-.13-.08.52-.25,1.55-.33,2.06-.97,0-1.92,0-2.88-.02-.1-.47-.3-1.43-.4-1.91Z"/>
    <path class="st8" d="M583,137.88c1.3-.39,2.62-.68,3.97-.86-.07.63-.21,1.89-.28,2.52-1.37-.21-2.81-.42-3.69-1.66Z"/>
    <path class="st8" d="M589.5,137.31c1.17-.08,2.34-.15,3.52-.22-.07.57-.22,1.71-.29,2.28-.97-.06-1.94-.12-2.9-.17-.08-.47-.24-1.42-.33-1.89Z"/>
    <path class="st8" d="M595.65,137.06c.86.04,2.59.14,3.45.19-.1.56-.29,1.7-.38,2.26-1.66-.09-3.33-.32-3.07-2.45Z"/>
    <path class="st8" d="M601.78,137.06c.86.04,2.59.11,3.46.15.16,1.99-1.44,2.16-2.96,2.28-.13-.61-.38-1.82-.5-2.43Z"/>
    <path class="st8" d="M724,137.98c1.25-.52,2.57-.82,3.94-.88-.07.59-.21,1.79-.28,2.38-1.33-.21-2.71-.41-3.66-1.5Z"/>
    <path class="st8" d="M730.02,137.86c1.31-.35,2.64-.62,3.99-.83-.08.62-.25,1.86-.33,2.48-1.38-.17-2.76-.47-3.66-1.65Z"/>
    <path class="st8" d="M736.6,137.21c.89,0,2.65.03,3.53.04-.11.56-.35,1.68-.46,2.24-1.57-.01-2.95-.48-3.07-2.28Z"/>
    <path class="st8" d="M742.7,137.05c.82.03,2.46.09,3.29.12-.05.58-.14,1.73-.19,2.3-1.69-.07-3.54-.13-3.1-2.42Z"/>
    <path class="st8" d="M748.64,137.18c.94.01,2.82.02,3.76.02.35,2.99-4.21,2.92-3.76-.02Z"/>
    <path class="st8" d="M754.67,137.14c.91,0,2.73,0,3.64-.02.79,2.98-4.43,2.99-3.64.02Z"/>
    <path class="st8" d="M760.85,137.2c.88,0,2.65.01,3.54.02.1,1.98-1.48,2.17-3.01,2.26-.14-.57-.4-1.71-.53-2.28Z"/>
    <path class="st8" d="M766.28,139.52c1.08-1.42,2.72-1.97,4.08-.49-.18,2.8-2.61,1.16-4.08.49Z"/>
    <path class="st8" d="M559.64,141.54c1.24-1.38,3.03-3.46,4.15-.57-1.29,1.21-2.7,2.45-4.15.57Z"/>
    <path class="st8" d="M558.34,143.93c.77.5,1.44,1.11,2,1.84-.15,1.8-1.72,1.53-2.99,1.57.31-1.14.64-2.28.99-3.41Z"/>
    <path class="st8" d="M456.97,440.28c1.44.14,3.92-.48,3.4,2.03-1.1.22-2.19.4-3.29.52-.03-.63-.08-1.91-.11-2.55Z"/>
    <path class="st8" d="M463.21,440.3c1.1,0,2.21.02,3.32.04.03.55.07,1.66.1,2.21-1.15.04-2.28.08-3.42.12v-2.37Z"/>
    <path class="st8" d="M469.43,440.36c1.09,0,2.18-.02,3.28,0,.01.59.03,1.76.04,2.34-1.12-.04-2.24-.09-3.34-.12,0-.56.01-1.66.02-2.21Z"/>
    <path class="st8" d="M475.74,440.32c1.08-.02,2.15-.03,3.24-.03v2.45c-1.09-.05-2.18-.09-3.25-.13,0-.57,0-1.72,0-2.29Z"/>
    <path class="st8" d="M482.08,440.32c1.05.02,2.12.05,3.18.08.03.57.09,1.7.12,2.27-1.13-.02-2.25-.02-3.37-.03.02-.58.05-1.74.07-2.32Z"/>
    <path class="st8" d="M488.36,440.29c1.08.03,2.16.06,3.26.11v2.21c-1.11.01-2.21.02-3.31.04.02-.59.04-1.77.05-2.36Z"/>
    <path class="st8" d="M494.56,440.32c1.08-.02,2.18-.04,3.28-.05.01.61.04,1.81.06,2.42-1.1-.04-2.18-.06-3.27-.08-.02-.58-.05-1.72-.07-2.29Z"/>
    <path class="st8" d="M500.84,440.18c1.57.22,4.15-.49,3.51,2.16-1.1.2-2.2.36-3.3.5-.06-.67-.16-1.99-.21-2.66Z"/>
    <path class="st8" d="M507.11,440.32c1.13,0,2.26.02,3.39.05.01.56.03,1.68.04,2.24-1.1,0-2.19.01-3.27.03-.04-.58-.12-1.74-.16-2.32Z"/>
    <path class="st8" d="M513.41,440.39c1.12-.05,2.24-.09,3.38-.12.01.61.03,1.83.03,2.44l-3.39-.18c0-.53-.02-1.6-.02-2.14Z"/>
    <path class="st8" d="M519.7,440.36c1.05-.05,2.11-.09,3.17-.13.08.63.22,1.89.29,2.52-1.16-.05-2.31-.09-3.46-.12v-2.27Z"/>
    <path class="st8" d="M525.93,440.32c1.1,0,2.2.02,3.31.04.01.57.04,1.69.05,2.26-1.07.01-2.13.03-3.18.06-.05-.59-.14-1.77-.18-2.36Z"/>
    <path class="st8" d="M532.31,440.24c1.08.04,2.17.07,3.27.12.01.56.05,1.7.07,2.27-1.09-.01-2.17,0-3.25,0-.02-.59-.07-1.79-.09-2.39Z"/>
    <path class="st8" d="M538.57,440.34c1.08,0,2.16.01,3.25.02.02.59.07,1.76.09,2.34-1.13-.03-2.24-.05-3.35-.07,0-.57.01-1.72.01-2.29Z"/>
    <path class="st8" d="M544.78,440.25c.85.02,2.55.06,3.4.08.68,2.37-1.52,2.44-3.2,2.54-.05-.66-.15-1.96-.2-2.62Z"/>
    <path class="st8" d="M551.05,440.3c1.07.04,2.15.08,3.24.13.02.54.04,1.63.06,2.17-1.07.03-2.12.05-3.17.09-.03-.6-.1-1.79-.13-2.39Z"/>
    <path class="st8" d="M557.25,440.38c1.11,0,2.23,0,3.35.01.01.56.03,1.68.04,2.25-1.11-.02-2.21-.02-3.3-.02-.02-.56-.07-1.68-.09-2.24Z"/>
  </g>
  <g id="_x23_1c75b0ff">
    <path class="st11" d="M551.36,150.68c4.73-.09,9.47-.1,14.21.02-2.27,4.09-4.61,8.15-6.86,12.25h-.47c-2.5-3.98-4.55-8.2-6.88-12.27Z"/>
    <path class="st11" d="M452.35,268.91c6.61,5.41,13.13,10.93,19.76,16.33,0,.26-.04.78-.05,1.04-6.69,5.12-12.99,10.73-19.65,15.89-.03-3.18-.06-6.36-.08-9.53-8.2-.01-16.4-.03-24.6-.06-.31-4.47-.55-8.95-.47-13.43,8.37-.4,16.76.28,25.12-.38-.03-3.29-.03-6.57-.03-9.86Z"/>
    <path class="st11" d="M235.88,278.91c.11-3.08.25-6.17.47-9.25,6.29,5.05,12.42,10.29,18.69,15.35-.04.4-.07.81-.1,1.21-6.32,5.42-12.79,10.66-19.21,15.96-.05-3.18-.07-6.36-.07-9.54-8.19,0-16.38.02-24.57,0-.26-4.53-.22-9.06.01-13.59,8.26-.14,16.52.16,24.78-.14Z"/>
    <path class="st11" d="M668.91,268.94c6.74,5.33,13.3,10.91,19.96,16.36l-.02.44c-6.51,5.6-13.1,11.15-19.91,16.38-.06-3.18-.08-6.36-.08-9.54-8.09.13-16.18-.04-24.27.04-.27-4.65-.37-9.3-.04-13.94,8.11,0,16.21-.03,24.32.01,0-3.25,0-6.5.04-9.75Z"/>
    <path class="st11" d="M766.8,407.48c.79-.01,1.59-.01,2.41,0-.07,7.84.19,15.7-.09,23.55-.09,6.31-5.75,11.87-12.12,11.6-64.05.02-128.11.12-192.16-.05-3.03-2.42-6.44-5-7.25-9.04-.75-4.45-.26-8.99-.33-13.48-1.95-.04-3.89-.08-5.81-.12,2.31-4.11,4.44-8.32,6.87-12.36h.33c2.31,4.11,4.62,8.22,6.77,12.43-1.93,0-3.84.02-5.75.04-.02,3.65-.19,7.32.03,10.98.15,5.18,5.08,9.6,10.26,9.23,62,0,124.01,0,186.02,0,5.38.46,10.51-3.93,10.68-9.36.23-7.8-.07-15.61.14-23.42Z"/>
    <path class="st11" d="M788.64,407.5c.84-.01,1.69-.01,2.55.01-.49,15.15.29,30.34-.19,45.5-.36,6.47-6.6,11.61-13.01,10.93-213.67.01-427.34-.01-641.01,0-6.75.61-13.54-5.03-13.3-11.99-.04-10.62,0-21.24,0-31.85-1.94-.04-3.89-.08-5.83-.1,2.28-3.85,3.94-8.09,6.73-11.6.16-.16.5-.47.67-.63,2.16,4.07,4.38,8.12,6.52,12.21-1.89.02-3.77.05-5.66.07.02,10.33-.02,20.66-.03,31-.33,4.91,3.52,9.72,8.44,10.27,3.82.38,7.68.16,11.52.2,210.33.03,420.65.01,630.98.02,2.86.02,5.96-.36,8.14-2.41,2.77-2.15,3.61-5.78,3.52-9.11-.03-14.17.03-28.35-.04-42.52Z"/>
    <path class="st11" d="M341.31,407.81c.31.2.92.59,1.23.78,2.01,3.81,4.1,7.58,6.1,11.4-1.9.02-3.79.04-5.68.06.02,4.01-.24,8.04.19,12.03.62,4.68,5.16,8.31,9.84,8.16,33.65.1,67.32-.05,100.98.07,0,.58.01,1.73.01,2.31-33.35.14-66.7-.05-100.05.08-4.32.19-8.96-1.47-11.3-5.28-3.44-5.14-1.9-11.64-2.16-17.43-1.89-.04-3.77-.06-5.65-.09,2.16-4.03,4.39-8.03,6.49-12.09Z"/>
  </g>
  <g id="_x23_b5bcc0ff">
    <path class="st13" d="M646.06,155.09c3.05-1.43.02,3.31,0,0Z"/>
  </g>
  <g id="_x23_757d81ff">
    <path class="st9" d="M667.28,155.25q.54.55,0,0Z"/>
  </g>
  <g id="_x23_59788fff">
    <path class="st32" d="M124.53,162.89c.16,0,.46-.02.62-.02,25.63.3,51.27-.02,76.91.16,5.18-.06,9.55,4.85,9.16,9.98-.1,35.19.2,70.39-.06,105.59,8.15.04,16.3,0,24.45,0,0-3.19,0-6.38,0-9.56.19.15.56.46.75.61-.22,3.08-.36,6.17-.47,9.25-8.26.3-16.52,0-24.78.14-.23,4.53-.27,9.06-.01,13.59.35,33.45.01,66.91.18,100.37-.02,3.68.2,7.86-2.44,10.8-2.07,2.66-5.49,3.76-8.77,3.72-24.93.24-49.89-.26-74.81.24-.17.16-.51.47-.67.63-1.08-.71-2.26-.99-3.55-.86-24.03.03-48.07.09-72.09-.02-4.62.09-8.28-3.34-10.06-7.34.61-.35,1.82-1.06,2.43-1.41,1.1,3.78,4.65,6.6,8.68,6.24,49.68.07,99.36.02,149.03.03,2.67,0,5.61-.42,7.52-2.49,2.01-1.97,2.13-4.93,2.13-7.56-.1-63.28.04-126.56-.08-189.84-53.87-.02-107.74-.06-161.61-.04-2.04.02-4.08.08-6.12.16-2.56-11.84,1-24.23-1.88-36.02,1.59-3.45,4.99-6.29,8.92-6.24,25.54-.12,51.09.12,76.63-.12M69.54,171.78c-1.16-.18-2.34-.21-3.48.14.29.79.58,1.58.87,2.38-2.72,1-2.13,3.33.36,4.04-1.1,1.42-2.82,2-4.42,2.68-2.08-.95-4.25-1.73-6.53-2,1.75,1.36,3.82,2.15,5.84,3.01-.02,4.57-.01,9.15-.02,13.72-3.21-1.45-6.68-2.1-10.18-2.16-.13-4.62-.06-9.24-.07-13.85,1.03-.18,2.06-.36,3.1-.53,1.2-2.28,3.96-5.82,6.65-3.27.98-.79,1.96-1.6,2.94-2.39-1.13-.97-2.26-1.93-3.4-2.89-.45,2.16-2.81,2.2-4.34,3.21-1.53,1.22-1.82,3.27-2.43,5-.81-.11-2.44-.34-3.25-.46-.46,5.41-.34,10.84-.18,16.26,2.67.12,5.36.32,7.94,1.05-3.01.4-6.05.41-9.09.34.03-5,.07-10-.07-15.01-.37,0-1.12.02-1.49.02-.07,5.63.06,11.26-.04,16.89,3.86.08,7.77-.36,11.58.38,1.34.17,2.69.91,4.04.46,4.38-1.28,8.98-.58,13.47-.76.02-5.57.12-11.13.12-16.69l-1.3.02c-.1,4.89-.03,9.77-.08,14.66-3.1,0-6.26.18-9.29-.6,2.68-.46,5.4-.62,8.11-.74-.03-4.3.24-8.62-.29-12.9-1.76,3.66-.5,7.91-.82,11.82-3.64-.04-7.23.72-10.55,2.2.04-4.56-.01-9.12-.02-13.68.95-.6,1.9-1.19,2.85-1.79,1.97.37,4.11.6,5.13,2.62.5-.58,1.5-1.72,1.99-2.29.73.11,2.19.35,2.92.47-.05-.78-.16-2.35-.22-3.13.54-.33,1.62-1,2.16-1.34-1.46-1.36-2.37-3.02-1.85-5.1-.74.05-2.22.15-2.95.2-.59-2.24-3.12-2.29-3.71,0M53.71,182.24c2.42.87,4.94,1.47,7.52,1.6-2.31-1.26-4.91-1.72-7.52-1.6M67.55,182.11c-.75.02-3.35,1.31-1.66,1.96,1.58.89,4.76-2.43,1.66-1.96M52.83,184.74c2.67,1.09,5.53,1.56,8.37,1.95-2.42-1.71-5.45-2.34-8.37-1.95M64.38,186.74c2.67-.49,5.34-.97,8.01-1.49-2.58-1.27-5.81-.11-8.01,1.49M52.59,187.17c2.64,1.31,5.53,1.94,8.44,2.28-1.91-2.57-5.56-2.47-8.44-2.28M64.52,189.37c2.67-.59,5.87-.39,7.99-2.39-2.69.26-6.16-.02-7.99,2.39M53.49,189.51l.02,1.29c2.64.37,5.26.86,7.9,1.22-2.12-2.1-5.15-2.2-7.92-2.51M64.35,192.08c2.55-.5,5.1-.99,7.69-1.24l-.05-1.26c-2.64.43-5.8.17-7.64,2.5Z"/>
    <path class="st32" d="M341.32,162.95h.49c25.42.14,50.84-.07,76.26.04,5.41-.38,10.18,4.6,9.76,9.97.05,35.22-.11,70.44.05,105.66,8.16.07,16.34-.17,24.5.15-8.36.66-16.75-.02-25.12.38-.08,4.48.16,8.96.47,13.43.27,34.15-.02,68.3.17,102.45.15,3.47-.5,7.25-3.25,9.65-2.49,2.59-6.25,2.98-9.64,2.92-24.34-.01-48.67-.06-73,0l.53.99c-.31-.19-.92-.58-1.23-.78-25.41-.58-50.86.06-76.28-.36-5.79-.09-10.04-5.84-9.7-11.37-.02-31.37.04-62.73-.04-94.1-.06-5.25.4-10.54-.35-15.76.03-.4.06-.81.1-1.21.56-5.64.2-11.32.29-16.97.08-31.73-.14-63.46-.02-95.19-.23-5.23,4.35-10.05,9.63-9.84,25.46-.05,50.92,0,76.38-.06M264.66,174.06c1.68,1.83,3.91,3.03,6.41,3.18,4.69.53,10.4.67,13.8-3.19-1.66-1.41-3.55-2.6-5.75-2.87-4.89-.79-10.67-.84-14.46,2.88M286.03,173.72c.96.85,1.92,1.71,2.89,2.56.42-.47,1.27-1.43,1.7-1.91,1.21.44,2.43.88,3.66,1.3-1.19-1.59-2.79-2.81-4.86-2.91.06-.55.18-1.64.24-2.19-1.23,1.03-2.43,2.09-3.63,3.15M265.02,176.42c.11,1.87.21,3.74.31,5.62,3.87,1.96,8.39,2.64,12.65,1.88,1.98-1.13,3.93-2.35,6.12-3.06.09-1.47.18-2.93.27-4.4-5.94,3.05-13.46,3.19-19.35-.04M291.45,177.59c.04,2.62-2.86,2.12-4.52,2.84,1.69.67,4.33.36,4.63,2.72.99-.95,2-1.88,3.01-2.81-1.05-.92-2.09-1.83-3.12-2.75M265.01,183.15c.11,1.82-.01,3.69.43,5.49,3.36,2.51,7.77,2.25,11.74,2.28.06-1.82.18-3.63.36-5.43-4.31.32-8.73-.14-12.53-2.34M278.55,189.94c.96,4.03,5.88,5.55,9.31,3.53,1.32,1.88,2.73,3.78,4.65,5.1,1.09.39,2.74-.82,1.87-1.94-1.35-1.92-3.31-3.27-5.3-4.42,1.54-2.98,1.39-7.47-2.1-8.97-4.23-2.58-9.81,2.08-8.43,6.7M264.98,190.08c.52,1.98-.69,5.13,1.72,6.18,5.4,2.54,11.77,1.86,17.21-.2-2.22-.89-4.34-2.02-5.96-3.82-4.42.16-9,.05-12.97-2.16M257.88,205.13c-.02,62.63.17,125.24.05,187.87.05,3.11-.41,6.7,1.87,9.21,1.98,2.47,5.29,2.96,8.26,2.85,49.68-.06,99.35.04,149.03-.05,4.81.25,8.91-4.35,8.27-9.11.01-63.61.01-127.21.01-190.82-55.83.06-111.66,0-167.49.05Z"/>
  </g>
  <g id="_x23_58788fff">
    <path class="st39" d="M558.24,162.94h.47c25.1.07,50.2.08,75.29,0,2.95-.12,6.08.65,8.08,2.97,2.64,2.67,2.69,6.63,2.67,10.14-.16,34.2,0,68.41-.2,102.62-.33,4.64-.23,9.29.04,13.94.16,34.8.06,69.62.05,104.42.16,5.65-4.86,10.9-10.6,10.48-25.13.11-50.26.08-75.39.05h-.33c-25.12.02-50.25.09-75.37-.04-5.38.29-10.48-4.13-10.58-9.59-.28-37.21.22-74.45-.31-111.66.01-.26.04-.78.05-1.04.53-37.74-.16-75.5.2-113.24.01-5.02,4.68-9.3,9.67-8.99,25.41-.04,50.84.02,76.26-.07M489.86,173.83c-3.19-.65-5.86,1.26-6.84,4.22-1.99,1.38-4.47,3.18-4.07,5.95.33,3.13,3.53,4.72,6.36,5-1.94-1.72-5.47-2.71-5.05-5.91.29-2.28,2.45-3.2,4.19-4.2.29-3.29,3.26-4.72,6.16-3.42,1.24-3.43,5.35-5.59,8.72-3.73,2.62,1.11,3.36,4.03,3.85,6.55,2.29.48,4.88,2,4.77,4.68.15,3.55-3.89,5.16-6.89,4.75-.05.24-.14.72-.18.96,2.12-.27,4.59.13,6.33-1.42,1.95-1.38,2.37-4.08,1.76-6.25-.76-2.04-2.86-2.98-4.52-4.14-.87-3.15-2.83-6.51-6.4-6.91-3.36-.75-6.23,1.4-8.19,3.87M490.17,179.57c-.45,1.41.02,1.9,1.42,1.47.44-1.41-.04-1.91-1.42-1.47M493.26,179.97c.12,3.33,2.99-1.55,0,0M496.41,179.96c.11,3.33,2.99-1.54,0,0M489.26,182.4l-.69.22c-.5,3.35-.43,6.77-.23,10.14.2.24.58.71.78.95,3.23.22,6.49.23,9.72-.07.21-.21.62-.65.82-.86.25-3.39.49-6.88-.2-10.22-3.35-.61-6.83-.45-10.2-.16M485.95,184.35c-1.48,3.03,3.32.07,0,0M501.01,184.18c-.47,1.66.09,2.21,1.69,1.63.46-1.66-.1-2.2-1.69-1.63M486.04,187.43c-1.63,2.96,3.31.25,0,0M486.3,190.24c-1.34.67-1.33,1.33.01,1.97,1.33-.67,1.32-1.32-.01-1.97M501.05,190.51c-.45,1.4.04,1.87,1.46,1.42.42-1.4-.06-1.87-1.46-1.42M504.63,191.14c.46.81.93,1.62,1.41,2.44-1.65,1.68-3.95,3.13-4.23,5.69,2.3-1.33,4.13-3.29,5.82-5.31.26.62.79,1.85,1.05,2.47,1.17-1.53.76-3.54.94-5.31-1.67,0-3.34.01-4.99.02M490.23,195c-.52,1.64.02,2.2,1.64,1.68.52-1.65-.03-2.21-1.64-1.68M493.17,194.97c-.53,1.64,0,2.19,1.63,1.66.53-1.64-.02-2.19-1.63-1.66M496.29,194.95c-.61,1.61-.09,2.2,1.55,1.79.61-1.61.09-2.21-1.55-1.79M474.84,205.15c-.01,63.94.01,127.88.01,191.81-.25,4.39,3.76,8.25,8.09,8.07,49.69.04,99.38-.02,149.07.03,2.73.06,5.74-.21,7.74-2.32,2.49-2.18,2.33-5.75,2.41-8.76-.07-62.96-.06-125.93.01-188.89-55.78.02-111.56,0-167.33.06Z"/>
    <path class="st39" d="M689.92,167.98c1.7-3.3,5.39-5.22,9.07-5.01,24.97,0,49.93.07,74.9.02.59-.01,1.76-.01,2.35-.01,25.26.08,50.53-.04,75.8.05,5.27-.13,9.75,4.8,9.37,10.03-.1,74.64.01,149.29-.05,223.94.4,5.67-4.74,10.74-10.36,10.51-19.93.05-39.88.17-59.81,0-.86-.02-1.71-.02-2.55-.01-6.48.09-12.96.05-19.43-.02-.82-.01-1.62-.01-2.41,0-21.25.29-42.5-.01-63.75.13-3.5,0-7.39.05-10.22-2.34-3.15-2.39-4.11-6.55-3.99-10.31.08-36.41-.05-72.82,0-109.22l.02-.44c-.06-36.43-.06-72.85-.11-109.28.07-2.69-.1-5.56,1.16-8.04M699.34,181.08c-.19,3.06-1.15,7.4,1.92,9.37-.41-2.74-1.31-5.52-.73-8.31.91-6.39,7.15-11.48,13.6-11.02,2.42.08,4.63,1.17,6.86,2.03-.48.49-1.42,1.48-1.9,1.97,1.88.31,3.77.55,5.68.76-.26-1.78-.52-3.56-.76-5.34-.56.45-1.68,1.35-2.24,1.8-7.99-5.76-20.62-1.03-22.43,8.74M705.74,178.99c-.74,5.9,1.39,12.78,7.51,14.85,2.53-.49,4.59-2.45,6.14-4.42,2.33-2.98,1.75-6.98,1.76-10.5-2.63-1.16-5.28-2.3-7.94-3.36-2.48,1.19-4.97,2.31-7.47,3.43M725.62,178.64c2.81,6.2.33,14.28-5.86,17.34-4.13,2.35-9.08,1.59-13.29-.09.43-.75.88-1.5,1.32-2.25-1.85-.45-3.7-.9-5.54-1.33.31,1.99.63,3.98.97,5.97.45-.48,1.35-1.43,1.8-1.91,6.13,4.09,14.91,3.02,19.64-2.71,4-4.12,4.34-10.48,2.08-15.56-.28.13-.84.4-1.12.54M691.36,205.15c.13,60.95.03,121.89.06,182.84.07,3.52-.22,7.06.2,10.57.6,3.9,4.47,6.76,8.38,6.47,49.32.04,98.63-.01,147.95.02,2.56-.11,5.43.24,7.6-1.45,2.58-1.61,3.46-4.78,3.31-7.65-.07-63.61-.02-127.21-.04-190.81-55.82-.09-111.64-.06-167.46,0Z"/>
  </g>
  <g id="_x23_5a7486ff">
    <path class="st38" d="M38.98,169.25c2.88,11.79-.68,24.18,1.88,36.02.76,4.89.19,9.85.32,14.77.2,59.57-.17,119.15.13,178.73-.61.35-1.82,1.06-2.43,1.41-.45-30.06-.02-60.12-.22-90.18.04-44.67.03-89.34-.1-134-.03-2.26.14-4.51.42-6.75Z"/>
  </g>
  <g id="_x23_f1f4f5ff">
    <path class="st19" d="M69.54,171.78c.59-2.3,3.12-2.25,3.71,0,.73-.05,2.21-.15,2.95-.2-.52,2.08.39,3.74,1.85,5.1-.54.34-1.62,1.01-2.16,1.34.06.78.17,2.35.22,3.13-.73-.12-2.19-.36-2.92-.47-.49.57-1.49,1.71-1.99,2.29-1.02-2.02-3.16-2.25-5.13-2.62-.95.6-1.9,1.19-2.85,1.79,0,4.56.06,9.12.02,13.68,3.32-1.48,6.91-2.24,10.55-2.2.32-3.91-.94-8.16.82-11.82.53,4.28.26,8.6.29,12.9-2.71.12-5.43.28-8.11.74,3.03.78,6.19.6,9.29.6.05-4.89-.02-9.77.08-14.66l1.3-.02c0,5.56-.1,11.12-.12,16.69-4.49.18-9.09-.52-13.47.76-1.35.45-2.7-.29-4.04-.46-3.81-.74-7.72-.3-11.58-.38.1-5.63-.03-11.26.04-16.89.37,0,1.12-.01,1.49-.02.14,5.01.1,10.01.07,15.01,3.04.07,6.08.06,9.09-.34-2.58-.73-5.27-.93-7.94-1.05-.16-5.42-.28-10.85.18-16.26.81.12,2.44.35,3.25.46.61-1.73.9-3.78,2.43-5,1.53-1.01,3.89-1.05,4.34-3.21,1.14.96,2.27,1.92,3.4,2.89-.98.79-1.96,1.6-2.94,2.39-2.69-2.55-5.45.99-6.65,3.27-1.04.17-2.07.35-3.1.53,0,4.61-.06,9.23.07,13.85,3.5.06,6.97.71,10.18,2.16,0-4.57,0-9.15.02-13.72-2.02-.86-4.09-1.65-5.84-3.01,2.28.27,4.45,1.05,6.53,2,1.6-.68,3.32-1.26,4.42-2.68-2.49-.71-3.08-3.04-.36-4.04-.29-.8-.58-1.59-.87-2.38,1.14-.35,2.32-.32,3.48-.14M69.29,174.33c-2.38,2.62,1.56,6.62,4.06,3.98,2.63-2.46-1.49-6.51-4.06-3.98Z"/>
    <path class="st19" d="M489.86,173.83c1.96-2.47,4.83-4.62,8.19-3.87,3.57.4,5.53,3.76,6.4,6.91,1.66,1.16,3.76,2.1,4.52,4.14.61,2.17.19,4.87-1.76,6.25-1.74,1.55-4.21,1.15-6.33,1.42.04-.24.13-.72.18-.96,3,.41,7.04-1.2,6.89-4.75.11-2.68-2.48-4.2-4.77-4.68-.49-2.52-1.23-5.44-3.85-6.55-3.37-1.86-7.48.3-8.72,3.73-2.9-1.3-5.87.13-6.16,3.42-1.74,1-3.9,1.92-4.19,4.2-.42,3.2,3.11,4.19,5.05,5.91-2.83-.28-6.03-1.87-6.36-5-.4-2.77,2.08-4.57,4.07-5.95.98-2.96,3.65-4.87,6.84-4.22Z"/>
    <path class="st19" d="M291.45,177.59c1.03.92,2.07,1.83,3.12,2.75-1.01.93-2.02,1.86-3.01,2.81-.3-2.36-2.94-2.05-4.63-2.72,1.66-.72,4.56-.22,4.52-2.84Z"/>
    <path class="st19" d="M53.71,182.24c2.61-.12,5.21.34,7.52,1.6-2.58-.13-5.1-.73-7.52-1.6Z"/>
    <path class="st19" d="M489.26,182.4c3.37-.29,6.85-.45,10.2.16.69,3.34.45,6.83.2,10.22-.2.21-.61.65-.82.86-3.23.3-6.49.29-9.72.07-.2-.24-.58-.71-.78-.95-.2-3.37-.27-6.79.23-10.14l.69-.22M490.16,184.09c.02,2.58.05,5.16.08,7.74,2.56.04,5.12.06,7.68.07,0-2.59,0-5.18-.01-7.77-2.59-.08-5.17-.09-7.75-.04Z"/>
    <path class="st19" d="M52.83,184.74c2.92-.39,5.95.24,8.37,1.95-2.84-.39-5.7-.86-8.37-1.95Z"/>
    <path class="st19" d="M64.38,186.74c2.2-1.6,5.43-2.76,8.01-1.49-2.67.52-5.34,1-8.01,1.49Z"/>
    <path class="st19" d="M504.63,191.14c1.65,0,3.32-.02,4.99-.02-.18,1.77.23,3.78-.94,5.31-.26-.62-.79-1.85-1.05-2.47-1.69,2.02-3.52,3.98-5.82,5.31.28-2.56,2.58-4.01,4.23-5.69-.48-.82-.95-1.63-1.41-2.44Z"/>
  </g>
  <g id="_x23_5c7b91ff">
    <path class="st34" d="M69.29,174.33c2.57-2.53,6.69,1.52,4.06,3.98-2.5,2.64-6.44-1.36-4.06-3.98Z"/>
  </g>
  <g id="_x23_a8b5bfff">
    <path class="st23" d="M490.17,179.57c1.38-.44,1.86.06,1.42,1.47-1.4.43-1.87-.06-1.42-1.47Z"/>
  </g>
  <g id="_x23_c0c8cdff">
    <path class="st26" d="M493.26,179.97c2.99-1.55.12,3.33,0,0Z"/>
  </g>
  <g id="_x23_b7c3caff">
    <path class="st25" d="M496.41,179.96c2.99-1.54.11,3.33,0,0Z"/>
  </g>
  <g id="_x23_8da0aeff">
    <path class="st18" d="M67.55,182.11c3.1-.47-.08,2.85-1.66,1.96-1.69-.65.91-1.94,1.66-1.96Z"/>
  </g>
  <g id="_x23_758e9fff">
    <path class="st24" d="M712.61,185.78c1.68-1.45,2.92-4.2,5.49-3.92-1.65,2.32-3.61,4.38-5.65,6.35-1.17-1.35-2.7-2.58-2.73-4.52.97.68,1.93,1.38,2.89,2.09Z"/>
  </g>
  <g id="_x23_57768cff">
    <path class="st7" d="M282.21,184.25c3.08-1.78,7.19,1.31,6.65,4.74,0,3.43-4.51,5.43-7.16,3.36-3-1.74-2.56-6.67.51-8.1Z"/>
    <path class="st7" d="M490.16,184.09c2.58-.05,5.16-.04,7.75.04.02,2.59.02,5.18.01,7.77-2.56,0-5.12-.03-7.68-.07-.03-2.58-.06-5.16-.08-7.74M491.33,185.33c-.03,1.84-.05,3.68-.06,5.52,1.84,0,3.69,0,5.54.02,0-1.87.01-3.74.03-5.61-1.85.02-3.68.05-5.51.07Z"/>
  </g>
  <g id="_x23_bec7ccff">
    <path class="st22" d="M485.95,184.35c3.32.07-1.48,3.03,0,0Z"/>
  </g>
  <g id="_x23_a3b3beff">
    <path class="st16" d="M501.01,184.18c1.59-.57,2.15-.03,1.69,1.63-1.6.58-2.16.03-1.69-1.63Z"/>
  </g>
  <g id="_x23_c2ccd4ff">
    <path class="st36" d="M52.59,187.17c2.88-.19,6.53-.29,8.44,2.28-2.91-.34-5.8-.97-8.44-2.28Z"/>
  </g>
  <g id="_x23_c6d1d8ff">
    <path class="st29" d="M64.52,189.37c1.83-2.41,5.3-2.13,7.99-2.39-2.12,2-5.32,1.8-7.99,2.39Z"/>
  </g>
  <g id="_x23_bbc6cfff">
    <path class="st14" d="M486.04,187.43c3.31.25-1.63,2.96,0,0Z"/>
  </g>
  <g id="_x23_c7d1d8ff">
    <path class="st21" d="M53.49,189.51c2.77.31,5.8.41,7.92,2.51-2.64-.36-5.26-.85-7.9-1.22l-.02-1.29Z"/>
  </g>
  <g id="_x23_c7d2daff">
    <path class="st17" d="M64.35,192.08c1.84-2.33,5-2.07,7.64-2.5l.05,1.26c-2.59.25-5.14.74-7.69,1.24Z"/>
  </g>
  <g id="_x23_abbdc8ff">
    <path class="st20" d="M486.3,190.24c1.33.65,1.34,1.3.01,1.97-1.34-.64-1.35-1.3-.01-1.97Z"/>
  </g>
  <g id="_x23_adbec9ff">
    <path class="st12" d="M501.05,190.51c1.4-.45,1.88.02,1.46,1.42-1.42.45-1.91-.02-1.46-1.42Z"/>
  </g>
  <g id="_x23_9dadb8ff">
    <path class="st27" d="M490.23,195c1.61-.53,2.16.03,1.64,1.68-1.62.52-2.16-.04-1.64-1.68Z"/>
  </g>
  <g id="_x23_9fadb6ff">
    <path class="st35" d="M493.17,194.97c1.61-.53,2.16.02,1.63,1.66-1.62.53-2.16-.02-1.63-1.66Z"/>
  </g>
  <g id="_x23_a1b1bcff">
    <path class="st15" d="M496.29,194.95c1.64-.42,2.16.18,1.55,1.79-1.64.41-2.16-.18-1.55-1.79Z"/>
  </g>
  <g id="_x23_9db2c1ff">
    <path class="st28" d="M50.08,218.95c-.13-3.06,2.95-5.43,5.87-5.09,46-.02,92,0,137.99,0,3.07-.42,5.72,2.21,5.67,5.22.34,6.99.14,14,.14,20.99.18,2.88-1.34,6.62-4.71,6.56-23.07.11-46.16.1-69.23-.02-.63,0-1.27,0-1.9,0-22.63.18-45.27.03-67.9.07-3.21.36-6.2-2.39-5.93-5.64-.06-7.37-.08-14.74,0-22.1Z"/>
    <path class="st28" d="M270.16,214.26c2.56-.67,5.25-.37,7.87-.43,44.32.06,88.65-.03,132.97.05,2.88-.27,5.53,2.25,5.29,5.16.14,4.97.34,9.97-.09,14.93-.32,2.99-3.52,4.51-6.26,4.18-45.64.01-91.29,0-136.94,0-2.98.4-6.31-1.81-6.09-5.04-.13-4.71-.14-9.43.02-14.14-.16-2.12,1.25-4.04,3.23-4.71Z"/>
    <path class="st28" d="M486.38,214.48c2.72-1.07,5.76-.52,8.62-.64,44,.03,88.01,0,132.01.01,2.99-.39,6.25,1.85,6.07,5.07.14,4.69.15,9.4.02,14.1.16,2.73-2.33,5.22-5.05,5.11-46.03.08-92.05-.03-138.08.04-2.68.28-5.92-1.24-6.17-4.21-.42-4.97-.25-9.98-.11-14.95-.15-1.94.92-3.74,2.69-4.53Z"/>
    <path class="st28" d="M703.32,214.32c1.43-.68,3.08-.4,4.63-.5,45.34.1,90.69-.03,136.03.06,2.87-.24,5.93,1.93,5.84,4.98.19,4.75.18,9.52.02,14.28.05,3.03-2.9,5.35-5.82,5.01-46.03.02-92.06-.03-138.08.02-2.91.29-5.66-2.19-5.62-5.11-.22-4.73-.28-9.47-.05-14.2.02-1.97,1.33-3.68,3.05-4.54Z"/>
    <path class="st28" d="M269.37,246.5c1.41-.73,3.07-.59,4.62-.67,45.66.03,91.33.13,137,.08,2.88-.32,5.58,2.24,5.31,5.16.09,4.99.16,10-.12,14.99-.09,2.52-2.81,4.11-5.13,3.99-45.69.05-91.39.01-137.08.04-1.92-.07-4.12.06-5.57-1.44-1.75-1.35-1.53-3.72-1.58-5.68.07-4.01-.12-8.02.04-12.03-.07-1.81.93-3.56,2.51-4.44Z"/>
    <path class="st28" d="M124.46,262.84c.18-.01.54-.04.72-.05,2.29.09,4.57.38,6.87.36,20.32-.06,40.64.01,60.96-.03,1.84,0,3.95.09,5.24,1.62,1.76,1.96,1.46,4.78,1.56,7.22-.13,6.34.18,12.69-.17,19.02-.07,2.83-2.72,5.29-5.58,4.95-22.79.09-45.58-.13-68.37.15h-1.64c-23.04-.3-46.09.02-69.14-.19-2.98.05-5.18-3.03-4.86-5.86.1-7.66-.24-15.34.16-22.98.48-3.19,3.96-4.34,6.78-3.95,22.49-.14,45,.4,67.47-.26Z"/>
    <path class="st28" d="M269.29,278.35c1.41-.78,3.12-.5,4.67-.62,45.67.08,91.35,0,137.02.04,2.93-.39,5.62,2.27,5.32,5.2.06,5.01.31,10.04-.12,15.03-.31,2.92-3.57,4.25-6.17,4.01-45.67-.03-91.35-.01-137.02-.01-2.93.36-6.28-1.84-6.09-5.01-.12-4.65-.1-9.31-.02-13.95-.09-1.88.72-3.77,2.41-4.69Z"/>
    <path class="st28" d="M486.36,281.53c2.4-.96,5.09-.51,7.62-.61,41.67.03,83.33.06,125,.03,3.35.03,6.71-.13,10.06.18,2.35.21,4.2,2.53,4.07,4.87.05,5,.19,10.01-.03,15.01-.18,2.91-3.37,4.56-6.02,4.24-46-.05-92.01.04-138.01-.05-2.87.29-5.58-2.34-5.39-5.22-.16-4.64-.17-9.29.07-13.93-.03-1.85.94-3.68,2.63-4.52Z"/>
    <path class="st28" d="M703.4,281.4c2.78-.75,5.72-.37,8.58-.44,44,.07,88,0,132,0,2.91-.42,6.01,1.87,5.84,4.94.12,4.74.22,9.49.07,14.23.09,3.05-2.92,5.48-5.88,5.11-46-.02-92,.03-138-.03-2.97.31-5.65-2.19-5.68-5.12-.26-4.71-.15-9.44.07-14.15-.06-1.96,1.24-3.76,3-4.54Z"/>
    <path class="st28" d="M269.26,310.21c1.42-.82,3.14-.57,4.71-.69,45.34-.05,90.68-.07,136.01-.03,2.54-.23,5.48.85,6.2,3.53.5,4.31.14,8.67.25,13.01-.12,2.2.19,4.94-1.83,6.42-1.76,1.66-4.34,1.29-6.55,1.41-45.04-.05-90.08,0-135.12-.03-2.86.31-5.98-1.79-5.99-4.83-.2-4.65-.14-9.32-.04-13.97-.05-1.87.67-3.86,2.36-4.82Z"/>
    <path class="st28" d="M124.36,311.82c.24-.03.74-.09.98-.12,3.18.71,6.44.53,9.66.5,19.68.06,39.36-.02,59.04,0,3.1-.22,5.74,2.68,5.61,5.71.17,7.03.17,14.07.11,21.1.32,3.18-2.38,6.53-5.71,6.14-22.76-.1-45.52.16-68.27-.12h-1.6c-22.73.29-45.46.04-68.19.14-3.44.54-6.31-2.78-5.95-6.08.06-7.39-.13-14.79.1-22.18.13-2.9,3-4.97,5.81-4.67,17.69-.09,35.38.02,53.07-.06,5.11-.1,10.25.36,15.34-.37Z"/>
    <path class="st28" d="M486.2,312.23c1.21-.47,2.48-.67,3.82-.61,45.97.16,91.95-.06,137.92.09,2.85-.3,5.54,2.35,5.2,5.23-.01,5.03.23,10.08-.12,15.11-.58,3.17-4.23,4.2-7.03,3.92-45.32.1-90.64.01-135.96.04-2.97.33-6.46-1.74-6.36-5-.14-4.65-.15-9.32-.02-13.98-.07-1.92.82-3.85,2.55-4.8Z"/>
    <path class="st28" d="M703.16,312.15c2.82-.91,5.88-.36,8.81-.48,44.01-.06,88.02-.04,132.02-.05,2.4-.24,5.08,1.08,5.62,3.59.54,3.9.34,7.87.48,11.8-.1,2.49.35,5.48-1.65,7.38-1.4,1.49-3.56,1.56-5.44,1.59-43.01.05-86.01,0-129.01.02-3.04,0-6.09.14-9.11-.16-2.49-.08-4.43-2.47-4.52-4.85-.21-4.35-.14-8.7-.1-13.05-.07-2.24.63-4.86,2.9-5.79Z"/>
    <path class="st28" d="M270.38,341.44c16.51-.6,33.09-.03,49.63-.24,30.35.07,60.7-.06,91.05.03,2.68-.25,5.2,2.15,5.24,4.81.19,4.97.25,9.96-.04,14.93-.13,2.63-2.62,4.71-5.22,4.52-46.02.12-92.05.06-138.07.05-3.13.37-6.47-2.19-6.1-5.5-.04-4.69-.13-9.39.06-14.07-.02-2.07,1.55-3.9,3.45-4.53Z"/>
    <path class="st28" d="M487.3,342.45c46.54-.39,93.15.04,139.71-.22,2.82-.3,6.18,1.58,6.09,4.73.04,5.35.29,10.73-.18,16.06-.87,2.95-4.17,3.84-6.91,3.64-45.36.06-90.72.03-136.07.03-2.85.28-6.16-1.64-6.23-4.72-.1-4.99-.15-9.98.06-14.96-.02-2.11,1.54-3.99,3.53-4.56Z"/>
    <path class="st28" d="M704.33,342.44c45.51-.4,91.07.02,136.59-.24,2.47.17,5.48-.47,7.43,1.46,1.86,1.57,1.53,4.18,1.69,6.35-.02,4.3.15,8.63-.33,12.91-.71,2.92-3.98,3.95-6.66,3.76-45.35.01-90.7.02-136.05,0-2.98.31-6.45-1.44-6.66-4.71-.26-4.68-.12-9.38-.11-14.06-.19-2.5,1.56-5.07,4.1-5.46Z"/>
    <path class="st28" d="M270.13,373.25c2.9-.61,5.9-.26,8.85-.32,43.66.02,87.32,0,130.97.01,2.66-.3,5.97,1.02,6.23,4.04.32,5.01.17,10.05.11,15.07.21,3.34-3.21,5.67-6.31,5.26-44.35.07-88.69.02-133.04.07-3.24.01-7.61.68-9.42-2.75-1.31-3.7-.43-7.78-.69-11.63.03-3.4-.67-8.23,3.3-9.75Z"/>
    <path class="st28" d="M487.17,373.25c3.57-.62,7.22-.23,10.84-.31,43.02-.02,86.04.04,129.06-.02,2.98-.39,6.26,1.88,6.06,5.09.01,5.02.21,10.06-.06,15.07-.34,2.91-3.42,4.54-6.13,4.22-45.67.09-91.34.07-137.01.02-2.79.39-5.91-1.38-6.19-4.34-.32-4.65-.17-9.33-.1-13.98-.12-2.41,1.05-5.05,3.53-5.75Z"/>
    <path class="st28" d="M703.34,373.38c1.17-.38,2.4-.53,3.66-.46,45.67.05,91.34.02,137,0,2.95-.43,6.06,1.92,5.9,5.02.1,4.68.02,9.38,0,14.07.31,3.18-2.9,5.68-5.93,5.29-45.99.07-91.99.03-137.99.05-3.02.37-5.61-2.29-5.66-5.21-.19-4.75-.17-9.51-.05-14.26-.09-1.99,1.33-3.7,3.06-4.51Z"/>
  </g>
  <g id="_x23_9cb1c1ff">
    <path class="st31" d="M486.24,245.28c2.1-.98,4.53-.62,6.79-.76,44.97.08,89.95-.03,134.92.07,2.93-.29,5.32,2.57,5.1,5.38.18,6.36.1,12.73.08,19.09.39,3.35-2.91,6.02-6.1,5.62-46.05.11-92.1.04-138.14-.03-3.02.18-5.56-2.72-5.24-5.67.02-6.31-.15-12.61.01-18.91-.1-1.95.83-3.86,2.58-4.79Z"/>
    <path class="st31" d="M703.16,245.13c2.15-.81,4.52-.48,6.78-.58,44.69-.12,89.38-.05,134.07-.03,3.06-.32,6.02,2.21,5.87,5.35.07,6.75.2,13.51-.05,20.26-.09,2.91-3.13,4.77-5.83,4.55-46.02.1-92.05.02-138.07.06-3.15.26-5.77-2.64-5.65-5.7-.14-6.03-.03-12.07-.06-18.1-.18-2.29.77-4.78,2.94-5.81Z"/>
    <path class="st31" d="M52.32,362.37c1.38-.9,3.12-.7,4.68-.8,45.68.06,91.36.02,137.04.02,3.05-.41,5.7,2.36,5.66,5.32.15,7.38.09,14.77.03,22.15.16,3.06-2.52,5.87-5.63,5.61-44.04-.02-88.09-.06-132.13-.01-2.65-.02-5.32.16-7.95-.19-2.54-.31-4.14-2.98-3.94-5.4-.08-7.03,0-14.07-.03-21.11-.08-2.06.29-4.47,2.27-5.59Z"/>
  </g>
  <g id="_x23_58788eff">
    <path class="st37" d="M123.91,246.62c.63,0,1.27,0,1.9,0,.02,2.69.06,5.37.14,8.06.96-.03,2.89-.07,3.86-.09-1.48,2.77-2.89,5.59-4.63,8.21-.18,0-.54.04-.72.05-1.46-2.79-2.98-5.55-4.43-8.34.95.04,2.86.1,3.82.13.02-2.67.05-5.34.06-8.01Z"/>
  </g>
  <g id="_x23_6f8a9dff">
    <path class="st6" d="M124.05,296.08h1.64c1.89,2.58-3.46,2.62-1.64,0Z"/>
  </g>
  <g id="_x23_5d7c92ff">
    <path class="st10" d="M124.1,300.43l1.65-.06c-.02.84-.04,2.52-.05,3.36,1.33,0,2.66,0,3.99.03-1.4,2.67-2.85,5.32-4.35,7.94-.24.03-.74.09-.98.12-1.36-2.69-2.79-5.35-4.18-8.03.98-.01,2.93-.03,3.91-.04,0-.83.01-2.49.01-3.32Z"/>
    <path class="st10" d="M123.72,352.74c-.01-1.64.64-2.76,1.95-3.37.01.82.05,2.46.06,3.28,1.31.02,2.63.05,3.95.09-1.57,2.93-3.14,5.87-4.82,8.74-1.7-2.85-3.18-5.83-4.66-8.79.88.01,2.64.04,3.52.05Z"/>
  </g>
  <g id="_x23_8ea1afff">
    <path class="st33" d="M124.18,345.04h1.6c.87,1.29.59,2.24-.83,2.86-1.42-.61-1.68-1.56-.77-2.86Z"/>
  </g>
  <g class="st4">
    <g class="st4">
      <g class="st4">
        <text class="st0" transform="translate(414.69 108.77)"><tspan x="0" y="0">Feedback &amp; Improvement</tspan></text>
      </g>
    </g>
  </g>
  <g class="st4">
    <g class="st4">
      <g class="st4">
        <text class="st0" transform="translate(608.51 138.57)"><tspan x="0" y="0">Parameter Adjustment </tspan><tspan x="-1.82" y="15.6">&amp; Prompt Optimization</tspan></text>
      </g>
    </g>
  </g>
  <g class="st4">
    <g class="st4">
      <g class="st4">
        <text class="st0" transform="translate(468 128.8)"><tspan x="0" y="0">Refinement &amp; </tspan><tspan x="15.16" y="15.6">Cleaning</tspan></text>
      </g>
    </g>
  </g>
  <g class="st4">
    <g class="st4">
      <g class="st4">
        <text class="st5" transform="translate(736.46 184.9)"><tspan x="0" y="0">Validation, Rollback </tspan><tspan x="6.58" y="13.2">&amp; Quality Control</tspan></text>
      </g>
    </g>
  </g>
  <g class="st4">
    <g class="st4">
      <g class="st4">
        <text class="st5" transform="translate(513.38 182.51)"><tspan x="0" y="0">Generation Orchestration </tspan><tspan x="18.61" y="13.2">&amp; Task Expansion</tspan></text>
      </g>
    </g>
  </g>
  <g class="st4">
    <g class="st4">
      <g class="st4">
        <text class="st5" transform="translate(307.24 184.03)"><tspan x="0" y="0">Course Planning &amp; </tspan><tspan x="1.23" y="13.2">Curriculum Design</tspan></text>
      </g>
    </g>
  </g>
  <g class="st4">
    <g class="st4">
      <g class="st4">
        <text class="st5" transform="translate(96.12 181.74)"><tspan x="0" y="0">Course Planning &amp; </tspan><tspan x="1.23" y="13.2">Curriculum Design</tspan></text>
      </g>
    </g>
  </g>
  <g class="st4">
    <g class="st4">
      <g class="st4">
        <text class="st1" transform="translate(278.43 77.51)"><tspan x="0" y="0">A Closed-loop AI Curriculum Production System</tspan></text>
      </g>
    </g>
  </g>
  <g class="st4">
    <g class="st4">
      <g class="st4">
        <text class="st2" transform="translate(156.61 45.78)"><tspan x="0" y="0">Curriculum Data Factory Responsibility Architecture</tspan></text>
      </g>
    </g>
  </g>
  <g class="st4">
    <g class="st4">
      <g class="st4">
        <text class="st0" transform="translate(599.19 422.68)"><tspan x="0" y="0">Parameter Adjustment &amp; </tspan><tspan x="11.54" y="15.6">Prompt Optimization</tspan></text>
      </g>
    </g>
  </g>
  <g class="st4">
    <g class="st4">
      <g class="st4">
        <text class="st0" transform="translate(393.49 461.22)"><tspan x="0" y="0">Feedback &amp; Improvement</tspan></text>
      </g>
    </g>
  </g>
  <g class="st4">
    <g class="st4">
      <g class="st4">
        <text class="st0" transform="translate(91.83 375.18)"><tspan x="0" y="0">Math-Code </tspan><tspan x="-12.81" y="15.6">complementarity</tspan></text>
      </g>
    </g>
  </g>
  <g class="st4">
    <g class="st4">
      <g class="st4">
        <text class="st0" transform="translate(289.76 228.06)"><tspan x="0" y="0">Seed data sampling</tspan></text>
      </g>
    </g>
  </g>
  <g class="st4">
    <g class="st4">
      <g class="st4">
        <text class="st0" transform="translate(299.82 263.03)"><tspan x="0" y="0">Schema design</tspan></text>
      </g>
    </g>
  </g>
  <g class="st4">
    <g class="st4">
      <g class="st4">
        <text class="st0" transform="translate(298.75 293.59)"><tspan x="0" y="0">JSONL storage</tspan></text>
      </g>
    </g>
  </g>
  <g class="st4">
    <g class="st4">
      <g class="st4">
        <text class="st0" transform="translate(303.27 324.35)"><tspan x="0" y="0">Deduplication</tspan></text>
      </g>
    </g>
  </g>
  <g class="st4">
    <g class="st4">
      <g class="st4">
        <text class="st0" transform="translate(283.3 356.28)"><tspan x="0" y="0">Train/validation split</tspan></text>
      </g>
    </g>
  </g>
  <g class="st4">
    <g class="st4">
      <g class="st4">
        <text class="st0" transform="translate(288.6 386.69)"><tspan x="0" y="0">Data lineage tracking</tspan></text>
      </g>
    </g>
  </g>
  <g class="st4">
    <g class="st4">
      <g class="st4">
        <text class="st0" transform="translate(68.45 334.37)"><tspan x="0" y="0">Task type coverage</tspan></text>
      </g>
    </g>
  </g>
  <g class="st4">
    <g class="st4">
      <g class="st4">
        <text class="st0" transform="translate(71.95 283.75)"><tspan x="0" y="0">Difficulty progression</tspan></text>
      </g>
    </g>
  </g>
  <g class="st4">
    <g class="st4">
      <g class="st4">
        <text class="st0" transform="translate(65.02 237.17)"><tspan x="0" y="0">Chapter structure design</tspan></text>
      </g>
    </g>
  </g>
  <g class="st4">
    <g class="st4">
      <g class="st4">
        <text class="st3" transform="translate(2185.26 -226.57)"><tspan x="0" y="0">Train</tspan></text>
      </g>
    </g>
  </g>
  <g class="st4">
    <g class="st4">
      <g class="st4">
        <text class="st0" transform="translate(520.13 231.34)"><tspan x="0" y="0">Evol Prompt</tspan></text>
      </g>
    </g>
  </g>
  <g class="st4">
    <g class="st4">
      <g class="st4">
        <text class="st0" transform="translate(498.31 255.59)"><tspan x="0" y="0">Program-of-Thought</tspan><tspan x="16.6" y="15.6" xml:space="preserve"> (PoT) Prompt</tspan></text>
      </g>
    </g>
  </g>
  <g class="st4">
    <g class="st4">
      <g class="st4">
        <text class="st0" transform="translate(529.88 297.89)"><tspan x="0" y="0">API calls</tspan></text>
      </g>
    </g>
  </g>
  <g class="st4">
    <g class="st4">
      <g class="st4">
        <text class="st0" transform="translate(508.95 325.33)"><tspan x="0" y="0">Retry mechanism</tspan></text>
      </g>
    </g>
  </g>
  <g class="st4">
    <g class="st4">
      <g class="st4">
        <text class="st0" transform="translate(497.46 357.25)"><tspan x="0" y="0">Format compatibility</tspan></text>
      </g>
    </g>
  </g>
  <g class="st4">
    <g class="st4">
      <g class="st4">
        <text class="st0" transform="translate(495.89 387.67)"><tspan x="0" y="0">Task expansion strategy</tspan></text>
      </g>
    </g>
  </g>
  <g class="st4">
    <g class="st4">
      <g class="st4">
        <text class="st3" transform="translate(1270.85 26.14)"><tspan x="0" y="0">Train</tspan></text>
      </g>
    </g>
  </g>
  <g class="st4">
    <g class="st4">
      <g class="st4">
        <text class="st0" transform="translate(707.2 232.09)"><tspan x="0" y="0">Code execution validation</tspan></text>
      </g>
    </g>
  </g>
  <g class="st4">
    <g class="st4">
      <g class="st4">
        <text class="st0" transform="translate(723.98 257.08)"><tspan x="0" y="0">Output consistency</tspan><tspan x="24.92" y="15.6" xml:space="preserve"> checking</tspan></text>
      </g>
    </g>
  </g>
  <g class="st4">
    <g class="st4">
      <g class="st4">
        <text class="st0" transform="translate(721.15 295.89)"><tspan x="0" y="0">Failed sample rollback</tspan></text>
      </g>
    </g>
  </g>
  <g class="st4">
    <g class="st4">
      <g class="st4">
        <text class="st0" transform="translate(749.25 326.31)"><tspan x="0" y="0">QA pipeline</tspan></text>
      </g>
    </g>
  </g>
  <g class="st4">
    <g class="st4">
      <g class="st4">
        <text class="st0" transform="translate(734.89 358.24)"><tspan x="0" y="0">Coverage checks</tspan></text>
      </g>
    </g>
  </g>
  <g class="st4">
    <g class="st4">
      <g class="st4">
        <text class="st0" transform="translate(722.83 388.65)"><tspan x="0" y="0">Delivery quality control</tspan></text>
      </g>
    </g>
  </g>
</svg>